<?xml version="1.0" encoding="UTF-8" standalone="no"?>
<!-- Created with Inkscape (http://www.inkscape.org/) -->

<svg
   width="24"
   height="24"
   viewBox="0 0 6.3499999 6.3500002"
   version="1.1"
   id="svg5"
   inkscape:version="1.1.2 (0a00cf5339, 2022-02-04, custom)"
   sodipodi:docname="devhelp.svg"
   xmlns:inkscape="http://www.inkscape.org/namespaces/inkscape"
   xmlns:sodipodi="http://sodipodi.sourceforge.net/DTD/sodipodi-0.dtd"
   xmlns:xlink="http://www.w3.org/1999/xlink"
   xmlns="http://www.w3.org/2000/svg"
   xmlns:svg="http://www.w3.org/2000/svg">
  <sodipodi:namedview
     id="namedview7"
     pagecolor="#ffffff"
     bordercolor="#666666"
     borderopacity="1.0"
     inkscape:pageshadow="2"
     inkscape:pageopacity="0.0"
     inkscape:pagecheckerboard="0"
     inkscape:document-units="px"
     showgrid="false"
     units="px"
     height="24px"
     inkscape:zoom="23.128284"
     inkscape:cx="13.619687"
     inkscape:cy="12.668471"
     inkscape:window-width="1920"
     inkscape:window-height="1012"
     inkscape:window-x="0"
     inkscape:window-y="0"
     inkscape:window-maximized="1"
     inkscape:current-layer="svg5" />
  <defs
     id="defs2">
    <linearGradient
       inkscape:collect="always"
       id="linearGradient1871">
      <stop
         style="stop-color:#ffffff;stop-opacity:1;"
         offset="0"
         id="stop1867" />
      <stop
         style="stop-color:#ffffff;stop-opacity:0.1"
         offset="0.12"
         id="stop2515" />
      <stop
         style="stop-color:#ffffff;stop-opacity:0.102"
         offset="0.89999998"
         id="stop2581" />
      <stop
         style="stop-color:#ffffff;stop-opacity:0.502"
         offset="1"
         id="stop1869" />
    </linearGradient>
    <linearGradient
       inkscape:collect="always"
       id="linearGradient2290">
      <stop
         style="stop-color:#bc1938;stop-opacity:1"
         offset="0"
         id="stop2286" />
      <stop
         style="stop-color:#da1636;stop-opacity:1"
         offset="1"
         id="stop2288" />
    </linearGradient>
    <linearGradient
       inkscape:collect="always"
       xlink:href="#linearGradient1871"
       id="linearGradient890"
       x1="1.983304"
       y1="0.26458335"
       x2="1.983304"
       y2="6.0854168"
       gradientUnits="userSpaceOnUse" />
    <linearGradient
       inkscape:collect="always"
       xlink:href="#linearGradient2290"
       id="linearGradient1282"
       x1="2.020364"
       y1="0.13229167"
       x2="4.7625079"
       y2="6.2177081"
       gradientUnits="userSpaceOnUse" />
  </defs>
  <path
     d="m 2.0811548,0.26458334 c -0.2963598,0 -0.5331777,0.006376 -0.7384256,0.0408252 C 1.1374813,0.33986259 0.95112457,0.40796899 0.81099857,0.54776953 0.67087526,0.68757008 0.60177668,0.87502473 0.56761103,1.0805531 0.53345067,1.286084 0.52792088,1.5228544 0.52937345,1.820045 v 1.6195384 1.3558573 c -0.001323,0.2966085 0.004128,0.5332122 0.0382376,0.7384574 0.034163,0.205531 0.10326159,0.392983 0.24338762,0.5327836 0.1401286,0.1398005 0.32648263,0.2079069 0.53173053,0.2423609 0.2052479,0.034454 0.4420658,0.040825 0.7384256,0.040825 h 2.1878979 c 0.2963545,0 0.5324898,-0.00635 0.7373937,-0.040825 C 5.2113477,6.2745595 5.3980165,6.2060483 5.5376583,6.0661631 5.6773001,5.9262805 5.745597,5.7395667 5.7800087,5.5344141 5.8144231,5.3292588 5.8208339,5.0923958 5.8208339,4.7954407 V 3.4395834 1.8190104 c 0,-0.2969551 -0.0064,-0.533818 -0.040825,-0.7389733 C 5.745597,0.8748845 5.6773001,0.68817068 5.5376583,0.54828812 5.3980165,0.40840291 5.2113504,0.3398917 5.0064464,0.30540855 4.8015399,0.2709254 4.5654098,0.26458334 4.2690527,0.26458334 Z"
     style="color:#000000;font-style:normal;font-variant:normal;font-weight:normal;font-stretch:normal;font-size:medium;line-height:normal;font-family:sans-serif;font-variant-ligatures:normal;font-variant-position:normal;font-variant-caps:normal;font-variant-numeric:normal;font-variant-alternates:normal;font-feature-settings:normal;text-indent:0;text-align:start;text-decoration:none;text-decoration-line:none;text-decoration-style:solid;text-decoration-color:#000000;letter-spacing:normal;word-spacing:normal;text-transform:none;writing-mode:lr-tb;direction:ltr;text-orientation:mixed;dominant-baseline:auto;baseline-shift:baseline;text-anchor:start;white-space:normal;shape-padding:0;clip-rule:nonzero;display:inline;overflow:visible;visibility:visible;opacity:0.1;isolation:auto;mix-blend-mode:normal;color-interpolation:sRGB;color-interpolation-filters:linearRGB;solid-color:#000000;solid-opacity:1;vector-effect:none;fill:#000000;fill-opacity:1;fill-rule:nonzero;stroke:none;stroke-width:0.529156;stroke-linecap:butt;stroke-linejoin:miter;stroke-miterlimit:4;stroke-dasharray:none;stroke-dashoffset:0;stroke-opacity:1;marker:none;color-rendering:auto;image-rendering:auto;shape-rendering:auto;text-rendering:auto;enable-background:accumulate"
     id="path3448" />
  <path
     d="m 2.0203641,0.13229167 c -1.23217263,0 -1.36475265,0.12535429 -1.35871486,1.34825053 v 1.6944579 1.6944605 c -0.006059,1.2228936 0.12654223,1.3482479 1.35871486,1.3482479 h 2.3094634 c 1.2321725,0 1.3587148,-0.1253384 1.3587148,-1.3482479 V 3.1750001 1.4805422 c 0,-1.22290946 -0.1265449,-1.34825053 -1.3587175,-1.34825053 z"
     style="color:#000000;display:inline;overflow:visible;visibility:visible;fill:url(#linearGradient1282);fill-opacity:1;fill-rule:nonzero;stroke:none;stroke-width:0.264583;marker:none;enable-background:accumulate"
     id="path3009" />
  <path
     id="rect1018"
     style="opacity:1;fill:#4d4d4d;stroke-width:0.999999;fill-opacity:1"
     d="M 6 0.53320312 C 2.8581728 0.69779472 2.4801992 1.585249 2.5 5.5957031 L 2.5 12 L 2.5 18.404297 C 2.4801297 22.414742 2.8581581 23.302205 6 23.466797 L 6 0.53320312 z "
     transform="scale(0.26458334)" />
  <path
     id="rect2789"
     style="opacity:0.03;fill:#ffffff;fill-opacity:1;stroke-width:2;stroke-linecap:round;stroke-linejoin:round"
     d="M 2.5 12 L 2.5 18.404297 C 2.4770961 23.026257 2.9796881 23.5 7.6367188 23.5 L 16.365234 23.5 C 21.022264 23.5 21.5 23.026317 21.5 18.404297 L 21.5 12 L 2.5 12 z "
     transform="scale(0.26458334)" />
  <path
     d="m 3.038384,1.5875002 c -0.1180783,0 -0.217596,0.013217 -0.2985019,0.039463 -0.07872,0.024053 -0.1421572,0.060132 -0.1902635,0.1082383 -0.048106,0.045921 -0.082075,0.1036594 -0.1017548,0.1736325 -0.019678,0.069972 -0.029314,0.1499383 -0.029314,0.2395909 v 0.5902387 c 0,0.03936 -0.00662,0.078744 -0.019731,0.118104 -0.010937,0.037173 -0.02957,0.071143 -0.05581,0.1017549 -0.024051,0.028426 -0.054717,0.052479 -0.091889,0.072159 -0.037173,0.017493 -0.081972,0.026215 -0.1344531,0.026215 v 0.2362082 c 0.052479,0 0.097279,0.00991 0.1344531,0.029597 0.037173,0.017493 0.067838,0.041547 0.091889,0.072159 0.026241,0.028426 0.044878,0.062115 0.05581,0.1014737 0.013114,0.037173 0.019731,0.075645 0.019731,0.1150029 v 0.590239 c 0,0.089652 0.00963,0.1696183 0.029314,0.2395908 0.01968,0.069972 0.05365,0.1289092 0.1017548,0.1770153 0.048106,0.048105 0.1115452,0.084185 0.1902635,0.1082383 0.080906,0.024053 0.1804234,0.036079 0.2985019,0.036079 h 0.01296 V 4.5231913 c -0.1246389,0 -0.2142391,-0.023139 -0.2689051,-0.069058 -0.052474,-0.043733 -0.078638,-0.128832 -0.078638,-0.2556578 V 3.6933616 c 0,-0.1443188 -0.019834,-0.2558624 -0.059193,-0.3345813 C 2.607436,3.280062 2.5539143,3.2187335 2.4839423,3.1750001 2.553916,3.131267 2.607436,3.0699385 2.6446086,2.9912199 2.6839686,2.9125016 2.7038012,2.8009568 2.7038012,2.6566385 V 2.1515249 c 0,-0.1268246 0.026163,-0.2119247 0.078643,-0.2556573 0.054665,-0.045921 0.1442674,-0.069058 0.268906,-0.069058 V 1.5875002 Z m 0.8233464,0 V 1.826809 c 0.1246389,0 0.2130434,0.023139 0.2655227,0.069058 0.054665,0.043731 0.082025,0.128832 0.082025,0.2556572 V 2.656638 c 0,0.1443188 0.018639,0.2558626 0.05581,0.3345814 0.03936,0.07872 0.094077,0.1400484 0.1640486,0.1837801 -0.069972,0.043731 -0.1246903,0.1050616 -0.1640486,0.1837802 -0.037173,0.078718 -0.05581,0.1902631 -0.05581,0.3345815 v 0.5051139 c 0,0.1268246 -0.02736,0.2119246 -0.082025,0.2556574 -0.052479,0.045921 -0.1408835,0.069058 -0.2655227,0.069058 v 0.2393087 h 0.01296 c 0.1180783,0 0.2164003,-0.012034 0.2951191,-0.036079 0.080906,-0.024053 0.1455395,-0.060132 0.1936461,-0.1082383 0.048103,-0.048105 0.082075,-0.1070417 0.1017548,-0.1770152 0.01968,-0.069972 0.029313,-0.1499383 0.029313,-0.2395908 V 3.6113372 c 0,-0.03936 0.00571,-0.077832 0.016629,-0.1150028 0.013114,-0.03936 0.031479,-0.073047 0.055529,-0.1014738 0.026241,-0.030614 0.058101,-0.054665 0.095273,-0.072159 0.037172,-0.019678 0.081972,-0.029597 0.1344531,-0.029597 v -0.236208 c -0.052479,0 -0.097279,-0.00873 -0.1344531,-0.026215 -0.037173,-0.01968 -0.069033,-0.043733 -0.095273,-0.072159 -0.024053,-0.030614 -0.04241,-0.064582 -0.055529,-0.1017549 -0.010937,-0.03936 -0.016629,-0.078744 -0.016629,-0.118104 V 2.1484242 c 0,-0.089652 -0.00963,-0.1696183 -0.029313,-0.2395908 C 4.4455368,1.8388614 4.4115672,1.7811203 4.3634616,1.7352008 4.3153548,1.6870952 4.2507218,1.6510148 4.1698162,1.626962 4.0910972,1.6007228 3.9927756,1.5875 3.8746971,1.5875 Z"
     style="font-size:6.01326px;line-height:1.25;font-family:ubuntu;-inkscape-font-specification:ubuntu;fill:#fef8f9;fill-opacity:1;stroke-width:0.0819991"
     id="path3752" />
  <path
     d="m 1.983341,0.26458334 c -0.5542148,0 -0.8483627,0.0417909 -0.98908673,0.17466734 -0.070361,0.0664369 -0.12065,0.16339873 -0.1539954,0.32710967 C 0.80692667,0.93007394 0.79375037,1.1553852 0.79375037,1.450557 v 1.7244431 1.724443 c 0,0.2951719 0.013176,0.5204831 0.046509,0.6841967 0.033345,0.1637109 0.083635,0.2606728 0.1539954,0.3271097 C 1.1349788,6.0436259 1.4291267,6.0854168 1.9833415,6.0854168 h 2.3833191 c 0.554355,0 0.8503656,-0.041727 0.9916689,-0.1746673 C 5.4289835,5.8442805 5.4787732,5.7471655 5.511809,5.5836398 5.544848,5.4201114 5.557574,5.1950145 5.556251,4.8999591 V 3.1750001 1.450041 C 5.5575735,1.1549856 5.5448471,0.92988873 5.5118085,0.76636035 5.4787727,0.60283462 5.4289807,0.5057193 5.358329,0.43925068 5.2170257,0.30631078 4.9210151,0.26458334 4.3666601,0.26458334 Z m 0.2330609,0.28215432 c 0.7227094,-7.9375e-4 1.4456569,0.002117 2.1683451,0.007223 0.2274041,0.0140758 0.4676167,-0.0211667 0.6909118,0.0439261 0.1500717,0.0268314 0.1664599,0.20429274 0.1803506,0.3260778 0.026987,1.35474334 0.019685,2.71686344 0.00931,4.07158564 -0.01905,0.2334869 0.037714,0.4929479 -0.088366,0.703834 C 5.0403898,5.7988012 4.854012,5.7813572 4.6937804,5.802736 3.6922663,5.823479 2.6898896,5.820198 1.6882803,5.805386 1.5187856,5.7876018 1.3222107,5.804588 1.178751,5.6984107 1.0450755,5.487223 1.0959735,5.2214225 1.0790137,4.984758 1.0687478,3.6447598 1.0605192,2.2976496 1.0872951,0.95761442 1.1089645,0.83184738 1.1146425,0.64118862 1.2660953,0.60104604 1.5773061,0.51874739 1.8992644,0.56022876 2.216423,0.54678793 Z"
     style="color:#000000;display:inline;overflow:visible;visibility:visible;opacity:0.4;fill:url(#linearGradient890);fill-opacity:1;fill-rule:nonzero;stroke:none;stroke-width:0.264583;marker:none;enable-background:accumulate"
     id="path2869" />
  <path
     style="color:#000000;display:inline;opacity:0.4;fill:#000000;stroke-width:0.26458;-inkscape-stroke:none;enable-background:new"
     d="M 1.983304,0 C 1.4194372,0 1.0531003,0.019685 0.81234537,0.24701236 0.69196784,0.36068001 0.62118916,0.51808593 0.58135613,0.71365271 0.5415284,0.90921684 0.52916707,1.1478657 0.52916707,1.450557 v 1.7244431 1.724443 c 0,0.3026913 0.012356,0.5413402 0.0521891,0.7369043 0.039833,0.1955668 0.11061171,0.3529727 0.2309892,0.4666404 C 1.0531004,6.3303204 1.4194372,6.3500001 1.983304,6.3500001 h 2.3832529 c 0.564007,0 0.9314524,-0.019235 1.173025,-0.2464964 C 5.6603668,5.9898652 5.7315424,5.8315808 5.771087,5.6358315 5.8106025,5.4402171 5.8221622,5.2019466 5.8206937,4.8994431 V 4.898914 3.1750001 1.4510729 1.4505437 C 5.8222812,1.1480403 5.8106131,0.90976717 5.771087,0.71415541 5.7315424,0.51840608 5.6603668,0.36012174 5.5395819,0.24648319 5.2980093,0.01922198 4.9305639,0 4.3665569,0 Z m 0,0.26458334 h 2.3832529 c 0.5543418,0 0.8503444,0.0417274 0.9916451,0.17466734 0.070649,0.0664686 0.120441,0.16358394 0.1534743,0.32710967 0.033036,0.16352838 0.045892,0.38862525 0.044442,0.68368065 v 1.7249591 1.724959 C 5.5574412,5.1950145 5.5447148,5.4201114 5.5116763,5.5836398 5.478643,5.7471655 5.4288511,5.8442808 5.358202,5.9107495 5.2169013,6.0436894 4.9208987,6.0854168 4.3665569,6.0854168 H 1.983304 c -0.5542016,0 -0.8483415,-0.041791 -0.98906293,-0.1746673 C 0.92388307,5.8443126 0.87411227,5.7473507 0.84076687,5.5836398 0.80742407,5.4199262 0.79374247,5.194615 0.79374247,4.8994431 V 3.1750001 1.450557 c 0,-0.2951718 0.013679,-0.52048306 0.047024,-0.68419665 0.033345,-0.16371094 0.083116,-0.2606728 0.1534742,-0.32710967 C 1.1349621,0.30637428 1.429102,0.26458334 1.983304,0.26458334 Z"
     id="path3225" />
</svg>
