<?xml version="1.0" encoding="UTF-8" standalone="no"?>
<!-- Created with Inkscape (http://www.inkscape.org/) -->

<svg
   width="24"
   height="24"
   viewBox="0 0 6.3499999 6.3500002"
   version="1.1"
   id="svg5"
   inkscape:version="1.1.2 (0a00cf5339, 2022-02-04, custom)"
   sodipodi:docname="office-calendar.svg"
   xmlns:inkscape="http://www.inkscape.org/namespaces/inkscape"
   xmlns:sodipodi="http://sodipodi.sourceforge.net/DTD/sodipodi-0.dtd"
   xmlns:xlink="http://www.w3.org/1999/xlink"
   xmlns="http://www.w3.org/2000/svg"
   xmlns:svg="http://www.w3.org/2000/svg">
  <sodipodi:namedview
     id="namedview7"
     pagecolor="#ffffff"
     bordercolor="#666666"
     borderopacity="1.0"
     inkscape:pageshadow="2"
     inkscape:pageopacity="0.0"
     inkscape:pagecheckerboard="0"
     inkscape:document-units="px"
     showgrid="false"
     units="px"
     height="24px"
     inkscape:zoom="16.875"
     inkscape:cx="4.6222222"
     inkscape:cy="16.059259"
     inkscape:window-width="1920"
     inkscape:window-height="1012"
     inkscape:window-x="0"
     inkscape:window-y="0"
     inkscape:window-maximized="1"
     inkscape:current-layer="svg5" />
  <defs
     id="defs2">
    <linearGradient
       inkscape:collect="always"
       id="linearGradient1137">
      <stop
         style="stop-color:#2b898f;stop-opacity:1"
         offset="0"
         id="stop1133" />
      <stop
         style="stop-color:#5bdbc1;stop-opacity:1"
         offset="1"
         id="stop1135" />
    </linearGradient>
    <linearGradient
       inkscape:collect="always"
       id="linearGradient1871">
      <stop
         style="stop-color:#ffffff;stop-opacity:1;"
         offset="0"
         id="stop1867" />
      <stop
         style="stop-color:#ffffff;stop-opacity:0.1"
         offset="0.12"
         id="stop2515" />
      <stop
         style="stop-color:#ffffff;stop-opacity:0.102"
         offset="0.89999998"
         id="stop2581" />
      <stop
         style="stop-color:#ffffff;stop-opacity:0.502"
         offset="1"
         id="stop1869" />
    </linearGradient>
    <linearGradient
       inkscape:collect="always"
       xlink:href="#linearGradient1871"
       id="linearGradient1178"
       x1="1.5937018"
       y1="0.26458335"
       x2="1.5937018"
       y2="6.0854168"
       gradientUnits="userSpaceOnUse" />
    <linearGradient
       inkscape:collect="always"
       xlink:href="#linearGradient1137"
       id="linearGradient1186"
       x1="0.006201827"
       y1="0"
       x2="0.0062017874"
       y2="6.3499999"
       gradientUnits="userSpaceOnUse" />
    <linearGradient
       inkscape:collect="always"
       xlink:href="#linearGradient1058"
       id="linearGradient1060"
       x1="5.8208332"
       y1="3.7041667"
       x2="5.8208332"
       y2="2.6458335"
       gradientUnits="userSpaceOnUse"
       gradientTransform="translate(-0.26458331)" />
    <linearGradient
       inkscape:collect="always"
       id="linearGradient1058">
      <stop
         style="stop-color:#f9f9f9;stop-opacity:1;"
         offset="0"
         id="stop1054" />
      <stop
         style="stop-color:#ececec;stop-opacity:1"
         offset="1"
         id="stop1056" />
    </linearGradient>
  </defs>
  <path
     d="m 1.6344609,0.26458334 c -1.3619057,0 -1.50844254,0.11445611 -1.50176975,1.23104016 V 3.0427719 5.1189653 C 0.12599715,6.2355467 0.2725552,6.3500002 1.6344609,6.3500002 h 3.0816683 c 1.3619031,0 1.5017697,-0.1144376 1.5017697,-1.2310349 V 3.0427719 1.4956235 C 6.217899,0.37902886 6.0780296,0.26458334 4.7161266,0.26458334 Z"
     style="color:#000000;display:inline;overflow:visible;visibility:visible;opacity:0.1;fill:#000000;fill-opacity:1;fill-rule:nonzero;stroke:none;stroke-width:0.264591;marker:none;enable-background:accumulate"
     id="path1338" />
  <path
     d="m 1.6344609,0.13229167 c -1.3619057,0 -1.50844254,0.11445611 -1.50176975,1.23104013 V 2.9104802 4.9866736 C 0.12599715,6.103255 0.2725552,6.2177085 1.6344609,6.2177085 h 3.0816683 c 1.3619031,0 1.5017697,-0.1144376 1.5017697,-1.2310349 V 2.9104802 1.3633318 c 0,-1.11659461 -0.1398693,-1.23104013 -1.5017723,-1.23104013 z"
     style="color:#000000;display:inline;overflow:visible;visibility:visible;fill:url(#linearGradient1186);fill-opacity:1;fill-rule:nonzero;stroke:none;stroke-width:0.264591;marker:none;enable-background:accumulate"
     id="path908-3"
     sodipodi:nodetypes="scccssscsss" />
  <path
     id="rect1324"
     style="fill:url(#linearGradient1060);fill-opacity:1;stroke-width:0.264583;stroke-linecap:round;stroke-linejoin:round"
     d="M 0.26458336,2.6458334 V 3.7041667 H 0.5291667 V 2.6458334 Z m 5.55625014,0 V 3.7041667 H 6.0854168 V 2.6458334 Z"
     sodipodi:nodetypes="cccccccccc" />
  <path
     d="m 2.1108436,3.1700894 c -0.035523,0.035941 -0.07234,0.072319 -0.110789,0.1092279 -0.072813,0.072813 -0.1468437,0.1480423 -0.2220833,0.2257108 -0.075242,0.077666 -0.1431819,0.160184 -0.2038615,0.24756 -0.060677,0.087376 -0.110445,0.1808269 -0.1492805,0.2803261 -0.036407,0.097084 -0.054602,0.2026655 -0.054602,0.3167327 v 0.040053 c 0,0.014552 0.00132,0.029115 0.00365,0.043677 h 1.52908 V 4.1457748 H 1.7415964 c 0,-0.041262 0.015769,-0.089808 0.047329,-0.1456319 0.033978,-0.055822 0.075237,-0.114054 0.12378,-0.1747335 0.048543,-0.060677 0.09951,-0.1189329 0.152908,-0.1747573 l 0.145629,-0.1456293 c 0.072813,-0.072813 0.1456214,-0.1468438 0.2184347,-0.222086 0.035266,-0.037616 0.068734,-0.075242 0.100584,-0.1128527 z m 1.6388025,0 c -0.041587,0.028056 -0.081782,0.059566 -0.1205624,0.094652 -0.048543,0.043688 -0.092223,0.093459 -0.1310561,0.1492832 -0.036407,0.055822 -0.066757,0.1164987 -0.091027,0.1820307 -0.021855,0.063106 -0.032753,0.1298496 -0.032753,0.200234 0,0.072813 0.013335,0.1504659 0.040026,0.2329868 0.026699,0.080095 0.071602,0.1541251 0.1347073,0.2220834 0.063103,0.067958 0.1468437,0.1249918 0.2512113,0.1711087 0.1067911,0.043688 0.2390801,0.065527 0.3968485,0.065527 0.1359162,0 0.2560505,-0.018203 0.3604154,-0.054602 0.1043647,-0.03398 0.1905262,-0.082526 0.2584871,-0.145632 C 4.8863282,4.2222292 4.9385194,4.1470003 4.9724998,4.0620531 5.0089038,3.9746771 5.0271018,3.8800277 5.0271018,3.7781023 5.0226618,3.509365 4.9002687,3.3067471 4.6600718,3.1700898 Z m 0.3090333,0.083727 c 0.097084,0.021855 0.1832452,0.048551 0.2584874,0.080103 0.077666,0.029125 0.143211,0.065519 0.1966066,0.1092067 0.055824,0.043688 0.098282,0.094679 0.1274074,0.1529292 0.029125,0.058251 0.043701,0.126193 0.043701,0.2038588 0,0.050969 -0.00971,0.1007401 -0.029128,0.1492832 -0.01942,0.048541 -0.048543,0.092221 -0.087379,0.1310561 -0.038833,0.036404 -0.089799,0.066733 -0.1529053,0.091004 -0.060677,0.024262 -0.1322864,0.036425 -0.2148097,0.036425 -0.092228,0 -0.1686824,-0.013361 -0.2293596,-0.04005 -0.060677,-0.026699 -0.1104239,-0.05947 -0.1492568,-0.098306 -0.038833,-0.041259 -0.066739,-0.084939 -0.083727,-0.131056 -0.014552,-0.04854 -0.021854,-0.094668 -0.021854,-0.1383533 0,-0.1237827 0.029128,-0.2305632 0.087379,-0.3203575 0.060677,-0.089802 0.1456161,-0.1650577 0.2548361,-0.2257346 z"
     style="fill:#f9f9f9;stroke-width:0.264583;enable-background:new"
     id="path1006" />
  <path
     d="m 2.0255472,1.8520833 c -0.087376,0 -0.1686718,0.010901 -0.2439114,0.032753 -0.07524,0.021855 -0.1432296,0.048551 -0.2039065,0.080103 -0.060679,0.031552 -0.1128686,0.0655 -0.1565566,0.1019069 -0.043688,0.033978 -0.076412,0.06313 -0.098256,0.087403 l 0.1674098,0.2402602 c 0.016986,-0.014552 0.041299,-0.035206 0.07285,-0.061902 0.031551,-0.029125 0.07039,-0.055785 0.1165039,-0.080055 0.046117,-0.026699 0.098306,-0.049736 0.1565567,-0.069154 0.058251,-0.01942 0.1225259,-0.029149 0.1929103,-0.029149 0.058251,0 0.1128871,0.00852 0.1638565,0.025506 0.053396,0.014552 0.099523,0.038825 0.1383559,0.072805 0.038833,0.033978 0.069159,0.076436 0.091003,0.1274048 0.024262,0.050969 0.036401,0.1128951 0.036401,0.1857084 0,0.067958 -0.013361,0.1322785 -0.04005,0.192958 -0.024262,0.060677 -0.058219,0.1201076 -0.1019069,0.1783583 -0.041259,0.055824 -0.089831,0.112858 -0.1456531,0.171106 -0.019526,0.020399 -0.040068,0.041169 -0.060558,0.061905 H 2.530225 C 2.564139,3.1299539 2.596188,3.0899429 2.626224,3.0498933 2.684475,2.9697983 2.7306021,2.8896775 2.7645799,2.8095826 c 0.036407,-0.082521 0.054652,-0.1674837 0.054652,-0.2548597 0,-0.2232924 -0.066768,-0.395605 -0.2002579,-0.5169694 C 2.4879119,1.9139694 2.2900988,1.8520939 2.0255419,1.8520939 Z m 2.1750868,0 c -0.1165014,0 -0.2220569,0.019421 -0.3167063,0.058253 -0.094657,0.036407 -0.1759506,0.086151 -0.2439114,0.1492567 -0.065532,0.063103 -0.1164987,0.1371097 -0.1529054,0.2220595 -0.036407,0.082521 -0.054602,0.169881 -0.054602,0.2621121 0,0.2645543 0.1189091,0.4648201 0.3567642,0.6007365 -0.013361,0.00812 -0.02654,0.016669 -0.039619,0.025506 H 4.6595035 C 4.6372785,3.1573861 4.6144375,3.1451101 4.5902065,3.1336031 4.6387465,3.1020511 4.6848745,3.0656611 4.7285624,3.024399 4.7746764,2.983137 4.8147374,2.93579 4.848715,2.8823945 4.885122,2.8289985 4.913003,2.7719627 4.932421,2.7112858 4.954276,2.6481828 4.965221,2.5814151 4.965221,2.5110279 4.965221,2.4382149 4.950643,2.3629856 4.92152,2.2853172 4.8948213,2.2076516 4.8499188,2.1372645 4.7868131,2.0741587 4.7261362,2.0086267 4.6472374,1.9552153 4.5501538,1.9139535 4.4530703,1.8726944 4.3365584,1.8520992 4.2006392,1.8520992 Z m 0,0.2802996 c 0.077668,0 0.143211,0.013362 0.1966092,0.040053 0.053396,0.024262 0.097123,0.055819 0.1311037,0.094652 0.03398,0.036407 0.05824,0.076467 0.072803,0.1201552 0.016986,0.043688 0.025506,0.083749 0.025506,0.1201553 0,0.131064 -0.030374,0.2378419 -0.091051,0.3203572 C 4.4749249,2.9078476 4.3936316,2.9782347 4.291693,3.0389142 4.1994619,3.0170597 4.119391,2.9879158 4.0514301,2.9515118 3.9858981,2.9151048 3.9324867,2.8738698 3.8912249,2.8277556 3.8499658,2.7816387 3.8196366,2.7318468 3.8002215,2.6784485 3.7808015,2.6250535 3.7710695,2.5716865 3.7710695,2.518291 c 0,-0.043688 0.0073,-0.087368 0.021855,-0.1310561 0.016986,-0.046114 0.042474,-0.087397 0.076451,-0.1238038 0.033981,-0.038833 0.07766,-0.070384 0.1310561,-0.094655 0.055824,-0.024262 0.1225444,-0.036401 0.2002102,-0.036401 z"
     style="fill:#ececec;stroke-width:0.264583;enable-background:new"
     id="path886" />
  <path
     id="rect13049"
     style="opacity:0.05;fill:#ffffff;stroke-width:0.999999;stroke-linecap:round;stroke-linejoin:round"
     d="M 0.5 12 L 0.5 18.847656 C 0.47469984 23.067806 1.0303744 23.5 6.1777344 23.5 L 17.824219 23.5 C 22.971569 23.5 23.5 23.067867 23.5 18.847656 L 23.5 12 L 0.5 12 z "
     transform="scale(0.26458334)" />
  <path
     d="m 1.5938923,0.26458334 c -0.61390475,0 -0.95498972,0.0409945 -1.11311002,0.16433006 C 0.40171949,0.4905825 0.3512317,0.5735558 0.3154177,0.71882 0.27959047,0.8640816 0.2647738,1.0674483 0.2647738,1.3358363 v 1.5745804 2.1036598 c 0,0.2683854 0.0148167,0.4717521 0.0506439,0.6170163 0.035814,0.1452642 0.0863018,0.2282376 0.16536458,0.2899066 0.1581203,0.1233356 0.49920527,0.1643301 1.11311002,0.1643301 h 3.1624059 c 0.6140583,0 0.956871,-0.040897 1.1156951,-0.1643301 0.079412,-0.061719 0.1298972,-0.1448699 0.1653646,-0.2899066 0.035465,-0.145034 0.049646,-0.3482525 0.048059,-0.6165003 V 2.9104167 1.3353204 C 6.0870043,1.0670699 6.0728226,0.8638567 6.0373579,0.71882 6.0018878,0.5737834 5.9514053,0.4906328 5.8719933,0.4289134 5.7131692,0.30547999 5.3703565,0.26458334 4.7562982,0.26458334 Z M 2.9058526,0.5317517 c 0.4179888,-5.292e-4 1.1007038,-1.032e-4 1.5186846,0.0031 0.3969306,0.01352 0.7996661,-0.018838 1.190625,0.074933 0.1458146,0.024315 0.1621976,0.1899894 0.1793161,0.3085069 0.029554,1.1399096 0.019844,2.8114837 0.013441,3.9531608 -0.018944,0.262173 0.036213,0.5492909 -0.079581,0.7973642 -0.090901,0.1083791 -0.2564876,0.095134 -0.383956,0.1204045 -1.046181,0.021775 -2.6271432,0.013203 -3.6760706,0.00982 C 1.3589926,5.78258 1.0404766,5.8289112 0.73761862,5.740125 0.58433227,5.7141958 0.57524383,5.5392692 0.55571758,5.4171481 0.52539633,4.3275013 0.53584737,2.7065659 0.54124487,1.6154004 0.55637904,1.334135 0.52015758,1.0419583 0.58930379,0.7648046 0.61707181,0.5958417 0.81721588,0.5900658 0.95103948,0.5689521 1.5147343,0.5169403 2.337644,0.5407422 2.9058553,0.5317464 Z"
     style="color:#000000;display:inline;overflow:visible;visibility:visible;fill:url(#linearGradient1178);fill-opacity:1;fill-rule:nonzero;stroke:none;stroke-width:0.264583;marker:none;enable-background:accumulate"
     id="path1082" />
  <path
     d="M 1.5937018,0 C 0.97181192,0 0.58184518,0.0151077 0.31832547,0.22065721 0.18656826,0.32343197 0.10345734,0.4730009 0.0583935,0.6557751 0.0133323,0.8385466 0,1.0583466 0,1.3358363 v 1.5745804 2.1037472 c 0,0.2774897 0.013335,0.4972896 0.0583935,0.6800612 0.04506384,0.1827741 0.12817476,0.332859 0.25993197,0.4356338 0.26351971,0.2055468 0.65348645,0.2201413 1.27537633,0.2201413 h 3.1625964 c 0.6220408,0 1.0135977,-0.014684 1.2779587,-0.2201413 C 6.1664375,6.0271318 6.2494373,5.8772268 6.2941889,5.6942251 6.3388744,5.5115038 6.3516061,5.2911985 6.3500001,5.0141639 V 5.0131055 2.9104167 1.3368682 1.3358098 C 6.3515876,1.0587752 6.3388612,0.8384699 6.2941889,0.6557486 6.2494373,0.4727496 6.1664375,0.32284195 6.0342569,0.22011482 5.7698985,0.01468702 5.378339,0 4.7562982,0 Z m 0,0.26458334 h 3.1625964 c 0.6140583,0 0.956355,0.0414126 1.1151791,0.16484866 0.079409,0.061717 0.1304105,0.1443514 0.1658806,0.289388 0.03547,0.145034 0.049652,0.3482525 0.048059,0.6164977 v 5.292e-4 1.5745804 2.1042631 C 6.0870043,5.2829382 6.0728226,5.4861567 6.0373579,5.6311907 6.0018905,5.7762274 5.9508894,5.859378 5.8714773,5.9210973 5.7126506,6.0445308 5.3703565,6.0854274 4.7562982,6.0854274 H 1.5937018 c -0.61390211,0 -0.95447114,-0.040995 -1.11259408,-0.1643301 C 0.40204757,5.8594283 0.3510412,5.7764549 0.3152272,5.6311907 0.27941055,5.4859186 0.2645833,5.2825519 0.2645833,5.0141639 V 2.9104167 1.3358363 C 0.2645833,1.0674483 0.2794,0.8646001 0.3152272,0.719336 0.3510412,0.5740718 0.40204757,0.4905825 0.48110772,0.4289134 0.63923066,0.30557788 0.97979969,0.26458334 1.5937018,0.26458334 Z"
     style="color:#000000;display:inline;opacity:0.4;fill:#000000;stroke-width:0.264583;-inkscape-stroke:none;enable-background:new"
     id="path1222" />
</svg>
