<?xml version="1.0" encoding="UTF-8" standalone="no"?>
<!-- Created with Inkscape (http://www.inkscape.org/) -->

<svg
   width="24"
   height="24"
   viewBox="0 0 6.35 6.35"
   version="1.1"
   id="svg5"
   sodipodi:docname="online-accounts.svg"
   inkscape:version="1.1.2 (0a00cf5339, 2022-02-04, custom)"
   xmlns:inkscape="http://www.inkscape.org/namespaces/inkscape"
   xmlns:sodipodi="http://sodipodi.sourceforge.net/DTD/sodipodi-0.dtd"
   xmlns:xlink="http://www.w3.org/1999/xlink"
   xmlns="http://www.w3.org/2000/svg"
   xmlns:svg="http://www.w3.org/2000/svg">
  <sodipodi:namedview
     id="namedview7"
     pagecolor="#ffffff"
     bordercolor="#666666"
     borderopacity="1.0"
     inkscape:pageshadow="2"
     inkscape:pageopacity="0.0"
     inkscape:pagecheckerboard="0"
     inkscape:document-units="px"
     showgrid="false"
     units="px"
     height="48px"
     showguides="false"
     inkscape:zoom="33.208333"
     inkscape:cx="11.984944"
     inkscape:cy="12"
     inkscape:window-width="1920"
     inkscape:window-height="1006"
     inkscape:window-x="0"
     inkscape:window-y="0"
     inkscape:window-maximized="1"
     inkscape:current-layer="svg5" />
  <defs
     id="defs2">
    <linearGradient
       inkscape:collect="always"
       id="linearGradient1103">
      <stop
         style="stop-color:#8c59d9;stop-opacity:1;"
         offset="0"
         id="stop1099" />
      <stop
         style="stop-color:#a7a7f1;stop-opacity:1"
         offset="1"
         id="stop1101" />
    </linearGradient>
    <linearGradient
       inkscape:collect="always"
       id="linearGradient1871">
      <stop
         style="stop-color:#ffffff;stop-opacity:1;"
         offset="0"
         id="stop1867" />
      <stop
         style="stop-color:#ffffff;stop-opacity:0.1"
         offset="0.12"
         id="stop2515" />
      <stop
         style="stop-color:#ffffff;stop-opacity:0.102"
         offset="0.89999998"
         id="stop2581" />
      <stop
         style="stop-color:#ffffff;stop-opacity:0.502"
         offset="1"
         id="stop1869" />
    </linearGradient>
    <linearGradient
       inkscape:collect="always"
       xlink:href="#linearGradient1871"
       id="linearGradient1198"
       x1="6.3499999"
       y1="0.52916658"
       x2="6.3499994"
       y2="12.170834"
       gradientUnits="userSpaceOnUse"
       gradientTransform="scale(1.8897639)" />
    <linearGradient
       inkscape:collect="always"
       xlink:href="#linearGradient1103"
       id="linearGradient1105"
       x1="1.1906248"
       y1="0.52916664"
       x2="5.1593747"
       y2="5.8208332"
       gradientUnits="userSpaceOnUse" />
  </defs>
  <circle
     style="fill:url(#linearGradient1105);fill-opacity:1;stroke-width:0.270463;stroke-linecap:round;stroke-linejoin:round"
     id="path986"
     cx="3.175"
     cy="3.175"
     r="3.0427084" />
  <path
     d="m 2.461422,0.13096875 -0.3803254,0.445016 0.3259932,0.3337619 V 1.2585799 L 2.7874151,1.6885245 H 3.0047438 V 1.4660167 L 3.3307369,1.1322547 V 0.90974665 l 0.2173288,-0.2225079 v -0.333762 l -0.2173288,-0.222508 z m -0.7606507,0.248583 c -0.1578221,0.088795 -0.3076328,0.191761 -0.4476681,0.307684 h 0.4476681 z m -0.686527,0.530192 c -0.00664,0.00731 -0.013248,0.014643 -0.01982,0.022013 V 1.2435057 h -0.2592123 c -0.39190207,0.5367957 -0.60426777,1.18868 -0.60556477,1.8588611 -6.69e-5,0.070365 0.0022,0.1407118 0.00678,0.2109198 l 0.1516782,0.1552927 h 0.32599307 l 0.54332187,0.55627 V 3.3573254 L 1.4834148,3.0235633 H 1.7007436 L 2.0267367,2.6898015 H 2.3527298 L 2.1897332,2.5229206 2.5157261,2.1335317 2.1897332,1.7997697 H 1.7007436 V 2.2447856 H 1.4834148 L 1.2660861,2.0222776 V 1.7997697 L 1.5920792,1.4660078 H 1.8637401 V 1.2434998 L 1.537747,0.90973775 Z M 4.7433159,1.1322517 4.4173227,1.4660137 v 0.278135 h 0.3259932 v -0.166881 h 0.2173287 v 0.222508 L 4.8519802,1.9110296 4.4173227,1.9185649 4.2543262,2.0779131 H 4.0369974 v 0.222508 L 3.8740009,2.467302 V 2.8010641 H 4.199994 L 4.4173227,2.5785561 H 4.6346515 V 2.68981 L 4.8519802,2.912318 H 4.9606446 V 2.8010641 L 4.7433159,2.5785561 h 0.2173287 l 0.2173288,0.222508 H 5.4496343 L 5.2866377,2.6341832 5.4496343,2.467302 H 5.6126308 L 5.7756274,2.6341832 H 5.6126308 l -0.1629965,0.1668809 0.1601655,0.1639824 0.0029,0.1697794 H 5.3953682 l 0.6519863,0.6675239 h 0.08659 C 6.1866788,3.5729069 6.2138081,3.3380772 6.2148106,3.1023695 6.2134612,2.4602974 6.0183696,1.8343356 5.6562178,1.3101421 l -0.043579,0.04462 -0.2173287,-0.222508 z M 5.3953021,3.1348233 H 4.7433159 L 4.6346515,3.0235694 H 3.9826652 L 3.6023399,3.4129583 v 0.55627 l 0.271661,0.2781348 h 0.3803253 l 0.1629965,0.1668812 v 0.1668808 l 0.1086644,0.1112538 v 0.667524 L 4.84349,5.7035147 C 5.1432277,5.5008293 5.4055415,5.2454024 5.6182813,4.9490643 L 5.6126298,4.469871 6.0891592,3.9819852 c 0.00591,-0.022725 0.011573,-0.045517 0.016981,-0.068372 H 5.9386174 L 5.3952955,3.3573431 Z M 3.2763468,1.5772677 v 0.166881 H 3.6023399 L 3.4393434,1.5772677 Z m 0.9779794,0.055627 -0.1629966,0.1668811 v 0.166881 H 4.2543262 Z M 2.5700284,2.2447917 2.4070318,2.4116726 h 0.1629966 l 0.054332,0.055627 h 0.054332 l 0.054332,-0.055627 z M 1.6463812,3.4129583 1.4833846,3.5798392 H 1.8093778 V 3.4129583 Z M 1.4833846,3.9136013 1.2660559,4.1361093 V 4.6923789 L 1.702394,5.0835184 1.7006478,5.5824109 1.551798,5.7348051 C 1.7179253,5.8421539 1.8938166,5.9327777 2.0770091,6.0054074 L 2.4069718,5.6936589 V 5.471151 L 2.7329649,5.1373891 V 4.9705082 L 2.8959614,4.8036271 V 4.3586111 L 2.6786327,4.1361031 H 2.2439752 L 2.0266465,3.9135952 Z"
     style="color:#000000;opacity:0.25;fill:#ffffff;stroke-width:0.264583"
     id="path940" />
  <path
     id="path4344"
     style="opacity:0.4;fill:#000000;fill-opacity:1;stroke-width:1.6;stroke-linecap:round;stroke-linejoin:round"
     d="M 12,0 C 5.372583,1.2369363e-7 1.0909091e-7,5.372583 0,12 0,18.627416 5.372583,24 12,24 18.627417,24 24,18.627416 24,12 24,5.372583 18.627417,0 12,0 Z m 0,1 A 11,11 0 0 1 23,12 11,11 0 0 1 12,23 11,11 0 0 1 1,12 11,11 0 0 1 12,1 Z"
     transform="scale(0.26458333)" />
  <path
     id="path1110"
     style="fill:url(#linearGradient1198);fill-opacity:1;stroke-width:1;stroke-linecap:round;stroke-linejoin:round"
     d="m 12,1 c -6.0751324,-8e-8 -11.00000008,4.9248676 -11,11 2e-7,6.075132 4.9248676,11 11,11 6.075132,0 11,-4.924868 11,-11 C 23,5.9248676 18.075132,1.0000002 12,1 Z m 0,1 C 17.522848,2 22,6.4771525 22,12 22,17.522847 17.522847,22 12,22 6.4771525,22 2,17.522848 2,12 1.9999996,6.4771525 6.4771525,1.9999996 12,2 Z"
     transform="scale(0.26458333)" />
  <path
     id="path1018"
     style="fill:#ffffff;stroke-width:0.396875"
     d="M 3.175,1.5875 C 2.6013421,1.5878082 2.0724752,1.8975816 1.7916219,2.3977864 1.2164564,2.4921459 0.7941564,2.9890209 0.79375,3.571875 c 0,0.6575639 0.533061,1.190625 1.190625,1.190625 h 2.38125 c 0.5114388,0 0.9260416,-0.4146029 0.9260416,-0.9260417 C 5.2915814,3.4747261 5.0808771,3.146157 4.7521648,2.9951659 4.6607325,2.1932353 3.9821263,1.5875591 3.175,1.5875 Z m 0,0.2645833 c 0.7306267,0 1.3229166,0.59229 1.3229166,1.3229167 -1.494e-4,0.00448 -3.217e-4,0.00896 -5.167e-4,0.013436 0.3081483,0.062645 0.5295993,0.3335713 0.5296834,0.6480225 0,0.3653134 -0.2961449,0.6614583 -0.6614583,0.6614583 H 1.984375 C 1.4729363,4.4979166 1.0583334,4.0833138 1.0583334,3.571875 1.058763,3.0689992 1.4604434,2.6583722 1.9631877,2.6468668 2.1731873,2.164576 2.6489731,1.8525253 3.175,1.8520833 Z" />
</svg>
