<svg version="1.1" viewBox="0 0 16 16" xmlns="http://www.w3.org/2000/svg">
 <path d="m4.994 0c-1.258 0.015-2.179-0.03-2.931 0.385a1.88 1.88 0 0 0-0.838 0.998c-0.165 0.439-0.225 0.96-0.225 1.617v10c0 0.658 0.06 1.179 0.225 1.617 0.164 0.439 0.461 0.79 0.838 0.998 0.752 0.416 1.673 0.37 2.931 0.385h5.012c1.258-0.014 2.179 0.03 2.932-0.385a1.88 1.88 0 0 0 0.838-0.998c0.164-0.438 0.224-0.96 0.224-1.617v-10c0-0.658-0.06-1.178-0.225-1.617a1.88 1.88 0 0 0-0.837-0.998c-0.753-0.415-1.674-0.37-2.932-0.385h-5.008zm6e-3 1h5c1.259 0.015 2.087 0.06 2.453 0.262 0.184 0.101 0.29 0.213 0.387 0.472 0.097 0.26 0.16 0.674 0.16 1.266v10c0 0.592-0.063 1.006-0.16 1.266-0.098 0.26-0.203 0.371-0.387 0.472-0.366 0.202-1.194 0.247-2.453 0.262h-5c-1.258-0.015-2.09-0.06-2.455-0.262-0.183-0.1-0.287-0.212-0.385-0.472-0.097-0.26-0.16-0.674-0.16-1.266v-10c0-0.592 0.063-1.006 0.16-1.266 0.098-0.26 0.202-0.371 0.385-0.472 0.365-0.202 1.195-0.247 2.455-0.262z" fill="#dfdfdf" font-family="sans-serif" font-weight="400" overflow="visible" style="font-feature-settings:normal;font-variant-alternates:normal;font-variant-caps:normal;font-variant-ligatures:normal;font-variant-numeric:normal;font-variant-position:normal;isolation:auto;mix-blend-mode:normal;shape-padding:0;text-decoration-color:#000000;text-decoration-line:none;text-decoration-style:solid;text-indent:0;text-orientation:mixed;text-transform:none" white-space="normal"/>
 <path d="m7.795 5.012a4.487 4.487 0 0 0-3.033 0.918 4.506 4.506 0 0 0-1.16 5.82 4.508 4.508 0 0 0 5.62 1.908 4.51 4.51 0 0 0 2.628-5.324l-0.131-0.482-0.967 0.26 0.13 0.482a3.494 3.494 0 0 1-2.042 4.139 3.494 3.494 0 0 1-4.371-1.483 3.494 3.494 0 0 1 5.12-4.547l-0.644 0.645 0.707 0.707 0.676-0.676h2e-3l0.354-0.355 0.353-0.352-0.353-0.353a4.494 4.494 0 0 0-2.889-1.307z" fill="#dfdfdf" font-family="sans-serif" font-weight="400" overflow="visible" style="font-feature-settings:normal;font-variant-alternates:normal;font-variant-caps:normal;font-variant-ligatures:normal;font-variant-numeric:normal;font-variant-position:normal;isolation:auto;mix-blend-mode:normal;shape-padding:0;text-decoration-color:#000000;text-decoration-line:none;text-decoration-style:solid;text-indent:0;text-orientation:mixed;text-transform:none" white-space="normal"/>
 <path d="M 7.5,8 A 1.5,1.5 0 0 0 6,9.5 1.5,1.5 0 0 0 7.5,11 1.5,1.5 0 0 0 9,9.5 1.5,1.5 0 0 0 7.5,8 Z m 0,1 A 0.5,0.5 0 0 1 8,9.5 0.5,0.5 0 0 1 7.5,10 0.5,0.5 0 0 1 7,9.5 0.5,0.5 0 0 1 7.5,9 Z" fill="#dfdfdf"/>
</svg>
