<svg width="24" height="24" version="1" xmlns="http://www.w3.org/2000/svg" xmlns:xlink="http://www.w3.org/1999/xlink">
 <defs>
  <linearGradient id="linearGradient1218" x1="512" x2="0" y1="313.29" y2="313.29" gradientTransform="matrix(0 -.056641 -.056639 0 29.744 26)" gradientUnits="userSpaceOnUse">
   <stop stop-color="#b3b3b3" offset="0"/>
   <stop stop-color="#d9d9d9" offset="1"/>
  </linearGradient>
  <linearGradient id="linearGradient1224" x1="332" x2="332" y1="189" y2="211" gradientUnits="userSpaceOnUse">
   <stop stop-color="#fff" offset="0"/>
   <stop stop-color="#fff" stop-opacity=".098039" offset=".125"/>
   <stop stop-color="#fff" stop-opacity=".098039" offset=".925"/>
   <stop stop-color="#fff" stop-opacity=".49804" offset="1"/>
  </linearGradient>
  <clipPath id="clipPath971">
   <path d="m327.87 189c-4.4121 0-4.8868 0.45318-4.8652 4.8742v12.252c-0.0217 4.421 0.45311 4.8742 4.8652 4.8742h8.2696c4.4121 0 4.8652-0.45312 4.8652-4.8742v-12.252c0-4.4211-0.45312-4.8742-4.8652-4.8742z" color="#000000" fill="#46a926"/>
  </clipPath>
  <linearGradient id="linearGradient903" x1="512" x2="0" y1="313.29" y2="313.29" gradientTransform="matrix(0 -.056641 -.056639 0 29.744 26)" gradientUnits="userSpaceOnUse" xlink:href="#linearGradient1218"/>
 </defs>
 <path d="m7.8652 1c-1.1201 0-2.0152 0.0241-2.791 0.1543-0.77577 0.13022-1.4801 0.38763-2.0098 0.91601-0.52962 0.52838-0.79079 1.2369-0.91992 2.0137-0.12912 0.77681-0.15002 1.6717-0.14453 2.7949v11.246c-5e-3 1.121 0.0156 2.0153 0.14453 2.791 0.12912 0.77681 0.39029 1.4853 0.91992 2.0137 0.52964 0.52838 1.234 0.78579 2.0098 0.91601s1.6709 0.1543 2.791 0.1543h8.2695c1.1201 0 2.0126-0.024 2.7871-0.1543 0.77446-0.13033 1.48-0.38927 2.0078-0.91797 0.5278-0.52869 0.78594-1.2344 0.91601-2.0098 0.13007-0.77539 0.1543-1.6706 0.1543-2.793v-11.25c0-1.1224-0.0242-2.0176-0.1543-2.793-0.13007-0.77538-0.38821-1.4811-0.91601-2.0098s-1.2333-0.78764-2.0078-0.91797c-0.77448-0.13033-1.667-0.1543-2.7871-0.1543z" color="#000000" color-rendering="auto" dominant-baseline="auto" image-rendering="auto" opacity=".1" shape-rendering="auto" solid-color="#000000" style="font-feature-settings:normal;font-variant-alternates:normal;font-variant-caps:normal;font-variant-ligatures:normal;font-variant-numeric:normal;font-variant-position:normal;isolation:auto;mix-blend-mode:normal;shape-padding:0;text-decoration-color:#000000;text-decoration-line:none;text-decoration-style:solid;text-indent:0;text-orientation:mixed;text-transform:none;white-space:normal"/>
 <path d="m7.8633 0.5c-1.1116 0-1.9864 0.025544-2.7051 0.14648-0.7187 0.12095-1.3062 0.34848-1.7363 0.7793-0.4301 0.4309-0.65659 1.0185-0.77734 1.7383-0.12078 0.7197-0.14648 1.5971-0.14648 2.7109v12.25c0 1.1138 0.02574 1.9911 0.14648 2.7109 0.12075 0.7198 0.34724 1.3075 0.77734 1.7383 0.4301 0.43082 1.0176 0.65835 1.7363 0.7793 0.7187 0.12098 1.5935 0.14648 2.7051 0.14648h8.2695c1.1116 0 1.9868-0.02559 2.707-0.14648 0.7202-0.1209 1.3105-0.34863 1.7422-0.7793 0.4317-0.4306 0.65954-1.0197 0.7793-1.7402 0.11972-0.72 0.14172-1.5959 0.13672-2.709v-12.248c0.0055-1.1142-0.01695-1.9904-0.13672-2.7109-0.11976-0.7205-0.34761-1.3096-0.7793-1.7402-0.4317-0.43067-1.022-0.6584-1.7422-0.7793-0.7202-0.12088-1.5954-0.14648-2.707-0.14648zm-1.2754 2.5h10.787c0.67172 6e-3 1.1134 0.024689 1.3086 0.10547 0.0978 0.0405 0.15498 0.08353 0.20703 0.1875 0.0523 0.10397 0.08398 0.50781 0.08398 0.50781v0.79883h0.0039v0.59961c0 0.019746-0.0035 0.032023-0.0039 0.050781v0.34961h0.0039v0.59961c0 0.23696-0.03364 0.40383-0.08594 0.50781-0.0521 0.10398-0.10928 0.14703-0.20703 0.1875-0.19531 0.0808-0.63473 0.099579-1.3066 0.10547h-10.795c-0.67195-6e-3 -1.1133-0.024679-1.3086-0.10547-0.0978-0.0405-0.15303-0.08354-0.20508-0.1875-0.0523-0.10398-0.08594-0.27085-0.08594-0.50781v-2.3984c0-0.23697 0.03424-0.40384 0.08594-0.50781 0.0523-0.10399 0.10732-0.14702 0.20508-0.1875 0.19563-0.0809 0.63869-0.099589 1.3125-0.10547z" fill="url(#linearGradient1218)"/>
 <path d="m6.5871 3h10.788c0.67172 6e-3 1.1131 0.0239 1.3083 0.10468 0.0978 0.0405 0.15421 0.0851 0.20626 0.18907 0.0523 0.10397 0.0854 0.50625 0.0854 0.50625v0.8h3e-3v0.6c0 0.23696-0.0331 0.40227-0.0854 0.50625-0.0521 0.10398-0.10849 0.14859-0.20624 0.18906-0.19532 0.0808-0.6364 0.0988-1.3083 0.10469h-10.794c-0.67195-6e-3 -1.113-0.0239-1.3083-0.10469-0.0978-0.0405-0.1542-0.0851-0.20625-0.18906-0.0523-0.10398-0.0854-0.26929-0.0854-0.50625v-1.4c0-0.23697 0.0337-0.40228 0.0854-0.50625 0.0523-0.10399 0.10849-0.14859 0.20625-0.18907 0.19563-0.0809 0.63759-0.0988 1.3114-0.10468z" color="#000000" color-rendering="auto" image-rendering="auto" opacity=".3" shape-rendering="auto" solid-color="#000000" style="isolation:auto;mix-blend-mode:normal;text-decoration-color:#000000;text-decoration-line:none;text-decoration-style:solid;text-indent:0;text-transform:none;white-space:normal"/>
 <g transform="translate(22)">
  <g transform="translate(-762,-189)">
   <path d="m758 193.43c0-2.2064-0.2427-2.4438-2.6112-2.433h-6.7776c-2.3684-0.011-2.6112 0.2266-2.6112 2.433v4.1358c0 2.2064 0.2427 2.433 2.6112 2.433h6.7776c2.3685 0 2.6112-0.2265 2.6112-2.433z" color="#000000" fill="none" opacity=".2" stroke="#000" stroke-width="2"/>
   <path d="m758 193.43c0-2.2064-0.2427-2.4438-2.6112-2.433h-6.7776c-2.3684-0.011-2.6112 0.2266-2.6112 2.433v4.1358c0 2.2064 0.2427 2.433 2.6112 2.433h6.7776c2.3685 0 2.6112-0.2265 2.6112-2.433z" color="#000000" fill="#fff"/>
  </g>
  <g transform="translate(-762,-187)">
   <path d="m758 193.43c0-2.2064-0.2427-2.4438-2.6112-2.433h-6.7776c-2.3684-0.011-2.6112 0.2266-2.6112 2.433v4.1358c0 2.2064 0.2427 2.433 2.6112 2.433h6.7776c2.3685 0 2.6112-0.2265 2.6112-2.433z" color="#000000" fill="none" opacity=".2" stroke="#000" stroke-width="2"/>
   <path d="m758 193.43c0-2.2064-0.2427-2.4438-2.6112-2.433h-6.7776c-2.3684-0.011-2.6112 0.2266-2.6112 2.433v4.1358c0 2.2064 0.2427 2.433 2.6112 2.433h6.7776c2.3685 0 2.6112-0.2265 2.6112-2.433z" color="#000000" fill="#fff"/>
  </g>
 </g>
 <path d="m21.482 4.8438c-0.3135 0.091598-0.63854 0.15625-0.98242 0.15625h-1.5215v0.19922c0 0.019746-0.0035 0.032023-0.0039 0.050781v0.34961h0.0039v0.59961c0 0.23696-0.03364 0.40383-0.08594 0.50781-0.0521 0.10398-0.10928 0.14703-0.20703 0.1875-0.1953 0.0808-0.63474 0.099579-1.3066 0.10547h-10.795c-0.67195-6e-3 -1.1133-0.024679-1.3086-0.10547-0.0978-0.0405-0.15303-0.08354-0.20508-0.1875-0.0523-0.10398-0.08594-0.27085-0.08594-0.50781v-1.1992h-2.4707c-0.0061 0.28594-0.01563 0.55099-0.01563 0.875v12.25c0 1.1138 0.02574 1.9911 0.14648 2.7109 0.12075 0.7198 0.34724 1.3075 0.77734 1.7383 0.4301 0.43082 1.0176 0.65835 1.7363 0.7793 0.7187 0.12098 1.5935 0.14648 2.7051 0.14648h8.2695c1.1116 0 1.9868-0.02559 2.707-0.14648 0.7202-0.1209 1.3105-0.34863 1.7422-0.7793 0.4317-0.4306 0.65954-1.0197 0.7793-1.7402 0.11972-0.72 0.14172-1.5959 0.13672-2.709v-12.248c0.0019-0.38274-0.0081-0.70329-0.01563-1.0332z" fill="url(#linearGradient903)"/>
 <path d="m7.8644 0.5c-1.1116 0-1.9868 0.0256-2.707 0.14648-0.72019 0.1209-1.3105 0.34863-1.7422 0.7793-0.43169 0.43067-0.65954 1.0197-0.7793 1.7402-0.11977 0.72049-0.14217 1.5967-0.13672 2.7109v12.248c-5e-3 1.1131 0.017 1.989 0.13672 2.709 0.11976 0.72051 0.3476 1.3096 0.7793 1.7402 0.43169 0.43067 1.022 0.6584 1.7422 0.7793 0.7202 0.12089 1.5954 0.14648 2.707 0.14648h8.2695c1.1116 0 1.9864-0.0255 2.7051-0.14648 0.7187-0.12095 1.3062-0.34848 1.7363-0.7793 0.4301-0.43083 0.6566-1.0185 0.77735-1.7383 0.12074-0.71979 0.14648-1.5971 0.14648-2.7109v-12.25c0-1.1138-0.0257-1.9912-0.14648-2.7109-0.12075-0.71979-0.34725-1.3074-0.77735-1.7383-0.4301-0.43082-1.0176-0.65835-1.7363-0.7793-0.7187-0.12094-1.5935-0.14648-2.7051-0.14648z" color="#000000" fill="none" opacity=".4" stroke="#000"/>
 <path transform="translate(-320,-188)" d="m327.87 189c-4.4121 0-4.8868 0.45318-4.8652 4.8742v12.252c-0.0217 4.421 0.45311 4.8742 4.8652 4.8742h8.2696c4.4121 0 4.8652-0.45312 4.8652-4.8742v-12.252c0-4.4211-0.45312-4.8742-4.8652-4.8742z" clip-path="url(#clipPath971)" color="#000000" fill="none" opacity=".4" stroke="url(#linearGradient1224)" stroke-width="2"/>
 <path d="m11.194 9.9207c0.15427 0.0281 0.32265 0.16821 0.4068 0.28041l1.3605 2.3563-0.70118 0.42076h2.3281l1.1641-2.0195-0.7154 0.40653-0.71511-1.2623c-0.0701-0.12622-0.2104-0.1822-0.36469-0.1822zm-0.80274 0.14202c-0.35764 0.0123-0.70485 0.14539-0.85211 0.40487l-1.0658 1.8655 2.0474 1.192 1.3044-2.272-0.51898-0.86942c-0.18934-0.2244-0.55725-0.33314-0.9149-0.32087zm5.5432 2.8876-2.0617 1.178 1.3044 2.2299h1.108c0.44881-0.0841 1.1221-0.81351 0.72936-1.5709zm-9.1303 0.49078 0.7433 0.43472-0.47684 0.79938c-0.42075 0.78542 0.28043 1.6517 0.70118 1.6973h1.094l0.7433-1.2904 0.74331 0.40681-1.192-2.0477zm6.69 2.3982-1.1922 2.0477 1.1922 2.0338v-0.85547h1.4587c0.16831 0 0.2804-0.0981 0.3365-0.21038l1.3184-2.3281c-0.0701 0.0421-0.11215 0.11201-0.37863 0.14006h-2.7349zm-6.0589 0.7154c0.0561 0.0701 0.042 0.0562 1.2762 2.2441 0.0841 0.12624 0.19645 0.2805 0.35073 0.26647h2.6228v-2.3984h-3.899c-0.21037 0-0.2841-0.0561-0.35072-0.11216z" enable-background="new" fill="#28851e"/>
 <path d="m6.5871 4h10.788c0.67172 6e-3 1.1131 0.0239 1.3083 0.10468 0.0978 0.0405 0.15421 0.0851 0.20626 0.18907 0.0523 0.10397 0.0854 0.50625 0.0854 0.50625v0.8h3e-3v0.6c0 0.23696-0.0331 0.40227-0.0854 0.50625-0.0521 0.10398-0.10849 0.14859-0.20624 0.18906-0.19532 0.0808-0.6364 0.0988-1.3083 0.10469h-10.794c-0.67195-6e-3 -1.113-0.0239-1.3083-0.10469-0.0978-0.0405-0.1542-0.0851-0.20625-0.18906-0.0523-0.10398-0.0854-0.26929-0.0854-0.50625v-1.4c0-0.23697 0.0337-0.40228 0.0854-0.50625 0.0523-0.10399 0.10849-0.14859 0.20625-0.18907 0.19563-0.0809 0.63759-0.0988 1.3114-0.10468z" color="#000000" color-rendering="auto" fill="#fff" image-rendering="auto" opacity=".2" shape-rendering="auto" solid-color="#000000" style="isolation:auto;mix-blend-mode:normal;text-decoration-color:#000000;text-decoration-line:none;text-decoration-style:solid;text-indent:0;text-transform:none;white-space:normal"/>
</svg>
