<?xml version="1.0" encoding="UTF-8" standalone="no"?>
<!-- Created with Inkscape (http://www.inkscape.org/) -->

<svg
   width="32"
   height="32"
   viewBox="0 0 8.4666665 8.4666669"
   version="1.1"
   id="svg2021"
   sodipodi:docname="folder-network.svg"
   inkscape:version="1.1.2 (0a00cf5339, 2022-02-04)"
   xmlns:inkscape="http://www.inkscape.org/namespaces/inkscape"
   xmlns:sodipodi="http://sodipodi.sourceforge.net/DTD/sodipodi-0.dtd"
   xmlns:xlink="http://www.w3.org/1999/xlink"
   xmlns="http://www.w3.org/2000/svg"
   xmlns:svg="http://www.w3.org/2000/svg">
  <sodipodi:namedview
     id="namedview2023"
     pagecolor="#ffffff"
     bordercolor="#666666"
     borderopacity="1.0"
     inkscape:pageshadow="2"
     inkscape:pageopacity="0.0"
     inkscape:pagecheckerboard="0"
     inkscape:document-units="px"
     showgrid="false"
     units="px"
     inkscape:zoom="24.75"
     inkscape:cx="15.979798"
     inkscape:cy="16"
     inkscape:window-width="1920"
     inkscape:window-height="1010"
     inkscape:window-x="0"
     inkscape:window-y="0"
     inkscape:window-maximized="1"
     inkscape:current-layer="svg2021" />
  <defs
     id="defs2018">
    <linearGradient
       inkscape:collect="always"
       id="linearGradient5495">
      <stop
         style="stop-color:#77216f;stop-opacity:1"
         offset="0"
         id="stop5491" />
      <stop
         style="stop-color:#e95420;stop-opacity:1"
         offset="1"
         id="stop5493" />
    </linearGradient>
    <linearGradient
       inkscape:collect="always"
       xlink:href="#linearGradient1559"
       id="linearGradient1561"
       x1="0.5"
       y1="7"
       x2="32"
       y2="30.879032"
       gradientUnits="userSpaceOnUse"
       gradientTransform="matrix(0.26458333,0,0,0.26458333,-3.28125e-8,1.1765937e-5)" />
    <linearGradient
       inkscape:collect="always"
       id="linearGradient1559">
      <stop
         style="stop-color:#666666;stop-opacity:1;"
         offset="0"
         id="stop1555" />
      <stop
         style="stop-color:#7a7a7a;stop-opacity:1"
         offset="1"
         id="stop1557" />
    </linearGradient>
    <linearGradient
       inkscape:collect="always"
       xlink:href="#linearGradient5495"
       id="linearGradient5497"
       x1="0.13229167"
       y1="4.3656311"
       x2="8.3431601"
       y2="4.3656311"
       gradientUnits="userSpaceOnUse" />
  </defs>
  <path
     id="rect990"
     style="fill:url(#linearGradient5497);fill-opacity:1;stroke-width:0.264583;stroke-linejoin:round"
     d="m 1.8608683,0.6614701 c -0.4005527,0 -0.704363,0.0157959 -0.94412843,0.0645955 -0.2397389,0.0488077 -0.4222097,0.13515908 -0.5462199,0.2790527 -0.1240102,0.1438937 -0.1796264,0.3304249 -0.2072225,0.5539714 -0.0276225,0.2235279 -0.0288098,0.4904358 -0.0310058,0.8211385 v 5.159e-4 3.9697835 5.292e-4 c 0.0045,0.6614054 -0.010068,1.0765657 0.1979207,1.3658082 0.1039813,0.1446213 0.2644486,0.2371823 0.4697388,0.2873208 0.20531663,0.050137 0.46118613,0.065618 0.79633383,0.065618 h 5.0270832 c 0.4005527,0 0.7044955,-0.015796 0.9441283,-0.064596 C 7.8071296,7.9563947 7.9891489,7.8702736 8.1126829,7.7261551 8.2362169,7.5820365 8.2909957,7.3952664 8.3173217,7.171667 8.3435155,6.9480729 8.3431599,6.6807408 8.3431599,6.3500117 V 2.9104284 c 0,-0.3307292 9.1e-5,-0.5980559 -0.025839,-0.8216553 C 8.2908623,1.865179 8.2362158,1.6784035 8.1126818,1.534285 7.9891479,1.3901664 7.8071286,1.3040479 7.5674955,1.2552323 7.3278637,1.2064167 7.0239209,1.1906367 6.6233682,1.1906367 H 3.7651449 L 3.1982545,0.6614701 h -0.052193 c -0.6087269,-2.646e-5 -1.2851929,0 -1.2851932,0 z" />
  <path
     id="rect1302"
     style="fill:url(#linearGradient1561);fill-opacity:1;stroke-width:0.214996;stroke-linejoin:round"
     d="M 4.271057,1.8520951 3.7041666,2.3812617 h -1.984375 c -1.57879513,0 -1.58744703,0.2636973 -1.58749993,1.5678629 v 0.019637 c 0,0.6502664 0.00497,1.3000236 0.00258,1.9471679 -5.29e-5,0.00265 -5.29e-5,0.00516 0,0.00775 0.014288,0.4667779 -0.026606,0.9623192 0.056844,1.4738117 0,0.00265 0.00258,0.00519 0.00258,0.00775 0.07067,0.3536686 0.3781045,0.5803927 0.703833,0.6216677 0.47945153,0.071353 0.94105433,0.027805 1.37097573,0.042891 0.00265,4.5e-5 0.00511,4.5e-5 0.00775,0 1.7182572,-0.00185 3.4416008,0.00651 5.1635092,-0.03359 0.00953,-9.26e-5 0.019055,-7.408e-4 0.028422,-0.00206 0.1516592,-0.023522 0.3191677,-0.069226 0.4718058,-0.1638141 0.1526381,-0.094586 0.293288,-0.251841 0.3374469,-0.4630209 0,-0.00529 0.0031,-0.010649 0.0031,-0.01602 0.079825,-0.6035146 0.040209,-1.1955364 0.053227,-1.7632 2.65e-5,-0.00185 2.65e-5,-0.00378 0,-0.00568 -0.00291,-0.926121 0.0052,-1.8560933 -0.00723,-2.7874267 C 8.2802295,2.0406752 8.0496708,1.8520951 6.7473916,1.8520951 Z"
     sodipodi:nodetypes="ccscscccccccccscccccsc" />
  <path
     id="path3780"
     style="opacity:0.2;fill:#491706;fill-opacity:1;stroke-width:0.214996;stroke-linejoin:round"
     d="M 16.142578 6 L 14 8 L 6.5 8 C 0.53290046 8 0.50019994 8.9966517 0.5 13.925781 L 0.5 14 C 0.5 14.158331 0.50180968 14.316297 0.50195312 14.474609 C 0.51004538 9.944938 0.72434587 9 6.5 9 L 14 9 L 16.142578 7 L 25.501953 7 C 30.423954 7 31.295375 7.7127198 31.472656 10.714844 C 31.491734 12.144268 31.496552 13.572871 31.498047 15 L 31.5 15 C 31.500341 13.240258 31.496193 11.478325 31.472656 9.7148438 C 31.295375 6.71272 30.423954 6 25.501953 6 L 16.142578 6 z "
     transform="scale(0.26458333)" />
  <path
     id="rect2157"
     style="opacity:0.4;fill:#131313;fill-opacity:1;stroke-width:0.264583;stroke-linejoin:round"
     d="m 1.8588008,0.52917845 c -0.4036113,0 -0.7140144,0.015136 -0.96944982,0.067179 C 0.63284549,0.64863245 0.4184109,0.74614325 0.2697506,0.91881835 0.1217513,1.0907256 0.0611563,1.3069554 0.032039,1.5430697 0.002932,1.7788593 0.002192,2.0486472 0,2.3791944 v 5.16e-4 0.00103 3.9697835 0.00103 5.292e-4 c 0.00448,0.6590884 -0.021747,1.101958 0.2227254,1.442289 0.1258869,0.175248 0.3185962,0.283198 0.5446696,0.338469 0.2235998,0.05467 0.4884702,0.06925 0.8273397,0.06925 h 5.0219151 c 0.4036113,0 0.7141178,-0.01513 0.96945,-0.06718 0.256351,-0.052268 0.4703498,-0.149362 0.618567,-0.322456 C 8.3522217,7.6401341 8.4120048,7.423444 8.4397945,7.1871698 8.4673893,6.9513705 8.4666662,6.68067 8.4666662,6.3500117 V 2.9104284 c 0,-0.3307288 4.233e-4,-0.6010571 -0.026872,-0.8366414 V 2.0732711 C 8.4118765,1.8370971 8.3522532,1.6208598 8.2046668,1.4485021 8.056449,1.2754076 7.842449,1.1777995 7.5860998,1.1255244 7.3307559,1.0734543 7.0202576,1.058345 6.6166498,1.058345 H 3.8132034 L 3.2468297,0.52917845 H 3.1429601 c -0.6081031,-2.65e-5 -1.2841593,0 -1.2841593,0 z m 0,0.2645833 c 0,0 0.6760724,-2.65e-5 1.2841593,0 L 3.7093338,1.3229284 h 2.907316 c 0.3966662,0 0.6933152,0.016451 0.9167399,0.062012 0.2224196,0.045356 0.372178,0.1205022 0.4707724,0.2356446 0.099225,0.1158792 0.1486889,0.272676 0.1736328,0.4836914 0.024514,0.211614 0.024805,0.4754235 0.024805,0.8061523 V 6.350012 c 0,0.3307993 -6.72e-5,0.594764 -0.024805,0.8061524 -0.024807,0.2109242 -0.074376,0.3682923 -0.1736328,0.4842077 -0.098595,0.115143 -0.2483544,0.189775 -0.4707724,0.235128 -0.2234366,0.04555 -0.5200769,0.06201 -0.9167399,0.06201 H 1.5947343 c -0.3307304,0 -0.5776871,-0.01587 -0.76429444,-0.06149 C 0.64635895,7.8310201 0.519042,7.7538301 0.4371822,7.6398581 0.266218,7.4018584 0.2685631,7.0139901 0.2640662,6.3510485 v -5.292e-4 -3.9692542 -0.00103 c 0.00219,-0.3302618 0.00393,-0.5936068 0.029972,-0.8046021 V 1.5751162 C 0.3200552,1.3641379 0.3704912,1.2073045 0.4702548,1.0914247 0.5693578,0.97631295 0.71958582,0.90112025 0.94206066,0.85578025 1.1656585,0.81022425 1.4621378,0.79376825 1.8588005,0.79376825 Z"
     sodipodi:nodetypes="ccscccccccscsscscssccssscccccccssscsscscsscccccccccccc" />
  <path
     id="path3097"
     style="opacity:0.4;fill:#fec589;fill-opacity:1;stroke-width:0.264565;stroke-linejoin:round"
     d="M 7.0253906 3 C 5.5263884 3 4.4074842 3.0621948 3.5625 3.234375 C 2.7217597 3.4057388 2.1538106 3.689932 1.7792969 4.125 C 1.4022867 4.5629709 1.2116004 5.1557225 1.1132812 5.953125 L 1.1132812 5.9550781 C 1.0148658 6.7525407 1.0082772 7.7478572 1 8.9960938 L 1 9 L 1 9.9960938 C 1.0082772 8.7478572 1.0148699 7.7525407 1.1132812 6.9550781 L 1.1132812 6.953125 C 1.2116019 6.1557225 1.4022864 5.5629709 1.7792969 5.125 C 2.1538103 4.6899318 2.7217596 4.4057388 3.5625 4.234375 C 4.4074841 4.0621948 5.5263884 4 7.0253906 4 C 7.0253906 4 9.580924 3.9998998 11.878906 4 L 14.019531 6 L 25.005859 6 C 26.504875 6 27.626373 6.0621759 28.470703 6.234375 C 29.311235 6.4057993 29.877409 6.6898161 30.25 7.125 C 30.624974 7.5629686 30.811986 8.1555865 30.90625 8.953125 C 30.99889 9.7529259 31 10.750002 31 12 L 31 11 C 31 9.7500018 30.99889 8.7529259 30.90625 7.953125 C 30.811986 7.1555865 30.624974 6.5629686 30.25 6.125 C 29.877409 5.6898161 29.311235 5.4057993 28.470703 5.234375 C 27.626373 5.0621759 26.504875 5 25.005859 5 L 14.019531 5 L 11.878906 3 C 9.580924 2.9998998 7.0253906 3 7.0253906 3 z "
     transform="scale(0.26458333)" />
  <path
     id="path4020"
     style="opacity:0.3;fill:#ffffff;fill-opacity:1;stroke-width:0.0568845;stroke-linejoin:round"
     d="M 16.142578 7 L 14 9 L 6.5 9 C 0.53290053 9 0.50019994 9.9966517 0.5 14.925781 L 0.5 15 L 0.50585938 15 C 0.53517189 10.886442 0.93622607 10 6.5 10 L 14 10 L 16.142578 8 L 25.501953 8 C 30.423955 8 31.295359 8.7130592 31.472656 11.714844 L 31.472656 10.714844 C 31.295359 7.7130592 30.423956 7 25.501953 7 L 16.142578 7 z "
     transform="scale(0.26458333)" />
  <path
     id="rect4964"
     style="opacity:0.05;fill:#ffffff;stroke-width:0.999999;stroke-linejoin:round"
     d="M 31 21 L 22.001953 29.998047 L 25.007812 29.998047 C 26.50701 29.998047 27.628172 29.935829 28.472656 29.763672 C 29.313291 29.592273 29.879311 29.310187 30.251953 28.875 C 30.627097 28.436895 30.814445 27.842116 30.908203 27.044922 C 30.978326 26.445711 30.995546 25.734171 31 24.888672 L 31 21 z "
     transform="scale(0.26458333)" />
  <path
     d="m 5.0378013,3.4397038 c -0.012699,-2.646e-4 -0.025133,-9.53e-5 -0.037727,5.29e-4 C 4.7081049,3.4549954 4.4834393,3.7037414 4.4983605,3.995706 4.513176,4.2876761 4.7618637,4.5123681 5.0538338,4.4974468 5.3458036,4.4826843 5.5704691,4.2339383 5.5555478,3.9419736 5.5415261,3.6646339 5.3154319,3.4453389 5.0378013,3.4397302 Z m -0.00556,0.2645614 c 0.1388153,0.0028 0.2518625,0.1124544 0.2588734,0.251127 C 5.2985247,4.1011787 5.1862953,4.2253506 5.040522,4.2328642 4.8947266,4.2401925 4.7705678,4.1280344 4.7630542,3.982253 4.7556466,3.8364665 4.8678735,3.7122947 5.0136469,3.7047811 c 0.00609,-2.646e-4 0.012434,-5.291e-4 0.01852,-5.291e-4 z M 4.1744844,4.1150496 3.4801164,4.5945673 C 3.3938955,4.5337523 3.2914576,4.5001031 3.1859769,4.4979413 3.173278,4.4976767 3.160844,4.497846 3.1482501,4.4984703 2.85628,4.5132331 2.6316144,4.7619789 2.6465356,5.0539436 c 0.014816,0.29197 0.2635033,0.5166621 0.5554733,0.5017408 0.099766,-0.00537 0.1959607,-0.03887 0.2774721,-0.096628 L 4.1743521,5.939103 4.2921878,5.7024422 3.6541184,5.2513385 C 3.6909454,5.172952 3.707983,5.0867178 3.7037233,5.0002115 3.7000236,4.9318251 3.683352,4.8647878 3.6541184,4.8028222 L 4.2921878,4.3517184 Z M 3.1802889,4.7625109 c 0.1388154,0.0028 0.2518625,0.1124545 0.2588734,0.251127 C 3.4465717,5.1594246 3.3343431,5.2835964 3.1885697,5.29111 3.0427699,5.2984394 2.9186111,5.1862802 2.9110977,5.0404989 2.9036883,4.8947123 3.0159169,4.7705404 3.1616902,4.7630269 c 0.00609,-2.646e-4 0.012434,-5.292e-4 0.01852,-5.292e-4 z M 5.0378013,5.5561953 C 5.0251024,5.5559307 5.0126684,5.5561001 5.0000744,5.5567244 4.7081049,5.5714869 4.4834393,5.820233 4.4983605,6.1121976 4.513176,6.4041677 4.7618637,6.6288597 5.0538338,6.6139384 5.3458036,6.599176 5.5704691,6.3504299 5.5555478,6.0584653 5.5415261,5.7811255 5.3154319,5.5618304 5.0378013,5.5562218 Z m -0.00556,0.2645614 c 0.1388153,0.0028 0.2518625,0.1124545 0.2588734,0.251127 C 5.2985246,6.2176704 5.1862958,6.3418423 5.0405225,6.3493558 4.8947266,6.3566852 4.7705678,6.244526 4.7630542,6.0987447 4.7556449,5.9529581 4.8678735,5.8287861 5.0136469,5.8212727 c 0.00609,-2.646e-4 0.012434,-5.292e-4 0.01852,-5.292e-4 z"
     style="opacity:0.8;fill:#ffffff;stroke-width:0.264561;enable-background:new"
     id="path896" />
</svg>
