<svg width="16" height="16" version="1.1" xmlns="http://www.w3.org/2000/svg">
 <path d="m6.8984 4-1.4473 4.4922 2.418-2.418 0.21094-0.77734 0.12305 0.44531 1.1875-1.1895-0.17773-0.55273h-2.3145zm3.1816 2.6816-1.2695 1.2695 0.36914 1.3379h-1.707l-3.3594 3.3613-0.11328 0.34961h1.9102l0.61719-2h3.0762l0.60938 2h1.9102l-2.043-6.3184z" fill="#666" opacity=".5"/>
 <path d="m3.3125 2c-1.2023-2.323e-4 -2.2271 0.89812-2.3613 2.0859l-0.93555 8.3086c-0.052648 0.4668 0.040425 0.91395 0.23828 1.3027l0.77344-0.77344c-0.027039-0.13366-0.035781-0.27387-0.019531-0.41797l0.9375-8.3066c0.077095-0.68235 0.65853-1.1994 1.3672-1.1992h7.6309l0.58984-0.58984c0.0017 0.0012801 0.005913 0.0029907 0.007813 0.0039063l0.41406-0.41406h-8.6426zm10.898 0.55078-0.70898 0.70898c0.30147 0.21633 0.5087 0.55073 0.55274 0.93945l0.9375 8.3066c0.090673 0.80153-0.5349 1.4941-1.3672 1.4941h-10.861l-0.93555 0.93555c0.17586 0.041587 0.35813 0.064453 0.54688 0.064453h11.25c1.4026 0 2.5162-1.2192 2.3594-2.6055l-0.9375-8.3086c-0.070204-0.61965-0.38281-1.1595-0.83594-1.5352z" fill="#666" opacity=".5" style="font-feature-settings:normal;font-variant-alternates:normal;font-variant-caps:normal;font-variant-east-asian:normal;font-variant-ligatures:normal;font-variant-numeric:normal;font-variant-position:normal;font-variation-settings:normal;inline-size:0;isolation:auto;mix-blend-mode:normal;shape-margin:0;shape-padding:0;text-decoration-color:#000000;text-decoration-line:none;text-decoration-style:solid;text-indent:0;text-orientation:mixed;text-transform:none;white-space:normal"/>
 <path d="m14.174 1.1738-0.33984 0.33984a4.9449 8.4532 45 0 1 0.00586 0.0019531l-1.6035 1.6035c-0.0019-9.156e-4 -0.004059-6.754e-4 -0.005859-0.0019531l-9.7656 9.7676v0.003906l-1.7871 1.7891 0.70313 0.70312 13.5-13.5-0.70703-0.70703z" fill="#666" opacity=".5" stroke-width="1.8525"/>
</svg>
