<svg version="1.1" viewBox="0 0 16 16" xmlns="http://www.w3.org/2000/svg">
 <path d="m15 0.29297-14.707 14.707h8.5879l-0.5-0.5 2-2-2-2 2.1211-2.1211 2 2 2-2 0.49805 0.49805v-8.584zm0 11.83-0.37695 0.37695 0.37695 0.37695v-0.75391zm-2.498 2.498-0.37891 0.37891h0.75781l-0.37891-0.37891z" fill="#666" style="font-feature-settings:normal;font-variant-alternates:normal;font-variant-caps:normal;font-variant-ligatures:normal;font-variant-numeric:normal;font-variant-position:normal;isolation:auto;mix-blend-mode:normal;shape-padding:0;text-decoration-color:#000;text-decoration-line:none;text-decoration-style:solid;text-indent:0;text-orientation:mixed;text-transform:none"/>
 <path d="m10.502 9.793-0.70703 0.70703 2 2-2 2 0.70703 0.70703 2-2 2 2 0.70703-0.70703-2-2 2-2-0.70703-0.70703-2 2-1.6465-1.6465z" fill="#666" style="font-feature-settings:normal;font-variant-alternates:normal;font-variant-caps:normal;font-variant-ligatures:normal;font-variant-numeric:normal;font-variant-position:normal;isolation:auto;mix-blend-mode:normal;shape-padding:0;text-decoration-color:#000000;text-decoration-line:none;text-decoration-style:solid;text-indent:0;text-orientation:mixed;text-transform:none;white-space:normal"/>
</svg>
