<svg version="1.1" viewBox="0 0 16 16" xmlns="http://www.w3.org/2000/svg">
 <path d="m2.7129 2c-1.058-0.013-1.7678 0.22411-2.1328 0.66211-0.383 0.456-0.58008 1.2041-0.58008 2.2441v6.1875c0 1.04 0.19708 1.7881 0.58008 2.2441 0.365 0.438 1.0748 0.66211 2.1328 0.66211h10.574c1.058 0 1.7698-0.22411 2.1348-0.66211 0.383-0.456 0.57812-1.2041 0.57812-2.2441v-6.1875c0-1.04-0.19512-1.7881-0.57812-2.2441-0.365-0.438-1.0768-0.66211-2.1348-0.66211h-10.574zm5.2871 2.6309v0.042969c0.1643-0.021956 0.32832-0.042969 0.5-0.042969 0.305 0 0.57831 0.021453 0.82031 0.064453 0.25 0.038 0.45977 0.085625 0.63477 0.14062 0.18 0.05 0.32745 0.1012 0.43945 0.1582 0.118 0.055 0.20295 0.099859 0.25195 0.13086l-0.41992 1.168a3.56 3.56 0 0 0-0.69141-0.27148 2.766 2.766 0 0 0-0.83984-0.12109c-0.679 0-1.1696 0.18836-1.4746 0.56836-0.29427 0.3671-0.44069 0.87336-0.44531 1.5117 0.00462 0.63836 0.15105 1.1446 0.44531 1.5117 0.305 0.38 0.79561 0.56836 1.4746 0.56836a2.766 2.766 0 0 0 0.83984-0.12109 3.56 3.56 0 0 0 0.69141-0.27148l0.41992 1.168c-0.049 0.030999-0.13395 0.075859-0.25195 0.13086-0.112 0.057-0.25945 0.1082-0.43945 0.1582-0.175 0.054995-0.38477 0.10262-0.63477 0.14062-0.242 0.043-0.51531 0.064453-0.82031 0.064453-0.17168 0-0.3357-0.021009-0.5-0.042969v0.042969c-0.30127-0.033291-0.58957-0.086317-0.85352-0.18555a2.766 2.766 0 0 1-1.0078-0.65234 2.97 2.97 0 0 1-0.6543-1.0547 4.218 4.218 0 0 1-0.22461-1.4277c0-0.010357 0.0018912-0.018986 0.0019532-0.029297-1e-4 -0.010311-0.0019532-0.01894-0.0019532-0.029297a4.218 4.218 0 0 1 0.22461-1.4277 2.97 2.97 0 0 1 0.6543-1.0547 2.766 2.766 0 0 1 1.0078-0.65234c0.26394-0.099227 0.55224-0.15226 0.85352-0.18555z" fill="#666"/>
</svg>
