<svg width="16" height="16" version="1.1" xmlns="http://www.w3.org/2000/svg">
 <path d="m8 0c-1.662 0-3 1.338-3 3v4.0078c-1.257 0.9426-1.998 2.4212-2 3.9922 0 2.761 2.239 5 5 5s5-2.239 5-5c-2e-3 -1.571-0.743-3.0496-2-3.9922v-4.0078c0-1.662-1.338-3-3-3zm0 1c1.0907 0 2 0.9093 2 2v4.7363c1.1555 0.71814 1.9978 1.8639 2 3.2617v0.001953c0 2.1973-1.8027 4-4 4-2.1973 0-4-1.8027-4-4 0.0011007-1.3984 0.84411-2.5449 2-3.2637v-4.7363c0-1.0907 0.9093-2 2-2z" fill="#666"/>
 <path d="m6 6v1.7363c-1.1559 0.71877-1.9989 1.8652-2 3.2637 0 2.1973 1.8027 4 4 4 2.1973 0 4-1.8027 4-4v-2e-3c-0.002202-1.3978-0.84446-2.5435-2-3.2617v-1.7363z" color="#000000" color-rendering="auto" dominant-baseline="auto" fill="#666" image-rendering="auto" opacity=".5" shape-rendering="auto" solid-color="#000000" stop-color="#000000" style="font-feature-settings:normal;font-variant-alternates:normal;font-variant-caps:normal;font-variant-east-asian:normal;font-variant-ligatures:normal;font-variant-numeric:normal;font-variant-position:normal;font-variation-settings:normal;inline-size:0;isolation:auto;mix-blend-mode:normal;shape-margin:0;shape-padding:0;text-decoration-color:#000000;text-decoration-line:none;text-decoration-style:solid;text-indent:0;text-orientation:mixed;text-transform:none;white-space:normal"/>
</svg>
