<svg width="16" height="16" version="1.1" xmlns="http://www.w3.org/2000/svg">
 <defs>
  <style id="current-color-scheme" type="text/css">.ColorScheme-Text { color:#666666; } .ColorScheme-Highlight { color:#4285f4; }</style>
 </defs>
 <path d="m0 3v2h3v-2h-3zm13 0v2h3v-2h-3z" fill="#666" opacity=".3"/>
 <path d="m4 1c-1.108 0-2 0.892-2 2v10c0 1.108 0.892 2 2 2h8c1.108 0 2-0.892 2-2v-10c0-1.108-0.892-2-2-2h-8zm0 1h8c0.554 0 1 0.446 1 1v10c0 0.554-0.446 1-1 1h-8c-0.554 0-1-0.446-1-1v-10c0-0.554 0.446-1 1-1z" fill="#666"/>
 <path d="m0 7v2h3v-2zm13 0v2h3v-2z" fill="#666" opacity=".3"/>
 <path d="m0 11v2h3v-2zm13 0v2h3v-2z" fill="#666" opacity=".3"/>
</svg>
