<svg width="18" height="18" version="1.1" xmlns="http://www.w3.org/2000/svg">
 <path d="m8.5 2a6.508 6.508 0 0 0-6.5 6.5c0 3.584 2.916 6.5 6.5 6.5s6.5-2.916 6.5-6.5-2.916-6.5-6.5-6.5zm0 1.04c3.022 0 5.46 2.438 5.46 5.46s-2.438 5.46-5.46 5.46a5.454 5.454 0 0 1-5.461-5.46c0-3.022 2.44-5.46 5.461-5.46z" color="#000000" fill="#666" overflow="visible"/>
 <path d="m12.853 12.146-0.707 0.708 3.5 3.5 0.707-0.708zm-6.853-4.146v1h5v-1z" color="#000000" fill="#666" fill-rule="evenodd" overflow="visible"/>
</svg>
