<svg version="1.1" viewBox="0 0 16 16" xmlns="http://www.w3.org/2000/svg">
 <path d="m8 3a5 5 0 0 0 0 10 5 5 0 0 0 0-10zm0 1v8a4 4 0 0 1 0-8z" fill="#dfdfdf"/>
 <path d="m8.5 13.999h-1v2h1z" fill="#dfdfdf" opacity=".5"/>
 <path d="m3.404 11.889-1.414 1.414 0.707 0.707 1.414-1.414z" fill="#dfdfdf" opacity=".5"/>
 <path d="m12.596 11.889-0.707 0.707 1.414 1.414 0.707-0.707z" fill="#dfdfdf" opacity=".5"/>
 <path d="m2 7.5h-2v1h2z" fill="#dfdfdf" opacity=".5"/>
 <path d="m16 7.5h-2v1h2z" fill="#dfdfdf" opacity=".5"/>
 <path d="m2.697 1.99-0.707 0.707 1.414 1.413 0.707-0.707z" fill="#dfdfdf" opacity=".5"/>
 <path d="m13.303 1.99-1.413 1.414 0.707 0.707 1.414-1.414z" fill="#dfdfdf" opacity=".5"/>
 <path d="m8.5 0h-1v2h1z" fill="#dfdfdf" opacity=".5"/>
</svg>
