<svg version="1.1" viewBox="0 0 16.003 16" xmlns="http://www.w3.org/2000/svg">
 <path d="m3 7v3h-2c3.5 5 4.5 6 4.5 6s0.61761-0.62723 2.5195-3.2285a4.5 4.5 0 0 1-0.019531-0.27148 4.5 4.5 0 0 1 0.76367-2.5h-0.76367v-2h-1v3h1.2188c-2.219 3-2.7188 3.4062-2.7188 3.4062s-0.49975-0.40625-2.7188-3.4062h1.2188v-4h-1z" fill="#dfdfdf" opacity=".5"/>
 <path d="m9.5 0s-1 1-4.5 6h2v2h1v-3h-1.2188c2.219-3 2.7188-3.4062 2.7188-3.4062s0.49975 0.40625 2.7188 3.4062h-1.2188v3.2676a4.5 4.5 0 0 1 1-0.23242v-2.0352h2c-3.5-5-4.5-6-4.5-6z" fill="#dfdfdf" opacity=".5"/>
 <path class="error" d="M12.502 9a3.5 3.5 0 0 0-3.5 3.5 3.5 3.5 0 0 0 3.5 3.5 3.5 3.5 0 0 0 3.5-3.5 3.5 3.5 0 0 0-3.5-3.5zm-.5 1h1v1.168c0 .348-.016.667-.047.957-.03.29-.069.581-.115.875h-.666a12.898 12.898 0 0 1-.125-.875 9.146 9.146 0 0 1-.047-.957zm.5 4a.5.5 0 0 1 .5.5.5.5 0 0 1-.5.5.5.5 0 0 1-.5-.5.5.5 0 0 1 .5-.5z" fill="#f22c42" overflow="visible"/>
</svg>
