<svg version="1.1" viewBox="0 0 16 16" xmlns="http://www.w3.org/2000/svg">
 <path d="m2.7129 2c-1.058-0.013-1.7678 0.22411-2.1328 0.66211-0.383 0.456-0.58008 1.2041-0.58008 2.2441v6.1875c0 1.04 0.19708 1.7881 0.58008 2.2441 0.365 0.438 1.0748 0.66211 2.1328 0.66211h3.3828c-0.16934-0.30887-0.26755-0.66624-0.26953-1.0078-0.007419-0.51794 0.18222-1.0213 0.5332-1.4023 0.2713-0.29806 0.70463-0.38791 1.1113-0.4707h-1.1152l-0.019531-0.11914h-0.33594v-5-1h2c0.26609 0 0.51905 0.054729 0.75195 0.15039 0.046366-0.1005 0.070312-0.20453 0.070312-0.33594 0-0.27722-0.059642-0.39056-0.18945-0.51562l-0.0058594-0.0058593-0.0058593-0.0078126c-0.10171-0.10171-0.28162-0.19727-0.71289-0.19727-0.53496 0-1.0702 0.14334-1.6289 0.42188l-1.2012 0.89258-0.078125-0.12109v2.7188c0 1.651-1.35 3-3 3h-1v-6h1v5c1.11 0 2-0.89 2-2v-3h0.81836l-1.4082-2.1816 1.1738-0.81836h-1.8711zm8.3457 0c0.099359 0.061801 0.19365 0.12859 0.27148 0.21289 0.30604 0.3278 0.52989 0.7205 0.66602 1.1465l0.083984 0.16797v0.23438 0.0019531c0.071565 0.29909 0.14419 0.59806 0.14648 0.90625v0.0039062 0.0039063c0 0.10815-0.00805 0.21554-0.017578 0.32227h0.79102c1.099 0 2 0.901 2 2v4h-1v-4c0-0.558-0.442-1-1-1h-1v5h-1v-3.5996c-0.17045 0.18704-0.3462 0.36878-0.5332 0.53906l-0.003906 0.0019531c-0.2299 0.21083-0.43616 0.42778-0.61914 0.65039l-0.017578 0.019531c-0.00151 0.00175-0.0023963 0.0041094-0.0039063 0.0058594-0.16048 0.18682-0.2968 0.39318-0.41016 0.62891l-0.0039063 0.0078124-0.0039062 0.0058594c-0.078445 0.15689-0.125 0.34916-0.125 0.60352v0.1875c0-0.25378 0.0097656-0.2445 0.0097656 0.06836v1h-1.0801c0.40816 0.08309 0.84389 0.17292 1.1152 0.47266l0.0019531 0.001953v0.001953c0.32666 0.36374 0.53125 0.89243 0.53125 1.3867 0 0.34416-0.10025 0.70528-0.27344 1.0176h3.7031c1.058 0 1.7698-0.22411 2.1348-0.66211 0.383-0.456 0.57812-1.2041 0.57812-2.2441v-6.1875c0-1.04-0.19512-1.7881-0.57812-2.2441-0.365-0.438-1.0768-0.66211-2.1348-0.66211h-2.2285zm0.96289 1.4395c0.004371 0.015052 0.009523 0.029793 0.013672 0.044922 0.0018 0.006563 0.007966 0.010998 0.009766 0.017578l-0.023438-0.0625zm-5.0215 2.5605v1.2207l0.025391-0.033203c0.004524-0.005825 0.011085-0.009815 0.015625-0.015625v-0.0019531c0.21489-0.2748 0.44768-0.53368 0.69922-0.77539l0.0019531-0.0019531c0.12818-0.12818 0.25068-0.25635 0.37109-0.38477-0.037123-0.0040641-0.074958-0.0078125-0.11328-0.0078125h-1z" fill="#dfdfdf"/>
 <path d="m8.1105 2.0005c-0.533 0-1.037 0.061-1.513 0.183a5.853 5.853 0 0 0-1.167 0.446l-0.657 0.458 0.566 0.876 0.452-0.336c0.688-0.35 1.394-0.54 2.116-0.54 0.607 0 1.089 0.16 1.42 0.491 0.328 0.316 0.494 0.737 0.494 1.236 0 0.311-0.073 0.603-0.218 0.868a3.339 3.339 0 0 1-0.507 0.736c-0.205 0.227-0.421 0.455-0.648 0.682l-1e-3 1e-3a6.385 6.385 0 0 0-0.632 0.7l-1e-3 2e-3a3.66 3.66 0 0 0-0.492 0.786 2.378 2.378 0 0 0-0.177 0.935c0 0.208 0.024 0.403 0.056 0.594h1.087c0-0.023-0.01-0.044-0.01-0.068v-0.187c0-0.387 0.077-0.74 0.232-1.05 0.151-0.314 0.337-0.599 0.558-0.855l2e-3 -2e-3c0.217-0.264 0.458-0.515 0.72-0.755a7.23 7.23 0 0 0 0.701-0.734 4.27 4.27 0 0 0 0.527-0.807c0.138-0.288 0.208-0.613 0.208-0.982a3.06 3.06 0 0 0-0.147-0.914v-2e-3l-1e-3 -2e-3a2.04 2.04 0 0 0-0.481-0.867c-0.235-0.255-0.552-0.466-0.957-0.63v-2e-3c-0.386-0.172-0.895-0.261-1.528-0.261zm-0.271 9.963c-0.325 0-0.562 0.1-0.743 0.3a1.025 1.025 0 0 0-0.274 0.718c0 0.279 0.089 0.512 0.274 0.718 0.181 0.2 0.418 0.3 0.743 0.3s0.562-0.099 0.743-0.3c0.186-0.206 0.275-0.44 0.275-0.718 0-0.28-0.09-0.512-0.275-0.718-0.181-0.2-0.418-0.3-0.743-0.3z" fill="#dfdfdf" font-size="72.036" font-weight="500" letter-spacing="0" word-spacing="0"/>
</svg>
