<svg width="16" height="16" version="1.1" xmlns="http://www.w3.org/2000/svg">
 <path d="m 10,7 h 1 C 11,8.6569 9.6569,10 8,10 7.3821,9.998 6.7798,9.806 6.2754,9.449 L 6,10 5,8 H 7 L 6.7305,8.5391 C 7.0874,8.8353 7.5362,8.9982 8,9 9.1046,9 10,8.1046 10,7 Z" fill="#666"/>
 <path d="M 8,4 C 8.6179,4.0016 9.2202,4.194 9.7246,4.5508 L 10,4 11,6 H 9 L 9.2695,5.4609 C 8.9126,5.1647 8.4638,5.0018 8,5 6.8954,5 6,5.8954 6,7 H 5 C 5,5.3431 6.3431,4 8,4 Z" fill="#666"/>
 <path d="m8 0.262s-1.636 2.738-6 2.738c0 9.31 6 12.594 6 12.594s6-3.284 6-12.594c-4.364 0-6-2.738-6-2.738zm0 1.386c0.272 0.312 0.257 0.42 0.781 0.795 0.912 0.654 2.362 1.19 4.153 1.391-0.174 3.943-1.439 6.642-2.73 8.352-0.982 1.298-1.74 1.878-2.204 2.193-0.463-0.315-1.222-0.895-2.203-2.193-1.292-1.71-2.557-4.409-2.73-8.352 1.79-0.2 3.24-0.737 4.152-1.39 0.524-0.377 0.51-0.483 0.781-0.796z" fill="#666" overflow="visible"/>
</svg>
