<svg version="1.1" viewBox="0 0 16 16" xmlns="http://www.w3.org/2000/svg">
 <path d="m2.7129 2c-1.058-0.013-1.7678 0.22411-2.1328 0.66211-0.383 0.456-0.58008 1.2041-0.58008 2.2441v6.1875c0 1.04 0.19708 1.7881 0.58008 2.2441 0.365 0.438 1.0748 0.66211 2.1328 0.66211h6.168l1.5-1.5-2-2 2.1211-2.1211 0.49805 0.49805v-2.877-1h2c1.099 0 2 0.901 2 2v1.877l1 1v-4.9707c0-1.04-0.19512-1.7881-0.57812-2.2441-0.365-0.438-1.0768-0.66211-2.1348-0.66211h-10.574zm-1.7129 3h1v5c1.11 0 2-0.89 2-2v-3h1v3c0 1.651-1.35 3-3 3h-1v-6zm5 0h2c1.099 0 2 0.901 2 2s-0.901 2-2 2h-1v2h-1v-5-1zm1 1v2h1c0.558 0 1-0.442 1-1s-0.442-1-1-1h-1zm5 0v3.877l0.50195 0.50195 1.498-1.498v-1.8809c0-0.558-0.442-1-1-1h-1zm3.998 5.125-1.375 1.375 0.81445 0.81445c0.36764-0.45277 0.55645-1.1824 0.56055-2.1895z" fill="#666"/>
 <path d="m10.502 9.793-0.70703 0.70703 2 2-2 2 0.70703 0.70703 2-2 2 2 0.70703-0.70703-2-2 2-2-0.70703-0.70703-2 2-1.6465-1.6465z" fill="#666" style="font-feature-settings:normal;font-variant-alternates:normal;font-variant-caps:normal;font-variant-ligatures:normal;font-variant-numeric:normal;font-variant-position:normal;isolation:auto;mix-blend-mode:normal;shape-padding:0;text-decoration-color:#000000;text-decoration-line:none;text-decoration-style:solid;text-indent:0;text-orientation:mixed;text-transform:none;white-space:normal"/>
</svg>
