<svg width="16" height="16" version="1" xmlns="http://www.w3.org/2000/svg">
<path d="m1.7773 1c-0.98489 0-1.7773 0.7805-1.7773 1.75v10.5c0 0.9695 0.79245 1.75 1.7773 1.75h12.445c0.98489 0 1.7773-0.7805 1.7773-1.75v-10.5c0-0.9695-0.79246-1.75-1.7773-1.75h-12.445zm-0.77734 4.125h0.88867v0.875h-0.88867v-0.875zm13 0.875h0.88867v5c-0.76444-0.06833-0.88867-0.33898-0.88867-0.83398v-4.166zm-7 0.050781h0.88867v1.0742h0.88867v0.875h-0.88867v1.25c0 0.22575 0.048174 0.875 0.28906 0.875h0.59961v0.875h-0.88867c-0.82756 0-0.88867-1.024-0.88867-1.5762v-3.373zm-6 0.94922h0.88867v4c-0.76436-0.065598-0.88867-0.72403-0.88867-1.1992v-2.8008zm1.666 0h2.2227c0.88676-0.00928 1.334 0.69291 1.334 1.1992v2.8008h-0.88867v-2.8008c0-0.2112-0.2989-0.39844-0.5957-0.39844h-1.1836v3.1992h-0.88867v-4zm9.1973 0h0.001953c1.072 9.6e-4 1.6895 0.844 1.6895 1.9512v0.44922h-2.5391c0.040889 0.44879 0.34718 0.77539 0.87695 0.77539 0.44711 0 0.66996-0.12114 0.92773-0.36914l0.61914 0.57813c-0.39911 0.38159-0.81602 0.61328-1.5547 0.61328-0.96356 0-1.8848-0.51194-1.8848-2.0039 0-1.2742 0.80373-1.9933 1.8633-1.9941zm-0.08789 0.80078a0.88889 0.79998 0 0 0-0.88867 0.79883h1.7793a0.88889 0.79998 0 0 0-0.89062-0.79883z" fill="#666"/>
</svg>
