<svg width="16" height="16" version="1" xmlns="http://www.w3.org/2000/svg">
 <path d="m7.9941 0a8 8 0 0 0-3.1426 0.64453 3 3 0 0 1 1.1113 1.8965 1 1 0 0 1 0.033203 0.33984 3 3 0 0 1 0 0.0039062 3 3 0 0 1 0.0039062 0.11523 3 3 0 0 1-3 3 3 3 0 0 1-0.11133-0.0058594 1 1 0 0 1-0.36719-0.037109 3 3 0 0 1-1.875-1.0977 8 8 0 0 0-0.65234 3.1406 8 8 0 0 0 8 8 8 8 0 0 0 5.6309-2.3262c-0.60731-0.24132-1.1815-0.51078-1.6973-0.84375a1 1 0 0 1-0.42773 1.2324 1 1 0 0 1-1.3652-0.36719 1 1 0 0 1 0.36523-1.3652 1 1 0 0 1 0.47656-0.13281 1 1 0 0 1 0.1582 0.009765c-0.55024-0.52242-0.96397-1.2245-1.084-2.0195a3 3 0 0 1-2.0508 0.8125 3 3 0 0 1-3-3 3 3 0 0 1 3-3 3 3 0 0 1 3 3 3 3 0 0 1-0.001953 0.041016c0.13004-0.029872 0.25067-0.044044 0.3418-0.041016 0.18763 0.00624 0.30809 0.037102 0.4375 0.066406a1.0001 1.0001 0 0 1 0.029297 0.0058594l1.2793 0.33008a1 1 0 0 1-0.085938-0.40234 1 1 0 0 1 1-1 1 1 0 0 1 1 1 1 1 0 0 1-0.39453 0.79492l1.2988 0.33594a8 8 0 0 0 0.089844-1.1309 8 8 0 0 0-8-8zm0.0058594 1a1 1 0 0 1 1 1 1 1 0 0 1-1 1 1 1 0 0 1-1-1 1 1 0 0 1 1-1zm2.9531 0.80469a1 1 0 0 1 0.54688 0.13281 1 1 0 0 1 0.36523 1.3672 1 1 0 0 1-1.3652 0.36523 1 1 0 0 1-0.36523-1.3652 1 1 0 0 1 0.81836-0.5zm2.2188 2.1953a1 1 0 0 1 0.89062 0.5 1 1 0 0 1-0.36719 1.3652 1 1 0 0 1-1.3652-0.36523 1 1 0 0 1 0.36523-1.3652 1 1 0 0 1 0.47656-0.13477zm-11.172 3a1 1 0 0 1 1 1 1 1 0 0 1-1 1 1 1 0 0 1-1-1 1 1 0 0 1 1-1zm0.7793 3a1 1 0 0 1 0.89062 0.5 1 1 0 0 1-0.36523 1.3652 1 1 0 0 1-1.3672-0.36523 1 1 0 0 1 0.36719-1.3652 1 1 0 0 1 0.47461-0.13477zm2.1738 2.1973a1 1 0 0 1 0.54688 0.13281 1 1 0 0 1 0.36523 1.3652 1 1 0 0 1-1.3652 0.36719 1 1 0 0 1-0.36523-1.3672 1 1 0 0 1 0.81836-0.49805zm3.0469 0.80273a1 1 0 0 1 1 1 1 1 0 0 1-1 1 1 1 0 0 1-1-1 1 1 0 0 1 1-1z" fill="#666"/>
 <path class="warning" d="m3 1a2 2 0 0 0-2 2 2 2 0 0 0 2 2 2 2 0 0 0 2-2 2 2 0 0 0-2-2z" fill="#f22c42"/>
 <path d="m11.307 9c-0.18873-0.00627-0.21382 0.097137-0.26953 0.37109-0.28035 1.8036 1.3542 2.8043 3.502 3.584 0.2562 0.09097 0.27809 0.04569 0.43359-0.14844 0.28413-0.36787 0.45279-0.75585 0.5918-1.1621 0.12432-0.36334 0.22482-0.74099 0.36328-1.1289 0.13907-0.32874 0.08912-0.32191-0.25976-0.41211l-4.1113-1.0625c-0.10675-0.024172-0.18709-0.038924-0.25-0.041016z" fill="#666"/>
</svg>
