<svg width="24" height="24" version="1" xmlns="http://www.w3.org/2000/svg" xmlns:xlink="http://www.w3.org/1999/xlink">
 <defs>
  <linearGradient id="linearGradient916" x1="459.03" x2="35.31" y1="419.23" y2="207.37" gradientTransform="matrix(0 -.056641 .056639 0 -5.7453 26)" gradientUnits="userSpaceOnUse">
   <stop stop-color="#f2f2f2" offset="0"/>
   <stop stop-color="#f9f9f9" offset="1"/>
  </linearGradient>
  <linearGradient id="linearGradient981" x1="332" x2="332" y1="189" y2="211" gradientTransform="translate(-320,-188)" gradientUnits="userSpaceOnUse">
   <stop stop-color="#fff" offset="0"/>
   <stop stop-color="#fff" stop-opacity=".098039" offset=".125"/>
   <stop stop-color="#fff" stop-opacity=".098039" offset=".925"/>
   <stop stop-color="#fff" stop-opacity=".49804" offset="1"/>
  </linearGradient>
 </defs>
 <path d="m7.8652 1c-1.1201 0-2.0152 0.0241-2.791 0.1543-0.77577 0.13022-1.4801 0.38763-2.0098 0.91601-0.52962 0.52838-0.79079 1.2369-0.91992 2.0137-0.12912 0.77681-0.15002 1.6717-0.14453 2.7949v6.1211 6.125c-5e-3 1.121 0.0156 2.0153 0.14453 2.791 0.12912 0.77681 0.39029 1.4853 0.91992 2.0137 0.52964 0.52838 1.234 0.78579 2.0098 0.91601s1.6709 0.1543 2.791 0.1543h8.2695c1.1201 0 2.0126-0.024 2.7871-0.1543 0.77446-0.13033 1.48-0.38927 2.0078-0.91797 0.5278-0.52869 0.78594-1.2344 0.91601-2.0098 0.13007-0.77539 0.1543-1.6706 0.1543-2.793v-6.125-6l-6-6z" color="#000000" color-rendering="auto" dominant-baseline="auto" image-rendering="auto" opacity=".1" shape-rendering="auto" solid-color="#000000" style="font-feature-settings:normal;font-variant-alternates:normal;font-variant-caps:normal;font-variant-ligatures:normal;font-variant-numeric:normal;font-variant-position:normal;isolation:auto;mix-blend-mode:normal;shape-padding:0;text-decoration-color:#000000;text-decoration-line:none;text-decoration-style:solid;text-indent:0;text-orientation:mixed;text-transform:none;white-space:normal"/>
 <path d="m7.8652 1c-4.4121 0-4.8868 0.45318-4.8652 4.8742v6.1258 6.1258c-0.0217 4.421 0.45311 4.8742 4.8652 4.8742h8.2696c4.4121 0 4.8652-0.45312 4.8652-4.8742v-6.1258-6.1258l-4.8652-4.8742z" color="#000000" fill="none" opacity=".2" stroke="#000" stroke-width="2"/>
 <path d="m7.8652 1c-4.4121 0-4.8868 0.45318-4.8652 4.8742v6.1258 6.1258c-0.0217 4.421 0.45311 4.8742 4.8652 4.8742h8.2696c4.4121 0 4.8652-0.45312 4.8652-4.8742v-6.1258-6l-5-5z" color="#000000" fill="url(#linearGradient916)"/>
 <g transform="translate(-320 -182.38)" enable-background="new">
  <path d="m332.06 194.23a2.6667 2.6667 0 0 0-3.6427 0.97607 2.6667 2.6667 0 0 0 2e-3 2.6633l-2.7917 4.8353 0.16268 0.60713 0.7698 0.44444 1.2142-0.32536 0.5-0.86602-0.16268-0.60712 0.60713-0.16268-0.16268-0.60712 0.60712-0.16268-0.16275-0.60712 1.2142-0.32536 0.51334-0.88914a2.6667 2.6667 0 0 0 2.308-1.331 2.6667 2.6667 0 0 0-0.97606-3.6427zm-0.55556 0.96225a0.66667 0.66667 0 0 1 0.24402 0.91069 0.66667 0.66667 0 0 1-0.91068 0.24401 0.66667 0.66667 0 0 1-0.24402-0.91068 0.66667 0.66667 0 0 1 0.91068-0.24402z" enable-background="new" fill="#fac342"/>
  <path d="m328.57 198.5 0.16268 0.60713-2.3333 4.0414-0.16268-0.60712z" fill="#fff" opacity=".5"/>
  <path d="m331.95 194.42a2.4444 2.4444 0 0 0-3.3392 0.89473 2.4444 2.4444 0 0 0 0.89473 3.3392 2.4444 2.4444 0 0 0 3.3392-0.89473 2.4444 2.4444 0 0 0-0.89473-3.3392zm-0.44445 0.7698a0.66667 0.66667 0 0 1 0.24402 0.91069 0.66667 0.66667 0 0 1-0.91068 0.24401 0.66667 0.66667 0 0 1-0.24402-0.91068 0.66667 0.66667 0 0 1 0.91068-0.24402z" enable-background="new" fill="#fff" opacity=".5"/>
  <path d="m332.17 194.31a2.6667 2.6667 0 0 0-0.97607 3.6427 2.6667 2.6667 0 0 0 2.3075 1.33l2.7917 4.8353 0.60712 0.16268 0.7698-0.44444 0.32536-1.2142-0.5-0.86602-0.60713-0.16268 0.16268-0.60712-0.60712-0.16268 0.16268-0.60712-0.60712-0.16268 0.32535-1.2142-0.51334-0.88914a2.6667 2.6667 0 0 0 1e-3 -2.6643 2.6667 2.6667 0 0 0-3.6427-0.97607zm0.55556 0.96225a0.66667 0.66667 0 0 1 0.91068 0.24402 0.66667 0.66667 0 0 1-0.24402 0.91068 0.66667 0.66667 0 0 1-0.91068-0.24402 0.66667 0.66667 0 0 1 0.24402-0.91068z" enable-background="new" fill="#808080"/>
  <path d="m334.12 199.47 0.60713 0.16268 2.3333 4.0414-0.60712-0.16268z" fill="#fff" opacity=".5"/>
  <path d="m332.28 194.51a2.4444 2.4444 0 0 0-0.89473 3.3392 2.4444 2.4444 0 0 0 3.3392 0.89473 2.4444 2.4444 0 0 0 0.89473-3.3392 2.4444 2.4444 0 0 0-3.3392-0.89473zm0.44445 0.7698a0.66667 0.66667 0 0 1 0.91068 0.24402 0.66667 0.66667 0 0 1-0.24402 0.91068 0.66667 0.66667 0 0 1-0.91068-0.24402 0.66667 0.66667 0 0 1 0.24402-0.91068z" enable-background="new" fill="#fff" opacity=".5"/>
  <path d="m332 190.5a3 3 0 0 0-3 3 3 3 0 0 0 0.13867 0.89844 2.6667 2.6667 0 0 1 0.44336-0.26563 2.5 2.5 0 0 1-0.082-0.63281 2.5 2.5 0 0 1 2.5-2.5 2.5 2.5 0 0 1 2.5 2.5 2.5 2.5 0 0 1-2.0977 2.4668 0.66667 0.66667 0 0 0 0.0781 0.2207 0.66667 0.66667 0 0 0 0.2168 0.22656 3 3 0 0 0 2.3028-2.9141 3 3 0 0 0-3-3zm-1.4512 5.0312a0.66667 0.66667 0 0 0 0.0898 0.63867 3 3 0 0 0 2e-3 2e-3 3 3 0 0 0 0.22071 0.10156 2.6667 2.6667 0 0 1 0.11328-0.4961 2.5 2.5 0 0 1-0.42578-0.24609z" enable-background="new" fill="#a1a1a1"/>
 </g>
 <path d="m3 12v6.125c-0.0217 4.421 0.45314 4.875 4.8652 4.875h8.2695c4.4121 0 4.8652-0.45393 4.8652-4.875v-6.125z" color="#000000" fill="#fff" opacity=".2"/>
 <path d="m12 1v22h4.1348c4.4121 0 4.8652-0.45393 4.8652-4.875v-6.125-6l-5-5z" color="#000000" fill="#fff" opacity=".2"/>
 <path d="m7.8652 1c-4.4121 0-4.8868 0.45399-4.8652 4.875v6.125 6.125c-0.0217 4.421 0.45314 4.875 4.8652 4.875h8.2695c4.4121 0 4.8652-0.45393 4.8652-4.875v-6.125-6l-5-5zm0 1h8.1348l4 4v6 6.125c0 1.0882-0.0322 1.9099-0.125 2.4629s-0.22434 0.78856-0.36133 0.92578-0.37244 0.26659-0.92383 0.35938c-0.55138 0.0928-1.3692 0.12695-2.4551 0.12695h-8.2695c-1.0859 0-1.9055-0.0341-2.459-0.12695-0.55348-0.0929-0.79182-0.22184-0.92969-0.35938-0.13786-0.13754-0.26769-0.37421-0.35937-0.92578-0.0917-0.55157-0.12253-1.3698-0.11719-2.457v-2e-3 -6.1289-6.1289-2e-3c-5e-3 -1.0873 0.0255-1.9055 0.11719-2.457 0.0917-0.55157 0.22151-0.78824 0.35937-0.92578 0.13787-0.13754 0.37622-0.26647 0.92969-0.35938 0.55347-0.0929 1.3731-0.12695 2.459-0.12695z" color="#000000" color-rendering="auto" dominant-baseline="auto" fill="url(#linearGradient981)" image-rendering="auto" opacity=".4" shape-rendering="auto" solid-color="#000000" style="font-feature-settings:normal;font-variant-alternates:normal;font-variant-caps:normal;font-variant-ligatures:normal;font-variant-numeric:normal;font-variant-position:normal;isolation:auto;mix-blend-mode:normal;shape-padding:0;text-decoration-color:#000000;text-decoration-line:none;text-decoration-style:solid;text-indent:0;text-orientation:mixed;text-transform:none;white-space:normal"/>
 <path d="m21 7v-1l-5-5h-1v2.2958 0.088 0.0472c0 3.1047 0.41561 3.5834 3.5274 3.5682z" color="#000000" opacity=".2"/>
 <path d="m21 5.9993-5-4.9994v1.8545 0.0807 0.0433c0 2.846 0.13116 3.0349 2.9837 3.0209z" color="#000000" fill="#faf8f6"/>
</svg>
