<svg xmlns:dc="http://purl.org/dc/elements/1.1/" xmlns:cc="http://creativecommons.org/ns#" xmlns:rdf="http://www.w3.org/1999/02/22-rdf-syntax-ns#" xmlns:svg="http://www.w3.org/2000/svg" xmlns="http://www.w3.org/2000/svg" xmlns:xlink="http://www.w3.org/1999/xlink" style="display:inline;enable-background:new" version="1.0" id="svg11300" height="25" width="24">
  <title id="title3004">Suru Icon Theme Template</title>
  <defs id="defs3">
    <linearGradient y2="207.36522" x2="35.310345" y1="419.23337" x1="459.03448" gradientTransform="matrix(0,-0.05664062,0.05663901,0,314.2547,214)" gradientUnits="userSpaceOnUse" id="linearGradient916" xlink:href="#linearGradient4338"/>
    <linearGradient id="linearGradient4338">
      <stop id="stop4340" offset="0" style="stop-color:#f2f2f2;stop-opacity:1"/>
      <stop id="stop4342" offset="1" style="stop-color:#f9f9f9;stop-opacity:1"/>
    </linearGradient>
    <linearGradient gradientUnits="userSpaceOnUse" y2="211" x2="332" y1="189" x1="332" id="linearGradient981" xlink:href="#linearGradient927"/>
    <linearGradient id="linearGradient927">
      <stop id="stop923" offset="0" style="stop-color:#ffffff;stop-opacity:1;"/>
      <stop style="stop-color:#ffffff;stop-opacity:0.09803922" offset="0.125" id="stop933"/>
      <stop style="stop-color:#ffffff;stop-opacity:0.09803922" offset="0.92500001" id="stop931"/>
      <stop id="stop925" offset="1" style="stop-color:#ffffff;stop-opacity:0.49803922"/>
    </linearGradient>
    <clipPath id="clipPath971-3" clipPathUnits="userSpaceOnUse">
      <path id="path973-6" d="m 327.8652,189 c -4.41209,0 -4.88682,0.45318 -4.8652,4.87419 V 200 206.12581 C 322.9783,210.54682 323.45311,211 327.8652,211 h 8.2696 C 340.54689,211 341,210.54688 341,206.12581 V 200 193.87419 C 341,189.45313 340.54688,189 336.13479,189 Z" style="color:#000000;display:inline;overflow:visible;visibility:visible;opacity:1;fill:#46a926;fill-opacity:1;fill-rule:nonzero;stroke:none;stroke-width:2;stroke-miterlimit:4;stroke-dasharray:none;stroke-opacity:1;marker:none;enable-background:accumulate"/>
    </clipPath>
  </defs>
  <metadata id="metadata4">
    <rdf:RDF>
      <cc:Work rdf:about="">
        <dc:format>image/svg+xml</dc:format>
        <dc:type rdf:resource="http://purl.org/dc/dcmitype/StillImage"/>
        <dc:creator>
          <cc:Agent>
            <dc:title>Sam Hewitt</dc:title>
          </cc:Agent>
        </dc:creator>
        <dc:source/>
        <cc:license rdf:resource="http://creativecommons.org/licenses/by-sa/4.0/"/>
        <dc:title>Suru Icon Theme Template</dc:title>
        <dc:subject>
          <rdf:Bag/>
        </dc:subject>
        <dc:date/>
        <dc:rights>
          <cc:Agent>
            <dc:title/>
          </cc:Agent>
        </dc:rights>
        <dc:publisher>
          <cc:Agent>
            <dc:title/>
          </cc:Agent>
        </dc:publisher>
        <dc:identifier/>
        <dc:relation/>
        <dc:language/>
        <dc:coverage/>
        <dc:description/>
        <dc:contributor>
          <cc:Agent>
            <dc:title/>
          </cc:Agent>
        </dc:contributor>
      </cc:Work>
      <cc:Work rdf:about="">
        <dc:format>image/svg+xml</dc:format>
        <dc:type rdf:resource="http://purl.org/dc/dcmitype/StillImage"/>
      </cc:Work>
      <cc:License rdf:about="http://creativecommons.org/licenses/by-sa/4.0/">
        <cc:permits rdf:resource="http://creativecommons.org/ns#Reproduction"/>
        <cc:permits rdf:resource="http://creativecommons.org/ns#Distribution"/>
        <cc:requires rdf:resource="http://creativecommons.org/ns#Notice"/>
        <cc:requires rdf:resource="http://creativecommons.org/ns#Attribution"/>
        <cc:permits rdf:resource="http://creativecommons.org/ns#DerivativeWorks"/>
        <cc:requires rdf:resource="http://creativecommons.org/ns#ShareAlike"/>
      </cc:License>
    </rdf:RDF>
  </metadata>
  <g transform="translate(-182.45436,-260.62994)" id="layer1" style="display:inline">
    <g id="layer7" style="display:inline"/>
    <g style="display:inline" id="layer4"/>
    <g style="display:inline;opacity:1" id="layer2"/>
    <g style="display:inline" id="layer6"/>
    <g style="display:inline" id="layer3"/>
    <g style="display:inline" id="layer5">
      <g id="g936" style="display:inline;enable-background:new" transform="translate(-137.54564,72.629943)">
        <rect style="display:inline;overflow:visible;visibility:visible;opacity:0;fill:#cdcdcd;fill-opacity:1;fill-rule:nonzero;stroke:none;stroke-width:2;marker:none;enable-background:accumulate" id="rect24x24" width="24" height="24" x="320" y="188"/>
        <path style="color:#000000;font-style:normal;font-variant:normal;font-weight:normal;font-stretch:normal;font-size:medium;line-height:normal;font-family:sans-serif;font-variant-ligatures:normal;font-variant-position:normal;font-variant-caps:normal;font-variant-numeric:normal;font-variant-alternates:normal;font-feature-settings:normal;text-indent:0;text-align:start;text-decoration:none;text-decoration-line:none;text-decoration-style:solid;text-decoration-color:#000000;letter-spacing:normal;word-spacing:normal;text-transform:none;writing-mode:lr-tb;direction:ltr;text-orientation:mixed;dominant-baseline:auto;baseline-shift:baseline;text-anchor:start;white-space:normal;shape-padding:0;clip-rule:nonzero;display:inline;overflow:visible;visibility:visible;opacity:0.1;isolation:auto;mix-blend-mode:normal;color-interpolation:sRGB;color-interpolation-filters:linearRGB;solid-color:#000000;solid-opacity:1;vector-effect:none;fill:#000000;fill-opacity:1;fill-rule:nonzero;stroke:none;stroke-width:2;stroke-linecap:butt;stroke-linejoin:miter;stroke-miterlimit:4;stroke-dasharray:none;stroke-dashoffset:0;stroke-opacity:1;marker:none;color-rendering:auto;image-rendering:auto;shape-rendering:auto;text-rendering:auto;enable-background:accumulate" d="m 327.86523,189 c -1.12014,0 -2.01524,0.0241 -2.79101,0.1543 -0.77577,0.13022 -1.48014,0.38763 -2.00977,0.91601 -0.52962,0.52838 -0.79079,1.23687 -0.91992,2.01367 -0.12912,0.77681 -0.15002,1.67169 -0.14453,2.79493 V 201 v 6.125 c -0.005,1.12104 0.0156,2.01529 0.14453,2.79102 0.12912,0.77681 0.39029,1.48529 0.91992,2.01367 0.52964,0.52838 1.234,0.78579 2.00977,0.91601 0.77577,0.13022 1.67087,0.1543 2.79101,0.1543 h 8.26954 c 1.12013,0 2.01264,-0.024 2.78711,-0.1543 0.77446,-0.13033 1.48001,-0.38927 2.00781,-0.91797 0.5278,-0.52869 0.78594,-1.23438 0.91601,-2.00976 C 341.97577,209.14258 342,208.24735 342,207.125 V 201 194.875 c 0,-1.12235 -0.0242,-2.01758 -0.1543,-2.79297 -0.13007,-0.77538 -0.38821,-1.48107 -0.91601,-2.00976 -0.5278,-0.5287 -1.23334,-0.78764 -2.00781,-0.91797 C 338.1474,189.02397 337.25491,189 336.13477,189 Z" id="path995"/>
        <path style="color:#000000;display:inline;overflow:visible;visibility:visible;opacity:0.2;fill:none;fill-opacity:1;fill-rule:nonzero;stroke:#000000;stroke-width:2;stroke-miterlimit:4;stroke-dasharray:none;stroke-opacity:1;marker:none;enable-background:accumulate" d="m 327.8652,189 c -4.41209,0 -4.88682,0.45318 -4.8652,4.87419 V 200 206.12581 C 322.9783,210.54682 323.45311,211 327.8652,211 h 8.2696 C 340.54689,211 341,210.54688 341,206.12581 V 200 193.87419 C 341,189.45313 340.54688,189 336.13479,189 Z" id="path926"/>
        <path id="path914" d="m 327.8652,189 c -4.41209,0 -4.88682,0.45318 -4.8652,4.87419 V 200 206.12581 C 322.9783,210.54682 323.45311,211 327.8652,211 h 8.2696 C 340.54689,211 341,210.54688 341,206.12581 V 200 193.87419 C 341,189.45313 340.54688,189 336.13479,189 Z" style="color:#000000;display:inline;overflow:visible;visibility:visible;opacity:1;fill:url(#linearGradient916);fill-opacity:1;fill-rule:nonzero;stroke:none;stroke-width:1;marker:none;enable-background:accumulate"/>
        <path d="m 331.145,194.00355 c -0.15424,0 -0.28278,0.59559 -0.35825,1.4468 a 4.7139072,4.7127512 0 0 0 -1.13912,0.47862 c -0.65805,-0.55136 -1.17207,-0.88418 -1.28143,-0.77484 l -1.2128,1.2125 c -0.10936,0.10929 0.22354,0.62324 0.77505,1.2811 a 4.7139072,4.7127512 0 0 0 -0.47459,1.13885 c -0.85377,0.0754 -1.45132,0.20369 -1.45132,0.35816 v 1.71372 c 0,0.15414 0.59576,0.28272 1.44716,0.35815 a 4.7139072,4.7127512 0 0 0 0.47709,1.14136 c -0.55027,0.6567 -0.88263,1.16939 -0.77339,1.27859 l 1.2128,1.21249 c 0.10915,0.10915 0.6213,-0.22236 1.27725,-0.77149 a 4.7139072,4.7127512 0 0 0 1.1433,0.47109 c 0.0754,0.85359 0.20374,1.45099 0.35825,1.45099 h 1.71415 c 0.15424,0 0.28277,-0.59561 0.35823,-1.44679 a 4.7139072,4.7127512 0 0 0 1.13912,-0.47864 c 0.65805,0.55136 1.17206,0.8842 1.28143,0.77484 l 1.2128,-1.21249 c 0.10935,-0.10929 -0.22355,-0.62324 -0.77507,-1.2811 a 4.7139072,4.7127512 0 0 0 0.4746,-1.13886 c 0.8538,-0.0754 1.45133,-0.20368 1.45133,-0.35814 v -1.71372 c 0,-0.15415 -0.59574,-0.28271 -1.44715,-0.35816 a 4.7139072,4.7127512 0 0 0 -0.4771,-1.14136 c 0.55025,-0.65669 0.88262,-1.16939 0.77339,-1.27859 l -1.2128,-1.2125 c -0.10915,-0.10914 -0.6213,0.22237 -1.27724,0.77152 a 4.7139072,4.7127512 0 0 0 -1.14331,-0.47112 c -0.0754,-0.85358 -0.20373,-1.45098 -0.35823,-1.45098 z m 0.85707,3.85589 a 2.1426851,2.1421596 0 0 1 2.14268,2.14217 2.1426851,2.1421596 0 0 1 -2.14268,2.14214 2.1426851,2.1421596 0 0 1 -2.14269,-2.14214 2.1426851,2.1421596 0 0 1 2.14269,-2.14217 z" style="display:inline;opacity:0.5;fill:#808080;stroke-width:0.45345107;enable-background:new" id="path31-3-5-6"/>
        <path style="color:#000000;display:inline;overflow:visible;visibility:visible;opacity:0.1;fill:#ffffff;fill-opacity:1;fill-rule:nonzero;stroke:none;stroke-width:1;marker:none;enable-background:accumulate" d="m 323,200 v 6.125 c -0.0217,4.42101 0.45314,4.875 4.86523,4.875 h 8.26954 C 340.54686,211 341,210.54607 341,206.125 V 200 Z" id="path1007"/>
        <path style="color:#000000;display:inline;overflow:visible;visibility:visible;opacity:0.1;fill:#ffffff;fill-opacity:1;fill-rule:nonzero;stroke:none;stroke-width:1;marker:none;enable-background:accumulate" d="m 332,189 v 22 h 4.13477 C 340.54686,211 341,210.54607 341,206.125 V 200 193.875 C 341,189.45394 340.54686,189 336.13477,189 Z" id="path1014"/>
        <path id="path935" d="m 327.8652,189 c -4.41209,0 -4.88682,0.45318 -4.8652,4.87419 V 200 206.12581 C 322.9783,210.54682 323.45311,211 327.8652,211 h 8.2696 C 340.54689,211 341,210.54688 341,206.12581 V 200 193.87419 C 341,189.45313 340.54688,189 336.13479,189 Z" style="color:#000000;display:inline;overflow:visible;visibility:visible;opacity:0.4;fill:none;fill-opacity:1;fill-rule:nonzero;stroke:url(#linearGradient981);stroke-width:2;stroke-miterlimit:4;stroke-dasharray:none;stroke-opacity:1;marker:none;enable-background:accumulate" clip-path="url(#clipPath971-3)"/>
      </g>
    </g>
  </g>
</svg>