<svg width="24" height="24" version="1.1" xmlns="http://www.w3.org/2000/svg" xmlns:xlink="http://www.w3.org/1999/xlink">
 <defs>
  <linearGradient id="linearGradient916" x1="459.03" x2="35.31" y1="419.23" y2="207.37" gradientTransform="matrix(0 -.056641 .056639 0 -5.7453 26)" gradientUnits="userSpaceOnUse">
   <stop stop-color="#f2f2f2" offset="0"/>
   <stop stop-color="#f9f9f9" offset="1"/>
  </linearGradient>
  <clipPath id="clipPath1248-2-7-9-1">
   <path d="m152.41 67.379c-15.669 58.458-58.458 92.982-58.458 125.27 0 32.287 26.171 58.458 58.458 58.458s58.458-26.171 58.458-58.458c0-32.287-42.789-66.811-58.458-125.27" clip-rule="evenodd" fill="#fff" fill-rule="evenodd" stroke-linejoin="round" stroke-miterlimit="2" stroke-width="6.2851"/>
  </clipPath>
  <filter id="filter2119-8-8" color-interpolation-filters="sRGB">
   <feBlend in2="BackgroundImage" mode="multiply"/>
  </filter>
  <linearGradient id="linearGradient981" x1="332" x2="332" y1="189" y2="211" gradientUnits="userSpaceOnUse">
   <stop stop-color="#fff" offset="0"/>
   <stop stop-color="#fff" stop-opacity=".098039" offset=".125"/>
   <stop stop-color="#fff" stop-opacity=".098039" offset=".925"/>
   <stop stop-color="#fff" stop-opacity=".49804" offset="1"/>
  </linearGradient>
  <clipPath id="clipPath971">
   <path d="m327.87 189c-4.4121 0-4.8868 0.45318-4.8652 4.8742v6.1258 6.1258c-0.0217 4.421 0.45311 4.8742 4.8652 4.8742h8.2696c4.4121 0 4.8652-0.45312 4.8652-4.8742v-6.1258-6.1258c0-4.4211-0.45312-4.8742-4.8652-4.8742z" color="#000000" fill="#46a926"/>
  </clipPath>
 </defs>
 <path d="m7.8652 1c-1.1201 0-2.0152 0.0241-2.791 0.1543-0.77577 0.13022-1.4801 0.38763-2.0098 0.91601-0.52962 0.52838-0.79079 1.2369-0.91992 2.0137-0.12912 0.77681-0.15002 1.6717-0.14453 2.7949v6.1211 6.125c-5e-3 1.121 0.0156 2.0153 0.14453 2.791 0.12912 0.77681 0.39029 1.4853 0.91992 2.0137 0.52964 0.52838 1.234 0.78579 2.0098 0.91601s1.6709 0.1543 2.791 0.1543h8.2695c1.1201 0 2.0126-0.024 2.7871-0.1543 0.77446-0.13033 1.48-0.38927 2.0078-0.91797 0.5278-0.52869 0.78594-1.2344 0.91601-2.0098 0.13007-0.77539 0.1543-1.6706 0.1543-2.793v-6.125-6.125c0-1.1224-0.0242-2.0176-0.1543-2.793-0.13007-0.77538-0.38821-1.4811-0.91601-2.0098-0.5278-0.5287-1.2333-0.78764-2.0078-0.91797-0.77448-0.13033-1.667-0.1543-2.7871-0.1543z" color="#000000" color-rendering="auto" dominant-baseline="auto" image-rendering="auto" opacity=".1" shape-rendering="auto" solid-color="#000000" style="font-feature-settings:normal;font-variant-alternates:normal;font-variant-caps:normal;font-variant-ligatures:normal;font-variant-numeric:normal;font-variant-position:normal;isolation:auto;mix-blend-mode:normal;shape-padding:0;text-decoration-color:#000000;text-decoration-line:none;text-decoration-style:solid;text-indent:0;text-orientation:mixed;text-transform:none;white-space:normal"/>
 <path d="m7.8652 1c-4.4121 0-4.8868 0.45318-4.8652 4.8742v6.1258 6.1258c-0.0217 4.421 0.45311 4.8742 4.8652 4.8742h8.2696c4.4121 0 4.8652-0.45312 4.8652-4.8742v-6.1258-6.1258c0-4.4211-0.45312-4.8742-4.8652-4.8742z" color="#000000" fill="none" opacity=".2" stroke="#000" stroke-width="2"/>
 <path d="m7.8652 1c-4.4121 0-4.8868 0.45318-4.8652 4.8742v6.1258 6.1258c-0.0217 4.421 0.45311 4.8742 4.8652 4.8742h8.2696c4.4121 0 4.8652-0.45312 4.8652-4.8742v-6.1258-6.1258c0-4.4211-0.45312-4.8742-4.8652-4.8742z" color="#000000" fill="url(#linearGradient916)"/>
 <g transform="matrix(.077047 0 0 .077047 .25661 -.37695)" clip-path="url(#clipPath1248-2-7-9-1)" enable-background="new" filter="url(#filter2119-8-8)">
  <g transform="matrix(.5 0 0 .5 -80.051 141.95)" enable-background="new">
   <path d="m622.25-130.25c-1.5905 1.5905 65.752 158.25 65.752 158.25l-65.752 158.25s-158.25-83.649-158.25-158.25c0-74.599 158.25-158.25 158.25-158.25z" fill="#46a926"/>
   <path d="m305.75 186.25c1.5904-1.5905-65.752-158.25-65.752-158.25l65.752-158.25s158.25 83.649 158.25 158.25c0 74.599-158.25 158.25-158.25 158.25z" fill="#f22c42"/>
   <path d="m622.25-130.25c-1.5904 1.5905-158.25-65.752-158.25-65.752l-158.25 65.752 158.25 158.25z" fill="#fdc92b"/>
   <path d="m305.75 186.25 158.25 65.548s156.66-67.139 158.25-65.548l-158.25-158.25z" fill="#2f5fdd"/>
   <path transform="matrix(2 0 0 2 212.97 -228.76)" d="m226.92 27.084c-0.15724-0.11014-0.27772-0.25333-0.4375-0.36133-1.756-1.1869-3.6663-2.2442-5.7441-3.1855-2.0778-0.94133-4.3231-1.7672-6.748-2.4883-2.425-0.72113-5.0307-1.339-7.8281-1.8652-2.7974-0.52625-5.7872-0.96166-8.9824-1.3184-3.1952-0.3567-6.5946-0.63323-10.213-0.8457-7.2366-0.42495-15.345-0.58789-24.426-0.58789h-37.018c-0.013 28.62 10.943 57.245 32.873 79.176z" fill="#a6d74f"/>
   <path transform="matrix(2 0 0 2 212.97 -228.76)" d="m245.57 128.1v-28.727c0-9.0726-0.1621-17.173-0.58789-24.402-0.2129-3.6147-0.49227-7.0112-0.84961-10.203s-0.79319-6.1783-1.3203-8.9727c-0.52713-2.7944-1.145-5.3961-1.8672-7.8184s-1.5495-4.6648-2.4922-6.7402-2.001-3.9844-3.1894-5.7383c-1.1885-1.7539-2.5072-3.3528-3.9668-4.8105-1.3268-1.3251-2.8081-2.4993-4.3789-3.5996l-68.523 68.523c23.976 23.976 55.95 34.741 87.176 32.488z" fill="#76c22b"/>
   <path transform="matrix(2 0 0 2 212.97 -228.76)" d="m125.42 240.43h37.119c9.0811 0 17.189-0.16098 24.426-0.58594 3.6183-0.21247 7.0177-0.49095 10.213-0.84765 3.1952-0.35671 6.185-0.7921 8.9824-1.3184 2.7974-0.52626 5.4032-1.1441 7.8281-1.8652 2.4249-0.72113 4.6702-1.545 6.748-2.4863 2.0778-0.94134 3.9881-2.0006 5.7441-3.1875 0.1391-0.094 0.24368-0.2188 0.38086-0.31445l-68.568-68.568c-21.93 21.93-32.886 50.554-32.873 79.174z" fill="#1463a5"/>
   <path transform="matrix(2 0 0 2 212.97 -228.76)" d="m226.86 229.83c1.5944-1.1118 3.0916-2.3023 4.4355-3.6445 1.4596-1.4577 2.7783-3.0586 3.9668-4.8125 1.1885-1.7539 2.2468-3.6609 3.1894-5.7363s1.77-4.318 2.4922-6.7402c0.72224-2.4222 1.3401-5.024 1.8672-7.8184 0.52712-2.7944 0.96297-5.7827 1.3203-8.9746 0.35734-3.1919 0.63671-6.5884 0.84961-10.203 0.42579-7.2294 0.58789-15.33 0.58789-24.402v-28.723c-31.258-2.2832-63.275 8.4841-87.277 32.486z" fill="#2b898f"/>
   <path transform="matrix(2 0 0 2 212.97 -228.76)" d="m5.5684 128.67v28.828c0 9.0726 0.1621 17.173 0.58789 24.402 0.2129 3.6147 0.49227 7.0112 0.84961 10.203 0.35734 3.1919 0.79319 6.1802 1.3203 8.9746s1.1449 5.3961 1.8672 7.8184c0.72224 2.4222 1.5475 4.6648 2.4902 6.7402 0.94269 2.0754 2.0029 3.9824 3.1914 5.7363s2.5053 3.3548 3.9648 4.8125c1.3099 1.3082 2.7766 2.4637 4.3242 3.5527l68.578-68.578c-23.976-23.976-55.948-34.743-87.174-32.49z" fill="#9b33ae"/>
   <path transform="matrix(2 0 0 2 212.97 -228.76)" d="m24.164 229.73c0.17689 0.12447 0.31401 0.2845 0.49414 0.40624 1.756 1.1869 3.6663 2.2462 5.7441 3.1875 2.0778 0.94135 4.3231 1.7652 6.748 2.4863 2.4249 0.72114 5.0288 1.339 7.8262 1.8652 2.7974 0.52626 5.7872 0.96165 8.9824 1.3184 3.1952 0.3567 6.5965 0.63518 10.215 0.84765 7.2366 0.42496 15.345 0.58594 24.426 0.58594h37.012c0.039-28.654-10.913-57.319-32.869-79.275z" fill="#7839b7"/>
   <path transform="matrix(2 0 0 2 212.97 -228.76)" d="m125.72 16.432h-37.119c-9.0811 0-17.189 0.16294-24.426 0.58789-3.6183 0.21247-7.0197 0.489-10.215 0.8457-3.1952 0.3567-6.185 0.79211-8.9824 1.3184-2.7974 0.52625-5.4012 1.1441-7.8262 1.8652-2.4249 0.72113-4.6702 1.5469-6.748 2.4883-2.0778 0.94134-3.9881 1.9987-5.7441 3.1855-0.13947 0.09427-0.24528 0.21855-0.38281 0.31445l68.568 68.57c21.93-21.93 32.888-50.556 32.875-79.176z" fill="#fdc92b"/>
   <path transform="matrix(2 0 0 2 212.97 -228.76)" d="m24.275 27.037c-1.594 1.1116-3.0919 2.3045-4.4355 3.6465-1.4596 1.4577-2.7764 3.0566-3.9648 4.8105-1.1885 1.7539-2.2487 3.6629-3.1914 5.7383-0.94269 2.0754-1.768 4.318-2.4902 6.7402-0.72224 2.4222-1.3401 5.024-1.8672 7.8184s-0.96297 5.7808-1.3203 8.9727-0.63671 6.5884-0.84961 10.203c-0.42579 7.2294-0.58789 15.33-0.58789 24.402v28.723c31.258 2.2832 63.273-8.4822 87.275-32.484z" fill="#f34f17"/>
  </g>
 </g>
 <path d="m3 12v6.125c-0.0217 4.421 0.45314 4.875 4.8652 4.875h8.2695c4.4121 0 4.8652-0.45393 4.8652-4.875v-6.125z" color="#000000" fill="#fff" opacity=".2"/>
 <path d="m12 1v22h4.1348c4.4121 0 4.8652-0.45393 4.8652-4.875v-6.125-6.125c0-4.4211-0.45314-4.875-4.8652-4.875z" color="#000000" fill="#fff" opacity=".2"/>
 <path transform="translate(-320,-188)" d="m327.87 189c-4.4121 0-4.8868 0.45318-4.8652 4.8742v6.1258 6.1258c-0.0217 4.421 0.45311 4.8742 4.8652 4.8742h8.2696c4.4121 0 4.8652-0.45312 4.8652-4.8742v-6.1258-6.1258c0-4.4211-0.45312-4.8742-4.8652-4.8742z" clip-path="url(#clipPath971)" color="#000000" fill="none" opacity=".4" stroke="url(#linearGradient981)" stroke-width="2"/>
</svg>
