<svg width="24" height="25" enable-background="new" version="1.0" xmlns="http://www.w3.org/2000/svg" xmlns:xlink="http://www.w3.org/1999/xlink">
 <text x="150.79343" y="-138.93248" fill="#000000" font-family="ubuntu" font-size="48px" letter-spacing="0px" word-spacing="0px" style="line-height:1.25" xml:space="preserve"/>
 <flowRoot transform="translate(-175.14 -216.79)" fill="#000000" font-family="ubuntu" font-size="47.2px" letter-spacing="0px" word-spacing="0px" style="line-height:1.25" xml:space="preserve"><flowRegion font-size="47.2px"><rect x="64.216" y="207.6" width="175.47" height="45.362"/></flowRegion><flowPara/></flowRoot>
 <title>Suru Icon Theme Template</title>
 <defs>
  <linearGradient id="linearGradient916" x1="459.03" x2="35.31" y1="419.23" y2="207.37" gradientTransform="matrix(0 -.056641 .056639 0 -5.7453 26)" gradientUnits="userSpaceOnUse">
   <stop stop-color="#f2f2f2" offset="0"/>
   <stop stop-color="#f9f9f9" offset="1"/>
  </linearGradient>
  <linearGradient id="linearGradient981" x1="332" x2="332" y1="189" y2="211" gradientUnits="userSpaceOnUse">
   <stop stop-color="#fff" offset="0"/>
   <stop stop-color="#fff" stop-opacity=".098039" offset=".125"/>
   <stop stop-color="#fff" stop-opacity=".098039" offset=".925"/>
   <stop stop-color="#fff" stop-opacity=".49804" offset="1"/>
  </linearGradient>
  <clipPath id="clipPath971-3">
   <path d="m327.87 189c-4.4121 0-4.8868 0.45318-4.8652 4.8742v6.1258 6.1258c-0.0217 4.421 0.45311 4.8742 4.8652 4.8742h8.2696c4.4121 0 4.8652-0.45312 4.8652-4.8742v-6.1258-6.1258c0-4.4211-0.45312-4.8742-4.8652-4.8742z" color="#000000" enable-background="accumulate" fill="#46a926"/>
  </clipPath>
 </defs>
 <path d="m7.8652 1c-1.1201 0-2.0152 0.0241-2.791 0.1543-0.77577 0.13022-1.4801 0.38763-2.0098 0.91601-0.52962 0.52838-0.79079 1.2369-0.91992 2.0137-0.12912 0.77681-0.15002 1.6717-0.14453 2.7949v6.1211 6.125c-5e-3 1.121 0.0156 2.0153 0.14453 2.791 0.12912 0.77681 0.39029 1.4853 0.91992 2.0137 0.52964 0.52838 1.234 0.78579 2.0098 0.91601s1.6709 0.1543 2.791 0.1543h8.2695c1.1201 0 2.0126-0.024 2.7871-0.1543 0.77446-0.13033 1.48-0.38927 2.0078-0.91797 0.5278-0.52869 0.78594-1.2344 0.91601-2.0098 0.13007-0.77539 0.1543-1.6706 0.1543-2.793v-6.125-6.125c0-1.1224-0.0242-2.0176-0.1543-2.793-0.13007-0.77538-0.38821-1.4811-0.91601-2.0098-0.5278-0.5287-1.2333-0.78764-2.0078-0.91797-0.77448-0.13033-1.667-0.1543-2.7871-0.1543z" color="#000000" color-rendering="auto" dominant-baseline="auto" enable-background="accumulate" image-rendering="auto" opacity=".1" shape-rendering="auto" solid-color="#000000" style="font-feature-settings:normal;font-variant-alternates:normal;font-variant-caps:normal;font-variant-ligatures:normal;font-variant-numeric:normal;font-variant-position:normal;isolation:auto;mix-blend-mode:normal;shape-padding:0;text-decoration-color:#000000;text-decoration-line:none;text-decoration-style:solid;text-indent:0;text-orientation:mixed;text-transform:none;white-space:normal"/>
 <path d="M 7.8652,1 C 3.45311,1 2.97838,1.45318 3,5.87419 V 12 18.12581 C 2.9783,22.54682 3.45311,23 7.8652,23 h 8.2696 C 20.54689,23 21,22.54688 21,18.12581 V 12 5.87419 C 21,1.45313 20.54688,1 16.13479,1 Z" color="#000000" enable-background="accumulate" fill="none" opacity=".2" stroke="#000" stroke-width="2"/>
 <path d="M 7.8652,1 C 3.45311,1 2.97838,1.45318 3,5.87419 V 12 18.12581 C 2.9783,22.54682 3.45311,23 7.8652,23 h 8.2696 C 20.54689,23 21,22.54688 21,18.12581 V 12 5.87419 C 21,1.45313 20.54688,1 16.13479,1 Z" color="#000000" enable-background="accumulate" fill="url(#linearGradient916)"/>
 <path d="m16.412 2.9597c-0.11528-8e-3 -0.25052 2e-3 -0.41015 0.0156l-6.209 1.125c-0.81332 0.0828-0.90176 0.46246-0.89453 0.93554v8.5195c-0.41338-0.27155-0.85577-0.46484-1.4453-0.46484-0.75911 0-1.2123 0.29098-1.4863 0.67383-0.27403 0.38285-0.36524 0.86524-0.36524 1.2383 0 0.44983 0.15511 0.92907 0.48829 1.2949s0.84551 0.62304 1.582 0.62305c0.83169 0 1.4154-0.23199 1.7461-0.68555 0.26039-0.35711 0.40565-0.83534 0.45703-1.4238 7e-3 -0.0714 0.0111-0.14515 0.0156-0.2207 4e-3 -0.0599 3e-3 -0.1018 4e-3 -0.17187h4e-3v-6.7031c0.0221-0.61938 0.58398-0.71094 0.58398-0.71094l4.8535-0.91406c0.56193-0.17179 0.5625 0.52343 0.5625 0.52343v5.9414c-0.41338-0.27156-0.85577-0.46484-1.4453-0.46485-0.75911 0-1.2123 0.29098-1.4863 0.67383-0.27403 0.38285-0.36524 0.86525-0.36524 1.2383 0 0.44983 0.15511 0.92907 0.48829 1.2949 0.33318 0.36585 0.84551 0.62303 1.582 0.62304 0.83169 0 1.4154-0.23198 1.7461-0.68554 0.26039-0.35711 0.40565-0.83535 0.45703-1.4238 7e-3 -0.0714 0.0111-0.14515 0.0156-0.22071 4e-3 -0.0599 3e-3 -0.1018 4e-3 -0.17187h4e-3v-9.5684c0.0119-0.68564-0.14049-0.86619-0.48633-0.89062z" color="#000000" color-rendering="auto" dominant-baseline="auto" enable-background="accumulate" fill="#ec3c50" fill-rule="evenodd" image-rendering="auto" opacity=".8" shape-rendering="auto" solid-color="#000000" style="font-feature-settings:normal;font-variant-alternates:normal;font-variant-caps:normal;font-variant-ligatures:normal;font-variant-numeric:normal;font-variant-position:normal;isolation:auto;mix-blend-mode:normal;shape-padding:0;text-decoration-color:#000000;text-decoration-line:none;text-decoration-style:solid;text-indent:0;text-orientation:mixed;text-transform:none;white-space:normal"/>
 <path d="m3 12v6.125c-0.0217 4.421 0.45314 4.875 4.8652 4.875h8.2695c4.4121 0 4.8652-0.45393 4.8652-4.875v-6.125z" color="#000000" enable-background="accumulate" fill="#fff" opacity=".2"/>
 <path d="m12 1v22h4.1348c4.4121 0 4.8652-0.45393 4.8652-4.875v-6.125-6.125c0-4.4211-0.45314-4.875-4.8652-4.875z" color="#000000" enable-background="accumulate" fill="#fff" opacity=".2"/>
 <path d="m10.188 19.52q0 0.35156-0.10207 0.63507t-0.28919 0.48765q-0.18144 0.20412-0.4366 0.31752-0.25516 0.10774-0.55569 0.10774-0.30052 0-0.55568-0.10774-0.25517-0.1134-0.44228-0.31752-0.18145-0.20414-0.28352-0.48765-0.10206-0.28351-0.10206-0.63507 0-0.34588 0.10206-0.62939 0.10207-0.28919 0.28352-0.49332 0.18711-0.20412 0.44228-0.31186 0.25516-0.1134 0.55568-0.1134 0.30053 0 0.55569 0.1134 0.25516 0.10774 0.4366 0.31186 0.18712 0.20413 0.28919 0.49332 0.10207 0.28351 0.10207 0.62939zm-0.55002 0q0-0.49898-0.22681-0.78816-0.22114-0.29486-0.60672-0.29486t-0.61239 0.29486q-0.22114 0.28918-0.22114 0.78816 0 0.49899 0.22114 0.79384 0.22681 0.28918 0.61239 0.28918t0.60672-0.28918q0.22681-0.29485 0.22681-0.79384z" enable-background="new" fill="#888"/>
 <path d="m12.779 20.699q-0.0681 0.0454-0.2665 0.11908-0.19279 0.0681-0.45362 0.0681-0.2665 0-0.50465-0.085-0.23248-0.0851-0.40826-0.26083-0.17578-0.18146-0.27785-0.44795-0.10206-0.26651-0.10206-0.63507 0-0.3232 0.0964-0.58971 0.0964-0.27217 0.27783-0.46496 0.18712-0.19846 0.45363-0.30619 0.2665-0.11341 0.60105-0.11341 0.36856 0 0.64073 0.0567 0.27785 0.051 0.46497 0.0964v2.631q0 0.68043-0.35156 0.98663-0.35156 0.30619-1.066 0.30619-0.27784 0-0.52733-0.0453-0.24382-0.0453-0.42527-0.10773l0.0964-0.45929q0.15876 0.0624 0.38557 0.10773 0.23248 0.0511 0.48197 0.0511 0.47063 0 0.67476-0.18712 0.2098-0.18711 0.2098-0.59537zm-6e-3 -2.1887q-0.0794-0.0227-0.21547-0.0397-0.13041-0.0227-0.35723-0.0227-0.42527 0-0.65774 0.27784-0.22682 0.27785-0.22682 0.73713 0 0.25517 0.0624 0.43662 0.0681 0.18144 0.17578 0.30052 0.1134 0.11907 0.25516 0.17578 0.14743 0.0567 0.30052 0.0567 0.2098 0 0.38558-0.0567 0.17577-0.0624 0.27784-0.14176z" enable-background="new" fill="#888"/>
 <path d="m16.057 20.699q-0.0681 0.0454-0.26651 0.11908-0.19278 0.0681-0.45362 0.0681-0.2665 0-0.50465-0.085-0.23248-0.0851-0.40826-0.26083-0.17578-0.18146-0.27785-0.44795-0.10205-0.26651-0.10205-0.63507 0-0.3232 0.0964-0.58971 0.0964-0.27217 0.27784-0.46496 0.18712-0.19846 0.45362-0.30619 0.2665-0.11341 0.60105-0.11341 0.36856 0 0.64073 0.0567 0.27785 0.051 0.46497 0.0964v2.631q0 0.68043-0.35156 0.98663-0.35156 0.30619-1.066 0.30619-0.27785 0-0.52734-0.0453-0.24382-0.0453-0.42527-0.10773l0.0964-0.45929q0.15876 0.0624 0.38558 0.10773 0.23247 0.0511 0.48197 0.0511 0.47062 0 0.67475-0.18712 0.20981-0.18711 0.20981-0.59537zm-6e-3 -2.1887q-0.0794-0.0227-0.21547-0.0397-0.13042-0.0227-0.35723-0.0227-0.42527 0-0.65774 0.27784-0.22682 0.27785-0.22682 0.73713 0 0.25517 0.0624 0.43662 0.0681 0.18144 0.17578 0.30052 0.1134 0.11907 0.25516 0.17578 0.14743 0.0567 0.30052 0.0567 0.2098 0 0.38557-0.0567 0.17578-0.0624 0.27785-0.14176z" enable-background="new" fill="#888"/>
 <path transform="translate(-320,-188)" d="m327.87 189c-4.4121 0-4.8868 0.45318-4.8652 4.8742v6.1258 6.1258c-0.0217 4.421 0.45311 4.8742 4.8652 4.8742h8.2696c4.4121 0 4.8652-0.45312 4.8652-4.8742v-6.1258-6.1258c0-4.4211-0.45312-4.8742-4.8652-4.8742z" clip-path="url(#clipPath971-3)" color="#000000" enable-background="accumulate" fill="none" opacity=".4" stroke="url(#linearGradient981)" stroke-width="2"/>
</svg>
