<svg width="18" height="18" version="1.1" xmlns="http://www.w3.org/2000/svg">
 <g transform="translate(.99915 .99882)" fill="#666">
  <path d="m13.909 1.307-3.304 3.307c0.732 0.273 1.5 0.527 2.306 0.764 0.8 0.231 1.592 0.436 2.375 0.612a48.514 48.514 0 0 0-0.621-2.366 40.298 40.298 0 0 0-0.756-2.316z" overflow="visible"/>
  <path d="m12.756 11.656-0.072 0.084 0.75 0.66 0.091-0.103 0.04-0.05 0.48-0.72-0.832-0.554zm-1.11 1.108-0.34 0.226 0.555 0.832 0.368-0.244 0.05-0.039 0.422-0.37-0.658-0.751zm-1.353 0.779-0.676 0.23 0.322 0.948 0.717-0.246 0.06-0.024 0.218-0.11-0.442-0.896zm-2.326 0.459 0.066 0.996 0.801-0.053-0.066-0.998z" font-family="sans-serif" font-weight="400" overflow="visible"/>
  <path d="m8 6a2 2 0 0 1 2 2 2 2 0 0 1-2 2 2 2 0 0 1-2-2 2 2 0 0 1 2-2zm0 1a1 1 0 0 0-1 1 1 1 0 0 0 1 1 1 1 0 0 0 1-1 1 1 0 0 0-1-1z"/>
  <path d="m7.574 1.014a6.981 6.981 0 0 0-2.347 0.558 7.005 7.005 0 0 0-4.082 7.844 7.005 7.005 0 0 0 6.855 5.584h0.5v-1h-0.5a5.996 5.996 0 0 1-5.877-4.787 5.995 5.995 0 0 1 3.5-6.723 5.995 5.995 0 0 1 7.291 2.069l0.287 0.41 0.82-0.574-0.287-0.41a7.006 7.006 0 0 0-6.16-2.971z" font-family="sans-serif" font-weight="400" overflow="visible"/>
 </g>
</svg>
