<svg width="16" height="16" version="1.1" xmlns="http://www.w3.org/2000/svg">
 <path d="m5.9141 0c-0.74645 0.0091866-1.3953-0.048054-2.0176 0.30664-0.3379 0.19237-0.59299 0.50904-0.73047 0.88672-0.13085 0.35823-0.16602 0.74224-0.16602 1.1816v11.25c0 0.4394 0.035167 0.82341 0.16602 1.1816 0.13723 0.37699 0.39076 0.69528 0.73047 0.88867 0.62233 0.35416 1.2715 0.29551 2.0176 0.30469h5.1719c0.74695-0.009206 1.3935 0.049344 2.0156-0.30469l0.003907-0.001953 0.001953-0.001953c0.34077-0.19943 0.59628-0.51716 0.72656-0.89062 2.4e-4 -6.61e-4 0.001715-0.001292 0.001954-0.001953 0.12838-0.35528 0.16406-0.73664 0.16406-1.1738v-11.25c0-0.43871-0.036535-0.8214-0.16602-1.1777-0.13102-0.37206-0.38675-0.68782-0.72656-0.88672l-0.001953-0.0019531-0.003907-0.0019531c-0.62118-0.35351-1.2678-0.29745-2.0156-0.30664h-5.1719zm0.0058594 1h5.1602c0.76856 0.0094051 1.2333 0.011985 1.5234 0.17578 0.1307 0.077265 0.23555 0.20074 0.28906 0.35352v0.0039062l0.001953 0.0019531c0.069469 0.19019 0.10547 0.45873 0.10547 0.83984v11.25c0 0.38111-0.036 0.64965-0.10547 0.83984l-0.003906 0.007812c-0.053091 0.15301-0.1564 0.27624-0.28711 0.35352-0.28923 0.16328-0.75406 0.1644-1.5234 0.17383h-5.1602c-0.77219-0.009461-1.2381-0.009238-1.5273-0.17383-0.1148-0.065357-0.22436-0.18894-0.28711-0.36133-0.069134-0.18927-0.10547-0.458-0.10547-0.83984v-11.25c0-0.38185 0.036335-0.65057 0.10547-0.83984 0.062501-0.1717 0.17051-0.29299 0.28711-0.35938 0.2911-0.16593 0.75557-0.16632 1.5273-0.17578z" color="#000000" color-rendering="auto" dominant-baseline="auto" fill="#dfdfdf" image-rendering="auto" shape-rendering="auto" solid-color="#000000" stop-color="#000000" style="font-feature-settings:normal;font-variant-alternates:normal;font-variant-caps:normal;font-variant-east-asian:normal;font-variant-ligatures:normal;font-variant-numeric:normal;font-variant-position:normal;font-variation-settings:normal;inline-size:0;isolation:auto;mix-blend-mode:normal;shape-margin:0;shape-padding:0;text-decoration-color:#000000;text-decoration-line:none;text-decoration-style:solid;text-indent:0;text-orientation:mixed;text-transform:none;white-space:normal"/>
 <path d="m8.0723 1.293v5.6133l-2.4277-2.0391-0.64453 0.76562 2.8184 2.3672-2.8184 2.3672 0.64453 0.76562 2.4277-2.0391v5.6133l4.2402-4.2383-2.9395-2.4688 2.9395-2.4688zm0.92773 2.4141 1.7598 1.7598-1.7598 1.4805zm0 5.3457 1.7598 1.4805-1.7598 1.7598z" color="#000000" fill="#dfdfdf" style="isolation:auto;mix-blend-mode:normal;shape-padding:0;text-decoration-color:#000000;text-decoration-line:none;text-decoration-style:solid;text-indent:0;text-transform:none;white-space:normal"/>
</svg>
