<svg width="16" height="16" version="1.1" xmlns="http://www.w3.org/2000/svg">
 <path d="M 9,8.5 A 1.5,1.5 0 0 1 7.5,10 1.5,1.5 0 0 1 6,8.5 1.5,1.5 0 0 1 7.5,7 1.5,1.5 0 0 1 9,8.5 Z" fill="#dfdfdf" stroke-width=".75"/>
 <path d="M 5,8.5 A 1.5,1.5 0 0 1 3.5,10 1.5,1.5 0 0 1 2,8.5 1.5,1.5 0 0 1 3.5,7 1.5,1.5 0 0 1 5,8.5 Z" fill="#dfdfdf" stroke-width=".75"/>
 <path d="m13 8.5a1.5 1.5 0 0 1-1.5 1.5 1.5 1.5 0 0 1-1.5-1.5 1.5 1.5 0 0 1 1.5-1.5 1.5 1.5 0 0 1 1.5 1.5z" fill="#dfdfdf" stroke-width=".75"/>
</svg>
