<?xml version="1.0" encoding="UTF-8" standalone="no"?>
<svg
   viewBox="0 0 16 16"
   version="1.1"
   id="svg8"
   sodipodi:docname="screen-shared-symbolic.svg"
   inkscape:version="1.1.2 (0a00cf5339, 2022-02-04)"
   xmlns:inkscape="http://www.inkscape.org/namespaces/inkscape"
   xmlns:sodipodi="http://sodipodi.sourceforge.net/DTD/sodipodi-0.dtd"
   xmlns="http://www.w3.org/2000/svg"
   xmlns:svg="http://www.w3.org/2000/svg">
  <defs
     id="defs12" />
  <sodipodi:namedview
     id="namedview10"
     pagecolor="#ffffff"
     bordercolor="#666666"
     borderopacity="1.0"
     inkscape:pageshadow="2"
     inkscape:pageopacity="0.0"
     inkscape:pagecheckerboard="0"
     showgrid="false"
     inkscape:zoom="43.398679"
     inkscape:cx="6.1753032"
     inkscape:cy="7.7767345"
     inkscape:window-width="1920"
     inkscape:window-height="1012"
     inkscape:window-x="0"
     inkscape:window-y="0"
     inkscape:window-maximized="1"
     inkscape:current-layer="svg8" />
  <path
     id="path2"
     style="font-variant-ligatures:normal;font-variant-position:normal;font-variant-caps:normal;font-variant-numeric:normal;font-variant-alternates:normal;font-feature-settings:normal;text-indent:0;text-decoration-line:none;text-decoration-style:solid;text-decoration-color:#000000;text-transform:none;text-orientation:mixed;shape-padding:0;isolation:auto;mix-blend-mode:normal;fill:#dfdfdf"
     d="M 3.9941406,1 C 2.7361406,1.015 1.8145,0.96976562 1.0625,1.3847656 0.67314739,1.6069147 0.37598639,1.9608757 0.22460938,2.3828125 0.05960938,2.8218125 0,3.343 0,4 v 6 c 0,0.658 0.05960938,1.179188 0.22460938,1.617188 0.164,0.439 0.46089062,0.790046 0.83789062,0.998046 C 1.8145,13.031234 2.7361406,12.985 3.9941406,13 H 6 v 0.5 C 6,15 5.5,15 4.5,15 H 4 v 1 h 8 V 15 H 11.5 C 10.5,15 10,15 10,13.5 V 13 h 2.005859 c 1.258,-0.014 2.178641,0.03023 2.931641,-0.384766 0.389353,-0.222149 0.686514,-0.576109 0.837891,-0.998046 C 15.939391,11.179187 16,10.657 16,10 V 4 C 16,3.342 15.940391,2.8218125 15.775391,2.3828125 15.624014,1.9608756 15.326853,1.6069146 14.9375,1.3847656 14.1845,0.96876562 13.263859,1.015 12.005859,1 H 3.9980469 Z M 4,2 h 8 c 1.259,0.015 2.087125,0.059719 2.453125,0.2617188 0.184,0.1009999 0.289719,0.2136562 0.386719,0.4726562 C 14.936844,2.994375 15,3.408 15,4 v 6 c 0,0.592 -0.06316,1.005625 -0.160156,1.265625 -0.098,0.26 -0.202719,0.371656 -0.386719,0.472656 C 14.087125,11.940281 13.259,11.985 12,12 H 4 c -1.258,-0.015 -2.0900781,-0.05972 -2.4550781,-0.261719 -0.183,-0.1 -0.2867657,-0.212656 -0.3847657,-0.472656 C 1.0631563,11.005625 1,10.592 1,10 V 4 c 0,-0.592 0.063156,-1.005625 0.1601562,-1.265625 0.098,-0.26 0.2017657,-0.3716562 0.3847657,-0.4726562 C 1.9099219,2.0597188 2.74,2.015 4,2 Z M 9,4 V 6 C 5.6862915,6 3,8.2385763 3,11 3,9.3431458 5.6862915,8 9,8 v 2 C 9.6634617,9.5824 10.341388,9.1175625 11.029297,8.6015625 11.711096,8.0855625 12.367089,7.5496 13,7 12.367089,6.46 11.711096,5.9320156 11.029297,5.4160156 10.363574,4.9159919 9.6865055,4.4437605 9,4 Z"
     sodipodi:nodetypes="cccssccccssccccssccccsscccccccccssccccccsscccccccccccc" />
</svg>
