<svg width="16" height="16" version="1.1" viewBox="0 0 16 16" xmlns="http://www.w3.org/2000/svg">
 <defs>
  <style id="current-color-scheme" type="text/css">.ColorScheme-Text { color:#444444; } .ColorScheme-Highlight { color:#4285f4; }</style>
 </defs>
 <path class="ColorScheme-Text" d="m0.3259-0.0024384a0.33332 0.33334 0 0 0-0.2423 0.55365c0.60466 0.70567 1.7008 1.0467 2.9871 1.3222 0.9113 0.19523 1.9212 0.34549 2.9272 0.49763v1.631h1.3379v2.0009h-1.3379v0.96009c-0.00266 4.38e-4 -0.00515 8e-4 -0.00782 0.0013-1.4069 0.23105-2.8201 0.53278-3.9394 1.1229-1.1194 0.59015-1.9552 1.5228-2.0465 2.892-0.036008 0.54362 0.16531 1.0277 0.52238 1.3848 0.35708 0.35699 0.85023 0.60429 1.4356 0.79856 1.0798 0.35832 2.499 0.53302 4.0358 0.6735v1.502h1.3379v0.66438h0.66698v-0.66435h1.3288v-1.1985c2.4702 0.24134 4.8313 0.59394 6.1501 1.4734a0.33348 0.33349 0 0 0 0.36997-0.55495c-0.72694-0.4848-1.6635-0.81164-2.7005-1.0539h2.849v-0.667h-6.6685v-1.3327h-1.3288v-2.6679h1.3288v-1.334h6.6685v-0.66698h-6.6685v-0.22667c0.23638-0.0453 0.47224-0.09056 0.69043-0.1433 0.5664-0.13694 1.0661-0.30234 1.4694-0.54062 0.40342-0.23827 0.72381-0.57005 0.83373-1.0096 0.14007-0.55826 0.07216-1.0759-0.17196-1.4968-0.24478-0.42087-0.6427-0.7375-1.1229-0.99136-0.18209-0.09638-0.38857-0.17813-0.59533-0.25924h5.5651v-0.66698h-6.6685v-1.3327h-1.3288v-0.66698h-0.66698v0.66698h-1.3379v1.0278c-0.97306-0.1478-1.9384-0.29353-2.7878-0.47549-1.2417-0.26599-2.2246-0.64235-2.6197-1.1034a0.33332 0.33334 0 0 0-0.26445-0.11985zm14.007 2.6705-1.0213 1.334h0.68783v2.0009h-0.66698l1.0005 1.3327 1.0005-1.3327h-0.66698v-2.0009h0.64614zm0 5.3346-1.0213 1.334h0.68783v2.6679h-0.66698l1.0005 1.3327 1.0005-1.3327h-0.66698v-2.6679h0.64614zm-5.0011-4.9946c0.5328 0.14607 1.0121 0.31112 1.3874 0.50936 0.41076 0.21704 0.69937 0.46404 0.85718 0.73603 0.15784 0.27199 0.20784 0.5753 0.10161 1.0005-0.05668 0.22717-0.21638 0.41563-0.52499 0.59794-0.30867 0.1823-0.75482 0.33767-1.2871 0.46637-0.16585 0.0401-0.35304 0.07482-0.53411 0.11073v-0.42598h-1.3288v-2.0009h1.3288zm-3.3336 4.6324v1.6961h1.3379v2.6679h-1.3379v1.1607c-1.4996-0.1394-2.8652-0.3156-3.826-0.63442-0.52792-0.17542-0.93019-0.39354-1.175-0.63832-0.24485-0.24478-0.35175-0.49739-0.32698-0.8689 0.075302-1.1305 0.6974-1.8232 1.6922-2.3475 0.97046-0.51158 2.287-0.81021 3.6358-1.0356z" color="#444444" fill="#dfdfdf"/>
</svg>
