<svg width="24" height="24" version="1.1" xmlns="http://www.w3.org/2000/svg">
 <path d="m12 4.334s-1.636 2.7383-6 2.7383c0 9.31 6 12.594 6 12.594s6-3.2838 6-12.594c-4.364 0-6-2.7383-6-2.7383zm0 1.3867c0.272 0.312 0.25725 0.41992 0.78125 0.79492 0.912 0.654 2.3613 1.1896 4.1523 1.3906-0.174 3.943-1.4395 6.6416-2.7305 8.3516-0.982 1.298-1.7391 1.8784-2.2031 2.1934-0.463-0.315-1.2221-0.89536-2.2031-2.1934-1.292-1.71-2.5575-4.4086-2.7305-8.3516 1.79-0.2 3.2403-0.73762 4.1523-1.3906 0.524-0.377 0.51025-0.48192 0.78125-0.79492z" color="#000000" fill="#dfdfdf"/>
 <path d="m12 14.072a1 1 0 1 0 0 2 1 1 0 0 0 0-2z" color="#000000" fill="#f22c42"/>
 <path d="m11 8.072v3l0.5 2h1l0.5-2v-3z" color="#000000" fill="#f22c42"/>
</svg>
