<svg width="24" height="24" version="1.1" xmlns="http://www.w3.org/2000/svg">
 <defs>
  <style id="current-color-scheme" type="text/css">.ColorScheme-Text { color:#dfdfdf; } .ColorScheme-Highlight { color:#4285f4; } .ColorScheme-NeutralText { color:#ff9800; } .ColorScheme-PositiveText { color:#4caf50; } .ColorScheme-NegativeText { color:#f44336; }</style>
 </defs>
 <path d="m9.502 4c-0.542 0-0.98336 0.064468-1.3594 0.23047a1.72 1.72 0 0 0-0.83789 0.79688c-0.34 0.68-0.30273 1.4727-0.30273 2.4727v9c0 1-0.037262 1.7956 0.30273 2.4746 0.17 0.34 0.46189 0.62792 0.83789 0.79492 0.375 0.166 0.81736 0.23047 1.3594 0.23047h4.3789l-1.5-1.5 0.5-0.5h-4.8086c-0.05-0.374-0.070312-0.87-0.070312-1.5v-9c0-0.63 0.020312-1.127 0.070312-1.5h7.8594c0.05 0.373 0.070312 0.87 0.070312 1.5v6.3789l0.5 0.5 0.5-0.5v-6.3789c0-1 0.037266-1.7937-0.30273-2.4727a1.72 1.72 0 0 0-0.83789-0.79688c-0.375-0.167-0.81736-0.23047-1.3594-0.23047h-5zm7 14.621-1.3359 1.3359c0.25499-0.035918 0.48662-0.095369 0.69531-0.1875 0.375-0.167 0.66889-0.45592 0.83789-0.79492 0.017943-0.035885 0.030972-0.072837 0.046875-0.10938l-0.24414-0.24414z" fill="#dfdfdf" opacity=".5" style="font-feature-settings:normal;font-variant-alternates:normal;font-variant-caps:normal;font-variant-ligatures:normal;font-variant-numeric:normal;font-variant-position:normal;isolation:auto;mix-blend-mode:normal;shape-padding:0;text-decoration-color:#000000;text-decoration-line:none;text-decoration-style:solid;text-indent:0;text-orientation:mixed;text-transform:none"/>
 <path d="m14.502 13.793-0.70703 0.70703 2 2-2 2 0.70703 0.70703 2-2 2 2 0.70703-0.70703-2-2 2-2-0.70703-0.70703-2 2-1.6465-1.6465z" fill="#dfdfdf" style="font-feature-settings:normal;font-variant-alternates:normal;font-variant-caps:normal;font-variant-ligatures:normal;font-variant-numeric:normal;font-variant-position:normal;isolation:auto;mix-blend-mode:normal;shape-padding:0;text-decoration-color:#000000;text-decoration-line:none;text-decoration-style:solid;text-indent:0;text-orientation:mixed;text-transform:none;white-space:normal"/>
</svg>
