<?xml version="1.0" encoding="UTF-8" standalone="no"?>
<!-- Created with Inkscape (http://www.inkscape.org/) -->

<svg
   width="24"
   height="24"
   viewBox="0 0 6.35 6.35"
   version="1.1"
   id="svg5"
   sodipodi:docname="disk-burner.svg"
   inkscape:version="1.1.2 (0a00cf5339, 2022-02-04, custom)"
   xmlns:inkscape="http://www.inkscape.org/namespaces/inkscape"
   xmlns:sodipodi="http://sodipodi.sourceforge.net/DTD/sodipodi-0.dtd"
   xmlns:xlink="http://www.w3.org/1999/xlink"
   xmlns="http://www.w3.org/2000/svg"
   xmlns:svg="http://www.w3.org/2000/svg">
  <sodipodi:namedview
     id="namedview7"
     pagecolor="#ffffff"
     bordercolor="#666666"
     borderopacity="1.0"
     inkscape:pageshadow="2"
     inkscape:pageopacity="0.0"
     inkscape:pagecheckerboard="0"
     inkscape:document-units="px"
     showgrid="false"
     units="px"
     height="48px"
     showguides="false"
     inkscape:zoom="11.578874"
     inkscape:cx="-0.47500301"
     inkscape:cy="18.352389"
     inkscape:window-width="1920"
     inkscape:window-height="1006"
     inkscape:window-x="0"
     inkscape:window-y="0"
     inkscape:window-maximized="1"
     inkscape:current-layer="svg5" />
  <defs
     id="defs2">
    <linearGradient
       inkscape:collect="always"
       id="linearGradient1871">
      <stop
         style="stop-color:#ffffff;stop-opacity:1;"
         offset="0"
         id="stop1867" />
      <stop
         style="stop-color:#ffffff;stop-opacity:0.1"
         offset="0.12"
         id="stop2515" />
      <stop
         style="stop-color:#ffffff;stop-opacity:0.102"
         offset="0.89999998"
         id="stop2581" />
      <stop
         style="stop-color:#ffffff;stop-opacity:0.502"
         offset="1"
         id="stop1869" />
    </linearGradient>
    <linearGradient
       inkscape:collect="always"
       xlink:href="#linearGradient1871"
       id="linearGradient1198"
       x1="6.3499999"
       y1="0.52916658"
       x2="6.3499994"
       y2="12.170834"
       gradientUnits="userSpaceOnUse"
       gradientTransform="scale(1.8897639)" />
    <linearGradient
       inkscape:collect="always"
       xlink:href="#linearGradient1544"
       id="linearGradient2016"
       x1="9.921875"
       y1="11.1125"
       x2="2.7781253"
       y2="1.5874999"
       gradientUnits="userSpaceOnUse"
       gradientTransform="matrix(0.5111111,0,0,0.5111111,-0.07055483,-0.07055511)" />
    <linearGradient
       inkscape:collect="always"
       id="linearGradient1544">
      <stop
         style="stop-color:#d9d9d9;stop-opacity:1"
         offset="0"
         id="stop1540" />
      <stop
         style="stop-color:#cdcdcd;stop-opacity:1"
         offset="1"
         id="stop1542" />
    </linearGradient>
  </defs>
  <circle
     style="fill:url(#linearGradient2016);fill-opacity:1;stroke-width:0.270464;stroke-linecap:round;stroke-linejoin:round"
     id="path986"
     cx="3.175"
     cy="3.1750002"
     r="3.0427084" />
  <path
     id="rect1372"
     style="opacity:0.2;fill:#ffffff;fill-opacity:1;stroke-width:0.209842;stroke-linejoin:round"
     d="M 3.1750002,0.13229174 C 1.4945588,0.13229174 0.13229194,1.4945586 0.13229194,3.175 H 3.1750002 Z m 0,3.04270826 v 3.0427083 c 1.6804413,0 3.0427084,-1.362267 3.0427084,-3.0427083 z"
     sodipodi:nodetypes="cccccccc" />
  <path
     d="m 5.3265199,1.0234803 c -1.1882515,-1.18825151 -3.1147877,-1.18825151 -4.3030393,0 L 3.1750002,3.175 Z M 3.1750002,3.175 1.0234807,5.3265196 c 1.1882515,1.1882516 3.1147877,1.1882516 4.3030392,1e-7 z"
     style="opacity:0.02;fill:#000000;fill-opacity:1;stroke-width:0.209842;stroke-linejoin:round"
     id="path1578"
     sodipodi:nodetypes="cccccccc" />
  <path
     id="path1807"
     style="fill:#faf8f6;fill-opacity:1;stroke-width:0.0555206;stroke-linejoin:round"
     d="m 3.1750002,0.13229174 c -0.029969,0 -0.059581,0.001598 -0.089343,0.002459 h 0.089343 z M 1.0233005,1.0233003 C 0.83598158,1.2106192 0.67406042,1.4228437 0.54050057,1.6536464 L 3.1750002,3.175 Z M 3.1750002,3.175 5.3266999,5.3266997 C 5.5140188,5.1393808 5.67594,4.9271563 5.809501,4.6963547 Z m 0,3.0402492 v 0.00246 c 0.029969,0 0.059582,-0.0016 0.089344,-0.00246 z" />
  <circle
     style="fill:#aea795;fill-opacity:1;stroke-width:0.211666"
     id="path2819"
     cx="3.1750002"
     cy="3.1750002"
     r="1.0583334" />
  <circle
     style="fill:#faf8f6;fill-opacity:1;stroke-width:0.23151"
     id="path3031"
     cx="3.1750004"
     cy="3.1750004"
     r="0.92604166" />
  <circle
     style="fill:#4d4d4d;fill-opacity:1;stroke-width:0.198437"
     id="path3463"
     cx="3.1750004"
     cy="3.1750004"
     r="0.39687499" />
  <path
     id="path4344"
     style="opacity:0.4;fill:#000000;fill-opacity:1;stroke-width:1.6;stroke-linecap:round;stroke-linejoin:round"
     d="M 12,0 C 5.372583,1.2369363e-7 1.0909091e-7,5.372583 0,12 0,18.627416 5.372583,24 12,24 18.627417,24 24,18.627416 24,12 24,5.372583 18.627417,0 12,0 Z m 0,1 A 11,11 0 0 1 23,12 11,11 0 0 1 12,23 11,11 0 0 1 1,12 11,11 0 0 1 12,1 Z"
     transform="scale(0.26458333)" />
  <path
     id="path1110"
     style="fill:url(#linearGradient1198);fill-opacity:1;stroke-width:1;stroke-linecap:round;stroke-linejoin:round"
     d="m 12,1 c -6.0751324,-8e-8 -11.00000008,4.9248676 -11,11 2e-7,6.075132 4.9248676,11 11,11 6.075132,0 11,-4.924868 11,-11 C 23,5.9248676 18.075132,1.0000002 12,1 Z m 0,1 C 17.522848,2 22,6.4771525 22,12 22,17.522847 17.522847,22 12,22 6.4771525,22 2,17.522848 2,12 1.9999996,6.4771525 6.4771525,1.9999996 12,2 Z"
     transform="scale(0.26458333)" />
  <path
     d="m 3.548168,0.52916667 c 0,0 0.00338,0.1227343 -0.016536,0.1793173 -0.00942,0.026783 -0.036771,0.04432 -0.047025,0.070797 -0.016171,0.041754 -0.025212,0.088323 -0.020153,0.1328084 0.00289,0.025371 0.018973,0.047592 0.028422,0.071313 0.00761,0.019096 0.015211,0.040088 0.022738,0.057361 L 3.5306,1.0784874 3.56419,0.96066504 c 0.00515,-0.017599 0.010049,-0.035433 0.014986,-0.053743 0,0 0.03969,-0.09994 0.043408,-0.1529623 0.00322,-0.04592 -0.00272,-0.093737 -0.018603,-0.1369425 -0.011962,-0.032539 -0.055812,-0.08785 -0.055812,-0.08785 z M 3.2381094,1.0950237 c -0.055957,0.038405 -0.1075205,0.078534 -0.1560626,0.120406 l -5.292e-4,5.16e-4 c 0,0 -0.1335886,0.1233126 -0.1886188,0.1948201 -0.079462,0.1032458 -0.1469331,0.2160575 -0.2015381,0.3343465 -0.054149,0.1173103 -0.095093,0.2417744 -0.1229899,0.3679362 -0.02923,0.132195 -0.044535,0.2682034 -0.045475,0.403593 -0.00138,0.1983815 0.015076,0.4043932 0.058911,0.5922119 v 0.00259 h 5.159e-4 c 0.041945,0.1787787 0.049798,0.2629517 0.1297079,0.40566 C 3.6183559,3.358237 4.2189979,4.0589396 4.0163437,4.8152182 3.9094481,5.214157 3.5806004,5.4061654 3.2649683,5.4782268 2.8201511,5.5555655 2.4447418,5.3154927 2.3544425,4.9785074 2.3368139,4.867379 2.3642813,4.7180267 2.4278231,4.6803345 2.3911278,4.6931191 2.3464566,4.7079072 2.2929476,4.7583659 2.2028333,4.8433233 2.2004279,4.873176 2.0826245,4.9061606 2.1402756,4.743691 1.8239299,4.6118132 1.8810864,4.2633056 c 0.0013,-0.00807 -0.014152,0.066683 -0.012919,0.058394 C 1.7287425,5.0917856 2.5174807,5.9586998 3.3926221,5.7241985 3.9855907,5.576189 4.3392484,5.1408118 4.456123,4.6493287 4.5236143,4.365534 4.5024415,4.0727744 4.441137,3.8271567 4.3912006,3.6271036 4.2891688,3.4158375 4.1357293,3.2220255 4.0865692,3.1599296 4.0355546,3.1033239 3.983284,3.0504599 l -0.00103,-0.00156 -0.00465,-0.00413 C 3.859935,2.9265658 3.7379182,2.8286636 3.6210335,2.7362576 c 0,0 -0.2364785,-0.1932112 -0.3462322,-0.2992065 -0.00676,-0.00653 -0.013084,-0.013475 -0.019119,-0.020671 -0.038249,-0.04557 -0.075115,-0.092531 -0.1080037,-0.1421098 -0.00902,-0.013601 -0.017492,-0.027535 -0.024289,-0.042375 -0.034766,-0.075902 -0.065039,-0.1550823 -0.082682,-0.236678 -0.023011,-0.1064206 -0.031947,-0.216201 -0.028939,-0.3250448 0.00257,-0.092693 0.01478,-0.186135 0.039791,-0.2754354 0.045279,-0.106015 0.1190501,-0.2039942 0.1865519,-0.2997233 z m 0.2625164,0.3927408 c -0.029777,0.04763 -0.052427,0.1012702 -0.078548,0.1519287 -0.023185,0.044968 -0.050463,0.088113 -0.069763,0.1348755 -0.042222,0.1023062 -0.066796,0.210759 -0.1002522,0.3162598 -0.00402,0.012668 -0.013481,0.025046 -0.011885,0.038241 0.012073,0.099814 0.095811,0.1776518 0.1570964,0.2573486 0.023564,0.030642 0.080098,0.083716 0.080098,0.083716 0.00957,0.010579 0.019529,0.021295 0.029972,0.031523 0,0 -0.019338,-0.1207561 -0.027905,-0.1813843 -7.409e-4,-0.00534 -0.00169,-0.011158 -0.00206,-0.016536 C 3.462464,2.0886011 3.452212,1.8721729 3.470149,1.6572646 3.474919,1.6000986 3.500638,1.4877659 3.500638,1.4877659 Z M 1.9539502,3.2008382 c 0,0 0.036285,0.2373064 0.010852,0.3519164 -0.012036,0.054238 -0.061725,0.09499 -0.075448,0.1488282 -0.021641,0.084904 -0.028521,0.1772711 -0.00827,0.2625164 0.011551,0.048618 0.048652,0.087509 0.07183,0.1317749 0.00541,0.01034 0.010184,0.021394 0.015503,0.031523 C 1.9971042,3.9988808 2.0910011,3.8941031 2.1281,3.7687623 2.142447,3.7202963 2.154402,3.6699073 2.151871,3.6194172 2.1473611,3.5294501 2.1241261,3.4381456 2.0831413,3.3579345 2.0522833,3.2975389 1.9539502,3.2008382 1.9539502,3.2008382 Z m 1.0438639,0.4547526 c -0.5036879,0 -0.9115722,0.408401 -0.9115722,0.9120891 1.879e-4,0.046929 0.00398,0.093684 0.011369,0.1400432 0.010303,0.015994 0.020868,0.031679 0.029456,0.048576 0.00766,0.015042 0.011473,0.032979 0.016536,0.050126 0.00276,-0.00201 0.00966,-0.00348 0.012402,-0.00568 0.019604,-0.016346 0.044851,-0.045491 0.092501,-0.090434 0.061874,-0.05833 0.1197428,-0.085216 0.1576131,-0.093017 0.08402,-0.017298 0.1064251,-0.00198 0.1793173,0.0093 -0.059385,0.02462 -0.077778,0.051594 -0.1235067,0.1100709 -0.0016,0.00201 -0.026598,0.032437 -0.037207,0.079582 -0.010404,0.046227 -0.011936,0.1034708 -0.00517,0.1488281 0.082477,0.2980965 0.4196183,0.5194903 0.833541,0.4475178 0.087532,-0.020204 0.1745757,-0.051373 0.2573485,-0.091984 0.2495566,-0.1695225 0.399056,-0.45124 0.3994613,-0.7529266 0,-0.5036878 -0.4084013,-0.9120891 -0.9120891,-0.9120891 z"
     style="fill:#4d4d4d;stroke-width:1.00002"
     id="path902" />
</svg>
