<?xml version="1.0" encoding="UTF-8" standalone="no"?>
<!-- Created with Inkscape (http://www.inkscape.org/) -->

<svg
   width="24"
   height="24"
   viewBox="0 0 6.3499999 6.3500002"
   version="1.1"
   id="svg5"
   inkscape:version="1.1.2 (0a00cf5339, 2022-02-04, custom)"
   sodipodi:docname="preferences-desktop-display.svg"
   xmlns:inkscape="http://www.inkscape.org/namespaces/inkscape"
   xmlns:sodipodi="http://sodipodi.sourceforge.net/DTD/sodipodi-0.dtd"
   xmlns:xlink="http://www.w3.org/1999/xlink"
   xmlns="http://www.w3.org/2000/svg"
   xmlns:svg="http://www.w3.org/2000/svg">
  <sodipodi:namedview
     id="namedview7"
     pagecolor="#ffffff"
     bordercolor="#666666"
     borderopacity="1.0"
     inkscape:pageshadow="2"
     inkscape:pageopacity="0.0"
     inkscape:pagecheckerboard="0"
     inkscape:document-units="px"
     showgrid="false"
     units="px"
     height="24px"
     inkscape:zoom="23.128285"
     inkscape:cx="14.095295"
     inkscape:cy="13.749398"
     inkscape:window-width="1920"
     inkscape:window-height="1012"
     inkscape:window-x="0"
     inkscape:window-y="0"
     inkscape:window-maximized="1"
     inkscape:current-layer="svg5" />
  <defs
     id="defs2">
    <linearGradient
       inkscape:collect="always"
       id="linearGradient1871">
      <stop
         style="stop-color:#ffffff;stop-opacity:1;"
         offset="0"
         id="stop1867" />
      <stop
         style="stop-color:#ffffff;stop-opacity:0.1"
         offset="0.12"
         id="stop2515" />
      <stop
         style="stop-color:#ffffff;stop-opacity:0.102"
         offset="0.89999998"
         id="stop2581" />
      <stop
         style="stop-color:#ffffff;stop-opacity:0.502"
         offset="1"
         id="stop1869" />
    </linearGradient>
    <linearGradient
       inkscape:collect="always"
       id="linearGradient2290">
      <stop
         style="stop-color:#fdfdfd;stop-opacity:1"
         offset="0"
         id="stop2286" />
      <stop
         style="stop-color:#f0f0f0;stop-opacity:1"
         offset="1"
         id="stop2288" />
    </linearGradient>
    <linearGradient
       inkscape:collect="always"
       xlink:href="#linearGradient1871"
       id="linearGradient2171"
       x1="2.4081211"
       y1="1.0583334"
       x2="2.4081211"
       y2="3.7041667"
       gradientUnits="userSpaceOnUse" />
    <linearGradient
       inkscape:collect="always"
       xlink:href="#linearGradient2290"
       id="linearGradient3397"
       x1="2.3812499"
       y1="3.1750002"
       x2="1.3500313"
       y2="1.0583332"
       gradientUnits="userSpaceOnUse" />
  </defs>
  <path
     d="m 1.3497984,1.0583333 c -0.1902752,0 -0.3447215,0.00384 -0.4852417,0.027389 C 0.7228803,1.1094813 0.58166,1.1584943 0.473366,1.2665898 0.3650006,1.3747779 0.3153066,1.5155872 0.291465,1.6572635 0.2678377,1.797678 0.2645934,1.9521236 0.2645934,2.1419886 v 1.5368571 c 0,0.1898915 0.00328,0.3446421 0.026872,0.4852416 0.023813,0.1419516 0.073806,0.2828439 0.181901,0.3911907 0.1080638,0.1083152 0.2489481,0.1582576 0.3911907,0.1819011 0.1407425,0.023389 0.2960397,0.026247 0.4862751,0.025321 H 3.1755276 4.2064723 C 4.396591,4.7632935 4.5519096,4.7606501 4.6927476,4.7371791 4.8349826,4.7135521 4.9753385,4.6635961 5.0834213,4.555278 5.1915145,4.446928 5.2409778,4.3060252 5.2648056,4.1640868 5.2884066,4.0235005 5.2921946,3.8687367 5.2921946,3.6788452 V 2.1419881 c 0,-0.189881 -0.0038,-0.3443107 -0.027389,-0.4847251 C 5.2409663,1.5156025 5.191789,1.3748037 5.0834209,1.2665893 4.975137,1.1584964 4.834426,1.1094867 4.6927472,1.0857218 4.5522241,1.0621554 4.3972501,1.0583333 4.2069886,1.0583333 H 3.1755272 Z"
     style="color:#000000;opacity:0.1;fill:#000000;stroke-width:0.0700042"
     id="path4663"
     sodipodi:nodetypes="scccsscsccccccssscccscs" />
  <path
     d="m 0.396875,1.6129454 c 0,-0.1879811 0.004075,-0.3369204 0.0253206,-0.46355 C 0.4434416,1.0227658 0.4849759,0.91214089 0.56689094,0.83004329 0.64880334,0.74793779 0.7590049,0.7064141 0.88574032,0.68534798 1.0124678,0.66428718 1.161833,0.66066238 1.3503222,0.66158838 h 2.3538922 1.0314517 c 0.1881743,-7.9375e-4 0.337476,0.002725 0.4640527,0.0237596 0.1267301,0.0210608 0.2369317,0.0625872 0.3188494,0.14469531 0.081915,0.082108 0.1234413,0.19275161 0.1446953,0.31935211 0.021246,0.1266084 0.025321,0.2755636 0.025321,0.46355 v 2.0660258 c 0,0.1879811 -0.00405,0.3366558 -0.025321,0.4630208 C 5.641991,4.2683649 5.6005229,4.3790163 5.5185682,4.4608414 5.4366135,4.5426532 5.3262664,4.5837906 5.1997188,4.6050181 5.0731792,4.6262377 4.924023,4.6303388 4.7356661,4.6303388 H 3.7042144 1.3497931 c -0.1883543,0 -0.3375025,-0.0041 -0.46405275,-0.025321 C 0.75919807,4.5837986 0.64885095,4.5426558 0.56689097,4.4608414 0.48493628,4.3790216 0.44346284,4.2683702 0.42219563,4.141992 0.40092313,4.0156164 0.396875,3.8669576 0.396875,3.6789712 Z"
     style="color:#000000;fill:#4d4d4d;stroke-width:0.264583"
     id="path874" />
  <path
     d="m 1.3497984,0.79375001 c -0.74437881,0 -0.82063173,0.076203 -0.82063173,0.81907059 v 2.0660255 c 0,0.7428707 0.0762503,0.8227219 0.82063173,0.8190707 h 2.3544213 1.0314517 c 0.7443788,0.00365 0.8206317,-0.076203 0.8206317,-0.8190707 V 1.6128206 c 0,-0.74287059 -0.07624,-0.81907059 -0.8206317,-0.81907059 H 3.7042197 Z m 0,0.26458339 h 0.502285 2.8836938 c 0.1815756,0 0.3160184,0.00582 0.3984361,0.019632 0.08241,0.013838 0.099597,0.029842 0.1038701,0.034105 0.00426,0.00426 0.020294,0.021246 0.034105,0.1033542 0.013811,0.082105 0.019632,0.2162017 0.019632,0.3974041 v 2.0660256 c 0,0.1811866 -0.0063,0.3154098 -0.020161,0.3979069 -0.013838,0.082497 -0.029234,0.1000204 -0.033589,0.104386 -0.00437,0.00437 -0.021325,0.01995 -0.1033542,0.033591 -0.082034,0.013626 -0.2165721,0.0186 -0.3979069,0.0186 H 4.7362799 1.8523215 1.3495073 1.3489782 c -0.1813402,0 -0.3158861,-0.00497 -0.39790693,-0.0186 -0.0820208,-0.013626 -0.0989939,-0.029223 -0.10335419,-0.033591 -0.004366,-0.00437 -0.0197379,-0.021881 -0.0335889,-0.104386 -0.013835,-0.082489 -0.02014,-0.2167152 -0.02014,-0.3979071 V 1.6128285 c 0,-0.1811866 0.005821,-0.3152774 0.0196321,-0.3974041 0.0138112,-0.082127 0.0298344,-0.099086 0.0341048,-0.1033542 0.004286,-0.00426 0.0214577,-0.020293 0.10387013,-0.034105 0.0824124,-0.013811 0.21684989,-0.019632 0.39843609,-0.019632 z"
     style="color:#000000;font-variant-ligatures:normal;font-variant-position:normal;font-variant-caps:normal;font-variant-numeric:normal;font-variant-alternates:normal;font-variant-east-asian:normal;font-feature-settings:normal;font-variation-settings:normal;text-indent:0;text-decoration-line:none;text-decoration-style:solid;text-decoration-color:#000000;text-transform:none;text-orientation:mixed;dominant-baseline:auto;white-space:normal;shape-padding:0;shape-margin:0;inline-size:0;opacity:0.25;isolation:auto;mix-blend-mode:normal;solid-color:#000000;fill:url(#linearGradient2171);fill-opacity:1;stroke-width:0.264583;color-rendering:auto;image-rendering:auto;shape-rendering:auto;stop-color:#000000"
     id="path1195" />
  <path
     d="m 1.3497878,0.52916667 c -0.1902751,0 -0.3452284,0.003836 -0.48574856,0.0273897 C 0.7223628,0.58031597 0.58164945,0.62932737 0.47335549,0.73742289 0.36499009,0.84561101 0.31529605,0.9864302 0.29145444,1.1281066 0.26782714,1.268521 0.26458334,1.4229583 0.26458334,1.6128233 v 2.0660254 c 0,0.1898915 0.003281,0.3446463 0.0268711,0.4852459 0.0238125,0.1419516 0.0738055,0.2828396 0.18190105,0.3911864 0.10806377,0.1083152 0.2484411,0.1582579 0.39068375,0.1819011 0.14074246,0.023389 0.29604226,0.026247 0.48627776,0.025321 h 2.353892 1.030949 c 0.190119,7.938e-4 0.34544,-0.00185 0.4862777,-0.025321 C 5.3636704,4.7135548 5.5040371,4.6635988 5.6121194,4.555281 5.7202123,4.4469315 5.7696735,4.306033 5.7935019,4.1640946 5.8171027,4.0235082 5.8208916,3.8687402 5.8208916,3.6788487 V 1.6128233 c 0,-0.1898809 -0.00376,-0.3443023 -0.02739,-0.4847167 C 5.7696629,0.98644605 5.7204875,0.84563744 5.6121194,0.73742286 5.503836,0.62932998 5.3631148,0.58032121 5.2214357,0.55655634 5.0809128,0.5329899 4.925949,0.52916667 4.7356871,0.52916667 H 3.7042355 Z m 0,0.26458334 H 3.704209 4.7356607 c 0.1864333,0 0.3297766,0.004366 0.4423568,0.0232569 0.1114161,0.0186796 0.1913864,0.0519562 0.247015,0.10748698 0.055541,0.0554487 0.088786,0.13592701 0.107487,0.24701241 0.018918,0.1123394 0.02376,0.2552356 0.02376,0.441325 v 2.0660254 c 0,0.1860682 -0.00487,0.3291946 -0.02376,0.4418277 -0.01868,0.1112732 -0.051753,0.1916642 -0.107487,0.2475309 -0.055764,0.055896 -0.1357921,0.089003 -0.247015,0.107487 -0.11235,0.018653 -0.2556007,0.022225 -0.4418277,0.022225 H 4.7356607 3.704209 1.3497878 C 1.1633544,4.4987211 1.0200111,4.4944084 0.90743091,4.4757023 0.79620272,4.4572079 0.71617949,4.4241086 0.6604159,4.3682153 0.60468143,4.3123512 0.57108463,4.2319443 0.55241299,4.1206844 0.5335138,4.0080539 0.52915876,3.864917 0.52915876,3.6788567 V 1.6128313 c 0,-0.1860815 0.004339,-0.328983 0.0232569,-0.4413251 0.018706,-0.1110774 0.0524616,-0.19156096 0.10800292,-0.24701234 0.0556287,-0.0555334 0.1356069,-0.0888047 0.247015,-0.10748698 C 1.0199926,0.79814208 1.1633492,0.79374998 1.3497905,0.79374998 Z"
     style="color:#000000;font-variant-ligatures:normal;font-variant-position:normal;font-variant-caps:normal;font-variant-numeric:normal;font-variant-alternates:normal;font-variant-east-asian:normal;font-feature-settings:normal;font-variation-settings:normal;text-indent:0;text-decoration-line:none;text-decoration-style:solid;text-decoration-color:#000000;text-transform:none;text-orientation:mixed;dominant-baseline:auto;white-space:normal;shape-padding:0;shape-margin:0;inline-size:0;opacity:0.4;isolation:auto;mix-blend-mode:normal;solid-color:#000000;stroke-width:0.264583;color-rendering:auto;image-rendering:auto;shape-rendering:auto;stop-color:#000000"
     id="path1084" />
  <path
     id="rect3229"
     style="fill:url(#linearGradient3397);stroke-width:0.272726;fill-opacity:1"
     d="m 1.0583333,1.0583334 h 3.96875 c 0.1465792,0 0.2645834,0.1180042 0.2645834,0.2645833 V 3.96875 c 0,0.1465792 -0.1180042,0.2645833 -0.2645834,0.2645833 h -3.96875 c -0.14657914,0 -0.26458331,-0.1180041 -0.26458331,-0.2645833 V 1.3229167 c 0,-0.1465791 0.11800417,-0.2645833 0.26458331,-0.2645833 z" />
  <rect
     style="fill:#4d4d4d;fill-opacity:1;stroke-width:0.264583"
     id="rect4286"
     width="2.9104166"
     height="0.5291667"
     x="1.5875"
     y="5.2916665"
     ry="0.26458335" />
</svg>
