<?xml version="1.0" encoding="UTF-8" standalone="no"?>
<!-- Created with Inkscape (http://www.inkscape.org/) -->

<svg
   width="24"
   height="24"
   viewBox="0 0 6.35 6.35"
   version="1.1"
   id="svg5"
   sodipodi:docname="system-settings.svg"
   inkscape:version="1.1.2 (0a00cf5339, 2022-02-04, custom)"
   xmlns:inkscape="http://www.inkscape.org/namespaces/inkscape"
   xmlns:sodipodi="http://sodipodi.sourceforge.net/DTD/sodipodi-0.dtd"
   xmlns:xlink="http://www.w3.org/1999/xlink"
   xmlns="http://www.w3.org/2000/svg"
   xmlns:svg="http://www.w3.org/2000/svg">
  <sodipodi:namedview
     id="namedview7"
     pagecolor="#ffffff"
     bordercolor="#666666"
     borderopacity="1.0"
     inkscape:pageshadow="2"
     inkscape:pageopacity="0.0"
     inkscape:pagecheckerboard="0"
     inkscape:document-units="px"
     showgrid="false"
     units="px"
     height="48px"
     showguides="false"
     inkscape:zoom="16.375"
     inkscape:cx="-2.1374046"
     inkscape:cy="15.755725"
     inkscape:window-width="1920"
     inkscape:window-height="1012"
     inkscape:window-x="0"
     inkscape:window-y="0"
     inkscape:window-maximized="1"
     inkscape:current-layer="svg5" />
  <defs
     id="defs2">
    <linearGradient
       inkscape:collect="always"
       id="linearGradient1122">
      <stop
         style="stop-color:#d3d3d3;stop-opacity:1"
         offset="0"
         id="stop1118" />
      <stop
         style="stop-color:#e6e6e6;stop-opacity:1"
         offset="1"
         id="stop1120" />
    </linearGradient>
    <linearGradient
       inkscape:collect="always"
       id="linearGradient1871">
      <stop
         style="stop-color:#ffffff;stop-opacity:1;"
         offset="0"
         id="stop1867" />
      <stop
         style="stop-color:#ffffff;stop-opacity:0.1"
         offset="0.12"
         id="stop2515" />
      <stop
         style="stop-color:#ffffff;stop-opacity:0.102"
         offset="0.89999998"
         id="stop2581" />
      <stop
         style="stop-color:#ffffff;stop-opacity:0.502"
         offset="1"
         id="stop1869" />
    </linearGradient>
    <linearGradient
       inkscape:collect="always"
       xlink:href="#linearGradient1871"
       id="linearGradient1198"
       x1="6.3499999"
       y1="0.52916658"
       x2="6.3499994"
       y2="12.170834"
       gradientUnits="userSpaceOnUse"
       gradientTransform="scale(1.8897639)" />
    <linearGradient
       inkscape:collect="always"
       xlink:href="#linearGradient1122"
       id="linearGradient1124"
       x1="1.1906248"
       y1="0.52916664"
       x2="4.630208"
       y2="5.8208332"
       gradientUnits="userSpaceOnUse" />
  </defs>
  <circle
     style="fill:url(#linearGradient1124);fill-opacity:1;stroke-width:0.270463;stroke-linecap:round;stroke-linejoin:round"
     id="path986"
     cx="3.175"
     cy="3.175"
     r="3.0427084" />
  <circle
     style="fill:#4d4d4d;fill-opacity:1;stroke-width:0.148828"
     id="path1406"
     cx="3.175"
     cy="3.175"
     r="2.3812499" />
  <path
     d="m 3.1749912,1.2339258 c -0.1396058,-0.00155 -0.1884395,0.00363 -0.2080769,0.172436 l -0.00748,0.059653 c -0.017232,0.1094805 -0.020526,0.159057 -0.1241067,0.1858823 -0.00694,0.00155 -0.01387,0.00311 -0.020778,0.00475 -0.00164,3.36e-4 -0.00308,7.302e-4 -0.00475,0.00106 l 2.071e-4,5.17e-5 c -0.026152,0.00631 -0.052023,0.013315 -0.077649,0.020929 l 2.588e-4,-3.041e-4 c -0.00428,0.00146 -0.00818,0.00263 -0.012234,0.00389 -0.00388,0.00119 -0.00776,0.00232 -0.011626,0.00354 -0.104089,0.0292 -0.1316261,-0.012102 -0.2015545,-0.098626 L 2.470854,1.5392627 C 2.420149,1.4710757 2.383633,1.4419757 2.3447255,1.4388129 c -0.00486,-3.942e-4 -0.00979,-3.891e-4 -0.014762,0 -0.034784,0.00273 -0.072918,0.024077 -0.1254709,0.055204 -0.1216792,0.068458 -0.1613736,0.097313 -0.093979,0.2533208 l 0.023305,0.055405 c 0.042873,0.1113622 0.065182,0.1544524 -0.033718,0.2408348 l 0.00263,-6.057e-4 c -0.020443,0.019376 -0.040327,0.039312 -0.059703,0.059754 l 5.565e-4,-0.00263 c -0.086382,0.098903 -0.1294719,0.076592 -0.240834,0.033719 l -0.055405,-0.023356 c -0.048753,-0.021061 -0.085088,-0.03165 -0.114098,-0.032556 -0.06382,-0.002 -0.092157,0.042881 -0.1392228,0.1265349 -0.071147,0.1201262 -0.091127,0.165005 0.045244,0.2664151 l 0.04792,0.036352 c 0.086525,0.069929 0.127829,0.097466 0.098628,0.2015543 -0.00122,0.00387 -0.00235,0.00775 -0.00354,0.011629 -0.00127,0.00405 -0.00238,0.00795 -0.00384,0.012235 l 2.536e-4,-2.589e-4 c -0.00761,0.025627 -0.01462,0.051497 -0.020929,0.077649 l -5.24e-5,-2.08e-4 c -3.282e-4,0.00167 -7.224e-4,0.00312 -0.00106,0.00475 -0.00164,0.00691 -0.0032,0.013835 -0.00475,0.020778 -0.026828,0.1035817 -0.076402,0.1068766 -0.1858823,0.124107 l -0.059653,0.00748 c -0.1688055,0.019635 -0.1739899,0.068468 -0.1724369,0.2080745 -0.00155,0.1396055 0.00363,0.1884393 0.172436,0.208077 l 0.059653,0.00748 c 0.1094805,0.017232 0.159057,0.020526 0.1858823,0.1241071 0.00155,0.00694 0.00311,0.013869 0.00475,0.020778 3.36e-4,0.00164 7.302e-4,0.00308 0.00106,0.00475 l 5.18e-5,-2.07e-4 c 0.00631,0.026152 0.013315,0.052023 0.020929,0.077649 L 1.6783843,3.61737 c 0.00146,0.00428 0.00263,0.00818 0.00389,0.012234 0.00119,0.00388 0.00232,0.00776 0.00354,0.011629 0.029199,0.1040887 -0.012103,0.1316258 -0.098628,0.2015545 l -0.047925,0.036348 C 1.4028909,3.9805427 1.42287,4.0253723 1.4940173,4.1454985 c 0.068458,0.1216792 0.097313,0.1613736 0.2533208,0.093979 l 0.055405,-0.023305 c 0.1113639,-0.042876 0.1544541,-0.065185 0.2408366,0.033715 l -6.057e-4,-0.00262 c 0.019376,0.020442 0.039311,0.040328 0.059754,0.059702 L 2.100098,4.306413 C 2.199,4.392795 2.176689,4.4358856 2.133816,4.5472475 L 2.11046,4.6026535 c -0.067397,0.156008 -0.0277,0.1849114 0.093979,0.2533726 0.1201262,0.071148 0.165005,0.091075 0.2664151,-0.045295 l 0.036348,-0.047925 c 0.069929,-0.086525 0.097466,-0.1278265 0.2015546,-0.098628 0.00387,0.00122 0.00775,0.00236 0.011629,0.00354 0.00405,0.00127 0.00795,0.00243 0.012234,0.00389 l -2.589e-4,-2.925e-4 c 0.025628,0.00761 0.051497,0.014621 0.077649,0.020929 l -2.071e-4,5.18e-5 c 0.00167,3.442e-4 0.00312,7.143e-4 0.00475,0.00106 0.00691,0.00164 0.013835,0.0032 0.020778,0.00475 0.1035817,0.026828 0.1068766,0.076402 0.1241069,0.1858821 l 0.00748,0.059653 c 0.019637,0.1688043 0.068469,0.173989 0.2080773,0.1724357 0.139606,0.00156 0.1884397,-0.00363 0.2080771,-0.1724357 l 0.00748,-0.059653 C 3.407784,4.7745083 3.411079,4.7249317 3.5146593,4.6981064 c 0.00694,-0.00156 0.013869,-0.00311 0.020778,-0.00475 0.00164,-3.443e-4 0.00308,-7.144e-4 0.00475,-0.00106 l -2.07e-4,-5.18e-5 c 0.026152,-0.00631 0.052023,-0.013314 0.077649,-0.020929 l -2.589e-4,2.925e-4 c 0.00428,-0.00145 0.00818,-0.00262 0.012234,-0.00389 0.00388,-0.00119 0.00776,-0.00233 0.011628,-0.00354 0.104089,-0.029199 0.1316261,0.012104 0.2015543,0.098628 l 0.036343,0.047915 c 0.1014187,0.1363782 0.1462485,0.116399 0.2663744,0.045251 0.1216792,-0.068458 0.1613762,-0.097313 0.093979,-0.2533207 L 4.2161786,4.5472463 C 4.1733057,4.4358842 4.1509973,4.3927939 4.2498968,4.3064116 l -0.00262,6.082e-4 c 0.020441,-0.019375 0.040328,-0.039311 0.059702,-0.059754 l -5.565e-4,0.00262 c 0.086382,-0.098902 0.1294726,-0.076591 0.2408347,-0.033718 l 0.055405,0.023355 c 0.1560079,0.067397 0.1848625,0.0277 0.2533207,-0.093979 0.071148,-0.120126 0.091127,-0.165005 -0.045244,-0.2664148 L 4.7628147,3.842781 C 4.6762897,3.772852 4.6349857,3.745315 4.6641867,3.6412262 c 0.00122,-0.00387 0.00236,-0.00775 0.00354,-0.011628 0.00127,-0.00405 0.00238,-0.00795 0.00384,-0.012234 l -2.588e-4,2.588e-4 c 0.00761,-0.025628 0.014621,-0.051497 0.020929,-0.077649 l 5.18e-5,2.071e-4 c 3.442e-4,-0.00167 7.143e-4,-0.00312 0.00106,-0.00475 0.00164,-0.00691 0.0032,-0.013835 0.00475,-0.020778 0.026828,-0.1035817 0.076402,-0.1068766 0.1858825,-0.124107 l 0.059653,-0.00748 C 5.1124384,3.3634234 5.1176225,3.314592 5.1160698,3.1749836 5.1176304,3.0353778 5.1124396,2.9865441 4.9436337,2.9669065 l -0.059653,-0.00748 C 4.7745003,2.9421918 4.7249236,2.9389005 4.6980984,2.8353172 c -0.00156,-0.00694 -0.00311,-0.01387 -0.00475,-0.020778 -3.443e-4,-0.00164 -7.144e-4,-0.00308 -0.00106,-0.00475 l -5.18e-5,2.071e-4 c -0.00631,-0.026153 -0.013314,-0.052024 -0.020929,-0.077651 l 2.923e-4,2.586e-4 c -0.00145,-0.00428 -0.00262,-0.00818 -0.00389,-0.012234 -0.00119,-0.00388 -0.00233,-0.00776 -0.00354,-0.011629 -0.029199,-0.104089 0.012104,-0.1316261 0.098628,-0.2015545 L 4.810723,2.4708394 C 4.9470935,2.3694315 4.9271143,2.3246019 4.8559668,2.2044757 4.8089009,2.1208214 4.7805641,2.0758935 4.716744,2.0778917 4.687737,2.0788002 4.651399,2.0894367 4.602646,2.1104987 L 4.547241,2.1338037 C 4.4358784,2.176677 4.3927882,2.1989856 4.3064058,2.1000862 l 6.082e-4,0.00263 C 4.287639,2.0822742 4.267703,2.0623882 4.24726,2.0430142 l 0.00262,5.564e-4 C 4.1509853,1.9572012 4.1732966,1.914111 4.2161695,1.8027488 l 0.023355,-0.055405 c 0.067397,-0.1560084 0.0277,-0.1848628 -0.093979,-0.2533212 -0.060064,-0.035574 -0.1013273,-0.058364 -0.1402348,-0.055204 -0.038908,0.00316 -0.075475,0.032263 -0.1261802,0.1004498 l -0.036348,0.047925 c -0.069928,0.086525 -0.097465,0.1278291 -0.2015545,0.098628 -0.00387,-0.00122 -0.00775,-0.00235 -0.011629,-0.00354 -0.00405,-0.00127 -0.00795,-0.00238 -0.012234,-0.00384 l 2.588e-4,2.537e-4 c -0.025625,-0.00761 -0.051495,-0.01462 -0.077647,-0.020929 l 2.071e-4,-5.17e-5 c -0.00167,-3.282e-4 -0.00312,-7.224e-4 -0.00475,-0.00106 -0.00691,-0.00164 -0.013835,-0.0032 -0.020778,-0.00475 C 3.4110729,1.6250726 3.4077782,1.5754986 3.3905476,1.4660182 l -0.00748,-0.059653 C 3.3634341,1.2375581 3.3146018,1.2323763 3.174996,1.2339293 Z m -2.898e-4,0.8022218 c 1.036e-4,-2e-7 2.07e-4,-2e-7 2.898e-4,0 0.1311059,7.8e-6 0.2578167,0.022646 0.3762113,0.064203 0.022947,0.075095 0.073486,0.1387116 0.1414462,0.1780475 0.067912,0.039037 0.1480652,0.050972 0.2244041,0.033415 0.1864466,0.1602347 0.3217273,0.3805856 0.3737268,0.635405 0.013107,0.06419 -0.035944,0.1242646 -0.1014593,0.1242597 H 3.868913 C 3.823118,3.0714814 3.7827611,3.0414038 3.7696771,2.9975188 3.691145,2.734106 3.450046,2.5542444 3.1752189,2.5538561 c -0.048285,2.614e-4 -0.096396,0.00609 -0.1433174,0.017491 -0.044656,0.010845 -0.091116,-0.00904 -0.114098,-0.048834 L 2.7578535,2.245539 c -0.032688,-0.056648 -0.00532,-0.1290377 0.056669,-0.1498892 0.116078,-0.039073 0.237664,-0.059164 0.3601378,-0.0595 z m -0.68092,0.2613161 c 0.03523,0.00165 0.067195,0.021121 0.084827,0.051665 L 2.738558,2.6261041 c 0.022918,0.039692 0.017016,0.089726 -0.014509,0.1229966 -0.1090405,0.115092 -0.1699384,0.2674245 -0.1702619,0.4259587 1.812e-4,0.1586299 0.060965,0.3110893 0.1700108,0.426321 0.031499,0.03326 0.037401,0.083266 0.01451,0.1229449 L 2.5788128,4.0006539 c -0.03274,0.05671 -0.1092372,0.06917 -0.1582805,0.025782 C 2.2300789,3.8580143 2.1033604,3.6320287 2.0565636,3.3860874 c 0.05332,-0.05736 0.083004,-0.1327444 0.083108,-0.211059 -1.294e-4,-0.078287 -0.029844,-0.1536319 -0.08316,-0.2109579 0.046706,-0.2460502 0.1733471,-0.47216 0.3638392,-0.640711 0.020183,-0.017858 0.046533,-0.027144 0.073454,-0.025883 z m 1.375404,0.9810742 h 0.3190872 c 0.065515,-6e-6 0.1145691,0.06007 0.101459,0.1242597 -0.051984,0.2546719 -0.1871402,0.4749295 -0.3734418,0.6351461 -0.02481,-0.0057 -0.050226,-0.00833 -0.075677,-0.00783 -0.052021,0.00122 -0.1029012,0.015494 -0.1479689,0.041504 -0.067756,0.039284 -0.1181693,0.1027164 -0.1411433,0.1775919 -0.1184308,0.041737 -0.2452219,0.064516 -0.3764184,0.064656 -1.552e-4,5e-7 -3.183e-4,5e-7 -5.021e-4,0 C 3.0521579,4.3133847 2.9306264,4.2931361 2.8146493,4.2539571 2.7527324,4.2330523 2.7254254,4.1607222 2.7580798,4.1041158 L 2.9177759,3.8274769 c 0.022982,-0.039793 0.069442,-0.059678 0.1140983,-0.048834 0.046952,0.011406 0.095102,0.017232 0.1434184,0.017492 0.274905,-2.925e-4 0.5161096,-0.1801728 0.5946649,-0.443663 0.013084,-0.043885 0.053441,-0.073963 0.099236,-0.073958 z"
     style="color:#000000;fill:#cdcdcd;stroke-width:0.235186;enable-background:accumulate"
     id="path974" />
  <path
     id="path4344"
     style="opacity:0.4;fill:#000000;fill-opacity:1;stroke-width:1.6;stroke-linecap:round;stroke-linejoin:round"
     d="M 12,0 C 5.372583,1.2369363e-7 1.0909091e-7,5.372583 0,12 0,18.627416 5.372583,24 12,24 18.627417,24 24,18.627416 24,12 24,5.372583 18.627417,0 12,0 Z m 0,1 A 11,11 0 0 1 23,12 11,11 0 0 1 12,23 11,11 0 0 1 1,12 11,11 0 0 1 12,1 Z"
     transform="scale(0.26458333)" />
  <path
     id="path1110"
     style="fill:url(#linearGradient1198);fill-opacity:1;stroke-width:1;stroke-linecap:round;stroke-linejoin:round"
     d="m 12,1 c -6.0751324,-8e-8 -11.00000008,4.9248676 -11,11 2e-7,6.075132 4.9248676,11 11,11 6.075132,0 11,-4.924868 11,-11 C 23,5.9248676 18.075132,1.0000002 12,1 Z m 0,1 C 17.522848,2 22,6.4771525 22,12 22,17.522847 17.522847,22 12,22 6.4771525,22 2,17.522848 2,12 1.9999996,6.4771525 6.4771525,1.9999996 12,2 Z"
     transform="scale(0.26458333)" />
</svg>
