<svg width="22" height="22" version="1.1" xmlns="http://www.w3.org/2000/svg">
 <defs>
  <style id="current-color-scheme" type="text/css">.ColorScheme-Text { color:#666666; } .ColorScheme-Highlight { color:#4285f4; }</style>
 </defs>
 <path d="m18.5 15c-0.25 0-0.44371-0.0015-0.63281 0.01953-0.18911 0.02101-0.41535 0.0716-0.5957 0.25195-0.18035 0.18035-0.23094 0.4066-0.25195 0.5957s-0.019531 0.38281-0.019531 0.63281v2c0 0.25-0.0015 0.44371 0.01953 0.63281 0.02101 0.18911 0.0716 0.41535 0.25195 0.5957 0.18035 0.18035 0.4066 0.23094 0.5957 0.25195 0.18911 0.021012 0.38281 0.019531 0.63281 0.019531s0.44371 0.0015 0.63281-0.01953c0.18911-0.02101 0.41535-0.0716 0.5957-0.25195 0.18035-0.18035 0.23094-0.4066 0.25195-0.5957s0.019531-0.38281 0.019531-0.63281v-1.5h-1v1.5c0 0.23322-0.0031 0.39131-0.01172 0.48828-0.096974 0.008584-0.25506 0.011719-0.48828 0.011719s-0.39131-0.003135-0.48828-0.011719c-0.008584-0.096975-0.011719-0.25506-0.011719-0.48828v-2c0-0.23322 0.0031-0.39131 0.01172-0.48828 0.096974-0.008584 0.25506-0.011719 0.48828-0.011719h1.5v-1z" color="#666666" fill="#666666" stroke-linejoin="round" style="-inkscape-stroke:none"/>
 <path d="m13 15v2.5a0.50005 0.50005 0 0 0 0.5 0.5h1.5v2h1v-5h-1v2h-1v-2z" color="#666666" fill="#666666" stroke-linejoin="round" style="-inkscape-stroke:none"/>
</svg>
