<svg width="22" height="22" version="1.1" xmlns="http://www.w3.org/2000/svg">
 <defs>
  <style id="current-color-scheme" type="text/css">.ColorScheme-Text { color:#666666; } .ColorScheme-Highlight { color:#4285f4; }</style>
 </defs>
 <path d="m16.5 15c-0.25 0-0.44371-0.0015-0.63281 0.01953-0.18911 0.02101-0.41535 0.0716-0.5957 0.25195-0.18035 0.18035-0.23094 0.4066-0.25195 0.5957s-0.019531 0.38281-0.019531 0.63281v2c0 0.25-0.0015 0.44371 0.01953 0.63281 0.02101 0.18911 0.0716 0.41535 0.25195 0.5957 0.18035 0.18035 0.4066 0.23094 0.5957 0.25195s0.38281 0.019531 0.63281 0.019531h1.5v-1h-1.5c-0.23322 0-0.39131-0.0031-0.48828-0.01172-0.008584-0.096974-0.011719-0.25506-0.011719-0.48828v-2c0-0.23322 0.0031-0.39131 0.01172-0.48828 0.096974-0.008584 0.25506-0.011719 0.48828-0.011719h1.5v-1z" color="#666666" fill="#666666" stroke-linejoin="round" style="-inkscape-stroke:none"/>
</svg>
