<svg width="16" height="16" version="1.1" xmlns="http://www.w3.org/2000/svg">
 <path d="m6 0-1 0.25v0.75h1zm0 1v1h-1v-1h-0.00586c-1.259 0.014-2.1796-0.029234-2.9316 0.38477-0.376 0.208-0.67484 0.55905-0.83984 0.99805-0.164 0.438-0.22266 0.96019-0.22266 1.6172v3h1s0.062156-1.0056 0.16016-1.2656c0.097-0.26 0.20372-0.37066 0.38672-0.47266 0.367-0.202 1.195-0.24772 2.459-0.26172h5.9941c1.26 0.014 2.0871 0.060719 2.4531 0.26172 0.183 0.102 0.28972 0.21266 0.38672 0.47266 0.098 0.26 0.1582 1.2656 0.1582 1.2656v5c0 0.592-0.0602 1.0056-0.1582 1.2656-0.097 0.26-0.20372 0.37166-0.38672 0.47266-0.366 0.202-1.1941 0.24672-2.4531 0.26172h-6c-1.26-0.015-2.0861-0.059719-2.4531-0.26172-0.183-0.101-0.28972-0.21266-0.38672-0.47266-0.098-0.26-0.16016-0.67362-0.16016-1.2656v-1h-1v1c0 0.657 0.058656 1.1782 0.22266 1.6172 0.165 0.439 0.46384 0.78809 0.83984 0.99609 0.753 0.415 1.6736 0.37172 2.9316 0.38672h6.0117c1.258-0.015 2.1786 0.02828 2.9316-0.38672 0.38957-0.22098 0.68689-0.57444 0.83789-0.99609 0.165-0.439 0.22461-0.99019 0.22461-1.6172v-8c0-0.658-0.059609-1.1792-0.22461-1.6172-0.15138-0.42194-0.44854-0.7759-0.83789-0.99805-0.753-0.416-1.6736-0.36977-2.9316-0.38477h-0.005859v1h-1v-1zm4 0h1v-1l-1 0.25z" fill="#dfdfdf"/>
 <path d="m5.3618 6.035c-0.267-0.013-0.559 0.188-0.567 0.465v1.5h-3.5c-0.27178 0.01027-0.48973 0.22822-0.5 0.5v1c-3e-3 0.03126-3e-3 0.06274 0 0.094 0.044 0.229 0.267 0.41 0.5 0.406h3.5v1.5c0.011 0.369 0.524 0.606 0.813 0.375l3-2.5c0.21183-0.20513 0.21183-0.54487 0-0.75l-3-2.5c-0.0702-0.05558-0.15648-0.08713-0.246-0.09z" fill="#dfdfdf" overflow="visible"/>
</svg>
