<svg width="16" height="16" version="1.1" xmlns="http://www.w3.org/2000/svg">
 <path d="m15.584 9.4996c0-1.5001-0.64063-2.4925-1.5581-2.9739-0.91747-0.48145-2.0188-0.52616-3.0713-0.52616h-8.54v1.0001h8.54c1.012 0 1.9756 0.0804 2.6064 0.41146 0.6309 0.33106 1.0225 0.83854 1.0225 2.0885v4.5004h1.0005z" fill="#dfdfdf"/>
 <path d="m4.5837 9-2e-3 -5c-0.76042 0.34766-1.5346 0.73665-2.3228 1.1664-0.78078 0.43079-1.5339 0.87511-2.2589 1.3334 0.725 0.44911 1.4781 0.88918 2.2589 1.32 0.78862 0.42999 1.5632 0.82332 2.324 1.1802z" fill="#dfdfdf"/>
</svg>
