<?xml version="1.0" encoding="UTF-8" standalone="no"?>
<!-- Created with Inkscape (http://www.inkscape.org/) -->

<svg
   width="16"
   height="16"
   viewBox="0 0 4.2333332 4.2333335"
   version="1.1"
   id="svg5"
   inkscape:version="1.1.2 (0a00cf5339, 2022-02-04)"
   sodipodi:docname="applications-office.svg"
   xmlns:inkscape="http://www.inkscape.org/namespaces/inkscape"
   xmlns:sodipodi="http://sodipodi.sourceforge.net/DTD/sodipodi-0.dtd"
   xmlns:xlink="http://www.w3.org/1999/xlink"
   xmlns="http://www.w3.org/2000/svg"
   xmlns:svg="http://www.w3.org/2000/svg">
  <sodipodi:namedview
     id="namedview7"
     pagecolor="#ffffff"
     bordercolor="#666666"
     borderopacity="1.0"
     inkscape:pageshadow="2"
     inkscape:pageopacity="0.0"
     inkscape:pagecheckerboard="0"
     inkscape:document-units="px"
     showgrid="false"
     units="px"
     inkscape:zoom="11.313708"
     inkscape:cx="8.5736697"
     inkscape:cy="-4.9055533"
     inkscape:window-width="1920"
     inkscape:window-height="1012"
     inkscape:window-x="0"
     inkscape:window-y="0"
     inkscape:window-maximized="1"
     inkscape:current-layer="svg5" />
  <defs
     id="defs2">
    <linearGradient
       inkscape:collect="always"
       id="linearGradient17934">
      <stop
         style="stop-color:#e8e8e8;stop-opacity:1"
         offset="0"
         id="stop17930" />
      <stop
         style="stop-color:#f5f5f5;stop-opacity:1"
         offset="1"
         id="stop17932" />
    </linearGradient>
    <linearGradient
       inkscape:collect="always"
       id="linearGradient1871">
      <stop
         style="stop-color:#ffffff;stop-opacity:1;"
         offset="0"
         id="stop1867" />
      <stop
         style="stop-color:#ffffff;stop-opacity:0.1"
         offset="0.12"
         id="stop2515" />
      <stop
         style="stop-color:#ffffff;stop-opacity:0.102"
         offset="0.89999998"
         id="stop2581" />
      <stop
         style="stop-color:#ffffff;stop-opacity:0.502"
         offset="1"
         id="stop1869" />
    </linearGradient>
    <linearGradient
       inkscape:collect="always"
       xlink:href="#linearGradient1871"
       id="linearGradient915"
       x1="2.1166668"
       y1="0.26458332"
       x2="2.1166668"
       y2="3.96875"
       gradientUnits="userSpaceOnUse" />
    <linearGradient
       inkscape:collect="always"
       xlink:href="#linearGradient17934"
       id="linearGradient1003"
       x1="1.2844203"
       y1="0.132305"
       x2="3.175"
       y2="4.1010418"
       gradientUnits="userSpaceOnUse" />
    <linearGradient
       id="linearGradient1271"
       x1="140.45"
       x2="217.69"
       y1="291.42999"
       y2="214.2"
       gradientTransform="matrix(0.02985761,-5.5554504e-4,-5.5554504e-4,0.02985761,-0.0067114,4.8738414)"
       gradientUnits="userSpaceOnUse"
       xlink:href="#linearGradient4254" />
    <linearGradient
       id="linearGradient4254">
      <stop
         stop-color="#fff"
         offset="0"
         id="stop31" />
      <stop
         stop-color="#fff"
         stop-opacity=".3"
         offset="1"
         id="stop33" />
    </linearGradient>
    <linearGradient
       id="linearGradient1273"
       x1="299.57001"
       x2="373.31"
       y1="298.92999"
       y2="225.17999"
       gradientTransform="matrix(0.02985761,-5.5554504e-4,-5.5554504e-4,0.02985761,-0.0067114,4.8738414)"
       gradientUnits="userSpaceOnUse"
       xlink:href="#linearGradient4254" />
  </defs>
  <path
     d="m 1.3483433,0.264597 c -0.190238,0 -0.344435,0.0037 -0.48573797,0.02739 -0.141306,0.02373 -0.282644,0.0731 -0.39066,0.180867 -0.108013,0.107765 -0.157837,0.249563 -0.181374,0.391189 -0.02355,0.141629 -0.02677,0.29646 -0.02585,0.487309 v 0.765329 1.031462 c -7.94e-4,0.190013 0.0024,0.34458 0.02585,0.485759 0.02355,0.141626 0.07336,0.283425 0.181374,0.391189 0.108016,0.107768 0.249354,0.157147 0.39066,0.180867 0.14130297,0.02373 0.29549997,0.02739 0.48573797,0.02739 h 1.536798 c 0.190238,0 0.344096,-0.0036 0.485219,-0.02739 0.141126,-0.02376 0.28248,-0.07353 0.390142,-0.181383 0.107664,-0.107849 0.157167,-0.249425 0.180861,-0.390673 0.0237,-0.14125 0.02739,-0.295145 0.02739,-0.485759 V 2.11668 1.349801 c 0,-0.190614 -0.0037,-0.344509 -0.02739,-0.485759 -0.02368,-0.141248 -0.0732,-0.282824 -0.180861,-0.390673 -0.107662,-0.10785 -0.249016,-0.157634 -0.390142,-0.181383 -0.141123,-0.02376 -0.294981,-0.02739 -0.485219,-0.02739 z"
     style="color:#000000;font-style:normal;font-variant:normal;font-weight:normal;font-stretch:normal;font-size:medium;line-height:normal;font-family:sans-serif;font-variant-ligatures:normal;font-variant-position:normal;font-variant-caps:normal;font-variant-numeric:normal;font-variant-alternates:normal;font-feature-settings:normal;text-indent:0;text-align:start;text-decoration:none;text-decoration-line:none;text-decoration-style:solid;text-decoration-color:#000000;letter-spacing:normal;word-spacing:normal;text-transform:none;writing-mode:lr-tb;direction:ltr;text-orientation:mixed;dominant-baseline:auto;baseline-shift:baseline;text-anchor:start;white-space:normal;shape-padding:0;clip-rule:nonzero;display:inline;overflow:visible;visibility:visible;opacity:0.1;isolation:auto;mix-blend-mode:normal;color-interpolation:sRGB;color-interpolation-filters:linearRGB;solid-color:#000000;solid-opacity:1;vector-effect:none;fill:#000000;fill-opacity:1;fill-rule:nonzero;stroke:none;stroke-width:0.529156;stroke-linecap:butt;stroke-linejoin:miter;stroke-miterlimit:4;stroke-dasharray:none;stroke-dashoffset:0;stroke-opacity:1;marker:none;color-rendering:auto;image-rendering:auto;shape-rendering:auto;text-rendering:auto;enable-background:accumulate"
     id="path3731" />
  <path
     d="m 1.2844203,0.132305 c -0.80477297,0 -0.89136597,0.08175 -0.88742097,0.879292 V 2.11668 3.22176 c -0.0039,0.797541 0.08265,0.879295 0.88742097,0.879295 h 1.664615 c 0.804775,0 0.887423,-0.08174 0.887423,-0.879295 V 2.11668 1.011597 c 0,-0.797549 -0.08265,-0.879292 -0.887423,-0.879292 z"
     style="color:#000000;display:inline;overflow:visible;visibility:visible;fill:url(#linearGradient1003);fill-opacity:1;fill-rule:nonzero;stroke:none;stroke-width:0.264583;marker:none;enable-background:accumulate"
     id="path3851" />
  <path
     id="path47"
     d="M 0.79375,1.0583333 V 1.3229167 H 3.4612873 V 1.0583333 Z m 0,0.5291667 V 2.3812501 H 1.8520833 V 1.5875 Z m 0,1.0583334 V 2.9104167 H 3.4395833 V 2.6458334 Z m 0,0.5291667 V 3.4395834 H 2.9104166 V 3.1750001 Z"
     style="fill:#c8c4b7;fill-opacity:1;stroke-width:0.264583" />
  <path
     id="path49"
     d="M 2.3812499,1.5875 V 1.8520834 H 3.4395833 V 1.5875 Z m 0,0.5291668 V 2.3812501 H 2.9104166 V 2.1166668 Z"
     style="fill:#aea795;fill-opacity:1;stroke-width:0.264583" />
  <path
     id="path59"
     style="fill:#e7e7df;fill-opacity:1;stroke-width:0.264589"
     d="m 1.5115356,1.7285767 c -0.043837,0 -0.079582,0.035743 -0.079582,0.079582 0,0.043836 0.035744,0.079582 0.079582,0.079582 0.043837,0 0.079065,-0.035746 0.079065,-0.079582 0,-0.043839 -0.035228,-0.079582 -0.079065,-0.079582 z M 1.1622029,1.8619019 0.9523966,2.2231202 H 1.4288533 L 1.2898437,1.9564697 1.2505696,2.0314005 Z" />
  <g
     id="g2212"
     transform="matrix(-0.18708867,0.18708867,0.18708867,0.18708867,1.6955292,-1.1493793)">
    <path
       id="path65"
       style="fill:#636363;fill-opacity:1;stroke-width:0.50001"
       d="m 11.931641,10.998047 c 0,0 -2.4236357,0.345881 -4.4238285,0.724609 C 5.5196987,11.417898 3.1054688,11.162109 3.1054688,11.162109 l -0.015625,0.535157 c -1e-7,0 1.814386,0.01613 3.5644531,0.193359 -0.2644688,0.05578 -0.5150308,0.113694 -0.734375,0.167969 -1.0189143,0.252113 -2.7809109,1.59523 -2.7128907,1.771484 0.1172027,0.3037 0.5840937,0.265212 0.8691407,-0.05078 C 4.6049874,13.193029 5.2011378,12.635082 5.9394531,12.371094 6.3598646,12.220785 6.9080489,12.096499 7.5,11.992188 c 0.5895645,0.08241 1.1350114,0.187288 1.5507812,0.322265 0.7289996,0.236687 1.3031888,0.772855 1.8105468,1.339844 0.273481,0.305597 0.740552,0.325851 0.869141,0.01758 C 11.805098,13.492967 10.090313,12.214358 9.0800781,12 8.8606534,11.953439 8.6109588,11.905754 8.3457031,11.859375 10.105701,11.616149 11.927734,11.533203 11.927734,11.533203 Z" />
    <path
       id="path932"
       style="color:#000000;fill:#3b3b3b;fill-opacity:1;stroke-width:0.50001;-inkscape-stroke:none"
       d="m 9.9394531,10.568359 c -0.120422,0.0024 -0.2322285,0.0083 -0.3300781,0.01758 -0.4750074,0.04519 -1.0800951,0.158036 -1.5566406,0.291015 -0.2858058,0.07973 -0.2413323,0.072 -0.4609375,0.08399 -0.2597224,0.01415 -0.3110852,0.0092 -0.6367188,-0.06836 -0.338726,-0.0807 -0.6122568,-0.128334 -1.0214843,-0.179687 -0.4113384,-0.05166 -0.636054,-0.06212 -1.0332032,-0.04687 -0.431388,0.01656 -0.8157194,0.05893 -1.2832031,0.140625 -0.094915,0.01658 -0.2248421,0.04 -0.3378906,0.0625 -0.056524,0.01125 -0.1091495,0.02246 -0.1503907,0.03125 -0.041241,0.0088 -0.04969,0.0093 -0.099609,0.02539 h -0.00195 c -0.02644,0.0086 -0.1336281,0.08221 -0.1621094,0.146485 -0.028481,0.06428 -0.025462,0.09108 -0.027344,0.121093 -0.00376,0.06002 -0.00299,0.130083 -0.00195,0.271485 v 0.002 l 0.00586,0.349609 0.1152343,0.09766 c 0.032347,0.02753 0.057727,0.04303 0.085938,0.05859 1.468e-4,0.002 0.00448,0.0081 0.013672,0.03711 0.021243,0.06706 0.04885,0.196462 0.083984,0.384765 0.079193,0.424254 0.1337134,0.627381 0.2402344,0.853516 0.1511885,0.321006 0.394232,0.57943 0.703125,0.751953 0.1856786,0.103714 0.4087796,0.156 0.6796875,0.179688 0.1827313,0.01592 0.5032985,0.003 0.6835937,-0.02344 0.2728002,-0.04031 0.5400053,-0.113805 0.7480469,-0.212891 0.4516535,-0.215151 0.776322,-0.64845 0.984375,-1.242187 0.068365,-0.195191 0.1651476,-0.559717 0.1992187,-0.75 0.011422,-0.0638 0.022829,-0.101246 0.029297,-0.121094 0.017685,-0.0025 0.049984,-0.0068 0.1074219,-0.0078 0.047022,-5.53e-4 0.073596,0.002 0.091797,0.0039 0.00539,0.01895 0.012181,0.04673 0.019531,0.0957 0.028051,0.186654 0.1100782,0.536844 0.1679688,0.724609 0.1558467,0.505515 0.3989304,0.900315 0.7460937,1.13086 0.2352405,0.156205 0.5172031,0.244341 0.8886719,0.294922 0.2556427,0.03483 0.6394494,0.03123 0.8847654,-0.01172 0.324131,-0.05669 0.568696,-0.168653 0.820313,-0.376953 0.233807,-0.19365 0.419908,-0.470846 0.539062,-0.78125 0.06137,-0.159859 0.101325,-0.300851 0.167969,-0.597656 0.03153,-0.140395 0.05836,-0.265266 0.08008,-0.357422 0.01203,-0.05108 0.02714,-0.09708 0.03516,-0.123047 0.0067,-0.0042 0.01522,-0.01129 0.04883,-0.0332 l 0.158203,-0.103516 0.01953,-0.251953 c 0.005,-0.07064 0.01095,-0.151233 0.01367,-0.251953 0.0021,-0.07915 0.0043,-0.120803 0,-0.173828 -0.0022,-0.02651 -0.0016,-0.05893 -0.0332,-0.119141 -0.03164,-0.06022 -0.124743,-0.121311 -0.166015,-0.132813 -0.09811,-0.02737 -0.20585,-0.04139 -0.371094,-0.06641 -0.165243,-0.02502 -0.350271,-0.05127 -0.484375,-0.06641 -0.391554,-0.0442 -0.841456,-0.06375 -1.2031248,-0.05664 z M 9.671875,11.279297 h 0.00195 c 0.387695,-0.0079 0.772407,0.0582 1.054688,0.1875 0.134099,0.06142 0.286084,0.208279 0.324218,0.287109 0.01919,0.0397 0.03138,0.10133 0.02734,0.333985 -0.0085,0.48334 -0.112493,0.776563 -0.322266,0.992187 -0.138868,0.142721 -0.302681,0.229938 -0.552734,0.283203 -0.09131,0.01946 -0.141702,0.02456 -0.3632812,0.03125 -0.3008908,0.0091 -0.2817699,0.0099 -0.4492188,-0.01758 C 9.1524008,13.337498 8.9842413,13.265161 8.8457031,13.140625 8.7062057,13.015216 8.5875757,12.826356 8.4746094,12.541016 8.3850053,12.314517 8.3415516,12.098513 8.34375,11.917969 8.3454,11.784781 8.36381,11.714921 8.394531,11.666016 c 0.030203,-0.04808 0.08536,-0.09503 0.203125,-0.152344 0.2956592,-0.143918 0.6858207,-0.226239 1.074219,-0.234375 z m -4.3125,0.0625 c 0.4069868,-0.0087 0.8133492,0.06568 1.0996094,0.199219 0.1149977,0.05365 0.1629184,0.09407 0.1875,0.134765 0.025122,0.04158 0.039724,0.109116 0.037109,0.244141 -0.00471,0.242397 -0.081859,0.515497 -0.25,0.841797 -0.098499,0.190818 -0.1842377,0.313178 -0.2753907,0.402343 -0.1937224,0.189506 -0.4395303,0.292832 -0.8222656,0.330079 -0.418029,0.04064 -0.7657657,-0.01688 -0.9804687,-0.136719 -0.1245916,-0.06956 -0.2816637,-0.24631 -0.3476563,-0.400391 -0.081988,-0.191338 -0.1117806,-0.382094 -0.1054687,-0.730469 0.00218,-0.121741 0.00251,-0.186093 0.00586,-0.222656 0.00291,-0.03177 0.00603,-0.03997 0.015625,-0.06836 0.025034,-0.07404 0.1336889,-0.211755 0.2832031,-0.3125 0.090739,-0.06116 0.3674895,-0.16705 0.609375,-0.21875 0.1737998,-0.03714 0.3581124,-0.05853 0.5429688,-0.0625 z" />
    <path
       d="m 5.3541302,11.092694 c -0.1995369,0.0043 -0.3994511,0.02617 -0.5902596,0.06695 -0.2649976,0.05664 -0.5474457,0.156283 -0.696151,0.256509 -0.1812905,0.122165 -0.3275005,0.281284 -0.3806866,0.438571 -0.013041,0.03856 -0.022507,0.07463 -0.027215,0.126015 -0.00471,0.05141 -0.0063,0.119787 -0.0085,0.242082 -0.00662,0.366122 0.028139,0.603031 0.1262852,0.832096 l -5.51e-5,1e-6 c 0.089897,0.209885 0.268909,0.416653 0.456623,0.521473 0.2802775,0.156439 0.6748663,0.211019 1.1266974,0.167095 0.4202141,-0.04088 0.7327955,-0.167146 0.9721746,-0.401328 0.1167582,-0.114217 0.2171287,-0.260901 0.323298,-0.466889 0.1798379,-0.348994 0.2721425,-0.659401 0.2777925,-0.951066 0.00301,-0.155841 -0.014078,-0.277033 -0.074571,-0.37717 C 6.7990684,11.446892 6.7002974,11.377658 6.5641837,11.314157 6.2300833,11.158298 5.7931055,11.083304 5.3541167,11.092708 Z"
       fill="url(#linearGradient1271)"
       opacity="0.5"
       stroke-width="0.494309"
       id="path71"
       style="fill:url(#linearGradient1271)" />
    <path
       d="m 9.6668736,11.030074 c -0.4187631,0.0088 -0.8397461,0.09393 -1.1782703,0.258716 -0.1386418,0.06748 -0.2408418,0.141102 -0.3055484,0.244111 -0.064712,0.10301 -0.086765,0.225844 -0.088679,0.381089 -0.0027,0.22187 0.049275,0.468824 0.1485348,0.719734 0.1210897,0.305859 0.257218,0.531242 0.4361528,0.692131 0.1789462,0.160874 0.3990997,0.253218 0.6722275,0.298082 0.1700599,0.02792 0.1954836,0.02929 0.4975655,0.02018 0.2248865,-0.0068 0.3033245,-0.01361 0.4092205,-0.03618 0.285698,-0.06085 0.503688,-0.172654 0.678772,-0.352605 0.262966,-0.270274 0.384118,-0.642262 0.393189,-1.16232 a 0.07745302,0.08090965 60.754888 0 0 10e-7,-5.6e-5 c 0.0042,-0.240772 -0.0056,-0.352207 -0.0519,-0.4479 -0.07713,-0.159425 -0.260518,-0.320145 -0.446338,-0.405227 -0.329647,-0.15099 -0.746192,-0.21853 -1.1649547,-0.209755 z"
       fill="url(#linearGradient1273)"
       opacity="0.5"
       stroke-width="0.494309"
       id="path73"
       style="fill:url(#linearGradient1273)" />
    <path
       id="path75"
       d="m 8.3378906,11.537109 c -0.018721,0.01911 -0.035594,0.03948 -0.048828,0.06055 -0.046563,0.07412 -0.066582,0.168449 -0.068359,0.3125 -0.00245,0.200891 0.046081,0.434837 0.140625,0.673828 0.1171152,0.295825 0.2443058,0.502649 0.4042969,0.646485 0.1595062,0.143399 0.3546465,0.225396 0.6113281,0.267578 0.1687476,0.0277 0.1711751,0.02863 0.4726563,0.01953 0.2232121,-0.0067 0.2883711,-0.01224 0.3867191,-0.0332 0.207749,-0.04424 0.367802,-0.114915 0.501953,-0.21875 -0.111642,0.06477 -0.239915,0.110509 -0.396484,0.142578 -0.099,0.02029 -0.163606,0.02637 -0.3886725,0.03125 -0.3039928,0.0066 -0.3080975,0.006 -0.4785156,-0.02344 C 9.2153484,13.371268 9.0195288,13.286641 8.8574219,13.140625 8.6948083,12.994169 8.5640301,12.783742 8.4433594,12.484375 8.3459444,12.242516 8.2961343,12.007309 8.296875,11.804688 c 4.4e-4,-0.116005 0.012379,-0.200403 0.041016,-0.267579 z m -4.4707031,0.195313 c -0.040008,0.05204 -0.069792,0.102646 -0.085937,0.15039 -0.011613,0.03434 -0.017504,0.06008 -0.021484,0.103516 -0.00416,0.04537 -0.00561,0.112293 -0.00781,0.234375 -0.00651,0.358988 0.027227,0.576487 0.1191407,0.791016 0.080743,0.188267 0.2506089,0.385308 0.4140624,0.476562 0.2551773,0.142426 0.6321935,0.196887 1.0703126,0.154297 0.322796,-0.0314 0.5676464,-0.111486 0.765625,-0.251953 -0.1783487,0.09726 -0.3924817,0.154537 -0.6601563,0.177734 -0.442394,0.03831 -0.8225617,-0.02123 -1.0820347,-0.167968 C 4.2126898,13.306369 4.0367855,13.105227 3.953125,12.914062 3.857887,12.696233 3.821536,12.476081 3.8242188,12.113281 c 8.967e-4,-0.123382 0.00215,-0.192461 0.00586,-0.238281 0.00355,-0.04386 0.010117,-0.06697 0.021484,-0.101562 0.00435,-0.01325 0.00928,-0.02726 0.015625,-0.04102 z"
       style="opacity:0.5;fill:#ffffff" />
  </g>
  <path
     d="m 1.3017503,0.264607 c -0.37784097,0 -0.57122197,0.03201 -0.65086697,0.103696 -0.03982,0.03584 -0.06928,0.08775 -0.09077,0.188304 -0.02148,0.100557 -0.03094,0.244424 -0.03094,0.435419 v 1.124659 1.124659 c 0,0.190998 0.0094,0.334862 0.03094,0.43542 0.02148,0.100557 0.05095,0.152458 0.09077,0.188304 0.07964,0.07169 0.273026,0.103695 0.65086697,0.103695 h 1.629751 c 0.377936,0 0.572397,-0.03194 0.652415,-0.103695 0.04001,-0.03588 0.06949,-0.08742 0.09077,-0.187788 0.02125,-0.100365 0.03045,-0.244544 0.0294,-0.435417 V 3.241334 2.116685 0.992026 0.991497 c 0.0011,-0.190873 -0.0081,-0.335053 -0.0294,-0.435417 -0.02127,-0.100364 -0.05076,-0.151905 -0.09077,-0.187788 -0.08002,-0.07176 -0.274479,-0.103695 -0.652415,-0.103695 z m 0.611674,0.271881 c 0.240009,-2.65e-4 0.47997,-2.65e-4 0.719976,0.0011 0.24038,0.0087 0.483854,-0.01283 0.722043,0.0263 0.06492,-0.0045 0.05335,0.07245 0.0624,0.115562 0.0199,0.741997 0.01408,1.499798 0.01135,2.248807 -0.006,0.225946 0.0043,0.450837 -0.01807,0.673246 0.0032,0.08312 -0.09426,0.06942 -0.152144,0.08254 -0.55005,0.01611 -1.116346,0.0097 -1.673587,0.0098 -0.233955,-0.008 -0.470361,0.01148 -0.70244497,-0.02267 -0.06701,0.0067 -0.05625,-0.06917 -0.06808,-0.11247 -0.02117,-0.765444 -0.01423,-1.541465 -0.01135,-2.312257 0.0073,-0.208933 -0.0067,-0.416597 0.02061,-0.624755 -0.0061,-0.07268 0.07841,-0.05634 0.124809,-0.06965 C 1.2695083,0.530031 1.5920933,0.541461 1.9133793,0.536561 Z"
     style="color:#000000;display:inline;overflow:visible;visibility:visible;opacity:0.7;fill:url(#linearGradient915);fill-opacity:1;fill-rule:nonzero;stroke:none;stroke-width:0.2641;marker:none;enable-background:accumulate"
     id="path4135" />
  <path
     d="m 1.3012133,1.3e-5 c -0.38711497,0 -0.64589797,0.0083 -0.82733897,0.171567 -0.09072,0.08165 -0.144018,0.195932 -0.172601,0.329694 -0.02858,0.133766 -0.03669,0.292026 -0.03669,0.490927 V 2.11668 3.241159 c 0,0.198901 0.0081,0.357161 0.03669,0.490926 0.02858,0.133766 0.08188,0.248045 0.172601,0.329695 0.181441,0.163304 0.440224,0.171567 0.82733897,0.171567 h 1.630391 c 0.38721,0 0.64738,-0.0078 0.829406,-0.171048 0.09101,-0.08162 0.144208,-0.196255 0.1726,-0.330214 0.02836,-0.133818 0.03615,-0.2922 0.03514,-0.490926 V 3.24063 2.11668 0.992717 0.992187 c 0.0011,-0.198725 -0.0068,-0.357108 -0.03514,-0.490926 -0.02839,-0.133958 -0.08159,-0.248597 -0.1726,-0.330213 C 3.5789823,0.007818 3.3188143,0 2.9316043,0 Z m 0,0.264584 h 1.630391 c 0.377997,0 0.572728,0.03218 0.652672,0.10387 0.03997,0.03584 0.06917,0.08723 0.09043,0.187584 0.02127,0.100351 0.03044,0.244226 0.02946,0.435115 v 5.29e-4 1.124995 1.124996 5.29e-4 c 0.0011,0.190889 -0.0082,0.334761 -0.02946,0.435115 -0.02127,0.100351 -0.05046,0.151738 -0.09043,0.187584 -0.07994,0.07167 -0.274675,0.103849 -0.652672,0.103849 h -1.630391 c -0.37790197,0 -0.57103497,-0.03174 -0.65060797,-0.103354 -0.03979,-0.03581 -0.06895,-0.08807 -0.09043,-0.188619 -0.02148,-0.100547 -0.03101,-0.24462 -0.03101,-0.435631 V 2.11668 0.992201 c 0,-0.191011 0.0095,-0.335084 0.03101,-0.435631 0.02148,-0.10055 0.05065,-0.152813 0.09043,-0.188622 0.07957,-0.07161 0.272706,-0.103351 0.65060797,-0.103351 z"
     style="color:#000000;display:inline;opacity:0.4;fill:#000000;stroke-width:0.264583;-inkscape-stroke:none;enable-background:new"
     id="path4015" />
</svg>
