<?xml version="1.0" encoding="UTF-8" standalone="no"?>
<!-- Created with Inkscape (http://www.inkscape.org/) -->

<svg
   width="16"
   height="16"
   viewBox="0 0 4.2333333 4.2333333"
   version="1.1"
   id="svg1003"
   sodipodi:docname="multimedia-video-player.svg"
   inkscape:version="1.1.2 (0a00cf5339, 2022-02-04)"
   xmlns:inkscape="http://www.inkscape.org/namespaces/inkscape"
   xmlns:sodipodi="http://sodipodi.sourceforge.net/DTD/sodipodi-0.dtd"
   xmlns:xlink="http://www.w3.org/1999/xlink"
   xmlns="http://www.w3.org/2000/svg"
   xmlns:svg="http://www.w3.org/2000/svg">
  <sodipodi:namedview
     id="namedview1005"
     pagecolor="#ffffff"
     bordercolor="#666666"
     borderopacity="1.0"
     inkscape:pageshadow="2"
     inkscape:pageopacity="0.0"
     inkscape:pagecheckerboard="0"
     inkscape:document-units="px"
     showgrid="false"
     units="px"
     showguides="false"
     inkscape:lockguides="true"
     inkscape:zoom="17.500893"
     inkscape:cx="-0.085709913"
     inkscape:cy="13.113617"
     inkscape:window-width="1920"
     inkscape:window-height="1010"
     inkscape:window-x="0"
     inkscape:window-y="0"
     inkscape:window-maximized="1"
     inkscape:current-layer="svg1003" />
  <defs
     id="defs1000">
    <linearGradient
       inkscape:collect="always"
       id="linearGradient2830">
      <stop
         style="stop-color:#f5f5f5;stop-opacity:1;"
         offset="0"
         id="stop2826" />
      <stop
         style="stop-color:#f1d7e9;stop-opacity:1"
         offset="1"
         id="stop2828" />
    </linearGradient>
    <linearGradient
       inkscape:collect="always"
       id="linearGradient17934">
      <stop
         style="stop-color:#d280b9;stop-opacity:1"
         offset="0"
         id="stop17930" />
      <stop
         style="stop-color:#b549b5;stop-opacity:1"
         offset="0.5"
         id="stop1324" />
      <stop
         style="stop-color:#8549a8;stop-opacity:1"
         offset="1"
         id="stop17932" />
    </linearGradient>
    <linearGradient
       inkscape:collect="always"
       xlink:href="#linearGradient1871"
       id="linearGradient16320"
       x1="10"
       y1="4"
       x2="10"
       y2="29.100245"
       gradientUnits="userSpaceOnUse"
       gradientTransform="matrix(0.13229166,0,0,0.12211538,0,0.04070512)" />
    <linearGradient
       inkscape:collect="always"
       id="linearGradient1871">
      <stop
         style="stop-color:#ffffff;stop-opacity:1;"
         offset="0"
         id="stop1867" />
      <stop
         style="stop-color:#ffffff;stop-opacity:0.1"
         offset="0.12"
         id="stop2515" />
      <stop
         style="stop-color:#ffffff;stop-opacity:0.102"
         offset="0.89999998"
         id="stop2581" />
      <stop
         style="stop-color:#ffffff;stop-opacity:0.502"
         offset="1"
         id="stop1869" />
    </linearGradient>
    <linearGradient
       inkscape:collect="always"
       xlink:href="#linearGradient17934"
       id="linearGradient17936"
       x1="-1.0583333"
       y1="-0.13229164"
       x2="5.2930031"
       y2="4.8961282"
       gradientUnits="userSpaceOnUse" />
    <linearGradient
       inkscape:collect="always"
       xlink:href="#linearGradient2830"
       id="linearGradient2832"
       x1="1.3229167"
       y1="3.0427084"
       x2="1.3230962"
       y2="1.190625"
       gradientUnits="userSpaceOnUse" />
  </defs>
  <path
     d="M 1.0583333,0.396875 H 3.175 c 0.7935019,1.919e-4 0.9259876,0.157244 0.9260416,0.9921875 V 2.8376562 C 4.1009876,3.6238466 3.9685019,3.8366501 3.175,3.8364583 H 1.0583333 c -0.79355622,0 -0.92604169,-0.2128036 -0.92604169,-0.9988021 V 1.3890625 c 0,-0.7859985 0.13248546,-0.9921875 0.92604169,-0.9921875 z"
     style="fill:url(#linearGradient17936);fill-opacity:1;stroke-width:0.0653156;stroke-linejoin:round"
     id="path17503"
     sodipodi:nodetypes="sccccssss" />
  <path
     id="rect1196"
     style="fill:#ffffff;fill-opacity:1;stroke-width:0.999999;stroke-linecap:round;stroke-linejoin:round;opacity:0.1"
     d="M 0.5 8 L 0.5 10.724609 C 0.5 13.695312 1.0007324 14.5 4 14.5 L 12 14.5 C 14.999062 14.500725 15.499796 13.696038 15.5 10.724609 L 15.5 8 L 0.5 8 z "
     transform="scale(0.26458333)" />
  <path
     d="m 1.3229167,1.4558168 v 1.8516071 c 0,0 0.8751193,-0.3795713 1.6404167,-0.9263856 0,-1.27e-4 -1.346e-4,-1.852e-4 -1.346e-4,-5.292e-4 C 2.963138,2.3803239 2.9630141,2.3802445 2.9626709,2.3797154 2.9625391,2.3795831 2.9624862,2.3794508 2.9624072,2.3789216 2.9622726,2.3787364 2.9622726,2.3783924 2.9622726,2.3781279 2.1551522,1.8138775 1.3230961,1.4552083 1.3230961,1.4552083 Z"
     style="color:#000000;opacity:0.1;fill:#000000;fill-opacity:1;stroke-width:0.264226"
     id="path886"
     sodipodi:nodetypes="ccccccccc" />
  <path
     d="m 1.3229167,1.1912334 v 1.8514749 c 0,0 0.8751195,-0.3795444 1.6404167,-0.9263196 0,-1.27e-4 -1.346e-4,-1.852e-4 -1.346e-4,-5.29e-4 C 2.9631381,2.1156745 2.9630143,2.1155951 2.962671,2.1150659 2.9625391,2.1149336 2.9624863,2.1148013 2.9624072,2.1142723 2.9622726,2.1140871 2.9622726,2.1137431 2.9622726,2.1134785 2.1551522,1.5492685 1.3230961,1.190625 1.3230961,1.190625 Z"
     style="color:#000000;fill:url(#linearGradient2832);fill-opacity:1;stroke:none;stroke-width:0.069907"
     id="path948" />
  <path
     id="rect7040"
     style="opacity:0.4;stroke-width:0.264583;stroke-linejoin:round"
     d="M 1.0583333,0.26458333 C 0.21187339,0.26458333 0,0.47645663 0,1.3229166 v 1.5875 C 0,3.7568766 0.21187339,3.96875 1.0583333,3.96875 H 3.175 C 4.021402,3.9689566 4.2332756,3.7570833 4.2333333,2.9104166 v -1.5875 C 4.2332756,0.42374666 4.021402,0.26478997 3.175,0.26458333 Z M 0.94929604,0.52916666 H 1.3229166 3.175 c 0.5820833,0 0.79375,-2.9e-7 0.79375,0.79374994 v 0.1829346 1.2216309 0.1829345 c 0,0.79375 -0.2116667,0.79375 -0.79375,0.79375 H 1.3229166 1.0583333 c -0.5820832,0 -0.79374997,0 -0.79374997,-0.79375 V 2.7274821 1.5058512 1.3229166 c 0,-0.74414078 0.16294232,-0.79084294 0.68471271,-0.79374994 z"
     sodipodi:nodetypes="ssssccccsccssccsscssccsc" />
  <path
     id="rect13250"
     style="opacity:1;fill:url(#linearGradient16320);fill-opacity:1;stroke-width:0.127101;stroke-linejoin:round"
     d="M 0.94929604,0.52916666 C 0.4275256,0.53207345 0.26458333,0.5787759 0.26458333,1.3229166 v 0.1829346 1.2216309 0.1829345 c 0,0.79375 0.21166674,0.79375 0.79374997,0.79375 H 1.3229166 3.175 c 0.5820833,0 0.79375,0 0.79375,-0.79375 V 2.7274821 1.5058512 1.3229166 C 3.96875,0.52916642 3.7570833,0.52916666 3.175,0.52916666 H 1.3229166 Z m 0.0847494,0.26458333 c 0.0079,-4.458e-5 0.016138,0 0.024288,0 H 3.175 c 0.5216072,0 0.5291666,0.0892859 0.5291666,0.52916661 v 1.5875 c 0,0.4398807 -0.00756,0.5291667 -0.5291666,0.5291667 H 1.0583333 c -0.52160723,0 -0.52916664,-0.089286 -0.52916664,-0.5291667 v -1.5875 c 0,-0.4330075 0.007113,-0.52635721 0.50487874,-0.52916661 z"
     sodipodi:nodetypes="csccsscssccssccssssssssss" />
</svg>
