<?xml version="1.0" encoding="UTF-8" standalone="no"?>
<!-- Created with Inkscape (http://www.inkscape.org/) -->

<svg
   width="16"
   height="16"
   viewBox="0 0 4.2333333 4.2333333"
   version="1.1"
   id="svg1003"
   sodipodi:docname="preferences-system-splash.svg"
   inkscape:version="1.1.2 (0a00cf5339, 2022-02-04)"
   xmlns:inkscape="http://www.inkscape.org/namespaces/inkscape"
   xmlns:sodipodi="http://sodipodi.sourceforge.net/DTD/sodipodi-0.dtd"
   xmlns:xlink="http://www.w3.org/1999/xlink"
   xmlns="http://www.w3.org/2000/svg"
   xmlns:svg="http://www.w3.org/2000/svg">
  <sodipodi:namedview
     id="namedview1005"
     pagecolor="#ffffff"
     bordercolor="#666666"
     borderopacity="1.0"
     inkscape:pageshadow="2"
     inkscape:pageopacity="0.0"
     inkscape:pagecheckerboard="0"
     inkscape:document-units="px"
     showgrid="false"
     units="px"
     showguides="true"
     inkscape:lockguides="true"
     inkscape:zoom="17.500893"
     inkscape:cx="7.1139228"
     inkscape:cy="8.1138717"
     inkscape:window-width="1920"
     inkscape:window-height="995"
     inkscape:window-x="0"
     inkscape:window-y="0"
     inkscape:window-maximized="1"
     inkscape:current-layer="svg1003" />
  <defs
     id="defs1000">
    <linearGradient
       inkscape:collect="always"
       id="linearGradient17934">
      <stop
         style="stop-color:#3daee9;stop-opacity:1"
         offset="0"
         id="stop17930" />
      <stop
         style="stop-color:#0e8dff;stop-opacity:1"
         offset="1"
         id="stop17932" />
    </linearGradient>
    <linearGradient
       inkscape:collect="always"
       xlink:href="#linearGradient1871"
       id="linearGradient1412"
       x1="2.1166666"
       y1="0.26458332"
       x2="2.1166666"
       y2="3.96875"
       gradientUnits="userSpaceOnUse" />
    <linearGradient
       inkscape:collect="always"
       id="linearGradient1871">
      <stop
         style="stop-color:#ffffff;stop-opacity:1;"
         offset="0"
         id="stop1867" />
      <stop
         style="stop-color:#ffffff;stop-opacity:0.1"
         offset="0.12"
         id="stop2515" />
      <stop
         style="stop-color:#ffffff;stop-opacity:0.102"
         offset="0.89999998"
         id="stop2581" />
      <stop
         style="stop-color:#ffffff;stop-opacity:0.502"
         offset="1"
         id="stop1869" />
    </linearGradient>
    <linearGradient
       inkscape:collect="always"
       xlink:href="#linearGradient17934"
       id="linearGradient1055"
       x1="4.3656249"
       y1="2.6458333"
       x2="0.12312888"
       y2="0.79965466"
       gradientUnits="userSpaceOnUse" />
  </defs>
  <circle
     style="fill:url(#linearGradient1055);fill-opacity:1;stroke-width:0.176389;stroke-linecap:round;stroke-linejoin:round"
     id="path986"
     cx="2.1166666"
     cy="2.1166666"
     r="1.984375" />
  <path
     id="path1124"
     style="opacity:0.4;fill:#000000;stroke-width:0.529167;stroke-linecap:round;stroke-linejoin:round"
     d="M 2.1166666,0 A 2.1166665,2.1166665 0 0 0 0,2.1166667 2.1166665,2.1166665 0 0 0 2.1166666,4.2333333 2.1166665,2.1166665 0 0 0 4.2333332,2.1166667 2.1166665,2.1166665 0 0 0 2.1166666,0 Z m 0,0.26458333 A 1.8520833,1.8520833 0 0 1 3.9687499,2.1166667 1.8520833,1.8520833 0 0 1 2.1166666,3.96875 1.8520833,1.8520833 0 0 1 0.26458333,2.1166667 1.8520833,1.8520833 0 0 1 2.1166666,0.26458333 Z" />
  <path
     id="path1324"
     style="fill:url(#linearGradient1412);fill-opacity:1;stroke-width:0.529167;stroke-linecap:round;stroke-linejoin:round"
     d="M 2.1166666,0.26458333 A 1.8520833,1.8520833 0 0 0 0.26458333,2.1166667 1.8520833,1.8520833 0 0 0 2.1166666,3.96875 1.8520833,1.8520833 0 0 0 3.9687499,2.1166667 1.8520833,1.8520833 0 0 0 2.1166666,0.26458333 Z m 0,0.26458333 a 1.5875,1.5875 0 0 1 1.5875,1.58750004 1.5875,1.5875 0 0 1 -1.5875,1.5875 1.5875,1.5875 0 0 1 -1.58749996,-1.5875 1.5875,1.5875 0 0 1 1.58749996,-1.58750004 z" />
  <circle
     cx="2.1083939"
     cy="1.1605043"
     r="0.16831683"
     opacity="0.6"
     style="fill:#ffffff;stroke-width:0.0177176;paint-order:stroke fill markers"
     id="circle26" />
  <circle
     cx="2.1083939"
     cy="3.0562832"
     r="0.16831683"
     style="fill:#ffffff;stroke-width:0.0177176;paint-order:stroke fill markers"
     id="circle28" />
  <circle
     cx="3.0562832"
     cy="2.1083937"
     r="0.16831683"
     opacity="0.4"
     style="fill:#ffffff;stroke-width:0.0177176;paint-order:stroke fill markers"
     id="circle30" />
  <circle
     cx="1.1605043"
     cy="2.1083937"
     r="0.16831683"
     opacity="0.8"
     style="fill:#ffffff;stroke-width:0.0177176;paint-order:stroke fill markers"
     id="circle32" />
  <circle
     cx="2.7807753"
     cy="1.4404418"
     r="0.16831683"
     opacity="0.5"
     style="fill:#ffffff;stroke-width:0.0177176;paint-order:stroke fill markers"
     id="circle34" />
  <circle
     cx="1.441505"
     cy="1.4370755"
     r="0.16831683"
     opacity="0.7"
     style="fill:#ffffff;stroke-width:0.0177176;paint-order:stroke fill markers"
     id="circle36" />
  <circle
     transform="rotate(-90)"
     cx="-2.7814839"
     cy="1.439733"
     r="0.16831683"
     opacity="0.9"
     style="fill:#ffffff;stroke-width:0.0177176;paint-order:stroke fill markers"
     id="circle38" />
  <circle
     cx="2.7795351"
     cy="2.7749281"
     r="0.16831683"
     opacity="0.3"
     style="fill:#ffffff;stroke-width:0.0177176;paint-order:stroke fill markers"
     id="circle40" />
</svg>
