<svg width="16" height="16" enable-background="new" version="1.0" xmlns="http://www.w3.org/2000/svg" xmlns:xlink="http://www.w3.org/1999/xlink">
 <title>Suru Icon Theme Template</title>
 <defs>
  <linearGradient id="linearGradient920" x1="459.03" x2="35.31" y1="419.23" y2="207.37" gradientTransform="matrix(0 -.036044 .036043 0 316.44 252.91)" gradientUnits="userSpaceOnUse">
   <stop stop-color="#f2f2f2" offset="0"/>
   <stop stop-color="#f9f9f9" offset="1"/>
  </linearGradient>
  <linearGradient id="linearGradient993" x1="328" x2="328" y1="237" y2="251" gradientUnits="userSpaceOnUse">
   <stop stop-color="#fff" offset="0"/>
   <stop stop-color="#fff" stop-opacity=".098039" offset=".125"/>
   <stop stop-color="#fff" stop-opacity=".098039" offset=".925"/>
   <stop stop-color="#fff" stop-opacity=".49804" offset="1"/>
  </linearGradient>
  <filter id="filter1262" x="-.027" y="-.027" width="1.054" height="1.054" color-interpolation-filters="sRGB">
   <feGaussianBlur stdDeviation="0.090000007"/>
  </filter>
  <filter id="filter1256" x="-.027" y="-.027" width="1.054" height="1.054" color-interpolation-filters="sRGB">
   <feGaussianBlur stdDeviation="0.090000007"/>
  </filter>
 </defs>
 <g transform="translate(-144.03 -237.55)">
  <g>
   <g transform="translate(-175.97 1.5528)" enable-background="new">
    <rect x="320" y="236" width="16" height="16" enable-background="accumulate" opacity="0" stroke-width="2"/>
    <path d="m325.1 237c-0.71904 0-1.3018 0.0139-1.8359 0.10352-0.53409 0.0897-1.0683 0.27628-1.4766 0.68359-0.40826 0.4073-0.59657 0.94323-0.68554 1.4785-0.089 0.53529-0.10119 1.1205-0.0977 1.8418v2.8926 3.8984c-3e-3 0.71816 9e-3 1.3024 0.0977 1.8359 0.089 0.53528 0.27727 1.0712 0.68554 1.4785 0.40827 0.40731 0.94248 0.59394 1.4766 0.68359 0.53408 0.0897 1.1169 0.10352 1.8359 0.10352h5.8086c0.71904 0 1.3006-0.0137 1.834-0.10352 0.53341-0.0898 1.0677-0.27792 1.4746-0.68554s0.59404-0.94271 0.68359-1.4766c0.08956-0.53386 0.10352-1.1155 0.10352-1.8359v-3.8984-3l-4-4z" color="#000000" color-rendering="auto" dominant-baseline="auto" enable-background="accumulate" image-rendering="auto" opacity=".1" shape-rendering="auto" solid-color="#000000" style="font-feature-settings:normal;font-variant-alternates:normal;font-variant-caps:normal;font-variant-ligatures:normal;font-variant-numeric:normal;font-variant-position:normal;isolation:auto;mix-blend-mode:normal;shape-padding:0;text-decoration-color:#000000;text-decoration-line:none;text-decoration-style:solid;text-indent:0;text-orientation:mixed;text-transform:none;white-space:normal"/>
    <path d="m325.1 237c-2.8077 0-3.1098 0.28839-3.096 3.1018v3.8982 3.8982c-0.0138 2.8134 0.28834 3.1018 3.096 3.1018h5.8075c2.8077 0 3.096-0.28835 3.096-3.1018v-3.8982-4l-3-3z" color="#000000" enable-background="accumulate" fill="none" opacity=".2" stroke="#000" stroke-width="2"/>
    <path d="m325.1 237c-2.8077 0-3.1098 0.28839-3.096 3.1018v3.8982 3.8982c-0.0138 2.8134 0.28834 3.1018 3.096 3.1018h5.8075c2.8077 0 3.096-0.28835 3.096-3.1018v-3.8982-4l-3-3z" color="#000000" enable-background="accumulate" fill="url(#linearGradient920)"/>
    <path d="m324 242v0.5h7v-0.5zm0 2v0.5h8v-0.5z" enable-background="new" fill="#5884f4"/>
    <path d="m327 247v0.5h5v-0.5zm-3 2v0.5h5v-0.5z" enable-background="new" fill="#b3b3b3"/>
    <path d="m327 246v0.5h5v-0.5z" enable-background="new" fill="#c43ac4"/>
    <path d="m324 246v0.5h2v-0.5z" enable-background="new" fill="#8c59d9"/>
    <path d="m327 248v0.5h3v-0.5z" enable-background="new" fill="#76c22b"/>
    <path d="m324 248v0.5h2v-0.5z" enable-background="new" fill="#f22c42"/>
    <path d="m328 237v14h2.9043c2.8077 0 3.0957-0.28815 3.0957-3.1016v-3.8984-4l-3-3z" color="#000000" enable-background="accumulate" fill="#fff" opacity=".2"/>
    <path d="m322 244v3.8984c-0.0138 2.8134 0.28801 3.1016 3.0957 3.1016h5.8086c2.8077 0 3.0957-0.28815 3.0957-3.1016v-3.8984z" color="#000000" enable-background="accumulate" fill="#fff" opacity=".2"/>
    <path d="m325.1 237c-2.8077 0-3.1095 0.28819-3.0957 3.1016v3.8984 3.8984c-0.0138 2.8134 0.28801 3.1016 3.0957 3.1016h5.8086c2.8077 0 3.0957-0.28815 3.0957-3.1016v-3.8984-4l-3-3zm0 1h5.9043l2 2v4 3.8984c0 0.68627-0.022 1.1944-0.0742 1.5059-0.0522 0.31147-0.11279 0.37642-0.1289 0.39258-0.0161 0.0161-0.0803 0.0767-0.39063 0.1289-0.31036 0.05222-0.81716 0.07422-1.502 0.07422h-5.8086c-0.6848 0-1.1921-0.0238-1.5039-0.0762-0.3118-0.0523-0.37803-0.1105-0.39453-0.12695-0.0165-0.0165-0.0754-0.0806-0.12696-0.39063-0.0515-0.31005-0.0737-0.81855-0.0703-1.5039v-2e-3 -3.9003-3.9004-2e-3c-3e-3 -0.68537 0.0188-1.1939 0.0703-1.5039s0.11045-0.37416 0.12696-0.39063c0.0165-0.0165 0.0827-0.0746 0.39453-0.12695 0.31179-0.0523 0.8191-0.0762 1.5039-0.0762z" color="#000000" color-rendering="auto" dominant-baseline="auto" enable-background="accumulate" fill="url(#linearGradient993)" image-rendering="auto" opacity=".4" shape-rendering="auto" solid-color="#000000" style="font-feature-settings:normal;font-variant-alternates:normal;font-variant-caps:normal;font-variant-ligatures:normal;font-variant-numeric:normal;font-variant-position:normal;isolation:auto;mix-blend-mode:normal;shape-padding:0;text-decoration-color:#000000;text-decoration-line:none;text-decoration-style:solid;text-indent:0;text-orientation:mixed;text-transform:none;white-space:normal"/>
    <path d="m327 246v0.5h3v-0.5z" enable-background="new" fill="#f22c42"/>
    <rect transform="rotate(45 -1.8103 .74945)" x="403.05" y="-63.988" width="2.8252" height="9.1819" rx=".59317" ry=".59317" enable-background="new" fill="#783500" fill-rule="evenodd" filter="url(#filter1262)" opacity=".6"/>
    <rect transform="rotate(45)" x="404.03" y="-63.005" width="2.8252" height="9.1819" rx=".59317" ry=".59317" enable-background="new" fill="#ffb070" fill-rule="evenodd"/>
    <rect transform="rotate(45)" x="404.8" y="-60.118" width="1.4126" height="3.5315" rx=".29659" ry=".29659" enable-background="new" fill="#783500" fill-rule="evenodd" opacity=".5"/>
    <rect transform="rotate(45)" x="404.74" y="-60.18" width="1.4126" height="3.5315" rx=".29659" ry=".29659" enable-background="new" fill="#fa8d38" fill-rule="evenodd"/>
    <rect transform="matrix(-.70711 .70711 .70711 .70711 -.00027748 1.4996)" x="-60.81" y="399.87" width="2.8252" height="9.1819" rx=".59317" ry=".59317" enable-background="new" fill="#783500" fill-rule="evenodd" filter="url(#filter1256)" opacity=".7"/>
    <rect transform="matrix(-.70711 .70711 .70711 .70711 0 0)" x="-59.827" y="400.86" width="2.8252" height="9.1819" rx=".59317" ry=".59317" enable-background="new" fill="#ffb070" fill-rule="evenodd"/>
    <rect transform="matrix(-.70711 .70711 .70711 .70711 0 0)" x="-59.058" y="403.74" width="1.4126" height="3.5315" rx=".29659" ry=".29659" enable-background="new" fill="#783500" fill-rule="evenodd" opacity=".5"/>
    <rect transform="matrix(-.70711 .70711 .70711 .70711 0 0)" x="-59.121" y="403.68" width="1.4126" height="3.5315" rx=".29659" ry=".29659" enable-background="new" fill="#fa8d38" fill-rule="evenodd"/>
    <path d="m334 241v-1l-3-3h-1v1.5306 0.0587 0.0315c0 2.0698 0.27707 2.389 2.3516 2.3788z" color="#000000" enable-background="accumulate" opacity=".2"/>
    <path d="m334 240-3-2.9996v1.1127 0.0485 0.026c0 1.7076 0.0787 1.8209 1.7902 1.8126z" color="#000000" enable-background="accumulate" fill="#faf8f6"/>
   </g>
  </g>
 </g>
</svg>
