<svg width="20" height="20" version="1.1" xmlns="http://www.w3.org/2000/svg">
 <path d="m4.672 3.9842c-1.058-0.013-1.7678 0.22411-2.1328 0.66211-0.383 0.456-0.58008 1.2041-0.58008 2.2441v6.1875c0 1.04 0.19708 1.7881 0.58008 2.2441 0.00116 0.0014 0.00274 0.0025 0.00391 0.0039l2.5762-2.5762c-0.35753 0.1512-0.74918 0.23438-1.1602 0.23438h-1v-6h1v5c1.11 0 2-0.89 2-2v-3h1v3c0 0.40905-0.08265 0.8002-0.23242 1.1562l0.44727-0.44727-0.00195-0.0039 0.78711-0.78711v-2.918h2c0.27042 0 0.5277 0.055666 0.76367 0.1543l0.48046-0.48243c0.0016 0.00141 0.0043 0.00271 0.0059 0.00391l0.66206-0.66211a4.9449 3.49 45 0 0-0.0059-0.00391l0.69727-0.69726a6.3532 4.484 45 0 1 0.0059 0.00391l1.3164-1.3164zm11.865 0.15625-2.8438 2.8438h1.2656c1.099 0 2 0.901 2 2v4h-1v-4c0-0.558-0.442-1-1-1h-1v5h-1v-5.2656l-1.0176 1.0176c0.01027 0.081575 0.01758 0.16383 0.01758 0.24805 0 1.099-0.901 2-2 2h-0.26562l-0.73438 0.73438v1.2656h-1v-0.26562l-3.2656 3.2656h10.553c1.058 0 1.7698-0.22411 2.1348-0.66211 0.383-0.456 0.57812-1.2041 0.57812-2.2441v-6.1875c0-1.04-0.19512-1.7881-0.57812-2.2441-0.18823-0.22588-0.47114-0.39515-0.84375-0.50586z" opacity=".5"/>
 <path d="m8.9591 7.9842v2h1c0.558 0 1-0.442 1-1s-0.442-1-1-1z" opacity=".5"/>
 <path d="m3.8185 16.859 13-13-0.7029-0.7029-2.8477 2.8477a6.3532 4.484 45 0 0-0.0052-0.00333l-0.69727 0.69727a4.9449 3.49 45 0 1 0.0052 0.00333l-0.66211 0.66211c-0.0016-0.0012-0.0035-0.0019-0.0051-0.00331l-4.0308 4.0336 4.31e-4 0.0024-4.7574 4.7602z" opacity=".5" stroke-width="1.1903"/>
</svg>
