<?xml version="1.0" encoding="UTF-8" standalone="no"?>
<!-- Created with Inkscape (http://www.inkscape.org/) -->

<svg
   width="16"
   height="16"
   viewBox="0 0 4.2333333 4.2333333"
   version="1.1"
   id="svg1003"
   sodipodi:docname="applications-graphics.svg"
   inkscape:version="1.1.2 (0a00cf5339, 2022-02-04)"
   xmlns:inkscape="http://www.inkscape.org/namespaces/inkscape"
   xmlns:sodipodi="http://sodipodi.sourceforge.net/DTD/sodipodi-0.dtd"
   xmlns:xlink="http://www.w3.org/1999/xlink"
   xmlns="http://www.w3.org/2000/svg"
   xmlns:svg="http://www.w3.org/2000/svg">
  <sodipodi:namedview
     id="namedview1005"
     pagecolor="#ffffff"
     bordercolor="#666666"
     borderopacity="1.0"
     inkscape:pageshadow="2"
     inkscape:pageopacity="0.0"
     inkscape:pagecheckerboard="0"
     inkscape:document-units="px"
     showgrid="false"
     units="px"
     showguides="false"
     inkscape:lockguides="true"
     inkscape:zoom="49.625"
     inkscape:cx="8"
     inkscape:cy="8"
     inkscape:window-width="1920"
     inkscape:window-height="1017"
     inkscape:window-x="0"
     inkscape:window-y="0"
     inkscape:window-maximized="1"
     inkscape:current-layer="svg1003" />
  <defs
     id="defs1000">
    <linearGradient
       inkscape:collect="always"
       id="linearGradient1871">
      <stop
         style="stop-color:#ffffff;stop-opacity:1;"
         offset="0"
         id="stop1867" />
      <stop
         style="stop-color:#ffffff;stop-opacity:0.1"
         offset="0.12"
         id="stop2515" />
      <stop
         style="stop-color:#ffffff;stop-opacity:0.102"
         offset="0.89999998"
         id="stop2581" />
      <stop
         style="stop-color:#ffffff;stop-opacity:0.502"
         offset="1"
         id="stop1869" />
    </linearGradient>
    <linearGradient
       inkscape:collect="always"
       xlink:href="#linearGradient1871"
       id="linearGradient891"
       x1="1.1761556"
       y1="0.26459649"
       x2="1.1761556"
       y2="3.9687631"
       gradientUnits="userSpaceOnUse" />
    <filter
       id="filter194"
       x="-0.020460054"
       y="-0.020460054"
       width="1.0409201"
       height="1.0576021"
       color-interpolation-filters="sRGB">
      <feFlood
         flood-color="rgb(0,0,0)"
         flood-opacity=".49804"
         result="flood"
         id="feFlood7" />
      <feComposite
         in="flood"
         in2="SourceGraphic"
         operator="in"
         result="composite1"
         id="feComposite9" />
      <feGaussianBlur
         in="composite1"
         result="blur"
         stdDeviation="1.0220649"
         id="feGaussianBlur11" />
      <feOffset
         dx="0"
         dy="2"
         result="offset"
         id="feOffset13" />
      <feComposite
         in="SourceGraphic"
         in2="offset"
         result="composite2"
         id="feComposite15" />
    </filter>
  </defs>
  <path
     d="m 1.0923594,0.2645965 c -0.99048625,0 -1.09706305,0.081754 -1.09220794549,0.8792925 V 2.2489715 3.3540514 C -0.00468855,4.1515929 0.10187315,4.2333465 1.0923594,4.2333465 h 2.0487614 c 0.9904941,0 1.0922132,-0.081743 1.0922132,-0.8792951 V 2.2489715 1.143889 c 0,-0.7975521 -0.1017217,-0.8792925 -1.0922132,-0.8792925 z"
     style="color:#000000;display:inline;overflow:visible;visibility:visible;opacity:0.1;fill:#000000;fill-opacity:1;fill-rule:nonzero;stroke:none;stroke-width:0.264583;marker:none;enable-background:accumulate"
     id="path1314" />
  <path
     d="m 1.1563807,0.1322916 c -0.92858435,0 -1.02849895,0.081754 -1.02394555,0.8792925 v 1.1050825 1.1050799 c -0.004551,0.7975415 0.0953612,0.8792951 1.02394555,0.8792951 h 1.9207136 c 0.9285843,0 1.023948,-0.081743 1.023948,-0.8792951 V 2.1166666 1.0115841 c 0,-0.7975494 -0.095366,-0.8792925 -1.023948,-0.8792925 z"
     style="color:#000000;display:inline;overflow:visible;visibility:visible;fill:#4d4d4d;fill-opacity:1;fill-rule:nonzero;stroke:none;stroke-width:0.265859;marker:none;enable-background:accumulate"
     id="path908" />
  <path
     d="M 1.5552221,3.3614923 C 1.4709316,3.4943378 1.2809854,3.5368444 1.1480971,3.4525288 1.0152161,3.3682146 0.97277464,3.1782623 1.0570606,3.0454184 1.1413516,2.912573 1.3312974,2.8700664 1.4641709,2.9543804 c 0.1328839,0.084314 0.1753225,0.2742663 0.091039,0.407125 z"
     style="fill:#f1a443;stroke-width:1.00005"
     id="path10236" />
  <path
     d="M 1.2030807,2.264769 C 1.1187902,2.3976143 0.92879954,2.4400915 0.79597054,2.3558069 0.66312664,2.2715164 0.62064804,2.0815257 0.70493114,1.9486818 0.78921914,1.8158394 0.97921234,1.7733593 1.1120561,1.8576438 1.2448985,1.9419328 1.2873786,2.131925 1.2030921,2.2647689 Z"
     style="fill:#3f90dc;stroke-width:1.00005"
     id="path10116" />
  <path
     d="M 1.7562807,1.3929719 C 1.6719902,1.5258173 1.4819995,1.5682944 1.3491704,1.4840098 1.2163266,1.3997193 1.1738479,1.2097286 1.258131,1.0768847 1.3424201,0.94404235 1.5324123,0.90156225 1.6652562,0.98584685 1.798097,1.0701358 1.8405786,1.260128 1.7562922,1.3929719 Z"
     style="fill:#56a913;stroke-width:1.00005"
     id="path9996" />
  <path
     d="M 2.8435107,1.1120421 C 2.7592207,1.2448875 2.5692296,1.2873646 2.4363856,1.2030801 2.3035447,1.1187924 2.2610631,0.92879873 2.3453496,0.79596978 2.4296386,0.6631274 2.619631,0.62064727 2.7524601,0.70493188 2.8853007,0.78921938 2.9277825,0.97921303 2.8434981,1.1120569 Z"
     style="fill:#f35b5b;stroke-width:1.00005"
     id="path9876" />
  <g
     id="g9849"
     transform="matrix(0.26458333,0,0,0.26458333,0.01448946,0.02822078)">
    <path
       d="M 9.5874053,8.8532648 C 9.1053607,8.8128403 8.3814673,9.1423933 8.0272736,9.7784801 7.3998048,10.905292 7.8930048,12.61259 6.5374202,12.314787 c 1.7918,1.371192 4.2456198,-0.675572 4.2635958,-1.981412 0.0039,-0.282488 -0.05617,-0.5184389 -0.154961,-0.7134278 z"
       style="fill:#1b90ff;fill-rule:evenodd;stroke-width:3.77971"
       id="path9221" />
    <path
       d="m 6.7860553,12.481272 c 1.7616165,1.019798 3.9977687,-0.901528 4.0149607,-2.147897 0.0039,-0.282487 -0.05617,-0.5184393 -0.154961,-0.7134278 L 9.621329,8.8778484 C 9.349124,9.03436 9.095096,9.2512497 8.9001183,9.5285568 7.9858786,10.828798 8.3704574,12.984871 6.7473488,12.445265 c 0.012853,0.01215 0.025761,0.02414 0.03871,0.036 z"
       style="fill:#a197ff;fill-rule:evenodd;stroke-width:3.77971"
       id="path9365" />
    <path
       d="m 7.5465224,12.746596 c 1.5838197,0.229724 3.2397656,-1.341345 3.2544936,-2.413221 0.0039,-0.282487 -0.05617,-0.5184393 -0.154961,-0.7134278 L 9.629114,8.8835043 C 9.4100571,9.0737777 9.2175605,9.3130726 9.0851845,9.5955316 8.4332442,10.986603 9.1611304,12.974231 7.5256684,12.732988 c 0.00694,0.0046 0.013869,0.0091 0.020808,0.01361 z"
       style="fill:#dd61fa;fill-rule:evenodd;stroke-width:3.77971"
       id="path9509" />
    <path
       d="m 9.4868868,12.231293 c 0.7609712,-0.509345 1.3057292,-1.285177 1.3141292,-1.897918 0.0039,-0.282487 -0.05617,-0.5184393 -0.154961,-0.7134278 L 9.636337,8.8887122 C 9.5254814,9.0792208 9.4416732,9.2931762 9.4006372,9.5232929 9.2215076,10.527747 9.7643115,11.638599 9.486842,12.231293 Z"
       style="fill:#fa6196;fill-rule:evenodd;stroke-width:3.77971"
       id="path9629" />
    <path
       d="m 10.646078,10.941747 c 0.09741,-0.20998 0.1523,-0.417131 0.154938,-0.608373 0.0039,-0.282487 -0.05617,-0.5184388 -0.154961,-0.7134268 L 9.6872406,8.9255594 c 0.00701,0.05217 0.016835,0.1044157 0.029709,0.156478 0.1852274,0.7490988 0.8795754,1.3559036 0.9291344,1.8596706 z"
       style="fill:#f1a443;fill-rule:evenodd;stroke-width:3.77971"
       id="path9749" />
  </g>
  <g
     id="g9182"
     transform="matrix(0.26458333,0,0,0.26458333,0.01448946,0.02822078)">
    <path
       d="m 12.257063,5.7173326 0.631215,0.474124 -1.699036,2.2619769 -0.631215,-0.4741242 z m -1.975308,2.3698387 0.797809,0.5956104 c 0.09234,0.068933 0.127565,0.1908775 0.08619,0.2984236 L 10.92886,9.5970535 c -0.051,0.1325685 -0.199804,0.1986975 -0.332365,0.1477055 -0.02223,-0.0085 -0.04313,-0.02009 -0.06215,-0.03437 L 9.4621131,8.9050006 c -0.113565,-0.085302 -0.136478,-0.2465251 -0.05118,-0.3600902 0.01318,-0.017545 0.02851,-0.033288 0.04568,-0.046924 l 0.511378,-0.4061192 c 0.09141,-0.072582 0.2202399,-0.074511 0.3137729,-0.00468 z m 2.129773,-2.5754836 0.463354,-0.6168763 c 0.0853,-0.1135651 0.246519,-0.1364826 0.36009,-0.051176 l 0.219978,0.165232 c 0.113566,0.085302 0.136479,0.2465251 0.05118,0.3600902 l -0.463354,0.6168762 z"
       style="fill:#ffffff;fill-opacity:1"
       id="path1081"
       sodipodi:nodetypes="ccccccccccccsccccccssccc" />
    <path
       d="m 12.257063,5.7173326 0.631215,0.474124 -1.699036,2.2619765 -0.631215,-0.474124 z m -1.975308,2.3698385 0.797809,0.595611 c 0.09234,0.06893 0.127565,0.190877 0.08619,0.298423 l -0.236894,0.615848 c -0.051,0.1325679 -0.199804,0.1986969 -0.332365,0.1477049 -0.02223,-0.0085 -0.04313,-0.02009 -0.06215,-0.03437 L 9.4621141,8.9050001 c -0.113565,-0.0853 -0.136478,-0.246525 -0.05118,-0.36009 0.01318,-0.01755 0.02851,-0.03329 0.04568,-0.04692 l 0.511379,-0.406119 c 0.09141,-0.07258 0.2202389,-0.07451 0.3137719,-0.0047 z m 2.129773,-2.5754834 0.463354,-0.6168763 c 0.0853,-0.1135651 0.246519,-0.1364826 0.36009,-0.051176 l 0.219978,0.165232 c 0.113566,0.085302 0.136479,0.2465251 0.05118,0.3600902 l -0.463354,0.6168762 z"
       style="fill:#828282;fill-opacity:1"
       id="path6548" />
  </g>
  <path
     d="m 1.1761556,0.2645965 c -0.4373615,0 -0.6736397,0.0332 -0.7715276,0.1095534 -0.048945,0.038177 -0.080642,0.087635 -0.1049046,0.1860365 -0.024262,0.098401 -0.035139,0.2416095 -0.035139,0.4320143 V 2.1166798 3.241159 c 0,0.1904047 0.010874,0.3335919 0.035139,0.4320143 0.024262,0.098401 0.055959,0.1478597 0.1049046,0.1860365 0.097888,0.076353 0.3341661,0.1095533 0.7715276,0.1095533 h 1.8810235 c 0.43747,0 0.6752246,-0.033102 0.7735966,-0.1095533 0.049183,-0.038227 0.080904,-0.087863 0.104902,-0.1860365 0.023998,-0.098174 0.034131,-0.2407153 0.033073,-0.4309798 V 3.2416643 2.1166798 0.9916847 0.9911556 C 3.969809,0.8008911 3.9596755,0.6583494 3.9356777,0.5601758 3.91168,0.4620022 3.8799591,0.4123663 3.8307757,0.3741393 3.7324063,0.2977012 3.4946491,0.2645965 3.0571791,0.2645965 Z M 2.58589,0.5415835 c 0.293071,-8.99e-5 0.5856896,0.00212 0.8784987,0.01188 0.070422,0.015849 0.2003875,-0.0055 0.2098066,0.091467 0.035467,0.4879922 0.017515,0.9757145 0.026871,1.4655429 -0.00333,0.4940962 0.014367,0.9711029 -0.027387,1.4546924 0.016986,0.1119558 -0.1162738,0.094131 -0.1860365,0.1116198 -0.9082537,0.0186 -1.8192141,0.015584 -2.7248987,5.291e-4 C 0.7037741,3.6667837 0.6155776,3.6772294 0.574644,3.6277047 0.52209,3.3287387 0.541053,3.0272434 0.532268,2.7228508 c 0.00365,-0.676402 -0.00767,-1.3513011 0.02376,-2.0257161 -0.00794,-0.072152 0.028956,-0.13131 0.1059365,-0.1291934 0.3457019,-0.042598 0.6965553,-0.016827 1.0443818,-0.025823 0.2929414,0.00159 0.5864622,-5.292e-4 0.8795332,-5.292e-4 z"
     style="color:#000000;display:inline;overflow:visible;visibility:visible;fill:url(#linearGradient891);fill-opacity:1;fill-rule:nonzero;stroke:none;stroke-width:0.264583;marker:none;enable-background:accumulate;opacity:1"
     id="path1490" />
  <path
     d="m 1.1761556,1.32e-5 c -0.44534665,0 -0.73102525,0.0068 -0.93430995,0.1653646 -0.1016423,0.079282 -0.1654439,0.1958525 -0.1989534,0.3317637 C 0.00938275,0.6330526 6.5451263e-7,0.7926916 6.5451263e-7,0.9922007 V 2.1166798 3.241159 c 0,0.1995091 0.009389995487,0.359148 0.0428919954874,0.4950592 0.03351,0.1359112 0.097311,0.2524813 0.1989534,0.3317637 0.2032847,0.1585648 0.4889633,0.1653646 0.93430995,0.1653646 h 1.8810235 c 0.4454551,0 0.7319539,-0.00688 0.9358603,-0.1653646 C 4.0949917,3.9887469 4.1592167,3.8723569 4.1925092,3.7362182 4.2257672,3.6002224 4.2345012,3.4405146 4.2333342,3.241159 V 3.2406298 2.1166798 0.9927166 0.9921875 C 4.2343923,0.7928319 4.2257669,0.6331241 4.1925088,0.4971282 4.1592163,0.3609895 4.0949913,0.2445993 3.9930394,0.1653646 3.789133,0.006895 3.5026342,0 3.0571791,0 Z m 0,0.2645833 h 1.8810235 c 0.43747,0 0.6752272,0.033105 0.7735966,0.1095534 0.049183,0.038224 0.080894,0.087863 0.104902,0.1860365 0.023998,0.098174 0.034203,0.2407152 0.033073,0.4309798 v 5.291e-4 1.1249951 1.1249951 5.292e-4 c 0.00106,0.1902619 -0.00908,0.3328061 -0.033073,0.4309798 -0.023998,0.098174 -0.055719,0.1478094 -0.104902,0.1860364 -0.098372,0.076451 -0.3361266,0.1095534 -0.7735966,0.1095534 H 1.1761556 c -0.43735895,0 -0.67363975,-0.0332 -0.77152765,-0.1095534 C 0.35568265,3.8210542 0.32398555,3.7715957 0.29972335,3.6731945 0.27546105,3.5747721 0.26458395,3.4315637 0.26458395,3.241159 V 2.1166798 0.9922007 c 0,-0.1904048 0.010874,-0.3336131 0.035139,-0.4320143 0.024262,-0.098401 0.055959,-0.1478598 0.1049046,-0.1860365 0.097888,-0.076353 0.3341687,-0.1095534 0.77152805,-0.1095534 z"
     style="color:#000000;display:inline;opacity:0.4;fill:#000000;stroke-width:0.264583;-inkscape-stroke:none;enable-background:new"
     id="path1158" />
</svg>
