<?xml version="1.0" encoding="UTF-8" standalone="no"?>
<!-- Created with Inkscape (http://www.inkscape.org/) -->

<svg
   width="16"
   height="16"
   viewBox="0 0 4.2333333 4.2333333"
   version="1.1"
   id="svg5"
   sodipodi:docname="disk-burner.svg"
   inkscape:version="1.1.2 (0a00cf5339, 2022-02-04, custom)"
   xmlns:inkscape="http://www.inkscape.org/namespaces/inkscape"
   xmlns:sodipodi="http://sodipodi.sourceforge.net/DTD/sodipodi-0.dtd"
   xmlns:xlink="http://www.w3.org/1999/xlink"
   xmlns="http://www.w3.org/2000/svg"
   xmlns:svg="http://www.w3.org/2000/svg">
  <sodipodi:namedview
     id="namedview7"
     pagecolor="#ffffff"
     bordercolor="#666666"
     borderopacity="1.0"
     inkscape:pageshadow="2"
     inkscape:pageopacity="0.0"
     inkscape:pagecheckerboard="0"
     inkscape:document-units="px"
     showgrid="false"
     units="px"
     height="48px"
     showguides="true"
     inkscape:zoom="49.8125"
     inkscape:cx="8"
     inkscape:cy="8"
     inkscape:window-width="1920"
     inkscape:window-height="1006"
     inkscape:window-x="0"
     inkscape:window-y="0"
     inkscape:window-maximized="1"
     inkscape:current-layer="svg5" />
  <defs
     id="defs2">
    <linearGradient
       inkscape:collect="always"
       id="linearGradient1871">
      <stop
         style="stop-color:#ffffff;stop-opacity:1;"
         offset="0"
         id="stop1867" />
      <stop
         style="stop-color:#ffffff;stop-opacity:0.1"
         offset="0.12"
         id="stop2515" />
      <stop
         style="stop-color:#ffffff;stop-opacity:0.102"
         offset="0.89999998"
         id="stop2581" />
      <stop
         style="stop-color:#ffffff;stop-opacity:0.502"
         offset="1"
         id="stop1869" />
    </linearGradient>
    <linearGradient
       inkscape:collect="always"
       xlink:href="#linearGradient1871"
       id="linearGradient1412"
       x1="2.1166666"
       y1="0.26458332"
       x2="2.1166666"
       y2="3.96875"
       gradientUnits="userSpaceOnUse"
       gradientTransform="scale(3.7795276)" />
    <linearGradient
       inkscape:collect="always"
       xlink:href="#linearGradient1544"
       id="linearGradient2016"
       x1="9.921875"
       y1="11.1125"
       x2="2.7781253"
       y2="1.5874999"
       gradientUnits="userSpaceOnUse"
       gradientTransform="scale(0.33333333)" />
    <linearGradient
       inkscape:collect="always"
       id="linearGradient1544">
      <stop
         style="stop-color:#d9d9d9;stop-opacity:1"
         offset="0"
         id="stop1540" />
      <stop
         style="stop-color:#cdcdcd;stop-opacity:1"
         offset="1"
         id="stop1542" />
    </linearGradient>
  </defs>
  <circle
     style="fill:url(#linearGradient2016);fill-opacity:1;stroke-width:0.17639;stroke-linecap:round;stroke-linejoin:round"
     id="path986"
     cx="2.1166666"
     cy="2.1166666"
     r="1.984375" />
  <path
     id="rect1372"
     style="opacity:0.2;fill:#ffffff;fill-opacity:1;stroke-width:0.136853;stroke-linejoin:round"
     d="m 2.1166668,0.13229172 c -1.09594,0 -1.98437485,0.88843478 -1.98437485,1.98437478 H 2.1166668 Z m 0,1.98437478 v 1.9843747 c 1.09594,0 1.9843752,-0.8884349 1.9843752,-1.9843747 z"
     sodipodi:nodetypes="cccccccc" />
  <path
     d="m 3.519832,0.71350163 c -0.7749468,-0.77494661 -2.0313834,-0.77494661 -2.80633007,0 L 2.1166668,2.1166665 Z M 2.1166668,2.1166665 0.71350199,3.5198312 c 0.77494661,0.7749467 2.03138321,0.7749467 2.80633001,0 z"
     style="opacity:0.02;fill:#000000;fill-opacity:1;stroke-width:0.136853;stroke-linejoin:round"
     id="path1578"
     sodipodi:nodetypes="cccccccc" />
  <path
     id="path1807"
     style="fill:#faf8f6;fill-opacity:1;stroke-width:0.036209;stroke-linejoin:round"
     d="m 2.1166668,0.13229172 c -0.019545,0 -0.038857,0.001043 -0.058267,0.001603 h 0.058267 z M 0.71338449,0.71338426 C 0.59121996,0.83554873 0.48561919,0.97395603 0.39851496,1.1244795 L 2.1166668,2.1166665 Z M 2.1166668,2.1166665 3.5199493,3.5199485 C 3.6421136,3.3977842 3.7477146,3.2593773 3.8348196,3.1088543 Z m 0,1.982771 v 0.0016 c 0.019545,0 0.038858,-0.00103 0.058268,-0.0016 z" />
  <circle
     style="fill:#aea795;fill-opacity:1;stroke-width:0.15875"
     id="path2819"
     cx="2.1166666"
     cy="2.1166666"
     r="0.79374999" />
  <circle
     style="fill:#faf8f6;fill-opacity:1;stroke-width:0.132291"
     id="path3031"
     cx="2.1166666"
     cy="2.1166666"
     r="0.52916664" />
  <circle
     style="fill:#4d4d4d;fill-opacity:1;stroke-width:0.132291"
     id="path3463"
     cx="2.1166668"
     cy="2.1166666"
     r="0.26458332" />
  <path
     id="path1124"
     style="opacity:0.4;fill:#000000;stroke-width:2;stroke-linecap:round;stroke-linejoin:round"
     d="M 8,0 A 7.9999996,7.9999996 0 0 0 0,8 7.9999996,7.9999996 0 0 0 8,16 7.9999996,7.9999996 0 0 0 16,8 7.9999996,7.9999996 0 0 0 8,0 Z M 8,1 A 7,7 0 0 1 15,8 7,7 0 0 1 8,15 7,7 0 0 1 1,8 7,7 0 0 1 8,1 Z"
     transform="scale(0.26458333)" />
  <path
     id="path1324"
     style="opacity:1;fill:url(#linearGradient1412);fill-opacity:1;stroke-width:2;stroke-linecap:round;stroke-linejoin:round"
     d="M 8,1 A 7,7 0 0 0 1,8 7,7 0 0 0 8,15 7,7 0 0 0 15,8 7,7 0 0 0 8,1 Z M 8,2 A 5.9999999,5.9999999 0 0 1 14,8 5.9999999,5.9999999 0 0 1 8,14 5.9999999,5.9999999 0 0 1 2,8 5.9999999,5.9999999 0 0 1 8,2 Z"
     transform="scale(0.26458333)" />
  <path
     id="path34"
     style="fill:#4d4d4d;stroke-width:1.00005"
     d="m 2.3402567,0.52916666 c 0,0 0.00213,0.0735366 -0.00982,0.10748698 -0.00565,0.0160703 -0.021752,0.0270052 -0.027905,0.0428915 -0.0097,0.0250529 -0.015438,0.0528902 -0.012402,0.0795817 0.00173,0.0152228 0.011384,0.0281418 0.017053,0.0423747 0.00456,0.0114575 0.00892,0.0242594 0.013436,0.0346232 l 0.0093,0.0227376 0.020154,-0.0707967 c 0.00309,-0.0105595 0.00582,-0.0210532 0.00878,-0.0320394 0,0 0.024124,-0.0601701 0.026355,-0.091984 0.00193,-0.0275525 -0.00184,-0.0562419 -0.011369,-0.0821655 -0.00718,-0.0195239 -0.03359,-0.05271 -0.03359,-0.05271 z M 2.1542215,0.86868084 c -0.033575,0.0230436 -0.064409,0.0472234 -0.093534,0.072347 l -5.168e-4,5.1676e-4 c 0,0 -0.079636,0.0733667 -0.1126546,0.116272 -0.047678,0.061949 -0.088676,0.1300466 -0.1214396,0.2010213 -0.032489,0.070387 -0.056642,0.14496 -0.073381,0.2206584 -0.017538,0.079318 -0.026824,0.1611273 -0.027388,0.2423625 -8.281e-4,0.119031 0.00884,0.2423239 0.03514,0.355017 v 0.00155 h 5.168e-4 c 0.025167,0.107269 0.030085,0.1577692 0.078031,0.2433958 C 2.3828004,2.2264988 2.742971,2.6468107 2.6213764,3.1005859 2.5572381,3.3399534 2.3596238,3.4552567 2.1702412,3.4984944 1.9033383,3.5449033 1.6782019,3.400966 1.6240213,3.1987712 c -0.010577,-0.066679 0.00632,-0.1561846 0.044442,-0.1788004 -0.022018,0.00767 -0.049026,0.016232 -0.081132,0.046509 -0.05407,0.050975 -0.055407,0.069092 -0.1260905,0.088884 0.034591,-0.097484 -0.1552174,-0.1769147 -0.1209229,-0.3860231 7.832e-4,-0.00484 -0.00849,0.040113 -0.00775,0.03514 C 1.2489098,3.2665394 1.7221449,3.7869921 2.247239,3.646289 2.6030264,3.5574816 2.8148003,3.2962622 2.8849263,3.0013672 2.9254218,2.8310863 2.9129242,2.6552308 2.8761421,2.5078573 2.8461788,2.3878234 2.785272,2.2613781 2.6932068,2.1450887 2.6637103,2.1078306 2.6325856,2.0734549 2.6012226,2.0417359 l -5.159e-4,-5.16e-4 -0.00258,-0.00258 c -0.0706,-0.07092 -0.143808,-0.1295568 -0.2139401,-0.1850013 0,0 -0.1418859,-0.1162357 -0.2077392,-0.179834 -0.00405,-0.00392 -0.00775,-0.00809 -0.011369,-0.012402 -0.022944,-0.027345 -0.044861,-0.055518 -0.064596,-0.085266 -0.00541,-0.00816 -0.010908,-0.016417 -0.014986,-0.025321 -0.02086,-0.045542 -0.039023,-0.093152 -0.049609,-0.1421102 -0.013807,-0.063854 -0.019375,-0.1295127 -0.01757,-0.1948202 0.00154,-0.055617 0.00928,-0.1117834 0.024288,-0.1653646 0.027168,-0.0636102 0.071119,-0.12239549 0.1116211,-0.17983396 z M 2.3118346,1.1043254 c -0.017866,0.028579 -0.031352,0.060555 -0.047026,0.09095 -0.013912,0.026981 -0.030278,0.053074 -0.041858,0.081132 -0.025334,0.061385 -0.039871,0.1268677 -0.059945,0.1901693 -0.00241,0.0076 -0.00819,0.014821 -0.00723,0.022737 0.00724,0.059889 0.057279,0.1066936 0.094051,0.1545125 0.014139,0.018386 0.048059,0.050126 0.048059,0.050126 0.00574,0.00635 0.01182,0.012467 0.018087,0.018603 0,0 -0.011912,-0.07266 -0.017053,-0.1090372 -4.498e-4,-0.0032 -8.123e-4,-0.00607 -0.00103,-0.0093 -0.00896,-0.1290843 -0.014903,-0.2591432 -0.00414,-0.3880906 0.00286,-0.034301 0.018087,-0.1018025 0.018087,-0.1018025 z M 1.3837259,2.1321696 c 0,0 0.021978,0.1425895 0.00672,0.2113566 -0.00722,0.032543 -0.036725,0.057097 -0.044958,0.0894 -0.012985,0.050943 -0.017319,0.106465 -0.00517,0.1576131 0.00693,0.029171 0.028984,0.051988 0.042891,0.078548 0.00325,0.0062 0.00611,0.013044 0.0093,0.019119 0.017211,-0.077109 0.073858,-0.1397666 0.096118,-0.2149725 0.00861,-0.02908 0.015471,-0.059622 0.013953,-0.089917 -0.0027,-0.053981 -0.016748,-0.1089686 -0.041339,-0.157096 -0.018515,-0.036238 -0.077515,-0.094051 -0.077515,-0.094051 z M 2.010561,2.4050212 c -0.3022181,0 -0.5472534,0.2450354 -0.5472534,0.5472533 1.128e-4,0.028158 0.00228,0.056417 0.00672,0.084233 0.00618,0.0096 0.012417,0.018799 0.01757,0.028939 0.00459,0.00902 0.00678,0.019682 0.00982,0.029972 0.00165,-0.00122 0.00611,-0.0023 0.00775,-0.00362 0.011762,-0.00981 0.026703,-0.026777 0.055294,-0.053743 0.037125,-0.034998 0.071845,-0.051129 0.094568,-0.05581 0.050413,-0.01038 0.063751,-0.00111 0.1074869,0.00568 -0.035632,0.014772 -0.04646,0.031059 -0.073897,0.066146 -9.631e-4,0.00122 -0.015855,0.019254 -0.022221,0.047542 -0.00624,0.027737 -0.00716,0.062186 -0.0031,0.0894 0.049487,0.1788609 0.2518698,0.3113849 0.5002279,0.2682007 0.05252,-0.012123 0.104848,-0.03041 0.1545125,-0.054777 0.1497353,-0.1017145 0.2390186,-0.2711537 0.2392619,-0.4521689 0,-0.3022179 -0.2445186,-0.5472533 -0.5467367,-0.5472533 z" />
</svg>
