<?xml version="1.0" encoding="UTF-8" standalone="no"?>
<!-- Created with Inkscape (http://www.inkscape.org/) -->

<svg
   width="16"
   height="16"
   viewBox="0 0 4.2333333 4.2333333"
   version="1.1"
   id="svg1003"
   sodipodi:docname="preferences-desktop-feedback.svg"
   inkscape:version="1.1.2 (0a00cf5339, 2022-02-04, custom)"
   xmlns:inkscape="http://www.inkscape.org/namespaces/inkscape"
   xmlns:sodipodi="http://sodipodi.sourceforge.net/DTD/sodipodi-0.dtd"
   xmlns:xlink="http://www.w3.org/1999/xlink"
   xmlns="http://www.w3.org/2000/svg"
   xmlns:svg="http://www.w3.org/2000/svg">
  <sodipodi:namedview
     id="namedview1005"
     pagecolor="#ffffff"
     bordercolor="#666666"
     borderopacity="1.0"
     inkscape:pageshadow="2"
     inkscape:pageopacity="0.0"
     inkscape:pagecheckerboard="0"
     inkscape:document-units="px"
     showgrid="false"
     units="px"
     showguides="true"
     inkscape:lockguides="true"
     inkscape:zoom="24.75"
     inkscape:cx="2.020202"
     inkscape:cy="12.666667"
     inkscape:window-width="1920"
     inkscape:window-height="1006"
     inkscape:window-x="0"
     inkscape:window-y="0"
     inkscape:window-maximized="1"
     inkscape:current-layer="svg1003" />
  <defs
     id="defs1000">
    <linearGradient
       inkscape:collect="always"
       id="linearGradient17934">
      <stop
         style="stop-color:#3ac692;stop-opacity:1"
         offset="0"
         id="stop17930" />
      <stop
         style="stop-color:#4880c9;stop-opacity:1"
         offset="1"
         id="stop17932" />
    </linearGradient>
    <linearGradient
       inkscape:collect="always"
       xlink:href="#linearGradient1871"
       id="linearGradient891"
       x1="1.1761556"
       y1="0.26459649"
       x2="1.1761556"
       y2="3.9687631"
       gradientUnits="userSpaceOnUse" />
    <linearGradient
       inkscape:collect="always"
       id="linearGradient1871">
      <stop
         style="stop-color:#ffffff;stop-opacity:1;"
         offset="0"
         id="stop1867" />
      <stop
         style="stop-color:#ffffff;stop-opacity:0.1"
         offset="0.12"
         id="stop2515" />
      <stop
         style="stop-color:#ffffff;stop-opacity:0.102"
         offset="0.89999998"
         id="stop2581" />
      <stop
         style="stop-color:#ffffff;stop-opacity:0.502"
         offset="1"
         id="stop1869" />
    </linearGradient>
    <linearGradient
       inkscape:collect="always"
       xlink:href="#linearGradient17934"
       id="linearGradient1026"
       x1="4.3656263"
       y1="2.6458333"
       x2="-0.13229103"
       y2="0.52916652"
       gradientUnits="userSpaceOnUse" />
  </defs>
  <path
     d="m 1.1563805,0.1322916 c -0.9285844,0 -1.028499,0.081754 -1.0239456,0.8792925 v 1.1050825 1.1050799 c -0.00455,0.7975415 0.095361,0.8792951 1.0239456,0.8792951 h 1.9207136 c 0.9285843,0 1.023948,-0.081743 1.023948,-0.8792951 V 2.1166666 1.0115841 c 0,-0.7975494 -0.095366,-0.8792925 -1.023948,-0.8792925 z"
     style="color:#000000;display:inline;overflow:visible;visibility:visible;fill:url(#linearGradient1026);fill-opacity:1;fill-rule:nonzero;stroke:none;stroke-width:0.265859;marker:none;enable-background:accumulate"
     id="path908" />
  <path
     d="m 0.79374787,1.8174291 v 0.8102912 c 0,0.1161812 0.0219207,0.1997805 0.064725,0.2507321 0.040765,0.048918 0.12020472,0.073995 0.23842893,0.073995 H 1.3776642 L 1.7479319,3.2138383 2.1182374,2.9524474 h 1.0182171 c 0.1182184,0 0.1976638,-0.025077 0.2384287,-0.073995 0.042802,-0.050957 0.064725,-0.1345491 0.064725,-0.2507321 V 1.8174291 Z"
     style="opacity:0.5;fill:#ffffff;fill-opacity:1;stroke-width:0.264583;enable-background:new"
     id="path1026" />
  <path
     d="m 1.0968753,1.0583916 c -0.11821093,-0.00151 -0.19764498,0.026419 -0.23840996,0.075337 -0.0428042,0.050957 -0.0647402,0.1345603 -0.0647402,0.250732 V 2.58698 L 1.3776453,2.9524662 1.7479319,3.2138383 2.1181996,2.9524662 h 1.9e-6 L 3.4395765,1.9491036 V 1.3844604 c 0,-0.1161812 -0.021937,-0.1997805 -0.064739,-0.250732 C 3.3340725,1.0848104 3.2546481,1.0583916 3.1364278,1.0583916 H 1.6336614 Z"
     style="fill:#ffffff;fill-opacity:1;stroke-width:0.264583;enable-background:new"
     id="path886" />
  <path
     id="rect1464"
     style="fill:#4d4d4d;fill-opacity:1;stroke-width:0.529167;stroke-linecap:round;stroke-linejoin:round"
     d="M 1.0583085,1.3229166 V 1.5875 H 3.1749751 V 1.3229166 Z m 0,0.5291667 V 2.1166667 H 2.1166418 V 1.8520833 Z" />
  <path
     d="m 1.1761554,0.2645965 c -0.4373615,0 -0.6736397,0.0332 -0.7715276,0.1095534 -0.048945,0.038177 -0.080642,0.087635 -0.1049046,0.1860365 -0.024262,0.098401 -0.035139,0.2416095 -0.035139,0.4320143 V 2.1166798 3.241159 c 0,0.1904047 0.010874,0.3335919 0.035139,0.4320143 0.024262,0.098401 0.055959,0.1478597 0.1049046,0.1860365 0.097888,0.076353 0.3341661,0.1095533 0.7715276,0.1095533 h 1.8810235 c 0.43747,0 0.6752246,-0.033102 0.7735966,-0.1095533 0.049183,-0.038227 0.080904,-0.087863 0.104902,-0.1860365 0.023998,-0.098174 0.034131,-0.2407153 0.033073,-0.4309798 V 3.2416643 2.1166798 0.9916847 0.9911556 C 3.9698105,0.8008911 3.9596705,0.6583494 3.9356775,0.5601758 3.9116795,0.4620022 3.8799585,0.4123663 3.8307755,0.3741393 3.7324065,0.2977012 3.4946489,0.2645965 3.0571789,0.2645965 Z m 1.4097344,0.276987 c 0.293071,-8.99e-5 0.5856896,0.00212 0.8784987,0.01188 0.070422,0.015849 0.2003875,-0.0055 0.2098066,0.091467 0.035467,0.4879922 0.017515,0.9757145 0.026871,1.4655429 -0.00333,0.4940962 0.014367,0.9711029 -0.027387,1.4546924 0.016986,0.1119558 -0.1162738,0.094131 -0.1860365,0.1116198 -0.9082537,0.0186 -1.8192141,0.015584 -2.7248987,5.291e-4 -0.05897,-0.010531 -0.1471665,-8.53e-5 -0.1881001,-0.04961 -0.052554,-0.298966 -0.033591,-0.6004613 -0.042376,-0.9048539 0.00365,-0.676402 -0.00767,-1.3513011 0.02376,-2.0257161 -0.00794,-0.072152 0.028956,-0.13131 0.1059365,-0.1291934 0.3457019,-0.042598 0.6965553,-0.016827 1.0443818,-0.025823 0.2929414,0.00159 0.5864622,-5.292e-4 0.8795332,-5.292e-4 z"
     style="color:#000000;display:inline;overflow:visible;visibility:visible;opacity:0.4;fill:url(#linearGradient891);fill-opacity:1;fill-rule:nonzero;stroke:none;stroke-width:0.264583;marker:none;enable-background:accumulate"
     id="path1490" />
  <path
     d="m 1.1761554,1.32e-5 c -0.4453467,0 -0.7310253,0.0068 -0.9343099,0.1653646 C 0.1402031,0.2446598 0.0764016,0.3612303 0.042892,0.4971415 0.009383,0.6330526 0,0.7926916 0,0.9922007 V 2.1166798 3.241159 c 0,0.1995091 0.00939,0.359148 0.042892,0.4950592 0.03351,0.1359112 0.097311,0.2524813 0.1989534,0.3317637 0.2032852,0.1585648 0.4889638,0.1653646 0.9343104,0.1653646 h 1.8810235 c 0.4454551,0 0.7319539,-0.00688 0.9358603,-0.1653646 C 4.0949915,3.9887469 4.1592165,3.8723569 4.192509,3.7362182 4.225767,3.6002224 4.234501,3.4405146 4.233334,3.241159 V 3.2406298 2.1166798 0.9927166 0.9921875 C 4.234394,0.7928319 4.225764,0.6331241 4.192509,0.4971282 4.159217,0.3609895 4.094991,0.2445993 3.9930396,0.1653646 3.7891332,0.006895 3.5026344,0 3.0571793,0 Z m 0,0.2645833 h 1.8810235 c 0.43747,0 0.6752272,0.033105 0.7735966,0.1095534 0.049183,0.038224 0.080894,0.087863 0.104902,0.1860365 0.023998,0.098174 0.034203,0.2407152 0.033073,0.4309798 v 5.291e-4 1.1249951 1.1249951 5.292e-4 c 0.00106,0.1902619 -0.00908,0.3328061 -0.033073,0.4309798 -0.023998,0.098174 -0.055719,0.1478094 -0.104902,0.1860364 -0.098372,0.076451 -0.3361266,0.1095534 -0.7735966,0.1095534 H 1.1761554 c -0.4373589,0 -0.6736398,-0.0332 -0.7715276,-0.1095534 C 0.3556824,3.8210542 0.3239853,3.7715957 0.2997232,3.6731945 0.2754609,3.5747721 0.2645837,3.4315637 0.2645837,3.241159 V 2.1166798 0.9922007 c 0,-0.1904048 0.010874,-0.3336131 0.035139,-0.4320143 0.024262,-0.098401 0.055959,-0.1478598 0.1049047,-0.1860365 0.097888,-0.076353 0.3341687,-0.1095534 0.771528,-0.1095534 z"
     style="color:#000000;display:inline;opacity:0.4;fill:#000000;stroke-width:0.264583;-inkscape-stroke:none;enable-background:new"
     id="path1158" />
</svg>
