<?xml version="1.0" encoding="UTF-8" standalone="no"?>
<!-- Created with Inkscape (http://www.inkscape.org/) -->

<svg
   width="16"
   height="16"
   viewBox="0 0 4.2333333 4.2333333"
   version="1.1"
   id="svg5"
   sodipodi:docname="preferences-desktop-accessibility.svg"
   inkscape:version="1.1.2 (0a00cf5339, 2022-02-04)"
   xmlns:inkscape="http://www.inkscape.org/namespaces/inkscape"
   xmlns:sodipodi="http://sodipodi.sourceforge.net/DTD/sodipodi-0.dtd"
   xmlns:xlink="http://www.w3.org/1999/xlink"
   xmlns="http://www.w3.org/2000/svg"
   xmlns:svg="http://www.w3.org/2000/svg">
  <sodipodi:namedview
     id="namedview7"
     pagecolor="#ffffff"
     bordercolor="#666666"
     borderopacity="1.0"
     inkscape:pageshadow="2"
     inkscape:pageopacity="0.0"
     inkscape:pagecheckerboard="0"
     inkscape:document-units="px"
     showgrid="false"
     units="px"
     height="48px"
     showguides="false"
     inkscape:zoom="24.1875"
     inkscape:cx="8.3100775"
     inkscape:cy="11.741602"
     inkscape:window-width="1920"
     inkscape:window-height="1017"
     inkscape:window-x="0"
     inkscape:window-y="0"
     inkscape:window-maximized="1"
     inkscape:current-layer="svg5" />
  <defs
     id="defs2">
    <linearGradient
       inkscape:collect="always"
       id="linearGradient1871">
      <stop
         style="stop-color:#ffffff;stop-opacity:1;"
         offset="0"
         id="stop1867" />
      <stop
         style="stop-color:#ffffff;stop-opacity:0.1"
         offset="0.12"
         id="stop2515" />
      <stop
         style="stop-color:#ffffff;stop-opacity:0.102"
         offset="0.89999998"
         id="stop2581" />
      <stop
         style="stop-color:#ffffff;stop-opacity:0.502"
         offset="1"
         id="stop1869" />
    </linearGradient>
    <linearGradient
       inkscape:collect="always"
       xlink:href="#linearGradient1871"
       id="linearGradient1412"
       x1="2.1166666"
       y1="0.26458332"
       x2="2.1166666"
       y2="3.96875"
       gradientUnits="userSpaceOnUse"
       gradientTransform="scale(3.7795276)" />
    <linearGradient
       inkscape:collect="always"
       xlink:href="#linearGradient2014"
       id="linearGradient2016"
       x1="6.3500004"
       y1="12.700001"
       x2="6.3500004"
       y2="0"
       gradientUnits="userSpaceOnUse"
       gradientTransform="scale(0.33333332)" />
    <linearGradient
       inkscape:collect="always"
       id="linearGradient2014">
      <stop
         style="stop-color:#5884f4;stop-opacity:1"
         offset="0"
         id="stop2010" />
      <stop
         style="stop-color:#2f5fdd;stop-opacity:1"
         offset="1"
         id="stop2012" />
    </linearGradient>
  </defs>
  <circle
     style="fill:url(#linearGradient2016);fill-opacity:1;stroke-width:0.176389;stroke-linecap:round;stroke-linejoin:round"
     id="path986"
     cx="2.1166666"
     cy="2.1166666"
     r="1.984375" />
  <path
     d="m 2.1166668,0.52916666 c -0.2922588,0 -0.5291667,0.23691584 -0.5291667,0.52916664 0,0.2922587 0.2369159,0.5291666 0.5291667,0.5291666 0.2922587,0 0.5291666,-0.2369158 0.5291666,-0.5291666 0,-0.2922587 -0.2369132,-0.52916664 -0.5291666,-0.52916664 z M 0.52916666,1.8520833 v 0.2645833 l 0.328004,5.292e-4 c 0.1378955,-2.7e-6 0.25506354,0.019897 0.35152544,0.06214 0.094755,0.039367 0.172474,0.09742 0.2295711,0.1733735 0.058507,0.072869 0.099134,0.1605545 0.121957,0.2609638 0.022966,0.1011026 0.0263,0.2078726 0.03333,0.3207809 l 1.296e-4,0.00159 -0.00238,0.7681648 h 0.2608367 v -0.396875 c 0,-0.1461268 0.1184567,-0.2645834 0.2645807,-0.2645834 0.1461241,0 0.2645833,0.1184566 0.2645833,0.2645834 v 0.396875 h 0.2645807 l 0.00238,-0.7666038 c 2.646e-4,-0.1170728 0.011139,-0.225089 0.033589,-0.3238764 0.02286,-0.1005761 0.063553,-0.1884098 0.1222164,-0.2613502 0.0571,-0.075785 0.1347919,-0.1338183 0.2294413,-0.1731168 0.096417,-0.042172 0.2329207,-0.06201 0.3512609,-0.06201 h 0.319378 V 1.8521362 Z"
     style="fill:#faf8f6;stroke-width:0.264583;enable-background:new"
     id="path875" />
  <path
     id="path1124"
     style="opacity:0.4;fill:#000000;stroke-width:2;stroke-linecap:round;stroke-linejoin:round"
     d="M 8,0 A 7.9999996,7.9999996 0 0 0 0,8 7.9999996,7.9999996 0 0 0 8,16 7.9999996,7.9999996 0 0 0 16,8 7.9999996,7.9999996 0 0 0 8,0 Z M 8,1 A 7,7 0 0 1 15,8 7,7 0 0 1 8,15 7,7 0 0 1 1,8 7,7 0 0 1 8,1 Z"
     transform="scale(0.26458333)" />
  <path
     id="path1324"
     style="opacity:1;fill:url(#linearGradient1412);fill-opacity:1;stroke-width:2;stroke-linecap:round;stroke-linejoin:round"
     d="M 8,1 A 7,7 0 0 0 1,8 7,7 0 0 0 8,15 7,7 0 0 0 15,8 7,7 0 0 0 8,1 Z M 8,2 A 5.9999999,5.9999999 0 0 1 14,8 5.9999999,5.9999999 0 0 1 8,14 5.9999999,5.9999999 0 0 1 2,8 5.9999999,5.9999999 0 0 1 8,2 Z"
     transform="scale(0.26458333)" />
</svg>
