<?xml version="1.0" encoding="UTF-8" standalone="no"?>
<!-- Created with Inkscape (http://www.inkscape.org/) -->

<svg
   width="16"
   height="16"
   viewBox="0 0 4.2333333 4.2333333"
   version="1.1"
   id="svg5"
   sodipodi:docname="system-settings.svg"
   inkscape:version="1.1.2 (0a00cf5339, 2022-02-04)"
   xmlns:inkscape="http://www.inkscape.org/namespaces/inkscape"
   xmlns:sodipodi="http://sodipodi.sourceforge.net/DTD/sodipodi-0.dtd"
   xmlns:xlink="http://www.w3.org/1999/xlink"
   xmlns="http://www.w3.org/2000/svg"
   xmlns:svg="http://www.w3.org/2000/svg">
  <sodipodi:namedview
     id="namedview7"
     pagecolor="#ffffff"
     bordercolor="#666666"
     borderopacity="1.0"
     inkscape:pageshadow="2"
     inkscape:pageopacity="0.0"
     inkscape:pagecheckerboard="0"
     inkscape:document-units="px"
     showgrid="false"
     units="px"
     height="48px"
     showguides="false"
     inkscape:zoom="23.157747"
     inkscape:cx="10.234156"
     inkscape:cy="12.026213"
     inkscape:window-width="1920"
     inkscape:window-height="1012"
     inkscape:window-x="0"
     inkscape:window-y="0"
     inkscape:window-maximized="1"
     inkscape:current-layer="svg5" />
  <defs
     id="defs2">
    <linearGradient
       inkscape:collect="always"
       id="linearGradient2014">
      <stop
         style="stop-color:#e6e6e6;stop-opacity:1"
         offset="0"
         id="stop2010" />
      <stop
         style="stop-color:#d3d3d3;stop-opacity:1"
         offset="1"
         id="stop2012" />
    </linearGradient>
    <linearGradient
       inkscape:collect="always"
       id="linearGradient1871">
      <stop
         style="stop-color:#ffffff;stop-opacity:1;"
         offset="0"
         id="stop1867" />
      <stop
         style="stop-color:#ffffff;stop-opacity:0.1"
         offset="0.12"
         id="stop2515" />
      <stop
         style="stop-color:#ffffff;stop-opacity:0.102"
         offset="0.89999998"
         id="stop2581" />
      <stop
         style="stop-color:#ffffff;stop-opacity:0.502"
         offset="1"
         id="stop1869" />
    </linearGradient>
    <linearGradient
       inkscape:collect="always"
       xlink:href="#linearGradient2014"
       id="linearGradient2016"
       x1="9.921875"
       y1="11.1125"
       x2="2.7781253"
       y2="1.5874999"
       gradientUnits="userSpaceOnUse"
       gradientTransform="scale(0.3333333)" />
    <linearGradient
       inkscape:collect="always"
       xlink:href="#linearGradient1871"
       id="linearGradient1412"
       x1="2.1166666"
       y1="0.26458332"
       x2="2.1166666"
       y2="3.96875"
       gradientUnits="userSpaceOnUse"
       gradientTransform="scale(3.7795276)" />
  </defs>
  <circle
     style="fill:url(#linearGradient2016);fill-opacity:1;stroke-width:0.176389;stroke-linecap:round;stroke-linejoin:round"
     id="path986"
     cx="2.1166666"
     cy="2.1166666"
     r="1.984375" />
  <circle
     style="fill:#4d4d4d;fill-opacity:1;stroke-width:0.252255;stroke-linejoin:round"
     id="path968"
     cx="2.1166666"
     cy="2.1166666"
     r="1.4552083" />
  <path
     id="rect975"
     style="fill:#cdcdcd;fill-opacity:1;stroke-width:0.264583;stroke-linejoin:round"
     d="M 2.1166324,0.93065244 C 2.0313174,0.92970258 2.0015091,0.93239644 1.9895083,1.0355557 l -0.00465,0.03669 c -0.01053,0.066905 -0.012664,0.097295 -0.075964,0.1136881 -0.00424,9.472e-4 -0.00818,0.00158 -0.012402,0.00259 -9.975e-4,2.058e-4 -0.00208,8.308e-4 -0.0031,0.00103 -0.015982,0.00386 -0.031365,0.00827 -0.047026,0.012919 v -5.159e-4 c -0.00262,8.943e-4 -0.00527,0.00181 -0.00775,0.00258 -0.00237,7.25e-4 -0.00436,0.00133 -0.00672,0.00207 -0.06361,0.01784 -0.080772,-0.00759 -0.1235066,-0.060465 l -0.022222,-0.028939 c -0.030987,-0.04167 -0.053221,-0.059562 -0.076998,-0.061495 -0.00297,-2.415e-4 -0.00575,-2.384e-4 -0.00879,0 -0.021257,0.00167 -0.044882,0.014568 -0.076998,0.03359 -0.07436,0.041836 -0.098547,0.05969 -0.057361,0.1550293 l 0.014469,0.03359 c 0.0262,0.068055 0.039769,0.094488 -0.020671,0.1472779 l 0.00155,-5.158e-4 c -0.012492,0.011841 -0.024849,0.024198 -0.03669,0.03669 l 5.159e-4,-0.00155 c -0.052789,0.06044 -0.079222,0.04687 -0.1472772,0.02067 l -0.03359,-0.014469 c -0.029794,-0.012871 -0.052035,-0.019083 -0.069763,-0.019637 -0.039001,-0.00122 -0.056503,0.025875 -0.085266,0.076998 -0.043479,0.073411 -0.055433,0.1008075 0.027905,0.1627808 l 0.028939,0.022221 c 0.052877,0.042734 0.078307,0.059896 0.060461,0.1235067 -7.435e-4,0.00236 -0.00134,0.00435 -0.00207,0.00672 -7.753e-4,0.00248 -0.00169,0.00514 -0.00258,0.00775 h 5.159e-4 c -0.00465,0.015661 -0.00906,0.031044 -0.012919,0.047026 -2.01e-4,0.00102 -8.255e-4,0.0021 -0.00103,0.0031 -0.00101,0.00422 -0.00164,0.00816 -0.00259,0.012402 -0.016391,0.0633 -0.046779,0.065435 -0.1136847,0.075964 l -0.03669,0.00465 c -0.1031592,0.012 -0.1058523,0.041809 -0.1049032,0.1271241 -9.498e-4,0.085315 0.00174,0.1151232 0.1049032,0.1271241 l 0.03669,0.00465 c 0.066905,0.01053 0.097295,0.012664 0.1136882,0.075964 9.472e-4,0.00424 0.00158,0.00818 0.00259,0.012402 2.057e-4,9.975e-4 8.307e-4,0.00208 0.00103,0.0031 0.00386,0.015982 0.00827,0.031365 0.012919,0.047025 h -5.16e-4 c 8.943e-4,0.00262 0.00181,0.00527 0.00259,0.00775 7.25e-4,0.00237 0.00132,0.00436 0.00207,0.00672 0.017844,0.06361 -0.00759,0.080772 -0.060462,0.1235067 l -0.028939,0.022221 c -0.083341,0.061972 -0.071388,0.08937 -0.027909,0.1627808 0.041836,0.07436 0.05969,0.098546 0.1550294,0.057361 l 0.03359,-0.01447 c 0.068055,-0.026199 0.094488,-0.039769 0.1472779,0.020672 l -5.159e-4,-0.00156 c 0.011841,0.012494 0.024198,0.024852 0.03669,0.03669 l -0.00155,-5.292e-4 c 0.060441,0.05279 0.046871,0.079223 0.020671,0.147278 l -0.014469,0.03359 c -0.041187,0.095339 -0.016999,0.1131917 0.057361,0.1550292 0.073411,0.04348 0.1008075,0.055433 0.1627808,-0.027905 l 0.022221,-0.028939 c 0.042734,-0.052877 0.059896,-0.078305 0.1235067,-0.060462 0.00236,7.408e-4 0.00435,0.00135 0.00672,0.00206 0.00248,7.673e-4 0.00514,0.00169 0.00775,0.00259 0.015661,0.00465 0.031044,0.00855 0.047026,0.012401 0.00102,2.024e-4 0.0021,8.202e-4 0.0031,0.00103 0.00422,0.00101 0.00816,0.00164 0.012402,0.00259 0.0633,0.016394 0.065435,0.046783 0.075964,0.1136883 l 0.00465,0.03669 c 0.011999,0.1031695 0.041806,0.1058627 0.1271232,0.1049137 0.085315,9.525e-4 0.1151232,-0.00175 0.1271241,-0.1049031 l 0.00465,-0.03669 c 0.010531,-0.066905 0.012664,-0.097295 0.075964,-0.1136883 0.00424,-9.525e-4 0.00818,-0.00159 0.012402,-0.00259 9.975e-4,-2.071e-4 0.00208,-8.202e-4 0.0031,-0.00103 0.015982,-0.00386 0.031365,-0.00775 0.047026,-0.012401 0.00262,-8.995e-4 0.00527,-0.0018 0.00775,-0.00259 0.00237,-7.143e-4 0.00436,-0.00132 0.00672,-0.00206 0.06361,-0.017843 0.080772,0.00759 0.1235067,0.060462 l 0.022221,0.028939 c 0.061972,0.083338 0.08937,0.071385 0.1627808,0.027905 0.07436,-0.041836 0.098548,-0.05969 0.057361,-0.1550292 l -0.01447,-0.03359 c -0.026201,-0.068054 -0.03977,-0.094487 0.02067,-0.1472769 l -0.00156,5.291e-4 c 0.012494,-0.01184 0.024852,-0.024196 0.03669,-0.03669 l -5.292e-4,0.00156 c 0.05279,-0.060441 0.079223,-0.046871 0.147278,-0.020672 l 0.03359,0.01447 c 0.095339,0.041187 0.1131933,0.017 0.1550292,-0.057361 0.04348,-0.073411 0.055433,-0.1008076 -0.027905,-0.1627809 l -0.028918,-0.022229 c -0.052876,-0.042735 -0.078306,-0.059897 -0.060461,-0.1235069 7.408e-4,-0.00236 0.00135,-0.00435 0.00206,-0.00672 7.673e-4,-0.00248 0.00169,-0.00514 0.00259,-0.00775 0.00465,-0.015661 0.00855,-0.031044 0.012401,-0.047026 2.024e-4,-0.00102 8.202e-4,-0.0021 0.00103,-0.0031 0.00101,-0.00422 0.00164,-0.00816 0.00259,-0.012402 0.016394,-0.0633 0.046783,-0.065435 0.1136883,-0.075964 l 0.03669,-0.00465 C 3.3008508,2.2317523 3.303544,2.2019453 3.302595,2.1166284 3.3035593,2.0313114 3.300865,2.0015038 3.1977037,1.989503 l -0.03669,-0.00465 C 3.0941087,1.974323 3.0637187,1.972189 3.0473254,1.908889 c -9.525e-4,-0.00424 -0.00159,-0.00818 -0.00259,-0.012402 -2.071e-4,-9.975e-4 -8.202e-4,-0.00208 -0.00103,-0.0031 -0.00386,-0.015982 -0.00775,-0.031365 -0.012401,-0.047026 -8.995e-4,-0.00262 -0.0018,-0.00527 -0.00259,-0.00775 -7.143e-4,-0.00237 -0.00132,-0.00436 -0.00206,-0.00672 -0.017843,-0.06361 0.00759,-0.080772 0.060462,-0.1235067 l 0.028939,-0.022221 c 0.083338,-0.061972 0.071385,-0.08937 0.027905,-0.1627808 -0.028763,-0.051122 -0.046265,-0.078219 -0.085266,-0.076998 -0.017727,5.556e-4 -0.039969,0.00677 -0.069763,0.019637 l -0.03359,0.014469 c -0.068055,0.0262 -0.094488,0.039768 -0.1472779,-0.020671 l 5.291e-4,0.00155 c -0.01184,-0.012492 -0.024196,-0.024851 -0.03669,-0.03669 l 0.00156,5.159e-4 C 2.7129996,1.3724064 2.7265696,1.3459734 2.7527696,1.2779182 l 0.014469,-0.03359 c 0.041187,-0.095339 0.016999,-0.1131934 -0.057361,-0.1550294 -0.036706,-0.02174 -0.062006,-0.035521 -0.085783,-0.03359 -0.023777,0.00193 -0.046011,0.019825 -0.076998,0.061495 l -0.022221,0.028939 c -0.042734,0.052877 -0.059896,0.078307 -0.1235068,0.060461 -0.00236,-7.434e-4 -0.00435,-0.00134 -0.00672,-0.00207 -0.00248,-7.752e-4 -0.00514,-0.00169 -0.00775,-0.00259 v 5.16e-4 c -0.015661,-0.00465 -0.031043,-0.00906 -0.047025,-0.012918 -0.00102,-2.011e-4 -0.0021,-8.255e-4 -0.0031,-0.00104 -0.00422,-0.001 -0.00816,-0.00163 -0.012402,-0.00258 -0.0633,-0.016393 -0.065434,-0.046781 -0.075964,-0.1136861 l -0.00465,-0.03669 C 2.2317597,0.93239491 2.2019477,0.92970338 2.1166324,0.93065244 Z m 0,0.48989276 c 0.080121,4.8e-6 0.1576073,0.013878 0.2299602,0.039274 a 0.18981108,0.18981108 0 0 0 0.0863,0.1090373 0.18981108,0.18981108 0 0 0 0.1374594,0.020154 c 0.1139405,0.097922 0.1966324,0.2328827 0.2284099,0.3886069 0.00801,0.039228 -0.021974,0.075968 -0.062012,0.075964 H 2.540896 C 2.51291,2.0535841 2.487914,2.0349254 2.479918,2.0081064 2.431926,1.8471308 2.2845836,1.7370424 2.1166324,1.7368051 c -0.029508,1.597e-4 -0.058659,0.00389 -0.087333,0.010852 -0.02729,0.00663 -0.055719,-0.00565 -0.069763,-0.029972 l -0.097669,-0.168982 c -0.019976,-0.034618 -0.00326,-0.078725 0.034623,-0.091467 0.070937,-0.023878 0.145296,-0.036485 0.220142,-0.036691 z M 1.7001202,1.5802254 c 0.021529,0.00101 0.041418,0.012856 0.052193,0.031523 l 0.097669,0.1694987 c 0.014006,0.024256 0.01048,0.054599 -0.00879,0.074931 -0.066632,0.070334 -0.104184,0.1635661 -0.1043817,0.2604489 1.107e-4,0.096941 0.03723,0.1900294 0.1038696,0.2604493 0.01925,0.020325 0.023292,0.051199 0.0093,0.075448 l -0.097668,0.1684652 c -0.020008,0.034657 -0.066664,0.042535 -0.096635,0.01602 C 1.5392895,2.5340837 1.4615512,2.3961168 1.432953,2.2458181 A 0.18981108,0.18981108 0 0 0 1.484113,2.116627 0.18981108,0.18981108 0 0 0 1.432953,1.9879526 C 1.461496,1.8375874 1.5392658,1.6992493 1.6556785,1.5962451 c 0.012334,-0.010913 0.02799,-0.01679 0.044442,-0.01602 z M 2.540896,2.1796722 h 0.1948203 c 0.040037,-3.8e-6 0.070023,0.036737 0.062012,0.075964 -0.031768,0.155634 -0.1140412,0.290696 -0.2278932,0.3886069 a 0.18981108,0.18981108 0 0 0 -0.046509,-0.00517 0.18981108,0.18981108 0 0 0 -0.090434,0.025321 0.18981108,0.18981108 0 0 0 -0.0863,0.1085207 C 2.2742171,2.7984238 2.1968086,2.8126238 2.1166324,2.8127088 2.0418184,2.8124114 1.9673662,2.7999618 1.8964907,2.7760188 1.8586537,2.7632438 1.8419117,2.7191448 1.8618677,2.6845508 L 1.9595367,2.515569 c 0.014045,-0.024318 0.042473,-0.0366 0.069763,-0.029972 0.028693,0.00697 0.057807,0.010694 0.087333,0.010852 0.1679981,-1.709e-4 0.3157953,-0.1102783 0.3638017,-0.2713014 0.008,-0.026819 0.032475,-0.045478 0.060462,-0.045475 z" />
  <path
     id="path1124"
     style="opacity:0.4;fill:#000000;stroke-width:2;stroke-linecap:round;stroke-linejoin:round"
     d="M 8,0 A 7.9999996,7.9999996 0 0 0 0,8 7.9999996,7.9999996 0 0 0 8,16 7.9999996,7.9999996 0 0 0 16,8 7.9999996,7.9999996 0 0 0 8,0 Z M 8,1 A 7,7 0 0 1 15,8 7,7 0 0 1 8,15 7,7 0 0 1 1,8 7,7 0 0 1 8,1 Z"
     transform="scale(0.26458333)" />
  <path
     id="path1324"
     style="opacity:1;fill:url(#linearGradient1412);fill-opacity:1;stroke-width:2;stroke-linecap:round;stroke-linejoin:round"
     d="M 8,1 A 7,7 0 0 0 1,8 7,7 0 0 0 8,15 7,7 0 0 0 15,8 7,7 0 0 0 8,1 Z M 8,2 A 5.9999999,5.9999999 0 0 1 14,8 5.9999999,5.9999999 0 0 1 8,14 5.9999999,5.9999999 0 0 1 2,8 5.9999999,5.9999999 0 0 1 8,2 Z"
     transform="scale(0.26458333)" />
</svg>
