<svg width="22" height="22" version="1.1" viewBox="0 0 22 22" xmlns="http://www.w3.org/2000/svg">
 <defs>
  <style id="current-color-scheme" type="text/css">.ColorScheme-Text{color:#666666}.ColorScheme-Highlight{color:#f34f17}</style>
 </defs>
 <path class="ColorScheme-Text" d="m3 3v3h1v1h1v-1h1v-1h1v-1h-1v-1zm13 0v1h-1v1h1v1h1v1h1v-1h1v-3zm-12 1h1v1h-1zm5 0v1h1v-1zm3 0v1h1v-1zm5 0h1v1h-1zm-13 5v1h1v-1zm13 0v1h1v-1zm-13 3v1h1v-1zm13 0v1h1v-1zm-13 3v1h-1v3h3v-1h1v-1h-1v-1h-1v-1zm0 2h1v1h-1zm5 0v1h1v-1zm3 0v1h1v-1z" color="#666666" fill="#dfdfdf"/>
 <path class="ColorScheme-Highlight" d="m15 15v4h4v-4zm1 1h2v2h-2z" color="#f34f17" fill="#f34f17"/>
</svg>
