<svg width="18" height="18" version="1.1" viewBox="0 0 18 18" xmlns="http://www.w3.org/2000/svg">
 <defs>
  <style id="current-color-scheme" type="text/css">.ColorScheme-Text { color:#dfdfdf; } .ColorScheme-Highlight { color:#f34f17; }</style>
 </defs>
 <path class="ColorScheme-Text" d="m8.5996 2-0.70703 0.70703 2.293 2.293h-3.1855v1h3.1855l-2.293 2.293 0.70703 0.70703 3.5-3.5-0.20703-0.20703zm-3.0996 3c-0.277 0-0.5 0.223-0.5 0.5 0 0.277 0.223 0.5 0.5 0.5 0.277 0 0.5-0.223 0.5-0.5 0-0.277-0.223-0.5-0.5-0.5zm-3 2c-0.277 0-0.5 0.223-0.5 0.5 0 0.277 0.223 0.5 0.5 0.5s0.5-0.223 0.5-0.5c0-0.277-0.223-0.5-0.5-0.5zm-1 3c-0.277 0-0.5 0.223-0.5 0.5s0.223 0.5 0.5 0.5 0.5-0.223 0.5-0.5-0.223-0.5-0.5-0.5zm1 3c-0.277 0-0.5 0.223-0.5 0.5s0.223 0.5 0.5 0.5 0.5-0.223 0.5-0.5-0.223-0.5-0.5-0.5zm3 2c-0.277 0-0.5 0.223-0.5 0.5s0.223 0.5 0.5 0.5 0.5-0.223 0.5-0.5-0.223-0.5-0.5-0.5z" color="#dfdfdf" fill="currentColor"/>
 <path class="ColorScheme-Highlight" d="m13 8.9492a4 4 0 0 0-4 4 4 4 0 0 0 4 4 4 4 0 0 0 4-4 4 4 0 0 0-4-4zm0 1a3 3 0 0 1 3 3 3 3 0 0 1-3 3 3 3 0 0 1-3-3 3 3 0 0 1 3-3z" color="#f34f17" fill="currentColor"/>
</svg>
