<svg width="22" height="22" version="1.1" xmlns="http://www.w3.org/2000/svg">
 <path d="m7.9142 3c-0.74645 0.0092-1.3953-0.04805-2.0176 0.30664-0.3379 0.19237-0.59299 0.50904-0.73047 0.88672-0.13085 0.35823-0.16602 0.74224-0.16602 1.1816v8.5762l1-1v-7.5762c0-0.38185 0.036335-0.65057 0.10547-0.83984 0.0625-0.1717 0.17051-0.29299 0.28711-0.35938 0.2911-0.16593 0.75557-0.16632 1.5273-0.17578h5.1602c0.76856 0.0094 1.2333 0.01199 1.5234 0.17578 0.03661 0.02164 0.07152 0.04765 0.10352 0.07617l0.70703-0.70703c-0.09257-0.08923-0.19418-0.16855-0.30664-0.23438l-2e-3 -2e-3 -0.0039-2e-3c-0.62114-0.35351-1.2678-0.29745-2.0156-0.30664h-5.1719zm8.0859 2.7676-1 1v9.8574c0 0.38111-0.036 0.64965-0.10547 0.83984l-0.0039 0.0078c-0.05309 0.15301-0.1564 0.27624-0.28711 0.35352-0.28914 0.16329-0.75406 0.1644-1.5234 0.17383h-5.1602c-0.77219-0.0095-1.2381-0.0092-1.5273-0.17383-0.1148-0.06536-0.22436-0.18894-0.28711-0.36133-0.069134-0.18927-0.10547-0.458-0.10547-0.83984v-0.85547l-0.99609 0.99609c0.00752 0.38066 0.045623 0.72211 0.16211 1.041 0.13723 0.37699 0.39077 0.69528 0.73047 0.88867 0.62233 0.35416 1.2715 0.29551 2.0176 0.30469h5.1718c0.74695-0.0092 1.3935 0.04934 2.0156-0.30469l0.0039-2e-3 2e-3 -2e-3c0.34077-0.19943 0.59628-0.51716 0.72656-0.89062l2e-3 -2e-3c0.1283-0.35514 0.16406-0.73664 0.16406-1.1738v-10.857z" color="#000000" fill="#dfdfdf" opacity=".5" style="-inkscape-stroke:none"/>
 <path d="m10.072 4.293v4.584l0.92773-0.92773v-1.2422l0.62109 0.62109 0.74414-0.74414-2.293-2.291zm-2.4277 3.5742-0.64453 0.76562 1.8027 1.5137 0.71094-0.70898-1.8691-1.5703zm6.1309 0.12695-6.1348 6.1348 0.00391 0.0039 2.4277-2.0391v5.6133l4.2402-4.2383-2.9395-2.4688 2.9395-2.4688-0.53711-0.53711zm-2.7754 4.0586 1.7598 1.4805-1.7598 1.7598v-3.2402z" color="#000000" fill="#dfdfdf" opacity=".5" style="isolation:auto;mix-blend-mode:normal;shape-padding:0;text-decoration-color:#000000;text-decoration-line:none;text-decoration-style:solid;text-indent:0;text-transform:none;white-space:normal"/>
 <path d="m16.68 3.6797-1.3164 1.3184c-0.0019-9.156e-4 -0.0041-6.756e-4 -0.0059-0.00195l-9.7656 9.7676-0.00195 0.0039-2.4102 2.4121 0.70312 0.70312 13.5-13.5-0.70312-0.70312z" fill="#dfdfdf" opacity=".5" stroke-width="1.8525"/>
</svg>
