<svg width="32" height="32" version="1" xmlns="http://www.w3.org/2000/svg" xmlns:xlink="http://www.w3.org/1999/xlink">
 <defs>
  <linearGradient id="linearGradient924" x1="459.03" x2="35.31" y1="419.23" y2="207.37" gradientTransform="matrix(0 -.072088 .072086 0 -7.1296 33.818)" gradientUnits="userSpaceOnUse">
   <stop stop-color="#f2f2f2" offset="0"/>
   <stop stop-color="#f9f9f9" offset="1"/>
  </linearGradient>
  <linearGradient id="linearGradient969" x1="336" x2="336" y1="134" y2="162" gradientUnits="userSpaceOnUse">
   <stop stop-color="#fff" offset="0"/>
   <stop stop-color="#fff" stop-opacity=".098039" offset=".125"/>
   <stop stop-color="#fff" stop-opacity=".098039" offset=".925"/>
   <stop stop-color="#fff" stop-opacity=".49804" offset="1"/>
  </linearGradient>
  <clipPath id="clipPath959">
   <path d="m330.19 134c-5.6154 0-6.2196 0.57678-6.1921 6.2035v7.7965 7.7965c-0.0276 5.6267 0.57668 6.2035 6.1921 6.2035h11.615c5.6154 0 6.1921-0.5767 6.1921-6.2035v-7.7965-7.7965c0-5.6268-0.5767-6.2035-6.1921-6.2035z" color="#000000" fill="#46a926"/>
  </clipPath>
 </defs>
 <path d="m10.193 2c-1.421 0-2.5488 0.0308-3.5059 0.19141-0.95703 0.16064-1.7915 0.4726-2.4121 1.0918s-0.93647 1.4561-1.0957 2.4141c-0.15924 0.95795-0.18666 2.087-0.17969 3.5117v7.791 7.7969c-7e-3 1.4213 0.0207 2.5495 0.17969 3.5058 0.15923 0.95796 0.47505 1.7949 1.0957 2.4141s1.4551 0.93115 2.4121 1.0918c0.95703 0.16065 2.0849 0.19141 3.5059 0.19141h11.615c1.421 0 2.5467-0.0307 3.502-0.19141 0.95527-0.16075 1.7878-0.47425 2.4062-1.0938 0.61845-0.6195 0.93134-1.4536 1.0918-2.4102 0.16046-0.95653 0.19141-2.084 0.19141-3.5078v-7.7969-7.7969c0-1.4238-0.031-2.5513-0.19141-3.5078-0.16045-0.95653-0.47334-1.7906-1.0918-2.4102-0.61846-0.61951-1.451-0.933-2.4062-1.0938-0.95527-0.16076-2.081-0.19141-3.502-0.19141z" color="#000000" color-rendering="auto" dominant-baseline="auto" image-rendering="auto" opacity=".1" shape-rendering="auto" solid-color="#000000" style="font-feature-settings:normal;font-variant-alternates:normal;font-variant-caps:normal;font-variant-ligatures:normal;font-variant-numeric:normal;font-variant-position:normal;isolation:auto;mix-blend-mode:normal;shape-padding:0;text-decoration-color:#000000;text-decoration-line:none;text-decoration-style:solid;text-indent:0;text-orientation:mixed;text-transform:none;white-space:normal"/>
 <path d="m10.193 2c-5.6154 0-6.2196 0.57678-6.1921 6.2035v7.7965 7.7965c-0.0276 5.6267 0.57668 6.2035 6.1921 6.2035h11.615c5.6154 0 6.1921-0.5767 6.1921-6.2035v-7.7965-7.7965c0-5.6268-0.5767-6.2035-6.1921-6.2035z" color="#000000" fill="none" opacity=".2" stroke="#000" stroke-width="2"/>
 <path d="m10.193 2c-5.6154 0-6.2196 0.57678-6.1921 6.2035v7.7965 7.7965c-0.0276 5.6267 0.57668 6.2035 6.1921 6.2035h11.615c5.6154 0 6.1921-0.5767 6.1921-6.2035v-7.7965-7.7965c0-5.6268-0.5767-6.2035-6.1921-6.2035z" color="#000000" fill="url(#linearGradient924)"/>
 <g transform="matrix(.875 0 0 .875 -561.5 -166)" enable-background="new" opacity=".75">
  <path transform="translate(-241 367)" d="m901-164v5l3 3" fill="none" stroke="#808080" stroke-width="1px"/>
  <rect transform="rotate(90)" x="200" y="-668" width="16" height="16" color="#000000" enable-background="accumulate" fill="none"/>
  <rect transform="rotate(90)" x="200" y="-668" width="16" height="16" color="#000000" enable-background="accumulate" fill="none"/>
  <path d="m660 200a8 8 0 0 0-8 8 8 8 0 0 0 8 8 8 8 0 0 0 8-8 8 8 0 0 0-8-8zm0 1a7 7 0 0 1 7 7 7 7 0 0 1-7 7 7 7 0 0 1-7-7 7 7 0 0 1 7-7z" fill="#808080" opacity="1"/>
 </g>
 <path d="m4 16v7.7969c-0.0276 5.6267 0.57798 6.2031 6.1934 6.2031h11.615c5.6154 0 6.1914-0.57631 6.1914-6.2031v-7.7969z" color="#000000" fill="#fff" opacity=".2"/>
 <path d="m16 2v28h5.8086c5.6154 0 6.1914-0.57631 6.1914-6.2031v-7.7969-7.7969c0-5.6268-0.57603-6.2031-6.1914-6.2031z" color="#000000" fill="#fff" opacity=".2"/>
 <path transform="translate(-320,-132)" d="m330.19 134c-5.6154 0-6.2196 0.57678-6.1921 6.2035v7.7965 7.7965c-0.0276 5.6267 0.57668 6.2035 6.1921 6.2035h11.615c5.6154 0 6.1921-0.5767 6.1921-6.2035v-7.7965-7.7965c0-5.6268-0.5767-6.2035-6.1921-6.2035z" clip-path="url(#clipPath959)" color="#000000" fill="none" opacity=".4" stroke="url(#linearGradient969)" stroke-width="2"/>
</svg>
