<?xml version="1.0" encoding="UTF-8" standalone="no"?>
<!-- Created with Inkscape (http://www.inkscape.org/) -->

<svg
   width="16"
   height="16"
   viewBox="0 0 4.2333332 4.2333335"
   version="1.1"
   id="svg5"
   inkscape:version="1.1.2 (0a00cf5339, 2022-02-04)"
   sodipodi:docname="media-floppy.svg"
   xmlns:inkscape="http://www.inkscape.org/namespaces/inkscape"
   xmlns:sodipodi="http://sodipodi.sourceforge.net/DTD/sodipodi-0.dtd"
   xmlns:xlink="http://www.w3.org/1999/xlink"
   xmlns="http://www.w3.org/2000/svg"
   xmlns:svg="http://www.w3.org/2000/svg">
  <sodipodi:namedview
     id="namedview7"
     pagecolor="#ffffff"
     bordercolor="#666666"
     borderopacity="1.0"
     inkscape:pageshadow="2"
     inkscape:pageopacity="0.0"
     inkscape:pagecheckerboard="0"
     inkscape:document-units="px"
     showgrid="false"
     units="px"
     inkscape:zoom="48"
     inkscape:cx="7.9895833"
     inkscape:cy="8"
     inkscape:window-width="1920"
     inkscape:window-height="995"
     inkscape:window-x="0"
     inkscape:window-y="0"
     inkscape:window-maximized="1"
     inkscape:current-layer="svg5" />
  <defs
     id="defs2">
    <linearGradient
       inkscape:collect="always"
       id="linearGradient17934">
      <stop
         style="stop-color:#999999;stop-opacity:1"
         offset="0"
         id="stop17930" />
      <stop
         style="stop-color:#dbdbdb;stop-opacity:1"
         offset="1"
         id="stop17932" />
    </linearGradient>
    <linearGradient
       inkscape:collect="always"
       id="linearGradient1871">
      <stop
         style="stop-color:#ffffff;stop-opacity:1;"
         offset="0"
         id="stop1867" />
      <stop
         style="stop-color:#ffffff;stop-opacity:0.1"
         offset="0.12"
         id="stop2515" />
      <stop
         style="stop-color:#ffffff;stop-opacity:0.102"
         offset="0.89999998"
         id="stop2581" />
      <stop
         style="stop-color:#ffffff;stop-opacity:0.502"
         offset="1"
         id="stop1869" />
    </linearGradient>
    <linearGradient
       inkscape:collect="always"
       xlink:href="#linearGradient1871"
       id="linearGradient915"
       x1="2.1166668"
       y1="0.26458332"
       x2="2.1166668"
       y2="3.96875"
       gradientUnits="userSpaceOnUse"
       gradientTransform="translate(-0.26458333)" />
    <linearGradient
       inkscape:collect="always"
       xlink:href="#linearGradient17934"
       id="linearGradient1003"
       x1="1.2844203"
       y1="-0.3968617"
       x2="1.3012133"
       y2="4.4979305"
       gradientUnits="userSpaceOnUse"
       gradientTransform="translate(-0.26458459)" />
  </defs>
  <path
     d="m 1.0837582,0.264597 c -0.19023798,0 -0.34443498,0.0037 -0.48573795,0.02739 -0.141306,0.02373 -0.282644,0.0731 -0.39066,0.180867 -0.108013,0.107765 -0.157837,0.249563 -0.181374,0.391189 -0.02355,0.141629 -0.02677,0.29646 -0.02585,0.487309 v 0.765329 1.031462 c -7.94e-4,0.190013 0.0024,0.34458 0.02585,0.485759 0.02355,0.141626 0.07336,0.283425 0.181374,0.391189 0.108016,0.107768 0.249354,0.157147 0.39066,0.180867 0.14130297,0.02373 0.29549997,0.02739 0.48573795,0.02739 h 2.0659647 c 0.190238,0 0.344096,-0.0036 0.485219,-0.02739 0.141126,-0.02376 0.28248,-0.07353 0.390142,-0.181383 0.107664,-0.107849 0.157167,-0.249425 0.180861,-0.390673 0.0237,-0.14125 0.1143978,-0.3161614 0.02739,-0.485759 V 2.11668 1.349801 c 0,-0.190614 -0.0037,-0.344509 -0.02739,-0.485759 -0.02368,-0.141248 -0.0732,-0.282824 -0.180861,-0.390673 -0.107662,-0.10785 -0.249016,-0.157634 -0.390142,-0.181383 -0.141123,-0.02376 -0.294981,-0.02739 -0.485219,-0.02739 z"
     style="color:#000000;font-style:normal;font-variant:normal;font-weight:normal;font-stretch:normal;font-size:medium;line-height:normal;font-family:sans-serif;font-variant-ligatures:normal;font-variant-position:normal;font-variant-caps:normal;font-variant-numeric:normal;font-variant-alternates:normal;font-feature-settings:normal;text-indent:0;text-align:start;text-decoration:none;text-decoration-line:none;text-decoration-style:solid;text-decoration-color:#000000;letter-spacing:normal;word-spacing:normal;text-transform:none;writing-mode:lr-tb;direction:ltr;text-orientation:mixed;dominant-baseline:auto;baseline-shift:baseline;text-anchor:start;white-space:normal;shape-padding:0;clip-rule:nonzero;display:inline;overflow:visible;visibility:visible;opacity:0.1;isolation:auto;mix-blend-mode:normal;color-interpolation:sRGB;color-interpolation-filters:linearRGB;solid-color:#000000;solid-opacity:1;vector-effect:none;fill:#000000;fill-opacity:1;fill-rule:nonzero;stroke:none;stroke-width:0.529156;stroke-linecap:butt;stroke-linejoin:miter;stroke-miterlimit:4;stroke-dasharray:none;stroke-dashoffset:0;stroke-opacity:1;marker:none;color-rendering:auto;image-rendering:auto;shape-rendering:auto;text-rendering:auto;enable-background:accumulate"
     id="path3731"
     sodipodi:nodetypes="ccccccccccsscccscscsccc" />
  <path
     d="m 1.0198357,0.132305 c -0.80477296,0 -0.89136596,0.08175 -0.88742096,0.879292 V 2.11668 3.22176 c -0.0039,0.797541 0.08265,0.879295 0.88742096,0.879295 h 2.1937817 c 0.804775,0 0.887423,-0.08174 0.887423,-0.879295 V 2.11668 1.011597 c 0,-0.797549 -0.08265,-0.879292 -0.887423,-0.879292 z"
     style="color:#000000;display:inline;overflow:visible;visibility:visible;fill:url(#linearGradient1003);fill-opacity:1;fill-rule:nonzero;stroke:none;stroke-width:0.264583;marker:none;enable-background:accumulate"
     id="path3851"
     sodipodi:nodetypes="scccssscsss" />
  <path
     d="m 1.037167,0.264607 c -0.377841,0 -0.571222,0.03201 -0.650867,0.103696 C 0.34648,0.404143 0.31702,0.456053 0.29553,0.556607 0.27405,0.657164 0.26459,0.801031 0.26459,0.992026 v 1.124659 1.124659 c 0,0.190998 0.0094,0.334862 0.03094,0.43542 0.02148,0.100557 0.05095,0.152458 0.09077,0.188304 0.07964,0.07169 0.273026,0.103695 0.650867,0.103695 h 2.1589177 c 0.377936,0 0.572397,-0.03194 0.652415,-0.103695 0.04001,-0.03588 0.06949,-0.08742 0.09077,-0.187788 0.02125,-0.100365 0.03045,-0.244544 0.0294,-0.435417 V 3.241334 2.116685 0.992026 0.991497 c 0.0011,-0.190873 -0.0081,-0.335053 -0.0294,-0.435417 -0.02127,-0.100364 -0.05076,-0.151905 -0.09077,-0.187788 -0.08002,-0.07176 -0.274479,-0.103695 -0.652415,-0.103695 z m 0.611674,0.271881 c 0.240009,-2.65e-4 1.0091367,-2.65e-4 1.2491427,0.0011 0.24038,0.0087 0.483854,-0.01283 0.722043,0.0263 0.06492,-0.0045 0.05335,0.07245 0.0624,0.115562 0.0199,0.741997 0.01408,1.499798 0.01135,2.248807 -0.006,0.225946 0.0043,0.450837 -0.01807,0.673246 0.0032,0.08312 -0.09426,0.06942 -0.152144,0.08254 -0.55005,0.01611 -1.6455127,0.0097 -2.2027537,0.0098 -0.233955,-0.008 -0.47036103,0.01148 -0.702445,-0.02267 -0.06701,0.0067 -0.05625,-0.06917 -0.06808,-0.11247 -0.02117,-0.765444 -0.01423,-1.541465 -0.01135,-2.312257 0.0073,-0.208933 -0.0067,-0.416597 0.02061,-0.624755 -0.0061,-0.07268 0.07841,-0.05634 0.124809,-0.06965 0.320572,-0.02201 0.643157,-0.01058 0.964443,-0.01548 z"
     style="color:#000000;display:inline;overflow:visible;visibility:visible;opacity:0.3;fill:url(#linearGradient915);fill-opacity:1;fill-rule:nonzero;stroke:none;stroke-width:0.2641;marker:none;enable-background:accumulate"
     id="path4135"
     sodipodi:nodetypes="cccscsccsscccccccccccccccccccccccccc" />
  <path
     d="m 1.03663,1.3e-5 c -0.387115,0 -0.645898,0.0083 -0.827339,0.171567 C 0.118571,0.25323 0.065273,0.367512 0.03669,0.501274 0.00811,0.63504 0,0.7933 0,0.992201 V 2.11668 3.241159 C 0,3.44006 0.0081,3.59832 0.03669,3.732085 0.06527,3.865851 0.11857,3.98013 0.209291,4.06178 0.390732,4.225084 0.649515,4.233347 1.03663,4.233347 h 2.1595577 c 0.38721,0 0.64738,-0.0078 0.829406,-0.171048 0.09101,-0.08162 0.144208,-0.196255 0.1726,-0.330214 0.02836,-0.133818 0.03615,-0.2922 0.03514,-0.490926 V 3.24063 2.11668 0.992717 0.992187 c 0.0011,-0.198725 -0.0068,-0.357108 -0.03514,-0.490926 -0.02839,-0.133958 -0.08159,-0.248597 -0.1726,-0.330213 C 3.8435657,0.007818 3.5833977,0 3.1961877,0 Z m 0,0.264584 h 2.1595577 c 0.377997,0 0.572728,0.03218 0.652672,0.10387 0.03997,0.03584 0.06917,0.08723 0.09043,0.187584 0.02127,0.100351 0.03044,0.244226 0.02946,0.435115 v 5.29e-4 1.124995 1.124996 5.29e-4 c 0.0011,0.190889 -0.0082,0.334761 -0.02946,0.435115 -0.02127,0.100351 -0.05046,0.151738 -0.09043,0.187584 -0.07994,0.07167 -0.274675,0.103849 -0.652672,0.103849 H 1.03663 c -0.377902,0 -0.571035,-0.03174 -0.650608,-0.103354 C 0.346232,3.829599 0.317072,3.777339 0.295592,3.67679 0.274112,3.576243 0.264582,3.43217 0.264582,3.241159 V 2.11668 0.992201 c 0,-0.191011 0.0095,-0.335084 0.03101,-0.435631 0.02148,-0.10055 0.05065,-0.152813 0.09043,-0.188622 0.07957,-0.07161 0.272706,-0.103351 0.650608,-0.103351 z"
     style="color:#000000;display:inline;opacity:0.4;fill:#000000;stroke-width:0.264583;-inkscape-stroke:none;enable-background:new"
     id="path4015"
     sodipodi:nodetypes="cccscsccsssccccccccccsscccccccccssssscsccs" />
  <path
     d="M 3.175,4.100031 V 3.175 C 3.175,2.9104167 3.0081881,2.9104167 2.9104166,2.9104167 h -1.5875 c -0.097798,0 -0.2645833,0 -0.2645833,0.2645833 v 0.925031 c 1.8990019,-4.76e-5 0.058039,0.00238 2.1166667,0 z M 1.3229166,3.96875 V 3.175 h 0.79375 v 0.79375 z"
     style="display:inline;fill:#666666;fill-opacity:1;stroke-width:0.203809;enable-background:new"
     id="path981" />
  <rect
     style="opacity:1;fill:#ffffff;fill-opacity:1;stroke-width:0.264583"
     id="rect1611"
     width="2.6458333"
     height="1.8520833"
     x="0.79374999"
     y="0.5291667" />
</svg>
