<svg width="24" height="24" version="1.1" xmlns="http://www.w3.org/2000/svg">
 <rect transform="matrix(0,-1,-1,0,0,0)" x="-24" y="-23" width="22" height="22" rx="11" ry="11" enable-background="new" opacity=".2"/>
 <rect transform="matrix(0,-1,-1,0,0,0)" x="-23" y="-23" width="22" height="22" rx="11" ry="11" enable-background="new" fill="#929ca2"/>
 <path d="m6.9053 7c-0.52 0-0.94 0.048-1.304 0.19099-0.364 0.14403-0.662 0.41001-0.832 0.735-0.34 0.648-0.299 1.402-0.309 2.431v3.286c0.012 1.029-0.031 1.784 0.309 2.431 0.17 0.324 0.468 0.591 0.832 0.73499 0.364 0.14301 0.784 0.19101 1.304 0.19101h3.112c0.52 0 0.94-0.048 1.304-0.19101 0.364-0.144 0.66-0.41 0.83-0.73499 0.296-0.56301 0.297-1.241 0.301-2.076l1.946-3e-3 0.562-0.494 0.5 0.5 0.5-0.5 0.5 0.5 0.5-0.5 1 1 2.5-2.5-2-2-6.008 2e-3c0-0.83501-0.0103-1.513-0.3-2.076a1.607 1.607 0 0 0-0.833-0.73454c-0.363-0.14401-0.782-0.192-1.302-0.192zm0 1h3.112c0.451 0 0.756 0.052 0.935 0.12299 0.18 0.07 0.244 0.13402 0.315 0.268 0.14 0.268 0.182 0.94402 0.193 1.978v0.63301l6.586-2e-3 1 1-1.086 1.086-1-1-0.5 0.5-0.5-0.5-0.5 0.5-0.455-0.45501-0.984 0.86301-2.561 6e-3v0.62999c-0.0114 1.035-0.053 1.711-0.193 1.98-0.0699 0.13299-0.135 0.19601-0.315 0.26699-0.18 0.0699-0.484 0.12301-0.935 0.12301h-3.112c-0.451 0-0.758-0.052-0.937-0.12301-0.18-0.071-0.242-0.134-0.313-0.268-0.14-0.26698-0.183-0.94299-0.195-1.972v-3.274c0.012-1.029 0.055-1.705 0.195-1.973 0.0699-0.134 0.133-0.19601 0.313-0.26702 0.18-0.071 0.486-0.12298 0.937-0.12298zm0.555 3a1 1 0 0 0-1 1 1 1 0 0 0 1 1 1 1 0 0 0 1-1 1 1 0 0 0-1-1z" color="#000000" enable-background="new" fill="#fff" font-weight="400" overflow="visible" stroke="#fff" stroke-width=".5" style="font-feature-settings:normal;font-variant-alternates:normal;font-variant-caps:normal;font-variant-ligatures:normal;font-variant-numeric:normal;font-variant-position:normal;isolation:auto;mix-blend-mode:normal;shape-padding:0;text-decoration-color:#000000;text-decoration-line:none;text-decoration-style:solid;text-indent:0;text-orientation:mixed;text-transform:none;white-space:normal"/>
</svg>
