<svg width="18" height="18" version="1.1" viewBox="0 0 18 18" xmlns="http://www.w3.org/2000/svg">
 <defs>
  <style id="current-color-scheme" type="text/css">.ColorScheme-Text { color:#666666; } .ColorScheme-Highlight { color:#f34f17; }</style>
 </defs>
 <rect transform="matrix(0,-1,-1,0,0,0)" x="-15" y="-2" width="1" height="2" fill="#666" stroke-width=".57735"/>
 <rect transform="matrix(0,-1,-1,0,0,0)" x="-15" y="-17" width="1" height="2" fill="#666" stroke-width=".57735"/>
 <rect transform="matrix(0,-1,-1,0,0,0)" x="-4" y="-15" width="1" height="5" fill="#666" stroke-width=".91287"/>
 <rect transform="matrix(0,-1,-1,0,0,0)" x="-4" y="-7" width="1" height="5" fill="#666" stroke-width=".91287"/>
 <path d="m6 1v5h5v-5zm1 1h3v3h-3z" fill="#f34f17" stroke-width=".91287"/>
 <path d="m8 7v1h-2l2.5 3 2.5-3h-2v-1z" color="#444444" fill="#666"/>
 <path d="m11 12v5h5v-5zm1 1h3v3h-3z" fill="#f34f17" stroke-width=".91287"/>
 <path d="m1 12v5h5v-5zm1 1h3v3h-3z" fill="#f34f17" stroke-width=".91287"/>
</svg>
