<svg version="1.1" viewBox="0 0 18 18" xmlns="http://www.w3.org/2000/svg">
 <defs>
  <style id="current-color-scheme" type="text/css">.ColorScheme-Text { color:#666666; } .ColorScheme-Highlight { color:#f34f17; }</style>
 </defs>
 <path d="m1 14v3h3v-3h-3zm1 1h1v1h-1v-1z" fill="#f34f17"/>
 <path d="m16 12v5h1v-5z" fill="#666"/>
 <path d="m12.607 12c0.0295-0.016-0.60742 0.60938-0.60742 0.60938l1.9043 1.8906-1.873 1.9355 0.57617 0.56445 2.3926-2.5z" fill="#666"/>
 <path d="m14 1v3h3v-3h-3zm1 1h1v1h-1v-1z" fill="#f34f17"/>
 <path class="ColorScheme-Highlight" d="m14 2a12 12 0 0 0-12 12h1a11 11 0 0 1 11-11z" fill="#666"/>
</svg>
