<?xml version="1.0" encoding="UTF-8" standalone="no"?>
<!-- Created with Inkscape (http://www.inkscape.org/) -->

<svg
   width="24"
   height="24"
   viewBox="0 0 6.35 6.35"
   version="1.1"
   id="svg5"
   sodipodi:docname="kate.svg"
   inkscape:version="1.1.2 (0a00cf5339, 2022-02-04, custom)"
   xmlns:inkscape="http://www.inkscape.org/namespaces/inkscape"
   xmlns:sodipodi="http://sodipodi.sourceforge.net/DTD/sodipodi-0.dtd"
   xmlns:xlink="http://www.w3.org/1999/xlink"
   xmlns="http://www.w3.org/2000/svg"
   xmlns:svg="http://www.w3.org/2000/svg">
  <sodipodi:namedview
     id="namedview7"
     pagecolor="#ffffff"
     bordercolor="#666666"
     borderopacity="1.0"
     inkscape:pageshadow="2"
     inkscape:pageopacity="0.0"
     inkscape:pagecheckerboard="0"
     inkscape:document-units="px"
     showgrid="false"
     units="px"
     height="48px"
     showguides="false"
     inkscape:zoom="16.375"
     inkscape:cx="9.3129771"
     inkscape:cy="15.847328"
     inkscape:window-width="1920"
     inkscape:window-height="1006"
     inkscape:window-x="0"
     inkscape:window-y="0"
     inkscape:window-maximized="1"
     inkscape:current-layer="svg5" />
  <defs
     id="defs2">
    <linearGradient
       inkscape:collect="always"
       id="linearGradient2014">
      <stop
         style="stop-color:#008bff;stop-opacity:1"
         offset="0"
         id="stop2010" />
      <stop
         style="stop-color:#00ccff;stop-opacity:1"
         offset="1"
         id="stop2012" />
    </linearGradient>
    <linearGradient
       inkscape:collect="always"
       id="linearGradient1871">
      <stop
         style="stop-color:#ffffff;stop-opacity:1;"
         offset="0"
         id="stop1867" />
      <stop
         style="stop-color:#ffffff;stop-opacity:0.1"
         offset="0.12"
         id="stop2515" />
      <stop
         style="stop-color:#ffffff;stop-opacity:0.102"
         offset="0.89999998"
         id="stop2581" />
      <stop
         style="stop-color:#ffffff;stop-opacity:0.502"
         offset="1"
         id="stop1869" />
    </linearGradient>
    <linearGradient
       inkscape:collect="always"
       xlink:href="#linearGradient1871"
       id="linearGradient1198"
       x1="6.3499999"
       y1="0.52916658"
       x2="6.3499994"
       y2="12.170834"
       gradientUnits="userSpaceOnUse"
       gradientTransform="scale(1.8897639)" />
    <linearGradient
       inkscape:collect="always"
       xlink:href="#linearGradient2014"
       id="linearGradient2016"
       x1="11.992527"
       y1="12.147826"
       x2="0.70747304"
       y2="-0.48315239"
       gradientUnits="userSpaceOnUse"
       gradientTransform="matrix(0.51111109,0,0,0.51111109,-0.07055533,-0.07055533)" />
  </defs>
  <circle
     style="fill:url(#linearGradient2016);fill-opacity:1;stroke-width:0.270463;stroke-linecap:round;stroke-linejoin:round"
     id="path986"
     cx="3.175"
     cy="3.175"
     r="3.0427084" />
  <path
     id="rect13049"
     style="opacity:0.1;fill:#ffffff;stroke-width:0.999999;stroke-linecap:round;stroke-linejoin:round"
     d="M 0.5 12 A 11.5 11.5 0 0 0 12 23.5 A 11.5 11.5 0 0 0 23.5 12 L 0.5 12 z "
     transform="scale(0.26458333)" />
  <path
     id="path10-3"
     style="opacity:0.1;fill:#000000;stroke-width:0.148549"
     d="M 3.0228238,1.3229171 C 2.7057594,1.3226686 2.3412249,1.4131847 1.9876184,1.6693395 1.6421027,1.919634 1.4905163,1.9882716 1.3229167,2.071468 1.4698474,2.0826788 2.3370069,1.9595935 2.5153759,2.4556082 1.8794378,2.6654595 1.6296845,3.0068278 1.7099583,3.4037727 c 0.012628,0.071473 0.036816,0.1461602 0.073695,0.2236948 0.038087,0.080075 0.081525,0.1487086 0.1291106,0.2094783 0.00227,0.00319 0.00465,0.00638 0.00696,0.00957 -0.00119,-0.00166 -0.00231,-0.00327 -0.00348,-0.00494 C 2.2095068,4.2117895 2.6700653,4.2695131 3.1684725,4.602902 3.6225872,4.9066673 3.7734212,5.0612547 4.066443,5.482307 4.0055092,4.9005418 3.684514,4.1507648 3.5529023,3.8204081 L 3.552612,3.8189581 C 3.9642442,4.1210883 4.4521342,4.2527802 5.0270835,4.2939101 4.1078939,3.6395913 3.9333886,3.4846438 3.4072541,3.0361704 c -0.3529796,0.017792 -0.3140934,0.014466 -0.5222449,0.026402 0.026084,0.043482 0.052499,0.085541 0.079497,0.1262091 C 3.1747322,3.5627372 3.2148702,4.028198 2.7660533,4.1215691 2.2970853,4.219132 1.7856534,3.8141323 1.9142141,3.3805618 2.0538166,2.9097566 2.715901,3.000334 3.3480663,2.9186652 3.9802318,2.8369959 4.5578109,2.217014 4.9052266,1.7581212 4.4047132,1.9288942 3.7677847,2.0856749 3.0564796,2.2919714 2.9181022,2.0086429 2.7808009,1.5192934 3.7107363,1.4839426 c -0.016725,-0.00924 -0.034006,-0.018128 -0.051934,-0.026402 -0.00221,-0.00105 -0.00444,-0.00215 -0.00667,-0.00319 -0.00385,-0.00174 -0.00771,-0.00353 -0.011605,-0.00522 C 3.4799135,1.376515 3.2652849,1.323107 3.0228238,1.3229171 Z" />
  <path
     style="fill:#cccccc;fill-opacity:1;stroke-width:0.148555"
     d="M 2.5236994,2.2155921 C 2.3656136,1.6907715 1.4722461,1.8181223 1.3229167,1.8067284 1.4905219,1.7235295 1.6410366,1.7542998 1.9865636,1.503997 2.6521978,1.0218073 3.1191993,1.0153983 3.4721092,1.2068879 2.5073048,1.243564 2.9297887,1.7814073 3.0718956,2.0583631 2.8911775,2.1108561 2.6059003,2.190098 2.5236994,2.2155921 Z"
     id="path10" />
  <path
     style="fill:#f2f2f2;stroke-width:0.148555"
     d="M 4.9052358,1.4934155 C 4.5578086,1.9523237 3.9801755,2.5723406 3.3479894,2.6540126 2.7158029,2.7356843 2.0537035,2.6452076 1.9140963,3.1160299 1.7855313,3.5496147 2.2971205,3.9544314 2.7661041,3.8568657 3.2671256,3.7526342 3.1589225,3.1847624 2.8848837,2.7980562 c 0.2081583,-0.011936 0.08568,0.060725 0.4386709,0.042931 l 0.2292806,0.714917 C 3.6844511,3.8862724 4.0053914,4.6360761 4.0663274,5.2178607 3.7732954,4.7967923 3.6225781,4.6420505 3.1684478,4.3382787 2.5867366,3.9491668 2.0562048,3.9359938 1.7835285,3.3627127 1.5114409,2.7906703 1.9309978,2.3786062 2.5754498,2.2001536 3.4964187,1.9451312 4.2899559,1.7033468 4.9052358,1.4934155 Z"
     id="path12" />
  <path
     style="fill:#cccccc;fill-opacity:1;stroke-width:0.148555"
     d="M 2.8848837,2.7980562 C 3.093042,2.7861201 3.0543213,2.7892099 3.4073123,2.771417 3.9334646,3.2199054 4.107863,3.3750837 5.0270835,4.0294244 4.1031435,3.9633294 3.4040657,3.6635237 2.8848837,2.7980562 Z"
     id="path14" />
  <path
     style="fill:#e6e6e6;fill-opacity:1;stroke-width:0.148555"
     d="M 1.3229167,1.8067284 C 1.4905219,1.7235295 1.6419889,1.6549496 1.9875161,1.4046466 2.6531503,0.92245691 3.3578807,1.0276158 3.7107907,1.2191053 2.7459862,1.2557817 2.8702985,1.4480175 2.866738,1.5987187 2.2257195,1.4636004 2.0385556,1.6474415 1.3229167,1.8067284 Z"
     id="path16" />
  <path
     style="fill:#f2f2f2;stroke-width:0.148555"
     d="M 3.7107907,1.2191053 C 2.7459862,1.2557817 2.9297887,1.7814073 3.0718956,2.0583631 2.9593085,2.091066 2.9114845,2.1283219 2.7609785,2.1681542 2.1537026,1.0860914 3.2151458,0.94532171 3.7107907,1.2191053 Z"
     id="path18" />
  <path
     style="fill:#e6e6e6;fill-opacity:1;stroke-width:0.148555"
     d="M 1.9572593,3.632279 C 1.4851368,3.0243633 1.6317212,2.4671553 2.5562054,2.1776486 3.4685181,1.8919529 4.2899559,1.7033468 4.9052358,1.4934155 3.244823,2.1260688 1.1062489,2.5488049 1.9572593,3.632279 Z"
     id="path20" />
  <path
     id="path4344"
     style="opacity:0.4;fill:#000000;fill-opacity:1;stroke-width:1.6;stroke-linecap:round;stroke-linejoin:round"
     d="M 12,0 C 5.372583,1.2369363e-7 1.0909091e-7,5.372583 0,12 0,18.627416 5.372583,24 12,24 18.627417,24 24,18.627416 24,12 24,5.372583 18.627417,0 12,0 Z m 0,1 A 11,11 0 0 1 23,12 11,11 0 0 1 12,23 11,11 0 0 1 1,12 11,11 0 0 1 12,1 Z"
     transform="scale(0.26458333)" />
  <path
     id="path1110"
     style="fill:url(#linearGradient1198);fill-opacity:1;stroke-width:1;stroke-linecap:round;stroke-linejoin:round"
     d="m 12,1 c -6.0751324,-8e-8 -11.00000008,4.9248676 -11,11 2e-7,6.075132 4.9248676,11 11,11 6.075132,0 11,-4.924868 11,-11 C 23,5.9248676 18.075132,1.0000002 12,1 Z m 0,1 C 17.522848,2 22,6.4771525 22,12 22,17.522847 17.522847,22 12,22 6.4771525,22 2,17.522848 2,12 1.9999996,6.4771525 6.4771525,1.9999996 12,2 Z"
     transform="scale(0.26458333)" />
</svg>
