<?xml version="1.0" encoding="UTF-8" standalone="no"?>
<!-- Created with Inkscape (http://www.inkscape.org/) -->

<svg
   width="24"
   height="24"
   viewBox="0 0 6.3499999 6.3500002"
   version="1.1"
   id="svg5"
   inkscape:version="1.1.2 (0a00cf5339, 2022-02-04, custom)"
   sodipodi:docname="okular.svg"
   xmlns:inkscape="http://www.inkscape.org/namespaces/inkscape"
   xmlns:sodipodi="http://sodipodi.sourceforge.net/DTD/sodipodi-0.dtd"
   xmlns:xlink="http://www.w3.org/1999/xlink"
   xmlns="http://www.w3.org/2000/svg"
   xmlns:svg="http://www.w3.org/2000/svg">
  <sodipodi:namedview
     id="namedview7"
     pagecolor="#ffffff"
     bordercolor="#666666"
     borderopacity="1.0"
     inkscape:pageshadow="2"
     inkscape:pageopacity="0.0"
     inkscape:pagecheckerboard="0"
     inkscape:document-units="px"
     showgrid="false"
     units="px"
     height="24px"
     inkscape:zoom="23.128284"
     inkscape:cx="10.571472"
     inkscape:cy="13.749399"
     inkscape:window-width="1860"
     inkscape:window-height="1017"
     inkscape:window-x="0"
     inkscape:window-y="0"
     inkscape:window-maximized="1"
     inkscape:current-layer="svg5" />
  <defs
     id="defs2">
    <linearGradient
       inkscape:collect="always"
       id="linearGradient1546">
      <stop
         style="stop-color:#5884f4;stop-opacity:1;"
         offset="0"
         id="stop1542" />
      <stop
         style="stop-color:#80a3fa;stop-opacity:1"
         offset="1"
         id="stop1544" />
    </linearGradient>
    <linearGradient
       inkscape:collect="always"
       id="linearGradient1871">
      <stop
         style="stop-color:#ffffff;stop-opacity:1;"
         offset="0"
         id="stop1867" />
      <stop
         style="stop-color:#ffffff;stop-opacity:0.1"
         offset="0.12"
         id="stop2515" />
      <stop
         style="stop-color:#ffffff;stop-opacity:0.102"
         offset="0.89999998"
         id="stop2581" />
      <stop
         style="stop-color:#ffffff;stop-opacity:0.502"
         offset="1"
         id="stop1869" />
    </linearGradient>
    <linearGradient
       inkscape:collect="always"
       id="linearGradient2290">
      <stop
         style="stop-color:#e8e8e8;stop-opacity:1"
         offset="0"
         id="stop2286" />
      <stop
         style="stop-color:#f5f5f5;stop-opacity:1"
         offset="1"
         id="stop2288" />
    </linearGradient>
    <linearGradient
       inkscape:collect="always"
       xlink:href="#linearGradient1871"
       id="linearGradient890"
       x1="1.983304"
       y1="0.26458335"
       x2="1.983304"
       y2="6.0854168"
       gradientUnits="userSpaceOnUse" />
    <linearGradient
       inkscape:collect="always"
       xlink:href="#linearGradient2290"
       id="linearGradient1282"
       x1="2.020364"
       y1="0.13229167"
       x2="4.7625079"
       y2="6.2177081"
       gradientUnits="userSpaceOnUse" />
    <linearGradient
       id="linearGradient2668"
       x1="140.45"
       x2="217.69"
       y1="291.42999"
       y2="214.2"
       gradientTransform="matrix(0.0077077,-0.00797639,0.0077077,0.00797639,0.23717749,3.708789)"
       gradientUnits="userSpaceOnUse"
       xlink:href="#linearGradient4254" />
    <linearGradient
       id="linearGradient4254">
      <stop
         stop-color="#fff"
         offset="0"
         id="stop31" />
      <stop
         stop-color="#fff"
         stop-opacity=".3"
         offset="1"
         id="stop33" />
    </linearGradient>
    <linearGradient
       id="linearGradient2670"
       x1="299.57001"
       x2="373.31"
       y1="298.92999"
       y2="225.17999"
       gradientTransform="matrix(0.0077077,-0.00797639,0.0077077,0.00797639,0.23717749,3.708789)"
       gradientUnits="userSpaceOnUse"
       xlink:href="#linearGradient4254" />
    <linearGradient
       inkscape:collect="always"
       xlink:href="#linearGradient1546"
       id="linearGradient1548"
       x1="14.939453"
       y1="0.5"
       x2="21.5"
       y2="12.292969"
       gradientUnits="userSpaceOnUse" />
  </defs>
  <path
     d="m 2.0811548,0.26458334 c -0.2963598,0 -0.5331777,0.006376 -0.7384256,0.0408252 C 1.1374813,0.33986259 0.95112457,0.40796899 0.81099857,0.54776953 0.67087526,0.68757008 0.60177668,0.87502473 0.56761103,1.0805531 0.53345067,1.286084 0.52792088,1.5228544 0.52937345,1.820045 v 1.6195384 1.3558573 c -0.001323,0.2966085 0.004128,0.5332122 0.0382376,0.7384574 0.034163,0.205531 0.10326159,0.392983 0.24338762,0.5327836 0.1401286,0.1398005 0.32648263,0.2079069 0.53173053,0.2423609 0.2052479,0.034454 0.4420658,0.040825 0.7384256,0.040825 h 2.1878979 c 0.2963545,0 0.5324898,-0.00635 0.7373937,-0.040825 C 5.2113477,6.2745595 5.3980165,6.2060483 5.5376583,6.0661631 5.6773001,5.9262805 5.745597,5.7395667 5.7800087,5.5344141 5.8144231,5.3292588 5.8208339,5.0923958 5.8208339,4.7954407 V 3.4395834 1.8190104 c 0,-0.2969551 -0.0064,-0.533818 -0.040825,-0.7389733 C 5.745597,0.8748845 5.6773001,0.68817068 5.5376583,0.54828812 5.3980165,0.40840291 5.2113504,0.3398917 5.0064464,0.30540855 4.8015399,0.2709254 4.5654098,0.26458334 4.2690527,0.26458334 Z"
     style="color:#000000;font-style:normal;font-variant:normal;font-weight:normal;font-stretch:normal;font-size:medium;line-height:normal;font-family:sans-serif;font-variant-ligatures:normal;font-variant-position:normal;font-variant-caps:normal;font-variant-numeric:normal;font-variant-alternates:normal;font-feature-settings:normal;text-indent:0;text-align:start;text-decoration:none;text-decoration-line:none;text-decoration-style:solid;text-decoration-color:#000000;letter-spacing:normal;word-spacing:normal;text-transform:none;writing-mode:lr-tb;direction:ltr;text-orientation:mixed;dominant-baseline:auto;baseline-shift:baseline;text-anchor:start;white-space:normal;shape-padding:0;clip-rule:nonzero;display:inline;overflow:visible;visibility:visible;opacity:0.1;isolation:auto;mix-blend-mode:normal;color-interpolation:sRGB;color-interpolation-filters:linearRGB;solid-color:#000000;solid-opacity:1;vector-effect:none;fill:#000000;fill-opacity:1;fill-rule:nonzero;stroke:none;stroke-width:0.529156;stroke-linecap:butt;stroke-linejoin:miter;stroke-miterlimit:4;stroke-dasharray:none;stroke-dashoffset:0;stroke-opacity:1;marker:none;color-rendering:auto;image-rendering:auto;shape-rendering:auto;text-rendering:auto;enable-background:accumulate"
     id="path3448" />
  <path
     d="m 2.0203641,0.13229167 c -1.23217263,0 -1.36475265,0.12535429 -1.35871486,1.34825053 v 1.6944579 1.6944605 c -0.006059,1.2228936 0.12654223,1.3482479 1.35871486,1.3482479 h 2.3094634 c 1.2321725,0 1.3587148,-0.1253384 1.3587148,-1.3482479 V 3.1750001 1.4805422 c 0,-1.22290946 -0.1265449,-1.34825053 -1.3587175,-1.34825053 z"
     style="color:#000000;display:inline;overflow:visible;visibility:visible;fill:url(#linearGradient1282);fill-opacity:1;fill-rule:nonzero;stroke:none;stroke-width:0.264583;marker:none;enable-background:accumulate"
     id="path3009" />
  <path
     id="path1260"
     style="fill:url(#linearGradient1548);fill-opacity:1;stroke-width:0.999999;stroke-miterlimit:4;stroke-dasharray:none"
     d="M 14.939453 0.5 A 6.5000001 10.5 40 0 0 12.634766 2.7578125 A 6.5000001 10.5 40 0 0 10.863281 14.978516 A 6.5000001 10.5 40 0 0 21.5 12.292969 L 21.5 12 L 21.5 10.837891 A 5.4999998 7.4999999 40 0 1 12.792969 12.681641 A 5.4999998 7.4999999 40 0 1 13.400391 3.4003906 A 5.4999998 7.4999999 40 0 1 17.560547 0.515625 C 17.195905 0.50440277 16.79957 0.5 16.365234 0.5 L 14.939453 0.5 z "
     transform="scale(0.26458334)" />
  <path
     id="path73-3"
     style="opacity:0.2;fill:#000000;fill-opacity:1;stroke-width:0.132291"
     d="M 4.4680508,4.3404718 C 4.4575564,4.3291379 4.442033,4.3193309 4.4337432,4.3168503 4.4042409,4.3080227 4.360664,4.3007981 4.2997149,4.29039 4.2387657,4.2799817 4.1698121,4.2692584 4.1207543,4.2627802 3.9949388,4.2461661 3.8548243,4.2374 3.732018,4.2351634 l -3.358e-4,-0.00183 -0.053726,1.591e-4 c -0.044298,2.67e-5 -0.084532,0.00107 -0.1199369,0.00375 -0.1746783,0.013237 -0.399257,0.051033 -0.5754616,0.096666 -0.1066609,0.027614 -0.096032,0.02579 -0.1777504,0.028693 -0.097662,0.00347 -0.1227565,3.466e-4 -0.2439551,-0.030937 C 2.4363716,4.2995324 2.3364301,4.2800984 2.185341,4.2582333 2.0335914,4.2362603 1.9532496,4.2312276 1.8064119,4.2340768 c -0.1592092,0.0031 -0.3004103,0.015975 -0.4736581,0.042897 -0.034981,0.00543 -0.0834,0.013667 -0.1253583,0.021202 -0.020979,0.00377 -0.040175,0.00742 -0.055366,0.010363 -0.015193,0.00294 -0.020627,0.00304 -0.035214,0.00743 -0.00778,0.00235 -0.039066,0.022645 -0.047493,0.040832 -0.00843,0.018188 -0.00753,0.02673 -0.00832,0.036767 -0.00158,0.020073 -0.00164,0.046508 -0.00209,0.099004 l -3.717e-4,3.589e-4 -2.075e-4,0.1165793 0.032399,0.028339 c 0.012771,0.011239 0.023554,0.018028 0.037562,0.025509 -0.00495,-0.00265 -3.734e-4,-0.00332 0.00798,0.024625 0.00836,0.027941 0.017272,0.076731 0.029228,0.1470609 0.02678,0.1574582 0.045794,0.2288549 0.083007,0.3113617 0.012087,0.026797 0.026013,0.05284 0.041414,0.077105 -0.087763,0.071781 -0.1409258,0.1276521 -0.1337697,0.1471394 0.037766,0.1028379 0.183711,0.1041716 0.2909623,0.01787 0.014368,0.010143 0.0294,0.019576 0.044818,0.028557 0.062972,0.036695 0.1422399,0.057698 0.2403823,0.068153 0.060134,0.00641 0.1864117,0.0034 0.2478617,-0.00444 0.09933,-0.012766 0.1971408,-0.037436 0.2716868,-0.071274 0.1617928,-0.073455 0.2813752,-0.2265535 0.3607487,-0.4417612 0.02133,-0.057859 0.051893,-0.1615553 0.069127,-0.2334207 0.026529,-0.00444 0.053,-0.00898 0.079902,-0.013224 0.02698,0.00432 0.053959,0.00896 0.080532,0.013466 0.01229,0.070394 0.033869,0.1685406 0.049823,0.2234369 0.053671,0.1846908 0.139263,0.3261123 0.2589225,0.4087222 0.081758,0.056439 0.1806525,0.089728 0.3160195,0.1107697 0.089456,0.013914 0.2357273,0.015603 0.3212018,0.00232 0.095091,-0.014791 0.1683138,-0.041711 0.2416878,-0.090436 0.1012883,0.086316 0.2474396,0.084884 0.292318,-0.017922 C 4.330617,5.3520669 4.28192,5.2960219 4.199722,5.2246066 4.231902,5.1787336 4.259214,5.1275496 4.280932,5.0736258 4.304209,5.0158308 4.319338,4.9652677 4.345766,4.855845 4.358278,4.804042 4.368965,4.758202 4.377674,4.7237387 c 0.00644,-0.025498 0.014935,-0.04863 0.016673,-0.054894 0,0 3.59e-4,3.718e-4 3.59e-4,3.718e-4 0.00297,-0.00216 0.00979,-0.00748 0.025151,-0.017101 l 0.050249,-0.031284 0.00726,-0.081006 -3.589e-4,-3.717e-4 c 0.0023,-0.026176 0.00478,-0.055548 0.00636,-0.092351 0.00125,-0.029277 0.00216,-0.044783 0.00107,-0.061379 -5.413e-4,-0.00829 -1.581e-4,-0.017844 -0.00818,-0.033765 -0.00201,-0.00398 -0.0047,-0.00769 -0.0082,-0.011475 z M 4.0696224,4.5959194 c 0.016422,0.01749 0.029505,0.034714 0.03641,0.049609 0.00998,0.021551 0.013668,0.049712 0.010768,0.1368711 -0.00463,0.1383544 -0.029662,0.2384914 -0.077862,0.315132 C 3.831394,4.9454025 3.5518186,4.7789657 3.3480207,4.7317021 3.2735716,4.7144358 3.1502624,4.6992471 3.0612732,4.6817448 3.4324629,4.6370358 3.8082648,4.6108715 4.0696224,4.5959194 Z M 3.8054557,4.466686 c -0.2179116,0.032098 -0.470505,0.070537 -0.7259368,0.1119515 0.015365,-0.018917 0.039392,-0.036438 0.079167,-0.054899 0.1147647,-0.05328 0.2632087,-0.080975 0.4107375,-0.081273 0.081035,-1.643e-4 0.1617041,0.00808 0.2360323,0.024221 z m 0.050022,0.7354541 c 0.010445,0.010588 0.020965,0.021572 0.031231,0.032341 -0.034817,0.016685 -0.074467,0.029031 -0.1212675,0.038084 -0.035503,0.00687 -0.057459,0.00868 -0.1401404,0.00961 -0.1119309,0.00126 -0.1096507,0.00149 -0.1719595,-0.00995 C 3.3607009,5.2552164 3.2928007,5.2244324 3.2372625,5.1727109 3.1814973,5.1207657 3.1367337,5.0458825 3.0955623,4.9367063 l -3.592e-4,-3.72e-4 C 3.0739491,4.8799203 3.0595771,4.8252104 3.0527181,4.774058 3.1576227,4.796079 3.253981,4.820434 3.3350192,4.848424 3.5370203,4.918198 3.7056493,5.0502636 3.8554777,5.2021401 Z M 2.7756665,4.6292496 c -0.0035,5.966e-4 -0.00714,0.00104 -0.01063,0.00165 -0.00336,-5.891e-4 -0.00684,-0.00105 -0.010205,-0.00164 0.00334,-6.9e-5 0.00647,-5.589e-4 0.010243,-5.496e-4 0.00387,3.9e-6 0.00718,4.719e-4 0.010584,5.525e-4 z M 2.4487029,4.5592209 c 0.00728,0.00686 0.012941,0.013887 0.017536,0.021139 C 2.2034407,4.5370179 1.9419881,4.4970669 1.719438,4.4638985 c 0.013854,-0.00337 0.027503,-0.00688 0.041098,-0.00952 0.066493,-0.012907 0.1369442,-0.018867 0.2071844,-0.019042 0.154609,-3.857e-4 0.3084209,0.029719 0.4195462,0.08407 0.028039,0.013716 0.047509,0.026686 0.061434,0.039812 z M 2.4651989,4.681939 C 2.3747319,4.699429 2.2499952,4.714415 2.1741535,4.731678 1.9656398,4.779139 1.6724274,4.9474731 1.4539698,5.1002852 c -0.00785,-0.0133 -0.014752,-0.027036 -0.02013,-0.040187 -0.031141,-0.076106 -0.041562,-0.1519132 -0.037086,-0.2831505 0.00154,-0.045259 0.00242,-0.069971 0.00404,-0.085082 0.00149,-0.013825 0.0034,-0.019469 0.00748,-0.030934 0.00677,-0.018992 0.022584,-0.042559 0.045015,-0.066459 0.2606889,0.015206 0.6393941,0.041954 1.0119023,0.087466 z m 0.010481,0.090453 C 2.4613449,4.8449108 2.4315581,4.9229082 2.3845431,5.0105444 2.3459612,5.0824467 2.3119946,5.1295152 2.2751435,5.164322 2.1978317,5.2373685 2.0994867,5.2762628 1.9532101,5.2877114 1.8071762,5.2991238 1.6825439,5.2806264 1.5959177,5.2383501 1.7660719,5.0712929 1.955646,4.9235753 2.1790608,4.8483468 2.2642698,4.8196578 2.3658275,4.7948768 2.4756799,4.772392 Z" />
  <g
     id="g1395"
     transform="rotate(46,2.4252913,2.4718441)">
    <path
       id="path73"
       style="fill:#636363;fill-opacity:1;stroke-width:0.132291"
       d="m 4.9883535,2.1838535 c 0,0 -0.5344531,0.7277873 -0.9642828,1.359607 C 3.4133958,3.9883317 2.7099382,4.541849 2.7099382,4.541849 l 0.1364259,0.144694 c 0,0 0.4941493,-0.4768257 1.0061409,-0.8919352 C 3.802242,3.8718348 3.7263725,3.9719728 3.6861066,4.0385208 3.484405,4.3718701 3.3743219,5.1862901 3.4385763,5.2146762 3.549292,5.2635884 3.6622067,5.1309801 3.6540674,4.9733474 3.6389543,4.6808968 3.6486725,4.3789072 3.77344,4.1160352 3.8438703,3.9676566 3.9597494,3.7894809 4.0865992,3.6085729 4.2613992,3.4773136 4.4331224,3.3574415 4.5764922,3.2845615 4.8305094,3.1554438 5.1227834,3.1454155 5.4053826,3.1610548 5.5577055,3.1694791 5.6857081,3.0523878 5.6384437,2.9378126 5.6110135,2.8713183 4.8236818,2.9853947 4.5015614,3.1941277 4.437424,3.2356876 4.3408407,3.3138382 4.2664334,3.3656936 4.6674714,2.8360398 5.1283968,2.3254469 5.1283968,2.3254469 Z" />
    <path
       d="m 5.0121248,2.1187411 c -0.017026,-0.00529 -0.044719,5.504e-4 -0.054777,0.0062 -0.026843,0.015091 -0.062312,0.041418 -0.1121377,0.078032 -0.049826,0.036613 -0.1054394,0.078764 -0.1441776,0.109554 -0.099349,0.078964 -0.2029885,0.1736626 -0.2899048,0.260449 l -0.00156,-0.00103 -0.037207,0.038757 C 4.3416076,2.642587 4.3144003,2.672246 4.2917456,2.6995868 4.1799275,2.834441 4.0511082,3.022243 3.9615316,3.1806931 3.9073029,3.2766011 3.9133733,3.2676871 3.8586954,3.3284876 3.793351,3.4011506 3.7736693,3.4170296 3.666976,3.4824833 3.5573886,3.5497043 3.4739834,3.6080959 3.3532998,3.7015914 3.2320794,3.7954874 3.172649,3.8497844 3.0726964,3.9573897 2.9643271,4.0740657 2.8755055,4.1845845 2.7745233,4.3279099 c -0.020392,0.028937 -0.048102,0.069488 -0.07183,0.1049026 -0.011863,0.017709 -0.022567,0.034057 -0.031006,0.047026 -0.00844,0.012971 -0.012146,0.016946 -0.019121,0.030488 -0.00371,0.00724 -0.010851,0.043832 -0.00362,0.062528 0.00723,0.018696 0.014,0.023982 0.020671,0.031523 0.013341,0.015083 0.032318,0.033485 0.069764,0.070279 l 1.7e-6,5.314e-4 0.083725,0.081117 0.042891,-0.00362 c 0.016957,-0.00138 0.029331,-0.00442 0.044442,-0.0093 -0.00534,0.00172 -0.00265,-0.00204 0.023254,0.011369 0.025903,0.013399 0.067194,0.040877 0.1260907,0.081132 0.1318687,0.090116 0.196436,0.1260344 0.2816367,0.1565797 0.1187273,0.042573 0.2428786,0.047072 0.3638023,0.01292 0.070138,-0.019807 0.1403133,-0.062238 0.2160095,-0.1255732 0.046384,-0.038804 0.13194,-0.1317297 0.1689817,-0.1813845 0.059817,-0.08032 0.1100162,-0.1678166 0.1374594,-0.2449463 0.059552,-0.1674094 0.032491,-0.3597815 -0.067179,-0.5663737 -0.032184,-0.066685 -0.1031132,-0.18962 -0.14211,-0.2454631 -0.029517,-0.042265 -0.03287,-0.05932 -0.033074,-0.05581 -1.968e-4,0.00352 0.00348,-0.00902 0.037206,-0.043926 0.033362,-0.034525 0.046015,-0.038482 0.042891,-0.038241 -0.0031,2.412e-4 0.011746,0.00249 0.051161,0.031522 0.053684,0.039538 0.1691306,0.1115673 0.230994,0.1441773 0.1701386,0.089689 0.3313261,0.1263587 0.4738731,0.097668 0.097393,-0.019606 0.1900367,-0.06762 0.2992063,-0.1503784 0.07215,-0.054683 0.174975,-0.1587275 0.2248,-0.2294355 C 5.4141969,3.2996124 5.4459104,3.2130029 5.4570656,3.0949147 5.4671568,2.9878191 5.4443152,2.8697275 5.3955704,2.7605682 5.3701644,2.7036773 5.3443028,2.6576696 5.2839493,2.5626474 5.2553771,2.5176617 5.2298262,2.4781314 5.2110853,2.4479259 5.1923584,2.417744 5.1794,2.3882152 5.1826633,2.3988331 c 7.939e-4,0.00261 -0.0013,0.00447 0.0062,-0.031006 l 0.012403,-0.057877 -0.053225,-0.061496 -5.238e-4,9.2e-6 c -0.01723,-0.019839 -0.036639,-0.042024 -0.062012,-0.06873 -0.020196,-0.021232 -0.030707,-0.032669 -0.043417,-0.043399 -0.00633,-0.00538 -0.012945,-0.012281 -0.029972,-0.01757 z m -0.045992,0.4702558 c 0.022437,0.00779 0.045255,0.024701 0.1059373,0.087332 0.1276362,0.1317828 0.1818115,0.2426726 0.1834513,0.3612184 0.00108,0.078607 -0.021159,0.1493906 -0.074931,0.2320273 -0.019719,0.030312 -0.033669,0.047362 -0.090433,0.1074878 -0.07684,0.081399 -0.075104,0.079905 -0.1266075,0.1167885 -0.076596,0.054819 -0.1459065,0.082278 -0.2216919,0.0863 -0.076104,0.00403 -0.1610661,-0.015788 -0.2682009,-0.062012 l -5.238e-4,9.1e-6 C 4.3871735,3.4810287 4.3153877,3.4338315 4.2653935,3.3827561 4.2291658,3.3457117 4.2125955,3.3184879 4.2064816,3.291806 4.2004313,3.265384 4.203812,3.2338727 4.2204359,3.1858695 4.2618317,3.0663034 4.3450274,2.9402829 4.4472952,2.833953 4.5495732,2.727622 4.6705837,2.6416464 4.7847426,2.5993418 c 0.057723,-0.021397 0.1406,-0.024484 0.1813846,-0.010334 z M 3.7837752,3.7232944 c 0.025508,0.00628 0.05148,0.023799 0.08785,0.061495 0.066163,0.068587 0.1188939,0.1641409 0.1612307,0.2961061 0.024921,0.077701 0.035184,0.1348312 0.034623,0.1855185 -0.00116,0.1063561 -0.041499,0.2041174 -0.1348754,0.317293 -0.1015196,0.1230154 -0.211371,0.2031593 -0.3079917,0.2304769 -0.059376,0.01678 -0.1520051,0.010763 -0.2165246,-0.014986 -0.076378,-0.030467 -0.1381485,-0.075631 -0.2294433,-0.1700157 -0.031491,-0.032543 -0.048655,-0.050344 -0.058394,-0.062012 -0.00891,-0.010675 -0.011644,-0.015968 -0.017052,-0.026872 -0.016711,-0.033687 -0.023328,-0.1019275 -0.00982,-0.1710489 0.00902,-0.046199 0.05461,-0.146828 0.1059368,-0.2258262 0.036906,-0.056797 0.081557,-0.1116158 0.1302247,-0.1622638 0.107115,-0.111492 0.2356251,-0.201215 0.3519167,-0.243396 0.046952,-0.017025 0.077068,-0.020167 0.1023195,-0.013954 z"
       style="color:#000000;fill:#4d4d4d;fill-opacity:1;stroke:none;stroke-width:0.035002;-inkscape-stroke:none"
       id="path875" />
    <path
       d="m 3.2831357,3.9338176 c -0.051362,0.053454 -0.098189,0.1116268 -0.1376541,0.1723638 -0.054807,0.084355 -0.1028927,0.1845653 -0.1156447,0.249852 -0.015553,0.079587 -0.012157,0.1596647 0.015226,0.214865 0.00671,0.013534 0.013711,0.025476 0.025989,0.040187 0.012283,0.014718 0.029852,0.033069 0.061442,0.065719 0.094565,0.097758 0.166025,0.1507756 0.2520956,0.1851114 l -1.42e-5,1.47e-5 c 0.078855,0.03147 0.180332,0.038749 0.257281,0.017009 C 3.7567315,4.8464605 3.8748824,4.7572873 3.9821794,4.6272665 4.0819606,4.5063364 4.1309698,4.3912411 4.1323366,4.2670411 4.1330051,4.2064638 4.1208227,4.1416695 4.0945662,4.0598007 4.0500709,3.9211052 3.9927005,3.8154868 3.9174661,3.7375106 3.8772648,3.6958491 3.8408915,3.6685459 3.7986389,3.6581485 3.7563859,3.6477516 3.7121935,3.6554983 3.6596861,3.6745422 3.5308057,3.7212892 3.396135,3.8162257 3.2831358,3.9338248 Z"
       fill="url(#linearGradient2668)"
       opacity="0.5"
       stroke-width="0.130787"
       id="path79"
       style="fill:url(#linearGradient2668)" />
    <path
       d="M 4.4011012,2.786301 C 4.2932567,2.8984304 4.2049203,3.031175 4.1592189,3.1631762 c -0.018717,0.05406 -0.026236,0.1001714 -0.016161,0.1441579 0.010074,0.043988 0.036583,0.081987 0.076916,0.1232049 0.057651,0.058898 0.1362822,0.1100341 0.2283921,0.1498072 0.1123057,0.048459 0.2073989,0.071868 0.2967871,0.067135 0.089387,-0.00474 0.1715878,-0.03826 0.2552332,-0.098126 0.052077,-0.037279 0.059126,-0.043586 0.1361899,-0.1252024 0.057368,-0.060762 0.076208,-0.083121 0.098126,-0.1168138 C 5.2938472,3.21645 5.3217792,3.1299562 5.3204992,3.0368419 5.3185769,2.8969901 5.2525963,2.7676553 5.1181844,2.6288818 a 0.02880576,0.03001657 16.829215 0 0 -1.42e-5,-1.47e-5 C 5.0559339,2.5646261 5.0240426,2.5379718 4.9867004,2.5250099 4.9244769,2.5034255 4.8339608,2.5093714 4.7627019,2.5357918 4.6362737,2.5826477 4.5089387,2.6741804 4.4010941,2.7863098 Z"
       fill="url(#linearGradient2670)"
       opacity="0.5"
       stroke-width="0.130787"
       id="path81"
       style="fill:url(#linearGradient2670)" />
    <path
       id="path83"
       d="M 5.271024,3.0912916 C 5.258697,3.1375596 5.23711,3.1839276 5.204361,3.2334019 5.183657,3.2646869 5.167712,3.2831659 5.109793,3.3434725 5.03156,3.4249255 5.030577,3.4253425 4.978018,3.4623284 4.89805,3.5185874 4.8239396,3.5480254 4.74289,3.5522454 4.661591,3.5564854 4.572258,3.5355504 4.46177,3.4886834 4.372526,3.4508004 4.2973155,3.4024924 4.244212,3.3491572 4.213814,3.3186172 4.194921,3.2931532 4.184784,3.2680252 c 1.029e-4,0.00992 0.00156,0.019426 0.00362,0.028422 0.00725,0.031651 0.026655,0.06149 0.064079,0.099735 0.0522,0.053329 0.1262066,0.1021593 0.2139406,0.1400431 0.1086214,0.04687 0.1965496,0.067799 0.2764692,0.063562 0.079677,-0.00423 0.15238,-0.033661 0.2309938,-0.089917 0.051675,-0.036991 0.052799,-0.037918 0.1297078,-0.1193726 0.056941,-0.060309 0.072144,-0.078781 0.092501,-0.1100709 0.043141,-0.066296 0.06703,-0.1265116 0.074931,-0.1891358 z M 4.0891831,4.3351433 C 4.0678551,4.4074277 4.0268838,4.4789986 3.9625757,4.5552848 3.8562838,4.6813559 3.7402478,4.7654971 3.6333968,4.7950635 3.5649427,4.8139971 3.4664255,4.8072396 3.3941347,4.779043 a 0.03746024,0.03794279 0 0 0 -5.292e-4,0 C 3.3112555,4.746891 3.2439021,4.698164 3.1491756,4.6023095 c -0.032219,-0.032595 -0.049901,-0.050571 -0.060978,-0.063562 -0.010602,-0.012435 -0.015081,-0.020505 -0.021188,-0.032556 -0.00233,-0.00462 -0.00477,-0.00971 -0.00672,-0.014986 0.00317,0.024143 0.00874,0.045772 0.017052,0.062528 0.00598,0.012052 0.010808,0.020122 0.021188,0.032556 0.01084,0.012991 0.028409,0.030968 0.059945,0.063562 0.092716,0.09586 0.1586541,0.1445755 0.2392621,0.1767335 0.070761,0.0282 0.1676121,0.034439 0.234611,0.015502 C 3.7369368,4.8125162 3.8502534,4.7283832 3.9542945,4.6023087 4.0309438,4.509414 4.0740421,4.4239047 4.0891702,4.3351414 Z"
       style="opacity:0.5;fill:#ffffff;stroke-width:0.264583" />
  </g>
  <path
     d="m 1.983341,0.26458334 c -0.5542148,0 -0.8483627,0.0417909 -0.98908673,0.17466734 -0.070361,0.0664369 -0.12065,0.16339873 -0.1539954,0.32710967 C 0.80692667,0.93007394 0.79375037,1.1553852 0.79375037,1.450557 v 1.7244431 1.724443 c 0,0.2951719 0.013176,0.5204831 0.046509,0.6841967 0.033345,0.1637109 0.083635,0.2606728 0.1539954,0.3271097 C 1.1349788,6.0436259 1.4291267,6.0854168 1.9833415,6.0854168 h 2.3833191 c 0.554355,0 0.8503656,-0.041727 0.9916689,-0.1746673 C 5.4289835,5.8442805 5.4787732,5.7471655 5.511809,5.5836398 5.544848,5.4201114 5.557574,5.1950145 5.556251,4.8999591 V 3.1750001 1.450041 C 5.5575735,1.1549856 5.5448471,0.92988873 5.5118085,0.76636035 5.4787727,0.60283462 5.4289807,0.5057193 5.358329,0.43925068 5.2170257,0.30631078 4.9210151,0.26458334 4.3666601,0.26458334 Z m 0.2330609,0.28215432 c 0.7227094,-7.9375e-4 1.4456569,0.002117 2.1683451,0.007223 0.2274041,0.0140758 0.4676167,-0.0211667 0.6909118,0.0439261 0.1500717,0.0268314 0.1664599,0.20429274 0.1803506,0.3260778 0.026987,1.35474334 0.019685,2.71686344 0.00931,4.07158564 -0.01905,0.2334869 0.037714,0.4929479 -0.088366,0.703834 C 5.0403898,5.7988012 4.854012,5.7813572 4.6937804,5.802736 3.6922663,5.823479 2.6898896,5.820198 1.6882803,5.805386 1.5187856,5.7876018 1.3222107,5.804588 1.178751,5.6984107 1.0450755,5.487223 1.0959735,5.2214225 1.0790137,4.984758 1.0687478,3.6447598 1.0605192,2.2976496 1.0872951,0.95761442 1.1089645,0.83184738 1.1146425,0.64118862 1.2660953,0.60104604 1.5773061,0.51874739 1.8992644,0.56022876 2.216423,0.54678793 Z"
     style="color:#000000;display:inline;overflow:visible;visibility:visible;opacity:0.7;fill:url(#linearGradient890);fill-opacity:1;fill-rule:nonzero;stroke:none;stroke-width:0.264583;marker:none;enable-background:accumulate"
     id="path2869" />
  <path
     style="color:#000000;display:inline;opacity:0.4;fill:#000000;stroke-width:0.26458;-inkscape-stroke:none;enable-background:new"
     d="M 1.983304,0 C 1.4194372,0 1.0531003,0.019685 0.81234537,0.24701236 0.69196784,0.36068001 0.62118916,0.51808593 0.58135613,0.71365271 0.5415284,0.90921684 0.52916707,1.1478657 0.52916707,1.450557 v 1.7244431 1.724443 c 0,0.3026913 0.012356,0.5413402 0.0521891,0.7369043 0.039833,0.1955668 0.11061171,0.3529727 0.2309892,0.4666404 C 1.0531004,6.3303204 1.4194372,6.3500001 1.983304,6.3500001 h 2.3832529 c 0.564007,0 0.9314524,-0.019235 1.173025,-0.2464964 C 5.6603668,5.9898652 5.7315424,5.8315808 5.771087,5.6358315 5.8106025,5.4402171 5.8221622,5.2019466 5.8206937,4.8994431 V 4.898914 3.1750001 1.4510729 1.4505437 C 5.8222812,1.1480403 5.8106131,0.90976717 5.771087,0.71415541 5.7315424,0.51840608 5.6603668,0.36012174 5.5395819,0.24648319 5.2980093,0.01922198 4.9305639,0 4.3665569,0 Z m 0,0.26458334 h 2.3832529 c 0.5543418,0 0.8503444,0.0417274 0.9916451,0.17466734 0.070649,0.0664686 0.120441,0.16358394 0.1534743,0.32710967 0.033036,0.16352838 0.045892,0.38862525 0.044442,0.68368065 v 1.7249591 1.724959 C 5.5574412,5.1950145 5.5447148,5.4201114 5.5116763,5.5836398 5.478643,5.7471655 5.4288511,5.8442808 5.358202,5.9107495 5.2169013,6.0436894 4.9208987,6.0854168 4.3665569,6.0854168 H 1.983304 c -0.5542016,0 -0.8483415,-0.041791 -0.98906293,-0.1746673 C 0.92388307,5.8443126 0.87411227,5.7473507 0.84076687,5.5836398 0.80742407,5.4199262 0.79374247,5.194615 0.79374247,4.8994431 V 3.1750001 1.450557 c 0,-0.2951718 0.013679,-0.52048306 0.047024,-0.68419665 0.033345,-0.16371094 0.083116,-0.2606728 0.1534742,-0.32710967 C 1.1349621,0.30637428 1.429102,0.26458334 1.983304,0.26458334 Z"
     id="path3225" />
</svg>
