<?xml version="1.0" encoding="UTF-8" standalone="no"?>
<!-- Created with Inkscape (http://www.inkscape.org/) -->

<svg
   width="24"
   height="24"
   viewBox="0 0 6.3499999 6.3500002"
   version="1.1"
   id="svg5"
   inkscape:version="1.1.2 (0a00cf5339, 2022-02-04)"
   sodipodi:docname="org.gnome.Software.Create.svg"
   xmlns:inkscape="http://www.inkscape.org/namespaces/inkscape"
   xmlns:sodipodi="http://sodipodi.sourceforge.net/DTD/sodipodi-0.dtd"
   xmlns:xlink="http://www.w3.org/1999/xlink"
   xmlns="http://www.w3.org/2000/svg"
   xmlns:svg="http://www.w3.org/2000/svg">
  <sodipodi:namedview
     id="namedview7"
     pagecolor="#ffffff"
     bordercolor="#666666"
     borderopacity="1.0"
     inkscape:pageshadow="2"
     inkscape:pageopacity="0.0"
     inkscape:pagecheckerboard="0"
     inkscape:document-units="px"
     showgrid="false"
     units="px"
     height="24px"
     inkscape:zoom="32.666667"
     inkscape:cx="11.984694"
     inkscape:cy="12"
     inkscape:window-width="1846"
     inkscape:window-height="1011"
     inkscape:window-x="74"
     inkscape:window-y="32"
     inkscape:window-maximized="1"
     inkscape:current-layer="svg5" />
  <defs
     id="defs2">
    <linearGradient
       inkscape:collect="always"
       id="linearGradient845">
      <stop
         style="stop-color:#dc8add;stop-opacity:1;"
         offset="0"
         id="stop841" />
      <stop
         style="stop-color:#103c72;stop-opacity:1"
         offset="1"
         id="stop843" />
    </linearGradient>
    <linearGradient
       inkscape:collect="always"
       id="linearGradient1871">
      <stop
         style="stop-color:#ffffff;stop-opacity:1;"
         offset="0"
         id="stop1867" />
      <stop
         style="stop-color:#ffffff;stop-opacity:0.1"
         offset="0.12"
         id="stop2515" />
      <stop
         style="stop-color:#ffffff;stop-opacity:0.102"
         offset="0.89999998"
         id="stop2581" />
      <stop
         style="stop-color:#ffffff;stop-opacity:0.502"
         offset="1"
         id="stop1869" />
    </linearGradient>
    <linearGradient
       inkscape:collect="always"
       id="linearGradient2290">
      <stop
         style="stop-color:#e8e8e8;stop-opacity:1"
         offset="0"
         id="stop2286" />
      <stop
         style="stop-color:#f5f5f5;stop-opacity:1"
         offset="1"
         id="stop2288" />
    </linearGradient>
    <linearGradient
       inkscape:collect="always"
       xlink:href="#linearGradient1871"
       id="linearGradient890"
       x1="1.983304"
       y1="0.26458335"
       x2="1.983304"
       y2="5.8208332"
       gradientUnits="userSpaceOnUse"
       gradientTransform="translate(-0.52916667)" />
    <linearGradient
       inkscape:collect="always"
       xlink:href="#linearGradient2290"
       id="linearGradient1282"
       x1="2.020364"
       y1="0.13229167"
       x2="5.195364"
       y2="5.953125"
       gradientUnits="userSpaceOnUse"
       gradientTransform="translate(-0.52916667)" />
    <linearGradient
       inkscape:collect="always"
       xlink:href="#linearGradient845"
       id="linearGradient847"
       x1="2.1293418"
       y1="5.1046915"
       x2="1.3342141"
       y2="2.4926102"
       gradientUnits="userSpaceOnUse" />
  </defs>
  <path
     d="m 1.5519882,0.26458334 c -0.2963598,0 -0.5331777,0.006376 -0.73842563,0.0408252 C 0.60831463,0.33986259 0.4219579,0.40796899 0.2818319,0.54776953 0.14170859,0.68757008 0.07261001,0.87502473 0.03844436,1.0805531 0.004284,1.286084 -0.00124579,1.5228544 2.0677591e-4,1.820045 V 3.4395834 4.7954407 C -0.00111622,5.0920492 0.00433478,5.3286529 0.03844438,5.5338981 c 0.034163,0.205531 0.10326159,0.392983 0.24338762,0.5327836 0.1401286,0.1398005 0.32648263,0.2079069 0.53173057,0.2423609 0.20524793,0.034454 0.44206583,0.040825 0.73842563,0.040825 h 2.1878979 c 0.2963545,0 0.5324898,-0.00635 0.7373937,-0.040825 C 4.6821811,6.2745595 4.8688499,6.2060483 5.0084917,6.0661631 5.1481335,5.9262805 5.2164304,5.7395667 5.2508421,5.5344141 5.2852565,5.3292588 5.2916673,5.0923958 5.2916673,4.7954407 V 3.4395834 1.8190104 c 0,-0.2969551 -0.0064,-0.533818 -0.040825,-0.7389733 C 5.2164304,0.8748845 5.1481335,0.68817068 5.0084917,0.54828812 4.8688499,0.40840291 4.6821838,0.3398917 4.4772798,0.30540855 4.2723733,0.2709254 4.0362432,0.26458334 3.7398861,0.26458334 Z"
     style="color:#000000;font-style:normal;font-variant:normal;font-weight:normal;font-stretch:normal;font-size:medium;line-height:normal;font-family:sans-serif;font-variant-ligatures:normal;font-variant-position:normal;font-variant-caps:normal;font-variant-numeric:normal;font-variant-alternates:normal;font-feature-settings:normal;text-indent:0;text-align:start;text-decoration:none;text-decoration-line:none;text-decoration-style:solid;text-decoration-color:#000000;letter-spacing:normal;word-spacing:normal;text-transform:none;writing-mode:lr-tb;direction:ltr;text-orientation:mixed;dominant-baseline:auto;baseline-shift:baseline;text-anchor:start;white-space:normal;shape-padding:0;clip-rule:nonzero;display:inline;overflow:visible;visibility:visible;opacity:0.1;isolation:auto;mix-blend-mode:normal;color-interpolation:sRGB;color-interpolation-filters:linearRGB;solid-color:#000000;solid-opacity:1;vector-effect:none;fill:#000000;fill-opacity:1;fill-rule:nonzero;stroke:none;stroke-width:0.529156;stroke-linecap:butt;stroke-linejoin:miter;stroke-miterlimit:4;stroke-dasharray:none;stroke-dashoffset:0;stroke-opacity:1;marker:none;color-rendering:auto;image-rendering:auto;shape-rendering:auto;text-rendering:auto;enable-background:accumulate"
     id="path3448" />
  <path
     d="m 1.4911975,0.13229167 c -1.2321727,0 -1.36475272,0.12535429 -1.35871493,1.34825053 V 3.1750001 4.6048428 C 0.12642357,5.8277364 0.2590248,5.9530907 1.4911975,5.9530907 h 2.3094634 c 1.2321725,0 1.3587148,-0.1253384 1.3587148,-1.3482479 V 3.1750001 1.4805422 c 0,-1.22290946 -0.1265449,-1.34825053 -1.3587175,-1.34825053 z"
     style="color:#000000;display:inline;overflow:visible;visibility:visible;fill:url(#linearGradient1282);fill-opacity:1;fill-rule:nonzero;stroke:none;stroke-width:0.264583;marker:none;enable-background:accumulate"
     id="path3009"
     sodipodi:nodetypes="scccssscsss" />
  <path
     d="m 1.4541744,0.26458334 c -0.55421483,0 -0.84836277,0.0417909 -0.9890868,0.17466734 -0.070361,0.0664369 -0.12065,0.16339873 -0.1539954,0.32710967 C 0.27776,0.93007394 0.2645837,1.1553852 0.2645837,1.450557 v 1.7244431 1.4598252 c 0,0.2951719 0.013176,0.5204831 0.046509,0.6841967 0.033345,0.1637109 0.083635,0.2606728 0.1539954,0.3271097 C 0.60581213,5.7790081 0.89996007,5.820799 1.4541749,5.820799 H 3.837494 c 0.554355,0 0.8503656,-0.041727 0.9916689,-0.1746673 0.070654,-0.066469 0.1204437,-0.163584 0.1534795,-0.3271097 0.033039,-0.1635284 0.045765,-0.3886253 0.044442,-0.6836807 V 3.1750001 1.450041 C 5.0284069,1.1549856 5.0156805,0.92988873 4.9826419,0.76636035 4.9496061,0.60283462 4.8998141,0.5057193 4.8291624,0.43925068 4.6878591,0.30631078 4.3918485,0.26458334 3.8374935,0.26458334 Z m 0.2330609,0.28215432 c 0.7227094,-7.9375e-4 1.4456569,0.002117 2.1683451,0.007223 0.2274041,0.0140758 0.4676167,-0.0211667 0.6909118,0.0439261 0.1500717,0.0268314 0.1664599,0.20429274 0.1803506,0.3260778 0.026987,1.35474334 0.019685,2.45224564 0.00931,3.80696784 -0.01905,0.2334869 0.037714,0.4929479 -0.088366,0.703834 C 4.5112232,5.5341834 4.3248454,5.5167394 4.1646138,5.5381182 3.1630997,5.5588612 2.160723,5.5555802 1.1591137,5.5407682 0.98961897,5.522984 0.79304407,5.5399702 0.64958433,5.4337929 0.51590883,5.2226052 0.56680683,4.9568047 0.54984703,4.7201402 0.53958113,3.380142 0.53135253,2.2976496 0.55812843,0.95761442 0.57979783,0.83184738 0.58547583,0.64118862 0.73692867,0.60104604 1.0481395,0.51874739 1.3700978,0.56022876 1.6872564,0.54678793 Z"
     style="color:#000000;display:inline;overflow:visible;visibility:visible;opacity:0.7;fill:url(#linearGradient890);fill-opacity:1;fill-rule:nonzero;stroke:none;stroke-width:0.264583;marker:none;enable-background:accumulate"
     id="path2869"
     sodipodi:nodetypes="sccscscssscccccccsscccccccccccccc" />
  <path
     style="color:#000000;display:inline;opacity:0.4;fill:#000000;stroke-width:0.26458;-inkscape-stroke:none;enable-background:new"
     d="M 1.4541374,0 C 0.89027057,0 0.52393363,0.019685 0.2831787,0.24701236 0.16280117,0.36068001 0.09202249,0.51808593 0.05218946,0.71365271 0.01236173,0.90921684 3.959057e-7,1.1478657 3.959057e-7,1.450557 V 3.1750001 4.6348253 C 3.959057e-7,4.9375166 0.0123564,5.1761655 0.0521895,5.3717296 0.0920225,5.5672964 0.16280121,5.7247023 0.2831787,5.83837 0.52393373,6.0657026 0.89027057,6.0853823 1.4541374,6.0853823 h 2.3832529 c 0.564007,0 0.9314524,-0.019235 1.173025,-0.2464964 C 5.1312002,5.7252474 5.2023758,5.566963 5.2419204,5.3712137 5.2814359,5.1755993 5.2929956,4.9373288 5.2915271,4.6348253 V 4.6342962 3.1750001 1.4510729 1.4505437 C 5.2931146,1.1480403 5.2814465,0.90976717 5.2419204,0.71415541 5.2023758,0.51840608 5.1312002,0.36012174 5.0104153,0.24648319 4.7688427,0.01922198 4.4013973,0 3.8373903,0 Z m 0,0.26458334 h 2.3832529 c 0.5543418,0 0.8503444,0.0417274 0.9916451,0.17466734 0.070649,0.0664686 0.120441,0.16358394 0.1534743,0.32710967 0.033036,0.16352838 0.045892,0.38862525 0.044442,0.68368065 V 3.1750001 4.6353413 C 5.0282746,4.9303967 5.0155482,5.1554936 4.9825097,5.319022 4.9494764,5.4825477 4.8996845,5.579663 4.8290354,5.6461317 4.6877347,5.7790716 4.3917321,5.820799 3.8373903,5.820799 H 1.4541374 c -0.55420163,0 -0.84834157,-0.041791 -0.989063,-0.1746673 C 0.3947164,5.5796948 0.3449456,5.4827329 0.3116002,5.319022 0.2782574,5.1553084 0.2645758,4.9299972 0.2645758,4.6348253 V 3.1750001 1.450557 c 0,-0.2951718 0.013679,-0.52048306 0.047024,-0.68419665 C 0.3449448,0.60264941 0.3947158,0.50568755 0.465074,0.43925068 0.60579543,0.30637428 0.89993537,0.26458334 1.4541374,0.26458334 Z"
     id="path3225"
     sodipodi:nodetypes="sccscsscsscccccccccssssscccccsssscscsccs" />
  <g
     id="g947">
    <path
       d="M 1.959097,2.0591305 C 1.537724,2.4872741 1.50372,3.2772032 1.643735,3.7064057 1.7203785,3.9150313 1.8555343,4.1191552 2.0038244,4.2767868 2.1521131,4.434414 2.4566559,4.5371736 2.4948729,4.7461283 2.53309,4.9550829 2.293848,5.0855141 2.1509959,5.1838871 2.0081452,5.2822586 1.8700745,5.273816 1.7702896,5.2690824 1.6705078,5.2643473 1.6682404,5.2677663 1.5713361,5.2042571 1.4744332,5.1408423 1.3344123,4.9587082 1.2486486,4.8413725 0.73093212,4.0764812 0.86440682,3.0405097 1.448691,2.3745164 1.5838782,2.2230601 1.7604082,2.0785194 1.8629869,2.0254914 c 0.1025816,-0.053028 0.1236022,-0.070658 0.146283,-0.037994 0.022675,0.032662 -0.022014,0.065196 -0.050173,0.071633 z"
       style="display:inline;fill:url(#linearGradient847);fill-opacity:1;stroke-width:0.264583;enable-background:new"
       id="path1334" />
    <path
       d="M 3.130089,4.0373319 C 3.1014333,4.0516732 2.5712554,4.5818376 2.5712554,4.5818376 l -0.050152,0.064481 c 0,0 0.214937,0.3152408 0.2507581,0.2865807 0.035823,-0.028657 0.709291,-0.5086828 0.709291,-0.5086828 C 3.578685,4.2294072 3.313433,3.9485486 3.130089,4.0373319 Z"
       style="display:inline;opacity:0.2;stroke-width:0.264583;enable-background:new"
       id="path1474" />
    <path
       d="M 6.1051734,1.8470381 C 5.7839426,2.0379244 5.1997452,2.4022822 5.1997452,2.4022822 c 0,0 -0.6007597,0.3633529 -0.7902207,0.4825791 C 4.220065,3.0040875 4.1938098,3.0145073 4.0350789,3.1105008 3.8763495,3.2064918 3.6841112,3.3586701 3.6841112,3.3586701 c 0,0 -0.194739,0.1715287 -0.2543969,0.2423528 -0.059658,0.070824 -0.1110422,0.1378239 -0.1486566,0.2105983 -0.037616,0.072773 -0.085491,0.2171161 -0.085491,0.2171161 l 0.245033,0.4233742 c 0,0 0.088004,0.024712 0.1985542,0.00955 C 3.7497036,4.4464746 3.9108933,4.3684013 4.0235927,4.3078729 4.1362921,4.2473415 4.1900035,4.2131132 4.3143072,4.1085993 4.4386109,4.0040868 4.5598636,3.8729752 4.7582833,3.6704411 4.8499081,3.5769168 5.010344,3.3931765 5.1659327,3.2271979 5.3472771,3.0337407 5.5188971,2.8628431 5.5188971,2.8628431 c 0,0 0.5008506,-0.5154134 0.7480088,-0.7972217 0.09012,-0.1369639 -0.036949,-0.2638236 -0.1617325,-0.2185758 z"
       style="display:inline;opacity:0.2;fill:#180000;stroke-width:0.264583;enable-background:new"
       id="path1594" />
    <path
       d="M 6.0645121,1.806373 C 5.7432784,1.9972563 5.159084,2.3616171 5.159084,2.3616171 c 0,0 -0.6007627,0.3633514 -0.7902237,0.4825791 -0.1894565,0.1192261 -0.2157117,0.129646 -0.3744426,0.2256365 -0.1587325,0.095991 -0.3509708,0.2481707 -0.3509708,0.2481707 0,0 -0.1947389,0.1715273 -0.2543969,0.2423514 -0.059655,0.070823 -0.1110407,0.1378239 -0.1486565,0.2105968 -0.037616,0.072774 -0.085492,0.2171206 -0.085492,0.2171206 l 0.245036,0.4233697 c 0,0 0.088002,0.024713 0.1985512,0.00955 C 3.7090394,4.4058064 3.8702291,4.3277362 3.9829285,4.2672048 4.0956308,4.2066764 4.1493393,4.1724436 4.273643,4.0679342 4.3979497,3.9634202 4.5192024,3.8323085 4.717619,3.629776 4.8092439,3.5362502 4.9696798,3.3525084 5.1252685,3.1865298 5.3066128,2.9930711 5.4782328,2.822175 5.4782328,2.822175 c 0,0 0.5008507,-0.5154149 0.7480119,-0.7972202 0.090117,-0.136964 -0.036952,-0.2638266 -0.1617326,-0.2185743 z"
       style="display:inline;fill:#494949;stroke-width:0.264583;enable-background:new"
       id="path974" />
    <path
       d="M 3.1549025,3.9880802 C 3.1262468,4.0024215 2.5960689,4.5325858 2.5960689,4.5325858 l -0.050152,0.064481 c 0,0 0.214937,0.3152409 0.2507581,0.2865807 C 2.8325007,4.8549907 3.5059659,4.3749647 3.5059659,4.3749647 3.6034984,4.1801555 3.3382465,3.8992969 3.1549025,3.9880802 Z"
       style="display:inline;fill:#bfbebf;stroke-width:0.264583;enable-background:new"
       id="path1094" />
    <path
       d="m 1.5788419,5.1563561 c 0.1282865,0.015822 0.2396518,-0.048721 0.3484088,-0.2019148 0.2026476,-0.2854411 0.2643142,-0.350546 0.3784837,-0.3995867 0.1125408,-0.048339 0.288196,-0.00992 0.3905368,0.085412 0.2037649,0.1898229 0.032422,0.5903712 -0.3050977,0.7132197 -0.2504829,0.091167 -0.5277924,0.040372 -0.8172446,-0.149693 -0.0756,-0.049642 -0.074811,-0.057266 0.00492,-0.047437 z"
       id="path1214"
       style="display:inline;stroke-width:0.264583;enable-background:new" />
  </g>
</svg>
