<?xml version="1.0" encoding="UTF-8" standalone="no"?>
<!-- Created with Inkscape (http://www.inkscape.org/) -->

<svg
   width="24"
   height="24"
   viewBox="0 0 6.35 6.35"
   version="1.1"
   id="svg5"
   sodipodi:docname="preferences-desktop-accessibility.svg"
   inkscape:version="1.1.2 (0a00cf5339, 2022-02-04, custom)"
   xmlns:inkscape="http://www.inkscape.org/namespaces/inkscape"
   xmlns:sodipodi="http://sodipodi.sourceforge.net/DTD/sodipodi-0.dtd"
   xmlns:xlink="http://www.w3.org/1999/xlink"
   xmlns="http://www.w3.org/2000/svg"
   xmlns:svg="http://www.w3.org/2000/svg">
  <sodipodi:namedview
     id="namedview7"
     pagecolor="#ffffff"
     bordercolor="#666666"
     borderopacity="1.0"
     inkscape:pageshadow="2"
     inkscape:pageopacity="0.0"
     inkscape:pagecheckerboard="0"
     inkscape:document-units="px"
     showgrid="false"
     units="px"
     height="48px"
     showguides="false"
     inkscape:zoom="16.375"
     inkscape:cx="9.2824427"
     inkscape:cy="15.816794"
     inkscape:window-width="1920"
     inkscape:window-height="1012"
     inkscape:window-x="0"
     inkscape:window-y="0"
     inkscape:window-maximized="1"
     inkscape:current-layer="svg5" />
  <defs
     id="defs2">
    <linearGradient
       inkscape:collect="always"
       id="linearGradient2014">
      <stop
         style="stop-color:#5884f4;stop-opacity:1"
         offset="0"
         id="stop2010" />
      <stop
         style="stop-color:#2f5fdd;stop-opacity:1"
         offset="1"
         id="stop2012" />
    </linearGradient>
    <linearGradient
       inkscape:collect="always"
       id="linearGradient1871">
      <stop
         style="stop-color:#ffffff;stop-opacity:1;"
         offset="0"
         id="stop1867" />
      <stop
         style="stop-color:#ffffff;stop-opacity:0.1"
         offset="0.12"
         id="stop2515" />
      <stop
         style="stop-color:#ffffff;stop-opacity:0.102"
         offset="0.89999998"
         id="stop2581" />
      <stop
         style="stop-color:#ffffff;stop-opacity:0.502"
         offset="1"
         id="stop1869" />
    </linearGradient>
    <linearGradient
       inkscape:collect="always"
       xlink:href="#linearGradient1871"
       id="linearGradient1198"
       x1="6.3499999"
       y1="0.52916658"
       x2="6.3499994"
       y2="12.170834"
       gradientUnits="userSpaceOnUse"
       gradientTransform="scale(1.8897639)" />
    <linearGradient
       inkscape:collect="always"
       xlink:href="#linearGradient2014"
       id="linearGradient2016"
       x1="5.7805705"
       y1="12.147826"
       x2="5.8841038"
       y2="0.55217373"
       gradientUnits="userSpaceOnUse"
       gradientTransform="matrix(0.51111109,0,0,0.51111109,-0.07055533,-0.07055533)" />
  </defs>
  <circle
     style="fill:url(#linearGradient2016);fill-opacity:1;stroke-width:0.270463;stroke-linecap:round;stroke-linejoin:round"
     id="path986"
     cx="3.175"
     cy="3.175"
     r="3.0427084" />
  <path
     d="m 3.175,1.3229167 c -0.2922587,0 -0.5291667,0.2369159 -0.5291667,0.5291667 0,0.2922587 0.2369159,0.5291666 0.5291667,0.5291666 0.2922588,0 0.5291667,-0.2369158 0.5291667,-0.5291666 0,-0.2922588 -0.2369132,-0.5291667 -0.5291667,-0.5291667 z M 1.5875,2.6458334 v 0.2645833 l 0.328004,5.292e-4 c 0.1378955,-2.7e-6 0.2550636,0.019897 0.3515254,0.06214 0.094755,0.039367 0.172474,0.09742 0.229571,0.1733735 0.058507,0.072869 0.099134,0.1605545 0.121957,0.2609639 0.022966,0.1011026 0.0263,0.2078725 0.03333,0.3207808 l 1.297e-4,0.00159 -0.00238,1.2973315 H 2.9104722 V 4.1010814 c 0,-0.1461267 0.1184566,-0.2645833 0.2645807,-0.2645833 0.1461241,0 0.2645834,0.1184566 0.2645834,0.2645833 V 5.0271231 H 3.704217 L 3.706597,3.7313527 C 3.7068616,3.6142798 3.717736,3.5062637 3.740186,3.4074762 3.763046,3.3069001 3.803739,3.2190664 3.8624023,3.1461261 c 0.0571,-0.075785 0.134792,-0.1338183 0.2294414,-0.1731169 0.096417,-0.042172 0.2329206,-0.06201 0.3512608,-0.06201 H 4.7624841 V 2.6458863 Z"
     style="fill:#faf8f6;stroke-width:0.264583;enable-background:new"
     id="path875" />
  <path
     id="path4344"
     style="opacity:0.4;fill:#000000;fill-opacity:1;stroke-width:1.6;stroke-linecap:round;stroke-linejoin:round"
     d="M 12,0 C 5.372583,1.2369363e-7 1.0909091e-7,5.372583 0,12 0,18.627416 5.372583,24 12,24 18.627417,24 24,18.627416 24,12 24,5.372583 18.627417,0 12,0 Z m 0,1 A 11,11 0 0 1 23,12 11,11 0 0 1 12,23 11,11 0 0 1 1,12 11,11 0 0 1 12,1 Z"
     transform="scale(0.26458333)" />
  <path
     id="path1110"
     style="fill:url(#linearGradient1198);fill-opacity:1;stroke-width:1;stroke-linecap:round;stroke-linejoin:round"
     d="m 12,1 c -6.0751324,-8e-8 -11.00000008,4.9248676 -11,11 2e-7,6.075132 4.9248676,11 11,11 6.075132,0 11,-4.924868 11,-11 C 23,5.9248676 18.075132,1.0000002 12,1 Z m 0,1 C 17.522848,2 22,6.4771525 22,12 22,17.522847 17.522847,22 12,22 6.4771525,22 2,17.522848 2,12 1.9999996,6.4771525 6.4771525,1.9999996 12,2 Z"
     transform="scale(0.26458333)" />
</svg>
