<?xml version="1.0" encoding="UTF-8" standalone="no"?>
<!-- Created with Inkscape (http://www.inkscape.org/) -->

<svg
   width="24"
   height="24"
   viewBox="0 0 6.3499999 6.3500002"
   version="1.1"
   id="svg5"
   inkscape:version="1.1.2 (0a00cf5339, 2022-02-04)"
   sodipodi:docname="preferences-desktop-font-installer.svg"
   xmlns:inkscape="http://www.inkscape.org/namespaces/inkscape"
   xmlns:sodipodi="http://sodipodi.sourceforge.net/DTD/sodipodi-0.dtd"
   xmlns:xlink="http://www.w3.org/1999/xlink"
   xmlns="http://www.w3.org/2000/svg"
   xmlns:svg="http://www.w3.org/2000/svg">
  <sodipodi:namedview
     id="namedview7"
     pagecolor="#ffffff"
     bordercolor="#666666"
     borderopacity="1.0"
     inkscape:pageshadow="2"
     inkscape:pageopacity="0.0"
     inkscape:pagecheckerboard="0"
     inkscape:document-units="px"
     showgrid="false"
     units="px"
     height="24px"
     inkscape:zoom="32"
     inkscape:cx="11.984375"
     inkscape:cy="12"
     inkscape:window-width="1920"
     inkscape:window-height="995"
     inkscape:window-x="0"
     inkscape:window-y="0"
     inkscape:window-maximized="1"
     inkscape:current-layer="svg5" />
  <defs
     id="defs2">
    <linearGradient
       inkscape:collect="always"
       id="linearGradient1871">
      <stop
         style="stop-color:#ffffff;stop-opacity:1;"
         offset="0"
         id="stop1867" />
      <stop
         style="stop-color:#ffffff;stop-opacity:0.1"
         offset="0.12"
         id="stop2515" />
      <stop
         style="stop-color:#ffffff;stop-opacity:0.102"
         offset="0.89999998"
         id="stop2581" />
      <stop
         style="stop-color:#ffffff;stop-opacity:0.502"
         offset="1"
         id="stop1869" />
    </linearGradient>
    <linearGradient
       inkscape:collect="always"
       id="linearGradient2290">
      <stop
         style="stop-color:#ea9d60;stop-opacity:1"
         offset="0"
         id="stop2286" />
      <stop
         style="stop-color:#efbe94;stop-opacity:1"
         offset="1"
         id="stop2288" />
    </linearGradient>
    <linearGradient
       inkscape:collect="always"
       xlink:href="#linearGradient1871"
       id="linearGradient890"
       x1="1.983304"
       y1="0.26458335"
       x2="1.983304"
       y2="6.0854168"
       gradientUnits="userSpaceOnUse" />
    <linearGradient
       inkscape:collect="always"
       xlink:href="#linearGradient2290"
       id="linearGradient1282"
       x1="1.983304"
       y1="0"
       x2="4.6291375"
       y2="6.3499999"
       gradientUnits="userSpaceOnUse" />
    <linearGradient
       inkscape:collect="always"
       xlink:href="#linearGradient2011"
       id="linearGradient2013"
       x1="6.8791666"
       y1="-1.5610418"
       x2="6.8791666"
       y2="14.948958"
       gradientUnits="userSpaceOnUse"
       gradientTransform="matrix(0.50000007,0,0,0.47619046,-2.1958425e-7,0.21418656)" />
    <linearGradient
       inkscape:collect="always"
       id="linearGradient2011">
      <stop
         style="stop-color:#f1e2a7;stop-opacity:1;"
         offset="0"
         id="stop2007" />
      <stop
         style="stop-color:#f9f1d2;stop-opacity:1"
         offset="1"
         id="stop2009" />
    </linearGradient>
  </defs>
  <path
     d="m 2.0811548,0.26458334 c -0.2963598,0 -0.5331777,0.006376 -0.7384256,0.0408252 C 1.1374813,0.33986259 0.95112457,0.40796899 0.81099857,0.54776953 0.67087526,0.68757008 0.60177668,0.87502473 0.56761103,1.0805531 0.53345067,1.286084 0.52792088,1.5228544 0.52937345,1.820045 v 1.6195384 1.3558573 c -0.001323,0.2966085 0.004128,0.5332122 0.0382376,0.7384574 0.034163,0.205531 0.10326159,0.392983 0.24338762,0.5327836 0.1401286,0.1398005 0.32648263,0.2079069 0.53173053,0.2423609 0.2052479,0.034454 0.4420658,0.040825 0.7384256,0.040825 h 2.1878979 c 0.2963545,0 0.5324898,-0.00635 0.7373937,-0.040825 C 5.2113477,6.2745595 5.3980165,6.2060483 5.5376583,6.0661631 5.6773001,5.9262805 5.745597,5.7395667 5.7800087,5.5344141 5.8144231,5.3292588 5.8208339,5.0923958 5.8208339,4.7954407 V 3.4395834 1.8190104 c 0,-0.2969551 -0.0064,-0.533818 -0.040825,-0.7389733 C 5.745597,0.8748845 5.6773001,0.68817068 5.5376583,0.54828812 5.3980165,0.40840291 5.2113504,0.3398917 5.0064464,0.30540855 4.8015399,0.2709254 4.5654098,0.26458334 4.2690527,0.26458334 Z"
     style="color:#000000;font-style:normal;font-variant:normal;font-weight:normal;font-stretch:normal;font-size:medium;line-height:normal;font-family:sans-serif;font-variant-ligatures:normal;font-variant-position:normal;font-variant-caps:normal;font-variant-numeric:normal;font-variant-alternates:normal;font-feature-settings:normal;text-indent:0;text-align:start;text-decoration:none;text-decoration-line:none;text-decoration-style:solid;text-decoration-color:#000000;letter-spacing:normal;word-spacing:normal;text-transform:none;writing-mode:lr-tb;direction:ltr;text-orientation:mixed;dominant-baseline:auto;baseline-shift:baseline;text-anchor:start;white-space:normal;shape-padding:0;clip-rule:nonzero;display:inline;overflow:visible;visibility:visible;opacity:0.1;isolation:auto;mix-blend-mode:normal;color-interpolation:sRGB;color-interpolation-filters:linearRGB;solid-color:#000000;solid-opacity:1;vector-effect:none;fill:#000000;fill-opacity:1;fill-rule:nonzero;stroke:none;stroke-width:0.529156;stroke-linecap:butt;stroke-linejoin:miter;stroke-miterlimit:4;stroke-dasharray:none;stroke-dashoffset:0;stroke-opacity:1;marker:none;color-rendering:auto;image-rendering:auto;shape-rendering:auto;text-rendering:auto;enable-background:accumulate"
     id="path3448" />
  <path
     d="m 2.0203641,0.13229167 c -1.23217263,0 -1.36475265,0.12535429 -1.35871486,1.34825053 v 1.6944579 1.6944605 c -0.006059,1.2228936 0.12654223,1.3482479 1.35871486,1.3482479 h 2.3094634 c 1.2321725,0 1.3587148,-0.1253384 1.3587148,-1.3482479 V 3.1750001 1.4805422 c 0,-1.22290946 -0.1265449,-1.34825053 -1.3587175,-1.34825053 z"
     style="color:#000000;display:inline;overflow:visible;visibility:visible;fill:url(#linearGradient1282);fill-opacity:1;fill-rule:nonzero;stroke:none;stroke-width:0.264583;marker:none;enable-background:accumulate"
     id="path3009" />
  <path
     id="rect1683"
     style="opacity:0.6;fill:url(#linearGradient2013);stroke-width:0.114028;stroke-linecap:round;stroke-linejoin:round"
     d="M 2.9104166,0.26458334 H 3.4395833 V 6.0854167 H 2.9104166 Z"
     sodipodi:nodetypes="ccccc" />
  <path
     id="rect1156"
     style="opacity:0.1;fill:#ffffff;fill-opacity:1;stroke-width:0.529167;stroke-linecap:round;stroke-linejoin:round"
     d="M 3.1750001,0.13229167 V 6.2177085 h 1.1549682 c 1.2321725,0 1.3585735,-0.1253286 1.3585735,-1.3482381 V 3.1750001 1.4805298 c 0,-1.22290953 -0.1264007,-1.34823813 -1.3585735,-1.34823813 z" />
  <path
     d="m 2.3867459,1.3229166 c -0.1096275,0 -0.2038932,0.00765 -0.2828131,0.022992 -0.076737,0.015346 -0.1337469,0.031787 -0.1710214,0.049326 l 0.029586,0.1874626 c 0.028504,-0.010954 0.073446,-0.025188 0.134837,-0.042728 0.061391,-0.017542 0.1546013,-0.026353 0.2795852,-0.026353 0.087699,0 0.1578319,0.014288 0.2104496,0.042783 0.054814,0.0263 0.096491,0.06251 0.1249944,0.1085506 0.030694,0.043849 0.0504,0.094276 0.059169,0.1512808 0.00878,0.054814 0.01315,0.1117706 0.01315,0.1709685 v 0.1052555 c -0.00878,-0.00439 -0.025215,-0.00876 -0.049326,-0.01315 -0.021934,-0.00659 -0.049324,-0.012065 -0.082211,-0.016431 -0.030694,-0.00659 -0.063572,-0.010954 -0.098653,-0.01315 -0.032888,-0.00439 -0.064659,-0.00659 -0.095358,-0.00659 -0.1030473,0 -0.1984137,0.00984 -0.2861205,0.029586 -0.087699,0.019738 -0.1633617,0.051557 -0.226941,0.095406 -0.063585,0.041659 -0.112903,0.095353 -0.1479841,0.161126 -0.035079,0.065778 -0.052626,0.1447086 -0.052626,0.2367915 0,0.09647 0.015346,0.1787208 0.04603,0.2466896 0.032885,0.065773 0.076726,0.1205732 0.1315376,0.1644226 0.057007,0.041656 0.1228143,0.072324 0.1973633,0.092054 0.076737,0.019738 0.1600412,0.029641 0.2499334,0.029641 0.070157,0 0.138131,-0.00333 0.2039064,-0.0099 0.067969,-0.00439 0.1293521,-0.010954 0.1841659,-0.019738 0.054811,-0.00876 0.1030234,-0.016404 0.1446821,-0.022992 0.041656,-0.00878 0.073483,-0.016457 0.095406,-0.023045 V 1.9510904 c 0,-0.089895 -0.01098,-0.1732491 -0.032885,-0.2499889 C 2.9436674,1.624367 2.9085836,1.5586075 2.8603501,1.5037964 2.8121139,1.4467919 2.748516,1.4029504 2.6695855,1.3722561 2.5928484,1.3393684 2.4985853,1.3229272 2.3867724,1.3229272 Z m 1.2184063,0.857303 v 2.3269045 h 0.2495153 l 0.077814,-0.1004357 c 0.1555591,0.090741 0.3111235,0.1328499 0.4699264,0.1328499 0.4666721,0 0.7421034,-0.3467629 0.7421034,-0.8199173 0,-0.4731544 -0.1911985,-0.8069792 -0.6708511,-0.8069792 -0.1847268,0 -0.3370527,0.045418 -0.4699264,0.1134745 V 2.1802169 Z m -1.1526309,0.047075 c 0.092086,0 0.1644306,0.00659 0.217051,0.019738 0.052618,0.010954 0.090977,0.021934 0.1150937,0.032883 v 0.5985668 c -0.043849,0.00878 -0.097541,0.016404 -0.1611207,0.022992 -0.061391,0.00439 -0.1337389,0.00659 -0.2170509,0.00659 -0.067969,0 -0.1293548,-0.00548 -0.1841659,-0.016431 -0.052618,-0.013176 -0.098671,-0.032911 -0.1381416,-0.059219 -0.037266,-0.0263 -0.066879,-0.061352 -0.088805,-0.105201 -0.019738,-0.043852 -0.029588,-0.097597 -0.029588,-0.1611788 0,-0.07235 0.015346,-0.1304713 0.04603,-0.1743181 0.030694,-0.043849 0.07016,-0.077787 0.1183931,-0.1019069 0.048236,-0.0263 0.100875,-0.042799 0.1578795,-0.049377 0.057004,-0.00878 0.1118023,-0.01315 0.1644227,-0.01315 z m 1.9239178,1.0094383 c 0.2787121,0 0.3694906,0.2009405 0.3694906,0.5055659 0,0.3046253 -0.1425892,0.482891 -0.4083315,0.482891 -0.1296326,0 -0.2398368,-0.032385 -0.3338248,-0.106926 V 3.3242753 c 0.07778,-0.032406 0.2300791,-0.087553 0.3726657,-0.087553 z M 2.4599032,3.6795392 c -0.165608,0 -0.3180292,0.025956 -0.4572529,0.077811 -0.1392185,0.051866 -0.2593182,0.1264947 -0.3603096,0.223856 -0.1000919,0.097367 -0.1783874,0.2165563 -0.2348019,0.3576109 -0.056417,0.1410388 -0.084622,0.3002756 -0.084622,0.4777317 0,0.1110112 0.017304,0.2119868 0.051893,0.3029743 0.034573,0.090993 0.085516,0.1687804 0.1528524,0.233389 0.067334,0.064601 0.1505956,0.1146889 0.2497746,0.1501775 0.099184,0.035489 0.2138601,0.053202 0.3439848,0.053202 0.060968,0 0.1223963,-0.00362 0.1842717,-0.010901 0.061878,-0.00638 0.1218962,-0.015081 0.1801363,-0.025982 0.058235,-0.011827 0.1132893,-0.02503 0.1651556,-0.039587 0.052776,-0.014552 0.1005522,-0.029565 0.1433195,-0.045032 l 0.083259,-0.4299215 h -0.088704 l -0.09829,0.2743465 c -0.028205,0.021828 -0.061881,0.042767 -0.10101,0.062786 -0.039127,0.019103 -0.082338,0.03637 -0.1296538,0.051842 -0.046405,0.015478 -0.096443,0.027765 -0.1501298,0.036862 -0.053684,0.0091 -0.1087385,0.013653 -0.1651556,0.013653 -0.097364,0 -0.1806231,-0.015002 -0.2497773,-0.045035 -0.069154,-0.030028 -0.1260131,-0.07143 -0.1706007,-0.124206 -0.044588,-0.053687 -0.077364,-0.1174248 -0.09829,-0.1911271 -0.020029,-0.073705 -0.030057,-0.153752 -0.030057,-0.2401967 0,-0.160147 0.021431,-0.3052762 0.064198,-0.4353983 C 1.7028585,4.2782702 1.76198,4.1672616 1.8375053,4.0753638 1.9139383,3.9834578 2.0044759,3.9129494 2.1091265,3.8638137 c 0.1046428,-0.050049 0.2188713,-0.075091 0.342609,-0.075091 0.087355,0 0.1710664,0.010954 0.2511399,0.032779 0.080076,0.020928 0.1482751,0.05094 0.2046896,0.090069 v 0.237522 h 0.08876 L 3.0577478,3.749122 C 2.9767641,3.7309186 2.8880334,3.7150199 2.7915769,3.7013674 2.6951257,3.6868152 2.5845643,3.6795392 2.4598953,3.6795392 Z"
     style="opacity:0.1;fill:#000000;stroke-width:0.264583;enable-background:new"
     id="path872"
     sodipodi:nodetypes="cccccscccsccccscccscccsccccscccccccccsssccccccccscccsccccccssccccccccscccsccccccccccscccscccscccccccc" />
  <path
     d="m 2.3867458,1.0583333 c -0.1096275,0 -0.2038932,0.00765 -0.2828131,0.022992 -0.076737,0.015346 -0.1337469,0.031787 -0.1710214,0.049326 l 0.029586,0.1874626 c 0.028504,-0.010954 0.073446,-0.025188 0.134837,-0.042728 0.061391,-0.017542 0.1546013,-0.026353 0.2795852,-0.026353 0.087699,0 0.1578319,0.014288 0.2104496,0.042783 0.054814,0.0263 0.096491,0.06251 0.1249945,0.1085506 0.030694,0.043849 0.0504,0.094276 0.059169,0.1512809 0.00878,0.054814 0.01315,0.1117705 0.01315,0.1709684 v 0.1052556 c -0.00878,-0.00439 -0.025215,-0.00876 -0.049326,-0.01315 -0.021934,-0.00659 -0.049324,-0.012065 -0.082211,-0.016431 -0.030694,-0.00659 -0.063572,-0.010954 -0.098653,-0.01315 -0.032888,-0.00439 -0.064659,-0.00659 -0.095358,-0.00659 -0.1030473,0 -0.1984137,0.00984 -0.2861205,0.029586 -0.087699,0.019738 -0.1633617,0.051557 -0.226941,0.095406 -0.063585,0.041659 -0.112903,0.095353 -0.1479841,0.1611259 -0.035079,0.065778 -0.052626,0.1447085 -0.052626,0.2367915 0,0.09647 0.015346,0.1787207 0.04603,0.2466895 0.032885,0.065773 0.076726,0.1205732 0.1315376,0.1644226 0.057007,0.041656 0.1228143,0.072324 0.1973633,0.092054 0.076737,0.019738 0.1600412,0.029641 0.2499334,0.029641 0.070157,0 0.138131,-0.00333 0.2039064,-0.0099 0.067969,-0.00439 0.1293522,-0.010954 0.1841659,-0.019738 0.054811,-0.00876 0.1030235,-0.016404 0.1446821,-0.022992 0.041656,-0.00878 0.073483,-0.016457 0.095406,-0.023045 V 1.6865071 c 0,-0.089895 -0.01098,-0.1732491 -0.032885,-0.2499889 C 2.9436674,1.3597837 2.9085834,1.2940241 2.8603501,1.2392131 2.8121139,1.1822086 2.748516,1.1383671 2.6695855,1.1076728 2.5928483,1.0747851 2.4985852,1.0583439 2.3867723,1.0583439 Z M 3.6051522,1.9156362 V 4.2425408 H 3.8546675 L 3.9324815,4.142105 c 0.1555591,0.090741 0.3111235,0.1328499 0.4699262,0.1328499 0.4666723,0 0.7421036,-0.3467628 0.7421036,-0.8199171 0,-0.4731544 -0.1911985,-0.8069792 -0.670851,-0.8069792 -0.1847271,0 -0.3370528,0.045418 -0.4699265,0.1134745 V 1.9156336 Z m -1.152631,0.047075 c 0.092086,0 0.1644306,0.00659 0.2170511,0.019738 0.052618,0.010954 0.090977,0.021934 0.1150935,0.032883 V 2.613899 c -0.043849,0.00878 -0.097541,0.016404 -0.1611206,0.022992 -0.061391,0.00439 -0.1337389,0.00659 -0.2170509,0.00659 -0.067969,0 -0.1293548,-0.00548 -0.1841659,-0.016431 C 2.1697104,2.613874 2.1236574,2.594139 2.0841868,2.567831 2.0469208,2.541531 2.0173078,2.506479 1.9953818,2.46263 1.9756438,2.418778 1.9657938,2.365033 1.9657938,2.3014511 c 0,-0.07235 0.015346,-0.1304713 0.04603,-0.1743181 0.030694,-0.043849 0.07016,-0.077787 0.1183931,-0.1019069 0.048236,-0.0263 0.100875,-0.042799 0.1578795,-0.049377 0.057004,-0.00878 0.1118023,-0.01315 0.1644227,-0.01315 z m 1.9239179,1.0094384 c 0.2787121,0 0.3694906,0.2009405 0.3694906,0.5055659 0,0.3046253 -0.1425892,0.482891 -0.4083317,0.482891 -0.1296326,0 -0.2398366,-0.032385 -0.3338248,-0.1069261 V 3.059692 C 4.0815532,3.027286 4.2338525,2.972139 4.3764391,2.972139 Z m -1.916536,0.4428065 c -0.165608,0 -0.3180292,0.025956 -0.4572529,0.077811 -0.1392185,0.051866 -0.2593182,0.1264946 -0.3603096,0.223856 -0.1000919,0.097367 -0.1783874,0.2165561 -0.2348019,0.3576107 -0.056417,0.1410388 -0.084622,0.3002756 -0.084622,0.4777317 0,0.1110112 0.017304,0.2119868 0.051893,0.3029744 0.034573,0.090993 0.085516,0.1687803 0.1528524,0.2333889 0.067334,0.064601 0.1505956,0.114689 0.2497746,0.1501775 0.099184,0.035489 0.2138601,0.053202 0.3439848,0.053202 0.060968,0 0.1223963,-0.00362 0.1842717,-0.010901 0.061878,-0.00638 0.1218962,-0.015081 0.1801363,-0.025982 0.058235,-0.011827 0.1132893,-0.02503 0.1651556,-0.039587 0.052776,-0.014552 0.1005522,-0.029565 0.1433195,-0.045032 l 0.083259,-0.4299214 h -0.088704 l -0.09829,0.2743464 c -0.028205,0.021828 -0.061881,0.042767 -0.10101,0.062786 -0.039127,0.019103 -0.082338,0.03637 -0.1296538,0.051842 -0.046405,0.015478 -0.096443,0.027765 -0.1501298,0.036862 -0.053684,0.0091 -0.1087385,0.013653 -0.1651556,0.013653 -0.097364,0 -0.1806231,-0.015002 -0.2497773,-0.045035 C 1.8256891,5.1047113 1.76883,5.0633093 1.7242424,5.0105338 1.6796544,4.9568468 1.6468784,4.8931088 1.6259524,4.8194065 1.6059234,4.7457015 1.5958954,4.6656544 1.5958954,4.5792098 c 0,-0.160147 0.021431,-0.3052759 0.064198,-0.435398 C 1.7028584,4.0136873 1.7619799,3.9026787 1.8375052,3.810781 1.9139382,3.718875 2.0044758,3.6483666 2.1091264,3.5992308 c 0.1046428,-0.050049 0.2188713,-0.075091 0.342609,-0.075091 0.087355,0 0.1710664,0.010954 0.25114,0.032779 0.080076,0.020928 0.1482749,0.05094 0.2046896,0.090069 v 0.237522 h 0.08876 L 3.057748,3.4845388 C 2.9767639,3.4663355 2.8880332,3.4504367 2.7915767,3.4367842 2.6951255,3.4222321 2.5845642,3.4149561 2.4598952,3.4149561 Z"
     style="fill:#333333;fill-opacity:1;stroke-width:0.0700042;enable-background:new"
     id="path2898" />
  <path
     d="m 1.983341,0.26458334 c -0.5542148,0 -0.8483627,0.0417909 -0.98908673,0.17466734 -0.070361,0.0664369 -0.12065,0.16339873 -0.1539954,0.32710967 C 0.80692667,0.93007394 0.79375037,1.1553852 0.79375037,1.450557 v 1.7244431 1.724443 c 0,0.2951719 0.013176,0.5204831 0.046509,0.6841967 0.033345,0.1637109 0.083635,0.2606728 0.1539954,0.3271097 C 1.1349788,6.0436259 1.4291267,6.0854168 1.9833415,6.0854168 h 2.3833191 c 0.554355,0 0.8503656,-0.041727 0.9916689,-0.1746673 C 5.4289835,5.8442805 5.4787732,5.7471655 5.511809,5.5836398 5.544848,5.4201114 5.557574,5.1950145 5.556251,4.8999591 V 3.1750001 1.450041 C 5.5575735,1.1549856 5.5448471,0.92988873 5.5118085,0.76636035 5.4787727,0.60283462 5.4289807,0.5057193 5.358329,0.43925068 5.2170257,0.30631078 4.9210151,0.26458334 4.3666601,0.26458334 Z m 0.2330609,0.28215432 c 0.7227094,-7.9375e-4 1.4456569,0.002117 2.1683451,0.007223 0.2274041,0.0140758 0.4676167,-0.0211667 0.6909118,0.0439261 0.1500717,0.0268314 0.1664599,0.20429274 0.1803506,0.3260778 0.026987,1.35474334 0.019685,2.71686344 0.00931,4.07158564 -0.01905,0.2334869 0.037714,0.4929479 -0.088366,0.703834 C 5.0403898,5.7988012 4.854012,5.7813572 4.6937804,5.802736 3.6922663,5.823479 2.6898896,5.820198 1.6882803,5.805386 1.5187856,5.7876018 1.3222107,5.804588 1.178751,5.6984107 1.0450755,5.487223 1.0959735,5.2214225 1.0790137,4.984758 1.0687478,3.6447598 1.0605192,2.2976496 1.0872951,0.95761442 1.1089645,0.83184738 1.1146425,0.64118862 1.2660953,0.60104604 1.5773061,0.51874739 1.8992644,0.56022876 2.216423,0.54678793 Z"
     style="color:#000000;display:inline;overflow:visible;visibility:visible;opacity:0.7;fill:url(#linearGradient890);fill-opacity:1;fill-rule:nonzero;stroke:none;stroke-width:0.264583;marker:none;enable-background:accumulate"
     id="path2869" />
  <path
     style="color:#000000;display:inline;opacity:0.4;fill:#000000;stroke-width:0.26458;-inkscape-stroke:none;enable-background:new"
     d="M 1.983304,0 C 1.4194372,0 1.0531003,0.019685 0.81234537,0.24701236 0.69196784,0.36068001 0.62118916,0.51808593 0.58135613,0.71365271 0.5415284,0.90921684 0.52916707,1.1478657 0.52916707,1.450557 v 1.7244431 1.724443 c 0,0.3026913 0.012356,0.5413402 0.0521891,0.7369043 0.039833,0.1955668 0.11061171,0.3529727 0.2309892,0.4666404 C 1.0531004,6.3303204 1.4194372,6.3500001 1.983304,6.3500001 h 2.3832529 c 0.564007,0 0.9314524,-0.019235 1.173025,-0.2464964 C 5.6603668,5.9898652 5.7315424,5.8315808 5.771087,5.6358315 5.8106025,5.4402171 5.8221622,5.2019466 5.8206937,4.8994431 V 4.898914 3.1750001 1.4510729 1.4505437 C 5.8222812,1.1480403 5.8106131,0.90976717 5.771087,0.71415541 5.7315424,0.51840608 5.6603668,0.36012174 5.5395819,0.24648319 5.2980093,0.01922198 4.9305639,0 4.3665569,0 Z m 0,0.26458334 h 2.3832529 c 0.5543418,0 0.8503444,0.0417274 0.9916451,0.17466734 0.070649,0.0664686 0.120441,0.16358394 0.1534743,0.32710967 0.033036,0.16352838 0.045892,0.38862525 0.044442,0.68368065 v 1.7249591 1.724959 C 5.5574412,5.1950145 5.5447148,5.4201114 5.5116763,5.5836398 5.478643,5.7471655 5.4288511,5.8442808 5.358202,5.9107495 5.2169013,6.0436894 4.9208987,6.0854168 4.3665569,6.0854168 H 1.983304 c -0.5542016,0 -0.8483415,-0.041791 -0.98906293,-0.1746673 C 0.92388307,5.8443126 0.87411227,5.7473507 0.84076687,5.5836398 0.80742407,5.4199262 0.79374247,5.194615 0.79374247,4.8994431 V 3.1750001 1.450557 c 0,-0.2951718 0.013679,-0.52048306 0.047024,-0.68419665 0.033345,-0.16371094 0.083116,-0.2606728 0.1534742,-0.32710967 C 1.1349621,0.30637428 1.429102,0.26458334 1.983304,0.26458334 Z"
     id="path3225" />
</svg>
