<?xml version="1.0" encoding="UTF-8" standalone="no"?>
<!-- Created with Inkscape (http://www.inkscape.org/) -->

<svg
   width="24"
   height="24"
   viewBox="0 0 6.3499999 6.3500002"
   version="1.1"
   id="svg5"
   inkscape:version="1.1.2 (0a00cf5339, 2022-02-04, custom)"
   sodipodi:docname="preferences-plugin.svg"
   xmlns:inkscape="http://www.inkscape.org/namespaces/inkscape"
   xmlns:sodipodi="http://sodipodi.sourceforge.net/DTD/sodipodi-0.dtd"
   xmlns:xlink="http://www.w3.org/1999/xlink"
   xmlns="http://www.w3.org/2000/svg"
   xmlns:svg="http://www.w3.org/2000/svg">
  <sodipodi:namedview
     id="namedview7"
     pagecolor="#ffffff"
     bordercolor="#666666"
     borderopacity="1.0"
     inkscape:pageshadow="2"
     inkscape:pageopacity="0.0"
     inkscape:pagecheckerboard="0"
     inkscape:document-units="px"
     showgrid="false"
     units="px"
     height="24px"
     inkscape:zoom="11.932427"
     inkscape:cx="-4.9445096"
     inkscape:cy="12.989813"
     inkscape:window-width="1920"
     inkscape:window-height="1012"
     inkscape:window-x="0"
     inkscape:window-y="0"
     inkscape:window-maximized="1"
     inkscape:current-layer="svg5"
     showguides="true" />
  <defs
     id="defs2">
    <linearGradient
       inkscape:collect="always"
       id="linearGradient1137">
      <stop
         style="stop-color:#aea795;stop-opacity:1"
         offset="0"
         id="stop1133" />
      <stop
         style="stop-color:#c8c4b7;stop-opacity:1"
         offset="1"
         id="stop1135" />
    </linearGradient>
    <linearGradient
       inkscape:collect="always"
       id="linearGradient1871">
      <stop
         style="stop-color:#ffffff;stop-opacity:1;"
         offset="0"
         id="stop1867" />
      <stop
         style="stop-color:#ffffff;stop-opacity:0.1"
         offset="0.12"
         id="stop2515" />
      <stop
         style="stop-color:#ffffff;stop-opacity:0.102"
         offset="0.89999998"
         id="stop2581" />
      <stop
         style="stop-color:#ffffff;stop-opacity:0.502"
         offset="1"
         id="stop1869" />
    </linearGradient>
    <linearGradient
       inkscape:collect="always"
       xlink:href="#linearGradient1871"
       id="linearGradient1178"
       x1="1.5937018"
       y1="0.26458335"
       x2="1.5937018"
       y2="6.0854168"
       gradientUnits="userSpaceOnUse" />
    <linearGradient
       inkscape:collect="always"
       xlink:href="#linearGradient1137"
       id="linearGradient1186"
       x1="1.5937018"
       y1="0"
       x2="4.6303988"
       y2="6.3500004"
       gradientUnits="userSpaceOnUse" />
    <linearGradient
       inkscape:collect="always"
       xlink:href="#linearGradient3433"
       id="linearGradient3435"
       x1="1.5937018"
       y1="0"
       x2="4.2395353"
       y2="6.3499999"
       gradientUnits="userSpaceOnUse"
       gradientTransform="scale(3.7795275)" />
    <linearGradient
       inkscape:collect="always"
       id="linearGradient3433">
      <stop
         style="stop-color:#28851e;stop-opacity:1;"
         offset="0"
         id="stop3429" />
      <stop
         style="stop-color:#46a926;stop-opacity:1"
         offset="1"
         id="stop3431" />
    </linearGradient>
  </defs>
  <path
     d="m 1.6344609,0.26458334 c -1.3619057,0 -1.50844254,0.11445611 -1.50176975,1.23104016 V 3.0427719 5.1189653 C 0.12599715,6.2355467 0.2725552,6.3500002 1.6344609,6.3500002 h 3.0816683 c 1.3619031,0 1.5017697,-0.1144376 1.5017697,-1.2310349 V 3.0427719 1.4956235 C 6.217899,0.37902886 6.0780296,0.26458334 4.7161266,0.26458334 Z"
     style="color:#000000;display:inline;overflow:visible;visibility:visible;opacity:0.1;fill:#000000;fill-opacity:1;fill-rule:nonzero;stroke:none;stroke-width:0.264591;marker:none;enable-background:accumulate"
     id="path1338" />
  <path
     d="m 1.6344609,0.13229167 c -1.3619057,0 -1.50844254,0.11445611 -1.50176975,1.23104013 V 2.9104802 4.9866736 C 0.12599715,6.103255 0.2725552,6.2177085 1.6344609,6.2177085 h 3.0816683 c 1.3619031,0 1.5017697,-0.1144376 1.5017697,-1.2310349 V 2.9104802 1.3633318 c 0,-1.11659461 -0.1398693,-1.23104013 -1.5017723,-1.23104013 z"
     style="color:#000000;display:inline;overflow:visible;visibility:visible;fill:url(#linearGradient1186);fill-opacity:1;fill-rule:nonzero;stroke:none;stroke-width:0.264591;marker:none;enable-background:accumulate"
     id="path908-3"
     sodipodi:nodetypes="scccssscsss" />
  <path
     id="path31"
     style="color:#000000;fill:#faf8f6;stroke-width:0.264583;-inkscape-stroke:none"
     d="M 3.1765503,0.26458334 V 1.3317017 C 2.9523236,1.2540697 2.7489331,1.2369737 2.6003581,1.3177487 2.4081944,1.4222218 2.316138,1.6271906 2.3161377,1.8236609 c -1e-7,0.1964703 0.092057,0.4014391 0.2842204,0.5059124 0.1485747,0.080776 0.351966,0.06368 0.5761922,-0.013952 V 3.1729332 H 1.6484782 L 1.7549317,3.3687868 C 1.8975922,3.6311817 1.883887,3.7930007 1.8324464,3.887618 1.7810057,3.9822357 1.6744387,4.0333458 1.559078,4.0333458 1.4437173,4.0333452 1.3371504,3.9822362 1.2857097,3.887618 1.234269,3.7930001 1.2205637,3.6311823 1.3632243,3.3687868 L 1.4696778,3.1729332 H 0.26458334 V 3.4375165 H 1.0671183 C 0.9894854,3.661743 0.9723907,3.8651337 1.0531653,4.0137087 c 0.1044731,0.1921636 0.309442,0.2842201 0.5059123,0.2842204 0.1964703,0 0.4014391,-0.092057 0.5059123,-0.2842204 0.080776,-0.1485747 0.063679,-0.351966 -0.013953,-0.5761922 H 3.1765505 V 4.6451947 L 3.3724044,4.5382245 c 0.2604738,-0.1425462 0.4205983,-0.129244 0.5141804,-0.078032 0.093582,0.051212 0.144694,0.1582597 0.144694,0.273885 0,0.1156253 -0.051112,0.2226734 -0.144694,0.2738851 -0.093582,0.051212 -0.2537066,0.064515 -0.5141804,-0.078032 L 3.1765505,4.8224447 V 6.0854168 H 3.4411339 V 5.2265544 c 0.2224794,0.077147 0.4244567,0.09421 0.5720583,0.013436 0.1913273,-0.104702 0.28267,-0.3097067 0.28267,-0.5059125 0,-0.1962055 -0.091343,-0.4012102 -0.28267,-0.5059122 -0.1476016,-0.080773 -0.3495789,-0.06371 -0.5720583,0.013436 V 3.4375157 H 4.9102951 L 4.8028081,3.2421786 C 4.6602619,2.9817048 4.6735647,2.8215803 4.7247771,2.7279982 4.7759891,2.6344162 4.8830369,2.5827874 4.9986622,2.5827874 c 0.1156253,0 0.2226733,0.051629 0.273885,0.1452108 0.051212,0.093582 0.064515,0.2537066 -0.078031,0.5141804 L 5.0875453,3.4375157 H 6.0854168 V 3.1729324 H 5.4911378 C 5.5682038,2.9505437 5.5853218,2.748428 5.5045738,2.6008741 5.3998724,2.4095466 5.1948671,2.3182041 4.9986614,2.3182041 c -0.1962055,0 -0.4012102,0.091343 -0.5059122,0.28267 -0.080747,0.1475539 -0.063629,0.3496696 0.013436,0.5720583 H 3.4411336 V 1.9130616 L 3.2457968,2.0189983 C 2.9834018,2.1616588 2.8215829,2.1484704 2.7269655,2.0970297 2.6323475,2.0455891 2.580721,1.9390221 2.5807211,1.8236613 2.5807212,1.7083006 2.6323471,1.6017337 2.7269655,1.550293 2.8215835,1.498852 2.9834013,1.485147 3.2457968,1.627808 L 3.4411336,1.7342614 V 0.26458364 Z"
     sodipodi:nodetypes="ccsssccccssscccccsssccccssscccccsssccccsssccccccssccccssscccc" />
  <path
     id="rect3239"
     style="fill:url(#linearGradient3435);stroke-width:1.64996;stroke-linecap:round;stroke-linejoin:round"
     d="M 18.892578 9.7617188 C 18.455569 9.7617184 18.050979 9.9568519 17.857422 10.310547 C 17.663865 10.664243 17.613587 11.269438 18.152344 12.253906 L 18.558594 12.992188 L 13.005859 12.992188 L 13.005859 16.03125 C 13.846726 15.739675 14.610105 15.675185 15.167969 15.980469 C 15.891094 16.376193 16.236328 17.151014 16.236328 17.892578 C 16.236328 18.634143 15.891094 19.408962 15.167969 19.804688 C 14.610105 20.109975 13.846726 20.045485 13.005859 19.753906 L 13.005859 23.5 L 17.824219 23.5 C 22.971569 23.5 23.5 23.067867 23.5 18.847656 L 23.5 11.998047 L 23 11.998047 L 23 12.992188 L 19.228516 12.992188 L 19.632812 12.253906 C 20.171571 11.269438 20.121294 10.664243 19.927734 10.310547 C 19.734177 9.9568515 19.329586 9.7617188 18.892578 9.7617188 z M 12 12.992188 L 12 23.5 L 12.005859 23.5 L 12.005859 18.226562 L 12.746094 18.632812 C 13.730562 19.171571 14.335757 19.12129 14.689453 18.927734 C 15.043149 18.734177 15.236328 18.329587 15.236328 17.892578 C 15.236328 17.455569 15.043149 17.050979 14.689453 16.857422 C 14.335757 16.663861 13.730562 16.613583 12.746094 17.152344 L 12.005859 17.556641 L 12.005859 12.992188 L 12 12.992188 z "
     transform="scale(0.26458334)" />
  <path
     d="m 1.5938923,0.26458334 c -0.61390475,0 -0.95498972,0.0409945 -1.11311002,0.16433006 C 0.40171949,0.4905825 0.3512317,0.5735558 0.3154177,0.71882 0.27959047,0.8640816 0.2647738,1.0674483 0.2647738,1.3358363 v 1.5745804 2.1036598 c 0,0.2683854 0.0148167,0.4717521 0.0506439,0.6170163 0.035814,0.1452642 0.0863018,0.2282376 0.16536458,0.2899066 0.1581203,0.1233356 0.49920527,0.1643301 1.11311002,0.1643301 h 3.1624059 c 0.6140583,0 0.956871,-0.040897 1.1156951,-0.1643301 0.079412,-0.061719 0.1298972,-0.1448699 0.1653646,-0.2899066 0.035465,-0.145034 0.049646,-0.3482525 0.048059,-0.6165003 V 2.9104167 1.3353204 C 6.0870043,1.0670699 6.0728226,0.8638567 6.0373579,0.71882 6.0018878,0.5737834 5.9514053,0.4906328 5.8719933,0.4289134 5.7131692,0.30547999 5.3703565,0.26458334 4.7562982,0.26458334 Z M 2.9058526,0.5317517 c 0.4179888,-5.292e-4 1.1007038,-1.032e-4 1.5186846,0.0031 0.3969306,0.01352 0.7996661,-0.018838 1.190625,0.074933 0.1458146,0.024315 0.1621976,0.1899894 0.1793161,0.3085069 0.029554,1.1399096 0.019844,2.8114837 0.013441,3.9531608 -0.018944,0.262173 0.036213,0.5492909 -0.079581,0.7973642 -0.090901,0.1083791 -0.2564876,0.095134 -0.383956,0.1204045 -1.046181,0.021775 -2.6271432,0.013203 -3.6760706,0.00982 C 1.3589926,5.78258 1.0404766,5.8289112 0.73761862,5.740125 0.58433227,5.7141958 0.57524383,5.5392692 0.55571758,5.4171481 0.52539633,4.3275013 0.53584737,2.7065659 0.54124487,1.6154004 0.55637904,1.334135 0.52015758,1.0419583 0.58930379,0.7648046 0.61707181,0.5958417 0.81721588,0.5900658 0.95103948,0.5689521 1.5147343,0.5169403 2.337644,0.5407422 2.9058553,0.5317464 Z"
     style="color:#000000;display:inline;overflow:visible;visibility:visible;fill:url(#linearGradient1178);fill-opacity:1;fill-rule:nonzero;stroke:none;stroke-width:0.264583;marker:none;enable-background:accumulate"
     id="path1082" />
  <path
     d="M 1.5937018,0 C 0.97181192,0 0.58184518,0.0151077 0.31832547,0.22065721 0.18656826,0.32343197 0.10345734,0.4730009 0.0583935,0.6557751 0.0133323,0.8385466 0,1.0583466 0,1.3358363 v 1.5745804 2.1037472 c 0,0.2774897 0.013335,0.4972896 0.0583935,0.6800612 0.04506384,0.1827741 0.12817476,0.332859 0.25993197,0.4356338 0.26351971,0.2055468 0.65348645,0.2201413 1.27537633,0.2201413 h 3.1625964 c 0.6220408,0 1.0135977,-0.014684 1.2779587,-0.2201413 C 6.1664375,6.0271318 6.2494373,5.8772268 6.2941889,5.6942251 6.3388744,5.5115038 6.3516061,5.2911985 6.3500001,5.0141639 V 5.0131055 2.9104167 1.3368682 1.3358098 C 6.3515876,1.0587752 6.3388612,0.8384699 6.2941889,0.6557486 6.2494373,0.4727496 6.1664375,0.32284195 6.0342569,0.22011482 5.7698985,0.01468702 5.378339,0 4.7562982,0 Z m 0,0.26458334 h 3.1625964 c 0.6140583,0 0.956355,0.0414126 1.1151791,0.16484866 0.079409,0.061717 0.1304105,0.1443514 0.1658806,0.289388 0.03547,0.145034 0.049652,0.3482525 0.048059,0.6164977 v 5.292e-4 1.5745804 2.1042631 C 6.0870043,5.2829382 6.0728226,5.4861567 6.0373579,5.6311907 6.0018905,5.7762274 5.9508894,5.859378 5.8714773,5.9210973 5.7126506,6.0445308 5.3703565,6.0854274 4.7562982,6.0854274 H 1.5937018 c -0.61390211,0 -0.95447114,-0.040995 -1.11259408,-0.1643301 C 0.40204757,5.8594283 0.3510412,5.7764549 0.3152272,5.6311907 0.27941055,5.4859186 0.2645833,5.2825519 0.2645833,5.0141639 V 2.9104167 1.3358363 C 0.2645833,1.0674483 0.2794,0.8646001 0.3152272,0.719336 0.3510412,0.5740718 0.40204757,0.4905825 0.48110772,0.4289134 0.63923066,0.30557788 0.97979969,0.26458334 1.5937018,0.26458334 Z"
     style="color:#000000;display:inline;opacity:0.4;fill:#000000;stroke-width:0.264583;-inkscape-stroke:none;enable-background:new"
     id="path1222" />
</svg>
