<?xml version="1.0" encoding="UTF-8" standalone="no"?>
<!-- Created with Inkscape (http://www.inkscape.org/) -->

<svg
   width="24"
   height="24"
   viewBox="0 0 6.35 6.35"
   version="1.1"
   id="svg5"
   sodipodi:docname="preferences-system-network.svg"
   inkscape:version="1.1.2 (0a00cf5339, 2022-02-04, custom)"
   xmlns:inkscape="http://www.inkscape.org/namespaces/inkscape"
   xmlns:sodipodi="http://sodipodi.sourceforge.net/DTD/sodipodi-0.dtd"
   xmlns:xlink="http://www.w3.org/1999/xlink"
   xmlns="http://www.w3.org/2000/svg"
   xmlns:svg="http://www.w3.org/2000/svg">
  <sodipodi:namedview
     id="namedview7"
     pagecolor="#ffffff"
     bordercolor="#666666"
     borderopacity="1.0"
     inkscape:pageshadow="2"
     inkscape:pageopacity="0.0"
     inkscape:pagecheckerboard="0"
     inkscape:document-units="px"
     showgrid="false"
     units="px"
     height="48px"
     showguides="false"
     inkscape:zoom="16.375"
     inkscape:cx="9.2824427"
     inkscape:cy="15.816794"
     inkscape:window-width="1920"
     inkscape:window-height="1012"
     inkscape:window-x="0"
     inkscape:window-y="0"
     inkscape:window-maximized="1"
     inkscape:current-layer="svg5" />
  <defs
     id="defs2">
    <linearGradient
       inkscape:collect="always"
       id="linearGradient1103">
      <stop
         style="stop-color:#8c59d9;stop-opacity:1;"
         offset="0"
         id="stop1099" />
      <stop
         style="stop-color:#a7a7f1;stop-opacity:1"
         offset="1"
         id="stop1101" />
    </linearGradient>
    <linearGradient
       inkscape:collect="always"
       id="linearGradient1871">
      <stop
         style="stop-color:#ffffff;stop-opacity:1;"
         offset="0"
         id="stop1867" />
      <stop
         style="stop-color:#ffffff;stop-opacity:0.1"
         offset="0.12"
         id="stop2515" />
      <stop
         style="stop-color:#ffffff;stop-opacity:0.102"
         offset="0.89999998"
         id="stop2581" />
      <stop
         style="stop-color:#ffffff;stop-opacity:0.502"
         offset="1"
         id="stop1869" />
    </linearGradient>
    <linearGradient
       inkscape:collect="always"
       xlink:href="#linearGradient1871"
       id="linearGradient1198"
       x1="6.3499999"
       y1="0.52916658"
       x2="6.3499994"
       y2="12.170834"
       gradientUnits="userSpaceOnUse"
       gradientTransform="scale(1.8897639)" />
    <linearGradient
       inkscape:collect="always"
       xlink:href="#linearGradient1103"
       id="linearGradient1105"
       x1="1.1906248"
       y1="0.52916664"
       x2="5.1593747"
       y2="5.8208332"
       gradientUnits="userSpaceOnUse" />
  </defs>
  <circle
     style="fill:url(#linearGradient1105);fill-opacity:1;stroke-width:0.270463;stroke-linecap:round;stroke-linejoin:round"
     id="path986"
     cx="3.175"
     cy="3.175"
     r="3.0427084" />
  <path
     d="m 1.8155307,0.31829375 c -0.050958,0.0269351 -0.1011611,0.0553397 -0.1505506,0.08518 C 1.6296688,1.009396 1.6231733,1.605317 1.6620962,2.1783516 1.2951191,1.9452299 0.9410537,1.7035568 0.59466121,1.4604047 c -0.0262631,0.041676 -0.0515504,0.083987 -0.0758402,0.1268995 0.33694687,0.2366565 0.68172539,0.4724929 1.03912459,0.7005637 -0.493395,0.1883728 -0.9670521,0.424815 -1.42118293,0.719111 -0.001979,0.032231 -0.003471,0.064491 -0.004471,0.096769 5.9795e-4,0.027826 0.001558,0.055642 0.002884,0.083442 C 0.62550104,2.859741 1.1396129,2.6005022 1.6791777,2.400292 1.7126686,2.7785403 1.7636512,3.1475547 1.8393485,3.5018318 1.9218032,3.8876737 2.0350502,4.2551005 2.175528,4.6045357 1.9684625,4.6747985 1.7612964,4.7308452 1.5608745,4.7731573 1.2362043,4.8417082 0.94211997,4.8693096 0.67965331,4.8803559 c 0.0320692,0.048666 0.0654756,0.096394 0.10017919,0.1431264 0.2479701,-0.015028 0.5158581,-0.042677 0.8104716,-0.1048809 0.208788,-0.044082 0.425159,-0.102235 0.6418263,-0.1761543 0.2386435,0.5518415 0.557186,1.0499725 0.9729258,1.4752902 0.067426,-6.085e-4 0.1348139,-0.00351 0.2020516,-0.0087 C 2.9582158,5.7794021 2.6175119,5.2676186 2.3674012,4.6914355 2.9718683,4.4659205 3.5676835,4.1098549 4.0132682,3.5643899 4.6702551,3.8164743 5.3532505,4.0002909 6.0615401,4.0818355 6.0766346,4.0340928 6.0905995,3.9859838 6.1034236,3.9375503 4.5857207,3.7686614 3.1789841,3.113479 1.8954904,2.3231951 2.7118094,2.0455413 3.5848285,1.8910776 4.5052345,1.799373 4.3747579,2.337218 4.192497,2.8578915 3.9658549,3.3546203 l 0.1313048,0.062582 C 4.334647,2.8966874 4.523959,2.3490793 4.6574678,1.7825799 5.0593963,1.7458769 5.4731253,1.722575 5.8929926,1.7043505 5.8674947,1.6547525 5.8406958,1.6058679 5.8126227,1.5577502 5.4328663,1.5748688 5.0580311,1.5971281 4.69198,1.6296031 4.7709846,1.2626789 4.8247718,0.8874998 4.8504522,0.50605001 4.8039036,0.47498211 4.7565326,0.44522575 4.7083921,0.416814 4.6848442,0.8348292 4.6286626,1.2455683 4.5397282,1.6464121 3.5783382,1.7395216 2.664785,1.9000284 1.8094929,2.19574 1.7669743,1.5924635 1.7749886,0.96159107 1.8157106,0.31830962 Z m 0.0136,2.13875935 C 2.476645,2.855542 3.1538196,3.2238685 3.86666,3.5099095 3.4441733,4.0078818 2.8837859,4.3410451 2.3113334,4.5540876 2.1734484,4.2118226 2.0622017,3.8508516 1.9808159,3.469931 1.9111961,3.1441495 1.8622931,2.8052977 1.8291329,2.4570531 Z"
     style="color:#000000;font-variant-ligatures:normal;font-variant-position:normal;font-variant-caps:normal;font-variant-numeric:normal;font-variant-alternates:normal;font-feature-settings:normal;text-indent:0;text-decoration-line:none;text-decoration-style:solid;text-decoration-color:#000000;text-transform:none;text-orientation:mixed;dominant-baseline:auto;white-space:normal;shape-padding:0;opacity:0.5;isolation:auto;mix-blend-mode:normal;solid-color:#000000;fill:#ffffff;fill-rule:evenodd;stroke-width:0.264583;color-rendering:auto;image-rendering:auto;shape-rendering:auto"
     id="path1130" />
  <path
     id="ellipse24"
     d="M 4.6487208,1.4954251 A 0.34334979,0.35110208 0 0 0 4.3055896,1.8468249 0.34334979,0.35110208 0 0 0 4.6487208,2.1977078 0.34334979,0.35110208 0 0 0 4.9923693,1.8468249 0.34334979,0.35110208 0 0 0 4.6487208,1.4954251 Z M 1.6737088,1.9765327 A 0.34334979,0.35110208 0 0 0 1.3300605,2.3279324 0.34334979,0.35110208 0 0 0 1.6737088,2.6788154 0.34334979,0.35110208 0 0 0 2.0168403,2.3279324 0.34334979,0.35110208 0 0 0 1.6737088,1.9765327 Z m 2.2882323,1.157552 A 0.34334979,0.35110208 0 0 0 3.6188096,3.4854845 0.34334979,0.35110208 0 0 0 3.9619411,3.8363675 0.34334979,0.35110208 0 0 0 4.3055896,3.4854845 0.34334979,0.35110208 0 0 0 3.9619411,3.1340847 Z M 2.3599718,4.3045559 A 0.34334979,0.35110208 0 0 0 2.0163235,4.6554389 0.34334979,0.35110208 0 0 0 2.3599718,5.0068386 0.34334979,0.35110208 0 0 0 2.7031033,4.6554389 0.34334979,0.35110208 0 0 0 2.3599718,4.3045559 Z"
     style="fill:#ffffff;fill-opacity:1;stroke-width:0.264583" />
  <path
     id="path4344"
     style="opacity:0.4;fill:#000000;fill-opacity:1;stroke-width:1.6;stroke-linecap:round;stroke-linejoin:round"
     d="M 12,0 C 5.372583,1.2369363e-7 1.0909091e-7,5.372583 0,12 0,18.627416 5.372583,24 12,24 18.627417,24 24,18.627416 24,12 24,5.372583 18.627417,0 12,0 Z m 0,1 A 11,11 0 0 1 23,12 11,11 0 0 1 12,23 11,11 0 0 1 1,12 11,11 0 0 1 12,1 Z"
     transform="scale(0.26458333)" />
  <path
     id="path1110"
     style="fill:url(#linearGradient1198);fill-opacity:1;stroke-width:1;stroke-linecap:round;stroke-linejoin:round"
     d="m 12,1 c -6.0751324,-8e-8 -11.00000008,4.9248676 -11,11 2e-7,6.075132 4.9248676,11 11,11 6.075132,0 11,-4.924868 11,-11 C 23,5.9248676 18.075132,1.0000002 12,1 Z m 0,1 C 17.522848,2 22,6.4771525 22,12 22,17.522847 17.522847,22 12,22 6.4771525,22 2,17.522848 2,12 1.9999996,6.4771525 6.4771525,1.9999996 12,2 Z"
     transform="scale(0.26458333)" />
</svg>
