<svg version="1.1" viewBox="0 0 16 16" xmlns="http://www.w3.org/2000/svg">
 <path d="m3.994 1c-1.258 0.015-2.179-0.029-2.932 0.387a1.878 1.878 0 0 0-0.84 0.996c-0.164 0.438-0.222 0.96-0.222 1.617v8c0 0.658 0.058 1.179 0.223 1.617 0.164 0.439 0.463 0.79 0.84 0.998 0.526 0.29 1.188 0.342 1.937 0.36l1 0.025v-1l-1-0.04c-0.666-0.031-1.204-0.084-1.453-0.222-0.184-0.1-0.29-0.212-0.387-0.472s-0.16-0.674-0.16-1.266v-8c0-0.592 0.063-1.006 0.16-1.266 0.098-0.26 0.203-0.371 0.387-0.472 0.367-0.203 1.195-0.247 2.459-0.262h2.53l2.02 2h3.436c1.264 0.015 2.092 0.06 2.46 0.262 0.183 0.1 0.288 0.212 0.386 0.472s0.162 0.674 0.162 1.266v6h1v-6c0-0.658-0.06-1.179-0.225-1.617a1.88 1.88 0 0 0-0.837-0.998c-0.753-0.416-1.674-0.37-2.932-0.385h-3.039l-2.022-2h-2.949z" fill="#dfdfdf" overflow="visible" style="font-feature-settings:normal;font-variant-alternates:normal;font-variant-caps:normal;font-variant-ligatures:none;font-variant-numeric:normal;font-variant-position:normal;isolation:auto;mix-blend-mode:normal;shape-padding:0;text-decoration-color:#000000;text-decoration-line:none;text-decoration-style:solid;text-indent:0;text-transform:none;white-space:normal"/>
 <path d="m9 5c-2.755 0-5 2.245-5 5s2.245 5 5 5 5-2.245 5-5-2.245-5-5-5zm0 1.04a3.954 3.954 0 0 1 3.96 3.96 3.954 3.954 0 0 1-3.96 3.96 3.954 3.954 0 0 1-3.96-3.96 3.954 3.954 0 0 1 3.96-3.96z" fill="#dfdfdf" overflow="visible" style="font-feature-settings:normal;font-variant-alternates:normal;font-variant-caps:normal;font-variant-ligatures:normal;font-variant-numeric:normal;font-variant-position:normal;isolation:auto;mix-blend-mode:normal;shape-padding:0;text-decoration-color:#000000;text-decoration-line:none;text-decoration-style:solid;text-indent:0;text-orientation:mixed;text-transform:none;white-space:normal"/>
 <path d="m12.354 12.646-0.708 0.708 2.5 2.5 0.708-0.708z" fill="#dfdfdf" fill-rule="evenodd" overflow="visible" style="font-feature-settings:normal;font-variant-alternates:normal;font-variant-caps:normal;font-variant-ligatures:normal;font-variant-numeric:normal;font-variant-position:normal;isolation:auto;mix-blend-mode:normal;shape-padding:0;text-decoration-color:#000000;text-decoration-line:none;text-decoration-style:solid;text-indent:0;text-orientation:mixed;text-transform:none;white-space:normal"/>
</svg>
