<svg version="1.1" viewBox="0 0 16 16" xmlns="http://www.w3.org/2000/svg">
 <path d="m11 16-0.479-0.922a19.554 19.554 0 0 1-1.126-2.666 14.225 14.225 0 0 1-0.383-1.271l-0.012-0.057v-10.084s0-1 1-1h2s1 0 1 1v10.084l-0.012 0.057c-0.028 0.122-0.136 0.547-0.383 1.271a19.588 19.588 0 0 1-1.126 2.666zm-0.209-3.043h0.416c0.14-0.315 0.294-0.65 0.377-0.893 0.225-0.66 0.417-1.07 0.416-1.064h-2c-2e-3 -9e-3 0.189 0.403 0.414 1.064 0.083 0.244 0.238 0.578 0.377 0.893zm-0.791-9.957h2v-2h-2z" fill="#dfdfdf" font-family="Ubuntu" font-size="15px" letter-spacing="0" text-anchor="middle" word-spacing="0"/>
 <path d="m3 0v15h5v-15zm1 1h3v1h-1v1h1v1h-1v1h1v1h-1v1h1v1h-1v1h1v1h-1v1h1v1h-1v1h1v1h-3z" fill="#dfdfdf" font-family="sans-serif" overflow="visible" style="font-feature-settings:normal;font-variant-alternates:normal;font-variant-caps:normal;font-variant-ligatures:normal;font-variant-numeric:normal;font-variant-position:normal;isolation:auto;mix-blend-mode:normal;shape-padding:0;text-decoration-color:#000000;text-decoration-line:none;text-decoration-style:solid;text-indent:0;text-orientation:mixed;text-transform:none" white-space="normal"/>
</svg>
