<svg width="16" height="16" version="1.1" xmlns="http://www.w3.org/2000/svg">
<g fill="#dfdfdf">
<path d="m12.5 0a2.508 2.508 0 0 0-2.5 2.5c0 1.375 1.125 2.5 2.5 2.5s2.5-1.125 2.5-2.5-1.125-2.5-2.5-2.5zm0 1c0.834 0 1.5 0.666 1.5 1.5s-0.666 1.5-1.5 1.5-1.5-0.666-1.5-1.5 0.666-1.5 1.5-1.5z" style="font-feature-settings:normal;font-variant-alternates:normal;font-variant-caps:normal;font-variant-ligatures:normal;font-variant-numeric:normal;font-variant-position:normal;isolation:auto;mix-blend-mode:normal;shape-padding:0;text-decoration-color:#000;text-decoration-line:none;text-decoration-style:solid;text-indent:0;text-orientation:mixed;text-transform:none"/>
<path d="m12.5 10a2.508 2.508 0 0 0-2.5 2.5c0 1.375 1.125 2.5 2.5 2.5s2.5-1.125 2.5-2.5-1.125-2.5-2.5-2.5zm0 1c0.834 0 1.5 0.666 1.5 1.5s-0.666 1.5-1.5 1.5-1.5-0.666-1.5-1.5 0.666-1.5 1.5-1.5z" style="font-feature-settings:normal;font-variant-alternates:normal;font-variant-caps:normal;font-variant-ligatures:normal;font-variant-numeric:normal;font-variant-position:normal;isolation:auto;mix-blend-mode:normal;shape-padding:0;text-decoration-color:#000;text-decoration-line:none;text-decoration-style:solid;text-indent:0;text-orientation:mixed;text-transform:none"/>
<path d="m9.2402 3.7383-3.8535 2.1426a2.487 2.487 0 0 0-1.8867-0.88086 2.508 2.508 0 0 0-2.5 2.5c0 1.375 1.125 2.5 2.5 2.5 0.755 0 1.4267-0.34786 1.8867-0.88086l3.8535 2.1426c0.122-0.316 0.29014-0.60609 0.49414-0.87109l-3.8613-2.1445c0.075-0.236 0.12695-0.48509 0.12695-0.74609s-0.051953-0.50909-0.12695-0.74609l3.8613-2.1445a3.495 3.495 0 0 1-0.49414-0.87109zm-5.7402 2.2617c0.834 0 1.5 0.666 1.5 1.5s-0.666 1.5-1.5 1.5-1.5-0.666-1.5-1.5 0.666-1.5 1.5-1.5z" style="font-feature-settings:normal;font-variant-alternates:normal;font-variant-caps:normal;font-variant-ligatures:normal;font-variant-numeric:normal;font-variant-position:normal;isolation:auto;mix-blend-mode:normal;shape-padding:0;text-decoration-color:#000;text-decoration-line:none;text-decoration-style:solid;text-indent:0;text-orientation:mixed;text-transform:none"/>
</g>
</svg>
