<svg width="8" height="8" version="1.1" xmlns="http://www.w3.org/2000/svg">
 <rect transform="matrix(0,-1,-1,0,0,0)" x="-8" y="-8" width="8" height="8" rx="1" ry="1" enable-background="new" fill="#929ca2"/>
 <path d="m2.0378 5.9106c0 0.20775 0.0188 0.37555 0.075 0.52097 0.0566 0.14542 0.16091 0.26448 0.28844 0.3324 0.2543 0.13583 0.5502 0.11945 0.95399 0.12344h1.2895c0.40382-5e-3 0.70009 0.0123 0.95399-0.12344 0.12715-0.0679 0.23193-0.18698 0.28843-0.3324 0.0561-0.14542 0.075-0.31322 0.075-0.52097v-1.2433c0-0.20775-0.0188-0.37554-0.075-0.52097-0.0565-0.14542-0.1609-0.26368-0.28843-0.3316-0.22093-0.11827-0.48701-0.11866-0.81467-0.12025l-8.5e-4 -0.77746-0.19386-0.22452 0.19622-0.19976-0.19622-0.19975 0.19622-0.19976-0.19622-0.19975 0.39242-0.39953-0.98106-0.99879-0.78486 0.79904 5.5e-4 2.4003c-0.32767 0-0.59374 5e-3 -0.81467 0.11985a0.63063 0.64202 0 0 0-0.28825 0.3328c-0.0566 0.14502-0.0753 0.31242-0.0753 0.52017zm0.39243 0v-1.2433c0-0.18018 0.0204-0.30203 0.0483-0.37355 0.0274-0.0719 0.0525-0.0975 0.10521-0.12584 0.10522-0.0559 0.37047-0.0727 0.77623-0.0772h0.2484l-5.4e-4 -2.6312 0.39243-0.39951 0.42617 0.43388-0.39243 0.39951 0.19622 0.19975-0.19622 0.19976 0.19622 0.19975-0.17856 0.18178 0.33866 0.39312 2e-3 1.0232h0.24723c0.40616 5e-3 0.67145 0.0212 0.77702 0.0772 0.0522 0.028 0.077 0.0539 0.10474 0.12584 0.0274 0.0719 0.0483 0.19337 0.0483 0.37355v1.2433c0 0.18019-0.0204 0.30283-0.0483 0.37435-0.0279 0.0719-0.0525 0.0967-0.10521 0.12504-0.10474 0.0559-0.37007 0.0731-0.77389 0.0779h-1.2848c-0.40381-5e-3 -0.66908-0.0219-0.77427-0.0779-0.0525-0.028-0.077-0.0531-0.10473-0.12504-0.0279-0.0719-0.0483-0.19416-0.0483-0.37435zm1.1773-0.22173a0.39243 0.39952 0 0 0 0.39243 0.39951 0.39243 0.39952 0 0 0 0.39243-0.39951 0.39243 0.39952 0 0 0-0.39243-0.39952 0.39243 0.39952 0 0 0-0.39243 0.39952z" color="#000000" enable-background="new" fill="#fff" font-weight="400" overflow="visible" stroke="#fff" stroke-width=".5" style="font-feature-settings:normal;font-variant-alternates:normal;font-variant-caps:normal;font-variant-ligatures:normal;font-variant-numeric:normal;font-variant-position:normal;isolation:auto;mix-blend-mode:normal;shape-padding:0;text-decoration-color:#000000;text-decoration-line:none;text-decoration-style:solid;text-indent:0;text-orientation:mixed;text-transform:none;white-space:normal"/>
</svg>
