<svg width="8" height="8" version="1.1" xmlns="http://www.w3.org/2000/svg">
 <rect transform="matrix(0,-1,-1,0,0,0)" x="-8" y="-8" width="8" height="8" rx="1" ry="1" enable-background="new" fill="#f1f0e9"/>
 <path d="m4.2773 1.7247c-0.82215 7.7e-4 -1.5206 0.50686-1.8545 1.2308l-0.0229 0.0495-0.0529 4e-3c-0.75932 0.0544-1.3602 0.71211-1.3602 1.5107 0 0.8351 0.65346 1.5206 1.4615 1.5206h3.5358c0.60587 0 1.0956-0.51409 1.0956-1.1378a1.1264 1.1264 0 0 0-0.68735-1.0415l-0.0518-0.0221-4e-3 -0.0567c-0.0518-1.1397-0.94705-2.0563-2.0582-2.0571zm0 0.38081c0.90175 7.6e-4 1.634 0.74332 1.6771 1.6934v4e-3l0.0194 0.29512 0.26769 0.11311a0.74028 0.74028 0 0 1 0.45545 0.69115c4e-3 0.42422-0.32216 0.75705-0.71249 0.75705h-3.5361c-0.59253 0-1.0803-0.50306-1.0803-1.1394-7.6e-4 -0.60853 0.45087-1.0914 1.0068-1.1321l0.27533-0.0191 0.11804-0.25247v-1e-3c0.27724-0.60168 0.84272-1.0084 1.5084-1.0091z" color="#000000" enable-background="new" fill="#808080" font-weight="400" overflow="visible" stroke="#808080" stroke-width=".081168" style="text-decoration-line:none;text-indent:0;text-transform:none"/>
</svg>
