<?xml version="1.0" encoding="UTF-8" standalone="no"?>
<!-- Created with Inkscape (http://www.inkscape.org/) -->

<svg
   width="32"
   height="32"
   viewBox="0 0 8.4666666 8.4666669"
   version="1.1"
   id="svg1103"
   inkscape:version="1.1.2 (0a00cf5339, 2022-02-04)"
   sodipodi:docname="user-desktop.svg"
   xmlns:inkscape="http://www.inkscape.org/namespaces/inkscape"
   xmlns:sodipodi="http://sodipodi.sourceforge.net/DTD/sodipodi-0.dtd"
   xmlns:xlink="http://www.w3.org/1999/xlink"
   xmlns="http://www.w3.org/2000/svg"
   xmlns:svg="http://www.w3.org/2000/svg">
  <sodipodi:namedview
     id="namedview1105"
     pagecolor="#ffffff"
     bordercolor="#666666"
     borderopacity="1.0"
     inkscape:pageshadow="2"
     inkscape:pageopacity="0.0"
     inkscape:pagecheckerboard="0"
     inkscape:document-units="px"
     showgrid="false"
     units="px"
     inkscape:zoom="26.625"
     inkscape:cx="15.981221"
     inkscape:cy="16"
     inkscape:window-width="1846"
     inkscape:window-height="1011"
     inkscape:window-x="74"
     inkscape:window-y="32"
     inkscape:window-maximized="1"
     inkscape:current-layer="svg1103" />
  <defs
     id="defs1100">
    <linearGradient
       inkscape:collect="always"
       id="linearGradient2350">
      <stop
         style="stop-color:#673a2b;stop-opacity:1"
         offset="0"
         id="stop2346" />
      <stop
         style="stop-color:#ad6139;stop-opacity:1"
         offset="1"
         id="stop2348" />
    </linearGradient>
    <linearGradient
       inkscape:collect="always"
       xlink:href="#linearGradient2350"
       id="linearGradient1218"
       x1="0.39687499"
       y1="2.6459365"
       x2="8.069829"
       y2="6.8792701"
       gradientUnits="userSpaceOnUse" />
    <linearGradient
       inkscape:collect="always"
       id="linearGradient1871">
      <stop
         style="stop-color:#ffffff;stop-opacity:1;"
         offset="0"
         id="stop1867" />
      <stop
         style="stop-color:#ffffff;stop-opacity:0.1"
         offset="0.12"
         id="stop2515" />
      <stop
         style="stop-color:#ffffff;stop-opacity:0.102"
         offset="0.89999998"
         id="stop2581" />
      <stop
         style="stop-color:#ffffff;stop-opacity:0.502"
         offset="1"
         id="stop1869" />
    </linearGradient>
    <linearGradient
       inkscape:collect="always"
       xlink:href="#linearGradient1871"
       id="linearGradient3634"
       x1="2.1704102"
       y1="1.0583332"
       x2="2.1704102"
       y2="7.4083333"
       gradientUnits="userSpaceOnUse" />
  </defs>
  <path
     d="m 0.26463626,6.0341964 c 0,0.375973 0.008149,0.67437 0.0506439,0.927603 0.0425027,0.253214 0.12504209,0.474001 0.28887209,0.638201 0.16383,0.164201 0.38525979,0.247775 0.63873065,0.289904 0.2534575,0.04213 0.5521855,0.04939 0.9291373,0.04754 H 4.233389 6.2963188 c 0.3760523,0.0019 0.6745552,-0.0055 0.9275763,-0.04754 0.2534602,-0.04213 0.4749006,-0.12569 0.6387306,-0.289904 0.16383,-0.164213 0.2463668,-0.384995 0.2888721,-0.638201 0.042505,-0.253214 0.050644,-0.55163 0.050644,-0.927603 v -3.073135 c 0,-0.375973 -0.00812,-0.673815 -0.050644,-0.926571 C 8.108966,1.7817414 8.0260191,1.5614684 7.8620965,1.3978494 7.6981872,1.2342184 7.4774982,1.1514324 7.2243978,1.1089774 6.9713159,1.0665224 6.6730061,1.0583334 6.2962924,1.0583334 H 4.2333625 2.1704327 c -0.3767137,0 -0.6750315,0.0082 -0.9281055,0.05064 -0.25308185,0.04245 -0.47376288,0.125238 -0.63769871,0.288872 -0.16391202,0.163635 -0.24685625,0.383911 -0.28940125,0.636641 -0.0425344,0.252748 -0.0506439,0.550598 -0.0506439,0.926571 z"
     style="color:#000000;font-variant-ligatures:normal;font-variant-position:normal;font-variant-caps:normal;font-variant-numeric:normal;font-variant-alternates:normal;font-feature-settings:normal;text-indent:0;text-decoration-line:none;text-decoration-style:solid;text-decoration-color:#000000;text-transform:none;text-orientation:mixed;dominant-baseline:auto;white-space:normal;shape-padding:0;opacity:0.1;isolation:auto;mix-blend-mode:normal;solid-color:#000000;fill:#000000;stroke-width:0.264583;color-rendering:auto;image-rendering:auto;shape-rendering:auto"
     id="path2601"
     sodipodi:nodetypes="ccscccccsssscccscsccccc" />
  <path
     d="M 2.1704089,0.92628291 C 1.7961558,0.92443091 1.5029445,0.93263291 1.2645285,0.97227551 1.0259669,1.0119285 0.8361151,1.0861548 0.6981614,1.2244552 0.5601864,1.3627582 0.4860184,1.5528296 0.4459817,1.7913516 0.4297892,1.8877922 0.4214548,2.0007904 0.4139406,2.1169214 0.4028811,2.2879851 0.396875,2.4746382 0.396875,2.6972586 v 3.0731352 c 0,0.3736975 0.00905,0.6663532 0.049093,0.9043459 0.04005,0.2379927 0.114165,0.4275666 0.2521796,0.5653352 0.1380146,0.1377685 0.3274748,0.2116772 0.5658644,0.2516637 0.2383737,0.039986 0.5319713,0.049093 0.9064096,0.049093 H 4.233352 6.2962818 c 0.3744384,0 0.66802,-0.0091 0.9064096,-0.049093 C 7.4410625,7.4517521 7.6305227,7.3778567 7.7685558,7.2400749 7.9065704,7.1022931 7.9806855,6.9127324 8.0207355,6.6747397 8.0607855,6.436747 8.0698289,6.1440913 8.0698289,5.7703938 V 2.6972583 c 0,-0.2225992 -0.00651,-0.4092574 -0.017568,-0.5803369 C 8.0447464,2.000801 8.0369412,1.8877975 8.0207381,1.7913516 7.9807014,1.5528429 7.9065334,1.362753 7.7685585,1.2244552 7.6305835,1.0861574 7.4407397,1.0119285 7.2021914,0.97227551 6.9636324,0.93261971 6.6703524,0.92445201 6.2957818,0.92628291 H 4.2333811 Z"
     style="color:#000000;fill:url(#linearGradient1218);fill-opacity:1;stroke-width:0.264583"
     id="path891" />
  <path
     d="M 1.9495824,0.92613161 C 1.6328232,0.92639621 1.3805959,0.93473061 1.1743796,0.97393391 0.9642158,1.013886 0.7928769,1.0886916 0.6670675,1.2310269 0.5412158,1.3734124 0.4749509,1.567815 0.439637,1.8056225 0.427069,1.8902705 0.419,1.9843486 0.412565,2.0833821 0.400976,2.2622537 0.396875,2.4636942 0.396875,2.7002846 v 3.0657272 c 0,0.3675856 0.00749,0.6572779 0.042746,0.8952971 0.035306,0.2383102 0.1014068,0.4327261 0.2271474,0.5755481 0.1257697,0.1428618 0.2974975,0.218112 0.5078677,0.2577413 0.2100025,0.039558 0.4658784,0.047659 0.7908926,0.045863 L 2.116672,7.5406254 V 0.92604171 Z"
     style="opacity:0.3;fill:#000000;stroke-width:0.264583;enable-background:new"
     id="path4663" />
  <path
     style="color:#000000;opacity:0.3;fill:#000000;stroke-width:0.264583;-inkscape-stroke:none"
     d="m 2.1704102,0.79375001 c -0.376582,0 -0.6754717,0.00878 -0.9281088,0.05116 C 0.98898424,0.88740401 0.76926312,0.96943141 0.60513096,1.1332645 0.44093954,1.2971788 0.35831757,1.5174402 0.31574294,1.7704349 0.27328874,2.0227153 0.26458314,2.3206451 0.26458334,2.6964765 l 5.2916e-4,3.0731977 c 0,0.3758327 0.008199,0.6753326 0.0506428,0.9281086 0.0425527,0.2534968 0.12482963,0.4737785 0.2888713,0.6382039 0.16411152,0.1644954 0.38502829,0.2472176 0.6387206,0.289388 0.2528213,0.042027 0.5515734,0.049373 0.9281088,0.047542 h 2.0624066 2.0618895 c 0.3765275,0.00185 0.6758105,-0.00551 0.9286257,-0.047542 C 7.4780817,7.5832042 7.6984844,7.500496 7.8625816,7.3359863 8.0266045,7.1715609 8.1088878,6.9512932 8.1514405,6.6977824 8.1938725,6.4449907 8.2026003,6.1455083 8.2026003,5.7696738 V 2.6964761 c 0,-0.3758326 -0.00871,-0.6737653 -0.05116,-0.9260416 C 8.1088661,1.5174406 8.0262521,1.297171 7.8620524,1.1332641 7.6979383,0.96944231 7.4782222,0.88740381 7.2248821,0.84490961 6.9722618,0.80253341 6.6733562,0.79375001 6.2967734,0.79375001 H 4.2333335 Z m 0,0.26458319 h 2.0629233 2.0634399 c 0.3722929,0 0.6600569,0.00995 0.8841836,0.047542 0.2234388,0.037479 0.3826288,0.102742 0.4945436,0.2144573 0.1118293,0.1116298 0.1774486,0.2710356 0.2149739,0.4940267 0.037641,0.2237086 0.047542,0.5105551 0.047542,0.8821166 v 3.073198 c 0,0.3715597 -0.0099,0.6599317 -0.047542,0.8841835 C 7.852954,6.8773898 7.7868981,7.0367372 7.6749838,7.1489176 7.5631738,7.2610084 7.4043757,7.3272722 7.180957,7.3644083 6.9569409,7.4016566 6.6692681,7.4101741 6.2972902,7.4083334 H 6.296761 4.2338378 2.1709146 2.1703854 C 1.7980757,7.410159 1.5108741,7.4016685 1.2867183,7.3644083 1.0633145,7.3272727 0.90401282,7.2610174 0.79217477,7.1489176 0.68026686,7.0367478 0.6142049,6.8773773 0.57668407,6.6538573 0.5390373,6.4296431 0.52965862,6.1412353 0.52965862,5.7696738 L 0.52912945,2.6964761 c 0,-0.3715628 0.009895,-0.6584121 0.0475422,-0.8821166 C 0.61419696,1.5913692 0.67980808,1.4319817 0.7916456,1.3203328 0.90359267,1.2086027 1.0627776,1.1433548 1.2862024,1.1058755 1.5103439,1.068274 1.7980918,1.0583332 2.1703862,1.0583332 Z"
     id="path2933" />
  <path
     id="path3395"
     style="color:#000000;opacity:0.3;fill:url(#linearGradient3634);fill-opacity:1;stroke-width:0.264583"
     d="m 2.1704102,1.0583334 c -0.3722944,0 -0.6600423,0.00994 -0.8841838,0.047542 C 1.0628017,1.1433553 0.90363026,1.2086028 0.79168296,1.3203329 0.67984565,1.4319818 0.61423409,1.5913693 0.576709,1.8143596 0.53906731,2.0380641 0.52916668,2.3249135 0.52916668,2.6964763 l 5.1594e-4,3.0731976 c 0,0.3715616 0.009381,0.6599693 0.0470256,0.8841839 0.037521,0.2235197 0.10358282,0.3828901 0.21549072,0.49506 0.11183782,0.1120997 0.27113956,0.1783548 0.49454346,0.2154907 0.2241566,0.037265 0.5113581,0.045755 0.8836678,0.043925 h 5.159e-4 2.0629233 2.0629232 5.292e-4 c 0.3719539,0.00185 0.659651,-0.00668 0.8836671,-0.043925 0.2234186,-0.037136 0.3822168,-0.1034 0.4940265,-0.2154907 0.1119148,-0.1121804 0.1779704,-0.2715279 0.215491,-0.49506 0.037642,-0.2242522 0.047542,-0.5126244 0.047542,-0.8841839 V 2.6964763 c 0,-0.3715615 -0.0099,-0.6584081 -0.047542,-0.8821167 C 7.8529624,1.5913685 7.7873301,1.4319627 7.6755008,1.3203329 7.563586,1.2086176 7.404396,1.1433547 7.1809572,1.1058757 6.9568305,1.0682837 6.6690662,1.0583334 6.2967734,1.0583334 h -2.06344 z m 0,0.2645833 h 2.0629232 2.0629233 c 0.3676703,0 0.6465342,0.01082 0.8407754,0.043408 0.1942413,0.032583 0.2910695,0.081364 0.3513998,0.1415935 0.060333,0.06023 0.1084747,0.1566409 0.1410769,0.3503662 0.032599,0.1937253 0.043408,0.4718029 0.043408,0.8387084 v 3.0731979 c 0,0.3669056 -0.010769,0.6453394 -0.043408,0.839742 -0.032634,0.1944 -0.081176,0.2918727 -0.1415936,0.3524332 -0.060418,0.06056 -0.1565032,0.108853 -0.3503663,0.1410766 -0.19386,0.032224 -0.4728345,0.04211 -0.8402588,0.040308 H 6.296761 4.2333334 2.1698935 2.1693767 C 1.8019497,7.1456023 1.5229808,7.1356804 1.3291179,7.1034425 1.1352524,7.0712163 1.0391693,7.0229237 0.97875167,6.9623659 0.91833406,6.9018054 0.86979193,6.80433 0.83715822,6.6099327 0.80452716,6.4155327 0.79375002,6.1370963 0.79375002,5.7701907 V 2.696993 c 0,-0.3669055 0.0108222,-0.6449831 0.0434082,-0.8387084 0.032602,-0.1937253 0.0807438,-0.2901365 0.14107666,-0.3503662 0.0603303,-0.06023 0.15715852,-0.10901 0.35139972,-0.1415935 0.1942412,-0.032586 0.4731079,-0.043408 0.8407756,-0.043408 z" />
</svg>
