<svg width="32" height="32" version="1.1" xmlns="http://www.w3.org/2000/svg" xmlns:xlink="http://www.w3.org/1999/xlink">
 <defs>
  <linearGradient id="linearGradient924" x1="434.68" x2="52.965" y1="243.53" y2="401.43" gradientTransform="matrix(0 -.074663 .07509 0 -8.0932 34.455)" gradientUnits="userSpaceOnUse">
   <stop stop-color="#da1636" offset="0"/>
   <stop stop-color="#f22c42" offset="1"/>
  </linearGradient>
  <linearGradient id="linearGradient969" x1="336" x2="336" y1="134" y2="162" gradientTransform="translate(-320,-132)" gradientUnits="userSpaceOnUse">
   <stop stop-color="#fff" offset="0"/>
   <stop stop-color="#fff" stop-opacity=".098039" offset=".125"/>
   <stop stop-color="#fff" stop-opacity=".098039" offset=".925"/>
   <stop stop-color="#fff" stop-opacity=".49804" offset="1"/>
  </linearGradient>
 </defs>
 <path d="m10.193 2c-1.421 0-2.5488 0.0308-3.5059 0.19141-0.95703 0.16064-1.7915 0.4726-2.4121 1.0918s-0.93647 1.4561-1.0957 2.4141c-0.15924 0.95795-0.18666 2.087-0.17969 3.5117v7.791 7.7969c-7e-3 1.4213 0.0207 2.5495 0.17969 3.5058 0.15923 0.95796 0.47505 1.7949 1.0957 2.4141s1.4551 0.93115 2.4121 1.0918c0.95703 0.16065 2.0849 0.19141 3.5059 0.19141h11.615c1.421 0 2.5467-0.0307 3.502-0.19141 0.95527-0.16075 1.7878-0.47425 2.4062-1.0938 0.61845-0.6195 0.93134-1.4536 1.0918-2.4102 0.16046-0.95653 0.19141-2.084 0.19141-3.5078v-7.7969-8l-7-7z" color="#000000" color-rendering="auto" dominant-baseline="auto" image-rendering="auto" opacity=".1" shape-rendering="auto" solid-color="#000000" style="font-feature-settings:normal;font-variant-alternates:normal;font-variant-caps:normal;font-variant-ligatures:normal;font-variant-numeric:normal;font-variant-position:normal;isolation:auto;mix-blend-mode:normal;shape-padding:0;text-decoration-color:#000000;text-decoration-line:none;text-decoration-style:solid;text-indent:0;text-orientation:mixed;text-transform:none;white-space:normal"/>
 <path d="m9.951 1.5c-5.8494 0-6.4787 0.59738-6.45 6.4251v8.0749 8.0749c-0.0288 5.8277 0.6007 6.4251 6.45 6.4251h12.099c5.8494 0 6.4501-0.5973 6.4501-6.4251v-8.0749l2e-5 -8.2857-6.25-6.2143z" color="#000000" fill="url(#linearGradient924)"/>
 <g transform="matrix(.125 0 0 .125 -2.9998 -1.5)" enable-background="new" stroke-width="8">
  <rect x="24" y="28" width="256" height="256" enable-background="accumulate" fill="none"/>
  <path d="m128.95 166.7c3.9862-7.8131 8.5164-16.616 12.142-25.454l1.4337-3.4888c-4.7362-18.023-7.5761-32.489-5.039-41.844 0.683-2.4388 3.5077-3.9185 6.5276-3.9185l1.8402 0.02708h0.33776c4.1344-0.06342 6.0811 5.1958 6.302 7.2405 0.36484 3.4054-1.2107 9.1687-1.2107 9.1687 0-2.3273 0.0912-6.0879-1.3778-9.333-1.7098-3.7549-3.3431-5.9981-4.8074-6.3537-0.7393 0.49382-1.4579 1.5164-1.7041 3.4834-0.50985 2.758-0.6627 6.2393-0.6627 8.034 0 6.3405 1.2484 14.709 3.7018 23.337 0.46282-1.3357 0.87006-2.6191 1.1939-3.8216 0.50308-1.8951 3.7015-14.457 3.7015-14.457s-0.80593 16.722-1.9318 21.782c-0.24121 1.0692-0.50735 2.1267-0.78455 3.2091 4.0457 11.304 10.565 21.393 18.341 28.654 3.0662 2.8656 6.9387 5.1762 10.604 7.2822 8.004-1.1437 15.374-1.6838 21.522-1.6158 8.1569 0.1076 14.144 1.314 16.569 3.7022 1.1872 1.1608 1.6689 2.5628 1.8185 4.1344 0.0356 0.6114-0.26223 2.048-0.34952 2.4085 0.0873-0.43646 0.0873-2.5827-6.4606-4.6727-5.1569-1.6486-14.808-1.5972-26.39-0.36449 13.395 6.5536 26.446 9.8097 30.581 7.8576 1.0112-0.49275 2.2375-2.173 2.2375-2.173s-0.72897 3.3121-1.2524 4.1401c-0.66804 0.89963-1.9785 1.8741-3.2208 2.2026-6.5315 1.7426-23.533-2.2899-38.355-10.759-16.56 2.4388-34.746 6.9441-49.323 11.725-14.325 25.105-25.095 36.635-33.857 32.249l-3.2212-1.6197c-1.3094-0.74892-1.5092-2.572-1.2064-4.0567 1.0215-4.9977 7.2882-12.525 19.876-20.042 1.355-0.81983 7.3905-4.0111 7.3905-4.0111s-4.4682 4.3246-5.515 5.1733c-10.047 8.2335-17.463 18.592-17.278 22.608l0.03634 0.35023c8.5349-1.2164 21.334-18.588 37.789-50.785m5.2146 2.67c-2.7484 5.1762-5.4348 9.9754-7.915 14.382 13.719-5.748 28.485-9.4263 42.541-12.039-1.889-1.3044-3.7229-2.6857-5.4484-4.1458-7.7404-6.5532-13.642-14.729-17.919-23.332-2.7128 7.3086-5.9386 15.075-11.259 25.135" fill="#fff" stroke-width="3.1345"/>
 </g>
 <path d="m4 16v7.7969c-0.0276 5.6267 0.57798 6.2031 6.1934 6.2031h11.615c5.6154 0 6.1914-0.57631 6.1914-6.2031v-7.7969z" color="#000000" fill="#fff" opacity=".1"/>
 <path d="m16 2v28h5.8086c5.6154 0 6.1914-0.57631 6.1914-6.2031v-7.7969-8l-6-6z" color="#000000" fill="#fff" opacity=".1"/>
 <path d="m10.193 1c-1.421 0-2.5488 0.0308-3.5059 0.19141-0.95703 0.16064-1.7915 0.4726-2.4121 1.0918s-0.93647 1.4561-1.0957 2.4141c-0.15924 0.95795-0.18666 2.087-0.17969 3.5117v7.791 7.7969c-7e-3 1.4213 0.0207 2.5495 0.17969 3.5058 0.15923 0.95796 0.47505 1.7949 1.0957 2.4141s1.4551 0.93115 2.4121 1.0918c0.95703 0.16065 2.0849 0.19141 3.5059 0.19141h11.615c1.421 0 2.5467-0.0307 3.502-0.19141 0.95527-0.16075 1.7878-0.47425 2.4062-1.0938 0.61845-0.6195 0.93134-1.4536 1.0918-2.4102 0.16046-0.95653 0.19141-2.084 0.19141-3.5078v-7.7969-8.2109l-6.7773-6.7891zm0 1h11.615l6.1914 6.2031v7.7969 7.7969c0 5.6268-0.57601 6.2031-6.1914 6.2031h-11.615c-5.6154 0-6.221-0.57639-6.1934-6.2031v-7.7969-7.7969c-0.02752-5.6267 0.57798-6.2031 6.1934-6.2031z" color="#000000" color-rendering="auto" dominant-baseline="auto" image-rendering="auto" opacity=".4" shape-rendering="auto" solid-color="#000000" style="font-feature-settings:normal;font-variant-alternates:normal;font-variant-caps:normal;font-variant-ligatures:normal;font-variant-numeric:normal;font-variant-position:normal;isolation:auto;mix-blend-mode:normal;shape-padding:0;text-decoration-color:#000000;text-decoration-line:none;text-decoration-style:solid;text-indent:0;text-orientation:mixed;text-transform:none;white-space:normal"/>
 <path d="m10.193 2c-5.6154 0-6.2209 0.57638-6.1934 6.2031v7.7969 7.7969c-0.0276 5.6267 0.57798 6.2031 6.1934 6.2031h11.615c5.6154 0 6.1914-0.57631 6.1914-6.2031v-7.7969-7.7969l-6.1914-6.2031zm0 1h11.615l5.1914 5.2031v7.7969 7.7969c0 1.3896-0.0409 2.4436-0.16406 3.1777-0.12315 0.73414-0.30557 1.1001-0.53321 1.3281-0.22764 0.22803-0.59203 0.40999-1.3242 0.53321-0.73219 0.12321-1.7832 0.16406-3.1699 0.16406h-11.615c-1.3867 0-2.441-0.0407-3.1758-0.16406-0.73474-0.12334-1.1012-0.30681-1.3301-0.53516s-0.41141-0.59346-0.5332-1.3262-0.16111-1.7851-0.1543-3.1738v-2e-3 -7.7988-7.7988-2e-3c-7e-3 -1.3887 0.0325-2.4431 0.1543-3.1758 0.12179-0.73272 0.30431-1.0959 0.5332-1.3242s0.59535-0.41182 1.3301-0.53516c0.73473-0.12323 1.789-0.16401 3.1758-0.16401z" color="#000000" color-rendering="auto" dominant-baseline="auto" fill="url(#linearGradient969)" image-rendering="auto" opacity=".4" shape-rendering="auto" solid-color="#000000" style="font-feature-settings:normal;font-variant-alternates:normal;font-variant-caps:normal;font-variant-ligatures:normal;font-variant-numeric:normal;font-variant-position:normal;isolation:auto;mix-blend-mode:normal;shape-padding:0;text-decoration-color:#000000;text-decoration-line:none;text-decoration-style:solid;text-indent:0;text-orientation:mixed;text-transform:none;white-space:normal"/>
 <path d="m28 9v-1l-6-6h-1v2.6785 0.10263 0.0551c0 3.6222 0.48488 4.1807 4.1154 4.1629z" color="#000000" fill="#830e21" opacity=".6"/>
 <path d="m28 7.9992-6-5.9992v2.2254 0.0968 0.0519c0 3.4152 0.15739 3.6419 3.5804 3.6251z" color="#000000" fill="#f66f7e"/>
</svg>
