<svg width="32" height="32" enable-background="new" version="1.0" xmlns="http://www.w3.org/2000/svg" xmlns:xlink="http://www.w3.org/1999/xlink">
 <title>Suru Icon Theme Template</title>
 <defs>
  <linearGradient id="linearGradient924" x1="459.03" x2="35.31" y1="419.23" y2="207.37" gradientTransform="matrix(-.072088 0 0 -.072086 353.82 172.13)" gradientUnits="userSpaceOnUse">
   <stop stop-color="#f2f2f2" offset="0"/>
   <stop stop-color="#f9f9f9" offset="1"/>
  </linearGradient>
  <linearGradient id="linearGradient49870" x1="583.14" x2="209.89" y1="280.02" y2="283.03" gradientTransform="matrix(0 -.054322 .077976 0 314.32 162.41)" gradientUnits="userSpaceOnUse">
   <stop stop-color="#ff10ff" stop-opacity=".98824" offset="0"/>
   <stop stop-color="#ff0bff" stop-opacity=".009524" offset="1"/>
  </linearGradient>
  <linearGradient id="linearGradient49872" x1="262.92" x2="11.23" y1="308.5" y2="95.475" gradientTransform="matrix(0 -.054322 .077976 0 314.32 162.41)" gradientUnits="userSpaceOnUse">
   <stop stop-color="#2ffffe" stop-opacity="0" offset="0"/>
   <stop stop-color="#14ffff" stop-opacity=".88628" offset="1"/>
  </linearGradient>
  <linearGradient id="linearGradient49874" x1="274.73" x2="8.4512" y1="293.91" y2="462.25" gradientTransform="matrix(0 -.054322 .077976 0 314.32 162.41)" gradientUnits="userSpaceOnUse">
   <stop stop-color="#fff755" stop-opacity="0" offset="0"/>
   <stop stop-color="#fffa3b" stop-opacity=".99216" offset="1"/>
  </linearGradient>
  <linearGradient id="linearGradient48705" x1="178.17" x2="-13.929" y1="137.54" y2="128.92" gradientTransform="matrix(.055484 0 0 .055484 333.08 145.8)" gradientUnits="userSpaceOnUse">
   <stop stop-color="#5995e8" offset="0"/>
   <stop stop-color="#63a0e6" stop-opacity=".01" offset="1"/>
  </linearGradient>
  <linearGradient id="linearGradient969" x1="336" x2="336" y1="136" y2="160" gradientTransform="rotate(90 336 148)" gradientUnits="userSpaceOnUse">
   <stop stop-color="#fff" offset="0"/>
   <stop stop-color="#fff" stop-opacity=".098039" offset=".125"/>
   <stop stop-color="#fff" stop-opacity=".098039" offset=".925"/>
   <stop stop-color="#fff" stop-opacity=".49804" offset="1"/>
  </linearGradient>
  <clipPath id="clipPath959-2">
   <path d="m330.19 134c-5.6154 0-6.2196 0.57678-6.1921 6.2035v7.7965 7.7965c-0.0276 5.6267 0.57668 6.2035 6.1921 6.2035h11.615c5.6154 0 6.1921-0.5767 6.1921-6.2035v-7.7965-7.7965c0-5.6268-0.5767-6.2035-6.1921-6.2035z" color="#000000" enable-background="accumulate" fill="#46a926"/>
  </clipPath>
 </defs>
 <g transform="translate(-273.52 -138.34)">
  <g transform="translate(-46.476 6.3406)" enable-background="new">
   <rect x="320" y="132" width="32" height="32" enable-background="accumulate" opacity="0" stroke-width="2"/>
   <path d="m321 155.81c0 1.421 0.0308 2.5488 0.19141 3.5059 0.16064 0.95703 0.4726 1.7915 1.0918 2.4121s1.4561 0.93647 2.4141 1.0957c0.95795 0.15924 2.087 0.18666 3.5117 0.17969h7.791 7.7969c1.4213 7e-3 2.5495-0.0207 3.5058-0.17969 0.95796-0.15923 1.7949-0.47505 2.4141-1.0957s0.93115-1.4551 1.0918-2.4121c0.16065-0.95703 0.19141-2.0849 0.19141-3.5059v-11.615c0-1.421-0.0307-2.5467-0.19141-3.502-0.16075-0.95527-0.47425-1.7878-1.0938-2.4062-0.6195-0.61845-1.4536-0.93134-2.4102-1.0918-0.95653-0.16046-2.084-0.19141-3.5078-0.19141h-7.7969-7.7969c-1.4238 0-2.5513 0.031-3.5078 0.19141-0.95653 0.16045-1.7906 0.47334-2.4102 1.0918-0.61951 0.61846-0.933 1.451-1.0938 2.4062-0.16076 0.95527-0.19141 2.081-0.19141 3.502z" color="#000000" color-rendering="auto" dominant-baseline="auto" enable-background="accumulate" image-rendering="auto" opacity=".1" shape-rendering="auto" solid-color="#000000" style="font-feature-settings:normal;font-variant-alternates:normal;font-variant-caps:normal;font-variant-ligatures:normal;font-variant-numeric:normal;font-variant-position:normal;isolation:auto;mix-blend-mode:normal;shape-padding:0;text-decoration-color:#000000;text-decoration-line:none;text-decoration-style:solid;text-indent:0;text-orientation:mixed;text-transform:none;white-space:normal"/>
   <path d="m321.5 154.81c0 1.4124 0.0342 2.5224 0.18555 3.4238 0.15132 0.90145 0.43164 1.6199 0.95312 2.1426 0.52148 0.5227 1.239 0.80325 2.1406 0.95312 0.90164 0.14988 2.0101 0.18075 3.4258 0.17383h7.7949 7.7969c1.4145 7e-3 2.5227-0.024 3.4238-0.17383 0.90165-0.14987 1.6192-0.43041 2.1406-0.95312 0.52148-0.52272 0.8018-1.2411 0.95312-2.1426s0.18555-2.0114 0.18555-3.4238v-11.615c0-1.4124-0.0342-2.5185-0.18555-3.418-0.15137-0.8995-0.43149-1.616-0.95312-2.1367s-1.2377-0.80004-2.1387-0.95117c-0.90094-0.15113-2.0106-0.18555-3.4258-0.18555h-7.7969-7.7969c-1.4152 0-2.5248 0.0344-3.4258 0.18555-0.90093 0.15113-1.617 0.43042-2.1387 0.95117-0.52163 0.52075-0.80175 1.2372-0.95312 2.1367s-0.18555 2.0056-0.18555 3.418z" color="#000000" enable-background="accumulate" fill="url(#linearGradient924)"/>
   <path d="m328.28 136.49c-1.4041-7e-3 -2.51 0.0232-3.4173 0.17278-0.90885 0.14977-1.6505 0.43414-2.1939 0.97407-0.54326 0.53984-0.82801 1.2741-0.98052 2.1748-0.15232 0.89957-0.18628 1.995-0.18628 3.3842v11.586c0 1.3892 0.0338 2.484 0.18628 3.3817 0.15255 0.89872 0.43677 1.6329 0.98052 2.171 0.54355 0.53794 1.2859 0.82181 2.1939 0.97282 0.90148 0.14991 1.8654 0.18154 3.4148 0.18154h7.7245 7.7245c1.404 0 2.5089-0.0307 3.4161-0.18154 0.90799-0.15101 1.6491-0.43488 2.1926-0.97282 0.54374-0.53813 0.82921-1.2723 0.98177-2.171 0.15238-0.8977 0.18503-1.9925 0.18503-3.3817v-11.586c0-1.3892-0.0327-2.4847-0.18503-3.3842-0.15251-0.90068-0.43725-1.6349-0.98051-2.1748-0.54335-0.53993-1.2863-0.8243-2.1951-0.97407-0.90729-0.14951-2.012-0.17956-3.4161-0.17278h-7.7233z" color="#000000" enable-background="accumulate" fill="url(#linearGradient49870)"/>
   <path d="m328.28 136.49c-1.4041-7e-3 -2.51 0.0232-3.4173 0.17278-0.90885 0.14977-1.6505 0.43414-2.1939 0.97407-0.54326 0.53984-0.82801 1.2741-0.98052 2.1748-0.15232 0.89957-0.18628 1.995-0.18628 3.3842v11.586c0 1.3892 0.0338 2.484 0.18628 3.3817 0.15255 0.89872 0.43677 1.6329 0.98052 2.171 0.54355 0.53794 1.2859 0.82181 2.1939 0.97282 0.90148 0.14991 1.8654 0.18154 3.4148 0.18154h7.7245 7.7245c1.404 0 2.5089-0.0307 3.4161-0.18154 0.90799-0.15101 1.6491-0.43488 2.1926-0.97282 0.54374-0.53813 0.82921-1.2723 0.98177-2.171 0.15238-0.8977 0.18503-1.9925 0.18503-3.3817v-11.586c0-1.3892-0.0327-2.4847-0.18503-3.3842-0.15251-0.90068-0.43725-1.6349-0.98051-2.1748-0.54335-0.53993-1.2863-0.8243-2.1951-0.97407-0.90729-0.14951-2.012-0.17956-3.4161-0.17278h-7.7233z" color="#000000" enable-background="accumulate" fill="url(#linearGradient49872)"/>
   <path d="m328.28 136.49c-1.4041-7e-3 -2.51 0.0232-3.4173 0.17278-0.90885 0.14977-1.6505 0.43414-2.1939 0.97407-0.54326 0.53984-0.82801 1.2741-0.98052 2.1748-0.15232 0.89957-0.18628 1.995-0.18628 3.3842v11.586c0 1.3892 0.0338 2.484 0.18628 3.3817 0.15255 0.89872 0.43677 1.6329 0.98052 2.171 0.54355 0.53794 1.2859 0.82181 2.1939 0.97282 0.90148 0.14991 1.8654 0.18154 3.4148 0.18154h7.7245 7.7245c1.404 0 2.5089-0.0307 3.4161-0.18154 0.90799-0.15101 1.6491-0.43488 2.1926-0.97282 0.54374-0.53813 0.82921-1.2723 0.98177-2.171 0.15238-0.8977 0.18503-1.9925 0.18503-3.3817v-11.586c0-1.3892-0.0327-2.4847-0.18503-3.3842-0.15251-0.90068-0.43725-1.6349-0.98051-2.1748-0.54335-0.53993-1.2863-0.8243-2.1951-0.97407-0.90729-0.14951-2.012-0.17956-3.4161-0.17278h-7.7233z" color="#000000" enable-background="accumulate" fill="url(#linearGradient49874)"/>
   <path d="m331.83 150.64c0.95789 2.0122 3.6685 3.133 5.3424 3.1895 0.82453-2e-3 1.7076-0.21464 2.4453-0.53158 0.73766-0.31695 1.4823-1.2482 2.2592-1.1163 0.77692 0.1319 0.92806 1.1314 1.0897 1.7542s-0.0429 1.0934-0.18605 1.4353c-0.14312 0.34184-0.1344 0.35396-0.47843 0.61131-0.34402 0.25735-1.1566 0.51437-1.6745 0.66448-3.3234 0.83428-6.7655-0.94548-8.3458-3.8274-0.35646-0.66344-0.63635-1.4622-0.69105-1.8871-0.0547-0.42488-0.0895-0.52053 0.0532-0.55815 0.14265-0.0376 0.19935 0.15947 0.18606 0.26579z" enable-background="new" fill="url(#linearGradient48705)" stroke-width=".055484"/>
   <path d="m339.77 149.38c0.10632 0.0531 2.0732 2.02 2.0732 2.02l0.18606 0.23921s-0.79737 1.1695-0.93027 1.0632c-0.13289-0.10631-2.6313-1.8871-2.6313-1.8871-0.36182-0.72271 0.62221-1.7646 1.3024-1.4353z" enable-background="new" opacity=".2" stroke-width=".055484"/>
   <path d="m328.85 141.33c1.1917 0.70814 3.359 2.0598 3.359 2.0598s2.2287 1.348 2.9316 1.7903c0.70285 0.44231 0.80026 0.48096 1.3891 0.83707 0.58885 0.35611 1.302 0.92067 1.302 0.92067s0.72244 0.63633 0.94376 0.89907c0.22132 0.26275 0.41194 0.5113 0.55149 0.78128 0.13954 0.26998 0.31715 0.80546 0.31715 0.80546l-0.90902 1.5706s-0.32648 0.0917-0.7366 0.0354-1.0081-0.34597-1.4262-0.57053c-0.4181-0.22455-0.61734-0.35154-1.0785-0.73926-0.46114-0.38772-0.91097-0.87412-1.6471-1.6255-0.33991-0.34696-0.93509-1.0286-1.5123-1.6444-0.67276-0.71769-1.3094-1.3517-1.3094-1.3517s-1.8581-1.9121-2.775-2.9575c-0.33432-0.50811 0.13708-0.97874 0.6-0.81086z" enable-background="new" fill="#180000" opacity=".2" stroke-width=".055484"/>
   <path d="m329 141.18c1.1917 0.70814 3.359 2.0598 3.359 2.0598s2.2287 1.348 2.9316 1.7903c0.70286 0.44231 0.80026 0.48096 1.3891 0.83707 0.58885 0.35611 1.302 0.92067 1.302 0.92067s0.72244 0.63633 0.94376 0.89907 0.41194 0.5113 0.55149 0.78128c0.13954 0.26998 0.31715 0.80546 0.31715 0.80546l-0.90902 1.5706s-0.32648 0.0917-0.7366 0.0354-1.0081-0.34597-1.4262-0.57053c-0.4181-0.22455-0.61734-0.35154-1.0785-0.73926-0.46114-0.38772-0.91097-0.87412-1.6471-1.6255-0.33991-0.34696-0.93509-1.0286-1.5123-1.6444-0.67276-0.71769-1.3094-1.3517-1.3094-1.3517s-1.8581-1.9121-2.775-2.9575c-0.33432-0.50811 0.13709-0.97874 0.6-0.81086z" enable-background="new" fill="#494949" stroke-width=".055484"/>
   <path d="m339.8 149.28c0.10632 0.0532 2.0732 2.02 2.0732 2.02l0.18605 0.23921s-0.79737 1.1695-0.93027 1.0632c-0.13289-0.10632-2.6313-1.8871-2.6313-1.8871-0.36182-0.72271 0.62221-1.7646 1.3024-1.4353z" enable-background="new" fill="#bfbebf" stroke-width=".055484"/>
   <path d="m342.14 155.89c0.21791-0.42715 0.13423-0.89727-0.26182-1.4708-0.73794-1.0686-0.88666-1.3662-0.91276-1.8264-0.0257-0.45366 0.33108-1.0173 0.79327-1.2531 0.92028-0.46949 2.0992 0.63605 2.0992 1.9685 0 0.98888-0.52893 1.8912-1.5588 2.659-0.26898 0.20056-0.29455 0.18813-0.15913-0.0773z" enable-background="new" stroke-width=".055484"/>
   <path d="m336 137h7.7969c5.6267-0.0276 6.2031 0.57798 6.2031 6.1934v11.615c0 5.6154-0.57631 6.1914-6.2031 6.1914h-7.7969z" color="#000000" enable-background="accumulate" fill="#fff" opacity=".1"/>
   <path d="m322 149h28v5.8086c0 5.6154-0.57631 6.1914-6.2031 6.1914h-7.7969-7.7969c-5.6268 0-6.2031-0.57603-6.2031-6.1914z" color="#000000" enable-background="accumulate" fill="#fff" opacity=".1"/>
   <path d="m321.5 154.81c0 1.4124 0.0342 2.5224 0.18555 3.4238 0.15132 0.90145 0.43164 1.6199 0.95312 2.1426 0.52148 0.5227 1.239 0.80325 2.1406 0.95312 0.90164 0.14988 2.0101 0.18075 3.4258 0.17383h7.7949 7.7969c1.4145 7e-3 2.5227-0.024 3.4238-0.17383 0.90165-0.14987 1.6192-0.43041 2.1406-0.95312 0.52148-0.52272 0.8018-1.2411 0.95312-2.1426s0.18555-2.0114 0.18555-3.4238v-11.615c0-1.4124-0.0342-2.5185-0.18555-3.418-0.15137-0.8995-0.43149-1.616-0.95312-2.1367s-1.2377-0.80004-2.1387-0.95117c-0.90094-0.15113-2.0106-0.18555-3.4258-0.18555h-7.7969-7.7969c-1.4152 0-2.5248 0.0344-3.4258 0.18555-0.90093 0.15113-1.617 0.43042-2.1387 0.95117-0.52163 0.52075-0.80175 1.2372-0.95312 2.1367s-0.18555 2.0056-0.18555 3.418z" color="#000000" enable-background="accumulate" fill="none" opacity=".3" stroke="#000"/>
   <path transform="rotate(-90 336.5 148.5)" d="m330.19 134c-5.6154 0-6.2196 0.57678-6.1921 6.2035v7.7965 7.7965c-0.0276 5.6267 0.57668 6.2035 6.1921 6.2035h11.615c5.6154 0 6.1921-0.5767 6.1921-6.2035v-7.7965-7.7965c0-5.6268-0.5767-6.2035-6.1921-6.2035z" clip-path="url(#clipPath959-2)" color="#000000" enable-background="accumulate" fill="none" opacity=".4" stroke="url(#linearGradient969)" stroke-width="2"/>
  </g>
 </g>
</svg>
