<svg xmlns:dc="http://purl.org/dc/elements/1.1/" xmlns:cc="http://creativecommons.org/ns#" xmlns:rdf="http://www.w3.org/1999/02/22-rdf-syntax-ns#" xmlns:svg="http://www.w3.org/2000/svg" xmlns="http://www.w3.org/2000/svg" xmlns:xlink="http://www.w3.org/1999/xlink" style="display:inline;enable-background:new" version="1.0" id="svg11300" height="32" width="32">
  <title id="title3004">Suru Icon Theme Template</title>
  <defs id="defs3">
    <linearGradient y2="207.36522" x2="35.310345" y1="419.23337" x1="459.03448" gradientTransform="matrix(0,-0.07208805,0.07208601,0,312.87045,165.81816)" gradientUnits="userSpaceOnUse" id="linearGradient924" xlink:href="#linearGradient4338"/>
    <linearGradient id="linearGradient4338">
      <stop id="stop4340" offset="0" style="stop-color:#f2f2f2;stop-opacity:1"/>
      <stop id="stop4342" offset="1" style="stop-color:#f9f9f9;stop-opacity:1"/>
    </linearGradient>
    <linearGradient gradientUnits="userSpaceOnUse" y2="162" x2="336" y1="134" x1="336" id="linearGradient969" xlink:href="#linearGradient927"/>
    <linearGradient id="linearGradient927">
      <stop id="stop923" offset="0" style="stop-color:#ffffff;stop-opacity:1;"/>
      <stop style="stop-color:#ffffff;stop-opacity:0.09803922" offset="0.125" id="stop933"/>
      <stop style="stop-color:#ffffff;stop-opacity:0.09803922" offset="0.92500001" id="stop931"/>
      <stop id="stop925" offset="1" style="stop-color:#ffffff;stop-opacity:0.49803922"/>
    </linearGradient>
  </defs>
  <metadata id="metadata4">
    <rdf:RDF>
      <cc:Work rdf:about="">
        <dc:format>image/svg+xml</dc:format>
        <dc:type rdf:resource="http://purl.org/dc/dcmitype/StillImage"/>
        <dc:creator>
          <cc:Agent>
            <dc:title>Sam Hewitt</dc:title>
          </cc:Agent>
        </dc:creator>
        <dc:source/>
        <cc:license rdf:resource="http://creativecommons.org/licenses/by-sa/4.0/"/>
        <dc:title>Suru Icon Theme Template</dc:title>
        <dc:subject>
          <rdf:Bag/>
        </dc:subject>
        <dc:date/>
        <dc:rights>
          <cc:Agent>
            <dc:title/>
          </cc:Agent>
        </dc:rights>
        <dc:publisher>
          <cc:Agent>
            <dc:title/>
          </cc:Agent>
        </dc:publisher>
        <dc:identifier/>
        <dc:relation/>
        <dc:language/>
        <dc:coverage/>
        <dc:description/>
        <dc:contributor>
          <cc:Agent>
            <dc:title/>
          </cc:Agent>
        </dc:contributor>
      </cc:Work>
      <cc:Work rdf:about="">
        <dc:format>image/svg+xml</dc:format>
        <dc:type rdf:resource="http://purl.org/dc/dcmitype/StillImage"/>
      </cc:Work>
      <cc:License rdf:about="http://creativecommons.org/licenses/by-sa/4.0/">
        <cc:permits rdf:resource="http://creativecommons.org/ns#Reproduction"/>
        <cc:permits rdf:resource="http://creativecommons.org/ns#Distribution"/>
        <cc:requires rdf:resource="http://creativecommons.org/ns#Notice"/>
        <cc:requires rdf:resource="http://creativecommons.org/ns#Attribution"/>
        <cc:permits rdf:resource="http://creativecommons.org/ns#DerivativeWorks"/>
        <cc:requires rdf:resource="http://creativecommons.org/ns#ShareAlike"/>
      </cc:License>
    </rdf:RDF>
  </metadata>
  <g transform="translate(-27.84062,-113.58727)" id="layer1" style="display:inline">
    <g id="layer7" style="display:inline"/>
    <g style="display:inline" id="layer4"/>
    <g style="display:inline" id="layer2"/>
    <g style="display:inline" id="layer6"/>
    <g style="display:inline" id="layer3"/>
    <g style="display:inline" id="layer5"/>
    <g style="display:inline" id="layer9">
      <g id="g976" style="display:inline;enable-background:new" transform="translate(-292.15938,-18.41273)">
        <rect style="display:inline;overflow:visible;visibility:visible;opacity:0;fill:#cdcdcd;fill-opacity:1;fill-rule:nonzero;stroke:none;stroke-width:2;marker:none;enable-background:accumulate" id="rect32x32" width="32" height="32" x="320" y="132"/>
        <path style="color:#000000;font-style:normal;font-variant:normal;font-weight:normal;font-stretch:normal;font-size:medium;line-height:normal;font-family:sans-serif;font-variant-ligatures:normal;font-variant-position:normal;font-variant-caps:normal;font-variant-numeric:normal;font-variant-alternates:normal;font-feature-settings:normal;text-indent:0;text-align:start;text-decoration:none;text-decoration-line:none;text-decoration-style:solid;text-decoration-color:#000000;letter-spacing:normal;word-spacing:normal;text-transform:none;writing-mode:lr-tb;direction:ltr;text-orientation:mixed;dominant-baseline:auto;baseline-shift:baseline;text-anchor:start;white-space:normal;shape-padding:0;clip-rule:nonzero;display:inline;overflow:visible;visibility:visible;opacity:0.1;isolation:auto;mix-blend-mode:normal;color-interpolation:sRGB;color-interpolation-filters:linearRGB;solid-color:#000000;solid-opacity:1;vector-effect:none;fill:#000000;fill-opacity:1;fill-rule:nonzero;stroke:none;stroke-width:2;stroke-linecap:butt;stroke-linejoin:miter;stroke-miterlimit:4;stroke-dasharray:none;stroke-dashoffset:0;stroke-opacity:1;marker:none;color-rendering:auto;image-rendering:auto;shape-rendering:auto;text-rendering:auto;enable-background:accumulate" d="m 330.19336,134 c -1.42096,0 -2.54883,0.0308 -3.50586,0.19141 -0.95703,0.16064 -1.79146,0.4726 -2.41211,1.09179 -0.62065,0.61919 -0.93647,1.45612 -1.0957,2.41407 -0.15924,0.95795 -0.18666,2.08705 -0.17969,3.51171 V 149 v 7.79688 c -0.007,1.42131 0.0207,2.5495 0.17969,3.50585 0.15923,0.95796 0.47505,1.79488 1.0957,2.41407 0.62065,0.61919 1.45508,0.93115 2.41211,1.09179 0.95703,0.16065 2.0849,0.19141 3.50586,0.19141 h 11.61523 c 1.42097,0 2.54669,-0.0307 3.50196,-0.19141 0.95527,-0.16075 1.78779,-0.47425 2.40625,-1.09375 0.61845,-0.6195 0.93134,-1.45363 1.09179,-2.41015 C 348.96905,159.34816 349,158.22066 349,156.79688 V 149 141 l -7,-7 z" id="path999"/>
        <path style="color:#000000;display:inline;overflow:visible;visibility:visible;opacity:0.2;fill:none;fill-opacity:1;fill-rule:nonzero;stroke:#000000;stroke-width:2;stroke-miterlimit:4;stroke-dasharray:none;stroke-opacity:1;marker:none;enable-background:accumulate" d="m 330.1929,133.99999 c -5.61538,0 -6.21958,0.57678 -6.19206,6.20352 v 7.79648 7.79648 c -0.0276,5.62673 0.57668,6.20351 6.19206,6.20351 h 11.615 c 5.6154,0 6.19208,-0.5767 6.19208,-6.20351 v -7.79648 -7.79648 l -6.19208,-6.20352 z" id="path930"/>
        <path id="path922" d="m 330.1929,133.99999 c -5.61538,0 -6.21958,0.57678 -6.19206,6.20352 v 7.79648 7.79648 c -0.0276,5.62673 0.57668,6.20351 6.19206,6.20351 h 11.615 c 5.6154,0 6.19208,-0.5767 6.19208,-6.20351 v -7.79648 L 348,140 l -6,-6 z" style="color:#000000;display:inline;overflow:visible;visibility:visible;fill:url(#linearGradient924);fill-opacity:1;fill-rule:nonzero;stroke:none;stroke-width:0.99999994;marker:none;enable-background:accumulate"/>
        <path id="path946" style="font-style:normal;font-variant:normal;font-weight:normal;font-stretch:normal;font-size:medium;line-height:1000%;font-family:Ubuntu;-inkscape-font-specification:Ubuntu;text-align:center;letter-spacing:0px;word-spacing:0px;text-anchor:middle;display:inline;fill:#5884f4;fill-opacity:1;stroke:none;stroke-width:1px;stroke-linecap:butt;stroke-linejoin:miter;stroke-opacity:1;enable-background:new" d="m 328.87423,150.47934 c 0.2314,0 0.42906,-0.0386 0.59297,-0.1157 0.16391,-0.0868 0.2989,-0.19284 0.40496,-0.31818 0.1157,-0.13499 0.19766,-0.28444 0.24587,-0.44835 0.0579,-0.17355 0.0868,-0.34711 0.0868,-0.52066 v -2.60331 c 0,-0.39531 0.0434,-0.74724 0.13016,-1.05578 0.0868,-0.30854 0.23623,-0.56405 0.44835,-0.76653 0.21212,-0.21212 0.49173,-0.37121 0.83884,-0.47727 C 331.97893,144.05785 332.41763,144 332.9383,144 h 0.0579 v 1.05579 c -0.54959,0 -0.9449,0.10124 -1.18595,0.30372 -0.23141,0.19283 -0.34711,0.56886 -0.34711,1.12809 v 2.22728 c 0,0.63636 -0.0868,1.12809 -0.26033,1.4752 -0.16391,0.34711 -0.40014,0.61709 -0.70868,0.80992 0.30854,0.19284 0.54477,0.46281 0.70868,0.80992 0.17355,0.34711 0.26033,0.83884 0.26033,1.47521 v 2.22727 c 0,0.55923 0.1157,0.93526 0.34711,1.1281 0.24105,0.20248 0.63636,0.30372 1.18595,0.30372 V 158 h -0.0579 c -0.52067,0 -0.95937,-0.053 -1.31612,-0.15909 -0.34711,-0.10606 -0.62672,-0.26515 -0.83884,-0.47727 -0.21212,-0.21212 -0.36157,-0.47245 -0.44835,-0.78099 -0.0868,-0.30854 -0.13016,-0.66047 -0.13016,-1.05579 v -2.60331 c 0,-0.17355 -0.0289,-0.34228 -0.0868,-0.50619 -0.0482,-0.17355 -0.13016,-0.323 -0.24587,-0.44835 -0.10606,-0.13499 -0.24105,-0.24105 -0.40496,-0.31818 -0.16391,-0.0868 -0.36157,-0.13017 -0.59297,-0.13017 z"/>
        <path id="path948" style="font-style:normal;font-variant:normal;font-weight:normal;font-stretch:normal;font-size:medium;line-height:1000%;font-family:Ubuntu;-inkscape-font-specification:Ubuntu;text-align:center;letter-spacing:0px;word-spacing:0px;text-anchor:middle;display:inline;fill:#5884f4;fill-opacity:1;stroke:none;stroke-width:1px;stroke-linecap:butt;stroke-linejoin:miter;stroke-opacity:1;enable-background:new" d="m 343.07617,151.52066 c -0.23141,0 -0.42907,0.0434 -0.59298,0.13017 -0.16391,0.0771 -0.30372,0.18319 -0.41942,0.31818 -0.10606,0.12535 -0.18802,0.2748 -0.24587,0.44835 -0.0482,0.16391 -0.0723,0.33264 -0.0723,0.50619 v 2.60331 c 0,0.39532 -0.0434,0.74725 -0.13017,1.05579 -0.0868,0.30854 -0.23622,0.56887 -0.44835,0.78099 -0.21212,0.21212 -0.49655,0.37121 -0.8533,0.47727 C 339.96667,157.94697 339.53279,158 339.01213,158 h -0.0579 v -1.05578 c 0.54959,0 0.94008,-0.10124 1.17149,-0.30372 0.24105,-0.19284 0.36157,-0.56887 0.36157,-1.1281 v -2.22727 c 0,-0.63637 0.082,-1.1281 0.24587,-1.47521 0.17355,-0.34711 0.4146,-0.61708 0.72314,-0.80992 -0.30854,-0.19283 -0.54959,-0.46281 -0.72314,-0.80992 -0.16391,-0.34711 -0.24587,-0.83884 -0.24587,-1.4752 v -2.22728 c 0,-0.55923 -0.12052,-0.93526 -0.36157,-1.12809 -0.23141,-0.20248 -0.6219,-0.30372 -1.17149,-0.30372 V 144 h 0.0579 c 0.52066,0 0.95454,0.0579 1.30165,0.17356 0.35675,0.10606 0.64118,0.26515 0.8533,0.47727 0.21213,0.20248 0.36158,0.45799 0.44835,0.76653 0.0868,0.30854 0.13017,0.66047 0.13017,1.05578 v 2.60331 c 0,0.17355 0.0241,0.34711 0.0723,0.52066 0.0579,0.16391 0.13982,0.31336 0.24587,0.44835 0.1157,0.12534 0.25551,0.2314 0.41942,0.31818 0.16391,0.0771 0.36157,0.1157 0.59298,0.1157 z"/>
        <path style="color:#000000;display:inline;overflow:visible;visibility:visible;opacity:0.2;fill:#ffffff;fill-opacity:1;fill-rule:nonzero;stroke:none;stroke-width:0.99999994;marker:none;enable-background:accumulate" d="m 324,148 v 7.79688 C 323.9724,161.42361 324.57798,162 330.19336,162 h 11.61523 C 347.42399,162 348,161.42369 348,155.79688 V 148 Z" id="path1011"/>
        <path style="color:#000000;display:inline;overflow:visible;visibility:visible;opacity:0.2;fill:#ffffff;fill-opacity:1;fill-rule:nonzero;stroke:none;stroke-width:0.99999994;marker:none;enable-background:accumulate" d="m 336,134 v 28 h 5.80859 C 347.42399,162 348,161.42369 348,155.79688 V 148 140 l -6,-6 z" id="path1018"/>
        <path style="color:#000000;font-style:normal;font-variant:normal;font-weight:normal;font-stretch:normal;font-size:medium;line-height:normal;font-family:sans-serif;font-variant-ligatures:normal;font-variant-position:normal;font-variant-caps:normal;font-variant-numeric:normal;font-variant-alternates:normal;font-feature-settings:normal;text-indent:0;text-align:start;text-decoration:none;text-decoration-line:none;text-decoration-style:solid;text-decoration-color:#000000;letter-spacing:normal;word-spacing:normal;text-transform:none;writing-mode:lr-tb;direction:ltr;text-orientation:mixed;dominant-baseline:auto;baseline-shift:baseline;text-anchor:start;white-space:normal;shape-padding:0;clip-rule:nonzero;display:inline;overflow:visible;visibility:visible;opacity:0.4;isolation:auto;mix-blend-mode:normal;color-interpolation:sRGB;color-interpolation-filters:linearRGB;solid-color:#000000;solid-opacity:1;vector-effect:none;fill:url(#linearGradient969);fill-opacity:1;fill-rule:nonzero;stroke:none;stroke-width:2;stroke-linecap:butt;stroke-linejoin:miter;stroke-miterlimit:4;stroke-dasharray:none;stroke-dashoffset:0;stroke-opacity:1;marker:none;color-rendering:auto;image-rendering:auto;shape-rendering:auto;text-rendering:auto;enable-background:accumulate" clip-path="none" d="m 330.19336,134 c -5.61538,0 -6.22088,0.57638 -6.19336,6.20312 V 148 155.79688 C 323.9724,161.42361 324.57798,162 330.19336,162 h 11.61523 C 347.42399,162 348,161.42369 348,155.79688 V 148 140.20312 L 341.80859,134 Z m 0,1 h 11.61523 L 347,140.20312 V 148 v 7.79688 c 0,1.38962 -0.0409,2.44358 -0.16406,3.17773 -0.12315,0.73414 -0.30557,1.1001 -0.53321,1.32812 -0.22764,0.22803 -0.59203,0.40999 -1.32421,0.53321 C 344.24633,160.95915 343.19533,161 341.80859,161 h -11.61523 c -1.38673,0 -2.44105,-0.0407 -3.17578,-0.16406 -0.73474,-0.12334 -1.10119,-0.30681 -1.33008,-0.53516 -0.22889,-0.22835 -0.41141,-0.59346 -0.5332,-1.32617 -0.12179,-0.73271 -0.16111,-1.78513 -0.1543,-3.17383 v -0.002 V 148 v -7.79883 -0.002 c -0.007,-1.38871 0.0325,-2.44307 0.1543,-3.17578 0.12179,-0.73272 0.30431,-1.09587 0.5332,-1.32422 0.22889,-0.22835 0.59535,-0.41182 1.33008,-0.53516 C 327.75231,135.04078 328.80663,135 330.19336,135 Z" id="path939"/>
        <path style="color:#000000;display:inline;overflow:visible;visibility:visible;opacity:0.2;fill:#000000;fill-opacity:1;fill-rule:nonzero;stroke:none;stroke-width:0.25002289;marker:none;enable-background:accumulate" d="m 348,141 v -1 l -6,-6 h -1 v 2.67849 0.10263 0.0551 c 0,3.62217 0.48488,4.1807 4.11536,4.16294 z" id="rect4158-0-3-62-2-3"/>
        <path style="color:#000000;display:inline;overflow:visible;visibility:visible;fill:#faf8f6;fill-opacity:1;fill-rule:nonzero;stroke:none;stroke-width:0.25002289;marker:none;enable-background:accumulate" d="m 348,139.99922 -6,-5.99923 v 2.22536 0.0968 0.0519 c 0,3.41519 0.15739,3.64187 3.58042,3.62513 z" id="rect4158-0-3-62-6"/>
      </g>
    </g>
  </g>
</svg>