<svg xmlns:dc="http://purl.org/dc/elements/1.1/" xmlns:cc="http://creativecommons.org/ns#" xmlns:rdf="http://www.w3.org/1999/02/22-rdf-syntax-ns#" xmlns:svg="http://www.w3.org/2000/svg" xmlns="http://www.w3.org/2000/svg" xmlns:xlink="http://www.w3.org/1999/xlink" style="display:inline;enable-background:new" version="1.0" id="svg11300" height="32" width="32">
  <title id="title3004">Suru Icon Theme Template</title>
  <defs id="defs3">
    <linearGradient y2="207.36522" x2="35.310345" y1="419.23337" x1="459.03448" gradientTransform="matrix(0,-0.07208805,0.07208601,0,312.87045,165.81816)" gradientUnits="userSpaceOnUse" id="linearGradient924" xlink:href="#linearGradient4338"/>
    <linearGradient id="linearGradient4338">
      <stop id="stop4340" offset="0" style="stop-color:#f2f2f2;stop-opacity:1"/>
      <stop id="stop4342" offset="1" style="stop-color:#f9f9f9;stop-opacity:1"/>
    </linearGradient>
    <linearGradient gradientUnits="userSpaceOnUse" y2="162" x2="336" y1="134" x1="336" id="linearGradient969" xlink:href="#linearGradient927"/>
    <linearGradient id="linearGradient927">
      <stop id="stop923" offset="0" style="stop-color:#ffffff;stop-opacity:1;"/>
      <stop style="stop-color:#ffffff;stop-opacity:0.09803922" offset="0.125" id="stop933"/>
      <stop style="stop-color:#ffffff;stop-opacity:0.09803922" offset="0.92500001" id="stop931"/>
      <stop id="stop925" offset="1" style="stop-color:#ffffff;stop-opacity:0.49803922"/>
    </linearGradient>
  </defs>
  <metadata id="metadata4">
    <rdf:RDF>
      <cc:Work rdf:about="">
        <dc:format>image/svg+xml</dc:format>
        <dc:type rdf:resource="http://purl.org/dc/dcmitype/StillImage"/>
        <dc:creator>
          <cc:Agent>
            <dc:title>Sam Hewitt</dc:title>
          </cc:Agent>
        </dc:creator>
        <dc:source/>
        <cc:license rdf:resource="http://creativecommons.org/licenses/by-sa/4.0/"/>
        <dc:title>Suru Icon Theme Template</dc:title>
        <dc:subject>
          <rdf:Bag/>
        </dc:subject>
        <dc:date/>
        <dc:rights>
          <cc:Agent>
            <dc:title/>
          </cc:Agent>
        </dc:rights>
        <dc:publisher>
          <cc:Agent>
            <dc:title/>
          </cc:Agent>
        </dc:publisher>
        <dc:identifier/>
        <dc:relation/>
        <dc:language/>
        <dc:coverage/>
        <dc:description/>
        <dc:contributor>
          <cc:Agent>
            <dc:title/>
          </cc:Agent>
        </dc:contributor>
      </cc:Work>
      <cc:Work rdf:about="">
        <dc:format>image/svg+xml</dc:format>
        <dc:type rdf:resource="http://purl.org/dc/dcmitype/StillImage"/>
      </cc:Work>
      <cc:License rdf:about="http://creativecommons.org/licenses/by-sa/4.0/">
        <cc:permits rdf:resource="http://creativecommons.org/ns#Reproduction"/>
        <cc:permits rdf:resource="http://creativecommons.org/ns#Distribution"/>
        <cc:requires rdf:resource="http://creativecommons.org/ns#Notice"/>
        <cc:requires rdf:resource="http://creativecommons.org/ns#Attribution"/>
        <cc:permits rdf:resource="http://creativecommons.org/ns#DerivativeWorks"/>
        <cc:requires rdf:resource="http://creativecommons.org/ns#ShareAlike"/>
      </cc:License>
    </rdf:RDF>
  </metadata>
  <g transform="translate(-198,-144.5)" id="layer1" style="display:inline">
    <g id="layer7" style="display:inline"/>
    <g style="display:inline" id="layer4"/>
    <g style="display:inline" id="layer2"/>
    <g style="display:inline" id="layer6"/>
    <g style="display:inline" id="layer3"/>
    <g style="display:inline" id="layer5"/>
    <g style="display:inline" id="layer9">
      <g id="g6947" style="display:inline;enable-background:new" transform="translate(-122,12.5)">
        <rect style="display:inline;overflow:visible;visibility:visible;opacity:0;fill:#cdcdcd;fill-opacity:1;fill-rule:nonzero;stroke:none;stroke-width:2;marker:none;enable-background:accumulate" id="rect32x32" width="32" height="32" x="320" y="132"/>
        <path style="color:#000000;font-style:normal;font-variant:normal;font-weight:normal;font-stretch:normal;font-size:medium;line-height:normal;font-family:sans-serif;font-variant-ligatures:normal;font-variant-position:normal;font-variant-caps:normal;font-variant-numeric:normal;font-variant-alternates:normal;font-feature-settings:normal;text-indent:0;text-align:start;text-decoration:none;text-decoration-line:none;text-decoration-style:solid;text-decoration-color:#000000;letter-spacing:normal;word-spacing:normal;text-transform:none;writing-mode:lr-tb;direction:ltr;text-orientation:mixed;dominant-baseline:auto;baseline-shift:baseline;text-anchor:start;white-space:normal;shape-padding:0;clip-rule:nonzero;display:inline;overflow:visible;visibility:visible;opacity:0.1;isolation:auto;mix-blend-mode:normal;color-interpolation:sRGB;color-interpolation-filters:linearRGB;solid-color:#000000;solid-opacity:1;vector-effect:none;fill:#000000;fill-opacity:1;fill-rule:nonzero;stroke:none;stroke-width:2;stroke-linecap:butt;stroke-linejoin:miter;stroke-miterlimit:4;stroke-dasharray:none;stroke-dashoffset:0;stroke-opacity:1;marker:none;color-rendering:auto;image-rendering:auto;shape-rendering:auto;text-rendering:auto;enable-background:accumulate" d="m 330.19336,134 c -1.42096,0 -2.54883,0.0308 -3.50586,0.19141 -0.95703,0.16064 -1.79146,0.4726 -2.41211,1.09179 -0.62065,0.61919 -0.93647,1.45612 -1.0957,2.41407 -0.15924,0.95795 -0.18666,2.08705 -0.17969,3.51171 V 149 v 7.79688 c -0.007,1.42131 0.0207,2.5495 0.17969,3.50585 0.15923,0.95796 0.47505,1.79488 1.0957,2.41407 0.62065,0.61919 1.45508,0.93115 2.41211,1.09179 0.95703,0.16065 2.0849,0.19141 3.50586,0.19141 h 11.61523 c 1.42097,0 2.54669,-0.0307 3.50196,-0.19141 0.95527,-0.16075 1.78779,-0.47425 2.40625,-1.09375 0.61845,-0.6195 0.93134,-1.45363 1.09179,-2.41015 C 348.96905,159.34816 349,158.22066 349,156.79688 V 149 141 l -7,-7 z" id="path999"/>
        <path style="color:#000000;display:inline;overflow:visible;visibility:visible;opacity:0.2;fill:none;fill-opacity:1;fill-rule:nonzero;stroke:#000000;stroke-width:2;stroke-miterlimit:4;stroke-dasharray:none;stroke-opacity:1;marker:none;enable-background:accumulate" d="m 330.1929,133.99999 c -5.61538,0 -6.21958,0.57678 -6.19206,6.20352 v 7.79648 7.79648 c -0.0276,5.62673 0.57668,6.20351 6.19206,6.20351 h 11.615 c 5.6154,0 6.19208,-0.5767 6.19208,-6.20351 v -7.79648 -7.79648 l -6.19208,-6.20352 z" id="path930"/>
        <path id="path922" d="m 330.1929,133.99999 c -5.61538,0 -6.21958,0.57678 -6.19206,6.20352 v 7.79648 7.79648 c -0.0276,5.62673 0.57668,6.20351 6.19206,6.20351 h 11.615 c 5.6154,0 6.19208,-0.5767 6.19208,-6.20351 v -7.79648 L 348,140 l -6,-6 z" style="color:#000000;display:inline;overflow:visible;visibility:visible;fill:url(#linearGradient924);fill-opacity:1;fill-rule:nonzero;stroke:none;stroke-width:0.99999994;marker:none;enable-background:accumulate"/>
        <path id="path18109" d="m 340.87426,146.18403 c 0.54972,0.13744 0.96889,0.38136 1.35369,0.77993 0.19928,0.213 0.49476,0.60125 0.5188,0.69401 0.007,0.0274 -0.93452,0.65967 -1.50486,1.01356 -0.0206,0.0138 -0.10303,-0.0756 -0.19583,-0.21302 -0.2783,-0.40543 -0.57035,-0.58065 -1.017,-0.61157 -0.65621,-0.0446 -1.07882,0.29892 -1.07537,0.87269 0,0.16835 0.0241,0.26798 0.0927,0.40541 0.1443,0.29892 0.41229,0.47757 1.25405,0.84175 1.54952,0.66655 2.21263,1.10632 2.62492,1.73163 0.46039,0.69746 0.56345,1.81064 0.2508,2.63866 -0.34357,0.90017 -1.19563,1.51174 -2.39471,1.71443 -0.37107,0.0653 -1.25062,0.055 -1.64917,-0.0171 -0.86924,-0.15462 -1.69383,-0.58408 -2.20232,-1.14754 -0.19927,-0.2199 -0.58751,-0.79366 -0.56345,-0.83489 0.01,-0.0138 0.0997,-0.0688 0.19927,-0.12712 0.0962,-0.0551 0.46039,-0.26456 0.80397,-0.46383 l 0.62186,-0.36076 0.13056,0.19241 c 0.1821,0.27829 0.58064,0.65966 0.82114,0.78678 0.6906,0.36418 1.63887,0.31266 2.10612,-0.1065 0.19927,-0.1821 0.28174,-0.37107 0.28174,-0.64937 0,-0.25081 -0.0309,-0.36075 -0.16149,-0.54971 -0.16835,-0.24051 -0.51192,-0.44321 -1.48767,-0.86582 -1.11662,-0.481 -1.59764,-0.77991 -2.0374,-1.25404 -0.25426,-0.27487 -0.49477,-0.71463 -0.59439,-1.08226 -0.0824,-0.30579 -0.10303,-1.07196 -0.0378,-1.38118 0.23018,-1.07882 1.04445,-1.83126 2.21949,-2.05458 0.38136,-0.0721 1.26779,-0.0447 1.64229,0.0482 z m -5.08146,0.90361 0.007,0.88642 h -1.40866 -1.40867 v 4.00267 4.00265 h -0.99637 -0.99636 v -4.00265 -4.00267 h -1.40867 -1.40866 v -0.86924 c 0,-0.48101 0.01,-0.88299 0.0241,-0.8933 0.01,-0.0138 1.72475,-0.0206 3.80338,-0.0171 l 3.78277,0.01 z" class="st1" style="display:inline;fill:#1a7fd4;stroke-width:0.1;enable-background:new"/>
        <path style="color:#000000;display:inline;overflow:visible;visibility:visible;opacity:0.2;fill:#ffffff;fill-opacity:1;fill-rule:nonzero;stroke:none;stroke-width:0.99999994;marker:none;enable-background:accumulate" d="m 324,148 v 7.79688 C 323.9724,161.42361 324.57798,162 330.19336,162 h 11.61523 C 347.42399,162 348,161.42369 348,155.79688 V 148 Z" id="path1011"/>
        <path style="color:#000000;display:inline;overflow:visible;visibility:visible;opacity:0.2;fill:#ffffff;fill-opacity:1;fill-rule:nonzero;stroke:none;stroke-width:0.99999994;marker:none;enable-background:accumulate" d="m 336,134 v 28 h 5.80859 C 347.42399,162 348,161.42369 348,155.79688 V 148 140 l -6,-6 z" id="path1018"/>
        <path style="color:#000000;font-style:normal;font-variant:normal;font-weight:normal;font-stretch:normal;font-size:medium;line-height:normal;font-family:sans-serif;font-variant-ligatures:normal;font-variant-position:normal;font-variant-caps:normal;font-variant-numeric:normal;font-variant-alternates:normal;font-feature-settings:normal;text-indent:0;text-align:start;text-decoration:none;text-decoration-line:none;text-decoration-style:solid;text-decoration-color:#000000;letter-spacing:normal;word-spacing:normal;text-transform:none;writing-mode:lr-tb;direction:ltr;text-orientation:mixed;dominant-baseline:auto;baseline-shift:baseline;text-anchor:start;white-space:normal;shape-padding:0;clip-rule:nonzero;display:inline;overflow:visible;visibility:visible;opacity:0.4;isolation:auto;mix-blend-mode:normal;color-interpolation:sRGB;color-interpolation-filters:linearRGB;solid-color:#000000;solid-opacity:1;vector-effect:none;fill:url(#linearGradient969);fill-opacity:1;fill-rule:nonzero;stroke:none;stroke-width:2;stroke-linecap:butt;stroke-linejoin:miter;stroke-miterlimit:4;stroke-dasharray:none;stroke-dashoffset:0;stroke-opacity:1;marker:none;color-rendering:auto;image-rendering:auto;shape-rendering:auto;text-rendering:auto;enable-background:accumulate" clip-path="none" d="m 330.19336,134 c -5.61538,0 -6.22088,0.57638 -6.19336,6.20312 V 148 155.79688 C 323.9724,161.42361 324.57798,162 330.19336,162 h 11.61523 C 347.42399,162 348,161.42369 348,155.79688 V 148 140.20312 L 341.80859,134 Z m 0,1 h 11.61523 L 347,140.20312 V 148 v 7.79688 c 0,1.38962 -0.0409,2.44358 -0.16406,3.17773 -0.12315,0.73414 -0.30557,1.1001 -0.53321,1.32812 -0.22764,0.22803 -0.59203,0.40999 -1.32421,0.53321 C 344.24633,160.95915 343.19533,161 341.80859,161 h -11.61523 c -1.38673,0 -2.44105,-0.0407 -3.17578,-0.16406 -0.73474,-0.12334 -1.10119,-0.30681 -1.33008,-0.53516 -0.22889,-0.22835 -0.41141,-0.59346 -0.5332,-1.32617 -0.12179,-0.73271 -0.16111,-1.78513 -0.1543,-3.17383 v -0.002 V 148 v -7.79883 -0.002 c -0.007,-1.38871 0.0325,-2.44307 0.1543,-3.17578 0.12179,-0.73272 0.30431,-1.09587 0.5332,-1.32422 0.22889,-0.22835 0.59535,-0.41182 1.33008,-0.53516 C 327.75231,135.04078 328.80663,135 330.19336,135 Z" id="path939"/>
        <path style="color:#000000;display:inline;overflow:visible;visibility:visible;opacity:0.2;fill:#000000;fill-opacity:1;fill-rule:nonzero;stroke:none;stroke-width:0.25002289;marker:none;enable-background:accumulate" d="m 348,141 v -1 l -6,-6 h -1 v 2.67849 0.10263 0.0551 c 0,3.62217 0.48488,4.1807 4.11536,4.16294 z" id="rect4158-0-3-62-2-3"/>
        <path style="color:#000000;display:inline;overflow:visible;visibility:visible;fill:#faf8f6;fill-opacity:1;fill-rule:nonzero;stroke:none;stroke-width:0.25002289;marker:none;enable-background:accumulate" d="m 348,139.99922 -6,-5.99923 v 2.22536 0.0968 0.0519 c 0,3.41519 0.15739,3.64187 3.58042,3.62513 z" id="rect4158-0-3-62-6"/>
      </g>
    </g>
  </g>
</svg>