<svg width="32" height="32" version="1.1" xmlns="http://www.w3.org/2000/svg" xmlns:xlink="http://www.w3.org/1999/xlink">
 <defs>
  <linearGradient id="linearGradient969-6" x1="336" x2="336" y1="134" y2="162" gradientUnits="userSpaceOnUse">
   <stop stop-color="#fff" offset="0"/>
   <stop stop-color="#fff" stop-opacity=".098039" offset=".125"/>
   <stop stop-color="#fff" stop-opacity=".098039" offset=".925"/>
   <stop stop-color="#fff" stop-opacity=".49804" offset="1"/>
  </linearGradient>
  <clipPath id="clipPath959-7">
   <path d="m330.19 134c-5.6154 0-6.2196 0.57678-6.1921 6.2035v15.593c-0.0276 5.6267 0.57668 6.2035 6.1921 6.2035h11.615c5.6154 0 6.1921-0.5767 6.1921-6.2035v-15.593c0-5.6268-0.5767-6.2035-6.1921-6.2035z" color="#000000" fill="#46a926"/>
  </clipPath>
  <linearGradient id="linearGradient917" x1="3.6948e-5" x2="24" y1="16" y2="16" gradientTransform="translate(4)" gradientUnits="userSpaceOnUse">
   <stop stop-color="#4d4d4d" offset="0"/>
   <stop stop-color="#666" offset="1"/>
  </linearGradient>
 </defs>
 <path d="m10.193 2c-1.421 0-2.5488 0.0308-3.5059 0.19141-0.95703 0.16064-1.7915 0.4726-2.4121 1.0918s-0.93647 1.4561-1.0957 2.4141c-0.15924 0.95795-0.18666 2.087-0.17969 3.5117v15.588c-7e-3 1.4213 0.0207 2.5495 0.17969 3.5058 0.15923 0.95796 0.47505 1.7949 1.0957 2.4141s1.4551 0.93115 2.4121 1.0918c0.95703 0.16065 2.0849 0.19141 3.5059 0.19141h11.615c1.421 0 2.5467-0.0307 3.502-0.19141 0.95527-0.16075 1.7878-0.47425 2.4062-1.0938 0.61845-0.6195 0.93134-1.4536 1.0918-2.4102 0.16046-0.95653 0.19141-2.084 0.19141-3.5078v-15.594c0-1.4238-0.031-2.5513-0.19141-3.5078-0.16045-0.95653-0.47334-1.7906-1.0918-2.4102-0.61846-0.61951-1.451-0.933-2.4062-1.0938-0.95527-0.16076-2.081-0.19141-3.502-0.19141z" color="#000000" color-rendering="auto" dominant-baseline="auto" image-rendering="auto" opacity=".1" shape-rendering="auto" solid-color="#000000" style="font-feature-settings:normal;font-variant-alternates:normal;font-variant-caps:normal;font-variant-ligatures:normal;font-variant-numeric:normal;font-variant-position:normal;isolation:auto;mix-blend-mode:normal;shape-padding:0;text-decoration-color:#000000;text-decoration-line:none;text-decoration-style:solid;text-indent:0;text-orientation:mixed;text-transform:none;white-space:normal"/>
 <path d="m10.193 2c-5.6154 0-6.2196 0.57678-6.1921 6.2035v15.593c-0.0276 5.6267 0.57668 6.2035 6.1921 6.2035h11.615c5.6154 0 6.1921-0.5767 6.1921-6.2035v-15.593c0-5.6268-0.5767-6.2035-6.1921-6.2035z" color="#000000" fill="none" opacity=".2" stroke="#000" stroke-width="2"/>
 <path d="m10.193 2c-5.6154 0-6.2196 0.57678-6.1921 6.2035v15.593c-0.0276 5.6267 0.57668 6.2035 6.1921 6.2035h11.615c5.6154 0 6.1921-0.5767 6.1921-6.2035v-15.593c0-5.6268-0.5767-6.2035-6.1921-6.2035z" color="#000000" fill="url(#linearGradient917)"/>
 <path d="m13.5 7.5h0.99982l-0.0211 4.0214" enable-background="new" fill="none" stroke="#999" stroke-linecap="round"/>
 <path d="m13.479 11.521 2.0209-0.02131" enable-background="new" fill="none" stroke="#999" stroke-linecap="round" stroke-linejoin="round"/>
 <path d="m17.5 14.5h1l-0.0211 4.0214" enable-background="new" fill="none" stroke="#999" stroke-linecap="round"/>
 <path d="m17.479 18.521 2.0211-0.02131" enable-background="new" fill="none" stroke="#999" stroke-linecap="round" stroke-linejoin="round"/>
 <path d="m8.5002 21.5h0.99964l-0.0211 4.0214" enable-background="new" fill="none" stroke="#999" stroke-linecap="round"/>
 <path d="m8.4791 25.521 2.0207-0.02131" enable-background="new" fill="none" stroke="#999" stroke-linecap="round" stroke-linejoin="round"/>
 <rect x="8.4998" y="7.5" width="2" height="4" ry=".5" enable-background="new" fill="none" stroke="#999" stroke-linecap="round" stroke-linejoin="round"/>
 <rect x="17.5" y="7.5" width="2" height="4" ry=".5" enable-background="new" fill="none" stroke="#999" stroke-linecap="round" stroke-linejoin="round"/>
 <rect x="8.4998" y="14.5" width="2" height="4" ry=".5" enable-background="new" fill="none" stroke="#999" stroke-linecap="round" stroke-linejoin="round"/>
 <rect x="12.5" y="14.5" width="2" height="4" ry=".5" enable-background="new" fill="none" stroke="#999" stroke-linecap="round" stroke-linejoin="round"/>
 <rect x="12.5" y="21.5" width="2" height="4" ry=".5" enable-background="new" fill="none" stroke="#999" stroke-linecap="round" stroke-linejoin="round"/>
 <rect x="16.5" y="21.5" width="2" height="4" ry=".5" enable-background="new" fill="none" stroke="#999" stroke-linecap="round" stroke-linejoin="round"/>
 <path d="m21.5 21.5h0.99964l-0.0211 4.0214" enable-background="new" fill="none" stroke="#999" stroke-linecap="round"/>
 <path d="m21.479 25.521 2.0207-0.02131" enable-background="new" fill="none" stroke="#999" stroke-linecap="round" stroke-linejoin="round"/>
 <rect x="21.5" y="7.5" width="2" height="4" ry=".5" enable-background="new" fill="none" stroke="#999" stroke-linecap="round" stroke-linejoin="round"/>
 <rect x="21.5" y="14.5" width="2" height="4" ry=".5" enable-background="new" fill="none" stroke="#999" stroke-linecap="round" stroke-linejoin="round"/>
 <path d="m4 16v7.7969c-0.0276 5.6267 0.57798 6.2031 6.1934 6.2031h11.615c5.6154 0 6.1914-0.57631 6.1914-6.2031v-7.7969z" color="#000000" fill="#fff" opacity=".2"/>
 <path d="m16 2v28h5.8086c5.6154 0 6.1914-0.57631 6.1914-6.2031v-15.594c0-5.6268-0.57603-6.2031-6.1914-6.2031z" color="#000000" fill="#fff" opacity=".2"/>
 <path transform="translate(-320,-132)" d="m330.19 134c-5.6154 0-6.2196 0.57678-6.1921 6.2035v15.593c-0.0276 5.6267 0.57668 6.2035 6.1921 6.2035h11.615c5.6154 0 6.1921-0.5767 6.1921-6.2035v-15.593c0-5.6268-0.5767-6.2035-6.1921-6.2035z" clip-path="url(#clipPath959-7)" color="#000000" fill="none" opacity=".4" stroke="url(#linearGradient969-6)" stroke-width="2"/>
</svg>
