<?xml version="1.0" encoding="UTF-8" standalone="no"?>
<!-- Created with Inkscape (http://www.inkscape.org/) -->

<svg
   width="16"
   height="16"
   viewBox="0 0 4.2333333 4.2333333"
   version="1.1"
   id="svg5"
   sodipodi:docname="org.gnome.Lollypop-symbolic.svg"
   inkscape:version="1.1.2 (0a00cf5339, 2022-02-04)"
   xmlns:inkscape="http://www.inkscape.org/namespaces/inkscape"
   xmlns:sodipodi="http://sodipodi.sourceforge.net/DTD/sodipodi-0.dtd"
   xmlns="http://www.w3.org/2000/svg"
   xmlns:svg="http://www.w3.org/2000/svg">
  <sodipodi:namedview
     id="namedview7"
     pagecolor="#ffffff"
     bordercolor="#666666"
     borderopacity="1.0"
     inkscape:pageshadow="2"
     inkscape:pageopacity="0.0"
     inkscape:pagecheckerboard="0"
     inkscape:document-units="px"
     showgrid="false"
     units="px"
     height="48px"
     showguides="false"
     inkscape:zoom="24.5"
     inkscape:cx="8.7959184"
     inkscape:cy="6.0816326"
     inkscape:window-width="1846"
     inkscape:window-height="1011"
     inkscape:window-x="74"
     inkscape:window-y="32"
     inkscape:window-maximized="1"
     inkscape:current-layer="svg5" />
  <defs
     id="defs2" />
  <path
     id="rect1060"
     style="fill:#666666;stroke-width:0.999999;fill-opacity:1"
     d="M 8 0 A 7.9999996 7.9999996 0 0 0 5.9277344 0.27929688 C 5.5734254 1.6599305 5.4143869 2.8811192 5.6835938 4.1445312 A 4.4999999 4.4999999 0 0 1 8 3.5 A 4.4999999 4.4999999 0 0 1 8.6445312 3.546875 C 8.7204324 2.410941 9.0259293 1.1903325 9.8183594 0.2109375 A 7.9999996 7.9999996 0 0 0 8 0 z M 13.65625 2.34375 C 12.281661 2.7273172 11.143727 3.1993636 10.183594 4.0644531 A 4.4999999 4.4999999 0 0 1 12.179688 6.3320312 C 13.201344 5.8304388 14.412479 5.4850851 15.65625 5.6816406 A 7.9999996 7.9999996 0 0 0 14.966797 4.0664062 L 14.962891 4.0605469 A 7.9999996 7.9999996 0 0 0 14.853516 3.8730469 A 7.9999996 7.9999996 0 0 0 13.65625 2.34375 z M 2.1640625 2.5292969 A 7.9999996 7.9999996 0 0 0 1.0722656 4 A 7.9999996 7.9999996 0 0 0 0.27734375 5.9335938 C 1.295957 6.9308237 2.273329 7.6779438 3.5019531 8.0761719 A 4.4999999 4.4999999 0 0 1 3.5 8 A 4.4999999 4.4999999 0 0 1 4.4648438 5.2167969 C 3.5189052 4.5823668 2.6156901 3.7058096 2.1640625 2.5292969 z M 6 5 L 6 11 C 6 11 8.7215749 9.7697855 11 7.9980469 C 11 7.9980469 11 7.9960938 11 7.9960938 C 11 7.9960938 10.998047 7.9941406 10.998047 7.9941406 C 10.998047 7.9941406 10.996094 7.9921875 10.996094 7.9921875 C 10.996094 7.9921875 10.996094 7.9902344 10.996094 7.9902344 C 8.5932693 6.1620225 6 5 6 5 z M 12.498047 7.9238281 A 4.4999999 4.4999999 0 0 1 12.5 8 A 4.4999999 4.4999999 0 0 1 11.533203 10.785156 C 12.479115 11.419583 13.384084 12.294444 13.835938 13.470703 A 7.9999996 7.9999996 0 0 0 14.927734 12 A 7.9999996 7.9999996 0 0 0 15.722656 10.066406 C 14.704043 9.0691768 13.726671 8.3220562 12.498047 7.9238281 z M 3.8203125 9.6679688 C 2.7990695 10.169514 1.5889591 10.516211 0.34570312 10.320312 A 7.9999996 7.9999996 0 0 0 1.0722656 12 A 7.9999996 7.9999996 0 0 0 2.3476562 13.654297 C 3.7219556 13.270588 4.8584218 12.79961 5.8183594 11.933594 A 4.4999999 4.4999999 0 0 1 3.8203125 9.6679688 z M 10.316406 11.855469 A 4.4999999 4.4999999 0 0 1 8 12.5 A 4.4999999 4.4999999 0 0 1 7.3554688 12.453125 C 7.2795734 13.589072 6.9740805 14.809661 6.1816406 15.789062 A 7.9999996 7.9999996 0 0 0 8 16 A 7.9999996 7.9999996 0 0 0 10.072266 15.720703 C 10.426574 14.34007 10.585613 13.118881 10.316406 11.855469 z "
     transform="scale(0.26458333)" />
</svg>
