<?xml version="1.0" encoding="UTF-8" standalone="no"?>
<!-- Created with Inkscape (http://www.inkscape.org/) -->

<svg
   width="16"
   height="16"
   viewBox="0 0 4.2333332 4.2333335"
   version="1.1"
   id="svg1136"
   inkscape:version="1.1.2 (0a00cf5339, 2022-02-04)"
   sodipodi:docname="user-desktop.svg"
   xmlns:inkscape="http://www.inkscape.org/namespaces/inkscape"
   xmlns:sodipodi="http://sodipodi.sourceforge.net/DTD/sodipodi-0.dtd"
   xmlns:xlink="http://www.w3.org/1999/xlink"
   xmlns="http://www.w3.org/2000/svg"
   xmlns:svg="http://www.w3.org/2000/svg">
  <sodipodi:namedview
     id="namedview1138"
     pagecolor="#ffffff"
     bordercolor="#666666"
     borderopacity="1.0"
     inkscape:pageshadow="2"
     inkscape:pageopacity="0.0"
     inkscape:pagecheckerboard="0"
     inkscape:document-units="px"
     showgrid="false"
     units="px"
     inkscape:zoom="32"
     inkscape:cx="9.28125"
     inkscape:cy="9.109375"
     inkscape:window-width="1851"
     inkscape:window-height="1049"
     inkscape:window-x="0"
     inkscape:window-y="0"
     inkscape:window-maximized="1"
     inkscape:current-layer="svg1136" />
  <defs
     id="defs1133">
    <linearGradient
       inkscape:collect="always"
       id="linearGradient2290">
      <stop
         style="stop-color:#5d8638;stop-opacity:1"
         offset="0"
         id="stop2286" />
      <stop
         style="stop-color:#93b258;stop-opacity:1"
         offset="1"
         id="stop2288" />
    </linearGradient>
    <linearGradient
       inkscape:collect="always"
       xlink:href="#linearGradient2290"
       id="linearGradient2684"
       x1="0.1579041"
       y1="0.60198575"
       x2="3.8620708"
       y2="2.7186525"
       gradientUnits="userSpaceOnUse" />
    <linearGradient
       inkscape:collect="always"
       id="linearGradient1871">
      <stop
         style="stop-color:#ffffff;stop-opacity:1;"
         offset="0"
         id="stop1867" />
      <stop
         style="stop-color:#ffffff;stop-opacity:0.1"
         offset="0.12"
         id="stop2515" />
      <stop
         style="stop-color:#ffffff;stop-opacity:0.102"
         offset="0.89999998"
         id="stop2581" />
      <stop
         style="stop-color:#ffffff;stop-opacity:0.502"
         offset="1"
         id="stop1869" />
    </linearGradient>
    <linearGradient
       inkscape:collect="always"
       xlink:href="#linearGradient1871"
       id="linearGradient2792"
       x1="4.1015625"
       y1="2"
       x2="4.1015601"
       y2="13.999951"
       gradientUnits="userSpaceOnUse" />
  </defs>
  <path
     d="m 1.0852044,0.52916663 c -0.19027515,0 -0.3452363,0.00331 -0.4857592,0.026871 -0.1416764,0.02376 -0.2823924,0.07329 -0.3906731,0.1813851 C 0.1004067,0.84561093 0.0507126,0.98591413 0.026871,1.12758 0.003244,1.2679943 0,1.4229396 0,1.6128205 V 3.1496792 C 0,3.3395707 0.00328,3.4943361 0.026871,3.6349198 0.050684,3.7768714 0.100677,3.9177646 0.2087721,4.0261115 0.3168358,4.1344266 0.4572132,4.1838508 0.5994452,4.207494 0.7401877,4.230883 0.89548488,4.234259 1.0857229,4.233344 H 2.1166666 3.1476102 C 3.3377292,4.2341377 3.4930608,4.230964 3.6338879,4.207494 3.7761227,4.1838667 3.9165,4.1344293 4.0245611,4.0261115 4.132654,3.917762 4.1821152,3.7768634 4.2059436,3.6349198 4.2295444,3.4943334 4.2333332,3.3395707 4.2333332,3.1496792 V 1.6128205 c 0,-0.1898809 -0.00376,-0.3448262 -0.02739,-0.4852405 C 4.1821046,0.98591943 4.1329291,0.84561353 4.0245611,0.73742273 3.9162777,0.62932993 3.7755564,0.57980253 3.6338879,0.55603763 3.4933651,0.53246333 3.3384039,0.52916663 3.1481288,0.52916663 H 2.1166666 Z"
     style="color:#000000;font-style:normal;font-variant:normal;font-weight:normal;font-stretch:normal;font-size:medium;line-height:normal;font-family:sans-serif;font-variant-ligatures:normal;font-variant-position:normal;font-variant-caps:normal;font-variant-numeric:normal;font-variant-alternates:normal;font-feature-settings:normal;text-indent:0;text-align:start;text-decoration:none;text-decoration-line:none;text-decoration-style:solid;text-decoration-color:#000000;letter-spacing:normal;word-spacing:normal;text-transform:none;writing-mode:lr-tb;direction:ltr;text-orientation:mixed;dominant-baseline:auto;baseline-shift:baseline;text-anchor:start;white-space:normal;shape-padding:0;clip-rule:nonzero;display:inline;overflow:visible;visibility:visible;opacity:0.1;isolation:auto;mix-blend-mode:normal;color-interpolation:sRGB;color-interpolation-filters:linearRGB;solid-color:#000000;solid-opacity:1;vector-effect:none;fill:#000000;fill-opacity:1;fill-rule:nonzero;stroke:none;stroke-width:0.264583;stroke-linecap:butt;stroke-linejoin:miter;stroke-miterlimit:4;stroke-dasharray:none;stroke-dashoffset:0;stroke-opacity:1;marker:none;color-rendering:auto;image-rendering:auto;shape-rendering:auto;text-rendering:auto;enable-background:accumulate"
     id="path1783"
     sodipodi:nodetypes="scccsscscccccsssscccscs" />
  <path
     d="m 1.0852044,0.26458333 c -0.1902751,0 -0.3452363,0.00331 -0.4857592,0.026871 -0.1416764,0.02376 -0.2823924,0.07329 -0.3906731,0.1813851 C 0.1004067,0.58102763 0.0507126,0.72133083 0.026871,0.8629967 0.003244,1.003411 0,1.1583563 0,1.3482372 v 1.5368586 c 0,0.1898914 0.00328,0.3446571 0.026871,0.4852408 0.023813,0.1419513 0.073806,0.2828446 0.1819011,0.3911914 0.1080637,0.1083152 0.2484411,0.1577393 0.3906731,0.1813825 0.1407425,0.023389 0.2960397,0.026765 0.4862777,0.02585 h 1.0309437 1.0309435 c 0.190119,7.938e-4 0.3454508,-0.00238 0.4862777,-0.02585 C 3.7761228,3.9192832 3.9165001,3.8698458 4.0245612,3.761528 4.1326541,3.6531785 4.1821153,3.51228 4.2059437,3.3703366 4.2295445,3.2297499 4.2333331,3.0749872 4.2333331,2.8850958 V 1.3482372 c 0,-0.1898809 -0.00376,-0.3448262 -0.02739,-0.4852405 C 4.1821047,0.72133613 4.132929,0.58103023 4.0245612,0.47283943 3.9162776,0.36474663 3.7755563,0.31521923 3.6338878,0.29145433 3.4933652,0.26788003 3.3384038,0.26458333 3.1481289,0.26458333 H 2.1166666 Z"
     style="color:#000000;font-style:normal;font-variant:normal;font-weight:normal;font-stretch:normal;font-size:medium;line-height:normal;font-family:sans-serif;font-variant-ligatures:normal;font-variant-position:normal;font-variant-caps:normal;font-variant-numeric:normal;font-variant-alternates:normal;font-feature-settings:normal;text-indent:0;text-align:start;text-decoration:none;text-decoration-line:none;text-decoration-style:solid;text-decoration-color:#000000;letter-spacing:normal;word-spacing:normal;text-transform:none;writing-mode:lr-tb;direction:ltr;text-orientation:mixed;dominant-baseline:auto;baseline-shift:baseline;text-anchor:start;white-space:normal;shape-padding:0;clip-rule:nonzero;display:inline;overflow:visible;visibility:visible;opacity:0.3;isolation:auto;mix-blend-mode:normal;color-interpolation:sRGB;color-interpolation-filters:linearRGB;solid-color:#000000;solid-opacity:1;vector-effect:none;fill:#000000;fill-opacity:1;fill-rule:nonzero;stroke:none;stroke-width:0.0700042;stroke-linecap:butt;stroke-linejoin:miter;stroke-miterlimit:4;stroke-dasharray:none;stroke-dashoffset:0;stroke-opacity:1;marker:none;color-rendering:auto;image-rendering:auto;shape-rendering:auto;text-rendering:auto;enable-background:accumulate"
     id="path2084" />
  <path
     d="m 1.0852044,0.39700505 c -0.1881743,-7.9374e-4 -0.3374655,0.002725 -0.46405267,0.0237596 -0.1267301,0.0210608 -0.2369317,0.0625872 -0.3188441,0.14469533 -0.081915,0.0821081 -0.12344129,0.1927516 -0.14469529,0.31936002 -0.0201877,0.1203166 -0.0243946,0.263226 -0.0247915,0.4382161 -2.117e-5,0.00915 -5.2917e-4,0.015981 -5.2917e-4,0.025321 v 1.5368587 c 0,0.1879812 0.004048,0.3366452 0.0253206,0.4630208 0.021273,0.126373 0.062741,0.2370217 0.14469533,0.3188441 0.081955,0.081812 0.1923018,0.1229492 0.3188441,0.1441768 0.12653957,0.021219 0.27569847,0.025321 0.4640527,0.025321 h 1.0314622 1.0314623 c 0.1883542,0 0.3375131,-0.0041 0.4640527,-0.025321 C 3.7387238,3.7900375 3.849071,3.7488895 3.9310257,3.6670807 4.0129807,3.5852607 4.0544538,3.4746096 4.075721,3.3482366 4.096994,3.221861 4.101042,3.073197 4.101042,2.8852158 v -1.536859 c 0,-0.00934 -5.292e-4,-0.016166 -5.292e-4,-0.025321 C 4.0999833,1.148046 4.0959087,1.005134 4.075721,0.88481999 4.0544749,0.75821422 4.0129407,0.64756547 3.9310257,0.56545997 3.8491133,0.48335447 3.7389117,0.44183076 3.6121816,0.42076464 3.4854541,0.3997038 3.3360836,0.39607901 3.1476103,0.39700505 H 2.1166666 Z"
     style="color:#000000;display:inline;overflow:visible;visibility:visible;fill:url(#linearGradient2684);fill-opacity:1;fill-rule:nonzero;stroke:none;stroke-width:0.264583;marker:none;enable-background:accumulate"
     id="path924" />
  <path
     id="rect1059-1-3-9-3"
     style="display:inline;opacity:0.1;fill:#000000;fill-opacity:1;stroke:none;stroke-width:0.172263;stroke-linecap:round;stroke-linejoin:round;enable-background:new"
     d="m 1.0852044,0.39700505 c -0.1921404,0 -0.3434688,0.004286 -0.4676166,0.0250296 -0.1242589,0.0207698 -0.2255573,0.0596715 -0.2999449,0.13368072 -0.0744141,0.0740383 -0.1135909,0.17512506 -0.1344718,0.29877281 -0.00743,0.044013 -0.012197,0.09293 -0.016007,0.1444307 -0.006879,0.093006 -0.00926,0.19774962 -0.00926,0.32076762 V 2.7186524 L 2.1422783,2.0307595 1.7108911,0.39701035 Z" />
  <path
     id="rect1059-2-6-2-7"
     style="display:inline;opacity:0.12;fill:#eaffcf;fill-opacity:1;stroke:none;stroke-width:0.172263;stroke-linecap:round;stroke-linejoin:round;enable-background:new"
     d="m 2.1422678,2.0307542 0.6039405,1.8057204 h 0.4527868 c 0.192151,7.937e-4 0.343617,-0.00328 0.4677833,-0.023839 0.1243806,-0.020611 0.2257557,-0.059732 0.3001169,-0.1340194 0.074345,-0.074271 0.1134295,-0.1753579 0.1343025,-0.2992755 0.020849,-0.1237615 0.025453,-0.274402 0.025453,-0.465537 V 2.4606942 Z" />
  <path
     d="m 2.1166666,1.3229167 c -0.5845013,0 -1.0583333,0.473832 -1.0583333,1.0583333 0,0.5845014 0.473832,1.0583334 1.0583333,1.0583334 C 2.701168,3.4395834 3.175,2.9657514 3.175,2.38125 3.175,1.7967487 2.701168,1.3229167 2.1166666,1.3229167 Z m 0,0.3172933 C 2.525979,1.6400958 2.8578207,1.9719376 2.8577066,2.38125 2.8578207,2.7905624 2.525979,3.1224041 2.1166666,3.12229 1.8201784,3.1219604 1.5524414,2.9448919 1.4360881,2.6721883 l 0.093018,-0.054777 C 1.6253352,2.857723 1.8578053,3.0155656 2.1166666,3.0163535 2.4674483,3.0164107 2.7518273,2.7320317 2.7517701,2.38125 2.7518273,2.0304684 2.4674482,1.7460895 2.1166666,1.7461466 1.8578053,1.7469346 1.6253353,1.9047771 1.5291056,2.1450887 L 1.436088,2.0903117 C 1.5524414,1.817608 1.8201784,1.6405397 2.1166666,1.64021 Z m 0,0.254248 C 2.385505,1.8944808 2.6034358,2.1124116 2.6034586,2.38125 2.6034358,2.6500884 2.385505,2.8680192 2.1166666,2.868042 1.9098627,2.8676935 1.725848,2.7367282 1.6577799,2.541447 l 0.088883,-0.05271 0.00568,-0.00207 C 1.7992019,2.6491613 1.9475573,2.7613222 2.1166665,2.762106 2.326974,2.7620261 2.497442,2.5915582 2.4975218,2.3812507 2.497442,2.1709432 2.326974,2.0004752 2.1166665,2.0003954 1.9478928,2.0013399 1.799854,2.1132107 1.7528645,2.275314 l -0.0062,-0.00155 -0.088884,-0.05271 C 1.725848,2.0257719 1.9098627,1.8948065 2.1166666,1.894458 Z M 1.2603882,2.1037476 1.7306437,2.38125 1.2598714,2.6587525 Z"
     style="opacity:0.1;fill:#000000;fill-opacity:1;stroke-width:0.264583"
     id="path3257" />
  <path
     id="path3038"
     style="opacity:1;fill:#eaffcf;fill-opacity:1;stroke-width:0.999999"
     d="m 8,4 c -2.209139,1e-7 -3.9999999,1.790861 -4,4 1e-7,2.209139 1.790861,4 4,4 2.209139,0 4,-1.790861 4,-4 C 12,5.790861 10.209139,4.0000001 8,4 Z M 8,5.1992188 C 9.5470074,5.1987872 10.801213,6.4529926 10.800781,8 10.801213,9.5470074 9.5470074,10.801213 8,10.800781 6.8794145,10.799535 5.8674951,10.1303 5.4277344,9.0996094 L 5.7792969,8.8925781 C 6.1429992,9.8008428 7.0216262,10.397413 8,10.400391 9.3257888,10.400607 10.400607,9.3257888 10.400391,8 10.400607,6.6742113 9.3257887,5.5993934 8,5.5996094 7.0216263,5.6025874 6.1429994,6.1991574 5.7792969,7.1074219 L 5.4277344,6.9003906 C 5.867495,5.8696995 6.8794145,5.2004651 8,5.1992188 Z M 8,6.1601562 C 9.0160819,6.1602425 9.8397575,6.9839181 9.8398438,8 9.8397575,9.0160819 9.0160819,9.8397575 8,9.8398438 7.2183787,9.8385267 6.5228902,9.3435394 6.265625,8.6054688 L 6.6015625,8.40625 6.6230469,8.3984375 C 6.8001337,9.0125756 7.360847,9.4364908 8,9.4394531 8.7948629,9.4391513 9.4391513,8.7948629 9.4394531,8 9.4391513,7.2051371 8.7948629,6.5608487 8,6.5605469 7.3621148,6.5641193 6.8025984,6.9869356 6.625,7.5996094 L 6.6015625,7.59375 6.265625,7.3945312 C 6.5228902,6.6564606 7.2183787,6.1614733 8,6.1601562 Z M 4.7636719,6.9511719 6.5410156,8 4.7617188,9.0488281 Z"
     transform="scale(0.26458333)"
     sodipodi:nodetypes="ssssscccccccccccccccccccccccccccc" />
  <path
     id="path1295"
     style="color:#000000;display:inline;opacity:0.3;fill:url(#linearGradient2792);fill-opacity:1;stroke:none;stroke-width:0.999999;-inkscape-stroke:none;enable-background:new"
     d="M 4.1015625,2 C 3.3969327,2 2.8551073,2.0165936 2.4296875,2.0878906 2.0086175,2.1584994 1.7063451,2.2842597 1.4960938,2.4941406 1.2861754,2.7037128 1.1585905,3.0079306 1.0878906,3.4277344 1.0163933,3.852308 1,4.3924302 1,5.0957031 v 5.8085939 c 0,0.703223 0.01649,1.244248 0.087891,1.669922 0.07057,0.420494 0.1975531,0.724415 0.4082032,0.935547 0.21076,0.211241 0.5132037,0.336352 0.9335937,0.40625 C 2.8551274,13.986712 3.3969323,14.003 4.1015625,14 H 8 h 3.898438 0.002 c 0.70386,0.003 1.245301,-0.01349 1.669921,-0.08398 0.420371,-0.06986 0.722833,-0.194997 0.933594,-0.40625 0.210648,-0.211143 0.335649,-0.515003 0.40625,-0.935547 C 14.981552,12.148545 15,11.60752 15,10.904297 V 5.0957031 C 15,4.3924306 14.981657,3.852308 14.910156,3.4277344 14.839475,3.0079004 14.713825,2.7037041 14.503906,2.4941406 14.293656,2.2842676 13.991413,2.1584884 13.570312,2.0878906 13.144893,2.0165105 12.603067,2 11.898438,2 H 8 Z m 0,1 H 8 11.898438 c 0.686269,0 1.194379,0.022016 1.505859,0.074219 0.311471,0.052199 0.376438,0.1127865 0.392578,0.1289062 0.0161,0.016101 0.0767,0.080304 0.128906,0.390625 C 13.97798,3.9040681 14,4.410903 14,5.0957031 v 5.8085939 c 0,0.6848 -0.02378,1.192116 -0.07617,1.503906 -0.0523,0.3118 -0.110486,0.378031 -0.126953,0.394531 -0.01652,0.01652 -0.0806,0.07539 -0.390625,0.126954 -0.31005,0.0515 -0.818546,0.07371 -1.503906,0.07031 h -0.002 H 8 4.0996094 4.0976562 c -0.6853701,0.003 -1.1938561,-0.01881 -1.5039062,-0.07031 -0.31005,-0.0515 -0.374155,-0.110444 -0.390625,-0.126954 -0.0165,-0.0165 -0.074603,-0.0827 -0.1269531,-0.394531 C 2.0238719,12.096413 2,11.589097 2,10.904297 V 5.0957031 C 2,4.410903 2.0220193,3.9040699 2.0742188,3.59375 2.1264189,3.2834281 2.1869849,3.2192358 2.203125,3.203125 2.2192258,3.1870242 2.2842231,3.1264291 2.5957031,3.0742188 2.9071831,3.0219176 3.4153027,3 4.1015625,3 Z"
     transform="scale(0.26458333)"
     sodipodi:nodetypes="scccsscsccccccscsscccscsscssccssccccccccsccsssccs" />
  <path
     d="m 1.0852044,0.26458333 c -0.19027246,0 -0.34523627,0.003307 -0.48575912,0.0268701 C 0.45776884,0.31521209 0.31705284,0.36474019 0.20877211,0.47283154 0.10040672,0.5810155 0.05071268,0.72131337 0.02687108,0.86297375 0.00324378,1.0033802 -2e-8,1.1583247 -2e-8,1.3481957 v 1.5367998 c 0,0.1898842 0.003281,0.3446436 0.0268711,0.4852219 0.0238125,0.1419462 0.0738055,0.2828341 0.18190103,0.3911768 0.10806377,0.108311 0.24844375,0.1577333 0.39067317,0.1813755 0.14074245,0.023388 0.29603964,0.026764 0.48627772,0.025849 h 1.0309437 1.0309436 c 0.190119,7.937e-4 0.3454506,-0.00238 0.4862751,-0.025849 C 3.7761227,3.9191433 3.9165,3.8697079 4.0245612,3.7613942 4.132654,3.6530489 4.1821153,3.5121557 4.2059436,3.3702174 4.2295445,3.2296365 4.2333333,3.0748797 4.2333333,2.8849955 V 1.3481957 c 0,-0.189871 -0.00376,-0.3448155 -0.02739,-0.48522195 C 4.1821047,0.72131866 4.1329292,0.5810155 4.0245612,0.47283152 3.9162778,0.3647428 3.7755565,0.31521734 3.6338854,0.29145338 3.4933652,0.2678799 3.3384013,0.26458333 3.1481289,0.26458333 H 2.1166667 Z m 0,0.26457318 h 1.0314623 1.0314622 c 0.1864333,0 0.3297899,0.004366 0.4423489,0.023256 0.1114161,0.0186789 0.1913864,0.0519542 0.247015,0.10748286 0.055541,0.0554466 0.088786,0.13592183 0.107487,0.24700289 0.018918,0.11233514 0.02376,0.25522584 0.02376,0.44130004 v 1.5367998 c 0,0.1860612 -0.00487,0.32919 -0.02376,0.4418161 -0.01868,0.1112689 -0.051753,0.1916568 -0.107487,0.2475215 -0.055764,0.055894 -0.1357921,0.089 -0.247015,0.1074829 -0.1123474,0.018652 -0.2556034,0.023018 -0.441833,0.022224 H 3.1481157 2.1166667 1.0852044 C 0.89877104,3.7048364 0.7554198,3.7005238 0.64285546,3.6818186 0.53162728,3.6633249 0.45160405,3.6302267 0.39584047,3.5743357 0.34010599,3.5184737 0.3065092,3.4380699 0.28783755,3.3268142 0.2689463,3.2141881 0.26458068,3.0710566 0.26458068,2.8849955 V 1.3481957 c 0,-0.1860743 0.004339,-0.328965 0.0232569,-0.44130013 C 0.30654358,0.79582247 0.34029918,0.71534196 0.3958405,0.6598927 0.4514691,0.6043614 0.53144739,0.5710914 0.64285549,0.55240984 0.75541453,0.53354574 0.89877107,0.52915384 1.0852044,0.52915384 Z"
     style="color:#000000;display:inline;opacity:0.3;fill:#000000;stroke-width:0.264578;-inkscape-stroke:none;enable-background:new"
     id="path2288" />
</svg>
