<svg width="22" height="22" version="1.1" xmlns="http://www.w3.org/2000/svg">
 <path d="m5.7129 5.0005c-1.058-0.013-1.7678 0.22411-2.1328 0.66211-0.383 0.456-0.58008 1.2041-0.58008 2.2441v6.1875c0 1.04 0.19708 1.7881 0.58008 2.2441 0.365 0.438 1.0748 0.66211 2.1328 0.66211h6.2871v-2.998h1v-2e-3a3 3 0 0 1 0.05664-0.57812c3e-3 -0.01513 0.0066-0.02987 0.0098-0.04492a3 3 0 0 1 0.16211-0.52734c0.0019-0.0046 0.0039-0.0091 0.0059-0.01367a3 3 0 0 1 0.26562-0.49609c0.0015-0.0023 0.0043-0.0036 0.0059-0.0059a3 3 0 0 1 0.35547-0.4375 3 3 0 0 1 0.13867-0.13086v-3.7656h2c1.099 0 2 0.901 2 2v1.7656a3 3 0 0 1 0.15234 0.14453c0.0026 0.0026 0.0053 0.0052 0.0078 0.0078a3 3 0 0 1 0.0059 0.0078 3 3 0 0 1 0.27734 0.33398c0.0019 0.0027 4e-3 0.0051 0.0059 0.0078a3 3 0 0 1 0.0039 0.0078 3 3 0 0 1 0.2207 0.36719c0.0028 0.0055 7e-3 0.01013 0.0098 0.01563a3 3 0 0 1 0.0059 0.01172 3 3 0 0 1 0.16211 0.40234c0.0011 0.0033 0.0028 0.0064 0.0039 0.0098a3 3 0 0 1 2e-3 0.0078 3 3 0 0 1 0.10547 0.44141 3 3 0 0 1 0.03711 0.46875v-6.0937c0-1.04-0.19512-1.7881-0.57812-2.2441-0.365-0.438-1.0768-0.66211-2.1348-0.66211h-10.574zm-1.7129 3h1v5c1.11 0 2-0.89 2-2v-3h1v3c0 1.651-1.35 3-3 3h-1zm5 0h2c1.099 0 2 0.901 2 2s-0.901 2-2 2h-1v2h-1v-5zm6 1v2.1738a3 3 0 0 1 0.33984-0.09961c0.0041-9.14e-4 0.0076-3e-3 0.01172-0.0039a3 3 0 0 1 0.0078 0 3 3 0 0 1 0.58984-0.07031 3 3 0 0 1 0.05078 0 3 3 0 0 1 1 0.17188v-1.1719c0-0.558-0.442-1-1-1h-1z" fill="#666666"/>
 <path d="m10 9.0005v2h1c0.558 0 1-0.442 1-1s-0.442-1-1-1z" fill="#666666"/>
 <path d="m16 12.001c-1.108 0-2 0.91025-2 2.0313v0.9707h-1v4h6v-4h-1v-0.9707c0-1.12-0.892-2.0293-2-2.0293zm0 1c0.554 0 1 0.442 1 1v1h-2v-1c0-0.558 0.446-1 1-1z" fill="#666666" style="font-feature-settings:normal;font-variant-alternates:normal;font-variant-caps:normal;font-variant-ligatures:normal;font-variant-numeric:normal;font-variant-position:normal;isolation:auto;mix-blend-mode:normal;shape-padding:0;text-decoration-color:#000000;text-decoration-line:none;text-decoration-style:solid;text-indent:0;text-orientation:mixed;text-transform:none"/>
</svg>
