<svg width="16" height="16" version="1.1" viewBox="0 0 16 16" xmlns="http://www.w3.org/2000/svg">
 <defs>
  <style id="current-color-scheme" type="text/css">.ColorScheme-Text { color:#dfdfdf; }</style>
 </defs>
 <path d="m8 3c-2.1456 0-4.0949 0.51268-5.5488 1.3809-1.454 0.86818-2.4512 2.1408-2.4512 3.6191 7.1295e-16 1.4784 0.99722 2.751 2.4512 3.6191 1.454 0.86818 3.4032 1.3809 5.5488 1.3809s4.0949-0.51268 5.5488-1.3809c1.454-0.86818 2.4512-2.1408 2.4512-3.6191s-0.99722-2.751-2.4512-3.6191c-1.454-0.86818-3.4032-1.3809-5.5488-1.3809zm0 1.1074c1.9669 0 3.7413 0.48354 4.9824 1.2246 1.2411 0.74107 1.9102 1.6907 1.9102 2.668s-0.66907 1.9269-1.9102 2.668c-1.2411 0.74107-3.0155 1.2246-4.9824 1.2246s-3.7413-0.48354-4.9824-1.2246c-1.2411-0.74107-1.9102-1.6907-1.9102-2.668s0.66907-1.9269 1.9102-2.668c1.2411-0.74107 3.0155-1.2246 4.9824-1.2246z" color="#000000" color-rendering="auto" dominant-baseline="auto" fill="#dfdfdf" image-rendering="auto" shape-rendering="auto" solid-color="#000000" stop-color="#000000" style="font-feature-settings:normal;font-variant-alternates:normal;font-variant-caps:normal;font-variant-east-asian:normal;font-variant-ligatures:normal;font-variant-numeric:normal;font-variant-position:normal;font-variation-settings:normal;inline-size:0;isolation:auto;mix-blend-mode:normal;shape-margin:0;shape-padding:0;text-decoration-color:#000000;text-decoration-line:none;text-decoration-style:solid;text-indent:0;text-orientation:mixed;text-transform:none;white-space:normal"/>
</svg>
