<svg width="8" height="8" version="1.1" xmlns="http://www.w3.org/2000/svg">
 <rect transform="matrix(0,-1,-1,0,0,0)" x="-8" y="-8" width="8" height="8" rx="1" ry="1" enable-background="new" fill="#618bf5"/>
 <path d="m4.9338 1.5986c-0.16879 0-0.32791 0.0313-0.47404 0.0945l-2.9e-4 1e-4 -1.9e-4 1.1e-4c-0.14531 0.06-0.2732 0.14776-0.38013 0.2614l-1.8e-4 1.8e-4 -5.6e-4 8.6e-4 -2.9e-4 2.8e-4c-0.10413 0.11424-0.18488 0.25183-0.24207 0.40948v1.1e-4l-1.1e-4 1.9e-4c-0.0578 0.15684-0.0863 0.32945-0.0863 0.51569 0 0.18902 0.0283 0.36285 0.0863 0.51993 0.0573 0.15517 0.13813 0.29129 0.24216 0.40543l3e-4 2.9e-4 5.5e-4 5.6e-4 3e-4 3e-4c0.1069 0.11364 0.23449 0.20286 0.37956 0.26574l2.9e-4 1.1e-4 2.9e-4 2.8e-4 2.9e-4 2e-4 2.9e-4 1e-4c0.14608 0.0601 0.305 0.0899 0.47365 0.0899 0.16864 0 0.32766-0.0298 0.47375-0.0899l5.4e-4 -2.8e-4 5.6e-4 -3e-4c0.14527-0.063 0.27174-0.15271 0.37599-0.26698l1.9e-4 -2e-4 1.1e-4 -1e-4c0.10688-0.11403 0.18949-0.25023 0.24679-0.40544 0.058-0.15707 0.0861-0.3309 0.0861-0.51993 0-0.18596-0.0282-0.35828-0.0859-0.51492l-3e-4 -8.5e-4c-0.0572-0.15767-0.13962-0.29527-0.24659-0.40938l-1e-4 -1.1e-4 -1.9e-4 -1.9e-4c-0.10432-0.11435-0.23118-0.20265-0.37677-0.26274l-2.9e-4 -1.1e-4 -1.9e-4 -1e-4c-0.14584-0.063-0.30474-0.0944-0.47316-0.0945zm-5.6e-4 0.20129h5.6e-4c0.14454 0 0.27535 0.0263 0.39532 0.0783l3e-4 1e-4 2.9e-4 2e-4 2.9e-4 1.9e-4 2.9e-4 1.1e-4c0.12023 0.0495 0.22124 0.11997 0.30604 0.21301l2.9e-4 2.9e-4 5.6e-4 8.6e-4c0.0875 0.0932 0.15583 0.20606 0.20493 0.34174l5.5e-4 3e-3 3e-4 2e-3v1.9e-4c0.048 0.13111 0.0727 0.27808 0.0727 0.44276 0 0.16905-0.0251 0.31848-0.0738 0.45018-0.049 0.13281-0.11724 0.24461-0.20512 0.33818l-3e-4 2.9e-4 -5.4e-4 5.6e-4 -2.9e-4 2.9e-4c-0.0848 0.093-0.186 0.16489-0.30624 0.21723l-3e-4 2.1e-4 -2.9e-4 1.1e-4c-0.12013 0.0494-0.25132 0.0744-0.3962 0.0744-0.14486 0-0.27606-0.0251-0.39619-0.0744l-2.9e-4 -1.1e-4 -2.9e-4 -2.1e-4c-0.12022-0.0523-0.22309-0.12444-0.31096-0.21771l-1.8e-4 -2e-4 -1.9e-4 -2e-4c-0.085-0.0935-0.15223-0.2056-0.20137-0.33875-0.0486-0.13169-0.0738-0.28112-0.0738-0.45018 0-0.16501 0.0249-0.31233 0.0731-0.44363l2.9e-4 -2e-3 1.9e-4 -2.9e-4 1.9e-4 -5.4e-4c0.0492-0.13604 0.11643-0.24913 0.20117-0.34233l3.8e-4 -3.8e-4c0.0879-0.0933 0.19047-0.164 0.31067-0.21349l5.5e-4 -1.8e-4 1.1e-4 -1.2e-4 5.5e-4 -1.9e-4c0.11984-0.0519 0.25052-0.0783 0.39485-0.0784zm-2.4456 0.39024c-0.12783 0-0.24923 0.024-0.36059 0.072l-1.9e-4 1.2e-4 -1.8e-4 1.1e-4c-0.11075 0.0458-0.20875 0.11293-0.29028 0.19963l-2.8e-4 2.9e-4 -1.9e-4 2e-4 -1.8e-4 2e-4 -2.9e-4 2.8e-4c-0.0796 0.0873-0.14104 0.19229-0.18435 0.31183l-1.8e-4 2.8e-4c-3e-5 4e-5 -3e-5 1.9e-4 -1.1e-4 1.9e-4 -0.0437 0.11891-0.065 0.24926-0.065 0.38918 0 0.1423 0.0214 0.27402 0.0654 0.39341 0.0434 0.11749 0.10493 0.22126 0.18425 0.30826l2.9e-4 3e-4 5.6e-4 5.4e-4c0.0814 0.0866 0.17907 0.15477 0.2895 0.20263l1.9e-4 1.1e-4 2e-3 5.5e-4 1.1e-4 1.1e-4c0.11115 0.0457 0.23214 0.0681 0.35963 0.0681 0.12754 0 0.24838-0.0224 0.35955-0.0681 4e-5 -3e-5 1.9e-4 -3e-5 1.9e-4 -1.1e-4l8.6e-4 -5.5e-4 5.5e-4 -3e-4c0.1105-0.0479 0.20729-0.11636 0.28681-0.20348l1.8e-4 -2e-4 1.2e-4 -1.9e-4c0.0813-0.0869 0.14431-0.19065 0.1877-0.30817 0.0441-0.1194 0.0654-0.2511 0.0654-0.3934 0-0.14004-0.0213-0.27048-0.0651-0.38946l-1.2e-4 -3e-4c-0.0434-0.1197-0.1062-0.22479-0.188-0.31202l-1.9e-4 -1.9e-4 -1e-4 -1.9e-4c-0.0796-0.0871-0.17667-0.15448-0.28739-0.20021l-1.8e-4 -1.1e-4 -1.9e-4 -1.1e-4c-0.11138-0.0481-0.23266-0.072-0.3605-0.072zm-6e-3 0.20137h6e-3c0.10358 0 0.19651 0.0187 0.28171 0.0557l2.9e-4 1.1e-4 5.6e-4 1.9e-4 5.4e-4 2.9e-4c0.0853 0.0351 0.1564 0.0849 0.21638 0.15057l3e-4 3e-4 2.9e-4 1.8e-4 5.5e-4 5.6e-4c0.0622 0.0661 0.1108 0.14652 0.14606 0.24389l2.8e-4 2e-3c0.0346 0.094 0.0526 0.20006 0.0526 0.31972 0 0.12231-0.0181 0.22964-0.0528 0.32365-0.0352 0.0953-0.0839 0.17473-0.14643 0.24121l-2.9e-4 2.9e-4 -2.9e-4 1.9e-4 -4.8e-4 4.8e-4c-0.0601 0.066-0.13191 0.11677-0.21753 0.15404l-2.9e-4 1.9e-4 -2.9e-4 1.1e-4c-0.0852 0.0349-0.17827 0.0529-0.282 0.0529-0.10375 0-0.19697-0.018-0.28219-0.0529l-2.9e-4 -1.1e-4 -2.9e-4 -1.9e-4c-0.0856-0.0373-0.15838-0.0883-0.2208-0.15442l-1.9e-4 -2e-4 -1.9e-4 -1.9e-4c-0.0604-0.0664-0.10845-0.14591-0.14373-0.24149-0.0347-0.0941-0.0528-0.20143-0.0528-0.32375 0-0.11982 0.018-0.22599 0.0527-0.32009 3e-5 -1.9e-4 3e-5 -3e-4 1e-4 -5.6e-4l1.2e-4 -1.2e-4 1.1e-4 -2.9e-4c0.0354-0.0977 0.0835-0.1781 0.14354-0.24418l1.9e-4 -1.9e-4 1.8e-4 -2e-4c0.0624-0.066 0.13468-0.1161 0.22004-0.15124l5.6e-4 -1.9e-4 5.5e-4 -2.9e-4c0.083-0.036 0.17385-0.054 0.2742-0.0549zm2.4801 2.2079c-0.88765 0-1.4288 0.0809-1.7669 0.33154-0.16853 0.12488-0.27931 0.29425-0.343 0.49692-0.0612 0.19507-0.0815 0.43966-0.0837 0.70519l0.20137 5.5e-4c3e-3 -0.25438 0.0228-0.48075 0.0744-0.64525 0.0538-0.17117 0.13688-0.29635 0.27084-0.39561 0.26938-0.19964 0.77258-0.292 1.6469-0.292s1.3775 0.0924 1.6467 0.292c0.13381 0.0992 0.21679 0.22437 0.27035 0.39552 0.0514 0.16448 0.0716 0.3908 0.0735 0.64515l0.20138-1.9e-4c-2e-3 -0.26555-0.0216-0.51001-0.0826-0.70509-0.0634-0.20269-0.17427-0.37221-0.34271-0.49711-0.33797-0.25065-0.87888-0.33156-1.7665-0.33156zm-2.5341-0.0422c-0.62928 2e-3 -1.001 0.0632-1.2532 0.25132-0.1276 0.0952-0.21237 0.22649-0.25996 0.3808-0.0478 0.15488-0.0627 0.33355-0.0632 0.54465v0.30103h0.20127v-0.30074c2.9e-4 -0.20119 0.0161-0.3619 0.0542-0.48558 0.0379-0.12301 0.0953-0.20966 0.1879-0.27873 0.18403-0.13728 0.51786-0.20893 1.1329-0.2113z" color="#000000" color-rendering="auto" dominant-baseline="auto" fill="#fff" image-rendering="auto" shape-rendering="auto" solid-color="#000000" stroke="#fff" stroke-width=".2" style="font-feature-settings:normal;font-variant-alternates:normal;font-variant-caps:normal;font-variant-ligatures:normal;font-variant-numeric:normal;font-variant-position:normal;isolation:auto;mix-blend-mode:normal;shape-padding:0;text-decoration-color:#000000;text-decoration-line:none;text-decoration-style:solid;text-indent:0;text-orientation:mixed;text-transform:none;white-space:normal"/>
</svg>
