<svg width="8" height="8" version="1.1" xmlns="http://www.w3.org/2000/svg" xmlns:xlink="http://www.w3.org/1999/xlink">
 <defs>
  <linearGradient id="linearGradient932-3" x1="256" x2="256" y1="375" y2="135.28" gradientTransform="matrix(.021741 0 0 .021741 -1.5586 -1.56)" gradientUnits="userSpaceOnUse">
   <stop stop-color="#f5f5f5" offset="0"/>
   <stop stop-color="#f1d7e9" offset="1"/>
  </linearGradient>
 </defs>
 <rect transform="matrix(0,-1,-1,0,0,0)" x="-8" y="-8" width="8" height="8" rx="1" ry="1" enable-background="new" fill="#c43ac4"/>
 <path d="m1.9938 1.3968v5.2178s2.4728-1.0696 4.6352-2.6106c0-3.6e-4 -3.8e-4 -5.2e-4 -3.8e-4 -2e-3 -1.7e-4 -5.2e-4 -5.1e-4 -7.4e-4 -2e-3 -3e-3 -3.8e-4 -3.7e-4 -5.3e-4 -7.5e-4 -7.6e-4 -3e-3 -3.8e-4 -5.2e-4 -3.8e-4 -2e-3 -3.8e-4 -3e-3 -2.2806-1.59-4.6317-2.6007-4.6317-2.6007z" color="#000000" fill="url(#linearGradient932-3)"/>
</svg>
