<svg width="8" height="8" version="1.1" xmlns="http://www.w3.org/2000/svg">
 <rect transform="matrix(0,-1,-1,0,0,0)" x="-8" y="-8" width="8" height="8" rx="1" ry="1" enable-background="new" fill="#618bf5"/>
 <g transform="matrix(.39139 0 0 .39139 -129.95 -33.965)" enable-background="new" fill="none" stroke="#fff" stroke-dashoffset="1" stroke-linejoin="round">
  <g transform="matrix(1.1803 0 0 1.1803 -413.26 -172.72)" enable-background="new" stroke-width=".88889">
   <ellipse cx="639.95" cy="224.89" rx="3.2828" ry="3.5556" stroke-linecap="round"/>
   <path d="m633.33 235.56c0-3.5 1.6667-4.4444 6.6667-4.4444s6.6667 0.94444 6.6667 4.4444z"/>
  </g>
  <g transform="matrix(1.1803 0 0 1.1803 -413.06 -172.56)" enable-background="new" stroke-width="1.0499">
   <ellipse cx="639.95" cy="224.89" rx="3.2828" ry="3.5556" stroke-linecap="round"/>
   <path d="m633.33 235.56c0-3.5 1.6667-4.4444 6.6667-4.4444s6.6667 0.94444 6.6667 4.4444z"/>
  </g>
 </g>
</svg>
