<?xml version="1.0" encoding="UTF-8" standalone="no"?>
<!-- Created with Inkscape (http://www.inkscape.org/) -->

<svg
   width="16"
   height="16"
   viewBox="0 0 4.2333333 4.2333333"
   version="1.1"
   id="svg1003"
   sodipodi:docname="camera-video.svg"
   inkscape:version="1.1.2 (0a00cf5339, 2022-02-04)"
   xmlns:inkscape="http://www.inkscape.org/namespaces/inkscape"
   xmlns:sodipodi="http://sodipodi.sourceforge.net/DTD/sodipodi-0.dtd"
   xmlns:xlink="http://www.w3.org/1999/xlink"
   xmlns="http://www.w3.org/2000/svg"
   xmlns:svg="http://www.w3.org/2000/svg">
  <sodipodi:namedview
     id="namedview1005"
     pagecolor="#ffffff"
     bordercolor="#666666"
     borderopacity="1.0"
     inkscape:pageshadow="2"
     inkscape:pageopacity="0.0"
     inkscape:pagecheckerboard="0"
     inkscape:document-units="px"
     showgrid="false"
     units="px"
     showguides="true"
     inkscape:lockguides="true"
     inkscape:zoom="40.002039"
     inkscape:cx="9.5120151"
     inkscape:cy="11.799399"
     inkscape:window-width="1920"
     inkscape:window-height="995"
     inkscape:window-x="0"
     inkscape:window-y="0"
     inkscape:window-maximized="1"
     inkscape:current-layer="svg1003" />
  <defs
     id="defs1000">
    <linearGradient
       inkscape:collect="always"
       xlink:href="#linearGradient1871"
       id="linearGradient16320"
       x1="10"
       y1="4"
       x2="10"
       y2="29.100245"
       gradientUnits="userSpaceOnUse"
       gradientTransform="matrix(0.13229166,0,0,0.12211538,0,0.04070512)" />
    <linearGradient
       inkscape:collect="always"
       id="linearGradient1871">
      <stop
         style="stop-color:#ffffff;stop-opacity:1;"
         offset="0"
         id="stop1867" />
      <stop
         style="stop-color:#ffffff;stop-opacity:0.1"
         offset="0.12"
         id="stop2515" />
      <stop
         style="stop-color:#ffffff;stop-opacity:0.102"
         offset="0.89999998"
         id="stop2581" />
      <stop
         style="stop-color:#ffffff;stop-opacity:0.502"
         offset="1"
         id="stop1869" />
    </linearGradient>
  </defs>
  <path
     d="M 1.0583333,0.396875 H 3.175 c 0.7935019,1.919e-4 0.9259876,0.157244 0.9260416,0.9921875 V 2.8376562 C 4.1009876,3.6238466 3.9685019,3.8366501 3.175,3.8364583 H 1.0583333 c -0.79355622,0 -0.92604169,-0.2128036 -0.92604169,-0.9988021 V 1.3890625 c 0,-0.7859985 0.13248546,-0.9921875 0.92604169,-0.9921875 z"
     style="fill:#e6e6e6;fill-opacity:1;stroke-width:0.0653156;stroke-linejoin:round"
     id="path17503"
     sodipodi:nodetypes="sccccssss" />
  <path
     id="rect1129"
     style="opacity:0.5;fill:#ffffff;fill-opacity:1;stroke-width:2;stroke-linecap:round;stroke-linejoin:round"
     d="M 0.50195312 5 C 0.50107618 5.0818924 0.5 5.1645118 0.5 5.25 L 0.5 10.724609 C 0.5 13.695312 1.0007326 14.5 4 14.5 L 12 14.5 C 14.999062 14.500725 15.499796 13.696038 15.5 10.724609 L 15.5 5.25 C 15.499994 5.1647104 15.498823 5.0815854 15.498047 5 L 0.50195312 5 z "
     transform="scale(0.26458333)" />
  <circle
     style="opacity:0.05;fill:#000000;fill-opacity:1;stroke-width:0.0793747;stroke-linejoin:round"
     id="path1709"
     cx="2.1166668"
     cy="2.1166668"
     r="1.5875" />
  <circle
     style="fill:#df382c;fill-opacity:1;stroke-width:0.0661455;stroke-linejoin:round"
     id="path1241"
     cx="3.3072915"
     cy="1.190625"
     r="0.13229166" />
  <circle
     style="opacity:0.1;fill:#000000;fill-opacity:1;stroke-width:0.073495;stroke-linejoin:round"
     id="path1499"
     cx="2.1166668"
     cy="2.3812501"
     r="1.3229166" />
  <circle
     style="fill:#f2f2f2;fill-opacity:1;stroke-width:0.0826825;stroke-linejoin:round"
     id="path957"
     cx="2.1166668"
     cy="2.1166668"
     r="1.3229166" />
  <circle
     style="fill:#46444a;fill-opacity:1;stroke-width:0.0755953;stroke-linejoin:round"
     id="path1929"
     cx="2.1166666"
     cy="2.1166666"
     r="1.0583333" />
  <circle
     style="fill:#888888;fill-opacity:1;stroke-width:0.0661458;stroke-linejoin:round"
     id="path2165"
     cx="2.1166666"
     cy="2.1166666"
     r="0.79374999" />
  <circle
     style="fill:#666666;fill-opacity:1;stroke-width:0.0599795;stroke-linejoin:round"
     id="path2423"
     cx="2.1166668"
     cy="2.1166668"
     r="0.52916664" />
  <circle
     style="fill:#5f5f5f;fill-opacity:1;stroke-width:0.0330729;stroke-linejoin:round"
     id="path2689"
     cx="2.1166666"
     cy="2.1166666"
     r="0.26458332" />
  <path
     id="circle49"
     d="m 2.5136623,1.3229167 a 0.396875,0.396875 0 0 0 -0.396875,0.396875 0.396875,0.396875 0 0 0 0.396875,0.396875 0.396875,0.396875 0 0 0 0.396875,-0.396875 0.396875,0.396875 0 0 0 -0.396875,-0.396875 z M 2.1689805,2.0241659 a 0.0396875,0.0396875 0 0 0 -0.00568,5.168e-4 0.0396875,0.0396875 0 0 0 -0.03359,0.044442 0.0396875,0.0396875 0 0 0 0.044959,0.034107 0.0396875,0.0396875 0 0 0 0.03359,-0.044958 0.0396875,0.0396875 0 0 0 -0.039274,-0.034107 z m -0.107487,0.1322917 a 0.01322917,0.01322917 0 0 0 -0.011369,0.014986 0.01322917,0.01322917 0 0 0 0.014986,0.011369 0.01322917,0.01322917 0 0 1 5.16e-4,-5.159e-4 0.01322917,0.01322917 0 0 0 0.00155,0 0.01322917,0.01322917 0 0 1 5.159e-4,0 0.01322917,0.01322917 0 0 1 5.16e-4,-5.16e-4 0.01322917,0.01322917 0 0 1 5.159e-4,0 0.01322917,0.01322917 0 0 1 5.16e-4,-5.159e-4 0.01322917,0.01322917 0 0 1 5.159e-4,-5.159e-4 0.01322917,0.01322917 0 0 1 5.159e-4,0 0.01322917,0.01322917 0 0 1 5.16e-4,-5.16e-4 0.01322917,0.01322917 0 0 1 5.159e-4,-5.159e-4 0.01322917,0.01322917 0 0 1 5.159e-4,-5.159e-4 0.01322917,0.01322917 0 0 1 5.16e-4,0 0.01322917,0.01322917 0 0 1 5.159e-4,-5.16e-4 0.01322917,0.01322917 0 0 1 5.16e-4,-5.159e-4 0.01322917,0.01322917 0 0 1 5.159e-4,-5.16e-4 0.01322917,0.01322917 0 0 1 0,-5.159e-4 0.01322917,0.01322917 0 0 1 5.159e-4,-5.159e-4 0.01322917,0.01322917 0 0 0 5.16e-4,-0.00155 0.01322917,0.01322917 0 0 1 5.159e-4,-5.159e-4 0.01322917,0.01322917 0 0 1 0,-5.16e-4 0.01322917,0.01322917 0 0 1 5.159e-4,-5.159e-4 0.01322917,0.01322917 0 0 1 0,-5.159e-4 0.01322917,0.01322917 0 0 0 5.16e-4,-0.00155 0.01322917,0.01322917 0 0 1 0,-5.159e-4 0.01322917,0.01322917 0 0 1 0,-5.16e-4 0.01322917,0.01322917 0 0 0 0,-0.00155 0.01322917,0.01322917 0 0 1 0,-5.16e-4 0.01322917,0.01322917 0 0 1 0,-5.159e-4 0.01322917,0.01322917 0 0 0 -0.014986,-0.011369 z"
     style="opacity:0.27;fill:#ffffff;stroke-width:0.264583" />
  <path
     id="rect13250"
     style="opacity:0.7;fill:url(#linearGradient16320);fill-opacity:1;stroke-width:0.127101;stroke-linejoin:round"
     d="M 0.94929604,0.52916666 C 0.4275256,0.53207345 0.26458333,0.5787759 0.26458333,1.3229166 v 0.1829346 1.2216309 0.1829345 c 0,0.79375 0.21166674,0.79375 0.79374997,0.79375 H 1.3229166 3.175 c 0.5820833,0 0.79375,0 0.79375,-0.79375 V 2.7274821 1.5058512 1.3229166 C 3.96875,0.52916642 3.7570833,0.52916666 3.175,0.52916666 H 1.3229166 Z m 0.0847494,0.26458333 c 0.0079,-4.458e-5 0.016138,0 0.024288,0 H 3.175 c 0.5216072,0 0.5291666,0.0892859 0.5291666,0.52916661 v 1.5875 c 0,0.4398807 -0.00756,0.5291667 -0.5291666,0.5291667 H 1.0583333 c -0.52160723,0 -0.52916664,-0.089286 -0.52916664,-0.5291667 v -1.5875 c 0,-0.4330075 0.007113,-0.52635721 0.50487874,-0.52916661 z"
     sodipodi:nodetypes="csccsscssccssccssssssssss" />
  <path
     id="rect7040"
     style="opacity:0.4;stroke-width:0.264583;stroke-linejoin:round"
     d="M 1.0583333,0.26458333 C 0.21187339,0.26458333 0,0.47645663 0,1.3229166 v 1.5875 C 0,3.7568766 0.21187339,3.96875 1.0583333,3.96875 H 3.175 C 4.021402,3.9689566 4.2332756,3.7570833 4.2333333,2.9104166 v -1.5875 C 4.2332756,0.42374666 4.021402,0.26478997 3.175,0.26458333 Z M 0.94929604,0.52916666 H 1.3229166 3.175 c 0.5820833,0 0.79375,-2.9e-7 0.79375,0.79374994 v 0.1829346 1.2216309 0.1829345 c 0,0.79375 -0.2116667,0.79375 -0.79375,0.79375 H 1.3229166 1.0583333 c -0.5820832,0 -0.79374997,0 -0.79374997,-0.79375 V 2.7274821 1.5058512 1.3229166 c 0,-0.74414078 0.16294232,-0.79084294 0.68471271,-0.79374994 z"
     sodipodi:nodetypes="ssssccccsccssccsscssccsc" />
</svg>
