<svg width="48" height="48" version="1.1" xmlns="http://www.w3.org/2000/svg" xmlns:xlink="http://www.w3.org/1999/xlink">
 <defs>
  <filter id="filter4346-6-0" x="-.01325" y="-.010966" width="1.0265" height="1.0219" color-interpolation-filters="sRGB">
   <feGaussianBlur stdDeviation="2.120027"/>
  </filter>
  <linearGradient id="linearGradient4358-3-2" x1="88" x2="488" y1="88" y2="488" gradientTransform="rotate(-90 287.99 298)" gradientUnits="userSpaceOnUse">
   <stop stop-opacity=".58824" offset="0"/>
   <stop stop-opacity="0" offset=".88"/>
   <stop offset="1"/>
  </linearGradient>
  <filter id="filter4380-3-3" x="-.052999" y="-.043863" width="1.106" height="1.0877" color-interpolation-filters="sRGB">
   <feGaussianBlur stdDeviation="8.4801079"/>
  </filter>
  <linearGradient id="linearGradient1004" x1="344" x2="344" y1="62" y2="106" gradientUnits="userSpaceOnUse">
   <stop stop-color="#fff" offset="0"/>
   <stop stop-color="#fff" stop-opacity=".098039" offset=".125"/>
   <stop stop-color="#fff" stop-opacity=".098039" offset=".925"/>
   <stop stop-color="#fff" stop-opacity=".49804" offset="1"/>
  </linearGradient>
  <clipPath id="clipPath994">
   <path d="m335.73 62c-8.8242 0-9.7736 0.90635-9.7304 9.7484v12.252 12.252c-0.0433 8.842 0.90622 9.7484 9.7304 9.7484h16.539c8.8242 0 9.7304-0.90625 9.7304-9.7484v-12.252-12.252c0-8.8421-0.90622-9.7484-9.7304-9.7484z" color="#000000" fill="#cdcdcd"/>
  </clipPath>
 </defs>
 <path d="m15.73 2c-2.2232 0-3.9737 0.05118-5.4141 0.29297-1.4404 0.24178-2.619 0.6953-3.4824 1.5566-0.86337 0.86134-1.3191 2.0395-1.5586 3.4805-0.23953 1.441-0.28629 3.1953-0.27539 5.4238v12.246 12.252c-0.0108 2.2251 0.0361 3.9785 0.27539 5.418 0.23953 1.441 0.69522 2.6191 1.5586 3.4805 0.86338 0.86134 2.042 1.3149 3.4824 1.5566 1.4404 0.24179 3.1909 0.29297 5.4141 0.29297h16.539c2.2232 0 3.9728-0.0511 5.4102-0.29297 1.4374-0.24189 2.6125-0.69694 3.4726-1.5586 0.8602-0.86165 1.3132-2.0389 1.5547-3.4785 0.24149-1.4396 0.29297-3.1904 0.29297-5.418v-12.252-12.252c0-2.2276-0.0515-3.9784-0.29297-5.418-0.24149-1.4396-0.69449-2.6169-1.5547-3.4785-0.86019-0.86165-2.0352-1.3167-3.4726-1.5586-1.4374-0.24189-3.187-0.29297-5.4102-0.29297z" color="#000000" color-rendering="auto" dominant-baseline="auto" image-rendering="auto" opacity=".1" shape-rendering="auto" solid-color="#000000" style="font-feature-settings:normal;font-variant-alternates:normal;font-variant-caps:normal;font-variant-ligatures:normal;font-variant-numeric:normal;font-variant-position:normal;isolation:auto;mix-blend-mode:normal;shape-padding:0;text-decoration-color:#000000;text-decoration-line:none;text-decoration-style:solid;text-indent:0;text-orientation:mixed;text-transform:none;white-space:normal"/>
 <path d="m15.731 2c-8.8242 0-9.7736 0.90635-9.7304 9.7484v12.252 12.252c-0.0433 8.842 0.90622 9.7484 9.7304 9.7484h16.539c8.8242 0 9.7304-0.90625 9.7304-9.7484v-12.252-12.252c0-8.8421-0.90622-9.7484-9.7304-9.7484z" color="#000000" fill="none" opacity=".2" stroke="#000" stroke-width="2"/>
 <path transform="matrix(-.10181 0 0 .097972 53.158 -4.9731)" d="m189.84 74c-70.593 0-78.189 7.2508-77.843 77.987v146.01 146.01c-0.34598 70.736 7.2498 77.987 77.843 77.987h196.31c70.593 0 76.007-7.2738 77.843-77.987v-146.01-146.01c0-70.737-7.2498-77.987-77.843-77.987z" color="#000000" filter="url(#filter4346-6-0)" opacity=".1"/>
 <path transform="matrix(-.10181 0 0 .097972 53.04 -4.8592)" d="m189.84 74c-70.593 0-78.189 7.2508-77.843 77.987v146.01 146.01c-0.34598 70.736 7.2498 77.987 77.843 77.987h196.31c70.593 0 77.843-7.25 77.843-77.987v-146.01-146.01c0-70.737-7.2498-77.987-77.843-77.987z" color="#000000" fill="url(#linearGradient4358-3-2)" filter="url(#filter4380-3-3)" opacity=".3"/>
 <path d="m41.901 38.471c0 6.9302-0.73774 7.6403-7.9247 7.6403h-19.986c-7.1869 0-7.9603-0.71012-7.9251-7.6403v-28.611c-0.0352-6.9302 0.73813-7.6407 7.9251-7.6407h19.986c7.1869 0 7.9247 0.71041 7.9247 7.6407v14.305z" enable-background="new" fill="#6dc7f1"/>
 <path d="m41.901 22.853-29.823 7.2197-6.0134-5.4979v-0.40911-14.305c-0.0352-6.9302 0.73813-7.6407 7.9251-7.6407h19.986c7.1869 0 7.9247 0.71041 7.9247 7.6407z" color="#000000" fill="#e3dfd5"/>
 <path d="m41.901 38.471c0 6.9302-0.73774 7.6403-7.9247 7.6403h-4.6628l-17.73-16.574 28.978-26.159c1.145 1.0288 1.3398 2.9434 1.3398 6.4818v14.305z" color="#000000" fill="#a6d74f"/>
 <path d="m32.275 46.111h-5.9116l-20.298-19.099v-2.8466-2.7153z" color="#000000" fill="#f9f9f9" fill-opacity=".99608"/>
 <path d="m41.901 32.003h-35.836v-7.8374-7.8382h35.836v7.8382z" color="#000000" fill="#fff" opacity=".15"/>
 <path d="m23.982 46.111h-9.9926c-7.1869 0-7.9603-0.71012-7.9251-7.6403v-28.611c-0.0352-6.9302 0.73813-7.6407 7.9251-7.6407h9.9926z" enable-background="new" fill="#fff" opacity=".15"/>
 <path d="m41.384 4.6366-35.318 34.169c1.1e-4 -0.11429-2e-3 -0.21624-1e-3 -0.33408v-5.2905l31.828-30.792c1.9569 0.25303 2.9737 0.86043 3.4921 2.2476z" color="#000000" fill="#fdc92b"/>
 <path d="m24.004 8.6224c-4.4165 0-7.9968 3.2223-7.9968 7.1972 0 0.78924 0.148 1.5465 0.4088 2.2571 0.026 0.07226 0.047 0.14631 0.076 0.21754 0.2037 0.6066 3.1892 9.4226 7.52 17.328 1e-3 0 0-7.1e-4 0-0.0018v-4e-3c0-0.0016 0-0.0031 0.01-0.0041v-0.0021c4.6271-8.6343 7.5683-17.534 7.5683-17.534 0.2605-0.71018 0.4035-1.4684 0.4035-2.2572 0-3.9749-3.5803-7.1972-7.9968-7.1972z" color="#000000" opacity=".05"/>
 <path d="m24.004 9.5224c-4.4165 0-7.9968 3.2223-7.9968 7.1972 0 0.78924 0.148 1.5465 0.4088 2.2571 0.026 0.07226 0.047 0.14631 0.076 0.21754 0.2037 0.6066 3.1892 9.4226 7.52 17.328 1e-3 0 0-7.1e-4 0-0.0018v-4e-3c0-0.0016 0-0.0031 0.01-0.0041v-0.0021c4.6271-8.6343 7.5683-17.534 7.5683-17.534 0.2605-0.71018 0.4035-1.4684 0.4035-2.2572 0-3.9749-3.5803-7.1972-7.9968-7.1972z" color="#000000" fill="#f22c42"/>
 <circle cx="24" cy="17.103" r="3.9464" color="#000000" fill="#bc1938"/>
 <path d="m6 24v12.252c-0.0433 8.842 0.90629 9.748 9.7305 9.748h16.539c8.8242 0 9.7305-0.90592 9.7305-9.748v-12.252z" color="#000000" fill="#fff" opacity=".1"/>
 <path d="m24 2v44h8.2695c8.8242 0 9.7305-0.90592 9.7305-9.748v-12.252-12.252c0-8.8421-0.90629-9.748-9.7305-9.748z" color="#000000" fill="#fff" opacity=".1"/>
 <path transform="translate(-320,-60)" d="m335.73 62c-8.8242 0-9.7736 0.90635-9.7304 9.7484v12.252 12.252c-0.0433 8.842 0.90622 9.7484 9.7304 9.7484h16.539c8.8242 0 9.7304-0.90625 9.7304-9.7484v-12.252-12.252c0-8.8421-0.90622-9.7484-9.7304-9.7484z" clip-path="url(#clipPath994)" color="#000000" fill="none" opacity=".4" stroke="url(#linearGradient1004)" stroke-width="2"/>
</svg>
