<svg width="48" height="48" version="1" xmlns="http://www.w3.org/2000/svg" xmlns:xlink="http://www.w3.org/1999/xlink">
 <defs>
  <linearGradient id="linearGradient1024" x1="459.03" x2="35.31" y1="419.23" y2="207.37" gradientTransform="matrix(0 -.11328 .11328 0 -11.49 52)" gradientUnits="userSpaceOnUse">
   <stop stop-color="#f2f2f2" offset="0"/>
   <stop stop-color="#f9f9f9" offset="1"/>
  </linearGradient>
  <linearGradient id="linearGradient1004" x1="344" x2="344" y1="62" y2="106" gradientTransform="translate(-320 -60)" gradientUnits="userSpaceOnUse">
   <stop stop-color="#fff" offset="0"/>
   <stop stop-color="#fff" stop-opacity=".098039" offset=".125"/>
   <stop stop-color="#fff" stop-opacity=".098039" offset=".925"/>
   <stop stop-color="#fff" stop-opacity=".49804" offset="1"/>
  </linearGradient>
 </defs>
 <path d="m15.73 2c-2.2229-0.03386-3.9737 0.05118-5.4141 0.29297-1.4404 0.24178-2.619 0.6953-3.4824 1.5566-0.86337 0.86134-1.3191 2.0395-1.5586 3.4805-0.23953 1.441-0.28629 3.1953-0.27539 5.4238v12.246 12.252c-0.0108 2.2251 0.0361 3.9785 0.27539 5.418 0.23953 1.441 0.69522 2.6191 1.5586 3.4805 0.86338 0.86134 2.042 1.3149 3.4824 1.5566 1.4404 0.24179 3.1909 0.29297 5.4141 0.29297h16.539c2.2232 0 3.9728-0.0511 5.4102-0.29297 1.4374-0.24189 2.6125-0.69694 3.4726-1.5586 0.8602-0.86165 1.3132-2.0389 1.5547-3.4785 0.24149-1.4396 0.29297-3.1904 0.29297-5.418v-12.252-12l-10.73-10.748z" color="#000000" color-rendering="auto" dominant-baseline="auto" image-rendering="auto" opacity=".1" shape-rendering="auto" solid-color="#000000" style="font-feature-settings:normal;font-variant-alternates:normal;font-variant-caps:normal;font-variant-ligatures:normal;font-variant-numeric:normal;font-variant-position:normal;isolation:auto;mix-blend-mode:normal;shape-padding:0;text-decoration-color:#000000;text-decoration-line:none;text-decoration-style:solid;text-indent:0;text-orientation:mixed;text-transform:none;white-space:normal"/>
 <path d="m15.731 2c-8.8242 0-9.7736 0.90635-9.7304 9.7484v12.252 12.252c-0.0433 8.842 0.90622 9.7484 9.7304 9.7484h16.539c8.8242 0 9.7304-0.90625 9.7304-9.7484v-12.252l-6.7e-4 -12-10-10z" color="#000000" fill="none" opacity=".2" stroke="#000" stroke-width="2"/>
 <path d="m15.731 2c-8.8242 0-9.7736 0.90635-9.7304 9.7484v12.252 12.252c-0.0433 8.842 0.90622 9.7484 9.7304 9.7484h16.539c8.8242 0 9.7304-0.90625 9.7304-9.7484v-12.252l-6.7e-4 -12-10-10z" color="#000000" fill="url(#linearGradient1024)"/>
 <path d="m17 38v6h1v-2.1621c0.0815 0.037 0.14312 0.0725 0.25781 0.11133 0.20378 0.0671 0.43721 0.10156 0.69922 0.10156 0.32605 0 0.61291-0.0562 0.86328-0.16797 0.25619-0.11174 0.47182-0.26764 0.64649-0.46875 0.64612-0.75765 0.7365-1.9449-0.0859-2.8027-0.19797-0.19553-0.43733-0.34503-0.7168-0.45117-0.27951-0.10615-0.59405-0.16016-0.9434-0.16016h-1.7207zm1.7109 0.99609c0.43668 0 0.78682 0.13641 1.0488 0.41016 0.27143 0.39057 0.34331 1.1427-0.31446 1.5391-0.16303 0.0782-0.36086 0.11719-0.59375 0.11719-0.22125 0-0.42502-0.0348-0.61133-0.10742-0.10458-0.0408-0.16316-0.0844-0.24023-0.12696v-1.7812c0.0469-8e-3 0.0787-0.01837 0.13477-0.02539 0.13974-0.01674 0.33163-0.02539 0.57617-0.02539z" enable-background="new" fill="#888"/>
 <path d="m24.254 38c-0.34935 0-0.66385 0.05401-0.94336 0.16016-0.27947 0.10614-0.51883 0.25564-0.7168 0.45117-0.8224 0.85785-0.73206 2.0451-0.0859 2.8027 0.17467 0.20111 0.3903 0.35701 0.64649 0.46875 0.25037 0.11177 0.53723 0.16797 0.86328 0.16797 0.26201 0 0.49544-0.0345 0.69922-0.10156 0.11469-0.0388 0.17631-0.0743 0.25781-0.11133v0.0547c-2e-3 0.39358-0.10989 0.68176-0.32813 0.86328-0.21477 0.18359-0.46968 0.27539-0.96484 0.27539-0.26249 0-0.51713-0.0242-0.76172-0.0742-0.23863-0.0445-0.44038-0.097-0.60742-0.1582l-0.0527 0.97656c0.1909 0.0612 0.41339 0.11367 0.66992 0.1582 0.26248 0.0445 0.54166 0.0664 0.83398 0.0664 0.75168 0 1.3118-0.15076 1.6816-0.45117 0.36984-0.30045 0.55462-0.78359 0.55462-1.4512v-4.0977c-0.65307 0.0077-1 0-1.7461 0zm0.01 0.99609c0.24454 0 0.43643 0.0087 0.57617 0.02539 0.0561 7e-3 0.0879 0.01739 0.13477 0.02539v1.7812c-0.0771 0.0426-0.13566 0.0862-0.24023 0.12696-0.18632 0.0726-0.39008 0.10742-0.61133 0.10742-0.23289 0-0.43072-0.039-0.59375-0.11719-0.65777-0.39639-0.58589-1.1485-0.31446-1.5391 0.26201-0.27374 0.61215-0.41016 1.0488-0.41016z" enable-background="new" fill="#888"/>
 <path d="m27 38v6h1v-2.1621c0.0815 0.037 0.14312 0.0725 0.25781 0.11133 0.20378 0.0671 0.43721 0.10156 0.69922 0.10156 0.32605 0 0.61291-0.0562 0.86328-0.16797 0.25619-0.11174 0.47182-0.26764 0.64649-0.46875 0.64612-0.75765 0.7365-1.9449-0.0859-2.8027-0.19797-0.19553-0.43733-0.34503-0.7168-0.45117-0.27951-0.10615-0.59405-0.16016-0.9434-0.16016h-1.7207zm1.7109 0.99609c0.43668 0 0.78682 0.13641 1.0488 0.41016 0.27143 0.39057 0.34331 1.1427-0.31446 1.5391-0.16303 0.0782-0.36086 0.11719-0.59375 0.11719-0.22125 0-0.42502-0.0348-0.61133-0.10742-0.10458-0.0408-0.16316-0.0844-0.24023-0.12696v-1.7812c0.0469-8e-3 0.0787-0.01837 0.13477-0.02539 0.13974-0.01674 0.33163-0.02539 0.57617-0.02539z" enable-background="new" fill="#888"/>
 <g transform="translate(-320 -53.381)" enable-background="new">
  <path d="m344.42 72.935a4.4703 4.4703 0 0 0-6.1065 1.6362 4.4703 4.4703 0 0 0 3e-3 4.4647l-4.6798 8.1056 0.27272 1.0178 1.2904 0.74503 2.0355-0.54542 0.83818-1.4517-0.27271-1.0177 1.0178-0.27271-0.2727-1.0177 1.0177-0.27271-0.27283-1.0177 2.0355-0.54541 0.86053-1.4905a4.4703 4.4703 0 0 0 3.8687-2.2311 4.4703 4.4703 0 0 0-1.6362-6.1065zm-0.93132 1.6131a1.1176 1.1176 0 0 1 0.40908 1.5266 1.1176 1.1176 0 0 1-1.5266 0.40905 1.1176 1.1176 0 0 1-0.40907-1.5266 1.1176 1.1176 0 0 1 1.5266-0.40906z" enable-background="new" fill="#fac342"/>
  <path d="m338.56 80.094 0.27269 1.0178-3.9114 6.7749-0.27272-1.0177z" enable-background="new" fill="#fff" opacity=".5"/>
  <path d="m344.23 73.257a4.0977 4.0977 0 0 0-5.5976 1.4999 4.0977 4.0977 0 0 0 1.4999 5.5976 4.0977 4.0977 0 0 0 5.5976-1.4999 4.0977 4.0977 0 0 0-1.4999-5.5976zm-0.74506 1.2905a1.1176 1.1176 0 0 1 0.40908 1.5266 1.1176 1.1176 0 0 1-1.5266 0.40905 1.1176 1.1176 0 0 1-0.40907-1.5266 1.1176 1.1176 0 0 1 1.5266-0.40906z" enable-background="new" fill="#fff" opacity=".5"/>
  <path d="m344.6 73.076a4.4703 4.4703 0 0 0-1.6362 6.1065 4.4703 4.4703 0 0 0 3.8681 2.2296l4.6798 8.1056 1.0177 0.27271 1.2905-0.74503 0.54541-2.0355-0.83817-1.4518-1.0178-0.27271 0.27269-1.0177-1.0177-0.2727 0.27271-1.0177-1.0178-0.27271 0.5454-2.0355-0.86053-1.4905a4.4703 4.4703 0 0 0 1e-3 -4.4663 4.4703 4.4703 0 0 0-6.1065-1.6362zm0.93131 1.6131a1.1176 1.1176 0 0 1 1.5266 0.40906 1.1176 1.1176 0 0 1-0.40906 1.5266 1.1176 1.1176 0 0 1-1.5266-0.40906 1.1176 1.1176 0 0 1 0.40906-1.5266z" enable-background="new" fill="#808080"/>
  <path d="m347.87 81.725 1.0178 0.2727 3.9115 6.7749-1.0177-0.27271z" enable-background="new" fill="#fff" opacity=".5"/>
  <path d="m344.79 73.399a4.0977 4.0977 0 0 0-1.4999 5.5976 4.0977 4.0977 0 0 0 5.5976 1.4999 4.0977 4.0977 0 0 0 1.4999-5.5976 4.0977 4.0977 0 0 0-5.5976-1.4999zm0.74506 1.2905a1.1176 1.1176 0 0 1 1.5266 0.40906 1.1176 1.1176 0 0 1-0.40906 1.5266 1.1176 1.1176 0 0 1-1.5266-0.40906 1.1176 1.1176 0 0 1 0.40906-1.5266z" enable-background="new" fill="#fff" opacity=".5"/>
  <path d="m344 66a5 5 0 0 0-5 5 5 5 0 0 0 0.52734 2.2168 4.4703 4.4703 0 0 1 0.41797-0.27539 4.5 4.5 0 0 1-0.44531-1.9414 4.5 4.5 0 0 1 4.5-4.5 4.5 4.5 0 0 1 4.5 4.5 4.5 4.5 0 0 1-3.4902 4.3789 1.1176 1.1176 0 0 0-0.00977 0.51953 5 5 0 0 0 4-4.8984 5 5 0 0 0-5-5zm-2.0606 8.9941a1.1176 1.1176 0 0 0-0.1289 0.49219 5 5 0 0 0 0.71679 0.28711 4.4703 4.4703 0 0 1 0.15821-0.4707 4.5 4.5 0 0 1-0.7461-0.30859z" fill="#a1a1a1"/>
 </g>
 <path d="m6 24v12.252c-0.0433 8.842 0.90629 9.748 9.7305 9.748h16.539c8.8242 0 9.7305-0.90592 9.7305-9.748v-12.252z" color="#000000" fill="#fff" opacity=".2"/>
 <path d="m24 2v44h8.2695c8.8242 0 9.7305-0.90592 9.7305-9.748v-12.252-12l-10-10z" color="#000000" fill="#fff" opacity=".1"/>
 <path d="m15.73 2c-8.8242 0-9.7737 0.90602-9.7305 9.748v12.252 12.252c-0.0433 8.842 0.90629 9.748 9.7305 9.748h16.539c8.8242 0 9.7305-0.90592 9.7305-9.748v-12.252-12h-1v12 12.252c0 2.1935-0.0614 3.8707-0.26562 5.0879-0.20419 1.2172-0.52867 1.9243-0.99805 2.3945-0.46938 0.47015-1.1744 0.79563-2.3887 1-1.2143 0.20434-2.8892 0.26562-5.0781 0.26562h-16.539c-2.1889 0-3.8659-0.0612-5.084-0.26562-1.2181-0.20449-1.9288-0.5295-2.4004-1-0.47161-0.47053-0.79596-1.1768-0.99804-2.3926-0.20209-1.2158-0.25879-2.8934-0.24805-5.0859v-2e-3 -12.254-12.254-2e-3c-0.0107-2.1925 0.046-3.8702 0.24805-5.0859 0.20209-1.2158 0.52643-1.9221 0.99804-2.3926s1.1843-0.79553 2.4023-1c1.2181-0.20438 2.8931-0.26558 5.082-0.26558h16.27v-1z" color="#000000" color-rendering="auto" dominant-baseline="auto" fill="url(#linearGradient1004)" image-rendering="auto" opacity=".4" shape-rendering="auto" solid-color="#000000" style="font-feature-settings:normal;font-variant-alternates:normal;font-variant-caps:normal;font-variant-ligatures:normal;font-variant-numeric:normal;font-variant-position:normal;isolation:auto;mix-blend-mode:normal;shape-padding:0;text-decoration-color:#000000;text-decoration-line:none;text-decoration-style:solid;text-indent:0;text-orientation:mixed;text-transform:none;white-space:normal"/>
 <path d="m42 13v-1l-10-10h-1v4.2091 0.16127 0.08662c0 5.692 0.76196 6.5697 6.467 6.5418z" color="#000000" opacity=".2"/>
 <path d="m42 11.999-10-9.9987v3.7089 0.16127 0.08662c0 5.692 0.26232 6.0698 5.9674 6.0419z" color="#000000" fill="#faf8f6"/>
</svg>
