<svg width="32" height="32" version="1" xmlns="http://www.w3.org/2000/svg" xmlns:xlink="http://www.w3.org/1999/xlink">
 <defs>
  <linearGradient id="linearGradient1688" x1="320" x2="352" y1="164" y2="164" gradientTransform="rotate(90 242 -78)" gradientUnits="userSpaceOnUse">
   <stop stop-color="#2b898f" offset="0"/>
   <stop stop-color="#5bdbc1" offset="1"/>
  </linearGradient>
  <linearGradient id="linearGradient998" x1="16" x2="16" y1="304" y2="208" gradientTransform="matrix(.046875 0 0 .052083 1.5 2.6667)" gradientUnits="userSpaceOnUse" xlink:href="#linearGradient4245"/>
  <linearGradient id="linearGradient4245">
   <stop stop-color="#d9d9d9" offset="0"/>
   <stop stop-color="#ececec" offset="1"/>
  </linearGradient>
  <linearGradient id="linearGradient21969" x1="16" x2="16" y1="304" y2="208" gradientTransform="matrix(.046875 0 0 .052083 -.5 2.6667)" gradientUnits="userSpaceOnUse" xlink:href="#linearGradient4245"/>
  <linearGradient id="linearGradient1688-4" x1="322" x2="350" y1="148" y2="148" gradientTransform="rotate(90 242 -78)" gradientUnits="userSpaceOnUse">
   <stop stop-color="#fff" offset="0"/>
   <stop stop-color="#fff" stop-opacity=".098039" offset=".125"/>
   <stop stop-color="#fff" stop-opacity=".098039" offset=".925"/>
   <stop stop-color="#fff" stop-opacity=".49804" offset="1"/>
  </linearGradient>
 </defs>
 <path d="m9.3009 2c-1.6395 0-2.9408 0.0308-4.045 0.19141-1.1042 0.16064-2.067 0.4726-2.7831 1.0918s-1.0805 1.4561-1.2642 2.4141c-0.18374 0.95795-0.21537 2.087-0.20733 3.5117v7.791 7.7969c-9e-3 1.4213 0.0239 2.5495 0.20733 3.5058 0.18371 0.95796 0.5481 1.7949 1.2642 2.4141s1.6789 0.93115 2.7831 1.0918c1.1042 0.16065 2.4056 0.19141 4.045 0.19141h13.402c1.6395 0 2.9384-0.0307 4.0405-0.19141 1.1022-0.16075 2.0627-0.47425 2.7763-1.0938 0.71357-0.6195 1.0746-1.4536 1.2597-2.4102 0.18515-0.95653 0.22086-2.084 0.22086-3.5078v-7.7969-7.7969c0-1.4238-0.0358-2.5513-0.22086-3.5078-0.18512-0.95653-0.54612-1.7906-1.2597-2.4102-0.71359-0.61951-1.6741-0.933-2.7763-1.0938-1.1022-0.16076-2.401-0.19141-4.0405-0.19141z" color="#000000" color-rendering="auto" dominant-baseline="auto" image-rendering="auto" opacity=".1" shape-rendering="auto" solid-color="#000000" style="font-feature-settings:normal;font-variant-alternates:normal;font-variant-caps:normal;font-variant-ligatures:normal;font-variant-numeric:normal;font-variant-position:normal;isolation:auto;mix-blend-mode:normal;shape-padding:0;text-decoration-color:#000000;text-decoration-line:none;text-decoration-style:solid;text-indent:0;text-orientation:mixed;text-transform:none;white-space:normal"/>
 <path d="m9.1271 1.5c-6.4516 0-7.6603 0.58409-7.6264 6.2823v8.2176 8.2178c-0.034 5.6982 1.1748 6.2823 7.6264 6.2823h13.747c6.45 0 7.6264-0.58403 7.6264-6.2823v-8.2178-8.2176c0-5.6982-1.1764-6.2823-7.6264-6.2823z" color="#000000" fill="url(#linearGradient1688)"/>
 <g transform="matrix(.11948 0 0 .11948 -2.1614 -2.6393)" enable-background="new" stroke-width="8.3694">
  <path d="m105.25 102.4c-3.5536 0-6.8599 0.44363-9.9199 1.332s-5.8252 1.9746-8.293 3.2578c-2.4678 1.2832-4.5904 2.6639-6.3672 4.1445-1.7768 1.382-3.1077 2.5676-3.9961 3.5547l6.8086 9.7715c0.69098-0.59227 1.6796-1.4318 2.9629-2.5176 1.2832-1.1845 2.8628-2.2688 4.7383-3.2559 1.8755-1.0858 3.9981-2.0228 6.3672-2.8125 2.3691-0.78969 4.9831-1.1856 7.8457-1.1856 2.3691 0 4.5911 0.34613 6.6641 1.0371 2.1716 0.59226 4.0476 1.579 5.627 2.9609s2.8128 3.1087 3.7012 5.1816c0.98712 2.0729 1.4805 4.5914 1.4805 7.5527 0 2.7639-0.54308 5.3799-1.6289 7.8476-0.98711 2.4678-2.3677 4.8848-4.1445 7.2539-1.6781 2.2704-3.6535 4.5899-5.9238 6.959-0.79382 0.8299-1.6295 1.6743-2.4629 2.5176h17.066c1.3793-1.6287 2.6826-3.2559 3.9043-4.8848 2.3691-3.2575 4.245-6.516 5.627-9.7734 1.4807-3.3562 2.2227-6.8116 2.2227-10.365 0-9.0814-2.7154-16.09-8.1445-21.025-5.3304-5.0343-13.375-7.5508-24.135-7.5508zm88.461 0c-4.7381 0-9.0311 0.78977-12.881 2.3691-3.8497 1.4807-7.156 3.5038-9.9199 6.0703-2.6652 2.5665-4.7381 5.5764-6.2188 9.0312-1.4807 3.3562-2.2207 6.9092-2.2207 10.66 0 10.759 4.8361 18.904 14.51 24.432-0.54317 0.33063-1.0795 0.67827-1.6113 1.0371h37.004c-0.90352-0.51362-1.8329-1.0128-2.8184-1.4805 1.9742-1.2832 3.8502-2.7633 5.627-4.4414 1.8755-1.6781 3.5048-3.6038 4.8867-5.7754 1.4807-2.1716 2.6146-4.4912 3.4043-6.959 0.8884-2.5665 1.334-5.2819 1.334-8.1445 0-2.9613-0.59281-6.0209-1.7773-9.1797-1.0858-3.1587-2.912-6.0214-5.4785-8.5879-2.4678-2.6652-5.6766-4.8375-9.625-6.5156-3.9484-1.6781-8.687-2.5156-14.215-2.5156zm0 11.4c3.1588 0 5.8244 0.54309 7.9961 1.6289 2.1716 0.98711 3.9501 2.2702 5.332 3.8496 1.382 1.4807 2.3687 3.1099 2.9609 4.8867 0.69098 1.7768 1.0371 3.406 1.0371 4.8867 0 5.3304-1.2354 9.6731-3.7031 13.029-2.4678 3.2575-5.7741 6.1201-9.9199 8.5879-3.751-0.8884-7.0076-2.074-9.7715-3.5547-2.6652-1.4807-4.8375-3.1577-6.5156-5.0332-1.6781-1.8755-2.9115-3.9006-3.7012-6.0723s-1.1855-4.342-1.1855-6.5137c0-1.7768 0.29641-3.5533 0.88867-5.3301 0.69098-1.8755 1.7274-3.5545 3.1094-5.0352 1.3819-1.5794 3.1584-2.8625 5.3301-3.8496 2.2704-0.98711 4.9838-1.4805 8.1426-1.4805z" enable-background="new" fill="#ececec"/>
  <path d="m108.72 156c-1.4448 1.4618-2.9422 2.9412-4.5059 4.4424-2.9613 2.9613-5.9722 6.0209-9.0322 9.1797-3.06 3.1588-5.8232 6.5148-8.291 10.068-2.4678 3.5536-4.4919 7.3542-6.0713 11.401-1.4807 3.9484-2.2207 8.2424-2.2207 12.882v1.6289c0 0.59227 0.0497 1.1841 0.14844 1.7764h62.187v-11.697h-47.233c0-1.6781 0.64156-3.6525 1.9248-5.9228 1.382-2.2704 3.06-4.6387 5.0342-7.1064 1.9742-2.4678 4.0471-4.8371 6.2188-7.1074l5.9228-5.9228c2.9613-2.9613 5.9225-5.9722 8.8838-9.0322 1.4342-1.5299 2.7954-3.0601 4.0908-4.5898zm66.65 0c-1.6914 1.1411-3.3261 2.4226-4.9033 3.8496-1.9742 1.7768-3.7507 3.8009-5.3301 6.0713-1.4807 2.2704-2.715 4.7381-3.7022 7.4033-0.88839 2.5665-1.332 5.2809-1.332 8.1436 0 2.9613 0.54211 6.1194 1.6279 9.4756 1.0858 3.2575 2.912 6.2683 5.4785 9.0322s5.9722 5.0835 10.217 6.959c4.3433 1.7768 9.7234 2.665 16.14 2.665 5.5278 0 10.414-0.74004 14.658-2.2207 4.2446-1.382 7.7488-3.3564 10.513-5.9228 2.8626-2.6652 4.9852-5.7248 6.3672-9.1797 1.4807-3.5536 2.2207-7.403 2.2207-11.549-0.18065-10.929-5.1583-19.171-14.927-24.728zm12.568 3.4053c3.9484 0.8884 7.4527 1.9746 10.513 3.2578 3.1588 1.1845 5.8245 2.6646 7.9961 4.4414 2.2704 1.7768 3.9971 3.8507 5.1816 6.2197s1.7773 5.1323 1.7773 8.291c0 2.0729-0.39488 4.0971-1.1846 6.0713s-1.9743 3.7507-3.5537 5.3301c-1.5794 1.4807-3.6523 2.7141-6.2188 3.7012-2.4678 0.98711-5.3802 1.4814-8.7363 1.4814-3.751 0-6.8604-0.54309-9.3281-1.6289-2.4678-1.0858-4.4909-2.4187-6.0703-3.998-1.5794-1.6781-2.7143-3.4546-3.4053-5.3301-0.59226-1.9742-0.88867-3.8502-0.88867-5.627 0-5.0343 1.1846-9.377 3.5537-13.029 2.4678-3.6523 5.9223-6.7129 10.364-9.1807z" enable-background="new" fill="#f9f9f9"/>
 </g>
 <path d="m2 13v6h1v-6z" color="#000000" fill="url(#linearGradient998)"/>
 <path d="m29 13v6h1v-6z" color="#000000" fill="url(#linearGradient21969)"/>
 <path d="m1.5 16v8.2168c0 5.6982 1.1769 6.2832 7.627 6.2832h13.746c6.4516 0 7.661-0.58502 7.627-6.2832v-8.2168z" enable-background="new" fill="#fff" opacity=".08"/>
 <path d="m9.1271 1.5c-6.4516 0-7.6603 0.58409-7.6264 6.2823v8.2176 8.2178c-0.034 5.6982 1.1748 6.2823 7.6264 6.2823h13.747c6.45 0 7.6264-0.58403 7.6264-6.2823v-8.2178-8.2176c0-5.6982-1.1764-6.2823-7.6264-6.2823z" color="#000000" fill="none" opacity=".4" stroke="#000"/>
 <path d="m9.127 2c-3.2107 0-5.0326 0.19514-5.9375 0.89844-0.45247 0.35165-0.74178 0.83286-0.93359 1.6172-0.19176 0.78433-0.26386 1.8569-0.25586 3.2637v2e-3 8.2188 8.2188 2e-3c-8e-3 1.4068 0.0641 2.4794 0.25586 3.2637 0.1918 0.78431 0.48112 1.2655 0.93359 1.6172 0.90496 0.7033 2.7268 0.89844 5.9375 0.89844h13.746c3.2099 0 5.0246-0.19551 5.9258-0.89844 0.45058-0.35146 0.73805-0.83201 0.93164-1.6172 0.19363-0.7853 0.26953-1.8603 0.26953-3.2677v-8.2168-8.2168c0-1.4074-0.0759-2.4824-0.26953-3.2676-0.19359-0.78517-0.48106-1.2657-0.93164-1.6172-0.90117-0.70293-2.7159-0.89844-5.9258-0.89844zm6.498 1.0469c3.4565 0.0171 6.9142-0.0268 10.361 0.0918 0.8211 0.13276 1.8066 0.14835 2.3906 0.82617 0.67884 1.1647 0.51296 2.5878 0.56446 3.873 0.0431 6.0289 0.0678 12.067-0.0332 18.088-0.0775 0.77792-0.12055 1.6726-0.67968 2.2754-0.70249 0.51038-1.6183 0.59683-2.459 0.67383-4.0474 0.0864-8.1622 0.0456-12.24 0.0606-2.4519-0.0199-4.914 0.0317-7.3535-0.0606-0.87784-0.12055-1.915-0.14021-2.5606-0.83398-0.64775-1.0259-0.50264-2.3052-0.56054-3.4648-0.035-5.6558-0.0351-11.355 0-17.01 0.0632-1.2215-0.10864-2.5772 0.59179-3.6524 0.6025-0.62665 1.5562-0.63986 2.3594-0.77344 2.7374-0.10739 5.4808-0.0704 8.2266-0.0918 0.46403-2.9e-4 0.92855-2e-3 1.3926-2e-3z" color="#000000" fill="url(#linearGradient1688-4)"/>
 <path d="m27.475 23.936c-0.19248 9e-3 -0.36851 0.11688-0.46469 0.28378l-3.9352 6.9388c-0.21421 0.37443 0.0553 0.84099 0.48719 0.84129h7.8755c0.43139-3e-4 0.7014-0.46686 0.48719-0.84129l-3.9327-6.9388c-0.10544-0.18345-0.30602-0.29354-0.51728-0.28378z" color="#000000" enable-background="new" fill="#fdc92b" fill-rule="evenodd" style="isolation:auto;mix-blend-mode:normal;text-decoration-color:#000000;text-decoration-line:none;text-decoration-style:solid;text-indent:0;text-transform:none;white-space:normal"/>
 <path d="m27.5 30c0.2761 0 0.5 0.22386 0.5 0.5s-0.2239 0.5-0.5 0.5-0.5-0.22386-0.5-0.5 0.2239-0.5 0.5-0.5z" color="#000000" enable-background="new" fill="#fff" fill-rule="evenodd" style="isolation:auto;mix-blend-mode:normal;text-decoration-color:#000000;text-decoration-line:none;text-decoration-style:solid;text-indent:0;text-transform:none;white-space:normal"/>
 <path d="m27 26h1l2e-4 1.168c6e-5 0.34851-0.016 0.6673-0.047 0.95703s-0.069 0.58107-0.1152 0.875h-0.666c-0.052-0.29393-0.094-0.58527-0.125-0.875-0.031-0.29393-0.047-0.61271-0.047-0.95703z" color="#000000" enable-background="new" fill="#fff" fill-rule="evenodd" style="isolation:auto;mix-blend-mode:normal;text-decoration-color:#000000;text-decoration-line:none;text-decoration-style:solid;text-indent:0;text-transform:none;white-space:normal"/>
</svg>
