<svg width="24" height="24" version="1.1" xmlns="http://www.w3.org/2000/svg" xmlns:xlink="http://www.w3.org/1999/xlink">
 <defs>
  <linearGradient id="linearGradient916" x1="459.03" x2="35.31" y1="419.23" y2="207.37" gradientTransform="matrix(0 -.056641 .056639 0 -5.7453 26)" gradientUnits="userSpaceOnUse">
   <stop stop-color="#f2f2f2" offset="0"/>
   <stop stop-color="#f9f9f9" offset="1"/>
  </linearGradient>
  <linearGradient id="linearGradient1431" x1="342" x2="328.26" y1="157" y2="158.55" gradientTransform="translate(-323.13 -144)" gradientUnits="userSpaceOnUse">
   <stop offset="0"/>
   <stop stop-opacity=".50485" offset="1"/>
  </linearGradient>
  <linearGradient id="linearGradient981" x1="332" x2="332" y1="189" y2="211" gradientUnits="userSpaceOnUse">
   <stop stop-color="#fff" offset="0"/>
   <stop stop-color="#fff" stop-opacity=".098039" offset=".125"/>
   <stop stop-color="#fff" stop-opacity=".098039" offset=".925"/>
   <stop stop-color="#fff" stop-opacity=".49804" offset="1"/>
  </linearGradient>
  <clipPath id="clipPath971">
   <path d="m327.87 189c-4.4121 0-4.8868 0.45318-4.8652 4.8742v6.1258 6.1258c-0.0217 4.421 0.45311 4.8742 4.8652 4.8742h8.2696c4.4121 0 4.8652-0.45312 4.8652-4.8742v-6.1258-6.1258c0-4.4211-0.45312-4.8742-4.8652-4.8742z" color="#000000" fill="#46a926"/>
  </clipPath>
 </defs>
 <path d="m7.8652 1c-1.1201 0-2.0152 0.0241-2.791 0.1543-0.77577 0.13022-1.4801 0.38763-2.0098 0.91601-0.52962 0.52838-0.79079 1.2369-0.91992 2.0137-0.12912 0.77681-0.15002 1.6717-0.14453 2.7949v6.1211 6.125c-5e-3 1.121 0.0156 2.0153 0.14453 2.791 0.12912 0.77681 0.39029 1.4853 0.91992 2.0137 0.52964 0.52838 1.234 0.78579 2.0098 0.91601s1.6709 0.1543 2.791 0.1543h8.2695c1.1201 0 2.0126-0.024 2.7871-0.1543 0.77446-0.13033 1.48-0.38927 2.0078-0.91797 0.5278-0.52869 0.78594-1.2344 0.91601-2.0098 0.13007-0.77539 0.1543-1.6706 0.1543-2.793v-6.125-6.125c0-1.1224-0.0242-2.0176-0.1543-2.793-0.13007-0.77538-0.38821-1.4811-0.91601-2.0098-0.5278-0.5287-1.2333-0.78764-2.0078-0.91797-0.77448-0.13033-1.667-0.1543-2.7871-0.1543z" color="#000000" color-rendering="auto" dominant-baseline="auto" image-rendering="auto" opacity=".1" shape-rendering="auto" solid-color="#000000" style="font-feature-settings:normal;font-variant-alternates:normal;font-variant-caps:normal;font-variant-ligatures:normal;font-variant-numeric:normal;font-variant-position:normal;isolation:auto;mix-blend-mode:normal;shape-padding:0;text-decoration-color:#000000;text-decoration-line:none;text-decoration-style:solid;text-indent:0;text-orientation:mixed;text-transform:none;white-space:normal"/>
 <path d="M 7.8652,1 C 3.45311,1 2.97838,1.45318 3,5.87419 V 12 18.12581 C 2.9783,22.54682 3.45311,23 7.8652,23 h 8.2696 C 20.54689,23 21,22.54688 21,18.12581 V 12 5.87419 C 21,1.45313 20.54688,1 16.13479,1 Z" color="#000000" fill="none" opacity=".2" stroke="#000" stroke-width="2"/>
 <path d="M 7.8652,1 C 3.45311,1 2.97838,1.45318 3,5.87419 V 12 18.12581 C 2.9783,22.54682 3.45311,23 7.8652,23 h 8.2696 C 20.54689,23 21,22.54688 21,18.12581 V 12 5.87419 C 21,1.45313 20.54688,1 16.13479,1 Z" color="#000000" fill="url(#linearGradient916)"/>
 <path d="m5.1294 14.554c4.5-2 5-5 5-5-2 6 0.5 5.5 3 2-0.5 5 2 4 5.7409 1.4463" enable-background="new" fill="none" stroke="url(#linearGradient1431)" stroke-linecap="round" stroke-linejoin="round" stroke-width=".75"/>
 <path d="m3 12v6.125c-0.0217 4.421 0.45314 4.875 4.8652 4.875h8.2695c4.4121 0 4.8652-0.45393 4.8652-4.875v-6.125z" color="#000000" fill="#fff" opacity=".2"/>
 <path d="m12 1v22h4.1348c4.4121 0 4.8652-0.45393 4.8652-4.875v-6.125-6.125c0-4.4211-0.45314-4.875-4.8652-4.875z" color="#000000" fill="#fff" opacity=".2"/>
 <g transform="rotate(-45 -55.823 487.19)" enable-background="new">
  <path d="m331.5 200.42-0.41666 2.0833 1.1979 2.2917-1e-5 -2.2013c-0.0325-0.0184-0.0522-0.053-0.0521-0.0904 7e-5 -0.0576 0.0466-0.10416 0.10414-0.10419 0.0576 8e-5 0.10415 0.0467 0.10418 0.10415-7e-5 0.0371-0.0199 0.0715-0.0521 0.0899v2.2018l1.1979-2.2917-0.41667-2.0834z" enable-background="new" fill="#333"/>
  <path d="m333.38 191.58c0 0.80541-0.46637 1.4583-1.0417 1.4583-0.5753 0-1.0417-0.65292-1.0417-1.4583-1e-5 -0.80543 0.46636-1.4584 1.0417-1.4584 0.5753 0 1.0417 0.6529 1.0417 1.4584z" enable-background="new" fill="#333"/>
  <path d="m331.3 191.58h2.0833v8.8354h-2.0833z" enable-background="new" fill="#6d6d6d"/>
  <path d="m331.3 197.07 2.0833 1e-5v0.20833h-2.0833z" enable-background="new" fill="#ffe680"/>
  <path d="m331.3 200.21h2.0833v0.20834h-2.0833z" enable-background="new" fill="#ffe680"/>
  <path d="m331.3 197.28h2.0833v2.9355h-2.0833z" fill="#999"/>
  <path d="m332.92 190.38c-0.17312-0.16605-0.37819-0.25487-0.58811-0.25491-0.0493 6.5e-4 -0.0985 7e-3 -0.14733 0.0167 0.15806 0.0311 0.30884 0.11261 0.44081 0.23823 0.28417 0.27143 0.45365 0.72209 0.45375 1.2036l-2.2e-4 8.8356h0.29463l2.1e-4 -8.8356c-7e-5 -0.48144-0.16986-0.93181-0.45375-1.2036z" enable-background="new" fill="#999" opacity=".4"/>
 </g>
 <text x="11.92221" y="20.053741" enable-background="new" fill="#000000" font-family="sans-serif" font-size="5.3418px" letter-spacing="0px" stroke-width=".13355" word-spacing="0px" style="line-height:1.25" xml:space="preserve"><tspan x="11.92221" y="20.053741" fill="#888888" font-family="ubuntu" stroke-width=".13355" text-align="center" text-anchor="middle">pgp</tspan></text>
 <path transform="translate(-320,-188)" d="m327.87 189c-4.4121 0-4.8868 0.45318-4.8652 4.8742v6.1258 6.1258c-0.0217 4.421 0.45311 4.8742 4.8652 4.8742h8.2696c4.4121 0 4.8652-0.45312 4.8652-4.8742v-6.1258-6.1258c0-4.4211-0.45312-4.8742-4.8652-4.8742z" clip-path="url(#clipPath971)" color="#000000" fill="none" opacity=".4" stroke="url(#linearGradient981)" stroke-width="2"/>
</svg>
