<svg width="16" height="16" version="1.1" xmlns="http://www.w3.org/2000/svg" xmlns:xlink="http://www.w3.org/1999/xlink">
 <defs>
  <linearGradient id="linearGradient920" x1="441.38" x2="40.019" y1="240.3" y2="395.24" gradientTransform="matrix(0 -.038619 .039047 0 -4.5285 17.545)" gradientUnits="userSpaceOnUse">
   <stop stop-color="#da1636" offset="0"/>
   <stop stop-color="#f22c42" offset="1"/>
  </linearGradient>
  <linearGradient id="linearGradient993" x1="328" x2="328" y1="237" y2="251" gradientTransform="translate(-320,-236)" gradientUnits="userSpaceOnUse">
   <stop stop-color="#fff" offset="0"/>
   <stop stop-color="#fff" stop-opacity=".098039" offset=".125"/>
   <stop stop-color="#fff" stop-opacity=".098039" offset=".925"/>
   <stop stop-color="#fff" stop-opacity=".49804" offset="1"/>
  </linearGradient>
 </defs>
 <path d="m5.0957 1c-0.71904 0-1.3018 0.0139-1.8359 0.10352-0.53409 0.0897-1.0683 0.27628-1.4766 0.68359-0.40826 0.4073-0.59657 0.94323-0.68554 1.4785-0.089 0.53529-0.10119 1.1205-0.0977 1.8418v2.8926 3.8984c-3e-3 0.71816 9e-3 1.3024 0.0977 1.8359 0.089 0.53528 0.27727 1.0712 0.68554 1.4785 0.40827 0.40731 0.94248 0.59394 1.4766 0.68359 0.53408 0.0897 1.1169 0.10352 1.8359 0.10352h5.8086c0.71904 0 1.3006-0.0137 1.834-0.10352 0.53341-0.0898 1.0677-0.27792 1.4746-0.68554s0.59404-0.94271 0.68359-1.4766c0.08956-0.53386 0.10352-1.1155 0.10352-1.8359v-3.8984-3l-4-4z" color="#000000" color-rendering="auto" dominant-baseline="auto" image-rendering="auto" opacity=".1" shape-rendering="auto" solid-color="#000000" style="font-feature-settings:normal;font-variant-alternates:normal;font-variant-caps:normal;font-variant-ligatures:normal;font-variant-numeric:normal;font-variant-position:normal;isolation:auto;mix-blend-mode:normal;shape-padding:0;text-decoration-color:#000000;text-decoration-line:none;text-decoration-style:solid;text-indent:0;text-orientation:mixed;text-transform:none;white-space:normal"/>
 <path d="m4.8545 0.50001c-3.0417 0-3.3689 0.30899-3.354 3.3233v4.1767 4.1767c-0.0149 3.0143 0.31237 3.3233 3.354 3.3233h6.2915c3.0417 0 3.354-0.30895 3.354-3.3233v-4.1767-4.2857l-3.25-3.2143z" color="#000000" fill="url(#linearGradient920)"/>
 <g transform="matrix(.0625 0 0 .0625 -1.4998 -.75)" enable-background="new" stroke-width="16">
  <rect x="24" y="28" width="256" height="256" enable-background="accumulate" fill="none"/>
  <path d="m128.95 166.7c3.9862-7.8131 8.5164-16.616 12.142-25.454l1.4337-3.4888c-4.7362-18.023-7.5761-32.489-5.039-41.844 0.683-2.4388 3.5077-3.9185 6.5276-3.9185l1.8402 0.02708h0.33776c4.1344-0.06342 6.0811 5.1958 6.302 7.2405 0.36484 3.4054-1.2107 9.1687-1.2107 9.1687 0-2.3273 0.0912-6.0879-1.3778-9.333-1.7098-3.7549-3.3431-5.9981-4.8074-6.3537-0.7393 0.49382-1.4579 1.5164-1.7041 3.4834-0.50985 2.758-0.6627 6.2393-0.6627 8.034 0 6.3405 1.2484 14.709 3.7018 23.337 0.46282-1.3357 0.87006-2.6191 1.1939-3.8216 0.50308-1.8951 3.7015-14.457 3.7015-14.457s-0.80593 16.722-1.9318 21.782c-0.24121 1.0692-0.50735 2.1267-0.78455 3.2091 4.0457 11.304 10.565 21.393 18.341 28.654 3.0662 2.8656 6.9387 5.1762 10.604 7.2822 8.004-1.1437 15.374-1.6838 21.522-1.6158 8.1569 0.1076 14.144 1.314 16.569 3.7022 1.1872 1.1608 1.6689 2.5628 1.8185 4.1344 0.0356 0.6114-0.26223 2.048-0.34952 2.4085 0.0873-0.43646 0.0873-2.5827-6.4606-4.6727-5.1569-1.6486-14.808-1.5972-26.39-0.36449 13.395 6.5536 26.446 9.8097 30.581 7.8576 1.0112-0.49275 2.2375-2.173 2.2375-2.173s-0.72897 3.3121-1.2524 4.1401c-0.66804 0.89963-1.9785 1.8741-3.2208 2.2026-6.5315 1.7426-23.533-2.2899-38.355-10.759-16.56 2.4388-34.746 6.9441-49.323 11.725-14.325 25.105-25.095 36.635-33.857 32.249l-3.2212-1.6197c-1.3094-0.74892-1.5092-2.572-1.2064-4.0567 1.0215-4.9977 7.2882-12.525 19.876-20.042 1.355-0.81983 7.3905-4.0111 7.3905-4.0111s-4.4682 4.3246-5.515 5.1733c-10.047 8.2335-17.463 18.592-17.278 22.608l0.03634 0.35023c8.5349-1.2164 21.334-18.588 37.789-50.785m5.2146 2.67c-2.7484 5.1762-5.4348 9.9754-7.915 14.382 13.719-5.748 28.485-9.4263 42.541-12.039-1.889-1.3044-3.7229-2.6857-5.4484-4.1458-7.7404-6.5532-13.642-14.729-17.919-23.332-2.7128 7.3086-5.9386 15.075-11.259 25.135" fill="#fff" stroke-width="6.2691"/>
 </g>
 <path d="m8 1v14h2.9043c2.8077 0 3.0957-0.28815 3.0957-3.1016v-3.8984-4l-3-3z" color="#000000" fill="#fff" opacity=".1"/>
 <path d="m 2,8 v 3.89844 C 1.9862,14.71181 2.28801,15 5.0957,15 h 5.8086 C 13.712,15 14,14.71185 14,11.89844 V 8 Z" color="#000000" fill="#fff" opacity=".1"/>
 <path d="m5.0957 1.7586e-8c-0.71904 0-1.3018 0.0139-1.8359 0.10352-0.53409 0.0897-1.0683 0.27628-1.4766 0.68359-0.40826 0.4073-0.59657 0.94324-0.68554 1.4785-0.089 0.5353-0.10115 1.1205-0.0977 1.8418v3.8926 3.8984c-3e-3 0.71816 9e-3 1.3024 0.0977 1.8359 0.089 0.53528 0.27727 1.0712 0.68554 1.4785 0.40827 0.40731 0.94248 0.59394 1.4766 0.68359 0.53408 0.0897 1.1169 0.10352 1.8359 0.10352h5.8086c0.71904 0 1.3006-0.0137 1.834-0.10352 0.53341-0.0898 1.0677-0.27792 1.4746-0.68554s0.59404-0.94271 0.68359-1.4766c0.08956-0.53386 0.10352-1.1155 0.10352-1.8359v-3.8984-4.4141l-3.5859-3.5859zm0 1h5.9043l3 3v4 3.8984c0 2.8134-0.288 3.1016-3.0957 3.1016h-5.8086c-2.8077 0-3.1095-0.28819-3.0957-3.1016v-3.8984-3.8984c-0.01376-2.8134 0.28801-3.1016 3.0957-3.1016z" color="#000000" color-rendering="auto" dominant-baseline="auto" image-rendering="auto" opacity=".4" shape-rendering="auto" solid-color="#000000" style="font-feature-settings:normal;font-variant-alternates:normal;font-variant-caps:normal;font-variant-ligatures:normal;font-variant-numeric:normal;font-variant-position:normal;isolation:auto;mix-blend-mode:normal;shape-padding:0;text-decoration-color:#000000;text-decoration-line:none;text-decoration-style:solid;text-indent:0;text-orientation:mixed;text-transform:none;white-space:normal"/>
 <path d="m5.0957 1c-2.8077 0-3.1095 0.28819-3.0957 3.1016v3.8984 3.8984c-0.0138 2.8134 0.28801 3.1016 3.0957 3.1016h5.8086c2.8077 0 3.0957-0.28815 3.0957-3.1016v-3.8984-4l-3-3zm0 1h5.9043l2 2v4 3.8984c0 0.68627-0.022 1.1944-0.0742 1.5059-0.0522 0.31147-0.11279 0.37642-0.1289 0.39258-0.0161 0.0161-0.0803 0.0767-0.39063 0.1289-0.31036 0.05222-0.81716 0.07422-1.502 0.07422h-5.8086c-0.6848 0-1.1921-0.0238-1.5039-0.0762-0.3118-0.0523-0.37803-0.1105-0.39453-0.12695-0.0165-0.0165-0.0754-0.0806-0.12696-0.39063-0.0515-0.31005-0.0737-0.81855-0.0703-1.5039v-2e-3 -3.9003-3.9004-2e-3c-3e-3 -0.68537 0.0188-1.1939 0.0703-1.5039s0.11045-0.37416 0.12696-0.39063c0.0165-0.0165 0.0827-0.0746 0.39453-0.12695 0.31179-0.0523 0.8191-0.0762 1.5039-0.0762z" color="#000000" color-rendering="auto" dominant-baseline="auto" fill="url(#linearGradient993)" image-rendering="auto" opacity=".4" shape-rendering="auto" solid-color="#000000" style="font-feature-settings:normal;font-variant-alternates:normal;font-variant-caps:normal;font-variant-ligatures:normal;font-variant-numeric:normal;font-variant-position:normal;isolation:auto;mix-blend-mode:normal;shape-padding:0;text-decoration-color:#000000;text-decoration-line:none;text-decoration-style:solid;text-indent:0;text-orientation:mixed;text-transform:none;white-space:normal"/>
 <path d="m14 5v-1l-3-3h-1v1.5306 0.0587 0.0315c0 2.0698 0.27707 2.389 2.3516 2.3788z" color="#000000" fill="#830e21" opacity=".6"/>
 <path d="m14 3.9996-3-2.9996v1.1127 0.0485 0.026c0 1.7076 0.0787 1.8209 1.7902 1.8126z" color="#000000" fill="#f66f7e"/>
</svg>
