<svg width="16" height="16" enable-background="new" version="1.0" xmlns="http://www.w3.org/2000/svg" xmlns:xlink="http://www.w3.org/1999/xlink">
 <title>Suru Icon Theme Template</title>
 <defs>
  <linearGradient id="linearGradient993" x1="328" x2="328" y1="237" y2="251" gradientUnits="userSpaceOnUse">
   <stop stop-color="#fff" offset="0"/>
   <stop stop-color="#fff" stop-opacity=".098039" offset=".125"/>
   <stop stop-color="#fff" stop-opacity=".098039" offset=".925"/>
   <stop stop-color="#fff" stop-opacity=".49804" offset="1"/>
  </linearGradient>
 </defs>
 <g transform="translate(-325,-255)">
  <g display="none" fill="#fff">
   <path d="m326 84v12.252c-0.0433 8.842 0.90629 9.748 9.7305 9.748h16.539c8.8242 0 9.7305-0.90592 9.7305-9.748v-12.252z" color="#000000" display="inline" enable-background="accumulate" opacity=".1"/>
   <path d="m344 62v44h8.2695c8.8242 0 9.7305-0.90592 9.7305-9.748v-12.252-12l-10-10z" color="#000000" display="inline" enable-background="accumulate" opacity=".1"/>
   <path d="m323 200v6.125c-0.0217 4.421 0.45314 4.875 4.8652 4.875h8.2695c4.4121 0 4.8652-0.45393 4.8652-4.875v-6.125z" color="#000000" display="inline" enable-background="accumulate" opacity=".1"/>
   <path d="m328 237v14h2.9043c2.8077 0 3.0957-0.28815 3.0957-3.1016v-3.8984-4l-3-3z" color="#000000" display="inline" enable-background="accumulate" opacity=".1"/>
   <path d="m324 148v7.7969c-0.0276 5.6267 0.57798 6.2031 6.1934 6.2031h11.615c5.6154 0 6.1914-0.57631 6.1914-6.2031v-7.7969z" color="#000000" display="inline" enable-background="accumulate" opacity=".1"/>
   <path d="m332 189v22h4.1348c4.4121 0 4.8652-0.45393 4.8652-4.875v-6.125-6l-5-5z" color="#000000" display="inline" enable-background="accumulate" opacity=".1"/>
   <path d="m322 244v3.8984c-0.0138 2.8134 0.28801 3.1016 3.0957 3.1016h5.8086c2.8077 0 3.0957-0.28815 3.0957-3.1016v-3.8984z" color="#000000" display="inline" enable-background="accumulate" opacity=".1"/>
   <path d="m336 134v28h5.8086c5.6154 0 6.1914-0.57631 6.1914-6.2031v-7.7969-8l-6-6z" color="#000000" display="inline" enable-background="accumulate" opacity=".1"/>
  </g>
  <g>
   <g transform="translate(5,19)" enable-background="new">
    <rect x="320" y="236" width="16" height="16" enable-background="accumulate" opacity="0" stroke-width="2"/>
    <path d="m325.1 237c-0.71904 0-1.3018 0.0139-1.8359 0.10352-0.53409 0.0897-1.0683 0.27628-1.4766 0.68359-0.40826 0.4073-0.59657 0.94323-0.68554 1.4785-0.089 0.53529-0.10119 1.1205-0.0977 1.8418v2.8926 3.8984c-3e-3 0.71816 9e-3 1.3024 0.0977 1.8359 0.089 0.53528 0.27727 1.0712 0.68554 1.4785 0.40827 0.40731 0.94248 0.59394 1.4766 0.68359 0.53408 0.0897 1.1169 0.10352 1.8359 0.10352h5.8086c0.71904 0 1.3006-0.0137 1.834-0.10352 0.53341-0.0898 1.0677-0.27792 1.4746-0.68554s0.59404-0.94271 0.68359-1.4766c0.08956-0.53386 0.10352-1.1155 0.10352-1.8359v-3.8984-3l-4-4z" color="#000000" color-rendering="auto" dominant-baseline="auto" enable-background="accumulate" image-rendering="auto" opacity=".1" shape-rendering="auto" solid-color="#000000" style="font-feature-settings:normal;font-variant-alternates:normal;font-variant-caps:normal;font-variant-ligatures:normal;font-variant-numeric:normal;font-variant-position:normal;isolation:auto;mix-blend-mode:normal;shape-padding:0;text-decoration-color:#000000;text-decoration-line:none;text-decoration-style:solid;text-indent:0;text-orientation:mixed;text-transform:none;white-space:normal"/>
    <path d="m324.85 236.5c-3.0417 0-3.3689 0.30899-3.354 3.3233v4.1767 4.1767c-0.0149 3.0143 0.31237 3.3233 3.354 3.3233h6.2915c3.0417 0 3.354-0.30895 3.354-3.3233v-4.1767-4.2857l-3.25-3.2143z" color="#000000" enable-background="accumulate" fill="#0ca1a6"/>
    <path d="m325.46 243c-1.362 0-2.4582 1.124-2.4582 2.5 0 1.376 1.1101 2.5 2.4582 2.5 0.12607 0 0.25345-0.0147 0.37946-0.0292 1.053-0.163 1.7554-0.96209 2.1624-1.5681 0.393 0.62099 1.0954 1.4201 2.1624 1.5681 0.12607 0.0155 0.25346 0.0292 0.37946 0.0292 1.348 0 2.4582-1.109 2.4582-2.5 0-1.376-1.1102-2.5-2.4582-2.5-0.12608 0-0.25346 0.0163-0.37946 0.0308-1.053 0.16299-1.7554 0.96067-2.1624 1.5667-0.39301-0.60698-1.1094-1.4187-2.1624-1.5667-0.12607-0.01551-0.25347-0.0308-0.37946-0.0308zm4.9916 0.74918c0.48682-0.0133 0.98098 0.15606 1.3226 0.51059 0.5862 0.55682 0.68929 1.5309 0.226 2.1945-0.37838 0.5874-1.1183 0.89058-1.8024 0.76311-0.80882-0.15658-1.3892-0.83756-1.7815-1.5193-0.18645-0.19866 0.0361-0.42785 0.12835-0.61663 0.41503-0.67277 1.078-1.2941 1.9071-1.3323zm-5.0098 0.0167c0.79669-0.0627 1.4631 0.52366 1.8917 1.1342 0.12087 0.19925 0.29229 0.39752 0.339 0.62222-0.18532 0.41333-0.46425 0.79677-0.79101 1.1161-0.41362 0.41417-0.9981 0.66897-1.589 0.5943-0.94417-0.0539-1.7046-1.0052-1.5681-1.9378 0.0936-0.83959 0.86132-1.5557 1.7174-1.529z" enable-background="new" fill="#fff" opacity=".7" stroke-width="1.3046"/>
    <rect x="324.43" y="245.14" width="2.1429" height=".71429" enable-background="new" fill="#fff"/>
    <rect x="329.43" y="245.14" width="2.1429" height=".71429" enable-background="new" fill="#fff"/>
    <rect transform="rotate(-90)" x="-246.57" y="330.14" width="2.1429" height=".71429" enable-background="new" fill="#fff"/>
    <path d="m325.1 236c-0.71904 0-1.3018 0.0139-1.8359 0.10352-0.53409 0.0897-1.0683 0.27628-1.4766 0.68359-0.40826 0.4073-0.59657 0.94324-0.68554 1.4785-0.089 0.5353-0.10115 1.1205-0.0977 1.8418v3.8926 3.8984c-3e-3 0.71816 9e-3 1.3024 0.0977 1.8359 0.089 0.53528 0.27727 1.0712 0.68554 1.4785 0.40827 0.40731 0.94248 0.59394 1.4766 0.68359 0.53408 0.0897 1.1169 0.10352 1.8359 0.10352h5.8086c0.71904 0 1.3006-0.0137 1.834-0.10352 0.53341-0.0898 1.0677-0.27792 1.4746-0.68554s0.59404-0.94271 0.68359-1.4766c0.08956-0.53386 0.10352-1.1155 0.10352-1.8359v-3.8984-4.4141l-3.5859-3.5859zm0 1h5.9043l3 3v4 3.8984c0 2.8134-0.288 3.1016-3.0957 3.1016h-5.8086c-2.8077 0-3.1095-0.28819-3.0957-3.1016v-3.8984-3.8984c-0.01376-2.8134 0.28801-3.1016 3.0957-3.1016z" color="#000000" color-rendering="auto" dominant-baseline="auto" enable-background="accumulate" image-rendering="auto" opacity=".4" shape-rendering="auto" solid-color="#000000" style="font-feature-settings:normal;font-variant-alternates:normal;font-variant-caps:normal;font-variant-ligatures:normal;font-variant-numeric:normal;font-variant-position:normal;isolation:auto;mix-blend-mode:normal;shape-padding:0;text-decoration-color:#000000;text-decoration-line:none;text-decoration-style:solid;text-indent:0;text-orientation:mixed;text-transform:none;white-space:normal"/>
    <path d="m325.1 237c-2.8077 0-3.1095 0.28819-3.0957 3.1016v3.8984 3.8984c-0.0138 2.8134 0.28801 3.1016 3.0957 3.1016h5.8086c2.8077 0 3.0957-0.28815 3.0957-3.1016v-3.8984-4l-3-3zm0 1h5.9043l2 2v4 3.8984c0 0.68627-0.022 1.1944-0.0742 1.5059-0.0522 0.31147-0.11279 0.37642-0.1289 0.39258-0.0161 0.0161-0.0803 0.0767-0.39063 0.1289-0.31036 0.05222-0.81716 0.07422-1.502 0.07422h-5.8086c-0.6848 0-1.1921-0.0238-1.5039-0.0762-0.3118-0.0523-0.37803-0.1105-0.39453-0.12695-0.0165-0.0165-0.0754-0.0806-0.12696-0.39063-0.0515-0.31005-0.0737-0.81855-0.0703-1.5039v-2e-3 -3.9003-3.9004-2e-3c-3e-3 -0.68537 0.0188-1.1939 0.0703-1.5039s0.11045-0.37416 0.12696-0.39063c0.0165-0.0165 0.0827-0.0746 0.39453-0.12695 0.31179-0.0523 0.8191-0.0762 1.5039-0.0762z" color="#000000" color-rendering="auto" dominant-baseline="auto" enable-background="accumulate" fill="url(#linearGradient993)" image-rendering="auto" opacity=".4" shape-rendering="auto" solid-color="#000000" style="font-feature-settings:normal;font-variant-alternates:normal;font-variant-caps:normal;font-variant-ligatures:normal;font-variant-numeric:normal;font-variant-position:normal;isolation:auto;mix-blend-mode:normal;shape-padding:0;text-decoration-color:#000000;text-decoration-line:none;text-decoration-style:solid;text-indent:0;text-orientation:mixed;text-transform:none;white-space:normal"/>
    <path d="m334 241v-1l-3-3h-1v1.5306 0.0587 0.0315c0 2.0698 0.27707 2.389 2.3516 2.3788z" color="#000000" enable-background="accumulate" fill="#076164" opacity=".6"/>
    <path d="m334 240-3-2.9996v1.1127 0.0485 0.026c0 1.7076 0.0787 1.8209 1.7902 1.8126z" color="#000000" enable-background="accumulate" fill="#64c3c6"/>
   </g>
  </g>
 </g>
</svg>
