<svg width="48" height="48" version="1" xmlns="http://www.w3.org/2000/svg" xmlns:xlink="http://www.w3.org/1999/xlink">
 <defs>
  <linearGradient id="linearGradient8588" x1="13.735" x2="38.1" y1="249.69" y2="292.77" gradientTransform="matrix(.94488 0 0 .94488 .50001 -233.13)" gradientUnits="userSpaceOnUse">
   <stop stop-color="#8c59d9" offset="0"/>
   <stop stop-color="#a7a7f1" offset="1"/>
  </linearGradient>
  <linearGradient id="linearGradient8590" x1="96" x2="96" y1="4" y2="188" gradientTransform="matrix(.23913 0 0 .23913 1.0435 1.0435)" gradientUnits="userSpaceOnUse">
   <stop stop-color="#fff" offset="0"/>
   <stop stop-color="#fff" stop-opacity=".098039" offset=".125"/>
   <stop stop-color="#fff" stop-opacity=".098039" offset=".925"/>
   <stop stop-color="#fff" stop-opacity=".49804" offset="1"/>
  </linearGradient>
 </defs>
 <circle transform="scale(-1)" cx="-24" cy="-25" r="23" enable-background="new" opacity=".1"/>
 <circle cx="24" cy="24" r="22.5" enable-background="new" fill="url(#linearGradient8588)"/>
 <path d="m14.945 3.4336a22.5 22.5 0 0 0-1.0527 0.4707c-0.4942 5.4537-0.65271 10.814-0.29492 15.918-3.2826-2.0419-6.4452-4.1918-9.4785-6.3301a22.5 22.5 0 0 0-0.43164 0.89453c2.9449 2.0745 5.9747 4.1575 9.166 6.1523-3.9132 1.4648-7.6559 3.3402-11.211 5.7637a22.5 22.5 0 0 0 0.13672 1.123c3.7606-2.6241 7.7423-4.6178 11.932-6.1406 0.23281 2.5756 0.58707 5.0877 1.1133 7.5 0.57258 2.6249 1.3371 5.1399 2.3125 7.5176-1.4312 0.47482-2.8625 0.85404-4.248 1.1406-2.2998 0.47569-4.4615 0.7046-6.3086 0.77539a22.5 22.5 0 0 0 0.8418 0.95898c1.7149-0.10403 3.634-0.33321 5.668-0.75391 1.4467-0.29923 2.944-0.69406 4.4453-1.1953 1.5099 3.4238 3.4969 6.5342 6.0234 9.25a22.5 22.5 0 0 0 0.44141 0.02148 22.5 22.5 0 0 0 0.92188-0.0332c-2.7405-2.7636-4.8588-5.9898-6.4492-9.582 4.2061-1.5352 8.3645-3.951 11.463-7.6699 4.7322 1.7777 9.6614 3.0512 14.777 3.5703a22.5 22.5 0 0 0 0.35547-0.9668c-10.796-1.0337-20.807-5.5461-29.906-11.037 5.6976-1.9039 11.773-2.9883 18.201-3.6133-0.9067 3.6751-2.1894 7.2282-3.7695 10.621l0.90625 0.42188c1.653-3.5493 2.9886-7.2768 3.916-11.141 3.4854-0.31086 7.0714-0.50084 10.756-0.62109a22.5 22.5 0 0 0-0.36524-0.9668c-3.4559 0.11624-6.8598 0.2729-10.154 0.55859 0.79146-3.6063 1.2127-7.3297 1.1953-11.137a22.5 22.5 0 0 0-1-0.61328c0.0725 4.0552-0.37345 8.0163-1.2383 11.848-6.6963 0.63273-13.044 1.75-19 3.7676-0.37853-5.2555-0.2009-10.811 0.33593-16.473zm-0.19726 18.27c4.5017 2.7132 9.2314 5.1989 14.188 7.1445-2.9431 3.4072-6.8693 5.6634-10.861 7.1152-0.95714-2.3284-1.7083-4.7997-2.2734-7.3906-0.48197-2.2095-0.82234-4.5075-1.0527-6.8691z" color="#000000" color-rendering="auto" dominant-baseline="auto" fill="#fff" fill-rule="evenodd" image-rendering="auto" opacity=".5" shape-rendering="auto" solid-color="#000000" style="font-feature-settings:normal;font-variant-alternates:normal;font-variant-caps:normal;font-variant-ligatures:normal;font-variant-numeric:normal;font-variant-position:normal;isolation:auto;mix-blend-mode:normal;shape-padding:0;text-decoration-color:#000000;text-decoration-line:none;text-decoration-style:solid;text-indent:0;text-orientation:mixed;text-transform:none;white-space:normal"/>
 <ellipse cx="14.5" cy="20.497" rx="1.5" ry="1.5026" enable-background="new" fill="#fff"/>
 <ellipse cx="18.5" cy="36.497" rx="1.5" ry="1.5026" enable-background="new" fill="#fff"/>
 <ellipse cx="34.5" cy="16.497" rx="1.5" ry="1.5026" enable-background="new" fill="#fff"/>
 <ellipse cx="29.5" cy="28.497" rx="1.5" ry="1.5026" enable-background="new" fill="#fff"/>
 <circle cx="24" cy="24" r="22.5" enable-background="new" fill="none" opacity=".4" stroke="#000" stroke-dashoffset="6.6" stroke-linejoin="round"/>
 <path d="m24 2a22 22 0 0 0-22 22 22 22 0 0 0 22 22 22 22 0 0 0 22-22 22 22 0 0 0-22-22zm0 0.95653a21.043 21.043 0 0 1 21.043 21.043 21.043 21.043 0 0 1-21.043 21.043 21.043 21.043 0 0 1-21.043-21.043 21.043 21.043 0 0 1 21.043-21.043z" enable-background="new" fill="url(#linearGradient8590)"/>
</svg>
