<svg width="16" height="16" version="1.1" viewBox="0 0 16 16" xmlns="http://www.w3.org/2000/svg">
 <defs>
  <style id="current-color-scheme" type="text/css">.ColorScheme-Text { color:#444444; } .ColorScheme-Highlight { color:#4285f4; }</style>
 </defs>
 <path class="ColorScheme-Text" d="m0.3258 1.0494e-4v0.0013a0.33322 0.33323 0 0 0-0.24223 0.55347c0.60447 0.70544 1.7003 1.0463 2.9861 1.3218 0.91101 0.1951 1.9206 0.34532 2.9262 0.49747v1.6305h1.3374v2.0003h-1.3374v0.95978c-0.00267 4.67e-4 -0.00515 0-0.00782 0-1.4065 0.23097-2.8191 0.53261-3.9381 1.1226-1.119 0.58996-1.9546 1.5223-2.0459 2.8911-0.035999 0.54348 0.16525 1.0275 0.52222 1.3843 0.35697 0.35692 0.84996 0.60414 1.4351 0.7983 1.0795 0.35819 2.4982 0.53286 4.0345 0.67328v1.5015h1.3374v0.66417h0.66677v-0.66417h1.3283v-1.2046c2.4698 0.24177 4.8304 0.60066 6.1481 1.4794a0.33337 0.33338 0 1 0 0.36985-0.55477c-1.5514-1.0346-4.0116-1.3847-6.5179-1.6096v-1.4429h-1.3283v-2.6671h1.3283v-2.2269c0.2363-0.04533 0.47209-0.09058 0.69021-0.14325 0.56622-0.13689 1.0657-0.30221 1.469-0.54045 0.4033-0.23817 0.72358-0.56994 0.83346-1.0093 0.13946-0.55829 0.07215-1.0757-0.1719-1.4963-0.24411-0.42073-0.64228-0.73727-1.1226-0.99104-0.48544-0.25644-1.064-0.45516-1.6982-0.61859v-1.6396h-1.3283v-0.66677h-0.66677v0.66677h-1.3374v1.0275c-0.97302-0.14776-1.9378-0.29344-2.7869-0.47533-1.2413-0.26591-2.224-0.6421-2.6189-1.103a0.33322 0.33323 0 0 0-0.26436-0.11981zm9.0027 3.0109c0.53264 0.14602 1.0118 0.31103 1.3869 0.50919 0.41063 0.21697 0.69915 0.46388 0.8569 0.73579 0.15778 0.27191 0.20777 0.57516 0.10158 1.0002-0.05666 0.2271-0.21631 0.41552-0.52482 0.59775-0.30857 0.18223-0.75458 0.3376-1.2867 0.46622-0.1658 0.04001-0.35292 0.07483-0.53394 0.11069v-0.42585h-1.3283v-2.0003h1.3283zm-3.3326 4.6309v1.6956h1.3374v2.6671h-1.3374v1.1603c-1.4991-0.13942-2.8643-0.3155-3.8248-0.63421-0.52775-0.17516-0.92989-0.39342-1.1747-0.63812-0.24478-0.2447-0.35161-0.4977-0.32687-0.86862 0.075325-1.1305 0.69725-1.8224 1.6917-2.3467 0.97015-0.51155 2.2862-0.80995 3.6347-1.0353z" color="#444444" fill="#666"/>
</svg>
