<svg width="16" height="16" version="1.1" viewBox="0 0 16 16" xmlns="http://www.w3.org/2000/svg">
 <defs>
  <style id="current-color-scheme" type="text/css">.ColorScheme-Text { color:#666666; }</style>
 </defs>
 <path d="m6 12v4h5v-4zm1 1h3v2h-3z" fill="#666666"/>
 <path d="m0 12v4h5v-4zm1 1h3v2h-3z" fill="#666666"/>
 <path d="m5 7v4h5v-4zm1 1h3v2h-3z" fill="#666666"/>
 <path d="m11 6v4h5v-4zm1 1h3v2h-3z" fill="#666666"/>
 <path d="m0 2v4h5v-4zm1 1h3v2h-3z" fill="#666666"/>
 <path d="m10 1v4h5v-4zm1 1h3v2h-3z" fill="#666666"/>
</svg>
