<svg version="1.1" viewBox="0 0 16 16" xmlns="http://www.w3.org/2000/svg">
 <defs>
  <style id="current-color-scheme" type="text/css">.ColorScheme-Text { color:#666666; } .ColorScheme-Highlight { color:#f34f17; }</style>
 </defs>
 <path class="ColorScheme-Text" d="m9 2a4.5 4.5 0 0 0-1.3008 0.34766l0.50391 0.87305a3.5 3.5 0 0 1 0.79688-0.21289zm1 2e-3v1.0078a3.5 3.5 0 0 1 0.79688 0.21094l0.50195-0.86914a4.5 4.5 0 0 0-1.2988-0.34966zm-3.166 0.84766a4.5 4.5 0 0 0-0.95312 0.95312l0.87305 0.50195a3.5 3.5 0 0 1 0.58008-0.58599zm5.332 0-0.50195 0.87305a3.5 3.5 0 0 1 0.58594 0.58003l0.86914-0.5a4.5 4.5 0 0 0-0.95312-0.95312zm1.4551 1.8184-0.87305 0.50391a3.5 3.5 0 0 1 0.21289 0.79682h1.0078a4.5 4.5 0 0 0-0.34766-1.3008zm-8.2383 2e-3a4.5 4.5 0 0 0-0.34961 1.2987h-0.033203v1h0.0293a4.5 4.5 0 0 0 3.9707 3.9668v0.0332h1v-0.03125a4.5 4.5 0 0 0 1.3008-0.34766l-0.50391-0.87304a3.5 3.5 0 0 1-0.79688 0.21094v-3.959h-3.9609a3.5 3.5 0 0 1 0.21289-0.79688zm-3.3828 1.2987v2h1v-1h1v-1h-1zm4.0391 1h2.9609v2.959a3.5 3.5 0 0 1-2.9609-2.959zm6.9199 0a3.5 3.5 0 0 1-0.21094 0.79688l0.86914 0.50195a4.5 4.5 0 0 0 0.34961-1.2988zm-0.71289 1.6641a3.5 3.5 0 0 1-0.58008 0.58594l0.5 0.86914a4.5 4.5 0 0 0 0.95312-0.95312zm-10.246 0.33594v1h1v-1zm0 2v1h1v-1zm7 1v1h-1v1h2v-2zm-7 1v1h1v-1zm2 0v1h1v-1zm2 0v1h1v-1z" color="#666666" fill="#666"/>
</svg>
