<svg width="16" height="16" version="1.1" xmlns="http://www.w3.org/2000/svg" xmlns:xlink="http://www.w3.org/1999/xlink">
 <defs>
  <linearGradient id="linearGradient993-3" x1="328" x2="328" y1="237" y2="251" gradientTransform="translate(-320 -236)" gradientUnits="userSpaceOnUse">
   <stop stop-color="#fff" offset="0"/>
   <stop stop-color="#fff" stop-opacity=".098039" offset=".125"/>
   <stop stop-color="#fff" stop-opacity=".098039" offset=".925"/>
   <stop stop-color="#fff" stop-opacity=".49804" offset="1"/>
  </linearGradient>
  <linearGradient id="linearGradient971" x1="184" x2="152" y1="48" y2="79.998" gradientTransform="matrix(.046881 0 0 .046876 3.8739 .24996)" gradientUnits="userSpaceOnUse">
   <stop stop-color="#3da89d" offset="0"/>
   <stop stop-color="#49cbbd" offset="1"/>
  </linearGradient>
 </defs>
 <path d="m5.0957 1c-0.71904 0-1.3018 0.0139-1.8359 0.10352-0.53409 0.0897-1.0683 0.27628-1.4766 0.68359-0.40826 0.4073-0.59657 0.94323-0.68554 1.4785-0.089 0.53529-0.10119 1.1205-0.0977 1.8418v2.8926 3.8984c-3e-3 0.71816 9e-3 1.3024 0.0977 1.8359 0.089 0.53528 0.27727 1.0712 0.68554 1.4785 0.40827 0.40731 0.94248 0.59394 1.4766 0.68359 0.53408 0.0897 1.1169 0.10352 1.8359 0.10352h5.8086c0.71904 0 1.3006-0.0137 1.834-0.10352 0.53341-0.0898 1.0677-0.27792 1.4746-0.68554s0.59404-0.94271 0.68359-1.4766c0.08956-0.53386 0.10352-1.1155 0.10352-1.8359v-3.8984-3l-4-4z" color="#000000" color-rendering="auto" dominant-baseline="auto" image-rendering="auto" opacity=".1" shape-rendering="auto" solid-color="#000000" style="font-feature-settings:normal;font-variant-alternates:normal;font-variant-caps:normal;font-variant-ligatures:normal;font-variant-numeric:normal;font-variant-position:normal;isolation:auto;mix-blend-mode:normal;shape-padding:0;text-decoration-color:#000000;text-decoration-line:none;text-decoration-style:solid;text-indent:0;text-orientation:mixed;text-transform:none;white-space:normal"/>
 <path d="m4.8545 0.50001c-3.0417 0-3.3689 0.30899-3.354 3.3233v4.1767 4.1767c-0.0149 3.0143 0.31237 3.3233 3.354 3.3233h6.2915c3.0417 0 3.354-0.30895 3.354-3.3233v-4.1767-4.2857l-3.25-3.2143z" color="#000000" fill="#067569"/>
 <g transform="matrix(.068161 0 0 .068161 20.279 8.6249)" enable-background="new" fill="#fff">
  <path d="m-166.15-31.812h39.999v80h-39.999c0.0179-29.143-0.12997-53.768 0-80z" enable-background="new" stroke-width="1.3333"/>
  <path d="m-175.62-47.812c-19.506 3.4736-39.022 8.0822-58.527 11.492 0 29.672-0.0124 59.356 2.6e-4 89.041 19.404 3.3972 38.818 7.9296 58.184 11.467h5.8125l-2.6e-4 -112zm-29.35 31.268c3.8483-0.0817 7.541 0.47221 10.541 3.1855 5.7467 6.9734 4.227 19.799-4.293 23.973-3.0267 1.5467-6.4938 1.3352-9.7871 1.2285-0.0133 5.2133-0.027 10.425-0.0137 15.639-2.64-0.22666-5.2916-0.45269-7.9316-0.66602-0.12001-14.24-0.14828-27.835 0.0117-42.075 3.7546-0.46779 7.6243-1.2029 11.473-1.2846zm-0.44336 7.7266c-1.0502-0.0281-2.1244 0.0683-3.1094 0.11328-0.04 4.48-0.0652 8.9454 0.21484 13.412 2.6533-0.32 6.0933-0.0522 7.6133-2.7988 1.2667-2.6933 1.3462-6.1347-0.17383-8.748-1.1083-1.5417-2.7947-1.9316-4.5449-1.9785z" enable-background="new" stroke-width="1.3333"/>
 </g>
 <path d="m8 1v14h2.9043c2.8077 0 3.0957-0.28815 3.0957-3.1016v-3.8984-4l-3-3z" color="#000000" fill="#fff" opacity=".1"/>
 <path d="m 2,8 v 3.89844 C 1.9862,14.71181 2.28801,15 5.0957,15 h 5.8086 C 13.712,15 14,14.71185 14,11.89844 V 8 Z" color="#000000" fill="#fff" opacity=".1"/>
 <path d="m5.0957 0c-0.71904 0-1.3018 0.0139-1.8359 0.10352-0.53409 0.0897-1.0683 0.27628-1.4766 0.68359-0.40826 0.4073-0.59657 0.94324-0.68554 1.4785-0.089 0.5353-0.10115 1.1205-0.0977 1.8418v3.8926 3.8984c-3e-3 0.71816 9e-3 1.3024 0.0977 1.8359 0.089 0.53528 0.27727 1.0712 0.68554 1.4785 0.40827 0.40731 0.94248 0.59394 1.4766 0.68359 0.53408 0.0897 1.1169 0.10352 1.8359 0.10352h5.8086c0.71904 0 1.3006-0.0137 1.834-0.10352 0.53341-0.0898 1.0677-0.27792 1.4746-0.68554s0.59404-0.94271 0.68359-1.4766c0.08956-0.53386 0.10352-1.1155 0.10352-1.8359v-3.8984-4.4141l-3.5859-3.5859zm0 1h5.9043l3 3v4 3.8984c0 2.8134-0.288 3.1016-3.0957 3.1016h-5.8086c-2.8077 0-3.1095-0.28819-3.0957-3.1016v-3.8984-3.8984c-0.01376-2.8134 0.28801-3.1016 3.0957-3.1016z" color="#000000" color-rendering="auto" dominant-baseline="auto" image-rendering="auto" opacity=".4" shape-rendering="auto" solid-color="#000000" style="font-feature-settings:normal;font-variant-alternates:normal;font-variant-caps:normal;font-variant-ligatures:normal;font-variant-numeric:normal;font-variant-position:normal;isolation:auto;mix-blend-mode:normal;shape-padding:0;text-decoration-color:#000000;text-decoration-line:none;text-decoration-style:solid;text-indent:0;text-orientation:mixed;text-transform:none;white-space:normal"/>
 <path d="m5.0961 1c-2.8077 0-3.1095 0.28819-3.0957 3.1016v3.8984 3.8984c-0.0138 2.8134 0.28801 3.1016 3.0957 3.1016h5.8086c2.8077 0 3.0957-0.28815 3.0957-3.1016v-3.8984-4l-3-3zm0 1h5.9043l2 2v4 3.8984c0 0.68627-0.022 1.1944-0.0742 1.5059-0.0522 0.31147-0.11279 0.37642-0.1289 0.39258-0.0161 0.0161-0.0803 0.0767-0.39063 0.1289-0.31036 0.0522-0.81716 0.0742-1.502 0.0742h-5.8086c-0.6848 0-1.1921-0.0238-1.5039-0.0762-0.3118-0.0523-0.37803-0.1105-0.39453-0.12695-0.0165-0.0165-0.0754-0.0806-0.12696-0.39063-0.0515-0.31005-0.0737-0.81855-0.0703-1.5039v-2e-3 -3.9003-3.9004-2e-3c-3e-3 -0.68537 0.0188-1.1939 0.0703-1.5039s0.11045-0.37416 0.12696-0.39063c0.0165-0.0165 0.0827-0.0746 0.39453-0.12695 0.31179-0.0523 0.8191-0.0762 1.5039-0.0762z" color="#000000" color-rendering="auto" dominant-baseline="auto" fill="url(#linearGradient993-3)" image-rendering="auto" opacity=".4" shape-rendering="auto" solid-color="#000000" style="font-feature-settings:normal;font-variant-alternates:normal;font-variant-caps:normal;font-variant-ligatures:normal;font-variant-numeric:normal;font-variant-position:normal;isolation:auto;mix-blend-mode:normal;shape-padding:0;text-decoration-color:#000000;text-decoration-line:none;text-decoration-style:solid;text-indent:0;text-orientation:mixed;text-transform:none;white-space:normal"/>
 <path d="m14 5v-1l-3-3h-1v1.5306 0.0587 0.0315c0 2.0698 0.27707 2.389 2.3516 2.3788z" color="#000000" fill="#00492b" opacity=".6"/>
 <path d="m14 3.9998-3-2.9998v1.078 0.0469 0.0252c0 1.6544 0.16999 1.8578 1.828 1.8497z" color="#000000" fill="url(#linearGradient971)"/>
</svg>
