<svg width="16" height="16" enable-background="new" version="1.0" xmlns="http://www.w3.org/2000/svg" xmlns:xlink="http://www.w3.org/1999/xlink">
 <title>Suru Icon Theme Template</title>
 <defs>
  <linearGradient id="linearGradient920" x1="459.03" x2="35.31" y1="419.23" y2="207.37" gradientTransform="matrix(0 -.036044 .036043 0 316.44 252.91)" gradientUnits="userSpaceOnUse">
   <stop stop-color="#f2f2f2" offset="0"/>
   <stop stop-color="#f9f9f9" offset="1"/>
  </linearGradient>
  <linearGradient id="linearGradient993" x1="328" x2="328" y1="237" y2="251" gradientUnits="userSpaceOnUse">
   <stop stop-color="#fff" offset="0"/>
   <stop stop-color="#fff" stop-opacity=".098039" offset=".125"/>
   <stop stop-color="#fff" stop-opacity=".098039" offset=".925"/>
   <stop stop-color="#fff" stop-opacity=".49804" offset="1"/>
  </linearGradient>
 </defs>
 <g transform="translate(-244.44 -203.61)">
  <g>
   <g transform="translate(-75.563 -32.388)" enable-background="new">
    <rect x="320" y="236" width="16" height="16" enable-background="accumulate" opacity="0" stroke-width="2"/>
    <path d="m325.1 237c-0.71904 0-1.3018 0.0139-1.8359 0.10352-0.53409 0.0897-1.0683 0.27628-1.4766 0.68359-0.40826 0.4073-0.59657 0.94323-0.68554 1.4785-0.089 0.53529-0.10119 1.1205-0.0977 1.8418v2.8926 3.8984c-3e-3 0.71816 9e-3 1.3024 0.0977 1.8359 0.089 0.53528 0.27727 1.0712 0.68554 1.4785 0.40827 0.40731 0.94248 0.59394 1.4766 0.68359 0.53408 0.0897 1.1169 0.10352 1.8359 0.10352h5.8086c0.71904 0 1.3006-0.0137 1.834-0.10352 0.53341-0.0898 1.0677-0.27792 1.4746-0.68554s0.59404-0.94271 0.68359-1.4766c0.08956-0.53386 0.10352-1.1155 0.10352-1.8359v-3.8984-3l-4-4z" color="#000000" color-rendering="auto" dominant-baseline="auto" enable-background="accumulate" image-rendering="auto" opacity=".1" shape-rendering="auto" solid-color="#000000" style="font-feature-settings:normal;font-variant-alternates:normal;font-variant-caps:normal;font-variant-ligatures:normal;font-variant-numeric:normal;font-variant-position:normal;isolation:auto;mix-blend-mode:normal;shape-padding:0;text-decoration-color:#000000;text-decoration-line:none;text-decoration-style:solid;text-indent:0;text-orientation:mixed;text-transform:none;white-space:normal"/>
    <path d="m325.1 237c-2.8077 0-3.1098 0.28839-3.096 3.1018v3.8982 3.8982c-0.0138 2.8134 0.28834 3.1018 3.096 3.1018h5.8075c2.8077 0 3.096-0.28835 3.096-3.1018v-3.8982-4l-3-3z" color="#000000" enable-background="accumulate" fill="none" opacity=".2" stroke="#000" stroke-width="2"/>
    <path d="m325.1 237c-2.8077 0-3.1098 0.28839-3.096 3.1018v3.8982 3.8982c-0.0138 2.8134 0.28834 3.1018 3.096 3.1018h5.8075c2.8077 0 3.096-0.28835 3.096-3.1018v-3.8982-4l-3-3z" color="#000000" enable-background="accumulate" fill="url(#linearGradient920)"/>
    <path d="m330.18 244.22c0 0.34532-0.0515 0.66458-0.15832 0.95392-0.10535 0.28538-0.25765 0.53681-0.45512 0.74746-0.19272 0.21126-0.42686 0.37705-0.6949 0.49322l-2e-3 9.5e-4 -2e-3 9.4e-4c-0.26978 0.11109-0.56289 0.16564-0.87261 0.16564-0.3097 0-0.60282-0.0545-0.8726-0.16564l-2e-3 -9.4e-4 -2e-3 -9.5e-4c-0.26771-0.11603-0.50369-0.28087-0.70113-0.49092l-2e-3 -2e-3c-0.19219-0.21085-0.34114-0.46202-0.44634-0.74699-0.10681-0.28934-0.15832-0.60861-0.15832-0.95393 0-0.33998 0.0516-0.65643 0.15786-0.94493l2.4e-4 -4.7e-4c0.105-0.28997 0.25375-0.54423 0.44657-0.75576l2e-3 -2e-3c0.19776-0.21039 0.43479-0.37311 0.70344-0.484 0.27004-0.11667 0.56391-0.17441 0.87422-0.17441 0.31032 0 0.60419 0.0577 0.87422 0.17441 0.26895 0.11102 0.50417 0.2747 0.69721 0.4863 0.1981 0.21133 0.3502 0.46588 0.45534 0.75622 0.10642 0.28863 0.15809 0.60523 0.15809 0.94539zm-0.47289 0c0-0.29287-0.044-0.55245-0.12901-0.78275l-2.3e-4 -7.1e-4 -2.4e-4 -7.1e-4c-0.0862-0.23806-0.20503-0.43418-0.35726-0.59612l-2e-3 -2e-3c-0.14715-0.16144-0.32092-0.28298-0.53012-0.36912l-2e-3 -7.1e-4 -2e-3 -9.4e-4c-0.20849-0.0904-0.43528-0.13634-0.68844-0.13634-0.25314 0-0.48017 0.046-0.68866 0.13634l-2e-3 9.4e-4 -2e-3 7.1e-4c-0.20899 0.0861-0.38609 0.20799-0.53888 0.37004-0.14744 0.16198-0.26455 0.35877-0.35103 0.59773l-2.4e-4 7.1e-4 -2.3e-4 7.1e-4c-0.085 0.23031-0.12925 0.48988-0.12925 0.78275 0 0.29844 0.0444 0.56054 0.12925 0.79036 0.0862 0.23351 0.20312 0.42816 0.35102 0.59081 0.15318 0.16261 0.33142 0.28772 0.54143 0.37904 0.2088 0.0857 0.43673 0.12942 0.69051 0.12942 0.25355 0 0.48119-0.0439 0.68983-0.12942 0.21013-0.0913 0.38537-0.21558 0.53288-0.37742l2e-3 -2e-3c0.15297-0.16274 0.27176-0.3568 0.35772-0.58966 0.0848-0.22983 0.12901-0.49192 0.12901-0.79037z" color="#000000" color-rendering="auto" dominant-baseline="auto" enable-background="accumulate" fill="#999" image-rendering="auto" shape-rendering="auto" solid-color="#000000" style="font-feature-settings:normal;font-variant-alternates:normal;font-variant-caps:normal;font-variant-ligatures:normal;font-variant-numeric:normal;font-variant-position:normal;isolation:auto;mix-blend-mode:normal;shape-padding:0;text-decoration-color:#000000;text-decoration-line:none;text-decoration-style:solid;text-indent:0;text-orientation:mixed;text-transform:none;white-space:normal"/>
    <path d="m332 250.14-0.47265 2.4e-4c-3.5e-4 -0.48216-0.0384-0.87012-0.13224-1.1699-0.0938-0.29974-0.23447-0.51124-0.46619-0.68309-0.46343-0.34369-1.3594-0.51399-2.9273-0.51399s-2.4639 0.1702-2.9278 0.51399c-0.23195 0.17189-0.37291 0.38352-0.46712 0.68332-0.0942 0.29981-0.13298 0.68791-0.13408 1.1701l-0.47265-1e-3c1e-3 -0.50579 0.0382-0.93705 0.15554-1.3106 0.11738-0.37354 0.32381-0.68926 0.63675-0.92117 0.62586-0.46381 1.6102-0.60719 3.2093-0.60719s2.5833 0.14328 3.2089 0.60719c0.31277 0.23195 0.51892 0.5478 0.63582 0.9214 0.1169 0.37359 0.15334 0.80501 0.1537 1.3108z" color="#000000" color-rendering="auto" dominant-baseline="auto" enable-background="accumulate" fill="#999" image-rendering="auto" shape-rendering="auto" solid-color="#000000" style="font-feature-settings:normal;font-variant-alternates:normal;font-variant-caps:normal;font-variant-ligatures:normal;font-variant-numeric:normal;font-variant-position:normal;isolation:auto;mix-blend-mode:normal;shape-padding:0;text-decoration-color:#000000;text-decoration-line:none;text-decoration-style:solid;text-indent:0;text-orientation:mixed;text-transform:none;white-space:normal"/>
    <path d="m328 237v14h2.9043c2.8077 0 3.0957-0.28815 3.0957-3.1016v-3.8984-4l-3-3z" color="#000000" enable-background="accumulate" fill="#fff" opacity=".2"/>
    <path d="m322 244v3.8984c-0.0138 2.8134 0.28801 3.1016 3.0957 3.1016h5.8086c2.8077 0 3.0957-0.28815 3.0957-3.1016v-3.8984z" color="#000000" enable-background="accumulate" fill="#fff" opacity=".2"/>
    <path d="m325.1 237c-2.8077 0-3.1095 0.28819-3.0957 3.1016v3.8984 3.8984c-0.0138 2.8134 0.28801 3.1016 3.0957 3.1016h5.8086c2.8077 0 3.0957-0.28815 3.0957-3.1016v-3.8984-4l-3-3zm0 1h5.9043l2 2v4 3.8984c0 0.68627-0.022 1.1944-0.0742 1.5059-0.0522 0.31147-0.11279 0.37642-0.1289 0.39258-0.0161 0.0161-0.0803 0.0767-0.39063 0.1289-0.31036 0.05222-0.81716 0.07422-1.502 0.07422h-5.8086c-0.6848 0-1.1921-0.0238-1.5039-0.0762-0.3118-0.0523-0.37803-0.1105-0.39453-0.12695-0.0165-0.0165-0.0754-0.0806-0.12696-0.39063-0.0515-0.31005-0.0737-0.81855-0.0703-1.5039v-2e-3 -3.9003-3.9004-2e-3c-3e-3 -0.68537 0.0188-1.1939 0.0703-1.5039s0.11045-0.37416 0.12696-0.39063c0.0165-0.0165 0.0827-0.0746 0.39453-0.12695 0.31179-0.0523 0.8191-0.0762 1.5039-0.0762z" color="#000000" color-rendering="auto" dominant-baseline="auto" enable-background="accumulate" fill="url(#linearGradient993)" image-rendering="auto" opacity=".4" shape-rendering="auto" solid-color="#000000" style="font-feature-settings:normal;font-variant-alternates:normal;font-variant-caps:normal;font-variant-ligatures:normal;font-variant-numeric:normal;font-variant-position:normal;isolation:auto;mix-blend-mode:normal;shape-padding:0;text-decoration-color:#000000;text-decoration-line:none;text-decoration-style:solid;text-indent:0;text-orientation:mixed;text-transform:none;white-space:normal"/>
    <path d="m334 241v-1l-3-3h-1v1.5306 0.0587 0.0315c0 2.0698 0.27707 2.389 2.3516 2.3788z" color="#000000" enable-background="accumulate" opacity=".2"/>
    <path d="m334 240-3-2.9996v1.1127 0.0485 0.026c0 1.7076 0.0787 1.8209 1.7902 1.8126z" color="#000000" enable-background="accumulate" fill="#faf8f6"/>
   </g>
  </g>
 </g>
</svg>
