<svg xmlns:dc="http://purl.org/dc/elements/1.1/" xmlns:cc="http://creativecommons.org/ns#" xmlns:rdf="http://www.w3.org/1999/02/22-rdf-syntax-ns#" xmlns:svg="http://www.w3.org/2000/svg" xmlns="http://www.w3.org/2000/svg" xmlns:xlink="http://www.w3.org/1999/xlink" style="display:inline;enable-background:new" version="1.0" id="svg11300" height="16" width="16">
  <title id="title3004">Suru Icon Theme Template</title>
  <defs id="defs3">
    <linearGradient y2="207.36522" x2="35.310345" y1="419.23337" x1="459.03448" gradientTransform="matrix(0,-0.03604403,0.03604301,0,316.43523,252.90909)" gradientUnits="userSpaceOnUse" id="linearGradient920" xlink:href="#linearGradient4338"/>
    <linearGradient id="linearGradient4338">
      <stop id="stop4340" offset="0" style="stop-color:#f2f2f2;stop-opacity:1"/>
      <stop id="stop4342" offset="1" style="stop-color:#f9f9f9;stop-opacity:1"/>
    </linearGradient>
    <linearGradient gradientUnits="userSpaceOnUse" y2="251" x2="328" y1="237" x1="328" id="linearGradient993" xlink:href="#linearGradient927"/>
    <linearGradient id="linearGradient927">
      <stop id="stop923" offset="0" style="stop-color:#ffffff;stop-opacity:1;"/>
      <stop style="stop-color:#ffffff;stop-opacity:0.09803922" offset="0.125" id="stop933"/>
      <stop style="stop-color:#ffffff;stop-opacity:0.09803922" offset="0.92500001" id="stop931"/>
      <stop id="stop925" offset="1" style="stop-color:#ffffff;stop-opacity:0.49803922"/>
    </linearGradient>
  </defs>
  <metadata id="metadata4">
    <rdf:RDF>
      <cc:Work rdf:about="">
        <dc:format>image/svg+xml</dc:format>
        <dc:type rdf:resource="http://purl.org/dc/dcmitype/StillImage"/>
        <dc:creator>
          <cc:Agent>
            <dc:title>Sam Hewitt</dc:title>
          </cc:Agent>
        </dc:creator>
        <dc:source/>
        <cc:license rdf:resource="http://creativecommons.org/licenses/by-sa/4.0/"/>
        <dc:title>Suru Icon Theme Template</dc:title>
        <dc:subject>
          <rdf:Bag/>
        </dc:subject>
        <dc:date/>
        <dc:rights>
          <cc:Agent>
            <dc:title/>
          </cc:Agent>
        </dc:rights>
        <dc:publisher>
          <cc:Agent>
            <dc:title/>
          </cc:Agent>
        </dc:publisher>
        <dc:identifier/>
        <dc:relation/>
        <dc:language/>
        <dc:coverage/>
        <dc:description/>
        <dc:contributor>
          <cc:Agent>
            <dc:title/>
          </cc:Agent>
        </dc:contributor>
      </cc:Work>
      <cc:Work rdf:about="">
        <dc:format>image/svg+xml</dc:format>
        <dc:type rdf:resource="http://purl.org/dc/dcmitype/StillImage"/>
      </cc:Work>
      <cc:License rdf:about="http://creativecommons.org/licenses/by-sa/4.0/">
        <cc:permits rdf:resource="http://creativecommons.org/ns#Reproduction"/>
        <cc:permits rdf:resource="http://creativecommons.org/ns#Distribution"/>
        <cc:requires rdf:resource="http://creativecommons.org/ns#Notice"/>
        <cc:requires rdf:resource="http://creativecommons.org/ns#Attribution"/>
        <cc:permits rdf:resource="http://creativecommons.org/ns#DerivativeWorks"/>
        <cc:requires rdf:resource="http://creativecommons.org/ns#ShareAlike"/>
      </cc:License>
    </rdf:RDF>
  </metadata>
  <g transform="translate(-147,-153)" id="layer1" style="display:inline">
    <g id="layer7" style="display:inline"/>
    <g style="display:inline" id="layer4"/>
    <g style="display:inline" id="layer2"/>
    <g style="display:inline" id="layer6"/>
    <g style="display:inline" id="layer3"/>
    <g style="display:inline" id="layer5"/>
    <g style="display:inline" id="layer9">
      <g id="g6950" style="display:inline;enable-background:new" transform="translate(-173,-83)">
        <rect style="display:inline;overflow:visible;visibility:visible;opacity:0;fill:#cdcdcd;fill-opacity:1;fill-rule:nonzero;stroke:none;stroke-width:2;marker:none;enable-background:accumulate" id="rect16x16" width="16" height="16" x="320" y="236"/>
        <path style="color:#000000;font-style:normal;font-variant:normal;font-weight:normal;font-stretch:normal;font-size:medium;line-height:normal;font-family:sans-serif;font-variant-ligatures:normal;font-variant-position:normal;font-variant-caps:normal;font-variant-numeric:normal;font-variant-alternates:normal;font-feature-settings:normal;text-indent:0;text-align:start;text-decoration:none;text-decoration-line:none;text-decoration-style:solid;text-decoration-color:#000000;letter-spacing:normal;word-spacing:normal;text-transform:none;writing-mode:lr-tb;direction:ltr;text-orientation:mixed;dominant-baseline:auto;baseline-shift:baseline;text-anchor:start;white-space:normal;shape-padding:0;clip-rule:nonzero;display:inline;overflow:visible;visibility:visible;opacity:0.1;isolation:auto;mix-blend-mode:normal;color-interpolation:sRGB;color-interpolation-filters:linearRGB;solid-color:#000000;solid-opacity:1;vector-effect:none;fill:#000000;fill-opacity:1;fill-rule:nonzero;stroke:none;stroke-width:2;stroke-linecap:butt;stroke-linejoin:miter;stroke-miterlimit:4;stroke-dasharray:none;stroke-dashoffset:0;stroke-opacity:1;marker:none;color-rendering:auto;image-rendering:auto;shape-rendering:auto;text-rendering:auto;enable-background:accumulate" d="m 325.0957,237 c -0.71904,0 -1.30185,0.0139 -1.83593,0.10352 -0.53409,0.0897 -1.0683,0.27628 -1.47657,0.68359 -0.40826,0.4073 -0.59657,0.94323 -0.68554,1.47851 -0.089,0.53529 -0.10119,1.12048 -0.0977,1.8418 V 244 v 3.89844 c -0.003,0.71816 0.009,1.30235 0.0977,1.83594 0.089,0.53528 0.27727,1.07121 0.68554,1.47851 0.40827,0.40731 0.94248,0.59394 1.47657,0.68359 0.53408,0.0897 1.11689,0.10352 1.83593,0.10352 h 5.8086 c 0.71904,0 1.30058,-0.0137 1.83398,-0.10352 0.53341,-0.0898 1.06768,-0.27792 1.47461,-0.68554 0.40693,-0.40762 0.59404,-0.94271 0.68359,-1.47656 C 334.98604,249.20052 335,248.61887 335,247.89844 V 244 241 l -4,-4 z" id="path997"/>
        <path id="path928" d="m 325.09646,237 c -2.80769,0 -3.10979,0.28839 -3.09603,3.10176 V 244 v 3.89824 c -0.0138,2.81337 0.28834,3.10176 3.09603,3.10176 h 5.8075 C 333.71166,251 334,250.71165 334,247.89824 V 244 240 l -3,-3 z" style="color:#000000;display:inline;overflow:visible;visibility:visible;opacity:0.2;fill:none;fill-opacity:1;fill-rule:nonzero;stroke:#000000;stroke-width:2;stroke-miterlimit:4;stroke-dasharray:none;stroke-opacity:1;marker:none;enable-background:accumulate"/>
        <path style="color:#000000;display:inline;overflow:visible;visibility:visible;fill:url(#linearGradient920);fill-opacity:1;fill-rule:nonzero;stroke:none;stroke-width:1;marker:none;enable-background:accumulate" d="m 325.09646,237 c -2.80769,0 -3.10979,0.28839 -3.09603,3.10176 V 244 v 3.89824 c -0.0138,2.81337 0.28834,3.10176 3.09603,3.10176 h 5.8075 C 333.71166,251 334,250.71165 334,247.89824 V 244 240 l -3,-3 z" id="path918"/>
        <path style="clip-rule:evenodd;display:inline;fill:#dd4f37;fill-opacity:1;fill-rule:evenodd;stroke-width:3.83576155;enable-background:new" d="m 329.37408,239.00001 c 0.50288,1.98114 -1.77381,2.57951 -2.5955,3.81332 -0.55956,0.84064 0.27466,1.74396 1.412,2.77002 -0.44351,-1.0026 -1.94762,-1.87961 4.4e-4,-3.41843 2.42943,-1.91756 1.18285,-3.16491 1.18285,-3.16491 z m 1.50303,2.45111 c 3e-5,0 -4.108,1.02572 -2.1461,3.28649 0.57916,0.6667 -0.15193,1.26616 -0.15193,1.26616 0,0 1.46973,-0.75855 0.79489,-1.70896 -0.63052,-0.8859 -1.11385,-1.326 1.50314,-2.84369 z m 0.7275,4.03827 c -0.14434,4.3e-4 -0.2976,0.0256 -0.45483,0.0808 -0.12606,0.0447 -0.19221,0.14837 -0.19221,0.14837 0,0 0.0797,-0.032 0.2574,-0.0692 0.72665,-0.15141 1.76782,0.97278 -0.48372,2.14245 -0.0104,0.0279 -0.045,0.0591 -0.045,0.0591 2.67766,-0.70391 2.0937,-2.36373 0.91836,-2.36154 z m -4.82426,0.11416 c -0.17637,-0.005 -0.93886,0.007 -1.84999,0.44803 -1.23185,0.59563 3.04646,0.86698 5.26151,0.28438 0.23029,-0.15715 0.54838,-0.29359 0.54838,-0.29359 0,0 -0.90595,0.16197 -1.80866,0.23773 -1.10488,0.0927 -2.29008,0.11099 -2.88501,0.0314 -1.40859,-0.18832 0.77217,-0.70636 0.77217,-0.70636 0,0 -0.0132,-0.001 -0.0384,-0.001 z m -0.46937,1.36282 c -2.03203,0.67441 1.1312,1.43979 3.97119,0.60907 -0.30174,-0.10637 -0.49334,-0.30103 -0.49334,-0.30103 -1.38856,0.26723 -2.19062,0.2587 -3.20654,0.15382 -0.78543,-0.0812 -0.27131,-0.46186 -0.27131,-0.46186 z m 0.28721,1.31365 c -1.8451,0.51555 1.12259,1.58045 3.47189,0.57392 -0.38477,-0.14954 -0.66075,-0.32217 -0.66075,-0.32217 -1.04764,0.19804 -1.53362,0.21364 -2.48459,0.10505 -0.78483,-0.09 -0.32655,-0.3568 -0.32655,-0.3568 z m -1.28153,0.87096 c -0.82858,0.0256 -2.44901,0.77057 -0.96712,1.01106 4.78958,0.77635 8.73071,-0.34968 7.48851,-0.9102 0,0 0.33932,0.27977 -0.37364,0.49607 -1.3557,0.41064 -5.64367,0.53449 -6.83466,0.0164 -0.42783,-0.18635 0.37482,-0.44465 0.62738,-0.49919 0.26332,-0.057 0.41371,-0.0466 0.41371,-0.0466 -0.0744,-0.0524 -0.20074,-0.0723 -0.35418,-0.0676 z m 7.28175,0.71202 c 0,0 -0.15097,0.38763 -1.78586,0.69519 -1.8444,0.34724 -4.11977,0.30675 -5.46878,0.084 0,0 0.27631,0.22876 1.69639,0.32016 2.16072,0.13814 5.4797,-0.0768 5.55825,-1.09937 z" id="path1127"/>
        <path style="color:#000000;display:inline;overflow:visible;visibility:visible;opacity:0.2;fill:#ffffff;fill-opacity:1;fill-rule:nonzero;stroke:none;stroke-width:1;marker:none;enable-background:accumulate" d="m 328,237 v 14 h 2.9043 C 333.712,251 334,250.71185 334,247.89844 V 244 240 l -3,-3 z" id="path1009"/>
        <path style="color:#000000;display:inline;overflow:visible;visibility:visible;opacity:0.2;fill:#ffffff;fill-opacity:1;fill-rule:nonzero;stroke:none;stroke-width:1;marker:none;enable-background:accumulate" d="m 322,244 v 3.89844 C 321.9862,250.71181 322.28801,251 325.0957,251 h 5.8086 C 333.712,251 334,250.71185 334,247.89844 V 244 Z" id="path1016"/>
        <path style="color:#000000;font-style:normal;font-variant:normal;font-weight:normal;font-stretch:normal;font-size:medium;line-height:normal;font-family:sans-serif;font-variant-ligatures:normal;font-variant-position:normal;font-variant-caps:normal;font-variant-numeric:normal;font-variant-alternates:normal;font-feature-settings:normal;text-indent:0;text-align:start;text-decoration:none;text-decoration-line:none;text-decoration-style:solid;text-decoration-color:#000000;letter-spacing:normal;word-spacing:normal;text-transform:none;writing-mode:lr-tb;direction:ltr;text-orientation:mixed;dominant-baseline:auto;baseline-shift:baseline;text-anchor:start;white-space:normal;shape-padding:0;clip-rule:nonzero;display:inline;overflow:visible;visibility:visible;opacity:0.4;isolation:auto;mix-blend-mode:normal;color-interpolation:sRGB;color-interpolation-filters:linearRGB;solid-color:#000000;solid-opacity:1;vector-effect:none;fill:url(#linearGradient993);fill-opacity:1;fill-rule:nonzero;stroke:none;stroke-width:2;stroke-linecap:butt;stroke-linejoin:miter;stroke-miterlimit:4;stroke-dasharray:none;stroke-dashoffset:0;stroke-opacity:1;marker:none;color-rendering:auto;image-rendering:auto;shape-rendering:auto;text-rendering:auto;enable-background:accumulate" clip-path="none" d="m 325.0957,237 c -2.80769,0 -3.10946,0.28819 -3.0957,3.10156 V 244 247.89844 C 321.9862,250.71181 322.28801,251 325.0957,251 h 5.8086 C 333.712,251 334,250.71185 334,247.89844 V 244 240 l -3,-3 z m 0,1 H 331 l 2,2 v 4 3.89844 c 0,0.68627 -0.022,1.19438 -0.0742,1.50586 -0.0522,0.31147 -0.11279,0.37642 -0.1289,0.39258 -0.0161,0.0161 -0.0803,0.0767 -0.39063,0.1289 C 332.09591,249.978 331.58911,250 330.9043,250 h -5.8086 c -0.6848,0 -1.19211,-0.0238 -1.5039,-0.0762 -0.3118,-0.0523 -0.37803,-0.1105 -0.39453,-0.12695 -0.0165,-0.0165 -0.0754,-0.0806 -0.12696,-0.39063 -0.0515,-0.31005 -0.0737,-0.81855 -0.0703,-1.50391 v -0.002 V 244 v -3.90039 -0.002 c -0.003,-0.68537 0.0188,-1.19386 0.0703,-1.50391 0.0515,-0.31005 0.11045,-0.37416 0.12696,-0.39063 0.0165,-0.0165 0.0827,-0.0746 0.39453,-0.12695 0.31179,-0.0523 0.8191,-0.0762 1.5039,-0.0762 z" id="path937"/>
        <path style="color:#000000;display:inline;overflow:visible;visibility:visible;opacity:0.2;fill:#000000;fill-opacity:1;fill-rule:nonzero;stroke:none;stroke-width:0.25002289;marker:none;enable-background:accumulate" d="m 334,241 v -1 l -3,-3 h -1 v 1.53057 0.0587 0.0315 c 0,2.06981 0.27707,2.38897 2.35163,2.37882 z" id="rect4158-0-3-62-2-3-7-3"/>
        <path style="color:#000000;display:inline;overflow:visible;visibility:visible;fill:#faf8f6;fill-opacity:1;fill-rule:nonzero;stroke:none;stroke-width:0.25002289;marker:none;enable-background:accumulate" d="M 334,239.99962 331,237 v 1.11269 0.0485 0.026 c 0,1.70759 0.0787,1.82093 1.79021,1.81256 z" id="rect4158-0-3-62-6-5-5"/>
      </g>
    </g>
  </g>
</svg>