<svg width="32" height="32" version="1.1" xmlns="http://www.w3.org/2000/svg">
 <rect transform="matrix(0,-1,-1,0,0,0)" x="-32" y="-31" width="30" height="30" rx="15" ry="15" enable-background="new" opacity=".2"/>
 <rect transform="matrix(0,-1,-1,0,0,0)" x="-31" y="-31" width="30" height="30" rx="15" ry="15" enable-background="new" fill="#e95420"/>
 <path d="m16 6c-2.7614 0-5 2.2386-5 5v3h-2v10h14v-10h-11v-3c0-2.2246 1.7754-4 4-4s4 1.7754 4 4h1c0-2.7614-2.2386-5-5-5zm1 10.5v4.5h-2v-4z" enable-background="new" fill="#fff"/>
</svg>
