<svg width="32" height="32" version="1.1" xmlns="http://www.w3.org/2000/svg">
 <rect transform="matrix(0,-1,-1,0,0,0)" x="-32" y="-31" width="30" height="30" rx="15" ry="15" enable-background="new" opacity=".2"/>
 <rect transform="matrix(0,-1,-1,0,0,0)" x="-31" y="-31" width="30" height="30" rx="15" ry="15" enable-background="new" fill="#f1f0e9"/>
 <path d="m16.785 8.0189c-2.6435 2e-3 -4.8891 1.6297-5.9629 3.9573l-0.0735 0.15918-0.1702 0.0122c-2.4415 0.17509-4.3736 2.2897-4.3736 4.8573 0 2.6852 2.1011 4.8891 4.6993 4.8891h11.369c1.9481 0 3.5227-1.653 3.5227-3.6586a3.6218 3.6218 0 0 0-2.2101-3.3488l-0.16652-0.071-0.0123-0.18243c-0.16652-3.6647-3.0451-6.6119-6.618-6.6143zm0 1.2244c2.8994 2e-3 5.254 2.3901 5.3924 5.445v0.0122l0.0624 0.94892 0.86076 0.36366a2.3803 2.3803 0 0 1 1.4644 2.2223c0.0123 1.364-1.0359 2.4342-2.2909 2.4342h-11.37c-1.9052 0-3.4737-1.6175-3.4737-3.6635-2e-3 -1.9566 1.4497-3.5092 3.2374-3.6402l0.88526-0.0612 0.37957-0.81178v-5e-3c0.89138-1.9346 2.7096-3.2423 4.8499-3.2447z" color="#000000" enable-background="new" fill="#808080" font-weight="400" overflow="visible" stroke="#808080" stroke-width=".26098" style="text-decoration-line:none;text-indent:0;text-transform:none"/>
</svg>
