<svg width="24" height="24" version="1.1" xmlns="http://www.w3.org/2000/svg">
 <circle cx="19" cy="19" r="5" opacity=".2"/>
 <circle cx="19" cy="18" r="5" fill="#1474e7"/>
 <path d="m19 15c0.63126 0.0013 1.2714 0.19812 1.7714 0.58755 0.3515 0.40493-0.31826 0.8386-0.61991 0.44375-0.90807-0.54946-2.1887-0.356-2.872 0.46547-0.3635 0.40766-0.5683 0.95165-0.5659 1.4977h0.6001l-0.96016 1.4402-0.96016-1.4402h0.6001c-0.01915-1.3038 0.91862-2.5442 2.1777-2.8819 0.27005-0.07408 0.5484-0.11554 0.82884-0.11263zm2.6345 1.5603 0.96016 1.4402h-0.6001c0.01702 1.3195-0.9447 2.5737-2.2258 2.8936-0.86442 0.2414-1.8419 0.06524-2.5523-0.48703-0.36249-0.41169 0.31658-0.84118 0.62104-0.44271 0.87982 0.53379 2.1119 0.36449 2.8064-0.39792 0.40207-0.4143 0.63334-0.98855 0.63034-1.566h-0.6001l0.96016-1.4402z" fill="#fff"/>
</svg>
