<svg width="22" height="22" version="1.1" viewBox="0 0 22 22" xmlns="http://www.w3.org/2000/svg">
 <defs>
  <style id="current-color-scheme" type="text/css">.ColorScheme-Text{color:#666666}.ColorScheme-Highlight{color:#f34f17}</style>
 </defs>
 <path class="ColorScheme-Text" d="m10.6 4.05-0.707 0.708 2.293 2.293h-3.186v1h3.186l-2.293 2.293 0.707 0.707 3.5-3.5-0.207-0.207zm-3.1 3a0.5 0.5 0 1 0 0 1 0.5 0.5 0 1 0 0-1zm-3 2a0.5 0.5 0 1 0 0 1 0.5 0.5 0 1 0 0-1zm-1 3a0.5 0.5 0 1 0 0 1 0.5 0.5 0 1 0 0-1zm1 3a0.5 0.5 0 1 0 0 1 0.5 0.5 0 1 0 0-1zm3 2a0.5 0.5 0 1 0 0 1 0.5 0.5 0 1 0 0-1z" color="#666666" fill="#666"/>
 <path class="ColorScheme-Highlight" d="m15 11a4 4 0 0 0-4 4 4 4 0 0 0 4 4 4 4 0 0 0 4-4 4 4 0 0 0-4-4zm0 1a3 3 0 0 1 3 3 3 3 0 0 1-3 3 3 3 0 0 1-3-3 3 3 0 0 1 3-3z" color="#f34f17" fill="#f34f17"/>
</svg>
