<svg width="22" height="22" version="1.1" viewBox="0 0 22 22" xmlns="http://www.w3.org/2000/svg">
 <defs>
  <style id="current-color-scheme" type="text/css">.ColorScheme-Text{color:#666666}</style>
 </defs>
 <path d="m9 15v4h5v-4zm1 1h3v2h-3z" fill="#666666"/>
 <path d="m3 15v4h5v-4zm1 1h3v2h-3z" fill="#666666"/>
 <path d="m8 10v4h5v-4zm1 1h3v2h-3z" fill="#666666"/>
 <path d="m14 9v4h5v-4zm1 1h3v2h-3z" fill="#666666"/>
 <path d="m3 5v4h5v-4zm1 1h3v2h-3z" fill="#666666"/>
 <path d="m13 4v4h5v-4zm1 1h3v2h-3z" fill="#666666"/>
</svg>
