<?xml version="1.0" encoding="UTF-8" standalone="no"?>
<svg
   width="22"
   height="22"
   version="1.1"
   id="svg10"
   sodipodi:docname="radio.svg"
   inkscape:version="1.2 (dc2aedaf03, 2022-05-15)"
   xmlns:inkscape="http://www.inkscape.org/namespaces/inkscape"
   xmlns:sodipodi="http://sodipodi.sourceforge.net/DTD/sodipodi-0.dtd"
   xmlns="http://www.w3.org/2000/svg"
   xmlns:svg="http://www.w3.org/2000/svg">
  <defs
     id="defs14" />
  <sodipodi:namedview
     id="namedview12"
     pagecolor="#ffffff"
     bordercolor="#000000"
     borderopacity="0.25"
     inkscape:showpageshadow="2"
     inkscape:pageopacity="0.0"
     inkscape:pagecheckerboard="0"
     inkscape:deskcolor="#d1d1d1"
     showgrid="false"
     inkscape:zoom="35.681818"
     inkscape:cx="10.985987"
     inkscape:cy="11"
     inkscape:window-width="1920"
     inkscape:window-height="1006"
     inkscape:window-x="0"
     inkscape:window-y="0"
     inkscape:window-maximized="1"
     inkscape:current-layer="svg10" />
  <g
     transform="translate(-909.99983,328.99972)"
     label="status"
     id="g8">
    <path
       d="m 920.5,-326.01172 c -1.92126,0 -3.8417,0.73249 -5.30469,2.19531 -2.92598,2.92565 -2.92598,7.68373 0,10.60938 l 0.70703,-0.70703 c -2.54381,-2.54352 -2.54381,-6.6518 0,-9.19532 2.54382,-2.54351 6.6515,-2.54351 9.19532,0 2.54381,2.54352 2.54381,6.6518 0,9.19532 l 0.70898,0.70703 c 2.92598,-2.92565 2.92598,-7.68373 0,-10.60938 -1.46299,-1.46282 -3.38538,-2.19531 -5.30664,-2.19531 z"
       style="fill:#666666"
       id="path2" />
    <path
       d="m 920.5,-323.00781 c -1.1526,0 -2.30586,0.43498 -3.18359,1.30469 -1.75547,1.7394 -1.75547,4.58091 0,6.32031 l 0.70507,-0.71094 c -1.37158,-1.35903 -1.37158,-3.53941 0,-4.89844 1.37159,-1.35903 3.58545,-1.35903 4.95704,0 1.37158,1.35903 1.37158,3.53941 0,4.89844 l 0.70507,0.71094 c 1.75547,-1.7394 1.75547,-4.58091 0,-6.32031 -0.87773,-0.86971 -2.03099,-1.30469 -3.18359,-1.30469 z"
       style="fill:#666666"
       id="path4" />
    <path
       d="m 920.5002,-320 a 1.5,1.5 0 0 0 -1.5,1.5 1.5,1.5 0 0 0 1,1.41211 V -311 h 1 v -6.08789 a 1.5,1.5 0 0 0 1,-1.41211 1.5,1.5 0 0 0 -1.5,-1.5 z"
       style="fill:#666666"
       id="path6" />
  </g>
</svg>
