<?xml version="1.0" encoding="UTF-8" standalone="no"?>
<svg
   version="1.1"
   viewBox="0 0 22 22"
   id="svg12"
   sodipodi:docname="show-hidden.svg"
   width="22"
   height="22"
   inkscape:version="1.2 (dc2aedaf03, 2022-05-15)"
   xmlns:inkscape="http://www.inkscape.org/namespaces/inkscape"
   xmlns:sodipodi="http://sodipodi.sourceforge.net/DTD/sodipodi-0.dtd"
   xmlns="http://www.w3.org/2000/svg"
   xmlns:svg="http://www.w3.org/2000/svg"
   xmlns:rdf="http://www.w3.org/1999/02/22-rdf-syntax-ns#"
   xmlns:cc="http://creativecommons.org/ns#"
   xmlns:dc="http://purl.org/dc/elements/1.1/">
  <defs
     id="defs16" />
  <sodipodi:namedview
     id="namedview14"
     pagecolor="#ffffff"
     bordercolor="#000000"
     borderopacity="0.25"
     inkscape:showpageshadow="2"
     inkscape:pageopacity="0.0"
     inkscape:pagecheckerboard="0"
     inkscape:deskcolor="#d1d1d1"
     showgrid="false"
     inkscape:zoom="13.421875"
     inkscape:cx="3.8742724"
     inkscape:cy="8.0093131"
     inkscape:window-width="1920"
     inkscape:window-height="1006"
     inkscape:window-x="0"
     inkscape:window-y="0"
     inkscape:window-maximized="1"
     inkscape:current-layer="svg12" />
  <title
     id="title2">Gnome Symbolic Icon Theme</title>
  <g
     transform="translate(-232.9997,-376.99)"
     fill="#666666"
     id="g10">
    <path
       d="m 244,381.99 c -3.6479,0.005 -6.8308,2.4765 -7.7383,6.0098 0.91502,3.5255 4.096,5.9879 7.7383,5.9902 3.6479,-0.005 6.8308,-2.4765 7.7383,-6.0098 -0.91502,-3.5255 -4.096,-5.9879 -7.7383,-5.9902 z m -0.0781,1.0293 c 1.7403,-0.0197 3.5112,0.63214 4.7774,1.8359 0.93959,0.82912 1.6024,1.936 1.9785,3.125 -0.48037,1.618 -1.5667,3.0464 -3.0059,3.9297 -1.1694,0.73635 -2.5634,1.0892 -3.9199,1.0449 -1.0355,-0.0138 -2.1048,-0.33363 -2.9922,-0.79492 -1.6174,-0.85283 -2.8849,-2.3578 -3.4199,-4.1094 0.085,-0.51892 0.34571,-1.0247 0.59766,-1.4941 1.1884,-2.1249 3.5457,-3.5312 5.9844,-3.5371 z"
       style="paint-order:normal"
       id="path4" />
    <path
       d="m 244.2,383.99 c -0.13341,-0.006 -0.26704,-0.005 -0.40039,0.002 -2.205,0.1136 -3.9009,1.9922 -3.7891,4.1973 0.11256,2.2057 1.9915,3.9028 4.1973,3.791 2.2057,-0.11256 3.9028,-1.9915 3.791,-4.1973 v -0.002 c -0.10487,-2.0517 -1.7469,-3.6904 -3.7988,-3.791 z m -0.34765,1 a 3,3 0 0 1 3.1484,2.8418 v 0.002 a 3,3 0 0 1 -2.8438,3.1484 3,3 0 0 1 -3.1484,-2.8438 3,3 0 0 1 2.8438,-3.1484 z"
       id="path6" />
    <path
       d="m 243.9,385.99 a 2,2 0 0 0 -1.8965,2.0996 2,2 0 0 0 2.0996,1.8965 2,2 0 0 0 1.8965,-2.0996 2,2 0 0 0 -0.0879,-0.48633 1,1 0 0 1 -0.85938,0.58594 1,1 0 0 1 -1.0488,-0.94727 1,1 0 0 1 0.58203,-0.96094 2,2 0 0 0 -0.68554,-0.0879 z"
       id="path8" />
  </g>
  <metadata
     id="metadata141">
    <rdf:RDF>
      <cc:Work
         rdf:about="">
        <dc:title>Gnome Symbolic Icon Theme</dc:title>
      </cc:Work>
    </rdf:RDF>
  </metadata>
</svg>
