<svg width="16" height="16" version="1" xmlns="http://www.w3.org/2000/svg">
 <path d="M 6.5,2 C 5.6977,2 5,2.6459 5,3.4483 V 5 H 1.9655 C 1.4306,5 1,5.3272 1,5.8621 V 9 H 2.4483 C 3.2506,9 4,9.6977 4,10.5 4,11.302 3.2506,12 2.4483,12 H 1 v 3.034 C 1,15.569 1.4306,16 1.9655,16 H 5 V 15.034 C 5,14.232 5.0175,13.041 6.5,13 7.9825,12.959 8,14.292 8,15.034 V 16 h 3.138 C 11.673,16 12,15.569 12,15.034 V 12 h 1.552 C 14.354,12 15,11.302 15,10.5 15,9.6977 14.345,9.1233 13.552,9 H 12 V 5.8621 C 12,5.3272 11.673,5 11.138,5 H 8 V 3.4483 C 8,2.6459 7.3023,2 6.5,2 Z" opacity=".2"/>
 <path d="M 6.5,1 C 5.6977,1 5,1.6459 5,2.4483 V 4 H 1.9655 C 1.4306,4 1,4.3272 1,4.8621 V 8 H 2.4483 C 3.2506,8 4,8.6977 4,9.5 4,10.302 3.2506,11 2.4483,11 H 1 V 14.034 C 1,14.569 1.4306,15 1.9655,15 H 5 V 14.034 C 5,13.232 5.0175,12.041 6.5,12 7.9825,11.959 8,13.292 8,14.034 V 15 H 11.138 C 11.673,15 12,14.569 12,14.034 V 11 H 13.552 C 14.354,11 15,10.302 15,9.5 15,8.6977 14.345,8.1233 13.552,8 H 12 V 4.8621 C 12,4.3272 11.673,4 11.138,4 H 8 V 2.4483 C 8,1.6459 7.3023,1 6.5,1 Z" fill="#3eb34f"/>
</svg>
