<svg width="24" height="24" version="1.1" xmlns="http://www.w3.org/2000/svg">
 <g transform="translate(4 3)" fill="#666">
  <path d="m3.9492 1c-1.2442 0.01457-2.1541-0.030554-2.8984 0.38477-0.37217 0.20765-0.66529 0.55939-0.82812 0.99805-0.16288 0.43866-0.22266 0.95958-0.22266 1.6172v9c0 0.65761 0.059821 1.1785 0.22266 1.6172 0.16282 0.43866 0.45595 0.79039 0.82812 0.99805 0.74436 0.41537 1.6543 0.37027 2.8984 0.38477h8.1016c1.2442-0.0145 2.1541 0.0306 2.8984-0.38477 0.37218-0.20766 0.6653-0.55939 0.82812-0.99805 0.16284-0.43868 0.22266-0.95958 0.22266-1.6172v-9c0-0.65761-0.05978-1.1785-0.22266-1.6172-0.16283-0.43866-0.45595-0.7904-0.82812-0.99805-0.74436-0.41532-1.6543-0.3702-2.8984-0.38477h-8.0977zm-2.8359 3h13.773c0.08781 2.323 0.12416 5.8768 0.125 8 0 1 0.20689 2.3282-0.76562 2.7754-0.73392 0.24023-2.202 0.22461-4.1797 0.22461h-4.1328c-1.9777 0-3.4458 0.01562-4.1797-0.22461-0.97252-0.44721-0.76562-1.7754-0.76562-2.7754 8.41e-4 -2.1232 0.03719-5.677 0.125-8z" color="#000000" color-rendering="auto" fill="#666" image-rendering="auto" shape-rendering="auto" solid-color="#000000" style="isolation:auto;mix-blend-mode:normal;text-decoration-color:#000000;text-decoration-line:none;text-decoration-style:solid;text-indent:0;text-transform:none;white-space:normal"/>
 </g>
 <path d="m12.996 9.998v2h-6.002v1h6v2c0.76084-0.35693 1.5356-0.7497 2.3242-1.1797 0.78078-0.43078 1.5328-0.8712 2.2578-1.3203-0.725-0.45828-1.477-0.90319-2.2578-1.334-0.78818-0.42975-1.5618-0.81836-2.3223-1.166z" fill="#666"/>
</svg>
