<?xml version="1.0" encoding="UTF-8" standalone="no"?>
<!-- Created with Inkscape (http://www.inkscape.org/) -->

<svg
   width="16"
   height="16"
   viewBox="0 0 4.2333333 4.2333333"
   version="1.1"
   id="svg5"
   sodipodi:docname="krfb.svg"
   inkscape:version="1.1.2 (0a00cf5339, 2022-02-04)"
   xmlns:inkscape="http://www.inkscape.org/namespaces/inkscape"
   xmlns:sodipodi="http://sodipodi.sourceforge.net/DTD/sodipodi-0.dtd"
   xmlns:xlink="http://www.w3.org/1999/xlink"
   xmlns="http://www.w3.org/2000/svg"
   xmlns:svg="http://www.w3.org/2000/svg">
  <sodipodi:namedview
     id="namedview7"
     pagecolor="#ffffff"
     bordercolor="#666666"
     borderopacity="1.0"
     inkscape:pageshadow="2"
     inkscape:pageopacity="0.0"
     inkscape:pagecheckerboard="0"
     inkscape:document-units="px"
     showgrid="false"
     units="px"
     height="48px"
     showguides="false"
     inkscape:zoom="24.1875"
     inkscape:cx="-0.10335917"
     inkscape:cy="11.658915"
     inkscape:window-width="1920"
     inkscape:window-height="995"
     inkscape:window-x="0"
     inkscape:window-y="0"
     inkscape:window-maximized="1"
     inkscape:current-layer="svg5" />
  <defs
     id="defs2">
    <linearGradient
       inkscape:collect="always"
       id="linearGradient1871">
      <stop
         style="stop-color:#ffffff;stop-opacity:1;"
         offset="0"
         id="stop1867" />
      <stop
         style="stop-color:#ffffff;stop-opacity:0.1"
         offset="0.12"
         id="stop2515" />
      <stop
         style="stop-color:#ffffff;stop-opacity:0.102"
         offset="0.89999998"
         id="stop2581" />
      <stop
         style="stop-color:#ffffff;stop-opacity:0.502"
         offset="1"
         id="stop1869" />
    </linearGradient>
    <linearGradient
       inkscape:collect="always"
       xlink:href="#linearGradient1871"
       id="linearGradient1412"
       x1="2.1166666"
       y1="0.26458332"
       x2="2.1166666"
       y2="3.96875"
       gradientUnits="userSpaceOnUse"
       gradientTransform="scale(3.7795276)" />
    <linearGradient
       inkscape:collect="always"
       xlink:href="#linearGradient2014"
       id="linearGradient2016"
       x1="9.921875"
       y1="11.1125"
       x2="2.7781253"
       y2="1.5874999"
       gradientUnits="userSpaceOnUse"
       gradientTransform="scale(0.33333332)" />
    <linearGradient
       inkscape:collect="always"
       id="linearGradient2014">
      <stop
         style="stop-color:#a7a7fe;stop-opacity:1"
         offset="0"
         id="stop2010" />
      <stop
         style="stop-color:#8c59d9;stop-opacity:1"
         offset="1"
         id="stop2012" />
    </linearGradient>
  </defs>
  <circle
     style="fill:url(#linearGradient2016);fill-opacity:1;stroke-width:0.176389;stroke-linecap:round;stroke-linejoin:round"
     id="path986"
     cx="2.1166666"
     cy="2.1166666"
     r="1.984375" />
  <path
     d="M 1.7433639,0.31988125 1.5185163,0.57645299 1.711084,0.76846506 V 0.96938202 L 1.9353759,1.2176045 H 2.0639396 V 1.0890408 L 2.2559517,0.89702877 V 0.76846506 L 2.3845154,0.64045702 V 0.44788928 L 2.2559517,0.31988125 Z M 1.2942158,0.46848307 C 1.1957976,0.51737299 1.1019256,0.57492465 1.0137106,0.64045702 H 1.2942158 Z M 0.87735329,0.76845651 V 0.96102425 H 0.71706544 L 0.69424036,0.93819918 C 0.43307696,1.2504899 0.28207443,1.6401241 0.26458333,2.04685 L 0.46104926,2.243313 H 0.65306133 L 0.97363709,2.5638888 V 2.1793119 L 1.1662105,1.9867498 H 1.2942186 L 1.4867863,1.7941821 H 1.6787984 L 1.5830703,1.698454 1.7750824,1.4736064 1.5830703,1.2815943 H 1.2942101 V 1.5381661 H 1.1662021 L 1.0376384,1.4096024 V 1.2815943 L 1.2302061,1.0890266 H 1.390494 V 0.96101854 L 1.1979263,0.76845082 Z M 3.0896683,0.89702022 2.8971003,1.0890323 v 0.1602879 h 0.192568 V 1.1530363 H 3.2176764 V 1.2816 l -0.064004,0.064004 -0.256572,0.00445 -0.096284,0.091833 H 2.6728085 v 0.1280084 l -0.096284,0.096284 V 1.858742 h 0.1925676 l 0.128008,-0.1285637 h 0.128564 v 0.064004 l 0.128008,0.1285637 h 0.064004 V 1.8587419 L 3.0896683,1.7301782 h 0.1280081 l 0.1285637,0.1285637 h 0.160288 l -0.096284,-0.096284 0.096284,-0.096284 h 0.095728 l 0.096284,0.096284 h -0.096284 l -0.095728,0.096284 0.094058,0.094058 0.00228,0.097954 H 3.4742981 L 3.858875,2.435331 h 0.06456 L 3.939564,2.419203 C 3.9554916,2.3233507 3.9638498,2.2263943 3.9645668,2.1292309 3.9640641,1.7234487 3.8303233,1.3290589 3.5838938,1.0066743 L 3.4742566,0.89703163 Z M 3.4742452,2.0507511 H 3.0896683 L 3.0256643,1.9867471 H 2.6405173 L 2.4162254,2.211039 v 0.3205757 l 0.1602879,0.1602879 h 0.2242919 l 0.096284,0.096284 v 0.096284 l 0.064004,0.064004 V 3.3330515 L 3.2048615,3.5907374 3.606707,3.1883506 3.602262,2.8204721 3.9228378,2.4998963 H 3.7948297 L 3.4742539,2.1793205 Z M 2.2242276,1.1530249 v 0.096284 h 0.192012 l -0.096284,-0.096284 z m 0.5765803,0.03228 -0.095728,0.096284 v 0.096284 h 0.095728 z M 1.807365,1.5381661 1.7110812,1.6338943 h 0.096284 l 0.031724,0.03228 h 0.03228 l 0.03228,-0.03228 z M 1.2625002,2.2110333 1.1662163,2.3073171 H 1.3582284 V 2.2110333 Z M 1.1662163,2.4998934 1.0376526,2.6279015 v 0.3205757 l 0.2576831,0.2254062 -0.00114,0.2877487 -0.096284,0.095728 v 0.1814372 c 0.059307,0.033775 0.1204345,0.064246 0.1831043,0.091274 L 1.7110527,3.5256247 V 3.3970611 L 1.9036204,3.205049 V 3.108765 L 1.9993484,3.012481 V 2.7559095 L 1.8713691,2.6279015 H 1.6147973 L 1.4867893,2.4998934 Z m 2.551812,0.5498801 -0.019492,0.018352 v 0.013364 c 0.0066,-0.010509 0.0131,-0.021085 0.019492,-0.031724 z"
     style="color:#000000;opacity:0.18;fill:#ffffff;stroke-width:0.264583"
     id="path915" />
  <path
     id="path1424"
     style="color:#000000;font-variant-ligatures:normal;font-variant-position:normal;font-variant-caps:normal;font-variant-numeric:normal;font-variant-alternates:normal;font-feature-settings:normal;text-indent:0;text-decoration-line:none;text-decoration-style:solid;text-decoration-color:#000000;text-transform:none;text-orientation:mixed;dominant-baseline:auto;white-space:normal;shape-padding:0;opacity:0.5;isolation:auto;mix-blend-mode:normal;solid-color:#000000;fill:#ffffff;fill-rule:evenodd;stroke-width:0.999999;color-rendering:auto;image-rendering:auto;shape-rendering:auto"
     d="M 4.9238281 1.1640625 A 7.5000001 7.5000001 0 0 0 4.3066406 1.4746094 C 4.1254357 3.5091988 4.0098477 4.9797281 4.0292969 5.2910156 C 3.6296325 5.0389957 2.7571734 4.384973 1.8769531 3.6757812 A 7.5000001 7.5000001 0 0 0 1.53125 4.2050781 C 2.3986104 4.8856168 3.2686844 5.5027419 3.6464844 5.7421875 C 2.9891769 5.9898786 1.7132936 6.7273241 0.515625 7.5898438 A 7.5000001 7.5000001 0 0 0 0.5 8 A 7.5000001 7.5000001 0 0 0 0.51171875 8.3007812 C 1.8513367 7.3405247 3.3009834 6.5072201 4.1015625 6.2089844 C 4.1908614 7.1441242 4.3229104 8.0561468 4.5136719 8.9355469 C 4.7237531 9.9040969 5.0087284 10.830191 5.3613281 11.712891 C 4.8549485 11.877512 3.3464691 12.518964 2.8554688 12.621094 C 2.6935134 12.654783 2.4707653 12.716728 2.2304688 12.785156 A 7.5000001 7.5000001 0 0 0 2.671875 13.271484 C 2.7868884 13.238447 2.8905581 13.210032 2.9707031 13.193359 C 3.4966429 13.083981 5.0415905 12.435239 5.5878906 12.255859 C 5.715144 12.541304 6.3716951 13.860865 7.1757812 15.449219 A 7.5000001 7.5000001 0 0 0 7.8457031 15.494141 C 6.9851461 13.806039 6.2766372 12.388655 6.1308594 12.064453 C 7.6838593 11.480533 9.2109935 10.570012 10.371094 9.1953125 C 11.58054 9.6490147 13.463186 10.32549 14.996094 10.701172 A 7.5000001 7.5000001 0 0 0 15.183594 10.142578 C 13.692731 9.7779445 11.852584 9.1191903 10.677734 8.6835938 C 11.285344 7.3631931 11.77104 5.9757156 12.119141 4.5410156 C 12.600902 4.4983572 13.541849 4.3907729 14.546875 4.3417969 A 7.5000001 7.5000001 0 0 0 14.214844 3.8007812 C 13.384831 3.840136 12.610822 3.9063476 12.257812 3.9375 C 12.304886 3.8040195 12.469871 3.096613 12.683594 2.1425781 A 7.5000001 7.5000001 0 0 0 12.197266 1.7832031 C 11.922769 2.9763716 11.712363 3.8453669 11.652344 4.0019531 C 9.1800436 4.2412426 6.8257342 4.6507851 4.6152344 5.390625 C 4.5926507 5.0548139 4.7251271 3.389734 4.9238281 1.1640625 z M 11.515625 4.6035156 C 11.176375 5.9435154 10.709055 7.2411218 10.134766 8.4824219 C 8.3507655 7.7767021 6.6453125 6.8726249 5.0078125 5.890625 C 7.0506124 5.2287148 9.2232247 4.8349153 11.515625 4.6035156 z M 4.6953125 6.3867188 C 6.3173123 7.3616585 8.0126156 8.2592564 9.7910156 8.9726562 C 8.7228153 10.170156 7.3356029 10.988337 5.9082031 11.523438 C 5.5637729 10.665278 5.2828618 9.763447 5.0761719 8.8105469 C 4.9067217 8.0293571 4.7821823 7.2193188 4.6953125 6.3867188 z "
     transform="scale(0.26458333)" />
  <path
     id="ellipse29"
     d="M 3.1802668,0.97975213 A 0.23961195,0.2413873 0 0 0 2.9404881,1.2210811 0.23961195,0.2413873 0 0 0 3.1802668,1.46241 0.23961195,0.2413873 0 0 0 3.4195287,1.2210811 0.23961195,0.2413873 0 0 0 3.1802668,0.97975213 Z M 1.1039079,1.3104813 A 0.23961195,0.2413873 0 0 0 0.86412918,1.5518103 0.23961195,0.2413873 0 0 0 1.1039079,1.7931392 0.23961195,0.2413873 0 0 0 1.3436865,1.5518103 0.23961195,0.2413873 0 0 0 1.1039079,1.3104813 Z M 2.7007095,2.1062984 A 0.23961195,0.2413873 0 0 0 2.4614477,2.3476273 0.23961195,0.2413873 0 0 0 2.7007095,2.5889562 0.23961195,0.2413873 0 0 0 2.9404881,2.3476273 0.23961195,0.2413873 0 0 0 2.7007095,2.1062984 Z M 1.5829484,2.9109004 A 0.23961195,0.2413873 0 0 0 1.3431698,3.1522292 0.23961195,0.2413873 0 0 0 1.5829484,3.3935583 0.23961195,0.2413873 0 0 0 1.8222103,3.1522292 0.23961195,0.2413873 0 0 0 1.5829484,2.9109004 Z"
     style="fill:#ffffff;stroke-width:0.264583" />
  <path
     id="path1124"
     style="opacity:0.4;fill:#000000;stroke-width:2;stroke-linecap:round;stroke-linejoin:round"
     d="M 8,0 A 7.9999996,7.9999996 0 0 0 0,8 7.9999996,7.9999996 0 0 0 8,16 7.9999996,7.9999996 0 0 0 16,8 7.9999996,7.9999996 0 0 0 8,0 Z M 8,1 A 7,7 0 0 1 15,8 7,7 0 0 1 8,15 7,7 0 0 1 1,8 7,7 0 0 1 8,1 Z"
     transform="scale(0.26458333)" />
  <path
     id="path1324"
     style="opacity:1;fill:url(#linearGradient1412);fill-opacity:1;stroke-width:2;stroke-linecap:round;stroke-linejoin:round"
     d="M 8,1 A 7,7 0 0 0 1,8 7,7 0 0 0 8,15 7,7 0 0 0 15,8 7,7 0 0 0 8,1 Z M 8,2 A 5.9999999,5.9999999 0 0 1 14,8 5.9999999,5.9999999 0 0 1 8,14 5.9999999,5.9999999 0 0 1 2,8 5.9999999,5.9999999 0 0 1 8,2 Z"
     transform="scale(0.26458333)" />
  <path
     style="color:#000000;fill:#5884f4;fill-opacity:1;stroke-width:0.264583;stroke-linecap:round;stroke-linejoin:round;stroke-dashoffset:1;-inkscape-stroke:none"
     d="m 4.1010417,2.9104166 a 1.190625,1.190625 0 0 1 -1.190625,1.190625 1.190625,1.190625 0 0 1 -1.190625,-1.190625 1.190625,1.190625 0 0 1 1.190625,-1.190625 1.190625,1.190625 0 0 1 1.190625,1.190625 z"
     id="path878" />
  <path
     d="m 2.7693378,1.984375 c -0.054952,6.112e-4 -0.095309,-0.00114 -0.1281575,0.017053 -0.017004,0.00965 -0.030012,0.025036 -0.03669,0.043408 -0.0072,0.019172 -0.00982,0.041583 -0.00982,0.07028 v 0.2268595 c 0,0.028697 0.00274,0.051625 0.00982,0.070797 0.00663,0.0184 0.019652,0.033805 0.03669,0.043408 0.032727,0.018073 0.073205,0.016443 0.1281576,0.017053 h 0.07028 L 2.8390886,2.7171469 H 2.411737 c -0.081451,0 -0.1392779,0.050024 -0.1617472,0.095085 -0.022591,0.045183 -0.021704,0.088367 -0.021704,0.088367 v 0.1829338 h -0.069763 c -0.054952,6.085e-4 -0.095308,-0.00114 -0.1281575,0.017052 -0.017003,0.00965 -0.030012,0.025035 -0.03669,0.043408 -0.0072,0.019172 -0.0093,0.041583 -0.0093,0.07028 v 0.2268596 c 0,0.028697 0.00222,0.051625 0.0093,0.070797 0.00663,0.018399 0.019652,0.033805 0.03669,0.043408 0.032727,0.018074 0.073205,0.015928 0.1281575,0.016536 H 2.420522 c 0.054952,-6.085e-4 0.095308,0.00167 0.1281576,-0.016536 0.016844,-0.0097 0.029672,-0.025091 0.036173,-0.043408 0.00708,-0.019172 0.00982,-0.042099 0.00982,-0.070797 v -0.226859 c 0,-0.028697 -0.00274,-0.05123 -0.00982,-0.07028 -0.00654,-0.018293 -0.019357,-0.033676 -0.036173,-0.043408 C 2.5158306,3.0822683 2.4754736,3.0841413 2.420522,3.0835333 H 2.350242 V 2.900599 c 0,0 8.466e-4,-0.018232 0.00878,-0.034106 0.00806,-0.015997 0.012045,-0.026872 0.05271,-0.026872 h 0.9766895 c 0.040665,0 0.044134,0.010874 0.052193,0.026872 0.00794,0.015875 0.00878,0.034106 0.00878,0.034106 v 0.1829345 h -0.069762 c -0.054952,6.085e-4 -0.095308,-0.00114 -0.1281576,0.017052 -0.016809,0.00974 -0.029625,0.02512 -0.036174,0.043408 -0.0072,0.019172 -0.00982,0.041583 -0.00982,0.07028 v 0.2268596 c 0,0.028697 0.00274,0.051624 0.00982,0.070797 0.0065,0.018317 0.019331,0.03371 0.036174,0.043408 0.032727,0.018074 0.073205,0.015928 0.1281576,0.016536 h 0.2619994 c 0.054952,-6.085e-4 0.095308,0.00167 0.1281575,-0.016536 0.017039,-0.0096 0.03006,-0.025009 0.03669,-0.043408 0.00708,-0.019172 0.0093,-0.042099 0.0093,-0.070797 v -0.226859 c 0,-0.028697 -0.00222,-0.05123 -0.0093,-0.07028 -0.00667,-0.018378 -0.01968,-0.033771 -0.03669,-0.043408 C 3.7369444,3.0822691 3.6965884,3.0841451 3.641636,3.0835331 H 3.5718728 V 2.900599 c 0,0 8.731e-4,-0.043184 -0.021704,-0.088367 C 3.5181138,2.752941 3.4558188,2.71632 3.3884216,2.717147 h -0.427364 l 5.292e-4,-0.2439128 h 0.069763 c 0.054952,-6.112e-4 0.094792,0.00114 0.1276408,-0.017053 0.017039,-0.0096 0.03006,-0.025008 0.03669,-0.043408 0.00708,-0.019172 0.00982,-0.042099 0.00982,-0.070797 v -0.226859 c 0,-0.028697 -0.00274,-0.05123 -0.00982,-0.07028 -0.00667,-0.018378 -0.01968,-0.033771 -0.03669,-0.043408 -0.032849,-0.018317 -0.072689,-0.016443 -0.1276408,-0.017053 h -5.292e-4 z"
     style="color:#000000;font-weight:400;font-variant-ligatures:normal;font-variant-position:normal;font-variant-caps:normal;font-variant-numeric:normal;font-variant-alternates:normal;font-feature-settings:normal;text-indent:0;text-decoration-line:none;text-decoration-style:solid;text-decoration-color:#000000;text-transform:none;text-orientation:mixed;white-space:normal;shape-padding:0;isolation:auto;mix-blend-mode:normal;fill:#ffffff;fill-opacity:0.94118;stroke-width:0.264589"
     id="path899" />
  <path
     style="color:#000000;fill:#000000;fill-opacity:0.4;stroke-width:0.264583;stroke-linecap:round;stroke-linejoin:round;stroke-dashoffset:1;-inkscape-stroke:none"
     d="M 2.9104167,1.5875 C 2.1813576,1.5875 1.5875,2.1813576 1.5875,2.9104166 c 0,0.7290591 0.5938576,1.3229167 1.3229167,1.3229167 0.7290591,0 1.3229166,-0.5938576 1.3229166,-1.3229167 0,-0.729059 -0.5938575,-1.3229166 -1.3229166,-1.3229166 z m 0,0.2645833 c 0.5860677,0 1.0583333,0.4722656 1.0583333,1.0583333 0,0.5860677 -0.4722656,1.0583333 -1.0583333,1.0583333 -0.5860677,0 -1.0583333,-0.4722656 -1.0583333,-1.0583333 0,-0.5860677 0.4722656,-1.0583333 1.0583333,-1.0583333 z"
     id="path880" />
</svg>
