<?xml version="1.0" encoding="UTF-8" standalone="no"?>
<!-- Created with Inkscape (http://www.inkscape.org/) -->

<svg
   width="16"
   height="16"
   viewBox="0 0 4.2333333 4.2333333"
   version="1.1"
   id="svg1003"
   sodipodi:docname="mintlocale.svg"
   inkscape:version="1.1.2 (0a00cf5339, 2022-02-04)"
   xmlns:inkscape="http://www.inkscape.org/namespaces/inkscape"
   xmlns:sodipodi="http://sodipodi.sourceforge.net/DTD/sodipodi-0.dtd"
   xmlns:xlink="http://www.w3.org/1999/xlink"
   xmlns="http://www.w3.org/2000/svg"
   xmlns:svg="http://www.w3.org/2000/svg">
  <sodipodi:namedview
     id="namedview1005"
     pagecolor="#ffffff"
     bordercolor="#666666"
     borderopacity="1.0"
     inkscape:pageshadow="2"
     inkscape:pageopacity="0.0"
     inkscape:pagecheckerboard="0"
     inkscape:document-units="px"
     showgrid="false"
     units="px"
     showguides="true"
     inkscape:lockguides="true"
     inkscape:zoom="28.285713"
     inkscape:cx="7.936869"
     inkscape:cy="10.570708"
     inkscape:window-width="1920"
     inkscape:window-height="1010"
     inkscape:window-x="0"
     inkscape:window-y="0"
     inkscape:window-maximized="1"
     inkscape:current-layer="svg1003" />
  <defs
     id="defs1000">
    <linearGradient
       inkscape:collect="always"
       xlink:href="#linearGradient1871"
       id="linearGradient16320"
       x1="10"
       y1="4"
       x2="10"
       y2="29.100245"
       gradientUnits="userSpaceOnUse"
       gradientTransform="matrix(0.13229166,0,0,0.12211538,0,0.04070512)" />
    <linearGradient
       inkscape:collect="always"
       id="linearGradient1871">
      <stop
         style="stop-color:#ffffff;stop-opacity:1;"
         offset="0"
         id="stop1867" />
      <stop
         style="stop-color:#ffffff;stop-opacity:0.1"
         offset="0.12"
         id="stop2515" />
      <stop
         style="stop-color:#ffffff;stop-opacity:0.102"
         offset="0.89999998"
         id="stop2581" />
      <stop
         style="stop-color:#ffffff;stop-opacity:0.502"
         offset="1"
         id="stop1869" />
    </linearGradient>
  </defs>
  <path
     d="M 1.0583333,0.396875 H 3.175 c 0.7935019,1.919e-4 0.9259876,0.157244 0.9260416,0.9921875 V 2.8376562 C 4.1009876,3.6238466 3.9685019,3.8366501 3.175,3.8364583 H 1.0583333 c -0.79355622,0 -0.92604169,-0.2128036 -0.92604169,-0.9988021 V 1.3890625 c 0,-0.7859985 0.13248546,-0.9921875 0.92604169,-0.9921875 z"
     style="fill:#f6f5f4;fill-opacity:1;stroke-width:0.0653156;stroke-linejoin:round"
     id="path17503"
     sodipodi:nodetypes="sccccssss" />
  <path
     id="rect18340"
     style="opacity:1;fill:#7ccc2e;fill-opacity:1;stroke-width:0.264583;stroke-linejoin:round"
     d="M 2.1166666,0.396875 V 3.8364583 H 3.175 C 3.9685018,3.8366501 4.1009876,3.6237433 4.1010416,2.8375528 V 1.3890625 C 4.1009876,0.55411898 3.9685018,0.3970669 3.175,0.396875 Z" />
  <path
     id="rect1262"
     style="opacity:0.1;fill:#ffffff;fill-opacity:1;stroke-width:0.999999;stroke-linecap:round;stroke-linejoin:round"
     d="M 8 8 L 8 14.5 L 12 14.5 C 14.999062 14.500725 15.499796 13.696038 15.5 10.724609 L 15.5 8 L 8 8 z "
     transform="scale(0.26458333)" />
  <path
     id="path912"
     style="color:#000000;fill:#ffffff;stroke-width:0.0661458;stroke-linecap:round;-inkscape-stroke:none"
     d="m 2.9398722,1.3229167 v 0.033073 0.1762166 H 2.38125 V 1.7378785 H 2.626713 C 2.7041801,1.9318895 2.7987025,2.0976464 2.9078328,2.2381063 2.7756205,2.3695616 2.6272727,2.4628146 2.4556641,2.5125082 l -0.032039,0.0093 0.057361,0.197404 0.032039,-0.0093 C 2.7141969,2.6516562 2.8893039,2.54023 3.0427086,2.3900351 c 0.153413,0.1501992 0.329021,0.2616211 0.5302001,0.3198771 l 0.031523,0.0093 0.057361,-0.197404 -0.03204,-0.0093 C 3.4582897,2.4628525 3.3102434,2.3693789 3.1781007,2.2381063 3.2872381,2.0976514 3.3817579,1.9318943 3.4592205,1.7378785 H 3.7041667 V 1.5322063 H 3.1455445 V 1.3229167 Z m -0.08785,0.4149618 h 0.381372 C 3.1765499,1.867144 3.1129764,1.9795968 3.0427084,2.0763591 2.9724842,1.979644 2.9088361,1.8670919 2.8520222,1.7378785 Z" />
  <path
     d="M 1.6153659,2.6458412 C 1.6011136,2.6040992 1.5863508,2.5628652 1.5710773,2.5221406 1.5558021,2.4814156 1.5410392,2.4396736 1.5267887,2.3969133 H 1.08086 c -0.014252,0.04276 -0.029015,0.085011 -0.044289,0.1267539 -0.014252,0.040725 -0.028506,0.081449 -0.042762,0.122174 h -0.2000594 c 0.039707,-0.1130106 0.077377,-0.217371 0.1130115,-0.3130814 C 0.94239559,2.2370498 0.97701109,2.1464384 1.0106078,2.0609269 1.0452241,1.9754049 1.0793315,1.8939545 1.1129301,1.8165762 1.1465269,1.7392002 1.1811432,1.662841 1.2167791,1.5875 h 0.1817317 c 0.035634,0.075341 0.07025,0.1516997 0.103849,0.2290762 0.033599,0.077378 0.067196,0.1588285 0.100793,0.2443507 0.034616,0.08552 0.069742,0.1761313 0.1053756,0.2718329 0.036652,0.095703 0.074831,0.2000638 0.1145381,0.3130814 z M 1.3038191,1.7921367 c -0.023417,0.053961 -0.050398,0.1196296 -0.080941,0.1970061 -0.029526,0.077377 -0.060578,0.1613711 -0.093157,0.2519838 H 1.4779123 C 1.4453315,2.1505136 1.4137694,2.0660104 1.3832259,1.9876161 1.3526824,1.9092201 1.3262117,1.8440603 1.3038139,1.7921367 Z"
     style="fill:#77767b;stroke-width:0.264583;enable-background:new"
     id="path1081" />
  <path
     id="rect13250"
     style="opacity:0.699;fill:url(#linearGradient16320);fill-opacity:1;stroke-width:0.127101;stroke-linejoin:round"
     d="M 0.94929604,0.52916666 C 0.4275256,0.53207345 0.26458333,0.5787759 0.26458333,1.3229166 v 0.1829346 1.2216309 0.1829345 c 0,0.79375 0.21166674,0.79375 0.79374997,0.79375 H 1.3229166 3.175 c 0.5820833,0 0.79375,0 0.79375,-0.79375 V 2.7274821 1.5058512 1.3229166 C 3.96875,0.52916642 3.7570833,0.52916666 3.175,0.52916666 H 1.3229166 Z m 0.0847494,0.26458333 c 0.0079,-4.458e-5 0.016138,0 0.024288,0 H 3.175 c 0.5216072,0 0.5291666,0.0892859 0.5291666,0.52916661 v 1.5875 c 0,0.4398807 -0.00756,0.5291667 -0.5291666,0.5291667 H 1.0583333 c -0.52160723,0 -0.52916664,-0.089286 -0.52916664,-0.5291667 v -1.5875 c 0,-0.4330075 0.007113,-0.52635721 0.50487874,-0.52916661 z"
     sodipodi:nodetypes="csccsscssccssccssssssssss" />
  <path
     id="rect7040"
     style="opacity:0.4;stroke-width:0.264583;stroke-linejoin:round"
     d="M 1.0583333,0.26458333 C 0.21187339,0.26458333 0,0.47645663 0,1.3229166 v 1.5875 C 0,3.7568766 0.21187339,3.96875 1.0583333,3.96875 H 3.175 C 4.021402,3.9689566 4.2332756,3.7570833 4.2333333,2.9104166 v -1.5875 C 4.2332756,0.42374666 4.021402,0.26478997 3.175,0.26458333 Z M 0.94929604,0.52916666 H 1.3229166 3.175 c 0.5820833,0 0.79375,-2.9e-7 0.79375,0.79374994 v 0.1829346 1.2216309 0.1829345 c 0,0.79375 -0.2116667,0.79375 -0.79375,0.79375 H 1.3229166 1.0583333 c -0.5820832,0 -0.79374997,0 -0.79374997,-0.79375 V 2.7274821 1.5058512 1.3229166 c 0,-0.74414078 0.16294232,-0.79084294 0.68471271,-0.79374994 z"
     sodipodi:nodetypes="ssssccccsccssccsscssccsc" />
</svg>
