<?xml version="1.0" encoding="UTF-8" standalone="no"?>
<svg
   width="16"
   height="16"
   version="1"
   id="svg42"
   sodipodi:docname="qvidcap.svg"
   inkscape:version="1.1.2 (0a00cf5339, 2022-02-04, custom)"
   xmlns:inkscape="http://www.inkscape.org/namespaces/inkscape"
   xmlns:sodipodi="http://sodipodi.sourceforge.net/DTD/sodipodi-0.dtd"
   xmlns="http://www.w3.org/2000/svg"
   xmlns:svg="http://www.w3.org/2000/svg">
  <sodipodi:namedview
     id="namedview44"
     pagecolor="#ffffff"
     bordercolor="#666666"
     borderopacity="1.0"
     inkscape:pageshadow="2"
     inkscape:pageopacity="0.0"
     inkscape:pagecheckerboard="0"
     showgrid="false"
     inkscape:zoom="51.9375"
     inkscape:cx="8"
     inkscape:cy="8"
     inkscape:window-width="1920"
     inkscape:window-height="1006"
     inkscape:window-x="0"
     inkscape:window-y="0"
     inkscape:window-maximized="1"
     inkscape:current-layer="svg42" />
  <defs
     id="defs16">
    <linearGradient
       id="linearGradient8588-0-1-5"
       x1="13.735"
       x2="38.1"
       y1="249.69"
       y2="292.77"
       gradientTransform="matrix(.31496 0 0 .31496 .16668 -77.71)"
       gradientUnits="userSpaceOnUse">
      <stop
         stop-color="#cdcdcd"
         offset="0"
         id="stop2" />
      <stop
         stop-color="#d9d9d9"
         offset="1"
         id="stop4" />
    </linearGradient>
    <radialGradient
       id="radialGradient983"
       cx="-256"
       cy="-256.2"
       r="96"
       gradientTransform="matrix(0 -.041667 -.041667 0 -2.675 -2.6667)"
       gradientUnits="userSpaceOnUse">
      <stop
         stop-opacity="0"
         offset="0"
         id="stop7" />
      <stop
         stop-opacity="0"
         offset=".89867"
         id="stop9" />
      <stop
         stop-opacity=".26166"
         offset=".94933"
         id="stop11" />
      <stop
         offset="1"
         id="stop13" />
    </radialGradient>
  </defs>
  <ellipse
     transform="scale(-1)"
     cx="-8"
     cy="-8.5"
     rx="7"
     ry="6.5"
     enable-background="new"
     opacity=".1"
     id="ellipse18" />
  <circle
     cx="8"
     cy="8"
     r="7.5"
     enable-background="new"
     fill="url(#linearGradient8588-0-1-5)"
     id="circle20" />
  <circle
     transform="matrix(0,-1,-1,0,0,0)"
     cx="-8"
     cy="-8"
     r="5.5"
     color="#000000"
     fill="#46444a"
     id="circle22" />
  <path
     d="m8 2.4999a5.5 5.5 0 0 0-5.5 5.5001 5.5 5.5 0 0 0 5.5 5.5 5.5 5.5 0 0 0 5.5-5.5 5.5 5.5 0 0 0-5.5-5.5001zm0 1.9678a3.5322 3.5322 0 0 1 3.5322 3.5322 3.5322 3.5322 0 0 1-3.5322 3.5322 3.5322 3.5322 0 0 1-3.5322-3.5322 3.5322 3.5322 0 0 1 3.5322-3.5322z"
     color="#000000"
     fill="url(#radialGradient983)"
     opacity=".1"
     id="path24" />
  <circle
     transform="matrix(0,-1,-1,0,0,0)"
     cx="-7.9999"
     cy="-8"
     r="4.125"
     color="#000000"
     fill="#fda463"
     id="circle26" />
  <circle
     transform="matrix(0,-1,-1,0,0,0)"
     cx="-8"
     cy="-8"
     r="2.75"
     color="#000000"
     fill="#fb7c38"
     id="circle28" />
  <circle
     transform="matrix(0,-1,-1,0,0,0)"
     cx="-8"
     cy="-8"
     r="1.375"
     color="#000000"
     fill="#f34f17"
     id="circle30" />
  <circle
     transform="matrix(-.13917 -.99027 -.99027 .13917 0 0)"
     cx="-9.0354"
     cy="-6.8088"
     r=".6875"
     color="#000000"
     fill="#d64310"
     id="circle32" />
  <circle
     transform="rotate(-8)"
     cx="7.116"
     cy="8.8009"
     r=".20625"
     color="#000000"
     fill="#fff"
     opacity=".3"
     id="circle34" />
  <circle
     transform="rotate(-8)"
     cx="6.4948"
     cy="9.269"
     r=".06875"
     color="#000000"
     fill="#fff"
     opacity=".3"
     id="circle36" />
  <circle
     cx="10.063"
     cy="5.9375"
     r="2.0625"
     color="#000000"
     fill="#fff"
     opacity=".2"
     id="circle38" />
  <circle
     cx="8"
     cy="8"
     r="7.5"
     enable-background="new"
     fill="none"
     opacity=".4"
     stroke="#000"
     stroke-dashoffset="6.6"
     stroke-linejoin="round"
     id="circle40" />
  <path
     style="color:#000000;fill:#e95420;fill-opacity:1;stroke-width:0.999999;stroke-linecap:round;stroke-linejoin:round;stroke-dashoffset:1;-inkscape-stroke:none"
     d="M 15.5,11 A 4.5,4.5 0 0 1 11,15.5 4.5,4.5 0 0 1 6.5000001,11 4.5,4.5 0 0 1 11,6.4999997 4.5,4.5 0 0 1 15.5,11 Z"
     id="path878" />
  <path
     style="color:#000000;fill:#000000;fill-opacity:0.4;stroke-width:0.999999;stroke-linecap:round;stroke-linejoin:round;stroke-dashoffset:1;-inkscape-stroke:none"
     d="m 11,6 c -2.7554988,0 -5,2.2445012 -5,5 0,2.755499 2.2445012,5 5,5 2.755499,0 5,-2.244501 5,-5 0,-2.7554988 -2.244501,-5 -5,-5 z m 0,0.9999998 c 2.215059,0 4,1.7849409 4,4.0000002 0,2.215059 -1.784941,4 -4,4 C 8.7849411,15 7.0000002,13.215059 7.0000002,11 7.0000002,8.7849407 8.7849411,6.9999998 11,6.9999998 Z"
     id="path880" />
  <path
     d="M 10.504,8.0077999 V 8.5566297 C 10.246701,8.6075247 10.0097,8.7066391 9.7872,8.8300709 L 9.4707893,8.4531197 8.7188394,9.0937398 9.0352502,9.4687408 C 8.8783695,9.6675515 8.7495103,9.8861511 8.658299,10.126941 l -0.4921886,-0.08789 -0.1660199,0.97461 0.5000001,0.08789 c 0.00971,0.255039 0.059879,0.49846 0.1406211,0.72852 l -0.4550801,0.263671 h -0.002 l 0.5000001,0.85156 0.4609399,-0.265621 c 0.1637783,0.18068 0.3526601,0.33422 0.5624995,0.46094 l -0.1874986,0.51367 0.9296895,0.332032 0.187499,-0.51367 c 0.11636,0.01667 0.232611,0.03515 0.353518,0.03515 0.12494,-3e-6 0.24517,-0.01935 0.365238,-0.03712 l 0.19141,0.521481 0.92383,-0.343752 -0.185548,-0.51367 c 0.207761,-0.126951 0.39451,-0.28091 0.55664,-0.46094 l 0.474611,0.275405 0.48633,-0.85938 -0.46094,-0.26562 c 0.07931,-0.227781 0.128931,-0.46852 0.138671,-0.7207 l 0.519579,-0.0918 -0.17773,-0.9707 -0.5,0.08789 c -0.08994,-0.2379603 -0.215,-0.45524 -0.36914,-0.6523401 l 0.32617,-0.38867 -0.75977,-0.62891 -0.31641,0.37695 C 11.98186,8.7118069 11.74655,8.610717 11.49033,8.5585867 V 8.0078098 Z m 0.48633,1.1073997 c 1.0468,-6e-6 1.8926,0.8458201 1.8926,1.8926004 5e-6,1.0468 -0.84582,1.8926 -1.8926,1.8926 -1.0468002,4e-6 -1.8925997,-0.84582 -1.8925997,-1.8926 -4.9e-6,-1.0468003 0.8458195,-1.8926004 1.8925997,-1.8926004 z"
     style="color:#000000;fill:#ffffff;stroke-width:0.999999"
     id="path1126" />
</svg>
