<?xml version="1.0" encoding="UTF-8" standalone="no"?>
<!-- Created with Inkscape (http://www.inkscape.org/) -->

<svg
   width="16"
   height="16"
   viewBox="0 0 4.2333332 4.2333335"
   version="1.1"
   id="svg5"
   inkscape:version="1.1.2 (0a00cf5339, 2022-02-04)"
   sodipodi:docname="utilities-log-viewer.svg"
   xmlns:inkscape="http://www.inkscape.org/namespaces/inkscape"
   xmlns:sodipodi="http://sodipodi.sourceforge.net/DTD/sodipodi-0.dtd"
   xmlns:xlink="http://www.w3.org/1999/xlink"
   xmlns="http://www.w3.org/2000/svg"
   xmlns:svg="http://www.w3.org/2000/svg">
  <sodipodi:namedview
     id="namedview7"
     pagecolor="#ffffff"
     bordercolor="#666666"
     borderopacity="1.0"
     inkscape:pageshadow="2"
     inkscape:pageopacity="0.0"
     inkscape:pagecheckerboard="0"
     inkscape:document-units="px"
     showgrid="false"
     units="px"
     inkscape:zoom="32"
     inkscape:cx="3.59375"
     inkscape:cy="11.859375"
     inkscape:window-width="1920"
     inkscape:window-height="1012"
     inkscape:window-x="0"
     inkscape:window-y="0"
     inkscape:window-maximized="1"
     inkscape:current-layer="svg5" />
  <defs
     id="defs2">
    <linearGradient
       inkscape:collect="always"
       id="linearGradient17934">
      <stop
         style="stop-color:#e8e8e8;stop-opacity:1"
         offset="0"
         id="stop17930" />
      <stop
         style="stop-color:#f5f5f5;stop-opacity:1"
         offset="1"
         id="stop17932" />
    </linearGradient>
    <linearGradient
       inkscape:collect="always"
       id="linearGradient1871">
      <stop
         style="stop-color:#ffffff;stop-opacity:1;"
         offset="0"
         id="stop1867" />
      <stop
         style="stop-color:#ffffff;stop-opacity:0.1"
         offset="0.12"
         id="stop2515" />
      <stop
         style="stop-color:#ffffff;stop-opacity:0.102"
         offset="0.89999998"
         id="stop2581" />
      <stop
         style="stop-color:#ffffff;stop-opacity:0.502"
         offset="1"
         id="stop1869" />
    </linearGradient>
    <linearGradient
       inkscape:collect="always"
       xlink:href="#linearGradient1871"
       id="linearGradient915"
       x1="2.1166668"
       y1="0.26458332"
       x2="2.1166668"
       y2="3.96875"
       gradientUnits="userSpaceOnUse" />
    <linearGradient
       inkscape:collect="always"
       xlink:href="#linearGradient17934"
       id="linearGradient1003"
       x1="1.2844203"
       y1="0.132305"
       x2="3.175"
       y2="4.1010418"
       gradientUnits="userSpaceOnUse" />
  </defs>
  <path
     d="m 1.3483433,0.264597 c -0.190238,0 -0.344435,0.0037 -0.48573797,0.02739 -0.141306,0.02373 -0.282644,0.0731 -0.39066,0.180867 -0.108013,0.107765 -0.157837,0.249563 -0.181374,0.391189 -0.02355,0.141629 -0.02677,0.29646 -0.02585,0.487309 v 0.765329 1.031462 c -7.94e-4,0.190013 0.0024,0.34458 0.02585,0.485759 0.02355,0.141626 0.07336,0.283425 0.181374,0.391189 0.108016,0.107768 0.249354,0.157147 0.39066,0.180867 0.14130297,0.02373 0.29549997,0.02739 0.48573797,0.02739 h 1.536798 c 0.190238,0 0.344096,-0.0036 0.485219,-0.02739 0.141126,-0.02376 0.28248,-0.07353 0.390142,-0.181383 0.107664,-0.107849 0.157167,-0.249425 0.180861,-0.390673 0.0237,-0.14125 0.02739,-0.295145 0.02739,-0.485759 V 2.11668 1.349801 c 0,-0.190614 -0.0037,-0.344509 -0.02739,-0.485759 -0.02368,-0.141248 -0.0732,-0.282824 -0.180861,-0.390673 -0.107662,-0.10785 -0.249016,-0.157634 -0.390142,-0.181383 -0.141123,-0.02376 -0.294981,-0.02739 -0.485219,-0.02739 z"
     style="color:#000000;font-style:normal;font-variant:normal;font-weight:normal;font-stretch:normal;font-size:medium;line-height:normal;font-family:sans-serif;font-variant-ligatures:normal;font-variant-position:normal;font-variant-caps:normal;font-variant-numeric:normal;font-variant-alternates:normal;font-feature-settings:normal;text-indent:0;text-align:start;text-decoration:none;text-decoration-line:none;text-decoration-style:solid;text-decoration-color:#000000;letter-spacing:normal;word-spacing:normal;text-transform:none;writing-mode:lr-tb;direction:ltr;text-orientation:mixed;dominant-baseline:auto;baseline-shift:baseline;text-anchor:start;white-space:normal;shape-padding:0;clip-rule:nonzero;display:inline;overflow:visible;visibility:visible;opacity:0.1;isolation:auto;mix-blend-mode:normal;color-interpolation:sRGB;color-interpolation-filters:linearRGB;solid-color:#000000;solid-opacity:1;vector-effect:none;fill:#000000;fill-opacity:1;fill-rule:nonzero;stroke:none;stroke-width:0.529156;stroke-linecap:butt;stroke-linejoin:miter;stroke-miterlimit:4;stroke-dasharray:none;stroke-dashoffset:0;stroke-opacity:1;marker:none;color-rendering:auto;image-rendering:auto;shape-rendering:auto;text-rendering:auto;enable-background:accumulate"
     id="path3731" />
  <path
     d="m 1.2844203,0.132305 c -0.80477297,0 -0.89136597,0.08175 -0.88742097,0.879292 V 2.11668 3.22176 c -0.0039,0.797541 0.08265,0.879295 0.88742097,0.879295 h 1.664615 c 0.804775,0 0.887423,-0.08174 0.887423,-0.879295 V 2.11668 1.011597 c 0,-0.797549 -0.08265,-0.879292 -0.887423,-0.879292 z"
     style="color:#000000;display:inline;overflow:visible;visibility:visible;fill:url(#linearGradient1003);fill-opacity:1;fill-rule:nonzero;stroke:none;stroke-width:0.264583;marker:none;enable-background:accumulate"
     id="path3851" />
  <path
     id="rect1263"
     style="fill:#c8c4b7;fill-opacity:1;stroke-width:0.264583;stroke-linejoin:round"
     d="m 1.3229167,1.3229167 v 0.1322917 h 1.5875 V 1.3229167 Z m 0,0.5291667 V 1.984375 h 1.5875 V 1.8520834 Z m 0,0.5291667 v 0.1322917 h 1.5875 V 2.3812501 Z m 0,0.5291666 v 0.1322918 h 1.5875 V 2.9104167 Z" />
  <path
     id="rect33"
     style="opacity:0.3;fill:#000000;stroke-width:0.999999"
     d="M 3.25 2 C 3.1114992 2 3 2.1114992 3 2.25 L 3 2.75 C 3 2.8885008 3.1114992 3 3.25 3 L 3.75 3 C 3.8885004 3 4 2.8885008 4 2.75 L 4 2.25 C 4 2.1114992 3.8885004 2 3.75 2 L 3.25 2 z M 12.25 2 C 12.111499 2 12 2.1114992 12 2.25 L 12 2.75 C 12 2.8885008 12.111499 3 12.25 3 L 12.75 3 C 12.888501 3 13 2.8885008 13 2.75 L 13 2.25 C 13 2.1114992 12.888501 2 12.75 2 L 12.25 2 z M 3.25 4 C 3.1114992 4 3 4.1114992 3 4.25 L 3 4.75 C 3 4.8885008 3.1114992 5 3.25 5 L 3.75 5 C 3.8885004 5 4 4.8885008 4 4.75 L 4 4.25 C 4 4.1114992 3.8885004 4 3.75 4 L 3.25 4 z M 12.25 4 C 12.111499 4 12 4.1114992 12 4.25 L 12 4.75 C 12 4.8885008 12.111499 5 12.25 5 L 12.75 5 C 12.888501 5 13 4.8885008 13 4.75 L 13 4.25 C 13 4.1114992 12.888501 4 12.75 4 L 12.25 4 z M 3.25 6 C 3.1115 6 3 6.1114992 3 6.25 L 3 6.75 C 3 6.8885008 3.1115 7 3.25 7 L 3.75 7 C 3.8885 7 4 6.8885008 4 6.75 L 4 6.25 C 4 6.1114992 3.8885 6 3.75 6 L 3.25 6 z M 12.25 6 C 12.111499 6.0000004 12 6.1114992 12 6.25 L 12 6.75 C 12 6.8885008 12.111499 7 12.25 7 L 12.75 7 C 12.888501 7 13 6.8885008 13 6.75 L 13 6.25 C 13 6.1114992 12.888501 6 12.75 6 L 12.25 6 z M 3.25 8 C 3.1115 8 3 8.1114992 3 8.25 L 3 8.75 C 3 8.8885008 3.1115 9 3.25 9 L 3.75 9 C 3.8885 9 4 8.8885008 4 8.75 L 4 8.25 C 4 8.1114992 3.8885 8 3.75 8 L 3.25 8 z M 12.25 8 C 12.111499 8.0000004 12 8.1114992 12 8.25 L 12 8.75 C 12 8.8885008 12.111499 9 12.25 9 L 12.75 9 C 12.888501 9 13 8.8885008 13 8.75 L 13 8.25 C 13 8.1114992 12.888501 8 12.75 8 L 12.25 8 z M 3.25 10 C 3.1115 10 3 10.111499 3 10.25 L 3 10.75 C 3 10.888501 3.1115 11 3.25 11 L 3.75 11 C 3.8885 11 4 10.888501 4 10.75 L 4 10.25 C 4 10.111499 3.8885 10 3.75 10 L 3.25 10 z M 12.25 10 C 12.111499 10 12 10.111499 12 10.25 L 12 10.75 C 12 10.888501 12.111499 11 12.25 11 L 12.75 11 C 12.888501 11 13 10.888501 13 10.75 L 13 10.25 C 13 10.111499 12.888501 10 12.75 10 L 12.25 10 z M 3.25 12 C 3.1115 12 3 12.111499 3 12.25 L 3 12.75 C 3 12.888501 3.1115 13 3.25 13 L 3.75 13 C 3.8885 13 4 12.888501 4 12.75 L 4 12.25 C 4 12.111499 3.8885 12 3.75 12 L 3.25 12 z M 12.25 12 C 12.111499 12 12 12.111499 12 12.25 L 12 12.75 C 12 12.888501 12.111499 13 12.25 13 L 12.75 13 C 12.888501 13 13 12.888501 13 12.75 L 13 12.25 C 13 12.111499 12.888501 12 12.75 12 L 12.25 12 z M 3.25 14 C 3.1115 14 3 14.111499 3 14.25 L 3 14.75 C 3 14.888501 3.1115 15 3.25 15 L 3.75 15 C 3.8885 15 4 14.888501 4 14.75 L 4 14.25 C 4 14.111499 3.8885 14 3.75 14 L 3.25 14 z M 12.25 14 C 12.111499 14 12 14.111499 12 14.25 L 12 14.75 C 12 14.888501 12.111499 15 12.25 15 L 12.75 15 C 12.888501 15 13 14.888501 13 14.75 L 13 14.25 C 13 14.111499 12.888501 14 12.75 14 L 12.25 14 z "
     transform="scale(0.26458333)" />
  <g
     id="g1242">
    <path
       style="color:#000000;fill:#888888;stroke-width:0.0264583;-inkscape-stroke:none"
       d="M 2.5977742,2.38125 2.38125,2.6134321 2.5798426,2.7986404 2.7963667,2.5664583 Z"
       id="path1137" />
    <path
       style="color:#000000;fill:#3b3b3b;stroke-width:0.0264583;-inkscape-stroke:none"
       d="M 2.7848428,2.4799002 2.4855329,2.7792618 3.0146995,3.3084285 3.3140094,3.0090667 Z"
       id="path1134" />
    <circle
       style="opacity:0.5;fill:#ffffff;fill-opacity:1;stroke-width:0.264583;stroke-linejoin:round"
       id="path1266"
       cx="1.8520833"
       cy="1.8520833"
       r="0.92604166" />
    <path
       id="path948"
       style="opacity:1;fill:#666666;fill-opacity:1;stroke-width:0.999999;stroke-linejoin:round"
       d="M 7,3 A 3.9999998,3.9999998 0 0 0 3,7 3.9999998,3.9999998 0 0 0 7,11 3.9999998,3.9999998 0 0 0 11,7 3.9999998,3.9999998 0 0 0 7,3 Z M 7,4 A 3,3 0 0 1 10,7 3,3 0 0 1 7,10 3,3 0 0 1 4,7 3,3 0 0 1 7,4 Z"
       transform="scale(0.26458333)" />
    <circle
       style="opacity:0.5;fill:#ffffff;fill-opacity:1;stroke-width:0.264583;stroke-linejoin:round"
       id="path1458"
       cx="1.5875"
       cy="1.5875"
       r="0.26458332" />
  </g>
  <path
     d="m 1.3017503,0.264607 c -0.37784097,0 -0.57122197,0.03201 -0.65086697,0.103696 -0.03982,0.03584 -0.06928,0.08775 -0.09077,0.188304 -0.02148,0.100557 -0.03094,0.244424 -0.03094,0.435419 v 1.124659 1.124659 c 0,0.190998 0.0094,0.334862 0.03094,0.43542 0.02148,0.100557 0.05095,0.152458 0.09077,0.188304 0.07964,0.07169 0.273026,0.103695 0.65086697,0.103695 h 1.629751 c 0.377936,0 0.572397,-0.03194 0.652415,-0.103695 0.04001,-0.03588 0.06949,-0.08742 0.09077,-0.187788 0.02125,-0.100365 0.03045,-0.244544 0.0294,-0.435417 V 3.241334 2.116685 0.992026 0.991497 c 0.0011,-0.190873 -0.0081,-0.335053 -0.0294,-0.435417 -0.02127,-0.100364 -0.05076,-0.151905 -0.09077,-0.187788 -0.08002,-0.07176 -0.274479,-0.103695 -0.652415,-0.103695 z m 0.611674,0.271881 c 0.240009,-2.65e-4 0.47997,-2.65e-4 0.719976,0.0011 0.24038,0.0087 0.483854,-0.01283 0.722043,0.0263 0.06492,-0.0045 0.05335,0.07245 0.0624,0.115562 0.0199,0.741997 0.01408,1.499798 0.01135,2.248807 -0.006,0.225946 0.0043,0.450837 -0.01807,0.673246 0.0032,0.08312 -0.09426,0.06942 -0.152144,0.08254 -0.55005,0.01611 -1.116346,0.0097 -1.673587,0.0098 -0.233955,-0.008 -0.470361,0.01148 -0.70244497,-0.02267 -0.06701,0.0067 -0.05625,-0.06917 -0.06808,-0.11247 -0.02117,-0.765444 -0.01423,-1.541465 -0.01135,-2.312257 0.0073,-0.208933 -0.0067,-0.416597 0.02061,-0.624755 -0.0061,-0.07268 0.07841,-0.05634 0.124809,-0.06965 C 1.2695083,0.530031 1.5920933,0.541461 1.9133793,0.536561 Z"
     style="color:#000000;display:inline;overflow:visible;visibility:visible;fill:url(#linearGradient915);fill-opacity:1;fill-rule:nonzero;stroke:none;stroke-width:0.2641;marker:none;enable-background:accumulate;opacity:0.7"
     id="path4135" />
  <path
     d="m 1.3012133,1.3e-5 c -0.38711497,0 -0.64589797,0.0083 -0.82733897,0.171567 -0.09072,0.08165 -0.144018,0.195932 -0.172601,0.329694 -0.02858,0.133766 -0.03669,0.292026 -0.03669,0.490927 V 2.11668 3.241159 c 0,0.198901 0.0081,0.357161 0.03669,0.490926 0.02858,0.133766 0.08188,0.248045 0.172601,0.329695 0.181441,0.163304 0.440224,0.171567 0.82733897,0.171567 h 1.630391 c 0.38721,0 0.64738,-0.0078 0.829406,-0.171048 0.09101,-0.08162 0.144208,-0.196255 0.1726,-0.330214 0.02836,-0.133818 0.03615,-0.2922 0.03514,-0.490926 V 3.24063 2.11668 0.992717 0.992187 c 0.0011,-0.198725 -0.0068,-0.357108 -0.03514,-0.490926 -0.02839,-0.133958 -0.08159,-0.248597 -0.1726,-0.330213 C 3.5789823,0.007818 3.3188143,0 2.9316043,0 Z m 0,0.264584 h 1.630391 c 0.377997,0 0.572728,0.03218 0.652672,0.10387 0.03997,0.03584 0.06917,0.08723 0.09043,0.187584 0.02127,0.100351 0.03044,0.244226 0.02946,0.435115 v 5.29e-4 1.124995 1.124996 5.29e-4 c 0.0011,0.190889 -0.0082,0.334761 -0.02946,0.435115 -0.02127,0.100351 -0.05046,0.151738 -0.09043,0.187584 -0.07994,0.07167 -0.274675,0.103849 -0.652672,0.103849 h -1.630391 c -0.37790197,0 -0.57103497,-0.03174 -0.65060797,-0.103354 -0.03979,-0.03581 -0.06895,-0.08807 -0.09043,-0.188619 -0.02148,-0.100547 -0.03101,-0.24462 -0.03101,-0.435631 V 2.11668 0.992201 c 0,-0.191011 0.0095,-0.335084 0.03101,-0.435631 0.02148,-0.10055 0.05065,-0.152813 0.09043,-0.188622 0.07957,-0.07161 0.272706,-0.103351 0.65060797,-0.103351 z"
     style="color:#000000;display:inline;opacity:0.4;fill:#000000;stroke-width:0.264583;-inkscape-stroke:none;enable-background:new"
     id="path4015" />
</svg>
