<svg width="24" height="24" version="1.1" xmlns="http://www.w3.org/2000/svg">
 <path d="m8.496 4c-1.409 0-2.4961 0.84179-2.4961 2.5371v5.9239c0 1.6953 1.0871 2.5391 2.4961 2.5391s2.4941-0.84646 2.4941-2.5391v-5.9239c0-1.6926-1.0851-2.5371-2.4941-2.5371zm-4.4961 7v1.5c0 2.3214 1.7476 4.1987 4 4.4492v2.0742c-0.667 0.0503-1.3347 0.19611-2 0.43554v0.54102h5v-0.54102c-0.6668-0.23433-1.3334-0.38187-2-0.43359v-2.0762c2.2524-0.25053 4-2.1278 4-4.4492v-1.5h-1v1.5c0 1.7676-1.3017 3.208-3 3.4512v-0.45117h-1v0.45117c-1.6983-0.24312-3-1.6835-3-3.4512v-1.5z" color="#000000" fill="#dfdfdf"/>
 <path d="m19.525 8.926 0.707 0.707-0.354 0.354a2.999 2.999 0 0 0 0 4.242l0.354 0.353-0.707 0.707-0.354-0.353a4 4 0 0 1 0-5.656z" color="#000000" fill="#dfdfdf" font-weight="400" opacity=".5" overflow="visible" style="font-feature-settings:normal;font-variant-alternates:normal;font-variant-caps:normal;font-variant-ligatures:normal;font-variant-numeric:normal;font-variant-position:normal;isolation:auto;mix-blend-mode:normal;shape-padding:0;text-decoration-color:#000000;text-decoration-line:none;text-decoration-style:solid;text-indent:0;text-orientation:mixed;text-transform:none;white-space:normal"/>
 <path d="m17.403 6.805 0.707 0.707-0.353 0.353a5.999 5.999 0 0 0 0 8.485l0.353 0.353-0.707 0.707-0.353-0.353a7 7 0 0 1 0-9.899z" color="#000000" fill="#dfdfdf" font-weight="400" opacity=".5" overflow="visible" style="font-feature-settings:normal;font-variant-alternates:normal;font-variant-caps:normal;font-variant-ligatures:normal;font-variant-numeric:normal;font-variant-position:normal;isolation:auto;mix-blend-mode:normal;shape-padding:0;text-decoration-color:#000000;text-decoration-line:none;text-decoration-style:solid;text-indent:0;text-orientation:mixed;text-transform:none;white-space:normal"/>
</svg>
