<svg width="24" height="24" version="1.1" xmlns="http://www.w3.org/2000/svg">
 <defs>
  <style id="current-color-scheme" type="text/css">.ColorScheme-Text { color:#dfdfdf; } .ColorScheme-Highlight { color:#4285f4; } .ColorScheme-NeutralText { color:#ff9800; } .ColorScheme-PositiveText { color:#4caf50; } .ColorScheme-NegativeText { color:#f44336; }</style>
 </defs>
 <path d="m12 4c-4.4179-1e-7 -8 3.5821-8 8-1e-7 4.2871 3.3727 7.7866 7.6094 7.9902l-1.1934-1.1934a7 7 0 0 1-5.416-6.7969 7 7 0 0 1 7-7 7 7 0 0 1 7 7 7 7 0 0 1-0.83789 3.2988l1.6719-1.6719c0.10868-0.52564 0.16602-1.0691 0.16602-1.627 0-4.4179-3.5821-8-8-8zm3.2988 14.162a7 7 0 0 1-0.38281 0.18359l0.099609 0.099609 0.2832-0.2832z" fill="#dfdfdf"/>
 <path d="m10 9v2h4v-2l3 3-3 3v-2h-4v2l-3-3z" fill="#dfdfdf"/>
 <path d="m20.937 13.937-5.922 5.922-2.969-2.97-1.061 1.064 4.031 4.03 6.984-6.983z" fill="#dfdfdf" font-family="sans-serif" font-weight="400" overflow="visible" style="font-feature-settings:normal;font-variant-alternates:normal;font-variant-caps:normal;font-variant-ligatures:normal;font-variant-numeric:normal;font-variant-position:normal;isolation:auto;mix-blend-mode:normal;shape-padding:0;text-decoration-color:#000000;text-decoration-line:none;text-decoration-style:solid;text-indent:0;text-orientation:mixed;text-transform:none" white-space="normal"/>
</svg>
