<svg width="24" height="24" version="1.1" xmlns="http://www.w3.org/2000/svg">
 <defs>
  <style id="current-color-scheme" type="text/css">.ColorScheme-Text { color:#dfdfdf; } .ColorScheme-Highlight { color:#4285f4; } .ColorScheme-NeutralText { color:#ff9800; } .ColorScheme-PositiveText { color:#4caf50; } .ColorScheme-NegativeText { color:#f44336; }</style>
 </defs>
 <path d="m11.586 4c-2.1126 0.034954-3.8252 0.85032-5.3613 2.3691-1.6562 1.6375-2.3112 3.2937-2.3047 5.791 0.00417 1.6253 0.24079 2.7955 0.81641 3.7637l0.13867 0.23047-0.56836 1.1191c-0.16696 0.33017-0.4749 0.80517-0.73828 1.1973-0.13169 0.19605-0.2519 0.37267-0.34375 0.51172-0.045925 0.06953-0.084355 0.12828-0.11719 0.18359-0.016416 0.02766-0.031685 0.05444-0.048828 0.08984-0.017143 0.035406-0.058594 0.027478-0.058594 0.2461 0 0.15062 0.10755 0.36076 0.23438 0.44727 0.12683 0.0865 0.22603 0.09453 0.29883 0.09961 0.14559 0.01016 0.23536-0.01269 0.33984-0.03711 0.20898-0.04885 0.44547-0.13104 0.71875-0.23438 0.54605-0.20647 1.217-0.49701 1.7773-0.72852l0.7793-0.32031 0.70703 0.32812c0.56429 0.26205 1.5011 0.56339 2.209 0.7168 0.89314 0.19355 1.2825 0.25768 2.3164 0.21484 2.2129-0.09168 3.8297-0.75468 5.2637-2.1777 1.4546-1.4435 2.1978-3.2363 2.3359-5.5547 0.12474-2.093-0.37767-3.9236-1.4434-5.3223-1.0657-1.3987-2.6833-2.3448-4.6973-2.7227-0.8025-0.15056-1.5498-0.22259-2.2539-0.21094zm0.01758 1c0.62506-0.010341 1.3047 0.053021 2.0527 0.19336 1.8147 0.34047 3.1825 1.16 4.0859 2.3457 0.90343 1.1857 1.3535 2.757 1.2402 4.6582-0.12777 2.1438-0.75473 3.6239-2.043 4.9023-1.2874 1.2776-2.5536 1.8039-4.5996 1.8887-0.99164 0.04108-1.1781 6.64e-4 -2.0645-0.19141-0.6114-0.13249-1.5658-0.44596-1.998-0.64648h-0.00195l-1.1016-0.51367-1.1855 0.48828c-0.45124 0.18642-0.93571 0.38768-1.3828 0.56641 0.21076-0.32125 0.43632-0.65548 0.59375-0.9668l0.81445-1.6094-0.41797-0.70312c-0.45819-0.77066-0.67185-1.7227-0.67578-3.2539-0.0060525-2.3384 0.48396-3.5714 2.0078-5.0781 1.406-1.3902 2.8011-2.0491 4.6758-2.0801z" color="#000000" fill="#46a926" style="-inkscape-stroke:none"/>
 <path d="m9.5355 6.9993c0.2657 0 0.74143 0.56718 1.0977 1.3066 0.38823 0.80591 0.38427 1.05-0.01758 1.3145-0.53122 0.34964-0.96875 0.82298-0.96875 1.0469 0 0.11561 0.33583 0.5623 0.74609 0.99219 0.67061 0.70269 0.77988 0.88956 1.0859 1.8594 0.19113 0.60562 0.4318 1.1357 0.54883 1.209 0.16494 0.10329 0.37085 0.04254 0.98242-0.29492l0.24609-0.13672c0.48473-0.26747 0.53812-0.36497 0.87109 0.13672 0.18961 0.23458 0.48431 0.72058 0.6543 1.0801 0.36861 0.77955 0.30459 0.95806-0.44922 1.2598-1.681 0.67281-2.6349-0.04942-4.627-3.498-1.6694-2.89-1.9929-3.9873-1.4844-5.0215 0.26581-0.54061 1.0138-1.2539 1.3145-1.2539z" fill="#46a926"/>
</svg>
