<svg width="48" height="48" version="1" xmlns="http://www.w3.org/2000/svg" xmlns:xlink="http://www.w3.org/1999/xlink">
 <defs>
  <linearGradient id="linearGradient3210" x1="494.34" x2="0" y1="313.29" y2="313.29" gradientTransform="matrix(0 -.11328 -.11328 0 59.489 52)" gradientUnits="userSpaceOnUse">
   <stop stop-color="#b3b3b3" offset="0"/>
   <stop stop-color="#d9d9d9" offset="1"/>
  </linearGradient>
  <linearGradient id="linearGradient1004" x1="344" x2="344" y1="62" y2="106" gradientUnits="userSpaceOnUse">
   <stop stop-color="#fff" offset="0"/>
   <stop stop-color="#fff" stop-opacity=".098039" offset=".125"/>
   <stop stop-color="#fff" stop-opacity=".098039" offset=".925"/>
   <stop stop-color="#fff" stop-opacity=".49804" offset="1"/>
  </linearGradient>
  <clipPath id="clipPath994-5">
   <path d="m335.73 62c-8.8242 0-9.7736 0.90635-9.7304 9.7484v12.252 12.252c-0.0433 8.842 0.90622 9.7484 9.7304 9.7484h16.539c8.8242 0 9.7304-0.90625 9.7304-9.7484v-12.252-12.252c0-8.8421-0.90622-9.7484-9.7304-9.7484z" color="#000000" fill="#cdcdcd"/>
  </clipPath>
 </defs>
 <path d="m15.73 2c-2.2232 0-3.9737 0.05118-5.4141 0.29297-1.4404 0.24178-2.619 0.6953-3.4824 1.5566-0.86337 0.86134-1.3191 2.0395-1.5586 3.4805-0.23953 1.441-0.28629 3.1953-0.27539 5.4238v12.246 12.252c-0.0108 2.2251 0.0361 3.9785 0.27539 5.418 0.23953 1.441 0.69522 2.6191 1.5586 3.4805 0.86338 0.86134 2.042 1.3149 3.4824 1.5566 1.4404 0.24179 3.1909 0.29297 5.4141 0.29297h16.539c2.2232 0 3.9728-0.0511 5.4102-0.29297 1.4374-0.24189 2.6125-0.69694 3.4726-1.5586 0.8602-0.86165 1.3132-2.0389 1.5547-3.4785 0.24149-1.4396 0.29297-3.1904 0.29297-5.418v-12.252-12.252c0-2.2276-0.0515-3.9784-0.29297-5.418-0.24149-1.4396-0.69449-2.6169-1.5547-3.4785-0.86019-0.86165-2.0352-1.3167-3.4726-1.5586-1.4374-0.24189-3.187-0.29297-5.4102-0.29297z" color="#000000" color-rendering="auto" dominant-baseline="auto" image-rendering="auto" opacity=".1" shape-rendering="auto" solid-color="#000000" style="font-feature-settings:normal;font-variant-alternates:normal;font-variant-caps:normal;font-variant-ligatures:normal;font-variant-numeric:normal;font-variant-position:normal;isolation:auto;mix-blend-mode:normal;shape-padding:0;text-decoration-color:#000000;text-decoration-line:none;text-decoration-style:solid;text-indent:0;text-orientation:mixed;text-transform:none;white-space:normal"/>
 <path d="m32.268 1.5c2.2146 0 3.9472 0.05465 5.332 0.28711 1.3848 0.23246 2.4455 0.65434 3.2109 1.418s1.1878 1.8223 1.418 3.207c0.23017 1.3847 0.28039 3.1184 0.26953 5.3379v12.25 12.252c0.0108 2.2183-0.0394 3.9518-0.26953 5.3359-0.23017 1.3847-0.65253 2.4434-1.418 3.207s-1.8261 1.1855-3.2109 1.418c-1.3848 0.23246-3.1174 0.28711-5.332 0.28711h-16.539c-2.2146 0-3.9445-0.0546-5.3262-0.28711-1.3816-0.2325-2.4406-0.65418-3.2031-1.418-0.76249-0.76378-1.1838-1.823-1.416-3.207-0.23217-1.384-0.28516-3.1169-0.28516-5.3359v-12.252-12.252c0-2.2191 0.053-3.952 0.28516-5.3359s0.65352-2.4432 1.416-3.207 1.8215-1.1855 3.2031-1.418c1.3816-0.2325 3.1116-0.28711 5.3262-0.28711z" color="#000000" fill="url(#linearGradient3210)"/>
 <path d="m15.73 1.5c-2.2146 0-3.9472 0.05465-5.332 0.28711-1.3848 0.23246-2.4455 0.65434-3.2109 1.418s-1.1878 1.8223-1.418 3.207c-0.23017 1.3847-0.28039 3.1184-0.26953 5.3379v12.25 12.252c-0.0108 2.2183 0.0394 3.9518 0.26953 5.3359 0.23017 1.3847 0.65253 2.4434 1.418 3.207s1.8261 1.1855 3.2109 1.418c1.3848 0.23246 3.1174 0.28711 5.332 0.28711h16.539c2.2146 0 3.9445-0.0546 5.3262-0.28711 1.3816-0.2325 2.4406-0.65418 3.2031-1.418 0.76249-0.76378 1.1838-1.823 1.416-3.207 0.23217-1.384 0.28516-3.1169 0.28516-5.3359v-12.252-12.252c0-2.2191-0.053-3.952-0.28516-5.3359s-0.65352-2.4432-1.416-3.207-1.8215-1.1855-3.2031-1.418c-1.3816-0.2325-3.1116-0.28711-5.3262-0.28711z" color="#000000" fill="none" opacity=".4" stroke="#000"/>
 <path transform="translate(-320,-60)" d="m335.73 62c-8.8242 0-9.7736 0.90635-9.7304 9.7484v12.252 12.252c-0.0433 8.842 0.90622 9.7484 9.7304 9.7484h16.539c8.8242 0 9.7304-0.90625 9.7304-9.7484v-12.252-12.252c0-8.8421-0.90622-9.7484-9.7304-9.7484z" clip-path="url(#clipPath994-5)" color="#000000" fill="none" opacity=".4" stroke="url(#linearGradient1004)" stroke-width="2"/>
 <path d="m13.796 6c-2.015 0.0234-3.3379 0.0954-3.9228 0.41895-0.29263 0.16191-0.46157 0.33987-0.61817 0.75585-0.1551 0.41589-0.25488 1.0774-0.25488 1.8252s0.0983 1.4093 0.25488 1.8252c0.15579 0.41592 0.32536 0.59385 0.61816 0.75585 0.58455 0.32334 1.9058 0.39495 3.917 0.41895h0.0176 4.7783 10.828 4.7783 0.0176c2.0112-0.024 3.3324-0.0956 3.917-0.41895 0.29281-0.162 0.46238-0.33993 0.61817-0.75585 0.15659-0.41592 0.25484-1.0774 0.25484-1.8252s-0.0997-1.4093-0.25488-1.8252c-0.1566-0.41598-0.32555-0.59394-0.61816-0.75585-0.58496-0.32355-1.9079-0.39555-3.9229-0.41895h-3e-3 -14.701-5.7012z" color="#000000" color-rendering="auto" fill="#fff" image-rendering="auto" opacity=".2" shape-rendering="auto" solid-color="#000000" style="isolation:auto;mix-blend-mode:normal;text-decoration-color:#000000;text-decoration-line:none;text-decoration-style:solid;text-indent:0;text-transform:none;white-space:normal"/>
 <path d="m22.605 21.51c0.2777 0.0505 0.58078 0.30279 0.73225 0.50475l2.4489 4.2414-1.2621 0.75737h4.1906l2.0953-3.6352-1.2877 0.73176-1.2872-2.2721c-0.12626-0.22721-0.37872-0.32796-0.65643-0.32796zm-1.4449 0.25564c-0.64375 0.0221-1.2687 0.2617-1.5338 0.72875l-1.9185 3.3579 3.6854 2.1455 2.3479-4.0897-0.93416-1.565c-0.3408-0.40393-1.003-0.59966-1.6468-0.57757zm9.9778 5.1976-3.711 2.1204 2.3479 4.0138h1.9944c0.80786-0.15147 2.0197-1.4643 1.3128-2.8276zm-16.435 0.88342 1.3379 0.78248-0.8583 1.4389c-0.75736 1.4138 0.50475 2.973 1.2621 3.0551h1.9692l1.3379-2.3228 1.338 0.73226-2.1455-3.6859zm12.042 4.3167-2.146 3.6859 2.146 3.6608v-1.5398h2.6257c0.30295 0 0.50471-0.17672 0.6057-0.3787l2.373-4.1906c-0.12627 0.0757-0.20188 0.20162-0.68154 0.25211h-4.9229zm-10.906 1.2877c0.10091 0.12625 0.0756 0.10118 2.2972 4.0394 0.15147 0.22721 0.35361 0.50488 0.63131 0.47964h4.721v-4.3172h-7.0182c-0.37868 0-0.51139-0.10093-0.63131-0.20189z" enable-background="new" fill="#28851e"/>
 <path d="m13.796 5c-2.015 0.0234-3.3379 0.0954-3.9228 0.41895-0.29263 0.16191-0.46157 0.33987-0.61817 0.75585-0.1551 0.41589-0.25488 1.0774-0.25488 1.8252s0.0983 1.4093 0.25488 1.8252c0.15579 0.41592 0.32536 0.59385 0.61816 0.75585 0.58455 0.32334 1.9058 0.39495 3.917 0.41895h0.0176 4.7783 10.828 4.7783 0.0176c2.0112-0.024 3.3324-0.0956 3.917-0.41895 0.29281-0.162 0.46238-0.33993 0.61817-0.75585 0.15659-0.41592 0.25484-1.0774 0.25484-1.8252s-0.0997-1.4093-0.25488-1.8252c-0.1566-0.41598-0.32555-0.59394-0.61816-0.75585-0.58496-0.32355-1.9079-0.39555-3.9229-0.41895h-3e-3 -14.701-5.7012z" color="#000000" color-rendering="auto" image-rendering="auto" opacity=".4" shape-rendering="auto" solid-color="#000000" style="isolation:auto;mix-blend-mode:normal;text-decoration-color:#000000;text-decoration-line:none;text-decoration-style:solid;text-indent:0;text-transform:none;white-space:normal"/>
</svg>
