<svg width="16" height="16" version="1.1" xmlns="http://www.w3.org/2000/svg">
 <rect y="9" width="16" height="7" rx="3.5" ry="3.5" opacity=".2"/>
 <rect x="3.5" y="8" width="9" height="7" fill="#455a64"/>
 <circle cx="3.5" cy="11.5" r="3.5" fill="#455a64"/>
 <path d="m5 9a1 1 0 0 0-1 1 1 1 0 0 0 0.023437 0.20898l-1.2695 0.63477a1 1 0 0 0-0.75391-0.34375 1 1 0 0 0-1 1 1 1 0 0 0 1 1 1 1 0 0 0 0.75391-0.34375l1.2676 0.63281a1 1 0 0 0-0.021484 0.21094 1 1 0 0 0 1 1 1 1 0 0 0 1-1 1 1 0 0 0-1-1 1 1 0 0 0-0.75586 0.34375l-1.2676-0.63281a1 1 0 0 0 0.023438-0.21094 1 1 0 0 0-0.023438-0.21094l1.2695-0.63476a1 1 0 0 0 0.75391 0.3457 1 1 0 0 0 1-1 1 1 0 0 0-1-1z" fill="#fff"/>
 <circle cx="12.5" cy="11.5" r="3.5" fill="#1474e7"/>
 <path d="m12.476 9.0001c0.52605 0.0011 1.0595 0.1651 1.4761 0.48962 0.29292 0.33744-0.26522 0.69883-0.51659 0.36979-0.75673-0.45789-1.8239-0.29667-2.3933 0.38789-0.30292 0.33971-0.47358 0.79304-0.47158 1.2481h0.50009l-0.80014 1.2002-0.80014-1.2002h0.50009c-0.01596-1.0865 0.76552-2.1202 1.8147-2.4016 0.22504-0.06174 0.457-0.09628 0.6907-0.09386zm2.1954 1.3002 0.80014 1.2002h-0.50009c0.01418 1.0996-0.78725 2.1448-1.8548 2.4114-0.72035 0.20117-1.5349 0.05437-2.1269-0.40586-0.30207-0.34308 0.26382-0.70098 0.51753-0.36893 0.73318 0.44482 1.7599 0.30374 2.3387-0.3316 0.33506-0.34525 0.52778-0.82379 0.52528-1.305h-0.50009l0.80014-1.2002z" fill="#fff"/>
</svg>
