<svg width="48" height="48" enable-background="new" version="1.0" xmlns="http://www.w3.org/2000/svg" xmlns:xlink="http://www.w3.org/1999/xlink">
 <title>Suru Icon Theme Template</title>
 <defs>
  <linearGradient id="linearGradient951" x1="512" x2="-1e-6" y1="397.99" y2="125.99" gradientTransform="matrix(0 -.11328 -.11328 0 379.49 112)" gradientUnits="userSpaceOnUse">
   <stop stop-color="#2f5fdd" offset="0"/>
   <stop stop-color="#80a3fa" offset="1"/>
  </linearGradient>
  <linearGradient id="linearGradient925" x1="344" x2="344" y1="61" y2="107" gradientTransform="translate(.0014187)" gradientUnits="userSpaceOnUse">
   <stop stop-color="#fff" offset="0"/>
   <stop stop-color="#fff" stop-opacity=".098039" offset=".125"/>
   <stop stop-color="#fff" stop-opacity=".098039" offset=".925"/>
   <stop stop-opacity=".49804" offset="1"/>
  </linearGradient>
 </defs>
 <g transform="translate(-245.41 -276)">
  <g transform="translate(-74.592 216)" enable-background="new">
   <rect x="320" y="60" width="48" height="48" enable-background="accumulate" opacity="0" stroke-width="2"/>
   <path d="m335.73 62c-2.2232 0-3.9737 0.05118-5.4141 0.29297-1.4404 0.24178-2.619 0.6953-3.4824 1.5566-0.86337 0.86134-1.3191 2.0395-1.5586 3.4805-0.23953 1.441-0.28629 3.1953-0.27539 5.4238v12.246 12.252c-0.0108 2.2251 0.0361 3.9785 0.27539 5.418 0.23953 1.441 0.69522 2.6191 1.5586 3.4805 0.86338 0.86134 2.042 1.3149 3.4824 1.5566 1.4404 0.24179 3.1909 0.29297 5.4141 0.29297h16.539c2.2232 0 3.9728-0.0511 5.4102-0.29297 1.4374-0.24189 2.6125-0.69694 3.4726-1.5586 0.8602-0.86165 1.3132-2.0389 1.5547-3.4785 0.24149-1.4396 0.29297-3.1904 0.29297-5.418v-12.252-12.252c0-2.2276-0.0515-3.9784-0.29297-5.418-0.24149-1.4396-0.69449-2.6169-1.5547-3.4785-0.86019-0.86165-2.0352-1.3167-3.4726-1.5586-1.4374-0.24189-3.187-0.29297-5.4102-0.29297z" color="#000000" color-rendering="auto" dominant-baseline="auto" enable-background="accumulate" image-rendering="auto" opacity=".1" shape-rendering="auto" solid-color="#000000" style="font-feature-settings:normal;font-variant-alternates:normal;font-variant-caps:normal;font-variant-ligatures:normal;font-variant-numeric:normal;font-variant-position:normal;isolation:auto;mix-blend-mode:normal;shape-padding:0;text-decoration-color:#000000;text-decoration-line:none;text-decoration-style:solid;text-indent:0;text-orientation:mixed;text-transform:none;white-space:normal"/>
   <path d="m335.73 61c-2.2228 0-3.9747 0.05331-5.4141 0.29492-1.4411 0.24191-2.6187 0.69492-3.4824 1.5566-0.8639 0.86188-1.319 2.0369-1.5586 3.4785-0.23931 1.4397-0.28629 3.1936-0.27539 5.4219v12.248 12.252c-0.0108 2.226 0.0362 3.9793 0.27539 5.418 0.23963 1.4416 0.69468 2.6166 1.5586 3.4785 0.86376 0.86171 2.0413 1.3147 3.4824 1.5566 1.4393 0.24161 3.1912 0.29492 5.4141 0.29492h16.539c2.2228 0 3.9718-0.0532 5.4082-0.29492 1.438-0.24198 2.6136-0.69415 3.4746-1.5566 0.86073-0.86218 1.3131-2.0382 1.5547-3.4785 0.24138-1.4389 0.29297-3.1909 0.29297-5.418v-12.252-12.252c0-2.227-0.0516-3.9791-0.29297-5.418-0.2416-1.4403-0.69396-2.6163-1.5547-3.4785-0.86102-0.86248-2.0366-1.3147-3.4746-1.5566-1.4364-0.24171-3.1854-0.29492-5.4082-0.29492z" color="#000000" enable-background="accumulate" fill="url(#linearGradient951)"/>
   <path d="m335.73 61.5c-2.2146 0-3.9472 0.05465-5.332 0.28711-1.3848 0.23246-2.4455 0.65434-3.2109 1.418s-1.1878 1.8223-1.418 3.207c-0.23017 1.3847-0.28039 3.1184-0.26953 5.3379v12.25 12.252c-0.0108 2.2183 0.0394 3.9518 0.26953 5.3359 0.23017 1.3847 0.65253 2.4434 1.418 3.207s1.8261 1.1855 3.2109 1.418c1.3848 0.23246 3.1174 0.28711 5.332 0.28711h16.539c2.2146 0 3.9445-0.0546 5.3262-0.28711 1.3816-0.2325 2.4406-0.65418 3.2031-1.418 0.76249-0.76378 1.1838-1.823 1.416-3.207 0.23217-1.384 0.28516-3.1169 0.28516-5.3359v-12.252-12.252c0-2.2191-0.053-3.952-0.28516-5.3359s-0.65352-2.4432-1.416-3.207-1.8215-1.1855-3.2031-1.418c-1.3816-0.2325-3.1116-0.28711-5.3262-0.28711z" color="#000000" enable-background="accumulate" fill="none" opacity=".3" stroke="url(#linearGradient925)"/>
   <path d="m342 75v6.5c0 0.277 0.223 0.5 0.5 0.5h3c0.277 0 0.5-0.223 0.5-0.5v-6.5zm1 4h2v2h-2z" color="#000000" enable-background="accumulate" opacity=".2"/>
   <path d="m344 62h-2v2h2zm0 2v2h2v-2zm0 2h-2v2h2zm0 2v2h2v-2zm0 2h-2v2h2zm0 2v2h2v-2z" color="#000000" enable-background="accumulate" opacity=".2"/>
   <path d="m342 74v6.5c0 0.277 0.223 0.5 0.5 0.5h3c0.277 0 0.5-0.223 0.5-0.5v-6.5zm1 4h2v2h-2z" color="#000000" enable-background="accumulate" fill="#fff"/>
   <path d="m344 61h-2v2h2zm0 2v2h2v-2zm0 2h-2v2h2zm0 2v2h2v-2zm0 2h-2v2h2zm0 2v2h2v-2z" color="#000000" enable-background="accumulate" fill="#fff"/>
   <path d="m349.05 87.904c-0.70995 0.04086-1.1465 0.84381-1.0586 1.4961 0.0501 0.54153 0.66955 0.89942 1.1641 0.67578 0.64359-0.26098 1.1424-1.0811 0.8164-1.752-0.18949-0.30288-0.58013-0.42817-0.92187-0.41992zm3.9043 0.02734c-0.36357 0.15634-0.60261 0.52314-0.83593 0.83008-0.57442 1.0387-0.61117 2.2611-0.91993 3.3867-0.30261 0.98292-0.8507 1.8759-1.4121 2.7207-0.26162 0.32258-0.50826 0.85214-1.0039 0.7793-0.36934-0.15576-0.42688-0.6489-0.41016-1.0039-5e-3 -0.41052 0.28558-0.72426 0.3086-1.127 0.20435-0.78053 0.70341-1.4603 0.8457-2.2578 0.0395-0.38911-7e-3 -0.94569-0.43945-1.0898-0.50373-0.13655-1.0554 0.13238-1.2676 0.60742-0.35875 0.76582-0.47169 1.6163-0.70508 2.4238-0.23324 1.0263-0.23734 2.1394 0.1543 3.127 0.40423 0.71616 1.4165 0.88561 2.1172 0.5332 0.22294-0.08096 0.36491-0.36417 0.60938-0.36523 0.1786 0.21574 0.0754 0.54152 0.043 0.79687-0.17634 0.52519-0.31691 1.0631-0.39258 1.6133-0.20891 1.1875-0.47384 2.3812-0.46289 3.5918 0.0901 0.42584 0.62503 0.72754 1.0137 0.46679 0.54798-0.25515 0.83705-1.0368 0.43555-1.5352 5e-3 -0.71997 0.21941-1.4292 0.33398-2.1387 0.15231-0.77925 0.28612-1.5681 0.36524-2.3555 0.21023-0.34751 0.66482-0.19071 0.96679-0.08203 0.4721 0.1544 1.0557 0.42779 1.502 0.05859 0.68455-0.52512 1.3068-1.1709 1.623-1.9883 0.52759-1.287 0.88297-2.7496 0.47852-4.1211-0.18024-0.49055-0.43812-1.0404-0.93164-1.2793-0.53406-0.19583-0.98557 0.26337-1.4102 0.50781-0.15196 0.0645-0.33 0.26558-0.5 0.19727 0.15272-0.58941 0.57192-1.1672 0.42774-1.7988-0.0774-0.22065-0.29179-0.47038-0.53321-0.49805zm-15.934 1.9863c-0.0943 5e-3 -0.181 0.06816-0.27148 0.0957-1.1549 0.4812-1.8278 1.6315-2.3652 2.6992-0.47186 0.95989-0.96624 1.9829-0.87109 3.084 1e-3 0.66114 0.447 1.4336 1.1719 1.457 0.73745 0.0757 1.2748-0.52691 1.7656-0.98047 0.1968-0.17436 0.39038-0.40372 0.60742-0.5293 0.0981 0.42242-0.10038 0.85424-0.20312 1.2598-0.38041 1.0559-0.48125 2.2131-1.0254 3.207-0.38804 0.66866-1.2573 0.85991-1.9629 0.80468-0.47797-0.0247-0.91144-0.25403-1.3066-0.49414-0.38726 0.0555-0.72057 0.56257-0.43164 0.90821 0.42725 0.55522 1.1836 0.84737 1.873 0.69726 0.99165-0.0831 2.0269-0.35608 2.748-1.082 0.3872-0.3546 0.577-0.85373 0.68554-1.3555 0.74065-2.7601 1.3005-5.5968 2.5996-8.1621-0.0892-0.50836-0.54219-0.87593-1.0273-1.0078-0.65787-0.21201-1.3546-0.32565-1.9863-0.60156zm8.8164 0.0039c-1.364 0.03467-2.6804 0.4482-3.9746 0.84375-0.14534 0.16108 0.05 0.41236 0.16797 0.55859 0.40754 0.46307 1.0848 0.34014 1.6172 0.23047 0.34964-0.05475 0.70125-0.1684 1.0508-0.1875 0.21378 0.09976 0.2355 0.38979 0.0371 0.51367-0.54697 0.41882-1.1482 0.77564-1.6211 1.2852-0.669 0.61484-1.2434 1.3321-1.8887 1.9727-0.39573 0.44063-0.876 0.82261-1.1875 1.3301-0.17079 0.47295-0.0105 1.035 0.41015 1.3223 0.39027 0.34334 0.95565 0.38914 1.4414 0.27148 0.81774-0.43554 1.7696-0.51792 2.6016-0.93556 0.24357-0.10391 0.53323-0.38345 0.33203-0.6582-0.18754-0.37878-0.63726-0.46485-1.0195-0.41211-0.4985-0.0033-0.99672 0.25466-1.4902 0.13086-0.1879-0.08618 0.0895-0.24563 0.15039-0.36133 1.4544-1.5817 3.0469-3.0327 4.4727-4.6406 0.32852-0.39152-0.0251-0.96268-0.4336-1.1328-0.20575-0.1012-0.43792-0.13932-0.66601-0.13086zm8.5469 1.1387c0.0291 0.03366 0.0588 0.06595 0.0879 0.09961 0.47073 0.58156 0.27972 1.3881 0.0723 2.0332-0.28143 0.83486-0.43231 1.8202-1.1797 2.3906-0.38281 0.31525-1.0882 0.30836-1.2891-0.21289-0.18688-0.52016 0.17174-1.0129 0.39062-1.4609 0.3871-0.68569 0.51643-1.5063 1.0547-2.1074 0.23938-0.29886 0.53827-0.54209 0.86328-0.74219zm-16.811 0.21875c0.3753 0.25302 0.45052 0.76652 0.26954 1.1602-0.34344 0.82928-0.95077 1.5114-1.3926 2.2871-0.34265 0.48698-0.60421 1.0751-1.1406 1.3828-0.15947 0.09126-0.41991 0.13007-0.49023-0.08789-0.33813-0.614 0.0641-1.2869 0.35547-1.8301 0.52218-0.94854 0.99833-1.9896 1.9141-2.6309 0.15068-0.0981 0.30882-0.25449 0.48437-0.28125z" enable-background="new" fill="#fff" opacity=".5"/>
   <path d="m326 84v12.252c-0.0433 8.842 0.90629 9.748 9.7305 9.748h16.539c8.8242 0 9.7305-0.90592 9.7305-9.748v-12.252z" color="#000000" enable-background="accumulate" fill="#fff" opacity=".08"/>
   <path d="m344 62v44h8.2695c8.8242 0 9.7305-0.90592 9.7305-9.748v-12.252-12.252c0-8.8421-0.90629-9.748-9.7305-9.748z" color="#000000" enable-background="accumulate" fill="#fff" opacity=".08"/>
  </g>
 </g>
</svg>
