<svg width="48" height="48" enable-background="new" version="1.0" xmlns="http://www.w3.org/2000/svg" xmlns:xlink="http://www.w3.org/1999/xlink">
 <text x="342.25629" y="-171.79178" fill="#000000" font-family="ubuntu" font-size="48px" letter-spacing="0px" word-spacing="0px" style="line-height:1.25" xml:space="preserve"/>
 <flowRoot transform="translate(16.322 -249.65)" fill="#000000" font-family="ubuntu" font-size="47.2px" letter-spacing="0px" word-spacing="0px" style="line-height:1.25" xml:space="preserve"><flowRegion font-size="47.2px"><rect x="64.216" y="207.6" width="175.47" height="45.362"/></flowRegion><flowPara/></flowRoot>
 <title>Suru Icon Theme Template</title>
 <defs>
  <linearGradient id="linearGradient1024" x1="459.03" x2="35.31" y1="419.23" y2="207.37" gradientTransform="matrix(0 -.11328 .11328 0 -63.49 52)" gradientUnits="userSpaceOnUse">
   <stop stop-color="#f2f2f2" offset="0"/>
   <stop stop-color="#f9f9f9" offset="1"/>
  </linearGradient>
  <linearGradient id="linearGradient1004" x1="344" x2="344" y1="62" y2="106" gradientUnits="userSpaceOnUse">
   <stop stop-color="#fff" offset="0"/>
   <stop stop-color="#fff" stop-opacity=".098039" offset=".125"/>
   <stop stop-color="#fff" stop-opacity=".098039" offset=".925"/>
   <stop stop-color="#fff" stop-opacity=".49804" offset="1"/>
  </linearGradient>
  <clipPath id="clipPath994-3">
   <path d="m335.73 62c-8.8242 0-9.7736 0.90635-9.7304 9.7484v12.252 12.252c-0.0433 8.842 0.90622 9.7484 9.7304 9.7484h16.539c8.8242 0 9.7304-0.90625 9.7304-9.7484v-12.252-12.252c0-8.8421-0.90622-9.7484-9.7304-9.7484z" color="#000000" enable-background="accumulate" fill="#cdcdcd"/>
  </clipPath>
 </defs>
 <g transform="translate(52)">
  <path d="m-36.27 2c-2.2232 0-3.9737 0.05118-5.4141 0.29297-1.4404 0.24178-2.619 0.6953-3.4824 1.5566-0.86337 0.86134-1.3191 2.0395-1.5586 3.4805-0.23953 1.441-0.28629 3.1953-0.27539 5.4238v12.246 12.252c-0.0108 2.2251 0.0361 3.9785 0.27539 5.418 0.23953 1.441 0.69522 2.6191 1.5586 3.4805 0.86338 0.86134 2.042 1.3149 3.4824 1.5566 1.4404 0.24179 3.1909 0.29297 5.4141 0.29297h16.539c2.2232 0 3.9728-0.0511 5.4102-0.29297 1.4374-0.24189 2.6125-0.69694 3.4726-1.5586 0.8602-0.86165 1.3132-2.0389 1.5547-3.4785 0.24149-1.4396 0.29297-3.1904 0.29297-5.418v-12.252-12.252c0-2.2276-0.0515-3.9784-0.29297-5.418-0.24149-1.4396-0.69449-2.6169-1.5547-3.4785-0.86019-0.86165-2.0352-1.3167-3.4726-1.5586-1.4374-0.24189-3.187-0.29297-5.4102-0.29297z" color="#000000" color-rendering="auto" dominant-baseline="auto" enable-background="accumulate" image-rendering="auto" opacity=".1" shape-rendering="auto" solid-color="#000000" style="font-feature-settings:normal;font-variant-alternates:normal;font-variant-caps:normal;font-variant-ligatures:normal;font-variant-numeric:normal;font-variant-position:normal;isolation:auto;mix-blend-mode:normal;shape-padding:0;text-decoration-color:#000000;text-decoration-line:none;text-decoration-style:solid;text-indent:0;text-orientation:mixed;text-transform:none;white-space:normal"/>
  <path d="m-36.269 2c-8.8242 0-9.7736 0.90635-9.7304 9.7484v12.252 12.252c-0.0433 8.842 0.90622 9.7484 9.7304 9.7484h16.539c8.8242 0 9.7304-0.90625 9.7304-9.7484v-12.252-12.252c0-8.8421-0.90622-9.7484-9.7304-9.7484z" color="#000000" enable-background="accumulate" fill="none" opacity=".2" stroke="#000" stroke-width="2"/>
  <path d="m-36.269 2c-8.8242 0-9.7736 0.90635-9.7304 9.7484v12.252 12.252c-0.0433 8.842 0.90622 9.7484 9.7304 9.7484h16.539c8.8242 0 9.7304-0.90625 9.7304-9.7484v-12.252-12.252c0-8.8421-0.90622-9.7484-9.7304-9.7484z" color="#000000" enable-background="accumulate" fill="url(#linearGradient1024)"/>
  <path d="m-20.056 8.0002c-0.30441-0.0038-0.70923 0.0442-1.2477 0.12503l-8.6334 1.3703c-2.1635 0.4607-2.1561 0.604-2.1634 2.4319v14.831c-0.0898-0.06331-0.17935-0.12677-0.27262-0.18929v6.5e-4c-0.68731-0.46064-1.4199-0.78847-2.4039-0.78847-1.2327 0-1.9676 0.47196-2.4127 1.0936-0.4449 0.62164-0.59248 1.4052-0.59248 2.0109 0 0.73039 0.24934 1.5099 0.79046 2.104 0.54081 0.59404 1.3727 1.01 2.5685 1.01 1.3506 0 2.3004-0.37709 2.8373-1.1135 0.42289-0.57984 0.6567-1.3545 0.74018-2.31v-0.0032c0.0124-0.11593 0.0194-0.235 0.0283-0.35768 0.0124-0.18887 0.0104-0.54221 0.0104-0.54221v-11.355c0-1.6223-7e-5 -1.7191 2.1641-2.0891l6.0448-0.99959c2.168-0.28367 2.1685-0.08485 2.1685 1.132v10.422c-0.087-0.0614-0.17453-0.12342-0.26519-0.18422v6.5e-4c-0.68743-0.46065-1.4197-0.78847-2.4038-0.78847-1.2325 0-1.9679 0.47196-2.4128 1.0936-0.44502 0.62164-0.59256 1.4052-0.59256 2.0109 0 0.73039 0.24967 1.5099 0.79065 2.104 0.54104 0.59403 1.3728 1.0103 2.5687 1.0104 1.3504 0 2.3003-0.3774 2.8374-1.1139 0.42278-0.57984 0.65628-1.3542 0.73968-2.3097v-0.0032c0.0124-0.11592 0.0193-0.23469 0.0283-0.35736 0.0121-0.18888 0.0104-0.54252 0.0104-0.54252v-15.798c0-1.4228-0.0104-1.8941-0.92267-1.9042z" enable-background="new" fill="#ec3c50" opacity=".8"/>
  <path d="m-46 24v12.252c-0.0433 8.842 0.90629 9.748 9.7305 9.748h16.539c8.8242 0 9.7305-0.90592 9.7305-9.748v-12.252z" color="#000000" enable-background="accumulate" fill="#fff" opacity=".2"/>
  <path d="m-28 2v44h8.2695c8.8242 0 9.7305-0.90592 9.7305-9.748v-12.252-12.252c0-8.8421-0.90629-9.748-9.7305-9.748z" color="#000000" enable-background="accumulate" fill="#fff" opacity=".1"/>
  <path d="m-33.37 40.047q-0.27472-0.70642-0.58868-1.6091-0.30416-0.91246-0.55925-1.8936-0.2551 0.98114-0.55925 1.8936-0.30416 0.90265-0.57888 1.6091h-0.79472q-0.45133-1.0106-0.88303-2.3057-0.4317-1.2951-0.81434-2.7963h0.98114q0.0981 0.46114 0.23547 1.0008 0.13736 0.53963 0.28453 1.0793 0.15698 0.53963 0.32378 1.04 0.16679 0.50038 0.31396 0.87322 0.1668-0.46114 0.32378-0.97133 0.16679-0.52001 0.31396-1.04 0.14717-0.52982 0.27472-1.0302 0.13736-0.51019 0.23548-0.95171h0.75547q0.0883 0.44151 0.21586 0.95171 0.12754 0.50038 0.27471 1.0302 0.14718 0.52 0.30416 1.04 0.16679 0.51019 0.33359 0.97133 0.14717-0.37284 0.30415-0.87322 0.16679-0.50038 0.32378-1.04 0.15698-0.53962 0.29434-1.0793 0.13736-0.53963 0.23547-1.0008h0.9419q-0.38265 1.5011-0.81435 2.7963-0.4317 1.2951-0.88303 2.3057z" enable-background="new" fill="#888"/>
  <path d="m-29.913 35.092q0.31396-0.07849 0.82416-0.16679 0.52-0.0883 1.197-0.0883 0.49057 0 0.82416 0.13736 0.33358 0.12755 0.55925 0.38264 0.0687-0.04906 0.21585-0.13736 0.14717-0.0883 0.36302-0.16679 0.21585-0.0883 0.48076-0.14717 0.26491-0.06868 0.56906-0.06868 0.58868 0 0.96152 0.1766 0.37283 0.16679 0.57887 0.48076 0.21585 0.31396 0.28453 0.74567 0.0785 0.4317 0.0785 0.9419v2.8649h-0.91246v-2.6687q0-0.45132-0.0491-0.77509-0.0392-0.32378-0.16679-0.53963-0.11774-0.21585-0.33359-0.31396-0.20604-0.10793-0.53963-0.10793-0.46113 0-0.76528 0.12755-0.29435 0.11774-0.40227 0.21585 0.0785 0.2551 0.11773 0.55925 0.0392 0.30415 0.0392 0.63774v2.8649h-0.91246v-2.6687q0-0.45132-0.0491-0.77509-0.049-0.32378-0.1766-0.53963-0.11774-0.21585-0.33359-0.31396-0.20604-0.10793-0.52982-0.10793-0.13736 0-0.29434 0.0098t-0.30415 0.02943q-0.13736 0.0098-0.2551 0.02943-0.11774 0.01962-0.15698 0.02943v4.3072h-0.91246z" enable-background="new" fill="#888"/>
  <path d="m-19.736 39.389q0.32378 0 0.56907-0.01 0.25509-0.0196 0.42189-0.0589v-1.5208q-0.0981-0.0491-0.32378-0.0785-0.21585-0.0392-0.52982-0.0392-0.20604 0-0.44151 0.0294-0.22566 0.0294-0.42189 0.12755-0.18642 0.0883-0.31396 0.2551-0.12755 0.15698-0.12755 0.42189 0 0.49057 0.31396 0.6868 0.31397 0.18641 0.85359 0.18641zm-0.0785-4.5721q0.54944 0 0.92228 0.14717 0.38264 0.13736 0.6083 0.40227 0.23548 0.2551 0.33359 0.61812 0.0981 0.35321 0.0981 0.78491v3.1887q-0.11773 0.0196-0.33358 0.0589-0.20604 0.0294-0.47095 0.0589-0.26491 0.0294-0.57887 0.0491-0.30416 0.0294-0.60831 0.0294-0.4317 0-0.79472-0.0883-0.36303-0.0883-0.62793-0.27474-0.26491-0.19623-0.41208-0.51019-0.14717-0.31397-0.14717-0.75548 0-0.42189 0.16679-0.72605 0.1766-0.30415 0.47095-0.49057 0.29434-0.18641 0.6868-0.27472 0.39245-0.0883 0.82415-0.0883 0.13736 0 0.28453 0.01962 0.14718 0.01 0.27472 0.0392 0.13736 0.0196 0.23548 0.0393 0.0981 0.0196 0.13736 0.0294v-0.2551q0-0.22566-0.0491-0.44151-0.0491-0.22566-0.17661-0.39246-0.12754-0.1766-0.35321-0.27472-0.21585-0.10792-0.56906-0.10792-0.45132 0-0.79472 0.06868-0.33359 0.05887-0.50038 0.12755l-0.10793-0.75548q0.17661-0.07849 0.58869-0.14717 0.41207-0.07849 0.89283-0.07849z" enable-background="new" fill="#888"/>
  <path transform="translate(-372,-60)" d="m335.73 62c-8.8242 0-9.7736 0.90635-9.7304 9.7484v12.252 12.252c-0.0433 8.842 0.90622 9.7484 9.7304 9.7484h16.539c8.8242 0 9.7304-0.90625 9.7304-9.7484v-12.252-12.252c0-8.8421-0.90622-9.7484-9.7304-9.7484z" clip-path="url(#clipPath994-3)" color="#000000" enable-background="accumulate" fill="none" opacity=".4" stroke="url(#linearGradient1004)" stroke-width="2"/>
 </g>
</svg>
