<svg width="48" height="48" enable-background="new" version="1.0" xmlns="http://www.w3.org/2000/svg" xmlns:osb="http://www.openswatchbook.org/uri/2009/osb" xmlns:xlink="http://www.w3.org/1999/xlink">
 <rect width="48" height="48" enable-background="accumulate" opacity="0" stroke-width="2"/>
 <path d="m15.73 2c-2.2232 0-3.9737 0.05118-5.4141 0.29297-1.4404 0.24178-2.619 0.6953-3.4824 1.5566-0.86337 0.86134-1.3191 2.0395-1.5586 3.4805-0.23953 1.441-0.28629 3.1953-0.27539 5.4238v12.246 12.252c-0.0108 2.2251 0.0361 3.9785 0.27539 5.418 0.23953 1.441 0.69522 2.6191 1.5586 3.4805 0.86338 0.86134 2.042 1.3149 3.4824 1.5566 1.4404 0.24179 3.1909 0.29297 5.4141 0.29297h16.539c2.2232 0 3.9728-0.0511 5.4102-0.29297 1.4374-0.24189 2.6125-0.69694 3.4726-1.5586 0.8602-0.86165 1.3132-2.0389 1.5547-3.4785 0.24149-1.4396 0.29297-3.1904 0.29297-5.418v-12.252-12.252c0-2.2276-0.0515-3.9784-0.29297-5.418-0.24149-1.4396-0.69449-2.6169-1.5547-3.4785-0.86019-0.86165-2.0352-1.3167-3.4726-1.5586-1.4374-0.24189-3.187-0.29297-5.4102-0.29297z" color="#000000" color-rendering="auto" dominant-baseline="auto" enable-background="accumulate" image-rendering="auto" opacity=".1" shape-rendering="auto" solid-color="#000000" style="font-feature-settings:normal;font-variant-alternates:normal;font-variant-caps:normal;font-variant-ligatures:normal;font-variant-numeric:normal;font-variant-position:normal;isolation:auto;mix-blend-mode:normal;shape-padding:0;text-decoration-color:#000000;text-decoration-line:none;text-decoration-style:solid;text-indent:0;text-orientation:mixed;text-transform:none;white-space:normal"/>
 <path d="m15.731 2c-8.8242 0-9.7736 0.90635-9.7304 9.7484v12.252 12.252c-0.0433 8.842 0.90622 9.7484 9.7304 9.7484h16.539c8.8242 0 9.7304-0.90625 9.7304-9.7484v-12.252-12.252c0-8.8421-0.90622-9.7484-9.7304-9.7484z" color="#000000" enable-background="accumulate" fill="none" opacity=".2" stroke="#000" stroke-width="2"/>
 <path d="m15.731 2c-8.8242 0-9.7736 0.90635-9.7304 9.7484v12.252 12.252c-0.0433 8.842 0.90622 9.7484 9.7304 9.7484h16.539c8.8242 0 9.7304-0.90625 9.7304-9.7484v-12.252-12.252c0-8.8421-0.90622-9.7484-9.7304-9.7484z" color="#000000" enable-background="accumulate" fill="url(#linearGradient1024)"/>
 <circle cx="24" cy="20" r="11.5" enable-background="new" fill="url(#linearGradient8588-0-1)"/>
 <path d="m24 8.5a11.5 11.5 0 0 0-11.5 11.5h11.5zm0 11.5v11.5a11.5 11.5 0 0 0 11.5-11.5z" enable-background="new" fill="#fff" opacity=".2"/>
 <path d="m32.132 11.868a11.5 11.5 0 0 0-16.263 0l8.1317 8.1317zm-8.1317 8.1317-8.1317 8.1317a11.5 11.5 0 0 0 16.263 0z" enable-background="new" opacity=".02"/>
 <path d="m20.863 8.9363a11.5 11.5 0 0 0-0.20881 0.07069 11.5 11.5 0 0 1 0.55611-0.15067 11.5 11.5 0 0 0-0.3473 0.079981zm0.90559-0.2086a11.5 11.5 0 0 1 0.5665-0.09408 11.5 11.5 0 0 0-0.5665 0.09408zm-1.6571 0.46292a11.5 11.5 0 0 0-0.53773 0.20533 11.5 11.5 0 0 1 0.53773-0.20533zm2.7949-0.6295a11.5 11.5 0 0 1 0.57077-0.03709 11.5 11.5 0 0 0-0.57077 0.03709zm-3.8537 1.0714a11.5 11.5 0 0 0-0.51688 0.25912 11.5 11.5 0 0 1 0.51688-0.25912zm5.0011-1.1237a11.5 11.5 0 0 1 0.57354 0.02051 11.5 11.5 0 0 0-0.57354-0.02051zm-6.0104 1.669a11.5 11.5 0 0 0-0.48903 0.30959 11.5 11.5 0 0 1 0.48903-0.30959zm7.1555-1.6065a11.5 11.5 0 0 1 0.57017 0.07768 11.5 11.5 0 0 0-0.57017-0.07768zm-8.1064 2.2504a11.5 11.5 0 0 0-0.45574 0.35714 11.5 11.5 0 0 1 0.45574-0.35714zm9.2434-2.0734a11.5 11.5 0 0 1 0.55559 0.13328 11.5 11.5 0 0 0-0.55559-0.13328zm-10.291 2.9563a11.5 11.5 0 0 0-0.13042 0.12152 11.5 11.5 0 0 1 0.13042-0.12152zm-0.17208 0.16673a11.5 11.5 0 0 0-1.8309 2.3785l9.9592 5.75zm8.1284 8.1284 8.1283 8.1284a11.5 11.5 0 0 0 1.8309-2.3785zm3.4459-10.962a11.5 11.5 0 0 1 0.54066 0.18836 11.5 11.5 0 0 0-0.54066-0.18836zm1.0766 0.39854a11.5 11.5 0 0 1 0.52183 0.24282 11.5 11.5 0 0 0-0.52183-0.24282zm1.032 0.50432a11.5 11.5 0 0 1 0.18863 0.11202l7e-3 -0.01179a11.5 11.5 0 0 0-0.19544-0.10023zm-11.298 20.007-7e-3 0.01179a11.5 11.5 0 0 0 0.19544 0.10023 11.5 11.5 0 0 1-0.18863-0.11202zm0.69886 0.37352a11.5 11.5 0 0 0 0.52182 0.24282 11.5 11.5 0 0 1-0.52182-0.24282zm1.0577 0.453a11.5 11.5 0 0 0 0.54065 0.18836 11.5 11.5 0 0 1-0.54065-0.18836zm12.073-2.6003a11.5 11.5 0 0 1-0.13042 0.12152 11.5 11.5 0 0 0 0.13042-0.12152zm-10.977 2.9446a11.5 11.5 0 0 0 0.55559 0.13328 11.5 11.5 0 0 1-0.55559-0.13328zm10.255-2.2972a11.5 11.5 0 0 1-0.45574 0.35714 11.5 11.5 0 0 0 0.45574-0.35714zm-9.1323 2.5298a11.5 11.5 0 0 0 0.57018 0.07768 11.5 11.5 0 0 1-0.57018-0.07768zm8.2147-1.8384a11.5 11.5 0 0 1-0.48904 0.30959 11.5 11.5 0 0 0 0.48904-0.30959zm-7.0729 1.9581a11.5 11.5 0 0 0 0.57354 0.02051 11.5 11.5 0 0 1-0.57354-0.02051zm6.0915-1.3623a11.5 11.5 0 0 1-0.51688 0.25912 11.5 11.5 0 0 0 0.51688-0.25912zm-4.9413 1.3676a11.5 11.5 0 0 0 0.57077-0.03709 11.5 11.5 0 0 1-0.57077 0.03709zm3.9034-0.87192a11.5 11.5 0 0 1-0.53774 0.20533 11.5 11.5 0 0 0 0.53774-0.20533zm-2.7614 0.76233a11.5 11.5 0 0 0 0.5665-0.09408 11.5 11.5 0 0 1-0.5665 0.09408zm1.6809-0.37337a11.5 11.5 0 0 1-0.55611 0.15067 11.5 11.5 0 0 0 0.55611-0.15067z" enable-background="new" fill="#faf8f6"/>
 <circle transform="scale(1,-1)" cx="24" cy="-20" r="4.1071" enable-background="new" fill="#aea795"/>
 <circle cx="24" cy="20" r="3.6964" enable-background="new" fill="#faf8f6"/>
 <circle cx="24" cy="20" r="1.4375" enable-background="new" fill="#4d4d4d"/>
 <path transform="translate(-320,-60)" d="m335.73 62c-8.8242 0-9.7736 0.90635-9.7304 9.7484v12.252 12.252c-0.0433 8.842 0.90622 9.7484 9.7304 9.7484h16.539c8.8242 0 9.7304-0.90625 9.7304-9.7484v-12.252-12.252c0-8.8421-0.90622-9.7484-9.7304-9.7484z" clip-path="url(#clipPath994-3)" color="#000000" enable-background="accumulate" fill="none" opacity=".4" stroke="url(#linearGradient1004)" stroke-width="2"/>
 <title>Suru Icon Theme Template</title>
 <defs>
  <linearGradient id="linearGradient1024" x1="459.03" x2="35.31" y1="419.23" y2="207.37" gradientTransform="matrix(0 -.11328 .11328 0 -11.49 52)" gradientUnits="userSpaceOnUse">
   <stop stop-color="#f2f2f2" offset="0"/>
   <stop stop-color="#f9f9f9" offset="1"/>
  </linearGradient>
  <linearGradient id="linearGradient8588-0-1" x1="13.735" x2="38.1" y1="249.69" y2="292.77" gradientTransform="matrix(.48294 0 0 .48294 11.989 -111.42)" gradientUnits="userSpaceOnUse">
   <stop stop-color="#cdcdcd" offset="0"/>
   <stop stop-color="#d9d9d9" offset="1"/>
  </linearGradient>
  <linearGradient id="linearGradient1004" x1="344" x2="344" y1="62" y2="106" gradientUnits="userSpaceOnUse">
   <stop stop-color="#fff" offset="0"/>
   <stop stop-color="#fff" stop-opacity=".098039" offset=".125"/>
   <stop stop-color="#fff" stop-opacity=".098039" offset=".925"/>
   <stop stop-color="#fff" stop-opacity=".49804" offset="1"/>
  </linearGradient>
  <clipPath id="clipPath994-3">
   <path d="m335.73 62c-8.8242 0-9.7736 0.90635-9.7304 9.7484v12.252 12.252c-0.0433 8.842 0.90622 9.7484 9.7304 9.7484h16.539c8.8242 0 9.7304-0.90625 9.7304-9.7484v-12.252-12.252c0-8.8421-0.90622-9.7484-9.7304-9.7484z" color="#000000" enable-background="accumulate" fill="#cdcdcd"/>
  </clipPath>
 </defs>
</svg>
