<svg width="16" height="16" version="1.1" xmlns="http://www.w3.org/2000/svg" xmlns:xlink="http://www.w3.org/1999/xlink">
 <defs>
  <linearGradient id="linearGradient920-3" x1="459.03" x2="35.31" y1="419.23" y2="207.37" gradientTransform="matrix(0 -.036044 .036043 0 -3.5648 16.909)" gradientUnits="userSpaceOnUse">
   <stop stop-color="#f2f2f2" offset="0"/>
   <stop stop-color="#f9f9f9" offset="1"/>
  </linearGradient>
  <linearGradient id="linearGradient8588-0-1-5-8" x1="13.735" x2="38.1" y1="249.69" y2="292.77" gradientTransform="matrix(.15748 0 0 .15748 4.0833 -34.855)" gradientUnits="userSpaceOnUse">
   <stop stop-color="#cdcdcd" offset="0"/>
   <stop stop-color="#d9d9d9" offset="1"/>
  </linearGradient>
  <linearGradient id="linearGradient993" x1="328" x2="328" y1="237" y2="251" gradientUnits="userSpaceOnUse">
   <stop stop-color="#fff" offset="0"/>
   <stop stop-color="#fff" stop-opacity=".098039" offset=".125"/>
   <stop stop-color="#fff" stop-opacity=".098039" offset=".925"/>
   <stop stop-color="#fff" stop-opacity=".49804" offset="1"/>
  </linearGradient>
  <clipPath id="clipPath983">
   <path d="m325.1 237c-2.8077 0-3.1098 0.28839-3.096 3.1018v3.8982 3.8982c-0.0138 2.8134 0.28834 3.1018 3.096 3.1018h5.8075c2.8077 0 3.096-0.28835 3.096-3.1018v-3.8982-3.8982c0-2.8134-0.28835-3.1018-3.096-3.1018z" color="#000000" fill="#46a926"/>
  </clipPath>
 </defs>
 <path d="m5.0957 1c-0.71904 0-1.3018 0.0139-1.8359 0.10352-0.53409 0.0897-1.0683 0.27628-1.4766 0.68359-0.40826 0.4073-0.59657 0.94323-0.68554 1.4785-0.089 0.53529-0.10119 1.1205-0.0977 1.8418v2.8926 3.8984c-3e-3 0.71816 9e-3 1.3024 0.0977 1.8359 0.089 0.53528 0.27727 1.0712 0.68554 1.4785 0.40827 0.40731 0.94248 0.59394 1.4766 0.68359 0.53408 0.0897 1.1169 0.10352 1.8359 0.10352h5.8086c0.71904 0 1.3006-0.0137 1.834-0.10352 0.53341-0.0898 1.0677-0.27792 1.4746-0.68554s0.59404-0.94271 0.68359-1.4766c0.08956-0.53386 0.10352-1.1155 0.10352-1.8359v-3.8984-2.8984c0-0.72043-0.014-1.3021-0.10352-1.8359-0.0895-0.53385-0.27666-1.0689-0.68359-1.4766s-0.9412-0.59578-1.4746-0.68554c-0.5334-0.08977-1.1149-0.10352-1.834-0.10352z" color="#000000" color-rendering="auto" dominant-baseline="auto" image-rendering="auto" opacity=".1" shape-rendering="auto" solid-color="#000000" style="font-feature-settings:normal;font-variant-alternates:normal;font-variant-caps:normal;font-variant-ligatures:normal;font-variant-numeric:normal;font-variant-position:normal;isolation:auto;mix-blend-mode:normal;shape-padding:0;text-decoration-color:#000000;text-decoration-line:none;text-decoration-style:solid;text-indent:0;text-orientation:mixed;text-transform:none;white-space:normal"/>
 <path d="m5.0965 1c-2.8077 0-3.1098 0.28839-3.096 3.1018v3.8982 3.8982c-0.0138 2.8134 0.28834 3.1018 3.096 3.1018h5.8075c2.8077 0 3.096-0.28835 3.096-3.1018v-3.8982-3.8982c0-2.8134-0.28835-3.1018-3.096-3.1018z" color="#000000" fill="none" opacity=".2" stroke="#000" stroke-width="2"/>
 <path d="m5.0965 1c-2.8077 0-3.1098 0.28839-3.096 3.1018v3.8982 3.8982c-0.0138 2.8134 0.28834 3.1018 3.096 3.1018h5.8075c2.8077 0 3.096-0.28835 3.096-3.1018v-3.8982-3.8982c0-2.8134-0.28835-3.1018-3.096-3.1018z" color="#000000" fill="url(#linearGradient920-3)"/>
 <ellipse transform="scale(-1)" cx="-8" cy="-8.25" rx="3.5" ry="3.25" enable-background="new" opacity=".1"/>
 <circle cx="8" cy="8" r="3.75" enable-background="new" fill="url(#linearGradient8588-0-1-5-8)"/>
 <path d="m8 4.25a3.75 3.75 0 0 0-3.75 3.75h3.75zm0 3.75v3.75a3.75 3.75 0 0 0 3.75-3.75z" enable-background="new" fill="#fff" opacity=".2"/>
 <path d="m10.298 5.7019a3.25 3.25 0 0 0-4.5962 0l2.2981 2.2981zm-2.2981 2.2981-2.2981 2.2981a3.25 3.25 0 0 0 4.5962 0z" enable-background="new" opacity=".02"/>
 <path d="m6.9771 4.3923a3.75 3.75 0 0 0-0.0681 0.0231 3.75 3.75 0 0 1 0.18135-0.0491 3.75 3.75 0 0 0-0.11325 0.026zm0.29529-0.068a3.75 3.75 0 0 1 0.18473-0.0307 3.75 3.75 0 0 0-0.18473 0.0307zm-0.54036 0.15095a3.75 3.75 0 0 0-0.17535 0.067 3.75 3.75 0 0 1 0.17535-0.067zm0.91137-0.20527a3.75 3.75 0 0 1 0.18612-0.0121 3.75 3.75 0 0 0-0.18612 0.0121zm-1.2566 0.34937a3.75 3.75 0 0 0-0.16855 0.0845 3.75 3.75 0 0 1 0.16855-0.0845zm1.6308-0.36642a3.75 3.75 0 0 1 0.18703 7e-3 3.75 3.75 0 0 0-0.18703-7e-3zm-1.9599 0.54424a3.75 3.75 0 0 0-0.15947 0.10096 3.75 3.75 0 0 1 0.15947-0.10096zm2.3333-0.52386a3.75 3.75 0 0 1 0.18592 0.0254 3.75 3.75 0 0 0-0.18592-0.0254zm-2.6434 0.73382a3.75 3.75 0 0 0-0.14862 0.11646 3.75 3.75 0 0 1 0.14862-0.11646zm3.0142-0.67609a3.75 3.75 0 0 1 0.18117 0.0434 3.75 3.75 0 0 0-0.18117-0.0434zm-3.3557 0.96402a3.75 3.75 0 0 0-0.0425 0.0397 3.75 3.75 0 0 1 0.0425-0.0397zm-0.0561 0.0543a3.75 3.75 0 0 0-0.59702 0.77558l3.2476 1.875zm2.6506 2.6506 2.6505 2.6506a3.75 3.75 0 0 0 0.59703-0.77558zm1.1237-3.5747a3.75 3.75 0 0 1 0.1763 0.0614 3.75 3.75 0 0 0-0.1763-0.0614zm0.35105 0.12996a3.75 3.75 0 0 1 0.17017 0.0792 3.75 3.75 0 0 0-0.17017-0.0792zm0.33654 0.16445a3.75 3.75 0 0 1 0.0615 0.0365l2e-3 -4e-3a3.75 3.75 0 0 0-0.0637-0.0327zm-3.684 6.524-2e-3 4e-3a3.75 3.75 0 0 0 0.0637 0.0327 3.75 3.75 0 0 1-0.0615-0.0365zm0.22789 0.1218a3.75 3.75 0 0 0 0.17016 0.0792 3.75 3.75 0 0 1-0.17016-0.0792zm0.34491 0.14772a3.75 3.75 0 0 0 0.17631 0.0614 3.75 3.75 0 0 1-0.17631-0.0614zm3.9369-0.84793a3.75 3.75 0 0 1-0.0425 0.0396 3.75 3.75 0 0 0 0.0425-0.0396zm-3.5794 0.96019a3.75 3.75 0 0 0 0.18117 0.0435 3.75 3.75 0 0 1-0.18117-0.0435zm3.3439-0.74909a3.75 3.75 0 0 1-0.14861 0.11646 3.75 3.75 0 0 0 0.14861-0.11646zm-2.9779 0.82494a3.75 3.75 0 0 0 0.18593 0.0254 3.75 3.75 0 0 1-0.18593-0.0254zm2.6787-0.59948a3.75 3.75 0 0 1-0.15947 0.10096 3.75 3.75 0 0 0 0.15947-0.10096zm-2.3064 0.63851a3.75 3.75 0 0 0 0.18703 7e-3 3.75 3.75 0 0 1-0.18703-7e-3zm1.9864-0.44423a3.75 3.75 0 0 1-0.16855 0.0845 3.75 3.75 0 0 0 0.16855-0.0845zm-1.6113 0.44596a3.75 3.75 0 0 0 0.18612-0.0121 3.75 3.75 0 0 1-0.18612 0.0121zm1.2728-0.28432a3.75 3.75 0 0 1-0.17535 0.067 3.75 3.75 0 0 0 0.17535-0.067zm-0.90044 0.24859a3.75 3.75 0 0 0 0.18472-0.0307 3.75 3.75 0 0 1-0.18472 0.0307zm0.54812-0.12176a3.75 3.75 0 0 1-0.18134 0.0491 3.75 3.75 0 0 0 0.18134-0.0491z" enable-background="new" fill="#faf8f6"/>
 <circle transform="scale(1,-1)" cx="8" cy="-8" r="1.5" enable-background="new" fill="#aea795"/>
 <circle cx="8" cy="8" r="1" enable-background="new" fill="#faf8f6"/>
 <circle cx="8" cy="8" r=".5" enable-background="new" fill="#4d4d4d"/>
 <path transform="translate(-320,-236)" d="m325.1 237c-2.8077 0-3.1098 0.28839-3.096 3.1018v3.8982 3.8982c-0.0138 2.8134 0.28834 3.1018 3.096 3.1018h5.8075c2.8077 0 3.096-0.28835 3.096-3.1018v-3.8982-3.8982c0-2.8134-0.28835-3.1018-3.096-3.1018z" clip-path="url(#clipPath983)" color="#000000" fill="none" opacity=".4" stroke="url(#linearGradient993)" stroke-width="2"/>
</svg>
