<svg width="8" height="8" version="1.1" xmlns="http://www.w3.org/2000/svg">
 <rect transform="matrix(0,-1,-1,0,0,0)" x="-8" y="-8" width="8" height="8" rx="1" ry="1" enable-background="new" fill="#da1636"/>
 <g transform="matrix(.69251 0 0 .69251 -223.24 -164.28)" enable-background="new">
  <path d="m323.7 243.49c0.58122-0.27768 1.1687-0.57556 1.761-0.89618 0.59502-0.32594 1.1611-0.6577 1.6983-0.99578 0 0-0.38919-0.25191-3.1791-2.0376-0.0892 0.62521-0.15829 1.2765-0.20655 1.9528-0.0446 0.67214-0.0694 1.3308-0.0736 1.9786z" enable-background="new" fill="#fff"/>
  <path d="m331.59 243.99a3.5809 3.5809 0 0 1-3.2832 2.6498 3.5809 3.5809 0 0 1-3.5271-2.3152" enable-background="new" fill="none" stroke="#fff" stroke-width="1.3806"/>
  <path transform="scale(-1)" d="m-324.64-242.02a3.5809 3.5809 0 0 1-3.2832 2.6498 3.5809 3.5809 0 0 1-3.5271-2.3152" enable-background="new" fill="none" stroke="#fff" stroke-width="1.3806"/>
  <path d="m332.53 242.52c-0.58122 0.27768-1.1687 0.57556-1.761 0.89618-0.59502 0.32594-1.1611 0.6577-1.6983 0.99578 0 0 0.38919 0.25191 3.1791 2.0376 0.0892-0.62521 0.15829-1.2765 0.20655-1.9528 0.0446-0.67214 0.0694-1.3308 0.0736-1.9786z" enable-background="new" fill="#fff"/>
 </g>
</svg>
