<?xml version="1.0" encoding="UTF-8" standalone="no"?>
<!-- Created with Inkscape (http://www.inkscape.org/) -->

<svg
   width="48"
   height="48"
   viewBox="0 0 12.7 12.7"
   version="1.1"
   id="svg2919"
   inkscape:version="1.1.2 (0a00cf5339, 2022-02-04)"
   sodipodi:docname="folder-remote.svg"
   xmlns:inkscape="http://www.inkscape.org/namespaces/inkscape"
   xmlns:sodipodi="http://sodipodi.sourceforge.net/DTD/sodipodi-0.dtd"
   xmlns:xlink="http://www.w3.org/1999/xlink"
   xmlns="http://www.w3.org/2000/svg"
   xmlns:svg="http://www.w3.org/2000/svg">
  <sodipodi:namedview
     id="namedview2921"
     pagecolor="#ffffff"
     bordercolor="#666666"
     borderopacity="1.0"
     inkscape:pageshadow="2"
     inkscape:pageopacity="0.0"
     inkscape:pagecheckerboard="0"
     inkscape:document-units="px"
     showgrid="false"
     units="px"
     inkscape:zoom="9"
     inkscape:cx="10.722222"
     inkscape:cy="38"
     inkscape:window-width="1846"
     inkscape:window-height="1011"
     inkscape:window-x="74"
     inkscape:window-y="32"
     inkscape:window-maximized="1"
     inkscape:current-layer="svg2919" />
  <defs
     id="defs2916">
    <linearGradient
       inkscape:collect="always"
       xlink:href="#linearGradient1579"
       id="linearGradient1707"
       x1="6.1719809"
       y1="56.714455"
       x2="6.1719809"
       y2="58.714455"
       gradientUnits="userSpaceOnUse"
       gradientTransform="matrix(0.26458333,0,0,0.26458333,-1.3684199,-3.3640325)" />
    <linearGradient
       id="linearGradient13848"
       x1="321"
       x2="367"
       y1="70"
       y2="105"
       gradientTransform="translate(-320,-60)"
       gradientUnits="userSpaceOnUse">
      <stop
         stop-color="#666"
         offset="0"
         id="stop27" />
      <stop
         stop-color="#7a7a7a"
         offset="1"
         id="stop29" />
    </linearGradient>
    <linearGradient
       inkscape:collect="always"
       xlink:href="#linearGradient1579"
       id="linearGradient968"
       x1="28"
       y1="43"
       x2="28"
       y2="47"
       gradientUnits="userSpaceOnUse"
       gradientTransform="scale(0.26458333)" />
    <linearGradient
       inkscape:collect="always"
       xlink:href="#linearGradient1579"
       id="linearGradient1262"
       x1="25"
       y1="39"
       x2="25"
       y2="45"
       gradientUnits="userSpaceOnUse"
       gradientTransform="scale(0.26458333)" />
    <linearGradient
       inkscape:collect="always"
       xlink:href="#linearGradient1579"
       id="linearGradient1581"
       x1="0.26458332"
       y1="2.6458333"
       x2="12.435417"
       y2="10.847917"
       gradientUnits="userSpaceOnUse" />
    <linearGradient
       inkscape:collect="always"
       id="linearGradient1579">
      <stop
         style="stop-color:#666666;stop-opacity:1;"
         offset="0"
         id="stop1575" />
      <stop
         style="stop-color:#7a7a7a;stop-opacity:1"
         offset="1"
         id="stop1577" />
    </linearGradient>
    <linearGradient
       inkscape:collect="always"
       xlink:href="#linearGradient957"
       id="linearGradient857"
       x1="0.26472497"
       y1="6.3502321"
       x2="12.437259"
       y2="6.3502321"
       gradientUnits="userSpaceOnUse" />
    <linearGradient
       inkscape:collect="always"
       id="linearGradient957">
      <stop
         style="stop-color:#77216f;stop-opacity:1"
         offset="0"
         id="stop953" />
      <stop
         style="stop-color:#e95420;stop-opacity:1"
         offset="1"
         id="stop955" />
    </linearGradient>
  </defs>
  <path
     d="m 5.5562499,11.641666 c -0.1465791,0 -0.2645833,0.118004 -0.2645833,0.264584 H 0.26458337 v 0.529166 H 5.2916666 c 0,0.146579 0.1180042,0.264584 0.2645833,0.264584 h 1.5875 c 0.1465792,0 0.2645833,-0.118005 0.2645833,-0.264584 H 12.435417 V 11.90625 H 7.4083332 c 0,-0.14658 -0.1180041,-0.264584 -0.2645833,-0.264584 z"
     style="opacity:0.1;fill:#000000;fill-opacity:1;stroke:none;stroke-width:0.264583;stroke-linecap:round;stroke-linejoin:round"
     id="path2054" />
  <rect
     style="fill:url(#linearGradient1262);fill-opacity:1.0;stroke:none;stroke-width:0.264583;stroke-linecap:round;stroke-linejoin:round"
     id="rect2323"
     width="0.52916664"
     height="1.5875"
     x="6.0854163"
     y="10.31875" />
  <path
     d="m 2.5797256,1.0587938 c -0.7673975,0 -1.3364104,-0.025135 -1.76111953,0.2960953 -0.2152386,0.1628034 -0.35814,0.4080404 -0.4402931,0.71882 -0.081836,0.3095361 -0.1131888,0.691568 -0.1131888,1.1875295 v 2.4887237 0.8650552 2.1881041 c 0,0.5165201 0.014023,0.9105371 0.070803,1.2288574 0.056991,0.319061 0.1646238,0.578009 0.3669242,0.758085 0.2017712,0.179639 0.46373523,0.253979 0.76583643,0.288872 0.3018367,0.03486 0.6604794,0.03411 1.1110383,0.03411 H 10.12141 c 0.442066,0 0.796422,5.3e-4 1.096566,-0.03411 0.300381,-0.03489 0.562371,-0.108829 0.765862,-0.287311 0.203941,-0.178917 0.315622,-0.437357 0.375682,-0.757052 0.05993,-0.3189823 0.07596,-0.7141643 0.07596,-1.2314514 v -3.846777 c 0,-0.068331 -0.0032,-0.1127416 -0.0037,-0.1601973 v -0.0031 l 0.0037,-0.4960937 C 12.43888,3.8180048 12.44048,3.4367667 12.405,3.1182084 12.369547,2.7996015 12.294749,2.528086 12.115097,2.3172396 11.934651,2.1054882 11.672026,1.9891033 11.350266,1.9281168 11.029512,1.8673447 10.634701,1.8526682 10.12088,1.8526682 H 5.9134756 l -0.79375,-0.79375 z"
     style="color:#000000;font-variant-ligatures:normal;font-variant-position:normal;font-variant-caps:normal;font-variant-numeric:normal;font-variant-alternates:normal;font-feature-settings:normal;text-indent:0;text-decoration-line:none;text-decoration-style:solid;text-decoration-color:#000000;text-transform:none;text-orientation:mixed;dominant-baseline:auto;white-space:normal;shape-padding:0;opacity:0.1;isolation:auto;mix-blend-mode:normal;solid-color:#000000;fill:#000000;stroke-width:0.264583;color-rendering:auto;image-rendering:auto;shape-rendering:auto"
     id="path2471"
     sodipodi:nodetypes="cccsccsccssscccssccccccsccc" />
  <path
     id="rect1262"
     style="fill:url(#linearGradient857);fill-opacity:1;stroke-width:0.264583;stroke-linecap:round;stroke-linejoin:round"
     d="m 2.5793124,0.7942105 c -0.7673975,0 -1.3364237,-0.025125 -1.7611328,0.296106 C 0.602941,1.25312 0.4600496,1.4983562 0.3778962,1.8091358 0.2960602,2.1186718 0.264725,2.5006987 0.264725,2.9966602 v 2.2954671 h 0.00206 C 0.264245,5.473165 0.264695,5.6660116 0.2662558,5.8843391 l 0.00362,0.4960938 v 0.0031 c -5.292e-4,0.047456 -0.00362,0.091866 -0.00362,0.160197 V 8.53844 c 0,0.5172877 0.016036,0.9124687 0.075965,1.2314497 0.060034,0.3196963 0.1717201,0.5781433 0.3756874,0.7570603 0.2034646,0.178483 0.4654899,0.25243 0.7658449,0.287321 0.3001431,0.03464 0.6545342,0.03411 1.0965738,0.03411 h 7.5416741 c 0.45056,0 0.809207,7.41e-4 1.111044,-0.03411 0.302101,-0.03489 0.564047,-0.109232 0.765844,-0.288871 0.202301,-0.180076 0.309938,-0.439033 0.366903,-0.7580943 0.05678,-0.31832 0.0708,-0.712346 0.0708,-1.2288657 V 4.8487438 c 0,-0.020603 -9.26e-4,-0.03818 -10e-4,-0.058394 v -0.098702 c 0,-0.068331 -0.0031,-0.1127414 -0.0036,-0.160197 v -0.0031 l 0.0036,-0.4960937 c 0.0034,-0.4789487 0.005,-0.860181 -0.03049,-1.1787394 C 12.369617,2.534905 12.294845,2.263378 12.115166,2.0525315 11.934745,1.8407805 11.672087,1.7243948 11.350353,1.6634083 11.029572,1.6026383 10.634792,1.5879603 10.120971,1.5879603 H 5.9134756 l -0.79375,-0.7937501 z"
     sodipodi:nodetypes="sccscccccsscccssccccccsccccccsccs" />
  <rect
     style="fill:url(#linearGradient1707);fill-opacity:1.0;stroke:none;stroke-width:0.264583;stroke-linecap:round;stroke-linejoin:round"
     id="rect909"
     width="12.170834"
     height="0.52916664"
     x="0.26458332"
     y="11.641667" />
  <rect
     style="opacity:0.3;fill:#ffffff;stroke:none;stroke-width:0.264583;stroke-linecap:round;stroke-linejoin:round"
     id="rect1838"
     width="12.170834"
     height="0.26458332"
     x="0.26458332"
     y="11.641667" />
  <rect
     style="fill:url(#linearGradient968);fill-opacity:1.0;stroke:none;stroke-width:0.264583;stroke-linecap:round;stroke-linejoin:round"
     id="rect2003"
     width="2.1166666"
     height="1.0583333"
     x="5.2916665"
     y="11.377084"
     ry="0.26458332" />
  <path
     id="rect1663"
     style="opacity:0.7;fill:#ffffff;stroke:none;stroke-width:0.264583;stroke-linecap:round;stroke-linejoin:round"
     d="m 5.5562499,11.377083 c -0.1465791,0 -0.2645833,0.118004 -0.2645833,0.264583 v 0.264584 c 0,-0.14658 0.1180042,-0.264584 0.2645833,-0.264584 h 1.5875 c 0.1465792,0 0.2645833,0.118004 0.2645833,0.264584 v -0.264584 c 0,-0.146579 -0.1180041,-0.264583 -0.2645833,-0.264583 z" />
  <path
     d="m 2.5793023,0.79421025 c -0.7673975,0 -1.3364104,-0.0251354 -1.76111963,0.29609525 -0.2152385,0.1628034 -0.35814,0.4080404 -0.4402931,0.71882 -0.0818356,0.309536 -0.1131887,0.6915679 -0.1131887,1.1875292 V 3.261238 c 0,-0.4959614 0.031353,-0.8779667 0.1131887,-1.1875292 0.0821531,-0.3107796 0.2250281,-0.5560219 0.4402931,-0.71882 C 1.2428919,1.0336317 1.8119048,1.0587936 2.5793023,1.0587936 h 2.5404233 l 0.79375,0.79375 H 10.12088 c 0.513821,0 0.908605,0.014684 1.229386,0.075449 0.321734,0.060979 0.584385,0.177374 0.764805,0.3891227 0.179678,0.2108623 0.25445,0.482362 0.289904,0.8009732 0.01773,0.1592739 0.02646,0.3341688 0.02998,0.5291667 0,-0.2984235 -0.005,-0.569595 -0.02998,-0.79375 C 12.369521,2.5348934 12.294749,2.263378 12.115071,2.0525316 11.934651,1.8407829 11.672,1.7243953 11.350266,1.6634089 11.029485,1.6026394 10.634701,1.5879603 10.12088,1.5879603 H 5.9134756 l -0.79375,-0.79375005 z m 9.8541417,3.80126885 -0.0026,0.197403 v 0.0031 c 0,0.047456 0.0037,0.091866 0.0037,0.1601973 V 4.6915917 c 0,-0.040997 0,-0.066519 -0.0026,-0.096118 z"
     style="color:#000000;font-variant-ligatures:normal;font-variant-position:normal;font-variant-caps:normal;font-variant-numeric:normal;font-variant-alternates:normal;font-feature-settings:normal;text-indent:0;text-decoration-line:none;text-decoration-style:solid;text-decoration-color:#000000;text-transform:none;text-orientation:mixed;dominant-baseline:auto;white-space:normal;shape-padding:0;opacity:0.2;isolation:auto;mix-blend-mode:normal;solid-color:#000000;fill:#ffffff;stroke-width:0.264583;color-rendering:auto;image-rendering:auto;shape-rendering:auto"
     id="path2347" />
  <path
     d="m 10.122001,2.6463543 c 0.767398,0 1.33641,-0.025135 1.76112,0.2960952 0.215238,0.1628034 0.35814,0.4080404 0.440293,0.71882 0.08181,0.3095361 0.113162,0.6915679 0.113162,1.1875294 -0.002,0.1073805 0,3.6896677 0,3.6896677 0,0.5165191 -0.01402,0.9105371 -0.0708,1.2288571 -0.05696,0.3190613 -0.164598,0.5780093 -0.366898,0.7580853 -0.201798,0.179638 -0.463735,0.253978 -0.765837,0.288872 -0.301836,0.03486 -0.660479,0.03411 -1.111038,0.03411 H 2.580318 c -0.4420396,0 -0.7964225,5.29e-4 -1.0965658,-0.03411 C 1.1833972,10.77939 0.9213803,10.705452 0.7179157,10.52697 0.5139484,10.348053 0.4022678,10.089613 0.3422338,9.7699167 0.2823057,9.4509357 0.266272,9.0557537 0.266272,8.5384666 V 6.5437729 c 0,-0.068331 0.00318,-0.1127416 0.0037,-0.1601973 v -0.0031 L 0.266272,5.8843818 C 0.262832,5.4054375 0.261245,5.0241991 0.296752,4.7056408 0.3322061,4.3870295 0.4069774,4.1155141 0.5866559,3.9046677 0.7670753,3.6929163 1.0297272,3.5765314 1.3514605,3.515545 1.6722678,3.4547755 2.0696455,3.3884682 2.5808737,3.4400964 h 2.6199832 l 0.79375,-0.79375 z"
     style="color:#000000;font-variant-ligatures:normal;font-variant-position:normal;font-variant-caps:normal;font-variant-numeric:normal;font-variant-alternates:normal;font-feature-settings:normal;text-indent:0;text-decoration-line:none;text-decoration-style:solid;text-decoration-color:#000000;text-transform:none;text-orientation:mixed;dominant-baseline:auto;white-space:normal;shape-padding:0;isolation:auto;mix-blend-mode:normal;solid-color:#000000;fill:url(#linearGradient1581);fill-opacity:1;stroke-width:0.264583;color-rendering:auto;image-rendering:auto;shape-rendering:auto"
     id="path937"
     sodipodi:nodetypes="cccccccssscccsscccccccccc" />
  <path
     d="M 12.435417,7.4083335 9.2604169,10.583333 h 1.2405251 c 1.754611,0 1.934475,-0.17979 1.934475,-1.9309022 z"
     style="color:#000000;opacity:0.05;fill:#ffffff;stroke-width:0.264583"
     id="path2605" />
  <path
     d="m 0.26458337,8.273521 v 0.2645833 c 0,0.5165193 0.014023,0.9105373 0.070776,1.228857 0.056992,0.3190607 0.1646238,0.5780087 0.3669242,0.7580837 0.2017713,0.179639 0.46373523,0.253979 0.76583653,0.288872 0.3018369,0.03486 0.6604796,0.03411 1.1110385,0.03411 h 7.5416834 c 0.442066,0 0.796422,5.29e-4 1.096565,-0.03411 0.300382,-0.03489 0.562372,-0.108828 0.765864,-0.287311 0.20394,-0.178916 0.315621,-0.437356 0.375681,-0.7570517 0.05993,-0.3189817 0.07596,-0.7141627 0.07596,-1.23145 V 8.273521 c 0,0.5172868 -0.01614,0.9124686 -0.07596,1.2314503 -0.06006,0.319696 -0.171741,0.5781407 -0.375681,0.7570517 -0.203492,0.178491 -0.465482,0.252428 -0.765864,0.287311 -0.300143,0.03464 -0.654499,0.03411 -1.096565,0.03411 H 2.5791584 c -0.450559,0 -0.8092014,7.93e-4 -1.1110383,-0.03411 C 1.1660188,10.514444 0.90405487,10.440104 0.70228357,10.260462 0.49998317,10.080363 0.39235097,9.8214123 0.33535937,9.5023783 0.27855337,9.1840316 0.26455687,8.7900405 0.26458337,8.273521 Z"
     style="color:#000000;font-variant-ligatures:normal;font-variant-position:normal;font-variant-caps:normal;font-variant-numeric:normal;font-variant-alternates:normal;font-feature-settings:normal;text-indent:0;text-decoration-line:none;text-decoration-style:solid;text-decoration-color:#000000;text-transform:none;text-orientation:mixed;dominant-baseline:auto;white-space:normal;shape-padding:0;opacity:0.2;isolation:auto;mix-blend-mode:normal;solid-color:#000000;fill:#000000;stroke-width:0.264583;color-rendering:auto;image-rendering:auto;shape-rendering:auto"
     id="path2213" />
  <path
     d="m 5.9946069,2.6463464 -0.79375,0.79375 H 2.5808734 C 2.0696455,3.3884682 1.6722678,3.4547807 1.351487,3.515545 1.0297536,3.5765235 0.76710177,3.692919 0.58668237,3.9046677 0.40700377,4.11553 0.33220607,4.3870295 0.29677837,4.7056408 0.27746377,4.8789799 0.26984377,5.0760574 0.26680107,5.2921691 h 0.010319 c 0.0045,-0.1120166 0.009,-0.2250493 0.019579,-0.321945 C 0.33215317,4.6516129 0.40692447,4.3800974 0.58660297,4.169251 0.76702237,3.9575023 1.0296743,3.8411147 1.3514076,3.7801283 1.6721884,3.7193588 2.0695661,3.6530516 2.580794,3.7046797 h 2.6199835 l 0.79375,-0.79375 h 4.1280295 c 0.767397,0 1.33641,-0.025135 1.761119,0.2960952 0.215239,0.1628034 0.35814,0.4080404 0.440293,0.71882 0.08181,0.309536 0.113163,0.6915679 0.113163,1.1875294 V 4.8487909 c 0,-0.4959614 -0.03135,-0.8779668 -0.113163,-1.1875293 C 12.241816,3.350482 12.098915,3.1052397 11.883676,2.9424416 11.458967,2.6211845 10.889954,2.6463464 10.122557,2.6463464 Z"
     style="color:#000000;font-variant-ligatures:normal;font-variant-position:normal;font-variant-caps:normal;font-variant-numeric:normal;font-variant-alternates:normal;font-feature-settings:normal;text-indent:0;text-decoration-line:none;text-decoration-style:solid;text-decoration-color:#000000;text-transform:none;text-orientation:mixed;dominant-baseline:auto;white-space:normal;shape-padding:0;opacity:0.2;isolation:auto;mix-blend-mode:normal;solid-color:#000000;fill:#ffffff;stroke-width:0.264583;color-rendering:auto;image-rendering:auto;shape-rendering:auto"
     id="path2073" />
  <path
     d="m 5.9946863,2.381763 -0.79375,0.79375 H 2.5809528 C 2.0697249,3.1238849 1.6723472,3.1901974 1.3515663,3.2509616 1.029833,3.3119401 0.76718107,3.4283356 0.58676177,3.6400843 0.40708317,3.8509467 0.33228547,4.1224462 0.29685777,4.4410574 0.27754317,4.6143966 0.26992317,4.8114741 0.26688047,5.0275858 h 0.010319 c 0.0045,-0.1120167 0.009,-0.2250493 0.019579,-0.321945 C 0.33223257,4.3870295 0.40700377,4.1155141 0.58668237,3.9046677 0.76710177,3.692919 1.0297536,3.5765314 1.351487,3.515545 1.6722678,3.4547755 2.0696455,3.3884682 2.5808734,3.4400964 h 2.6199835 l 0.79375,-0.79375 h 4.1280291 c 0.767398,0 1.33641,-0.025135 1.76112,0.2960952 0.215238,0.1628034 0.35814,0.4080404 0.440293,0.71882 0.08181,0.309536 0.113162,0.6915679 0.113162,1.1875293 V 4.5842076 c 0,-0.4959614 -0.03135,-0.8779669 -0.113162,-1.1875294 C 12.241896,3.0858987 12.098994,2.8406564 11.883756,2.6778583 11.459046,2.3566011 10.890034,2.381763 10.122636,2.381763 Z"
     style="color:#000000;font-variant-ligatures:normal;font-variant-position:normal;font-variant-caps:normal;font-variant-numeric:normal;font-variant-alternates:normal;font-feature-settings:normal;text-indent:0;text-decoration-line:none;text-decoration-style:solid;text-decoration-color:#000000;text-transform:none;text-orientation:mixed;dominant-baseline:auto;white-space:normal;shape-padding:0;opacity:0.1;isolation:auto;mix-blend-mode:normal;solid-color:#000000;fill:#491706;stroke-width:0.264583;color-rendering:auto;image-rendering:auto;shape-rendering:auto;fill-opacity:1"
     id="path1919" />
</svg>
