<?xml version="1.0" encoding="UTF-8" standalone="no"?>
<svg
   width="48"
   height="48"
   version="1"
   id="svg52"
   sodipodi:docname="folder-network-open.svg"
   inkscape:version="1.1.2 (0a00cf5339, 2022-02-04)"
   xmlns:inkscape="http://www.inkscape.org/namespaces/inkscape"
   xmlns:sodipodi="http://sodipodi.sourceforge.net/DTD/sodipodi-0.dtd"
   xmlns:xlink="http://www.w3.org/1999/xlink"
   xmlns="http://www.w3.org/2000/svg"
   xmlns:svg="http://www.w3.org/2000/svg">
  <sodipodi:namedview
     id="namedview54"
     pagecolor="#ffffff"
     bordercolor="#666666"
     borderopacity="1.0"
     inkscape:pageshadow="2"
     inkscape:pageopacity="0.0"
     inkscape:pagecheckerboard="0"
     showgrid="false"
     inkscape:zoom="9.2807765"
     inkscape:cx="7.7040967"
     inkscape:cy="38.14336"
     inkscape:window-width="1920"
     inkscape:window-height="1010"
     inkscape:window-x="0"
     inkscape:window-y="0"
     inkscape:window-maximized="1"
     inkscape:current-layer="svg52" />
  <defs
     id="defs32">
    <linearGradient
       id="linearGradient13848"
       x1="321"
       x2="367"
       y1="76"
       y2="105"
       gradientTransform="translate(-320 -60)"
       gradientUnits="userSpaceOnUse">
      <stop
         stop-color="#666"
         offset="0"
         id="stop27" />
      <stop
         stop-color="#7a7a7a"
         offset="1"
         id="stop29" />
    </linearGradient>
    <linearGradient
       inkscape:collect="always"
       id="linearGradient5495">
      <stop
         style="stop-color:#77216f;stop-opacity:1"
         offset="0"
         id="stop5491" />
      <stop
         style="stop-color:#e95420;stop-opacity:1"
         offset="1"
         id="stop5493" />
    </linearGradient>
    <linearGradient
       inkscape:collect="always"
       xlink:href="#linearGradient5495"
       id="linearGradient1565"
       x1="1.0644531"
       y1="23.999134"
       x2="47.070827"
       y2="23.999134"
       gradientUnits="userSpaceOnUse" />
  </defs>
  <path
     d="m9.8125 4.0002c-2.9004 0-5.051-0.095-6.6562 1.1191-0.8135 0.61532-1.3536 1.5422-1.6641 2.7168-0.3093 1.1699-0.4278 2.6138-0.4278 4.4883v9.4062 3.2695 12.27c0 1.9522 0.053 3.4414 0.2676 4.6445 0.2154 1.2059 0.6222 2.1846 1.3868 2.8652 0.7626 0.67895 1.7527 0.95992 2.8945 1.0918 1.1408 0.13175 2.4963 0.12891 4.1992 0.12891h28.504c1.6708 0 3.0101 2e-3 4.1445-0.12891 1.1353-0.13187 2.1255-0.41132 2.8946-1.0859 0.7708-0.67622 1.1929-1.653 1.4199-2.8613 0.2265-1.2056 0.2871-2.6992 0.2871-4.6543v-18.539c0-0.25826-0.012-0.42611-0.014-0.60547v-0.0117l0.014-1.875c0.013-1.8102 0.019-3.2511-0.1152-4.4551-0.134-1.2042-0.4167-2.2304-1.0957-3.0273-0.682-0.80032-1.6746-1.2402-2.8907-1.4707-1.2123-0.22969-2.7045-0.28516-4.6465-0.28516h-15.902l-3-3z"
     color="#000000"
     color-rendering="auto"
     dominant-baseline="auto"
     image-rendering="auto"
     opacity=".1"
     shape-rendering="auto"
     solid-color="#000000"
     style="font-feature-settings:normal;font-variant-alternates:normal;font-variant-caps:normal;font-variant-ligatures:normal;font-variant-numeric:normal;font-variant-position:normal;isolation:auto;mix-blend-mode:normal;shape-padding:0;text-decoration-color:#000000;text-decoration-line:none;text-decoration-style:solid;text-indent:0;text-orientation:mixed;text-transform:none;white-space:normal"
     id="path34" />
  <path
     id="rect1262"
     style="fill:url(#linearGradient1565);stroke-linecap:round;stroke-linejoin:round;fill-opacity:1.0"
     d="M 9.8125 3 C 6.9121 3 4.76145 2.9050406 3.15625 4.1191406 C 2.34275 4.7344606 1.8026875 5.6613375 1.4921875 6.8359375 C 1.1828875 8.0058375 1.0644531 9.4497185 1.0644531 11.324219 L 1.0644531 20 L 1.0722656 20 C 1.0626653 20.684237 1.0643865 21.413106 1.0703125 22.238281 L 1.0839844 24.113281 L 1.0839844 24.125 C 1.0819844 24.30436 1.0703125 24.472209 1.0703125 24.730469 L 1.0703125 36.269531 C 1.0703125 38.224631 1.1309219 39.718228 1.3574219 40.923828 C 1.5843219 42.132128 2.0064437 43.108936 2.7773438 43.785156 C 3.5463437 44.459736 4.536675 44.739224 5.671875 44.871094 C 6.806275 45.002004 8.1457063 45 9.8164062 45 L 38.320312 45 C 40.023213 45 41.378731 45.002844 42.519531 44.871094 C 43.661331 44.739214 44.651362 44.458247 45.414062 43.779297 C 46.178663 43.098697 46.585481 42.119962 46.800781 40.914062 C 47.015381 39.710963 47.068359 38.221731 47.068359 36.269531 L 47.068359 32 L 47.068359 27.730469 L 47.068359 18.324219 C 47.068359 18.246344 47.064867 18.179915 47.064453 18.103516 L 47.064453 17.730469 C 47.064453 17.472209 47.052781 17.30436 47.050781 17.125 L 47.050781 17.113281 L 47.064453 15.238281 C 47.077453 13.428081 47.083419 11.987203 46.949219 10.783203 C 46.815219 9.5790032 46.532616 8.5527594 45.853516 7.7558594 C 45.171616 6.9555394 44.178891 6.5156562 42.962891 6.2851562 C 41.750491 6.0554762 40.258406 6 38.316406 6 L 22.414062 6 L 19.414062 3 L 9.8125 3 z " />
  <path
     d="M 23.002,16 20,19 H 9.812 c -6.8128,0 -7.748,-2.1e-4 -7.748,7.7305 v 1 C 2.064,19.9998 2.9992,20 9.812,20 H 20 l 3.002,-3 h 15.314 c 6.6839,0 7.7481,-2.1e-4 7.7481,7.7305 v -1 C 46.0641,15.9998 44.9999,16 38.316,16 Z"
     color="#000000"
     fill="#ffffff"
     opacity="0.3"
     id="path38" />
  <path
     d="m 38.323,16 c 2.9004,0 5.051,-0.095 6.6562,1.1191 0.8135,0.61532 1.3536,1.5422 1.6641,2.7168 0.3092,1.1699 0.4277,2.6138 0.4277,4.4883 v 11.9452 c 0,1.9522 -0.053,3.4414 -0.2676,4.6445 -0.2153,1.2059 -0.6221,2.1846 -1.3867,2.8652 -0.7627,0.67895 -1.7527,0.95992 -2.8945,1.0918 -1.1408,0.13175 -2.4963,0.12891 -4.1992,0.12891 H 9.819 c -1.6707,0 -3.0101,0.002 -4.1445,-0.12891 C 4.5393,44.73903 3.549,44.45958 2.78,43.785 2.0091,43.10878 1.587,42.132 1.3601,40.9237 1.1336,39.7181 1.073,38.2245 1.073,36.2694 v -8.03117 c -0.013,-1.8102 -0.019,-3.2511 0.1152,-4.4551 0.134,-1.2042 0.4166,-2.2304 1.0957,-3.0273 0.6819,-0.80032 1.6746,-1.2402 2.8906,-1.4707 1.2125,-0.22968 2.7144,-0.48029 4.6466,-0.28516 h 9.9023 l 3,-3 z"
     color="#000000"
     color-rendering="auto"
     dominant-baseline="auto"
     fill="url(#linearGradient13848)"
     image-rendering="auto"
     shape-rendering="auto"
     solid-color="#000000"
     style="font-variant-ligatures:normal;font-variant-position:normal;font-variant-caps:normal;font-variant-numeric:normal;font-variant-alternates:normal;font-feature-settings:normal;text-indent:0;text-decoration-line:none;text-decoration-style:solid;text-decoration-color:#000000;text-transform:none;text-orientation:mixed;white-space:normal;shape-padding:0;isolation:auto;mix-blend-mode:normal;fill-opacity:1"
     id="path40"
     sodipodi:nodetypes="ccccccccsscccccccccccc" />
  <path
     d="m47 32-12 12h4.6886c6.6316 0 7.3114-0.67952 7.3114-7.2979z"
     color="#000000"
     fill="#fff"
     opacity=".05"
     id="path42" />
  <path
     d="m1.0645 35.27v1c0 1.9522 0.053 3.4414 0.2675 4.6445 0.2154 1.2059 0.6222 2.1846 1.3868 2.8652 0.7626 0.67895 1.7527 0.95992 2.8945 1.0918 1.1408 0.13175 2.4963 0.12891 4.1992 0.12891h28.504c1.6708 0 3.0101 2e-3 4.1445-0.12891 1.1353-0.13187 2.1255-0.41132 2.8946-1.0859 0.7708-0.67622 1.1929-1.653 1.4199-2.8613 0.2265-1.2056 0.2871-2.6992 0.2871-4.6543v-1c0 1.9551-0.061 3.4487-0.2871 4.6543-0.227 1.2083-0.6491 2.1851-1.4199 2.8613-0.7691 0.67461-1.7593 0.95406-2.8946 1.0859-1.1344 0.13091-2.4737 0.12891-4.1445 0.12891h-28.504c-1.7029 0-3.0584 3e-3 -4.1992-0.12891-1.1418-0.13187-2.1319-0.41284-2.8945-1.0918-0.7646-0.68069-1.1714-1.6594-1.3868-2.8652-0.2147-1.2032-0.2676-2.6923-0.2675-4.6445z"
     color="#000000"
     color-rendering="auto"
     dominant-baseline="auto"
     image-rendering="auto"
     opacity=".2"
     shape-rendering="auto"
     solid-color="#000000"
     style="font-feature-settings:normal;font-variant-alternates:normal;font-variant-caps:normal;font-variant-ligatures:normal;font-variant-numeric:normal;font-variant-position:normal;isolation:auto;mix-blend-mode:normal;shape-padding:0;text-decoration-color:#000000;text-decoration-line:none;text-decoration-style:solid;text-indent:0;text-orientation:mixed;text-transform:none;white-space:normal"
     id="path44" />
  <path
     d="m 22.721,16 -3,3 H 9.8187 c -1.9322,-0.19513 -3.4341,0.0555 -4.6465,0.28516 -1.216,0.23047 -2.2087,0.67039 -2.8906,1.4707 -0.6791,0.79696 -0.9618,1.8231 -1.0957,3.0273 -0.073,0.65514 -0.1018,1.4 -0.1133,2.2168 h 0.039 c 0.017,-0.42337 0.034,-0.85058 0.074,-1.2168 0.134,-1.2042 0.4166,-2.2304 1.0957,-3.0273 0.6819,-0.80031 1.6746,-1.2402 2.8906,-1.4707 C 6.3843,20.05548 7.8862,19.80487 9.8184,20 h 9.9023 l 3,-3 h 15.602 c 2.9004,0 5.051,-0.095 6.6562,1.1191 0.8135,0.61532 1.3536,1.5422 1.6641,2.7168 0.3092,1.1699 0.4277,2.6138 0.4277,4.4883 v -1 c 0,-1.8745 -0.1185,-3.3183 -0.4277,-4.4883 C 46.3325,18.6613 45.7924,17.7344 44.9789,17.1191 43.3737,15.9049 41.2231,16 38.3227,16 Z"
     color="#000000"
     color-rendering="auto"
     dominant-baseline="auto"
     fill="#ffffff"
     image-rendering="auto"
     opacity="0.2"
     shape-rendering="auto"
     solid-color="#000000"
     style="font-variant-ligatures:normal;font-variant-position:normal;font-variant-caps:normal;font-variant-numeric:normal;font-variant-alternates:normal;font-feature-settings:normal;text-indent:0;text-decoration-line:none;text-decoration-style:solid;text-decoration-color:#000000;text-transform:none;text-orientation:mixed;white-space:normal;shape-padding:0;isolation:auto;mix-blend-mode:normal"
     id="path46" />
  <path
     d="m 22.721,15.0002 -3,3 H 9.8187 c -1.9322,-0.19513 -3.4341,0.0555 -4.6465,0.28516 -1.216,0.23047 -2.2087,0.67039 -2.8906,1.4707 -0.6791,0.79696 -0.9618,1.8231 -1.0957,3.0273 -0.073,0.65514 -0.1018,1.4 -0.1133,2.2168 h 0.039 c 0.017,-0.42337 0.034,-0.85058 0.074,-1.2168 0.134,-1.2042 0.4166,-2.2304 1.0957,-3.0273 0.6819,-0.80031 1.6746,-1.2402 2.8906,-1.4707 1.2124,-0.22968 2.7143,-0.48029 4.6465,-0.28516 h 9.9023 l 3,-3 h 15.602 c 2.9004,0 5.051,-0.095 6.6562,1.1191 0.8135,0.61532 1.3536,1.5422 1.6641,2.7168 0.3092,1.1699 0.4277,2.6138 0.4277,4.4883 v -1 c 0,-1.8745 -0.1185,-3.3183 -0.4277,-4.4883 -0.3105,-1.1746 -0.8506,-2.1015 -1.6641,-2.7168 -1.6052,-1.2142 -3.7558,-1.1191 -6.6562,-1.1191 z"
     color="#000000"
     color-rendering="auto"
     dominant-baseline="auto"
     fill="#732206"
     image-rendering="auto"
     opacity="0.1"
     shape-rendering="auto"
     solid-color="#000000"
     style="font-variant-ligatures:normal;font-variant-position:normal;font-variant-caps:normal;font-variant-numeric:normal;font-variant-alternates:normal;font-feature-settings:normal;text-indent:0;text-decoration-line:none;text-decoration-style:solid;text-decoration-color:#000000;text-transform:none;text-orientation:mixed;white-space:normal;shape-padding:0;isolation:auto;mix-blend-mode:normal"
     id="path48" />
  <path
     d="m9.8125 3.0002c-2.9004 0-5.051-0.095-6.6562 1.1191-0.8135 0.61532-1.3536 1.5422-1.6641 2.7168-0.3093 1.1699-0.4278 2.6138-0.4278 4.4883v1c0-1.8745 0.1185-3.3183 0.4278-4.4883 0.3105-1.1746 0.8505-2.1015 1.6641-2.7168 1.6052-1.2142 3.7558-1.1191 6.6562-1.1191h9.6016l3 3h15.902c1.942 0 3.4341 0.0555 4.6465 0.28516 1.216 0.23047 2.2087 0.67039 2.8906 1.4707 0.6791 0.79696 0.9617 1.8231 1.0957 3.0273 0.067 0.60198 0.1 1.263 0.1133 2 0-1.1279-0.019-2.1528-0.1133-3-0.134-1.2042-0.4166-2.2304-1.0957-3.0273-0.6819-0.80031-1.6746-1.2402-2.8906-1.4707-1.2124-0.22968-2.7045-0.28516-4.6465-0.28516h-15.902l-3-3zm37.244 14.367-0.01 0.74609v0.0117c0 0.17936 0.014 0.34721 0.014 0.60547v-1c0-0.15495 0-0.25141-0.01-0.36328z"
     color="#000000"
     color-rendering="auto"
     dominant-baseline="auto"
     fill="#fff"
     image-rendering="auto"
     opacity=".2"
     shape-rendering="auto"
     solid-color="#000000"
     style="font-feature-settings:normal;font-variant-alternates:normal;font-variant-caps:normal;font-variant-ligatures:normal;font-variant-numeric:normal;font-variant-position:normal;isolation:auto;mix-blend-mode:normal;shape-padding:0;text-decoration-color:#000000;text-decoration-line:none;text-decoration-style:solid;text-indent:0;text-orientation:mixed;text-transform:none;white-space:normal"
     id="path50" />
  <path
     d="M 30,25.5 C 30,24.1252 28.8748,23 27.5,23 26.1252,23 25,24.1252 25,25.5 c 0,1.3748 1.1252,2.5 2.5,2.5 1.3748,0 2.5,-1.1252 2.5,-2.5 z m 0,10 C 30,34.1252 28.8748,33 27.5,33 26.1252,33 25,34.1252 25,35.5 c 0,1.3748 1.1252,2.5 2.5,2.5 1.3748,0 2.5,-1.1252 2.5,-2.5 z m -1,-10 C 29,26.3344 28.3343,27 27.5,27 26.6657,27 26,26.3344 26,25.5 26,24.6657 26.6657,24 27.5,24 c 0.8343,0 1.5,0.6657 1.5,1.5 z m 0,10 C 29,36.3344 28.3343,37 27.5,37 26.6657,37 26,36.3344 26,35.5 26,34.6657 26.6657,34 27.5,34 c 0.8343,0 1.5,0.6657 1.5,1.5 z m -4.2656,-7.8906 c -0.2039,-0.2655 -0.3721,-0.555 -0.4942,-0.8711 l -3.8535,2.1426 C 19.9273,28.3469 19.2552,28 18.5,28 17.1252,28 16,29.1252 16,30.5 c 0,1.3748 1.1252,2.5 2.5,2.5 0.7552,0 1.4273,-0.3469 1.8867,-0.8809 l 3.8535,2.1426 c 0.1221,-0.3161 0.2903,-0.6056 0.4942,-0.8711 L 20.873,31.2461 C 20.948,31.0088 21,30.7613 21,30.5 21,30.2387 20.948,29.9912 20.873,29.7539 Z M 20,30.5 C 20,31.3344 19.3343,32 18.5,32 17.6657,32 17,31.3344 17,30.5 17,29.6657 17.6657,29 18.5,29 c 0.8343,0 1.5,0.6657 1.5,1.5 z"
     style="color:#000000;font-variant-ligatures:normal;font-variant-position:normal;font-variant-caps:normal;font-variant-numeric:normal;font-variant-alternates:normal;font-feature-settings:normal;text-indent:0;text-decoration-line:none;text-decoration-style:solid;text-decoration-color:#000000;text-transform:none;text-orientation:mixed;dominant-baseline:auto;white-space:normal;shape-padding:0;opacity:0.8;isolation:auto;mix-blend-mode:normal;solid-color:#000000;fill:#ffffff;color-rendering:auto;image-rendering:auto;shape-rendering:auto"
     id="path898" />
</svg>
