<svg width="24" height="24" enable-background="new" version="1.0" xmlns="http://www.w3.org/2000/svg" xmlns:xlink="http://www.w3.org/1999/xlink">
 <title>Suru Icon Theme Template</title>
 <defs>
  <linearGradient id="linearGradient981" x1="332" x2="332" y1="189" y2="211" gradientUnits="userSpaceOnUse">
   <stop stop-color="#fff" offset="0"/>
   <stop stop-color="#fff" stop-opacity=".098039" offset=".125"/>
   <stop stop-color="#fff" stop-opacity=".098039" offset=".925"/>
   <stop stop-color="#fff" stop-opacity=".49804" offset="1"/>
  </linearGradient>
  <clipPath id="clipPath971-3">
   <path d="m327.87 189c-4.4121 0-4.8868 0.45318-4.8652 4.8742v6.1258 6.1258c-0.0217 4.421 0.45311 4.8742 4.8652 4.8742h8.2696c4.4121 0 4.8652-0.45312 4.8652-4.8742v-6.1258-6.1258c0-4.4211-0.45312-4.8742-4.8652-4.8742z" color="#000000" enable-background="accumulate" fill="#46a926"/>
  </clipPath>
 </defs>
 <g transform="translate(-224.17 -227.19)">
  <g transform="translate(-95.826 39.189)" enable-background="new">
   <rect x="320" y="188" width="24" height="24" enable-background="accumulate" opacity="0" stroke-width="2"/>
   <path d="m327.87 189c-1.1201 0-2.0152 0.0241-2.791 0.1543-0.77577 0.13022-1.4801 0.38763-2.0098 0.91601-0.52962 0.52838-0.79079 1.2369-0.91992 2.0137-0.12912 0.77681-0.15002 1.6717-0.14453 2.7949v6.1211 5.125c-5e-3 1.121 0.0156 2.0153 0.14453 2.791 0.12912 0.77681 0.39029 1.4853 0.91992 2.0137 0.52964 0.52838 1.234 0.78579 2.0098 0.91601s1.6709 0.1543 2.791 0.1543h8.2695c1.1201 0 2.0126-0.024 2.7871-0.1543 0.77446-0.13033 1.48-0.38927 2.0078-0.91797 0.5278-0.52869 0.78594-1.2344 0.91601-2.0098 0.13007-0.77539 0.1543-1.6706 0.1543-2.793v-5.125-6.125c0-1.1224-0.0242-2.0176-0.1543-2.793-0.13007-0.77538-0.38821-1.4811-0.91601-2.0098-0.5278-0.5287-1.2333-0.78764-2.0078-0.91797-0.77448-0.13033-1.667-0.1543-2.7871-0.1543z" color="#000000" color-rendering="auto" dominant-baseline="auto" enable-background="accumulate" image-rendering="auto" opacity=".1" shape-rendering="auto" solid-color="#000000" style="font-feature-settings:normal;font-variant-alternates:normal;font-variant-caps:normal;font-variant-ligatures:normal;font-variant-numeric:normal;font-variant-position:normal;isolation:auto;mix-blend-mode:normal;shape-padding:0;text-decoration-color:#000000;text-decoration-line:none;text-decoration-style:solid;text-indent:0;text-orientation:mixed;text-transform:none;white-space:normal"/>
   <path d="m336.13 188.5c1.1116 0 1.9868 0.0256 2.707 0.14648 0.72019 0.1209 1.3105 0.34863 1.7422 0.7793 0.43169 0.43067 0.65954 1.0197 0.7793 1.7402 0.11977 0.72049 0.14217 1.5967 0.13672 2.7109v6.123 6.125c5e-3 1.1131-0.017 1.989-0.13672 2.709-0.11976 0.72051-0.3476 1.3096-0.7793 1.7402-0.43169 0.43067-1.022 0.6584-1.7422 0.7793-0.7202 0.12089-1.5954 0.14648-2.707 0.14648h-8.2695c-1.1116 0-1.9864-0.0255-2.7051-0.14648-0.7187-0.12095-1.3062-0.34848-1.7363-0.7793-0.4301-0.43083-0.6566-1.0185-0.77735-1.7383-0.12074-0.71979-0.14648-1.5971-0.14648-2.7109v-6.125-6.125c0-1.1138 0.0257-1.9912 0.14648-2.7109 0.12075-0.71979 0.34725-1.3074 0.77735-1.7383 0.4301-0.43082 1.0176-0.65835 1.7363-0.7793 0.7187-0.12094 1.5935-0.14648 2.7051-0.14648z" color="#000000" enable-background="accumulate" fill="#4a4a4a"/>
   <path d="m330.44 192.42c-0.72814 0.0166-1.3386 0.2618-1.8094 0.65938-0.53802 0.45436-0.8959 1.0891-1.1334 1.7836-0.47498 1.389-0.48332 3.0373-0.33222 4.2033a0.33405 0.33405 0 0 0 0.11934 0.21465l-4e-4 2e-4c0.62456 0.51497 1.4779 1.61 2.2252 2.5666 0.37365 0.47829 0.72381 0.92317 1.0285 1.2586 0.15235 0.16772 0.29198 0.30813 0.43009 0.4172 0.13809 0.10905 0.26777 0.21581 0.50097 0.20605a0.33405 0.33405 0 0 0 0.15351-0.0445c0.11029-0.0639 0.16483-0.16347 0.19121-0.23927 0.0264-0.0758 0.033-0.1408 0.0357-0.20605 5e-3 -0.1305-0.01-0.26467-0.0354-0.41914-0.0508-0.30893-0.14707-0.69179-0.26113-1.1107-0.22715-0.83425-0.52543-1.8067-0.6707-2.4617-0.0421-0.37652-0.10482-0.72172-0.0967-1.0129 8e-3 -0.28313 0.0735-0.50518 0.27305-0.73457 0.32248-0.18023 1.1474-0.43292 1.9974-1.0301 1.2456 0.0591 2.3575 0.33881 3.6514 0.48397a0.33405 0.33405 0 0 0 0.31738-0.51347c-0.24338-0.3756-0.70635-0.75697-1.2744-1.1242-0.53161-0.34368-1.1459-0.64924-1.7404-0.81484-0.46375-0.55731-0.82965-1.7547-3.2285-2.0728a0.33405 0.33405 0 0 0-0.0218-2e-3c-0.10877-7e-3 -0.21512-9e-3 -0.31915-7e-3zm1.0141 1.3607a0.52117 0.52117 0 0 1 0.52128 0.52109 0.52117 0.52117 0 0 1-0.52128 0.52129 0.52117 0.52117 0 0 1-0.52109-0.52129 0.52117 0.52117 0 0 1 0.52109-0.52109z" color="#000000" color-rendering="auto" dominant-baseline="auto" enable-background="new" fill="#fff" image-rendering="auto" shape-rendering="auto" solid-color="#000000" style="font-feature-settings:normal;font-variant-alternates:normal;font-variant-caps:normal;font-variant-ligatures:normal;font-variant-numeric:normal;font-variant-position:normal;isolation:auto;mix-blend-mode:normal;shape-padding:0;text-decoration-color:#000000;text-decoration-line:none;text-decoration-style:solid;text-indent:0;text-orientation:mixed;text-transform:none;white-space:normal"/>
   <path d="m323 200v6.125c-0.0217 4.421 0.45314 4.875 4.8652 4.875h8.2695c4.4121 0 4.8652-0.45393 4.8652-4.875v-6.125z" color="#000000" enable-background="accumulate" fill="#fff" opacity=".08"/>
   <path d="m332 189v22h4.1348c4.4121 0 4.8652-0.45393 4.8652-4.875v-6.125-6.125c0-4.4211-0.45314-4.875-4.8652-4.875z" color="#000000" enable-background="accumulate" fill="#fff" opacity=".08"/>
   <text x="325.39697" y="208.46133" enable-background="new" fill="#ffffff" font-family="ubuntu" font-size="5.3333px" letter-spacing="0px" word-spacing="0px" style="font-feature-settings:normal;font-variant-caps:normal;font-variant-ligatures:normal;font-variant-numeric:normal;line-height:1.25" xml:space="preserve"><tspan x="325.39697" y="208.46133">qemu</tspan></text>
   <path d="m327.87 188.5c-1.1116 0-1.9868 0.0256-2.707 0.14648-0.72019 0.1209-1.3105 0.34863-1.7422 0.7793-0.43169 0.43067-0.65954 1.0197-0.7793 1.7402-0.11977 0.72049-0.14217 1.5967-0.13672 2.7109v6.123 6.125c-5e-3 1.1131 0.017 1.989 0.13672 2.709 0.11976 0.72051 0.3476 1.3096 0.7793 1.7402 0.43169 0.43067 1.022 0.6584 1.7422 0.7793 0.7202 0.12089 1.5954 0.14648 2.707 0.14648h8.2695c1.1116 0 1.9864-0.0255 2.7051-0.14648 0.7187-0.12095 1.3062-0.34848 1.7363-0.7793 0.4301-0.43083 0.6566-1.0185 0.77735-1.7383 0.12074-0.71979 0.14648-1.5971 0.14648-2.7109v-6.125-6.125c0-1.1138-0.0257-1.9912-0.14648-2.7109-0.12075-0.71979-0.34725-1.3074-0.77735-1.7383-0.4301-0.43082-1.0176-0.65835-1.7363-0.7793-0.7187-0.12094-1.5935-0.14648-2.7051-0.14648z" color="#000000" enable-background="accumulate" fill="none" opacity=".4" stroke="#000"/>
   <path transform="translate(1.5262e-6)" d="m327.87 189c-4.4121 0-4.8868 0.45318-4.8652 4.8742v6.1258 6.1258c-0.0217 4.421 0.45311 4.8742 4.8652 4.8742h8.2696c4.4121 0 4.8652-0.45312 4.8652-4.8742v-6.1258-6.1258c0-4.4211-0.45312-4.8742-4.8652-4.8742z" clip-path="url(#clipPath971-3)" color="#000000" enable-background="accumulate" fill="none" opacity=".4" stroke="url(#linearGradient981)" stroke-width="2"/>
  </g>
 </g>
</svg>
