<svg width="24" height="24" enable-background="new" version="1.0" xmlns="http://www.w3.org/2000/svg" xmlns:xlink="http://www.w3.org/1999/xlink">
 <title>Suru Icon Theme Template</title>
 <defs>
  <linearGradient id="linearGradient916" x1="459.03" x2="35.31" y1="419.23" y2="207.37" gradientTransform="matrix(0 -.056641 -.056639 0 349.74 214)" gradientUnits="userSpaceOnUse">
   <stop stop-color="#2f5fdd" offset="0"/>
   <stop stop-color="#80a3fa" offset="1"/>
  </linearGradient>
  <linearGradient id="linearGradient981" x1="332" x2="332" y1="189" y2="211" gradientUnits="userSpaceOnUse">
   <stop stop-color="#fff" offset="0"/>
   <stop stop-color="#fff" stop-opacity=".098039" offset=".125"/>
   <stop stop-color="#fff" stop-opacity=".098039" offset=".925"/>
   <stop stop-color="#fff" stop-opacity=".49804" offset="1"/>
  </linearGradient>
  <clipPath id="clipPath971-7">
   <path d="m327.87 189c-4.4121 0-4.8868 0.45318-4.8652 4.8742v6.1258 6.1258c-0.0217 4.421 0.45311 4.8742 4.8652 4.8742h8.2696c4.4121 0 4.8652-0.45312 4.8652-4.8742v-6.1258-6.1258c0-4.4211-0.45312-4.8742-4.8652-4.8742z" color="#000000" enable-background="accumulate" fill="#46a926"/>
  </clipPath>
 </defs>
 <g transform="translate(-257.41 -288)">
  <g transform="translate(-62.592 100)" enable-background="new">
   <rect x="320" y="188" width="24" height="24" enable-background="accumulate" opacity="0" stroke-width="2"/>
   <path d="m327.87 189c-1.1201 0-2.0152 0.0241-2.791 0.1543-0.77577 0.13022-1.4801 0.38763-2.0098 0.91601-0.52962 0.52838-0.79079 1.2369-0.91992 2.0137-0.12912 0.77681-0.15002 1.6717-0.14453 2.7949v6.1211 5.125c-5e-3 1.121 0.0156 2.0153 0.14453 2.791 0.12912 0.77681 0.39029 1.4853 0.91992 2.0137 0.52964 0.52838 1.234 0.78579 2.0098 0.91601s1.6709 0.1543 2.791 0.1543h8.2695c1.1201 0 2.0126-0.024 2.7871-0.1543 0.77446-0.13033 1.48-0.38927 2.0078-0.91797 0.5278-0.52869 0.78594-1.2344 0.91601-2.0098 0.13007-0.77539 0.1543-1.6706 0.1543-2.793v-5.125-6.125c0-1.1224-0.0242-2.0176-0.1543-2.793-0.13007-0.77538-0.38821-1.4811-0.91601-2.0098-0.5278-0.5287-1.2333-0.78764-2.0078-0.91797-0.77448-0.13033-1.667-0.1543-2.7871-0.1543z" color="#000000" color-rendering="auto" dominant-baseline="auto" enable-background="accumulate" image-rendering="auto" opacity=".1" shape-rendering="auto" solid-color="#000000" style="font-feature-settings:normal;font-variant-alternates:normal;font-variant-caps:normal;font-variant-ligatures:normal;font-variant-numeric:normal;font-variant-position:normal;isolation:auto;mix-blend-mode:normal;shape-padding:0;text-decoration-color:#000000;text-decoration-line:none;text-decoration-style:solid;text-indent:0;text-orientation:mixed;text-transform:none;white-space:normal"/>
   <path d="m336.13 188.5c1.1116 0 1.9868 0.0256 2.707 0.14648 0.72019 0.1209 1.3105 0.34863 1.7422 0.7793 0.43169 0.43067 0.65954 1.0197 0.7793 1.7402 0.11977 0.72049 0.14217 1.5967 0.13672 2.7109v6.123 6.125c5e-3 1.1131-0.017 1.989-0.13672 2.709-0.11976 0.72051-0.3476 1.3096-0.7793 1.7402-0.43169 0.43067-1.022 0.6584-1.7422 0.7793-0.7202 0.12089-1.5954 0.14648-2.707 0.14648h-8.2695c-1.1116 0-1.9864-0.0255-2.7051-0.14648-0.7187-0.12095-1.3062-0.34848-1.7363-0.7793-0.4301-0.43083-0.6566-1.0185-0.77735-1.7383-0.12074-0.71979-0.14648-1.5971-0.14648-2.7109v-6.125-6.125c0-1.1138 0.0257-1.9912 0.14648-2.7109 0.12075-0.71979 0.34725-1.3074 0.77735-1.7383 0.4301-0.43082 1.0176-0.65835 1.7363-0.7793 0.7187-0.12094 1.5935-0.14648 2.7051-0.14648z" color="#000000" enable-background="accumulate" fill="url(#linearGradient916)"/>
   <path d="m331 197v2.75c1e-5 0.1385 0.1115 0.25 0.25 0.25h1.5c0.1385 0 0.25-0.1115 0.25-0.25v-2.75zm0.5 1.5h1v1h-1z" color="#000000" enable-background="accumulate" opacity=".2"/>
   <path d="m332 189v1h1v-1zm0 1h-1v1h1zm0 1v1h1v-1zm0 1h-1v1h1zm0 1v1h1v-1zm0 1h-1v1h1zm0 1v1h1v-1z" color="#000000" enable-background="accumulate" opacity=".2"/>
   <path d="m331 196v2.75c1e-5 0.1385 0.1115 0.25 0.25 0.25h1.5c0.1385 0 0.25-0.1115 0.25-0.25v-2.75zm0.5 1.5h1v1h-1z" color="#000000" enable-background="accumulate" fill="#fff"/>
   <path d="m332 189h-1v1h1zm0 1v1h1v-1zm0 1h-1v1h1zm0 1v1h1v-1zm0 1h-1v1h1zm0 1v1h1v-1z" color="#000000" enable-background="accumulate" fill="#fff"/>
   <path d="m334.49 202.44c-0.35412 0.0204-0.57189 0.4209-0.52804 0.74625 0.025 0.27013 0.33398 0.44864 0.58065 0.33709 0.32103-0.13018 0.56987-0.53926 0.40723-0.87388-0.0946-0.15108-0.28938-0.21357-0.45984-0.20946zm1.9475 0.0136c-0.18136 0.078-0.30059 0.26094-0.41698 0.41405-0.28651 0.5181-0.30485 1.1278-0.45886 1.6893-0.15095 0.49028-0.42434 0.93569-0.70436 1.3571-0.1305 0.1609-0.25354 0.42505-0.50077 0.38871-0.18423-0.0776-0.21293-0.32367-0.20459-0.50076-2e-3 -0.20476 0.14244-0.36126 0.15393-0.56212 0.10188-0.38933 0.35087-0.72843 0.42185-1.1262 0.0197-0.1941-2e-3 -0.47172-0.21921-0.54363-0.25127-0.068-0.52644 0.0661-0.63228 0.30298-0.17894 0.382-0.23528 0.80625-0.35171 1.209-0.1164 0.51192-0.11844 1.0672 0.0769 1.5597 0.20163 0.35723 0.70658 0.44175 1.0561 0.26598 0.11124-0.0404 0.18203-0.18167 0.30396-0.1822 0.089 0.10764 0.0376 0.27011 0.0215 0.39748-0.088 0.26198-0.15807 0.53032-0.19582 0.80473-0.10416 0.59234-0.23635 1.1877-0.23089 1.7916 0.0449 0.21242 0.31177 0.36292 0.50563 0.23285 0.27335-0.12727 0.41753-0.51718 0.21726-0.76574 2e-3 -0.35912 0.10944-0.71288 0.16659-1.0668 0.076-0.38868 0.14272-0.78217 0.18218-1.1749 0.10488-0.17334 0.33163-0.0952 0.48225-0.0409 0.23549 0.077 0.52658 0.21337 0.7492 0.0292 0.34145-0.26192 0.65182-0.58402 0.80958-0.99176 0.26317-0.64195 0.44043-1.3715 0.2387-2.0556-0.0899-0.24468-0.21855-0.51897-0.46472-0.63811-0.2664-0.0977-0.49162 0.13136-0.7034 0.25331-0.0758 0.0322-0.16461 0.13246-0.2494 0.0984 0.0762-0.29402 0.28528-0.58219 0.21336-0.89727-0.0386-0.11004-0.14555-0.23463-0.26597-0.24843zm-7.9478 0.99079c-0.047 2e-3 -0.0902 0.034-0.13542 0.0477-0.57606 0.24003-0.91175 0.8138-1.1798 1.3464-0.23537 0.4788-0.48197 0.9891-0.43451 1.5383 5e-4 0.32977 0.22297 0.71507 0.58453 0.72676 0.36785 0.0377 0.6359-0.26281 0.88072-0.48905 0.0982-0.087 0.19473-0.20139 0.30299-0.26401 0.049 0.21069-0.05 0.42609-0.10128 0.62837-0.18975 0.52668-0.24006 1.1039-0.51148 1.5997-0.19357 0.33354-0.62714 0.42894-0.97911 0.40139-0.23841-0.0124-0.45464-0.12671-0.65177-0.2465-0.19317 0.0277-0.35942 0.28063-0.2153 0.45303 0.21311 0.27694 0.59038 0.42268 0.9343 0.3478 0.49463-0.0415 1.011-0.17763 1.3707-0.53973 0.19314-0.17688 0.28782-0.42584 0.34197-0.67612 0.36943-1.3768 0.64867-2.7917 1.2967-4.0713-0.0445-0.25358-0.27045-0.43693-0.51244-0.5027-0.32816-0.10572-0.67569-0.16244-0.99081-0.30006zm4.3977 2e-3c-0.68037 0.0173-1.337 0.22357-1.9826 0.42087-0.0725 0.0804 0.0248 0.20569 0.0838 0.27863 0.20328 0.23098 0.54114 0.16966 0.80667 0.11496 0.17441-0.0274 0.34979-0.084 0.52415-0.0935 0.10668 0.0498 0.11748 0.19443 0.0185 0.25623-0.27282 0.20889-0.57273 0.38689-0.80861 0.64104-0.3337 0.30667-0.62022 0.66444-0.94209 0.98397-0.19739 0.21978-0.43695 0.41032-0.59234 0.66343-0.0852 0.23593-5e-3 0.51626 0.20459 0.65956 0.19468 0.17126 0.47669 0.19412 0.719 0.13542 0.40789-0.21724 0.88266-0.25835 1.2977-0.46665 0.12148-0.052 0.26598-0.19127 0.16561-0.32833-0.0936-0.18892-0.31787-0.23186-0.50855-0.20556-0.24866-1e-3 -0.49718 0.12704-0.74335 0.0653-0.0937-0.043 0.0448-0.12252 0.075-0.18021 0.72549-0.78897 1.5198-1.5127 2.231-2.3148 0.16386-0.1953-0.0125-0.48018-0.21629-0.56505-0.1026-0.0505-0.21844-0.0695-0.33221-0.0653zm4.2633 0.56798c0.0145 0.0168 0.0293 0.0329 0.0439 0.0497 0.23481 0.29009 0.13952 0.6924 0.0361 1.0142-0.14039 0.41643-0.21564 0.90793-0.58845 1.1925-0.19095 0.15725-0.5428 0.15382-0.643-0.1062-0.0932-0.25946 0.0857-0.50523 0.19485-0.72873 0.19309-0.34202 0.2576-0.75134 0.52609-1.0512 0.1194-0.14907 0.26849-0.2704 0.43061-0.37021zm-8.3853 0.10908c0.1872 0.12622 0.22472 0.38235 0.13446 0.57869-0.17131 0.41366-0.47426 0.75388-0.69464 1.1408-0.17091 0.24292-0.30139 0.5363-0.56896 0.68976-0.0796 0.0455-0.20946 0.0649-0.24453-0.0439-0.16866-0.30625 0.032-0.64191 0.17732-0.91284 0.26046-0.47314 0.49797-0.99244 0.95475-1.3123 0.0751-0.049 0.15403-0.12695 0.2416-0.14029z" enable-background="new" fill="#fff" opacity=".5" stroke="#fff" stroke-linejoin="round" stroke-width=".011022"/>
   <path d="m323 200v6.125c-0.0217 4.421 0.45314 4.875 4.8652 4.875h8.2695c4.4121 0 4.8652-0.45393 4.8652-4.875v-6.125z" color="#000000" enable-background="accumulate" fill="#fff" opacity=".08"/>
   <path d="m332 189v22h4.1348c4.4121 0 4.8652-0.45393 4.8652-4.875v-6.125-6.125c0-4.4211-0.45314-4.875-4.8652-4.875z" color="#000000" enable-background="accumulate" fill="#fff" opacity=".08"/>
   <path d="m327.87 188.5c-1.1116 0-1.9868 0.0256-2.707 0.14648-0.72019 0.1209-1.3105 0.34863-1.7422 0.7793-0.43169 0.43067-0.65954 1.0197-0.7793 1.7402-0.11977 0.72049-0.14217 1.5967-0.13672 2.7109v6.123 6.125c-5e-3 1.1131 0.017 1.989 0.13672 2.709 0.11976 0.72051 0.3476 1.3096 0.7793 1.7402 0.43169 0.43067 1.022 0.6584 1.7422 0.7793 0.7202 0.12089 1.5954 0.14648 2.707 0.14648h8.2695c1.1116 0 1.9864-0.0255 2.7051-0.14648 0.7187-0.12095 1.3062-0.34848 1.7363-0.7793 0.4301-0.43083 0.6566-1.0185 0.77735-1.7383 0.12074-0.71979 0.14648-1.5971 0.14648-2.7109v-6.125-6.125c0-1.1138-0.0257-1.9912-0.14648-2.7109-0.12075-0.71979-0.34725-1.3074-0.77735-1.7383-0.4301-0.43082-1.0176-0.65835-1.7363-0.7793-0.7187-0.12094-1.5935-0.14648-2.7051-0.14648z" color="#000000" enable-background="accumulate" fill="none" opacity=".4" stroke="#000"/>
   <path transform="translate(1.5262e-6)" d="m327.87 189c-4.4121 0-4.8868 0.45318-4.8652 4.8742v6.1258 6.1258c-0.0217 4.421 0.45311 4.8742 4.8652 4.8742h8.2696c4.4121 0 4.8652-0.45312 4.8652-4.8742v-6.1258-6.1258c0-4.4211-0.45312-4.8742-4.8652-4.8742z" clip-path="url(#clipPath971-7)" color="#000000" enable-background="accumulate" fill="none" opacity=".4" stroke="url(#linearGradient981)" stroke-width="2"/>
  </g>
 </g>
</svg>
