<svg width="24" height="24.001" enable-background="new" version="1.0" xmlns="http://www.w3.org/2000/svg" xmlns:xlink="http://www.w3.org/1999/xlink">
 <title>Suru Icon Theme Template</title>
 <defs>
  <linearGradient id="linearGradient916" x1="459.03" x2="35.31" y1="419.23" y2="207.37" gradientTransform="matrix(-.056641 0 0 -.056639 346 218.74)" gradientUnits="userSpaceOnUse">
   <stop stop-color="#f2f2f2" offset="0"/>
   <stop stop-color="#f9f9f9" offset="1"/>
  </linearGradient>
  <linearGradient id="linearGradient49900" x1="583.14" x2="209.89" y1="280.02" y2="283.03" gradientTransform="matrix(0 -.041285 .061843 0 314.81 211.2)" gradientUnits="userSpaceOnUse">
   <stop stop-color="#ff10ff" stop-opacity=".98824" offset="0"/>
   <stop stop-color="#ff0bff" stop-opacity=".009524" offset="1"/>
  </linearGradient>
  <linearGradient id="linearGradient49902" x1="262.92" x2="11.23" y1="308.5" y2="95.475" gradientTransform="matrix(0 -.041285 .061843 0 314.81 211.2)" gradientUnits="userSpaceOnUse">
   <stop stop-color="#2ffffe" stop-opacity="0" offset="0"/>
   <stop stop-color="#14ffff" stop-opacity=".88628" offset="1"/>
  </linearGradient>
  <linearGradient id="linearGradient49904" x1="274.73" x2="8.4512" y1="293.91" y2="462.25" gradientTransform="matrix(0 -.041285 .061843 0 314.81 211.2)" gradientUnits="userSpaceOnUse">
   <stop stop-color="#fff755" stop-opacity="0" offset="0"/>
   <stop stop-color="#fffa3b" stop-opacity=".99216" offset="1"/>
  </linearGradient>
  <linearGradient id="linearGradient48707" x1="178.17" x2="-13.929" y1="137.54" y2="128.92" gradientTransform="matrix(.043863 0 0 .043863 329.69 198.47)" gradientUnits="userSpaceOnUse">
   <stop stop-color="#5995e8" offset="0"/>
   <stop stop-color="#63a0e6" stop-opacity=".01" offset="1"/>
  </linearGradient>
  <linearGradient id="linearGradient981" x1="333" x2="333" y1="192" y2="208" gradientTransform="rotate(90 332 200)" gradientUnits="userSpaceOnUse">
   <stop stop-color="#fff" offset="0"/>
   <stop stop-color="#fff" stop-opacity=".098039" offset=".125"/>
   <stop stop-color="#fff" stop-opacity=".098039" offset=".925"/>
   <stop stop-color="#fff" stop-opacity=".49804" offset="1"/>
  </linearGradient>
  <clipPath id="clipPath971-2">
   <path d="m327.87 189c-4.4121 0-4.8868 0.45318-4.8652 4.8742v6.1258 6.1258c-0.0217 4.421 0.45311 4.8742 4.8652 4.8742h8.2696c4.4121 0 4.8652-0.45312 4.8652-4.8742v-6.1258-6.1258c0-4.4211-0.45312-4.8742-4.8652-4.8742z" color="#000000" enable-background="accumulate" fill="#46a926"/>
  </clipPath>
 </defs>
 <g transform="translate(-297 -183.5)">
  <g transform="translate(-23 -4.5004)" enable-background="new">
   <rect x="320" y="188" width="24" height="24" enable-background="accumulate" opacity="0" stroke-width="2"/>
   <path d="m325.88 192c-1.1215 0-2.0212 0.0225-2.7949 0.15234-0.77661 0.13029-1.4782 0.38927-2.0078 0.91797-0.52965 0.52877-0.78935 1.2299-0.91993 2.0059-0.13004 0.77282-0.15234 1.6698-0.15234 2.7891v8.2695c0 1.1192 0.0224 2.015 0.15234 2.7891 0.13049 0.77729 0.39053 1.483 0.91993 2.0137 0.52954 0.5308 1.2335 0.78862 2.0117 0.91797 0.77469 0.12878 1.6718 0.14998 2.793 0.14453h6.123 6.123c1.1209 5e-3 2.018-0.0157 2.793-0.14453 0.77821-0.12935 1.4822-0.38716 2.0117-0.91797 0.52939-0.53064 0.78749-1.2364 0.91797-2.0137 0.12993-0.77406 0.1543-1.6698 0.1543-2.7891v-8.2695c0-1.1192-0.0242-2.0162-0.1543-2.7891-0.13058-0.77592-0.38832-1.4771-0.91797-2.0059-0.5296-0.5287-1.2332-0.78768-2.0098-0.91797-0.77373-0.12978-1.6715-0.15234-2.793-0.15234h-6.125z" color="#000000" color-rendering="auto" dominant-baseline="auto" enable-background="accumulate" image-rendering="auto" opacity=".1" shape-rendering="auto" solid-color="#000000" style="font-feature-settings:normal;font-variant-alternates:normal;font-variant-caps:normal;font-variant-ligatures:normal;font-variant-numeric:normal;font-variant-position:normal;isolation:auto;mix-blend-mode:normal;shape-padding:0;text-decoration-color:#000000;text-decoration-line:none;text-decoration-style:solid;text-indent:0;text-orientation:mixed;text-transform:none;white-space:normal"/>
   <path d="m320.5 205.13c0 1.1116 0.0256 1.9868 0.14648 2.707 0.1209 0.72019 0.34863 1.3105 0.7793 1.7422 0.43067 0.43169 1.0197 0.65954 1.7402 0.7793 0.72049 0.11977 1.5967 0.14217 2.7109 0.13672h6.123 6.125c1.1131 5e-3 1.989-0.017 2.709-0.13672 0.72051-0.11976 1.3096-0.3476 1.7402-0.7793 0.43067-0.43169 0.6584-1.022 0.7793-1.7422 0.12089-0.7202 0.14648-1.5954 0.14648-2.707v-8.2695c0-1.1116-0.0255-1.9864-0.14648-2.7051-0.12095-0.7187-0.34848-1.3062-0.7793-1.7363-0.43083-0.4301-1.0185-0.6566-1.7383-0.77735-0.71979-0.12074-1.5971-0.14648-2.7109-0.14648h-6.125-6.125c-1.1138 0-1.9912 0.0257-2.7109 0.14648-0.71979 0.12075-1.3074 0.34725-1.7383 0.77735-0.43082 0.4301-0.65835 1.0176-0.7793 1.7363-0.12094 0.7187-0.14648 1.5935-0.14648 2.7051z" color="#000000" enable-background="accumulate" fill="url(#linearGradient916)"/>
   <path d="m325.88 191.5c-1.1136-5e-3 -1.9907 0.0176-2.7103 0.13131-0.72082 0.11383-1.309 0.32995-1.74 0.7403-0.43086 0.41027-0.6567 0.9683-0.77765 1.6528-0.12081 0.68367-0.14775 1.5162-0.14775 2.572v8.8055c0 1.0558 0.0268 1.8878 0.14775 2.5701 0.12099 0.68302 0.3464 1.241 0.77765 1.65 0.43109 0.40883 1.0198 0.62457 1.74 0.73934 0.71496 0.11393 1.4795 0.13797 2.7083 0.13797h6.1263 6.1264c1.1135 0 1.9898-0.0233 2.7093-0.13797 0.72013-0.11477 1.3079-0.33051 1.739-0.73934 0.43124-0.40898 0.65765-0.96695 0.77865-1.65 0.12085-0.68225 0.14674-1.5143 0.14674-2.5701v-8.8055c0-1.0558-0.026-1.8883-0.14674-2.572-0.12096-0.68451-0.34678-1.2426-0.77765-1.6528-0.43093-0.41035-1.0202-0.62647-1.741-0.7403-0.71958-0.11362-1.5957-0.13646-2.7093-0.13131h-6.1254z" color="#000000" enable-background="accumulate" fill="url(#linearGradient49900)"/>
   <path d="m325.88 191.5c-1.1136-5e-3 -1.9907 0.0176-2.7103 0.13131-0.72082 0.11383-1.309 0.32995-1.74 0.7403-0.43086 0.41027-0.6567 0.9683-0.77765 1.6528-0.12081 0.68367-0.14775 1.5162-0.14775 2.572v8.8055c0 1.0558 0.0268 1.8878 0.14775 2.5701 0.12099 0.68302 0.3464 1.241 0.77765 1.65 0.43109 0.40883 1.0198 0.62457 1.74 0.73934 0.71496 0.11393 1.4795 0.13797 2.7083 0.13797h6.1263 6.1264c1.1135 0 1.9898-0.0233 2.7093-0.13797 0.72013-0.11477 1.3079-0.33051 1.739-0.73934 0.43124-0.40898 0.65765-0.96695 0.77865-1.65 0.12085-0.68225 0.14674-1.5143 0.14674-2.5701v-8.8055c0-1.0558-0.026-1.8883-0.14674-2.572-0.12096-0.68451-0.34678-1.2426-0.77765-1.6528-0.43093-0.41035-1.0202-0.62647-1.741-0.7403-0.71958-0.11362-1.5957-0.13646-2.7093-0.13131h-6.1254z" color="#000000" enable-background="accumulate" fill="url(#linearGradient49902)"/>
   <path d="m325.88 191.5c-1.1136-5e-3 -1.9907 0.0176-2.7103 0.13131-0.72082 0.11383-1.309 0.32995-1.74 0.7403-0.43086 0.41027-0.6567 0.9683-0.77765 1.6528-0.12081 0.68367-0.14775 1.5162-0.14775 2.572v8.8055c0 1.0558 0.0268 1.8878 0.14775 2.5701 0.12099 0.68302 0.3464 1.241 0.77765 1.65 0.43109 0.40883 1.0198 0.62457 1.74 0.73934 0.71496 0.11393 1.4795 0.13797 2.7083 0.13797h6.1263 6.1264c1.1135 0 1.9898-0.0233 2.7093-0.13797 0.72013-0.11477 1.3079-0.33051 1.739-0.73934 0.43124-0.40898 0.65765-0.96695 0.77865-1.65 0.12085-0.68225 0.14674-1.5143 0.14674-2.5701v-8.8055c0-1.0558-0.026-1.8883-0.14674-2.572-0.12096-0.68451-0.34678-1.2426-0.77765-1.6528-0.43093-0.41035-1.0202-0.62647-1.741-0.7403-0.71958-0.11362-1.5957-0.13646-2.7093-0.13131h-6.1254z" color="#000000" enable-background="accumulate" fill="url(#linearGradient49904)"/>
   <path d="m328.7 202.3c0.75727 1.5907 2.9002 2.4768 4.2235 2.5215 0.65184-2e-3 1.35-0.16968 1.9331-0.42024 0.58317-0.25056 1.1718-0.9868 1.786-0.88252 0.61421 0.10428 0.73369 0.89445 0.86151 1.3868 0.12781 0.49237-0.034 0.86442-0.14709 1.1347-0.11314 0.27024-0.10625 0.27983-0.37822 0.48328s-0.91438 0.40664-1.3238 0.5253c-2.6273 0.65955-5.3485-0.74746-6.5979-3.0258-0.2818-0.52449-0.50307-1.156-0.54632-1.4919-0.0432-0.3359-0.0707-0.41152 0.042-0.44126 0.11277-0.0298 0.15759 0.12607 0.14708 0.21012z" enable-background="new" fill="url(#linearGradient48707)" stroke-width=".043863"/>
   <path d="m334.98 201.3c0.084 0.042 1.639 1.5969 1.639 1.5969l0.14708 0.18911s-0.63036 0.92454-0.73542 0.84049c-0.10507-0.084-2.0802-1.4919-2.0802-1.4919-0.28604-0.57135 0.49189-1.395 1.0296-1.1347z" enable-background="new" opacity=".2" stroke-width=".043863"/>
   <path d="m326.35 194.94c0.94211 0.55982 2.6554 1.6284 2.6554 1.6284s1.7619 1.0656 2.3176 1.4153 0.63265 0.38023 1.0982 0.66176c0.46553 0.28152 1.0293 0.72783 1.0293 0.72783s0.57114 0.50306 0.7461 0.71078c0.17497 0.20771 0.32567 0.40421 0.43599 0.61764 0.11031 0.21344 0.25073 0.63677 0.25073 0.63677l-0.71864 1.2417s-0.2581 0.0725-0.58232 0.028c-0.32423-0.0445-0.79697-0.27351-1.1275-0.45104-0.33053-0.17752-0.48805-0.27791-0.85261-0.58442-0.36456-0.30652-0.72018-0.69105-1.3021-1.285-0.26872-0.27429-0.73925-0.81317-1.1956-1.3-0.53185-0.56738-1.0352-1.0686-1.0352-1.0686s-1.4689-1.5116-2.1938-2.3381c-0.2643-0.40169 0.10837-0.77375 0.47433-0.64103z" enable-background="new" fill="#180000" opacity=".2" stroke-width=".043863"/>
   <path d="m326.47 194.82c0.94211 0.55983 2.6554 1.6284 2.6554 1.6284s1.7619 1.0656 2.3176 1.4153c0.55564 0.34967 0.63265 0.38022 1.0982 0.66175 0.46553 0.28153 1.0293 0.72784 1.0293 0.72784s0.57113 0.50306 0.7461 0.71077c0.17496 0.20772 0.32567 0.40421 0.43598 0.61765 0.11032 0.21343 0.25073 0.63676 0.25073 0.63676l-0.71864 1.2417s-0.25809 0.0725-0.58232 0.028c-0.32422-0.0445-0.79696-0.27351-1.1275-0.45103s-0.48804-0.27792-0.8526-0.58443c-0.36457-0.30652-0.72018-0.69104-1.3021-1.285-0.26872-0.27429-0.73925-0.81316-1.1956-1.3-0.53185-0.56737-1.0352-1.0686-1.0352-1.0686s-1.4689-1.5116-2.1938-2.3381c-0.2643-0.40169 0.10837-0.77375 0.47434-0.64104z" enable-background="new" fill="#494949" stroke-width=".043863"/>
   <path d="m335 201.22c0.084 0.042 1.639 1.5969 1.639 1.5969l0.14709 0.18911s-0.63037 0.92454-0.73543 0.84049c-0.10506-0.084-2.0802-1.4919-2.0802-1.4919-0.28604-0.57135 0.49189-1.395 1.0296-1.1347z" enable-background="new" fill="#bfbebf" stroke-width=".043863"/>
   <path d="m336.85 206.45c0.17227-0.33769 0.10612-0.70934-0.20698-1.1627-0.58339-0.8448-0.70096-1.0801-0.72159-1.4439-0.0203-0.35865 0.26173-0.80421 0.62713-0.99062 0.72753-0.37116 1.6596 0.50283 1.6596 1.5562 0 0.78177-0.41815 1.4951-1.2323 2.1021-0.21264 0.15855-0.23286 0.14873-0.1258-0.0611z" enable-background="new" stroke-width=".043863"/>
   <path d="m332 193h6.125c4.421-0.0217 4.875 0.45314 4.875 4.8652v8.2695c0 4.4121-0.45393 4.8652-4.875 4.8652h-6.125z" color="#000000" enable-background="accumulate" fill="#fff" opacity=".1"/>
   <path d="m321 201h22v4.1348c0 4.4121-0.45393 4.8652-4.875 4.8652h-6.125-6.125c-4.4211 0-4.875-0.45314-4.875-4.8652z" color="#000000" enable-background="accumulate" fill="#fff" opacity=".1"/>
   <path d="m320.5 205.13c0 1.1116 0.0256 1.9868 0.14648 2.707 0.1209 0.72019 0.34863 1.3105 0.7793 1.7422 0.43067 0.43169 1.0197 0.65954 1.7402 0.7793 0.72049 0.11977 1.5967 0.14217 2.7109 0.13672h6.123 6.125c1.1131 5e-3 1.989-0.017 2.709-0.13672 0.72051-0.11976 1.3096-0.3476 1.7402-0.7793 0.43067-0.43169 0.6584-1.022 0.7793-1.7422 0.12089-0.7202 0.14648-1.5954 0.14648-2.707v-8.2695c0-1.1116-0.0255-1.9864-0.14648-2.7051-0.12095-0.7187-0.34848-1.3062-0.7793-1.7363-0.43083-0.4301-1.0185-0.6566-1.7383-0.77735-0.71979-0.12074-1.5971-0.14648-2.7109-0.14648h-6.125-6.125c-1.1138 0-1.9912 0.0257-2.7109 0.14648-0.71979 0.12075-1.3074 0.34725-1.7383 0.77735-0.43082 0.4301-0.65835 1.0176-0.7793 1.7363-0.12094 0.7187-0.14648 1.5935-0.14648 2.7051z" color="#000000" enable-background="accumulate" fill="none" opacity=".3" stroke="#000"/>
   <path transform="rotate(-90 332.5 200.5)" d="m327.87 189c-4.4121 0-4.8868 0.45318-4.8652 4.8742v6.1258 6.1258c-0.0217 4.421 0.45311 4.8742 4.8652 4.8742h8.2696c4.4121 0 4.8652-0.45312 4.8652-4.8742v-6.1258-6.1258c0-4.4211-0.45312-4.8742-4.8652-4.8742z" clip-path="url(#clipPath971-2)" color="#000000" enable-background="accumulate" fill="none" opacity=".4" stroke="url(#linearGradient981)" stroke-width="2"/>
  </g>
 </g>
</svg>
