<svg width="24" height="24" version="1.1" xmlns="http://www.w3.org/2000/svg" xmlns:xlink="http://www.w3.org/1999/xlink">
 <defs>
  <linearGradient id="linearGradient916-3" x1="459.03" x2="35.31" y1="419.23" y2="207.37" gradientTransform="matrix(0 -.056641 .056639 0 -5.7453 26)" gradientUnits="userSpaceOnUse">
   <stop stop-color="#f2f2f2" offset="0"/>
   <stop stop-color="#f9f9f9" offset="1"/>
  </linearGradient>
  <linearGradient id="linearGradient981-6" x1="332" x2="332" y1="189" y2="211" gradientUnits="userSpaceOnUse">
   <stop stop-color="#fff" offset="0"/>
   <stop stop-color="#fff" stop-opacity=".098039" offset=".125"/>
   <stop stop-color="#fff" stop-opacity=".098039" offset=".925"/>
   <stop stop-color="#fff" stop-opacity=".49804" offset="1"/>
  </linearGradient>
  <clipPath id="clipPath971-7">
   <path d="m327.87 189c-4.4121 0-4.8868 0.45318-4.8652 4.8742v6.1258 6.1258c-0.0217 4.421 0.45311 4.8742 4.8652 4.8742h8.2696c4.4121 0 4.8652-0.45312 4.8652-4.8742v-6.1258-6.1258c0-4.4211-0.45312-4.8742-4.8652-4.8742z" color="#000000" fill="#46a926"/>
  </clipPath>
 </defs>
 <path d="m7.8652 1c-1.1201 0-2.0152 0.0241-2.791 0.1543-0.77577 0.13022-1.4801 0.38763-2.0098 0.91601-0.52962 0.52838-0.79079 1.2369-0.91992 2.0137-0.12912 0.77681-0.15002 1.6717-0.14453 2.7949v6.1211 6.125c-5e-3 1.121 0.0156 2.0153 0.14453 2.791 0.12912 0.77681 0.39029 1.4853 0.91992 2.0137 0.52964 0.52838 1.234 0.78579 2.0098 0.91601s1.6709 0.1543 2.791 0.1543h8.2695c1.1201 0 2.0126-0.024 2.7871-0.1543 0.77446-0.13033 1.48-0.38927 2.0078-0.91797 0.5278-0.52869 0.78594-1.2344 0.91601-2.0098 0.13007-0.77539 0.1543-1.6706 0.1543-2.793v-6.125-6.125c0-1.1224-0.0242-2.0176-0.1543-2.793-0.13007-0.77538-0.38821-1.4811-0.91601-2.0098-0.5278-0.5287-1.2333-0.78764-2.0078-0.91797-0.77448-0.13033-1.667-0.1543-2.7871-0.1543z" color="#000000" color-rendering="auto" dominant-baseline="auto" image-rendering="auto" opacity=".1" shape-rendering="auto" solid-color="#000000" style="font-feature-settings:normal;font-variant-alternates:normal;font-variant-caps:normal;font-variant-ligatures:normal;font-variant-numeric:normal;font-variant-position:normal;isolation:auto;mix-blend-mode:normal;shape-padding:0;text-decoration-color:#000000;text-decoration-line:none;text-decoration-style:solid;text-indent:0;text-orientation:mixed;text-transform:none;white-space:normal"/>
 <path d="m7.8652 1c-4.4121 0-4.8868 0.45318-4.8652 4.8742v6.1258 6.1258c-0.0217 4.421 0.45311 4.8742 4.8652 4.8742h8.2696c4.4121 0 4.8652-0.45312 4.8652-4.8742v-6.1258-6.1258c0-4.4211-0.45312-4.8742-4.8652-4.8742z" color="#000000" fill="none" opacity=".2" stroke="#000" stroke-width="2"/>
 <path d="m7.8652 1c-4.4121 0-4.8868 0.45318-4.8652 4.8742v6.1258 6.1258c-0.0217 4.421 0.45311 4.8742 4.8652 4.8742h8.2696c4.4121 0 4.8652-0.45312 4.8652-4.8742v-6.1258-6.1258c0-4.4211-0.45312-4.8742-4.8652-4.8742z" color="#000000" fill="url(#linearGradient916-3)"/>
 <g transform="matrix(.50006 0 0 .50006 -160.08 -29.666)" enable-background="new">
  <path d="m338.63 91.485 1.5339-5.2291 1.3104 8.2528 1.9492-9.5838 1.0546 9.1272 1.9174-9.7927 0.95871 9.5075 1.5339-6.7503 0.86282 3.8981" enable-background="new" fill="none" stroke="#eab305" stroke-width=".81385"/>
  <path d="m349.19 92.843-1.4658-7.5723-1.6658 9.2073-1.1993-8.2607-2.3294 6.4977-1.3352-7.6444-2.4653 8.2888-2.4289-6.7104" enable-background="new" fill="none" stroke="#f60000" stroke-linecap="round" stroke-linejoin="bevel" stroke-width=".78312" style="paint-order:fill markers stroke"/>
  <g transform="matrix(1.6884 0 0 1.6884 -432.54 -165.31)" enable-background="new" fill="#234db8">
   <path d="m460 140c-1.4372-8.2e-4 -2.5955 0.26776-3.5371 0.69922-0.19253 0.0849-0.3801 0.17695-0.56055 0.2793-0.0489 0.0286-0.0932 0.0602-0.14062 0.0898-0.11916 0.0722-0.23898 0.14417-0.35156 0.22461-0.0931 0.0665-0.17671 0.14019-0.26368 0.21094-0.61254 0.49828-1.0609 1.1026-1.3945 1.7598-0.0166 0.033-0.0388 0.0645-0.0547 0.0977-0.0164 0.0341-0.0273 0.0692-0.043 0.10351-0.20436 0.44371-0.37317 0.902-0.47266 1.3789-0.0186 0.0893-0.0217 0.18147-0.0371 0.27148-0.0451 0.24538-0.0797 0.48765-0.10156 0.72657-2e-3 0.0216-4e-3 0.0428-6e-3 0.0645-0.0241 0.28728-0.017 0.54917-0.0137 0.81836 2e-3 0.0999-7.9e-4 0.19901 4e-3 0.29883 0.0132 0.28766 0.0348 0.54468 0.0703 0.79492 0.0213 0.17484 0.0492 0.34669 0.0781 0.51953 5e-3 0.023 7e-3 0.0557 0.0117 0.0781v2e-3l0.0215 0.0976c0.031 0.16986 0.0542 0.3429 0.0918 0.50977l0.10938 0.48828 8e-3 -2e-3 1.0547 5.0078 1.1738-0.20703c0.66034-0.11709 1.1311-0.21985 1.3496-0.39453 0.10972-0.0877 0.17262-0.18253 0.20508-0.35156 0.0325-0.16904 0.0242-0.41548-0.0469-0.75196l-0.79102-3.7402c-0.0711-0.33649-0.16295-0.56845-0.26367-0.7168s-0.20256-0.21859-0.34375-0.26367c-0.28239-0.0902-0.75932-0.024-1.4238 0.0937l-0.16211 0.0293c-0.18209-1.0686-0.21795-2.172-0.01-3.1699 0.24666-1.1824 0.80309-2.2057 1.8301-2.9395 1.0114-0.72263 2.5151-1.0871 4.0098-1.084 1.4947-3e-3 2.9983 0.36135 4.0098 1.084 1.027 0.73373 1.5834 1.7571 1.8301 2.9395 0.20795 0.99788 0.17233 2.1013-0.01 3.1699l-0.16211-0.0293c-0.66451-0.1177-1.1414-0.18395-1.4238-0.0937-0.14119 0.0451-0.24303 0.11532-0.34375 0.26367s-0.19257 0.38031-0.26367 0.7168l-0.79102 3.7402c-0.0711 0.33648-0.0794 0.58292-0.0469 0.75196 0.0325 0.16903 0.0954 0.26386 0.20508 0.35156 0.21855 0.17468 0.68927 0.27744 1.3496 0.39453l1.1738 0.20703 1.0547-5.0078 8e-3 2e-3 0.10938-0.48828c0.0376-0.16687 0.0608-0.3399 0.0918-0.50977l0.0215-0.0976v-2e-3c5e-3 -0.0224 7e-3 -0.0551 0.0117-0.0781 0.0289-0.17284 0.0568-0.34469 0.0781-0.51953 0.0355-0.25024 0.0571-0.50726 0.0703-0.79492 5e-3 -0.0998 2e-3 -0.19893 4e-3 -0.29883 3e-3 -0.26919 0.0104-0.53108-0.0137-0.81836-2e-3 -0.0217-4e-3 -0.0428-6e-3 -0.0645-0.0219-0.23892-0.0565-0.48119-0.10156-0.72657-0.0154-0.09-0.0185-0.18218-0.0371-0.27148-0.0995-0.47691-0.2683-0.9352-0.47266-1.3789-0.0157-0.0343-0.0266-0.0694-0.043-0.10351-0.0159-0.0332-0.0381-0.0647-0.0547-0.0977-0.33364-0.65717-0.78199-1.2615-1.3945-1.7598-0.087-0.0708-0.17058-0.14444-0.26368-0.21094-0.11258-0.0804-0.2324-0.15241-0.35156-0.22461-0.0474-0.0296-0.0917-0.0612-0.14062-0.0898-0.18045-0.10235-0.36802-0.1944-0.56055-0.2793-0.94117-0.43146-2.0995-0.70004-3.5366-0.69922z" color="#000000" color-rendering="auto" enable-background="accumulate" fill="#234db8" image-rendering="auto" shape-rendering="auto" style="isolation:auto;text-decoration-color:#000000;text-decoration-line:none;text-decoration-style:solid;text-indent:0;text-transform:none"/>
  </g>
 </g>
 <path d="m3 12v6.125c-0.0217 4.421 0.45314 4.875 4.8652 4.875h8.2695c4.4121 0 4.8652-0.45393 4.8652-4.875v-6.125z" color="#000000" fill="#fff" opacity=".2"/>
 <path d="m12 1v22h4.1348c4.4121 0 4.8652-0.45393 4.8652-4.875v-6.125-6.125c0-4.4211-0.45314-4.875-4.8652-4.875z" color="#000000" fill="#fff" opacity=".2"/>
 <path transform="translate(-320,-188)" d="m327.87 189c-4.4121 0-4.8868 0.45318-4.8652 4.8742v6.1258 6.1258c-0.0217 4.421 0.45311 4.8742 4.8652 4.8742h8.2696c4.4121 0 4.8652-0.45312 4.8652-4.8742v-6.1258-6.1258c0-4.4211-0.45312-4.8742-4.8652-4.8742z" clip-path="url(#clipPath971-7)" color="#000000" fill="none" opacity=".4" stroke="url(#linearGradient981-6)" stroke-width="2"/>
</svg>
