<svg width="24" height="24" enable-background="new" version="1.0" xmlns="http://www.w3.org/2000/svg" xmlns:xlink="http://www.w3.org/1999/xlink">
 <title>Suru Icon Theme Template</title>
 <defs>
  <linearGradient id="linearGradient916" x1="459.03" x2="35.31" y1="419.23" y2="207.37" gradientTransform="matrix(0 -.056641 -.056639 0 349.74 214)" gradientUnits="userSpaceOnUse">
   <stop stop-color="#dd4f37" offset="0"/>
   <stop stop-color="#e57866" offset="1"/>
  </linearGradient>
  <linearGradient id="linearGradient981" x1="332" x2="332" y1="189" y2="211" gradientUnits="userSpaceOnUse">
   <stop stop-color="#fff" offset="0"/>
   <stop stop-color="#fff" stop-opacity=".098039" offset=".125"/>
   <stop stop-color="#fff" stop-opacity=".098039" offset=".925"/>
   <stop stop-color="#fff" stop-opacity=".49804" offset="1"/>
  </linearGradient>
  <clipPath id="clipPath971-7">
   <path d="m327.87 189c-4.4121 0-4.8868 0.45318-4.8652 4.8742v6.1258 6.1258c-0.0217 4.421 0.45311 4.8742 4.8652 4.8742h8.2696c4.4121 0 4.8652-0.45312 4.8652-4.8742v-6.1258-6.1258c0-4.4211-0.45312-4.8742-4.8652-4.8742z" color="#000000" enable-background="accumulate" fill="#46a926"/>
  </clipPath>
 </defs>
 <g transform="translate(-145,-117)">
  <g transform="translate(-175,-71)" enable-background="new">
   <rect x="320" y="188" width="24" height="24" enable-background="accumulate" opacity="0" stroke-width="2"/>
   <path d="m327.87 189c-1.1201 0-2.0152 0.0241-2.791 0.1543-0.77577 0.13022-1.4801 0.38763-2.0098 0.91601-0.52962 0.52838-0.79079 1.2369-0.91992 2.0137-0.12912 0.77681-0.15002 1.6717-0.14453 2.7949v6.1211 5.125c-5e-3 1.121 0.0156 2.0153 0.14453 2.791 0.12912 0.77681 0.39029 1.4853 0.91992 2.0137 0.52964 0.52838 1.234 0.78579 2.0098 0.91601s1.6709 0.1543 2.791 0.1543h8.2695c1.1201 0 2.0126-0.024 2.7871-0.1543 0.77446-0.13033 1.48-0.38927 2.0078-0.91797 0.5278-0.52869 0.78594-1.2344 0.91601-2.0098 0.13007-0.77539 0.1543-1.6706 0.1543-2.793v-5.125-6.125c0-1.1224-0.0242-2.0176-0.1543-2.793-0.13007-0.77538-0.38821-1.4811-0.91601-2.0098-0.5278-0.5287-1.2333-0.78764-2.0078-0.91797-0.77448-0.13033-1.667-0.1543-2.7871-0.1543z" color="#000000" color-rendering="auto" dominant-baseline="auto" enable-background="accumulate" image-rendering="auto" opacity=".1" shape-rendering="auto" solid-color="#000000" style="font-feature-settings:normal;font-variant-alternates:normal;font-variant-caps:normal;font-variant-ligatures:normal;font-variant-numeric:normal;font-variant-position:normal;isolation:auto;mix-blend-mode:normal;shape-padding:0;text-decoration-color:#000000;text-decoration-line:none;text-decoration-style:solid;text-indent:0;text-orientation:mixed;text-transform:none;white-space:normal"/>
   <path d="m336.13 188.5c1.1116 0 1.9868 0.0256 2.707 0.14648 0.72019 0.1209 1.3105 0.34863 1.7422 0.7793 0.43169 0.43067 0.65954 1.0197 0.7793 1.7402 0.11977 0.72049 0.14217 1.5967 0.13672 2.7109v6.123 6.125c5e-3 1.1131-0.017 1.989-0.13672 2.709-0.11976 0.72051-0.3476 1.3096-0.7793 1.7402-0.43169 0.43067-1.022 0.6584-1.7422 0.7793-0.7202 0.12089-1.5954 0.14648-2.707 0.14648h-8.2695c-1.1116 0-1.9864-0.0255-2.7051-0.14648-0.7187-0.12095-1.3062-0.34848-1.7363-0.7793-0.4301-0.43083-0.6566-1.0185-0.77735-1.7383-0.12074-0.71979-0.14648-1.5971-0.14648-2.7109v-6.125-6.125c0-1.1138 0.0257-1.9912 0.14648-2.7109 0.12075-0.71979 0.34725-1.3074 0.77735-1.7383 0.4301-0.43082 1.0176-0.65835 1.7363-0.7793 0.7187-0.12094 1.5935-0.14648 2.7051-0.14648z" color="#000000" enable-background="accumulate" fill="url(#linearGradient916)"/>
   <path d="m331 197v2.75c1e-5 0.1385 0.1115 0.25 0.25 0.25h1.5c0.1385 0 0.25-0.1115 0.25-0.25v-2.75zm0.5 1.5h1v1h-1z" color="#000000" enable-background="accumulate" opacity=".2"/>
   <path d="m332 189v1h1v-1zm0 1h-1v1h1zm0 1v1h1v-1zm0 1h-1v1h1zm0 1v1h1v-1zm0 1h-1v1h1zm0 1v1h1v-1z" color="#000000" enable-background="accumulate" opacity=".2"/>
   <path d="m331 196v2.75c1e-5 0.1385 0.1115 0.25 0.25 0.25h1.5c0.1385 0 0.25-0.1115 0.25-0.25v-2.75zm0.5 1.5h1v1h-1z" color="#000000" enable-background="accumulate" fill="#fff"/>
   <path d="m332 189h-1v1h1zm0 1v1h1v-1zm0 1h-1v1h1zm0 1v1h1v-1zm0 1h-1v1h1zm0 1v1h1v-1z" color="#000000" enable-background="accumulate" fill="#fff"/>
   <path d="m333.85 200.07c0.53755 1.4678-2.6765 1.5903-2.7745 2.8252-0.0644 0.80986 0.29361 1.2921 1.5094 2.0523-1.7129-2.3266 1.9466-2.8366 1.2649-4.8775z" clip-rule="evenodd" enable-background="new" fill="#fff" fill-rule="evenodd" stroke="#fff" stroke-linecap="round" stroke-width=".13349"/>
   <path d="m334.95 205.07c-0.14299 3.3e-4 -0.2948 0.0201-0.45058 0.0639-0.12482 0.0352-0.1904 0.1174-0.1904 0.1174s0.0789-0.0253 0.25496-0.0547c0.71987-0.11981 0.74081 1.2702-0.47915 1.6952-0.0102 0.022-0.0447 0.0467-0.0447 0.0467 2.6526-0.55696 2.074-1.8703 0.90973-1.8686z" clip-rule="evenodd" enable-background="new" fill="#fff" fill-rule="evenodd" stroke="#fff" stroke-linecap="round" stroke-width=".1328"/>
   <path d="m330.42 205.51c-0.13719-3e-3 -0.73021 6e-3 -1.4388 0.35391-0.95809 0.47049 2.0227 2.139 4.0922 0.22465 0.1791-0.12414 0.4265-0.23193 0.4265-0.23193s-0.70461 0.12794-1.4067 0.18778c-0.85934 0.0733-1.7811 0.0877-2.2438 0.0248-1.0955-0.14876 0.60057-0.55796 0.60057-0.55796s-0.0102-4.8e-4 -0.03-2e-3z" clip-rule="evenodd" enable-background="new" fill="#fff" fill-rule="evenodd" stroke="#fff" stroke-linecap="round" stroke-width=".11757"/>
   <path d="m329.62 205.84c-1.6548 1.2637 0.92118 2.6977 3.2339 1.1412-0.24574-0.19921-0.40175-0.564-0.40175-0.564-1.1308 0.50071-1.7839 0.48472-2.6112 0.28818-0.63961-0.1521-0.22094-0.86534-0.22094-0.86534z" clip-rule="evenodd" enable-background="new" fill="#fff" fill-rule="evenodd" stroke="#fff" stroke-linecap="round" stroke-width=".18529"/>
   <path d="m330.27 207.16c-1.435 0.40723 0.87312 1.2484 2.7003 0.45334-0.29926-0.11812-0.51392-0.25447-0.51392-0.25447-0.8148 0.15642-1.1928 0.16873-1.9324 0.083-0.61041-0.0712-0.25398-0.28185-0.25398-0.28185z" clip-rule="evenodd" enable-background="new" fill="#fff" fill-rule="evenodd" stroke="#fff" stroke-linecap="round" stroke-width=".11757"/>
   <path d="m329.29 208.09c-0.64197 0.0296-1.8975 0.89497-0.7493 1.1743 3.7109 0.90168 6.7645-0.40612 5.802-1.0571 0 0 0.26288 0.32494-0.28949 0.57613-1.0504 0.47693-4.3727 0.62079-5.2955 0.0189-0.33147-0.21644 0.29043-0.51642 0.48609-0.57977 0.20404-0.066 0.32054-0.0538 0.32054-0.0538-0.0576-0.0608-0.15552-0.0841-0.27442-0.0784z" clip-rule="evenodd" enable-background="new" fill="#fff" fill-rule="evenodd" stroke="#fff" stroke-linecap="round" stroke-width=".14229"/>
   <path d="m334.92 208.03s-0.11507 0.6424-1.3611 1.1522c-1.4057 0.57545-3.1398 0.50837-4.1679 0.13931 0 0 0.21061 0.37913 1.2929 0.53062 1.6467 0.22896 4.1762-0.12736 4.2361-1.822z" clip-rule="evenodd" enable-background="new" fill="#fff" fill-rule="evenodd" stroke="#fff" stroke-linecap="round" stroke-width=".16858"/>
   <path d="m323 200v6.125c-0.0217 4.421 0.45314 4.875 4.8652 4.875h8.2695c4.4121 0 4.8652-0.45393 4.8652-4.875v-6.125z" color="#000000" enable-background="accumulate" fill="#fff" opacity=".08"/>
   <path d="m332 189v22h4.1348c4.4121 0 4.8652-0.45393 4.8652-4.875v-6.125-6.125c0-4.4211-0.45314-4.875-4.8652-4.875z" color="#000000" enable-background="accumulate" fill="#fff" opacity=".08"/>
   <path d="m327.87 188.5c-1.1116 0-1.9868 0.0256-2.707 0.14648-0.72019 0.1209-1.3105 0.34863-1.7422 0.7793-0.43169 0.43067-0.65954 1.0197-0.7793 1.7402-0.11977 0.72049-0.14217 1.5967-0.13672 2.7109v6.123 6.125c-5e-3 1.1131 0.017 1.989 0.13672 2.709 0.11976 0.72051 0.3476 1.3096 0.7793 1.7402 0.43169 0.43067 1.022 0.6584 1.7422 0.7793 0.7202 0.12089 1.5954 0.14648 2.707 0.14648h8.2695c1.1116 0 1.9864-0.0255 2.7051-0.14648 0.7187-0.12095 1.3062-0.34848 1.7363-0.7793 0.4301-0.43083 0.6566-1.0185 0.77735-1.7383 0.12074-0.71979 0.14648-1.5971 0.14648-2.7109v-6.125-6.125c0-1.1138-0.0257-1.9912-0.14648-2.7109-0.12075-0.71979-0.34725-1.3074-0.77735-1.7383-0.4301-0.43082-1.0176-0.65835-1.7363-0.7793-0.7187-0.12094-1.5935-0.14648-2.7051-0.14648z" color="#000000" enable-background="accumulate" fill="none" opacity=".4" stroke="#000"/>
   <path transform="translate(1.5262e-6)" d="m327.87 189c-4.4121 0-4.8868 0.45318-4.8652 4.8742v6.1258 6.1258c-0.0217 4.421 0.45311 4.8742 4.8652 4.8742h8.2696c4.4121 0 4.8652-0.45312 4.8652-4.8742v-6.1258-6.1258c0-4.4211-0.45312-4.8742-4.8652-4.8742z" clip-path="url(#clipPath971-7)" color="#000000" enable-background="accumulate" fill="none" opacity=".4" stroke="url(#linearGradient981)" stroke-width="2"/>
  </g>
 </g>
</svg>
