<svg width="24" height="24" version="1.1" xmlns="http://www.w3.org/2000/svg" xmlns:xlink="http://www.w3.org/1999/xlink">
 <defs>
  <linearGradient id="linearGradient981-3" x1="332" x2="332" y1="189" y2="211" gradientTransform="translate(-320,-188)" gradientUnits="userSpaceOnUse">
   <stop stop-color="#fff" offset="0"/>
   <stop stop-color="#fff" stop-opacity=".098039" offset=".125"/>
   <stop stop-color="#fff" stop-opacity=".098039" offset=".925"/>
   <stop stop-color="#fff" stop-opacity=".49804" offset="1"/>
  </linearGradient>
  <linearGradient id="linearGradient967" x1="184" x2="152" y1="48" y2="79.998" gradientTransform="matrix(.078135 0 0 .078126 4.1232 -.25006)" gradientUnits="userSpaceOnUse">
   <stop stop-color="#3da89d" offset="0"/>
   <stop stop-color="#49cbbd" offset="1"/>
  </linearGradient>
 </defs>
 <path d="m7.8652 1c-1.1201 0-2.0152 0.0241-2.791 0.1543-0.77577 0.13022-1.4801 0.38763-2.0098 0.91601-0.52962 0.52838-0.79079 1.2369-0.91992 2.0137-0.12912 0.77681-0.15002 1.6717-0.14453 2.7949v6.1211 6.125c-5e-3 1.121 0.0156 2.0153 0.14453 2.791 0.12912 0.77681 0.39029 1.4853 0.91992 2.0137 0.52964 0.52838 1.234 0.78579 2.0098 0.91601s1.6709 0.1543 2.791 0.1543h8.2695c1.1201 0 2.0126-0.024 2.7871-0.1543 0.77446-0.13033 1.48-0.38927 2.0078-0.91797 0.5278-0.52869 0.78594-1.2344 0.91601-2.0098 0.13007-0.77539 0.1543-1.6706 0.1543-2.793v-6.125-6l-6-6z" color="#000000" color-rendering="auto" dominant-baseline="auto" image-rendering="auto" opacity=".1" shape-rendering="auto" solid-color="#000000" style="font-feature-settings:normal;font-variant-alternates:normal;font-variant-caps:normal;font-variant-ligatures:normal;font-variant-numeric:normal;font-variant-position:normal;isolation:auto;mix-blend-mode:normal;shape-padding:0;text-decoration-color:#000000;text-decoration-line:none;text-decoration-style:solid;text-indent:0;text-orientation:mixed;text-transform:none;white-space:normal"/>
 <path d="m7.636 0.49999c-4.657 0-5.1581 0.47378-5.1353 5.0957v6.4042 6.4043c-0.0229 4.622 0.47827 5.0957 5.1353 5.0957h8.7287c4.657 0 5.1353-0.47372 5.1353-5.0957v-6.4043-6.2727l-5.2776-5.2273z" color="#000000" fill="#067569"/>
 <g transform="matrix(.098206 0 0 .098206 29.692 13.855)" enable-background="new" fill="#fff">
  <path d="m-166.15-31.812h39.999v80h-39.999v-8h31.999v-4h-31.999v-8h31.999v-4h-31.999v-8h31.999v-4h-31.999v-8h31.999v-28h-31.999z" enable-background="new" stroke-width="1.3333"/>
  <path d="m-175.62-47.812c-19.506 3.4736-39.022 8.0822-58.527 11.492 0 29.672-0.0124 59.356 2.6e-4 89.041 19.404 3.3972 38.818 7.9296 58.184 11.467h5.8125l-2.6e-4 -112zm-29.35 31.268c3.8483-0.0817 7.541 0.47221 10.541 3.1855 5.7467 6.9734 4.227 19.799-4.293 23.973-3.0267 1.5467-6.4938 1.3352-9.7871 1.2285-0.0133 5.2133-0.027 10.425-0.0137 15.639-2.64-0.22666-5.2916-0.45269-7.9316-0.66602-0.12001-14.24-0.14828-27.835 0.0117-42.075 3.7546-0.46779 7.6243-1.2029 11.473-1.2846zm-0.44336 7.7266c-1.0502-0.0281-2.1244 0.0683-3.1094 0.11328-0.04 4.48-0.0652 8.9454 0.21484 13.412 2.6533-0.32 6.0933-0.0522 7.6133-2.7988 1.2667-2.6933 1.3462-6.1347-0.17383-8.748-1.1083-1.5417-2.7947-1.9316-4.5449-1.9785z" enable-background="new" stroke-width="1.3333"/>
 </g>
 <path d="m3 12v6.125c-0.0217 4.421 0.45314 4.875 4.8652 4.875h8.2695c4.4121 0 4.8652-0.45393 4.8652-4.875v-6.125z" color="#000000" fill="#fff" opacity=".1"/>
 <path d="m12 1v22h4.1348c4.4121 0 4.8652-0.45393 4.8652-4.875v-6.125-6l-5-5z" color="#000000" fill="#fff" opacity=".1"/>
 <path d="m7.8652 0c-1.1201 0-2.0152 0.0241-2.791 0.1543-0.77577 0.13022-1.4801 0.38763-2.0098 0.91601-0.52962 0.52838-0.79079 1.2369-0.91992 2.0137-0.12912 0.77681-0.15002 1.6717-0.14453 2.7949v6.1211 6.125c-5e-3 1.121 0.0156 2.0153 0.14453 2.791 0.12912 0.77681 0.39029 1.4853 0.91992 2.0137 0.52964 0.52838 1.234 0.78579 2.0098 0.91601s1.6709 0.1543 2.791 0.1543h8.2695c1.1201 0 2.0126-0.024 2.7871-0.1543 0.77445-0.13033 1.48-0.38927 2.0078-0.91797 0.5278-0.52869 0.78594-1.2344 0.91601-2.0098 0.13007-0.77539 0.1543-1.6706 0.1543-2.793v-6.125-6.5391l-5.4512-5.4609zm0 1h8.1348l5 5v6 6.125c0 4.4211-0.45314 4.875-4.8652 4.875h-8.2695c-4.4121 0-4.8869-0.45399-4.8652-4.875v-6.125-6.125c-0.0216-4.421 0.45314-4.875 4.8652-4.875z" color="#000000" color-rendering="auto" dominant-baseline="auto" image-rendering="auto" opacity=".4" shape-rendering="auto" solid-color="#000000" style="font-feature-settings:normal;font-variant-alternates:normal;font-variant-caps:normal;font-variant-ligatures:normal;font-variant-numeric:normal;font-variant-position:normal;isolation:auto;mix-blend-mode:normal;shape-padding:0;text-decoration-color:#000000;text-decoration-line:none;text-decoration-style:solid;text-indent:0;text-orientation:mixed;text-transform:none;white-space:normal"/>
 <path d="m7.8652 1c-4.4121 0-4.8868 0.45399-4.8652 4.875v6.125 6.125c-0.0217 4.421 0.45314 4.875 4.8652 4.875h8.2695c4.4121 0 4.8652-0.45393 4.8652-4.875v-6.125-6l-5-5zm0 1h8.1348l4 4v6 6.125c0 1.0882-0.0322 1.9099-0.125 2.4629s-0.22434 0.78856-0.36133 0.92578-0.37244 0.26659-0.92383 0.35938c-0.55138 0.0928-1.3692 0.12695-2.4551 0.12695h-8.2695c-1.0859 0-1.9055-0.0341-2.459-0.12695-0.55348-0.0929-0.79182-0.22184-0.92969-0.35938-0.13786-0.13754-0.26769-0.37421-0.35937-0.92578-0.0917-0.55157-0.12253-1.3698-0.11719-2.457v-2e-3 -6.1289-6.1289-2e-3c-5e-3 -1.0873 0.0255-1.9055 0.11719-2.457 0.0917-0.55157 0.22151-0.78824 0.35937-0.92578 0.13787-0.13754 0.37622-0.26647 0.92969-0.35938 0.55347-0.0929 1.3731-0.12695 2.459-0.12695z" color="#000000" color-rendering="auto" dominant-baseline="auto" fill="url(#linearGradient981-3)" image-rendering="auto" opacity=".4" shape-rendering="auto" solid-color="#000000" style="font-feature-settings:normal;font-variant-alternates:normal;font-variant-caps:normal;font-variant-ligatures:normal;font-variant-numeric:normal;font-variant-position:normal;isolation:auto;mix-blend-mode:normal;shape-padding:0;text-decoration-color:#000000;text-decoration-line:none;text-decoration-style:solid;text-indent:0;text-orientation:mixed;text-transform:none;white-space:normal"/>
 <path d="m21 7v-1l-5-5h-1v2.2958 0.088 0.0472c0 3.1047 0.41561 3.5834 3.5274 3.5682z" color="#000000" fill="#00492b" opacity=".6"/>
 <path d="m21 5.9996-5-4.9996v1.7968 0.0781 0.0419c0 2.7574 0.28331 3.0963 3.0467 3.0828z" color="#000000" fill="url(#linearGradient967)"/>
</svg>
