<svg xmlns:dc="http://purl.org/dc/elements/1.1/" xmlns:cc="http://creativecommons.org/ns#" xmlns:rdf="http://www.w3.org/1999/02/22-rdf-syntax-ns#" xmlns:svg="http://www.w3.org/2000/svg" xmlns="http://www.w3.org/2000/svg" xmlns:xlink="http://www.w3.org/1999/xlink" style="display:inline;enable-background:new" version="1.0" id="svg11300" height="25" width="24">
  <title id="title3004">Suru Icon Theme Template</title>
  <defs id="defs3">
    <linearGradient y2="207.36522" x2="35.310345" y1="419.23337" x1="459.03448" gradientTransform="matrix(0,-0.05664062,0.05663901,0,314.2547,214)" gradientUnits="userSpaceOnUse" id="linearGradient916" xlink:href="#linearGradient4338"/>
    <linearGradient id="linearGradient4338">
      <stop id="stop4340" offset="0" style="stop-color:#f2f2f2;stop-opacity:1"/>
      <stop id="stop4342" offset="1" style="stop-color:#f9f9f9;stop-opacity:1"/>
    </linearGradient>
    <linearGradient gradientUnits="userSpaceOnUse" y2="211" x2="332" y1="189" x1="332" id="linearGradient981" xlink:href="#linearGradient927"/>
    <linearGradient id="linearGradient927">
      <stop id="stop923" offset="0" style="stop-color:#ffffff;stop-opacity:1;"/>
      <stop style="stop-color:#ffffff;stop-opacity:0.09803922" offset="0.125" id="stop933"/>
      <stop style="stop-color:#ffffff;stop-opacity:0.09803922" offset="0.92500001" id="stop931"/>
      <stop id="stop925" offset="1" style="stop-color:#ffffff;stop-opacity:0.49803922"/>
    </linearGradient>
    <clipPath id="clipPath971-3" clipPathUnits="userSpaceOnUse">
      <path id="path973-6" d="m 327.8652,189 c -4.41209,0 -4.88682,0.45318 -4.8652,4.87419 V 200 206.12581 C 322.9783,210.54682 323.45311,211 327.8652,211 h 8.2696 C 340.54689,211 341,210.54688 341,206.12581 V 200 193.87419 C 341,189.45313 340.54688,189 336.13479,189 Z" style="color:#000000;display:inline;overflow:visible;visibility:visible;opacity:1;fill:#46a926;fill-opacity:1;fill-rule:nonzero;stroke:none;stroke-width:2;stroke-miterlimit:4;stroke-dasharray:none;stroke-opacity:1;marker:none;enable-background:accumulate"/>
    </clipPath>
  </defs>
  <metadata id="metadata4">
    <rdf:RDF>
      <cc:Work rdf:about="">
        <dc:format>image/svg+xml</dc:format>
        <dc:type rdf:resource="http://purl.org/dc/dcmitype/StillImage"/>
        <dc:creator>
          <cc:Agent>
            <dc:title>Sam Hewitt</dc:title>
          </cc:Agent>
        </dc:creator>
        <dc:source/>
        <cc:license rdf:resource="http://creativecommons.org/licenses/by-sa/4.0/"/>
        <dc:title>Suru Icon Theme Template</dc:title>
        <dc:subject>
          <rdf:Bag/>
        </dc:subject>
        <dc:date/>
        <dc:rights>
          <cc:Agent>
            <dc:title/>
          </cc:Agent>
        </dc:rights>
        <dc:publisher>
          <cc:Agent>
            <dc:title/>
          </cc:Agent>
        </dc:publisher>
        <dc:identifier/>
        <dc:relation/>
        <dc:language/>
        <dc:coverage/>
        <dc:description/>
        <dc:contributor>
          <cc:Agent>
            <dc:title/>
          </cc:Agent>
        </dc:contributor>
      </cc:Work>
      <cc:Work rdf:about="">
        <dc:format>image/svg+xml</dc:format>
        <dc:type rdf:resource="http://purl.org/dc/dcmitype/StillImage"/>
      </cc:Work>
      <cc:License rdf:about="http://creativecommons.org/licenses/by-sa/4.0/">
        <cc:permits rdf:resource="http://creativecommons.org/ns#Reproduction"/>
        <cc:permits rdf:resource="http://creativecommons.org/ns#Distribution"/>
        <cc:requires rdf:resource="http://creativecommons.org/ns#Notice"/>
        <cc:requires rdf:resource="http://creativecommons.org/ns#Attribution"/>
        <cc:permits rdf:resource="http://creativecommons.org/ns#DerivativeWorks"/>
        <cc:requires rdf:resource="http://creativecommons.org/ns#ShareAlike"/>
      </cc:License>
    </rdf:RDF>
  </metadata>
  <g transform="translate(-89.82337,-203.35429)" id="layer1" style="display:inline">
    <g id="layer7" style="display:inline"/>
    <g style="display:inline" id="layer4"/>
    <g style="display:inline" id="layer2"/>
    <g style="display:inline" id="layer6"/>
    <g style="display:inline" id="layer3"/>
    <g id="layer8">
      <text id="text161" y="77.856834" x="325.93442" style="font-style:normal;font-variant:normal;font-weight:normal;font-stretch:normal;font-size:48px;line-height:1.25;font-family:ubuntu;-inkscape-font-specification:ubuntu;letter-spacing:0px;word-spacing:0px;fill:#000000;fill-opacity:1;stroke:none" xml:space="preserve"/>
      <flowRoot style="font-style:normal;font-variant:normal;font-weight:normal;font-stretch:normal;font-size:47.20000076px;line-height:1.25;font-family:ubuntu;-inkscape-font-specification:ubuntu;letter-spacing:0px;word-spacing:0px;fill:#000000;fill-opacity:1;stroke:none" id="flowRoot238" xml:space="preserve"><flowRegion style="font-size:47.20000076px" id="flowRegion240"><rect style="font-size:47.20000076px" y="207.5959" x="64.216179" height="45.362007" width="175.47444" id="rect242"/></flowRegion><flowPara id="flowPara244"/></flowRoot>    </g>
    <g style="display:inline" id="layer5">
      <g id="g5934" style="display:inline;enable-background:new" transform="translate(-230.17663,15.354295)">
        <rect style="display:inline;overflow:visible;visibility:visible;opacity:0;fill:#cdcdcd;fill-opacity:1;fill-rule:nonzero;stroke:none;stroke-width:2;marker:none;enable-background:accumulate" id="rect24x24" width="24" height="24" x="320" y="188"/>
        <path style="color:#000000;font-style:normal;font-variant:normal;font-weight:normal;font-stretch:normal;font-size:medium;line-height:normal;font-family:sans-serif;font-variant-ligatures:normal;font-variant-position:normal;font-variant-caps:normal;font-variant-numeric:normal;font-variant-alternates:normal;font-feature-settings:normal;text-indent:0;text-align:start;text-decoration:none;text-decoration-line:none;text-decoration-style:solid;text-decoration-color:#000000;letter-spacing:normal;word-spacing:normal;text-transform:none;writing-mode:lr-tb;direction:ltr;text-orientation:mixed;dominant-baseline:auto;baseline-shift:baseline;text-anchor:start;white-space:normal;shape-padding:0;clip-rule:nonzero;display:inline;overflow:visible;visibility:visible;opacity:0.1;isolation:auto;mix-blend-mode:normal;color-interpolation:sRGB;color-interpolation-filters:linearRGB;solid-color:#000000;solid-opacity:1;vector-effect:none;fill:#000000;fill-opacity:1;fill-rule:nonzero;stroke:none;stroke-width:2;stroke-linecap:butt;stroke-linejoin:miter;stroke-miterlimit:4;stroke-dasharray:none;stroke-dashoffset:0;stroke-opacity:1;marker:none;color-rendering:auto;image-rendering:auto;shape-rendering:auto;text-rendering:auto;enable-background:accumulate" d="m 327.86523,189 c -1.12014,0 -2.01524,0.0241 -2.79101,0.1543 -0.77577,0.13022 -1.48014,0.38763 -2.00977,0.91601 -0.52962,0.52838 -0.79079,1.23687 -0.91992,2.01367 -0.12912,0.77681 -0.15002,1.67169 -0.14453,2.79493 V 201 v 6.125 c -0.005,1.12104 0.0156,2.01529 0.14453,2.79102 0.12912,0.77681 0.39029,1.48529 0.91992,2.01367 0.52964,0.52838 1.234,0.78579 2.00977,0.91601 0.77577,0.13022 1.67087,0.1543 2.79101,0.1543 h 8.26954 c 1.12013,0 2.01264,-0.024 2.78711,-0.1543 0.77446,-0.13033 1.48001,-0.38927 2.00781,-0.91797 0.5278,-0.52869 0.78594,-1.23438 0.91601,-2.00976 C 341.97577,209.14258 342,208.24735 342,207.125 V 201 194.875 c 0,-1.12235 -0.0242,-2.01758 -0.1543,-2.79297 -0.13007,-0.77538 -0.38821,-1.48107 -0.91601,-2.00976 -0.5278,-0.5287 -1.23334,-0.78764 -2.00781,-0.91797 C 338.1474,189.02397 337.25491,189 336.13477,189 Z" id="path995"/>
        <path style="color:#000000;display:inline;overflow:visible;visibility:visible;opacity:0.2;fill:none;fill-opacity:1;fill-rule:nonzero;stroke:#000000;stroke-width:2;stroke-miterlimit:4;stroke-dasharray:none;stroke-opacity:1;marker:none;enable-background:accumulate" d="m 327.8652,189 c -4.41209,0 -4.88682,0.45318 -4.8652,4.87419 V 200 206.12581 C 322.9783,210.54682 323.45311,211 327.8652,211 h 8.2696 C 340.54689,211 341,210.54688 341,206.12581 V 200 193.87419 C 341,189.45313 340.54688,189 336.13479,189 Z" id="path926"/>
        <path id="path914" d="m 327.8652,189 c -4.41209,0 -4.88682,0.45318 -4.8652,4.87419 V 200 206.12581 C 322.9783,210.54682 323.45311,211 327.8652,211 h 8.2696 C 340.54689,211 341,210.54688 341,206.12581 V 200 193.87419 C 341,189.45313 340.54688,189 336.13479,189 Z" style="color:#000000;display:inline;overflow:visible;visibility:visible;fill:url(#linearGradient916);fill-opacity:1;fill-rule:nonzero;stroke:none;stroke-width:1;marker:none;enable-background:accumulate"/>
        <path style="color:#000000;font-style:normal;font-variant:normal;font-weight:normal;font-stretch:normal;font-size:medium;line-height:normal;font-family:sans-serif;font-variant-ligatures:normal;font-variant-position:normal;font-variant-caps:normal;font-variant-numeric:normal;font-variant-alternates:normal;font-feature-settings:normal;text-indent:0;text-align:start;text-decoration:none;text-decoration-line:none;text-decoration-style:solid;text-decoration-color:#000000;letter-spacing:normal;word-spacing:normal;text-transform:none;writing-mode:lr-tb;direction:ltr;text-orientation:mixed;dominant-baseline:auto;baseline-shift:baseline;text-anchor:start;white-space:normal;shape-padding:0;clip-rule:nonzero;display:inline;overflow:visible;visibility:visible;opacity:0.8;isolation:auto;mix-blend-mode:normal;color-interpolation:sRGB;color-interpolation-filters:linearRGB;solid-color:#000000;solid-opacity:1;vector-effect:none;fill:#ec3c50;fill-opacity:1;fill-rule:evenodd;stroke:none;stroke-width:1px;stroke-linecap:butt;stroke-linejoin:round;stroke-miterlimit:4;stroke-dasharray:none;stroke-dashoffset:0;stroke-opacity:1;color-rendering:auto;image-rendering:auto;shape-rendering:auto;text-rendering:auto;enable-background:accumulate" d="m 336.4118,190.95973 c -0.11528,-0.008 -0.25052,0.002 -0.41015,0.0156 l -6.20899,1.125 c -0.81332,0.0828 -0.90176,0.46246 -0.89453,0.93554 v 8.51953 c -0.41338,-0.27155 -0.85577,-0.46484 -1.44531,-0.46484 -0.75911,0 -1.21229,0.29098 -1.48633,0.67383 -0.27403,0.38285 -0.36524,0.86524 -0.36524,1.23828 0,0.44983 0.15511,0.92907 0.48829,1.29492 0.33318,0.36585 0.84551,0.62304 1.58203,0.62305 0.83169,0 1.41537,-0.23199 1.74609,-0.68555 0.26039,-0.35711 0.40565,-0.83534 0.45703,-1.42383 0.007,-0.0714 0.0111,-0.14515 0.0156,-0.2207 0.004,-0.0599 0.003,-0.1018 0.004,-0.17187 h 0.004 v -6.70313 c 0.0221,-0.61938 0.58398,-0.71094 0.58398,-0.71094 l 4.85352,-0.91406 c 0.56193,-0.17179 0.5625,0.52343 0.5625,0.52343 v 5.94141 c -0.41338,-0.27156 -0.85577,-0.46484 -1.44531,-0.46485 -0.75911,0 -1.21229,0.29098 -1.48633,0.67383 -0.27403,0.38285 -0.36524,0.86525 -0.36524,1.23828 0,0.44983 0.15511,0.92907 0.48829,1.29493 0.33318,0.36585 0.84551,0.62303 1.58203,0.62304 0.83169,0 1.41537,-0.23198 1.74609,-0.68554 0.26039,-0.35711 0.40565,-0.83535 0.45703,-1.42383 0.007,-0.0714 0.0111,-0.14515 0.0156,-0.22071 0.004,-0.0599 0.003,-0.1018 0.004,-0.17187 h 0.004 v -9.56836 c 0.0119,-0.68564 -0.14049,-0.86619 -0.48633,-0.89062 z" id="path1954"/>
        <path style="color:#000000;display:inline;overflow:visible;visibility:visible;opacity:0.2;fill:#ffffff;fill-opacity:1;fill-rule:nonzero;stroke:none;stroke-width:1;marker:none;enable-background:accumulate" d="m 323,200 v 6.125 c -0.0217,4.42101 0.45314,4.875 4.86523,4.875 h 8.26954 C 340.54686,211 341,210.54607 341,206.125 V 200 Z" id="path1007"/>
        <path style="color:#000000;display:inline;overflow:visible;visibility:visible;opacity:0.2;fill:#ffffff;fill-opacity:1;fill-rule:nonzero;stroke:none;stroke-width:1;marker:none;enable-background:accumulate" d="m 332,189 v 22 h 4.13477 C 340.54686,211 341,210.54607 341,206.125 V 200 193.875 C 341,189.45394 340.54686,189 336.13477,189 Z" id="path1014"/>
        <path id="path139-6" style="font-style:normal;font-variant:normal;font-weight:normal;font-stretch:normal;font-size:6.96480894px;line-height:1.25;font-family:ubuntu;-inkscape-font-specification:ubuntu;letter-spacing:0px;word-spacing:0px;display:inline;fill:#888888;fill-opacity:1;stroke:none;stroke-width:0.68460792;enable-background:new" d="m 326.9057,206.24228 q 0.17526,-0.0438 0.46005,-0.0931 0.29028,-0.0493 0.66818,-0.0493 0.27385,0 0.46006,0.0767 0.18622,0.0712 0.31218,0.21359 0.0383,-0.0274 0.12049,-0.0767 0.0822,-0.0493 0.20264,-0.0931 0.1205,-0.0493 0.26837,-0.0821 0.14788,-0.0383 0.31766,-0.0383 0.32862,0 0.53673,0.0986 0.20812,0.0931 0.32314,0.26836 0.12049,0.17526 0.15883,0.41624 0.0438,0.24098 0.0438,0.52578 v 1.59924 h -0.50935 v -1.48971 q 0,-0.25195 -0.0274,-0.43268 -0.0219,-0.18073 -0.0931,-0.30123 -0.0657,-0.12049 -0.18622,-0.17526 -0.11502,-0.0602 -0.30123,-0.0602 -0.25741,0 -0.4272,0.0712 -0.1643,0.0657 -0.22454,0.12048 0.0438,0.1424 0.0657,0.31219 0.0219,0.16978 0.0219,0.35599 v 1.59924 h -0.50934 v -1.48967 q 0,-0.25195 -0.0274,-0.43268 -0.0274,-0.18073 -0.0986,-0.30123 -0.0657,-0.12049 -0.18622,-0.17526 -0.11501,-0.0602 -0.29575,-0.0602 -0.0767,0 -0.1643,0.005 -0.0876,0.006 -0.16978,0.0164 -0.0767,0.005 -0.14241,0.0164 -0.0657,0.0109 -0.0876,0.0164 v 2.40434 h -0.50935 z"/>
        <path id="path141-7" style="font-style:normal;font-variant:normal;font-weight:normal;font-stretch:normal;font-size:6.96480894px;line-height:1.25;font-family:ubuntu;-inkscape-font-specification:ubuntu;letter-spacing:0px;word-spacing:0px;display:inline;fill:#888888;fill-opacity:1;stroke:none;stroke-width:0.68460792;enable-background:new" d="m 333.60022,207.58959 q 0,-0.49839 -0.24645,-0.76676 -0.24646,-0.26837 -0.65723,-0.26837 -0.23002,0 -0.36147,0.0164 -0.12597,0.0164 -0.20265,0.0384 v 1.79641 q 0.0931,0.0767 0.26837,0.14787 0.17526,0.0712 0.38339,0.0712 0.21907,0 0.37242,-0.0767 0.15883,-0.0821 0.25741,-0.21907 0.0986,-0.14241 0.1424,-0.32862 0.0438,-0.19169 0.0438,-0.41076 z m 0.53126,0 q 0,0.32313 -0.0876,0.59698 -0.0822,0.27384 -0.24646,0.47101 -0.16431,0.19717 -0.40529,0.3067 -0.2355,0.10954 -0.54221,0.10954 -0.24645,0 -0.43814,-0.0657 -0.18622,-0.0657 -0.27933,-0.12597 v 1.13919 h -0.50934 v -3.77356 q 0.18073,-0.0438 0.4491,-0.0931 0.27384,-0.0547 0.62984,-0.0547 0.32861,0 0.5915,0.10406 0.26289,0.10406 0.44911,0.29575 0.18621,0.19169 0.28479,0.47101 0.10406,0.27384 0.10406,0.61889 z"/>
        <path id="path143-5" style="font-style:normal;font-variant:normal;font-weight:normal;font-stretch:normal;font-size:6.96480894px;line-height:1.25;font-family:ubuntu;-inkscape-font-specification:ubuntu;letter-spacing:0px;word-spacing:0px;display:inline;fill:#888888;fill-opacity:1;stroke:none;stroke-width:0.68460792;enable-background:new" d="m 335.65319,208.63567 q 0.48744,0 0.69557,-0.19169 0.2136,-0.19169 0.2136,-0.51482 0,-0.20813 -0.0876,-0.35052 -0.0876,-0.1424 -0.23002,-0.22456 -0.14241,-0.0876 -0.3341,-0.12048 -0.18621,-0.0384 -0.38337,-0.0384 h -0.13145 v -0.41623 h 0.18074 q 0.13692,0 0.27931,-0.0274 0.14788,-0.0274 0.26837,-0.0986 0.1205,-0.0712 0.19717,-0.19169 0.0767,-0.12597 0.0767,-0.31218 0,-0.15335 -0.0547,-0.26289 -0.0548,-0.10954 -0.14788,-0.18074 -0.0876,-0.0712 -0.20812,-0.0986 -0.11501,-0.0329 -0.24646,-0.0329 -0.26289,0 -0.4491,0.0767 -0.18074,0.0767 -0.3067,0.15882 l -0.19717,-0.38885 q 0.0657,-0.0438 0.1643,-0.0931 0.10406,-0.0547 0.23003,-0.0986 0.12597,-0.0438 0.26837,-0.0712 0.14788,-0.0329 0.30671,-0.0329 0.30122,0 0.5203,0.0767 0.21907,0.0712 0.36147,0.20812 0.1424,0.13144 0.2136,0.31766 0.0712,0.18073 0.0712,0.39433 0,0.29575 -0.16978,0.50935 -0.16978,0.20812 -0.41077,0.31766 0.14788,0.0438 0.2848,0.12597 0.13692,0.0822 0.23551,0.20812 0.10406,0.12597 0.1643,0.29027 0.0657,0.16431 0.0657,0.36695 0,0.24646 -0.0876,0.46006 -0.0822,0.20812 -0.26289,0.36147 -0.17526,0.15335 -0.44363,0.24098 -0.26836,0.0876 -0.63531,0.0876 -0.1424,0 -0.29575,-0.0219 -0.14787,-0.0219 -0.27932,-0.0547 -0.13144,-0.0329 -0.23003,-0.0657 -0.0986,-0.0329 -0.1424,-0.0547 l 0.0986,-0.44362 q 0.0931,0.0438 0.3067,0.11501 0.21907,0.0712 0.53126,0.0712 z"/>
        <path id="path935" d="m 327.8652,189 c -4.41209,0 -4.88682,0.45318 -4.8652,4.87419 V 200 206.12581 C 322.9783,210.54682 323.45311,211 327.8652,211 h 8.2696 C 340.54689,211 341,210.54688 341,206.12581 V 200 193.87419 C 341,189.45313 340.54688,189 336.13479,189 Z" style="color:#000000;display:inline;overflow:visible;visibility:visible;opacity:0.4;fill:none;fill-opacity:1;fill-rule:nonzero;stroke:url(#linearGradient981);stroke-width:2;stroke-miterlimit:4;stroke-dasharray:none;stroke-opacity:1;marker:none;enable-background:accumulate" clip-path="url(#clipPath971-3)"/>
      </g>
    </g>
  </g>
</svg>