<svg width="24" height="24" version="1.1" xmlns="http://www.w3.org/2000/svg" xmlns:xlink="http://www.w3.org/1999/xlink">
 <defs>
  <linearGradient id="linearGradient916" x1="459.03" x2="35.31" y1="419.23" y2="207.37" gradientTransform="matrix(0 -.056641 -.056639 0 29.745 26)" gradientUnits="userSpaceOnUse">
   <stop stop-color="#00c8ff" offset="0"/>
   <stop stop-color="#6bdfff" offset="1"/>
  </linearGradient>
  <linearGradient id="linearGradient1311-3" x1="336" x2="324" y1="188" y2="212" gradientTransform="matrix(-1,0,0,1,344,-188)" gradientUnits="userSpaceOnUse">
   <stop offset="0"/>
   <stop stop-color="#333" offset="1"/>
  </linearGradient>
  <linearGradient id="linearGradient981" x1="332" x2="332" y1="189" y2="211" gradientUnits="userSpaceOnUse">
   <stop stop-color="#fff" offset="0"/>
   <stop stop-color="#fff" stop-opacity=".098039" offset=".125"/>
   <stop stop-color="#fff" stop-opacity=".098039" offset=".925"/>
   <stop stop-color="#fff" stop-opacity=".49804" offset="1"/>
  </linearGradient>
  <clipPath id="clipPath971">
   <path d="m327.87 189c-4.4121 0-4.8868 0.45318-4.8652 4.8742v6.1258 6.1258c-0.0217 4.421 0.45311 4.8742 4.8652 4.8742h8.2696c4.4121 0 4.8652-0.45312 4.8652-4.8742v-6.1258-6.1258c0-4.4211-0.45312-4.8742-4.8652-4.8742z" color="#000000" fill="#46a926"/>
  </clipPath>
 </defs>
 <path d="m7.8652 1c-1.1201 0-2.0152 0.0241-2.791 0.1543-0.77577 0.13022-1.4801 0.38763-2.0098 0.91601-0.52962 0.52838-0.79079 1.2369-0.91992 2.0137-0.12912 0.77681-0.15002 1.6717-0.14453 2.7949v6.1211 5.125c-5e-3 1.121 0.0156 2.0153 0.14453 2.791 0.12912 0.77681 0.39029 1.4853 0.91992 2.0137 0.52964 0.52838 1.234 0.78579 2.0098 0.91601s1.6709 0.1543 2.791 0.1543h8.2695c1.1201 0 2.0126-0.024 2.7871-0.1543 0.77446-0.13033 1.48-0.38927 2.0078-0.91797 0.5278-0.52869 0.78594-1.2344 0.91601-2.0098 0.13007-0.77539 0.1543-1.6706 0.1543-2.793v-5.125-6.125c0-1.1224-0.0242-2.0176-0.1543-2.793-0.13007-0.77538-0.38821-1.4811-0.91601-2.0098-0.5278-0.5287-1.2333-0.78764-2.0078-0.91797-0.77448-0.13033-1.667-0.1543-2.7871-0.1543z" color="#000000" color-rendering="auto" dominant-baseline="auto" image-rendering="auto" opacity=".1" shape-rendering="auto" solid-color="#000000" style="font-feature-settings:normal;font-variant-alternates:normal;font-variant-caps:normal;font-variant-ligatures:normal;font-variant-numeric:normal;font-variant-position:normal;isolation:auto;mix-blend-mode:normal;shape-padding:0;text-decoration-color:#000000;text-decoration-line:none;text-decoration-style:solid;text-indent:0;text-orientation:mixed;text-transform:none;white-space:normal"/>
 <path d="m16.134 0.5c1.1116 0 1.9868 0.0256 2.707 0.14648 0.72019 0.1209 1.3105 0.34863 1.7422 0.7793 0.43169 0.43067 0.65954 1.0197 0.7793 1.7402 0.11977 0.72049 0.14217 1.5967 0.13672 2.7109v6.123 6.125c5e-3 1.1131-0.017 1.989-0.13672 2.709-0.11976 0.72051-0.3476 1.3096-0.7793 1.7402-0.43169 0.43067-1.022 0.6584-1.7422 0.7793-0.7202 0.12089-1.5954 0.14648-2.707 0.14648h-8.2695c-1.1116 0-1.9864-0.0255-2.7051-0.14648-0.7187-0.12095-1.3062-0.34848-1.7363-0.7793-0.4301-0.43083-0.6566-1.0185-0.77735-1.7383-0.12074-0.71979-0.14648-1.5971-0.14648-2.7109v-6.125-6.125c0-1.1138 0.0257-1.9912 0.14648-2.7109 0.12075-0.71979 0.34725-1.3074 0.77735-1.7383 0.4301-0.43082 1.0176-0.65835 1.7363-0.7793 0.7187-0.12094 1.5935-0.14648 2.7051-0.14648z" color="#000000" fill="url(#linearGradient916)"/>
 <path d="m16.135 2c1.0886 0 1.9003 0.0312 2.459 0.125 0.54887 0.0921 0.79683 0.22878 0.93164 0.36328 0.13436 0.13404 0.26642 0.37645 0.35742 0.92383 0.0925 0.55627 0.12219 1.3667 0.11719 2.457v4e-3 6.127 6.1289 2e-3c5e-3 1.0898-0.0249 1.9019-0.11719 2.457-0.091 0.5474-0.22306 0.78979-0.35742 0.92383-0.13484 0.13452-0.38277 0.27118-0.93164 0.36328-0.55862 0.0938-1.3704 0.125-2.459 0.125h-4.1348-4.1348c-1.0886 0-1.9004-0.0312-2.459-0.125-0.54887-0.0921-0.7968-0.22876-0.93164-0.36328-0.13436-0.13404-0.26642-0.37643-0.35742-0.92383-0.0923-0.55513-0.12219-1.3672-0.11719-2.457v-2e-3 -6.129-6.127-4e-3c-5e-3 -1.0903 0.0247-1.9008 0.11719-2.457 0.091-0.54738 0.22306-0.78979 0.35742-0.92383 0.13481-0.1345 0.38277-0.27118 0.93164-0.36328 0.55864-0.0938 1.3704-0.125 2.459-0.125h4.1348z" color="#000000" color-rendering="auto" dominant-baseline="auto" fill="url(#linearGradient1311-3)" image-rendering="auto" shape-rendering="auto" solid-color="#000000" style="font-feature-settings:normal;font-variant-alternates:normal;font-variant-caps:normal;font-variant-ligatures:normal;font-variant-numeric:normal;font-variant-position:normal;isolation:auto;mix-blend-mode:normal;shape-padding:0;text-decoration-color:#000000;text-decoration-line:none;text-decoration-style:solid;text-indent:0;text-orientation:mixed;text-transform:none;white-space:normal"/>
 <path class="st1" d="m7.3496 7.335c0-0.0525 0.105-0.09 0.165-0.09 0.48-0.0225 1.1925-0.0375 1.935-0.0375 2.0775 0 2.8875 1.14 2.8875 2.6025 0 1.905-1.38 2.7225-3.075 2.7225-0.285 0-0.3825-0.015-0.585-0.015v2.88c0 0.06-0.0225 0.09-0.09 0.09h-1.1475c-0.06 0-0.09-0.0225-0.09-0.09zm1.335 3.9825c0.1725 0.015 0.3075 0.015 0.6075 0.015 0.8775 0 1.7025-0.30749 1.7025-1.5 0-0.95251-0.5925-1.4325-1.59-1.4325-0.3 0-0.585 0.015-0.72 0.0225zm6.45-0.8925c-0.5925 0-0.795 0.3-0.795 0.5475 0 0.27 0.135 0.4575 0.93 0.87 1.1775 0.57 1.545 1.1175 1.545 1.92 0 1.2-0.915 1.845-2.1525 1.845-0.6525 0-1.215-0.135-1.5375-0.3225-0.0525-0.0225-0.06-0.06-0.06-0.12v-1.1025c0-0.075 0.0375-0.0975 0.09-0.06 0.4725 0.30751 1.0125 0.44251 1.5075 0.44251 0.59251 0 0.84001-0.2475 0.84001-0.585 0-0.27-0.17251-0.51001-0.93001-0.9-1.065-0.51001-1.5075-1.0275-1.5075-1.89 0-0.9675 0.7575-1.77 2.07-1.77 0.645 0 1.095 0.0975 1.3425 0.21 0.06 0.0375 0.075 0.0975 0.075 0.15v1.0275c0 0.06-0.0375 0.0975-0.1125 0.075-0.32999-0.21-0.81749-0.3375-1.305-0.3375z" enable-background="new" fill="#00c8ff" stroke-width=".075"/>
 <path d="m3 12v6.125c-0.0217 4.421 0.45314 4.875 4.8652 4.875h8.2695c4.4121 0 4.8652-0.45393 4.8652-4.875v-6.125z" color="#000000" fill="#fff" opacity=".05"/>
 <path d="m12 1v22h4.1348c4.4121 0 4.8652-0.45393 4.8652-4.875v-6.125-6.125c0-4.4211-0.45314-4.875-4.8652-4.875z" color="#000000" fill="#fff" opacity=".05"/>
 <path d="m7.8652 0.5c-1.1116 0-1.9868 0.0256-2.707 0.14648-0.72019 0.1209-1.3105 0.34863-1.7422 0.7793-0.43169 0.43067-0.65954 1.0197-0.7793 1.7402-0.11977 0.72049-0.14217 1.5967-0.13672 2.7109v6.123 6.125c-5e-3 1.1131 0.017 1.989 0.13672 2.709 0.11976 0.72051 0.3476 1.3096 0.7793 1.7402 0.43169 0.43067 1.022 0.6584 1.7422 0.7793 0.7202 0.12089 1.5954 0.14648 2.707 0.14648h8.2695c1.1116 0 1.9864-0.0255 2.7051-0.14648 0.7187-0.12095 1.3062-0.34848 1.7363-0.7793 0.4301-0.43083 0.6566-1.0185 0.77735-1.7383 0.12074-0.71979 0.14648-1.5971 0.14648-2.7109v-6.125-6.125c0-1.1138-0.0257-1.9912-0.14648-2.7109-0.12075-0.71979-0.34725-1.3074-0.77735-1.7383-0.4301-0.43082-1.0176-0.65835-1.7363-0.7793-0.7187-0.12094-1.5935-0.14648-2.7051-0.14648z" color="#000000" fill="none" opacity=".3" stroke="#000"/>
 <path transform="translate(-320,-188)" d="m327.87 189c-4.4121 0-4.8868 0.45318-4.8652 4.8742v6.1258 6.1258c-0.0217 4.421 0.45311 4.8742 4.8652 4.8742h8.2696c4.4121 0 4.8652-0.45312 4.8652-4.8742v-6.1258-6.1258c0-4.4211-0.45312-4.8742-4.8652-4.8742z" clip-path="url(#clipPath971)" color="#000000" fill="none" opacity=".4" stroke="url(#linearGradient981)" stroke-width="2"/>
</svg>
