<svg xmlns:dc="http://purl.org/dc/elements/1.1/" xmlns:cc="http://creativecommons.org/ns#" xmlns:rdf="http://www.w3.org/1999/02/22-rdf-syntax-ns#" xmlns:svg="http://www.w3.org/2000/svg" xmlns="http://www.w3.org/2000/svg" xmlns:xlink="http://www.w3.org/1999/xlink" style="display:inline;enable-background:new" version="1.0" id="svg11300" height="25" width="24">
  <title id="title3004">Suru Icon Theme Template</title>
  <defs id="defs3">
    <linearGradient y2="207.36522" x2="35.310345" y1="419.23337" x1="459.03448" gradientTransform="matrix(0,-0.05664062,0.05663901,0,314.2547,214)" gradientUnits="userSpaceOnUse" id="linearGradient916" xlink:href="#linearGradient4338"/>
    <linearGradient id="linearGradient4338">
      <stop id="stop4340" offset="0" style="stop-color:#f2f2f2;stop-opacity:1"/>
      <stop id="stop4342" offset="1" style="stop-color:#f9f9f9;stop-opacity:1"/>
    </linearGradient>
    <linearGradient gradientUnits="userSpaceOnUse" y2="211" x2="332" y1="189" x1="332" id="linearGradient981" xlink:href="#linearGradient927"/>
    <linearGradient id="linearGradient927">
      <stop id="stop923" offset="0" style="stop-color:#ffffff;stop-opacity:1;"/>
      <stop style="stop-color:#ffffff;stop-opacity:0.09803922" offset="0.125" id="stop933"/>
      <stop style="stop-color:#ffffff;stop-opacity:0.09803922" offset="0.92500001" id="stop931"/>
      <stop id="stop925" offset="1" style="stop-color:#ffffff;stop-opacity:0.49803922"/>
    </linearGradient>
  </defs>
  <metadata id="metadata4">
    <rdf:RDF>
      <cc:Work rdf:about="">
        <dc:format>image/svg+xml</dc:format>
        <dc:type rdf:resource="http://purl.org/dc/dcmitype/StillImage"/>
        <dc:creator>
          <cc:Agent>
            <dc:title>Sam Hewitt</dc:title>
          </cc:Agent>
        </dc:creator>
        <dc:source/>
        <cc:license rdf:resource="http://creativecommons.org/licenses/by-sa/4.0/"/>
        <dc:title>Suru Icon Theme Template</dc:title>
        <dc:subject>
          <rdf:Bag/>
        </dc:subject>
        <dc:date/>
        <dc:rights>
          <cc:Agent>
            <dc:title/>
          </cc:Agent>
        </dc:rights>
        <dc:publisher>
          <cc:Agent>
            <dc:title/>
          </cc:Agent>
        </dc:publisher>
        <dc:identifier/>
        <dc:relation/>
        <dc:language/>
        <dc:coverage/>
        <dc:description/>
        <dc:contributor>
          <cc:Agent>
            <dc:title/>
          </cc:Agent>
        </dc:contributor>
      </cc:Work>
      <cc:Work rdf:about="">
        <dc:format>image/svg+xml</dc:format>
        <dc:type rdf:resource="http://purl.org/dc/dcmitype/StillImage"/>
      </cc:Work>
      <cc:License rdf:about="http://creativecommons.org/licenses/by-sa/4.0/">
        <cc:permits rdf:resource="http://creativecommons.org/ns#Reproduction"/>
        <cc:permits rdf:resource="http://creativecommons.org/ns#Distribution"/>
        <cc:requires rdf:resource="http://creativecommons.org/ns#Notice"/>
        <cc:requires rdf:resource="http://creativecommons.org/ns#Attribution"/>
        <cc:permits rdf:resource="http://creativecommons.org/ns#DerivativeWorks"/>
        <cc:requires rdf:resource="http://creativecommons.org/ns#ShareAlike"/>
      </cc:License>
    </rdf:RDF>
  </metadata>
  <g transform="translate(-280,-264)" id="layer1" style="display:inline">
    <g id="layer7" style="display:inline"/>
    <g style="display:inline" id="layer4"/>
    <g style="display:inline" id="layer2"/>
    <g style="display:inline" id="layer6"/>
    <g style="display:inline" id="layer3"/>
    <g style="display:inline" id="layer5"/>
    <g style="display:inline" id="layer9">
      <g id="g981" style="display:inline;enable-background:new" transform="translate(-40,76)">
        <rect style="display:inline;overflow:visible;visibility:visible;opacity:0;fill:#cdcdcd;fill-opacity:1;fill-rule:nonzero;stroke:none;stroke-width:2;marker:none;enable-background:accumulate" id="rect24x24" width="24" height="24" x="320" y="188"/>
        <path style="color:#000000;font-style:normal;font-variant:normal;font-weight:normal;font-stretch:normal;font-size:medium;line-height:normal;font-family:sans-serif;font-variant-ligatures:normal;font-variant-position:normal;font-variant-caps:normal;font-variant-numeric:normal;font-variant-alternates:normal;font-feature-settings:normal;text-indent:0;text-align:start;text-decoration:none;text-decoration-line:none;text-decoration-style:solid;text-decoration-color:#000000;letter-spacing:normal;word-spacing:normal;text-transform:none;writing-mode:lr-tb;direction:ltr;text-orientation:mixed;dominant-baseline:auto;baseline-shift:baseline;text-anchor:start;white-space:normal;shape-padding:0;clip-rule:nonzero;display:inline;overflow:visible;visibility:visible;opacity:0.1;isolation:auto;mix-blend-mode:normal;color-interpolation:sRGB;color-interpolation-filters:linearRGB;solid-color:#000000;solid-opacity:1;vector-effect:none;fill:#000000;fill-opacity:1;fill-rule:nonzero;stroke:none;stroke-width:2;stroke-linecap:butt;stroke-linejoin:miter;stroke-miterlimit:4;stroke-dasharray:none;stroke-dashoffset:0;stroke-opacity:1;marker:none;color-rendering:auto;image-rendering:auto;shape-rendering:auto;text-rendering:auto;enable-background:accumulate" d="m 327.86523,189 c -1.12014,0 -2.01524,0.0241 -2.79101,0.1543 -0.77577,0.13022 -1.48014,0.38763 -2.00977,0.91601 -0.52962,0.52838 -0.79079,1.23687 -0.91992,2.01367 -0.12912,0.77681 -0.15002,1.67169 -0.14453,2.79493 V 201 v 6.125 c -0.005,1.12104 0.0156,2.01529 0.14453,2.79102 0.12912,0.77681 0.39029,1.48529 0.91992,2.01367 0.52964,0.52838 1.234,0.78579 2.00977,0.91601 0.77577,0.13022 1.67087,0.1543 2.79101,0.1543 h 8.26954 c 1.12013,0 2.01264,-0.024 2.78711,-0.1543 0.77446,-0.13033 1.48001,-0.38927 2.00781,-0.91797 0.5278,-0.52869 0.78594,-1.23438 0.91601,-2.00976 C 341.97577,209.14258 342,208.24735 342,207.125 V 201 195 l -6,-6 z" id="path995"/>
        <path style="color:#000000;display:inline;overflow:visible;visibility:visible;opacity:0.2;fill:none;fill-opacity:1;fill-rule:nonzero;stroke:#000000;stroke-width:2;stroke-miterlimit:4;stroke-dasharray:none;stroke-opacity:1;marker:none;enable-background:accumulate" d="m 327.8652,189 c -4.41209,0 -4.88682,0.45318 -4.8652,4.87419 V 200 206.12581 C 322.9783,210.54682 323.45311,211 327.8652,211 h 8.2696 C 340.54689,211 341,210.54688 341,206.12581 V 200 193.87419 L 336.13479,189 Z" id="path926"/>
        <path id="path914" d="m 327.8652,189 c -4.41209,0 -4.88682,0.45318 -4.8652,4.87419 V 200 206.12581 C 322.9783,210.54682 323.45311,211 327.8652,211 h 8.2696 C 340.54689,211 341,210.54688 341,206.12581 V 200 194 l -5,-5 z" style="color:#000000;display:inline;overflow:visible;visibility:visible;fill:url(#linearGradient916);fill-opacity:1;fill-rule:nonzero;stroke:none;stroke-width:1;marker:none;enable-background:accumulate"/>
        <path style="display:inline;fill:#666666;fill-opacity:1;enable-background:new" d="m 331.99935,196.5002 c -0.0532,0 -0.10594,0.023 -0.13476,0.07 l -0.28516,0.4629 -0.13476,0.014 -0.3711,-0.3985 c -0.0751,-0.081 -0.22712,-0.049 -0.26562,0.055 l -0.19141,0.5059 -0.13086,0.039 -0.43945,-0.3164 c -0.0894,-0.064 -0.23037,-0.01 -0.24805,0.1036 l -0.0879,0.5351 -0.12109,0.064 -0.49414,-0.2246 c -0.10037,-0.046 -0.22882,0.04 -0.22461,0.1503 l 0.0195,0.543 -0.10352,0.086 -0.53125,-0.125 c -0.10752,-0.025 -0.21665,0.084 -0.19141,0.1914 l 0.125,0.5312 -0.0859,0.1035 -0.54296,-0.019 c -0.10962,-0.01 -0.19605,0.126 -0.15039,0.2266 l 0.2246,0.4941 -0.0644,0.1191 -0.53516,0.088 c -0.10877,0.017 -0.16769,0.1606 -0.10352,0.25 l 0.31641,0.4395 -0.0391,0.1308 -0.50781,0.1895 c -0.1031,0.038 -0.13334,0.1922 -0.0527,0.2676 l 0.39844,0.3672 -0.0156,0.1367 -0.46094,0.2871 c -0.0936,0.058 -0.0936,0.2118 0,0.2695 l 0.46094,0.2852 0.0156,0.1367 -0.39844,0.3691 c -0.0806,0.075 -0.0504,0.227 0.0527,0.2657 l 0.50781,0.1894 0.0391,0.1309 -0.31641,0.4414 c -0.0643,0.09 -0.005,0.2325 0.10352,0.25 l 0.53516,0.086 0.0644,0.1211 -0.2246,0.4941 c -0.0458,0.1005 0.0408,0.2292 0.15039,0.2247 l 0.54296,-0.02 0.0859,0.1035 -0.125,0.5313 c -0.0252,0.1074 0.0839,0.2167 0.19141,0.1914 l 0.53125,-0.125 0.10352,0.086 -0.0195,0.543 c -0.005,0.1099 0.12424,0.1943 0.22461,0.1484 l 0.49414,-0.2226 0.12109,0.062 0.0879,0.5351 c 0.0177,0.109 0.15863,0.1678 0.24805,0.1036 l 0.43945,-0.3164 0.13086,0.039 0.19141,0.5078 c 0.0385,0.103 0.18857,0.134 0.26367,0.053 l 0.37109,-0.3985 0.13672,0.016 0.28516,0.4609 c 0.0577,0.093 0.21362,0.093 0.27148,0 l 0.28321,-0.4609 0.13671,-0.016 0.3711,0.3985 c 0.0751,0.081 0.22712,0.05 0.26562,-0.053 l 0.18946,-0.5078 0.13086,-0.039 0.43945,0.3164 c 0.0894,0.064 0.23232,0.01 0.25,-0.1036 l 0.0859,-0.5351 0.12109,-0.062 0.49414,0.2226 c 0.10037,0.046 0.22862,-0.037 0.22461,-0.1484 l -0.0195,-0.543 0.10352,-0.086 0.53125,0.125 c 0.10752,0.025 0.21665,-0.084 0.1914,-0.1914 l -0.125,-0.5313 0.0859,-0.1035 0.54297,0.02 c 0.10961,0.01 0.19648,-0.1243 0.15039,-0.2247 l -0.22461,-0.4941 0.0644,-0.1211 0.53516,-0.086 c 0.10899,-0.017 0.1681,-0.1603 0.10352,-0.25 l -0.31641,-0.4414 0.0391,-0.1309 0.50781,-0.1894 c 0.1033,-0.038 0.13357,-0.1906 0.0527,-0.2657 l -0.39844,-0.3691 0.0156,-0.1367 0.46094,-0.2852 c 0.0936,-0.058 0.0936,-0.2115 0,-0.2695 l -0.46094,-0.2871 -0.0156,-0.1367 0.39844,-0.3672 c 0.0808,-0.075 0.0506,-0.2291 -0.0527,-0.2676 l -0.50781,-0.1895 -0.0391,-0.1308 0.31641,-0.4395 c 0.0646,-0.089 0.006,-0.2322 -0.10352,-0.25 l -0.53516,-0.088 -0.0644,-0.1191 0.22461,-0.4941 c 0.0461,-0.1006 -0.0397,-0.2307 -0.15039,-0.2266 l -0.54297,0.019 -0.0859,-0.1035 0.125,-0.5312 c 0.0252,-0.1075 -0.0839,-0.2166 -0.1914,-0.1914 l -0.5293,0.125 -0.10547,-0.086 0.0195,-0.543 c 0.005,-0.11 -0.12424,-0.1959 -0.22461,-0.1503 l -0.49414,0.2246 -0.12109,-0.064 -0.084,-0.5351 c -0.0177,-0.1085 -0.16253,-0.1679 -0.25195,-0.1036 l -0.43946,0.3164 -0.13086,-0.039 -0.18945,-0.5059 c -0.0385,-0.1036 -0.19052,-0.1345 -0.26563,-0.055 l -0.37109,0.3985 -0.13476,-0.014 -0.28516,-0.4629 c -0.0289,-0.047 -0.0835,-0.07 -0.13672,-0.07 z m 0,1.5 a 4,4 0 0 1 4,4 4,4 0 0 1 -4,4 4,4 0 0 1 -4,-4 4,4 0 0 1 4,-4 z" id="path4580"/>
        <path id="path4582" d="m 327.99945,199.5002 v 1 h 1 v 1 1 1 h -1 v 1 h 4 v -1 h -1 v -1 0 c 1,0 1,2 2,2 h 2 c 1,0 1,-2 1,-2 h -1 c 0,0 0,1 -1,1 -0.4714,0 -1,-1 -1,-1 h 0.5 c 0.831,0 1.5,-0.669 1.5,-1.5 0,-0.831 -0.669,-1.5 -1.5,-1.5 h -1.5 z m 3,1 h 1 0.5 c 0.277,0 0.5,0.223 0.5,0.5 0,0.277 -0.223,0.5 -0.5,0.5 h -0.5 -1 z" style="display:inline;opacity:1;fill:#666666;fill-opacity:1;stroke:none;stroke-width:4;stroke-linecap:round;stroke-linejoin:miter;stroke-miterlimit:4;stroke-dasharray:none;stroke-opacity:1;enable-background:new"/>
        <path style="color:#000000;display:inline;overflow:visible;visibility:visible;opacity:0.2;fill:#ffffff;fill-opacity:1;fill-rule:nonzero;stroke:none;stroke-width:1;marker:none;enable-background:accumulate" d="m 323,200 v 6.125 c -0.0217,4.42101 0.45314,4.875 4.86523,4.875 h 8.26954 C 340.54686,211 341,210.54607 341,206.125 V 200 Z" id="path1007"/>
        <path style="color:#000000;display:inline;overflow:visible;visibility:visible;opacity:0.2;fill:#ffffff;fill-opacity:1;fill-rule:nonzero;stroke:none;stroke-width:1;marker:none;enable-background:accumulate" d="m 332,189 v 22 h 4.13477 C 340.54686,211 341,210.54607 341,206.125 V 200 194 l -5,-5 z" id="path1014"/>
        <path style="color:#000000;font-style:normal;font-variant:normal;font-weight:normal;font-stretch:normal;font-size:medium;line-height:normal;font-family:sans-serif;font-variant-ligatures:normal;font-variant-position:normal;font-variant-caps:normal;font-variant-numeric:normal;font-variant-alternates:normal;font-feature-settings:normal;text-indent:0;text-align:start;text-decoration:none;text-decoration-line:none;text-decoration-style:solid;text-decoration-color:#000000;letter-spacing:normal;word-spacing:normal;text-transform:none;writing-mode:lr-tb;direction:ltr;text-orientation:mixed;dominant-baseline:auto;baseline-shift:baseline;text-anchor:start;white-space:normal;shape-padding:0;clip-rule:nonzero;display:inline;overflow:visible;visibility:visible;opacity:0.4;isolation:auto;mix-blend-mode:normal;color-interpolation:sRGB;color-interpolation-filters:linearRGB;solid-color:#000000;solid-opacity:1;vector-effect:none;fill:url(#linearGradient981);fill-opacity:1;fill-rule:nonzero;stroke:none;stroke-width:2;stroke-linecap:butt;stroke-linejoin:miter;stroke-miterlimit:4;stroke-dasharray:none;stroke-dashoffset:0;stroke-opacity:1;marker:none;color-rendering:auto;image-rendering:auto;shape-rendering:auto;text-rendering:auto;enable-background:accumulate" clip-path="none" d="m 327.86523,189 c -4.41209,0 -4.88685,0.45399 -4.86523,4.875 v 6.125 6.125 c -0.0217,4.42101 0.45314,4.875 4.86523,4.875 h 8.26954 C 340.54686,211 341,210.54607 341,206.125 V 200 194 l -5,-5 z m 0,1 H 336 l 4,4 v 6 6.125 c 0,1.08819 -0.0322,1.90989 -0.125,2.46289 -0.0928,0.553 -0.22434,0.78856 -0.36133,0.92578 -0.13699,0.13722 -0.37244,0.26659 -0.92383,0.35938 -0.55138,0.0928 -1.36917,0.12695 -2.45507,0.12695 h -8.26954 c -1.0859,0 -1.9055,-0.0341 -2.45898,-0.12695 -0.55348,-0.0929 -0.79182,-0.22184 -0.92969,-0.35938 -0.13786,-0.13754 -0.26769,-0.37421 -0.35937,-0.92578 -0.0917,-0.55157 -0.12253,-1.36976 -0.11719,-2.45703 v -0.002 V 200 v -6.12891 -0.002 c -0.005,-1.08727 0.0255,-1.90546 0.11719,-2.45703 0.0917,-0.55157 0.22151,-0.78824 0.35937,-0.92578 0.13787,-0.13754 0.37622,-0.26647 0.92969,-0.35938 0.55347,-0.0929 1.37308,-0.12695 2.45898,-0.12695 z" id="path935"/>
        <path style="color:#000000;display:inline;overflow:visible;visibility:visible;opacity:0.2;fill:#000000;fill-opacity:1;fill-rule:nonzero;stroke:none;stroke-width:0.25002289;marker:none;enable-background:accumulate" d="m 341,195 v -1 l -5,-5 h -1 v 2.29585 0.088 0.0472 c 0,3.10471 0.41561,3.58345 3.52745,3.56823 z" id="rect4158-0-3-62-2-3-7"/>
        <path style="color:#000000;display:inline;overflow:visible;visibility:visible;fill:#faf8f6;fill-opacity:1;fill-rule:nonzero;stroke:none;stroke-width:0.25002289;marker:none;enable-background:accumulate" d="m 341,193.99934 -5,-4.99936 v 1.85447 0.0807 0.0433 c 0,2.84599 0.13116,3.03489 2.98368,3.02094 z" id="rect4158-0-3-62-6-5"/>
      </g>
    </g>
  </g>
</svg>