<svg width="24" height="24" version="1" xmlns="http://www.w3.org/2000/svg" xmlns:xlink="http://www.w3.org/1999/xlink">
 <defs>
  <linearGradient id="linearGradient916" x1="459.03" x2="35.31" y1="419.23" y2="207.37" gradientTransform="matrix(0 -.056641 .056639 0 -5.7453 26)" gradientUnits="userSpaceOnUse">
   <stop stop-color="#f2f2f2" offset="0"/>
   <stop stop-color="#f9f9f9" offset="1"/>
  </linearGradient>
  <linearGradient id="linearGradient981" x1="332" x2="332" y1="189" y2="211" gradientUnits="userSpaceOnUse">
   <stop stop-color="#fff" offset="0"/>
   <stop stop-color="#fff" stop-opacity=".098039" offset=".125"/>
   <stop stop-color="#fff" stop-opacity=".098039" offset=".925"/>
   <stop stop-color="#fff" stop-opacity=".49804" offset="1"/>
  </linearGradient>
  <clipPath id="clipPath971">
   <path d="m327.87 189c-4.4121 0-4.8868 0.45318-4.8652 4.8742v6.1258 6.1258c-0.0217 4.421 0.45311 4.8742 4.8652 4.8742h8.2696c4.4121 0 4.8652-0.45312 4.8652-4.8742v-6.1258-6.1258c0-4.4211-0.45312-4.8742-4.8652-4.8742z" color="#000000" fill="#46a926"/>
  </clipPath>
 </defs>
 <path d="m7.8652 1c-1.1201 0-2.0152 0.0241-2.791 0.1543-0.77577 0.13022-1.4801 0.38763-2.0098 0.91601-0.52962 0.52838-0.79079 1.2369-0.91992 2.0137-0.12912 0.77681-0.15002 1.6717-0.14453 2.7949v6.1211 6.125c-5e-3 1.121 0.0156 2.0153 0.14453 2.791 0.12912 0.77681 0.39029 1.4853 0.91992 2.0137 0.52964 0.52838 1.234 0.78579 2.0098 0.91601s1.6709 0.1543 2.791 0.1543h8.2695c1.1201 0 2.0126-0.024 2.7871-0.1543 0.77446-0.13033 1.48-0.38927 2.0078-0.91797 0.5278-0.52869 0.78594-1.2344 0.91601-2.0098 0.13007-0.77539 0.1543-1.6706 0.1543-2.793v-6.125-6.125c0-1.1224-0.0242-2.0176-0.1543-2.793-0.13007-0.77538-0.38821-1.4811-0.91601-2.0098-0.5278-0.5287-1.2333-0.78764-2.0078-0.91797-0.77448-0.13033-1.667-0.1543-2.7871-0.1543z" color="#000000" color-rendering="auto" dominant-baseline="auto" image-rendering="auto" opacity=".1" shape-rendering="auto" solid-color="#000000" style="font-feature-settings:normal;font-variant-alternates:normal;font-variant-caps:normal;font-variant-ligatures:normal;font-variant-numeric:normal;font-variant-position:normal;isolation:auto;mix-blend-mode:normal;shape-padding:0;text-decoration-color:#000000;text-decoration-line:none;text-decoration-style:solid;text-indent:0;text-orientation:mixed;text-transform:none;white-space:normal"/>
 <path d="m7.8652 1c-4.4121 0-4.8868 0.45318-4.8652 4.8742v6.1258 6.1258c-0.0217 4.421 0.45311 4.8742 4.8652 4.8742h8.2696c4.4121 0 4.8652-0.45312 4.8652-4.8742v-6.1258-6.1258c0-4.4211-0.45312-4.8742-4.8652-4.8742z" color="#000000" fill="none" opacity=".2" stroke="#000" stroke-width="2"/>
 <path d="m7.8652 1c-4.4121 0-4.8868 0.45318-4.8652 4.8742v6.1258 6.1258c-0.0217 4.421 0.45311 4.8742 4.8652 4.8742h8.2696c4.4121 0 4.8652-0.45312 4.8652-4.8742v-6.1258-6.1258c0-4.4211-0.45312-4.8742-4.8652-4.8742z" color="#000000" fill="url(#linearGradient916)"/>
 <path d="m10.284 5.5714-0.85714 0.2143v0.64285h0.85714zm0 0.85715v0.85715h-0.85714v-0.85715h-4e-3c-1.0791 0.012-1.8686-0.0256-2.5131 0.32915-0.32228 0.17828-0.57858 0.48-0.72 0.85628-0.14054 0.37542-0.19028 0.82287-0.19028 1.386v6.8571c0 0.56314 0.0496 1.0097 0.19028 1.386 0.14146 0.37629 0.39772 0.67544 0.72 0.85374 0.64542 0.35571 1.4349 0.31886 2.5131 0.3317h5.1531c1.0783-0.0134 1.8669 0.024 2.5123-0.3317a1.6029 1.6029 0 0 0 0.7183-0.85374c0.14184-0.37626 0.19325-0.84856 0.19325-1.386v-6.8571c0-0.564-0.0515-1.0106-0.19285-1.386a1.6114 1.6114 0 0 0-0.7183-0.85543c-0.64543-0.35657-1.434-0.31715-2.5123-0.33h-4e-3v0.85715h-0.85844v-0.85715zm3.4286 0h0.85713v-0.85715l-0.85713 0.2143zm-4.2806 3.4286h5.1377c1.08 0.012 1.7889 0.0515 2.1026 0.22374 0.15685 0.0875 0.24771 0.18255 0.33085 0.4054 0.084 0.22286 0.1371 1.0852 0.1371 1.0852v4.2857c0 0.50744-0.053 0.86144-0.1371 1.0843-0.083 0.22285-0.174 0.31885-0.33085 0.40545-0.31371 0.17313-1.0234 0.2117-2.1026 0.22455h-5.1429c-1.08-0.0134-1.7889-0.0515-2.1034-0.22455-0.15686-0.0865-0.24773-0.1826-0.33086-0.40545-0.084-0.22285-0.1371-0.57685-0.1371-1.0843v-4.2857c0-0.50829 0.053-0.86229 0.1371-1.0852 0.083-0.22285 0.174-0.318 0.33086-0.4054 0.31456-0.17315 1.0251-0.21174 2.1086-0.22374z" color="#000000" enable-background="new" fill="#2b898f" font-weight="400" overflow="visible" style="isolation:auto;mix-blend-mode:normal;text-decoration-color:#000000;text-decoration-line:none;text-decoration-style:solid;text-indent:0;text-transform:none;white-space:normal"/>
 <path transform="translate(-320,-188)" d="m327.87 189c-4.4121 0-4.8868 0.45318-4.8652 4.8742v6.1258 6.1258c-0.0217 4.421 0.45311 4.8742 4.8652 4.8742h8.2696c4.4121 0 4.8652-0.45312 4.8652-4.8742v-6.1258-6.1258c0-4.4211-0.45312-4.8742-4.8652-4.8742z" clip-path="url(#clipPath971)" color="#000000" fill="none" opacity=".4" stroke="url(#linearGradient981)" stroke-width="2"/>
</svg>
