<svg width="24" height="24" version="1.1" xmlns="http://www.w3.org/2000/svg">
 <path d="M 12,5.333 8.5,9 H 5.87 C 5.87,9 5,9.893 5,12.001 5,14.11 5.87,15 5.87,15 H 8.5 l 3.5,3.667 z" fill="#46a926"/>
 <path d="m14.524 8.926-0.707 0.707 0.354 0.354a2.999 2.999 0 0 1 0 4.242l-0.354 0.353 0.707 0.707 0.354-0.353a4 4 0 0 0 0-5.656z" color="#000000" fill="#46a926" font-weight="400" overflow="visible" style="font-feature-settings:normal;font-variant-alternates:normal;font-variant-caps:normal;font-variant-ligatures:normal;font-variant-numeric:normal;font-variant-position:normal;isolation:auto;mix-blend-mode:normal;shape-padding:0;text-decoration-color:#000000;text-decoration-line:none;text-decoration-style:solid;text-indent:0;text-orientation:mixed;text-transform:none;white-space:normal"/>
 <path d="m16.645 6.805-0.707 0.707 0.354 0.353a5.999 5.999 0 0 1 0 8.485l-0.354 0.353 0.707 0.707 0.354-0.353a7 7 0 0 0 0-9.899z" color="#000000" fill="#46a926" font-weight="400" overflow="visible" style="font-feature-settings:normal;font-variant-alternates:normal;font-variant-caps:normal;font-variant-ligatures:normal;font-variant-numeric:normal;font-variant-position:normal;isolation:auto;mix-blend-mode:normal;shape-padding:0;text-decoration-color:#000000;text-decoration-line:none;text-decoration-style:solid;text-indent:0;text-orientation:mixed;text-transform:none;white-space:normal"/>
</svg>
