<svg width="24" height="24" version="1.1" xmlns="http://www.w3.org/2000/svg">
 <path d="m11.496 4c-1.409 0-2.496 0.842-2.496 2.537v5.924c0 1.695 1.087 2.539 2.496 2.539 1.41 0 2.494-0.846 2.494-2.54v-5.922c0-1.693-1.085-2.538-2.494-2.538zm0 0.998c0.505 0 0.856 0.142 1.088 0.361 0.232 0.22 0.408 0.545 0.408 1.178v5.924c0 0.633-0.176 0.958-0.408 1.178-0.232 0.219-0.583 0.363-1.088 0.363s-0.858-0.143-1.09-0.361c-0.231-0.22-0.408-0.546-0.408-1.18v-5.924c0-0.634 0.177-0.959 0.408-1.178 0.232-0.218 0.585-0.36 1.09-0.36zm-4.496 6.002v1.5c0 2.321 1.748 4.199 4 4.45v2.073a7.576 7.576 0 0 0-2 0.436v0.541h5v-0.541a7.856 7.856 0 0 0-2-0.434v-2.075c2.252-0.25 4-2.128 4-4.449v-1.501h-1v1.5a3.482 3.482 0 0 1-3 3.451v-0.451h-1v0.451a3.482 3.482 0 0 1-3-3.451v-1.5z" color="#000000" fill="#dfdfdf" overflow="visible"/>
</svg>
