<svg width="24" height="24" version="1.1" xmlns="http://www.w3.org/2000/svg">
 <defs>
  <style id="current-color-scheme" type="text/css">.ColorScheme-Text { color:#dfdfdf; } .ColorScheme-Highlight { color:#4285f4; }</style>
 </defs>
 <path d="m6.7129 6.0005c-1.058-0.013-1.7678 0.22411-2.1328 0.66211-0.383 0.456-0.58008 1.2041-0.58008 2.2441v6.1875c0 1.04 0.19708 1.7881 0.58008 2.2441 0.365 0.438 1.0748 0.66211 2.1328 0.66211h10.574c1.058 0 1.7698-0.22411 2.1348-0.66211 0.383-0.456 0.57812-1.2041 0.57812-2.2441v-6.1875c0-1.04-0.19512-1.7881-0.57812-2.2441-0.365-0.438-1.0768-0.66211-2.1348-0.66211zm2.4316 3.3066 1.168 0.41992a3.56 3.56 0 0 0-0.27148 0.69141 2.766 2.766 0 0 0-0.12109 0.83984c0 0.679 0.18836 1.1696 0.56836 1.4746 0.3671 0.29427 0.87338 0.44069 1.5117 0.44531 0.63836-0.0046 1.1446-0.15105 1.5117-0.44531 0.38-0.305 0.56836-0.79562 0.56836-1.4746a2.766 2.766 0 0 0-0.12109-0.83984 3.56 3.56 0 0 0-0.27148-0.69141l1.168-0.41992c0.031 0.049 0.07586 0.13395 0.13086 0.25195 0.057 0.112 0.1082 0.25945 0.1582 0.43945 0.05499 0.175 0.10262 0.38477 0.14062 0.63477 0.043 0.242 0.06445 0.51531 0.06445 0.82031 0 0.17168-0.02101 0.3357-0.04297 0.5h0.04297c-0.03329 0.30127-0.08632 0.58957-0.18555 0.85352a2.766 2.766 0 0 1-0.65234 1.0078 2.97 2.97 0 0 1-1.0547 0.6543 4.218 4.218 0 0 1-1.4277 0.22461c-0.01036 0-0.01899-0.0019-0.0293-2e-3 -0.01031 1e-4 -0.01894 2e-3 -0.0293 2e-3a4.218 4.218 0 0 1-1.4277-0.22461 2.97 2.97 0 0 1-1.0547-0.6543 2.766 2.766 0 0 1-0.65234-1.0078c-0.09922-0.26394-0.15226-0.55224-0.18555-0.85352h0.04297c-0.02196-0.1643-0.04297-0.32832-0.04297-0.5 0-0.305 0.02145-0.57831 0.06445-0.82031 0.038-0.25 0.08563-0.45977 0.14062-0.63477 0.05-0.18 0.1012-0.32745 0.1582-0.43945 0.055-0.118 0.09986-0.20295 0.13086-0.25195z" fill="#dfdfdf"/>
</svg>
