<svg width="24" height="24" version="1.1" xmlns="http://www.w3.org/2000/svg">
 <path d="m7 11v3h-2c0.44333 0.63332 0.84674 1.1999 1.2129 1.7109l0.62891-0.62891c-0.022118-0.02985-0.038078-0.05165-0.060547-0.08203h0.14258l1.0762-1.0762v-2.9238h-1zm5 1.7344-1 1v1.2656h1.2188c-2.219 3-2.7188 3.4062-2.7188 3.4062s-0.30527-0.2541-1.4473-1.7246l-0.6543 0.6543c1.5658 2.1127 2.1016 2.6641 2.1016 2.6641s1-1 4.5-6h-2z" color="#000000" fill="#dfdfdf" opacity=".5"/>
 <path d="m13.5 4s-1 1-4.5 6h2v0.91797l1-1v-0.91797h-1.2188c2.219-3 2.7188-3.4062 2.7188-3.4062s0.27702 0.22911 1.2988 1.5332l0.66016-0.66016c-1.4552-1.9525-1.959-2.4668-1.959-2.4668zm3.1426 4.0918-0.63086 0.63086c0.072922 0.097813 0.12943 0.17242 0.20703 0.27734h-0.48438l-0.73438 0.73438v3.2656h1v-3h2c-0.51513-0.73591-0.95122-1.3447-1.3574-1.9082z" color="#000000" fill="#dfdfdf" opacity=".5"/>
 <path d="m5.8596 18.875 13-13-0.7029-0.7029-2.8477 2.8477a6.3532 4.484 45 0 0-0.0052-0.00333l-0.69727 0.69727a4.9449 3.49 45 0 1 0.0052 0.00333l-0.66211 0.66211c-0.0016-0.0012-0.0035-0.0019-0.0051-0.00331l-4.0308 4.0336 4.31e-4 0.0024-4.7574 4.7602z" fill="#dfdfdf" opacity=".5" stroke-width="1.1903"/>
</svg>
