<svg width="24" height="24" version="1.1" xmlns="http://www.w3.org/2000/svg">
 <defs>
  <style id="current-color-scheme" type="text/css">.ColorScheme-Text { color:#dfdfdf; } .ColorScheme-Highlight { color:#4285f4; } .ColorScheme-NeutralText { color:#ff9800; } .ColorScheme-PositiveText { color:#4caf50; } .ColorScheme-NegativeText { color:#f44336; }</style>
 </defs>
 <path d="m9.5012 4c-0.542 0-0.98338 0.064469-1.3594 0.23047a1.72 1.72 0 0 0-0.83789 0.79688c-0.34 0.68-0.30273 1.4727-0.30273 2.4727v9c0 1-0.037266 1.7956 0.30273 2.4746 0.17 0.34 0.46189 0.62792 0.83789 0.79492 0.375 0.166 0.81738 0.23047 1.3594 0.23047h5c0.542 0 0.98338-0.06447 1.3594-0.23047 0.375-0.167 0.66889-0.45592 0.83789-0.79492 0.34-0.68 0.30273-1.4746 0.30273-2.4746v-9c0-1 0.03727-1.7937-0.30273-2.4727a1.72 1.72 0 0 0-0.83789-0.79688c-0.375-0.167-0.81738-0.23047-1.3594-0.23047zm-1.4297 2h7.8594c0.05 0.373 0.07031 0.87 0.07031 1.5v9c0 0.63-0.02031 1.126-0.07031 1.5h-7.8594c-0.05-0.374-0.070312-0.87-0.070312-1.5v-9c0-0.63 0.020312-1.127 0.070312-1.5z" fill="#dfdfdf" style="font-feature-settings:normal;font-variant-alternates:normal;font-variant-caps:normal;font-variant-ligatures:normal;font-variant-numeric:normal;font-variant-position:normal;isolation:auto;mix-blend-mode:normal;shape-padding:0;text-decoration-color:#000000;text-decoration-line:none;text-decoration-style:solid;text-indent:0;text-orientation:mixed;text-transform:none"/>
 <g transform="translate(.70899)" fill="#da1636">
  <path d="m11.292 15.102c-0.293 0-0.524 0.094-0.694 0.283a0.965 0.965 0 0 0-0.256 0.666c0 0.255 0.086 0.477 0.256 0.666s0.4 0.283 0.693 0.283 0.524-0.094 0.694-0.283a0.965 0.965 0 0 0 0.255-0.666 0.965 0.965 0 0 0-0.255-0.666c-0.17-0.19-0.401-0.283-0.694-0.283z" style="font-feature-settings:normal;font-variant-alternates:normal;font-variant-caps:normal;font-variant-ligatures:none;font-variant-numeric:normal;font-variant-position:normal;isolation:auto;mix-blend-mode:normal;shape-padding:0;text-decoration-color:#000000;text-decoration-line:none;text-decoration-style:solid;text-indent:0;text-transform:none;white-space:normal"/>
  <path d="m10.582 7v2.662c0 0.793 0.03 1.517 0.086 2.168 0.057 0.642 0.128 1.284 0.213 1.926h0.82c0.085-0.642 0.157-1.284 0.213-1.926 0.057-0.651 0.086-1.375 0.086-2.168v-2.662z" style="font-feature-settings:normal;font-variant-alternates:normal;font-variant-caps:normal;font-variant-ligatures:none;font-variant-numeric:normal;font-variant-position:normal;isolation:auto;mix-blend-mode:normal;shape-padding:0;text-decoration-color:#000000;text-decoration-line:none;text-decoration-style:solid;text-indent:0;text-transform:none;white-space:normal"/>
 </g>
</svg>
