<svg width="24" height="24" version="1.1" xmlns="http://www.w3.org/2000/svg">
 <defs>
  <style id="current-color-scheme" type="text/css">.ColorScheme-Text { color:#dfdfdf; } .ColorScheme-Highlight { color:#4285f4; } .ColorScheme-NeutralText { color:#ff9800; } .ColorScheme-PositiveText { color:#4caf50; } .ColorScheme-NegativeText { color:#f44336; }</style>
 </defs>
 <path d="m12 4c-0.19817 0-0.38934 0.010618-0.57227 0.023438h-0.001953c-0.0014 1.05e-4 -0.024452 9.96e-5 -0.070312 0.0039063-2.8546 0.22596-5.2774 1.9431-6.5 4.375-0.072002 0.14329-0.15163 0.29871-0.22461 0.4707-0.37687 0.85103-0.58216 1.7567-0.61914 2.6973-0.00158 0.031642-0.0029263 0.060885-0.0039063 0.083985v0.003906 0.003906c-0.00215 0.0784-0.0065294 0.16778-0.0058594 0.26953-3.23e-4 0.007724-0.0019531 0.026735-0.0019531 0.068359a3 3 0 0 1 1.4863-2.582c0.019441-0.046917 0.037965-0.094042 0.058594-0.14062l0.0039062-0.0078126c0.055086-0.13063 0.12408-0.26844 0.19922-0.41797 1.0698-2.128 3.1866-3.6306 5.6895-3.8281h0.001953c-0.0012 1.029e-4 0.017527-7.276e-4 0.060547-0.0039063l-0.001953 0.0019532c0.17182-0.012036 0.339-0.021484 0.50195-0.021484 0.0099 0 0.043 0.0030163 0.10352 0.0039062 0.03748 5.814e-4 0.066251-7.014e-4 0.082031 0l0.003906 0.0019532h0.003906c2.8838 0.077475 5.3151 1.8694 6.3164 4.4023a3 3 0 0 1 1.4863 2.4453c-0.076717-4.2819-3.5022-7.7329-7.7754-7.8477-0.01305-5.086e-4 -0.01992 2.316e-4 -0.03125 0l-0.005859-0.0058594h-0.18359zm-8 8c0 0.93146 0.16673 1.8222 0.45508 2.6484 0.11204 0.35618 0.24142 0.7171 0.39844 1.0859 0.34442 0.80915 0.37802 0.9321 0.33594 1.5117a3 3 0 0 1 0.93555 0.63672c0.023426-0.14108 0.041009-0.28541 0.052734-0.43164 0.061964-0.7717-0.019412-1.2032-0.4043-2.1074-0.10848-0.25483-0.20017-0.50729-0.28516-0.75977a3 3 0 0 1-1.4883-2.584zm16 0a3 3 0 0 1-1.4922 2.5859c-0.33987 0.86496-0.85475 1.6763-1.5566 2.377-1.2697 1.2676-2.6144 1.8872-4.3652 2.0117h-0.003907-0.001953c-0.19535 0.015841-0.38783 0.025391-0.58008 0.025391-0.01306 0-0.024673 3.8e-5 -0.033203 0h-0.001953-0.003906c-0.002903 2.2e-5 -0.005894 0-0.015626 0-0.072777 0-0.15065-0.004813-0.24414-0.007812l0.003906 0.001953c-0.02455-1e-3 -0.050342-0.002607-0.076172-0.003907h-0.003906-0.001953c-0.60028-0.02175-1.1157-0.10113-1.5527-0.23828-1.0846-0.3404-1.4575-0.34714-2.7754-0.009765-0.17139 0.04388-0.34685 0.081813-0.52148 0.11523a3 3 0 0 1 0.2207 0.97461c0.18257-0.035752 0.36655-0.074426 0.54883-0.12109 1.3041-0.33389 1.1613-0.34013 2.2266-0.00586 0.54643 0.17147 1.1505 0.25907 1.8164 0.2832 0.02543 0.0012 0.051566 0.002806 0.078124 0.003907h0.001954 0.001953c0.07975 0.0026 0.17106 0.007812 0.27734 0.007812 0.004802 0 0.011788 8.6e-5 0.023438 0 0.01169 2.6e-5 0.02278 0 0.03125 0 0.22461 0 0.44344-0.012097 0.65625-0.029297 1.9575-0.13921 3.591-0.89013 5.002-2.2988 1.1768-1.1748 1.9088-2.6295 2.1973-4.1484 0.02782-0.14529 0.047926-0.2869 0.066406-0.42188 0.01042-0.077268 0.023423-0.16319 0.033203-0.25976 0.0197-0.18972 0.03078-0.37748 0.03711-0.56445v-0.001953c0.0011-0.03971 0.003306-0.08616 0.003906-0.14062v-0.001954c3.38e-4 -0.023011 0.003906-0.067542 0.003906-0.13281z" color="#000000" fill="#dfdfdf" style="-inkscape-stroke:none"/>
 <circle cx="4" cy="20" r="2" fill="#4285f4"/>
 <circle cx="7" cy="12" r="2" fill="#dfdfdf"/>
 <circle cx="12" cy="12" r="2" fill="#dfdfdf"/>
 <circle cx="17" cy="12" r="2" fill="#dfdfdf"/>
</svg>
