<?xml version="1.0" encoding="UTF-8" standalone="no"?>
<svg
   width="24"
   height="24"
   version="1.1"
   id="svg7"
   sodipodi:docname="yate-tray-info.svg"
   inkscape:version="1.1 (c68e22c387, 2021-05-23)"
   xmlns:inkscape="http://www.inkscape.org/namespaces/inkscape"
   xmlns:sodipodi="http://sodipodi.sourceforge.net/DTD/sodipodi-0.dtd"
   xmlns="http://www.w3.org/2000/svg"
   xmlns:svg="http://www.w3.org/2000/svg">
  <sodipodi:namedview
     id="namedview9"
     pagecolor="#ffffff"
     bordercolor="#666666"
     borderopacity="1.0"
     inkscape:pageshadow="2"
     inkscape:pageopacity="0.0"
     inkscape:pagecheckerboard="0"
     showgrid="true"
     inkscape:zoom="21.666667"
     inkscape:cx="10.730769"
     inkscape:cy="16.038462"
     inkscape:window-width="1366"
     inkscape:window-height="703"
     inkscape:window-x="0"
     inkscape:window-y="0"
     inkscape:window-maximized="1"
     inkscape:current-layer="svg7">
    <inkscape:grid
       type="xygrid"
       id="grid826" />
  </sodipodi:namedview>
  <defs
     id="defs3">
    <style
       id="current-color-scheme"
       type="text/css">
   .ColorScheme-Text { color:#dfdfdf; } .ColorScheme-Highlight { color:#4285f4; } .ColorScheme-NeutralText { color:#ff9800; } .ColorScheme-PositiveText { color:#4caf50; } .ColorScheme-NegativeText { color:#f44336; }
  </style>
  </defs>
  <path
     id="path5"
     style="color:#000000;fill:#dfdfdf;-inkscape-stroke:none"
     d="M 11.585938 4 C 9.4733041 4.0349537 7.760741 4.8503169 6.2246094 6.3691406 C 4.568449 8.0066408 3.9134582 9.6628559 3.9199219 12.160156 C 3.9240919 13.78543 4.1607156 14.955679 4.7363281 15.923828 L 4.875 16.154297 L 4.3066406 17.273438 C 4.1396807 17.603607 3.8317404 18.078604 3.5683594 18.470703 C 3.4366689 18.666753 3.31646 18.84337 3.2246094 18.982422 C 3.1786844 19.051952 3.1402544 19.1107 3.1074219 19.166016 C 3.0910059 19.193676 3.0757367 19.220459 3.0585938 19.255859 C 3.0414508 19.291265 3 19.283334 3 19.501953 C 3 19.652569 3.1075494 19.862717 3.234375 19.949219 C 3.3612006 20.035719 3.4604081 20.043748 3.5332031 20.048828 C 3.6787932 20.058988 3.7685593 20.036139 3.8730469 20.011719 C 4.0820219 19.962869 4.3185172 19.880675 4.5917969 19.777344 C 5.1378424 19.570876 5.8088108 19.280335 6.3691406 19.048828 L 7.1484375 18.728516 L 7.8554688 19.056641 C 8.419756 19.318689 9.3565243 19.620028 10.064453 19.773438 C 10.957588 19.966984 11.346989 20.031116 12.380859 19.988281 C 12.835328 19.969453 13.264111 19.924127 13.671875 19.855469 C 13.490451 19.562569 13.341458 19.247804 13.230469 18.916016 C 12.949577 18.951114 12.654762 18.975235 12.339844 18.988281 C 11.3482 19.029361 11.161716 18.988945 10.275391 18.796875 C 9.6639892 18.664383 8.7096365 18.350911 8.2773438 18.150391 L 8.2753906 18.150391 L 7.1738281 17.636719 L 5.9882812 18.125 C 5.537038 18.311419 5.052572 18.512685 4.6054688 18.691406 C 4.8162275 18.370158 5.0417908 18.035928 5.1992188 17.724609 L 6.0136719 16.115234 L 5.5957031 15.412109 C 5.1375085 14.641451 4.9238512 13.689435 4.9199219 12.158203 C 4.9138694 9.8197778 5.4038808 8.5867622 6.9277344 7.0800781 C 8.333746 5.6899083 9.7288251 5.0310169 11.603516 5 C 12.228572 4.989659 12.908233 5.053021 13.65625 5.1933594 C 15.470986 5.53383 16.838757 6.3533209 17.742188 7.5390625 C 18.645619 8.7248041 19.095735 10.296062 18.982422 12.197266 C 18.961071 12.555496 18.924985 12.893472 18.875 13.216797 C 19.204962 13.323622 19.51826 13.468152 19.810547 13.644531 C 19.893641 13.203173 19.951508 12.741764 19.980469 12.255859 C 20.105212 10.162875 19.602803 8.3323035 18.537109 6.9335938 C 17.471416 5.534884 15.853815 4.5887874 13.839844 4.2109375 C 13.037348 4.0603779 12.289994 3.9883516 11.585938 4 z " />
  <path
     id="path832"
     style="fill:#dfdfdf"
     d="M 9.5351562 7 C 9.2345442 7 8.4865161 7.7132951 8.2207031 8.2539062 C 7.7122131 9.2880675 8.0356761 10.385357 9.7050781 13.275391 C 11.129541 15.741389 12.023034 16.813861 13.03125 16.978516 C 13.142368 16.028182 13.553419 15.165564 14.166016 14.488281 C 14.153379 14.471719 14.138822 14.448278 14.126953 14.433594 C 13.79398 13.931906 13.740589 14.029407 13.255859 14.296875 L 13.009766 14.433594 C 12.398191 14.771056 12.192279 14.831808 12.027344 14.728516 C 11.910315 14.655226 11.669644 14.125156 11.478516 13.519531 C 11.172454 12.549712 11.063192 12.362844 10.392578 11.660156 C 9.9823111 11.230266 9.6464844 10.783577 9.6464844 10.667969 C 9.6464844 10.444073 10.084014 9.9707318 10.615234 9.6210938 C 11.017088 9.3566048 11.02104 9.1125548 10.632812 8.3066406 C 10.27659 7.5671789 9.8008523 7 9.5351562 7 z " />
  <path
     class="error"
     d="m 17.5,20.99997 a 3.5,-3.5 0 0 1 -3.5,-3.5 3.5,-3.5 0 0 1 3.5,-3.5 3.5,-3.5 0 0 1 3.5,3.5 3.5,-3.5 0 0 1 -3.5,3.5 z m -0.5,-1 h 1 v -1.168 c 0,-0.34851 -0.016,-0.6673 -0.047,-0.95703 -0.031,-0.28973 -0.069,-0.58107 -0.1152,-0.875 h -0.666 c -0.052,0.29393 -0.094,0.58527 -0.125,0.875 -0.031,0.29393 -0.047,0.61271 -0.047,0.95703 z m 0.5,-4 a 0.5,-0.5 0 0 0 0.5,-0.5 0.5,-0.5 0 0 0 -0.5,-0.5 0.5,-0.5 0 0 0 -0.5,0.5 0.5,-0.5 0 0 0 0.5,0.5 z"
     color="#000000"
     fill="#f22c42"
     id="path1561"
     style="fill:#fdc92b;fill-opacity:1" />
</svg>
