<svg width="48" height="48" version="1" xmlns="http://www.w3.org/2000/svg" xmlns:xlink="http://www.w3.org/1999/xlink">
 <defs>
  <linearGradient id="linearGradient951-6" x1="494.34" x2="0" y1="313.29" y2="313.29" gradientTransform="matrix(0 -.11328 -.11328 0 55.489 48)" gradientUnits="userSpaceOnUse" xlink:href="#linearGradient4338-3"/>
  <linearGradient id="linearGradient4338-3">
   <stop stop-color="#999" offset="0"/>
   <stop stop-color="#b7b7b7" offset=".61328"/>
   <stop stop-color="#dbdbdb" offset="1"/>
  </linearGradient>
  <linearGradient id="linearGradient2751" x1="344" x2="344" y1="67" y2="104" gradientUnits="userSpaceOnUse" xlink:href="#linearGradient927"/>
  <linearGradient id="linearGradient927">
   <stop stop-color="#fff" offset="0"/>
   <stop stop-color="#fff" stop-opacity=".098039" offset=".125"/>
   <stop stop-color="#fff" stop-opacity=".098039" offset=".925"/>
   <stop stop-color="#fff" stop-opacity=".49804" offset="1"/>
  </linearGradient>
  <clipPath id="clipPath2769">
   <path d="m339.73 66c-8.8242 0-9.7736 0.90635-9.7304 9.7484v8.2516 10.252c-0.0433 8.842 0.90622 9.7484 9.7304 9.7484h10.539c8.8242 0 9.7304-0.90625 9.7304-9.7484v-10.252-8.2516c0-8.8421-0.90622-9.7484-9.7304-9.7484z" color="#000000" fill="#cdcdcd"/>
  </clipPath>
  <linearGradient id="linearGradient951" x1="494.34" x2="0" y1="313.29" y2="313.29" gradientTransform="matrix(0 -.11328 -.11328 0 59.489 52)" gradientUnits="userSpaceOnUse" xlink:href="#linearGradient4338-3"/>
  <linearGradient id="linearGradient1004" x1="344" x2="344" y1="69" y2="106" gradientUnits="userSpaceOnUse" xlink:href="#linearGradient927"/>
  <clipPath id="clipPath2759">
   <path d="m341.73 68c-8.8242 0-9.7736 0.90635-9.7304 9.7484v8.2516 10.252c-0.0433 8.842 0.90622 9.7484 9.7304 9.7484h10.539c8.8242 0 9.7304-0.90625 9.7304-9.7484v-10.252-8.2516c0-8.8421-0.90622-9.7484-9.7304-9.7484z" color="#000000" fill="#cdcdcd"/>
  </clipPath>
 </defs>
 <path d="m21.73 8c-2.2232 0-3.9737 0.05118-5.4141 0.29297-1.4404 0.24178-2.619 0.6953-3.4824 1.5566-0.86337 0.86134-1.3191 2.0395-1.5586 3.4805-0.23953 1.441-0.28629 3.1953-0.27539 5.4238v6.2461 12.252c-0.0108 2.2251 0.0361 3.9785 0.27539 5.418 0.23953 1.441 0.69522 2.6191 1.5586 3.4805 0.86338 0.86134 2.042 1.3149 3.4824 1.5566 1.4404 0.24179 3.1909 0.29297 5.4141 0.29297h10.539c2.2232 0 3.9728-0.0511 5.4102-0.29297 1.4374-0.24189 2.6125-0.69694 3.4726-1.5586 0.8602-0.86165 1.3132-2.0389 1.5547-3.4785 0.24149-1.4396 0.29297-3.1904 0.29297-5.418v-12.252-6.252c0-2.2276-0.0515-3.9784-0.29297-5.418-0.24149-1.4396-0.69449-2.6169-1.5547-3.4785-0.86019-0.86165-2.0352-1.3167-3.4726-1.5586-1.4374-0.24189-3.187-0.29297-5.4102-0.29297z" color="#000000" color-rendering="auto" dominant-baseline="auto" image-rendering="auto" opacity=".1" shape-rendering="auto" solid-color="#000000" style="font-feature-settings:normal;font-variant-alternates:normal;font-variant-caps:normal;font-variant-ligatures:normal;font-variant-numeric:normal;font-variant-position:normal;isolation:auto;mix-blend-mode:normal;shape-padding:0;text-decoration-color:#000000;text-decoration-line:none;text-decoration-style:solid;text-indent:0;text-orientation:mixed;text-transform:none;white-space:normal"/>
 <path d="m15.73 2c-2.2232 0-3.9737 0.05118-5.4141 0.29297-1.4404 0.24178-2.619 0.6953-3.4824 1.5566-0.86337 0.86134-1.3191 2.0395-1.5586 3.4805-0.23953 1.441-0.28629 3.1953-0.27539 5.4238v8.2461 10.252c-0.0108 2.2251 0.0361 3.9785 0.27539 5.418 0.23953 1.441 0.69522 2.6191 1.5586 3.4805 0.86338 0.86134 2.042 1.3149 3.4824 1.5566 1.4404 0.24179 3.1909 0.29297 5.4141 0.29297h10.539c2.2232 0 3.9728-0.0511 5.4102-0.29297 1.4374-0.24189 2.6125-0.69694 3.4726-1.5586 0.8602-0.86165 1.3132-2.0389 1.5547-3.4785 0.24149-1.4396 0.29297-3.1904 0.29297-5.418v-10.252-8.252c0-2.2276-0.0515-3.9784-0.29297-5.418-0.24149-1.4396-0.69449-2.6169-1.5547-3.4785-0.86019-0.86165-2.0352-1.3167-3.4726-1.5586-1.4374-0.24189-3.187-0.29297-5.4102-0.29297z" color="#000000" color-rendering="auto" dominant-baseline="auto" image-rendering="auto" opacity=".1" shape-rendering="auto" solid-color="#000000" style="font-feature-settings:normal;font-variant-alternates:normal;font-variant-caps:normal;font-variant-ligatures:normal;font-variant-numeric:normal;font-variant-position:normal;isolation:auto;mix-blend-mode:normal;shape-padding:0;text-decoration-color:#000000;text-decoration-line:none;text-decoration-style:solid;text-indent:0;text-orientation:mixed;text-transform:none;white-space:normal"/>
 <path d="m26.268 1.5c2.2146 0 3.9472 0.05465 5.332 0.28711 1.3848 0.23246 2.4455 0.65434 3.2109 1.418s1.1878 1.8223 1.418 3.207c0.23017 1.3847 0.28039 3.1184 0.26953 5.3379v8.25 10.252c0.0108 2.2183-0.0394 3.9518-0.26953 5.3359-0.23017 1.3847-0.65253 2.4434-1.418 3.207s-1.8261 1.1855-3.2109 1.418c-1.3848 0.23246-3.1174 0.28711-5.332 0.28711h-10.539c-2.2146 0-3.9445-0.0546-5.3262-0.28711-1.3816-0.2325-2.4406-0.65418-3.2031-1.418-0.76249-0.76378-1.1838-1.823-1.416-3.207-0.23217-1.384-0.28516-3.1169-0.28516-5.3359v-10.252-8.252c0-2.2191 0.053-3.952 0.28516-5.3359s0.65352-2.4432 1.416-3.207 1.8215-1.1855 3.2031-1.418c1.3816-0.2325 3.1116-0.28711 5.3262-0.28711z" color="#000000" fill="url(#linearGradient951-6)"/>
 <path d="m26.268 1.5c2.2146 0 3.9472 0.05465 5.332 0.28711 1.3848 0.23246 2.4455 0.65434 3.2109 1.418s1.1878 1.8223 1.418 3.207c0.23017 1.3847 0.28039 3.1184 0.26953 5.3379v8.25 10.252c0.0108 2.2183-0.0394 3.9518-0.26953 5.3359-0.23017 1.3847-0.65253 2.4434-1.418 3.207s-1.8261 1.1855-3.2109 1.418c-1.3848 0.23246-3.1174 0.28711-5.332 0.28711h-10.539c-2.2146 0-3.9445-0.0546-5.3262-0.28711-1.3816-0.2325-2.4406-0.65418-3.2031-1.418-0.76249-0.76378-1.1838-1.823-1.416-3.207-0.23217-1.384-0.28516-3.1169-0.28516-5.3359v-10.252-8.252c0-2.2191 0.053-3.952 0.28516-5.3359s0.65352-2.4432 1.416-3.207 1.8215-1.1855 3.2031-1.418c1.3816-0.2325 3.1116-0.28711 5.3262-0.28711z" color="#000000" opacity=".1"/>
 <path d="m15.73 1.5c-2.2146 0-3.9472 0.05465-5.332 0.28711-1.3848 0.23246-2.4455 0.65434-3.2109 1.418s-1.1878 1.8223-1.418 3.207c-0.23017 1.3847-0.28039 3.1184-0.26953 5.3379v8.25 10.252c-0.0108 2.2183 0.0394 3.9518 0.26953 5.3359 0.23017 1.3847 0.65253 2.4434 1.418 3.207s1.8261 1.1855 3.2109 1.418c1.3848 0.23246 3.1174 0.28711 5.332 0.28711h10.539c2.2146 0 3.9445-0.0546 5.3262-0.28711 1.3816-0.2325 2.4406-0.65418 3.2031-1.418 0.76249-0.76378 1.1838-1.823 1.416-3.207 0.23217-1.384 0.28516-3.1169 0.28516-5.3359v-10.252-8.252c0-2.2191-0.053-3.952-0.28516-5.3359s-0.65352-2.4432-1.416-3.207-1.8215-1.1855-3.2031-1.418c-1.3816-0.2325-3.1116-0.28711-5.3262-0.28711z" color="#000000" fill="none" opacity=".4" stroke="#000"/>
 <path transform="translate(-324,-64)" d="m339.73 66c-8.8242 0-9.7736 0.90635-9.7304 9.7484v10.252 8.2516c-0.0433 8.842 0.90622 9.7484 9.7304 9.7484h10.539c8.8242 0 9.7304-0.90625 9.7304-9.7484v-8.2516-10.252c0-8.8421-0.90622-9.7484-9.7304-9.7484z" clip-path="url(#clipPath2769)" color="#000000" fill="none" opacity=".4" stroke="url(#linearGradient2751)" stroke-width="2"/>
 <path d="m32.268 7.5c2.2146 0 3.9472 0.05465 5.332 0.28711 1.3848 0.23246 2.4455 0.65434 3.2109 1.418s1.1878 1.8223 1.418 3.207c0.23017 1.3847 0.28039 3.1184 0.26953 5.3379v6.25 12.252c0.0108 2.2183-0.0394 3.9518-0.26953 5.3359-0.23017 1.3847-0.65253 2.4434-1.418 3.207s-1.8261 1.1855-3.2109 1.418c-1.3848 0.23246-3.1174 0.28711-5.332 0.28711h-10.539c-2.2146 0-3.9445-0.0546-5.3262-0.28711-1.3816-0.2325-2.4406-0.65418-3.2031-1.418-0.76249-0.76378-1.1838-1.823-1.416-3.207-0.23217-1.384 0.0723-3.1459-0.28516-5.3359v-12.252-6.252c0-2.2191 0.053-3.952 0.28516-5.3359s0.65352-2.4432 1.416-3.207 1.8215-1.1855 3.2031-1.418c1.3816-0.2325 3.1116-0.28711 5.3262-0.28711z" color="#000000" fill="url(#linearGradient951)"/>
 <g transform="matrix(1.1766 0 0 1.1766 -368.33 -144.49)" enable-background="new" fill="none" opacity=".2" stroke="#fff" stroke-linecap="square" stroke-linejoin="round" stroke-width="1.6998">
  <path d="m344.21 147.8a8.5002 8.5001 0 0 1-4.9577 10.053 8.5002 8.5001 0 0 1-10.614-3.603 8.5002 8.5001 0 0 1 2.1868-10.994 8.5002 8.5001 0 0 1 11.185 0.73311l-1.7604 1.7604" enable-background="new" opacity="1"/>
  <circle cx="336" cy="150" r="2.1249" enable-background="new" opacity="1"/>
 </g>
 <g transform="matrix(1.3073 0 0 1.3072 -411.13 -166.2)" enable-background="new" fill="none" stroke="#808080" stroke-linecap="square" stroke-linejoin="round" stroke-width="1.5299">
  <path d="m342.54 148.87a7.6504 7.6505 0 0 1-4.462 9.0482 7.6504 7.6505 0 0 1-9.5531-3.2429 7.6504 7.6505 0 0 1 1.9682-9.8948 7.6504 7.6505 0 0 1 10.067 0.65983l-1.5845 1.5845" enable-background="new"/>
  <ellipse cx="335.15" cy="150.85" rx="1.9125" ry="1.9125" enable-background="new"/>
 </g>
 <path d="m21.73 7.5c-2.2146 0-3.9472 0.05465-5.332 0.28711-1.3848 0.23246-2.4455 0.65434-3.2109 1.418s-1.1878 1.8223-1.418 3.207c-0.23017 1.3847-0.28039 3.1184-0.26953 5.3379v6.25 12.252c-0.0108 2.2183 0.0394 3.9518 0.26953 5.3359 0.23017 1.3847 0.65253 2.4434 1.418 3.207s1.8261 1.1855 3.2109 1.418c1.3848 0.23246 3.1174 0.28711 5.332 0.28711h10.539c2.2146 0 3.9445-0.0546 5.3262-0.28711 1.3816-0.2325 2.4406-0.65418 3.2031-1.418 0.76249-0.76378 1.1838-1.823 1.416-3.207 0.23217-1.384 0.28516-3.1169 0.28516-5.3359v-12.252-6.252c0-2.2191-0.053-3.952-0.28516-5.3359s-0.65352-2.4432-1.416-3.207-1.8215-1.1855-3.2031-1.418c-1.3816-0.2325-3.1116-0.28711-5.3262-0.28711z" color="#000000" fill="none" opacity=".4" stroke="#000"/>
 <path transform="translate(-320,-60)" d="m341.73 68c-8.8242 0-9.7736 0.90635-9.7304 9.7484v6.2516 12.252c-0.0433 8.842 0.90622 9.7484 9.7304 9.7484h10.539c8.8242 0 9.7304-0.90625 9.7304-9.7484v-12.252-6.2516c0-8.8421-0.90622-9.7484-9.7304-9.7484z" clip-path="url(#clipPath2759)" color="#000000" fill="none" opacity=".4" stroke="url(#linearGradient1004)" stroke-width="2"/>
</svg>
