<svg width="48" height="48" version="1" xmlns="http://www.w3.org/2000/svg" xmlns:xlink="http://www.w3.org/1999/xlink">
 <defs>
  <linearGradient id="linearGradient8588" x1="13.735" x2="38.1" y1="249.69" y2="292.77" gradientTransform="matrix(.94488 0 0 .94488 .50001 -233.13)" gradientUnits="userSpaceOnUse">
   <stop stop-color="#cdcdcd" offset="0"/>
   <stop stop-color="#d9d9d9" offset="1"/>
  </linearGradient>
  <linearGradient id="linearGradient8590" x1="96" x2="96" y1="4" y2="188" gradientTransform="matrix(.23913 0 0 .23913 1.0435 1.0435)" gradientUnits="userSpaceOnUse">
   <stop stop-color="#fff" offset="0"/>
   <stop stop-color="#fff" stop-opacity=".098039" offset=".125"/>
   <stop stop-color="#fff" stop-opacity=".098039" offset=".925"/>
   <stop stop-color="#fff" stop-opacity=".49804" offset="1"/>
  </linearGradient>
 </defs>
 <circle transform="scale(-1)" cx="-24" cy="-25" r="23" enable-background="new" opacity=".1"/>
 <circle cx="24" cy="24" r="22.5" enable-background="new" fill="url(#linearGradient8588)"/>
 <path d="m24 1.5a22.5 22.5 0 0 0-22.5 22.5h22.5zm0 22.5v22.5a22.5 22.5 0 0 0 22.5-22.5z" enable-background="new" fill="#fff" opacity=".2"/>
 <path d="m39.91 8.0901a22.5 22.5 0 0 0-31.82 0l15.91 15.91zm-15.91 15.91-15.91 15.91a22.5 22.5 0 0 0 31.82 0z" enable-background="new" opacity=".02"/>
 <path d="m17.862 2.3536a22.5 22.5 0 0 0-0.40855 0.13831 22.5 22.5 0 0 1 1.088-0.29479 22.5 22.5 0 0 0-0.6795 0.15648zm1.7718-0.40813a22.5 22.5 0 0 1 1.1084-0.18407 22.5 22.5 0 0 0-1.1084 0.18407zm-3.2422 0.9057a22.5 22.5 0 0 0-1.0521 0.40174 22.5 22.5 0 0 1 1.0521-0.40174zm5.4682-1.2316a22.5 22.5 0 0 1 1.1167-0.0726 22.5 22.5 0 0 0-1.1167 0.0726zm-7.5398 2.0962a22.5 22.5 0 0 0-1.0113 0.50698 22.5 22.5 0 0 1 1.0113-0.50698zm9.7847-2.1985a22.5 22.5 0 0 1 1.1221 0.0401 22.5 22.5 0 0 0-1.1221-0.0401zm-11.759 3.2655a22.5 22.5 0 0 0-0.95681 0.60572 22.5 22.5 0 0 1 0.95681-0.60572zm14-3.1432a22.5 22.5 0 0 1 1.1156 0.15198 22.5 22.5 0 0 0-1.1156-0.15198zm-15.86 4.4029a22.5 22.5 0 0 0-0.89167 0.69875 22.5 22.5 0 0 1 0.89167-0.69875zm18.085-4.0566a22.5 22.5 0 0 1 1.087 0.26077 22.5 22.5 0 0 0-1.087-0.26077zm-20.134 5.7842a22.5 22.5 0 0 0-0.25517 0.23777 22.5 22.5 0 0 1 0.25517-0.23777zm-0.33667 0.32622a22.5 22.5 0 0 0-3.5821 4.6535l19.485 11.25zm15.903 15.903 15.903 15.903a22.5 22.5 0 0 0 3.5821-4.6535zm6.742-21.448a22.5 22.5 0 0 1 1.0578 0.36852 22.5 22.5 0 0 0-1.0578-0.36852zm2.1063 0.77975a22.5 22.5 0 0 1 1.021 0.47508 22.5 22.5 0 0 0-1.021-0.47508zm2.0192 0.98671a22.5 22.5 0 0 1 0.36907 0.21917l0.0133-0.0231a22.5 22.5 0 0 0-0.38236-0.1961zm-22.104 39.144-0.0133 0.0231a22.5 22.5 0 0 0 0.38239 0.1961 22.5 22.5 0 0 1-0.36907-0.21917zm1.3673 0.7308a22.5 22.5 0 0 0 1.021 0.47508 22.5 22.5 0 0 1-1.021-0.47508zm2.0695 0.88631a22.5 22.5 0 0 0 1.0578 0.36852 22.5 22.5 0 0 1-1.0578-0.36852zm23.622-5.0876a22.5 22.5 0 0 1-0.25516 0.23776 22.5 22.5 0 0 0 0.25516-0.23776zm-21.477 5.7611a22.5 22.5 0 0 0 1.087 0.26078 22.5 22.5 0 0 1-1.087-0.26078zm20.064-4.4946a22.5 22.5 0 0 1-0.89166 0.69875 22.5 22.5 0 0 0 0.89166-0.69875zm-17.868 4.9497a22.5 22.5 0 0 0 1.1156 0.15198 22.5 22.5 0 0 1-1.1156-0.15198zm16.072-3.5969a22.5 22.5 0 0 1-0.95681 0.60572 22.5 22.5 0 0 0 0.95681-0.60572zm-13.838 3.831a22.5 22.5 0 0 0 1.1221 0.0401 22.5 22.5 0 0 1-1.1221-0.0401zm11.918-2.6654a22.5 22.5 0 0 1-1.0113 0.50699 22.5 22.5 0 0 0 1.0113-0.50699zm-9.6678 2.6758a22.5 22.5 0 0 0 1.1167-0.0726 22.5 22.5 0 0 1-1.1167 0.0726zm7.637-1.7059a22.5 22.5 0 0 1-1.0521 0.40174 22.5 22.5 0 0 0 1.0521-0.40174zm-5.4026 1.4915a22.5 22.5 0 0 0 1.1084-0.18407 22.5 22.5 0 0 1-1.1084 0.18407zm3.2887-0.73051a22.5 22.5 0 0 1-1.0881 0.29479 22.5 22.5 0 0 0 1.0881-0.29479z" enable-background="new" fill="#faf8f6"/>
 <circle transform="scale(1,-1)" cx="24" cy="-24" r="8.0357" enable-background="new" fill="#aea795"/>
 <circle cx="24" cy="24" r="7" enable-background="new" fill="#faf8f6"/>
 <circle cx="24" cy="24" r="3" enable-background="new" fill="#4d4d4d"/>
 <circle cx="24" cy="24" r="22.5" enable-background="new" fill="none" opacity=".4" stroke="#000" stroke-dashoffset="6.6" stroke-linejoin="round"/>
 <path d="m24 2a22 22 0 0 0-22 22 22 22 0 0 0 22 22 22 22 0 0 0 22-22 22 22 0 0 0-22-22zm0 0.95653a21.043 21.043 0 0 1 21.043 21.043 21.043 21.043 0 0 1-21.043 21.043 21.043 21.043 0 0 1-21.043-21.043 21.043 21.043 0 0 1 21.043-21.043z" enable-background="new" fill="url(#linearGradient8590)"/>
</svg>
