<svg width="48" height="48" version="1" xmlns="http://www.w3.org/2000/svg" xmlns:xlink="http://www.w3.org/1999/xlink">
 <defs>
  <linearGradient id="linearGradient920" x1="366" x2="322" y1="84" y2="84" gradientUnits="userSpaceOnUse">
   <stop stop-color="#fff" offset="0"/>
   <stop stop-color="#fff" stop-opacity=".098039" offset=".125"/>
   <stop stop-color="#fff" stop-opacity=".098039" offset=".925"/>
   <stop stop-color="#fff" stop-opacity=".49804" offset="1"/>
  </linearGradient>
  <clipPath id="clipPath892">
   <path d="m366 93c0 5-1.9565 4.9417-7 5h-30c-5.0435-0.0583-7 0-7-5v-18c0-5 1.9565-4.9417 7-5h30c5.0435 0.05831 7 0 7 5z" color="#000000" fill="#cdcdcd"/>
  </clipPath>
  <linearGradient id="linearGradient13871" x1="336" x2="352" y1="67" y2="101" gradientTransform="matrix(.91667 0 0 .47059 -291.33 -25.029)" gradientUnits="userSpaceOnUse">
   <stop stop-color="#9a9a9a" offset="0"/>
   <stop stop-color="#c5c5c5" offset="1"/>
  </linearGradient>
  <radialGradient id="radialGradient1052-9-7" cx="232.77" cy="368.96" r="160" gradientTransform="matrix(-.063866 -.11952 .04165 -.022256 19.44 85.174)" gradientUnits="userSpaceOnUse">
   <stop stop-color="#cdcdcd" offset="0"/>
   <stop stop-color="#d9d9d9" offset="1"/>
  </radialGradient>
 </defs>
 <path d="m33 3.0002c5 0 4.9417 1.9565 5 7v30c-0.0583 5.0435 0 7-5 7h-18c-5 0-4.9417-1.9565-5-7v-30c0.0583-5.0435 0-7 5-7z" color="#000000" fill="none" opacity=".2" stroke="#000" stroke-width="2"/>
 <path d="m38.5 39.006c-0.0291 2.5191 0.0152 4.3144-0.70898 5.627-0.36209 0.65627-0.94448 1.1554-1.7324 1.4512s-1.776 0.41602-3.0586 0.41602h-18c-1.2826 0-2.2706-0.12024-3.0586-0.41602s-1.3703-0.7949-1.7324-1.4512c-0.72418-1.3125-0.67986-3.1079-0.70898-5.627v-4e-3 -30.004-4e-3c0.0291-2.5191-0.0152-4.3144 0.70898-5.627 0.36209-0.65627 0.94448-1.1554 1.7324-1.4512 0.78794-0.29542 1.776-0.41584 3.0586-0.41584h18c1.2826 0 2.2706 0.12024 3.0586 0.41602s1.3703 0.7949 1.7324 1.4512c0.72417 1.3125 0.67986 3.1079 0.70898 5.627v4e-3 30.004z" color="#000000" fill="#4d4d4d"/>
 <path d="m15 1.5c-1.2826 0-2.2706 0.1206-3.0586 0.41602-0.78795 0.29578-1.3703 0.7949-1.7324 1.4512-0.72418 1.3125-0.67988 3.1079-0.70898 5.627v0.0039 30.004 0.0039c0.0291 2.5191-0.0152 4.3144 0.70898 5.627 0.36209 0.65627 0.94448 1.1554 1.7324 1.4512s1.776 0.41602 3.0586 0.41602h9v-45z" color="#000000" opacity=".03"/>
 <path d="m9.5 39.006c0.0291 2.5191-0.0152 4.3144 0.70898 5.627 0.36209 0.65627 0.94448 1.1554 1.7324 1.4512 0.78794 0.29578 1.776 0.41602 3.0586 0.41602h18c1.2826 0 2.2706-0.12024 3.0586-0.41602s1.3703-0.7949 1.7324-1.4512c0.72417-1.3125 0.67986-3.1079 0.70898-5.627v-4e-3 -30.004-4e-3c-0.0291-2.5191 0.0152-4.3144-0.70898-5.627-0.36209-0.65627-0.94448-1.1554-1.7324-1.4512-0.78795-0.29542-1.776-0.41584-3.0586-0.41584h-18c-1.2826 0-2.2706 0.12024-3.0586 0.41602-0.78795 0.29578-1.3703 0.7949-1.7324 1.4512-0.72417 1.3125-0.67986 3.1079-0.70898 5.627v4e-3 30.004z" color="#000000" fill="none" opacity=".3" stroke="#000"/>
 <path transform="rotate(-90 154 214)" d="m366 93c0 5-1.9565 4.9417-7 5h-30c-5.0435-0.0583-7 0-7-5v-18c0-5 1.9565-4.9417 7-5h30c5.0435 0.05831 7 0 7 5z" clip-path="url(#clipPath892)" color="#000000" fill="none" opacity=".3" stroke="url(#linearGradient920)" stroke-width="2"/>
 <rect x="13" y="6.5" width="22" height="16" rx=".91667" ry=".47059" enable-background="new" fill="url(#linearGradient13871)"/>
 <path d="m23.417 6.5-10.417 10.695v4.5777c0 0.40291 0.63184 0.72727 1.4167 0.72727h3.1667l15.583-16z" enable-background="new" fill="#fff" opacity=".1"/>
 <path d="m13.917 6.5c-0.50782 0-0.91666 0.20988-0.91666 0.47059v10.224l10.416-10.695z" enable-background="new" fill="#fff" opacity=".2"/>
 <path d="m13.917 6c-0.50782 0-0.91666 0.446-0.91666 1v1c0-0.554 0.40884-1 0.91666-1h20.167c0.50782 0 0.91666 0.446 0.91666 1v-1c0-0.554-0.40884-1-0.91666-1z" enable-background="new" fill="#9a9a9a"/>
 <path d="m13 20.722v0.88889c0 0.49244 0.40884 0.88889 0.91666 0.88889h20.167c0.50782 0 0.91666-0.39644 0.91666-0.88889v-0.88889c0 0.49244-0.40884 0.88889-0.91666 0.88889h-20.167c-0.50782 0-0.91666-0.39644-0.91666-0.88889z" enable-background="new" fill="#9a9a9a" opacity=".4"/>
 <circle cx="23.897" cy="34.102" r="8" enable-background="new" fill="#9a9a9a" style="paint-order:normal"/>
 <ellipse transform="matrix(.96593 -.25881 .25883 .96592 0 0)" cx="14.256" cy="39.124" rx="7.5555" ry="7.5556" enable-background="new" fill="url(#radialGradient1052-9-7)" style="paint-order:normal"/>
 <circle cx="23.893" cy="34.133" r="4" enable-background="new" fill="#9a9a9a" style="paint-order:normal"/>
 <circle cx="23.893" cy="34.133" r="3.5556" enable-background="new" fill="#4d4d4d" style="paint-order:normal"/>
 <path d="m21.778 32.998v2.2222s1.4073-0.52463 2.3702-1.1111c-0.96289-0.58648-2.3702-1.1111-2.3702-1.1111z" color="#000000" enable-background="new" fill="#fff" overflow="visible" stroke-width=".20286"/>
 <path d="m24 33.183v1.8518h0.88891v-1.8518zm1.3333 0v1.8518h0.88889v-1.8518z" color="#000000" enable-background="new" fill="#fff" font-family="sans-serif" font-weight="400" overflow="visible" stroke-width=".20286" style="font-feature-settings:normal;font-variant-alternates:normal;font-variant-caps:normal;font-variant-ligatures:normal;font-variant-numeric:normal;font-variant-position:normal;isolation:auto;mix-blend-mode:normal;shape-padding:0;text-decoration-color:#000000;text-decoration-line:none;text-decoration-style:solid;text-indent:0;text-orientation:mixed;text-transform:none" white-space="normal"/>
</svg>
