<?xml version="1.0" encoding="UTF-8" standalone="no"?>
<!-- Created with Inkscape (http://www.inkscape.org/) -->

<svg
   width="32"
   height="32"
   viewBox="0 0 8.4666665 8.4666669"
   version="1.1"
   id="svg5"
   inkscape:version="1.1.2 (0a00cf5339, 2022-02-04)"
   sodipodi:docname="applications-office.svg"
   xmlns:inkscape="http://www.inkscape.org/namespaces/inkscape"
   xmlns:sodipodi="http://sodipodi.sourceforge.net/DTD/sodipodi-0.dtd"
   xmlns:xlink="http://www.w3.org/1999/xlink"
   xmlns="http://www.w3.org/2000/svg"
   xmlns:svg="http://www.w3.org/2000/svg">
  <sodipodi:namedview
     id="namedview7"
     pagecolor="#ffffff"
     bordercolor="#666666"
     borderopacity="1.0"
     inkscape:pageshadow="2"
     inkscape:pageopacity="0.0"
     inkscape:pagecheckerboard="0"
     inkscape:document-units="px"
     showgrid="false"
     units="px"
     height="32px"
     inkscape:zoom="24.8125"
     inkscape:cx="16"
     inkscape:cy="16"
     inkscape:window-width="1920"
     inkscape:window-height="1017"
     inkscape:window-x="0"
     inkscape:window-y="0"
     inkscape:window-maximized="1"
     inkscape:current-layer="svg5" />
  <defs
     id="defs2">
    <linearGradient
       inkscape:collect="always"
       id="linearGradient1871">
      <stop
         style="stop-color:#ffffff;stop-opacity:1;"
         offset="0"
         id="stop1867" />
      <stop
         style="stop-color:#ffffff;stop-opacity:0.1"
         offset="0.12"
         id="stop2515" />
      <stop
         style="stop-color:#ffffff;stop-opacity:0.102"
         offset="0.89999998"
         id="stop2581" />
      <stop
         style="stop-color:#ffffff;stop-opacity:0.502"
         offset="1"
         id="stop1869" />
    </linearGradient>
    <linearGradient
       inkscape:collect="always"
       id="linearGradient3598">
      <stop
         style="stop-color:#f5f5f5;stop-opacity:1"
         offset="0"
         id="stop3594" />
      <stop
         style="stop-color:#e8e8e8;stop-opacity:1"
         offset="1"
         id="stop3596" />
    </linearGradient>
    <linearGradient
       inkscape:collect="always"
       xlink:href="#linearGradient3598"
       id="linearGradient885"
       x1="5.840589"
       y1="8.2020836"
       x2="2.6656919"
       y2="0.39687499"
       gradientUnits="userSpaceOnUse" />
    <linearGradient
       inkscape:collect="always"
       xlink:href="#linearGradient1871"
       id="linearGradient1659"
       x1="2.6654696"
       y1="0.52916664"
       x2="2.69718"
       y2="7.9375"
       gradientUnits="userSpaceOnUse" />
    <linearGradient
       inkscape:collect="always"
       xlink:href="#linearGradient4254"
       id="linearGradient1916"
       x1="4.8684359"
       y1="6.5691476"
       x2="4.8684359"
       y2="4.9816475"
       gradientUnits="userSpaceOnUse" />
    <linearGradient
       id="linearGradient4254">
      <stop
         stop-color="#fff"
         offset="0"
         id="stop31" />
      <stop
         stop-color="#fff"
         stop-opacity=".3"
         offset="1"
         id="stop33" />
    </linearGradient>
    <linearGradient
       inkscape:collect="always"
       xlink:href="#linearGradient4254"
       id="linearGradient1050"
       x1="6.8791666"
       y1="5.0270834"
       x2="6.8791666"
       y2="3.1750002"
       gradientUnits="userSpaceOnUse" />
  </defs>
  <path
     d="m 2.69718,0.52916666 c -0.3759491,0 -0.6743515,0.008149 -0.9275577,0.0506439 C 1.5164187,0.62231322 1.2956504,0.70485264 1.131442,0.86867999 0.96723635,1.0325073 0.88367825,1.2539451 0.84154865,1.5074027 c -0.04213,0.2534576 -0.049384,0.5521986 -0.04754,0.9291399 v 2.061374 2.0629245 c -0.00185,0.3760549 0.00548,0.6745552 0.04754,0.9275894 0.04213,0.2534603 0.1256877,0.4748954 0.28989335,0.6387227 0.1642084,0.1638274 0.3849767,0.2463668 0.6381803,0.2888695 0.2532062,0.042505 0.5516086,0.050644 0.9275577,0.050644 h 3.0730798 c 0.3759518,0 0.6737879,-0.00812 0.9265259,-0.050644 C 6.9495262,8.3734909 7.1697892,8.290544 7.3334155,8.1266346 7.4970418,7.9627253 7.5798246,7.7420284 7.6222743,7.4889491 7.6647267,7.2358672 7.6729156,6.9375495 7.6729156,6.5608411 V 4.4979166 2.4349921 c 0,-0.3767084 -0.0082,-0.6750261 -0.050641,-0.928108 C 7.5798246,1.2538022 7.4970418,1.033108 7.3334155,0.86919857 7.1697892,0.70528655 6.9495262,0.62234233 6.6967857,0.57981056 6.4440477,0.53727614 6.1462116,0.52916666 5.7702598,0.52916666 Z"
     style="color:#000000;font-style:normal;font-variant:normal;font-weight:normal;font-stretch:normal;font-size:medium;line-height:normal;font-family:sans-serif;font-variant-ligatures:normal;font-variant-position:normal;font-variant-caps:normal;font-variant-numeric:normal;font-variant-alternates:normal;font-feature-settings:normal;text-indent:0;text-align:start;text-decoration:none;text-decoration-line:none;text-decoration-style:solid;text-decoration-color:#000000;letter-spacing:normal;word-spacing:normal;text-transform:none;writing-mode:lr-tb;direction:ltr;text-orientation:mixed;dominant-baseline:auto;baseline-shift:baseline;text-anchor:start;white-space:normal;shape-padding:0;clip-rule:nonzero;display:inline;overflow:visible;visibility:visible;opacity:0.1;isolation:auto;mix-blend-mode:normal;color-interpolation:sRGB;color-interpolation-filters:linearRGB;solid-color:#000000;solid-opacity:1;vector-effect:none;fill:#000000;fill-opacity:1;fill-rule:nonzero;stroke:none;stroke-width:0.529156;stroke-linecap:butt;stroke-linejoin:miter;stroke-miterlimit:4;stroke-dasharray:none;stroke-dashoffset:0;stroke-opacity:1;marker:none;color-rendering:auto;image-rendering:auto;shape-rendering:auto;text-rendering:auto;enable-background:accumulate"
     id="path1922" />
  <path
     d="m 2.6656919,0.396875 c -1.4715463,0 -1.74722885,0.15454047 -1.73949505,1.6621839 v 2.1742532 2.1742955 c -0.00775,1.5076435 0.26794875,1.662184 1.73949505,1.662184 h 3.1354289 c 1.4711812,0 1.7394952,-0.1545246 1.7394952,-1.662184 V 4.2333121 2.0590589 c 0,-1.5076593 -0.268314,-1.6621839 -1.7394952,-1.6621839 z"
     style="color:#000000;display:inline;overflow:visible;visibility:visible;fill:url(#linearGradient885);fill-opacity:1;fill-rule:nonzero;stroke:none;stroke-width:0.264583;marker:none;enable-background:accumulate"
     id="path2042" />
  <path
     id="path47"
     d="M 1.5875,2.1166667 V 2.3812501 H 6.8791666 V 2.1166667 Z m 0,0.5291667 V 2.9104167 H 6.371704 V 2.6458334 Z m 0,0.5291667 V 5.2916667 H 3.96875 V 3.1750001 Z m 2.9104166,1.0583333 v 0.2619994 h 2.38125 V 4.2333334 Z m 0,0.5291666 v 0.2645834 h 2.38125 V 4.7625 Z M 1.5875,5.55625 V 5.8208334 H 6.8791666 V 5.55625 Z m 0,0.5291667 V 6.35 H 5.0270833 V 6.0854167 Z"
     style="fill:#c8c4b7;fill-opacity:0.99664;stroke-width:0.264583" />
  <path
     id="path73-3"
     style="opacity:0.1;fill:#000000;fill-opacity:1;stroke-width:0.132291"
     d="m 6.4172866,3.0194118 c 0,0 -0.8185397,1.0819696 -1.4593422,2.0133137 C 4.0514399,5.6911112 2.998891,6.5323756 2.998891,6.5323756 l 0.2051555,0.2149739 c 0,0 0.7265844,-0.6955348 1.4862142,-1.3094808 C 4.6158842,5.5513969 4.5231015,5.6835576 4.4634011,5.7815169 4.16077,6.2780776 3.9954406,7.492097 4.0918476,7.5343814 4.2579641,7.6072416 4.4275543,7.4095248 4.415342,7.1747135 4.3926672,6.7390762 4.4069414,6.2888488 4.5941423,5.8972721 4.7006712,5.6744559 4.8757256,5.4073787 5.0680153,5.1355616 5.330211,4.940101 5.5846986,4.7676397 5.7997534,4.6591047 6.180878,4.4667699 6.6190793,4.4518405 7.0430883,4.4751368 7.2716317,4.4876833 7.463853,4.3135296 7.3929376,4.1428574 7.3517819,4.0438064 6.170405,4.2138155 5.6870989,4.5247462 5.5913814,4.5863237 5.4621801,4.6820761 5.3512019,4.7588405 5.9490274,3.9778387 6.627093,3.2302516 6.627093,3.2302516 Z" />
  <path
     id="path1358-6"
     style="color:#000000;opacity:0.1;fill:#000000;fill-opacity:1;stroke:none;stroke-width:0.132292;-inkscape-stroke:none"
     d="m 6.4201029,2.9126746 c -0.018039,-0.00556 -0.046541,1.66e-4 -0.057361,0.0062 -0.03341,0.018647 -0.090347,0.060372 -0.1648475,0.1147227 -0.074501,0.054351 -0.1579767,0.1168802 -0.2154906,0.162264 -0.1575684,0.1243342 -0.3248511,0.2762423 -0.45837,0.4108277 l -0.00156,-5.163e-4 -0.029972,0.030489 C 5.44678,3.6837241 5.4063851,3.728095 5.3731279,3.7679203 5.2070607,3.9667644 5.0138225,4.2456339 4.8806516,4.4795046 4.7992573,4.622423 4.8046356,4.6151959 4.7225218,4.7058474 4.6235442,4.8151177 4.5882573,4.8430377 4.4274494,4.9409749 4.263858,5.0406009 4.1408186,5.1261361 3.9602945,5.2649864 3.7790784,5.4043464 3.6920835,5.4831274 3.542749,5.6427409 3.3810833,5.815548 3.2486749,5.9784477 3.0978151,6.191028 c -0.030316,0.04271 -0.07149,0.102967 -0.1069703,0.1555459 -0.01774,0.026289 -0.033979,0.050642 -0.046509,0.069763 -0.01253,0.019121 -0.019067,0.027847 -0.026872,0.042892 -0.00418,0.00806 -0.011348,0.04476 -0.00362,0.064596 0.00773,0.019836 0.015712,0.027002 0.024805,0.037207 0.018185,0.02041 0.046677,0.048567 0.1028361,0.1033528 l 5.162e-4,3e-7 0.1147332,0.110587 0.050126,-0.00413 c 0.021027,-0.00167 0.040006,-0.00566 0.059428,-0.011885 0.00373,-0.00119 0.017102,-0.00235 0.058911,0.019121 0.041808,0.021469 0.1047607,0.062408 0.1932694,0.1224683 0.197214,0.1338036 0.2890633,0.1848158 0.414445,0.2294435 0.172299,0.061338 0.3521838,0.067795 0.5276161,0.018603 C 4.5594743,7.1208503 4.660697,7.0603036 4.7721422,6.9677255 4.8346806,6.915784 4.969607,6.7711476 5.0207058,6.7031421 5.1087169,6.5858123 5.1823037,6.4570956 5.2217271,6.3470913 5.3072505,6.1084001 5.2695731,5.8322089 5.1225084,5.5295704 5.0758565,5.433604 4.9679462,5.2481442 4.9121853,5.1688689 4.8670628,5.1047225 4.8563405,5.0739239 4.8568913,5.0644823 c 5.556e-4,-0.00944 0.012883,-0.034203 0.064596,-0.087333 0.051186,-0.05259 0.075928,-0.065946 0.085266,-0.066662 0.00934,-7.145e-4 0.037798,0.00905 0.098185,0.053227 0.077307,0.056529 0.252321,0.1648894 0.342098,0.2118732 0.2510465,0.1313881 0.4862997,0.1839264 0.690397,0.1431429 0.1403383,-0.02805 0.2739876,-0.096417 0.435632,-0.2180745 C 6.6763531,5.0229343 6.8330015,4.8648277 6.9032778,4.7657926 7.0043381,4.6233439 7.0486497,4.5043372 7.065025,4.3322273 7.0794526,4.1802078 7.0465624,4.0083213 6.9756249,3.8506032 6.9382107,3.7674244 6.90056,3.7013296 6.8102604,3.5601815 c -0.042783,-0.066876 -0.081152,-0.125602 -0.1095542,-0.17105 -0.028402,-0.045448 -0.048105,-0.086279 -0.046509,-0.081132 -0.00127,-0.00411 -0.0027,-0.00907 0.00878,-0.063045 l 0.014987,-0.069763 -0.069246,-0.079065 c -0.025777,-0.029475 -0.054393,-0.06201 -0.09198,-0.1012862 -0.030201,-0.031542 -0.046323,-0.048385 -0.062528,-0.062012 -0.0081,-0.00681 -0.016068,-0.014592 -0.034107,-0.020154 z m -0.049609,0.6366538 c 0.041053,0.014151 0.079833,0.044497 0.1715659,0.1384927 l 5.261e-4,5.186e-4 C 6.7374601,3.8881 6.8242063,4.0624437 6.8268063,4.2495457 6.8284963,4.3737943 6.7928443,4.4867031 6.7095006,4.6138645 6.6788216,4.6606855 6.6549256,4.6888385 6.5694577,4.7787123 6.4540475,4.9000635 6.4522063,4.9013518 6.3746371,4.9564793 6.2562112,5.0406266 6.1457709,5.0844908 6.0253046,5.0908381 5.9045138,5.0971961 5.7721218,5.0662397 5.6087926,4.9962702 5.4767535,4.9396661 5.3656651,4.8669236 5.2868483,4.7869805 5.2304332,4.7297396 5.2003203,4.6843735 5.1891801,4.6360855 5.178102,4.5880641 5.1854204,4.5338455 5.2113998,4.459352 5.2756488,4.2751124 5.4024529,4.0836839 5.5586653,3.9224339 5.7148816,3.7611769 5.8996058,3.6306079 6.0769798,3.5653498 c 0.093332,-0.034348 0.2216819,-0.040763 0.2935221,-0.01602 z m -1.7766354,1.689819 c 0.046591,0.011382 0.090808,0.042146 0.1472776,0.1002525 0.1037809,0.1068024 0.1850002,0.2538146 0.2495975,0.4537188 0.038055,0.117801 0.054122,0.2064251 0.053226,0.2868044 -0.00185,0.1672328 -0.066009,0.321614 -0.2092893,0.4940265 C 4.6794776,6.7606588 4.510188,6.884177 4.3561464,6.9274165 4.2584151,6.9548364 4.1153692,6.9457654 4.0114649,6.9046783 L 4.010949,6.9041492 C 3.8915384,6.8568726 3.7940184,6.7859792 3.6554143,6.643713 3.608127,6.5951947 3.5824051,6.5685481 3.5665309,6.549662 3.5515089,6.5317895 3.5447996,6.5201661 3.5360418,6.5026364 3.5056658,6.4418432 3.498219,6.3348064 3.5195054,6.2266842 3.5348961,6.1484508 3.6040647,5.9987023 3.6828028,5.8783851 3.7393326,5.7920132 3.8070622,5.7085895 3.8812402,5.6318887 h 5.165e-4 c 0.1636448,-0.1690842 0.359282,-0.305435 0.5400185,-0.3705201 0.073204,-0.026355 0.1257501,-0.033542 0.1720826,-0.022222 z" />
  <path
     id="path49"
     d="m 4.4979166,3.1750001 v 0.2645833 h 2.38125 V 3.1750001 Z m 0,0.5291666 v 0.2645834 h 1.5875 V 3.7041667 Z"
     style="fill:#aea795;fill-opacity:0.99739;stroke-width:0.264583" />
  <path
     id="path65"
     d="M 3.4395833,3.4395834 C 3.2934592,3.4395834 3.175,3.55804 3.175,3.7041667 c 0,0.1461241 0.1184592,0.2645834 0.2645833,0.2645834 0.1461241,0 0.2645833,-0.1184593 0.2645833,-0.2645834 0,-0.1461267 -0.1184592,-0.2645833 -0.2645833,-0.2645833 z M 2.5502319,3.8235393 1.8520833,5.0270834 h 1.5875 L 2.975529,4.137732 2.8447875,4.3883628 Z"
     style="fill:#e7e7df;fill-opacity:1;stroke-width:0.264583" />
  <g
     id="g2323"
     transform="translate(-0.52916667,0.26458339)">
    <path
       id="path73"
       style="fill:#636363;fill-opacity:1;stroke-width:0.132291"
       d="m 6.9464533,2.648995 c 0,0 -0.8185397,1.0819696 -1.4593422,2.0133137 C 4.5806066,5.3206944 3.5280577,6.1619588 3.5280577,6.1619588 l 0.2051555,0.2149739 c 0,0 0.7265844,-0.6955348 1.4862142,-1.3094808 C 5.1450509,5.1809801 5.0522682,5.3131408 4.9925678,5.4111001 4.6899367,5.9076608 4.5246073,7.1216802 4.6210143,7.1639646 4.7871308,7.2368248 4.956721,7.039108 4.9445087,6.8042967 4.9218339,6.3686594 4.9361081,5.918432 5.123309,5.5268553 5.2298379,5.3040391 5.4048923,5.0369619 5.597182,4.7651448 5.8593777,4.5696842 6.1138653,4.3972229 6.3289201,4.2886879 6.7100447,4.0963531 7.148246,4.0814237 7.572255,4.10472 7.8007984,4.1172665 7.9930197,3.9431128 7.9221043,3.7724406 7.8809486,3.6733896 6.6995717,3.8433987 6.2162656,4.1543294 6.1205481,4.2159069 5.9913468,4.3116593 5.8803686,4.3884237 6.4781941,3.6074219 7.1562597,2.8598348 7.1562597,2.8598348 Z" />
    <path
       id="path1358"
       style="color:#000000;fill:#3b3b3b;stroke:none;stroke-width:0.132292;-inkscape-stroke:none"
       d="m 6.9492696,2.5422578 c -0.018039,-0.00556 -0.046541,1.66e-4 -0.057361,0.0062 -0.03341,0.018647 -0.090347,0.060372 -0.1648475,0.1147227 -0.074501,0.054351 -0.1579767,0.1168802 -0.2154906,0.162264 -0.1575684,0.1243342 -0.3248511,0.2762423 -0.45837,0.4108277 l -0.00156,-5.163e-4 -0.029972,0.030489 C 5.9759467,3.3133073 5.9355518,3.3576782 5.9022946,3.3975035 5.7362274,3.5963476 5.5429892,3.8752171 5.4098183,4.1090878 5.328424,4.2520062 5.3338023,4.2447791 5.2516885,4.3354306 5.1527109,4.4447009 5.117424,4.4726209 4.9566161,4.5705581 4.7930247,4.6701841 4.6699853,4.7557193 4.4894612,4.8945696 4.3082451,5.0339296 4.2212502,5.1127106 4.0719157,5.2723241 3.91025,5.4451312 3.7778416,5.6080309 3.6269818,5.8206112 c -0.030316,0.04271 -0.07149,0.102967 -0.1069703,0.1555459 -0.01774,0.026289 -0.033979,0.050642 -0.046509,0.069763 -0.01253,0.019121 -0.019067,0.027847 -0.026872,0.042892 -0.00418,0.00806 -0.011348,0.04476 -0.00362,0.064596 0.00773,0.019836 0.015712,0.027002 0.024805,0.037207 0.018185,0.02041 0.046677,0.048567 0.1028361,0.1033528 l 5.162e-4,3e-7 0.1147332,0.110587 0.050126,-0.00413 c 0.021027,-0.00167 0.040006,-0.00566 0.059428,-0.011885 0.00373,-0.00119 0.017102,-0.00235 0.058911,0.019121 0.041808,0.021469 0.1047607,0.062408 0.1932694,0.1224683 0.197214,0.1338036 0.2890633,0.1848158 0.414445,0.2294435 0.172299,0.061338 0.3521838,0.067795 0.5276161,0.018603 C 5.088641,6.7504335 5.1898637,6.6898868 5.3013089,6.5973087 5.3638473,6.5453672 5.4987737,6.4007308 5.5498725,6.3327253 5.6378836,6.2153955 5.7114704,6.0866788 5.7508938,5.9766745 5.8364172,5.7379833 5.7987398,5.4617921 5.6516751,5.1591536 5.6050232,5.0631872 5.4971129,4.8777274 5.441352,4.7984521 5.3962295,4.7343057 5.3855072,4.7035071 5.386058,4.6940655 5.3866136,4.6846255 5.398941,4.6598625 5.450654,4.6067325 5.50184,4.5541425 5.526582,4.5407865 5.53592,4.5400705 5.54526,4.539356 5.573718,4.5491205 5.634105,4.5932975 5.711412,4.6498265 5.886426,4.7581869 5.976203,4.8051707 6.2272495,4.9365588 6.4625027,4.9890971 6.6666,4.9483136 6.8069383,4.9202636 6.9405876,4.8518966 7.102232,4.7302391 7.2055198,4.6525175 7.3621682,4.4944109 7.4324445,4.3953758 7.5335048,4.2529271 7.5778164,4.1339204 7.5941917,3.9618105 7.6086193,3.809791 7.5757291,3.6379045 7.5047916,3.4801864 7.4673774,3.3970076 7.4297267,3.3309128 7.3394271,3.1897647 c -0.042783,-0.066876 -0.081152,-0.125602 -0.1095542,-0.17105 -0.028402,-0.045448 -0.048105,-0.086279 -0.046509,-0.081132 -0.00127,-0.00411 -0.0027,-0.00907 0.00878,-0.063045 l 0.014987,-0.069763 -0.069246,-0.079065 c -0.025777,-0.029475 -0.054393,-0.06201 -0.09198,-0.1012862 -0.030201,-0.031542 -0.046323,-0.048385 -0.062528,-0.062012 -0.0081,-0.00681 -0.016068,-0.014592 -0.034107,-0.020154 z m -0.049609,0.6366538 c 0.041053,0.014151 0.079833,0.044497 0.1715659,0.1384927 l 5.261e-4,5.186e-4 C 7.2666268,3.5176832 7.353373,3.6920269 7.355973,3.8791289 7.357663,4.0033775 7.322011,4.1162863 7.2386673,4.2434477 7.2079883,4.2902687 7.1840923,4.3184217 7.0986244,4.4082955 6.9832142,4.5296467 6.981373,4.530935 6.9038038,4.5860625 6.7853779,4.6702098 6.6749376,4.714074 6.5544713,4.7204213 6.4336805,4.7267793 6.3012885,4.6958229 6.1379593,4.6258534 6.0059202,4.5692493 5.8948318,4.4965068 5.816015,4.4165637 5.7595999,4.3593228 5.729487,4.3139567 5.7183468,4.2656687 5.7072687,4.2176473 5.7145871,4.1634287 5.7405665,4.0889352 5.8048155,3.9046956 5.9316196,3.7132671 6.087832,3.5520171 6.2440483,3.3907601 6.4287725,3.2601911 6.6061465,3.194933 6.6994785,3.160585 6.8278284,3.15417 6.8996686,3.178913 Z m -1.7766354,1.689819 c 0.046591,0.011382 0.090808,0.042146 0.1472776,0.1002525 0.1037809,0.1068024 0.1850002,0.2538146 0.2495975,0.4537188 0.038055,0.117801 0.054122,0.2064251 0.053226,0.2868044 C 5.5712763,5.8767391 5.5071173,6.0311203 5.363837,6.2035328 5.2086443,6.390242 5.0393547,6.5137602 4.8853131,6.5569997 4.7875818,6.5844196 4.6445359,6.5753486 4.5406316,6.5342615 L 4.5401157,6.5337324 C 4.4207051,6.4864558 4.3231851,6.4155624 4.184581,6.2732962 4.1372937,6.2247779 4.1115718,6.1981313 4.0956976,6.1792452 4.0806756,6.1613727 4.0739663,6.1497493 4.0652085,6.1322196 4.0348325,6.0714264 4.0273857,5.9643896 4.0486721,5.8562674 4.0640628,5.778034 4.1332314,5.6282855 4.2119695,5.5079683 4.2684993,5.4215964 4.3362289,5.3381727 4.4104069,5.2614719 h 5.165e-4 C 4.5745682,5.0923877 4.7702054,4.9560369 4.9509419,4.8909518 5.0241459,4.8645968 5.076692,4.8574098 5.1230245,4.8687298 Z" />
    <path
       d="m 4.3880421,5.2557246 c -0.077062,0.079625 -0.1473214,0.1662803 -0.2065348,0.2567545 -0.082232,0.125656 -0.1543789,0.2749305 -0.173512,0.3721823 -0.023334,0.118553 -0.01824,0.2378382 0.022847,0.3200652 0.010073,0.020158 0.020571,0.03795 0.038993,0.059863 0.018428,0.021923 0.044789,0.04926 0.092187,0.097896 0.141884,0.1456217 0.2491023,0.2245971 0.3782414,0.275744 l -2.13e-5,2.19e-5 c 0.1183135,0.046877 0.270568,0.057721 0.3860215,0.025337 C 5.0986215,6.6152076 5.2758938,6.4823743 5.4368812,6.288694 5.5865918,6.1085554 5.6601246,5.9371082 5.6621753,5.7520985 5.6631808,5.6618621 5.6449007,5.5653437 5.6055052,5.4433911 5.5387449,5.2367888 5.4526669,5.0794586 5.3397859,4.9633044 5.2794684,4.9012449 5.2248943,4.8605742 5.1614989,4.8450859 5.0981029,4.8295999 5.0317973,4.8411384 4.9530157,4.8695069 4.759645,4.9391419 4.5575865,5.0805603 4.3880435,5.2557369 Z"
       style="opacity:0.5;fill:url(#linearGradient1916);fill-opacity:1;stroke-width:2.26237"
       id="path1764" />
    <path
       d="M 6.0654555,3.5463694 C 5.9036466,3.7133986 5.7711078,3.9111362 5.7025378,4.1077665 c -0.028083,0.080529 -0.039364,0.1492166 -0.024246,0.2147394 0.015116,0.065525 0.054889,0.1221289 0.1154044,0.1835271 0.086498,0.087735 0.2044763,0.163908 0.3426771,0.2231543 0.1685023,0.072185 0.3111791,0.107055 0.4452961,0.1000046 0.1341162,-0.00706 0.2574485,-0.056992 0.3829495,-0.1461698 0.078136,-0.055531 0.088712,-0.064926 0.2043375,-0.1865028 C 7.2550307,4.4060077 7.2832978,4.372701 7.316184,4.3225123 7.4049231,4.1871236 7.446832,4.0582819 7.4449114,3.9195777 7.4420274,3.7112533 7.3430308,3.5185948 7.1413603,3.3118764 l -2.12e-5,-2.2e-5 C 7.0479604,3.2161605 7.0001109,3.1764561 6.9440833,3.1571476 6.8507238,3.1249954 6.7149145,3.133851 6.6079981,3.1732077 6.4183065,3.2430048 6.2272546,3.3793528 6.0654457,3.5463819 Z"
       style="opacity:0.5;fill:url(#linearGradient1050);fill-opacity:1;stroke-width:2.26237"
       id="path1624" />
    <path
       id="path83"
       d="M 7.3707169,4.0008504 C 7.3522199,4.0697714 7.3196007,4.1385102 7.2704647,4.212207 7.2394026,4.2588101 7.2157719,4.2861871 7.1288711,4.3760213 7.0114916,4.4973542 7.0103267,4.4986935 6.9314673,4.5537883 6.8114841,4.6375926 6.7001234,4.6808271 6.5785172,4.6871134 6.4565377,4.6934263 6.3220957,4.662359 6.1563208,4.5925455 6.0224205,4.5361144 5.9099184,4.4642551 5.8302425,4.3848063 c -0.045609,-0.045492 -0.073673,-0.083491 -0.088883,-0.120923 1.545e-4,0.01478 0.00156,0.028974 0.00465,0.042375 0.010874,0.047148 0.040484,0.091857 0.096635,0.1488281 0.07832,0.079439 0.1887588,0.1518238 0.320394,0.208256 0.162974,0.069818 0.2950511,0.1008792 0.4149616,0.094568 0.1195467,-0.00629 0.2293141,-0.050042 0.3472656,-0.1338419 0.077533,-0.055102 0.078392,-0.055914 0.1937866,-0.1772502 0.085433,-0.089838 0.1089834,-0.1177208 0.1395264,-0.1643311 0.064729,-0.098755 0.100284,-0.1883513 0.1121382,-0.2816368 z m -1.7730182,1.8526 C 5.5656971,5.9611257 5.5034996,6.0674419 5.4070127,6.1810789 5.2475333,6.3688753 5.0738211,6.4941204 4.9135029,6.5381632 4.8107951,6.5663675 4.6628161,6.5569089 4.5543517,6.5149089 4.430794,6.4670149 4.3290585,6.3946614 4.1869323,6.2518758 c -0.048341,-0.048553 -0.074331,-0.075734 -0.090951,-0.095085 -0.015907,-0.018523 -0.023392,-0.030624 -0.032556,-0.048576 -0.00351,-0.00688 -0.00689,-0.014364 -0.00982,-0.02222 0.00475,0.035963 0.013367,0.068057 0.025839,0.093018 0.00897,0.017952 0.016468,0.030052 0.032039,0.048576 0.016267,0.019349 0.042085,0.046016 0.0894,0.094568 C 4.339993,6.46495 4.439091,6.5372871 4.5600344,6.5851899 a 0.05501131,0.05651997 0 0 1 0,5.292e-4 c 0.1061694,0.042007 0.2508753,0.051461 0.3513997,0.023254 C 5.0683572,6.5649242 5.2390256,6.4396913 5.3951279,6.2518893 5.5101314,6.1135125 5.5750014,5.9856867 5.5976995,5.8534641 Z"
       style="opacity:0.5;fill:#ffffff;stroke-width:0.264583" />
  </g>
  <path
     id="path2368"
     style="color:#000000;display:inline;opacity:0.7;fill:url(#linearGradient1659);fill-opacity:1;stroke-width:0.264583;-inkscape-stroke:none;enable-background:new"
     d="m 2.6654697,0.52916666 c -0.7311231,0 -1.1348932,0.0503502 -1.3358363,0.23151041 C 1.2291632,0.85125718 1.1614669,0.98085009 1.1172445,1.190625 1.0730194,1.4003999 1.0564803,1.6854037 1.0583323,2.0582731 v 5.292e-4 2.1745442 2.1745442 5.292e-4 c -0.00185,0.3728667 0.014684,0.6578732 0.058912,0.8676481 0.044222,0.2097749 0.1119161,0.3393678 0.2123889,0.4299479 0.2009458,0.1811602 0.6047132,0.2315104 1.3358363,0.2315104 h 3.1357254 c 0.7309432,0 1.1326045,-0.050424 1.3327353,-0.2315104 C 7.2339957,7.6154729 7.3016972,7.4860361 7.3463192,7.276068 7.3909522,7.0660735 7.4083322,6.78035 7.4083322,6.4073616 V 4.2333333 2.059305 c 0,-0.3729884 -0.017383,-0.658712 -0.062013,-0.86868 C 7.3016972,0.98065695 7.2339957,0.85122014 7.1339302,0.76067707 6.9337994,0.57959095 6.5321381,0.52916666 5.8011949,0.52916666 Z m 0.1157552,0.25217966 h 2.9171344 c 0.3844713,0 0.6758808,0.0106892 0.8795332,0.0434102 0.2036524,0.0327157 0.3061811,0.0816213 0.3705198,0.14314223 0.064341,0.061521 0.1156071,0.15958605 0.14986,0.35450195 0.034253,0.1949185 0.045477,0.4740354 0.045477,0.8418089 v 2.0629218 2.0629245 c 0,0.3677735 -0.011218,0.6468904 -0.045477,0.8418089 -0.03425,0.1949186 -0.085519,0.2929784 -0.14986,0.3544993 C 6.8840736,7.5478851 6.7815449,7.5967933 6.5778925,7.629509 6.3742401,7.6622221 6.0828306,7.6729166 5.6983593,7.6729166 H 2.7812249 c -0.3844713,0 -0.6767301,-0.010663 -0.8810837,-0.043408 C 1.695785,7.5967642 1.592243,7.5479671 1.527555,7.4863641 1.462867,7.4247586 1.4120855,7.3269289 1.3782083,7.1323808 1.3443337,6.9378326 1.3334329,6.6591444 1.3353193,6.2916064 V 6.2910772 4.2271209 2.1636804 2.1631513 C 1.3334673,1.7956159 1.3443416,1.516925 1.3782083,1.3223769 1.4120855,1.1278261 1.462867,1.0299965 1.527555,0.96839351 1.592243,0.90678793 1.695785,0.85799611 1.9001412,0.82524864 2.1044948,0.7925038 2.3967536,0.78184109 2.7812249,0.78184109 Z"
     sodipodi:nodetypes="sssscccsssssssscssssscssssscsssssssssscccsssscc" />
  <path
     d="m 2.6655888,0.26458333 c -0.7403862,0 -1.2102121,0.0267017 -1.5130489,0.29972264 C 1.0011188,0.70081774 0.90978205,0.89262213 0.85850585,1.1358483 0.80723225,1.3790745 0.79195785,1.6788685 0.79391315,2.0598235 v 2.1735098 2.1740283 c -0.00185,0.3806507 0.013361,0.6803654 0.064593,0.9234567 0.051276,0.2432261 0.14261295,0.4350305 0.29403405,0.5715423 0.3028394,0.2730209 0.7726627,0.2997226 1.5130489,0.2997226 h 3.1356508 c 0.7402036,0 1.2081404,-0.026633 1.5099506,-0.2997226 C 7.4620929,7.7658144 7.5535673,7.5738513 7.6052219,7.3308183 7.6568739,7.0877852 7.6729156,6.7882002 7.6729156,6.4073616 V 4.2333333 2.059305 c 0,-0.3808386 -0.016034,-0.6804237 -0.067694,-0.9234567 C 7.5535673,0.89281528 7.4620929,0.70085214 7.3111905,0.56430597 7.0093803,0.29121629 6.5414435,0.26458333 5.8012399,0.26458333 Z m 0,0.26458333 h 3.1356511 c 0.7309432,0 1.1325727,0.0504243 1.3327036,0.23151041 0.1000654,0.0905431 0.167759,0.21997988 0.2123837,0.42994793 0.04463,0.209968 0.062013,0.4956916 0.062013,0.86868 v 2.1740283 2.1740283 c 0,0.3729884 -0.017383,0.6587119 -0.062013,0.86868 C 7.3017025,7.4860096 7.2340089,7.6154464 7.1339435,7.7059895 6.9338126,7.8870756 6.5321831,7.9374999 5.8012399,7.9374999 H 2.6655888 c -0.7311232,0 -1.1348588,-0.05035 -1.3358045,-0.2315104 C 1.2293114,7.6154094 1.161623,7.4858165 1.1174006,7.2760416 1.0731755,7.0662667 1.0565729,6.7812602 1.0584911,6.4083935 V 6.4078643 4.2333333 2.058789 2.0582599 C 1.056639,1.6853905 1.0731755,1.4003867 1.1174006,1.1906118 1.161623,0.98083686 1.229314,0.85124395 1.3297843,0.76066384 1.5307274,0.57950364 1.9344656,0.52915343 2.6655888,0.52915343 Z"
     style="color:#000000;display:inline;opacity:0.4;fill:#000000;stroke-width:0.26458;-inkscape-stroke:none;enable-background:new"
     id="path2244" />
</svg>
