<?xml version="1.0" encoding="UTF-8" standalone="no"?>
<!-- Created with Inkscape (http://www.inkscape.org/) -->

<svg
   width="32"
   height="32"
   viewBox="0 0 8.4666667 8.4666667"
   version="1.1"
   id="svg5"
   sodipodi:docname="lastfm.svg"
   inkscape:version="1.1.2 (0a00cf5339, 2022-02-04)"
   xmlns:inkscape="http://www.inkscape.org/namespaces/inkscape"
   xmlns:sodipodi="http://sodipodi.sourceforge.net/DTD/sodipodi-0.dtd"
   xmlns:xlink="http://www.w3.org/1999/xlink"
   xmlns="http://www.w3.org/2000/svg"
   xmlns:svg="http://www.w3.org/2000/svg">
  <sodipodi:namedview
     id="namedview7"
     pagecolor="#ffffff"
     bordercolor="#666666"
     borderopacity="1.0"
     inkscape:pageshadow="2"
     inkscape:pageopacity="0.0"
     inkscape:pagecheckerboard="0"
     inkscape:document-units="px"
     showgrid="false"
     units="px"
     height="48px"
     showguides="false"
     inkscape:zoom="16.375"
     inkscape:cx="12.549618"
     inkscape:cy="19.236641"
     inkscape:window-width="1920"
     inkscape:window-height="995"
     inkscape:window-x="0"
     inkscape:window-y="0"
     inkscape:window-maximized="1"
     inkscape:current-layer="svg5" />
  <defs
     id="defs2">
    <linearGradient
       inkscape:collect="always"
       id="linearGradient1871">
      <stop
         style="stop-color:#ffffff;stop-opacity:1;"
         offset="0"
         id="stop1867" />
      <stop
         style="stop-color:#ffffff;stop-opacity:0.1"
         offset="0.12"
         id="stop2515" />
      <stop
         style="stop-color:#ffffff;stop-opacity:0.102"
         offset="0.89999998"
         id="stop2581" />
      <stop
         style="stop-color:#ffffff;stop-opacity:0.502"
         offset="1"
         id="stop1869" />
    </linearGradient>
    <linearGradient
       inkscape:collect="always"
       xlink:href="#linearGradient1871"
       id="linearGradient1198"
       x1="6.3499999"
       y1="0.52916658"
       x2="6.3499994"
       y2="12.170834"
       gradientUnits="userSpaceOnUse"
       gradientTransform="matrix(2.405154,0,0,2.405154,0.72727268,0.72727268)" />
  </defs>
  <circle
     style="opacity:0.1;fill:#000000;fill-opacity:1;stroke-width:0.345109;stroke-linecap:round;stroke-linejoin:round"
     id="path3625"
     cx="4.2333331"
     cy="4.4979167"
     r="3.96875" />
  <circle
     style="fill:#c71818;fill-opacity:1;stroke-width:0.341019;stroke-linecap:round;stroke-linejoin:round"
     id="path986"
     cx="4.2333336"
     cy="4.2333336"
     r="3.8364584" />
  <path
     d="M 3.1892093,5.5437314 C 3.1045108,5.5320897 2.9538439,5.4823481 2.8533472,5.4332149 2.1985564,5.1145508 1.9307716,4.3119637 2.2532987,3.6359269 2.621731,2.8629467 3.6270418,2.6659115 4.2320115,3.2481271 c 0.1749372,0.1680898 0.2526321,0.3115204 0.5160169,0.9475258 0.2749549,0.6651095 0.3257549,0.7696729 0.4148665,0.8583347 0.095448,0.094324 0.183896,0.126074 0.3531394,0.126074 0.2780506,0 0.476594,-0.1745456 0.476594,-0.4180946 0,-0.2061368 -0.071342,-0.2721504 -0.4352131,-0.4033573 C 5.0032983,4.1555949 4.8237785,3.9721329 4.8231435,3.6036741 c 0,-0.1965589 0.049027,-0.327607 0.1736328,-0.4634176 0.1788451,-0.1939131 0.487336,-0.2579423 0.7603331,-0.1616604 0.1164617,0.042042 0.3601244,0.2610908 0.3601244,0.323797 0,0.030427 -0.1412187,0.1234281 -0.2195671,0.145415 -0.041373,0.010848 -0.077044,-0.00317 -0.1247669,-0.049795 C 5.6761468,3.3037151 5.6106678,3.274585 5.4948491,3.274585 c -0.1998583,0 -0.3238235,0.1221052 -0.3238235,0.3193256 0,0.196559 0.078835,0.2630488 0.4726781,0.3980656 C 6.186417,4.1781106 6.3467016,4.3462004 6.349956,4.7351643 6.353216,5.0712116 6.2041759,5.3135964 5.9077314,5.457027 5.7728654,5.521718 5.7270951,5.529999 5.5068877,5.529999 5.1925362,5.529999 5.0513016,5.4706 4.8750627,5.2689082 4.7566459,5.1332568 4.6364404,4.8786218 4.2515457,3.9491141 4.09192,3.5639602 3.8870028,3.37518 3.5452934,3.300885 3.3721501,3.2633406 3.1310882,3.2982392 2.9738993,3.3822973 2.8206262,3.4637096 2.6494408,3.6473569 2.568637,3.8152879 2.501856,3.9516012 2.495504,3.9898335 2.495504,4.2269266 c 0,0.2261658 0.00896,0.2797704 0.064828,0.40386 0.084698,0.1894417 0.2513277,0.3644635 0.434578,0.4587875 0.132424,0.067839 0.1736329,0.076279 0.3848894,0.076279 0.2029513,0 0.2550742,-0.00979 0.3761052,-0.068501 0.1381257,-0.068501 0.3238236,-0.2365905 0.3995473,-0.3625057 l 0.039418,-0.065352 0.077695,0.1803399 c 0.043328,0.099589 0.078184,0.1932517 0.078184,0.2101057 0,0.049821 -0.1755881,0.2126191 -0.3365235,0.3140339 -0.244324,0.153221 -0.5249596,0.2106092 -0.8246796,0.1692548"
     style="fill:#ffffff;stroke-width:0.264583"
     id="path874" />
  <path
     id="path4344"
     style="opacity:0.4;fill:#000000;fill-opacity:1;stroke-width:2;stroke-linecap:round;stroke-linejoin:round"
     d="M 16,1 A 15,15 0 0 0 1,16 15,15 0 0 0 16,31 15,15 0 0 0 31,16 15,15 0 0 0 16,1 Z m 0,1 A 14,14 0 0 1 30,16 14,14 0 0 1 16,30 14,14 0 0 1 2,16 14,14 0 0 1 16,2 Z"
     transform="scale(0.26458333)" />
  <path
     id="path1110"
     style="opacity:0.4;fill:url(#linearGradient1198);fill-opacity:1;stroke-width:1.27273;stroke-linecap:round;stroke-linejoin:round"
     d="m 16,2 c -7.7319866,-1e-7 -14.0000001,6.2680134 -14,14 2e-7,7.731987 6.2680134,14 14,14 7.731986,0 14,-6.268014 14,-14 C 30,8.2680134 23.731987,2.0000002 16,2 Z m 0,1 A 13,13 0 0 1 29,16 13,13 0 0 1 16,29 13,13 0 0 1 3,16 13,13 0 0 1 16,3 Z"
     transform="scale(0.26458333)" />
</svg>
