<?xml version="1.0" encoding="UTF-8" standalone="no"?>
<!-- Created with Inkscape (http://www.inkscape.org/) -->

<svg
   width="32"
   height="32"
   viewBox="0 0 8.4666665 8.4666669"
   version="1.1"
   id="svg5"
   inkscape:version="1.1.2 (0a00cf5339, 2022-02-04, custom)"
   sodipodi:docname="libreoffice-impress.svg"
   xmlns:inkscape="http://www.inkscape.org/namespaces/inkscape"
   xmlns:sodipodi="http://sodipodi.sourceforge.net/DTD/sodipodi-0.dtd"
   xmlns:xlink="http://www.w3.org/1999/xlink"
   xmlns="http://www.w3.org/2000/svg"
   xmlns:svg="http://www.w3.org/2000/svg">
  <sodipodi:namedview
     id="namedview7"
     pagecolor="#ffffff"
     bordercolor="#666666"
     borderopacity="1.0"
     inkscape:pageshadow="2"
     inkscape:pageopacity="0.0"
     inkscape:pagecheckerboard="0"
     inkscape:document-units="px"
     showgrid="false"
     units="px"
     height="32px"
     inkscape:zoom="12.65625"
     inkscape:cx="-5.0962963"
     inkscape:cy="16.711111"
     inkscape:window-width="1920"
     inkscape:window-height="1006"
     inkscape:window-x="0"
     inkscape:window-y="0"
     inkscape:window-maximized="1"
     inkscape:current-layer="svg5" />
  <defs
     id="defs2">
    <linearGradient
       inkscape:collect="always"
       id="linearGradient1656">
      <stop
         style="stop-color:#823012;stop-opacity:1"
         offset="0"
         id="stop1652" />
      <stop
         style="stop-color:#e76428;stop-opacity:1"
         offset="1"
         id="stop1654" />
    </linearGradient>
    <linearGradient
       inkscape:collect="always"
       id="linearGradient1298">
      <stop
         style="stop-color:#f2f2f2;stop-opacity:1;"
         offset="0"
         id="stop1294" />
      <stop
         style="stop-color:#ffffff;stop-opacity:1"
         offset="1"
         id="stop1296" />
    </linearGradient>
    <linearGradient
       inkscape:collect="always"
       id="linearGradient1871">
      <stop
         style="stop-color:#ffffff;stop-opacity:1;"
         offset="0"
         id="stop1867" />
      <stop
         style="stop-color:#ffffff;stop-opacity:0.1"
         offset="0.12"
         id="stop2515" />
      <stop
         style="stop-color:#ffffff;stop-opacity:0.102"
         offset="0.89999998"
         id="stop2581" />
      <stop
         style="stop-color:#ffffff;stop-opacity:0.502"
         offset="1"
         id="stop1869" />
    </linearGradient>
    <linearGradient
       inkscape:collect="always"
       xlink:href="#linearGradient1871"
       id="linearGradient910"
       x1="-4.9264183"
       y1="1.4219687"
       x2="-4.9410543"
       y2="8.8303022"
       gradientUnits="userSpaceOnUse"
       gradientTransform="translate(8.1014237,-0.90197383)" />
    <linearGradient
       inkscape:collect="always"
       xlink:href="#linearGradient1298"
       id="linearGradient1300"
       x1="2.8407054"
       y1="0.52970999"
       x2="6.2204533"
       y2="7.9380436"
       gradientUnits="userSpaceOnUse" />
    <linearGradient
       inkscape:collect="always"
       xlink:href="#linearGradient1656"
       id="linearGradient1658"
       x1="3.0427115"
       y1="0.52917498"
       x2="7.542098"
       y2="7.9375086"
       gradientUnits="userSpaceOnUse" />
    <linearGradient
       inkscape:collect="always"
       xlink:href="#linearGradient1045"
       id="linearGradient1047"
       x1="6.0854168"
       y1="6.3499999"
       x2="6.0854168"
       y2="2.9104166"
       gradientUnits="userSpaceOnUse"
       gradientTransform="translate(0,0.79374999)" />
    <linearGradient
       inkscape:collect="always"
       id="linearGradient1045">
      <stop
         style="stop-color:#bb500e;stop-opacity:1;"
         offset="0"
         id="stop1041" />
      <stop
         style="stop-color:#f09e6f;stop-opacity:1"
         offset="1"
         id="stop1043" />
    </linearGradient>
    <linearGradient
       inkscape:collect="always"
       xlink:href="#linearGradient2544"
       id="linearGradient2380"
       gradientUnits="userSpaceOnUse"
       x1="14.222336"
       y1="11.239976"
       x2="12.188107"
       y2="-0.14092819"
       gradientTransform="matrix(0.26458333,0,0,0.26458333,2.3812499,3.7041666)" />
    <linearGradient
       inkscape:collect="always"
       id="linearGradient2544">
      <stop
         style="stop-color:#ffffff;stop-opacity:0.6"
         offset="0"
         id="stop2540" />
      <stop
         style="stop-color:#ffffff;stop-opacity:0.851"
         offset="1"
         id="stop2542" />
    </linearGradient>
  </defs>
  <path
     d="m 5.8970004,0.52917893 c -0.022013,0 -0.041169,0.00185 -0.057362,0.00413 l -0.00982,0.00159 -0.00982,0.0031 C 5.5499858,0.61858593 5.4616467,0.97938743 5.6753057,1.1648339 v 5.292e-4 l 1.3466868,1.2609062 0.00159,0.00106 C 7.1403801,2.5310565 7.2976432,2.5327684 7.4225238,2.4852043 7.5474045,2.4376453 7.6651732,2.3278831 7.6716052,2.1704957 V 2.1678457 1.8097269 1.8091977 C 7.6731922,1.53501 7.6782462,1.3270899 7.6669482,1.1596245 7.6556566,0.99201983 7.6289919,0.85580973 7.5418964,0.74878843 7.4548035,0.64176973 7.3227315,0.59198043 7.1636269,0.56740593 7.0045198,0.54282613 6.8058256,0.53793133 6.5388584,0.53226663 h -0.00159 -0.6004798 c -0.012647,-0.00132 -0.025162,-0.0031 -0.039791,-0.0031 z m -1.9202982,5.292e-4 -1.3110289,5.292e-4 c -0.740664,0 -1.2105137,0.026979 -1.5130859,0.2997252 -0.064185,0.057923 -0.1139905,0.125783 -0.15554856,0.19688707 -0.0031,0.00529 -0.014922,0.02069 -0.029453,0.049609 -0.023998,0.047696 -0.045151,0.098533 -0.063045,0.1524449 -0.017753,0.053441 -0.033062,0.110752 -0.045992,0.1720824 -0.012859,0.060915 -0.022992,0.1246478 -0.031523,0.1927516 v 5.292e-4 c -0.017092,0.1364667 -0.026498,0.2884646 -0.030491,0.4594039 -0.00185,0.085191 -0.00307,0.1753288 -0.00265,0.2707825 v 2.1745443 2.1750628 c -5.292e-4,0.095091 5.292e-4,0.1848723 0.00265,0.2702666 0.004,0.1709288 0.013361,0.3234161 0.030491,0.4599199 0.00855,0.068141 0.018706,0.1319213 0.031523,0.1927543 0.025691,0.1217877 0.061111,0.229399 0.1090374,0.3245273 0.048014,0.095298 0.10921736,0.1787101 0.18500196,0.2470123 0.037947,0.034208 0.079573,0.064252 0.1235048,0.090951 0.08803,0.053504 0.1876187,0.092755 0.2986908,0.121957 v 5.292e-4 c 0.2776432,0.072858 0.6281764,0.085783 1.0908903,0.085783 h 3.1367571 c 0.1840494,0 0.3498876,-0.00267 0.5002292,-0.00982 h 5.291e-4 c 0.063196,-0.00304 0.1211051,-0.00765 0.1772497,-0.012409 h 5.292e-4 5.291e-4 c 0.00159,-1.429e-4 0.013758,-0.00106 0.02376,-0.00159 h 0.00362 c 0.0041,-2.646e-4 0.00373,-2.91e-5 0.00878,-5.292e-4 h 5.291e-4 c 0.1359562,-0.012859 0.2576724,-0.032414 0.367419,-0.060979 0.054441,-0.014182 0.1072621,-0.030493 0.1576149,-0.050644 0.050009,-0.019976 0.096517,-0.043127 0.1400413,-0.069247 0.043841,-0.026326 0.08509,-0.05628 0.1229916,-0.089916 0.034205,-0.030334 0.06373,-0.063386 0.090432,-0.096636 0,5.3e-6 0.00132,-0.00132 0.00159,-0.00159 l 0.00569,-0.00569 0.00413,-0.00516 0.00159,-0.00212 5.291e-4,-0.00106 0.00212,-0.00212 0.00212,-0.00362 c 1.06e-5,-1.85e-5 0.00212,-0.00423 0.0031,-0.00619 7.938e-4,-0.00106 0.00238,-0.00212 0.0031,-0.0031 -1.428e-4,1.852e-4 -0.00185,7.937e-4 -0.00212,0.00106 0.00265,-0.00479 0.00455,-0.0081 0.00672,-0.012409 -0.00159,0.00339 -0.00265,0.00616 -0.0031,0.00722 0.025135,-0.03479 0.049588,-0.071025 0.070279,-0.1111039 0.024395,-0.04731 0.045442,-0.097525 0.063563,-0.1503785 0.018256,-0.05321 0.033322,-0.109228 0.046508,-0.1689815 0.013256,-0.060084 0.024103,-0.1234096 0.033073,-0.1901692 0.00812,-0.060621 0.014446,-0.124804 0.019632,-0.1901693 L 7.6557242,7.22988 V 7.22882 c -2.646e-4,0.00489 0.00132,-0.00238 0.00265,-0.021696 v -5.292e-4 c 5.292e-4,-0.00812 0.00106,-0.016484 0,-0.00159 v -5.292e-4 -5.291e-4 c 0.01087,-0.1493997 0.015024,-0.3147378 0.015501,-0.5002266 v -0.00106 -2.960026 C 7.6720291,3.3294336 7.3243745,3.0308011 7.0739173,2.8155837 l -0.00265,-0.00212 -5.292e-4,-5.291e-4 -1.7756002,-1.7130739 -0.00212,-0.00159 C 4.8846861,0.73024113 4.5536817,0.52931923 3.9768266,0.52931923 Z"
     style="color:#000000;font-style:normal;font-variant:normal;font-weight:normal;font-stretch:normal;font-size:medium;line-height:normal;font-family:sans-serif;font-variant-ligatures:normal;font-variant-position:normal;font-variant-caps:normal;font-variant-numeric:normal;font-variant-alternates:normal;font-feature-settings:normal;text-indent:0;text-align:start;text-decoration:none;text-decoration-line:none;text-decoration-style:solid;text-decoration-color:#000000;letter-spacing:normal;word-spacing:normal;text-transform:none;writing-mode:lr-tb;direction:ltr;text-orientation:mixed;dominant-baseline:auto;baseline-shift:baseline;text-anchor:start;white-space:normal;shape-padding:0;clip-rule:nonzero;display:inline;overflow:visible;visibility:visible;opacity:0.1;isolation:auto;mix-blend-mode:normal;color-interpolation:sRGB;color-interpolation-filters:linearRGB;solid-color:#000000;solid-opacity:1;vector-effect:none;fill:#000000;fill-opacity:1;fill-rule:nonzero;stroke:none;stroke-width:0.262357;stroke-linecap:butt;stroke-linejoin:miter;stroke-miterlimit:4;stroke-dasharray:none;stroke-dashoffset:0;stroke-opacity:1;marker:none;color-rendering:auto;image-rendering:auto;shape-rendering:auto;text-rendering:auto;enable-background:accumulate"
     id="path6562" />
  <path
     d="m 3.8242916,0.70743403 c -0.1196869,0.0032 -0.2387176,0.0072 -0.3534674,0.00159 -0.6682026,0.052213 -1.3725049,-0.077107 -2.0029778,0.1488281 C 1.1445176,1.333393 1.3261805,1.9650831 1.263207,2.5052961 1.284797,4.0865943 1.195794,5.6757188 1.32522,7.2522941 1.408574,7.8426933 2.0999252,7.7417468 2.5272141,7.7509702 3.976636,7.7426902 5.4345457,7.8116632 6.8788849,7.6910262 7.3612256,7.503 7.2115111,6.8536385 7.2674917,6.4544087 7.2874677,5.433207 7.2740537,4.411328 7.2778369,3.3899966 6.5648325,2.487847 5.6647518,1.7482519 4.8123543,0.98135713 4.547673,0.69540873 4.1833656,0.69784813 3.8243022,0.70747103 Z"
     style="color:#000000;display:inline;overflow:visible;visibility:visible;fill:url(#linearGradient1300);fill-opacity:1;fill-rule:nonzero;stroke:none;stroke-width:0.0357494;marker:none;enable-background:accumulate"
     id="path6163" />
  <path
     d="m 5.9359788,0.39687933 c -0.013203,0 -0.026247,0.00132 -0.03928,0.00302 -0.1674151,0.05098 -0.2243085,0.2932192 -0.095245,0.4071593 L 7.1652459,2.0846574 c 0.1399672,0.1268333 0.3657838,0.018494 0.3731577,-0.1657191 v -0.36 C 7.5443836,0.44392063 7.625732,0.42278573 6.5689677,0.39989933 H 5.9756052 c -0.013044,-0.00185 -0.026432,-0.00302 -0.039626,-0.00302 z m -3.3431665,0.021273 c -1.4650005,-8.73e-5 -1.67426736,0.154059 -1.66656796,1.65752727 v 2.1683 2.1682975 c -0.0077,1.5034736 0.26677136,1.6575272 1.73177196,1.6575272 h 3.1215012 c 1.4544833,0 1.7273534,-0.1534398 1.7310787,-1.627968 V 3.4919354 C 7.5090087,3.1594653 7.2048808,2.8786657 6.9585987,2.6666577 L 6.9564787,2.6650677 5.1833312,0.95191443 C 4.7838534,0.59117083 4.5077501,0.41826563 3.9612029,0.41823383 Z M 4.5053582,1.0583381 6.8792131,3.4395273 v 3.4396441 c 0,0 -0.029668,0.3117294 -0.118655,0.3967454 -0.088987,0.085021 -0.4152662,0.113366 -0.4152662,0.113366 H 2.1214651 c 0,0 -0.3262789,-0.028345 -0.4152662,-0.113366 C 1.6172139,7.1909008 1.5875465,6.8791714 1.5875465,6.8791714 l -0.00476,-5.3107245 c 0,0 0.029668,-0.3117295 0.1186524,-0.3967454 0.088998,-0.085018 0.4152768,-0.1133634 0.4152768,-0.1133634 z"
     style="color:#000000;display:inline;overflow:visible;visibility:visible;fill:url(#linearGradient1658);fill-opacity:1;fill-rule:nonzero;stroke:none;stroke-width:0.0357494;marker:none;enable-background:accumulate"
     id="path6045" />
  <path
     d="m 1.0584936,4.2333376 v 0.010848 2.1683424 c -0.0077,1.5034736 0.2666762,1.6572627 1.7316767,1.6572627 h 3.1217711 c 1.4544834,0 1.7274355,-0.1532784 1.7311608,-1.6278066 V 4.2333376 Z"
     style="display:inline;opacity:0.1;fill:#ffffff;fill-opacity:1;stroke:none;stroke-width:0.264583;stroke-linecap:round;stroke-linejoin:round;stroke-miterlimit:4;stroke-dasharray:none;stroke-dashoffset:0;stroke-opacity:1;enable-background:new"
     id="path6437" />
  <path
     d="m 5.8208333,3.4395833 h -3.175 c -0.2921,0 -0.5291666,0.2368203 -0.5291666,0.5292074 v 2.3811686 c 0,0.292387 0.2370666,0.5292073 0.5291666,0.5292073 h 3.175 c 0.2923646,0 0.5291666,-0.2368203 0.5291666,-0.5292073 V 3.9687907 c 0,-0.2923871 -0.236802,-0.5292074 -0.5291666,-0.5292074 z"
     style="fill:#a33e03;stroke-width:0.264593"
     id="path1329" />
  <path
     id="rect869"
     style="fill:url(#linearGradient1047);stroke-width:0.549143;stroke-linecap:round;stroke-linejoin:round"
     d="m 2.6458333,3.7041666 h 3.1749999 c 0.1465792,0 0.2645834,0.1180042 0.2645834,0.2645834 v 2.3812499 c 0,0.1465791 -0.1180042,0.2645833 -0.2645834,0.2645833 H 2.6458333 c -0.1465792,0 -0.2645834,-0.1180042 -0.2645834,-0.2645833 V 3.96875 c 0,-0.1465792 0.1180042,-0.2645834 0.2645834,-0.2645834 z"
     sodipodi:nodetypes="sssssssss" />
  <path
     d="M 2.6458333,3.7041666 H 5.820833 c 0.1465794,0 0.2645836,0.1180041 0.2645836,0.2645833 v 2.38125 c 0,0.1465789 -0.1180042,0.2645831 -0.2645836,0.2645831 H 2.6458333 c -0.1465792,0 -0.2645834,-0.1180042 -0.2645834,-0.2645831 v -2.38125 c 0,-0.1465792 0.1180042,-0.2645833 0.2645834,-0.2645833 z"
     style="fill:url(#linearGradient2380);stroke-width:0.145294;stroke-linecap:round;stroke-linejoin:round"
     id="path2285" />
  <path
     id="path57"
     d="m 3.175,4.2333333 c -0.14605,0 -0.2645833,0.1185333 -0.2645833,0.2645833 0,0.14605 0.1185333,0.2645834 0.2645833,0.2645834 h 2.1166666 c 0.14605,0 0.2645833,-0.1185334 0.2645833,-0.2645834 0,-0.14605 -0.1185333,-0.2645833 -0.2645833,-0.2645833 z m 0,0.79375 c -0.14605,0 -0.2645833,0.1185333 -0.2645833,0.2645833 0,0.1463146 0.1185333,0.2645833 0.2645833,0.2645833 0.1463146,0 0.2645833,-0.1182687 0.2645833,-0.2645833 0,-0.14605 -0.1182687,-0.2645833 -0.2645833,-0.2645833 z m 0,0.79375 c -0.14605,0 -0.2645833,0.1185333 -0.2645833,0.2645833 0,0.1463146 0.1185333,0.2645833 0.2645833,0.2645833 0.1463146,0 0.2645833,-0.1182687 0.2645833,-0.2645833 0,-0.14605 -0.1182687,-0.2645833 -0.2645833,-0.2645833 z"
     style="fill:#d36118;fill-opacity:1;stroke-width:0.264583" />
  <path
     d="M 5.2916667,5.8208333 H 3.9687501 c -0.14605,0 -0.2645834,0.1185333 -0.2645834,0.2645833 0,0.14605 0.1185334,0.2645833 0.2645834,0.2645833 h 1.3229166 c 0.14605,0 0.2645833,-0.1185333 0.2645833,-0.2645833 0,-0.14605 -0.1185333,-0.2645833 -0.2645833,-0.2645833 z m 0,-0.79375 H 3.9687501 c -0.14605,0 -0.2645834,0.1185333 -0.2645834,0.2645833 0,0.14605 0.1185334,0.2645833 0.2645834,0.2645833 h 1.3229166 c 0.14605,0 0.2645833,-0.1185333 0.2645833,-0.2645833 0,-0.14605 -0.1185333,-0.2645833 -0.2645833,-0.2645833 z"
     style="fill:#823102;fill-opacity:1;stroke-width:0.264583"
     id="path5308" />
  <path
     d="m 6.1300057,0.53062353 c -0.2623264,0.00926 -0.271817,0.012303 -0.271817,0.088884 0,0.026929 0.040145,0.082063 0.1214384,0.1710478 h 0.7617116 c 0.042151,0 0.081833,0.0081 0.119888,0.020161 0.085572,0.00529 0.1706483,0.012885 0.2552832,0.02739 0.00699,0.084995 0.0081,0.17152407 0.00982,0.25786557 0.00696,0.029512 0.01188,0.059769 0.01188,0.091466 v 0.6924649 c 0.067471,0.056282 0.1197954,0.097401 0.1297067,0.097668 0.1195176,0.0032 0.1338527,-0.076287 0.122473,-0.674378 C 7.3762567,0.56096333 7.4017625,0.59476123 6.8198803,0.55181933 6.5898992,0.53483313 6.2795588,0.52536103 6.1299978,0.53062623 Z m -2.868041,0.00982 c -1.3670385,5.292e-4 -1.5590017,0.016722 -1.8262441,0.152445 -0.1596786,0.081092 -0.2747512,0.2818262 -0.3296972,0.57464057 -0.064439,0.3440721 -0.063236,5.668674 0.00159,5.9531249 0.108876,0.4783164 0.2805615,0.6167966 0.8428434,0.6785134 0.1300215,0.014288 1.2263861,0.022807 2.4360266,0.019129 1.9687699,-0.00598 2.2201532,-0.012621 2.3977865,-0.063561 0.319524,-0.091652 0.4434522,-0.2120583 0.5358844,-0.519348 0.047204,-0.1569667 0.056121,-0.4457938 0.06718,-2.1915993 C 7.4000083,3.1444906 7.3997172,3.3964983 7.3294571,3.2513373 7.3099838,3.2111073 7.2398718,3.1289279 7.1382533,3.0198269 v 1.0779707 c 0,0.032851 -0.00545,0.064077 -0.012912,0.094567 0.00651,1.013878 -0.011324,1.7663477 -0.032557,2.7709521 C 7.1176555,7.2250108 7.0228926,7.5479903 6.7295011,7.6061722 5.6239344,7.6623852 4.5076044,7.6486512 3.3943039,7.6562972 2.8404886,7.6374592 2.2781062,7.6917112 1.7298049,7.6030712 1.4102253,7.5792582 1.3669579,7.2241878 1.3417167,6.9741672 1.2953877,5.2335184 1.3070457,3.4599952 1.3308687,1.7119566 1.3534377,1.4230105 1.3209187,1.0087074 1.6435109,0.87479913 c 0.6260042,-0.1117309 1.2660313,-0.058685 1.8985918,-0.082682 0.1616974,0.0091 0.076872,0.00389 0.2492428,0.0031 0.01561,-0.00185 0.030895,-0.00466 0.047024,-0.00466 h 0.9503304 c -0.1129474,-0.0818 -0.2087953,-0.1396566 -0.3090274,-0.1808708 -0.1613271,-0.066447 0.033287,-0.069776 -1.2176575,-0.069247 z"
     style="display:inline;opacity:0.3;fill:url(#linearGradient910);fill-opacity:1;stroke:none;stroke-width:0.0330729;stroke-linecap:round;stroke-linejoin:round;stroke-miterlimit:4;stroke-dasharray:none;stroke-dashoffset:0;stroke-opacity:1;enable-background:new"
     id="path6678" />
  <path
     d="m 5.8970427,0.26460353 c -0.022013,0 -0.041169,0.00185 -0.057362,0.00413 l -0.010345,0.00159 -0.00982,0.0031 c -0.2701925,0.08064 -0.3583807,0.4420155 -0.1441767,0.6273508 l 1.3466868,1.26090627 0.00106,0.00106 C 7.1398835,2.2664705 7.2971465,2.2681797 7.4220272,2.2206186 7.5469079,2.1730596 7.6646766,2.0632974 7.6711086,1.90591 L 7.6716377,1.90326 V 1.5451366 1.5446074 C 7.6732257,1.2704197 7.6777757,1.0625022 7.6664787,0.89503683 7.655183,0.72743653 7.6290342,0.59122643 7.5419414,0.48420773 7.4548459,0.37718903 7.3222579,0.32739973 7.1631533,0.30282263 7.0040462,0.27824283 6.805352,0.27335073 6.5383848,0.26768333 h -0.00159 -0.5999639 c -0.012753,-0.00132 -0.02503,-0.0031 -0.039791,-0.0031 z m -3.2313271,0.00106 c -0.740664,0 -1.210511,0.026979 -1.5130859,0.2997226 -0.064185,0.057925 -0.1139904,0.1257856 -0.15554586,0.196887 -0.0031,0.00529 -0.015425,0.02069 -0.029972,0.049609 -0.023998,0.047699 -0.044632,0.098536 -0.062529,0.152445 -0.017754,0.053441 -0.033578,0.11075457 -0.046508,0.17208497 -0.012859,0.060912 -0.022992,0.1246478 -0.031522,0.1927516 v 5.292e-4 c -0.017092,0.1364694 -0.026498,0.2884672 -0.030491,0.4594039 -0.00185,0.085193 -0.00265,0.1753315 -0.00212,0.2707852 v 2.174531 2.1750602 c -5.292e-4,0.095091 7.9e-6,0.184875 0.00212,0.2702692 0.004,0.1709288 0.013362,0.3234161 0.030491,0.4599199 0.00855,0.068138 0.018706,0.1319213 0.031522,0.1927516 0.025691,0.1217904 0.061111,0.2294017 0.1090374,0.32453 0.048014,0.095295 0.10973326,0.1787102 0.18551786,0.2470124 0.037949,0.034208 0.079058,0.064249 0.1229889,0.09095 0.08803,0.053501 0.1876187,0.093271 0.2986908,0.122473 0.2776432,0.072858 0.6286923,0.085783 1.0914062,0.085783 h 3.1367598 c 0.1840468,0 0.349885,-0.00267 0.5002265,-0.00982 0.063196,-0.00304 0.1211051,-0.00765 0.1772497,-0.012409 h 5.291e-4 5.292e-4 c 0.00159,-1.482e-4 0.013891,-0.00106 0.024289,-0.00159 h 0.0031 c 0.0041,-2.646e-4 0.00373,-4.5e-5 0.00878,-5.292e-4 h 0.00106 c 0.1359535,-0.012859 0.2576697,-0.032414 0.3674189,-0.060978 0.054438,-0.014182 0.1067435,-0.030491 0.1570964,-0.050641 0.050009,-0.020002 0.096517,-0.04313 0.1400412,-0.069247 0.043842,-0.026326 0.08509,-0.056282 0.1229916,-0.089916 0.034205,-0.030337 0.06373,-0.063386 0.090432,-0.096636 l 0.00106,-5.292e-4 c 2.223e-4,-2.646e-4 2.646e-4,-7.938e-4 5.292e-4,-0.00106 l 0.00619,-0.00569 0.00516,-0.00722 0.00106,-0.00106 c 5.291e-4,-7.938e-4 0.00106,-0.00132 0.00159,-0.00212 l 0.00265,-0.00362 c 1.06e-5,-1.32e-5 0.00185,-0.0037 0.00265,-0.00516 7.937e-4,-0.00132 0.00159,-0.00265 0.00265,-0.00466 0.00347,-0.00638 0.00683,-0.012621 0.00775,-0.014976 -0.00185,0.00407 -0.00624,0.012991 -0.00619,0.012912 0.025532,-0.035203 0.049818,-0.07202 0.070797,-0.1126543 0.024395,-0.047313 0.045442,-0.097528 0.063563,-0.1503786 0.018256,-0.05321 0.033838,-0.1092279 0.047024,-0.1689814 0.013256,-0.060087 0.023601,-0.1234096 0.032557,-0.1901693 0.00812,-0.060621 0.014446,-0.1248039 0.019632,-0.1901692 v -5.292e-4 -0.00106 c -2.646e-4,0.00489 0.00132,-0.00238 0.00265,-0.021696 v -5.178e-4 c 5.291e-4,-0.00812 0.00106,-0.01651 0,-0.00159 V 6.9399379 6.9394087 C 7.6683951,6.7900065 7.6730517,6.6246683 7.673528,6.4391796 V 6.4386529 3.4786269 C 7.6716745,3.0654006 7.323504,2.7667681 7.0730468,2.5515507 l -0.00212,-0.00212 -0.00106,-5.291e-4 -1.7756028,-1.71307387 -0.00159,-0.00159 C 4.8840907,0.46658383 4.5530838,0.26566193 3.9762286,0.26566193 Z m 3.2313271,0.2614824 c 0.00516,0 0.012039,2.646e-4 0.021193,0.00159 l 0.00929,0.00159 h 0.6082321 c 0.2639325,0.00564 0.4580996,0.012039 0.5875602,0.032038 0.1301459,0.020108 0.1834277,0.04857 0.214974,0.087334 0.031549,0.038764 0.056748,0.1160013 0.066664,0.2630329 0.00992,0.14703157 0.00564,0.35477977 0.00413,0.63148627 v 0.3514011 c -0.00106,0.024765 -0.027681,0.059423 -0.080613,0.079581 -0.052933,0.020161 -0.1068573,0.012885 -0.1312598,-0.00878 l -1.3482373,-1.26245407 -0.00212,-0.00159 c -0.045413,-0.039293 -0.018018,-0.1516353 0.047024,-0.1746673 7.938e-4,-2.12e-5 0.00238,-5.292e-4 0.0031,-5.292e-4 z m -3.2313271,0.00106 h 1.310513 c 0.5216022,0 0.7458604,0.1455711 1.1404997,0.50126107 l 1.7833525,1.7203075 0.00212,0.00159 c 0.2443638,0.2100369 0.5072882,0.47507 0.5084947,0.7286387 v 2.9589915 c -5.292e-4,0.1813904 -0.00476,0.3412199 -0.014975,0.4816237 -0.00106,0.014393 -0.00106,0.019209 0,0.00362 v 5.292e-4 c 2.646e-4,-0.00474 -0.00106,0.00185 -0.00265,0.022225 -0.00495,0.062151 -0.01098,0.1212507 -0.018097,0.1741514 -0.00823,0.061156 -0.017648,0.1173401 -0.02894,0.1684629 -0.011351,0.051464 -0.024209,0.098631 -0.038756,0.1410785 -0.014684,0.042794 -0.031075,0.081312 -0.048577,0.1152366 -0.017251,0.033385 -0.036317,0.063323 -0.057359,0.09095 l 0.013943,-0.015505 c -6.09e-5,5.82e-5 -0.017383,0.022595 -0.022225,0.02894 0.00106,-0.00185 0.00312,-0.00569 0.0031,-0.00569 l 0.00466,-0.00722 c 0.00897,-0.011668 0.00593,-0.00847 -0.00826,0.00929 C 7.1726636,7.671531 7.1523727,7.693365 7.1315818,7.711801 7.1065522,7.734 7.0787921,7.754216 7.0478676,7.772779 7.0166306,7.791512 6.9830416,7.808434 6.9455479,7.82342 H 6.9450188 C 6.9078768,7.83829 6.8661338,7.851561 6.8194449,7.863729 6.7274469,7.887674 6.6192162,7.905605 6.493883,7.917471 c -1.931e-4,1.86e-5 -2.646e-4,-1.85e-5 -5.291e-4,0 h -5.292e-4 c -0.00185,1.667e-4 -0.014975,1.694e-4 -0.035655,0.00212 -0.054419,0.0046 -0.1083336,0.00855 -0.166915,0.011377 -0.144436,0.00688 -0.3064642,0.00982 -0.4878255,0.00982 H 2.6656695 C 2.2086388,7.940788 1.8717104,7.923828 1.640925,7.863273 1.548892,7.839064 1.4738247,7.808351 1.4119996,7.770772 1.3809216,7.751881 1.3533366,7.731344 1.3282826,7.708762 1.2780566,7.663494 1.2364666,7.609342 1.2011583,7.539262 1.1657623,7.469002 1.1369573,7.3835917 1.1148593,7.2788141 1.1037993,7.2263601 1.0947513,7.16893 1.0869533,7.1067317 1.0713693,6.9825733 1.0623733,6.8386532 1.0585323,6.6736829 1.0564123,6.5912939 1.0558823,6.5033441 1.0564123,6.4101341 V 4.2344118 2.058833 c -5.291e-4,-0.093054 2.408e-4,-0.1807871 0.00212,-0.2635488 0.00386,-0.1649571 0.012859,-0.3088454 0.028421,-0.4330488 0.00781,-0.062227 0.016854,-0.1197081 0.027906,-0.1720823 0.010954,-0.051954 0.024156,-0.09919 0.038756,-0.1431449 0.014367,-0.043281 0.030522,-0.082452 0.048062,-0.11730297 7.937e-4,-0.00159 0.00807,-0.011853 0.021696,-0.035142 0.0323,-0.055264 0.066495,-0.09974 0.104902,-0.1343581 0.2014405,-0.1815808 0.6058614,-0.2320263 1.3373867,-0.2320263 z"
     style="color:#000000;display:inline;opacity:0.4;fill:#000000;stroke-width:0.264583;-inkscape-stroke:none;enable-background:new"
     id="path6321" />
</svg>
