<?xml version="1.0" encoding="UTF-8" standalone="no"?>
<!-- Created with Inkscape (http://www.inkscape.org/) -->

<svg
   width="32"
   height="32"
   viewBox="0 0 8.4666667 8.4666667"
   version="1.1"
   id="svg5"
   sodipodi:docname="linuxmint.svg"
   inkscape:version="1.1.2 (0a00cf5339, 2022-02-04)"
   xmlns:inkscape="http://www.inkscape.org/namespaces/inkscape"
   xmlns:sodipodi="http://sodipodi.sourceforge.net/DTD/sodipodi-0.dtd"
   xmlns:xlink="http://www.w3.org/1999/xlink"
   xmlns="http://www.w3.org/2000/svg"
   xmlns:svg="http://www.w3.org/2000/svg">
  <sodipodi:namedview
     id="namedview7"
     pagecolor="#ffffff"
     bordercolor="#666666"
     borderopacity="1.0"
     inkscape:pageshadow="2"
     inkscape:pageopacity="0.0"
     inkscape:pagecheckerboard="0"
     inkscape:document-units="px"
     showgrid="false"
     units="px"
     height="48px"
     showguides="false"
     inkscape:zoom="8.7173008"
     inkscape:cx="-7.5137937"
     inkscape:cy="11.528798"
     inkscape:window-width="1920"
     inkscape:window-height="995"
     inkscape:window-x="0"
     inkscape:window-y="0"
     inkscape:window-maximized="1"
     inkscape:current-layer="svg5" />
  <defs
     id="defs2">
    <linearGradient
       inkscape:collect="always"
       id="linearGradient1871">
      <stop
         style="stop-color:#ffffff;stop-opacity:1;"
         offset="0"
         id="stop1867" />
      <stop
         style="stop-color:#ffffff;stop-opacity:0.1"
         offset="0.12"
         id="stop2515" />
      <stop
         style="stop-color:#ffffff;stop-opacity:0.102"
         offset="0.89999998"
         id="stop2581" />
      <stop
         style="stop-color:#ffffff;stop-opacity:0.502"
         offset="1"
         id="stop1869" />
    </linearGradient>
    <linearGradient
       inkscape:collect="always"
       xlink:href="#linearGradient1871"
       id="linearGradient1198"
       x1="6.3499999"
       y1="0.52916658"
       x2="6.3499994"
       y2="12.170834"
       gradientUnits="userSpaceOnUse"
       gradientTransform="matrix(2.405154,0,0,2.405154,0.72727268,0.72727268)" />
    <linearGradient
       inkscape:collect="always"
       xlink:href="#linearGradient2290"
       id="linearGradient2016"
       x1="0.88954729"
       y1="0.43793112"
       x2="10.168212"
       y2="11.440948"
       gradientUnits="userSpaceOnUse"
       gradientTransform="matrix(0.64444444,0,0,0.64444444,0.14111151,0.14111151)" />
    <linearGradient
       inkscape:collect="always"
       id="linearGradient2290">
      <stop
         style="stop-color:#76c22b;stop-opacity:1"
         offset="0"
         id="stop2286" />
      <stop
         style="stop-color:#a2d74f;stop-opacity:1"
         offset="1"
         id="stop2288" />
    </linearGradient>
  </defs>
  <circle
     style="opacity:0.1;fill:#000000;fill-opacity:1;stroke-width:0.345109;stroke-linecap:round;stroke-linejoin:round"
     id="path3625"
     cx="4.2333331"
     cy="4.4979167"
     r="3.96875" />
  <circle
     style="fill:url(#linearGradient2016);fill-opacity:1;stroke-width:0.341019;stroke-linecap:round;stroke-linejoin:round"
     id="path986"
     cx="4.2333336"
     cy="4.2333336"
     r="3.8364584" />
  <path
     d="m 2.1695834,2.6458334 v 2.6560269 c 0,0.6484578 0.5319986,1.1804563 1.1804563,1.1804563 h 1.7706848 c 0.6484577,0 1.1804563,-0.5319985 1.1804563,-1.1804563 V 3.8262899 c 0,-0.485463 -0.3998797,-0.8853427 -0.8853424,-0.8853427 -0.2267953,0 -0.4328401,0.089645 -0.5902281,0.2321444 C 4.6682185,3.0305939 4.4621774,2.9409472 4.2353821,2.9409472 c -0.4854628,0 -0.8853424,0.3998797 -0.8853424,0.8853427 V 5.3018603 H 3.940268 V 3.8262899 c 0,-0.1664832 0.1286312,-0.2951141 0.2951141,-0.2951141 0.166483,0 0.2951139,0.1286309 0.2951139,0.2951141 V 5.3018603 H 5.1207245 V 3.8262899 c 0,-0.1664832 0.1286309,-0.2951141 0.2951139,-0.2951141 0.1664829,0 0.2951141,0.1286309 0.2951141,0.2951141 v 1.4755704 c 0,0.3294761 -0.2607519,0.5902281 -0.590228,0.5902281 H 3.3500397 c -0.329476,0 -0.5902279,-0.260752 -0.5902279,-0.5902281 V 2.6458334 Z"
     style="color:#000000;font-variant-ligatures:normal;font-variant-position:normal;font-variant-caps:normal;font-variant-numeric:normal;font-variant-alternates:normal;font-feature-settings:normal;text-indent:0;text-decoration-line:none;text-decoration-style:solid;text-decoration-color:#000000;text-transform:none;text-orientation:mixed;dominant-baseline:auto;white-space:normal;shape-padding:0;opacity:0.1;isolation:auto;mix-blend-mode:normal;solid-color:#000000;fill:#000000;stroke-width:0.0700042;color-rendering:auto;image-rendering:auto;shape-rendering:auto;enable-background:accumulate"
     id="path1053" />
  <path
     d="m 2.1695833,2.38125 v 2.6560269 c 0,0.6484578 0.5319985,1.1804563 1.1804564,1.1804563 h 1.7706846 c 0.6484579,0 1.1804563,-0.5319985 1.1804563,-1.1804563 V 3.5617065 c 0,-0.4854629 -0.3998795,-0.8853425 -0.8853422,-0.8853425 -0.2267953,0 -0.4328403,0.089645 -0.5902281,0.2321442 C 4.6682185,2.7660105 4.4621773,2.676364 4.2353819,2.676364 c -0.4854627,0 -0.8853422,0.3998796 -0.8853422,0.8853425 V 5.0372769 H 3.9402678 V 3.5617065 c 0,-0.1664831 0.1286312,-0.2951141 0.2951141,-0.2951141 0.1664831,0 0.2951141,0.128631 0.2951141,0.2951141 V 5.0372769 H 5.1207243 V 3.5617065 c 0,-0.1664831 0.128631,-0.2951141 0.2951141,-0.2951141 0.1664829,0 0.2951141,0.128631 0.2951141,0.2951141 v 1.4755704 c 0,0.3294762 -0.2607519,0.5902281 -0.5902282,0.5902281 H 3.3500397 c -0.3294763,0 -0.5902282,-0.2607519 -0.5902282,-0.5902281 V 2.38125 Z"
     style="color:#000000;font-variant-ligatures:normal;font-variant-position:normal;font-variant-caps:normal;font-variant-numeric:normal;font-variant-alternates:normal;font-feature-settings:normal;text-indent:0;text-decoration-line:none;text-decoration-style:solid;text-decoration-color:#000000;text-transform:none;text-orientation:mixed;dominant-baseline:auto;white-space:normal;shape-padding:0;isolation:auto;mix-blend-mode:normal;solid-color:#000000;fill:#ffffff;stroke-width:0.264583;color-rendering:auto;image-rendering:auto;shape-rendering:auto;enable-background:accumulate"
     id="path882"
     sodipodi:nodetypes="csssssscssccsssccssssssscc" />
  <path
     id="rect1372"
     style="opacity:0.1;fill:#ffffff;fill-opacity:1;stroke-width:0.999999;stroke-linejoin:round"
     d="M 1.5 16 A 14.5 14.5 0 0 0 16 30.5 A 14.5 14.5 0 0 0 30.5 16 L 1.5 16 z "
     transform="scale(0.26458333)" />
  <path
     id="path4344"
     style="opacity:0.4;fill:#000000;fill-opacity:1;stroke-width:2;stroke-linecap:round;stroke-linejoin:round"
     d="M 16,1 A 15,15 0 0 0 1,16 15,15 0 0 0 16,31 15,15 0 0 0 31,16 15,15 0 0 0 16,1 Z m 0,1 A 14,14 0 0 1 30,16 14,14 0 0 1 16,30 14,14 0 0 1 2,16 14,14 0 0 1 16,2 Z"
     transform="scale(0.26458333)" />
  <path
     id="path1110"
     style="fill:url(#linearGradient1198);fill-opacity:1;stroke-width:1.27273;stroke-linecap:round;stroke-linejoin:round"
     d="m 16,2 c -7.7319866,-1e-7 -14.0000001,6.2680134 -14,14 2e-7,7.731987 6.2680134,14 14,14 7.731986,0 14,-6.268014 14,-14 C 30,8.2680134 23.731987,2.0000002 16,2 Z m 0,1 A 13,13 0 0 1 29,16 13,13 0 0 1 16,29 13,13 0 0 1 3,16 13,13 0 0 1 16,3 Z"
     transform="scale(0.26458333)" />
</svg>
