<?xml version="1.0" encoding="UTF-8" standalone="no"?>
<!-- Created with Inkscape (http://www.inkscape.org/) -->

<svg
   width="32"
   height="32"
   viewBox="0 0 8.4666667 8.4666667"
   version="1.1"
   id="svg5"
   sodipodi:docname="preferences-system-privacy.svg"
   inkscape:version="1.1.2 (0a00cf5339, 2022-02-04)"
   xmlns:inkscape="http://www.inkscape.org/namespaces/inkscape"
   xmlns:sodipodi="http://sodipodi.sourceforge.net/DTD/sodipodi-0.dtd"
   xmlns:xlink="http://www.w3.org/1999/xlink"
   xmlns="http://www.w3.org/2000/svg"
   xmlns:svg="http://www.w3.org/2000/svg">
  <sodipodi:namedview
     id="namedview7"
     pagecolor="#ffffff"
     bordercolor="#666666"
     borderopacity="1.0"
     inkscape:pageshadow="2"
     inkscape:pageopacity="0.0"
     inkscape:pagecheckerboard="0"
     inkscape:document-units="px"
     showgrid="false"
     units="px"
     height="48px"
     showguides="false"
     inkscape:zoom="12.328125"
     inkscape:cx="16.709759"
     inkscape:cy="11.721166"
     inkscape:window-width="1920"
     inkscape:window-height="1012"
     inkscape:window-x="0"
     inkscape:window-y="0"
     inkscape:window-maximized="1"
     inkscape:current-layer="svg5" />
  <defs
     id="defs2">
    <linearGradient
       inkscape:collect="always"
       id="linearGradient1871">
      <stop
         style="stop-color:#ffffff;stop-opacity:1;"
         offset="0"
         id="stop1867" />
      <stop
         style="stop-color:#ffffff;stop-opacity:0.1"
         offset="0.12"
         id="stop2515" />
      <stop
         style="stop-color:#ffffff;stop-opacity:0.102"
         offset="0.89999998"
         id="stop2581" />
      <stop
         style="stop-color:#ffffff;stop-opacity:0.502"
         offset="1"
         id="stop1869" />
    </linearGradient>
    <linearGradient
       inkscape:collect="always"
       xlink:href="#linearGradient1871"
       id="linearGradient1198"
       x1="6.3499999"
       y1="0.52916658"
       x2="6.3499994"
       y2="12.170834"
       gradientUnits="userSpaceOnUse"
       gradientTransform="matrix(2.405154,0,0,2.405154,0.72727268,0.72727268)" />
    <linearGradient
       inkscape:collect="always"
       xlink:href="#linearGradient1040"
       id="linearGradient1368"
       x1="4.2057309"
       y1="6.6098709"
       x2="4.2057304"
       y2="1.8473703"
       gradientUnits="userSpaceOnUse" />
    <linearGradient
       inkscape:collect="always"
       id="linearGradient1040">
      <stop
         style="stop-color:#8c59d9;stop-opacity:1;"
         offset="0"
         id="stop1036" />
      <stop
         style="stop-color:#a7a7f1;stop-opacity:1"
         offset="1"
         id="stop1038" />
    </linearGradient>
    <linearGradient
       inkscape:collect="always"
       xlink:href="#linearGradient1040"
       id="linearGradient1360"
       x1="3.96875"
       y1="6.0854168"
       x2="3.96875"
       y2="2.3812499"
       gradientUnits="userSpaceOnUse" />
    <linearGradient
       inkscape:collect="always"
       xlink:href="#linearGradient1040"
       id="linearGradient1352"
       x1="3.96875"
       y1="5.1593752"
       x2="3.96875"
       y2="3.4395833"
       gradientUnits="userSpaceOnUse" />
    <linearGradient
       inkscape:collect="always"
       xlink:href="#linearGradient1040"
       id="linearGradient1334"
       x1="0.39687514"
       y1="4.2333336"
       x2="8.0697918"
       y2="4.2333336"
       gradientUnits="userSpaceOnUse" />
  </defs>
  <circle
     style="opacity:0.1;fill:#000000;fill-opacity:1;stroke-width:0.345109;stroke-linecap:round;stroke-linejoin:round"
     id="path3625"
     cx="4.2333331"
     cy="4.4979167"
     r="3.96875" />
  <circle
     style="fill:url(#linearGradient1334);fill-opacity:1.0;stroke-width:0.341019;stroke-linecap:round;stroke-linejoin:round"
     id="path986"
     cx="4.2333336"
     cy="4.2333336"
     r="3.8364584" />
  <path
     id="rect960"
     style="opacity:0.25;fill:#ffffff;fill-opacity:1;stroke-width:0.264583;stroke-linejoin:round"
     d="M 4.2333333,0.396875 V 8.0697916 A 3.8364583,3.8364583 0 0 1 0.396875,4.2333333 3.8364583,3.8364583 0 0 1 4.2333333,0.396875 Z" />
  <ellipse
     style="opacity:0.1;fill:#000000;fill-opacity:1;stroke-width:0.526778;stroke-linecap:round;stroke-linejoin:round"
     id="path1103"
     cx="5.2596502"
     cy="3.2592635"
     rx="2.9071221"
     ry="2.9137073"
     transform="matrix(0.96642938,0.25693238,-0.26071757,0.96541512,0,0)" />
  <circle
     style="fill:#f7f7f7;fill-opacity:1;stroke-width:0.529167;stroke-linecap:round;stroke-linejoin:round"
     id="path1251"
     cx="4.2333331"
     cy="4.2333331"
     r="2.9104166" />
  <circle
     style="opacity:0.4;fill:url(#linearGradient1368);fill-opacity:1;stroke-width:0.529167;stroke-linecap:round;stroke-linejoin:round"
     id="path1597"
     cx="4.2333331"
     cy="4.2333331"
     r="2.3812499" />
  <circle
     style="fill:#f7f7f7;fill-opacity:1;stroke-width:0.604762;stroke-linecap:round;stroke-linejoin:round"
     id="path1855"
     cx="4.2333336"
     cy="4.2333336"
     r="2.1166668" />
  <circle
     style="opacity:0.4;fill:url(#linearGradient1360);fill-opacity:1;stroke-width:0.529167;stroke-linecap:round;stroke-linejoin:round"
     id="path2113"
     cx="4.2333331"
     cy="4.2333331"
     r="1.8520833" />
  <circle
     style="opacity:0.4;fill:url(#linearGradient1352);fill-opacity:1;stroke-width:0.529167;stroke-linecap:round;stroke-linejoin:round"
     id="path2266"
     cx="4.2333336"
     cy="4.2333336"
     r="1.0583334" />
  <path
     d="M 3.9687503,2.9104167 H 4.497917 V 4.365625 L 4.2333337,4.6302084 4.497917,4.8947917 V 5.55625 H 3.9687503 V 4.1010417 L 4.2333337,3.8364583 3.9687503,3.571875 Z"
     style="fill:#3b3b3b;stroke-width:0.264583;enable-background:new"
     id="path881" />
  <path
     id="path4344"
     style="opacity:0.4;fill:#000000;fill-opacity:1;stroke-width:2;stroke-linecap:round;stroke-linejoin:round"
     d="M 16,1 A 15,15 0 0 0 1,16 15,15 0 0 0 16,31 15,15 0 0 0 31,16 15,15 0 0 0 16,1 Z m 0,1 A 14,14 0 0 1 30,16 14,14 0 0 1 16,30 14,14 0 0 1 2,16 14,14 0 0 1 16,2 Z"
     transform="scale(0.26458333)" />
  <path
     id="path1110"
     style="fill:url(#linearGradient1198);fill-opacity:1;stroke-width:1.27273;stroke-linecap:round;stroke-linejoin:round"
     d="m 16,2 c -7.7319866,-1e-7 -14.0000001,6.2680134 -14,14 2e-7,7.731987 6.2680134,14 14,14 7.731986,0 14,-6.268014 14,-14 C 30,8.2680134 23.731987,2.0000002 16,2 Z m 0,1 A 13,13 0 0 1 29,16 13,13 0 0 1 16,29 13,13 0 0 1 3,16 13,13 0 0 1 16,3 Z"
     transform="scale(0.26458333)" />
</svg>
