<?xml version="1.0" encoding="UTF-8" standalone="no"?>
<!-- Created with Inkscape (http://www.inkscape.org/) -->

<svg
   width="32"
   height="32"
   viewBox="0 0 8.4666667 8.4666667"
   version="1.1"
   id="svg5"
   sodipodi:docname="system-config-users.svg"
   inkscape:version="1.1.2 (0a00cf5339, 2022-02-04)"
   xmlns:inkscape="http://www.inkscape.org/namespaces/inkscape"
   xmlns:sodipodi="http://sodipodi.sourceforge.net/DTD/sodipodi-0.dtd"
   xmlns:xlink="http://www.w3.org/1999/xlink"
   xmlns="http://www.w3.org/2000/svg"
   xmlns:svg="http://www.w3.org/2000/svg">
  <sodipodi:namedview
     id="namedview7"
     pagecolor="#ffffff"
     bordercolor="#666666"
     borderopacity="1.0"
     inkscape:pageshadow="2"
     inkscape:pageopacity="0.0"
     inkscape:pagecheckerboard="0"
     inkscape:document-units="px"
     showgrid="false"
     units="px"
     height="48px"
     showguides="false"
     inkscape:zoom="16.375"
     inkscape:cx="16.793893"
     inkscape:cy="19.114504"
     inkscape:window-width="1920"
     inkscape:window-height="1012"
     inkscape:window-x="0"
     inkscape:window-y="0"
     inkscape:window-maximized="1"
     inkscape:current-layer="svg5" />
  <defs
     id="defs2">
    <linearGradient
       inkscape:collect="always"
       id="linearGradient1871">
      <stop
         style="stop-color:#ffffff;stop-opacity:1;"
         offset="0"
         id="stop1867" />
      <stop
         style="stop-color:#ffffff;stop-opacity:0.1"
         offset="0.12"
         id="stop2515" />
      <stop
         style="stop-color:#ffffff;stop-opacity:0.102"
         offset="0.89999998"
         id="stop2581" />
      <stop
         style="stop-color:#ffffff;stop-opacity:0.502"
         offset="1"
         id="stop1869" />
    </linearGradient>
    <linearGradient
       inkscape:collect="always"
       xlink:href="#linearGradient1871"
       id="linearGradient1198"
       x1="6.3499999"
       y1="0.52916658"
       x2="6.3499994"
       y2="12.170834"
       gradientUnits="userSpaceOnUse"
       gradientTransform="matrix(2.405154,0,0,2.405154,0.72727268,0.72727268)" />
    <linearGradient
       inkscape:collect="always"
       xlink:href="#linearGradient2014"
       id="linearGradient2016"
       x1="6.3499994"
       y1="12.508405"
       x2="6.3499994"
       y2="0.1915942"
       gradientUnits="userSpaceOnUse"
       gradientTransform="matrix(0.64444444,0,0,0.64444444,0.14111151,0.14111151)" />
    <linearGradient
       inkscape:collect="always"
       id="linearGradient2014">
      <stop
         style="stop-color:#8c59d9;stop-opacity:1"
         offset="0"
         id="stop2010" />
      <stop
         style="stop-color:#a7a7f1;stop-opacity:1"
         offset="1"
         id="stop2012" />
    </linearGradient>
  </defs>
  <circle
     style="opacity:0.1;fill:#000000;fill-opacity:1;stroke-width:0.345109;stroke-linecap:round;stroke-linejoin:round"
     id="path3625"
     cx="4.2333331"
     cy="4.4979167"
     r="3.96875" />
  <circle
     style="fill:url(#linearGradient2016);fill-opacity:1;stroke-width:0.341019;stroke-linecap:round;stroke-linejoin:round"
     id="path986"
     cx="4.2333336"
     cy="4.2333336"
     r="3.8364584" />
  <path
     d="m 5.0635507,2.143125 c -0.1535562,0 -0.2983177,0.028517 -0.4312708,0.085955 l -2.646e-4,9.26e-5 -1.693e-4,8.99e-5 C 4.4996337,2.2838383 4.3832938,2.3637054 4.2860091,2.4670887 l -1.693e-4,1.694e-4 -7.938e-4,0.00106 -2.646e-4,2.646e-4 C 4.1900447,2.5725146 4.1165779,2.6976916 4.0645502,2.8411143 v 1.006e-4 l -1.005e-4,1.746e-4 c -0.05266,0.1426951 -0.078512,0.29972 -0.078512,0.4691591 0,0.1719686 0.02577,0.3301207 0.078512,0.4730221 0.052118,0.141179 0.1256665,0.2650067 0.2203185,0.3688556 l 2.646e-4,2.646e-4 5.292e-4,7.938e-4 1.746e-4,1.746e-4 9.79e-5,1.005e-4 c 0.097253,0.1033886 0.2133388,0.1845654 0.3453077,0.2417657 l 2.646e-4,1.005e-4 2.646e-4,2.646e-4 2.645e-4,1.72e-4 2.646e-4,1.005e-4 c 0.1329055,0.054724 0.277495,0.081754 0.4309269,0.081754 0.1534398,0 0.298106,-0.02703 0.4310062,-0.081754 l 7.938e-4,-2.645e-4 5.292e-4,-2.646e-4 C 5.6276239,4.338349 5.7426885,4.2567013 5.8375363,4.1527306 l 1.747e-4,-1.773e-4 9.79e-5,-1.005e-4 C 5.9350459,4.0487229 6.0102008,3.9248079 6.062329,3.7835972 6.115082,3.6406957 6.140669,3.4825543 6.140669,3.3105751 c 0,-0.1691905 -0.025665,-0.3259667 -0.078166,-0.4684712 l -2.646e-4,-0.00106 C 6.0101928,2.697599 5.9352099,2.5724141 5.8378909,2.4685916 L 5.837793,2.468491 5.837621,2.4683243 C 5.7427176,2.3642928 5.6272958,2.2839547 5.4948533,2.2292733 l -2.646e-4,-9e-5 -1.693e-4,-8.99e-5 C 5.3617282,2.171774 5.2171625,2.1432387 5.0639423,2.1431461 Z m -5.291e-4,0.1831181 h 5.291e-4 c 0.1314979,0 0.2505128,0.023945 0.3596746,0.071252 l 2.646e-4,9.79e-5 2.646e-4,1.772e-4 2.646e-4,1.667e-4 2.645e-4,1.032e-4 c 0.1093947,0.045043 0.2012818,0.1091433 0.2784475,0.1937967 l 2.646e-4,2.646e-4 7.938e-4,0.00106 c 0.079634,0.084804 0.1417717,0.1874679 0.1864439,0.3109119 l 7.937e-4,0.00212 2.646e-4,0.00132 v 1.773e-4 c 0.043614,0.1192821 0.066175,0.2529893 0.066175,0.4028281 0,0.1538049 -0.022913,0.2897452 -0.067135,0.409575 C 5.8457227,3.8409262 5.7836623,3.94264 5.7037105,4.0277776 l -2.646e-4,2.646e-4 -5.292e-4,7.938e-4 -2.645e-4,2.646e-4 c -0.077132,0.08462 -0.16922,0.1500116 -0.2786067,0.1976445 l -2.646e-4,1.773e-4 -2.646e-4,1.006e-4 C 5.3142223,4.271912 5.1948634,4.294772 5.063048,4.294772 c -0.1318022,0 -0.251161,-0.02286 -0.3604683,-0.067749 L 4.7023151,4.2269224 4.7020505,4.2267451 C 4.5926771,4.1791254 4.499086,4.1135194 4.419158,4.0286595 L 4.418986,4.0284849 4.4188141,4.0283077 C 4.3414234,3.9431991 4.2803285,3.8412472 4.2356086,3.720121 4.1913756,3.6003097 4.1684733,3.4643615 4.1684733,3.310546 c 0,-0.1501272 0.022648,-0.2841625 0.066437,-0.4036219 l 2.646e-4,-0.00185 1.72e-4,-2.645e-4 1.72e-4,-7.938e-4 C 4.2803126,2.7802496 4.3414525,2.6773716 4.4185468,2.5925727 l 1.747e-4,-1.667e-4 1.719e-4,-1.746e-4 c 0.079973,-0.084889 0.1732915,-0.1492118 0.282628,-0.194236 l 7.937e-4,-1.746e-4 1.005e-4,-1.032e-4 5.292e-4,-1.746e-4 C 4.811977,2.350286 4.9308648,2.326336 5.0621696,2.326291 Z m -2.22504,0.3550444 c -0.1162976,0 -0.2267506,0.021749 -0.3280569,0.065474 l -1.72e-4,1.032e-4 -1.64e-4,1.006e-4 c -0.100756,0.041611 -0.1899179,0.10274 -0.2640859,0.1816282 l -2.646e-4,2.646e-4 -1.64e-4,1.773e-4 -1.694e-4,1.746e-4 -2.646e-4,2.646e-4 c -0.07239,0.079396 -0.1283176,0.1749477 -0.167714,0.2836862 l -1.667e-4,2.646e-4 c -3.18e-5,3.17e-5 -3.18e-5,1.667e-4 -1.006e-4,1.746e-4 -0.039806,0.1081855 -0.059171,0.2267691 -0.059171,0.3540654 0,0.1294607 0.01942,0.2492957 0.059518,0.3579284 0.039468,0.1068863 0.095467,0.2013002 0.1676294,0.2804583 l 2.646e-4,2.646e-4 5.292e-4,7.937e-4 c 0.074102,0.078814 0.1629119,0.140806 0.2633848,0.1843432 l 1.693e-4,1.005e-4 0.00159,7.938e-4 9.79e-5,9.78e-5 c 0.1011237,0.041548 0.211201,0.061976 0.3271837,0.061976 0.1160304,0 0.2259595,-0.020399 0.3271044,-0.061976 3.18e-5,-2.91e-5 1.693e-4,-2.91e-5 1.746e-4,-9.78e-5 l 0.00106,-5.292e-4 7.937e-4,-2.646e-4 C 3.267522,4.3479852 3.3555701,4.285689 3.4279151,4.2064199 l 1.72e-4,-1.747e-4 1.005e-4,-1.772e-4 c 0.074049,-0.079039 0.1313021,-0.173445 0.1707753,-0.2803525 0.040108,-0.1086247 0.059433,-0.2284598 0.059433,-0.3579284 0,-0.1274021 -0.019394,-0.246081 -0.059256,-0.35433 L 3.599037,3.2131926 C 3.5595823,3.1042874 3.5024138,3.0086749 3.4279998,2.9293211 L 3.4278304,2.9291465 3.4277272,2.9289692 C 3.3553611,2.849753 3.2669955,2.7884199 3.1662686,2.7468168 L 3.1660993,2.7467163 3.1659247,2.7466131 C 3.0645999,2.7028669 2.9542501,2.6811181 2.8379472,2.6811181 Z m -0.00534,0.1832054 h 0.00534 c 0.094237,0 0.1787842,0.017092 0.2562939,0.050681 l 2.646e-4,1.006e-4 5.292e-4,1.746e-4 7.937e-4,2.646e-4 c 0.077634,0.031959 0.1422823,0.077205 0.1968606,0.1369906 l 2.646e-4,2.646e-4 2.646e-4,1.747e-4 7.937e-4,7.937e-4 c 0.056592,0.060187 0.1008089,0.1333077 0.1328738,0.2218955 l 2.645e-4,0.00132 c 0.031475,0.085537 0.047879,0.1819963 0.047879,0.2908829 0,0.1112811 -0.016457,0.2089256 -0.048054,0.2944548 -0.031999,0.086659 -0.076359,0.1589616 -0.1332256,0.2194454 l -2.646e-4,2.646e-4 -2.646e-4,1.746e-4 -1.693e-4,1.773e-4 -2.646e-4,2.646e-4 C 3.2380841,4.142862 3.1728144,4.1890473 3.0949105,4.222959 l -2.646e-4,1.746e-4 -2.645e-4,1.005e-4 c -0.077486,0.031708 -0.1621923,0.048144 -0.2565586,0.048144 -0.094395,0 -0.1792049,-0.016404 -0.2567305,-0.048144 L 2.5808278,4.2231336 2.5805632,4.222959 C 2.5027201,4.1890791 2.4364684,4.1426553 2.3796756,4.0824679 L 2.3795089,4.0822932 2.3793396,4.082116 C 2.3244042,4.0217037 2.2806738,3.9493692 2.2485667,3.8624113 2.2169781,3.7768159 2.200513,3.679145 2.200513,3.5678771 c 0,-0.1090163 0.016404,-0.2056024 0.047966,-0.2912269 3.18e-5,-1.693e-4 3.18e-5,-2.646e-4 1.006e-4,-5.291e-4 l 1.032e-4,-1.032e-4 9.79e-5,-2.646e-4 C 2.2809567,3.1868613 2.3247237,3.1137092 2.379379,3.0535959 l 1.693e-4,-1.746e-4 1.641e-4,-1.773e-4 c 0.0567,-0.060068 0.1225259,-0.1056296 0.200189,-0.1375992 l 5.292e-4,-1.773e-4 7.937e-4,-2.646e-4 c 0.075502,-0.032718 0.1581706,-0.049115 0.2494677,-0.04998 z m 2.256362,2.0087431 c -0.8075877,0 -1.2998714,0.073641 -1.6075289,0.301625 -0.1533181,0.11362 -0.2541111,0.2677054 -0.3120496,0.45212 -0.055758,0.177464 -0.074165,0.3999971 -0.07615,0.6415616 l 0.1832028,5.292e-4 c 0.00212,-0.231439 0.020717,-0.4373827 0.067752,-0.587031 C 3.3931647,5.5263017 3.4687668,5.4124304 3.5906338,5.3221016 3.8357174,5.1404757 4.2935259,5.0564335 5.0890222,5.0564335 c 0.7954962,0 1.2532518,0.084069 1.4981237,0.2656681 0.1217454,0.090292 0.1972363,0.2041287 0.2459646,0.3598333 0.046821,0.1496404 0.065162,0.3555471 0.066873,0.5869517 l 0.1832081,-1.72e-4 C 7.0818691,6.0271183 7.0635335,5.8047148 7.0080001,5.6272323 6.9502944,5.4428178 6.8494459,5.2885921 6.6962151,5.1749536 6.3887163,4.9469198 5.8966178,4.8733286 5.0890301,4.8733286 Z M 2.7835039,4.8348688 C 2.2109985,4.8367208 1.8728081,4.892376 1.6433878,5.0635164 1.5273099,5.1501066 1.4501812,5.2695765 1.4068768,5.4099618 1.3634217,5.5508657 1.3498036,5.7134124 1.349375,5.9054735 V 6.1793437 H 1.5324931 V 5.905738 C 1.5327577,5.7226993 1.547151,5.5764905 1.5818617,5.4639633 1.6163818,5.3520524 1.6685868,5.2732146 1.7528116,5.2103839 1.9202452,5.0854847 2.2239551,5.0203046 2.7835224,5.0181483 Z"
     style="color:#000000;font-variant-ligatures:normal;font-variant-position:normal;font-variant-caps:normal;font-variant-numeric:normal;font-variant-alternates:normal;font-feature-settings:normal;text-indent:0;text-decoration-line:none;text-decoration-style:solid;text-decoration-color:#000000;text-transform:none;text-orientation:mixed;dominant-baseline:auto;white-space:normal;shape-padding:0;isolation:auto;mix-blend-mode:normal;solid-color:#000000;fill:#ffffff;stroke:#ffffff;stroke-width:0.0529167;color-rendering:auto;image-rendering:auto;shape-rendering:auto"
     id="path872" />
  <path
     id="path4344"
     style="opacity:0.4;fill:#000000;fill-opacity:1;stroke-width:2;stroke-linecap:round;stroke-linejoin:round"
     d="M 16,1 A 15,15 0 0 0 1,16 15,15 0 0 0 16,31 15,15 0 0 0 31,16 15,15 0 0 0 16,1 Z m 0,1 A 14,14 0 0 1 30,16 14,14 0 0 1 16,30 14,14 0 0 1 2,16 14,14 0 0 1 16,2 Z"
     transform="scale(0.26458333)" />
  <path
     id="path1110"
     style="fill:url(#linearGradient1198);fill-opacity:1;stroke-width:1.27273;stroke-linecap:round;stroke-linejoin:round"
     d="m 16,2 c -7.7319866,-1e-7 -14.0000001,6.2680134 -14,14 2e-7,7.731987 6.2680134,14 14,14 7.731986,0 14,-6.268014 14,-14 C 30,8.2680134 23.731987,2.0000002 16,2 Z m 0,1 A 13,13 0 0 1 29,16 13,13 0 0 1 16,29 13,13 0 0 1 3,16 13,13 0 0 1 16,3 Z"
     transform="scale(0.26458333)" />
</svg>
