<?xml version="1.0" encoding="UTF-8" standalone="no"?>
<!-- Created with Inkscape (http://www.inkscape.org/) -->

<svg
   width="32"
   height="32"
   viewBox="0 0 8.4666667 8.4666667"
   version="1.1"
   id="svg5"
   sodipodi:docname="system-help.svg"
   inkscape:version="1.1.2 (0a00cf5339, 2022-02-04)"
   xmlns:inkscape="http://www.inkscape.org/namespaces/inkscape"
   xmlns:sodipodi="http://sodipodi.sourceforge.net/DTD/sodipodi-0.dtd"
   xmlns:xlink="http://www.w3.org/1999/xlink"
   xmlns="http://www.w3.org/2000/svg"
   xmlns:svg="http://www.w3.org/2000/svg">
  <sodipodi:namedview
     id="namedview7"
     pagecolor="#ffffff"
     bordercolor="#666666"
     borderopacity="1.0"
     inkscape:pageshadow="2"
     inkscape:pageopacity="0.0"
     inkscape:pagecheckerboard="0"
     inkscape:document-units="px"
     showgrid="false"
     units="px"
     height="48px"
     showguides="false"
     inkscape:zoom="8.7173008"
     inkscape:cx="-10.897869"
     inkscape:cy="14.167229"
     inkscape:window-width="1920"
     inkscape:window-height="1012"
     inkscape:window-x="0"
     inkscape:window-y="0"
     inkscape:window-maximized="1"
     inkscape:current-layer="svg5" />
  <defs
     id="defs2">
    <linearGradient
       inkscape:collect="always"
       id="linearGradient1544">
      <stop
         style="stop-color:#37a6e6;stop-opacity:1"
         offset="0"
         id="stop1540" />
      <stop
         style="stop-color:#1a7fe4;stop-opacity:1"
         offset="1"
         id="stop1542" />
    </linearGradient>
    <linearGradient
       inkscape:collect="always"
       id="linearGradient1871">
      <stop
         style="stop-color:#ffffff;stop-opacity:1;"
         offset="0"
         id="stop1867" />
      <stop
         style="stop-color:#ffffff;stop-opacity:0.1"
         offset="0.12"
         id="stop2515" />
      <stop
         style="stop-color:#ffffff;stop-opacity:0.102"
         offset="0.89999998"
         id="stop2581" />
      <stop
         style="stop-color:#ffffff;stop-opacity:0.502"
         offset="1"
         id="stop1869" />
    </linearGradient>
    <linearGradient
       inkscape:collect="always"
       xlink:href="#linearGradient1871"
       id="linearGradient1198"
       x1="6.3499999"
       y1="0.52916658"
       x2="6.3499994"
       y2="12.170834"
       gradientUnits="userSpaceOnUse"
       gradientTransform="matrix(2.405154,0,0,2.405154,0.72727268,0.72727268)" />
    <linearGradient
       inkscape:collect="always"
       xlink:href="#linearGradient1544"
       id="linearGradient2016"
       x1="9.921875"
       y1="11.1125"
       x2="2.7781253"
       y2="1.5874999"
       gradientUnits="userSpaceOnUse"
       gradientTransform="matrix(0.64444444,0,0,0.64444444,0.14111151,0.14111151)" />
  </defs>
  <circle
     style="opacity:0.1;fill:#000000;fill-opacity:1;stroke-width:0.345109;stroke-linecap:round;stroke-linejoin:round"
     id="path3625"
     cx="4.2333331"
     cy="4.4979167"
     r="3.96875" />
  <circle
     style="fill:url(#linearGradient2016);fill-opacity:1;stroke-width:0.341019;stroke-linecap:round;stroke-linejoin:round"
     id="path986"
     cx="4.2333336"
     cy="4.2333336"
     r="3.8364584" />
  <path
     id="rect1372"
     style="opacity:0.1;fill:#ffffff;fill-opacity:1;stroke-width:0.999999;stroke-linejoin:round"
     d="M 1.5 16 A 14.5 14.5 0 0 0 16 30.5 A 14.5 14.5 0 0 0 30.5 16 L 1.5 16 z "
     transform="scale(0.26458333)" />
  <path
     id="rect1071"
     style="fill:#ffffff;fill-opacity:1;stroke-width:0.184761;stroke-linecap:round;stroke-linejoin:round"
     d="m 4.1449224,1.5875 c -0.2364932,0 -0.4607866,0.026998 -0.672645,0.081193 C 3.2653458,1.72289 3.0779326,1.79436 2.9104166,1.8830449 l 0.192339,0.53227 C 3.4131529,2.2477993 3.7309724,2.1637951 4.0561505,2.1637951 c 0.2562009,0 0.4508459,0.066528 0.5838731,0.1995562 0.1330274,0.1281005 0.1995562,0.295748 0.1995563,0.5026795 0,0.1281004 -0.029649,0.2463337 -0.088772,0.3547264 -0.054196,0.1083926 -0.1256664,0.2118016 -0.2143514,0.3103405 -0.088685,0.098539 -0.182211,0.1970065 -0.2807499,0.2955451 -0.098539,0.093612 -0.192065,0.1970209 -0.2807499,0.3103406 -0.088685,0.1083928 -0.1628062,0.226626 -0.2219295,0.3547265 -0.054197,0.1281004 -0.081194,0.2710409 -0.081194,0.4287029 0,0.1083926 0.00988,0.2118016 0.029591,0.3103405 h 0.5762949 c -0.00493,-0.024635 -0.00722,-0.051632 -0.00722,-0.081193 v -0.081194 c 0,-0.162589 0.031939,-0.3078197 0.095989,-0.43592 C 4.4305412,4.4994183 4.5092433,4.3785339 4.6028551,4.2701412 4.6964669,4.1568216 4.7998759,4.0484712 4.9131955,3.9450053 5.0265151,3.8415395 5.1302851,3.7331891 5.2238969,3.6198696 5.3175088,3.5065498 5.3962105,3.3856654 5.4602608,3.257565 c 0.06405,-0.1330274 0.095989,-0.2831995 0.095989,-0.4507155 0,-0.1330274 -0.022056,-0.2710264 -0.066398,-0.4139076 C 5.4504359,2.2451337 5.3763147,2.1120762 5.2679219,1.9938296 5.1595292,1.875583 5.0142985,1.7797666 4.8320018,1.7058624 4.6546319,1.6270313 4.4257579,1.5875 4.1449224,1.5875 Z M 4.0265599,5.9329889 c -0.1527351,0 -0.2736195,0.049414 -0.3623045,0.147953 -0.088685,0.098539 -0.132797,0.214121 -0.132797,0.3471485 0,0.1330273 0.044113,0.2489702 0.132797,0.3475091 0.088685,0.098539 0.2095694,0.1475922 0.3623045,0.1475922 0.1527352,0 0.2732587,-0.049053 0.3619436,-0.1475922 0.088685,-0.098539 0.1331577,-0.2144818 0.1331577,-0.3475091 0,-0.1330275 -0.044472,-0.2486096 -0.1331577,-0.3471485 -0.088685,-0.098539 -0.2092084,-0.147953 -0.3619436,-0.147953 z" />
  <path
     id="path4344"
     style="opacity:0.4;fill:#000000;fill-opacity:1;stroke-width:2;stroke-linecap:round;stroke-linejoin:round"
     d="M 16,1 A 15,15 0 0 0 1,16 15,15 0 0 0 16,31 15,15 0 0 0 31,16 15,15 0 0 0 16,1 Z m 0,1 A 14,14 0 0 1 30,16 14,14 0 0 1 16,30 14,14 0 0 1 2,16 14,14 0 0 1 16,2 Z"
     transform="scale(0.26458333)" />
  <path
     id="path1110"
     style="fill:url(#linearGradient1198);fill-opacity:1;stroke-width:1.27273;stroke-linecap:round;stroke-linejoin:round"
     d="m 16,2 c -7.7319866,-1e-7 -14.0000001,6.2680134 -14,14 2e-7,7.731987 6.2680134,14 14,14 7.731986,0 14,-6.268014 14,-14 C 30,8.2680134 23.731987,2.0000002 16,2 Z m 0,1 A 13,13 0 0 1 29,16 13,13 0 0 1 16,29 13,13 0 0 1 3,16 13,13 0 0 1 16,3 Z"
     transform="scale(0.26458333)" />
</svg>
