<svg width="22" height="22" version="1.1" xmlns="http://www.w3.org/2000/svg">
 <path d="m11 3.2627s-1.636 2.738-6 2.738c0 9.31 6 12.594 6 12.594s6-3.284 6-12.594c-4.364 0-6-2.738-6-2.738zm0 1.386c0.272 0.312 0.257 0.42 0.781 0.795 0.912 0.654 2.362 1.19 4.153 1.391-0.174 3.943-1.439 6.642-2.73 8.352-0.982 1.298-1.74 1.878-2.204 2.193-0.463-0.315-1.222-0.895-2.203-2.193-1.292-1.71-2.557-4.409-2.73-8.352 1.79-0.2 3.24-0.737 4.152-1.39 0.524-0.377 0.51-0.483 0.781-0.796z" fill="#dfdfdf" overflow="visible"/>
 <path d="m11 15.001c1.6037-2.025 2.4616-4.0404 3-5h-2v-3h-2v3h-2c0.53837 0.95962 1.3963 2.975 3 5z" color="#000000" fill="#dfdfdf" style="font-feature-settings:normal;font-variant-alternates:normal;font-variant-caps:normal;font-variant-ligatures:normal;font-variant-numeric:normal;font-variant-position:normal;isolation:auto;mix-blend-mode:normal;shape-padding:0;text-decoration-color:#000000;text-decoration-line:none;text-decoration-style:solid;text-indent:0;text-orientation:mixed;text-transform:none;white-space:normal"/>
</svg>
