<svg width="48" height="48" enable-background="new" version="1.0" xmlns="http://www.w3.org/2000/svg" xmlns:xlink="http://www.w3.org/1999/xlink">
 <title>Suru Icon Theme Template</title>
 <defs>
  <linearGradient id="linearGradient1024" x1="459.03" x2="35.31" y1="419.23" y2="207.37" gradientTransform="matrix(0 -.11328 .11328 0 308.51 112)" gradientUnits="userSpaceOnUse">
   <stop stop-color="#f2f2f2" offset="0"/>
   <stop stop-color="#f9f9f9" offset="1"/>
  </linearGradient>
  <linearGradient id="linearGradient1004" x1="344" x2="344" y1="62" y2="106" gradientUnits="userSpaceOnUse">
   <stop stop-color="#fff" offset="0"/>
   <stop stop-color="#fff" stop-opacity=".098039" offset=".125"/>
   <stop stop-color="#fff" stop-opacity=".098039" offset=".925"/>
   <stop stop-color="#fff" stop-opacity=".49804" offset="1"/>
  </linearGradient>
 </defs>
 <g transform="translate(-320,-60)" enable-background="new">
  <rect x="320" y="60" width="48" height="48" enable-background="accumulate" opacity="0" stroke-width="2"/>
  <path d="m335.73 62c-2.2229-0.03386-3.9737 0.05118-5.4141 0.29297-1.4404 0.24178-2.619 0.6953-3.4824 1.5566-0.86337 0.86134-1.3191 2.0395-1.5586 3.4805-0.23953 1.441-0.28629 3.1953-0.27539 5.4238v12.246 12.252c-0.0108 2.2251 0.0361 3.9785 0.27539 5.418 0.23953 1.441 0.69522 2.6191 1.5586 3.4805 0.86338 0.86134 2.042 1.3149 3.4824 1.5566 1.4404 0.24179 3.1909 0.29297 5.4141 0.29297h16.539c2.2232 0 3.9728-0.0511 5.4102-0.29297 1.4374-0.24189 2.6125-0.69694 3.4726-1.5586 0.8602-0.86165 1.3132-2.0389 1.5547-3.4785 0.24149-1.4396 0.29297-3.1904 0.29297-5.418v-12.252-12l-10.73-10.748z" color="#000000" color-rendering="auto" dominant-baseline="auto" enable-background="accumulate" image-rendering="auto" opacity=".1" shape-rendering="auto" solid-color="#000000" style="font-feature-settings:normal;font-variant-alternates:normal;font-variant-caps:normal;font-variant-ligatures:normal;font-variant-numeric:normal;font-variant-position:normal;isolation:auto;mix-blend-mode:normal;shape-padding:0;text-decoration-color:#000000;text-decoration-line:none;text-decoration-style:solid;text-indent:0;text-orientation:mixed;text-transform:none;white-space:normal"/>
  <path d="m335.73 62c-8.8242 0-9.7736 0.90635-9.7304 9.7484v12.252 12.252c-0.0433 8.842 0.90622 9.7484 9.7304 9.7484h16.539c8.8242 0 9.7304-0.90625 9.7304-9.7484v-12.252l-6.7e-4 -12-10-10z" color="#000000" enable-background="accumulate" fill="none" opacity=".2" stroke="#000" stroke-width="2"/>
  <path d="m335.73 62c-8.8242 0-9.7736 0.90635-9.7304 9.7484v12.252 12.252c-0.0433 8.842 0.90622 9.7484 9.7304 9.7484h16.539c8.8242 0 9.7304-0.90625 9.7304-9.7484v-12.252l-6.7e-4 -12-10-10z" color="#000000" enable-background="accumulate" fill="url(#linearGradient1024)"/>
  <path d="m343.69 80.42c-0.58315 0-1.1359 0.0669-1.6583 0.20054-0.51025 0.13364-0.97197 0.30984-1.385 0.52852l0.47379 1.3123c0.76538-0.41306 1.5492-0.61961 2.351-0.61961 0.63174 0 1.1117 0.16376 1.4398 0.49177 0.32802 0.31588 0.49178 0.72897 0.49178 1.2392 0 0.31586-0.0728 0.6076-0.21853 0.87488-0.13363 0.26726-0.30984 0.52243-0.52853 0.76541-0.21867 0.24298-0.44933 0.48569-0.6923 0.72868-0.24299 0.23082-0.47403 0.48598-0.69272 0.76541-0.21868 0.26728-0.40071 0.55901-0.54649 0.87488-0.13364 0.31586-0.20056 0.66789-0.20056 1.0566 0 0.26728 0.0242 0.52245 0.0727 0.76542h1.4214c-0.0121-0.0607-0.018-0.12726-0.018-0.20016v-0.20053c0-0.40092 0.079-0.75955 0.23689-1.0754 0.15794-0.32802 0.35243-0.62558 0.58325-0.89286 0.23083-0.27942 0.48561-0.54665 0.76503-0.80177 0.27943-0.25513 0.53459-0.52235 0.76541-0.80178 0.23084-0.27942 0.42533-0.57699 0.58327-0.89285 0.15792-0.32803 0.23688-0.69872 0.23688-1.1118 0-0.32803-0.0545-0.66799-0.16379-1.0203-0.0972-0.36446-0.27962-0.69276-0.5469-0.98434-0.26726-0.29157-0.62551-0.52845-1.075-0.71069-0.43736-0.19438-1.0025-0.29162-1.695-0.29162zm-4.8372 3.408-7.8723 3.3349v1.4577l7.8723 3.3349 0.47379-1.4034-6.4693-2.6606 6.4693-2.6606zm10.255 0-0.4738 1.403 6.4693 2.6606-6.4693 2.6606 0.4738 1.4034 7.8727-3.3349v-1.4577zm-5.7094 7.3074c-0.37661 0-0.67418 0.12135-0.89285 0.36433-0.21869 0.24298-0.32798 0.52849-0.32798 0.8565 0 0.32803 0.10932 0.61353 0.32798 0.85651 0.21867 0.24297 0.51624 0.36473 0.89285 0.36473 0.37662 0 0.67457-0.12176 0.89325-0.36473 0.21869-0.24298 0.32798-0.52848 0.32798-0.85651 0-0.32801-0.10932-0.61352-0.32798-0.8565-0.21868-0.24298-0.51663-0.36433-0.89325-0.36433z" enable-background="new" fill="#8f76e4"/>
  <path d="m335.73 62c-8.8242 0-9.7737 0.90602-9.7305 9.748v12.252 12.252c-0.0433 8.842 0.90629 9.748 9.7305 9.748h16.539c8.8242 0 9.7305-0.90592 9.7305-9.748v-12.252-12h-1v12 12.252c0 2.1935-0.0614 3.8707-0.26562 5.0879-0.20419 1.2172-0.52867 1.9243-0.99805 2.3945-0.46938 0.47015-1.1744 0.79563-2.3887 1-1.2143 0.20434-2.8892 0.26562-5.0781 0.26562h-16.539c-2.1889 0-3.8659-0.0612-5.084-0.26562-1.2181-0.20449-1.9288-0.5295-2.4004-1-0.47161-0.47053-0.79596-1.1768-0.99804-2.3926-0.20209-1.2158-0.25879-2.8934-0.24805-5.0859v-2e-3 -12.254-12.254-2e-3c-0.0107-2.1925 0.046-3.8702 0.24805-5.0859 0.20209-1.2158 0.52643-1.9221 0.99804-2.3926s1.1843-0.79553 2.4024-1c1.2181-0.20438 2.8931-0.26558 5.082-0.26558h16.27v-1z" color="#000000" color-rendering="auto" dominant-baseline="auto" enable-background="accumulate" fill="url(#linearGradient1004)" image-rendering="auto" opacity=".4" shape-rendering="auto" solid-color="#000000" style="font-feature-settings:normal;font-variant-alternates:normal;font-variant-caps:normal;font-variant-ligatures:normal;font-variant-numeric:normal;font-variant-position:normal;isolation:auto;mix-blend-mode:normal;shape-padding:0;text-decoration-color:#000000;text-decoration-line:none;text-decoration-style:solid;text-indent:0;text-orientation:mixed;text-transform:none;white-space:normal"/>
  <path d="m362 73v-1l-10-10h-1v4.2091 0.16127 0.08662c0 5.692 0.76196 6.5697 6.467 6.5418z" color="#000000" enable-background="accumulate" opacity=".2"/>
  <path d="m362 71.999-10-9.9987v3.7089 0.16127 0.08662c0 5.692 0.26232 6.0698 5.9674 6.0419z" color="#000000" enable-background="accumulate" fill="#faf8f6"/>
 </g>
</svg>
