<svg xmlns:dc="http://purl.org/dc/elements/1.1/" xmlns:cc="http://creativecommons.org/ns#" xmlns:rdf="http://www.w3.org/1999/02/22-rdf-syntax-ns#" xmlns:svg="http://www.w3.org/2000/svg" xmlns="http://www.w3.org/2000/svg" xmlns:xlink="http://www.w3.org/1999/xlink" style="display:inline;enable-background:new" version="1.0" id="svg11300" height="48" width="48">
  <title id="title3004">Yaru Icon Theme Template</title>
  <defs id="defs3">
    <linearGradient gradientTransform="rotate(-90,344.00003,84.000122)" gradientUnits="userSpaceOnUse" y2="76.000153" x2="366.99991" y1="92.000153" x1="320.99991" id="linearGradient1686" xlink:href="#linearGradient6088"/>
    <linearGradient id="linearGradient6088">
      <stop id="stop6084" offset="0" style="stop-color:#6dc7f1;stop-opacity:1"/>
      <stop id="stop6086" offset="1" style="stop-color:#1a7fd4;stop-opacity:1"/>
    </linearGradient>
    <linearGradient gradientTransform="rotate(90,344.00003,84.000125)" gradientUnits="userSpaceOnUse" y2="84.000153" x2="365.99991" y1="84.000153" x1="321.99991" id="linearGradient1686-0" xlink:href="#linearGradient927"/>
    <linearGradient id="linearGradient927">
      <stop id="stop923" offset="0" style="stop-color:#ffffff;stop-opacity:1;"/>
      <stop style="stop-color:#ffffff;stop-opacity:0.09803922" offset="0.125" id="stop933"/>
      <stop style="stop-color:#ffffff;stop-opacity:0.09803922" offset="0.92500001" id="stop931"/>
      <stop id="stop925" offset="1" style="stop-color:#ffffff;stop-opacity:0.49803922"/>
    </linearGradient>
  </defs>
  <metadata id="metadata4">
    <rdf:RDF>
      <cc:Work rdf:about="">
        <dc:format>image/svg+xml</dc:format>
        <dc:type rdf:resource="http://purl.org/dc/dcmitype/StillImage"/>
        <dc:creator>
          <cc:Agent>
            <dc:title>Yaru Team, based on the Suru template by Sam Hewitt and original Suru designs by Matthieu James</dc:title>
          </cc:Agent>
        </dc:creator>
        <dc:source/>
        <cc:license rdf:resource="http://creativecommons.org/licenses/by-sa/4.0/"/>
        <dc:title>Yaru Icon Theme Template</dc:title>
        <dc:subject>
          <rdf:Bag/>
        </dc:subject>
        <dc:date/>
        <dc:rights>
          <cc:Agent>
            <dc:title/>
          </cc:Agent>
        </dc:rights>
        <dc:publisher>
          <cc:Agent>
            <dc:title/>
          </cc:Agent>
        </dc:publisher>
        <dc:identifier/>
        <dc:relation/>
        <dc:language/>
        <dc:coverage/>
        <dc:description/>
        <dc:contributor>
          <cc:Agent>
            <dc:title/>
          </cc:Agent>
        </dc:contributor>
      </cc:Work>
      <cc:Work rdf:about="">
        <dc:format>image/svg+xml</dc:format>
        <dc:type rdf:resource="http://purl.org/dc/dcmitype/StillImage"/>
      </cc:Work>
      <cc:License rdf:about="http://creativecommons.org/licenses/by-sa/4.0/">
        <cc:permits rdf:resource="http://creativecommons.org/ns#Reproduction"/>
        <cc:permits rdf:resource="http://creativecommons.org/ns#Distribution"/>
        <cc:requires rdf:resource="http://creativecommons.org/ns#Notice"/>
        <cc:requires rdf:resource="http://creativecommons.org/ns#Attribution"/>
        <cc:permits rdf:resource="http://creativecommons.org/ns#DerivativeWorks"/>
        <cc:requires rdf:resource="http://creativecommons.org/ns#ShareAlike"/>
      </cc:License>
    </rdf:RDF>
  </metadata>
  <g transform="translate(-89.13708,-171.3482)" id="layer1" style="display:inline">
    <g id="layer7" style="display:inline"/>
    <g style="display:inline" id="layer8"/>
    <g style="display:inline" id="layer6">
      <circle r="0" cy="156" cx="152" id="path1187" style="opacity:0.7;fill:#a69e8a;fill-opacity:1;stroke:none;stroke-width:0.197"/>
    </g>
    <g style="display:inline;opacity:1" id="layer4"/>
    <g style="display:inline;opacity:1" id="layer5">
      <g id="g2367" style="display:inline;opacity:1;enable-background:new" transform="translate(-230.86292,111.3482)">
        <rect y="60" x="320" height="48" width="48" id="rect48x48" style="display:inline;overflow:visible;visibility:visible;opacity:0;fill:#cdcdcd;fill-opacity:1;fill-rule:nonzero;stroke:none;stroke-width:2;marker:none;enable-background:accumulate"/>
        <path style="color:#000000;font-style:normal;font-variant:normal;font-weight:normal;font-stretch:normal;font-size:medium;line-height:normal;font-family:sans-serif;font-variant-ligatures:normal;font-variant-position:normal;font-variant-caps:normal;font-variant-numeric:normal;font-variant-alternates:normal;font-feature-settings:normal;text-indent:0;text-align:start;text-decoration:none;text-decoration-line:none;text-decoration-style:solid;text-decoration-color:#000000;letter-spacing:normal;word-spacing:normal;text-transform:none;writing-mode:lr-tb;direction:ltr;text-orientation:mixed;dominant-baseline:auto;baseline-shift:baseline;text-anchor:start;white-space:normal;shape-padding:0;clip-rule:nonzero;display:inline;overflow:visible;visibility:visible;opacity:0.1;isolation:auto;mix-blend-mode:normal;color-interpolation:sRGB;color-interpolation-filters:linearRGB;solid-color:#000000;solid-opacity:1;vector-effect:none;fill:#000000;fill-opacity:1;fill-rule:nonzero;stroke:none;stroke-width:2.00000024;stroke-linecap:butt;stroke-linejoin:miter;stroke-miterlimit:4;stroke-dasharray:none;stroke-dashoffset:0;stroke-opacity:1;marker:none;color-rendering:auto;image-rendering:auto;shape-rendering:auto;text-rendering:auto;enable-background:accumulate" d="m 333.65776,62 c -2.6221,0 -4.68675,0.05009 -6.38561,0.286735 -1.69887,0.236639 -3.08904,0.680503 -4.10735,1.523515 -1.0183,0.843013 -1.55577,1.996072 -1.83828,3.406406 -0.28252,1.410336 -0.33767,3.127346 -0.32482,5.308412 v 12.474816 12.480783 c -0.0127,2.177715 0.0426,3.893853 0.32482,5.302673 0.28251,1.41034 0.81998,2.5634 1.83828,3.40641 1.01831,0.84301 2.40848,1.28688 4.10735,1.52351 1.69888,0.23665 3.76351,0.28674 6.38561,0.28674 h 20.68618 c 2.62213,0 4.68568,-0.05 6.38104,-0.28674 1.69534,-0.23674 3.08126,-0.6821 4.09581,-1.52542 1.01457,-0.84331 1.54885,-1.99555 1.83367,-3.4045 C 366.93929,101.37441 367,99.660878 367,97.480667 V 84.999884 72.519333 c 0,-2.180211 -0.0608,-3.893733 -0.34554,-5.302677 -0.28482,-1.408942 -0.81911,-2.561177 -1.83368,-3.404494 -1.01455,-0.843317 -2.40047,-1.288685 -4.09582,-1.525427 C 359.02962,62.049992 356.96605,62 354.34394,62 Z" id="path1020"/>
        <path style="color:#000000;display:inline;overflow:visible;visibility:visible;fill:url(#linearGradient1686);fill-opacity:1;fill-rule:nonzero;stroke:none;stroke-width:1;marker:none;enable-background:accumulate" d="m 354.66489,106.50019 c 10.01116,0 11.88667,-0.90635 11.83407,-9.74838 V 84.00024 71.24843 c 0.0527,-8.842031 -1.82291,-9.748381 -11.83407,-9.748381 h -21.3308 c -10.00866,0 -11.83405,0.90625 -11.83405,9.748381 v 12.75181 12.75157 c 0,8.84213 1.82539,9.74838 11.83406,9.74838 z" id="path964"/>
        <path style="color:#000000;display:inline;overflow:visible;visibility:visible;opacity:0.5;fill:#234db8;fill-opacity:1;fill-rule:nonzero;stroke:none;stroke-width:0.20089284;marker:none;enable-background:accumulate" d="M 333.33398,61.5 C 323.32532,61.5 321.5,62.405916 321.5,71.248047 V 84 85.578125 c 0.0153,4.02e-4 0.0292,-7.06e-4 0.0449,0 0.0418,0.0032 0.0831,0.0049 0.125,0.0078 0.0438,0.0032 0.0862,0.007 0.13281,0.01172 l -0.004,-0.0039 c 0.27618,0.01631 0.55364,0.02547 0.83203,0.02734 l -0.002,0.002 c 0.0176,-8.04e-4 0.0336,4.02e-4 0.0508,0 0.0735,2.01e-4 0.14515,-0.0012 0.21875,-0.002 1.10701,0.02611 1.2577,0.517509 1.68945,1.580078 l 0.2168,0.583984 c 0.59586,1.654684 1.09885,1.590878 2.50195,1.246094 1.41042,-0.313495 1.89152,-0.479287 1.69141,-2.226562 l -0.0664,-0.619141 c -0.0845,-1.143823 -0.16801,-1.651488 0.8125,-2.166016 0.0663,-0.03202 0.1335,-0.06481 0.19922,-0.09766 0.0151,-0.007 0.0276,-0.01445 0.043,-0.02148 0,0 0.002,0 0.002,0 0.24811,-0.125002 0.49069,-0.257671 0.73047,-0.394532 l -0.002,0.0039 c 0.0397,-0.02482 0.0774,-0.0441 0.11523,-0.06641 0.0363,-0.02111 0.0713,-0.04307 0.10742,-0.06445 0.98002,-0.539626 1.35504,-0.187487 2.26367,0.519532 l 0.48047,0.396484 c 1.34337,1.13507 1.74829,0.828268 2.79102,-0.171875 1.06471,-0.976709 1.39655,-1.360301 0.34961,-2.773438 l -0.36524,-0.503906 c -0.69457,-1.02107 -1.02144,-1.402246 -0.22851,-2.505859 l -0.0254,0.01172 c 0.1603,-0.243433 0.31389,-0.490516 0.46094,-0.742187 v 0.02734 c 0.63727,-1.200246 1.12441,-1.077658 2.34765,-0.908203 l 0.61328,0.105468 c 1.73093,0.31132 1.92713,-0.157391 2.33008,-1.544922 0.43371,-1.378207 0.52927,-1.877787 -1.08398,-2.578124 l -0.56836,-0.251954 c -1.03675,-0.500639 -1.51757,-0.68113 -1.46875,-1.798828 0.003,-0.04182 0.005,-0.08311 0.008,-0.125 0.003,-0.04382 0.006,-0.08623 0.01,-0.132812 l -0.002,0.0039 c 0.0163,-0.275531 0.0274,-0.552342 0.0293,-0.830078 v -0.002 c -6.6e-4,-0.01682 3.8e-4,-0.03225 0,-0.04883 2e-4,-0.07347 -0.001,-0.147101 -0.002,-0.220703 0.0261,-1.107011 0.51749,-1.2577 1.58007,-1.689454 l 0.58399,-0.214843 c 1.65469,-0.595857 1.59283,-1.100806 1.24805,-2.503907 -0.3135,-1.410415 -0.48124,-1.889564 -2.22852,-1.689453 l -0.61914,0.06445 c -1.14383,0.08448 -1.65149,0.168009 -2.16602,-0.8125 -0.032,-0.06629 -0.0629,-0.131543 -0.0957,-0.197265 -0.007,-0.01512 -0.0164,-0.02759 -0.0234,-0.04297 v -0.002 C 337.03586,61.973924 336.90718,61.734876 336.77344,61.5 Z" id="path6431-6"/>
        <path style="color:#000000;display:inline;overflow:visible;visibility:visible;opacity:0.6;fill:#aee3f8;fill-opacity:1;fill-rule:nonzero;stroke:none;stroke-width:0.20089284;marker:none;enable-background:accumulate" d="m 352.84046,74.98062 c -1.84927,-0.02057 -2.49627,0.04793 -2.75639,2.283979 l -0.0989,0.79023 c -0.22825,1.450225 -0.27154,2.107144 -1.64363,2.462506 -0.0919,0.02052 -0.18435,0.04139 -0.27584,0.06317 -0.0216,0.0045 -0.0406,0.009 -0.0628,0.01334 l 0.003,0.0012 c -0.34641,0.08357 -0.68895,0.176545 -1.0284,0.277405 l 0.004,-0.0043 c -0.0567,0.01939 -0.10835,0.03503 -0.16204,0.05179 -0.0514,0.01571 -0.10299,0.0306 -0.15421,0.04669 -1.37879,0.386783 -1.74338,-0.160047 -2.66967,-1.306195 l -0.48183,-0.635245 c -0.67165,-0.903212 -1.15533,-1.288649 -1.67071,-1.330523 -0.0644,-0.0053 -0.12996,-0.0052 -0.19579,0 -0.46077,0.03615 -0.96591,0.319058 -1.66208,0.731376 -1.61179,0.906827 -2.13735,1.289001 -1.24459,3.355537 l 0.3088,0.734123 c 0.56789,1.475158 0.86317,2.045715 -0.44691,3.189957 l 0.0349,-0.0079 c -0.27078,0.256656 -0.53435,0.520632 -0.79102,0.791407 l 0.007,-0.03492 c -1.14425,1.31008 -1.7148,1.014806 -3.18996,0.446908 l -0.73412,-0.30958 c -0.6458,-0.278988 -1.12675,-0.419189 -1.51102,-0.431212 -0.84537,-0.02645 -1.22069,0.568088 -1.84413,1.676199 -0.94245,1.591236 -1.20728,2.185666 0.59915,3.528963 l 0.63485,0.481438 c 1.14615,0.926299 1.69298,1.291279 1.3062,2.670068 -0.0161,0.05122 -0.031,0.10243 -0.0467,0.15381 -0.0168,0.05369 -0.0316,0.105356 -0.051,0.162048 l 0.004,-0.0031 c -0.10086,0.339453 -0.19384,0.681991 -0.27741,1.028399 l -4e-4,-0.0028 c -0.004,0.02218 -0.01,0.04115 -0.0141,0.06278 -0.0218,0.09149 -0.0426,0.183102 -0.0632,0.275051 -0.35535,1.37209 -1.01149,1.416168 -2.46172,1.644418 l -0.79023,0.09888 c -2.23605,0.260118 -2.30454,0.907118 -2.28398,2.756383 -0.0206,1.84928 0.0479,2.49589 2.28398,2.756 l 0.79023,0.0993 c 1.45023,0.22825 2.10637,0.27193 2.46172,1.64403 0.0205,0.0919 0.0414,0.18356 0.0632,0.27505 0.004,0.0216 0.01,0.041 0.0141,0.0632 l 4e-4,-0.003 c 0.079,0.32727 0.16686,0.65122 0.26132,0.97229 h 5.92829 a 15.08572,15.085716 0 0 1 -1.1775,-5.80707 15.08572,15.085716 0 0 1 15.0858,-15.085793 15.08572,15.085716 0 0 1 13.65954,8.723143 v -9.221452 c -0.5466,-0.713234 -0.37328,-1.279028 0,-2.249843 V 78.9047 c -0.22667,-0.150674 -0.49456,-0.305054 -0.80318,-0.47869 -0.79562,-0.471224 -1.34248,-0.773248 -1.85787,-0.731376 -0.51538,0.04188 -0.99945,0.427311 -1.6711,1.330523 l -0.48183,0.634852 c -0.92629,1.146149 -1.29088,1.693367 -2.66967,1.306588 -0.0512,-0.01611 -0.10283,-0.03098 -0.1542,-0.04669 -0.0537,-0.01676 -0.10536,-0.03162 -0.16205,-0.05101 l 0.004,0.0035 c -0.33946,-0.100852 -0.68237,-0.193838 -1.02879,-0.277405 l 0.003,-4.02e-4 c -0.0222,-0.0044 -0.0412,-0.0097 -0.0628,-0.01412 -0.0915,-0.02176 -0.1835,-0.04262 -0.27545,-0.06317 -1.37209,-0.35536 -1.41576,-1.011887 -1.64402,-2.462115 l -0.0989,-0.789838 c -0.26008,-2.236174 -0.90712,-2.305321 -2.75639,-2.284758 z" id="rect4158-0-7"/>
        <path style="color:#000000;display:inline;overflow:visible;visibility:visible;opacity:0.4;fill:none;fill-opacity:1;fill-rule:nonzero;stroke:#000000;stroke-width:1;stroke-miterlimit:4;stroke-dasharray:none;stroke-opacity:1;marker:none;enable-background:accumulate" d="m 333.33517,61.500047 c -10.01116,0 -11.88667,0.90635 -11.83407,9.74838 V 84 96.75181 c -0.0527,8.84203 1.82291,9.74838 11.83407,9.74838 h 21.3308 c 10.00866,0 11.83405,-0.90625 11.83405,-9.74838 V 84 71.248427 c 0,-8.84213 -1.82539,-9.74838 -11.83406,-9.74838 z" id="path958"/>
        <path style="color:#000000;display:inline;overflow:visible;visibility:visible;opacity:0.7;fill:url(#linearGradient1686-0);fill-opacity:1;fill-rule:nonzero;stroke:none;stroke-width:1;marker:none;enable-background:accumulate" d="m 333.33594,62 c -4.99049,0 -7.87051,0.276282 -9.38477,1.453125 -0.75713,0.588421 -1.23761,1.403518 -1.54492,2.660156 -0.3073,1.256638 -0.4173,2.940031 -0.4043,5.132813 V 84 96.753906 c -0.0131,2.19278 0.097,3.876174 0.4043,5.132814 0.30731,1.25663 0.78779,2.07172 1.54492,2.66016 1.51427,1.17683 4.39428,1.45312 9.38477,1.45312 h 21.33008 c 4.98923,0 7.85502,-0.27668 9.36328,-1.45312 0.75412,-0.58824 1.23293,-1.40461 1.54297,-2.66211 C 365.8823,100.62727 366,98.945281 366,96.751953 V 84 71.248047 c 0,-2.193329 -0.1177,-3.875313 -0.42773,-5.132813 -0.31004,-1.257499 -0.78884,-2.073874 -1.54297,-2.662109 C 362.52104,62.276656 359.65526,62 354.66602,62 Z m 2.40234,1.097656 c 6.94737,8.3e-4 13.91063,0.0034 20.84961,0.05469 2.14296,0.08293 4.46431,-0.147701 6.42383,0.93164 1.29609,0.695228 1.54862,2.250325 1.76953,3.564454 0.17551,2.202888 0.0915,4.442228 0.13867,6.669921 0.0227,8.479532 0.077,16.968993 -0.0801,25.447266 -0.16151,1.483233 -0.38135,3.305793 -1.79882,4.142573 -1.6055,0.82871 -3.47551,0.90643 -5.24805,0.95313 -9.49974,0.0678 -19.0243,0.0843 -28.52344,-0.0176 -1.57816,-0.11413 -3.27053,-0.24014 -4.63281,-1.12109 -1.22952,-0.99538 -1.36082,-2.72739 -1.50391,-4.193361 -0.1272,-8.998585 -0.0836,-18.004484 -0.0527,-27.007813 0.0997,-2.381275 -0.24538,-4.900002 0.70508,-7.160156 0.67165,-1.50972 2.46573,-1.859954 3.93945,-2.05664 2.66168,-0.316582 5.34184,-0.147022 8.01367,-0.207032 z" id="path964-3"/>
      </g>
    </g>
  </g>
</svg>