<svg width="32" height="32" version="1.1" xmlns="http://www.w3.org/2000/svg" xmlns:xlink="http://www.w3.org/1999/xlink">
 <defs>
  <linearGradient id="linearGradient924" x1="459.03" x2="35.31" y1="419.23" y2="207.37" gradientTransform="matrix(0 -.072088 -.072086 0 39.129 33.818)" gradientUnits="userSpaceOnUse">
   <stop stop-color="#76c22b" offset="0"/>
   <stop stop-color="#a6d74f" offset="1"/>
  </linearGradient>
  <linearGradient id="linearGradient969" x1="336" x2="336" y1="134" y2="162" gradientUnits="userSpaceOnUse">
   <stop stop-color="#fff" offset="0"/>
   <stop stop-color="#fff" stop-opacity=".098039" offset=".125"/>
   <stop stop-color="#fff" stop-opacity=".098039" offset=".925"/>
   <stop stop-color="#fff" stop-opacity=".49804" offset="1"/>
  </linearGradient>
  <clipPath id="clipPath959">
   <path d="m330.19 134c-5.6154 0-6.2196 0.57678-6.1921 6.2035v7.7965 7.7965c-0.0276 5.6267 0.57668 6.2035 6.1921 6.2035h11.615c5.6154 0 6.1921-0.5767 6.1921-6.2035v-7.7965-7.7965c0-5.6268-0.5767-6.2035-6.1921-6.2035z" color="#000000" fill="#46a926"/>
  </clipPath>
 </defs>
 <path d="m10.193 2c-1.421 0-2.5488 0.0308-3.5059 0.19141-0.95703 0.16064-1.7915 0.4726-2.4121 1.0918s-0.93647 1.4561-1.0957 2.4141c-0.15924 0.95795-0.18666 2.087-0.17969 3.5117v7.791 7.7969c-7e-3 1.4213 0.0207 2.5495 0.17969 3.5058 0.15923 0.95796 0.47505 1.7949 1.0957 2.4141s1.4551 0.93115 2.4121 1.0918c0.95703 0.16065 2.0849 0.19141 3.5059 0.19141h11.615c1.421 0 2.5467-0.0307 3.502-0.19141 0.95527-0.16075 1.7878-0.47425 2.4062-1.0938 0.61845-0.6195 0.93134-1.4536 1.0918-2.4102 0.16046-0.95653 0.19141-2.084 0.19141-3.5078v-7.7969-7.7969c0-1.4238-0.031-2.5513-0.19141-3.5078-0.16045-0.95653-0.47334-1.7906-1.0918-2.4102-0.61846-0.61951-1.451-0.933-2.4062-1.0938-0.95527-0.16076-2.081-0.19141-3.502-0.19141z" color="#000000" color-rendering="auto" dominant-baseline="auto" image-rendering="auto" opacity=".1" shape-rendering="auto" solid-color="#000000" style="font-feature-settings:normal;font-variant-alternates:normal;font-variant-caps:normal;font-variant-ligatures:normal;font-variant-numeric:normal;font-variant-position:normal;isolation:auto;mix-blend-mode:normal;shape-padding:0;text-decoration-color:#000000;text-decoration-line:none;text-decoration-style:solid;text-indent:0;text-orientation:mixed;text-transform:none;white-space:normal"/>
 <path d="m21.806 1.5c1.4124 0 2.5224 0.0342 3.4238 0.18555 0.90145 0.15132 1.6199 0.43164 2.1426 0.95312 0.5227 0.52148 0.80325 1.239 0.95312 2.1406 0.14988 0.90164 0.18075 2.0101 0.17383 3.4258v7.7949 7.7969c7e-3 1.4145-0.024 2.5227-0.17383 3.4238-0.14987 0.90165-0.43041 1.6192-0.95312 2.1406-0.52272 0.52148-1.2411 0.8018-2.1426 0.95312s-2.0114 0.18555-3.4238 0.18555h-11.615c-1.4124 0-2.5185-0.0342-3.418-0.18555-0.8995-0.15137-1.616-0.43149-2.1367-0.95312s-0.80004-1.2377-0.95117-2.1387c-0.15113-0.90094-0.18555-2.0106-0.18555-3.4258v-7.7969-7.7969c0-1.4152 0.0344-2.5248 0.18555-3.4258 0.15113-0.90093 0.43042-1.617 0.95117-2.1387 0.52075-0.52163 1.2372-0.80175 2.1367-0.95312s2.0056-0.18555 3.418-0.18555z" color="#000000" fill="url(#linearGradient924)"/>
 <path d="m14 12v4.5c0 0.277 0.223 0.5 0.5 0.5h3c0.277 0 0.5-0.223 0.5-0.5v-4.5zm1 2h2v2h-2z" color="#000000" opacity=".2"/>
 <path d="m16 3h-2v2h2zm0 2v2h2v-2zm0 2h-2v2h2zm0 2v2h2v-2z" color="#000000" opacity=".2"/>
 <path d="m14 11v4.5c0 0.277 0.223 0.5 0.5 0.5h3c0.277 0 0.5-0.223 0.5-0.5v-4.5zm1 2h2v2h-2z" color="#000000" fill="#fff"/>
 <path d="m16 2h-2v2h2zm0 2v2h2v-2zm0 2h-2v2h2zm0 2v2h2v-2z" color="#000000" fill="#fff"/>
 <path d="m20.707 19.547 1.7333-1.7333c0.26667-0.26666 0.26667-0.68 0-0.94666-0.26667-0.26667-0.68-0.26667-0.94667 0l-1.9733 1.9733c-1.0533-0.53333-2.2533-0.84-3.52-0.84-1.28 0-2.48 0.30667-3.5467 0.84l-1.9867-1.9733c-0.26667-0.26667-0.68-0.26667-0.94667 0-0.26667 0.26666-0.26667 0.68 0 0.94666l1.7467 1.7467c-1.9733 1.4533-3.2667 3.7867-3.2667 6.44h16c0-2.6533-1.2933-5-3.2933-6.4533zm-7.3733 3.7867h-1.3333v-1.3333h1.3333zm6.6667 0h-1.3333v-1.3333h1.3333z" enable-background="new" fill="#0c2809" opacity=".5" stroke-width="1.3333"/>
 <path d="m4 16v7.7969c-0.0276 5.6267 0.57798 6.2031 6.1934 6.2031h11.615c5.6154 0 6.1914-0.57631 6.1914-6.2031v-7.7969z" color="#000000" fill="#fff" opacity=".08"/>
 <path d="m16 2v28h5.8086c5.6154 0 6.1914-0.57631 6.1914-6.2031v-7.7969-7.7969c0-5.6268-0.57603-6.2031-6.1914-6.2031z" color="#000000" fill="#fff" opacity=".08"/>
 <path d="m10.193 1.5c-1.4124 0-2.5224 0.0342-3.4238 0.18555-0.90145 0.15132-1.6199 0.43164-2.1426 0.95312-0.5227 0.52148-0.80325 1.239-0.95312 2.1406-0.14988 0.90164-0.18075 2.0101-0.17383 3.4258v7.7949 7.7969c-7e-3 1.4145 0.024 2.5227 0.17383 3.4238 0.14987 0.90165 0.43041 1.6192 0.95312 2.1406 0.52272 0.52148 1.2411 0.8018 2.1426 0.95312s2.0114 0.18555 3.4238 0.18555h11.615c1.4124 0 2.5185-0.0342 3.418-0.18555 0.8995-0.15137 1.616-0.43149 2.1367-0.95312s0.80004-1.2377 0.95117-2.1387c0.15113-0.90094 0.18555-2.0106 0.18555-3.4258v-7.7969-7.7969c0-1.4152-0.0344-2.5248-0.18555-3.4258-0.15113-0.90093-0.43042-1.617-0.95117-2.1387-0.52075-0.52163-1.2372-0.80175-2.1367-0.95312s-2.0056-0.18555-3.418-0.18555z" color="#000000" fill="none" opacity=".4" stroke="#000"/>
 <path transform="translate(-320,-132)" d="m330.19 134c-5.6154 0-6.2196 0.57678-6.1921 6.2035v7.7965 7.7965c-0.0276 5.6267 0.57668 6.2035 6.1921 6.2035h11.615c5.6154 0 6.1921-0.5767 6.1921-6.2035v-7.7965-7.7965c0-5.6268-0.5767-6.2035-6.1921-6.2035z" clip-path="url(#clipPath959)" color="#000000" fill="none" opacity=".4" stroke="url(#linearGradient969)" stroke-width="2"/>
</svg>
