<svg xmlns:dc="http://purl.org/dc/elements/1.1/" xmlns:cc="http://creativecommons.org/ns#" xmlns:rdf="http://www.w3.org/1999/02/22-rdf-syntax-ns#" xmlns:svg="http://www.w3.org/2000/svg" xmlns="http://www.w3.org/2000/svg" xmlns:xlink="http://www.w3.org/1999/xlink" style="display:inline;enable-background:new" version="1.0" id="svg11300" height="32" width="32">
  <title id="title3004">Suru Icon Theme Template</title>
  <defs id="defs3">
    <linearGradient y2="207.36522" x2="35.310345" y1="419.23337" x1="459.03448" gradientTransform="matrix(0,-0.07208805,0.07208601,0,312.87045,165.81816)" gradientUnits="userSpaceOnUse" id="linearGradient924" xlink:href="#linearGradient4338"/>
    <linearGradient id="linearGradient4338">
      <stop id="stop4340" offset="0" style="stop-color:#f2f2f2;stop-opacity:1"/>
      <stop id="stop4342" offset="1" style="stop-color:#f9f9f9;stop-opacity:1"/>
    </linearGradient>
    <linearGradient gradientUnits="userSpaceOnUse" y2="162" x2="336" y1="134" x1="336" id="linearGradient969" xlink:href="#linearGradient927"/>
    <linearGradient id="linearGradient927">
      <stop id="stop923" offset="0" style="stop-color:#ffffff;stop-opacity:1;"/>
      <stop style="stop-color:#ffffff;stop-opacity:0.09803922" offset="0.125" id="stop933"/>
      <stop style="stop-color:#ffffff;stop-opacity:0.09803922" offset="0.92500001" id="stop931"/>
      <stop id="stop925" offset="1" style="stop-color:#ffffff;stop-opacity:0.49803922"/>
    </linearGradient>
  </defs>
  <metadata id="metadata4">
    <rdf:RDF>
      <cc:Work rdf:about="">
        <dc:format>image/svg+xml</dc:format>
        <dc:type rdf:resource="http://purl.org/dc/dcmitype/StillImage"/>
        <dc:creator>
          <cc:Agent>
            <dc:title>Sam Hewitt</dc:title>
          </cc:Agent>
        </dc:creator>
        <dc:source/>
        <cc:license rdf:resource="http://creativecommons.org/licenses/by-sa/4.0/"/>
        <dc:title>Suru Icon Theme Template</dc:title>
        <dc:subject>
          <rdf:Bag/>
        </dc:subject>
        <dc:date/>
        <dc:rights>
          <cc:Agent>
            <dc:title/>
          </cc:Agent>
        </dc:rights>
        <dc:publisher>
          <cc:Agent>
            <dc:title/>
          </cc:Agent>
        </dc:publisher>
        <dc:identifier/>
        <dc:relation/>
        <dc:language/>
        <dc:coverage/>
        <dc:description/>
        <dc:contributor>
          <cc:Agent>
            <dc:title/>
          </cc:Agent>
        </dc:contributor>
      </cc:Work>
      <cc:Work rdf:about="">
        <dc:format>image/svg+xml</dc:format>
        <dc:type rdf:resource="http://purl.org/dc/dcmitype/StillImage"/>
      </cc:Work>
      <cc:License rdf:about="http://creativecommons.org/licenses/by-sa/4.0/">
        <cc:permits rdf:resource="http://creativecommons.org/ns#Reproduction"/>
        <cc:permits rdf:resource="http://creativecommons.org/ns#Distribution"/>
        <cc:requires rdf:resource="http://creativecommons.org/ns#Notice"/>
        <cc:requires rdf:resource="http://creativecommons.org/ns#Attribution"/>
        <cc:permits rdf:resource="http://creativecommons.org/ns#DerivativeWorks"/>
        <cc:requires rdf:resource="http://creativecommons.org/ns#ShareAlike"/>
      </cc:License>
    </rdf:RDF>
  </metadata>
  <g transform="translate(-139,-145)" id="layer1" style="display:inline">
    <g id="layer7" style="display:inline"/>
    <g style="display:inline" id="layer4"/>
    <g style="display:inline" id="layer2"/>
    <g style="display:inline" id="layer6"/>
    <g style="display:inline" id="layer3"/>
    <g style="display:inline" id="layer5"/>
    <g style="display:inline" id="layer9">
      <g id="g6990" style="display:inline;enable-background:new" transform="translate(-181,13)">
        <rect style="display:inline;overflow:visible;visibility:visible;opacity:0;fill:#cdcdcd;fill-opacity:1;fill-rule:nonzero;stroke:none;stroke-width:2;marker:none;enable-background:accumulate" id="rect32x32" width="32" height="32" x="320" y="132"/>
        <path style="color:#000000;font-style:normal;font-variant:normal;font-weight:normal;font-stretch:normal;font-size:medium;line-height:normal;font-family:sans-serif;font-variant-ligatures:normal;font-variant-position:normal;font-variant-caps:normal;font-variant-numeric:normal;font-variant-alternates:normal;font-feature-settings:normal;text-indent:0;text-align:start;text-decoration:none;text-decoration-line:none;text-decoration-style:solid;text-decoration-color:#000000;letter-spacing:normal;word-spacing:normal;text-transform:none;writing-mode:lr-tb;direction:ltr;text-orientation:mixed;dominant-baseline:auto;baseline-shift:baseline;text-anchor:start;white-space:normal;shape-padding:0;clip-rule:nonzero;display:inline;overflow:visible;visibility:visible;opacity:0.1;isolation:auto;mix-blend-mode:normal;color-interpolation:sRGB;color-interpolation-filters:linearRGB;solid-color:#000000;solid-opacity:1;vector-effect:none;fill:#000000;fill-opacity:1;fill-rule:nonzero;stroke:none;stroke-width:2;stroke-linecap:butt;stroke-linejoin:miter;stroke-miterlimit:4;stroke-dasharray:none;stroke-dashoffset:0;stroke-opacity:1;marker:none;color-rendering:auto;image-rendering:auto;shape-rendering:auto;text-rendering:auto;enable-background:accumulate" d="m 330.19336,134 c -1.42096,0 -2.54883,0.0308 -3.50586,0.19141 -0.95703,0.16064 -1.79146,0.4726 -2.41211,1.09179 -0.62065,0.61919 -0.93647,1.45612 -1.0957,2.41407 -0.15924,0.95795 -0.18666,2.08705 -0.17969,3.51171 V 149 v 7.79688 c -0.007,1.42131 0.0207,2.5495 0.17969,3.50585 0.15923,0.95796 0.47505,1.79488 1.0957,2.41407 0.62065,0.61919 1.45508,0.93115 2.41211,1.09179 0.95703,0.16065 2.0849,0.19141 3.50586,0.19141 h 11.61523 c 1.42097,0 2.54669,-0.0307 3.50196,-0.19141 0.95527,-0.16075 1.78779,-0.47425 2.40625,-1.09375 0.61845,-0.6195 0.93134,-1.45363 1.09179,-2.41015 C 348.96905,159.34816 349,158.22066 349,156.79688 V 149 141 l -7,-7 z" id="path999"/>
        <path style="color:#000000;display:inline;overflow:visible;visibility:visible;opacity:0.2;fill:none;fill-opacity:1;fill-rule:nonzero;stroke:#000000;stroke-width:2;stroke-miterlimit:4;stroke-dasharray:none;stroke-opacity:1;marker:none;enable-background:accumulate" d="m 330.1929,133.99999 c -5.61538,0 -6.21958,0.57678 -6.19206,6.20352 v 7.79648 7.79648 c -0.0276,5.62673 0.57668,6.20351 6.19206,6.20351 h 11.615 c 5.6154,0 6.19208,-0.5767 6.19208,-6.20351 v -7.79648 -7.79648 l -6.19208,-6.20352 z" id="path930"/>
        <path id="path922" d="m 330.1929,133.99999 c -5.61538,0 -6.21958,0.57678 -6.19206,6.20352 v 7.79648 7.79648 c -0.0276,5.62673 0.57668,6.20351 6.19206,6.20351 h 11.615 c 5.6154,0 6.19208,-0.5767 6.19208,-6.20351 v -7.79648 L 348,140 l -6,-6 z" style="color:#000000;display:inline;overflow:visible;visibility:visible;fill:url(#linearGradient924);fill-opacity:1;fill-rule:nonzero;stroke:none;stroke-width:0.99999994;marker:none;enable-background:accumulate"/>
        <path style="clip-rule:evenodd;display:inline;fill:#dd4f37;fill-opacity:1;fill-rule:evenodd;stroke-width:3.83576155;enable-background:new" d="m 338.1248,140.00002 c 0.83813,3.3019 -2.95635,4.29917 -4.32584,6.35553 -0.93259,1.40106 0.45778,2.9066 2.35335,4.6167 -0.73919,-1.671 -3.24605,-3.13269 7.2e-4,-5.69739 4.04906,-3.19593 1.97143,-5.27484 1.97143,-5.27484 z m 2.50506,4.08517 c 4e-5,0 -6.84667,1.70954 -3.57684,5.47748 0.96527,1.11117 -0.25321,2.11027 -0.25321,2.11027 0,0 2.44955,-1.26425 1.32481,-2.84827 -1.05086,-1.4765 -1.85641,-2.21 2.50524,-4.73948 z m 1.2125,6.73046 c -0.24057,7.1e-4 -0.496,0.0426 -0.75806,0.13461 -0.2101,0.0745 -0.32034,0.24729 -0.32034,0.24729 0,0 0.13282,-0.0534 0.42899,-0.11527 1.21109,-0.25236 2.94637,1.62128 -0.80619,3.57074 -0.0174,0.0465 -0.075,0.0985 -0.075,0.0985 4.46276,-1.17318 3.48949,-3.93955 1.53059,-3.9359 z m -8.04043,0.19026 c -0.29397,-0.007 -1.56478,0.0121 -3.08333,0.74671 -2.05308,0.99272 5.07744,1.44497 8.76919,0.47398 0.38381,-0.26192 0.91397,-0.48933 0.91397,-0.48933 0,0 -1.50993,0.26995 -3.01444,0.39622 -1.84146,0.15448 -3.8168,0.18498 -4.80836,0.0524 -2.34764,-0.31386 1.28697,-1.17728 1.28697,-1.17728 0,0 -0.022,-0.002 -0.064,-0.003 z m -0.78229,2.27136 c -3.38673,1.12403 1.88532,2.39965 6.61864,1.01512 -0.50289,-0.17728 -0.82222,-0.50172 -0.82222,-0.50172 -2.31428,0.44539 -3.65104,0.43117 -5.34424,0.25636 -1.30906,-0.13529 -0.45218,-0.76976 -0.45218,-0.76976 z m 0.47868,2.18943 c -3.07517,0.85924 1.87099,2.63407 5.78649,0.95652 -0.64129,-0.24922 -1.10125,-0.53695 -1.10125,-0.53695 -1.74608,0.33006 -2.55603,0.35606 -4.14098,0.17509 -1.30807,-0.15002 -0.54426,-0.59466 -0.54426,-0.59466 z m -2.13588,1.45159 c -1.38098,0.0426 -4.08169,1.28428 -1.61186,1.68511 7.98263,1.29391 14.55117,-0.58282 12.48084,-1.517 0,0 0.56554,0.46627 -0.62273,0.82677 -2.25951,0.6844 -9.40613,0.89082 -11.3911,0.0274 -0.71305,-0.31058 0.6247,-0.74108 1.04562,-0.83199 0.43888,-0.095 0.68953,-0.0776 0.68953,-0.0776 -0.124,-0.0874 -0.33458,-0.12055 -0.5903,-0.11266 z m 12.13625,1.18671 c 0,0 -0.25162,0.64603 -2.97643,1.15863 -3.07401,0.57874 -6.8663,0.51125 -9.11465,0.14004 0,0 0.46053,0.38128 2.82733,0.5336 3.6012,0.23024 9.13283,-0.12809 9.26375,-1.83227 z" id="path1123"/>
        <path style="color:#000000;display:inline;overflow:visible;visibility:visible;opacity:0.2;fill:#ffffff;fill-opacity:1;fill-rule:nonzero;stroke:none;stroke-width:0.99999994;marker:none;enable-background:accumulate" d="m 324,148 v 7.79688 C 323.9724,161.42361 324.57798,162 330.19336,162 h 11.61523 C 347.42399,162 348,161.42369 348,155.79688 V 148 Z" id="path1011"/>
        <path style="color:#000000;display:inline;overflow:visible;visibility:visible;opacity:0.2;fill:#ffffff;fill-opacity:1;fill-rule:nonzero;stroke:none;stroke-width:0.99999994;marker:none;enable-background:accumulate" d="m 336,134 v 28 h 5.80859 C 347.42399,162 348,161.42369 348,155.79688 V 148 140 l -6,-6 z" id="path1018"/>
        <path style="color:#000000;font-style:normal;font-variant:normal;font-weight:normal;font-stretch:normal;font-size:medium;line-height:normal;font-family:sans-serif;font-variant-ligatures:normal;font-variant-position:normal;font-variant-caps:normal;font-variant-numeric:normal;font-variant-alternates:normal;font-feature-settings:normal;text-indent:0;text-align:start;text-decoration:none;text-decoration-line:none;text-decoration-style:solid;text-decoration-color:#000000;letter-spacing:normal;word-spacing:normal;text-transform:none;writing-mode:lr-tb;direction:ltr;text-orientation:mixed;dominant-baseline:auto;baseline-shift:baseline;text-anchor:start;white-space:normal;shape-padding:0;clip-rule:nonzero;display:inline;overflow:visible;visibility:visible;opacity:0.4;isolation:auto;mix-blend-mode:normal;color-interpolation:sRGB;color-interpolation-filters:linearRGB;solid-color:#000000;solid-opacity:1;vector-effect:none;fill:url(#linearGradient969);fill-opacity:1;fill-rule:nonzero;stroke:none;stroke-width:2;stroke-linecap:butt;stroke-linejoin:miter;stroke-miterlimit:4;stroke-dasharray:none;stroke-dashoffset:0;stroke-opacity:1;marker:none;color-rendering:auto;image-rendering:auto;shape-rendering:auto;text-rendering:auto;enable-background:accumulate" clip-path="none" d="m 330.19336,134 c -5.61538,0 -6.22088,0.57638 -6.19336,6.20312 V 148 155.79688 C 323.9724,161.42361 324.57798,162 330.19336,162 h 11.61523 C 347.42399,162 348,161.42369 348,155.79688 V 148 140.20312 L 341.80859,134 Z m 0,1 h 11.61523 L 347,140.20312 V 148 v 7.79688 c 0,1.38962 -0.0409,2.44358 -0.16406,3.17773 -0.12315,0.73414 -0.30557,1.1001 -0.53321,1.32812 -0.22764,0.22803 -0.59203,0.40999 -1.32421,0.53321 C 344.24633,160.95915 343.19533,161 341.80859,161 h -11.61523 c -1.38673,0 -2.44105,-0.0407 -3.17578,-0.16406 -0.73474,-0.12334 -1.10119,-0.30681 -1.33008,-0.53516 -0.22889,-0.22835 -0.41141,-0.59346 -0.5332,-1.32617 -0.12179,-0.73271 -0.16111,-1.78513 -0.1543,-3.17383 v -0.002 V 148 v -7.79883 -0.002 c -0.007,-1.38871 0.0325,-2.44307 0.1543,-3.17578 0.12179,-0.73272 0.30431,-1.09587 0.5332,-1.32422 0.22889,-0.22835 0.59535,-0.41182 1.33008,-0.53516 C 327.75231,135.04078 328.80663,135 330.19336,135 Z" id="path939"/>
        <path style="color:#000000;display:inline;overflow:visible;visibility:visible;opacity:0.2;fill:#000000;fill-opacity:1;fill-rule:nonzero;stroke:none;stroke-width:0.25002289;marker:none;enable-background:accumulate" d="m 348,141 v -1 l -6,-6 h -1 v 2.67849 0.10263 0.0551 c 0,3.62217 0.48488,4.1807 4.11536,4.16294 z" id="rect4158-0-3-62-2-3"/>
        <path style="color:#000000;display:inline;overflow:visible;visibility:visible;fill:#faf8f6;fill-opacity:1;fill-rule:nonzero;stroke:none;stroke-width:0.25002289;marker:none;enable-background:accumulate" d="m 348,139.99922 -6,-5.99923 v 2.22536 0.0968 0.0519 c 0,3.41519 0.15739,3.64187 3.58042,3.62513 z" id="rect4158-0-3-62-6"/>
      </g>
    </g>
  </g>
</svg>