<svg xmlns:dc="http://purl.org/dc/elements/1.1/" xmlns:cc="http://creativecommons.org/ns#" xmlns:rdf="http://www.w3.org/1999/02/22-rdf-syntax-ns#" xmlns:svg="http://www.w3.org/2000/svg" xmlns="http://www.w3.org/2000/svg" xmlns:xlink="http://www.w3.org/1999/xlink" width="32" height="32" id="svg11300" version="1.0" style="display:inline;enable-background:new">
  <title id="title3004">Suru Icon Theme Template</title>
  <defs id="defs3">
    <linearGradient xlink:href="#linearGradient927" id="linearGradient969" x1="336" y1="134" x2="336" y2="162" gradientUnits="userSpaceOnUse"/>
    <linearGradient id="linearGradient927">
      <stop style="stop-color:#ffffff;stop-opacity:1;" offset="0" id="stop923"/>
      <stop id="stop933" offset="0.125" style="stop-color:#ffffff;stop-opacity:0.09803922"/>
      <stop id="stop931" offset="0.92500001" style="stop-color:#ffffff;stop-opacity:0.09803922"/>
      <stop style="stop-color:#ffffff;stop-opacity:0.49803922" offset="1" id="stop925"/>
    </linearGradient>
    <clipPath clipPathUnits="userSpaceOnUse" id="clipPath959-3">
      <path style="color:#000000;display:inline;overflow:visible;visibility:visible;opacity:1;fill:#46a926;fill-opacity:1;fill-rule:nonzero;stroke:none;stroke-width:2;stroke-miterlimit:4;stroke-dasharray:none;stroke-opacity:1;marker:none;enable-background:accumulate" d="m 330.1929,133.99999 c -5.61538,0 -6.21958,0.57678 -6.19206,6.20352 v 7.79648 7.79648 c -0.0276,5.62673 0.57668,6.20351 6.19206,6.20351 h 11.615 c 5.6154,0 6.19208,-0.5767 6.19208,-6.20351 v -7.79648 -7.79648 c 0,-5.6268 -0.5767,-6.20352 -6.19208,-6.20352 z" id="path961-6"/>
    </clipPath>
  </defs>
  <metadata id="metadata4">
    <rdf:RDF>
      <cc:Work rdf:about="">
        <dc:format>image/svg+xml</dc:format>
        <dc:type rdf:resource="http://purl.org/dc/dcmitype/StillImage"/>
        <dc:creator>
          <cc:Agent>
            <dc:title>Sam Hewitt</dc:title>
          </cc:Agent>
        </dc:creator>
        <dc:source/>
        <cc:license rdf:resource="http://creativecommons.org/licenses/by-sa/4.0/"/>
        <dc:title>Suru Icon Theme Template</dc:title>
        <dc:subject>
          <rdf:Bag/>
        </dc:subject>
        <dc:date/>
        <dc:rights>
          <cc:Agent>
            <dc:title/>
          </cc:Agent>
        </dc:rights>
        <dc:publisher>
          <cc:Agent>
            <dc:title/>
          </cc:Agent>
        </dc:publisher>
        <dc:identifier/>
        <dc:relation/>
        <dc:language/>
        <dc:coverage/>
        <dc:description/>
        <dc:contributor>
          <cc:Agent>
            <dc:title/>
          </cc:Agent>
        </dc:contributor>
      </cc:Work>
      <cc:Work rdf:about="">
        <dc:format>image/svg+xml</dc:format>
        <dc:type rdf:resource="http://purl.org/dc/dcmitype/StillImage"/>
      </cc:Work>
      <cc:License rdf:about="http://creativecommons.org/licenses/by-sa/4.0/">
        <cc:permits rdf:resource="http://creativecommons.org/ns#Reproduction"/>
        <cc:permits rdf:resource="http://creativecommons.org/ns#Distribution"/>
        <cc:requires rdf:resource="http://creativecommons.org/ns#Notice"/>
        <cc:requires rdf:resource="http://creativecommons.org/ns#Attribution"/>
        <cc:permits rdf:resource="http://creativecommons.org/ns#DerivativeWorks"/>
        <cc:requires rdf:resource="http://creativecommons.org/ns#ShareAlike"/>
      </cc:License>
    </rdf:RDF>
  </metadata>
  <g transform="translate(-271.5,-206.5)" style="display:inline" id="layer1">
    <g style="display:inline" id="layer7"/>
    <g id="layer4" style="display:inline"/>
    <g id="layer2" style="display:inline"/>
    <g id="layer3" style="display:inline"/>
    <g id="layer6" style="display:inline"/>
    <g id="layer9" style="display:inline"/>
    <g id="layer5" style="display:inline">
      <g id="g2930" style="display:inline;enable-background:new" transform="translate(-48.5,74.5)">
        <rect y="132" x="320" height="32" width="32" id="rect32x32" style="display:inline;overflow:visible;visibility:visible;opacity:0;fill:#cdcdcd;fill-opacity:1;fill-rule:nonzero;stroke:none;stroke-width:2;marker:none;enable-background:accumulate"/>
        <path id="path999" d="m 330.19336,134 c -1.42096,0 -2.54883,0.0308 -3.50586,0.19141 -0.95703,0.16064 -1.79146,0.4726 -2.41211,1.09179 -0.62065,0.61919 -0.93647,1.45612 -1.0957,2.41407 -0.15924,0.95795 -0.18666,2.08705 -0.17969,3.51171 V 149 v 7.79688 c -0.007,1.42131 0.0207,2.5495 0.17969,3.50585 0.15923,0.95796 0.47505,1.79488 1.0957,2.41407 0.62065,0.61919 1.45508,0.93115 2.41211,1.09179 0.95703,0.16065 2.0849,0.19141 3.50586,0.19141 h 11.61523 c 1.42097,0 2.54669,-0.0307 3.50196,-0.19141 0.95527,-0.16075 1.78779,-0.47425 2.40625,-1.09375 0.61845,-0.6195 0.93134,-1.45363 1.09179,-2.41015 C 348.96905,159.34816 349,158.22066 349,156.79688 V 149 141.20312 c 0,-1.42378 -0.031,-2.55128 -0.19141,-3.50781 -0.16045,-0.95653 -0.47334,-1.79065 -1.09179,-2.41015 -0.61846,-0.61951 -1.45098,-0.933 -2.40625,-1.09375 C 344.35528,134.03065 343.22956,134 341.80859,134 Z" style="color:#000000;font-style:normal;font-variant:normal;font-weight:normal;font-stretch:normal;font-size:medium;line-height:normal;font-family:sans-serif;font-variant-ligatures:normal;font-variant-position:normal;font-variant-caps:normal;font-variant-numeric:normal;font-variant-alternates:normal;font-feature-settings:normal;text-indent:0;text-align:start;text-decoration:none;text-decoration-line:none;text-decoration-style:solid;text-decoration-color:#000000;letter-spacing:normal;word-spacing:normal;text-transform:none;writing-mode:lr-tb;direction:ltr;text-orientation:mixed;dominant-baseline:auto;baseline-shift:baseline;text-anchor:start;white-space:normal;shape-padding:0;clip-rule:nonzero;display:inline;overflow:visible;visibility:visible;opacity:0.1;isolation:auto;mix-blend-mode:normal;color-interpolation:sRGB;color-interpolation-filters:linearRGB;solid-color:#000000;solid-opacity:1;vector-effect:none;fill:#000000;fill-opacity:1;fill-rule:nonzero;stroke:none;stroke-width:2;stroke-linecap:butt;stroke-linejoin:miter;stroke-miterlimit:4;stroke-dasharray:none;stroke-dashoffset:0;stroke-opacity:1;marker:none;color-rendering:auto;image-rendering:auto;shape-rendering:auto;text-rendering:auto;enable-background:accumulate"/>
        <path id="path922" d="m 341.80573,133.5 c 1.41241,0 2.52238,0.0342 3.42383,0.18555 0.90145,0.15132 1.61987,0.43164 2.14258,0.95312 0.5227,0.52148 0.80325,1.23898 0.95312,2.14063 0.14988,0.90164 0.18075,2.0101 0.17383,3.42578 V 148 v 7.79688 c 0.007,1.41452 -0.024,2.52269 -0.17383,3.42382 -0.14987,0.90165 -0.43041,1.61915 -0.95312,2.14063 -0.52272,0.52148 -1.24112,0.8018 -2.14258,0.95312 -0.90146,0.15132 -2.01142,0.18555 -3.42383,0.18555 H 330.1905 c -1.41241,0 -2.51847,-0.0342 -3.41797,-0.18555 -0.8995,-0.15137 -1.61597,-0.43149 -2.13672,-0.95312 -0.52075,-0.52163 -0.80004,-1.23774 -0.95117,-2.13867 -0.15113,-0.90094 -0.18555,-2.01055 -0.18555,-3.42578 V 148 140.20312 c 0,-1.41524 0.0344,-2.52484 0.18555,-3.42578 0.15113,-0.90093 0.43042,-1.61703 0.95117,-2.13867 0.52075,-0.52163 1.23722,-0.80175 2.13672,-0.95312 0.8995,-0.15137 2.00556,-0.18555 3.41797,-0.18555 z" style="color:#000000;display:inline;overflow:visible;visibility:visible;fill:#1f74bd;fill-opacity:1;fill-rule:nonzero;stroke:none;stroke-width:0.99999994;marker:none;enable-background:accumulate"/>
        <path id="path1011" d="m 324,148 v 7.79688 C 323.9724,161.42361 324.57798,162 330.19336,162 h 11.61523 C 347.42399,162 348,161.42369 348,155.79688 V 148 Z" style="color:#000000;display:inline;overflow:visible;visibility:visible;opacity:0.07999998;fill:#ffffff;fill-opacity:1;fill-rule:nonzero;stroke:none;stroke-width:0.99999994;marker:none;enable-background:accumulate"/>
        <path id="path1018" d="m 336,134 v 28 h 5.80859 C 347.42399,162 348,161.42369 348,155.79688 V 148 140.20312 C 348,134.57632 347.42397,134 341.80859,134 Z" style="color:#000000;display:inline;overflow:visible;visibility:visible;opacity:0.07999998;fill:#ffffff;fill-opacity:1;fill-rule:nonzero;stroke:none;stroke-width:0.99999994;marker:none;enable-background:accumulate"/>
        <path id="path1201" d="m 341,142.5 c 0.41437,0 0.75,0.33558 0.75,0.75 0,0.41439 -0.33563,0.75 -0.75,0.75 -0.41438,0 -0.75,-0.33561 -0.75,-0.75 0,-0.41442 0.33562,-0.75 0.75,-0.75 z" style="display:inline;fill:#ffffff;fill-opacity:1;stroke-width:0.511473;enable-background:new"/>
        <path id="path1199" d="m 340.99982,141.09716 c -1.26941,0 -2.00354,1.18856 -2.00354,2.28571 0,0.82284 -0.99609,0.82284 -0.99628,0 0,-1.92 1.31509,-3.38287 2.99982,-3.38287 1.68474,0 3.00018,1.46287 3.00018,3.38287 0,0.82284 -0.99914,0.82284 -0.99914,0 0,-1.09715 -0.73161,-2.28571 -2.00104,-2.28571 z" style="display:inline;fill:#ffffff;fill-opacity:1;stroke-width:0.470696;enable-background:new"/>
        <path id="path2-3-6" d="m 330.94459,144.92176 c 1.1312,1e-5 2.01483,0.45244 2.51765,1.14171 0.50277,-0.68927 1.59423,-1.12919 2.51777,-1.12919 1.56895,0 3.04544,1.03525 3.04544,3.20915 l 0.0352,1.46623 c 0,2.25396 1.29991,2.34246 1.91735,2.34246 0.61743,0 1.96,-0.40976 1.96,-2.3335 v -4.05782 c 0,-0.698 1.06198,-0.698 1.06198,0 v 4.05782 C 343.96228,152.15445 342.21285,153 340.978,153 c -1.23487,0 -2.9758,-0.52429 -2.9758,-3.39034 l -0.0358,-1.55109 c 0,-1.82517 -1.38772,-1.98886 -1.98641,-1.98886 -0.94311,0 -1.98557,0.67726 -1.98557,1.98886 v 4.41837 c 0,0.28978 -0.23706,0.52306 -0.52939,0.52306 h -0.002 -0.002 c -0.29234,0 -0.52945,-0.23328 -0.52945,-0.52306 v -4.41837 c 0,-1.3116 -0.73316,-2.03977 -1.98644,-2.08881 -0.60525,-0.0237 -1.88654,0.49336 -1.88601,2.43155 v 4.07563 c 0,0.28803 -0.23708,0.52306 -0.52958,0.52306 -0.29232,0 -0.5294,-0.23328 -0.5294,-0.52306 v -4.07563 c 0,-2.55028 1.98994,-3.47955 2.94499,-3.47955 z" style="display:inline;fill:#ffffff;fill-opacity:1;stroke-width:0.474347;enable-background:new"/>
        <path style="color:#000000;display:inline;overflow:visible;visibility:visible;opacity:0.4;fill:none;fill-opacity:1;fill-rule:nonzero;stroke:#000000;stroke-width:0.99999994;stroke-opacity:1;marker:none;enable-background:accumulate" d="m 330.19336,133.5 c -1.41241,0 -2.52238,0.0342 -3.42383,0.18555 -0.90145,0.15132 -1.61987,0.43164 -2.14258,0.95312 -0.5227,0.52148 -0.80325,1.23898 -0.95312,2.14063 -0.14988,0.90164 -0.18075,2.0101 -0.17383,3.42578 V 148 v 7.79688 c -0.007,1.41452 0.024,2.52269 0.17383,3.42382 0.14987,0.90165 0.43041,1.61915 0.95312,2.14063 0.52272,0.52148 1.24112,0.8018 2.14258,0.95312 0.90146,0.15132 2.01142,0.18555 3.42383,0.18555 h 11.61523 c 1.41241,0 2.51847,-0.0342 3.41797,-0.18555 0.8995,-0.15137 1.61597,-0.43149 2.13672,-0.95312 0.52075,-0.52163 0.80004,-1.23774 0.95117,-2.13867 0.15113,-0.90094 0.18555,-2.01055 0.18555,-3.42578 V 148 140.20312 c 0,-1.41524 -0.0344,-2.52484 -0.18555,-3.42578 -0.15113,-0.90093 -0.43042,-1.61703 -0.95117,-2.13867 -0.52075,-0.52163 -1.23722,-0.80175 -2.13672,-0.95312 C 344.32706,133.53418 343.221,133.5 341.80859,133.5 Z" id="path1089"/>
        <path clip-path="url(#clipPath959-3)" style="color:#000000;display:inline;overflow:visible;visibility:visible;opacity:0.4;fill:none;fill-opacity:1;fill-rule:nonzero;stroke:url(#linearGradient969);stroke-width:2;stroke-miterlimit:4;stroke-dasharray:none;stroke-opacity:1;marker:none;enable-background:accumulate" d="m 330.1929,133.99999 c -5.61538,0 -6.21958,0.57678 -6.19206,6.20352 v 7.79648 7.79648 c -0.0276,5.62673 0.57668,6.20351 6.19206,6.20351 h 11.615 c 5.6154,0 6.19208,-0.5767 6.19208,-6.20351 v -7.79648 -7.79648 c 0,-5.6268 -0.5767,-6.20352 -6.19208,-6.20352 z" id="path939" transform="translate(1.5261807e-6)"/>
      </g>
    </g>
  </g>
</svg>