<svg width="32" height="32" enable-background="new" version="1.0" xmlns="http://www.w3.org/2000/svg" xmlns:xlink="http://www.w3.org/1999/xlink">
 <title>Suru Icon Theme Template</title>
 <defs>
  <linearGradient id="linearGradient924" x1="459.03" x2="35.31" y1="419.23" y2="207.37" gradientTransform="matrix(0 -.072088 -.072086 0 359.13 165.82)" gradientUnits="userSpaceOnUse">
   <stop stop-color="#2f5fdd" offset="0"/>
   <stop stop-color="#80a3fa" offset="1"/>
  </linearGradient>
  <linearGradient id="linearGradient969" x1="336" x2="336" y1="134" y2="162" gradientUnits="userSpaceOnUse">
   <stop stop-color="#fff" offset="0"/>
   <stop stop-color="#fff" stop-opacity=".098039" offset=".125"/>
   <stop stop-color="#fff" stop-opacity=".098039" offset=".925"/>
   <stop stop-color="#fff" stop-opacity=".49804" offset="1"/>
  </linearGradient>
  <clipPath id="clipPath959-7">
   <path d="m330.19 134c-5.6154 0-6.2196 0.57678-6.1921 6.2035v7.7965 7.7965c-0.0276 5.6267 0.57668 6.2035 6.1921 6.2035h11.615c5.6154 0 6.1921-0.5767 6.1921-6.2035v-7.7965-7.7965c0-5.6268-0.5767-6.2035-6.1921-6.2035z" color="#000000" enable-background="accumulate" fill="#46a926"/>
  </clipPath>
 </defs>
 <g transform="translate(-253.41 -284)">
  <g transform="translate(-66.592 152)" enable-background="new">
   <rect x="320" y="132" width="32" height="32" enable-background="accumulate" opacity="0" stroke-width="2"/>
   <path d="m330.19 134c-1.421 0-2.5488 0.0308-3.5059 0.19141-0.95703 0.16064-1.7915 0.4726-2.4121 1.0918s-0.93647 1.4561-1.0957 2.4141c-0.15924 0.95795-0.18666 2.087-0.17969 3.5117v7.791 7.7969c-7e-3 1.4213 0.0207 2.5495 0.17969 3.5058 0.15923 0.95796 0.47505 1.7949 1.0957 2.4141s1.4551 0.93115 2.4121 1.0918c0.95703 0.16065 2.0849 0.19141 3.5059 0.19141h11.615c1.421 0 2.5467-0.0307 3.502-0.19141 0.95527-0.16075 1.7878-0.47425 2.4062-1.0938 0.61845-0.6195 0.93134-1.4536 1.0918-2.4102 0.16046-0.95653 0.19141-2.084 0.19141-3.5078v-7.7969-7.7969c0-1.4238-0.031-2.5513-0.19141-3.5078-0.16045-0.95653-0.47334-1.7906-1.0918-2.4102-0.61846-0.61951-1.451-0.933-2.4062-1.0938-0.95527-0.16076-2.081-0.19141-3.502-0.19141z" color="#000000" color-rendering="auto" dominant-baseline="auto" enable-background="accumulate" image-rendering="auto" opacity=".1" shape-rendering="auto" solid-color="#000000" style="font-feature-settings:normal;font-variant-alternates:normal;font-variant-caps:normal;font-variant-ligatures:normal;font-variant-numeric:normal;font-variant-position:normal;isolation:auto;mix-blend-mode:normal;shape-padding:0;text-decoration-color:#000000;text-decoration-line:none;text-decoration-style:solid;text-indent:0;text-orientation:mixed;text-transform:none;white-space:normal"/>
   <path d="m341.81 133.5c1.4124 0 2.5224 0.0342 3.4238 0.18555 0.90145 0.15132 1.6199 0.43164 2.1426 0.95312 0.5227 0.52148 0.80325 1.239 0.95312 2.1406 0.14988 0.90164 0.18075 2.0101 0.17383 3.4258v7.7949 7.7969c7e-3 1.4145-0.024 2.5227-0.17383 3.4238-0.14987 0.90165-0.43041 1.6192-0.95312 2.1406-0.52272 0.52148-1.2411 0.8018-2.1426 0.95312s-2.0114 0.18555-3.4238 0.18555h-11.615c-1.4124 0-2.5185-0.0342-3.418-0.18555-0.8995-0.15137-1.616-0.43149-2.1367-0.95312s-0.80004-1.2377-0.95117-2.1387c-0.15113-0.90094-0.18555-2.0106-0.18555-3.4258v-7.7969-7.7969c0-1.4152 0.0344-2.5248 0.18555-3.4258 0.15113-0.90093 0.43042-1.617 0.95117-2.1387 0.52075-0.52163 1.2372-0.80175 2.1367-0.95312s2.0056-0.18555 3.418-0.18555z" color="#000000" enable-background="accumulate" fill="url(#linearGradient924)"/>
   <path d="m334 144v4.5c0 0.277 0.223 0.5 0.5 0.5h3c0.277 0 0.5-0.223 0.5-0.5v-4.5zm1 2h2v2h-2z" color="#000000" enable-background="accumulate" opacity=".2"/>
   <path d="m336 135h-2v2h2zm0 2v2h2v-2zm0 2h-2v2h2zm0 2v2h2v-2z" color="#000000" enable-background="accumulate" opacity=".2"/>
   <path d="m334 143v4.5c0 0.277 0.223 0.5 0.5 0.5h3c0.277 0 0.5-0.223 0.5-0.5v-4.5zm1 2h2v2h-2z" color="#000000" enable-background="accumulate" fill="#fff"/>
   <path d="m336 134h-2v2h2zm0 2v2h2v-2zm0 2h-2v2h2zm0 2v2h2v-2z" color="#000000" enable-background="accumulate" fill="#fff"/>
   <path d="m339.33 150.92c-0.47217 0.0272-0.76251 0.56119-0.70405 0.99499 0.0333 0.36017 0.44531 0.59819 0.77419 0.44945 0.42805-0.17357 0.75982-0.71901 0.54297-1.1652-0.12603-0.20144-0.38583-0.28475-0.61311-0.27927zm2.5966 0.0181c-0.2418 0.10398-0.40079 0.34792-0.55596 0.55206-0.38203 0.6908-0.40647 1.5038-0.61182 2.2524-0.20126 0.65371-0.56578 1.2476-0.93915 1.8094-0.174 0.21454-0.33804 0.56674-0.66768 0.51829-0.24564-0.10359-0.2839-0.43157-0.27278-0.66768-4e-3 -0.27301 0.18992-0.48168 0.20524-0.74949 0.1359-0.51911 0.46781-0.97123 0.56245-1.5016 0.0263-0.2588-4e-3 -0.62895-0.29226-0.72483-0.33503-0.0908-0.70192 0.0881-0.84304 0.40397-0.2386 0.50933-0.31372 1.075-0.46894 1.612-0.15512 0.68257-0.15784 1.4229 0.10263 2.0796 0.26884 0.4763 0.94209 0.58899 1.4081 0.35463 0.14827-0.0539 0.2427-0.24221 0.40528-0.24292 0.11878 0.14349 0.0501 0.36015 0.0286 0.52997-0.11727 0.34929-0.21076 0.70708-0.26109 1.073-0.13894 0.78978-0.31514 1.5836-0.30786 2.3888 0.0599 0.28322 0.4157 0.48388 0.67417 0.31046 0.36446-0.16969 0.5567-0.68956 0.28968-1.021 4e-3 -0.47881 0.14592-0.95049 0.22212-1.4224 0.10129-0.51825 0.19029-1.0429 0.24291-1.5665 0.13982-0.23112 0.44216-0.12685 0.64299-0.0546 0.31398 0.10267 0.70209 0.2845 0.99892 0.0389 0.45527-0.34924 0.86909-0.7787 1.0794-1.3223 0.35089-0.85593 0.58724-1.8287 0.31826-2.7408-0.11988-0.32625-0.29139-0.69195-0.61962-0.85082-0.35519-0.13025-0.65548 0.17516-0.93786 0.33774-0.10106 0.0429-0.21947 0.17663-0.33254 0.13119 0.10157-0.39201 0.38037-0.77624 0.28448-1.1964-0.0515-0.14675-0.19406-0.31283-0.35462-0.33123zm-10.597 1.321c-0.0627 4e-3 -0.12038 0.0453-0.18056 0.0636-0.76807 0.32004-1.2156 1.0851-1.5731 1.7952-0.31382 0.63839-0.64262 1.3188-0.57934 2.0511 6.7e-4 0.4397 0.29729 0.95343 0.77938 0.96901 0.49046 0.0503 0.84785-0.35042 1.1743-0.65207 0.13089-0.11596 0.25963-0.2685 0.40398-0.35201 0.0652 0.28093-0.0668 0.56813-0.13509 0.83782-0.25301 0.70224-0.32007 1.4718-0.68197 2.1329-0.25808 0.44471-0.83619 0.57191-1.3055 0.53518-0.31788-0.0165-0.60618-0.16895-0.86901-0.32865-0.25757 0.0369-0.47924 0.37416-0.28708 0.60402 0.28415 0.36926 0.78717 0.56357 1.2457 0.46374 0.65951-0.0553 1.3481-0.23683 1.8276-0.71963 0.25752-0.23584 0.38375-0.56779 0.45594-0.90149 0.49259-1.8357 0.86491-3.7222 1.7289-5.4284-0.0593-0.3381-0.36059-0.58256-0.68325-0.67026-0.43754-0.14101-0.90091-0.21658-1.3211-0.40008zm5.8636 3e-3c-0.90716 0.0231-1.7826 0.29809-2.6434 0.56115-0.0967 0.10714 0.0332 0.27426 0.11171 0.37151 0.27104 0.30797 0.72151 0.22621 1.0756 0.15328 0.23254-0.0364 0.46638-0.11199 0.69885-0.1247 0.14218 0.0664 0.15662 0.25923 0.0247 0.34162-0.36377 0.27854-0.76364 0.51586-1.0781 0.85472-0.44494 0.40891-0.82697 0.88592-1.2561 1.312-0.26319 0.29305-0.5826 0.54709-0.78978 0.88459-0.11359 0.31456-7e-3 0.68833 0.27278 0.8794 0.25957 0.22834 0.63559 0.25882 0.95865 0.18056 0.54386-0.28967 1.1769-0.34446 1.7302-0.6222 0.16199-0.0692 0.35464-0.25503 0.22082-0.43776-0.12472-0.25191-0.42383-0.30916-0.67807-0.27408-0.33153-2e-3 -0.66289 0.16937-0.99111 0.087-0.12496-0.0573 0.0596-0.16336 0.10002-0.24029 0.96731-1.0519 2.0264-2.017 2.9747-3.0864 0.21848-0.26039-0.0167-0.64024-0.28838-0.75339-0.13684-0.0673-0.29125-0.0927-0.44295-0.087zm5.6843 0.7573c0.0194 0.0224 0.0391 0.0438 0.0585 0.0662 0.31307 0.38678 0.18603 0.92319 0.0481 1.3522-0.18718 0.55523-0.28752 1.2106-0.78459 1.5899-0.2546 0.20966-0.72373 0.20508-0.85732-0.14159-0.12429-0.34594 0.11422-0.67363 0.25979-0.97162 0.25745-0.45603 0.34347-1.0018 0.70145-1.4016 0.1592-0.19876 0.35799-0.36052 0.57414-0.49361zm-11.18 0.14548c0.2496 0.16828 0.29963 0.50979 0.17927 0.77158-0.22841 0.55153-0.63233 1.0052-0.92617 1.5211-0.22789 0.32389-0.40185 0.71506-0.75861 0.91967-0.10606 0.0607-0.27927 0.0865-0.32604-0.0585-0.22488-0.40834 0.0427-0.85589 0.23642-1.2171 0.34729-0.63084 0.66396-1.3232 1.273-1.7497 0.10022-0.0652 0.20539-0.16927 0.32214-0.18706z" enable-background="new" fill="#fff" opacity=".5" stroke="#fff" stroke-linejoin="round" stroke-width=".014696"/>
   <path d="m324 148v7.7969c-0.0276 5.6267 0.57798 6.2031 6.1934 6.2031h11.615c5.6154 0 6.1914-0.57631 6.1914-6.2031v-7.7969z" color="#000000" enable-background="accumulate" fill="#fff" opacity=".08"/>
   <path d="m336 134v28h5.8086c5.6154 0 6.1914-0.57631 6.1914-6.2031v-7.7969-7.7969c0-5.6268-0.57603-6.2031-6.1914-6.2031z" color="#000000" enable-background="accumulate" fill="#fff" opacity=".08"/>
   <path d="m330.19 133.5c-1.4124 0-2.5224 0.0342-3.4238 0.18555-0.90145 0.15132-1.6199 0.43164-2.1426 0.95312-0.5227 0.52148-0.80325 1.239-0.95312 2.1406-0.14988 0.90164-0.18075 2.0101-0.17383 3.4258v7.7949 7.7969c-7e-3 1.4145 0.024 2.5227 0.17383 3.4238 0.14987 0.90165 0.43041 1.6192 0.95312 2.1406 0.52272 0.52148 1.2411 0.8018 2.1426 0.95312s2.0114 0.18555 3.4238 0.18555h11.615c1.4124 0 2.5185-0.0342 3.418-0.18555 0.8995-0.15137 1.616-0.43149 2.1367-0.95312s0.80004-1.2377 0.95117-2.1387c0.15113-0.90094 0.18555-2.0106 0.18555-3.4258v-7.7969-7.7969c0-1.4152-0.0344-2.5248-0.18555-3.4258-0.15113-0.90093-0.43042-1.617-0.95117-2.1387-0.52075-0.52163-1.2372-0.80175-2.1367-0.95312s-2.0056-0.18555-3.418-0.18555z" color="#000000" enable-background="accumulate" fill="none" opacity=".4" stroke="#000"/>
   <path transform="translate(1.5262e-6)" d="m330.19 134c-5.6154 0-6.2196 0.57678-6.1921 6.2035v7.7965 7.7965c-0.0276 5.6267 0.57668 6.2035 6.1921 6.2035h11.615c5.6154 0 6.1921-0.5767 6.1921-6.2035v-7.7965-7.7965c0-5.6268-0.5767-6.2035-6.1921-6.2035z" clip-path="url(#clipPath959-7)" color="#000000" enable-background="accumulate" fill="none" opacity=".4" stroke="url(#linearGradient969)" stroke-width="2"/>
  </g>
 </g>
</svg>
