<svg width="32" height="32" enable-background="new" version="1.0" xmlns="http://www.w3.org/2000/svg" xmlns:xlink="http://www.w3.org/1999/xlink">
 <title>Suru Icon Theme Template</title>
 <defs>
  <linearGradient id="linearGradient924" x1="459.03" x2="35.31" y1="419.23" y2="207.37" gradientTransform="matrix(0 -.072088 .072086 0 312.87 165.82)" gradientUnits="userSpaceOnUse">
   <stop stop-color="#f2f2f2" offset="0"/>
   <stop stop-color="#f9f9f9" offset="1"/>
  </linearGradient>
  <linearGradient id="linearGradient969" x1="336" x2="336" y1="134" y2="162" gradientUnits="userSpaceOnUse">
   <stop stop-color="#fff" offset="0"/>
   <stop stop-color="#fff" stop-opacity=".098039" offset=".125"/>
   <stop stop-color="#fff" stop-opacity=".098039" offset=".925"/>
   <stop stop-color="#fff" stop-opacity=".49804" offset="1"/>
  </linearGradient>
 </defs>
 <g transform="translate(-206.03 -168.74)">
  <g>
   <text x="29.499811" y="121.99967" fill="#000000" font-family="sans-serif" font-size="40px" letter-spacing="0px" word-spacing="0px" style="line-height:1.25" xml:space="preserve"/>
   <g transform="translate(-113.97 36.742)" enable-background="new">
    <rect x="320" y="132" width="32" height="32" enable-background="accumulate" opacity="0" stroke-width="2"/>
    <path d="m330.19 134c-1.421 0-2.5488 0.0308-3.5059 0.19141-0.95703 0.16064-1.7915 0.4726-2.4121 1.0918s-0.93647 1.4561-1.0957 2.4141c-0.15924 0.95795-0.18666 2.087-0.17969 3.5117v7.791 7.7969c-7e-3 1.4213 0.0207 2.5495 0.17969 3.5058 0.15923 0.95796 0.47505 1.7949 1.0957 2.4141s1.4551 0.93115 2.4121 1.0918c0.95703 0.16065 2.0849 0.19141 3.5059 0.19141h11.615c1.421 0 2.5467-0.0307 3.502-0.19141 0.95527-0.16075 1.7878-0.47425 2.4062-1.0938 0.61845-0.6195 0.93134-1.4536 1.0918-2.4102 0.16046-0.95653 0.19141-2.084 0.19141-3.5078v-7.7969-8l-7-7z" color="#000000" color-rendering="auto" dominant-baseline="auto" enable-background="accumulate" image-rendering="auto" opacity=".1" shape-rendering="auto" solid-color="#000000" style="font-feature-settings:normal;font-variant-alternates:normal;font-variant-caps:normal;font-variant-ligatures:normal;font-variant-numeric:normal;font-variant-position:normal;isolation:auto;mix-blend-mode:normal;shape-padding:0;text-decoration-color:#000000;text-decoration-line:none;text-decoration-style:solid;text-indent:0;text-orientation:mixed;text-transform:none;white-space:normal"/>
    <path d="m330.19 134c-5.6154 0-6.2196 0.57678-6.1921 6.2035v7.7965 7.7965c-0.0276 5.6267 0.57668 6.2035 6.1921 6.2035h11.615c5.6154 0 6.1921-0.5767 6.1921-6.2035v-7.7965-7.7965l-6.1921-6.2035z" color="#000000" enable-background="accumulate" fill="none" opacity=".2" stroke="#000" stroke-width="2"/>
    <path d="m330.19 134c-5.6154 0-6.2196 0.57678-6.1921 6.2035v7.7965 7.7965c-0.0276 5.6267 0.57668 6.2035 6.1921 6.2035h11.615c5.6154 0 6.1921-0.5767 6.1921-6.2035v-7.7965l2e-5 -8-6-6z" color="#000000" enable-background="accumulate" fill="url(#linearGradient924)"/>
    <rect x="334" y="134" width="1" height="28" enable-background="new" fill="#44a5f3" fill-rule="evenodd" opacity=".2"/>
    <rect x="337" y="134" width="1" height="28" enable-background="new" fill="#44a5f3" fill-rule="evenodd" opacity=".2"/>
    <path d="m345 138.16v23.672c0.37562-0.057 0.71182-0.13143 1-0.23242v-23.207c-0.28818-0.10099-0.62438-0.17545-1-0.23242z" enable-background="new" fill="#44a5f3" fill-rule="evenodd" opacity=".2"/>
    <rect x="330" y="134" width="1" height="28" enable-background="new" fill="#44a5f3" fill-rule="evenodd" opacity=".2"/>
    <rect x="324" y="145" width="24" height="1" enable-background="new" fill="#44a5f3" fill-rule="evenodd" opacity=".2"/>
    <rect x="324" y="150" width="24" height="1" enable-background="new" fill="#44a5f3" fill-rule="evenodd" opacity=".2"/>
    <rect x="324" y="141" width="24" height="1" enable-background="new" fill="#44a5f3" fill-rule="evenodd" opacity=".2"/>
    <path d="m324.15 137c-0.0446 0.29732-0.0709 0.64155-0.0937 1h19.873c-0.0239-0.3585-0.0525-0.70265-0.0976-1z" enable-background="new" fill="#44a5f3" fill-rule="evenodd" opacity=".2"/>
    <rect transform="scale(1,-1)" x="324" y="-155" width="24" height="1" enable-background="new" fill="#44a5f3" fill-rule="evenodd" opacity=".2"/>
    <path d="m324.06 158c0.0229 0.35845 0.0491 0.70268 0.0937 1h23.682c0.0451-0.29735 0.0737-0.6415 0.0976-1z" enable-background="new" fill="#44a5f3" fill-rule="evenodd" opacity=".2"/>
    <path d="m326 136v1h-1v1h1v5h1v-5h2v-1h-2v-1z" enable-background="new" fill="#44a5f3" fill-rule="evenodd"/>
    <path d="m346 160v-1h1v-1h-1v-5h-1v5h-2v1h2v1z" enable-background="new" fill="#44a5f3" fill-rule="evenodd"/>
    <path d="m327 134.16c-0.37526 0.0566-0.71145 0.13022-1 0.23047v27.211c0.2886 0.10026 0.62466 0.17383 1 0.23047z" enable-background="new" fill="#44a5f3" fill-rule="evenodd" opacity=".2"/>
    <rect x="341" y="134" width="1" height="28" enable-background="new" fill="#44a5f3" fill-rule="evenodd" opacity=".2"/>
    <path d="m329 149h8c0.55399 0 0.99999 0.446 0.99999 1v8c0 0.55399-0.446 1-0.99999 1h-8c-0.554 0-1-0.44601-1-1v-8c0-0.554 0.446-1 1-1z" enable-background="new" fill="#dedede" stroke-width=".51901"/>
    <path d="m335.5 158c-0.13288-0.34636-0.25799-0.68495-0.37534-1.0159-0.1173-0.33862-0.23848-0.65334-0.36353-0.99967h-3.6825l-0.73885 2.0155h-1.1845c0.31276-0.84656 0.60594-1.6277 0.87959-2.3434 0.27361-0.72343 0.53949-1.4084 0.79749-2.0548 0.26584-0.64646 0.52776-1.2621 0.78577-1.847 0.25799-0.59259 0.52776-1.1775 0.80922-1.7547h1.0438c0.28145 0.57721 0.55121 1.1621 0.80921 1.7547 0.258 0.5849 0.51603 1.2006 0.77404 1.847 0.26585 0.64647 0.53557 1.3314 0.80923 2.0548 0.2736 0.71572 0.56685 1.4969 0.87959 2.3434zm-1.0672-2.9333c-0.25014-0.66955-0.50039-1.3495-0.75058-1.9729-0.24233-0.63106-0.49648-1.2352-0.76231-1.8124-0.27361 0.57721-0.53557 1.1813-0.78577 1.8124-0.24233 0.62339-0.48475 1.3033-0.72712 1.9729z" enable-background="new" fill="#77767b"/>
    <path d="m335 143c-0.55401 0-1 0.44601-1 1v8c0 0.55401 0.446 1 1 1h8c0.554 0 0.99999-0.446 0.99999-1v-8c0-0.55399-0.44599-1-0.99999-1z" color="#000000" enable-background="new" fill="#44a5f3" stroke-width=".49948"/>
    <path d="m338.63 144v1.2658h-3.3754v0.84387h1.3962c0.5022 1.2963 1.119 2.3957 1.8456 3.2928-0.84542 0.87566-1.824 1.4642-2.9374 1.787l0.23507 0.81048c1.2374-0.35876 2.3254-1.0203 3.2579-1.9726 0.93253 0.95237 2.0205 1.6139 3.2579 1.9726l0.23504-0.81048c-1.1135-0.32282-2.092-0.91137-2.9374-1.787 0.72664-0.89717 1.3434-1.9965 1.8456-3.2928h1.3962v-0.84387h-3.3754v-1.2658zm-1.0712 2.1097h2.9863c-0.42838 1.043-0.92604 1.9239-1.4931 2.652-0.56709-0.72806-1.0647-1.609-1.4931-2.652z" enable-background="new" fill="#fff"/>
    <path d="m324 148v7.7969c-0.0276 5.6267 0.57798 6.2031 6.1934 6.2031h11.615c5.6154 0 6.1914-0.57631 6.1914-6.2031v-7.7969z" color="#000000" enable-background="accumulate" fill="#fff" opacity=".2"/>
    <path d="m336 134v28h5.8086c5.6154 0 6.1914-0.57631 6.1914-6.2031v-7.7969-8l-6-6z" color="#000000" enable-background="accumulate" fill="#fff" opacity=".2"/>
    <path d="m330.19 134c-5.6154 0-6.2209 0.57638-6.1934 6.2031v7.7969 7.7969c-0.0276 5.6267 0.57798 6.2031 6.1934 6.2031h11.615c5.6154 0 6.1914-0.57631 6.1914-6.2031v-7.7969-7.7969l-6.1914-6.2031zm0 1h11.615l5.1914 5.2031v7.7969 7.7969c0 1.3896-0.0409 2.4436-0.16406 3.1777-0.12315 0.73414-0.30557 1.1001-0.53321 1.3281-0.22764 0.22803-0.59203 0.40999-1.3242 0.53321-0.73219 0.12321-1.7832 0.16406-3.1699 0.16406h-11.615c-1.3867 0-2.441-0.0407-3.1758-0.16406-0.73474-0.12334-1.1012-0.30681-1.3301-0.53516s-0.41141-0.59346-0.5332-1.3262-0.16111-1.7851-0.1543-3.1738v-2e-3 -7.7988-7.7988-2e-3c-7e-3 -1.3887 0.0325-2.4431 0.1543-3.1758 0.12179-0.73272 0.30431-1.0959 0.5332-1.3242s0.59535-0.41182 1.3301-0.53516c0.73473-0.12323 1.789-0.16401 3.1758-0.16401z" color="#000000" color-rendering="auto" dominant-baseline="auto" enable-background="accumulate" fill="url(#linearGradient969)" image-rendering="auto" opacity=".4" shape-rendering="auto" solid-color="#000000" style="font-feature-settings:normal;font-variant-alternates:normal;font-variant-caps:normal;font-variant-ligatures:normal;font-variant-numeric:normal;font-variant-position:normal;isolation:auto;mix-blend-mode:normal;shape-padding:0;text-decoration-color:#000000;text-decoration-line:none;text-decoration-style:solid;text-indent:0;text-orientation:mixed;text-transform:none;white-space:normal"/>
    <path d="m348 141v-1l-6-6h-1v2.6785 0.10263 0.0551c0 3.6222 0.48488 4.1807 4.1154 4.1629z" color="#000000" enable-background="accumulate" opacity=".2"/>
    <path d="m348 140-6-5.9992v2.2254 0.0968 0.0519c0 3.4152 0.15739 3.6419 3.5804 3.6251z" color="#000000" enable-background="accumulate" fill="#faf8f6"/>
   </g>
  </g>
 </g>
</svg>
