<svg width="18" height="18" version="1.1" xmlns="http://www.w3.org/2000/svg">
 <path d="m3 1v4.025c-0.75 0.018-1.41 0.07-1.938 0.36a1.88 1.88 0 0 0-0.837 0.998c-0.165 0.438-0.225 0.96-0.225 1.617v3c0 0.658 0.06 1.179 0.225 1.617 0.164 0.439 0.461 0.79 0.838 0.998 0.282 0.156 0.599 0.234 0.937 0.287v-1.025a1.627 1.627 0 0 1-0.455-0.139c-0.183-0.1-0.287-0.212-0.385-0.472-0.097-0.26-0.16-0.674-0.16-1.266v-3c0-0.592 0.063-1.006 0.16-1.266 0.098-0.26 0.202-0.371 0.385-0.472 0.366-0.202 1.196-0.247 2.455-0.262h8c1.259 0.015 2.087 0.06 2.453 0.262 0.184 0.1 0.29 0.212 0.387 0.472s0.16 0.674 0.16 1.266v3c0 0.592-0.063 1.006-0.16 1.266-0.098 0.26-0.203 0.371-0.387 0.472a1.58 1.58 0 0 1-0.453 0.139v1.025c0.338-0.053 0.655-0.131 0.938-0.287a1.88 1.88 0 0 0 0.837-0.998c0.165-0.438 0.225-0.96 0.225-1.617v-3c0-0.658-0.06-1.179-0.225-1.617a1.88 1.88 0 0 0-0.838-0.998c-0.526-0.29-1.188-0.342-1.937-0.36v-4.025zm1 1h8v3h-8zm9.5 5a0.5 0.5 0 0 0-0.5 0.5 0.5 0.5 0 0 0 0.5 0.5 0.5 0.5 0 0 0 0.5-0.5 0.5 0.5 0 0 0-0.5-0.5zm-10.5 4v6h10v-6h-1v5h-8v-5zm2 1v1h6v-1zm0 2v1h6v-1z" fill="#dfdfdf" font-family="sans-serif" font-weight="400" overflow="visible"/>
</svg>
