<svg version="1.1" viewBox="0 0 18 18" xmlns="http://www.w3.org/2000/svg">
 <defs>
  <style id="current-color-scheme" type="text/css">.ColorScheme-Text { color:#dfdfdf; }</style>
 </defs>
 <path class="ColorScheme-Text" d="m6.098 3.764-0.027 0.016c-1.891 1.058-3.065 3.054-3.07 5.221 0 3.314 2.686 6 6 6s6-2.686 6-6c-2e-3 -0.335-0.032-0.67-0.09-1h-5.428l-2.754-3.447s-0.632-0.787-0.631-0.789m-0.219 1.338 3.121 3.898h5c0 2.761-2.239 5-5 5s-5-2.239-5-5c2e-3 -1.517 0.694-2.951 1.879-3.898" fill="#dfdfdf"/>
 <path class="ColorScheme-Text" d="m8.607 13.976c-1.748-0.153-3.252-1.16-4.054-2.716-0.531-1.03-0.678-2.292-0.401-3.423 0.231-0.942 0.728-1.799 1.42-2.452 0.263-0.248 0.302-0.275 0.335-0.229 0.014 0.019 0.716 0.896 1.56 1.949l1.535 1.915h4.991l-0.015 0.26c-0.13 2.269-1.775 4.165-4 4.612-0.423 0.085-0.975 0.119-1.37 0.085" fill="#dfdfdf" fill-opacity=".5"/>
</svg>
