<?xml version="1.0" encoding="UTF-8" standalone="no"?>
<svg
   height="22"
   width="22"
   version="1.1"
   id="svg8"
   sodipodi:docname="media-repeat-album-amarok.svg"
   inkscape:version="1.1.2 (0a00cf5339, 2022-02-04, custom)"
   xmlns:inkscape="http://www.inkscape.org/namespaces/inkscape"
   xmlns:sodipodi="http://sodipodi.sourceforge.net/DTD/sodipodi-0.dtd"
   xmlns="http://www.w3.org/2000/svg"
   xmlns:svg="http://www.w3.org/2000/svg"
   xmlns:rdf="http://www.w3.org/1999/02/22-rdf-syntax-ns#"
   xmlns:cc="http://creativecommons.org/ns#"
   xmlns:dc="http://purl.org/dc/elements/1.1/">
  <metadata
     id="metadata14">
    <rdf:RDF>
      <cc:Work
         rdf:about="">
        <dc:format>image/svg+xml</dc:format>
        <dc:type
           rdf:resource="http://purl.org/dc/dcmitype/StillImage" />
      </cc:Work>
    </rdf:RDF>
  </metadata>
  <defs
     id="defs12" />
  <sodipodi:namedview
     pagecolor="#ffffff"
     bordercolor="#666666"
     borderopacity="1"
     objecttolerance="10"
     gridtolerance="10"
     guidetolerance="10"
     inkscape:pageopacity="0"
     inkscape:pageshadow="2"
     inkscape:window-width="1860"
     inkscape:window-height="1017"
     id="namedview10"
     showgrid="true"
     inkscape:zoom="36.454545"
     inkscape:cx="10.986284"
     inkscape:cy="11"
     inkscape:current-layer="svg8"
     inkscape:pagecheckerboard="0"
     inkscape:window-x="0"
     inkscape:window-y="0"
     inkscape:window-maximized="1" />
  <g
     color="#000000"
     fill="gray"
     id="g6"
     style="fill:#666666;fill-opacity:1"
     transform="translate(3,4)">
    <path
       d="M 3.994,2 C 2.736,2.015 1.815,1.97 1.063,2.385 A 1.88,1.88 0 0 0 0.225,3.383 C 0.06,3.82 0,4.343 0,5 v 6 c 0,0.658 0.06,1.179 0.225,1.617 0.164,0.439 0.461,0.79 0.838,0.998 0.752,0.416 1.673,0.37 2.931,0.385 h 8.012 c 1.258,-0.015 2.179,0.03 2.932,-0.385 a 1.88,1.88 0 0 0 0.838,-0.998 C 15.94,12.179 16,11.657 16,11 V 5 C 16,4.342 15.94,3.821 15.775,3.383 A 1.88,1.88 0 0 0 14.937,2.385 C 14.185,1.969 13.264,2.015 12.006,2 H 11 v 1 h 1 c 1.259,0.015 2.087,0.06 2.453,0.262 0.184,0.1 0.29,0.212 0.387,0.472 C 14.937,3.994 15,4.408 15,5 v 6 c 0,0.592 -0.063,1.006 -0.16,1.266 -0.098,0.26 -0.203,0.371 -0.387,0.472 C 14.087,12.94 13.259,12.985 12,13 H 4 C 2.741,12.985 1.91,12.94 1.545,12.738 1.362,12.638 1.258,12.526 1.16,12.266 1.063,12.006 1,11.592 1,11 V 5 C 1,4.408 1.063,3.994 1.16,3.734 1.258,3.474 1.362,3.363 1.545,3.262 1.91,3.06 2.74,3.015 4,3 H 6.5 V 2 H 3.998 Z"
       style="line-height:normal;font-variant-ligatures:normal;font-variant-position:normal;font-variant-caps:normal;font-variant-numeric:normal;font-variant-alternates:normal;font-feature-settings:normal;text-indent:0;text-align:start;text-decoration-line:none;text-decoration-style:solid;text-decoration-color:#000000;text-transform:none;text-orientation:mixed;shape-padding:0;isolation:auto;mix-blend-mode:normal;fill:#666666;fill-opacity:1;marker:none"
       font-weight="400"
       font-family="sans-serif"
       white-space="normal"
       overflow="visible"
       id="path2" />
    <path
       d="M 5,0 5.001,5 C 5.761,4.652 6.536,4.263 7.324,3.834 A 44.09,44.09 0 0 0 9.583,2.5 C 8.858,2.051 8.105,1.611 7.323,1.18 A 43.088,43.088 0 0 0 5,0 Z"
       style="fill:#666666;fill-opacity:1;marker:none"
       overflow="visible"
       id="path4" />
  </g>
  <path
     inkscape:connector-curvature="0"
     style="fill:#666666;fill-opacity:1"
     d="m 13,11 v 1 1 1 1 h 1 v -1 h 1 v 1 h 1 v -1 -1 -1 -1 h -1 z m 1,1 h 1 v 1 h -1 z"
     id="path15" />
</svg>
