<svg width="22" height="22" version="1.1" viewBox="0 0 22 22" xmlns="http://www.w3.org/2000/svg">
 <defs>
  <style id="current-color-scheme" type="text/css">.ColorScheme-Text{color:#666666}.ColorScheme-Highlight{color:#f34f17}</style>
 </defs>
 <path class="ColorScheme-Text" d="m10.037 3v9h1v-9zm-3 1v4l2-2zm7 0-2 2 2 2zm3.967 3.252-6e-3 2e-3v2e-3zm-6e-3 4e-3 -6.893 4.744h0.432v0.92l7-4.813zm-8.461 5.824-6.7 4.611 0.583 0.809 6.545-4.5h-0.428zm-6.7 4.611-1e-3 -3e-3v5e-3zm7.2-3.691v5h1v-5z" color="#666666" fill="#666"/>
 <path class="ColorScheme-Highlight" d="m8.537 11v4h4v-4zm1 1h2v2h-2z" color="#f34f17" fill="#f34f17"/>
</svg>
