<svg xmlns:dc="http://purl.org/dc/elements/1.1/" xmlns:cc="http://creativecommons.org/ns#" xmlns:rdf="http://www.w3.org/1999/02/22-rdf-syntax-ns#" xmlns:svg="http://www.w3.org/2000/svg" xmlns="http://www.w3.org/2000/svg" xmlns:xlink="http://www.w3.org/1999/xlink" style="display:inline;enable-background:new" version="1.0" id="svg11300" height="24" width="24">
  <title id="title3004">Suru Icon Theme Template</title>
  <defs id="defs3">
    <linearGradient y2="207.36522" x2="35.310345" y1="419.23337" x1="459.03448" gradientTransform="matrix(0,-0.05664062,-0.05663901,0,349.74456,214)" gradientUnits="userSpaceOnUse" id="linearGradient916" xlink:href="#linearGradient4246"/>
    <linearGradient id="linearGradient4246">
      <stop id="stop4248" offset="0" style="stop-color:#dd4f37;stop-opacity:1"/>
      <stop id="stop4250" offset="1" style="stop-color:#e57866;stop-opacity:1"/>
    </linearGradient>
    <linearGradient gradientUnits="userSpaceOnUse" y2="211" x2="332" y1="189" x1="332" id="linearGradient981" xlink:href="#linearGradient927"/>
    <linearGradient id="linearGradient927">
      <stop id="stop923" offset="0" style="stop-color:#ffffff;stop-opacity:1;"/>
      <stop style="stop-color:#ffffff;stop-opacity:0.09803922" offset="0.125" id="stop933"/>
      <stop style="stop-color:#ffffff;stop-opacity:0.09803922" offset="0.92500001" id="stop931"/>
      <stop id="stop925" offset="1" style="stop-color:#ffffff;stop-opacity:0.49803922"/>
    </linearGradient>
    <clipPath id="clipPath971-3" clipPathUnits="userSpaceOnUse">
      <path id="path973-6" d="m 327.8652,189 c -4.41209,0 -4.88682,0.45318 -4.8652,4.87419 V 200 206.12581 C 322.9783,210.54682 323.45311,211 327.8652,211 h 8.2696 C 340.54689,211 341,210.54688 341,206.12581 V 200 193.87419 C 341,189.45313 340.54688,189 336.13479,189 Z" style="color:#000000;display:inline;overflow:visible;visibility:visible;opacity:1;fill:#46a926;fill-opacity:1;fill-rule:nonzero;stroke:none;stroke-width:2;stroke-miterlimit:4;stroke-dasharray:none;stroke-opacity:1;marker:none;enable-background:accumulate"/>
    </clipPath>
  </defs>
  <metadata id="metadata4">
    <rdf:RDF>
      <cc:Work rdf:about="">
        <dc:format>image/svg+xml</dc:format>
        <dc:type rdf:resource="http://purl.org/dc/dcmitype/StillImage"/>
        <dc:creator>
          <cc:Agent>
            <dc:title>Sam Hewitt</dc:title>
          </cc:Agent>
        </dc:creator>
        <dc:source/>
        <cc:license rdf:resource="http://creativecommons.org/licenses/by-sa/4.0/"/>
        <dc:title>Suru Icon Theme Template</dc:title>
        <dc:subject>
          <rdf:Bag/>
        </dc:subject>
        <dc:date/>
        <dc:rights>
          <cc:Agent>
            <dc:title/>
          </cc:Agent>
        </dc:rights>
        <dc:publisher>
          <cc:Agent>
            <dc:title/>
          </cc:Agent>
        </dc:publisher>
        <dc:identifier/>
        <dc:relation/>
        <dc:language/>
        <dc:coverage/>
        <dc:description/>
        <dc:contributor>
          <cc:Agent>
            <dc:title/>
          </cc:Agent>
        </dc:contributor>
      </cc:Work>
      <cc:Work rdf:about="">
        <dc:format>image/svg+xml</dc:format>
        <dc:type rdf:resource="http://purl.org/dc/dcmitype/StillImage"/>
      </cc:Work>
      <cc:License rdf:about="http://creativecommons.org/licenses/by-sa/4.0/">
        <cc:permits rdf:resource="http://creativecommons.org/ns#Reproduction"/>
        <cc:permits rdf:resource="http://creativecommons.org/ns#Distribution"/>
        <cc:requires rdf:resource="http://creativecommons.org/ns#Notice"/>
        <cc:requires rdf:resource="http://creativecommons.org/ns#Attribution"/>
        <cc:permits rdf:resource="http://creativecommons.org/ns#DerivativeWorks"/>
        <cc:requires rdf:resource="http://creativecommons.org/ns#ShareAlike"/>
      </cc:License>
    </rdf:RDF>
  </metadata>
  <g transform="translate(-187.75767,-222.59262)" id="layer1" style="display:inline">
    <g id="layer7" style="display:inline"/>
    <g style="display:inline" id="layer4"/>
    <g style="display:inline" id="layer2"/>
    <g style="display:inline" id="layer6"/>
    <g style="display:inline" id="layer3"/>
    <g style="display:inline" id="layer9"/>
    <g style="display:inline" id="layer5">
      <g id="g943" style="display:inline;enable-background:new" transform="translate(-132.24233,34.592622)">
        <rect style="display:inline;overflow:visible;visibility:visible;opacity:0;fill:#cdcdcd;fill-opacity:1;fill-rule:nonzero;stroke:none;stroke-width:2;marker:none;enable-background:accumulate" id="rect24x24" width="24" height="24" x="320" y="188"/>
        <path style="color:#000000;font-style:normal;font-variant:normal;font-weight:normal;font-stretch:normal;font-size:medium;line-height:normal;font-family:sans-serif;font-variant-ligatures:normal;font-variant-position:normal;font-variant-caps:normal;font-variant-numeric:normal;font-variant-alternates:normal;font-feature-settings:normal;text-indent:0;text-align:start;text-decoration:none;text-decoration-line:none;text-decoration-style:solid;text-decoration-color:#000000;letter-spacing:normal;word-spacing:normal;text-transform:none;writing-mode:lr-tb;direction:ltr;text-orientation:mixed;dominant-baseline:auto;baseline-shift:baseline;text-anchor:start;white-space:normal;shape-padding:0;clip-rule:nonzero;display:inline;overflow:visible;visibility:visible;opacity:0.1;isolation:auto;mix-blend-mode:normal;color-interpolation:sRGB;color-interpolation-filters:linearRGB;solid-color:#000000;solid-opacity:1;vector-effect:none;fill:#000000;fill-opacity:1;fill-rule:nonzero;stroke:none;stroke-width:2;stroke-linecap:butt;stroke-linejoin:miter;stroke-miterlimit:4;stroke-dasharray:none;stroke-dashoffset:0;stroke-opacity:1;marker:none;color-rendering:auto;image-rendering:auto;shape-rendering:auto;text-rendering:auto;enable-background:accumulate" d="m 327.86523,189 c -1.12014,0 -2.01524,0.0241 -2.79101,0.1543 -0.77577,0.13022 -1.48014,0.38763 -2.00977,0.91601 -0.52962,0.52838 -0.79079,1.23687 -0.91992,2.01367 -0.12912,0.77681 -0.15002,1.67169 -0.14453,2.79493 V 201 v 5.125 c -0.005,1.12104 0.0156,2.01529 0.14453,2.79102 0.12912,0.77681 0.39029,1.48529 0.91992,2.01367 0.52964,0.52838 1.234,0.78579 2.00977,0.91601 0.77577,0.13022 1.67087,0.1543 2.79101,0.1543 h 8.26954 c 1.12013,0 2.01264,-0.024 2.78711,-0.1543 0.77446,-0.13033 1.48001,-0.38927 2.00781,-0.91797 0.5278,-0.52869 0.78594,-1.23438 0.91601,-2.00976 C 341.97577,208.14258 342,207.24735 342,206.125 V 201 194.875 c 0,-1.12235 -0.0242,-2.01758 -0.1543,-2.79297 -0.13007,-0.77538 -0.38821,-1.48107 -0.91601,-2.00976 -0.5278,-0.5287 -1.23334,-0.78764 -2.00781,-0.91797 C 338.1474,189.02397 337.25491,189 336.13477,189 Z" id="path995"/>
        <path style="color:#000000;display:inline;overflow:visible;visibility:visible;fill:url(#linearGradient916);fill-opacity:1;fill-rule:nonzero;stroke:none;stroke-width:1;marker:none;enable-background:accumulate" d="m 336.13403,188.5 c 1.11158,0 1.98683,0.0256 2.70703,0.14648 0.72019,0.1209 1.3105,0.34863 1.74218,0.7793 0.43169,0.43067 0.65954,1.01974 0.7793,1.74024 0.11977,0.72049 0.14217,1.59669 0.13672,2.71093 V 200 v 6.125 c 0.005,1.1131 -0.017,1.989 -0.13672,2.70898 -0.11976,0.72051 -0.3476,1.30957 -0.7793,1.74024 -0.43169,0.43067 -1.02199,0.6584 -1.74218,0.7793 -0.7202,0.12089 -1.59545,0.14648 -2.70703,0.14648 h -8.26954 c -1.11158,0 -1.98637,-0.0255 -2.70507,-0.14648 -0.7187,-0.12095 -1.30623,-0.34848 -1.73633,-0.7793 -0.4301,-0.43083 -0.6566,-1.01849 -0.77735,-1.73828 -0.12074,-0.71979 -0.14648,-1.59713 -0.14648,-2.71094 V 200 193.875 c 0,-1.11381 0.0257,-1.99115 0.14648,-2.71094 0.12075,-0.71979 0.34725,-1.30745 0.77735,-1.73828 0.4301,-0.43082 1.01763,-0.65835 1.73633,-0.7793 0.7187,-0.12094 1.59349,-0.14648 2.70507,-0.14648 z" id="path914"/>
        <path id="path1125" d="m 333.17596,191.00001 c 0.67051,2.64152 -2.36508,3.43934 -3.46067,5.08443 -0.74607,1.12085 0.36622,2.32528 1.88268,3.69336 -0.59135,-1.3368 -2.59684,-2.50615 5.8e-4,-4.55791 3.23924,-2.55675 1.57714,-4.21988 1.57714,-4.21988 z m 2.00405,3.26814 c 3e-5,0 -5.47734,1.36763 -2.86147,4.38199 0.77221,0.88893 -0.20257,1.68821 -0.20257,1.68821 0,0 1.95964,-1.0114 1.05985,-2.27861 -0.84069,-1.1812 -1.48513,-1.768 2.00419,-3.79159 z m 0.97,5.38437 c -0.19246,5.7e-4 -0.3968,0.0341 -0.60645,0.10769 -0.16808,0.0596 -0.25627,0.19783 -0.25627,0.19783 0,0 0.10626,-0.0427 0.34319,-0.0922 0.96887,-0.20188 2.3571,1.29703 -0.64495,2.8566 -0.0139,0.0372 -0.06,0.0788 -0.06,0.0788 3.57021,-0.93855 2.79159,-3.15164 1.22447,-3.14872 z m -6.43235,0.15221 c -0.23517,-0.006 -1.25182,0.01 -2.46666,0.59737 -1.64246,0.79417 4.06195,1.15597 7.01535,0.37918 0.30705,-0.20954 0.73118,-0.39146 0.73118,-0.39146 0,0 -1.20794,0.21596 -2.41155,0.31697 -1.47317,0.12359 -3.05344,0.14799 -3.84669,0.0419 -1.87811,-0.25109 1.02957,-0.94182 1.02957,-0.94182 0,0 -0.0176,-0.002 -0.0512,-0.002 z m -0.62583,1.81709 c -2.70938,0.89922 1.50826,1.91972 5.29492,0.81209 -0.40232,-0.14182 -0.65778,-0.40137 -0.65778,-0.40137 -1.85142,0.35631 -2.92083,0.34493 -4.27539,0.20509 -1.04725,-0.10824 -0.36175,-0.61581 -0.36175,-0.61581 z m 0.38295,1.75154 c -2.46014,0.68739 1.49679,2.10726 4.62919,0.76522 -0.51303,-0.19938 -0.881,-0.42956 -0.881,-0.42956 -1.39686,0.26405 -2.04483,0.28485 -3.31279,0.14007 -1.04645,-0.12002 -0.4354,-0.47573 -0.4354,-0.47573 z m -1.70871,1.16127 c -1.10478,0.0341 -3.26535,1.02743 -1.28949,1.34809 6.38611,1.03513 11.64094,-0.46625 9.98468,-1.2136 0,0 0.45243,0.37302 -0.49819,0.66142 -1.8076,0.54752 -7.5249,0.71265 -9.11288,0.0219 -0.57044,-0.24847 0.49976,-0.59287 0.8365,-0.66559 0.3511,-0.076 0.55162,-0.0621 0.55162,-0.0621 -0.0992,-0.0699 -0.26766,-0.0964 -0.47224,-0.0901 z m 9.709,0.94937 c 0,0 -0.20129,0.51683 -2.38114,0.92691 -2.45921,0.46299 -5.49304,0.409 -7.29172,0.11203 0,0 0.36842,0.30502 2.26186,0.42688 2.88096,0.18419 7.30627,-0.10247 7.411,-1.46582 z" style="clip-rule:evenodd;display:inline;fill:#ffffff;fill-opacity:1;fill-rule:evenodd;stroke-width:3.83576179;enable-background:new"/>
        <path style="color:#000000;display:inline;overflow:visible;visibility:visible;opacity:0.07999998;fill:#ffffff;fill-opacity:1;fill-rule:nonzero;stroke:none;stroke-width:1;marker:none;enable-background:accumulate" d="m 323,200 v 6.125 c -0.0217,4.42101 0.45314,4.875 4.86523,4.875 h 8.26954 C 340.54686,211 341,210.54607 341,206.125 V 200 Z" id="path1007"/>
        <path style="color:#000000;display:inline;overflow:visible;visibility:visible;opacity:0.07999998;fill:#ffffff;fill-opacity:1;fill-rule:nonzero;stroke:none;stroke-width:1;marker:none;enable-background:accumulate" d="m 332,189 v 22 h 4.13477 C 340.54686,211 341,210.54607 341,206.125 V 200 193.875 C 341,189.45394 340.54686,189 336.13477,189 Z" id="path1014"/>
        <path id="path1085" d="m 327.86523,188.5 c -1.11158,0 -1.98683,0.0256 -2.70703,0.14648 -0.72019,0.1209 -1.3105,0.34863 -1.74218,0.7793 -0.43169,0.43067 -0.65954,1.01974 -0.7793,1.74024 -0.11977,0.72049 -0.14217,1.59669 -0.13672,2.71093 V 200 v 6.125 c -0.005,1.1131 0.017,1.989 0.13672,2.70898 0.11976,0.72051 0.3476,1.30957 0.7793,1.74024 0.43169,0.43067 1.02199,0.6584 1.74218,0.7793 0.7202,0.12089 1.59545,0.14648 2.70703,0.14648 h 8.26954 c 1.11158,0 1.98637,-0.0255 2.70507,-0.14648 0.7187,-0.12095 1.30623,-0.34848 1.73633,-0.7793 0.4301,-0.43083 0.6566,-1.01849 0.77735,-1.73828 0.12074,-0.71979 0.14648,-1.59713 0.14648,-2.71094 V 200 193.875 c 0,-1.11381 -0.0257,-1.99115 -0.14648,-2.71094 -0.12075,-0.71979 -0.34725,-1.30745 -0.77735,-1.73828 -0.4301,-0.43082 -1.01763,-0.65835 -1.73633,-0.7793 -0.7187,-0.12094 -1.59349,-0.14648 -2.70507,-0.14648 z" style="color:#000000;display:inline;overflow:visible;visibility:visible;opacity:0.3;fill:none;fill-opacity:1;fill-rule:nonzero;stroke:#000000;stroke-width:1;stroke-opacity:1;marker:none;enable-background:accumulate"/>
        <path transform="translate(1.5261807e-6)" id="path935" d="m 327.8652,189 c -4.41209,0 -4.88682,0.45318 -4.8652,4.87419 V 200 206.12581 C 322.9783,210.54682 323.45311,211 327.8652,211 h 8.2696 C 340.54689,211 341,210.54688 341,206.12581 V 200 193.87419 C 341,189.45313 340.54688,189 336.13479,189 Z" style="color:#000000;display:inline;overflow:visible;visibility:visible;opacity:0.4;fill:none;fill-opacity:1;fill-rule:nonzero;stroke:url(#linearGradient981);stroke-width:2;stroke-miterlimit:4;stroke-dasharray:none;stroke-opacity:1;marker:none;enable-background:accumulate" clip-path="url(#clipPath971-3)"/>
      </g>
    </g>
  </g>
</svg>