<svg width="16" height="16" version="1.1" xmlns="http://www.w3.org/2000/svg">
 <path d="m4 4v7h8v-7h-8zm1 1h2v2h-2v-2zm3 0h3v2h-3v-2zm-3 3h2v2h-2v-2zm3 0h3v2h-3v-2z" fill="#dfdfdf"/>
 <path d="m2 1c-0.54535 0-1 0.45465-1 1v12c0 0.54535 0.45465 1 1 1h12c0.54535 0 1-0.45465 1-1v-12c0-0.54535-0.45465-1-1-1zm0 1h12v12h-12z" color="#000000" color-rendering="auto" dominant-baseline="auto" fill="#dfdfdf" image-rendering="auto" shape-rendering="auto" solid-color="#000000" stop-color="#000000" style="font-feature-settings:normal;font-variant-alternates:normal;font-variant-caps:normal;font-variant-east-asian:normal;font-variant-ligatures:normal;font-variant-numeric:normal;font-variant-position:normal;font-variation-settings:normal;inline-size:0;isolation:auto;mix-blend-mode:normal;shape-margin:0;shape-padding:0;text-decoration-color:#000000;text-decoration-line:none;text-decoration-style:solid;text-indent:0;text-orientation:mixed;text-transform:none;white-space:normal"/>
</svg>
