<?xml version="1.0" encoding="UTF-8" standalone="no"?>
<!-- Created with Inkscape (http://www.inkscape.org/) -->

<svg
   width="24"
   height="24"
   viewBox="0 0 6.3499999 6.3500002"
   version="1.1"
   id="svg5013"
   sodipodi:docname="user-desktop.svg"
   inkscape:version="1.1.2 (0a00cf5339, 2022-02-04)"
   xmlns:inkscape="http://www.inkscape.org/namespaces/inkscape"
   xmlns:sodipodi="http://sodipodi.sourceforge.net/DTD/sodipodi-0.dtd"
   xmlns:xlink="http://www.w3.org/1999/xlink"
   xmlns="http://www.w3.org/2000/svg"
   xmlns:svg="http://www.w3.org/2000/svg">
  <sodipodi:namedview
     id="namedview5015"
     pagecolor="#ffffff"
     bordercolor="#666666"
     borderopacity="1.0"
     inkscape:pageshadow="2"
     inkscape:pageopacity="0.0"
     inkscape:pagecheckerboard="0"
     inkscape:document-units="px"
     showgrid="false"
     units="px"
     showguides="true"
     inkscape:zoom="16.979167"
     inkscape:cx="7.9214725"
     inkscape:cy="11.042945"
     inkscape:window-width="1851"
     inkscape:window-height="1016"
     inkscape:window-x="0"
     inkscape:window-y="0"
     inkscape:window-maximized="1"
     inkscape:current-layer="svg5013" />
  <defs
     id="defs5010">
    <linearGradient
       inkscape:collect="always"
       xlink:href="#linearGradient1871"
       id="linearGradient1873"
       x1="10.572266"
       y1="5.7777777"
       x2="10.805839"
       y2="46.70113"
       gradientUnits="userSpaceOnUse"
       gradientTransform="matrix(0.12026516,0,0,0.11615853,0.28863637,0.12267759)" />
    <linearGradient
       inkscape:collect="always"
       id="linearGradient1871">
      <stop
         style="stop-color:#ffffff;stop-opacity:1;"
         offset="0"
         id="stop1867" />
      <stop
         style="stop-color:#ffffff;stop-opacity:0.1"
         offset="0.12"
         id="stop2515" />
      <stop
         style="stop-color:#ffffff;stop-opacity:0.102"
         offset="0.89999998"
         id="stop2581" />
      <stop
         style="stop-color:#ffffff;stop-opacity:0.502"
         offset="1"
         id="stop1869" />
    </linearGradient>
    <linearGradient
       inkscape:collect="always"
       xlink:href="#linearGradient2290"
       id="linearGradient2292"
       x1="8.617857"
       y1="6.4892545"
       x2="-0.15119053"
       y2="1.9774122"
       gradientUnits="userSpaceOnUse"
       gradientTransform="matrix(0.72413793,0,0,0.70370371,0.10948281,0.46063135)" />
    <linearGradient
       inkscape:collect="always"
       id="linearGradient2290">
      <stop
         style="stop-color:#5d863b;stop-opacity:1"
         offset="0"
         id="stop2286" />
      <stop
         style="stop-color:#93b258;stop-opacity:1"
         offset="1"
         id="stop2288" />
    </linearGradient>
  </defs>
  <path
     d="M 1.5275552,0.79381574 C 0.28821992,0.80313574 1.6249999e-8,1.1116258 1.6249999e-8,2.3813158 v 2.1166666 c 0,1.289844 0.297656203750001,1.5875 1.587499983750001,1.5875 h 3.175 c 1.2898438,0 1.5875,-0.297656 1.5875,-1.5875 V 2.3813158 C 6.35,1.0914721 6.0523438,0.79381574 4.7625,0.79381574 h -3.175 c -0.020153,0 -0.040273,-1.48e-4 -0.059945,0 z"
     style="opacity:0.1;fill:#000000;stroke-width:0.264583;stroke-linecap:round;stroke-linejoin:round"
     id="path9125"
     sodipodi:nodetypes="cssssssssc" />
  <path
     id="rect6397"
     style="fill:url(#linearGradient2292);fill-opacity:1;stroke-width:0.182227;stroke-linejoin:round"
     d="M 1.532723,0.66151865 C 0.39666541,0.67006865 0.13229171,0.95284455 0.13229171,2.116727 v 2.1166667 c 0,1.1638823 0.2643736,1.4466584 1.40043129,1.4552084 H 1.5875 4.7625002 c 1.1823568,0 1.4552084,-0.2728519 1.4552084,-1.4552084 V 2.116727 c 0,-1.18235675 -0.2728516,-1.45520835 -1.4552084,-1.45520835 H 1.5875 c -0.018474,0 -0.036744,-1.357e-4 -0.054777,0 z"
     sodipodi:nodetypes="cssccsssssc" />
  <path
     id="rect1059-1-3-9"
     style="display:inline;opacity:0.1;fill:#000000;fill-opacity:1;stroke:none;stroke-width:0.974657;stroke-linecap:round;stroke-linejoin:round;enable-background:new"
     d="M 5.7929688 2.5 C 1.4992081 2.5322998 0.5 3.6010744 0.5 8 L 0.5 14.761719 L 12 11.525391 L 9.953125 2.5 L 6 2.5 C 5.930177 2.5 5.861125 2.4994871 5.7929688 2.5 z "
     transform="scale(0.26458334)" />
  <path
     id="rect1059-2-6-2"
     style="display:inline;opacity:0.12;fill:#eaffcf;fill-opacity:1;stroke:none;stroke-width:0.974657;stroke-linecap:round;stroke-linejoin:round;enable-background:new"
     d="M 12 11.525391 L 14.916016 21.5 L 18 21.5 C 22.46875 21.5 23.5 20.468749 23.5 16 L 23.5 13.548828 L 12 11.525391 z "
     transform="scale(0.26458334)" />
  <path
     d="m 3.175,2.1167864 c -0.7306266,0 -1.3229165,0.5922899 -1.3229167,1.3229167 0,0.7306268 0.5922901,1.3229169 1.3229167,1.3229169 0.730627,0 1.3229167,-0.5922901 1.3229167,-1.3229169 0,-0.7306268 -0.5922897,-1.3229167 -1.3229167,-1.3229167 z m 0.017571,0.396875 c 0.5114388,0 0.9260416,0.4146029 0.9260416,0.9260417 0,0.5114388 -0.4146028,0.9260417 -0.9260416,0.9260417 C 2.8191036,4.364607 2.4828767,4.1392246 2.3399096,3.7942035 l 0.1152385,-0.068213 c 0.1178835,0.3048465 0.4105796,0.5062672 0.7374229,0.5074626 0.4383759,0 0.79375,-0.3553741 0.79375,-0.79375 0,-0.438376 -0.3553741,-0.79375 -0.79375,-0.79375 -0.3266546,0.0014 -0.6190915,0.2027912 -0.7369062,0.5074626 L 2.3399096,3.0852027 C 2.4828767,2.7401815 2.8191033,2.5148076 3.192571,2.5136614 Z m 0,0.3172934 C 3.5288207,2.8308405 3.8014336,3.1034534 3.8013193,3.4397031 3.8014336,3.7759528 3.5288207,4.0485657 3.192571,4.0484514 2.9307192,4.0474724 2.6988563,3.8790852 2.6168955,3.6303891 L 2.7321343,3.5626925 C 2.7863807,3.7661584 2.9719939,3.916255 3.1925715,3.9161592 3.4557586,3.9162735 3.6691424,3.7028897 3.6690281,3.4397026 3.6691424,3.1765154 3.4557586,2.9631316 3.1925715,2.9632459 2.9725625,2.9631504 2.7874332,3.1124982 2.7326513,3.3151624 L 2.6168966,3.2485006 C 2.6990367,3.0000087 2.9308576,2.8318658 3.192572,2.8309551 Z M 2.1047812,3.0929542 2.6923423,3.4397031 2.1042645,3.786452 Z"
     style="opacity:0.3;fill:#000000;fill-opacity:1;stroke-width:0.2278"
     id="path9402" />
  <path
     id="path1715"
     style="fill:#eaffcf;fill-opacity:1;stroke-width:0.2278"
     d="m 3.175,1.8520833 c -0.7306265,0 -1.3229164,0.5922899 -1.3229167,1.3229167 0,0.7306268 0.5922902,1.3229167 1.3229167,1.3229167 0.7306271,0 1.3229167,-0.5922899 1.3229167,-1.3229167 0,-0.7306268 -0.5922896,-1.3229167 -1.3229167,-1.3229167 z m 0.017571,0.396875 c 0.5114388,0 0.9260417,0.4146029 0.9260417,0.9260417 0,0.5114388 -0.4146029,0.9260417 -0.9260417,0.9260417 C 2.8191037,4.099904 2.4828767,3.8745216 2.3399097,3.5295004 L 2.4551481,3.4612874 C 2.5730317,3.7661339 2.8657278,3.9675546 3.192571,3.96875 c 0.438376,0 0.79375,-0.3553741 0.79375,-0.79375 0,-0.438376 -0.355374,-0.79375 -0.79375,-0.79375 C 2.8659164,2.38265 2.5734796,2.5840412 2.4556649,2.8887126 L 2.3399097,2.8204996 C 2.4828767,2.4754784 2.8191034,2.2501045 3.192571,2.2489583 Z m 0,0.3172934 C 3.5288207,2.5661374 3.8014336,2.8387503 3.8013193,3.175 3.8014336,3.5112497 3.5288207,3.7838626 3.192571,3.7837483 2.9307192,3.7827693 2.6988564,3.6143822 2.6168956,3.365686 L 2.7321344,3.2979894 C 2.7863808,3.5014553 2.971994,3.6515519 3.1925715,3.6514561 3.4557587,3.6515704 3.6691425,3.4381866 3.6690282,3.1749995 3.6691425,2.9118123 3.4557587,2.6984285 3.1925715,2.6985428 2.9725626,2.6984473 2.7874333,2.8477951 2.7326514,3.0504593 L 2.6168967,2.9837975 C 2.6990368,2.7353056 2.9308576,2.5671626 3.1925721,2.5662519 Z M 2.1047813,2.8282511 2.6923423,3.175 2.1042646,3.5217489 Z"
     sodipodi:nodetypes="ssssscsccccsccccscccccccccsscccc" />
  <path
     id="rect5096"
     style="opacity:0.4;stroke-width:0.240954;stroke-linecap:round;stroke-linejoin:round"
     d="M 1.5276195,0.52923244 C 0.28828403,0.53855577 6.4159692e-5,0.84704244 6.4159692e-5,2.1167325 v 2.1166666 c 0,1.2898438 0.297656260308,1.5875001 1.587500040308,1.5875001 h 3.1749359 c 1.2898438,0 1.5875,-0.2976563 1.5875,-1.5875001 V 2.1167325 c 0,-1.28984376 -0.2976562,-1.58750006 -1.5875,-1.58750006 H 1.5875642 c -0.020154,0 -0.040273,-1.4798e-4 -0.059945,0 z m 0.032556,0.2645833 c 0.018033,-1.356e-4 0.036303,0 0.054777,0 h 3.1475474 c 1.1823568,0 1.3229167,0.29315996 1.3229167,1.32291676 v 2.1166666 c 0,1.0162919 -0.1405599,1.3229167 -1.3229167,1.3229167 H 1.5875642 c -0.99193699,0 -1.3229167,-0.1405599 -1.3229167,-1.3229167 V 2.1167325 c 0,-0.9607681 0.15947068,-1.31437036 1.295528,-1.32291676 z"
     sodipodi:nodetypes="csssssssscssssssssss" />
  <path
     id="rect1565"
     style="opacity:0.3;fill:url(#linearGradient1873);fill-opacity:1;stroke-width:0.118194"
     d="M 1.5601116,0.79381574 C 0.42405397,0.80236584 0.26458335,1.1559644 0.26458335,2.1167324 v 2.1166667 c 0,1.1823568 0.33097974,1.3229167 1.32291675,1.3229167 h 3.1749976 c 1.1823568,0 1.3229167,-0.3066248 1.3229167,-1.3229167 V 2.1167324 c 0,-1.0297566 -0.1405599,-1.32291666 -1.3229167,-1.32291666 H 1.6148886 c -0.018473,0 -0.036744,-1.356e-4 -0.054777,0 z m 0.00259,0.26458336 h 0.049609 3.0179001 c 1.0641211,0 1.190625,0.1430056 1.190625,1.0583333 v 2.1166667 c 0,0.8938382 -0.1265039,1.0583334 -1.190625,1.0583334 h -2.910419 c -1.02290214,0 -1.19062501,-0.1576914 -1.19062501,-1.0583334 V 2.1167324 c 0,-0.8540052 0.1411647,-1.0583333 1.03352871,-1.0583333 z"
     sodipodi:nodetypes="csssssssscsssssssssss" />
</svg>
