<svg width="24" height="24" version="1.1" xmlns="http://www.w3.org/2000/svg">
 <defs>
  <linearGradient id="linearGradient8830-7" x1="326" x2="330" y1="238" y2="248" gradientTransform="translate(-337,-253)" gradientUnits="userSpaceOnUse">
   <stop stop-color="#fdfdfd" offset="0"/>
   <stop stop-color="#f0f0f0" offset="1"/>
  </linearGradient>
  <linearGradient id="linearGradient6894" x1="328" x2="328" y1="239" y2="249" gradientTransform="translate(-319,-234)" gradientUnits="userSpaceOnUse">
   <stop stop-color="#fff" offset="0"/>
   <stop stop-color="#fff" stop-opacity=".098039" offset=".125"/>
   <stop stop-color="#fff" stop-opacity=".098039" offset=".925"/>
   <stop stop-color="#fff" stop-opacity=".49804" offset="1"/>
  </linearGradient>
 </defs>
 <g transform="translate(2e-4)">
  <rect x="1" y="19" width="21" height="2" rx="1" ry=".93039" enable-background="new" fill="#4d4d4d"/>
  <path d="m1 14.904c0 0.71904 0.0139 1.3018 0.10352 1.8359 0.0897 0.53409 0.27628 1.0683 0.68359 1.4766 0.4073 0.40826 0.94323 0.59657 1.4785 0.68554 0.53529 0.089 1.1205 0.10119 1.8418 0.0977h10.842c0.71816 3e-3 1.3024-9e-3 1.8359-0.0977 0.53528-0.089 1.0712-0.27727 1.4785-0.68554 0.40731-0.40827 0.59394-0.94248 0.68359-1.4766 0.0897-0.53408 0.10352-1.1169 0.10352-1.8359v-6.8082c0-0.71904-0.0137-1.3006-0.10352-1.834-0.0898-0.53341-0.27792-1.0677-0.68554-1.4746s-0.94271-0.59404-1.4766-0.68359c-0.53386-0.0896-1.1155-0.10352-1.8359-0.10352h-10.848c-0.72043 0-1.3021 0.014-1.8359 0.10352-0.53385 0.0895-1.0689 0.27666-1.4766 0.68359-0.40762 0.40693-0.59578 0.9412-0.68554 1.4746-0.0898 0.5334-0.10352 1.1149-0.10352 1.834z" color="#000000" color-rendering="auto" dominant-baseline="auto" image-rendering="auto" opacity=".1" shape-rendering="auto" solid-color="#000000" style="font-feature-settings:normal;font-variant-alternates:normal;font-variant-caps:normal;font-variant-ligatures:normal;font-variant-numeric:normal;font-variant-position:normal;isolation:auto;mix-blend-mode:normal;shape-padding:0;text-decoration-color:#000000;text-decoration-line:none;text-decoration-style:solid;text-indent:0;text-orientation:mixed;text-transform:none;white-space:normal"/>
  <path d="m1.4998 7.0962c0-0.71048 0.0154-1.2734 0.0957-1.752s0.23728-0.89671 0.54688-1.207c0.30959-0.31032 0.7261-0.46726 1.2051-0.54688 0.47897-0.0796 1.0435-0.0933 1.7559-0.0898h12.795c0.71121-3e-3 1.2755 0.0103 1.7539 0.0898 0.47898 0.0796 0.89549 0.23655 1.2051 0.54688 0.3096 0.31033 0.46655 0.72851 0.54688 1.207 0.0803 0.47852 0.0957 1.0415 0.0957 1.752v7.8086c0 0.71048-0.0153 1.2724-0.0957 1.75-0.0804 0.47763-0.23713 0.89584-0.54688 1.2051-0.30975 0.30921-0.72681 0.46469-1.2051 0.54492-0.47826 0.0802-1.042 0.0957-1.7539 0.0957h-12.797c-0.71189 0-1.2756-0.0155-1.7539-0.0957-0.47827-0.0802-0.89533-0.2357-1.2051-0.54492-0.30975-0.30924-0.4665-0.72745-0.54688-1.2051-0.0804-0.47764-0.0957-1.0395-0.0957-1.75z" color="#000000" fill="#4d4d4d"/>
  <rect transform="scale(-1)" x="-20" y="-17" width="17" height="12" rx=".65" ry=".65" enable-background="new" fill="url(#linearGradient8830-7)"/>
  <path d="m5.1016 3c-0.71915 0-1.3048 0.0145-1.8359 0.10352-0.53547 0.0898-1.0673 0.27504-1.4766 0.68359-0.40957 0.4089-0.59739 0.94113-0.6875 1.4766-0.0893 0.5307-0.10156 1.1144-0.10156 1.832v7.8086c0 0.7177 0.0124 1.3026 0.10156 1.834 0.09 0.53651 0.27895 1.069 0.6875 1.4785 0.40843 0.40938 0.93899 0.59814 1.4766 0.6875 0.53194 0.0884 1.1189 0.0992 1.8379 0.0957h12.793c0.71856 3e-3 1.3056-7e-3 1.8379-0.0957 0.53758-0.0893 1.0681-0.27811 1.4766-0.6875 0.40854-0.40951 0.59548-0.94204 0.68554-1.4785 0.0892-0.53135 0.10352-1.1163 0.10352-1.834v-7.8086c0-0.71766-0.0142-1.3013-0.10352-1.832-0.0901-0.53541-0.27596-1.0676-0.68554-1.4766-0.40926-0.40854-0.94112-0.59377-1.4766-0.68359-0.53111-0.08907-1.1168-0.10352-1.8359-0.10352h-3.8984zm0 1h12.797c0.70463 0 1.2464 0.0165 1.6719 0.0879 0.4211 0.0706 0.72335 0.19637 0.9336 0.40625 0.20992 0.20957 0.33557 0.51374 0.40625 0.93359 0.0715 0.42459 0.0898 0.96467 0.0898 1.668v7.8086c0 0.70325-0.0184 1.2442-0.0898 1.6699-0.0706 0.42056-0.1956 0.7244-0.40625 0.93555-0.21076 0.21126-0.51323 0.33639-0.9336 0.40625-0.42463 0.0705-0.96605 0.084-1.6699 0.084h-12.799c-0.70463 3e-3 -1.2464-0.0133-1.6719-0.084-0.42039-0.0699-0.72284-0.195-0.9336-0.40625-0.21065-0.21114-0.33763-0.51504-0.4082-0.93555-0.07143-0.42569-0.08789-0.96668-0.08789-1.6699v-7.8086c0-0.7033 0.0164-1.2434 0.0879-1.668 0.0707-0.41982 0.19828-0.72401 0.4082-0.93359 0.21025-0.20989 0.51253-0.33564 0.9336-0.40625 0.42542-0.0713 0.96724-0.0879 1.6719-0.0879z" color="#000000" color-rendering="auto" dominant-baseline="auto" image-rendering="auto" opacity=".4" shape-rendering="auto" solid-color="#000000" stop-color="#000000" style="font-feature-settings:normal;font-variant-alternates:normal;font-variant-caps:normal;font-variant-east-asian:normal;font-variant-ligatures:normal;font-variant-numeric:normal;font-variant-position:normal;font-variation-settings:normal;inline-size:0;isolation:auto;mix-blend-mode:normal;shape-margin:0;shape-padding:0;text-decoration-color:#000000;text-decoration-line:none;text-decoration-style:solid;text-indent:0;text-orientation:mixed;text-transform:none;white-space:normal"/>
  <path d="m5.1016 4c-2.8134 0-3.1016 0.28801-3.1016 3.0957v7.8086c0 2.8077 0.28819 3.1095 3.1016 3.0957h12.797c2.8134 0.0138 3.1016-0.28801 3.1016-3.0957v-7.8086c0-2.8077-0.28815-3.0957-3.1016-3.0957h-3.8984zm0 1h12.797c0.68627 0 1.1944 0.022 1.5059 0.0742 0.31147 0.0523 0.37643 0.11279 0.39258 0.1289 0.0161 0.0161 0.0767 0.0803 0.1289 0.39063 0.0522 0.31032 0.0742 0.81714 0.0742 1.502v7.8086c0 0.6848-0.0238 1.1921-0.0762 1.5039-0.0523 0.3118-0.11049 0.37803-0.12695 0.39453-0.0165 0.0165-0.0806 0.0754-0.39063 0.12696-0.31005 0.0515-0.81854 0.0703-1.5039 0.0703h-12.804c-0.68538 0-1.1939-0.0188-1.5039-0.0703s-0.37415-0.11045-0.39063-0.12696c-0.0165-0.0165-0.0746-0.0827-0.12695-0.39453-0.05229-0.31177-0.07612-0.81908-0.07612-1.5039v-7.8086c0-0.6848 0.022-1.1916 0.0742-1.502s0.11276-0.3745 0.1289-0.39063c0.0162-0.0161 0.0811-0.0767 0.39258-0.1289s0.81959-0.0742 1.5059-0.0742z" color="#000000" color-rendering="auto" dominant-baseline="auto" fill="url(#linearGradient6894)" image-rendering="auto" opacity=".25" shape-rendering="auto" solid-color="#000000" stop-color="#000000" style="font-feature-settings:normal;font-variant-alternates:normal;font-variant-caps:normal;font-variant-east-asian:normal;font-variant-ligatures:normal;font-variant-numeric:normal;font-variant-position:normal;font-variation-settings:normal;inline-size:0;isolation:auto;mix-blend-mode:normal;shape-margin:0;shape-padding:0;text-decoration-color:#000000;text-decoration-line:none;text-decoration-style:solid;text-indent:0;text-orientation:mixed;text-transform:none;white-space:normal"/>
 </g>
 <path d="m9 13h-1v1h1z" fill="#ed3146"/>
 <path d="m14 13v1h1v-1z" fill="#ed3146"/>
 <path d="m9 12v1h5v-1h-4.1667z" fill="#ed3146" stroke-width=".91287"/>
 <path d="m13 8v2h1v-2z" fill="#ed3146"/>
 <path d="m9 8v2h1v-2z" fill="#ed3146"/>
</svg>
