<svg width="22" height="22" version="1.1" xmlns="http://www.w3.org/2000/svg">
 <defs>
  <style id="current-color-scheme" type="text/css">.ColorScheme-Text { color:#666666; } .ColorScheme-Highlight { color:#4285f4; }</style>
 </defs>
 <path d="m16.5 15c-0.25 0-0.44371-0.0015-0.63281 0.01953-0.18911 0.02101-0.41535 0.0716-0.5957 0.25195-0.18035 0.18035-0.23094 0.4066-0.25195 0.5957s-0.019531 0.38281-0.019531 0.63281v2c0 0.25-6e-3 0.44844 0.0293 0.66016 0.03529 0.21172 0.1591 0.48302 0.38086 0.63086 0.44351 0.29568 0.83984 0.20898 1.5898 0.20898s1.1463 0.08669 1.5898-0.20898c0.22176-0.14784 0.34557-0.41914 0.38086-0.63086s0.029297-0.41016 0.029297-0.66016v-1a0.50005 0.50005 0 0 0-0.5-0.5h-1.5v1h1v0.5c0 0.23227-0.0057 0.38241-0.01563 0.46094 0.025831-0.031587-0.27116 0.039063-0.98437 0.039063s-1.0102-0.07065-0.98438-0.039063c-0.009912-0.078528-0.015625-0.22867-0.015625-0.46094v-2c0-0.23322 0.0031-0.39131 0.01172-0.48828 0.096974-0.008584 0.25506-0.011719 0.48828-0.011719h2.5v-1z" color="#666666" fill="#666666" stroke-linejoin="round" style="-inkscape-stroke:none"/>
</svg>
