<svg width="16" height="16" version="1.1" xmlns="http://www.w3.org/2000/svg">
 <rect transform="matrix(0,-1,-1,0,0,0)" x="-16" y="-16" width="15" height="15" rx="7.5" ry="7.5" enable-background="new" opacity=".2"/>
 <rect transform="matrix(0,-1,-1,0,0,0)" x="-15" y="-16" width="15" height="15" rx="7.5" ry="7.5" enable-background="new" fill="#929ca2"/>
 <path d="m8.4633 0.93933-0.0202 0.57861 0.85877 0.12817 0.57862-0.56029c0.57358 0.12316 1.1167 0.32337 1.6241 0.58593l-0.20142 0.32409 0.57129 0.50721-0.57129 0.47791 0.2234 0.57128 1.2707-0.60424 0.79468 0.60424 0.0421-0.13c0.1725 0.21681 0.32802 0.44699 0.47242 0.68481l-0.802 0.14466-0.47608-0.50903-1.4612 0.0952-0.88988 1.3989 0.60425 1.4923 1.9702 0.60425 0.38086 2.32 0.47607 1.2067 0.33508-0.19044c-1.1191 2.0212-3.2728 3.393-5.7439 3.393-3.6207 0-6.5625-2.942-6.5625-6.5625 0-0.76135 0.13623-1.4895 0.37537-2.1698l0.0311 0.12818 1.0162 0.28565 1.3348 0.9851 0.0311 1.43 0.85876 1.1756 0.50721 3.1787 0.92101 0.5713-0.25268-1.1756 1.5564-2.1606 0.6665-1.4612-1.5564-1.463-1.6846-0.79285-0.69763 0.41199-0.82763-1.2396-0.47607 0.22339-0.41199-0.69946 0.73059-0.38086 0.69763 0.41199 1.2085-1.4923 1.7468-1.0803-0.47608-0.8899-1.43 0.50904-0.17761-0.19775c0.85824-0.41974 1.8172-0.6627 2.8345-0.66834z" color="#000000" color-rendering="auto" fill="#fff" image-rendering="auto" shape-rendering="auto" solid-color="#000000" style="font-feature-settings:normal;font-variant-alternates:normal;font-variant-caps:normal;font-variant-ligatures:normal;font-variant-numeric:normal;font-variant-position:normal;isolation:auto;mix-blend-mode:normal;shape-padding:0;text-decoration-color:#000000;text-decoration-line:none;text-decoration-style:solid;text-indent:0;text-transform:none;white-space:normal"/>
</svg>
