<svg width="16" height="16" version="1.1" xmlns="http://www.w3.org/2000/svg">
 <rect y="9" width="16" height="7" rx="3.5" ry="3.5" opacity=".2"/>
 <rect x="3.5" y="8" width="9" height="7" fill="#455a64"/>
 <circle cx="3.5" cy="11.5" r="3.5" fill="#455a64"/>
 <path d="m5 9a1 1 0 0 0-1 1 1 1 0 0 0 0.023437 0.20898l-1.2695 0.63477a1 1 0 0 0-0.75391-0.34375 1 1 0 0 0-1 1 1 1 0 0 0 1 1 1 1 0 0 0 0.75391-0.34375l1.2676 0.63281a1 1 0 0 0-0.021484 0.21094 1 1 0 0 0 1 1 1 1 0 0 0 1-1 1 1 0 0 0-1-1 1 1 0 0 0-0.75586 0.34375l-1.2676-0.63281a1 1 0 0 0 0.023438-0.21094 1 1 0 0 0-0.023438-0.21094l1.2695-0.63476a1 1 0 0 0 0.75391 0.3457 1 1 0 0 0 1-1 1 1 0 0 0-1-1z" fill="#fff"/>
 <circle cx="12.5" cy="11.5" r="3.5" fill="#ea8500"/>
 <rect x="12" y="9" width="1" height="3" fill="#fff"/>
 <rect x="12" y="13" width="1" height="1" fill="#fff"/>
</svg>
