<svg width="32" height="32" version="1" xmlns="http://www.w3.org/2000/svg">
 <defs>
  <linearGradient id="linearGradient8588-0" x1="13.735" x2="38.1" y1="249.69" y2="292.77" gradientTransform="matrix(.60892 0 0 .60892 .85556 -149.71)" gradientUnits="userSpaceOnUse">
   <stop stop-color="#1a7fd4" offset="0"/>
   <stop stop-color="#37a6e6" offset="1"/>
  </linearGradient>
  <linearGradient id="linearGradient8590-3" x1="96" x2="96" y1="4" y2="188" gradientTransform="matrix(.15217 0 0 .15217 1.3913 1.3913)" gradientUnits="userSpaceOnUse">
   <stop stop-color="#fff" offset="0"/>
   <stop stop-color="#fff" stop-opacity=".098039" offset=".125"/>
   <stop stop-color="#fff" stop-opacity=".098039" offset=".925"/>
   <stop stop-color="#fff" stop-opacity=".49804" offset="1"/>
  </linearGradient>
 </defs>
 <circle transform="scale(-1)" cx="-16" cy="-17" r="15" enable-background="new" opacity=".1"/>
 <circle cx="16" cy="16" r="14.5" enable-background="new" fill="url(#linearGradient8588-0)"/>
 <path d="m15.922 6.8998 2e-3 2e-3c-0.80482 7e-5 -1.5661 0.0922-2.2839 0.27599-0.65163 0.17067-1.2289 0.40362-1.7622 0.67298l0.5447 1.5067c1.0386-0.52723 2.104-0.81585 3.1946-0.81585 0.91689 0 1.6442 0.24237 2.145 0.74242 0.49412 0.47644 0.74441 1.1123 0.74441 1.8661 0 0.46998-0.10997 0.90986-0.32819 1.3104-0.19508 0.38932-0.45086 0.76012-0.76651 1.1109-0.30917 0.34351-0.635 0.68694-0.97818 1.0301l-1e-3 1e-3 -4e-3 1e-3c-0.33444 0.31771-0.6521 0.66929-0.95406 1.0551l-1e-3 1e-3 -6.3e-4 1e-3c-0.297 0.36298-0.54389 0.75865-0.7422 1.1878-0.17654 0.41855-0.26716 0.88686-0.26716 1.411 0 0.31434 0.0365 0.6092 0.0854 0.89699h1.6414c-9.9e-4 -0.0351-9e-3 -0.0667-9e-3 -0.10327v-0.28175c0-0.58507 0.11613-1.1169 0.35032-1.5866 0.22754-0.4726 0.50833-0.90254 0.8415-1.2889l9.9e-4 -1e-3c6.3e-4 -6.3e-4 6.3e-4 -1e-3 1e-3 -4e-3 0.32881-0.39771 0.69218-0.77737 1.0892-1.1398 0.3864-0.35281 0.73879-0.7224 1.0573-1.108 0.31511-0.38144 0.57948-0.78726 0.79483-1.2174v-6.3e-4c0.20889-0.43407 0.31515-0.92567 0.31515-1.4826 0-0.44075-0.073-0.90074-0.22204-1.3804l-9.9e-4 -4e-3 -6.3e-4 -4e-3c-0.12899-0.48387-0.36897-0.91765-0.72649-1.3077-0.35416-0.38634-0.8332-0.70448-1.445-0.95252l-8e-3 -2e-3c-0.58204-0.2587-1.3515-0.39405-2.3067-0.3941zm-0.40737 15.044c-0.49048 0-0.84797 0.14983-1.121 0.45314-0.28041 0.31158-0.41489 0.66265-0.41489 1.0837 0 0.42101 0.13457 0.77277 0.41489 1.0843 0.27306 0.30341 0.63056 0.45226 1.121 0.45226 0.4905 0 0.84861-0.14892 1.1217-0.45226 0.28037-0.31155 0.4149-0.66331 0.4149-1.0843 0-0.42102-0.13444-0.77209-0.4149-1.0837-0.27308-0.3034-0.63118-0.45314-1.1217-0.45314z" enable-background="new" fill="#fff"/>
 <path d="m1.4055 17.333a14.667 14.667 0 0 0 14.594 13.333 14.667 14.667 0 0 0 14.6-13.333z" enable-background="new" fill="#fff" opacity=".1"/>
 <circle cx="16" cy="16" r="14.5" enable-background="new" fill="none" opacity=".4" stroke="#000" stroke-dashoffset="6.6" stroke-linejoin="round"/>
 <path d="m16 2c-7.732 0-14 6.268-14 14s6.268 14 14 14 14-6.268 14-14-6.268-14-14-14zm0 1a13 13 0 0 1 13 13 13 13 0 0 1-13 13 13 13 0 0 1-13-13 13 13 0 0 1 13-13z" enable-background="new" fill="url(#linearGradient8590-3)"/>
</svg>
