<svg width="32" height="32" version="1.1" xmlns="http://www.w3.org/2000/svg">
 <rect y="18" width="32" height="14" rx="7" ry="7" opacity=".2"/>
 <rect x="7" y="17" width="18" height="14" fill="#455a64"/>
 <circle cx="7" cy="24" r="7" fill="#455a64"/>
 <path d="m10 19a2 2 0 0 0-2 2 2 2 0 0 0 0.046874 0.41797l-2.5391 1.2695a2 2 0 0 0-1.5078-0.6875 2 2 0 0 0-2 2 2 2 0 0 0 2 2 2 2 0 0 0 1.5078-0.6875l2.5352 1.2656a2 2 0 0 0-0.042969 0.42188 2 2 0 0 0 2 2 2 2 0 0 0 2-2 2 2 0 0 0-2-2 2 2 0 0 0-1.5117 0.6875l-2.5352-1.2656a2 2 0 0 0 0.046875-0.42188 2 2 0 0 0-0.046875-0.42188l2.5391-1.2695a2 2 0 0 0 1.5078 0.69141 2 2 0 0 0 2-2 2 2 0 0 0-2-2z" fill="#fff"/>
 <circle cx="25" cy="24" r="7" fill="#14ad7a"/>
 <path d="m28.85 20.5-4.55 4.55-2.8-2.8-1.4 1.4 4.2 4.2 5.95-5.95z" fill="#fff"/>
</svg>
