<?xml version="1.0" encoding="UTF-8" standalone="no"?>
<!-- Created with Inkscape (http://www.inkscape.org/) -->

<svg
   width="48"
   height="48"
   viewBox="0 0 12.7 12.7"
   version="1.1"
   id="svg5"
   inkscape:version="1.1.2 (0a00cf5339, 2022-02-04)"
   sodipodi:docname="aisleriot.svg"
   xmlns:inkscape="http://www.inkscape.org/namespaces/inkscape"
   xmlns:sodipodi="http://sodipodi.sourceforge.net/DTD/sodipodi-0.dtd"
   xmlns:xlink="http://www.w3.org/1999/xlink"
   xmlns="http://www.w3.org/2000/svg"
   xmlns:svg="http://www.w3.org/2000/svg">
  <sodipodi:namedview
     id="namedview7"
     pagecolor="#ffffff"
     bordercolor="#666666"
     borderopacity="1.0"
     inkscape:pageshadow="2"
     inkscape:pageopacity="0.0"
     inkscape:pagecheckerboard="0"
     inkscape:document-units="px"
     showgrid="false"
     units="px"
     inkscape:zoom="16.354167"
     inkscape:cx="24.030573"
     inkscape:cy="21.27898"
     inkscape:window-width="1920"
     inkscape:window-height="1017"
     inkscape:window-x="0"
     inkscape:window-y="0"
     inkscape:window-maximized="1"
     inkscape:current-layer="svg5"
     showguides="false"
     inkscape:lockguides="true" />
  <defs
     id="defs2">
    <linearGradient
       inkscape:collect="always"
       id="linearGradient1871">
      <stop
         style="stop-color:#ffffff;stop-opacity:1;"
         offset="0"
         id="stop1867" />
      <stop
         style="stop-color:#ffffff;stop-opacity:0.1"
         offset="0.12"
         id="stop2515" />
      <stop
         style="stop-color:#ffffff;stop-opacity:0.102"
         offset="0.89999998"
         id="stop2581" />
      <stop
         style="stop-color:#ffffff;stop-opacity:0.502"
         offset="1"
         id="stop1869" />
    </linearGradient>
    <linearGradient
       inkscape:collect="always"
       xlink:href="#linearGradient1871"
       id="linearGradient940"
       x1="4.1623774"
       y1="0.52916676"
       x2="4.1623774"
       y2="12.170834"
       gradientUnits="userSpaceOnUse" />
    <linearGradient
       inkscape:collect="always"
       id="linearGradient3598">
      <stop
         style="stop-color:#f5f5f5;stop-opacity:1"
         offset="0"
         id="stop3594" />
      <stop
         style="stop-color:#e8e8e8;stop-opacity:1"
         offset="1"
         id="stop3596" />
    </linearGradient>
    <linearGradient
       inkscape:collect="always"
       xlink:href="#linearGradient3598"
       id="linearGradient1280"
       x1="7.4083333"
       y1="12.303125"
       x2="4.0299401"
       y2="0.39687502"
       gradientUnits="userSpaceOnUse" />
  </defs>
  <path
     d="m 4.0895111,0.52916673 c -0.5731113,0 -1.0243794,0.013253 -1.3956983,0.075865 -0.3713189,0.062611 -0.6751664,0.18005 -0.8977391,0.40309687 C 1.5735062,1.2311758 1.4560312,1.536256 1.3942827,1.9094069 1.3325342,2.2825583 1.3204798,2.7368505 1.3232897,3.3139242 v 3.3006283 3.3022067 c -0.00278,0.5761878 0.00931,1.0302488 0.070993,1.4029988 0.061749,0.373153 0.1792235,0.678233 0.401791,0.90128 0.2225727,0.223046 0.5264202,0.340487 0.8977391,0.403095 0.3713216,0.06261 0.822587,0.07587 1.3956983,0.07587 h 4.5213537 c 0.573114,0 1.024141,-0.01323 1.3946922,-0.07587 0.370549,-0.06264 0.673471,-0.180472 0.895218,-0.403601 0.221753,-0.223125 0.338529,-0.527989 0.400783,-0.900774 0.06225,-0.372779 0.07553,-0.826151 0.07553,-1.4029988 V 6.6145525 3.3124068 c 0,-0.5768475 -0.01328,-1.0302168 -0.07553,-1.4029999 C 11.239304,1.5366243 11.122525,1.2317621 10.900773,1.0086345 10.679025,0.78550693 10.376104,0.66766993 10.005555,0.60503203 9.6350058,0.54239373 9.1839758,0.52916673 8.6108648,0.52916673 Z"
     style="color:#000000;font-style:normal;font-variant:normal;font-weight:normal;font-stretch:normal;font-size:medium;line-height:normal;font-family:sans-serif;font-variant-ligatures:normal;font-variant-position:normal;font-variant-caps:normal;font-variant-numeric:normal;font-variant-alternates:normal;font-feature-settings:normal;text-indent:0;text-align:start;text-decoration:none;text-decoration-line:none;text-decoration-style:solid;text-decoration-color:#000000;letter-spacing:normal;word-spacing:normal;text-transform:none;writing-mode:lr-tb;direction:ltr;text-orientation:mixed;dominant-baseline:auto;baseline-shift:baseline;text-anchor:start;white-space:normal;shape-padding:0;clip-rule:nonzero;display:inline;overflow:visible;visibility:visible;opacity:0.1;isolation:auto;mix-blend-mode:normal;color-interpolation:sRGB;color-interpolation-filters:linearRGB;solid-color:#000000;solid-opacity:1;vector-effect:none;fill:#000000;fill-opacity:1;fill-rule:nonzero;stroke:none;stroke-width:0.529167;stroke-linecap:butt;stroke-linejoin:miter;stroke-miterlimit:4;stroke-dasharray:none;stroke-dashoffset:0;stroke-opacity:1;marker:none;color-rendering:auto;image-rendering:auto;shape-rendering:auto;text-rendering:auto;enable-background:accumulate"
     id="path1706" />
  <path
     d="m 4.0299401,0.39687503 c -2.1779282,0 -2.5859448,0.2398051 -2.5745016,2.57925877 v 3.3738537 3.3739167 c -0.011457,2.3394528 0.3965734,2.5792578 2.5745016,2.5792578 h 4.6405187 c 2.1773862,0 2.5744992,-0.239778 2.5744992,-2.5792578 V 6.3499875 2.9761338 c 0,-2.33948017 -0.397113,-2.57925877 -2.5745012,-2.57925877 z"
     style="color:#000000;display:inline;overflow:visible;visibility:visible;fill:url(#linearGradient1280);fill-opacity:1;fill-rule:nonzero;stroke:none;stroke-width:0.264583;marker:none;enable-background:accumulate"
     id="path1138" />
  <path
     id="rect5299"
     style="opacity:0.2;fill:#ffffff;fill-opacity:1;stroke-width:0.999999"
     d="M 5.5019531 24 L 5.5019531 36.751953 C 5.4586511 45.593978 7.0008822 46.5 15.232422 46.5 L 32.771484 46.5 C 41.000974 46.5 42.501953 45.59408 42.501953 36.751953 L 42.501953 24 L 5.5019531 24 z "
     transform="scale(0.26458333)" />
  <g
     id="g1661"
     transform="translate(0.26458342)">
    <path
       id="path31"
       d="M 3.7048946,1.5875028 2.1794063,5.5495347 H 1.8528113 V 5.8208361 H 2.9111446 V 5.5495347 H 2.6496619 L 2.9891761,4.7568185 H 4.714652 L 5.0278113,5.5495347 H 4.7632279 v 0.2687175 l 1.3229167,0.00258 V 5.5516019 L 5.8215613,5.5495319 4.2340613,1.5875 Z m 0.1467612,0.9131226 0.771529,1.990576 H 3.0806433 Z M 2.7948727,7.1442695 C 2.3198927,7.1770673 1.9091228,7.5566822 1.8579789,8.0579089 1.8299807,8.3961522 1.9010411,8.735467 2.0853552,9.0252916 2.6540241,9.8553424 3.3432224,10.614875 3.9777462,11.377087 4.5789853,10.580506 5.294379,9.8425895 5.8711706,9.0252916 6.0633798,8.6704854 6.1476568,8.2693514 6.0344683,7.8765245 5.8627243,7.4697541 5.6125155,7.1310668 5.1611364,7.1442695 4.6434791,7.1463862 4.0996662,7.6015315 3.9777462,8.084264 3.8316644,7.6930508 3.3542466,7.1831104 2.9054603,7.1442695 Z"
       style="fill:#da1636;fill-opacity:1;stroke-width:0.264583"
       sodipodi:nodetypes="ccccccccccccccccccccccccccccccc" />
    <path
       id="path35"
       d="M 3.7048946,1.5875028 2.1794063,5.5531521 h -0.326595 v 0.064079 h 0.326595 L 3.7048946,1.646414 h 0.5291667 l 1.5875,3.9687499 0.2645833,0.00206 v -0.058391 l -0.2645833,-0.00258 -1.5875,-3.96875 z m -0.6268352,2.9088664 -0.022738,0.058911 h 1.5952515 l -0.022738,-0.058911 z m -0.4314981,1.0567829 -0.01292,0.064079 h 0.2780191 v -0.064079 z m 2.1166666,0.0031 v 0.058911 l 0.2909382,0.00206 -0.022738,-0.058394 z M 2.7948727,7.1442695 c -0.47498,0.032798 -0.8862666,0.4124392 -0.9374106,0.9136394 -0.0045,0.054427 -0.00531,0.1090236 -0.00465,0.1632976 7.937e-4,-0.034743 0.00177,-0.069612 0.00465,-0.1043866 0.051144,-0.5012266 0.462457,-0.8813741 0.9374106,-0.914156 h 0.1105876 c 0.4487863,0.038825 0.9262094,0.549815 1.0722859,0.9410279 0.1219226,-0.4827058 0.6657329,-0.93907 1.1833902,-0.9410279 0.4514056,-0.013203 0.7010474,0.3254846 0.8728149,0.732255 0.032221,0.1118208 0.04784,0.2244923 0.050126,0.3364137 C 6.0870674,8.1400755 6.0718195,8.0079299 6.0339513,7.8765245 5.8622023,7.4697541 5.612542,7.1310668 5.1611364,7.1442695 4.6434791,7.1461216 4.0996662,7.6020749 3.9777462,8.0847807 3.8316697,7.6935678 3.3542466,7.1830839 2.9054603,7.1442695 Z"
       style="opacity:0.5;fill:#ffffff;stroke-width:0.264583"
       sodipodi:nodetypes="ccccccccccccccccccccccccccccccccccccccccccc" />
    <path
       d="m 2.1318642,8.8919666 c 0.034258,0.133051 0.087143,0.261493 0.162264,0.3803385 0.5058038,0.7428709 1.1186799,1.4226589 1.683618,2.1047819 h 0.019121 C 4.4144865,10.821964 4.8915385,10.297545 5.3249524,9.7472115 Z"
       style="opacity:0.1;fill:#ffffff;stroke-width:0.0700042"
       id="path1545" />
  </g>
  <path
     d="m 4.1623773,0.52916673 c -2.3347309,0 -2.5859634,0.2397169 -2.5745201,2.57917067 v 3.2416625 3.2416623 c -0.011457,2.3394528 0.2397892,2.5791708 2.5745201,2.5791708 h 4.3759595 c 2.3347312,0 2.5745202,-0.239691 2.5745202,-2.5791708 V 6.3499999 3.1083374 c 0,-2.33948017 -0.239789,-2.57917067 -2.5745202,-2.57917067 z m 3.0654465,0.286804 c 0.419592,-5.291e-4 0.839258,-0.00122 1.258837,0.00259 0.592942,0.029805 1.221984,-0.042185 1.7926562,0.1793171 0.426148,0.21587107 0.50234,0.74687077 0.52348,1.17667237 0.03932,2.3680137 0.01545,4.74777 0.01757,7.120495 -0.02974,0.639654 0.06181,1.2967968 -0.134874,1.9187448 -0.09316,0.388739 -0.495885,0.558596 -0.8526622,0.618051 -1.88326,0.05654 -3.7716014,0.04578 -5.6575355,0.04393 C 3.5467898,11.846988 2.8613655,11.953808 2.2911699,11.620486 1.8827432,11.324037 1.9260529,10.740361 1.8979144,10.306873 1.8615289,7.8657752 1.8913263,5.3991107 1.8989728,2.9481494 1.9273149,2.4744677 1.8552768,1.9938976 1.9894073,1.5301481 2.0854775,1.1047923 2.5225666,0.89993493 2.9216508,0.86403893 4.3529964,0.80396473 5.7920069,0.83090223 7.2278478,0.81597973 Z"
     style="color:#000000;display:inline;overflow:visible;visibility:visible;opacity:1;fill:url(#linearGradient940);fill-opacity:1;fill-rule:nonzero;stroke:none;stroke-width:0.529167;stroke-miterlimit:4;stroke-dasharray:none;stroke-opacity:1;marker:none;enable-background:accumulate"
     id="path1566" />
  <path
     d="m 4.0300433,0.26458333 c -1.0938483,0 -1.7765421,0.048871 -2.1994098,0.4485513 C 1.6192023,0.91297493 1.4905963,1.1925988 1.4166956,1.5601114 1.3427946,1.927624 1.3202786,2.3878434 1.3231576,2.9765625 v 3.3734374 3.3739543 c -0.00286,0.5884118 0.019659,1.0485558 0.093538,1.4159348 0.073901,0.367512 0.2025041,0.647137 0.4139379,0.846977 0.4228703,0.399679 1.1055615,0.44855 2.1994098,0.44855 H 8.670713 c 1.093579,0 1.773378,-0.04881 2.194761,-0.44855 0.210691,-0.199869 0.338437,-0.479132 0.412904,-0.846461 0.07447,-0.367329 0.09871,-0.827839 0.09871,-1.4164508 V 6.3499999 2.9760457 c 0,-0.5886122 -0.02423,-1.0486051 -0.09871,-1.4159343 C 11.203911,1.1927824 11.076165,0.91300353 10.865474,0.71313463 10.444088,0.31339713 9.7637758,0.26458333 8.6701968,0.26458333 Z m 0,0.2645834 h 4.6401535 c 1.083866,0 1.6913152,0.071183 2.0128532,0.3762044 0.160771,0.15251027 0.268385,0.37132597 0.336425,0.70693357 0.06804,0.3356075 0.09302,0.7826142 0.09302,1.363741 v 3.3739542 3.3739543 c 0,0.5811268 -0.02498,1.0281328 -0.09302,1.3637408 -0.06804,0.335608 -0.175654,0.554424 -0.336425,0.706935 -0.321538,0.305019 -0.9284712,0.376203 -2.0123372,0.376203 H 4.0300433 c -1.0841355,0 -1.6947197,-0.07112 -2.0175034,-0.376203 C 1.8511467,11.642087 1.7435644,11.423115 1.6761195,11.087695 1.6086719,10.752275 1.5849044,10.305477 1.5877487,9.7244712 V 6.3499999 2.9760457 2.9755166 C 1.5849176,2.3945101 1.6086772,1.9477138 1.6761195,1.6122922 1.7435644,1.2768707 1.8511493,1.057901 2.0125399,0.90535863 2.3353236,0.60028643 2.9459078,0.52916673 4.0300433,0.52916673 Z"
     style="color:#000000;display:inline;opacity:0.4;fill:#000000;stroke-width:0.264586;-inkscape-stroke:none;enable-background:new"
     id="path1446" />
</svg>
