<?xml version="1.0" encoding="UTF-8" standalone="no"?>
<!-- Created with Inkscape (http://www.inkscape.org/) -->

<svg
   width="48"
   height="48"
   viewBox="0 0 12.7 12.7"
   version="1.1"
   id="svg5"
   inkscape:version="1.1.2 (0a00cf5339, 2022-02-04)"
   sodipodi:docname="krfb.svg"
   xmlns:inkscape="http://www.inkscape.org/namespaces/inkscape"
   xmlns:sodipodi="http://sodipodi.sourceforge.net/DTD/sodipodi-0.dtd"
   xmlns:xlink="http://www.w3.org/1999/xlink"
   xmlns="http://www.w3.org/2000/svg"
   xmlns:svg="http://www.w3.org/2000/svg">
  <sodipodi:namedview
     id="namedview7"
     pagecolor="#ffffff"
     bordercolor="#666666"
     borderopacity="1.0"
     inkscape:pageshadow="2"
     inkscape:pageopacity="0.0"
     inkscape:pagecheckerboard="0"
     inkscape:document-units="px"
     showgrid="false"
     units="px"
     height="48px"
     showguides="true"
     inkscape:zoom="8.1875003"
     inkscape:cx="29.007633"
     inkscape:cy="39.083968"
     inkscape:window-width="1920"
     inkscape:window-height="995"
     inkscape:window-x="0"
     inkscape:window-y="0"
     inkscape:window-maximized="1"
     inkscape:current-layer="svg5" />
  <defs
     id="defs2">
    <linearGradient
       inkscape:collect="always"
       id="linearGradient1871">
      <stop
         style="stop-color:#ffffff;stop-opacity:1;"
         offset="0"
         id="stop1867" />
      <stop
         style="stop-color:#ffffff;stop-opacity:0.1"
         offset="0.12"
         id="stop2515" />
      <stop
         style="stop-color:#ffffff;stop-opacity:0.102"
         offset="0.89999998"
         id="stop2581" />
      <stop
         style="stop-color:#ffffff;stop-opacity:0.502"
         offset="1"
         id="stop1869" />
    </linearGradient>
    <linearGradient
       inkscape:collect="always"
       xlink:href="#linearGradient1871"
       id="linearGradient1198"
       x1="6.3499999"
       y1="0.52916658"
       x2="6.3499994"
       y2="12.170834"
       gradientUnits="userSpaceOnUse" />
    <linearGradient
       inkscape:collect="always"
       id="linearGradient3598">
      <stop
         style="stop-color:#8c59d9;stop-opacity:1"
         offset="0"
         id="stop3594" />
      <stop
         style="stop-color:#a7a7f1;stop-opacity:1"
         offset="1"
         id="stop3596" />
    </linearGradient>
    <linearGradient
       inkscape:collect="always"
       xlink:href="#linearGradient3598"
       id="linearGradient1142"
       x1="2.5135415"
       y1="1.5874999"
       x2="8.598959"
       y2="11.641666"
       gradientUnits="userSpaceOnUse" />
  </defs>
  <circle
     style="opacity:0.1;fill:#000000;fill-opacity:1;stroke-width:0.529167;stroke-linecap:round;stroke-linejoin:round"
     id="path3625"
     cx="6.3499999"
     cy="6.6145835"
     r="6.0854168" />
  <circle
     style="fill:url(#linearGradient1142);fill-opacity:1;stroke-width:0.529167;stroke-linecap:round;stroke-linejoin:round"
     id="path986-6"
     cx="6.3499999"
     cy="6.3499999"
     r="5.953125" />
  <path
     d="M 5.0271177,0.79375 4.3325864,1.5875 4.9278989,2.1828125 V 2.8050066 L 5.6224302,3.571875 H 6.0193051 V 3.175 l 0.595313,-0.5953125 v -0.396875 l 0.396875,-0.396875 V 1.190625 L 6.6146181,0.79375 Z M 3.6380552,1.0510996 C 3.2672866,1.2418274 2.9175816,1.4709796 2.5946973,1.7347829 l 0.05116,0.05116 H 3.6380446 Z M 2.3482115,2.1828019 V 2.7781144 H 1.8521177 L 1.7069064,2.6329031 C 0.91740218,3.6209644 0.46309278,4.8347915 0.40983958,6.0984156 L 1.0583862,6.7469622 H 1.6536987 L 2.6458862,7.7391497 V 6.5485247 L 3.2411987,5.9532122 h 0.396875 L 4.2333862,5.3578997 H 4.8286987 L 4.5310424,5.0602435 5.1263549,4.3657123 4.5310424,3.7703998 H 3.6380737 v 0.79375 H 3.2411987 L 2.8443237,4.1672748 V 3.7703998 L 3.4396362,3.1750873 H 3.93573 V 2.7782123 L 3.3404175,2.1828998 Z m 6.8460936,0.396875 -0.595312,0.5953125 v 0.4960937 h 0.595312 V 3.3734269 h 0.396875 v 0.396875 l -0.198437,0.1984375 -0.79375,0.013435 -0.297657,0.2842154 h -0.396875 v 0.396875 l -0.297656,0.2976563 v 0.5953125 h 0.595313 l 0.396875,-0.396875 h 0.396875 v 0.1984375 l 0.396875,0.396875 h 0.198437 v -0.198437 l -0.396875,-0.396875 h 0.396875 l 0.396875,0.396875 H 10.484149 L 10.186493,5.2585778 10.484149,4.9609216 h 0.297656 l 0.297656,0.2976562 h -0.297656 l -0.297656,0.2976563 0.292497,0.2924968 0.0052,0.3028156 h -0.396908 l 1.190625,1.190625 H 11.774 L 11.972438,7.143734 12.278349,6.8378228 c 0.0038,-0.05766 0.0067,-0.1153716 0.0088,-0.1731169 L 11.972438,6.349984 h 0.330729 C 12.302067,5.0301228 11.862303,3.7480623 11.053117,2.7053487 L 10.781813,2.9766524 10.384938,2.5797774 Z M 10.38493,6.1515518 H 9.1943051 L 8.9958681,5.9531143 h -1.190625 l -0.694532,0.6945313 v 0.9921875 l 0.496094,0.4960937 h 0.694531 l 0.297657,0.2976563 v 0.2976562 l 0.198437,0.1984375 v 1.1906252 l 0.753454,0.796343 1.2443619,-1.2443622 -0.01344,-1.1394545 0.992188,-0.9921875 H 11.377123 L 10.384935,6.5484533 Z M 6.5153991,3.3734269 v 0.2976562 h 0.595312 L 6.8130551,3.3734269 Z m 1.785937,0.099219 -0.297656,0.2976562 v 0.2976562 h 0.297656 z M 5.2255552,4.5640519 4.9278989,4.8617081 h 0.2976563 l 0.099219,0.099219 h 0.099219 l 0.099219,-0.099219 z M 3.5388364,6.6476456 3.2411802,6.9453018 H 3.8364927 V 6.6476456 Z m -0.2976562,0.8929687 -0.396875,0.396875 v 0.9921875 l 0.7963429,0.6976269 -0.00265,0.8898733 -0.2976563,0.297656 v 0.664051 c 0.157579,0.09231 0.3193222,0.177323 0.4847167,0.254765 L 4.9278989,10.715612 V 10.318737 L 5.5232114,9.7234241 V 9.4257679 L 5.8208677,9.1281117 v -0.79375 l -0.396875,-0.396875 h -0.79375 l -0.396875,-0.396875 z m 8.2351558,1.3890625 -0.396875,0.3699933 v 0.6221942 h 0.02376 C 11.237975,9.743165 11.362545,9.5570084 11.476336,9.3642814 Z"
     style="color:#000000;opacity:0.25;fill:#ffffff;stroke-width:0.264583"
     id="path1142" />
  <path
     d="M 3.9541344,0.90848127 C 3.8602433,0.94760785 3.7673706,0.98913474 3.6756075,1.0330207 3.5448504,2.4759788 3.5029113,3.8942248 3.5975766,5.2446581 2.7290553,4.7044054 1.8922841,4.1355777 1.0897235,3.5698192 1.0499182,3.6478617 1.0118407,3.7267737 0.97551873,3.8064969 1.7546902,4.355375 2.5563248,4.9065021 3.4006895,5.4342929 2.3653221,5.8218546 1.375066,6.3180542 0.43444583,6.9592719 c 0.00956,0.09933 0.021627,0.1984036 0.036174,0.2971271 C 1.4656117,6.5621058 2.5191032,6.034606 3.627628,5.6316986 3.6892256,6.3131594 3.7829569,6.9778192 3.9221886,7.6160735 4.0736837,8.3105783 4.2759629,8.9760054 4.5340375,9.6051052 4.1553659,9.7307346 3.7766677,9.8310699 3.4100875,9.9068889 2.8015988,10.032749 2.229649,10.093314 1.7409371,10.112044 c 0.071828,0.08666 0.1461003,0.171276 0.2227263,0.25373 0.4537339,-0.02753 0.9614958,-0.08816 1.4996583,-0.199472 0.3827727,-0.07917 0.7789333,-0.1836364 1.1761523,-0.3162562 0.3994944,0.9058802 0.9252214,1.7288402 1.5936912,2.4473962 0.03891,0.0023 0.077842,0.0042 0.1167897,0.0057 0.081356,-0.0013 0.162678,-0.0042 0.2439141,-0.0088 C 5.8687784,11.563138 5.3083115,10.709539 4.8875182,9.7591033 6.0003822,9.3529149 7.1006255,8.7137345 7.9204369,7.7297756 c 1.252061,0.4703498 2.5562451,0.8072966 3.9097481,0.9446418 0.0333,-0.084537 0.06466,-0.1698262 0.09405,-0.2557991 C 9.0677949,8.1451185 6.4190509,6.9512127 4.0116072,5.4984121 5.5190971,4.9946719 7.1265467,4.7077577 8.8272879,4.5423931 8.5873909,5.5147633 8.2480099,6.4548543 7.8299415,7.3525327 L 8.0697201,7.4641551 C 8.5070759,6.5250695 8.8604539,5.5388351 9.1058289,4.5164322 10.028007,4.4341838 10.976803,4.3839183 11.951687,4.3521021 11.921438,4.266107 11.889217,4.1808183 11.85505,4.096303 10.940677,4.1270581 10.040062,4.1685078 9.1684709,4.2440966 9.3778779,3.2899297 9.4893319,2.3047801 9.4847279,1.297432 9.3979579,1.2410538 9.3097339,1.1869476 9.2201439,1.1351683 9.2393269,2.2081067 9.1213359,3.2561477 8.8925109,4.2699517 7.1207814,4.4373615 5.4412858,4.7329725 3.8654275,5.2667958 3.7652748,3.8762781 3.8122727,2.4063854 3.954309,0.90831458 Z M 3.9019427,5.7424187 C 5.0930174,6.4602862 6.3444172,7.117961 7.6558509,7.6327343 6.8771557,8.5342227 5.8383487,9.1311756 4.7822114,9.5152977 4.5289681,8.8992418 4.3302237,8.245377 4.1807077,7.5598681 4.0531864,6.9752712 3.9631302,6.3672587 3.9021808,5.7424187 Z"
     style="color:#000000;font-variant-ligatures:normal;font-variant-position:normal;font-variant-caps:normal;font-variant-numeric:normal;font-variant-alternates:normal;font-feature-settings:normal;text-indent:0;text-decoration-line:none;text-decoration-style:solid;text-decoration-color:#000000;text-transform:none;text-orientation:mixed;dominant-baseline:auto;white-space:normal;shape-padding:0;opacity:0.5;isolation:auto;mix-blend-mode:normal;solid-color:#000000;fill:#ffffff;fill-rule:evenodd;stroke-width:0.264583;color-rendering:auto;image-rendering:auto;shape-rendering:auto"
     id="path923" />
  <path
     id="ellipse29"
     d="M 9.1281251,3.96875 A 0.396875,0.39756291 0 0 0 8.7312501,4.3661417 0.396875,0.39756291 0 0 0 9.1281251,4.7640501 0.396875,0.39756291 0 0 0 9.5250001,4.3661417 0.396875,0.39756291 0 0 0 9.1281251,3.96875 Z M 3.8364585,5.0270833 A 0.396875,0.39756291 0 0 0 3.4395835,5.424475 0.396875,0.39756291 0 0 0 3.8364585,5.8223835 0.396875,0.39756291 0 0 0 4.2333335,5.424475 0.396875,0.39756291 0 0 0 3.8364585,5.0270833 Z M 7.8052084,7.1437499 A 0.396875,0.39756291 0 0 0 7.4083334,7.5411416 0.396875,0.39756291 0 0 0 7.8052084,7.9390501 0.396875,0.39756291 0 0 0 8.2020834,7.5411416 0.396875,0.39756291 0 0 0 7.8052084,7.1437499 Z M 4.8947918,9.2604166 a 0.396875,0.39756291 0 0 0 -0.396875,0.3973917 0.396875,0.39756291 0 0 0 0.396875,0.3979087 0.396875,0.39756291 0 0 0 0.396875,-0.3979087 0.396875,0.39756291 0 0 0 -0.396875,-0.3973917 z"
     style="fill:#ffffff;fill-opacity:1;stroke-width:0.264583" />
  <path
     id="path854"
     style="opacity:0.4;fill:#000000;stroke-width:0.529167;stroke-linecap:round;stroke-linejoin:round"
     d="M 6.3499999,0.26458333 A 6.0854166,6.0854166 0 0 0 0.26458333,6.3499999 6.0854166,6.0854166 0 0 0 6.3499999,12.435417 6.0854166,6.0854166 0 0 0 12.435417,6.3499999 6.0854166,6.0854166 0 0 0 6.3499999,0.26458333 Z m 0,0.26458333 A 5.8208333,5.8208333 0 0 1 12.170833,6.3499999 5.8208333,5.8208333 0 0 1 6.3499999,12.170833 5.8208333,5.8208333 0 0 1 0.52916666,6.3499999 5.8208333,5.8208333 0 0 1 6.3499999,0.52916666 Z" />
  <path
     id="path1110"
     style="fill:url(#linearGradient1198);fill-opacity:1;stroke-width:0.529167;stroke-linecap:round;stroke-linejoin:round"
     d="M 6.3499999,0.52916666 A 5.8208333,5.8208333 0 0 0 0.52916666,6.3499999 5.8208333,5.8208333 0 0 0 6.3499999,12.170833 5.8208333,5.8208333 0 0 0 12.170833,6.3499999 5.8208333,5.8208333 0 0 0 6.3499999,0.52916666 Z m 0,0.26458333 A 5.5562499,5.5562499 0 0 1 11.90625,6.3499999 5.5562499,5.5562499 0 0 1 6.3499999,11.90625 5.5562499,5.5562499 0 0 1 0.79374999,6.3499999 5.5562499,5.5562499 0 0 1 6.3499999,0.79374999 Z" />
  <circle
     style="fill:#5884f4;fill-opacity:1;stroke-width:0.264583"
     id="path980"
     cx="9.5249996"
     cy="9.5249996"
     r="3.0427084" />
  <path
     d="m 9.2412971,7.5406255 c -0.1190625,0.00132 -0.2063295,-0.00325 -0.2775024,0.036174 -0.036773,0.021103 -0.064809,0.054638 -0.079065,0.094568 -0.01561,0.04154 -0.021188,0.090268 -0.021188,0.1524452 v 0.4914429 c 0,0.062177 0.00584,0.1114227 0.021188,0.1529623 0.014388,0.039881 0.042632,0.07326 0.079582,0.094051 0.070908,0.039158 0.1579232,0.035367 0.2769857,0.03669 h 0.1524455 l -0.00103,0.5291667 H 8.4666691 c -0.1764761,0 -0.3011652,0.108041 -0.3498485,0.2056723 -0.048948,0.097898 -0.047026,0.1912025 -0.047026,0.1912025 v 0.396875 H 7.9183804 c -0.1190625,0.0013 -0.2063295,-0.0032 -0.2775024,0.03617 -0.036773,0.0211 -0.064809,0.05464 -0.079065,0.09457 -0.01561,0.04154 -0.021188,0.09027 -0.021188,0.152446 v 0.491443 c 0,0.06218 0.00584,0.111422 0.021188,0.152962 0.014388,0.03988 0.042633,0.07326 0.079582,0.09405 0.070908,0.03916 0.1579231,0.03537 0.2769856,0.03669 h 0.5679242 c 0.1190625,-0.0013 0.2058127,0.0027 0.2769856,-0.03669 0.036949,-0.02079 0.065194,-0.05417 0.079582,-0.09405 0.015346,-0.04154 0.021188,-0.09079 0.021188,-0.152962 v -0.491443 c 0,-0.06218 -0.00584,-0.111171 -0.021188,-0.152446 -0.014364,-0.04003 -0.042599,-0.07358 -0.079582,-0.09457 -0.071173,-0.03969 -0.1579231,-0.03485 -0.2769856,-0.03617 H 8.4857754 8.3343758 v -0.396875 c 0,0 0.00193,-0.03899 0.019121,-0.07338 0.017462,-0.03466 0.025064,-0.05891 0.1131703,-0.05891 h 2.1166679 c 0.08811,0 0.09571,0.02425 0.113171,0.05891 0.0172,0.03439 0.01912,0.07338 0.01912,0.07338 v 0.396875 h -0.151411 c -0.119062,0.0013 -0.206329,-0.0032 -0.277502,0.03617 -0.03677,0.0211 -0.06481,0.05464 -0.07907,0.09457 -0.01561,0.04154 -0.02119,0.09027 -0.02119,0.152446 v 0.491443 c 0,0.06218 0.0058,0.111422 0.02119,0.152962 0.01439,0.03988 0.04263,0.07326 0.07958,0.09405 0.07091,0.03916 0.157923,0.03537 0.276985,0.03669 h 0.567925 c 0.119062,-0.0013 0.205812,0.0027 0.276985,-0.03669 0.03695,-0.02079 0.06519,-0.05417 0.07958,-0.09405 0.01535,-0.04154 0.02119,-0.09079 0.02119,-0.152962 v -0.491443 c 0,-0.06218 -0.0058,-0.111171 -0.02119,-0.152446 -0.01436,-0.04003 -0.0426,-0.07358 -0.07958,-0.09457 -0.07117,-0.03969 -0.157923,-0.03485 -0.276985,-0.03617 h -5.3e-4 -0.151399 v -0.396875 c 0,0 0.0019,-0.09331 -0.04703,-0.1912025 C 10.86374,9.2056595 10.729072,9.1264893 10.583335,9.1281255 H 9.6578092 l 0.00103,-0.5291667 h 0.1503781 c 0.119063,-0.00132 0.2058127,0.00273 0.2769857,-0.03669 0.03695,-0.020791 0.06519,-0.054171 0.07958,-0.094051 0.01534,-0.04154 0.02119,-0.090785 0.02119,-0.1529623 V 7.8238122 c 0,-0.062177 -0.0058,-0.1111702 -0.02119,-0.1524452 -0.01436,-0.040025 -0.0426,-0.073576 -0.07958,-0.094568 C 10.015033,7.537112 9.9282803,7.541948 9.8092173,7.540625 h -5.29e-4 z"
     style="color:#000000;font-weight:400;font-variant-ligatures:normal;font-variant-position:normal;font-variant-caps:normal;font-variant-numeric:normal;font-variant-alternates:normal;font-feature-settings:normal;text-indent:0;text-decoration-line:none;text-decoration-style:solid;text-decoration-color:#000000;text-transform:none;text-orientation:mixed;white-space:normal;shape-padding:0;isolation:auto;mix-blend-mode:normal;fill:#ffffff;fill-opacity:0.94118;stroke-width:0.264583"
     id="path910" />
  <path
     id="path1488"
     style="opacity:0.4;fill:#000000;fill-opacity:1;stroke-width:0.264583"
     d="M 9.525,6.35 A 3.175,3.175 0 0 0 6.35,9.5250003 3.175,3.175 0 0 0 9.525,12.700001 3.175,3.175 0 0 0 12.7,9.5250003 3.175,3.175 0 0 0 9.525,6.35 Z m 0,0.2645833 A 2.9104166,2.9104166 0 0 1 12.435416,9.5250003 2.9104166,2.9104166 0 0 1 9.525,12.435417 2.9104166,2.9104166 0 0 1 6.6145834,9.5250003 2.9104166,2.9104166 0 0 1 9.525,6.6145833 Z" />
</svg>
