<?xml version="1.0" encoding="UTF-8" standalone="no"?>
<!-- Created with Inkscape (http://www.inkscape.org/) -->

<svg
   width="48"
   height="48"
   viewBox="0 0 12.7 12.7"
   version="1.1"
   id="svg2304"
   inkscape:version="1.1.2 (0a00cf5339, 2022-02-04, custom)"
   sodipodi:docname="libreoffice-impress.svg"
   xmlns:inkscape="http://www.inkscape.org/namespaces/inkscape"
   xmlns:sodipodi="http://sodipodi.sourceforge.net/DTD/sodipodi-0.dtd"
   xmlns:xlink="http://www.w3.org/1999/xlink"
   xmlns="http://www.w3.org/2000/svg"
   xmlns:svg="http://www.w3.org/2000/svg">
  <sodipodi:namedview
     id="namedview2306"
     pagecolor="#ffffff"
     bordercolor="#666666"
     borderopacity="1.0"
     inkscape:pageshadow="2"
     inkscape:pageopacity="0.0"
     inkscape:pagecheckerboard="0"
     inkscape:document-units="px"
     showgrid="false"
     units="px"
     inkscape:zoom="15.145833"
     inkscape:cx="24"
     inkscape:cy="24"
     inkscape:window-width="1489"
     inkscape:window-height="929"
     inkscape:window-x="216"
     inkscape:window-y="34"
     inkscape:window-maximized="0"
     inkscape:current-layer="svg2304" />
  <defs
     id="defs2301">
    <linearGradient
       inkscape:collect="always"
       id="linearGradient3622">
      <stop
         style="stop-color:#e76428;stop-opacity:1"
         offset="0"
         id="stop3618" />
      <stop
         style="stop-color:#b44920;stop-opacity:1"
         offset="1"
         id="stop3620" />
    </linearGradient>
    <linearGradient
       inkscape:collect="always"
       id="linearGradient2944">
      <stop
         style="stop-color:#f2f2f2;stop-opacity:1;"
         offset="0"
         id="stop2940" />
      <stop
         style="stop-color:#ffffff;stop-opacity:1"
         offset="1"
         id="stop2942" />
    </linearGradient>
    <linearGradient
       inkscape:collect="always"
       id="linearGradient1871">
      <stop
         style="stop-color:#ffffff;stop-opacity:1;"
         offset="0"
         id="stop1867" />
      <stop
         style="stop-color:#ffffff;stop-opacity:0.1"
         offset="0.12"
         id="stop2515" />
      <stop
         style="stop-color:#ffffff;stop-opacity:0.102"
         offset="0.89999998"
         id="stop2581" />
      <stop
         style="stop-color:#ffffff;stop-opacity:0.502"
         offset="1"
         id="stop1869" />
    </linearGradient>
    <linearGradient
       inkscape:collect="always"
       xlink:href="#linearGradient1871"
       id="linearGradient2435"
       x1="4.0299802"
       y1="0.29765674"
       x2="4.0299802"
       y2="12.46849"
       gradientUnits="userSpaceOnUse" />
    <linearGradient
       inkscape:collect="always"
       xlink:href="#linearGradient2944"
       id="linearGradient2946"
       x1="4.3671341"
       y1="0.56224287"
       x2="8.861475"
       y2="11.674743"
       gradientUnits="userSpaceOnUse" />
    <linearGradient
       inkscape:collect="always"
       xlink:href="#linearGradient3622"
       id="linearGradient3624"
       x1="8.8635616"
       y1="12.187369"
       x2="4.0299802"
       y2="0.29765674"
       gradientUnits="userSpaceOnUse" />
    <linearGradient
       inkscape:collect="always"
       xlink:href="#linearGradient3503"
       id="linearGradient3505"
       x1="6.0854168"
       y1="7.9375"
       x2="6.0854168"
       y2="3.7041667"
       gradientUnits="userSpaceOnUse"
       gradientTransform="translate(-2e-8,1.0583335)" />
    <linearGradient
       inkscape:collect="always"
       id="linearGradient3503">
      <stop
         style="stop-color:#ffffff;stop-opacity:0.6"
         offset="0"
         id="stop3499" />
      <stop
         style="stop-color:#ffffff;stop-opacity:0.851"
         offset="1"
         id="stop3501" />
    </linearGradient>
    <linearGradient
       inkscape:collect="always"
       xlink:href="#linearGradient3503"
       id="linearGradient5247"
       x1="8.1526117"
       y1="7.0414181"
       x2="8.1526117"
       y2="5.453918"
       gradientUnits="userSpaceOnUse"
       gradientTransform="translate(0.31405511,1.1606655)" />
    <linearGradient
       inkscape:collect="always"
       xlink:href="#linearGradient5855"
       id="linearGradient5857"
       x1="6.0854168"
       y1="-1.5875002"
       x2="6.0854168"
       y2="15.081249"
       gradientUnits="userSpaceOnUse"
       gradientTransform="translate(-2e-8,1.0583335)" />
    <linearGradient
       inkscape:collect="always"
       id="linearGradient5855">
      <stop
         style="stop-color:#a33e03;stop-opacity:1;"
         offset="0"
         id="stop5851" />
      <stop
         style="stop-color:#622502;stop-opacity:1"
         offset="1"
         id="stop5853" />
    </linearGradient>
  </defs>
  <path
     d="m 8.8642169,0.39687413 c -0.03511,3.47e-5 -0.06774,0.00334 -0.09715,0.00775 l -0.02066,0.0031 -0.02016,0.0062 c -0.231706,0.073851 -0.368861,0.2730243 -0.413927,0.4743894 -0.04016,0.17942237 0.0031,0.38222707 0.135908,0.54260267 l -0.09612,-0.096118 -0.0026,-0.00206 -5.29e-4,-0.00103 c 0,0 -5.29e-4,0.00101 -5.29e-4,0.00103 -0.07483,-0.070723 -0.147336,-0.1387803 -0.220657,-0.2030883 h -5.29e-4 l -5.29e-4,-0.00103 -5.3e-4,-5.292e-4 c 0,0 -0.0016,-5.027e-4 -0.0016,-5.291e-4 -0.07173,-0.062848 -0.143034,-0.1219616 -0.214458,-0.17725017 0,0 -0.0016,-0.00101 -0.0016,-0.00103 -4.7e-5,-2.3e-5 -0.0016,-0.00101 -0.0016,-0.00103 -0.07123,-0.055036 -0.143555,-0.1074121 -0.218591,-0.1555461 h -5.29e-4 l -5.43e-4,-5.339e-4 c 0,3e-7 -0.0011,-5.027e-4 -0.0011,-5.292e-4 -0.07325,-0.0469 -0.148161,-0.090267 -0.226859,-0.129191 3e-6,0 -0.0016,-5.027e-4 -0.0016,-5.291e-4 -0.0783,-0.038651 -0.159819,-0.072995 -0.24443,-0.1023194 l -0.0011,-5.292e-4 h -5.29e-4 -5.29e-4 c -0.0841,-0.029047 -0.171706,-0.053656 -0.263033,-0.072864 0,-2e-7 -0.0024,1.93e-5 -0.0026,0 -0.09044,-0.01892 -0.184324,-0.033599 -0.2831857,-0.042891 H 6.661789 c -0.099666,-0.00935 -0.2034064,-0.01342 -0.3116104,-0.013436 h -5.291e-4 -2.187411 c -1.0984441,0 -1.816473,0.038249 -2.2892649,0.4847248 C 1.6365063,1.1379638 1.4971741,1.4478073 1.4198205,1.8313473 1.3424695,2.2148878 1.3202845,2.5500636 1.3231845,3.1428424 V 6.5152462 9.889201 c -0.00286,0.591878 0.019368,1.059158 0.096636,1.442288 0.077354,0.383543 0.2166831,0.693386 0.4532021,0.916742 0.05833,0.05508 0.1226926,0.105542 0.1922357,0.14986 l 0.00106,5.29e-4 0.00159,0.0011 c 0,0 0.00291,0.0011 0.0031,0.0011 0.065982,0.04164 0.1360329,0.0787 0.2108412,0.110588 l 0.00159,5.29e-4 c 2.646e-4,1.53e-4 7.937e-4,7.94e-4 0.00106,0.0011 h 5.292e-4 c 2.646e-4,7.7e-5 0.00265,7.94e-4 0.0031,0.0011 0.07557,0.03187 0.1554136,0.05997 0.2397787,0.0832 h 5.291e-4 5.292e-4 c 0.083928,0.02307 0.1723972,0.04284 0.2661338,0.05891 h 0.00106 5.292e-4 5.292e-4 c 0.093173,0.01593 0.18982,0.02813 0.291457,0.03824 5.3e-6,0 0.00132,-3e-6 0.00159,0 0.1016926,0.01008 0.2084255,0.01807 0.3209105,0.02379 h 0.00106 5.292e-4 c 1.243e-4,3e-6 0.00132,-3e-6 0.00159,0 l 0.00106,5.29e-4 c 9.26e-5,3e-6 0.019738,-1.8e-5 0.019129,0 0.221197,0.01072 0.9956297,0.01498 0.728636,0.01498 h 5.292e-4 4.5076825 c 1.09088,0 1.6713437,-0.0375 2.1436597,-0.476973 0.236267,-0.219649 0.376801,-0.525012 0.456303,-0.902271 0.0795,-0.377262 0.105047,-0.836432 0.106452,-1.418 V 4.933571 4.9330418 C 11.375398,4.429821 11.063235,4.036271 10.763348,3.7315647 10.663664,3.63026 10.562961,3.537464 10.469825,3.4535455 l -0.07545,-0.068213 h 0.0072 l -0.0031,-0.0031 h -5.29e-4 l -0.01344,-0.013435 c 0.19058,0.1488657 0.433816,0.1623475 0.625801,0.084233 0.206467,-0.084009 0.397454,-0.2765867 0.407728,-0.5451864 v -0.00517 -0.4314457 -0.00156 c 0.0021,-0.4307187 0.0096,-0.7585999 -0.0072,-1.0252604 -0.01688,-0.2670636 -0.05445,-0.48959587 -0.19482,-0.67386067 -0.14037,-0.1842646 -0.360419,-0.2723124 -0.604613,-0.3126425 -0.244192,-0.04033 -0.538514,-0.047402 -0.9322441,-0.056327 h -0.0031 -0.752531 -5.29e-4 c -0.01931,-0.00183 -0.03808,-0.0046 -0.05839,-0.00465 z M 2.362859,12.005931 c 2.037e-4,1.11e-4 2.645e-4,5.29e-4 5.291e-4,5.29e-4 -0.00884,7.94e-4 -0.01823,0.0016 -0.018097,0.0016 1.376e-4,-2.1e-5 0.00886,-0.0011 0.017568,-0.0021 z m -0.00826,0.525034 c 0.00132,6.8e-5 0.00886,0.0011 0.017066,0.0016 -0.00696,-2.64e-4 -0.015505,-0.0011 -0.015505,-0.0011 z"
     style="color:#000000;font-style:normal;font-variant:normal;font-weight:normal;font-stretch:normal;font-size:medium;line-height:normal;font-family:sans-serif;font-variant-ligatures:normal;font-variant-position:normal;font-variant-caps:normal;font-variant-numeric:normal;font-variant-alternates:normal;font-feature-settings:normal;text-indent:0;text-align:start;text-decoration:none;text-decoration-line:none;text-decoration-style:solid;text-decoration-color:#000000;letter-spacing:normal;word-spacing:normal;text-transform:none;writing-mode:lr-tb;direction:ltr;text-orientation:mixed;dominant-baseline:auto;baseline-shift:baseline;text-anchor:start;white-space:normal;shape-padding:0;clip-rule:nonzero;display:inline;overflow:visible;visibility:visible;opacity:0.1;isolation:auto;mix-blend-mode:normal;color-interpolation:sRGB;color-interpolation-filters:linearRGB;solid-color:#000000;solid-opacity:1;vector-effect:none;fill:#000000;fill-opacity:1;fill-rule:nonzero;stroke:none;stroke-width:0.529167;stroke-linecap:butt;stroke-linejoin:miter;stroke-miterlimit:4;stroke-dasharray:none;stroke-dashoffset:0;stroke-opacity:1;marker:none;color-rendering:auto;image-rendering:auto;shape-rendering:auto;text-rendering:auto;enable-background:accumulate"
     id="path1456" />
  <path
     d="M 4.1184381,0.71025223 C 3.4391496,0.76251933 2.6379357,0.64437413 2.0772201,1.1076439 1.6505398,1.7960236 1.803969,2.6686951 1.7444219,3.4387678 c -0.015055,2.4398377 -0.064146,4.8869559 0.05271,7.3194512 0.02368,0.568571 0.3296973,1.200269 0.9720342,1.232998 1.7835324,0.11638 3.597259,0.04281 5.3929518,0.05064 0.761659,-0.0468 1.550985,0.06724 2.2841001,-0.186552 0.607124,-0.397328 0.437169,-1.21547 0.496094,-1.833481 0.0047,-1.8006488 0.08384,-3.6253983 -0.0093,-5.4317095 C 10.719366,4.1023139 10.233261,3.7666971 9.8974039,3.3628033 9.0447279,2.5437202 8.2736559,1.6184096 7.3094479,0.92729313 6.7193819,0.56272403 5.9872272,0.79079513 5.328174,0.71490303 4.9249119,0.70999243 4.5217134,0.70608183 4.1184276,0.71025173 Z"
     style="color:#000000;display:inline;overflow:visible;visibility:visible;fill:url(#linearGradient2946);fill-opacity:1;fill-rule:nonzero;stroke:none;stroke-width:0.264583;marker:none;enable-background:accumulate"
     id="path1320" />
  <path
     d="m 8.8637929,0.39687413 c -0.01963,0 -0.039,0.00175 -0.05839,0.00465 -0.248881,0.079325 -0.333465,0.456261 -0.141595,0.63355297 L 10.6518,3.0230694 c 0.208076,0.1973554 0.622588,0.028779 0.633553,-0.2578652 V 2.2050329 c 0.0089,-1.73501047 0.0905,-1.76789447 -1.4805291,-1.80350737 h -0.882116 c -0.01939,-0.00299 -0.03928,-0.00465 -0.05891,-0.00465 z M 4.02998,0.42994703 c -2.1779283,0 -2.5859634,0.239717 -2.5745202,2.57917077 V 6.383072 9.757026 c -0.011456,2.339456 0.3965919,2.579171 2.5745202,2.579171 h 4.6405429 c 2.1622861,0 2.5679481,-0.23876 2.5734861,-2.533179 V 4.8012563 C 11.241627,4.2839245 10.789521,3.8469902 10.423388,3.5170971 l -0.0031,-0.00259 L 8.1666779,1.2603812 C 7.5728009,0.69904423 7.1622579,0.42994703 6.3497355,0.42994703 Z M 7.0117099,1.3559887 10.319002,4.6632803 v 5.9531257 c 0,0 -0.04411,0.48506 -0.176398,0.617352 -0.132292,0.132291 -0.6173521,0.176397 -0.6173521,0.176397 H 3.1752515 c 0,0 -0.4850606,-0.04411 -0.6173523,-0.176397 C 2.4256075,11.101466 2.3815015,10.616406 2.3815015,10.616406 V 2.1497387 c 0,0 0.044106,-0.4850606 0.1763977,-0.6173523 C 2.6901909,1.4000947 3.1752515,1.3559887 3.1752515,1.3559887 Z"
     style="color:#000000;display:inline;overflow:visible;visibility:visible;fill:url(#linearGradient3624);fill-opacity:1;fill-rule:nonzero;stroke:none;stroke-width:0.0543729;marker:none;enable-background:accumulate"
     id="path121" />
  <path
     d="m 8.8178929,0.52916583 -0.03824,0.032039 c -0.0764,0.064283 -0.11462,0.1980616 -0.08423,0.2940389 0.0019,0.00574 0.01852,0.024765 0.03049,0.039791 0.01482,-0.026781 0.03217,-0.051092 0.05375,-0.069246 l 0.03824,-0.03204 0.719336,0.00672 c 0.7163461,0.00667 0.9285181,0.015703 1.1286121,0.049093 0.361641,0.060345 0.443974,0.17410877 0.473874,0.65474027 0.0065,0.1042371 0.0084,0.4108154 0.0093,0.6976319 0.0019,-0.3881244 -1.43e-4,-0.8150608 -0.0093,-0.9622152 -0.0299,-0.48063147 -0.112233,-0.59439517 -0.473874,-0.65474027 -0.200094,-0.03339 -0.412266,-0.04242 -1.1286121,-0.049093 z"
     style="display:inline;opacity:0.3;fill:#ffffff;fill-opacity:1;stroke:none;stroke-width:0.011693;stroke-linecap:round;stroke-linejoin:round;stroke-miterlimit:4;stroke-dasharray:none;stroke-dashoffset:0;stroke-opacity:1;enable-background:new"
     id="path1696" />
  <path
     d="M 1.4554598,6.4822907 V 9.856246 c -0.011456,2.339452 0.3965919,2.57917 2.5745202,2.57917 h 4.6405429 c 2.1622861,0 2.5679511,-0.23876 2.5734881,-2.53318 V 6.4822907 Z"
     style="color:#000000;display:inline;overflow:visible;visibility:visible;opacity:0.1;fill:#ffffff;fill-opacity:1;fill-rule:nonzero;stroke:none;stroke-width:0.264583;marker:none;enable-background:accumulate"
     id="path1580" />
  <path
     id="path64"
     d="m 3.96875,4.4979168 c -0.43815,0 -0.79375,0.3556 -0.79375,0.79375 v 3.175 c 0,0.4381499 0.3556,0.7937499 0.79375,0.7937499 h 1.8520833 v 0.096635 L 4.8136595,10.129203 c -0.080433,0.06138 -0.036992,0.189653 0.064079,0.189653 h 0.2619993 c 0.1291167,0 0.2540455,-0.04735 0.350883,-0.132809 L 6.2378621,9.5250001 h 0.2242757 l 0.747758,0.6610469 c 0.096573,0.08546 0.2212496,0.132809 0.3503662,0.132809 h 0.2619994 c 0.1013355,0 0.1445123,-0.12827 0.064079,-0.189653 L 6.8791666,9.3570516 v -0.096635 h 1.8520833 c 0.43815,0 0.79375,-0.3556 0.79375,-0.7937499 v -3.175 c 0,-0.43815 -0.3556,-0.79375 -0.79375,-0.79375 z"
     style="fill:#a33e03;fill-opacity:1;stroke-width:0.264583"
     sodipodi:nodetypes="sssscccssccccsscccsssss" />
  <path
     id="rect3254"
     style="fill:url(#linearGradient3505);stroke-width:0.264583;stroke-linejoin:round"
     d="m 3.9687499,4.7625001 h 4.7625 c 0.2931583,0 0.5291666,0.2360083 0.5291666,0.5291666 v 3.1749998 c 0,0.2931583 -0.2360083,0.5291667 -0.5291666,0.5291667 h -4.7625 c -0.2931583,0 -0.5291666,-0.2360084 -0.5291666,-0.5291667 V 5.2916667 c 0,-0.2931583 0.2360083,-0.5291666 0.5291666,-0.5291666 z" />
  <path
     id="rect4510"
     style="fill:#d36118;fill-opacity:1;stroke-width:0.264583;stroke-linejoin:round"
     d="m 4.2333333,5.2916667 c -0.1465792,0 -0.2645833,0.1180042 -0.2645833,0.2645833 0,0.1465792 0.1180041,0.2645834 0.2645833,0.2645834 h 4.2333333 c 0.1465791,0 0.2645833,-0.1180042 0.2645833,-0.2645834 0,-0.1465791 -0.1180042,-0.2645833 -0.2645833,-0.2645833 z m 0,1.0583333 A 0.26458332,0.26458332 0 0 0 3.96875,6.6145834 0.26458332,0.26458332 0 0 0 4.2333333,6.8791667 0.26458332,0.26458332 0 0 0 4.4979166,6.6145834 0.26458332,0.26458332 0 0 0 4.2333333,6.35 Z m 0,0.79375 A 0.26458332,0.26458332 0 0 0 3.96875,7.4083334 0.26458332,0.26458332 0 0 0 4.2333333,7.6729167 0.26458332,0.26458332 0 0 0 4.4979166,7.4083334 0.26458332,0.26458332 0 0 0 4.2333333,7.14375 Z m 0,0.79375 A 0.26458332,0.26458332 0 0 0 3.96875,8.2020833 0.26458332,0.26458332 0 0 0 4.2333333,8.4666667 0.26458332,0.26458332 0 0 0 4.4979166,8.2020833 0.26458332,0.26458332 0 0 0 4.2333333,7.9375 Z" />
  <rect
     style="fill:#e5723c;fill-opacity:1;stroke-width:0.264583;stroke-linejoin:round"
     id="rect4834"
     width="2.1166666"
     height="2.1166666"
     x="6.614584"
     y="6.3499999"
     ry="0.52916664" />
  <rect
     style="fill:url(#linearGradient5247);fill-opacity:1;stroke-width:0.264583;stroke-linejoin:round"
     id="rect5239"
     width="1.5875"
     height="1.5875"
     x="6.8791676"
     y="6.6145835"
     ry="0.26458332" />
  <path
     id="rect5637"
     style="fill:url(#linearGradient5857);fill-opacity:1;stroke-width:0.264583;stroke-linejoin:round"
     d="M 5.0270833,6.35 C 4.8805041,6.35 4.7625,6.4680042 4.7625,6.6145834 c 0,0.1465791 0.1180041,0.2645833 0.2645833,0.2645833 h 0.79375 c 0.1465791,0 0.2645833,-0.1180042 0.2645833,-0.2645833 C 6.0854166,6.4680042 5.9674124,6.35 5.8208333,6.35 Z m 0,0.79375 C 4.8805041,7.14375 4.7625,7.2617542 4.7625,7.4083334 c 0,0.1465791 0.1180041,0.2645833 0.2645833,0.2645833 h 0.79375 c 0.1465791,0 0.2645833,-0.1180042 0.2645833,-0.2645833 0,-0.1465792 -0.1180042,-0.2645834 -0.2645833,-0.2645834 z m 0,0.79375 C 4.8805041,7.9375 4.7625,8.0555042 4.7625,8.2020833 c 0,0.1465792 0.1180041,0.2645834 0.2645833,0.2645834 h 0.79375 c 0.1465791,0 0.2645833,-0.1180042 0.2645833,-0.2645834 C 6.0854166,8.0555042 5.9674124,7.9375 5.8208333,7.9375 Z" />
  <path
     style="color:#000000;fill:#b44910;stroke-width:0.264583;stroke-linecap:round;stroke-linejoin:round;-inkscape-stroke:none"
     d="M 8.3931551,6.6284029 A 0.13229166,0.13229166 0 0 0 8.2159028,6.687831 L 7.8784559,7.3632434 7.4671135,7.1575696 a 0.13230489,0.13230489 0 0 0 -0.1772523,0.059428 l -0.396875,0.79375 a 0.13229166,0.13229166 0 0 0 0.059428,0.1772523 0.13229166,0.13229166 0 0 0 0.1772524,-0.059428 L 7.4671135,7.4531594 7.8784559,7.6588333 a 0.13230489,0.13230489 0 0 0 0.1772523,-0.059428 l 0.396875,-0.79375 A 0.13229166,0.13229166 0 0 0 8.3931551,6.6284029 Z"
     id="path94" />
  <path
     d="m 4.02998,0.39687413 c -2.1779283,0 -2.5859634,0.239717 -2.5745202,2.57917077 V 6.3499991 9.723952 c -0.011456,2.339454 0.3965919,2.579172 2.5745202,2.579172 h 4.6405429 c 2.1622861,0 2.5679511,-0.23876 2.5734881,-2.533179 V 5.0328538 C 11.242411,4.7116467 11.067653,4.421666 10.847652,4.1688238 V 6.3499991 9.591661 c 0,0.58035 -0.01625,1.024122 -0.07028,1.346171 -0.05403,0.32205 -0.139878,0.509151 -0.264068,0.633555 -0.12419,0.124397 -0.310716,0.210513 -0.6320021,0.264583 -0.321289,0.05406 -0.764434,0.07028 -1.343589,0.07028 H 4.1617557 c -0.5791544,0 -1.02285,-0.01619 -1.345139,-0.07028 C 2.4943304,11.781868 2.3062963,11.695873 2.1815135,11.571387 2.0567334,11.446895 1.9709158,11.26002 1.9174488,10.93835 1.8639788,10.61668 1.8489768,10.172802 1.8518188,9.592695 V 9.592166 6.3499991 3.1078198 3.1072906 C 1.8489879,2.5271843 1.8639897,2.0833068 1.9174488,1.7616362 1.9709184,1.4399656 2.0567334,1.2530864 2.1815135,1.1286 2.3062937,1.0041135 2.494849,0.91811603 2.8171353,0.86401663 3.1394216,0.80994223 3.5826013,0.79374913 4.1617557,0.79374913 h 3.2463132 c -0.370882,-0.2648791 -1.005131,-0.396875 -1.5668625,-0.396875 z"
     style="color:#000000;font-style:normal;font-variant:normal;font-weight:normal;font-stretch:normal;font-size:medium;line-height:normal;font-family:sans-serif;font-variant-ligatures:normal;font-variant-position:normal;font-variant-caps:normal;font-variant-numeric:normal;font-variant-alternates:normal;font-feature-settings:normal;text-indent:0;text-align:start;text-decoration:none;text-decoration-line:none;text-decoration-style:solid;text-decoration-color:#000000;letter-spacing:normal;word-spacing:normal;text-transform:none;writing-mode:lr-tb;direction:ltr;text-orientation:mixed;dominant-baseline:auto;baseline-shift:baseline;text-anchor:start;white-space:normal;shape-padding:0;clip-rule:nonzero;display:inline;overflow:visible;visibility:visible;opacity:0.3;isolation:auto;mix-blend-mode:normal;color-interpolation:sRGB;color-interpolation-filters:linearRGB;solid-color:#000000;solid-opacity:1;vector-effect:none;fill:url(#linearGradient2435);fill-opacity:1;fill-rule:nonzero;stroke:none;stroke-width:0.529167;stroke-linecap:butt;stroke-linejoin:miter;stroke-miterlimit:4;stroke-dasharray:none;stroke-dashoffset:0;stroke-opacity:1;marker:none;color-rendering:auto;image-rendering:auto;shape-rendering:auto;text-rendering:auto;enable-background:accumulate"
     id="path1836" />
  <path
     d="m 8.8575996,0.26458333 c -0.02795,0 -0.054041,0.00259 -0.078031,0.0062 l -0.010853,0.00155 -0.00982,0.0031 c -0.1780255,0.056742 -0.2884451,0.2134627 -0.3250449,0.377238 -0.0366,0.1637749 -0.0035,0.35267427 0.1338419,0.47955717 l 1.9854084,1.9859251 0.0016,0.00103 c 0.149511,0.1418077 0.362496,0.147727 0.531234,0.079067 0.16874,-0.06866 0.317686,-0.2219196 0.325561,-0.427881 V 2.7677796 2.2055399 2.205024 c 0.0021,-0.4323873 0.0095,-0.7598083 -0.0067,-1.0169922 -0.01631,-0.25730187 -0.0541,-0.45252267 -0.167974,-0.60202097 -0.113874,-0.1494983 -0.292265,-0.2242614 -0.520899,-0.2619995 -0.228637,-0.037738 -0.520916,-0.0458631 -0.9141551,-0.0547771 h -0.0016 -0.8831503 -5.292e-4 c -0.019185,-0.00228 -0.038328,-0.00465 -0.058888,-0.00465 z m -4.8281291,0.033073 c -1.0938219,0 -1.776484,0.048864 -2.199349,0.4485514 -0.08881,0.083936 -0.1584181,0.1827726 -0.2175578,0.28887127 -0.00683,0.012255 -0.023599,0.034367 -0.041858,0.072347 v 5.159e-4 c -1.3e-6,3.7e-6 -0.00184,0.00582 -0.00258,0.00827 -0.032219,0.068107 -0.060697,0.14046 -0.085265,0.2180753 -0.025479,0.080476 -0.047612,0.1667344 -0.066146,0.258899 -0.018494,0.091905 -0.033559,0.1895085 -0.045992,0.2935223 -0.024871,0.2081519 -0.038595,0.4415047 -0.044442,0.7048665 -0.00291,0.131706 -0.00381,0.2708816 -0.0031,0.4180624 v 3.3734375 3.3739542 c -7.937e-4,0.1470721 1.911e-4,0.2860569 0.0031,0.4175469 0.00585,0.263348 0.019553,0.496693 0.044442,0.704866 0.012436,0.104007 0.027516,0.201624 0.045992,0.293522 0.036954,0.183764 0.08684,0.344907 0.1545125,0.485758 0.067725,0.140951 0.153818,0.261415 0.2594158,0.361219 0.05288,0.04998 0.1104195,0.09473 0.1725992,0.134358 0.124325,0.07924 0.2668141,0.138305 0.4268473,0.182418 0,0 0.00103,-5e-6 0.00103,0 0.00855,0.0024 0.025452,7.94e-4 0.034107,0.0031 -0.00577,-9.8e-5 -0.00776,-5.29e-4 -0.011886,-5.29e-4 0.00831,0.0011 0.017026,0.0021 0.017053,0.0021 1.85e-5,0 0.00356,-7.15e-4 0.00723,-10e-4 0.3953219,0.101965 0.889055,0.128157 1.5523601,0.128157 h 4.6405435 c 0.2715842,0 0.5165577,-0.0038 0.7379396,-0.01499 0.0927,-0.0047 0.1778272,-0.01174 0.2604492,-0.01912 h 5.292e-4 c 0.0092,-7.94e-4 0.028737,-8.2e-4 0.054777,-0.0036 -0.0046,2.64e-4 -0.012597,5.29e-4 -0.014986,5.29e-4 0.0027,3.7e-5 0.013227,-7.14e-4 0.016537,-10e-4 h 5.291e-4 0.00259 c 0.19657,-0.01968 0.3726568,-0.04899 0.5301998,-0.09198 h 5.29e-4 c 0.07921,-0.02162 0.154102,-0.0466 0.225309,-0.07648 0.0711,-0.02983 0.137306,-0.06405 0.198954,-0.102836 0.06194,-0.03897 0.119296,-0.08318 0.172083,-0.132292 0.04709,-0.04381 0.08838,-0.09111 0.125574,-0.139526 -3.44e-4,0.0013 0.0068,-0.006 0.0186,-0.02222 l 5.29e-4,-5.29e-4 0.0067,-0.0088 0.0047,-0.0098 v -5.29e-4 c 0.0383,-0.0546 0.07373,-0.111872 0.104386,-0.17415 0.03409,-0.06925 0.06351,-0.143591 0.0894,-0.222725 v -5.29e-4 c 0.02585,-0.07912 0.04872,-0.163472 0.0677,-0.253731 0.01902,-0.09041 0.03447,-0.186809 0.04754,-0.288872 0.0118,-0.09203 0.02031,-0.189871 0.02791,-0.290421 v -5.29e-4 l 5.29e-4,-5.3e-4 c 1.83e-4,-0.0028 0.0016,-0.01326 0.0031,-0.03411 h 5.29e-4 c 0.0013,-0.02104 0.0013,-0.02302 0,-0.0052 0.0159,-0.229017 0.02256,-0.484295 0.02325,-0.7710132 V 9.8029466 4.800668 C 11.373694,4.2067162 10.881417,3.7513649 10.512363,3.4188402 l -0.0021,-0.00156 -5.3e-4,-5.292e-4 -2.2505074,-2.251542 -0.00156,-0.00103 C 7.656795,0.59663433 7.1909548,0.29765633 6.3492255,0.29765633 Z m 4.8281291,0.2315104 c 0.011671,0 0.025106,0.00101 0.038757,0.0031 l 0.00982,0.00155 h 0.892452 c 0.3905034,0.00887 0.6768444,0.018643 0.8738484,0.05116 0.197585,0.032613 0.293057,0.081247 0.353983,0.1612304 0.06092,0.079983 0.09919,0.2204852 0.114205,0.45836997 0.015,0.2378849 0.0084,0.5651483 0.0062,0.9999389 v 0.5555218 c -0.0031,0.080682 -0.06692,0.1553138 -0.160197,0.1932696 -0.09309,0.037878 -0.19099,0.029407 -0.249597,-0.025839 h -5.29e-4 l -1.9869464,-1.98799157 -0.00206,-0.00155 c -0.054563,-0.050409 -0.075107,-0.1387237 -0.055297,-0.2273761 0.01942,-0.086852 0.074829,-0.1552627 0.1436603,-0.1793172 0.0073,-6.88e-4 0.015373,-0.00207 0.021704,-0.00207 z m -4.8281291,0.033073 h 2.319755 c 0.7833125,0 1.1388217,0.2393307 1.7259927,0.79426667 l 2.2551588,2.2556764 0.0057,0.00414 c 0.362935,0.3271216 0.773617,0.7452794 0.775644,1.1854574 v 5.0012449 c -7.94e-4,0.2825469 -0.0074,0.5322939 -0.02274,0.7529259 -0.0016,0.02113 -0.0013,0.02295 0,0.0052 -2.48e-4,0.0035 -0.0021,0.0139 -0.0036,0.03514 -0.0074,0.09779 -0.01606,0.190949 -0.02687,0.275435 -0.01233,0.09636 -0.02665,0.185581 -0.04393,0.267684 -0.01728,0.08209 -0.03734,0.157212 -0.05994,0.226343 -0.02259,0.06907 -0.04808,0.131982 -0.07596,0.188619 -0.02781,0.05647 -0.05785,0.106902 -0.09095,0.152445 l -0.0016,0.0016 c 0.0081,-0.01119 0.004,-0.007 -0.0124,0.01447 h 5.29e-4 c -0.0317,0.04157 -0.06413,0.0789 -0.09818,0.110588 -0.04031,0.03751 -0.08413,0.07066 -0.132809,0.101286 -0.04896,0.0308 -0.102367,0.05872 -0.160713,0.0832 -0.05825,0.02445 -0.12235,0.04589 -0.192753,0.06511 -0.139751,0.03814 -0.3031674,0.06556 -0.4914425,0.08423 -2.64e-4,2.9e-5 -0.00124,-2.7e-5 -0.00156,0 l -5.292e-4,5.29e-4 h -5.292e-4 c -2.637e-4,2.4e-5 -0.00206,0 -0.00206,0 -8.467e-4,1.22e-4 -0.00172,0 -0.00206,0 -0.0085,7.93e-4 -0.024612,0.0011 -0.047542,0.0031 -0.08104,0.0072 -0.1620491,0.01366 -0.2495974,0.01809 -0.214698,0.01085 -0.4555095,0.01499 -0.7245035,0.01499 H 4.0294705 c -0.6772592,0 -1.1774241,-0.02569 -1.5291057,-0.122474 h -5.159e-4 l -5.16e-4,-5.29e-4 C 2.3592106,12.042307 2.2425425,11.993077 2.1453478,11.931133 2.0965558,11.900033 2.0523508,11.865893 2.0120226,11.82778 1.9312106,11.7514 1.864995,11.659674 1.809451,11.544077 1.753859,11.428372 1.7093301,11.289055 1.675609,11.121363 1.658755,11.037523 1.644461,10.946688 1.632718,10.848512 1.609249,10.652322 1.596074,10.426163 1.590343,10.16845 1.587483,10.039569 1.586453,9.9027796 1.587243,9.7576215 V 6.383073 3.008602 C 1.5864493,2.8633513 1.5874923,2.7266006 1.590343,2.5977743 1.596053,2.340073 1.609286,2.1139213 1.632718,1.9177124 1.644465,1.8195424 1.658752,1.7292066 1.675609,1.6453776 V 1.6448617 C 1.69241,1.5612957 1.712163,1.4844863 1.73452,1.4138672 1.756745,1.3436462 1.781741,1.2803851 1.809451,1.2226645 v -5.16e-4 l 5.159e-4,-0.00103 5.16e-4,-0.00103 0.00103,-0.00207 c 0.00516,-0.00967 0.015848,-0.023783 0.032557,-0.053743 0.050226,-0.09012 0.1047549,-0.16609987 0.167948,-0.22582537 0.3227995,-0.3050601 0.9333442,-0.3762044 2.0174479,-0.3762044 z M 2.4595404,12.076783 c -1.59e-5,0 0.0086,0.0011 0.016536,0.0021 -0.011457,-2.25e-4 -0.028501,-7.93e-4 -0.029972,-5.29e-4 -0.00106,1.46e-4 0.013462,-0.0016 0.013436,-0.0016 z"
     style="color:#000000;display:inline;opacity:0.4;fill:#000000;stroke-width:0.264583;-inkscape-stroke:none;enable-background:new"
     id="path4648" />
</svg>
