<?xml version="1.0" encoding="UTF-8" standalone="no"?>
<!-- Created with Inkscape (http://www.inkscape.org/) -->

<svg
   width="48"
   height="48"
   viewBox="0 0 12.7 12.7"
   version="1.1"
   id="svg5"
   inkscape:version="1.1.2 (0a00cf5339, 2022-02-04)"
   sodipodi:docname="livepatch.svg"
   xmlns:inkscape="http://www.inkscape.org/namespaces/inkscape"
   xmlns:sodipodi="http://sodipodi.sourceforge.net/DTD/sodipodi-0.dtd"
   xmlns:xlink="http://www.w3.org/1999/xlink"
   xmlns="http://www.w3.org/2000/svg"
   xmlns:svg="http://www.w3.org/2000/svg">
  <sodipodi:namedview
     id="namedview7"
     pagecolor="#ffffff"
     bordercolor="#666666"
     borderopacity="1.0"
     inkscape:pageshadow="2"
     inkscape:pageopacity="0.0"
     inkscape:pagecheckerboard="0"
     inkscape:document-units="px"
     showgrid="false"
     units="px"
     height="48px"
     showguides="true"
     inkscape:zoom="8.1875"
     inkscape:cx="16.671756"
     inkscape:cy="40.061069"
     inkscape:window-width="1846"
     inkscape:window-height="1011"
     inkscape:window-x="74"
     inkscape:window-y="32"
     inkscape:window-maximized="1"
     inkscape:current-layer="svg5" />
  <defs
     id="defs2">
    <linearGradient
       inkscape:collect="always"
       id="linearGradient1871">
      <stop
         style="stop-color:#ffffff;stop-opacity:1;"
         offset="0"
         id="stop1867" />
      <stop
         style="stop-color:#ffffff;stop-opacity:0.1"
         offset="0.12"
         id="stop2515" />
      <stop
         style="stop-color:#ffffff;stop-opacity:0.102"
         offset="0.89999998"
         id="stop2581" />
      <stop
         style="stop-color:#ffffff;stop-opacity:0.502"
         offset="1"
         id="stop1869" />
    </linearGradient>
    <linearGradient
       inkscape:collect="always"
       xlink:href="#linearGradient1871"
       id="linearGradient1198"
       x1="6.3499999"
       y1="0.52916658"
       x2="6.3499994"
       y2="12.170834"
       gradientUnits="userSpaceOnUse" />
    <linearGradient
       inkscape:collect="always"
       xlink:href="#linearGradient2014"
       id="linearGradient2016"
       x1="9.921875"
       y1="11.1125"
       x2="2.7781253"
       y2="1.5874999"
       gradientUnits="userSpaceOnUse" />
    <linearGradient
       inkscape:collect="always"
       id="linearGradient2014">
      <stop
         style="stop-color:#ce632d;stop-opacity:1"
         offset="0"
         id="stop2010" />
      <stop
         style="stop-color:#9f583e;stop-opacity:1"
         offset="1"
         id="stop2012" />
    </linearGradient>
  </defs>
  <circle
     style="opacity:0.1;fill:#000000;fill-opacity:1;stroke-width:0.529167;stroke-linecap:round;stroke-linejoin:round"
     id="path3625"
     cx="6.3499999"
     cy="6.6145835"
     r="6.0854168" />
  <circle
     style="fill:url(#linearGradient2016);fill-opacity:1;stroke-width:0.529167;stroke-linecap:round;stroke-linejoin:round"
     id="path986"
     cx="6.3499999"
     cy="6.3499999"
     r="5.953125" />
  <path
     id="rect2284"
     style="opacity:0.15;fill:#000000;fill-opacity:1;stroke-width:0.264583;stroke-linejoin:round"
     d="m 6.1184896,2.9104167 c -0.3835929,0 -0.6945313,0.3109648 -0.6945313,0.6945312 0,0.3835929 0.3109384,0.6945312 0.6945313,0.6945312 0.026088,-2.603e-4 0.05215,-0.00204 0.078031,-0.00517 0.045535,0.00339 0.096403,0.00517 0.1534788,0.00517 A 2.3151041,2.3151041 0 0 1 8.6651042,6.6145833 2.3151041,2.3151041 0 0 1 6.35,8.9296874 2.3151041,2.3151041 0 0 1 4.0839885,7.0776041 H 4.8798054 C 5.1201215,7.077552 5.2701413,6.9217415 5.1500732,6.7970011 L 3.7263875,5.3190552 C 3.6732221,5.2638603 3.5773257,5.2285238 3.471106,5.2255208 3.3544248,5.22224 3.2442484,5.258426 3.1858522,5.3190552 L 1.7621663,6.7970011 c -0.1200864,0.124751 0.029944,0.2805766 0.2702678,0.280603 H 2.6758057 C 2.9038262,8.9046319 4.4612455,10.318749 6.35,10.318749 c 2.0457586,0 3.704167,-1.6584071 3.704167,-3.7041657 0,-2.0457583 -1.6584084,-3.7041666 -3.704167,-3.7041666 -0.0522,0 -0.09738,0.00265 -0.1374592,0.00723 -0.031186,-0.00456 -0.062537,-0.00695 -0.094051,-0.00723 z" />
  <path
     id="path24"
     d="m 6.1183889,2.6458333 c -0.3835929,0 -0.6945313,0.3109648 -0.6945313,0.6945312 0,0.383593 0.3109384,0.6945313 0.6945313,0.6945313 0.026088,-2.604e-4 0.05215,-0.00204 0.078031,-0.00517 0.045535,0.00339 0.096403,0.00517 0.153479,0.00517 A 2.3151041,2.3151041 0 0 1 8.6650034,6.3499999 2.3151041,2.3151041 0 0 1 6.3498993,8.6651041 2.3151041,2.3151041 0 0 1 4.0838878,6.8130207 H 4.8797047 C 5.1200204,6.8129686 5.2700405,6.6571581 5.1499725,6.5324177 L 3.7262868,5.0544719 C 3.6731214,4.9992771 3.577225,4.9639405 3.4710053,4.9609374 3.3543242,4.9576566 3.2441476,4.9938426 3.1857515,5.0544719 L 1.7620656,6.5324177 c -0.1200864,0.124751 0.029944,0.2805766 0.2702677,0.280603 H 2.675705 c 0.2280205,1.8270273 1.7854398,3.2411463 3.6741942,3.2411463 2.0457583,0 3.7041668,-1.6584088 3.7041668,-3.7041671 0,-2.0457583 -1.6584085,-3.7041666 -3.7041668,-3.7041666 -0.0522,0 -0.09738,0.00265 -0.1374592,0.00723 -0.031186,-0.00456 -0.062537,-0.00695 -0.094051,-0.00723 z"
     style="fill:#faf8f6;fill-opacity:1;stroke-width:0.264583" />
  <path
     id="rect5299"
     style="opacity:0.1;fill:#ffffff;fill-opacity:1;stroke-width:0.999999"
     d="M 1.5371094,25 A 22.5,22.5 0 0 0 24,46.5 22.5,22.5 0 0 0 46.462891,25 Z"
     transform="scale(0.26458333)" />
  <path
     id="path854"
     style="opacity:0.4;fill:#000000;stroke-width:0.529167;stroke-linecap:round;stroke-linejoin:round"
     d="M 6.3499999,0.26458333 A 6.0854166,6.0854166 0 0 0 0.26458333,6.3499999 6.0854166,6.0854166 0 0 0 6.3499999,12.435417 6.0854166,6.0854166 0 0 0 12.435417,6.3499999 6.0854166,6.0854166 0 0 0 6.3499999,0.26458333 Z m 0,0.26458333 A 5.8208333,5.8208333 0 0 1 12.170833,6.3499999 5.8208333,5.8208333 0 0 1 6.3499999,12.170833 5.8208333,5.8208333 0 0 1 0.52916666,6.3499999 5.8208333,5.8208333 0 0 1 6.3499999,0.52916666 Z" />
  <path
     id="path1110"
     style="fill:url(#linearGradient1198);fill-opacity:1;stroke-width:0.529167;stroke-linecap:round;stroke-linejoin:round"
     d="M 6.3499999,0.52916666 A 5.8208333,5.8208333 0 0 0 0.52916666,6.3499999 5.8208333,5.8208333 0 0 0 6.3499999,12.170833 5.8208333,5.8208333 0 0 0 12.170833,6.3499999 5.8208333,5.8208333 0 0 0 6.3499999,0.52916666 Z m 0,0.26458333 A 5.5562499,5.5562499 0 0 1 11.90625,6.3499999 5.5562499,5.5562499 0 0 1 6.3499999,11.90625 5.5562499,5.5562499 0 0 1 0.79374999,6.3499999 5.5562499,5.5562499 0 0 1 6.3499999,0.79374999 Z" />
</svg>
