<?xml version="1.0" encoding="UTF-8" standalone="no"?>
<!-- Created with Inkscape (http://www.inkscape.org/) -->

<svg
   width="48"
   height="48"
   viewBox="0 0 12.7 12.7"
   version="1.1"
   id="svg5"
   inkscape:version="1.1.2 (0a00cf5339, 2022-02-04)"
   sodipodi:docname="org.gnome..svg"
   xmlns:inkscape="http://www.inkscape.org/namespaces/inkscape"
   xmlns:sodipodi="http://sodipodi.sourceforge.net/DTD/sodipodi-0.dtd"
   xmlns:xlink="http://www.w3.org/1999/xlink"
   xmlns="http://www.w3.org/2000/svg"
   xmlns:svg="http://www.w3.org/2000/svg">
  <sodipodi:namedview
     id="namedview7"
     pagecolor="#ffffff"
     bordercolor="#666666"
     borderopacity="1.0"
     inkscape:pageshadow="2"
     inkscape:pageopacity="0.0"
     inkscape:pagecheckerboard="0"
     inkscape:document-units="px"
     showgrid="false"
     units="px"
     inkscape:zoom="16.333333"
     inkscape:cx="23.969388"
     inkscape:cy="24"
     inkscape:window-width="1846"
     inkscape:window-height="1011"
     inkscape:window-x="74"
     inkscape:window-y="32"
     inkscape:window-maximized="1"
     inkscape:current-layer="svg5"
     showguides="false"
     inkscape:lockguides="true" />
  <defs
     id="defs2">
    <linearGradient
       inkscape:collect="always"
       id="linearGradient1871">
      <stop
         style="stop-color:#ffffff;stop-opacity:1;"
         offset="0"
         id="stop1867" />
      <stop
         style="stop-color:#ffffff;stop-opacity:0.1"
         offset="0.12"
         id="stop2515" />
      <stop
         style="stop-color:#ffffff;stop-opacity:0.102"
         offset="0.89999998"
         id="stop2581" />
      <stop
         style="stop-color:#ffffff;stop-opacity:0.502"
         offset="1"
         id="stop1869" />
    </linearGradient>
    <linearGradient
       inkscape:collect="always"
       xlink:href="#linearGradient1871"
       id="linearGradient940"
       x1="4.1623774"
       y1="0.52916676"
       x2="4.1623774"
       y2="12.170834"
       gradientUnits="userSpaceOnUse" />
    <linearGradient
       inkscape:collect="always"
       id="linearGradient3598">
      <stop
         style="stop-color:#f5f5f5;stop-opacity:1"
         offset="0"
         id="stop3594" />
      <stop
         style="stop-color:#e8e8e8;stop-opacity:1"
         offset="1"
         id="stop3596" />
    </linearGradient>
    <linearGradient
       inkscape:collect="always"
       xlink:href="#linearGradient3598"
       id="linearGradient1280"
       x1="7.4083333"
       y1="12.303125"
       x2="4.0299401"
       y2="0.39687502"
       gradientUnits="userSpaceOnUse" />
    <linearGradient
       inkscape:collect="always"
       xlink:href="#linearGradient1176"
       id="linearGradient1178"
       x1="8.5798378"
       y1="2.9104166"
       x2="10.054166"
       y2="4.3847456"
       gradientUnits="userSpaceOnUse"
       gradientTransform="translate(-1.0333333e-7,-0.26458337)" />
    <linearGradient
       inkscape:collect="always"
       id="linearGradient1176">
      <stop
         style="stop-color:#fdc92b;stop-opacity:1"
         offset="0"
         id="stop1172" />
      <stop
         style="stop-color:#fdc92b;stop-opacity:1"
         offset="0.30000001"
         id="stop1952" />
      <stop
         style="stop-color:#eab305;stop-opacity:1"
         offset="0.30000001"
         id="stop2594" />
      <stop
         style="stop-color:#eab305;stop-opacity:1"
         offset="0.69999999"
         id="stop1628" />
      <stop
         style="stop-color:#d28f08;stop-opacity:1"
         offset="0.69999999"
         id="stop1822" />
      <stop
         style="stop-color:#d28f05;stop-opacity:1"
         offset="1"
         id="stop1174" />
    </linearGradient>
  </defs>
  <path
     d="m 4.0895111,0.52916673 c -0.5731113,0 -1.0243794,0.013253 -1.3956983,0.075865 -0.3713189,0.062611 -0.6751664,0.18005 -0.8977391,0.40309687 C 1.5735062,1.2311758 1.4560312,1.536256 1.3942827,1.9094069 1.3325342,2.2825583 1.3204798,2.7368505 1.3232897,3.3139242 v 3.3006283 3.3022067 c -0.00278,0.5761878 0.00931,1.0302488 0.070993,1.4029988 0.061749,0.373153 0.1792235,0.678233 0.401791,0.90128 0.2225727,0.223046 0.5264202,0.340487 0.8977391,0.403095 0.3713216,0.06261 0.822587,0.07587 1.3956983,0.07587 h 4.5213537 c 0.573114,0 1.024141,-0.01323 1.3946922,-0.07587 0.370549,-0.06264 0.673471,-0.180472 0.895218,-0.403601 0.221753,-0.223125 0.338529,-0.527989 0.400783,-0.900774 0.06225,-0.372779 0.07553,-0.826151 0.07553,-1.4029988 V 6.6145525 3.3124068 c 0,-0.5768475 -0.01328,-1.0302168 -0.07553,-1.4029999 C 11.239304,1.5366243 11.122525,1.2317621 10.900773,1.0086345 10.679025,0.78550693 10.376104,0.66766993 10.005555,0.60503203 9.6350058,0.54239373 9.1839758,0.52916673 8.6108648,0.52916673 Z"
     style="color:#000000;font-style:normal;font-variant:normal;font-weight:normal;font-stretch:normal;font-size:medium;line-height:normal;font-family:sans-serif;font-variant-ligatures:normal;font-variant-position:normal;font-variant-caps:normal;font-variant-numeric:normal;font-variant-alternates:normal;font-feature-settings:normal;text-indent:0;text-align:start;text-decoration:none;text-decoration-line:none;text-decoration-style:solid;text-decoration-color:#000000;letter-spacing:normal;word-spacing:normal;text-transform:none;writing-mode:lr-tb;direction:ltr;text-orientation:mixed;dominant-baseline:auto;baseline-shift:baseline;text-anchor:start;white-space:normal;shape-padding:0;clip-rule:nonzero;display:inline;overflow:visible;visibility:visible;opacity:0.1;isolation:auto;mix-blend-mode:normal;color-interpolation:sRGB;color-interpolation-filters:linearRGB;solid-color:#000000;solid-opacity:1;vector-effect:none;fill:#000000;fill-opacity:1;fill-rule:nonzero;stroke:none;stroke-width:0.529167;stroke-linecap:butt;stroke-linejoin:miter;stroke-miterlimit:4;stroke-dasharray:none;stroke-dashoffset:0;stroke-opacity:1;marker:none;color-rendering:auto;image-rendering:auto;shape-rendering:auto;text-rendering:auto;enable-background:accumulate"
     id="path1706" />
  <path
     d="m 4.0299401,0.39687503 c -2.1779282,0 -2.5859448,0.2398051 -2.5745016,2.57925877 v 3.3738537 3.3739167 c -0.011457,2.3394528 0.3965734,2.5792578 2.5745016,2.5792578 h 4.6405187 c 2.1773862,0 2.5744992,-0.239778 2.5744992,-2.5792578 V 6.3499875 2.9761338 c 0,-2.33948017 -0.397113,-2.57925877 -2.5745012,-2.57925877 z"
     style="color:#000000;display:inline;overflow:visible;visibility:visible;fill:url(#linearGradient1280);fill-opacity:1;fill-rule:nonzero;stroke:none;stroke-width:0.264583;marker:none;enable-background:accumulate"
     id="path1138" />
  <path
     id="rect944"
     style="fill:#5884f4;fill-opacity:1;stroke-width:0.550775;stroke-linecap:round;stroke-linejoin:round"
     d="m 4.029959,0.396875 c -2.1779282,0 -2.5859631,0.23971708 -2.5745199,2.5791707 h 9.7895839 c 0,-2.33948013 -0.397132,-2.5791707 -2.5745206,-2.5791707 z"
     sodipodi:nodetypes="sccss" />
  <path
     id="path42"
     d="M 2.6458334,4.2333334 V 4.7625001 H 7.4083333 V 4.2333334 Z m 0,1.0583334 V 5.8208334 H 10.054167 V 5.2916668 Z m 0,1.0583333 V 6.8791667 H 6.0854167 V 6.3500001 Z m 0,1.0583333 V 7.9328492 H 6.0854167 V 7.4083334 Z m 0,1.0536824 v 0.5291667 h 2.38125 V 8.4620158 Z"
     style="fill:#c8c4b7;fill-opacity:1;stroke-width:0.264583"
     sodipodi:nodetypes="ccccccccccccccccccccccccc" />
  <path
     id="rect1724"
     style="fill:#fee0c0;fill-opacity:1;stroke-width:0.264583;stroke-linejoin:round"
     d="M 4.2121461,7.0135258 3.9356771,7.2899948 2.6458334,10.054167 5.4100058,8.7643228 5.6864748,8.4878538 Z" />
  <path
     id="rect1305"
     style="fill:url(#linearGradient1178);fill-opacity:1;stroke-width:0.264583;stroke-linejoin:round"
     d="M 8.5798379,2.6458333 3.9356771,7.2899941 C 4.1199515,7.1057198 4.4425696,7.6125138 4.1661541,7.888924 4.6268466,7.4282315 5.2717684,8.0731719 4.811076,8.5338459 5.0874862,8.2574357 5.5942881,8.5800485 5.4100058,8.7643228 L 10.054166,4.120162 Z" />
  <path
     id="rect1848"
     style="fill:#5d5d5d;fill-opacity:1;stroke-width:0.264583;stroke-linejoin:round"
     d="m 3.1269412,9.1193436 c -0.037184,-0.003 -0.070797,0.05529 -0.070797,0.05529 L 2.6458334,10.054167 3.5253663,9.6438556 c 0,0 0.086995,-0.0515 0.041341,-0.09715 -0.045654,-0.04565 -0.1829345,0.0016 -0.1829348,0.0016 0,0 0.091591,-0.139353 0,-0.230994 -0.091644,-0.09164 -0.2309934,0 -0.2309934,0 0,0 0.046067,-0.138415 0,-0.184485 -0.00864,-0.0086 -0.017259,-0.01275 -0.025839,-0.01344 z" />
  <path
     d="m 4.1623773,0.52916673 c -2.3347309,0 -2.5859634,0.2397169 -2.5745201,2.57917067 v 3.2416625 3.2416623 c -0.011457,2.3394528 0.2397892,2.5791708 2.5745201,2.5791708 h 4.3759595 c 2.3347312,0 2.5745202,-0.239691 2.5745202,-2.5791708 V 6.3499999 3.1083374 c 0,-2.33948017 -0.239789,-2.57917067 -2.5745202,-2.57917067 z m 3.0654465,0.286804 c 0.419592,-5.291e-4 0.839258,-0.00122 1.258837,0.00259 0.592942,0.029805 1.221984,-0.042185 1.7926562,0.1793171 0.426148,0.21587107 0.50234,0.74687077 0.52348,1.17667237 0.03932,2.3680137 0.01545,4.74777 0.01757,7.120495 -0.02974,0.639654 0.06181,1.2967968 -0.134874,1.9187448 -0.09316,0.388739 -0.495885,0.558596 -0.8526622,0.618051 -1.88326,0.05654 -3.7716014,0.04578 -5.6575355,0.04393 C 3.5467898,11.846988 2.8613655,11.953808 2.2911699,11.620486 1.8827432,11.324037 1.9260529,10.740361 1.8979144,10.306873 1.8615289,7.8657752 1.8913263,5.3991107 1.8989728,2.9481494 1.9273149,2.4744677 1.8552768,1.9938976 1.9894073,1.5301481 2.0854775,1.1047923 2.5225666,0.89993493 2.9216508,0.86403893 4.3529964,0.80396473 5.7920069,0.83090223 7.2278478,0.81597973 Z"
     style="color:#000000;display:inline;overflow:visible;visibility:visible;opacity:0.7;fill:url(#linearGradient940);fill-opacity:1;fill-rule:nonzero;stroke:none;stroke-width:0.529167;stroke-miterlimit:4;stroke-dasharray:none;stroke-opacity:1;marker:none;enable-background:accumulate"
     id="path1566" />
  <path
     d="m 4.0300433,0.26458333 c -1.0938483,0 -1.7765421,0.048871 -2.1994098,0.4485513 C 1.6192023,0.91297493 1.4905963,1.1925988 1.4166956,1.5601114 1.3427946,1.927624 1.3202786,2.3878434 1.3231576,2.9765625 v 3.3734374 3.3739543 c -0.00286,0.5884118 0.019659,1.0485558 0.093538,1.4159348 0.073901,0.367512 0.2025041,0.647137 0.4139379,0.846977 0.4228703,0.399679 1.1055615,0.44855 2.1994098,0.44855 H 8.670713 c 1.093579,0 1.773378,-0.04881 2.194761,-0.44855 0.210691,-0.199869 0.338437,-0.479132 0.412904,-0.846461 0.07447,-0.367329 0.09871,-0.827839 0.09871,-1.4164508 V 6.3499999 2.9760457 c 0,-0.5886122 -0.02423,-1.0486051 -0.09871,-1.4159343 C 11.203911,1.1927824 11.076165,0.91300353 10.865474,0.71313463 10.444088,0.31339713 9.7637758,0.26458333 8.6701968,0.26458333 Z m 0,0.2645834 h 4.6401535 c 1.083866,0 1.6913152,0.071183 2.0128532,0.3762044 0.160771,0.15251027 0.268385,0.37132597 0.336425,0.70693357 0.06804,0.3356075 0.09302,0.7826142 0.09302,1.363741 v 3.3739542 3.3739543 c 0,0.5811268 -0.02498,1.0281328 -0.09302,1.3637408 -0.06804,0.335608 -0.175654,0.554424 -0.336425,0.706935 -0.321538,0.305019 -0.9284712,0.376203 -2.0123372,0.376203 H 4.0300433 c -1.0841355,0 -1.6947197,-0.07112 -2.0175034,-0.376203 C 1.8511467,11.642087 1.7435644,11.423115 1.6761195,11.087695 1.6086719,10.752275 1.5849044,10.305477 1.5877487,9.7244712 V 6.3499999 2.9760457 2.9755166 C 1.5849176,2.3945101 1.6086772,1.9477138 1.6761195,1.6122922 1.7435644,1.2768707 1.8511493,1.057901 2.0125399,0.90535863 2.3353236,0.60028643 2.9459078,0.52916673 4.0300433,0.52916673 Z"
     style="color:#000000;display:inline;opacity:0.4;fill:#000000;stroke-width:0.264586;-inkscape-stroke:none;enable-background:new"
     id="path1446" />
</svg>
