<svg width="16" height="16" version="1.1" xmlns="http://www.w3.org/2000/svg">
 <path d="m3.9941 2c-1.258 0.015-2.1796-0.030234-2.9316 0.38477a1.88 1.88 0 0 0-0.83789 0.99805c-0.165 0.437-0.22461 0.96019-0.22461 1.6172v6c0 0.658 0.059609 1.1792 0.22461 1.6172 0.164 0.439 0.46089 0.79005 0.83789 0.99805 0.752 0.416 1.6736 0.36977 2.9316 0.38477h8.0117c1.258-0.015 2.1786 0.030234 2.9316-0.38477a1.88 1.88 0 0 0 0.83789-0.99805c0.164-0.438 0.22461-0.96019 0.22461-1.6172v-6c0-0.040396-0.005397-0.07-0.005859-0.10938l-0.99414 0.99219v5.1172c0 0.592-0.063156 1.0056-0.16016 1.2656-0.098 0.26-0.20272 0.37166-0.38672 0.47266-0.366 0.202-1.1941 0.24672-2.4531 0.26172h-8c-1.259-0.015-2.0901-0.059719-2.4551-0.26172-0.183-0.1-0.28677-0.21266-0.38477-0.47266-0.097-0.26-0.16016-0.67362-0.16016-1.2656v-6c0-0.592 0.063156-1.0056 0.16016-1.2656 0.098-0.26 0.20177-0.37166 0.38477-0.47266 0.365-0.202 1.1951-0.24672 2.4551-0.26172h2.5v-1h-2.502-0.0039063z" color="#000000" fill="#666" style="font-feature-settings:normal;font-variant-alternates:normal;font-variant-caps:normal;font-variant-ligatures:normal;font-variant-numeric:normal;font-variant-position:normal;isolation:auto;mix-blend-mode:normal;shape-padding:0;text-decoration-color:#000000;text-decoration-line:none;text-decoration-style:solid;text-indent:0;text-orientation:mixed;text-transform:none"/>
 <path d="m5 0 1e-3 5c0.76-0.348 1.535-0.737 2.323-1.166a44.09 44.09 0 0 0 2.259-1.334c-0.725-0.449-1.478-0.889-2.26-1.32a43.088 43.088 0 0 0-2.323-1.18z" color="#000000" fill="#666" overflow="visible"/>
 <path d="m15.5 3.9722-1.4477-1.4731 1.3931-1.5432-1.0042-0.95588-1.4336 1.4706-1.4627-1.4706-1.0448 0.99104 1.4627 1.5018-1.4627 1.4778 1.0448 1.0294 1.461-1.5441 1.4644 1.5441z" fill="#ed4737"/>
</svg>
