<?xml version="1.0" encoding="UTF-8" standalone="no"?>
<!-- Created with Inkscape (http://www.inkscape.org/) -->

<svg
   width="16"
   height="16"
   viewBox="0 0 4.2333333 4.2333333"
   version="1.1"
   id="svg1003"
   sodipodi:docname="accessories-character-map.svg"
   inkscape:version="1.1.2 (0a00cf5339, 2022-02-04, custom)"
   xmlns:inkscape="http://www.inkscape.org/namespaces/inkscape"
   xmlns:sodipodi="http://sodipodi.sourceforge.net/DTD/sodipodi-0.dtd"
   xmlns:xlink="http://www.w3.org/1999/xlink"
   xmlns="http://www.w3.org/2000/svg"
   xmlns:svg="http://www.w3.org/2000/svg">
  <sodipodi:namedview
     id="namedview1005"
     pagecolor="#ffffff"
     bordercolor="#666666"
     borderopacity="1.0"
     inkscape:pageshadow="2"
     inkscape:pageopacity="0.0"
     inkscape:pagecheckerboard="0"
     inkscape:document-units="px"
     showgrid="false"
     units="px"
     showguides="false"
     inkscape:lockguides="true"
     inkscape:zoom="32"
     inkscape:cx="6.703125"
     inkscape:cy="10.984375"
     inkscape:window-width="1920"
     inkscape:window-height="1011"
     inkscape:window-x="0"
     inkscape:window-y="32"
     inkscape:window-maximized="1"
     inkscape:current-layer="svg1003" />
  <defs
     id="defs1000">
    <linearGradient
       inkscape:collect="always"
       id="linearGradient1871">
      <stop
         style="stop-color:#ffffff;stop-opacity:1;"
         offset="0"
         id="stop1867" />
      <stop
         style="stop-color:#ffffff;stop-opacity:0.1"
         offset="0.12"
         id="stop2515" />
      <stop
         style="stop-color:#ffffff;stop-opacity:0.102"
         offset="0.89999998"
         id="stop2581" />
      <stop
         style="stop-color:#ffffff;stop-opacity:0.502"
         offset="1"
         id="stop1869" />
    </linearGradient>
    <linearGradient
       inkscape:collect="always"
       xlink:href="#linearGradient1871"
       id="linearGradient891"
       x1="1.1761556"
       y1="0.26459649"
       x2="1.1761556"
       y2="3.9687631"
       gradientUnits="userSpaceOnUse" />
    <filter
       id="filter194"
       x="-0.020460054"
       y="-0.020460054"
       width="1.0409201"
       height="1.0576021"
       color-interpolation-filters="sRGB">
      <feFlood
         flood-color="rgb(0,0,0)"
         flood-opacity=".49804"
         result="flood"
         id="feFlood7" />
      <feComposite
         in="flood"
         in2="SourceGraphic"
         operator="in"
         result="composite1"
         id="feComposite9" />
      <feGaussianBlur
         in="composite1"
         result="blur"
         stdDeviation="1.0220649"
         id="feGaussianBlur11" />
      <feOffset
         dx="0"
         dy="2"
         result="offset"
         id="feOffset13" />
      <feComposite
         in="SourceGraphic"
         in2="offset"
         result="composite2"
         id="feComposite15" />
    </filter>
  </defs>
  <path
     d="m 1.0923594,0.2645965 c -0.99048625,0 -1.09706305,0.081754 -1.09220794549,0.8792925 V 2.2489715 3.3540514 C -0.00468855,4.1515929 0.10187315,4.2333465 1.0923594,4.2333465 h 2.0487614 c 0.9904941,0 1.0922132,-0.081743 1.0922132,-0.8792951 V 2.2489715 1.143889 c 0,-0.7975521 -0.1017217,-0.8792925 -1.0922132,-0.8792925 z"
     style="color:#000000;display:inline;overflow:visible;visibility:visible;opacity:0.1;fill:#000000;fill-opacity:1;fill-rule:nonzero;stroke:none;stroke-width:0.264583;marker:none;enable-background:accumulate"
     id="path1314" />
  <path
     d="m 1.1563807,0.1322916 c -0.92858435,0 -1.02849895,0.081754 -1.02394555,0.8792925 v 1.1050825 1.1050799 c -0.004551,0.7975415 0.0953612,0.8792951 1.02394555,0.8792951 h 1.9207136 c 0.9285843,0 1.023948,-0.081743 1.023948,-0.8792951 V 2.1166666 1.0115841 c 0,-0.7975494 -0.095366,-0.8792925 -1.023948,-0.8792925 z"
     style="color:#000000;display:inline;overflow:visible;visibility:visible;fill:#f6f5f4;fill-opacity:1;fill-rule:nonzero;stroke:none;stroke-width:0.265859;marker:none;enable-background:accumulate"
     id="path908" />
  <path
     id="rect18340"
     style="fill:#3584e4;fill-opacity:1;stroke-width:0.999999;stroke-linejoin:round"
     d="M 8 0.5 L 8 15.5 L 11.630859 15.5 C 15.140469 15.5 15.5 15.190151 15.5 12.175781 L 15.5 8 L 15.5 3.8242188 C 15.5 0.80985879 15.140461 0.5 11.630859 0.5 L 8 0.5 z "
     transform="scale(0.26458333)" />
  <path
     d="m 0.9787641,0.7937498 c -0.043796,1.719e-4 -0.079179,0.035785 -0.079065,0.079581 1.693e-4,0.043595 0.03547,0.078896 0.079065,0.079065 0.043797,1.138e-4 0.079409,-0.035269 0.079581,-0.079065 1.138e-4,-0.044 -0.035581,-0.079695 -0.079581,-0.079581 z m 0.4237461,0 c -0.044,-1.138e-4 -0.079695,0.035581 -0.079581,0.079581 1.719e-4,0.043796 0.035785,0.079179 0.079581,0.079065 0.043595,-1.694e-4 0.078896,-0.03547 0.079066,-0.079065 1.137e-4,-0.043796 -0.035269,-0.079409 -0.079066,-0.079581 z m -0.211873,0.2645833 c -0.2191888,0 -0.396875,0.1776862 -0.396875,0.396875 0,0.2191888 0.1776862,0.396875 0.396875,0.396875 0.2191888,0 0.396875,-0.1776862 0.396875,-0.396875 0,-0.2191888 -0.1776862,-0.396875 -0.396875,-0.396875 z m -0.00159,0.099219 c 5.292e-4,-2.6e-6 0.00106,-2.6e-6 0.00159,0 0.1461241,0 0.2645833,0.1332654 0.2645833,0.2976563 0,0.1643909 -0.1184592,0.2976562 -0.2645833,0.2976562 -0.1461241,0 -0.2645833,-0.1332653 -0.2645833,-0.2976562 -2.7e-6,-0.1637109 0.1175146,-0.2966958 0.2630328,-0.2976563 z m 0.00159,1.2236979 c -0.058063,0 -0.1161203,0.017939 -0.1519291,0.053742 -0.071623,0.071625 -0.045302,0.2132595 0,0.3038581 L 1.1653166,2.9920642 1.1399959,3.0173848 0.8867818,2.8907764 c -0.090596,-0.045302 -0.2322301,-0.071628 -0.3038581,0 -0.0716201,0.071623 -0.0716201,0.2322301 0,0.3038581 0.071628,0.071623 0.2132621,0.045297 0.3038581,0 l 0.2532141,-0.1266084 0.025321,0.025321 -0.1266085,0.2532142 c -0.045302,0.090596 -0.071623,0.2322327 0,0.303858 0.071623,0.071623 0.2322301,0.071623 0.3038581,0 0.071623,-0.071628 0.045297,-0.2132621 0,-0.303858 L 1.2159578,3.0933467 1.2412784,3.0680261 1.4944926,3.1946345 c 0.090596,0.045297 0.2322354,0.071623 0.3038581,0 0.07162,-0.071628 0.07162,-0.2322354 0,-0.3038581 -0.071623,-0.071628 -0.2132621,-0.045302 -0.3038581,0 L 1.2412784,3.0173848 1.2159578,2.9920642 1.3425662,2.73885 c 0.045297,-0.090599 0.071623,-0.2322327 0,-0.3038581 -0.035814,-0.035809 -0.093866,-0.053742 -0.151929,-0.053742 z"
     style="display:inline;fill:#5d5d5d;fill-opacity:1;stroke:none;stroke-width:0.151936;stroke-linecap:round;stroke-linejoin:round;stroke-miterlimit:4;stroke-dasharray:none;stroke-opacity:1;enable-background:new"
     id="path2908" />
  <path
     id="rect25"
     d="m 3.1987834,1.3229166 c -0.013374,0.00135 -0.023771,0.012613 -0.023771,0.026355 v 0.079582 c 0,0.014658 0.011697,0.026355 0.026355,0.026355 h 0.079582 c 0.014658,0 0.026355,-0.011697 0.026355,-0.026355 v -0.079582 c 0,-0.014658 -0.011697,-0.026355 -0.026355,-0.026355 h -0.079582 c -9.26e-4,0 -0.00169,-9e-5 -0.00259,0 z M 3.0664917,1.4552083 c -0.013374,0.00135 -0.023771,0.012613 -0.023771,0.026355 v 0.079582 c 0,0.014658 0.011697,0.026355 0.026355,0.026355 h 0.079582 c 0.014658,0 0.026355,-0.011697 0.026355,-0.026355 v -0.079582 c 0,-0.014658 -0.011697,-0.026355 -0.026355,-0.026355 h -0.079582 c -9.261e-4,0 -0.00169,-9e-5 -0.00259,0 z m 0.2645833,0 c -0.013374,0.00135 -0.023771,0.012613 -0.023771,0.026355 v 0.079582 c 0,0.014658 0.011697,0.026355 0.026355,0.026355 h 0.079582 c 0.014658,0 0.026355,-0.011697 0.026355,-0.026355 v -0.079582 c 0,-0.014658 -0.011697,-0.026355 -0.026355,-0.026355 H 3.333659 c -9.26e-4,0 -0.00169,-9e-5 -0.00259,0 z m 0.3700032,0.3110921 -0.1260904,0.039274 c 0,0 0.028011,0.091188 0.041858,0.1948201 0.00692,0.051816 0.00982,0.106223 0.00517,0.1503784 -0.00465,0.044156 -0.017597,0.074958 -0.030489,0.08785 -0.00685,0.00685 -0.028596,0.016631 -0.062012,0.020154 -0.033416,0.00352 -0.075755,0.00128 -0.116272,-0.00413 C 3.3569188,2.247127 3.3336438,2.239063 3.3073063,2.231909 V 1.8520833 H 3.1750122 v 0.3824056 c -0.00524,0.00131 -0.00457,0.00122 -0.010335,0.00258 -0.032452,0.00766 -0.073103,0.01451 -0.089917,0.014986 -0.04265,0.00115 -0.1178515,-0.01474 -0.1643317,-0.023772 V 1.8520833 H 2.7781372 v 0.4857584 0.1049032 c -2.646e-4,0.00216 -0.00188,0.013509 -0.00568,0.029456 -0.003,0.012567 -0.00557,0.017055 -0.0062,0.020154 -0.061628,0.025018 -0.1159481,0.048288 -0.1514125,0.055294 -0.038954,0.0077 -0.055,0.00507 -0.082165,-0.01757 -0.010461,-0.011465 -0.021728,-0.036972 -0.025839,-0.075964 -0.00425,-0.040343 -0.00174,-0.090171 0.00465,-0.1379761 0.012773,-0.09561 0.038757,-0.1798339 0.038757,-0.1798339 L 2.4236369,2.0970295 c 0,0 -0.028381,0.092922 -0.042891,0.2015381 -0.00726,0.054308 -0.011663,0.1127938 -0.00568,0.1694987 0.00598,0.056705 0.021292,0.1148265 0.065112,0.1586467 l 0.00207,0.00155 0.00155,0.00155 C 2.5014879,2.67941 2.5758906,2.69057 2.6401687,2.677872 2.7044467,2.665174 2.7654638,2.636506 2.8360224,2.608109 l 0.012401,-0.00517 0.00982,-0.00982 c 0.033218,-0.033243 0.036657,-0.063817 0.042892,-0.089917 0.00623,-0.0261 0.00878,-0.048576 0.00878,-0.048576 L 2.910434,2.451006 V 2.361089 c 0.051053,0.010891 0.1001782,0.025091 0.1679485,0.023254 0.039166,-0.00111 0.080878,-0.010125 0.1167887,-0.018604 0.026411,-0.00624 0.037493,-0.00959 0.047542,-0.012402 0.016269,0.00484 0.070376,0.021523 0.1529622,0.032556 0.047021,0.00628 0.098016,0.0099 0.1477947,0.00465 0.049778,-0.00525 0.1016682,-0.018468 0.1415933,-0.058394 0.045964,-0.045965 0.061834,-0.1069139 0.068213,-0.1674317 0.00638,-0.060518 0.00212,-0.1235813 -0.00569,-0.181901 -0.015585,-0.1166312 -0.04651,-0.2165159 -0.04651,-0.216516 z"
     style="fill:#ffffff;stroke-width:0.264583" />
  <path
     d="m 1.1761556,0.2645965 c -0.4373615,0 -0.6736397,0.0332 -0.7715276,0.1095534 -0.048945,0.038177 -0.080642,0.087635 -0.1049046,0.1860365 -0.024262,0.098401 -0.035139,0.2416095 -0.035139,0.4320143 V 2.1166798 3.241159 c 0,0.1904047 0.010874,0.3335919 0.035139,0.4320143 0.024262,0.098401 0.055959,0.1478597 0.1049046,0.1860365 0.097888,0.076353 0.3341661,0.1095533 0.7715276,0.1095533 h 1.8810235 c 0.43747,0 0.6752246,-0.033102 0.7735966,-0.1095533 0.049183,-0.038227 0.080904,-0.087863 0.104902,-0.1860365 0.023998,-0.098174 0.034131,-0.2407153 0.033073,-0.4309798 V 3.2416643 2.1166798 0.9916847 0.9911556 C 3.969809,0.8008911 3.9596755,0.6583494 3.9356777,0.5601758 3.91168,0.4620022 3.8799591,0.4123663 3.8307757,0.3741393 3.7324063,0.2977012 3.4946491,0.2645965 3.0571791,0.2645965 Z M 2.58589,0.5415835 c 0.293071,-8.99e-5 0.5856896,0.00212 0.8784987,0.01188 0.070422,0.015849 0.2003875,-0.0055 0.2098066,0.091467 0.035467,0.4879922 0.017515,0.9757145 0.026871,1.4655429 -0.00333,0.4940962 0.014367,0.9711029 -0.027387,1.4546924 0.016986,0.1119558 -0.1162738,0.094131 -0.1860365,0.1116198 -0.9082537,0.0186 -1.8192141,0.015584 -2.7248987,5.291e-4 C 0.7037741,3.6667837 0.6155776,3.6772294 0.574644,3.6277047 0.52209,3.3287387 0.541053,3.0272434 0.532268,2.7228508 c 0.00365,-0.676402 -0.00767,-1.3513011 0.02376,-2.0257161 -0.00794,-0.072152 0.028956,-0.13131 0.1059365,-0.1291934 0.3457019,-0.042598 0.6965553,-0.016827 1.0443818,-0.025823 0.2929414,0.00159 0.5864622,-5.292e-4 0.8795332,-5.292e-4 z"
     style="color:#000000;display:inline;overflow:visible;visibility:visible;fill:url(#linearGradient891);fill-opacity:1;fill-rule:nonzero;stroke:none;stroke-width:0.264583;marker:none;enable-background:accumulate;opacity:1"
     id="path1490" />
  <path
     d="m 1.1761556,1.32e-5 c -0.44534665,0 -0.73102525,0.0068 -0.93430995,0.1653646 -0.1016423,0.079282 -0.1654439,0.1958525 -0.1989534,0.3317637 C 0.00938275,0.6330526 6.5451263e-7,0.7926916 6.5451263e-7,0.9922007 V 2.1166798 3.241159 c 0,0.1995091 0.009389995487,0.359148 0.0428919954874,0.4950592 0.03351,0.1359112 0.097311,0.2524813 0.1989534,0.3317637 0.2032847,0.1585648 0.4889633,0.1653646 0.93430995,0.1653646 h 1.8810235 c 0.4454551,0 0.7319539,-0.00688 0.9358603,-0.1653646 C 4.0949917,3.9887469 4.1592167,3.8723569 4.1925092,3.7362182 4.2257672,3.6002224 4.2345012,3.4405146 4.2333342,3.241159 V 3.2406298 2.1166798 0.9927166 0.9921875 C 4.2343923,0.7928319 4.2257669,0.6331241 4.1925088,0.4971282 4.1592163,0.3609895 4.0949913,0.2445993 3.9930394,0.1653646 3.789133,0.006895 3.5026342,0 3.0571791,0 Z m 0,0.2645833 h 1.8810235 c 0.43747,0 0.6752272,0.033105 0.7735966,0.1095534 0.049183,0.038224 0.080894,0.087863 0.104902,0.1860365 0.023998,0.098174 0.034203,0.2407152 0.033073,0.4309798 v 5.291e-4 1.1249951 1.1249951 5.292e-4 c 0.00106,0.1902619 -0.00908,0.3328061 -0.033073,0.4309798 -0.023998,0.098174 -0.055719,0.1478094 -0.104902,0.1860364 -0.098372,0.076451 -0.3361266,0.1095534 -0.7735966,0.1095534 H 1.1761556 c -0.43735895,0 -0.67363975,-0.0332 -0.77152765,-0.1095534 C 0.35568265,3.8210542 0.32398555,3.7715957 0.29972335,3.6731945 0.27546105,3.5747721 0.26458395,3.4315637 0.26458395,3.241159 V 2.1166798 0.9922007 c 0,-0.1904048 0.010874,-0.3336131 0.035139,-0.4320143 0.024262,-0.098401 0.055959,-0.1478598 0.1049046,-0.1860365 0.097888,-0.076353 0.3341687,-0.1095534 0.77152805,-0.1095534 z"
     style="color:#000000;display:inline;opacity:0.4;fill:#000000;stroke-width:0.264583;-inkscape-stroke:none;enable-background:new"
     id="path1158" />
</svg>
