<?xml version="1.0" encoding="UTF-8" standalone="no"?>
<!-- Created with Inkscape (http://www.inkscape.org/) -->

<svg
   width="16"
   height="16"
   viewBox="0 0 4.2333333 4.2333333"
   version="1.1"
   id="svg1003"
   sodipodi:docname="gnome-power-statistics.svg"
   inkscape:version="1.1.2 (0a00cf5339, 2022-02-04)"
   xmlns:inkscape="http://www.inkscape.org/namespaces/inkscape"
   xmlns:sodipodi="http://sodipodi.sourceforge.net/DTD/sodipodi-0.dtd"
   xmlns:xlink="http://www.w3.org/1999/xlink"
   xmlns="http://www.w3.org/2000/svg"
   xmlns:svg="http://www.w3.org/2000/svg">
  <sodipodi:namedview
     id="namedview1005"
     pagecolor="#ffffff"
     bordercolor="#666666"
     borderopacity="1.0"
     inkscape:pageshadow="2"
     inkscape:pageopacity="0.0"
     inkscape:pagecheckerboard="0"
     inkscape:document-units="px"
     showgrid="false"
     units="px"
     showguides="true"
     inkscape:lockguides="true"
     inkscape:zoom="28.285713"
     inkscape:cx="4.6489901"
     inkscape:cy="10.252526"
     inkscape:window-width="1920"
     inkscape:window-height="998"
     inkscape:window-x="0"
     inkscape:window-y="0"
     inkscape:window-maximized="1"
     inkscape:current-layer="svg1003" />
  <defs
     id="defs1000">
    <linearGradient
       inkscape:collect="always"
       id="linearGradient1230">
      <stop
         style="stop-color:#f7f7f7;stop-opacity:1;"
         offset="0"
         id="stop1226" />
      <stop
         style="stop-color:#e6e6e6;stop-opacity:1"
         offset="1"
         id="stop1228" />
    </linearGradient>
    <linearGradient
       inkscape:collect="always"
       xlink:href="#linearGradient1871"
       id="linearGradient16320"
       x1="10"
       y1="4"
       x2="10"
       y2="29.100245"
       gradientUnits="userSpaceOnUse"
       gradientTransform="matrix(0.13229166,0,0,0.12211538,0,0.04070512)" />
    <linearGradient
       inkscape:collect="always"
       id="linearGradient1871">
      <stop
         style="stop-color:#ffffff;stop-opacity:1;"
         offset="0"
         id="stop1867" />
      <stop
         style="stop-color:#ffffff;stop-opacity:0.1"
         offset="0.12"
         id="stop2515" />
      <stop
         style="stop-color:#ffffff;stop-opacity:0.102"
         offset="0.89999998"
         id="stop2581" />
      <stop
         style="stop-color:#ffffff;stop-opacity:0.502"
         offset="1"
         id="stop1869" />
    </linearGradient>
    <linearGradient
       inkscape:collect="always"
       xlink:href="#linearGradient1230"
       id="linearGradient1232"
       x1="1.0583333"
       y1="3.96875"
       x2="1.0583333"
       y2="0.26458332"
       gradientUnits="userSpaceOnUse" />
  </defs>
  <path
     d="M 1.0583333,0.396875 H 3.175 c 0.7935019,1.919e-4 0.9259876,0.157244 0.9260416,0.9921875 V 2.8376562 C 4.1009876,3.6238466 3.9685019,3.8366501 3.175,3.8364583 H 1.0583333 c -0.79355622,0 -0.92604169,-0.2128036 -0.92604169,-0.9988021 V 1.3890625 c 0,-0.7859985 0.13248546,-0.9921875 0.92604169,-0.9921875 z"
     style="fill:url(#linearGradient1232);fill-opacity:1;stroke-width:0.0653156;stroke-linejoin:round"
     id="path17503"
     sodipodi:nodetypes="sccccssss" />
  <path
     style="color:#000000;opacity:0.5;fill:#1a7fd4;stroke-width:0.264583;-inkscape-stroke:none"
     d="m 2.8881959,1.0583333 c -0.093275,0 -0.1769774,0.056114 -0.2253094,0.1209229 -0.048332,0.064809 -0.076219,0.1391966 -0.099735,0.2211751 C 2.5161185,1.5643883 2.4905785,1.7632914 2.4597987,1.95802 2.4290187,2.1527486 2.3920977,2.3425893 2.338359,2.4680664 2.31149,2.5308054 2.281018,2.5756524 2.25361,2.600358 2.226202,2.625064 2.205927,2.633948 2.167827,2.633948 H 2.012797 1.8701701 C 1.8391151,2.631388 1.8228131,2.623914 1.8014401,2.603459 1.7797401,2.58269 1.7553281,2.544994 1.7332271,2.4923547 1.6890251,2.3870765 1.6567034,2.2271993 1.6195394,2.0613728 1.5823754,1.8955464 1.540832,1.7227174 1.451591,1.5761311 1.3625071,1.429803 1.2028312,1.3120885 0.99632159,1.3130981 H 0.26458333 v 0.2645833 h 0.73225506 5.159e-4 c 0.12042231,-8.307e-4 0.17064601,0.041027 0.22840981,0.1359091 0.057764,0.094882 0.099972,0.2453084 0.135909,0.40566 0.035937,0.1603515 0.066094,0.3293512 0.1276408,0.4759399 0.030774,0.073294 0.069876,0.1427013 0.1291911,0.199471 0.059316,0.05677 0.1420877,0.097025 0.2325448,0.1038696 h 0.00517 0.1565796 0.1550293 c 0.1006874,0 0.1948341,-0.039812 0.2630331,-0.1012856 0.068199,-0.061474 0.1144924,-0.1397945 0.1508951,-0.2247927 0.072805,-0.169996 0.1080338,-0.373856 0.1395263,-0.5730916 0.031493,-0.1992356 0.058391,-0.3945499 0.096118,-0.5260661 0.018863,-0.065758 0.041424,-0.1145387 0.057361,-0.135909 0.015938,-0.02137 0.00971,-0.014469 0.013435,-0.014469 0.012351,0 0.015452,2.565e-4 0.029972,0.013436 0.014523,0.013179 0.035134,0.042438 0.054777,0.084749 0.039285,0.084623 0.072735,0.2173787 0.1007692,0.3545004 0.028034,0.1371217 0.051794,0.2779406 0.087333,0.3958414 0.017769,0.05895 0.036886,0.1123898 0.071313,0.1627808 0.034427,0.050391 0.1012301,0.1059367 0.1834512,0.1059367 0.058197,0 0.1162275,-0.027293 0.1529623,-0.062012 0.036735,-0.034719 0.057937,-0.073524 0.074414,-0.111621 0.032954,-0.076195 0.048122,-0.1560198 0.063562,-0.2315105 0.015439,-0.075491 0.030715,-0.1463525 0.045475,-0.1839681 0.00292,-0.00743 0.00235,-0.00559 0.00465,-0.00982 H 3.96875 V 1.5766481 H 3.7248372 c -0.059362,0 -0.1178007,0.030925 -0.1519288,0.066663 -0.034128,0.035738 -0.052009,0.073762 -0.066663,0.1111043 -0.029306,0.074685 -0.043726,0.1531328 -0.058911,0.2273763 -0.00999,0.048862 -0.020505,0.081745 -0.031006,0.1183391 -7.937e-4,-0.00253 -0.00127,-0.00256 -0.00206,-0.00517 C 3.3866566,2.003383 3.3616826,1.8650776 3.3326131,1.7228922 3.3035435,1.5807068 3.2712046,1.4343386 3.2132405,1.3094808 3.1842585,1.2470518 3.1487343,1.1884179 3.0959351,1.1404988 3.0431356,1.0925797 2.9676365,1.0583333 2.8881959,1.0583333 Z"
     id="path25" />
  <path
     style="color:#000000;fill:#da1636;stroke-width:0.264583;-inkscape-stroke:none"
     d="m 2.065507,1.3043131 c -0.1001796,0 -0.1936924,0.039673 -0.2619995,0.1002523 -0.068307,0.060579 -0.1148911,0.1377923 -0.151412,0.2216919 -0.073042,0.1677993 -0.1085392,0.3687392 -0.1400431,0.5648234 -0.031504,0.1960842 -0.058008,0.3878425 -0.095601,0.5167643 -0.018797,0.064461 -0.041666,0.1121051 -0.057361,0.1328084 -0.015695,0.020704 -0.00949,0.01447 -0.013953,0.01447 -0.033688,0 -0.051166,-0.012253 -0.088367,-0.081649 C 1.2195706,2.7040784 1.1869794,2.591313 1.1591024,2.473234 1.1312253,2.355155 1.1073892,2.2328132 1.0707357,2.1275187 1.0524089,2.0748714 1.0317011,2.0253593 0.99528809,1.9792073 0.95887509,1.9330554 0.89258922,1.8872233 0.81752116,1.8872233 c -0.10387221,0 -0.18679326,0.079107 -0.22272543,0.146761 -0.0359322,0.067654 -0.0511637,0.1356944 -0.0666626,0.197404 -0.0154988,0.06171 -0.0313151,0.1175304 -0.0434082,0.142627 -5.2123e-4,0.00108 -2.196e-5,8.81e-5 -5.1594e-4,0.00103 H 0.26458333 v 0.2645878 h 0.24391276 c 0.0524667,0 0.10633524,-0.022203 0.14211019,-0.05271 0.0357749,-0.030508 0.0568771,-0.065009 0.0728638,-0.098186 0.0319733,-0.066353 0.0458526,-0.1325295 0.0609782,-0.192753 0.0103628,-0.04126 0.0200808,-0.066918 0.0299723,-0.094568 0.002442,0.00611 0.003786,0.00598 0.006201,0.012919 0.0264985,0.076122 0.0513855,0.1955509 0.0806154,0.3193603 0.0292299,0.1238095 0.0624234,0.252815 0.12247312,0.3648356 0.06005,0.1120207 0.171534,0.221175 0.3214274,0.2211753 0.092552,-3e-7 0.1762132,-0.05529 0.2247925,-0.1193726 0.048579,-0.064083 0.076666,-0.1371878 0.1002523,-0.2180746 0.047173,-0.161774 0.072584,-0.3578104 0.1033528,-0.5493205 0.030769,-0.1915101 0.067944,-0.3783649 0.1214397,-0.5012614 0.026748,-0.061448 0.056937,-0.104984 0.084233,-0.1291911 0.027295,-0.024207 0.047699,-0.03359 0.0863,-0.03359 h 0.1519287 0.1514119 c 0.070797,0 0.098525,0.02177 0.1379761,0.080615 0.039451,0.058845 0.072133,0.1568217 0.097152,0.2625163 0.025019,0.1056945 0.043087,0.216748 0.072347,0.3141927 0.014629,0.048722 0.031024,0.095091 0.063562,0.1405599 0.032538,0.045469 0.097456,0.093579 0.1705321,0.094568 0.071391,9.605e-4 0.135417,-0.013419 0.1860352,-0.045992 0.050618,-0.032573 0.077999,-0.076734 0.091984,-0.1002523 0.012642,-0.021259 0.013809,-0.021865 0.010335,-0.01912 0.00366,0.00396 0.00943,0.010521 0.018603,0.026872 0.022289,0.039734 0.04819,0.1104102 0.073381,0.1855184 0.025191,0.075108 0.050003,0.154257 0.08785,0.2268597 0.018923,0.036301 0.040949,0.071902 0.075964,0.1043864 0.035016,0.032485 0.090103,0.061495 0.1498616,0.061495 H 3.96875 V 2.6365316 H 3.6282024 c -0.00378,-0.00484 -0.00739,-0.00869 -0.014986,-0.023254 -0.02132,-0.040898 -0.046264,-0.1129089 -0.07183,-0.1891357 -0.025566,-0.076227 -0.051636,-0.1572265 -0.093018,-0.2309936 -0.02069,-0.036884 -0.045293,-0.0727 -0.082682,-0.1043865 -0.037389,-0.031687 -0.092855,-0.057361 -0.1514118,-0.057361 -0.06674,0 -0.1314604,0.018452 -0.1772502,0.05426 -0.04579,0.035809 -0.065156,0.075875 -0.075964,0.094051 -0.010808,0.018176 -0.010631,0.015288 -0.00775,0.013436 4.498e-4,-2.911e-4 -0.00618,4.789e-4 -0.0062,5.159e-4 -0.00513,-0.010513 -0.010271,-0.019087 -0.017576,-0.043408 C 2.908496,2.0801827 2.8890084,1.968522 2.861324,1.8515665 2.8336396,1.7346111 2.7988323,1.6101997 2.7264487,1.5022338 2.6540648,1.394268 2.5257471,1.3043131 2.3688476,1.3043131 H 2.2174357 Z"
     id="path27" />
  <path
     id="rect13250"
     style="opacity:0.699;fill:url(#linearGradient16320);fill-opacity:1;stroke-width:0.127101;stroke-linejoin:round"
     d="M 0.94929604,0.52916666 C 0.4275256,0.53207345 0.26458333,0.5787759 0.26458333,1.3229166 v 0.1829346 1.2216309 0.1829345 c 0,0.79375 0.21166674,0.79375 0.79374997,0.79375 H 1.3229166 3.175 c 0.5820833,0 0.79375,0 0.79375,-0.79375 V 2.7274821 1.5058512 1.3229166 C 3.96875,0.52916642 3.7570833,0.52916666 3.175,0.52916666 H 1.3229166 Z m 0.0847494,0.26458333 c 0.0079,-4.458e-5 0.016138,0 0.024288,0 H 3.175 c 0.5216072,0 0.5291666,0.0892859 0.5291666,0.52916661 v 1.5875 c 0,0.4398807 -0.00756,0.5291667 -0.5291666,0.5291667 H 1.0583333 c -0.52160723,0 -0.52916664,-0.089286 -0.52916664,-0.5291667 v -1.5875 c 0,-0.4330075 0.007113,-0.52635721 0.50487874,-0.52916661 z"
     sodipodi:nodetypes="csccsscssccssccssssssssss" />
  <path
     id="rect7040"
     style="opacity:0.4;stroke-width:0.264583;stroke-linejoin:round"
     d="M 1.0583333,0.26458333 C 0.21187339,0.26458333 0,0.47645663 0,1.3229166 v 1.5875 C 0,3.7568766 0.21187339,3.96875 1.0583333,3.96875 H 3.175 C 4.021402,3.9689566 4.2332756,3.7570833 4.2333333,2.9104166 v -1.5875 C 4.2332756,0.42374666 4.021402,0.26478997 3.175,0.26458333 Z M 0.94929604,0.52916666 H 1.3229166 3.175 c 0.5820833,0 0.79375,-2.9e-7 0.79375,0.79374994 v 0.1829346 1.2216309 0.1829345 c 0,0.79375 -0.2116667,0.79375 -0.79375,0.79375 H 1.3229166 1.0583333 c -0.5820832,0 -0.79374997,0 -0.79374997,-0.79375 V 2.7274821 1.5058512 1.3229166 c 0,-0.74414078 0.16294232,-0.79084294 0.68471271,-0.79374994 z"
     sodipodi:nodetypes="ssssccccsccssccsscssccsc" />
</svg>
