<?xml version="1.0" encoding="UTF-8" standalone="no"?>
<!-- Created with Inkscape (http://www.inkscape.org/) -->

<svg
   width="16"
   height="16"
   viewBox="0 0 4.2333332 4.2333335"
   version="1.1"
   id="svg5"
   inkscape:version="1.1.2 (0a00cf5339, 2022-02-04)"
   sodipodi:docname="ubiquity-kde.svg"
   xmlns:inkscape="http://www.inkscape.org/namespaces/inkscape"
   xmlns:sodipodi="http://sodipodi.sourceforge.net/DTD/sodipodi-0.dtd"
   xmlns:xlink="http://www.w3.org/1999/xlink"
   xmlns="http://www.w3.org/2000/svg"
   xmlns:svg="http://www.w3.org/2000/svg">
  <sodipodi:namedview
     id="namedview7"
     pagecolor="#ffffff"
     bordercolor="#666666"
     borderopacity="1.0"
     inkscape:pageshadow="2"
     inkscape:pageopacity="0.0"
     inkscape:pagecheckerboard="0"
     inkscape:document-units="px"
     showgrid="false"
     units="px"
     inkscape:zoom="49.0625"
     inkscape:cx="8"
     inkscape:cy="7.9898089"
     inkscape:window-width="1920"
     inkscape:window-height="995"
     inkscape:window-x="0"
     inkscape:window-y="0"
     inkscape:window-maximized="1"
     inkscape:current-layer="svg5" />
  <defs
     id="defs2">
    <linearGradient
       inkscape:collect="always"
       id="linearGradient17934">
      <stop
         style="stop-color:#b3b3b3;stop-opacity:1"
         offset="0"
         id="stop17930" />
      <stop
         style="stop-color:#d9d9d9;stop-opacity:1"
         offset="1"
         id="stop17932" />
    </linearGradient>
    <linearGradient
       inkscape:collect="always"
       id="linearGradient1871">
      <stop
         style="stop-color:#ffffff;stop-opacity:1;"
         offset="0"
         id="stop1867" />
      <stop
         style="stop-color:#ffffff;stop-opacity:0.1"
         offset="0.12"
         id="stop2515" />
      <stop
         style="stop-color:#ffffff;stop-opacity:0.102"
         offset="0.89999998"
         id="stop2581" />
      <stop
         style="stop-color:#ffffff;stop-opacity:0.502"
         offset="1"
         id="stop1869" />
    </linearGradient>
    <linearGradient
       inkscape:collect="always"
       xlink:href="#linearGradient1871"
       id="linearGradient915"
       x1="2.1166668"
       y1="0.26458332"
       x2="2.1166668"
       y2="3.96875"
       gradientUnits="userSpaceOnUse" />
    <linearGradient
       inkscape:collect="always"
       xlink:href="#linearGradient17934"
       id="linearGradient1003"
       x1="1.2844203"
       y1="0.132305"
       x2="3.175"
       y2="4.1010418"
       gradientUnits="userSpaceOnUse" />
    <linearGradient
       inkscape:collect="always"
       xlink:href="#linearGradient2221"
       id="linearGradient1241"
       x1="6.3499999"
       y1="2.3812499"
       x2="6.3499999"
       y2="9.7895832"
       gradientUnits="userSpaceOnUse"
       gradientTransform="matrix(0.28571428,0,0,0.28571428,0.30238087,0.11339275)" />
    <linearGradient
       inkscape:collect="always"
       id="linearGradient2221">
      <stop
         style="stop-color:#e6e6e6;stop-opacity:1;"
         offset="0"
         id="stop2217" />
      <stop
         style="stop-color:#f2f2f2;stop-opacity:1"
         offset="1"
         id="stop2219" />
    </linearGradient>
  </defs>
  <path
     d="m 1.3483433,0.264597 c -0.190238,0 -0.344435,0.0037 -0.48573797,0.02739 -0.141306,0.02373 -0.282644,0.0731 -0.39066,0.180867 -0.108013,0.107765 -0.157837,0.249563 -0.181374,0.391189 -0.02355,0.141629 -0.02677,0.29646 -0.02585,0.487309 v 0.765329 1.031462 c -7.94e-4,0.190013 0.0024,0.34458 0.02585,0.485759 0.02355,0.141626 0.07336,0.283425 0.181374,0.391189 0.108016,0.107768 0.249354,0.157147 0.39066,0.180867 0.14130297,0.02373 0.29549997,0.02739 0.48573797,0.02739 h 1.536798 c 0.190238,0 0.344096,-0.0036 0.485219,-0.02739 0.141126,-0.02376 0.28248,-0.07353 0.390142,-0.181383 0.107664,-0.107849 0.157167,-0.249425 0.180861,-0.390673 0.0237,-0.14125 0.02739,-0.295145 0.02739,-0.485759 V 2.11668 1.349801 c 0,-0.190614 -0.0037,-0.344509 -0.02739,-0.485759 -0.02368,-0.141248 -0.0732,-0.282824 -0.180861,-0.390673 -0.107662,-0.10785 -0.249016,-0.157634 -0.390142,-0.181383 -0.141123,-0.02376 -0.294981,-0.02739 -0.485219,-0.02739 z"
     style="color:#000000;font-style:normal;font-variant:normal;font-weight:normal;font-stretch:normal;font-size:medium;line-height:normal;font-family:sans-serif;font-variant-ligatures:normal;font-variant-position:normal;font-variant-caps:normal;font-variant-numeric:normal;font-variant-alternates:normal;font-feature-settings:normal;text-indent:0;text-align:start;text-decoration:none;text-decoration-line:none;text-decoration-style:solid;text-decoration-color:#000000;letter-spacing:normal;word-spacing:normal;text-transform:none;writing-mode:lr-tb;direction:ltr;text-orientation:mixed;dominant-baseline:auto;baseline-shift:baseline;text-anchor:start;white-space:normal;shape-padding:0;clip-rule:nonzero;display:inline;overflow:visible;visibility:visible;opacity:0.1;isolation:auto;mix-blend-mode:normal;color-interpolation:sRGB;color-interpolation-filters:linearRGB;solid-color:#000000;solid-opacity:1;vector-effect:none;fill:#000000;fill-opacity:1;fill-rule:nonzero;stroke:none;stroke-width:0.529156;stroke-linecap:butt;stroke-linejoin:miter;stroke-miterlimit:4;stroke-dasharray:none;stroke-dashoffset:0;stroke-opacity:1;marker:none;color-rendering:auto;image-rendering:auto;shape-rendering:auto;text-rendering:auto;enable-background:accumulate"
     id="path3731" />
  <path
     d="m 1.2844203,0.132305 c -0.80477297,0 -0.89136597,0.08175 -0.88742097,0.879292 V 2.11668 3.22176 c -0.0039,0.797541 0.08265,0.879295 0.88742097,0.879295 h 1.664615 c 0.804775,0 0.887423,-0.08174 0.887423,-0.879295 V 2.11668 1.011597 c 0,-0.797549 -0.08265,-0.879292 -0.887423,-0.879292 z"
     style="color:#000000;display:inline;overflow:visible;visibility:visible;fill:url(#linearGradient1003);fill-opacity:1;fill-rule:nonzero;stroke:none;stroke-width:0.264583;marker:none;enable-background:accumulate"
     id="path3851" />
  <path
     d="m 1.3017503,0.264607 c -0.37784097,0 -0.57122197,0.03201 -0.65086697,0.103696 -0.03982,0.03584 -0.06928,0.08775 -0.09077,0.188304 -0.02148,0.100557 -0.03094,0.244424 -0.03094,0.435419 v 1.124659 1.124659 c 0,0.190998 0.0094,0.334862 0.03094,0.43542 0.02148,0.100557 0.05095,0.152458 0.09077,0.188304 0.07964,0.07169 0.273026,0.103695 0.65086697,0.103695 h 1.629751 c 0.377936,0 0.572397,-0.03194 0.652415,-0.103695 0.04001,-0.03588 0.06949,-0.08742 0.09077,-0.187788 0.02125,-0.100365 0.03045,-0.244544 0.0294,-0.435417 V 3.241334 2.116685 0.992026 0.991497 c 0.0011,-0.190873 -0.0081,-0.335053 -0.0294,-0.435417 -0.02127,-0.100364 -0.05076,-0.151905 -0.09077,-0.187788 -0.08002,-0.07176 -0.274479,-0.103695 -0.652415,-0.103695 z m 0.611674,0.271881 c 0.240009,-2.65e-4 0.47997,-2.65e-4 0.719976,0.0011 0.24038,0.0087 0.483854,-0.01283 0.722043,0.0263 0.06492,-0.0045 0.05335,0.07245 0.0624,0.115562 0.0199,0.741997 0.01408,1.499798 0.01135,2.248807 -0.006,0.225946 0.0043,0.450837 -0.01807,0.673246 0.0032,0.08312 -0.09426,0.06942 -0.152144,0.08254 -0.55005,0.01611 -1.116346,0.0097 -1.673587,0.0098 -0.233955,-0.008 -0.470361,0.01148 -0.70244497,-0.02267 -0.06701,0.0067 -0.05625,-0.06917 -0.06808,-0.11247 -0.02117,-0.765444 -0.01423,-1.541465 -0.01135,-2.312257 0.0073,-0.208933 -0.0067,-0.416597 0.02061,-0.624755 -0.0061,-0.07268 0.07841,-0.05634 0.124809,-0.06965 C 1.2695083,0.530031 1.5920933,0.541461 1.9133793,0.536561 Z"
     style="color:#000000;display:inline;overflow:visible;visibility:visible;opacity:1;fill:url(#linearGradient915);fill-opacity:1;fill-rule:nonzero;stroke:none;stroke-width:0.2641;marker:none;enable-background:accumulate"
     id="path4135" />
  <path
     d="m 1.3012133,1.3e-5 c -0.38711497,0 -0.64589797,0.0083 -0.82733897,0.171567 -0.09072,0.08165 -0.144018,0.195932 -0.172601,0.329694 -0.02858,0.133766 -0.03669,0.292026 -0.03669,0.490927 V 2.11668 3.241159 c 0,0.198901 0.0081,0.357161 0.03669,0.490926 0.02858,0.133766 0.08188,0.248045 0.172601,0.329695 0.181441,0.163304 0.440224,0.171567 0.82733897,0.171567 h 1.630391 c 0.38721,0 0.64738,-0.0078 0.829406,-0.171048 0.09101,-0.08162 0.144208,-0.196255 0.1726,-0.330214 0.02836,-0.133818 0.03615,-0.2922 0.03514,-0.490926 V 3.24063 2.11668 0.992717 0.992187 c 0.0011,-0.198725 -0.0068,-0.357108 -0.03514,-0.490926 -0.02839,-0.133958 -0.08159,-0.248597 -0.1726,-0.330213 C 3.5789823,0.007818 3.3188143,0 2.9316043,0 Z m 0,0.264584 h 1.630391 c 0.377997,0 0.572728,0.03218 0.652672,0.10387 0.03997,0.03584 0.06917,0.08723 0.09043,0.187584 0.02127,0.100351 0.03044,0.244226 0.02946,0.435115 v 5.29e-4 1.124995 1.124996 5.29e-4 c 0.0011,0.190889 -0.0082,0.334761 -0.02946,0.435115 -0.02127,0.100351 -0.05046,0.151738 -0.09043,0.187584 -0.07994,0.07167 -0.274675,0.103849 -0.652672,0.103849 h -1.630391 c -0.37790197,0 -0.57103497,-0.03174 -0.65060797,-0.103354 -0.03979,-0.03581 -0.06895,-0.08807 -0.09043,-0.188619 -0.02148,-0.100547 -0.03101,-0.24462 -0.03101,-0.435631 V 2.11668 0.992201 c 0,-0.191011 0.0095,-0.335084 0.03101,-0.435631 0.02148,-0.10055 0.05065,-0.152813 0.09043,-0.188622 0.07957,-0.07161 0.272706,-0.103351 0.65060797,-0.103351 z"
     style="color:#000000;display:inline;opacity:0.4;fill:#000000;stroke-width:0.264583;-inkscape-stroke:none;enable-background:new"
     id="path4015" />
  <circle
     style="fill:#4d4d4d;fill-opacity:1;stroke-width:0.229323;stroke-linejoin:round"
     id="path968"
     cx="2.1166666"
     cy="1.8520833"
     r="1.3229166" />
  <circle
     style="fill:url(#linearGradient1241);fill-opacity:1;stroke-width:0.0755951;stroke-linejoin:round"
     id="path985"
     cx="2.1166666"
     cy="1.8520833"
     r="1.0583333" />
  <path
     d="m 1.9611208,1.0583334 c -0.3710338,0.074147 -0.6381507,0.3998781 -0.6382041,0.778248 0,0.438376 0.3553739,0.79375 0.7937499,0.79375 0.4383761,0 0.79375,-0.355374 0.79375,-0.79375 C 2.9100489,1.7134408 2.8810333,1.5920749 2.825668,1.4820821 L 2.5900221,1.5999037 c 0.036724,0.07349 0.055832,0.1545223 0.055811,0.2366777 0,0.2922507 -0.236916,0.5291667 -0.5291667,0.5291667 -0.2922506,0 -0.5291666,-0.236916 -0.5291666,-0.5291667 C 1.5877672,1.5845831 1.7657004,1.3677326 2.0127965,1.318268 Z"
     style="opacity:0.7;fill:#0077c4;stroke-width:0.264583;enable-background:new;fill-opacity:1"
     id="path1776" />
  <circle
     style="opacity:0.1;fill:#000000;stroke-width:0.173518;stroke-linecap:round;stroke-linejoin:round"
     id="path945"
     cx="2.1166666"
     cy="1.8520833"
     r="0.46302083" />
  <path
     id="circle73"
     style="opacity:0.2;fill:#000000;stroke-width:0.264582"
     d="m 2.1151171,1.4552091 a 0.02822205,0.02822205 0 0 0 -0.028422,0.028422 0.02822205,0.02822205 0 0 0 0.028422,0.028422 0.02822205,0.02822205 0 0 0 0.028422,-0.028422 0.02822205,0.02822205 0 0 0 -0.028422,-0.028422 z M 1.933216,1.5043021 a 0.02822205,0.02822205 0 0 0 -0.015503,0.00413 0.02822205,0.02822205 0 0 0 -0.010335,0.038241 0.02822205,0.02822205 0 0 0 0.038241,0.010335 0.02822205,0.02822205 0 0 0 0.010335,-0.038241 0.02822205,0.02822205 0 0 0 -0.022738,-0.014469 z m 0.3638021,0 a 0.02822205,0.02822205 0 0 0 -0.022738,0.014469 0.02822205,0.02822205 0 0 0 0.010335,0.038241 0.02822205,0.02822205 0 0 0 0.038241,-0.010335 0.02822205,0.02822205 0 0 0 -0.010335,-0.038241 0.02822205,0.02822205 0 0 0 -0.015503,-0.00413 z M 1.7962735,1.6386604 a 0.02822205,0.02822205 0 0 0 -0.023254,0.014469 0.02822205,0.02822205 0 0 0 0.010335,0.038241 0.02822205,0.02822205 0 0 0 0.038757,-0.010336 0.02822205,0.02822205 0 0 0 -0.010335,-0.03824 0.02822205,0.02822205 0 0 0 -0.015503,-0.00413 z m 0.6382039,0 a 0.02822205,0.02822205 0 0 0 -0.015503,0.00413 0.02822205,0.02822205 0 0 0 -0.010335,0.038241 0.02822205,0.02822205 0 0 0 0.038241,0.010335 0.02822205,0.02822205 0 0 0 0.010335,-0.038241 0.02822205,0.02822205 0 0 0 -0.022738,-0.014465 z m -0.686263,0.1834513 a 0.02822205,0.02822205 0 0 0 -0.028422,0.028422 0.02822205,0.02822205 0 0 0 0.028422,0.027905 0.02822205,0.02822205 0 0 0 0.028422,-0.027905 0.02822205,0.02822205 0 0 0 -0.028422,-0.028422 z m 0.7338053,0 a 0.02822205,0.02822205 0 0 0 -0.028422,0.028422 0.02822205,0.02822205 0 0 0 0.028422,0.027905 0.02822205,0.02822205 0 0 0 0.028422,-0.027905 0.02822205,0.02822205 0 0 0 -0.028422,-0.028422 z M 1.7947232,2.0055631 a 0.02822205,0.02822205 0 0 0 -0.011369,0.00413 0.02822205,0.02822205 0 0 0 -0.010335,0.038241 0.02822205,0.02822205 0 0 0 0.038757,0.010335 0.02822205,0.02822205 0 0 0 0.010335,-0.03824 0.02822205,0.02822205 0 0 0 -0.027388,-0.014469 z m 0.6366536,0 a 0.02822205,0.02822205 0 0 0 -0.022738,0.014469 0.02822205,0.02822205 0 0 0 0.010335,0.038241 0.02822205,0.02822205 0 0 0 0.038241,-0.010335 0.02822205,0.02822205 0 0 0 -0.010335,-0.038241 0.02822205,0.02822205 0 0 0 -0.015503,-0.00413 z M 1.9301154,2.1399218 a 0.02822205,0.02822205 0 0 0 -0.022738,0.013953 0.02822205,0.02822205 0 0 0 0.010335,0.038757 0.02822205,0.02822205 0 0 0 0.038241,-0.010335 0.02822205,0.02822205 0 0 0 -0.010335,-0.038757 0.02822205,0.02822205 0 0 0 -0.015503,-0.00362 z m 0.3658692,0 a 0.02822205,0.02822205 0 0 0 -0.011369,0.00362 0.02822205,0.02822205 0 0 0 -0.010335,0.038757 0.02822205,0.02822205 0 0 0 0.038241,0.010335 0.02822205,0.02822205 0 0 0 0.010335,-0.038757 0.02822205,0.02822205 0 0 0 -0.026872,-0.013953 z m -0.1808675,0.049093 a 0.02822205,0.02822205 0 0 0 -0.028422,0.028422 0.02822205,0.02822205 0 0 0 0.028422,0.027905 0.02822205,0.02822205 0 0 0 0.028422,-0.027905 0.02822205,0.02822205 0 0 0 -0.028422,-0.028422 z" />
  <circle
     style="fill:#ffffff;stroke-width:0.264583;stroke-linecap:round;stroke-linejoin:round"
     id="path1107"
     cx="2.1166666"
     cy="1.8520833"
     r="0.26458332" />
  <circle
     style="opacity:0.1;fill:#000000;stroke-width:0.817421;stroke-linecap:round;stroke-linejoin:round"
     id="path1255"
     cx="2.1166666"
     cy="1.8520836"
     r="0.22489583" />
  <circle
     style="fill:#888888;fill-opacity:1;stroke-width:0.264583;stroke-linecap:round;stroke-linejoin:round"
     id="path1381"
     cx="2.1166666"
     cy="1.8520833"
     r="0.06614583" />
  <path
     d="m 2.5515476,2.38125 c 0,0 -1.3935461,1.2535084 -1.4729491,1.3122253 -0.079285,0.058675 -0.19112886,0.04197 -0.24979996,-0.037317 -0.058675,-0.079285 -0.04197,-0.1911289 0.037317,-0.2498 0.079285,-0.058675 1.68540686,-1.0251032 1.68540686,-1.0251032 z"
     style="fill:#ffffff;stroke-width:0.264583;enable-background:new"
     id="path1081" />
  <circle
     style="fill:#808080;fill-opacity:1;stroke-width:0.197561;stroke-linecap:round;stroke-linejoin:round"
     id="path1594"
     cx="0.95911455"
     cy="3.5388021"
     r="0.06614583" />
  <path
     d="m 2.1166666,1.3228901 c 0,0.5845228 -1.0583095,1.4552348 -1.0583095,1.4552348 C 1.0583571,2.7781249 0,1.9074129 0,1.3228901 0,0.73840703 0.47384227,0.26458333 1.0583571,0.26458333 c 0.5845175,0 1.0583095,0.4738132 1.0583095,1.05830677 z"
     style="opacity:0.2;stroke-width:0.264583;enable-background:new"
     id="path964" />
  <path
     d="m 2.1166667,1.0583069 c 0,0.5845174 -1.0583069,1.4552347 -1.0583069,1.4552347 C 1.0583598,2.5135416 0,1.6428243 0,1.0583069 0,0.47381584 0.47384228,0 1.0583598,0 1.6428773,0 2.1166667,0.47381584 2.1166667,1.0583069 Z"
     style="fill:#0077c4;stroke-width:0.264583;enable-background:new;fill-opacity:1"
     id="path1240" />
  <path
     d="M 0.77206207,0.52916666 H 1.3012288 V 0.79374999 H 1.5441084 C 1.4546263,0.99315587 1.2933548,1.2747096 1.0366375,1.7015619 0.77987527,1.2746567 0.61864875,0.99290187 0.52916666,0.79345895 h 0.24288221 z"
     style="color:#000000;fill:#ffffff;stroke-width:0.264583"
     id="path1500" />
</svg>
