<?xml version="1.0" encoding="UTF-8" standalone="no"?>
<!-- Created with Inkscape (http://www.inkscape.org/) -->

<svg
   width="16"
   height="16"
   viewBox="0 0 4.2333333 4.2333333"
   version="1.1"
   id="svg1003"
   sodipodi:docname="workspace-switcher-right-bottom.svg"
   inkscape:version="1.1.2 (0a00cf5339, 2022-02-04, custom)"
   xmlns:inkscape="http://www.inkscape.org/namespaces/inkscape"
   xmlns:sodipodi="http://sodipodi.sourceforge.net/DTD/sodipodi-0.dtd"
   xmlns:xlink="http://www.w3.org/1999/xlink"
   xmlns="http://www.w3.org/2000/svg"
   xmlns:svg="http://www.w3.org/2000/svg">
  <sodipodi:namedview
     id="namedview1005"
     pagecolor="#ffffff"
     bordercolor="#666666"
     borderopacity="1.0"
     inkscape:pageshadow="2"
     inkscape:pageopacity="0.0"
     inkscape:pagecheckerboard="0"
     inkscape:document-units="px"
     showgrid="false"
     units="px"
     showguides="true"
     inkscape:lockguides="true"
     inkscape:zoom="23.874926"
     inkscape:cx="5.3403307"
     inkscape:cy="6.5549941"
     inkscape:window-width="1920"
     inkscape:window-height="1006"
     inkscape:window-x="0"
     inkscape:window-y="0"
     inkscape:window-maximized="1"
     inkscape:current-layer="svg1003" />
  <defs
     id="defs1000">
    <linearGradient
       inkscape:collect="always"
       id="linearGradient1871">
      <stop
         style="stop-color:#ffffff;stop-opacity:1;"
         offset="0"
         id="stop1867" />
      <stop
         style="stop-color:#ffffff;stop-opacity:0.1"
         offset="0.12"
         id="stop2515" />
      <stop
         style="stop-color:#ffffff;stop-opacity:0.102"
         offset="0.89999998"
         id="stop2581" />
      <stop
         style="stop-color:#ffffff;stop-opacity:0.502"
         offset="1"
         id="stop1869" />
    </linearGradient>
    <linearGradient
       inkscape:collect="always"
       xlink:href="#linearGradient1871"
       id="linearGradient891"
       x1="1.1761556"
       y1="0.26459649"
       x2="1.1761556"
       y2="3.9687631"
       gradientUnits="userSpaceOnUse" />
    <linearGradient
       inkscape:collect="always"
       id="linearGradient1753">
      <stop
         style="stop-color:#80a3fa;stop-opacity:1"
         offset="0"
         id="stop1749" />
      <stop
         style="stop-color:#5884f4;stop-opacity:1"
         offset="1"
         id="stop1751" />
    </linearGradient>
    <linearGradient
       inkscape:collect="always"
       xlink:href="#linearGradient1753"
       id="linearGradient2833"
       x1="3.8364596"
       y1="4.2333331"
       x2="1.1761556"
       y2="1.32e-05"
       gradientUnits="userSpaceOnUse" />
  </defs>
  <path
     d="m 1.0923594,0.2645965 c -0.99048625,0 -1.09706305,0.081754 -1.09220794549,0.8792925 V 2.2489715 3.3540514 C -0.00468855,4.1515929 0.10187315,4.2333465 1.0923594,4.2333465 h 2.0487614 c 0.9904941,0 1.0922132,-0.081743 1.0922132,-0.8792951 V 2.2489715 1.143889 c 0,-0.7975521 -0.1017217,-0.8792925 -1.0922132,-0.8792925 z"
     style="color:#000000;display:inline;overflow:visible;visibility:visible;opacity:0.1;fill:#000000;fill-opacity:1;fill-rule:nonzero;stroke:none;stroke-width:0.264583;marker:none;enable-background:accumulate"
     id="path1314" />
  <path
     d="m 1.1563807,0.1322916 c -0.92858435,0 -1.02849895,0.081754 -1.02394555,0.8792925 v 1.1050825 1.1050799 c -0.004551,0.7975415 0.0953612,0.8792951 1.02394555,0.8792951 h 1.9207136 c 0.9285843,0 1.023948,-0.081743 1.023948,-0.8792951 V 2.1166666 1.0115841 c 0,-0.7975494 -0.095366,-0.8792925 -1.023948,-0.8792925 z"
     style="color:#000000;display:inline;overflow:visible;visibility:visible;fill:url(#linearGradient2833);fill-opacity:1;fill-rule:nonzero;stroke:none;stroke-width:0.265859;marker:none;enable-background:accumulate"
     id="path908" />
  <path
     d="m 1.1761556,0.2645965 c -0.4373615,0 -0.6736397,0.0332 -0.7715276,0.1095534 -0.048945,0.038177 -0.080642,0.087635 -0.1049046,0.1860365 -0.024262,0.098401 -0.035139,0.2416095 -0.035139,0.4320143 V 2.1166798 3.241159 c 0,0.1904047 0.010874,0.3335919 0.035139,0.4320143 0.024262,0.098401 0.055959,0.1478597 0.1049046,0.1860365 0.097888,0.076353 0.3341661,0.1095533 0.7715276,0.1095533 h 1.8810235 c 0.43747,0 0.6752246,-0.033102 0.7735966,-0.1095533 0.049183,-0.038227 0.080904,-0.087863 0.104902,-0.1860365 0.023998,-0.098174 0.034131,-0.2407153 0.033073,-0.4309798 V 3.2416643 2.1166798 0.9916847 0.9911556 C 3.969809,0.8008911 3.9596755,0.6583494 3.9356777,0.5601758 3.91168,0.4620022 3.8799591,0.4123663 3.8307757,0.3741393 3.7324063,0.2977012 3.4946491,0.2645965 3.0571791,0.2645965 Z M 2.58589,0.5415835 c 0.293071,-8.99e-5 0.5856896,0.00212 0.8784987,0.01188 0.070422,0.015849 0.2003875,-0.0055 0.2098066,0.091467 0.035467,0.4879922 0.017515,0.9757145 0.026871,1.4655429 -0.00333,0.4940962 0.014367,0.9711029 -0.027387,1.4546924 0.016986,0.1119558 -0.1162738,0.094131 -0.1860365,0.1116198 -0.9082537,0.0186 -1.8192141,0.015584 -2.7248987,5.291e-4 C 0.7037741,3.6667837 0.6155776,3.6772294 0.574644,3.6277047 0.52209,3.3287387 0.541053,3.0272434 0.532268,2.7228508 c 0.00365,-0.676402 -0.00767,-1.3513011 0.02376,-2.0257161 -0.00794,-0.072152 0.028956,-0.13131 0.1059365,-0.1291934 0.3457019,-0.042598 0.6965553,-0.016827 1.0443818,-0.025823 0.2929414,0.00159 0.5864622,-5.292e-4 0.8795332,-5.292e-4 z"
     style="color:#000000;display:inline;overflow:visible;visibility:visible;fill:url(#linearGradient891);fill-opacity:1;fill-rule:nonzero;stroke:none;stroke-width:0.264583;marker:none;enable-background:accumulate;opacity:1"
     id="path1490" />
  <path
     d="m 1.1761556,1.32e-5 c -0.44534665,0 -0.73102525,0.0068 -0.93430995,0.1653646 -0.1016423,0.079282 -0.1654439,0.1958525 -0.1989534,0.3317637 C 0.00938275,0.6330526 6.5451263e-7,0.7926916 6.5451263e-7,0.9922007 V 2.1166798 3.241159 c 0,0.1995091 0.009389995487,0.359148 0.0428919954874,0.4950592 0.03351,0.1359112 0.097311,0.2524813 0.1989534,0.3317637 0.2032847,0.1585648 0.4889633,0.1653646 0.93430995,0.1653646 h 1.8810235 c 0.4454551,0 0.7319539,-0.00688 0.9358603,-0.1653646 C 4.0949917,3.9887469 4.1592167,3.8723569 4.1925092,3.7362182 4.2257672,3.6002224 4.2345012,3.4405146 4.2333342,3.241159 V 3.2406298 2.1166798 0.9927166 0.9921875 C 4.2343923,0.7928319 4.2257669,0.6331241 4.1925088,0.4971282 4.1592163,0.3609895 4.0949913,0.2445993 3.9930394,0.1653646 3.789133,0.006895 3.5026342,0 3.0571791,0 Z m 0,0.2645833 h 1.8810235 c 0.43747,0 0.6752272,0.033105 0.7735966,0.1095534 0.049183,0.038224 0.080894,0.087863 0.104902,0.1860365 0.023998,0.098174 0.034203,0.2407152 0.033073,0.4309798 v 5.291e-4 1.1249951 1.1249951 5.292e-4 c 0.00106,0.1902619 -0.00908,0.3328061 -0.033073,0.4309798 -0.023998,0.098174 -0.055719,0.1478094 -0.104902,0.1860364 -0.098372,0.076451 -0.3361266,0.1095534 -0.7735966,0.1095534 H 1.1761556 c -0.43735895,0 -0.67363975,-0.0332 -0.77152765,-0.1095534 C 0.35568265,3.8210542 0.32398555,3.7715957 0.29972335,3.6731945 0.27546105,3.5747721 0.26458395,3.4315637 0.26458395,3.241159 V 2.1166798 0.9922007 c 0,-0.1904048 0.010874,-0.3336131 0.035139,-0.4320143 0.024262,-0.098401 0.055959,-0.1478598 0.1049046,-0.1860365 0.097888,-0.076353 0.3341687,-0.1095534 0.77152805,-0.1095534 z"
     style="color:#000000;display:inline;opacity:0.4;fill:#000000;stroke-width:0.264583;-inkscape-stroke:none;enable-background:new"
     id="path1158" />
  <path
     d="m 3.9723325,2.6458873 c 0.1017746,-0.00131 0.1700874,0.021409 0.2051897,0.063243 0.036854,0.043565 0.055806,0.1150251 0.055806,0.2143569 v 1.0322489 c 0,0.099332 -0.018944,0.1707893 -0.055806,0.2143541 -0.035102,0.041826 -0.1034071,0.063243 -0.2051897,0.063243 H 2.6422457 c -0.1017826,0 -0.1702779,-0.021409 -0.2053776,-0.063243 C 2.400017,4.1265253 2.3812501,4.055068 2.3812501,3.9557362 V 2.9234873 c 0,-0.099332 0.018759,-0.170792 0.055618,-0.2143568 0.035097,-0.041823 0.103595,-0.063246 0.2053776,-0.063246 z"
     style="fill:#e6e6e6;stroke-width:0.263636;enable-background:new"
     id="path872" />
</svg>
