<svg width="18" height="18" version="1.1" viewBox="0 0 18 18" xmlns="http://www.w3.org/2000/svg">
 <defs>
  <style id="current-color-scheme" type="text/css">.ColorScheme-Text { color:#4d4d4d; } .ColorScheme-Highlight { color:#f34f17; }</style>
 </defs>
 <path d="m8 1v16h1v-4l6.7363 1.9258 0.26367-0.91016v-0.01563l-7-2v-11h-1z" color="#f34f17" fill="currentColor"/>
 <path d="m11.553 5.3259-1.5529 5.7956 0.96593 0.25882 0.20271-0.75652c0.38985 0.60254 0.98501 1.0748 1.7291 1.2742 1.5947 0.42729 3.2469-0.52664 3.6742-2.1213 0.42729-1.5947-0.52664-3.2469-2.1213-3.6742-0.74414-0.19939-1.4957-0.088016-2.1346 0.23888l0.20271-0.75652zm2.639 1.7424c1.0727 0.28742 1.7016 1.3768 1.4142 2.4495-0.28741 1.0727-1.3768 1.7016-2.4495 1.4142-1.0727-0.28741-1.7016-1.3768-1.4142-2.4495 0.28741-1.0727 1.3768-1.7016 2.4495-1.4142z" color="#000000" color-rendering="auto" dominant-baseline="auto" fill="#dfdfdf" image-rendering="auto" shape-rendering="auto" solid-color="#000000" style="font-feature-settings:normal;font-variant-alternates:normal;font-variant-caps:normal;font-variant-ligatures:normal;font-variant-numeric:normal;font-variant-position:normal;isolation:auto;mix-blend-mode:normal;paint-order:stroke fill markers;shape-padding:0;text-decoration-color:#000000;text-decoration-line:none;text-decoration-style:solid;text-indent:0;text-orientation:mixed;text-transform:none;white-space:normal"/>
 <path d="m7 11v6h-1v-0.7832c-0.53252 0.48111-1.2296 0.7832-2 0.7832-1.6509 0-3-1.3491-3-3s1.3491-3 3-3c0.77039 0 1.4675 0.30209 2 0.7832v-0.7832zm-3 1c-1.1105 0-2 0.88951-2 2s0.88951 2 2 2 2-0.88951 2-2-0.88951-2-2-2z" color="#000000" color-rendering="auto" dominant-baseline="auto" fill="#dfdfdf" image-rendering="auto" shape-rendering="auto" solid-color="#000000" style="font-feature-settings:normal;font-variant-alternates:normal;font-variant-caps:normal;font-variant-ligatures:normal;font-variant-numeric:normal;font-variant-position:normal;isolation:auto;mix-blend-mode:normal;paint-order:stroke fill markers;shape-padding:0;text-decoration-color:#000000;text-decoration-line:none;text-decoration-style:solid;text-indent:0;text-orientation:mixed;text-transform:none;white-space:normal"/>
</svg>
