<svg width="48" height="48" enable-background="new" version="1.0" xmlns="http://www.w3.org/2000/svg" xmlns:xlink="http://www.w3.org/1999/xlink">
 <title>Suru Icon Theme Template</title>
 <defs>
  <linearGradient id="linearGradient951" x1="512" x2="-1e-6" y1="397.99" y2="125.99" gradientTransform="matrix(0 -.11328 -.11328 0 379.49 112)" gradientUnits="userSpaceOnUse">
   <stop stop-color="#8c59d9" offset="0"/>
   <stop stop-color="#a7a7f1" offset="1"/>
  </linearGradient>
  <linearGradient id="linearGradient925" x1="344" x2="344" y1="61" y2="107" gradientTransform="translate(.0014187)" gradientUnits="userSpaceOnUse">
   <stop stop-color="#fff" offset="0"/>
   <stop stop-color="#fff" stop-opacity=".098039" offset=".125"/>
   <stop stop-color="#fff" stop-opacity=".098039" offset=".925"/>
   <stop stop-opacity=".49804" offset="1"/>
  </linearGradient>
 </defs>
 <g transform="translate(12,-164)">
  <g transform="translate(-332,104)" enable-background="new">
   <rect x="320" y="60" width="48" height="48" enable-background="accumulate" opacity="0" stroke-width="2"/>
   <path d="m335.73 62c-2.2232 0-3.9737 0.05118-5.4141 0.29297-1.4404 0.24178-2.619 0.6953-3.4824 1.5566-0.86337 0.86134-1.3191 2.0395-1.5586 3.4805-0.23953 1.441-0.28629 3.1953-0.27539 5.4238v12.246 12.252c-0.0108 2.2251 0.0361 3.9785 0.27539 5.418 0.23953 1.441 0.69522 2.6191 1.5586 3.4805 0.86338 0.86134 2.042 1.3149 3.4824 1.5566 1.4404 0.24179 3.1909 0.29297 5.4141 0.29297h16.539c2.2232 0 3.9728-0.0511 5.4102-0.29297 1.4374-0.24189 2.6125-0.69694 3.4726-1.5586 0.8602-0.86165 1.3132-2.0389 1.5547-3.4785 0.24149-1.4396 0.29297-3.1904 0.29297-5.418v-12.252-12.252c0-2.2276-0.0515-3.9784-0.29297-5.418-0.24149-1.4396-0.69449-2.6169-1.5547-3.4785-0.86019-0.86165-2.0352-1.3167-3.4726-1.5586-1.4374-0.24189-3.187-0.29297-5.4102-0.29297z" color="#000000" color-rendering="auto" dominant-baseline="auto" enable-background="accumulate" image-rendering="auto" opacity=".1" shape-rendering="auto" solid-color="#000000" style="font-feature-settings:normal;font-variant-alternates:normal;font-variant-caps:normal;font-variant-ligatures:normal;font-variant-numeric:normal;font-variant-position:normal;isolation:auto;mix-blend-mode:normal;shape-padding:0;text-decoration-color:#000000;text-decoration-line:none;text-decoration-style:solid;text-indent:0;text-orientation:mixed;text-transform:none;white-space:normal"/>
   <path d="m335.73 61c-2.2228 0-3.9747 0.05331-5.4141 0.29492-1.4411 0.24191-2.6187 0.69492-3.4824 1.5566-0.8639 0.86188-1.319 2.0369-1.5586 3.4785-0.23931 1.4397-0.28629 3.1936-0.27539 5.4219v12.248 12.252c-0.0108 2.226 0.0362 3.9793 0.27539 5.418 0.23963 1.4416 0.69468 2.6166 1.5586 3.4785 0.86376 0.86171 2.0413 1.3147 3.4824 1.5566 1.4393 0.24161 3.1912 0.29492 5.4141 0.29492h16.539c2.2228 0 3.9718-0.0532 5.4082-0.29492 1.438-0.24198 2.6136-0.69415 3.4746-1.5566 0.86073-0.86218 1.3131-2.0382 1.5547-3.4785 0.24138-1.4389 0.29297-3.1909 0.29297-5.418v-12.252-12.252c0-2.227-0.0516-3.9791-0.29297-5.418-0.2416-1.4403-0.69396-2.6163-1.5547-3.4785-0.86102-0.86248-2.0366-1.3147-3.4746-1.5566-1.4364-0.24171-3.1854-0.29492-5.4082-0.29492z" color="#000000" enable-background="accumulate" fill="url(#linearGradient951)"/>
   <path d="m335.73 61.5c-2.2146 0-3.9472 0.05465-5.332 0.28711-1.3848 0.23246-2.4455 0.65434-3.2109 1.418s-1.1878 1.8223-1.418 3.207c-0.23017 1.3847-0.28039 3.1184-0.26953 5.3379v12.25 12.252c-0.0108 2.2183 0.0394 3.9518 0.26953 5.3359 0.23017 1.3847 0.65253 2.4434 1.418 3.207s1.8261 1.1855 3.2109 1.418c1.3848 0.23246 3.1174 0.28711 5.332 0.28711h16.539c2.2146 0 3.9445-0.0546 5.3262-0.28711 1.3816-0.2325 2.4406-0.65418 3.2031-1.418 0.76249-0.76378 1.1838-1.823 1.416-3.207 0.23217-1.384 0.28516-3.1169 0.28516-5.3359v-12.252-12.252c0-2.2191-0.053-3.952-0.28516-5.3359s-0.65352-2.4432-1.416-3.207-1.8215-1.1855-3.2031-1.418c-1.3816-0.2325-3.1116-0.28711-5.3262-0.28711z" color="#000000" enable-background="accumulate" fill="none" opacity=".3" stroke="url(#linearGradient925)"/>
   <path d="m342 75v6.5c0 0.277 0.223 0.5 0.5 0.5h3c0.277 0 0.5-0.223 0.5-0.5v-6.5zm1 4h2v2h-2z" color="#000000" enable-background="accumulate" opacity=".2"/>
   <path d="m344 62h-2v2h2zm0 2v2h2v-2zm0 2h-2v2h2zm0 2v2h2v-2zm0 2h-2v2h2zm0 2v2h2v-2z" color="#000000" enable-background="accumulate" opacity=".2"/>
   <path d="m342 74v6.5c0 0.277 0.223 0.5 0.5 0.5h3c0.277 0 0.5-0.223 0.5-0.5v-6.5zm1 4h2v2h-2z" color="#000000" enable-background="accumulate" fill="#fff"/>
   <path d="m344 61h-2v2h2zm0 2v2h2v-2zm0 2h-2v2h2zm0 2v2h2v-2zm0 2h-2v2h2zm0 2v2h2v-2z" color="#000000" enable-background="accumulate" fill="#fff"/>
   <path d="m330 99.888c0-0.11781 1.8588-9.057 1.9423-9.3392 0.0458-0.15436 0.21936-0.16156 3.2486-0.13461l3.2003 0.02846 0.52595 0.25824c0.54454 0.26739 0.97869 0.75453 1.1948 1.3406 0.16485 0.44712 0.13802 1.1705-0.0633 1.7088-0.4399 1.1757-1.1738 1.7511-2.5278 1.9819l-0.33199 0.05658 0.50382 0.73717c0.2771 0.40544 0.6626 1.0745 0.85667 1.4868 0.19407 0.41231 0.38652 0.71519 0.42766 0.67306 0.0411-0.04212 1.0808-1.9141 2.3104-4.1599l2.2356-4.0833h3.2048l0.29358 2.1538c0.82869 6.0798 0.87166 6.3597 0.94235 6.1418 0.039-0.12033 0.43714-1.9755 0.88468-4.1226 0.44755-2.1471 0.83568-3.9772 0.86249-4.0669 0.0462-0.15437 0.21981-0.16155 3.2491-0.13425 3.4734 0.03126 3.4981 0.03464 4.1975 0.56808 0.42716 0.32583 0.84257 1.2154 0.84257 1.8043 0 0.57765-0.27318 1.3429-0.66183 1.8541-0.35893 0.47206-1.1168 0.9353-1.6614 1.0155-0.77591 0.11422-0.77478 0.11177-0.3259 0.71108 0.48411 0.64633 1.22 2.0887 1.5215 2.982l0.21957 0.65064h-1.4754c-1.2465 0-1.4754-0.02076-1.4754-0.13357 0-0.22693-0.8788-2.3891-1.2406-3.0523-0.1885-0.34551-0.44079-0.67808-0.56066-0.73905-0.23687-0.12047-0.98077-0.15546-0.98077-0.04608 0 0.0371-0.13732 0.71348-0.30516 1.5032-0.16784 0.7897-0.35242 1.668-0.4102 1.9518l-0.105 0.51602h-5.1026v-0.39131c0-0.21523-0.0256-0.57868-0.0571-0.80768l-0.0571-0.41637h-3.4386l-0.39589 0.80768-0.3959 0.80768h-2.3597c-2.0295 0-2.3597-0.01866-2.3597-0.13357 0-0.22693-0.8788-2.3891-1.2406-3.0523-0.1885-0.34551-0.4408-0.67808-0.56067-0.73905-0.23687-0.12047-0.98079-0.15546-0.98079-0.04608 0 0.0371-0.13729 0.71349-0.30513 1.5032-0.16784 0.78969-0.35243 1.668-0.41021 1.9518l-0.10497 0.51601h-1.3846c-1.0477 0-1.3847-0.0273-1.385-0.11212zm15.225-3.5897c-0.0286-0.20978-0.0997-1.1891-0.15789-2.1762-0.058-0.98717-0.13172-1.8453-0.1635-1.907-0.0493-0.09578-2.1645 4.2085-2.1609 4.3974 8.9e-4 0.03698 0.57126 0.06732 1.2679 0.06732h1.2666zm-8.3413-2.0503c0.78189-0.37851 1.0719-1.3383 0.5731-1.897l-0.26165-0.29308-2.7586-0.05692-0.20611 1.0156c-0.1134 0.55861-0.22739 1.1065-0.25339 1.2176l-0.0473 0.20191h1.2826c1.1188 0 1.3323-0.02404 1.6712-0.1881zm17.769 0c0.7819-0.37851 1.0719-1.3383 0.5731-1.897l-0.26163-0.29308-2.7586-0.05692-0.20612 1.0156c-0.1134 0.55861-0.22739 1.1065-0.25339 1.2176l-0.0473 0.20191h1.2827c1.1188 0 1.3323-0.02404 1.6712-0.1881z" enable-background="new" fill="#fff" opacity=".5" stroke-width=".089742"/>
   <path d="m326 84v12.252c-0.0433 8.842 0.90629 9.748 9.7305 9.748h16.539c8.8242 0 9.7305-0.90592 9.7305-9.748v-12.252z" color="#000000" enable-background="accumulate" fill="#fff" opacity=".08"/>
   <path d="m344 62v44h8.2695c8.8242 0 9.7305-0.90592 9.7305-9.748v-12.252-12.252c0-8.8421-0.90629-9.748-9.7305-9.748z" color="#000000" enable-background="accumulate" fill="#fff" opacity=".08"/>
  </g>
 </g>
</svg>
