<svg width="48" height="48" version="1.1" xmlns="http://www.w3.org/2000/svg" xmlns:xlink="http://www.w3.org/1999/xlink">
 <defs>
  <linearGradient id="linearGradient1024" x1="441.38" x2="52.966" y1="240.3" y2="386.31" gradientTransform="matrix(0 -.11586 .11642 0 -12.474 52.636)" gradientUnits="userSpaceOnUse">
   <stop stop-color="#b52428" offset="0"/>
   <stop stop-color="#d32429" offset="1"/>
  </linearGradient>
  <linearGradient id="linearGradient1004-3" x1="344" x2="344" y1="62" y2="106" gradientTransform="translate(-320,-60)" gradientUnits="userSpaceOnUse">
   <stop stop-color="#fff" offset="0"/>
   <stop stop-color="#fff" stop-opacity=".098039" offset=".125"/>
   <stop stop-color="#fff" stop-opacity=".098039" offset=".925"/>
   <stop stop-color="#fff" stop-opacity=".49804" offset="1"/>
  </linearGradient>
 </defs>
 <path d="m15.73 2c-2.2229-0.03386-3.9737 0.05118-5.4141 0.29297-1.4404 0.24178-2.6191 0.6953-3.4824 1.5566-0.86337 0.86134-1.3191 2.0395-1.5586 3.4805-0.23953 1.441-0.28629 3.1953-0.27539 5.4238v12.246 12.252c-0.0108 2.2251 0.0361 3.9785 0.27539 5.418 0.23953 1.441 0.69522 2.6191 1.5586 3.4805 0.86338 0.86134 2.042 1.3149 3.4824 1.5566 1.4404 0.24179 3.1909 0.29297 5.4141 0.29297h16.539c2.2232 0 3.9728-0.0511 5.4102-0.29297 1.4374-0.24189 2.6125-0.69694 3.4726-1.5586 0.8602-0.86165 1.3132-2.0389 1.5547-3.4785 0.24149-1.4396 0.29297-3.1904 0.29297-5.418v-12.252-12l-10.73-10.748z" color="#000000" color-rendering="auto" dominant-baseline="auto" image-rendering="auto" opacity=".1" shape-rendering="auto" solid-color="#000000" style="font-feature-settings:normal;font-variant-alternates:normal;font-variant-caps:normal;font-variant-ligatures:normal;font-variant-numeric:normal;font-variant-position:normal;isolation:auto;mix-blend-mode:normal;shape-padding:0;text-decoration-color:#000000;text-decoration-line:none;text-decoration-style:solid;text-indent:0;text-orientation:mixed;text-transform:none;white-space:normal"/>
 <path d="m15.502 1.5c-9.069 0-10.045 0.92695-10 9.9699v12.53 12.53c-0.0445 9.043 0.93136 9.9699 10 9.9699h16.998c9.069 0 10-0.92684 10-9.9699v-12.53l-6.9e-4 -12.273-10.277-10.227z" color="#000000" fill="url(#linearGradient1024)"/>
 <g transform="translate(-320 -56)" enable-background="new" fill="#fff" stroke-width="1.3333">
  <path d="m344.63 72.127-12.633 1.873-2e-3 19.133 12.547 1.8672h1.4531s-7e-3 -22.873 2e-3 -22.873zm-5.2405 7.4574c0.89543 2.9937 1.7442 6.0036 2.6289 9-0.61744-0.04012-1.2336-0.0864-1.8457-0.14258-0.16305-0.66823-0.33726-1.3364-0.51367-2.002-0.82059-0.0031-1.6411-0.03019-2.459-0.07031-0.15771 0.63348-0.31742 1.2657-0.48046 1.8965-0.5239-0.04012-1.0452-0.07854-1.5664-0.11328 0.78049-2.8146 1.592-5.619 2.3672-8.4336 0.62279-0.04545 1.2437-0.0867 1.8691-0.13477zm-1.0059 1.5996c-0.17908 1.2696-0.57963 2.4932-0.84961 3.7441 0.58805 0.0052 1.1769 0.0076 1.7676 0.0098-0.3047-1.2509-0.6774-2.4869-0.91797-3.7539z" enable-background="new"/>
  <path d="m349.43 75.002c-0.8117 0.0082-1.6225 0.07363-2.4258 0.16797v3.7246c2.5698 0.32613 5.2226 0.20658 7.6875-0.625 0.55692-0.24365 1.2609-0.54877 1.377-1.2246-0.15664-0.82668-1.0841-1.1364-1.7773-1.3945-1.5736-0.48042-3.2174-0.66458-4.8613-0.64844zm6.6367 3.4434c-1.0326 0.82958-2.3644 1.1064-3.6406 1.2949-1.797 0.23553-3.6203 0.24778-5.4219 0.06055v3.7578c2.2954 0.24999 4.6362 0.21306 6.8887-0.31836 0.74256-0.21175 1.5667-0.431 2.0859-1.0488 0.18564-1.2357 0.0241-2.4988 0.0879-3.7461zm0 4.6426c-1.0268 0.82668-2.3497 1.1025-3.623 1.291-1.8027 0.23825-3.6321 0.2517-5.4394 0.0625v3.7598c2.3016 0.24775 4.6519 0.21268 6.9102-0.32422 0.73966-0.21175 1.5627-0.43199 2.0703-1.0527 0.17114-1.2357 0.024-2.492 0.082-3.7363zm0 4.6406c-1.0326 0.82668-2.3585 1.1054-3.6348 1.291-1.7998 0.23823-3.6236 0.25162-5.4277 0.0625v3.7559c1.9009 0.22591 3.8305 0.20915 5.7227-0.08008 1.1283-0.22915 2.4311-0.39372 3.252-1.2871 0.18274-1.2357 0.027-2.4978 0.0879-3.7422z" enable-background="new"/>
 </g>
 <path d="m6 24v12.252c-0.0433 8.842 0.90629 9.748 9.7305 9.748h16.539c8.8242 0 9.7305-0.90592 9.7305-9.748v-12.252z" color="#000000" fill="#fff" opacity=".1"/>
 <path d="m24 2v44h8.2695c8.8242 0 9.7305-0.90592 9.7305-9.748v-12.252-12l-10-10z" color="#000000" fill="#fff" opacity=".1"/>
 <path d="m15.73 1c-2.2232 0-3.9737 0.05118-5.4141 0.29297-1.4404 0.24178-2.6191 0.6953-3.4824 1.5566-0.86337 0.86134-1.3191 2.0395-1.5586 3.4805-0.23953 1.441-0.28629 3.1953-0.27539 5.4238v12.246 12.252c-0.0108 2.2251 0.0361 3.9785 0.27539 5.418 0.23953 1.441 0.69522 2.6191 1.5586 3.4805 0.86338 0.86134 2.042 1.3149 3.4824 1.5566 1.4404 0.24179 3.1909 0.29297 5.4141 0.29297h16.539c2.2232 0 3.9728-0.0511 5.4102-0.29297 1.4374-0.24189 2.6125-0.69694 3.4726-1.5586 0.8602-0.86165 1.3132-2.0389 1.5547-3.4785 0.24149-1.4396 0.29297-3.1904 0.29297-5.418v-12.252-12.414l-10.586-10.586zm0 1h16.27l10 10v12 12.252c0 8.8421-0.90629 9.748-9.7305 9.748h-16.539c-8.8242 0-9.7738-0.90602-9.7305-9.748v-12.252-12.252c-0.04325-8.842 0.90629-9.748 9.7305-9.748z" color="#000000" color-rendering="auto" dominant-baseline="auto" image-rendering="auto" opacity=".4" shape-rendering="auto" solid-color="#000000" style="font-feature-settings:normal;font-variant-alternates:normal;font-variant-caps:normal;font-variant-ligatures:normal;font-variant-numeric:normal;font-variant-position:normal;isolation:auto;mix-blend-mode:normal;shape-padding:0;text-decoration-color:#000000;text-decoration-line:none;text-decoration-style:solid;text-indent:0;text-orientation:mixed;text-transform:none;white-space:normal"/>
 <path d="m15.73 2c-8.8242 0-9.7737 0.90602-9.7305 9.748v12.252 12.252c-0.0433 8.842 0.90629 9.748 9.7305 9.748h16.539c8.8242 0 9.7305-0.90592 9.7305-9.748v-12.252-12h-1v12 12.252c0 2.1935-0.0614 3.8707-0.26562 5.0879-0.20419 1.2172-0.52867 1.9243-0.99805 2.3945-0.46938 0.47015-1.1744 0.79563-2.3887 1-1.2143 0.20434-2.8892 0.26562-5.0781 0.26562h-16.539c-2.1889 0-3.8659-0.0612-5.084-0.26562-1.2181-0.20449-1.9288-0.5295-2.4004-1-0.47161-0.47053-0.79596-1.1768-0.99804-2.3926-0.20209-1.2158-0.25879-2.8934-0.24805-5.0859v-2e-3 -12.254-12.254-2e-3c-0.0107-2.1925 0.046-3.8702 0.24805-5.0859 0.20209-1.2158 0.52643-1.9221 0.99804-2.3926s1.1843-0.79553 2.4024-1c1.2181-0.20438 2.8931-0.26558 5.082-0.26558h16.27v-1z" color="#000000" color-rendering="auto" dominant-baseline="auto" fill="url(#linearGradient1004-3)" image-rendering="auto" opacity=".4" shape-rendering="auto" solid-color="#000000" style="font-feature-settings:normal;font-variant-alternates:normal;font-variant-caps:normal;font-variant-ligatures:normal;font-variant-numeric:normal;font-variant-position:normal;isolation:auto;mix-blend-mode:normal;shape-padding:0;text-decoration-color:#000000;text-decoration-line:none;text-decoration-style:solid;text-indent:0;text-orientation:mixed;text-transform:none;white-space:normal"/>
 <path d="m42 13v-1l-10-10h-1v4.2091 0.16127 0.08662c0 5.692 0.76196 6.5697 6.467 6.5418z" color="#000000" fill="#6d1618" opacity=".6"/>
 <path d="m42 11.999-10-9.9987v3.7089 0.16127 0.08662c0 5.692 0.26232 6.0698 5.9674 6.0419z" color="#000000" fill="#df6165"/>
</svg>
