<svg width="48" height="48" version="1.1" xmlns="http://www.w3.org/2000/svg" xmlns:xlink="http://www.w3.org/1999/xlink">
 <defs>
  <linearGradient id="linearGradient1024" x1="441.38" x2="52.966" y1="240.3" y2="386.31" gradientTransform="matrix(0 -.11586 .11642 0 -12.474 52.636)" gradientUnits="userSpaceOnUse">
   <stop stop-color="#333" offset="0"/>
   <stop stop-color="#666" offset="1"/>
  </linearGradient>
  <linearGradient id="linearGradient1024-1" x1="459.03" x2="35.31" y1="419.23" y2="207.37" gradientTransform="matrix(0 -.10298 .10069 0 -7.5454 49.455)" gradientUnits="userSpaceOnUse">
   <stop stop-color="#f2f2f2" offset="0"/>
   <stop stop-color="#f9f9f9" offset="1"/>
  </linearGradient>
  <linearGradient id="linearGradient1004" x1="344" x2="344" y1="62" y2="106" gradientTransform="translate(-320,-60)" gradientUnits="userSpaceOnUse">
   <stop stop-color="#fff" offset="0"/>
   <stop stop-color="#fff" stop-opacity=".098039" offset=".125"/>
   <stop stop-color="#fff" stop-opacity=".098039" offset=".925"/>
   <stop stop-color="#fff" stop-opacity=".49804" offset="1"/>
  </linearGradient>
 </defs>
 <path d="m15.73 2c-2.2229-0.03386-3.9737 0.05118-5.4141 0.29297-1.4404 0.24178-2.619 0.6953-3.4824 1.5566-0.86337 0.86134-1.3191 2.0395-1.5586 3.4805-0.23953 1.441-0.28629 3.1953-0.27539 5.4238v12.246 12.252c-0.0108 2.2251 0.0361 3.9785 0.27539 5.418 0.23953 1.441 0.69522 2.6191 1.5586 3.4805 0.86338 0.86134 2.042 1.3149 3.4824 1.5566 1.4404 0.24179 3.1909 0.29297 5.4141 0.29297h16.539c2.2232 0 3.9728-0.0511 5.4102-0.29297 1.4374-0.24189 2.6125-0.69694 3.4726-1.5586 0.8602-0.86165 1.3132-2.0389 1.5547-3.4785 0.24149-1.4396 0.29297-3.1904 0.29297-5.418v-12.252-12l-10.73-10.748z" color="#000000" color-rendering="auto" dominant-baseline="auto" image-rendering="auto" opacity=".1" shape-rendering="auto" solid-color="#000000" style="font-feature-settings:normal;font-variant-alternates:normal;font-variant-caps:normal;font-variant-ligatures:normal;font-variant-numeric:normal;font-variant-position:normal;isolation:auto;mix-blend-mode:normal;shape-padding:0;text-decoration-color:#000000;text-decoration-line:none;text-decoration-style:solid;text-indent:0;text-orientation:mixed;text-transform:none;white-space:normal"/>
 <path d="m15.502 1.5c-9.069 0-10.045 0.92695-10 9.9699v12.53 12.53c-0.0445 9.043 0.93136 9.9699 10 9.9699h16.998c9.069 0 10-0.92684 10-9.9699v-12.53l-6.9e-4 -12.273-10.277-10.227z" color="#000000" fill="url(#linearGradient1024)"/>
 <path d="M 16.65013,4 C 8,4 8,4 8.00121,12.862164 V 24 35.137836 C 8,44 8,44 16.65013,44 H 31.35108 C 40,44 40,44 40,35.137836 V 24 12 L 32,4 Z" color="#000000" fill="url(#linearGradient1024-1)"/>
 <path d="m36 28.488c-5e-3 -1.376-0.97323-2.4881-2.0741-2.4881-1.037 0-1.9259 1.5625-1.9259-0.3125v5.625c0-1.875 0.88889-0.3125 1.9259-0.3125 1.1046 0 2.0741-1.1193 2.0741-2.5 1e-5 -4e-3 1e-5 -8e-3 0-0.0119z" enable-background="new" fill="#46a926" fill-rule="evenodd" stroke-linecap="round" stroke-linejoin="round" stroke-width=".75"/>
 <path d="m23.488 16c-1.376 0.0053-2.4881 0.97323-2.4881 2.0741 0 1.037 1.5625 1.9259-0.3125 1.9259h5.625c-1.875 0-0.3125-0.88889-0.3125-1.9259 0-1.1046-1.1193-2.0741-2.5-2.0741-4e-3 -8e-6 -8e-3 -8e-6 -0.0119 0z" enable-background="new" fill="#46a926" fill-rule="evenodd" stroke-linecap="round" stroke-linejoin="round" stroke-width=".75"/>
 <path d="m15 20v5.6875c0 1.875 0.88875 0.3125 1.9258 0.3125 1.1008-2e-5 2.0692 1.1122 2.0742 2.4883 1e-5 0.0039 1e-5 0.0077 0 0.01172 0 1.3807-0.96965 2.5-2.0742 2.5-1.037-1e-6 -1.9258-1.5625-1.9258 0.3125v5.6875h5.6875c1.875 0 0.3125-0.88875 0.3125-1.9258-2e-5 -1.1008 1.1122-2.0689 2.4883-2.0742 4e-3 -8e-6 8e-3 -8e-6 0.0117 0 1.3807 0 2.5 0.96965 2.5 2.0742 2e-5 1.037-1.5625 1.9258 0.31252 1.9258h5.6875v-17z" enable-background="new" fill="#46a926" fill-rule="evenodd" stroke-linecap="square" stroke-linejoin="round" stroke-width=".75"/>
 <path d="m6 24v12.252c-0.0433 8.842 0.90629 9.748 9.7305 9.748h16.539c8.8242 0 9.7305-0.90592 9.7305-9.748v-12.252z" color="#000000" fill="#fff" opacity=".2"/>
 <path d="m24 2v44h8.2695c8.8242 0 9.7305-0.90592 9.7305-9.748v-12.252-12l-10-10z" color="#000000" fill="#fff" opacity=".1"/>
 <path d="m15.73 1c-2.2232 0-3.9737 0.05118-5.4141 0.29297-1.4404 0.24178-2.619 0.6953-3.4824 1.5566-0.86337 0.86134-1.3191 2.0395-1.5586 3.4805-0.23953 1.441-0.28629 3.1953-0.27539 5.4238v12.246 12.252c-0.0108 2.2251 0.0361 3.9785 0.27539 5.418 0.23953 1.441 0.69522 2.6191 1.5586 3.4805 0.86338 0.86134 2.042 1.3149 3.4824 1.5566 1.4404 0.24179 3.1909 0.29297 5.4141 0.29297h16.539c2.2232 0 3.9728-0.0511 5.4102-0.29297 1.4374-0.24189 2.6125-0.69694 3.4726-1.5586 0.8602-0.86165 1.3132-2.0389 1.5547-3.4785 0.24149-1.4396 0.29297-3.1904 0.29297-5.418v-12.252-12.414l-10.586-10.586zm0 1h16.27l10 10v12 12.252c0 8.8421-0.90629 9.748-9.7305 9.748h-16.539c-8.8242 0-9.7738-0.90602-9.7305-9.748v-12.252-12.252c-0.04325-8.842 0.90629-9.748 9.7305-9.748z" color="#000000" color-rendering="auto" dominant-baseline="auto" image-rendering="auto" opacity=".4" shape-rendering="auto" solid-color="#000000" style="font-feature-settings:normal;font-variant-alternates:normal;font-variant-caps:normal;font-variant-ligatures:normal;font-variant-numeric:normal;font-variant-position:normal;isolation:auto;mix-blend-mode:normal;shape-padding:0;text-decoration-color:#000000;text-decoration-line:none;text-decoration-style:solid;text-indent:0;text-orientation:mixed;text-transform:none;white-space:normal"/>
 <path d="m15.73 2c-8.8242 0-9.7737 0.90602-9.7305 9.748v12.252 12.252c-0.0433 8.842 0.90629 9.748 9.7305 9.748h16.539c8.8242 0 9.7305-0.90592 9.7305-9.748v-12.252-12h-1v12 12.252c0 2.1935-0.0614 3.8707-0.26562 5.0879-0.20419 1.2172-0.52867 1.9243-0.99805 2.3945-0.46938 0.47015-1.1744 0.79563-2.3887 1-1.2143 0.20434-2.8892 0.26562-5.0781 0.26562h-16.539c-2.1889 0-3.8659-0.0612-5.084-0.26562-1.2181-0.20449-1.9288-0.5295-2.4004-1-0.47161-0.47053-0.79596-1.1768-0.99804-2.3926-0.20209-1.2158-0.25879-2.8934-0.24805-5.0859v-2e-3 -12.254-12.254-2e-3c-0.0107-2.1925 0.046-3.8702 0.24805-5.0859 0.20209-1.2158 0.52643-1.9221 0.99804-2.3926s1.1843-0.79553 2.4024-1c1.2181-0.20438 2.8931-0.26558 5.082-0.26558h16.27v-1z" color="#000000" color-rendering="auto" dominant-baseline="auto" fill="url(#linearGradient1004)" image-rendering="auto" opacity=".4" shape-rendering="auto" solid-color="#000000" style="font-feature-settings:normal;font-variant-alternates:normal;font-variant-caps:normal;font-variant-ligatures:normal;font-variant-numeric:normal;font-variant-position:normal;isolation:auto;mix-blend-mode:normal;shape-padding:0;text-decoration-color:#000000;text-decoration-line:none;text-decoration-style:solid;text-indent:0;text-orientation:mixed;text-transform:none;white-space:normal"/>
 <path d="m42 13v-1l-10-10h-1v4.2091 0.16127 0.08662c0 5.692 0.76196 6.5697 6.467 6.5418z" color="#000000" opacity=".6"/>
 <path d="m42 11.999-10-9.9987v3.7089 0.16127 0.08662c0 5.692 0.26232 6.0698 5.9674 6.0419z" color="#000000" fill="#888"/>
</svg>
