<svg xmlns:dc="http://purl.org/dc/elements/1.1/" xmlns:cc="http://creativecommons.org/ns#" xmlns:rdf="http://www.w3.org/1999/02/22-rdf-syntax-ns#" xmlns:svg="http://www.w3.org/2000/svg" xmlns="http://www.w3.org/2000/svg" xmlns:xlink="http://www.w3.org/1999/xlink" style="display:inline;enable-background:new" version="1.0" id="svg11300" height="48" width="48">
  <title id="title3004">Suru Icon Theme Template</title>
  <defs id="defs3">
    <linearGradient y2="207.36522" x2="35.310345" y1="419.23337" x1="459.03448" gradientTransform="matrix(0,-0.11328125,0.11327801,0,308.51008,112)" gradientUnits="userSpaceOnUse" id="linearGradient1024" xlink:href="#linearGradient4338"/>
    <linearGradient id="linearGradient4338">
      <stop id="stop4340" offset="0" style="stop-color:#f2f2f2;stop-opacity:1"/>
      <stop id="stop4342" offset="1" style="stop-color:#f9f9f9;stop-opacity:1"/>
    </linearGradient>
    <linearGradient gradientUnits="userSpaceOnUse" y2="106" x2="344" y1="62" x1="344" id="linearGradient1004" xlink:href="#linearGradient927"/>
    <linearGradient id="linearGradient927">
      <stop id="stop923" offset="0" style="stop-color:#ffffff;stop-opacity:1;"/>
      <stop style="stop-color:#ffffff;stop-opacity:0.09803922" offset="0.125" id="stop933"/>
      <stop style="stop-color:#ffffff;stop-opacity:0.09803922" offset="0.92500001" id="stop931"/>
      <stop id="stop925" offset="1" style="stop-color:#ffffff;stop-opacity:0.49803922"/>
    </linearGradient>
  </defs>
  <metadata id="metadata4">
    <rdf:RDF>
      <cc:Work rdf:about="">
        <dc:format>image/svg+xml</dc:format>
        <dc:type rdf:resource="http://purl.org/dc/dcmitype/StillImage"/>
        <dc:creator>
          <cc:Agent>
            <dc:title>Sam Hewitt</dc:title>
          </cc:Agent>
        </dc:creator>
        <dc:source/>
        <cc:license rdf:resource="http://creativecommons.org/licenses/by-sa/4.0/"/>
        <dc:title>Suru Icon Theme Template</dc:title>
        <dc:subject>
          <rdf:Bag/>
        </dc:subject>
        <dc:date/>
        <dc:rights>
          <cc:Agent>
            <dc:title/>
          </cc:Agent>
        </dc:rights>
        <dc:publisher>
          <cc:Agent>
            <dc:title/>
          </cc:Agent>
        </dc:publisher>
        <dc:identifier/>
        <dc:relation/>
        <dc:language/>
        <dc:coverage/>
        <dc:description/>
        <dc:contributor>
          <cc:Agent>
            <dc:title/>
          </cc:Agent>
        </dc:contributor>
      </cc:Work>
      <cc:Work rdf:about="">
        <dc:format>image/svg+xml</dc:format>
        <dc:type rdf:resource="http://purl.org/dc/dcmitype/StillImage"/>
      </cc:Work>
      <cc:License rdf:about="http://creativecommons.org/licenses/by-sa/4.0/">
        <cc:permits rdf:resource="http://creativecommons.org/ns#Reproduction"/>
        <cc:permits rdf:resource="http://creativecommons.org/ns#Distribution"/>
        <cc:requires rdf:resource="http://creativecommons.org/ns#Notice"/>
        <cc:requires rdf:resource="http://creativecommons.org/ns#Attribution"/>
        <cc:permits rdf:resource="http://creativecommons.org/ns#DerivativeWorks"/>
        <cc:requires rdf:resource="http://creativecommons.org/ns#ShareAlike"/>
      </cc:License>
    </rdf:RDF>
  </metadata>
  <g transform="translate(-141,-197.5)" id="layer1" style="display:inline">
    <g id="layer7" style="display:inline"/>
    <g style="display:inline" id="layer4"/>
    <g style="display:inline" id="layer2"/>
    <g style="display:inline" id="layer6"/>
    <g style="display:inline" id="layer3"/>
    <g style="display:inline" id="layer5"/>
    <g style="display:inline" id="layer9">
      <g id="g1047" style="display:inline;enable-background:new" transform="translate(-179,137.5)">
        <rect y="60" x="320" height="48" width="48" id="rect48x48" style="display:inline;overflow:visible;visibility:visible;opacity:0;fill:#cdcdcd;fill-opacity:1;fill-rule:nonzero;stroke:none;stroke-width:2;marker:none;enable-background:accumulate"/>
        <path style="color:#000000;font-style:normal;font-variant:normal;font-weight:normal;font-stretch:normal;font-size:medium;line-height:normal;font-family:sans-serif;font-variant-ligatures:normal;font-variant-position:normal;font-variant-caps:normal;font-variant-numeric:normal;font-variant-alternates:normal;font-feature-settings:normal;text-indent:0;text-align:start;text-decoration:none;text-decoration-line:none;text-decoration-style:solid;text-decoration-color:#000000;letter-spacing:normal;word-spacing:normal;text-transform:none;writing-mode:lr-tb;direction:ltr;text-orientation:mixed;dominant-baseline:auto;baseline-shift:baseline;text-anchor:start;white-space:normal;shape-padding:0;clip-rule:nonzero;display:inline;overflow:visible;visibility:visible;opacity:0.1;isolation:auto;mix-blend-mode:normal;color-interpolation:sRGB;color-interpolation-filters:linearRGB;solid-color:#000000;solid-opacity:1;vector-effect:none;fill:#000000;fill-opacity:1;fill-rule:nonzero;stroke:none;stroke-width:2;stroke-linecap:butt;stroke-linejoin:miter;stroke-miterlimit:4;stroke-dasharray:none;stroke-dashoffset:0;stroke-opacity:1;marker:none;color-rendering:auto;image-rendering:auto;shape-rendering:auto;text-rendering:auto;enable-background:accumulate" d="m 335.73047,62 c -2.2229,-0.03386 -3.97368,0.05118 -5.41406,0.292969 -1.44039,0.241784 -2.61905,0.695299 -3.48243,1.55664 -0.86337,0.861342 -1.31906,2.039471 -1.55859,3.480469 -0.23953,1.440999 -0.28629,3.195341 -0.27539,5.423828 V 85 97.251953 c -0.0108,2.225063 0.0361,3.978517 0.27539,5.417967 0.23953,1.441 0.69522,2.61913 1.55859,3.48047 0.86338,0.86134 2.04204,1.31486 3.48243,1.55664 1.44039,0.24179 3.1909,0.29297 5.41406,0.29297 h 16.53906 c 2.22316,0 3.97276,-0.0511 5.41016,-0.29297 1.4374,-0.24189 2.61246,-0.69694 3.47265,-1.55859 0.8602,-0.86165 1.3132,-2.03894 1.55469,-3.47852 C 362.94852,101.23035 363,99.479567 363,97.251953 V 85 73 L 352.26953,62.251953 Z" id="path1020"/>
        <path style="color:#000000;display:inline;overflow:visible;visibility:visible;opacity:0.2;fill:none;fill-opacity:1;fill-rule:nonzero;stroke:#000000;stroke-width:2;stroke-miterlimit:4;stroke-dasharray:none;stroke-opacity:1;marker:none;enable-background:accumulate" d="m 335.73108,62 c -8.82418,0 -9.77365,0.90635 -9.7304,9.74838 V 84 96.25162 c -0.0433,8.84203 0.90622,9.74838 9.7304,9.74838 h 16.53919 c 8.82418,0 9.7304,-0.90625 9.7304,-9.74838 V 84 L 362,72 352,62 Z" id="path958"/>
        <path style="color:#000000;display:inline;overflow:visible;visibility:visible;fill:url(#linearGradient1024);fill-opacity:1;fill-rule:nonzero;stroke:none;stroke-width:1;marker:none;enable-background:accumulate" d="m 335.73108,62 c -8.82418,0 -9.77365,0.90635 -9.7304,9.74838 V 84 96.25162 c -0.0433,8.84203 0.90622,9.74838 9.7304,9.74838 h 16.53919 c 8.82418,0 9.7304,-0.90625 9.7304,-9.74838 V 84 L 362,72 352,62 Z" id="path964"/>
        <path style="display:inline;fill:#0091e2;fill-opacity:1;stroke-width:0.11894019;enable-background:new" id="path20-6" d="m 357.84569,86.217012 c -0.0714,-0.05947 -0.71364,-0.547126 -2.09335,-0.547126 -0.35682,0 -0.72554,0.03568 -1.08236,0.09515 -0.26166,-1.819784 -1.7722,-2.699943 -1.83167,-2.747519 l -0.36872,-0.214094 -0.23788,0.344927 c -0.29735,0.463868 -0.52334,0.987206 -0.65417,1.522435 -0.24977,1.034782 -0.0951,2.010092 0.42818,2.842673 -0.63038,0.356821 -1.65326,0.440078 -1.86736,0.451972 h -16.88954 c -0.44008,0 -0.7969,0.356821 -0.7969,0.796901 -0.0238,1.474858 0.22598,2.949718 0.73743,4.341318 0.5828,1.522435 1.4511,2.652368 2.56914,3.342222 1.26077,0.773111 3.31843,1.21319 5.63776,1.21319 1.04668,0 2.09335,-0.09515 3.12813,-0.285458 1.43918,-0.261668 2.81889,-0.761218 4.09155,-1.486751 1.04667,-0.606595 1.9863,-1.379709 2.7832,-2.283653 1.34402,-1.510542 2.14093,-3.199494 2.72373,-4.698141 0.0833,0 0.15462,0 0.23788,0 1.46296,0 2.36691,-0.582807 2.86646,-1.082357 0.33303,-0.309243 0.58281,-0.689852 0.76122,-1.118036 l 0.10704,-0.309246 z" class="st0"/>
        <path style="display:inline;fill:#0091e2;fill-opacity:1;stroke-width:0.12082257;enable-background:new" id="path22-7" d="m 334.78638,87.51555 h 2.28968 c 0.10846,0 0.20486,-0.0848 0.20486,-0.205932 v 0 -2.059324 c 0,-0.109024 -0.0843,-0.205932 -0.20486,-0.205932 0,0 0,0 0,0 h -2.28968 c -0.10846,0 -0.20486,0.08479 -0.20486,0.205932 0,0 0,0 0,0 v 2.059324 c 0.012,0.121135 0.0964,0.205932 0.20486,0.205932 v 0" class="st0"/>
        <path style="display:inline;fill:#0091e2;fill-opacity:1;stroke-width:0.12082797;enable-background:new" id="path24-5" d="m 337.92966,87.51555 h 2.28743 c 0.10835,0 0.20467,-0.08489 0.20467,-0.206152 v 0 -2.06152 c 0,-0.109141 -0.0843,-0.206152 -0.20467,-0.206152 0,0 0,0 0,0 h -2.28743 c -0.10836,0 -0.20467,0.08488 -0.20467,0.206152 v 2.06152 c 0.012,0.121265 0.0963,0.206152 0.20467,0.206152" class="st0"/>
        <path style="display:inline;fill:#0091e2;fill-opacity:1;stroke-width:0.12082257;enable-background:new" id="path26-3" d="m 341.07832,87.51555 h 2.28968 c 0.10845,0 0.20486,-0.0848 0.20486,-0.205932 v 0 -2.059324 c 0,-0.109024 -0.0843,-0.205932 -0.20486,-0.205932 0,0 0,0 0,0 h -2.28968 c -0.10846,0 -0.20487,0.08479 -0.20487,0.205932 0,0 0,0 0,0 v 2.059324 c 0,0.121135 0.0844,0.205932 0.20487,0.205932 v 0" class="st0"/>
        <path style="display:inline;fill:#0091e2;fill-opacity:1;stroke-width:0.12090106;enable-background:new" id="path28-5" d="m 344.22429,87.51555 h 2.29266 c 0.10859,0 0.20513,-0.0848 0.20513,-0.205932 v -2.059324 c 0,-0.109024 -0.0845,-0.205932 -0.20513,-0.205932 v 0 h -2.29266 c -0.1086,0 -0.20513,0.08479 -0.20513,0.205932 0,0 0,0 0,0 v 2.059324 c 0,0.121135 0.0965,0.205932 0.20513,0.205932 v 0" class="st0"/>
        <path style="display:inline;fill:#0091e2;fill-opacity:1;stroke-width:0.12103895;enable-background:new" id="path30-6" d="m 337.92979,84.598065 h 2.28893 c 0.10842,0 0.2048,-0.09729 0.2048,-0.206738 v -2.067376 c 0,-0.109452 -0.0843,-0.206738 -0.2048,-0.206738 v 0 h -2.28893 c -0.10843,0 -0.2048,0.08512 -0.2048,0.206738 v 2.067376 c 0.012,0.10945 0.0964,0.206738 0.2048,0.206738" class="st0"/>
        <path style="display:inline;fill:#0091e2;fill-opacity:1;stroke-width:0.12097282;enable-background:new" id="path32-2" d="m 341.07832,84.594551 h 2.28968 c 0.10845,0 0.20486,-0.09715 0.20486,-0.206447 v -2.064446 c 0,-0.109296 -0.0843,-0.206445 -0.20486,-0.206445 v 0 h -2.28968 c -0.10846,0 -0.20487,0.085 -0.20487,0.206445 v 0 2.064446 c 0,0.109299 0.0844,0.206447 0.20487,0.206447" class="st0"/>
        <path style="display:inline;fill:#0091e2;fill-opacity:1;stroke-width:0.1207868;enable-background:new" id="path34-9" d="m 344.23078,84.591036 h 2.2867 c 0.10831,0 0.2046,-0.09698 0.2046,-0.206078 v -2.060789 c 0,-0.109101 -0.0963,-0.206076 -0.2046,-0.206076 h -2.2867 c -0.10831,0 -0.20459,0.08485 -0.20459,0.206076 v 0 2.060789 c 0,0.1091 0.0963,0.206078 0.20459,0.206078" class="st0"/>
        <path style="display:inline;fill:#0091e2;fill-opacity:1;stroke-width:0.1208887;enable-background:new" id="path36-1" d="m 344.22835,81.666931 h 2.28893 c 0.10842,0 0.2048,-0.08492 0.2048,-0.206227 v -2.062253 c 0,-0.10918 -0.0964,-0.206227 -0.2048,-0.206227 h -2.28893 c -0.10842,0 -0.2048,0.08492 -0.2048,0.206227 v 0 2.062253 c 0,0.109179 0.0964,0.206227 0.2048,0.206227" class="st0"/>
        <path style="display:inline;fill:#0091e2;fill-opacity:1;stroke-width:0.12080458;enable-background:new" id="path38-2" d="m 347.37756,87.516428 h 2.28819 c 0.10838,0 0.20473,-0.08483 0.20473,-0.206004 v -2.060056 c 0,-0.109062 -0.0843,-0.206006 -0.20473,-0.206006 v 0 h -2.28819 c -0.10838,0 -0.20473,0.08482 -0.20473,0.206006 0,0 0,0 0,0 v 2.060056 c 0.0121,0.121177 0.0964,0.206004 0.20473,0.206004" class="st0"/>
        <path style="color:#000000;display:inline;overflow:visible;visibility:visible;opacity:0.2;fill:#ffffff;fill-opacity:1;fill-rule:nonzero;stroke:none;stroke-width:1;marker:none;enable-background:accumulate" d="M 326,84 V 96.251953 C 325.9567,105.09398 326.90629,106 335.73047,106 h 16.53906 C 361.09371,106 362,105.09408 362,96.251953 V 84 Z" id="path1006"/>
        <path style="color:#000000;display:inline;overflow:visible;visibility:visible;opacity:0.1;fill:#ffffff;fill-opacity:1;fill-rule:nonzero;stroke:none;stroke-width:1;marker:none;enable-background:accumulate" d="m 344,62 v 44 h 8.26953 C 361.09371,106 362,105.09408 362,96.251953 V 84 72 L 352,62 Z" id="path1013"/>
        <path style="color:#000000;font-style:normal;font-variant:normal;font-weight:normal;font-stretch:normal;font-size:medium;line-height:normal;font-family:sans-serif;font-variant-ligatures:normal;font-variant-position:normal;font-variant-caps:normal;font-variant-numeric:normal;font-variant-alternates:normal;font-feature-settings:normal;text-indent:0;text-align:start;text-decoration:none;text-decoration-line:none;text-decoration-style:solid;text-decoration-color:#000000;letter-spacing:normal;word-spacing:normal;text-transform:none;writing-mode:lr-tb;direction:ltr;text-orientation:mixed;dominant-baseline:auto;baseline-shift:baseline;text-anchor:start;white-space:normal;shape-padding:0;clip-rule:nonzero;display:inline;overflow:visible;visibility:visible;opacity:0.4;isolation:auto;mix-blend-mode:normal;color-interpolation:sRGB;color-interpolation-filters:linearRGB;solid-color:#000000;solid-opacity:1;vector-effect:none;fill:url(#linearGradient1004);fill-opacity:1;fill-rule:nonzero;stroke:none;stroke-width:2;stroke-linecap:butt;stroke-linejoin:miter;stroke-miterlimit:4;stroke-dasharray:none;stroke-dashoffset:0;stroke-opacity:1;marker:none;color-rendering:auto;image-rendering:auto;shape-rendering:auto;text-rendering:auto;enable-background:accumulate" clip-path="none" d="M 335.73047,62 C 326.90629,62 325.95675,62.906017 326,71.748047 V 84 96.251953 C 325.9567,105.09398 326.90629,106 335.73047,106 h 16.53906 C 361.09371,106 362,105.09408 362,96.251953 V 84 72 h -1 v 12 12.251953 c 0,2.193451 -0.0614,3.870697 -0.26562,5.087887 -0.20419,1.2172 -0.52867,1.92434 -0.99805,2.39454 -0.46938,0.47015 -1.17436,0.79563 -2.38867,1 -1.21432,0.20434 -2.8892,0.26562 -5.07813,0.26562 h -16.53906 c -2.18893,0 -3.86589,-0.0612 -5.08399,-0.26562 -1.21809,-0.20449 -1.92877,-0.5295 -2.40039,-1 -0.47161,-0.47053 -0.79596,-1.17682 -0.99804,-2.39258 -0.20209,-1.21576 -0.25879,-2.893414 -0.24805,-5.085941 v -0.002 V 84 71.746094 v -0.002 c -0.0107,-2.192528 0.046,-3.870175 0.24805,-5.085938 0.20209,-1.215763 0.52643,-1.922078 0.99804,-2.392578 0.47161,-0.4705 1.18426,-0.79553 2.40235,-1 C 331.86653,63.061202 333.54154,63 335.73047,63 H 352 v -1 z" id="path990"/>
        <path style="color:#000000;display:inline;overflow:visible;visibility:visible;opacity:0.2;fill:#000000;fill-opacity:1;fill-rule:nonzero;stroke:none;stroke-width:0.25002289;marker:none;enable-background:accumulate" d="M 362,73 V 72 L 352,62 h -1 v 4.209054 0.161272 0.08662 c 0,5.69198 0.76196,6.56967 6.467,6.541773 z" id="rect4158-0-3-62-2"/>
        <path style="color:#000000;display:inline;overflow:visible;visibility:visible;fill:#faf8f6;fill-opacity:1;fill-rule:nonzero;stroke:none;stroke-width:0.25002289;marker:none;enable-background:accumulate" d="m 362,71.99872 -10,-9.998722 v 3.708942 0.161272 0.08662 c 0,5.69198 0.26232,6.069784 5.96736,6.041887 z" id="rect4158-0-3-62"/>
      </g>
    </g>
  </g>
</svg>