<svg width="48" height="48" enable-background="new" version="1.0" xmlns="http://www.w3.org/2000/svg" xmlns:xlink="http://www.w3.org/1999/xlink">
 <title>Suru Icon Theme Template</title>
 <defs>
  <linearGradient id="linearGradient1024" x1="459.03" x2="35.31" y1="419.23" y2="207.37" gradientTransform="matrix(0 -.11328 .11328 0 308.51 112)" gradientUnits="userSpaceOnUse">
   <stop stop-color="#f2f2f2" offset="0"/>
   <stop stop-color="#f9f9f9" offset="1"/>
  </linearGradient>
  <linearGradient id="linearGradient1004" x1="344" x2="344" y1="62" y2="106" gradientUnits="userSpaceOnUse">
   <stop stop-color="#fff" offset="0"/>
   <stop stop-color="#fff" stop-opacity=".098039" offset=".125"/>
   <stop stop-color="#fff" stop-opacity=".098039" offset=".925"/>
   <stop stop-color="#fff" stop-opacity=".49804" offset="1"/>
  </linearGradient>
 </defs>
 <g transform="translate(-215.71 -166.4)">
  <g>
   <g transform="translate(-104.29 106.4)" enable-background="new">
    <rect x="320" y="60" width="48" height="48" enable-background="accumulate" opacity="0" stroke-width="2"/>
    <path d="m335.73 62c-2.2229-0.03386-3.9737 0.05118-5.4141 0.29297-1.4404 0.24178-2.619 0.6953-3.4824 1.5566-0.86337 0.86134-1.3191 2.0395-1.5586 3.4805-0.23953 1.441-0.28629 3.1953-0.27539 5.4238v12.246 12.252c-0.0108 2.2251 0.0361 3.9785 0.27539 5.418 0.23953 1.441 0.69522 2.6191 1.5586 3.4805 0.86338 0.86134 2.042 1.3149 3.4824 1.5566 1.4404 0.24179 3.1909 0.29297 5.4141 0.29297h16.539c2.2232 0 3.9728-0.0511 5.4102-0.29297 1.4374-0.24189 2.6125-0.69694 3.4726-1.5586 0.8602-0.86165 1.3132-2.0389 1.5547-3.4785 0.24149-1.4396 0.29297-3.1904 0.29297-5.418v-12.252-12l-10.73-10.748z" color="#000000" color-rendering="auto" dominant-baseline="auto" enable-background="accumulate" image-rendering="auto" opacity=".1" shape-rendering="auto" solid-color="#000000" style="font-feature-settings:normal;font-variant-alternates:normal;font-variant-caps:normal;font-variant-ligatures:normal;font-variant-numeric:normal;font-variant-position:normal;isolation:auto;mix-blend-mode:normal;shape-padding:0;text-decoration-color:#000000;text-decoration-line:none;text-decoration-style:solid;text-indent:0;text-orientation:mixed;text-transform:none;white-space:normal"/>
    <path d="m335.73 62c-8.8242 0-9.7736 0.90635-9.7304 9.7484v12.252 12.252c-0.0433 8.842 0.90622 9.7484 9.7304 9.7484h16.539c8.8242 0 9.7304-0.90625 9.7304-9.7484v-12.252l-6.7e-4 -12-10-10z" color="#000000" enable-background="accumulate" fill="none" opacity=".2" stroke="#000" stroke-width="2"/>
    <path d="m335.73 62c-8.8242 0-9.7736 0.90635-9.7304 9.7484v12.252 12.252c-0.0433 8.842 0.90622 9.7484 9.7304 9.7484h16.539c8.8242 0 9.7304-0.90625 9.7304-9.7484v-12.252l-6.7e-4 -12-10-10z" color="#000000" enable-background="accumulate" fill="url(#linearGradient1024)"/>
    <path d="m351.96 84.397c0 0.7303-0.10893 1.4055-0.33482 2.0174-0.22279 0.60353-0.54489 1.1353-0.96249 1.5807-0.40758 0.44679-0.90274 0.79741-1.4696 1.0431l-8e-3 4e-3c-0.57055 0.23493-1.1904 0.3503-1.8454 0.3503-0.65499 0-1.2749-0.11538-1.8454-0.3503l-8e-3 -4e-3c-0.56675-0.24538-1.0658-0.594-1.4834-1.0382l-3e-3 -0.0029-2e-3 -0.0029c-0.40645-0.44591-0.72147-0.97711-0.94394-1.5798-0.2259-0.61191-0.33482-1.2871-0.33482-2.0174 0-0.71901 0.10903-1.3882 0.33384-1.9984l5e-4 -1e-3c0.22207-0.61323 0.53666-1.1509 0.94443-1.5983l2e-3 -0.0029 3e-3 -0.0029c0.41823-0.44493 0.91952-0.78905 1.4877-1.0236 0.57108-0.24673 1.1926-0.36884 1.8488-0.36884 0.65628 0 1.2778 0.12211 1.8488 0.36884 0.56877 0.2348 1.0662 0.58095 1.4745 1.0285 0.41894 0.44693 0.7406 0.98525 0.96297 1.5993 0.22505 0.6104 0.33434 1.28 0.33434 1.9994zm-1.0001 0c0-0.61937-0.093-1.1683-0.27283-1.6554l-1e-3 -3e-3c-0.18221-0.50346-0.4336-0.91821-0.75555-1.2607l-3e-3 -0.0029-2e-3 -0.0025c-0.31119-0.34141-0.67868-0.59845-1.1211-0.78062l-4e-3 -0.0015-4e-3 -2e-3c-0.44092-0.19111-0.92055-0.28834-1.4559-0.28834-0.53536 0-1.0155 0.09723-1.4564 0.28834l-4e-3 2e-3 -4e-3 0.0015c-0.44198 0.18198-0.81653 0.43986-1.1397 0.78257-0.3118 0.34256-0.55946 0.75873-0.74237 1.2641l-1e-3 3e-3c-0.1798 0.48706-0.27332 1.036-0.27332 1.6554 0 0.63116 0.0939 1.1854 0.27332 1.6715 0.1823 0.49382 0.42958 0.90548 0.74237 1.2495 0.32394 0.34388 0.7009 0.60848 1.145 0.8016 0.44159 0.18115 0.92361 0.2737 1.4603 0.2737 0.53621 0 1.0176-0.0929 1.4589-0.2737 0.44441-0.19313 0.81501-0.45592 1.127-0.79818l2e-3 -0.0029 3e-3 -0.0029c0.32352-0.34417 0.57473-0.75456 0.75652-1.247 0.17943-0.48604 0.27284-1.0403 0.27284-1.6715z" color="#000000" color-rendering="auto" dominant-baseline="auto" enable-background="accumulate" fill="#999" image-rendering="auto" shape-rendering="auto" solid-color="#000000" style="font-feature-settings:normal;font-variant-alternates:normal;font-variant-caps:normal;font-variant-ligatures:normal;font-variant-numeric:normal;font-variant-position:normal;isolation:auto;mix-blend-mode:normal;shape-padding:0;text-decoration-color:#000000;text-decoration-line:none;text-decoration-style:solid;text-indent:0;text-orientation:mixed;text-transform:none;white-space:normal"/>
    <path d="m355.8 96.898-0.99958 5e-4c-7.5e-4 -1.0197-0.0813-1.8402-0.27967-2.4741-0.19836-0.63391-0.49587-1.0812-0.98592-1.4446-0.98009-0.72685-2.875-1.087-6.1908-1.087-3.3158 0-5.2107 0.35995-6.1918 1.087-0.49054 0.36353-0.78864 0.81108-0.98787 1.4451-0.19922 0.63403-0.28124 1.4548-0.28357 2.4745l-0.99958-0.0025c2e-3 -1.0697 0.0807-1.9817 0.32896-2.7717 0.24823-0.78997 0.68481-1.4577 1.3466-1.9481 1.3236-0.98089 3.4054-1.2841 6.7872-1.2841 3.3818 2e-6 5.4633 0.30302 6.7862 1.2841 0.66146 0.49055 1.0974 1.1585 1.3446 1.9486 0.24723 0.7901 0.32429 1.7025 0.32506 2.7722z" color="#000000" color-rendering="auto" dominant-baseline="auto" enable-background="accumulate" fill="#999" image-rendering="auto" shape-rendering="auto" solid-color="#000000" style="font-feature-settings:normal;font-variant-alternates:normal;font-variant-caps:normal;font-variant-ligatures:normal;font-variant-numeric:normal;font-variant-position:normal;isolation:auto;mix-blend-mode:normal;shape-padding:0;text-decoration-color:#000000;text-decoration-line:none;text-decoration-style:solid;text-indent:0;text-orientation:mixed;text-transform:none;white-space:normal"/>
    <path d="m341.67 85.82c0 0.55265-0.0822 1.0672-0.25526 1.5359-0.16995 0.46028-0.41728 0.8691-0.73797 1.2114-0.31363 0.34364-0.69568 0.6142-1.1304 0.80257l-4e-3 2e-3 -4e-3 0.0015c-0.4384 0.18047-0.91412 0.26882-1.4135 0.26882-0.49934 0-0.97556-0.08835-1.414-0.26882l-4e-3 -0.0015-4e-3 -2e-3c-0.43401-0.18807-0.81851-0.45663-1.1392-0.79769l-3e-3 -0.0029-2e-3 -0.0029c-0.31249-0.34276-0.5542-0.75104-0.72382-1.2104-0.17305-0.46865-0.25527-0.9832-0.25527-1.5359 0-0.54424 0.0823-1.0544 0.25429-1.5212l5e-4 -9.99e-4c0.16923-0.46711 0.4105-0.88039 0.72431-1.2246l2e-3 -0.0025 3e-3 -0.0029c0.32074-0.34114 0.7066-0.6064 1.1416-0.78647 0.43955-0.19006 0.91831-0.28395 1.4198-0.28395 0.50151 0 0.97977 0.09388 1.4193 0.28395 0.43521 0.18017 0.81831 0.44666 1.1318 0.78988 0.32262 0.34402 0.5697 0.75803 0.73944 1.2265 0.1722 0.46713 0.25478 0.97757 0.25477 1.5222zm-0.99958 0c0-0.44457-0.0668-0.83446-0.19377-1.1782l-1e-3 -3e-3c-0.12934-0.35731-0.306-0.64715-0.53102-0.88649l-2e-3 -0.0029-3e-3 -0.0029c-0.21722-0.23827-0.4716-0.41626-0.78189-0.54399l-4e-3 -0.0015-4e-3 -2e-3c-0.30879-0.13381-0.64472-0.20247-1.0245-0.20247-0.37974 0-0.71616 0.06866-1.025 0.20247l-4e-3 2e-3 -4e-3 0.0015c-0.31016 0.12768-0.5702 0.3075-0.79655 0.54741-0.21741 0.23924-0.39189 0.53019-0.52175 0.88892l-1e-3 3e-3c-0.12694 0.34378-0.19377 0.73367-0.19377 1.1782 0 0.45349 0.0672 0.84718 0.19377 1.1899 0.12956 0.3509 0.30407 0.63915 0.52322 0.88014 0.2266 0.24013 0.48876 0.42396 0.79996 0.5596 0.30966 0.12692 0.64797 0.1932 1.0294 0.1932 0.3814 0 0.71921-0.06628 1.0289-0.1932 0.31132-0.13572 0.56829-0.31809 0.7858-0.55668l3e-3 -0.0025 2e-3 -0.0029c0.22661-0.24102 0.40307-0.52851 0.532-0.8777 0.12656-0.34277 0.19377-0.73646 0.19377-1.1899z" color="#000000" color-rendering="auto" dominant-baseline="auto" enable-background="accumulate" fill="#999" image-rendering="auto" shape-rendering="auto" solid-color="#000000" style="font-feature-settings:normal;font-variant-alternates:normal;font-variant-caps:normal;font-variant-ligatures:normal;font-variant-numeric:normal;font-variant-position:normal;isolation:auto;mix-blend-mode:normal;shape-padding:0;text-decoration-color:#000000;text-decoration-line:none;text-decoration-style:solid;text-indent:0;text-orientation:mixed;text-transform:none;white-space:normal"/>
    <path d="m338.13 91.901c-2.4102 0-3.7662 0.26462-4.4337 0.76256-0.33376 0.24898-0.53328 0.54908-0.67257 1.0007-0.13929 0.45157-0.1994 1.0536-0.20109 1.813v1.4217h-0.99958v-1.4242c2e-3 -0.80792 0.0585-1.4989 0.2455-2.1052 0.18704-0.60635 0.52319-1.1291 1.0298-1.5071 1.0133-0.75589 2.5572-0.96113 5.0316-0.96113z" color="#000000" color-rendering="auto" dominant-baseline="auto" enable-background="accumulate" fill="#999" image-rendering="auto" shape-rendering="auto" solid-color="#000000" style="font-feature-settings:normal;font-variant-alternates:normal;font-variant-caps:normal;font-variant-ligatures:normal;font-variant-numeric:normal;font-variant-position:normal;isolation:auto;mix-blend-mode:normal;shape-padding:0;text-decoration-color:#000000;text-decoration-line:none;text-decoration-style:solid;text-indent:0;text-orientation:mixed;text-transform:none;white-space:normal"/>
    <path d="m326 84v12.252c-0.0433 8.842 0.90629 9.748 9.7305 9.748h16.539c8.8242 0 9.7305-0.90592 9.7305-9.748v-12.252z" color="#000000" enable-background="accumulate" fill="#fff" opacity=".2"/>
    <path d="m344 62v44h8.2695c8.8242 0 9.7305-0.90592 9.7305-9.748v-12.252-12l-10-10z" color="#000000" enable-background="accumulate" fill="#fff" opacity=".1"/>
    <path d="m335.73 62c-8.8242 0-9.7737 0.90602-9.7305 9.748v12.252 12.252c-0.0433 8.842 0.90629 9.748 9.7305 9.748h16.539c8.8242 0 9.7305-0.90592 9.7305-9.748v-12.252-12h-1v12 12.252c0 2.1935-0.0614 3.8707-0.26562 5.0879-0.20419 1.2172-0.52867 1.9243-0.99805 2.3945-0.46938 0.47015-1.1744 0.79563-2.3887 1-1.2143 0.20434-2.8892 0.26562-5.0781 0.26562h-16.539c-2.1889 0-3.8659-0.0612-5.084-0.26562-1.2181-0.20449-1.9288-0.5295-2.4004-1-0.47161-0.47053-0.79596-1.1768-0.99804-2.3926-0.20209-1.2158-0.25879-2.8934-0.24805-5.0859v-2e-3 -12.254-12.254-2e-3c-0.0107-2.1925 0.046-3.8702 0.24805-5.0859 0.20209-1.2158 0.52643-1.9221 0.99804-2.3926s1.1843-0.79553 2.4024-1c1.2181-0.20438 2.8931-0.26558 5.082-0.26558h16.27v-1z" color="#000000" color-rendering="auto" dominant-baseline="auto" enable-background="accumulate" fill="url(#linearGradient1004)" image-rendering="auto" opacity=".4" shape-rendering="auto" solid-color="#000000" style="font-feature-settings:normal;font-variant-alternates:normal;font-variant-caps:normal;font-variant-ligatures:normal;font-variant-numeric:normal;font-variant-position:normal;isolation:auto;mix-blend-mode:normal;shape-padding:0;text-decoration-color:#000000;text-decoration-line:none;text-decoration-style:solid;text-indent:0;text-orientation:mixed;text-transform:none;white-space:normal"/>
    <path d="m362 73v-1l-10-10h-1v4.2091 0.16127 0.08662c0 5.692 0.76196 6.5697 6.467 6.5418z" color="#000000" enable-background="accumulate" opacity=".2"/>
    <path d="m362 71.999-10-9.9987v3.7089 0.16127 0.08662c0 5.692 0.26232 6.0698 5.9674 6.0419z" color="#000000" enable-background="accumulate" fill="#faf8f6"/>
   </g>
  </g>
 </g>
</svg>
