<svg width="48" height="48" version="1" xmlns="http://www.w3.org/2000/svg" xmlns:xlink="http://www.w3.org/1999/xlink">
 <defs>
  <linearGradient id="linearGradient1024" x1="459.03" x2="35.31" y1="419.23" y2="207.37" gradientTransform="matrix(0 -.11328 .11328 0 -11.49 52)" gradientUnits="userSpaceOnUse">
   <stop stop-color="#f2f2f2" offset="0"/>
   <stop stop-color="#f9f9f9" offset="1"/>
  </linearGradient>
  <linearGradient id="linearGradient1004" x1="344" x2="344" y1="62" y2="106" gradientUnits="userSpaceOnUse">
   <stop stop-color="#fff" offset="0"/>
   <stop stop-color="#fff" stop-opacity=".098039" offset=".125"/>
   <stop stop-color="#fff" stop-opacity=".098039" offset=".925"/>
   <stop stop-color="#fff" stop-opacity=".49804" offset="1"/>
  </linearGradient>
  <clipPath id="clipPath994">
   <path d="m335.73 62c-8.8242 0-9.7736 0.90635-9.7304 9.7484v12.252 12.252c-0.0433 8.842 0.90622 9.7484 9.7304 9.7484h16.539c8.8242 0 9.7304-0.90625 9.7304-9.7484v-12.252-12.252c0-8.8421-0.90622-9.7484-9.7304-9.7484z" color="#000000" fill="#cdcdcd"/>
  </clipPath>
 </defs>
 <path d="m15.73 2c-2.2232 0-3.9737 0.05118-5.4141 0.29297-1.4404 0.24178-2.619 0.6953-3.4824 1.5566-0.86337 0.86134-1.3191 2.0395-1.5586 3.4805-0.23953 1.441-0.28629 3.1953-0.27539 5.4238v12.246 12.252c-0.0108 2.2251 0.0361 3.9785 0.27539 5.418 0.23953 1.441 0.69522 2.6191 1.5586 3.4805 0.86338 0.86134 2.042 1.3149 3.4824 1.5566 1.4404 0.24179 3.1909 0.29297 5.4141 0.29297h16.539c2.2232 0 3.9728-0.0511 5.4102-0.29297 1.4374-0.24189 2.6125-0.69694 3.4726-1.5586 0.8602-0.86165 1.3132-2.0389 1.5547-3.4785 0.24149-1.4396 0.29297-3.1904 0.29297-5.418v-12.252-12.252c0-2.2276-0.0515-3.9784-0.29297-5.418-0.24149-1.4396-0.69449-2.6169-1.5547-3.4785-0.86019-0.86165-2.0352-1.3167-3.4726-1.5586-1.4374-0.24189-3.187-0.29297-5.4102-0.29297z" color="#000000" color-rendering="auto" dominant-baseline="auto" image-rendering="auto" opacity=".1" shape-rendering="auto" solid-color="#000000" style="font-feature-settings:normal;font-variant-alternates:normal;font-variant-caps:normal;font-variant-ligatures:normal;font-variant-numeric:normal;font-variant-position:normal;isolation:auto;mix-blend-mode:normal;shape-padding:0;text-decoration-color:#000000;text-decoration-line:none;text-decoration-style:solid;text-indent:0;text-orientation:mixed;text-transform:none;white-space:normal"/>
 <path d="m15.731 2c-8.8242 0-9.7736 0.90635-9.7304 9.7484v12.252 12.252c-0.0433 8.842 0.90622 9.7484 9.7304 9.7484h16.539c8.8242 0 9.7304-0.90625 9.7304-9.7484v-12.252-12.252c0-8.8421-0.90622-9.7484-9.7304-9.7484z" color="#000000" fill="none" opacity=".2" stroke="#000" stroke-width="2"/>
 <path d="m15.731 2c-8.8242 0-9.7736 0.90635-9.7304 9.7484v12.252 12.252c-0.0433 8.842 0.90622 9.7484 9.7304 9.7484h16.539c8.8242 0 9.7304-0.90625 9.7304-9.7484v-12.252-12.252c0-8.8421-0.90622-9.7484-9.7304-9.7484z" color="#000000" fill="url(#linearGradient1024)"/>
 <path d="m20.854 12.215-1.5714 0.39286v1.1785h1.5714zm0 1.5714v1.5714h-1.5714v-1.5714h-7e-3c-1.9784 0.022-3.4256-0.04689-4.6073 0.60343-0.59082 0.32684-1.0607 0.87997-1.3199 1.5698-0.25765 0.68826-0.34884 1.5086-0.34884 2.5409v12.571c0 1.0324 0.0909 1.8511 0.34884 2.5409 0.25932 0.68984 0.72912 1.2383 1.3199 1.5651 1.1832 0.65211 2.6305 0.58455 4.6073 0.60809h9.4471c1.9768-0.02461 3.4225 0.044 4.6057-0.60809a2.9385 2.9385 0 0 0 1.3168-1.5651c0.26003-0.6898 0.35428-1.5556 0.35428-2.5409v-12.571c0-1.034-0.0945-1.8527-0.35355-2.5409a2.9542 2.9542 0 0 0-1.3168-1.5682c-1.1832-0.65369-2.6289-0.58142-4.6057-0.60499h-7e-3v1.5714h-1.5738v-1.5714zm6.2855 0h1.5714v-1.5714l-1.5714 0.39286zm-7.8475 6.2855h9.4188c1.9799 0.022 3.2795 0.09446 3.8546 0.41018 0.28755 0.16041 0.45412 0.33466 0.60654 0.7432 0.154 0.40857 0.25133 1.9894 0.25133 1.9894v7.8569c0 0.93027-0.0972 1.5793-0.25133 1.9878-0.15216 0.40854-0.31899 0.58454-0.60654 0.7433-0.57513 0.31739-1.8762 0.38811-3.8546 0.41166h-9.4282c-1.9799-0.02461-3.2795-0.09446-3.8561-0.41166-0.28757-0.15858-0.45415-0.33476-0.60656-0.7433-0.154-0.40854-0.25133-1.0575-0.25133-1.9878v-7.8569c0-0.93184 0.0972-1.5808 0.25133-1.9894 0.15216-0.40854 0.31899-0.58299 0.60656-0.7432 0.57667-0.31743 1.8794-0.38819 3.8656-0.41018z" color="#000000" enable-background="new" fill="#2b898f" font-weight="400" overflow="visible" style="isolation:auto;mix-blend-mode:normal;text-decoration-color:#000000;text-decoration-line:none;text-decoration-style:solid;text-indent:0;text-transform:none;white-space:normal"/>
 <path transform="translate(-320 -60)" d="m335.73 62c-8.8242 0-9.7736 0.90635-9.7304 9.7484v12.252 12.252c-0.0433 8.842 0.90622 9.7484 9.7304 9.7484h16.539c8.8242 0 9.7304-0.90625 9.7304-9.7484v-12.252-12.252c0-8.8421-0.90622-9.7484-9.7304-9.7484z" clip-path="url(#clipPath994)" color="#000000" fill="none" opacity=".4" stroke="url(#linearGradient1004)" stroke-width="2"/>
</svg>
