<?xml version="1.0" encoding="UTF-8" standalone="no"?>
<!-- Created with Inkscape (http://www.inkscape.org/) -->

<svg
   width="16"
   height="16"
   viewBox="0 0 4.2333333 4.2333333"
   version="1.1"
   id="svg1003"
   sodipodi:docname="kdeconnect.svg"
   inkscape:version="1.1.2 (0a00cf5339, 2022-02-04)"
   xmlns:inkscape="http://www.inkscape.org/namespaces/inkscape"
   xmlns:sodipodi="http://sodipodi.sourceforge.net/DTD/sodipodi-0.dtd"
   xmlns="http://www.w3.org/2000/svg"
   xmlns:svg="http://www.w3.org/2000/svg">
  <sodipodi:namedview
     id="namedview1005"
     pagecolor="#ffffff"
     bordercolor="#666666"
     borderopacity="1.0"
     inkscape:pageshadow="2"
     inkscape:pageopacity="0.0"
     inkscape:pagecheckerboard="0"
     inkscape:document-units="px"
     showgrid="false"
     units="px"
     showguides="true"
     inkscape:lockguides="true"
     inkscape:zoom="36.63697"
     inkscape:cx="4.7629485"
     inkscape:cy="8.3658665"
     inkscape:window-width="1851"
     inkscape:window-height="1049"
     inkscape:window-x="0"
     inkscape:window-y="0"
     inkscape:window-maximized="1"
     inkscape:current-layer="svg1003" />
  <defs
     id="defs1000" />
  <path
     id="rect856"
     style="opacity:1;fill:#666666;fill-opacity:1;stroke-width:0.999999"
     d="M 5 1 C 4.4459999 1 4 1.446 4 2 L 4 14 C 4 14.554 4.4459999 15 5 15 L 11 15 C 11.554 15 12 14.554 12 14 L 12 2 C 12 1.446 11.554 1 11 1 L 5 1 z M 5 3 L 11 3 L 11 13 L 5 13 L 5 3 z M 7 6 C 6.861503 6 6.75 6.1114954 6.75 6.25 C 6.75 6.388497 6.861503 6.5 7 6.5 C 7.1385008 6.5 7.25 6.388497 7.25 6.25 C 7.25 6.1114992 7.138497 6 7 6 z M 8.5722656 6 L 8 6.5722656 L 8.8574219 7.4277344 L 8 8.2851562 L 8.5722656 8.8574219 L 9.4277344 8 L 10 7.4277344 L 9.4277344 6.8574219 L 8.5722656 6 z M 6.3554688 7.5 C 6.1567835 7.5100064 6 7.6737392 6 7.875 C 6 8.0827493 6.1672507 8.25 6.375 8.25 C 6.5827493 8.25 6.75 8.0827493 6.75 7.875 C 6.75 7.6672507 6.5827531 7.5 6.375 7.5 C 6.3685078 7.5 6.361878 7.4996772 6.3554688 7.5 z M 7.4746094 9 C 7.2096904 9.0133423 7 9.2316584 7 9.5 C 7 9.7770054 7.2230022 10 7.5 10 C 7.7769978 10 8 9.7770054 8 9.5 C 8 9.2229946 7.7769982 9 7.5 9 C 7.4913436 9 7.4831551 8.9995696 7.4746094 9 z "
     transform="scale(0.26458333)" />
</svg>
