<svg version="1.1" viewBox="0 0 24 24" xmlns="http://www.w3.org/2000/svg">
 <defs>
  <style id="current-color-scheme" type="text/css">.ColorScheme-Text { color:#666666; }</style>
 </defs>
 <path d="m10 16v4h5v-4h-5zm1 1h3v2h-3v-2z" fill="#666666"/>
 <path d="m4 16v4h5v-4h-5zm1 1h3v2h-3v-2z" fill="#666666"/>
 <path d="m9 11v4h5v-4h-5zm1 1h3v2h-3v-2z" fill="#666666"/>
 <path d="m15 10v4h5v-4h-5zm1 1h3v2h-3v-2z" fill="#666666"/>
 <path d="m4 6v4h5v-4h-5zm1 1h3v2h-3v-2z" fill="#666666"/>
 <path d="m14 5v4h5v-4h-5zm1 1h3v2h-3v-2z" fill="#666666"/>
</svg>
