<svg width="18" height="18" version="1.1" viewBox="0 0 18 18" xmlns="http://www.w3.org/2000/svg">
 <defs>
  <style id="current-color-scheme" type="text/css">.ColorScheme-Text { color:#dfdfdf; }</style>
 </defs>
 <path d="m7 13v4h5v-4zm1 1h3v2h-3z" fill="#dfdfdf"/>
 <path d="m1 13v4h5v-4zm1 1h3v2h-3z" fill="#dfdfdf"/>
 <path d="m6 8v4h5v-4zm1 1h3v2h-3z" fill="#dfdfdf"/>
 <path d="m12 7v4h5v-4zm1 1h3v2h-3z" fill="#dfdfdf"/>
 <path d="m1 3v4h5v-4zm1 1h3v2h-3z" fill="#dfdfdf"/>
 <path d="m11 2v4h5v-4zm1 1h3v2h-3z" fill="#dfdfdf"/>
</svg>
