<svg width="18" height="18" version="1.1" viewBox="0 0 18 18" xmlns="http://www.w3.org/2000/svg">
 <defs>
  <style id="current-color-scheme" type="text/css">.ColorScheme-Text { color:#dfdfdf; }</style>
 </defs>
 <path d="m5.0568 14.897c-0.09611-0.045-0.72232-0.64857-1.9156-1.8464-1.532-1.5378-1.7789-1.8002-1.8172-1.9313-0.0992-0.33974-0.41573 4e-3 4.7082-5.1195 5.1236-5.1236 4.7796-4.8072 5.1195-4.7084 0.13271 0.0386 0.48542 0.37781 2.8171 2.7095 2.3317 2.3317 2.671 2.6844 2.7095 2.8171 0.09805 0.33732 0.3275 0.0828-3.8161 4.2335-2.6024 2.6069-3.8162 3.7992-3.9147 3.8453-0.1337 0.0627-0.25736 0.0669-1.9454 0.0669-1.687 0-1.8117-4e-3 -1.9454-0.0668zm4.2835-1.9306 0.85624-0.8568-4.3366-4.3366-3.1945 3.1945 2.855 2.8556h2.9636z" fill="#dfdfdf" stroke-width=".035695"/>
 <path d="m1 16v1h16v-1z" fill="#f34f17"/>
</svg>
