<svg version="1.1" viewBox="0 0 18 18" xmlns="http://www.w3.org/2000/svg">
 <defs>
  <style id="current-color-scheme" type="text/css">.ColorScheme-Text { color:#dfdfdf; }</style>
 </defs>
 <path class="ColorScheme-Text" d="m5.7988 1.7695c-0.84051 0.0524-1.8083 0.31526-2.9668 0.89453l-0.33594 0.16797 0.16797 0.33594c0.72764 1.4553 0.89251 2.4987 0.80664 3.3574-0.0859 0.85869-0.43164 1.5566-0.80664 2.3066s-0.77923 1.552-0.88086 2.5684 0.1085 2.2229 0.88086 3.7676l0.16797 0.33594 0.33594-0.16797c1.4553-0.72764 2.4987-0.89251 3.3574-0.80664 0.85869 0.0859 1.5566 0.43164 2.3066 0.80664s1.552 0.77923 2.5684 0.88086c1.0163 0.10163 2.2229-0.1085 3.7676-0.88086l0.33594-0.16797-0.16797-0.33594c-0.72764-1.4553-0.89251-2.4987-0.80664-3.3574 0.0859-0.85868 0.43164-1.5566 0.80664-2.3066s0.77922-1.5521 0.88086-2.5684c0.10163-1.0163-0.1085-2.2229-0.88086-3.7676l-0.16797-0.33594-0.33594 0.16797c-1.4553 0.72764-2.4987 0.89251-3.3574 0.80664-0.85869-0.0859-1.5566-0.43164-2.3066-0.80664s-1.552-0.77923-2.5684-0.88086c-0.25408-0.0254-0.52061-0.0311-0.80078-0.0137z" fill="#dfdfdf" opacity=".3"/>
 <path class="ColorScheme-Text" d="m1 1v3h3v-3zm13 0v3h3v-3zm-13 13v3h3v-3zm13 0v3h3v-3z" fill="#dfdfdf"/>
</svg>
