<?xml version="1.0" encoding="UTF-8" standalone="no"?>
<svg
   xmlns:dc="http://purl.org/dc/elements/1.1/"
   xmlns:cc="http://creativecommons.org/ns#"
   xmlns:rdf="http://www.w3.org/1999/02/22-rdf-syntax-ns#"
   xmlns:svg="http://www.w3.org/2000/svg"
   xmlns="http://www.w3.org/2000/svg"
   xmlns:xlink="http://www.w3.org/1999/xlink"
   xmlns:sodipodi="http://sodipodi.sourceforge.net/DTD/sodipodi-0.dtd"
   xmlns:inkscape="http://www.inkscape.org/namespaces/inkscape"
   version="1.1"
   viewBox="0 0 18 18"
   id="svg13"
   sodipodi:docname="path-mask-edit.svg"
   inkscape:version="0.92.5 (2060ec1f9f, 2020-04-08)"><metadata
   id="metadata17">
  <rdf:RDF>
    <cc:Work
       rdf:about="">
      <dc:format>image/svg+xml</dc:format>
      <dc:type
         rdf:resource="http://purl.org/dc/dcmitype/StillImage" />
      <dc:title />
    </cc:Work>
  </rdf:RDF>
</metadata>
<sodipodi:namedview
   pagecolor="#ffffff"
   bordercolor="#dfdfdf"
   borderopacity="1"
   objecttolerance="10"
   gridtolerance="10"
   guidetolerance="10"
   inkscape:pageopacity="0"
   inkscape:pageshadow="2"
   inkscape:window-width="1366"
   inkscape:window-height="703"
   id="namedview15"
   showgrid="true"
   inkscape:zoom="4.6354778"
   inkscape:cx="14.193429"
   inkscape:cy="1.5086836"
   inkscape:window-x="0"
   inkscape:window-y="0"
   inkscape:window-maximized="1"
   inkscape:current-layer="svg13">
  <inkscape:grid
     type="xygrid"
     id="grid4531" />
</sodipodi:namedview>


 a
 <defs
   id="defs7">
  <style
     id="current-color-scheme"
     type="text/css">
   .ColorScheme-Text { color:#dfdfdf; }
  </style>
  <linearGradient
     id="linearGradient4154"
     x1="425.714"
     x2="433.714"
     y1="543.791"
     y2="535.791"
     gradientTransform="matrix(1.5,0,0,1.5,-635.57144,-800.68603)"
     gradientUnits="userSpaceOnUse"
     xlink:href="#linearGradient4172-7" />
  <linearGradient
     id="linearGradient4172-7">
    <stop
       style="stop-color:#dfdfdf;stop-opacity:1"
       class="ColorScheme-Highlight"
       id="stop4174-2"
       offset="0" />
    <stop
       style="stop-color:#ffffff;stop-opacity:1"
       id="stop4176-0"
       offset="1" />
  </linearGradient>
</defs>
<path
   inkscape:connector-curvature="0"
   style="color:#dfdfdf;fill:currentColor"
   class="ColorScheme-Text"
   d="M 1,2 V 16 H 17 V 2 Z M 8.941406,3 A 6,6 0 0 1 15,8.921875 V 9 A 6,6 0 0 1 9.019531,15 6,6 0 0 1 3,9.039062 6,6 0 0 1 8.941406,3 Z"
   id="path9" />
<path
   inkscape:connector-curvature="0"
   style="fill:url(#linearGradient4154)"
   d="M 15,9 A 6,6 0 0 1 9.01964,14.99997 6,6 0 0 1 3.00013,9.03927 6,6 0 0 1 8.9411,3.00029 6,6 0 0 1 14.99949,8.92147"
   id="path11" />
</svg>
