<?xml version="1.0" encoding="UTF-8" standalone="no"?>
<!-- Created with Inkscape (http://www.inkscape.org/) -->

<svg
   width="48"
   height="48"
   viewBox="0 0 12.7 12.7"
   version="1.1"
   id="svg5"
   inkscape:version="1.1.2 (0a00cf5339, 2022-02-04, custom)"
   sodipodi:docname="start-here-ubuntu.svg"
   xmlns:inkscape="http://www.inkscape.org/namespaces/inkscape"
   xmlns:sodipodi="http://sodipodi.sourceforge.net/DTD/sodipodi-0.dtd"
   xmlns:xlink="http://www.w3.org/1999/xlink"
   xmlns="http://www.w3.org/2000/svg"
   xmlns:svg="http://www.w3.org/2000/svg">
  <sodipodi:namedview
     id="namedview7"
     pagecolor="#ffffff"
     bordercolor="#666666"
     borderopacity="1.0"
     inkscape:pageshadow="2"
     inkscape:pageopacity="0.0"
     inkscape:pagecheckerboard="0"
     inkscape:document-units="px"
     showgrid="false"
     units="px"
     inkscape:zoom="21.1875"
     inkscape:cx="24"
     inkscape:cy="32.99115"
     inkscape:window-width="1860"
     inkscape:window-height="1017"
     inkscape:window-x="0"
     inkscape:window-y="0"
     inkscape:window-maximized="1"
     inkscape:current-layer="svg5"
     showguides="false"
     inkscape:lockguides="true" />
  <defs
     id="defs2">
    <linearGradient
       inkscape:collect="always"
       id="linearGradient3598">
      <stop
         style="stop-color:#f1962e;stop-opacity:1"
         offset="0"
         id="stop3594" />
      <stop
         style="stop-color:#e95420;stop-opacity:1"
         offset="1"
         id="stop3596" />
    </linearGradient>
    <linearGradient
       inkscape:collect="always"
       xlink:href="#linearGradient3598"
       id="linearGradient3600"
       x1="12.262125"
       y1="9.7353592"
       x2="0.36087561"
       y2="4.2708535"
       gradientUnits="userSpaceOnUse"
       gradientTransform="translate(-0.13228176,0.92604873)" />
  </defs>
  <path
     d="m 3.3072916,1.8520833 c -3.04237179,0 -3.04270832,0.5324204 -3.04270832,3.571875 V 8.334375 c 0,3.039456 3.3633e-4,3.571876 3.04270832,3.571876 h 6.0854167 c 3.0423717,0 3.0427077,-0.53242 3.0427077,-3.571876 V 5.4239583 c 0,-3.0394547 -3.36e-4,-3.571875 -3.0427077,-3.571875 z"
     style="display:inline;opacity:0.1;fill:#000000;fill-opacity:1;stroke:none;stroke-width:0.0992187;stroke-linecap:round;stroke-linejoin:round;stroke-miterlimit:4;stroke-dasharray:none;stroke-dashoffset:0;stroke-opacity:1;enable-background:new"
     id="path3132"
     sodipodi:nodetypes="sssssssss" />
  <path
     id="rect877"
     style="display:inline;fill:url(#linearGradient3600);fill-opacity:1;stroke:none;stroke-width:0.0992187;stroke-linecap:round;stroke-linejoin:round;stroke-miterlimit:4;stroke-dasharray:none;stroke-dashoffset:0;stroke-opacity:1;enable-background:new"
     d="m 3.3072916,1.0583333 c -3.0423717,0 -3.04270827,0.5324204 -3.04270827,3.5718749 v 3.4395833 c 0,3.0394555 3.3635e-4,3.5718755 3.04270827,3.5718755 h 6.0854167 c 3.0423727,0 3.0427087,-0.532421 3.0427087,-3.5718755 V 4.6302082 c 0,-3.0394546 -3.36e-4,-3.5718749 -3.0427087,-3.5718749 z"
     sodipodi:nodetypes="sssssssss" />
  <path
     d="m 7.8923081,3.175 c -0.5610395,-1.6e-6 -1.0158524,0.4548108 -1.0158508,1.015851 -1.6e-6,0.5610392 0.4548113,1.0158524 1.0158508,1.01585 0.5610391,2.4e-6 1.0158525,-0.4548108 1.0158505,-1.01585 C 8.9081606,3.6298108 8.4533472,3.1749984 7.8923081,3.175 Z M 6.4952266,3.2778917 c -1.1912645,-0.00683 -2.3192671,0.6378654 -2.9119219,1.6836088 0.025781,-0.00138 0.051569,-0.00212 0.077374,-0.00212 0.2721842,1.931e-4 0.5389403,0.076156 0.7703955,0.2193763 C 4.8853799,4.5225504 5.6279886,4.1253857 6.4259976,4.1118261 6.4424176,3.812232 6.5499427,3.5247988 6.7341811,3.2879827 6.6543449,3.2816459 6.5746405,3.2783227 6.4952226,3.2778676 Z m 2.748358,1.4877981 C 9.1262466,5.0419796 8.9268246,5.2755284 8.6723299,5.4347047 9.0858276,6.2153385 9.0548546,7.1566016 8.5909309,7.908363 8.8287437,8.1030421 8.9988929,8.367948 9.0770369,8.6651825 9.9703229,7.5382647 10.037532,5.9646706 9.2435846,4.7656898 Z M 3.6616843,5.402476 c -0.5610402,-2.4e-6 -1.0158525,0.4548106 -1.015851,1.01585 -1.5e-6,0.5610402 0.4548108,1.0158524 1.015851,1.0158508 0.5610392,1.6e-6 1.0158524,-0.4548106 1.01585,-1.0158508 2.4e-6,-0.5610394 -0.4548108,-1.0158524 -1.01585,-1.01585 z M 4.2656585,7.7459996 C 3.9938253,7.8694127 3.6907327,7.9066708 3.3971026,7.8527677 3.8095113,8.872487 4.7019321,9.6204193 5.7780428,9.8482182 6.0150888,9.8990162 6.2569529,9.9239022 6.499376,9.9224482 6.3128861,9.6779321 6.2087514,9.38057 6.2019473,9.0731274 6.1182795,9.0638326 6.0347121,9.0502462 5.952762,9.0327136 5.2256817,8.8789708 4.6062275,8.4065287 4.2656585,7.746003 Z m 3.3977723,0.2764653 c -0.561032,8.2e-6 -1.0158336,0.4548179 -1.015832,1.0158499 -1.6e-6,0.5610331 0.4548,1.0158432 1.015832,1.0158522 0.5610402,1e-6 1.0158534,-0.4548125 1.0158508,-1.0158522 C 8.6792842,8.4772757 8.224471,8.0224625 7.6634308,8.0224649 Z"
     style="fill:#000000;stroke-width:0.00246521;opacity:0.3"
     id="path1782" />
  <path
     d="M 7.8923081,2.9104167 C 7.3312688,2.9104151 6.8764557,3.3652274 6.8764573,3.9262676 6.8764557,4.4873069 7.3312688,4.94212 7.8923081,4.9421176 8.4533474,4.94212 8.9081605,4.4873069 8.9081589,3.9262676 8.9081605,3.3652274 8.4533474,2.9104151 7.8923081,2.9104167 Z M 6.4952266,3.0133084 C 5.303962,3.0064784 4.1759594,3.6511738 3.5833048,4.6969173 c 0.025781,-0.00138 0.051569,-0.00211 0.077374,-0.00211 C 3.932863,4.6950006 4.199619,4.7709633 4.4310742,4.9141839 4.8853799,4.2579739 5.6279886,3.8608093 6.4259976,3.8472495 6.4424182,3.5476556 6.5499428,3.2602223 6.7341812,3.0234062 6.654345,3.0170687 6.5746404,3.0137456 6.4952226,3.0132906 Z M 9.243585,4.5011064 C 9.1262462,4.7773962 8.9268244,5.0109452 8.67233,5.1701213 9.0858276,5.950755 9.0548543,6.8920183 8.5909305,7.6437798 8.8287435,7.8384589 8.9988924,8.1033647 9.0770364,8.4005991 9.9703232,7.2736812 10.037532,5.7000874 9.243585,4.5011064 Z M 3.6616843,5.1378927 c -0.5610402,-2.5e-6 -1.0158525,0.4548106 -1.0158509,1.01585 -1.6e-6,0.5610401 0.4548107,1.0158524 1.0158509,1.0158508 0.5610393,1.6e-6 1.0158524,-0.4548107 1.01585,-1.0158508 2.4e-6,-0.5610394 -0.4548107,-1.0158525 -1.01585,-1.01585 z M 4.2656585,7.4814163 C 3.9938253,7.6048294 3.6907328,7.6420874 3.3971026,7.5881845 3.8095113,8.6079036 4.701932,9.355836 5.7780427,9.5836349 c 0.237046,0.050798 0.4789102,0.075684 0.7213334,0.07423 C 6.3128862,9.4133488 6.2087513,9.1159866 6.2019475,8.808544 6.1182795,8.799249 6.0347122,8.785664 5.9527619,8.7681302 5.2256817,8.6143874 4.6062276,8.1419455 4.2656585,7.4814196 Z m 3.3977724,0.2764653 c -0.561032,8.1e-6 -1.0158337,0.454818 -1.0158321,1.01585 -1.6e-6,0.561033 0.4548001,1.015843 1.0158321,1.015852 0.5610402,10e-7 1.0158533,-0.4548125 1.0158508,-1.015852 2.5e-6,-0.5610393 -0.4548106,-1.0158524 -1.0158508,-1.01585 z"
     style="fill:#ffffff;stroke-width:0.00931734"
     id="path862"
     sodipodi:nodetypes="cccccccccccccccccccccccccccccscccccc" />
  <path
     id="path939"
     style="display:inline;opacity:0.3;fill:#ffffff;fill-opacity:1;stroke:none;stroke-width:0.0992186;stroke-linecap:round;stroke-linejoin:round;stroke-miterlimit:4;stroke-dasharray:none;stroke-dashoffset:0;stroke-opacity:1;enable-background:new"
     d="M 12.5 4 C 1.3684998 4 1.0133827 5.9127788 1.0019531 16.455078 C 1.0442025 6.7684261 1.7199408 5 12.5 5 L 35.5 5 C 46.280065 5 46.955798 6.7684261 46.998047 16.455078 C 46.986617 5.9127788 46.631505 4 35.5 4 L 12.5 4 z "
     transform="scale(0.26458333)" />
  <path
     id="path1163"
     style="display:inline;opacity:0.2;fill:#000000;fill-opacity:1;stroke:none;stroke-width:0.0992186;stroke-linecap:round;stroke-linejoin:round;stroke-miterlimit:4;stroke-dasharray:none;stroke-dashoffset:0;stroke-opacity:1;enable-background:new"
     d="M 1.0019531 31.544922 C 1.0133827 42.087227 1.3685005 44 12.5 44 L 35.5 44 C 46.631502 44 46.986617 42.087224 46.998047 31.544922 C 46.955797 41.231578 46.280062 43 35.5 43 L 12.5 43 C 1.7199418 43 1.0442024 41.23158 1.0019531 31.544922 z "
     transform="scale(0.26458333)" />
</svg>
