<svg width="32" height="32" version="1" xmlns="http://www.w3.org/2000/svg">
 <path d="m14 3c-1.662 0-3 1.338-3 3v2h-7c-1.108 0-2 0.892-2 2v6h2c1.662 0 3 1.338 3 3s-1.338 3-3 3h-2v7c0 1.108 0.892 2 2 2h7v-2c0-1.662 1.338-3 3-3s3 1.338 3 3v2h6c1.108 0 2-0.892 2-2v-7h2c1.662 0 3-1.338 3-3s-1.338-3-3-3h-2v-6c0-1.108-0.892-2-2-2h-6v-2c0-1.662-1.338-3-3-3z" opacity=".2"/>
 <path d="m14 2c-1.662 0-3 1.338-3 3v2h-7c-1.108 0-2 0.892-2 2v6h2c1.662 0 3 1.338 3 3s-1.338 3-3 3h-2v7c0 1.108 0.892 2 2 2h7v-2c0-1.662 1.338-3 3-3s3 1.338 3 3v2h6c1.108 0 2-0.892 2-2v-7h2c1.662 0 3-1.338 3-3s-1.338-3-3-3h-2v-6c0-1.108-0.892-2-2-2h-6v-2c0-1.662-1.338-3-3-3z" fill="#3eb34f"/>
</svg>
