<svg width="32" height="32" version="1.1" xmlns="http://www.w3.org/2000/svg">
 <rect transform="matrix(0,-1,-1,0,0,0)" x="-32" y="-31" width="30" height="30" rx="15" ry="15" enable-background="new" opacity=".2"/>
 <rect transform="matrix(0,-1,-1,0,0,0)" x="-31" y="-31" width="30" height="30" rx="15" ry="15" enable-background="new" fill="#5884f4"/>
 <g transform="matrix(.54878 0 0 .54878 -42.545 -49.692)" enable-background="new" fill="#fff" aria-label="@">
  <path d="m115.28 129.11q-1.28 0-2.12-0.36t-1.4-0.96q-0.88 0.48-2.12 0.84-1.24 0.32-2.48 0.32-1.92 0-3.52-0.6-1.56-0.6-2.72-1.76-1.16-1.2-1.8-2.92t-0.64-4q0-1.92 0.6-3.6 0.6-1.72 1.76-2.96 1.2-1.28 2.88-2 1.72-0.72 3.88-0.72 2.04 0 3.72 0.32 1.72 0.32 2.64 0.64v12.24q0 1.28 0.44 1.8t1.16 0.52q1.04 0 1.8-0.72 0.8-0.72 1.28-1.88 0.52-1.16 0.76-2.6 0.24-1.48 0.24-3 0-2.52-0.88-4.72-0.88-2.24-2.52-3.92t-4-2.64q-2.32-0.96-5.24-0.96t-5.36 1q-2.44 0.96-4.2 2.8-1.76 1.8-2.76 4.44-0.96 2.64-0.96 6 0 3.52 1.04 6.2 1.04 2.64 2.88 4.44 1.88 1.76 4.4 2.64 2.56 0.92 5.6 0.92 2.36 0 3.88-0.28 1.56-0.28 2-0.44l0.4 2.96q-0.68 0.24-2.48 0.52-1.76 0.28-3.8 0.28-3.56 0-6.72-1.04-3.16-1-5.52-3.12-2.36-2.08-3.76-5.32-1.36-3.28-1.36-7.76 0-4.32 1.36-7.56t3.64-5.36q2.32-2.16 5.32-3.24 3.04-1.08 6.4-1.08 3.28 0 6.2 1.08 2.92 1.04 5.12 3.08 2.2 2 3.48 4.88 1.28 2.84 1.28 6.44 0 2.72-0.64 4.8-0.6 2.08-1.64 3.52-1.04 1.4-2.48 2.12t-3.04 0.72zm-8-3.24q0.84 0 1.68-0.16 0.88-0.2 1.56-0.56-0.12-0.52-0.16-1.04t-0.04-1v-9.4q-0.24-0.08-0.92-0.16t-1.52-0.08q-2.84 0-4.24 1.76t-1.4 4.44q0 2.84 1.36 4.52t3.68 1.68z" fill="#fff" stroke-width="4.5432"/>
 </g>
</svg>
