<svg width="24" height="24" version="1.1" xmlns="http://www.w3.org/2000/svg">
 <defs>
  <style id="current-color-scheme" type="text/css">.ColorScheme-Text { color:#dfdfdf; } .ColorScheme-Highlight { color:#4285f4; } .ColorScheme-NeutralText { color:#ff9800; } .ColorScheme-PositiveText { color:#4caf50; } .ColorScheme-NegativeText { color:#f44336; }</style>
 </defs>
 <path class="error" d="m4 5v1h-0.994c-0.438 0-0.786 7e-3 -1.078 0.117s-0.528 0.308-0.666 0.559c-0.277 0.502-0.252 1.116-0.262 1.955v8.707c0.01 0.839-0.015 1.451 0.262 1.953 0.138 0.251 0.374 0.45 0.666 0.56s0.64 0.15 1.078 0.15h5.994c0.439 0 0.786-0.04 1.078-0.15a1.25 1.25 0 0 0 0.664-0.56c0.277-0.502 0.248-1.114 0.258-1.953v-8.707c-0.01-0.839 0.02-1.453-0.258-1.955a1.25 1.25 0 0 0-0.664-0.559c-0.292-0.11-0.64-0.117-1.078-0.117h-1v-1zm-0.994 2h5.994c0.428 0 0.664 0.03 0.727 0.053 0.086 0.032 0.125 0.076 0.14 0.105 0.095 0.173 0.123 0.618 0.133 1.475v8.705c-0.01 0.854-0.038 1.298-0.133 1.47-0.016 0.03-0.055 0.074-0.14 0.106-0.123 0.046-0.349 0.086-0.727 0.086h-5.994c-0.378 0-0.604-0.04-0.727-0.086a0.266 0.266 0 0 1-0.142-0.105c-0.098-0.178-0.126-0.62-0.137-1.485v-8.691c0.01-0.853 0.04-1.298 0.137-1.475 0.016-0.028 0.057-0.073 0.143-0.105 0.06-0.023 0.298-0.053 0.726-0.053zm2.285 1v2.662c0 0.793 0.03 1.517 0.086 2.168 0.057 0.642 0.128 1.284 0.213 1.926h0.82c0.085-0.642 0.157-1.284 0.213-1.926 0.057-0.651 0.086-1.375 0.086-2.168v-2.662zm0.71 8.102c-0.293 0-0.524 0.094-0.694 0.283a0.965 0.965 0 0 0-0.256 0.666c0 0.255 0.086 0.477 0.256 0.666s0.4 0.283 0.693 0.283 0.524-0.094 0.694-0.283a0.965 0.965 0 0 0 0.255-0.666 0.965 0.965 0 0 0-0.255-0.666c-0.17-0.19-0.401-0.283-0.694-0.283z" color="#000000" fill="#da1636" font-weight="400" overflow="visible" style="font-feature-settings:normal;font-variant-alternates:normal;font-variant-caps:normal;font-variant-ligatures:none;font-variant-numeric:normal;font-variant-position:normal;isolation:auto;mix-blend-mode:normal;shape-padding:0;text-decoration-color:#000000;text-decoration-line:none;text-decoration-style:solid;text-indent:0;text-transform:none;white-space:normal"/>
 <path d="m15.501 4c-0.542 0-0.98338 0.064469-1.3594 0.23047a1.72 1.72 0 0 0-0.83789 0.79688c-0.34 0.68-0.30273 1.4727-0.30273 2.4727v9c0 1-0.03727 1.7956 0.30273 2.4746 0.17 0.34 0.46189 0.62792 0.83789 0.79492 0.375 0.166 0.81738 0.23047 1.3594 0.23047h5c0.542 0 0.98338-0.06447 1.3594-0.23047 0.375-0.167 0.66889-0.45592 0.83789-0.79492 0.34-0.68 0.30273-1.4746 0.30273-2.4746v-9c0-1 0.03727-1.7937-0.30273-2.4727a1.72 1.72 0 0 0-0.83789-0.79688c-0.375-0.167-0.81738-0.23047-1.3594-0.23047zm-1.4297 2h7.8594c0.05 0.373 0.07031 0.87 0.07031 1.5v9c0 0.63-0.02031 1.126-0.07031 1.5h-7.8594c-0.05-0.374-0.07031-0.87-0.07031-1.5v-9c0-0.63 0.02031-1.127 0.07031-1.5z" fill="#dfdfdf" style="font-feature-settings:normal;font-variant-alternates:normal;font-variant-caps:normal;font-variant-ligatures:normal;font-variant-numeric:normal;font-variant-position:normal;isolation:auto;mix-blend-mode:normal;shape-padding:0;text-decoration-color:#000000;text-decoration-line:none;text-decoration-style:solid;text-indent:0;text-orientation:mixed;text-transform:none"/>
</svg>
