<svg width="24" height="24" version="1.1" xmlns="http://www.w3.org/2000/svg">
 <defs>
  <style id="current-color-scheme" type="text/css">.ColorScheme-Text { color:#dfdfdf; } .ColorScheme-Highlight { color:#4285f4; } .ColorScheme-NeutralText { color:#ff9800; } .ColorScheme-PositiveText { color:#4caf50; } .ColorScheme-NegativeText { color:#f44336; }</style>
 </defs>
 <path d="m12 5a2 2 0 1 1 0 4 2 2 0 0 1 0-4zm-6 5h12v1.002h-1.207c-0.447 0-0.964 0.075-1.328 0.234a2.047 2.047 0 0 0-0.867 0.655 2.407 2.407 0 0 0-0.461 0.988 5.588 5.588 0 0 0-0.127 1.225l-0.024 4.896h-1l0.014-3a0.998 0.998 0 0 0-1-1c-0.552 0-0.996 0.448-1 1l-0.014 3h-0.986l0.024-4.902v-8e-3c-0.027-0.427-0.04-0.83-0.127-1.211-0.087-0.38-0.24-0.711-0.461-0.987a2.046 2.046 0 0 0-0.867-0.656c-0.365-0.16-0.807-0.234-1.328-0.234h-1.241z" fill="#dfdfdf" font-family="sans-serif" font-weight="400" overflow="visible" style="font-feature-settings:normal;font-variant-alternates:normal;font-variant-caps:normal;font-variant-ligatures:normal;font-variant-numeric:normal;font-variant-position:normal;isolation:auto;mix-blend-mode:normal;shape-padding:0;text-decoration-color:#000000;text-decoration-line:none;text-decoration-style:solid;text-indent:0;text-orientation:mixed;text-transform:none" white-space="normal"/>
</svg>
