<?xml version="1.0" encoding="UTF-8" standalone="no"?>
<!-- Created with Inkscape (http://www.inkscape.org/) -->

<svg
   width="16"
   height="16"
   viewBox="0 0 4.2333333 4.2333333"
   version="1.1"
   id="svg1003"
   sodipodi:docname="input-keyboard.svg"
   inkscape:version="1.1.2 (0a00cf5339, 2022-02-04)"
   xmlns:inkscape="http://www.inkscape.org/namespaces/inkscape"
   xmlns:sodipodi="http://sodipodi.sourceforge.net/DTD/sodipodi-0.dtd"
   xmlns:xlink="http://www.w3.org/1999/xlink"
   xmlns="http://www.w3.org/2000/svg"
   xmlns:svg="http://www.w3.org/2000/svg">
  <sodipodi:namedview
     id="namedview1005"
     pagecolor="#ffffff"
     bordercolor="#666666"
     borderopacity="1.0"
     inkscape:pageshadow="2"
     inkscape:pageopacity="0.0"
     inkscape:pagecheckerboard="0"
     inkscape:document-units="px"
     showgrid="false"
     units="px"
     showguides="true"
     inkscape:lockguides="true"
     inkscape:zoom="57.85714"
     inkscape:cx="7.9765436"
     inkscape:cy="8.4691362"
     inkscape:window-width="1920"
     inkscape:window-height="995"
     inkscape:window-x="0"
     inkscape:window-y="0"
     inkscape:window-maximized="1"
     inkscape:current-layer="svg1003" />
  <defs
     id="defs1000">
    <linearGradient
       inkscape:collect="always"
       id="linearGradient17934">
      <stop
         style="stop-color:#cdcdcd;stop-opacity:1"
         offset="0"
         id="stop17930" />
      <stop
         style="stop-color:#d9d9d9;stop-opacity:1"
         offset="1"
         id="stop17932" />
    </linearGradient>
    <linearGradient
       inkscape:collect="always"
       xlink:href="#linearGradient1871"
       id="linearGradient16320"
       x1="10"
       y1="4"
       x2="10"
       y2="24.766911"
       gradientUnits="userSpaceOnUse"
       gradientTransform="matrix(0.13229166,0,0,0.12211538,0,0.30528845)" />
    <linearGradient
       inkscape:collect="always"
       id="linearGradient1871">
      <stop
         style="stop-color:#ffffff;stop-opacity:1;"
         offset="0"
         id="stop1867" />
      <stop
         style="stop-color:#ffffff;stop-opacity:0.1"
         offset="0.12"
         id="stop2515" />
      <stop
         style="stop-color:#ffffff;stop-opacity:0.102"
         offset="0.89999998"
         id="stop2581" />
      <stop
         style="stop-color:#ffffff;stop-opacity:0.502"
         offset="1"
         id="stop1869" />
    </linearGradient>
    <linearGradient
       inkscape:collect="always"
       xlink:href="#linearGradient17934"
       id="linearGradient17936"
       x1="3.175"
       y1="0.39687499"
       x2="3.2100108"
       y2="3.294909"
       gradientUnits="userSpaceOnUse"
       gradientTransform="translate(0,0.26458333)" />
  </defs>
  <path
     d="M 1.0583333,0.66145833 H 3.175 c 0.7935019,1.919e-4 0.9259876,0.157244 0.9260416,0.99218747 v 0.919427 C 4.1009876,3.3592632 3.9685019,3.5720667 3.175,3.5718749 H 1.0583333 c -0.79355622,0 -0.92604169,-0.2128036 -0.92604169,-0.9988021 v -0.919427 c 0,-0.78599847 0.13248546,-0.99218747 0.92604169,-0.99218747 z"
     style="fill:url(#linearGradient17936);fill-opacity:1;stroke-width:0.0653156;stroke-linejoin:round"
     id="path17503"
     sodipodi:nodetypes="sccccssss" />
  <path
     id="rect13250"
     style="opacity:0.699;fill:url(#linearGradient16320);fill-opacity:1;stroke-width:0.127101;stroke-linejoin:round"
     d="M 0.94929604,0.79374999 C 0.4275256,0.79665678 0.26458333,0.84335923 0.26458333,1.5874999 v 0.1829346 0.6924642 0.1829345 c 0,0.79375 0.21166674,0.79375 0.79374997,0.79375 H 1.3229166 3.175 c 0.5820833,0 0.79375,0 0.79375,-0.79375 V 2.4628987 1.7704345 1.5874999 C 3.96875,0.79374975 3.7570833,0.79374999 3.175,0.79374999 H 1.3229166 Z M 1.0340454,1.0583333 c 0.0079,-4.46e-5 0.016138,0 0.024288,0 H 3.175 c 0.5216072,0 0.5291666,0.089286 0.5291666,0.5291666 v 1.0583333 c 0,0.4398807 -0.00756,0.5291667 -0.5291666,0.5291667 H 1.0583333 c -0.52160723,0 -0.52916664,-0.089286 -0.52916664,-0.5291667 V 1.5874999 c 0,-0.4330075 0.007113,-0.5263572 0.50487874,-0.5291666 z"
     sodipodi:nodetypes="csccsscssccssccssssssssss" />
  <path
     id="rect7040"
     style="opacity:0.4;stroke-width:0.264583;stroke-linejoin:round"
     d="M 1.0583333,0.52916666 C 0.21187339,0.52916666 0,0.74103996 0,1.5874999 v 1.0583333 c 0,0.84646 0.21187339,1.0583334 1.0583333,1.0583334 H 3.175 C 4.021402,3.7043732 4.2332756,3.4924999 4.2333333,2.6458332 V 1.5874999 C 4.2332756,0.68832999 4.021402,0.5293733 3.175,0.52916666 Z M 0.94929604,0.79374999 H 1.3229166 3.175 c 0.5820833,0 0.79375,-2.9e-7 0.79375,0.79374991 v 0.1829346 0.6924642 0.1829345 c 0,0.79375 -0.2116667,0.79375 -0.79375,0.79375 H 1.3229166 1.0583333 c -0.5820832,0 -0.79374997,0 -0.79374997,-0.79375 V 2.4628987 1.7704345 1.5874999 c 0,-0.74414075 0.16294232,-0.79084291 0.68471271,-0.79374991 z"
     sodipodi:nodetypes="ssssccccsccssccsscssccsc" />
  <path
     id="path1140"
     style="color:#000000;opacity:0.05;fill:#000000;fill-rule:evenodd;stroke:none;stroke-width:0.576962;stroke-linejoin:round;stroke-opacity:1;-inkscape-stroke:none"
     d="m 0.81764759,1.0583333 a 0.28850978,0.28850978 0 0 0 -0.28848093,0.288481 v 0.2884809 a 0.28850978,0.28850978 0 0 0 0.28848093,0.2884809 0.28850978,0.28850978 0 0 0 -5.6254e-4,0.00112 l 0.001126,0.287353 H 0.81764792 A 0.28850978,0.28850978 0 0 0 0.52916666,2.500738 V 2.7892189 A 0.28850978,0.28850978 0 0 0 0.81764759,3.0776998 H 1.1061285 A 0.28850978,0.28850978 0 0 0 1.250369,2.9334594 0.28850978,0.28850978 0 0 0 1.3946095,3.0776998 H 2.8370141 A 0.28850978,0.28850978 0 0 0 2.981818,2.932896 0.28850978,0.28850978 0 0 0 3.1288758,3.0776998 H 3.4156663 A 0.28850978,0.28850978 0 0 0 3.7041472,2.7858383 L 3.7007672,2.4973574 A 0.28850978,0.28850978 0 0 0 3.4134126,2.2128205 0.28850978,0.28850978 0 0 0 3.413976,2.212257 V 1.9237761 A 0.28850978,0.28850978 0 0 0 3.7024569,1.6352952 V 1.3468143 A 0.28850978,0.28850978 0 0 0 3.413976,1.0583333 H 3.125495 A 0.28850978,0.28850978 0 0 0 2.9812546,1.2025738 0.28850978,0.28850978 0 0 0 2.8370141,1.0583333 H 2.5485332 A 0.28850978,0.28850978 0 0 0 2.4042927,1.2025738 0.28850978,0.28850978 0 0 0 2.2600522,1.0583333 H 1.9715713 A 0.28850978,0.28850978 0 0 0 1.8273308,1.2025738 0.28850978,0.28850978 0 0 0 1.6830904,1.0583333 H 1.3946095 A 0.28850978,0.28850978 0 0 0 1.250369,1.2025738 0.28850978,0.28850978 0 0 0 1.1061285,1.0583333 Z" />
  <path
     id="path40-3"
     style="font-variant-ligatures:normal;font-variant-position:normal;font-variant-caps:normal;font-variant-numeric:normal;font-variant-alternates:normal;font-feature-settings:normal;text-indent:0;text-decoration-line:none;text-decoration-style:solid;text-decoration-color:#000000;text-transform:none;text-orientation:mixed;white-space:normal;shape-padding:0;opacity:0.2;isolation:auto;mix-blend-mode:normal;fill:#000000;stroke-width:0.293791"
     d="M 0.79375002,1.4552083 V 1.7492472 H 1.0877889 V 1.4552083 Z m 0.58756098,0 V 1.7492472 H 1.6753499 V 1.4552083 Z m 0.587561,0 V 1.7492472 H 2.2629109 V 1.4552083 Z m 0.5875611,0 v 0.2940389 h 0.294039 V 1.4552083 Z m 0.5875608,0 V 1.7492472 H 3.4380331 V 1.4552083 Z m -2.0572386,0.587561 0.00155,0.2940389 H 1.381311 V 2.0427693 Z m 0.5885946,0 V 2.3368082 H 1.968872 V 2.0427693 Z m 0.587561,0 V 2.3368082 H 2.5564331 V 2.0427693 Z m 0.5875612,0 V 2.3368082 H 3.1439939 V 2.0427693 Z M 0.79375002,2.6303303 V 2.9243691 H 1.0877889 V 2.6303303 Z m 0.58756098,0 V 2.9243691 H 2.8504721 V 2.6303303 Z m 1.7626829,0 0.00362,0.2940388 h 0.2919725 l -0.00362,-0.2940388 z" />
  <path
     id="path40"
     style="font-variant-ligatures:normal;font-variant-position:normal;font-variant-caps:normal;font-variant-numeric:normal;font-variant-alternates:normal;font-feature-settings:normal;text-indent:0;text-decoration-line:none;text-decoration-style:solid;text-decoration-color:#000000;text-transform:none;text-orientation:mixed;white-space:normal;shape-padding:0;isolation:auto;mix-blend-mode:normal;fill:#ffffff;stroke-width:1.11039;fill-opacity:1"
     d="M 3 5 L 3 6.1113281 L 4.1113281 6.1113281 L 4.1113281 5 L 3 5 z M 5.2207031 5 L 5.2207031 6.1113281 L 6.3320312 6.1113281 L 6.3320312 5 L 5.2207031 5 z M 7.4414062 5 L 7.4414062 6.1113281 L 8.5527344 6.1113281 L 8.5527344 5 L 7.4414062 5 z M 9.6621094 5 L 9.6621094 6.1113281 L 10.773438 6.1113281 L 10.773438 5 L 9.6621094 5 z M 11.882812 5 L 11.882812 6.1113281 L 12.994141 6.1113281 L 12.994141 5 L 11.882812 5 z M 4.1074219 7.2207031 L 4.1132812 8.3320312 L 5.2207031 8.3320312 L 5.2207031 7.2207031 L 4.1074219 7.2207031 z M 6.3320312 7.2207031 L 6.3320312 8.3320312 L 7.4414062 8.3320312 L 7.4414062 7.2207031 L 6.3320312 7.2207031 z M 8.5527344 7.2207031 L 8.5527344 8.3320312 L 9.6621094 8.3320312 L 9.6621094 7.2207031 L 8.5527344 7.2207031 z M 10.773438 7.2207031 L 10.773438 8.3320312 L 11.882812 8.3320312 L 11.882812 7.2207031 L 10.773438 7.2207031 z M 3 9.4414062 L 3 10.552734 L 4.1113281 10.552734 L 4.1113281 9.4414062 L 3 9.4414062 z M 5.2207031 9.4414062 L 5.2207031 10.552734 L 10.773438 10.552734 L 10.773438 9.4414062 L 5.2207031 9.4414062 z M 11.882812 9.4414062 L 11.896484 10.552734 L 13 10.552734 L 12.986328 9.4414062 L 11.882812 9.4414062 z "
     transform="scale(0.26458333)" />
</svg>
