<?xml version="1.0" encoding="UTF-8" standalone="no"?>
<!-- Created with Inkscape (http://www.inkscape.org/) -->

<svg
   width="16"
   height="16"
   viewBox="0 0 4.2333332 4.2333335"
   version="1.1"
   id="svg5"
   inkscape:version="1.1.2 (0a00cf5339, 2022-02-04)"
   sodipodi:docname="tablet.svg"
   xmlns:inkscape="http://www.inkscape.org/namespaces/inkscape"
   xmlns:sodipodi="http://sodipodi.sourceforge.net/DTD/sodipodi-0.dtd"
   xmlns:xlink="http://www.w3.org/1999/xlink"
   xmlns="http://www.w3.org/2000/svg"
   xmlns:svg="http://www.w3.org/2000/svg">
  <sodipodi:namedview
     id="namedview7"
     pagecolor="#ffffff"
     bordercolor="#666666"
     borderopacity="1.0"
     inkscape:pageshadow="2"
     inkscape:pageopacity="0.0"
     inkscape:pagecheckerboard="0"
     inkscape:document-units="px"
     showgrid="false"
     units="px"
     inkscape:zoom="16.970563"
     inkscape:cx="16.764323"
     inkscape:cy="15.084945"
     inkscape:window-width="1920"
     inkscape:window-height="995"
     inkscape:window-x="0"
     inkscape:window-y="0"
     inkscape:window-maximized="1"
     inkscape:current-layer="svg5"
     showguides="false" />
  <defs
     id="defs2">
    <linearGradient
       inkscape:collect="always"
       id="linearGradient1923">
      <stop
         style="stop-color:#9a9a9a;stop-opacity:1;"
         offset="0"
         id="stop1919" />
      <stop
         style="stop-color:#c5c5c5;stop-opacity:1"
         offset="1"
         id="stop1921" />
    </linearGradient>
    <linearGradient
       inkscape:collect="always"
       id="linearGradient1871">
      <stop
         style="stop-color:#ffffff;stop-opacity:1;"
         offset="0"
         id="stop1867" />
      <stop
         style="stop-color:#ffffff;stop-opacity:0.1"
         offset="0.12"
         id="stop2515" />
      <stop
         style="stop-color:#ffffff;stop-opacity:0.102"
         offset="0.89999998"
         id="stop2581" />
      <stop
         style="stop-color:#ffffff;stop-opacity:0.502"
         offset="1"
         id="stop1869" />
    </linearGradient>
    <linearGradient
       inkscape:collect="always"
       xlink:href="#linearGradient1871"
       id="linearGradient915"
       x1="2.1166668"
       y1="0.26458332"
       x2="2.1166668"
       y2="3.96875"
       gradientUnits="userSpaceOnUse" />
    <linearGradient
       inkscape:collect="always"
       xlink:href="#linearGradient1923"
       id="linearGradient1925"
       x1="1.8520833"
       y1="0.79374999"
       x2="2.9104166"
       y2="3.175"
       gradientUnits="userSpaceOnUse"
       gradientTransform="matrix(1,0,0,1.1111099,-0.26458326,-0.08819321)" />
  </defs>
  <path
     d="m 1.612948,0.264597 c -0.190238,0 -0.344435,0.0037 -0.485738,0.02739 -0.141306,0.02373 -0.282644,0.0731 -0.39066,0.180867 -0.108013,0.107765 -0.157837,0.249563 -0.181374,0.391189 -0.02355,0.141629 -0.02677,0.29646 -0.02585,0.487309 v 0.765329 1.031462 c -7.94e-4,0.190013 0.0024,0.34458 0.02585,0.485759 0.02355,0.141626 0.07336,0.283425 0.181374,0.391189 0.108016,0.107768 0.249354,0.157147 0.39066,0.180867 0.141303,0.02373 0.2955,0.02739 0.485738,0.02739 h 1.007546 c 0.190238,0 0.344096,-0.0036 0.485219,-0.02739 C 3.246839,4.182198 3.388193,4.132428 3.495855,4.024575 3.603519,3.916726 3.653022,3.77515 3.676716,3.633902 3.700416,3.492652 3.7514569,3.3327822 3.704106,3.148143 V 2.11668 1.349801 c 0,-0.190614 -0.0037,-0.344509 -0.02739,-0.485759 C 3.653036,0.722794 3.603516,0.581218 3.495855,0.473369 3.388193,0.365519 3.246839,0.315735 3.105713,0.291986 2.96459,0.268226 2.810732,0.264596 2.620494,0.264596 Z"
     style="color:#000000;font-style:normal;font-variant:normal;font-weight:normal;font-stretch:normal;font-size:medium;line-height:normal;font-family:sans-serif;font-variant-ligatures:normal;font-variant-position:normal;font-variant-caps:normal;font-variant-numeric:normal;font-variant-alternates:normal;font-feature-settings:normal;text-indent:0;text-align:start;text-decoration:none;text-decoration-line:none;text-decoration-style:solid;text-decoration-color:#000000;letter-spacing:normal;word-spacing:normal;text-transform:none;writing-mode:lr-tb;direction:ltr;text-orientation:mixed;dominant-baseline:auto;baseline-shift:baseline;text-anchor:start;white-space:normal;shape-padding:0;clip-rule:nonzero;display:inline;overflow:visible;visibility:visible;opacity:0.1;isolation:auto;mix-blend-mode:normal;color-interpolation:sRGB;color-interpolation-filters:linearRGB;solid-color:#000000;solid-opacity:1;vector-effect:none;fill:#000000;fill-opacity:1;fill-rule:nonzero;stroke:none;stroke-width:0.529156;stroke-linecap:butt;stroke-linejoin:miter;stroke-miterlimit:4;stroke-dasharray:none;stroke-dashoffset:0;stroke-opacity:1;marker:none;color-rendering:auto;image-rendering:auto;shape-rendering:auto;text-rendering:auto;enable-background:accumulate"
     id="path3731"
     sodipodi:nodetypes="ccccccccccsscccscscsccc" />
  <path
     d="m 1.549025,0.132305 c -0.804773,0 -0.891366,0.08175 -0.887421,0.879292 V 2.11668 3.22176 c -0.0039,0.797541 0.08265,0.879295 0.887421,0.879295 h 1.135363 c 0.804775,0 0.887423,-0.08174 0.887423,-0.879295 V 2.11668 1.011597 c 0,-0.797549 -0.08265,-0.879292 -0.887423,-0.879292 z"
     style="color:#000000;display:inline;overflow:visible;visibility:visible;fill:#4d4d4d;fill-opacity:1;fill-rule:nonzero;stroke:none;stroke-width:0.264583;marker:none;enable-background:accumulate"
     id="path3851"
     sodipodi:nodetypes="scccssscsss" />
  <path
     id="rect1530"
     style="stroke-width:0.305514;opacity:0.3"
     d="m 1.7197917,0.5291667 h 0.79375 c 0.07329,0 0.1322917,0.0590021 0.1322917,0.13229167 0,0.0732896 -0.059002,0.13229168 -0.1322917,0.13229168 h -0.79375 c -0.07329,0 -0.1322917,-0.0590021 -0.1322917,-0.13229168 0,-0.0732896 0.059002,-0.13229167 0.1322917,-0.13229167 z" />
  <rect
     style="fill:url(#linearGradient1925);fill-opacity:1;stroke-width:0.305514"
     id="rect1099"
     width="2.1166668"
     height="2.6458304"
     x="1.0583334"
     y="0.79375029" />
  <path
     d="M 1.8520834,0.79375028 1.0584391,2.1298946 V 3.319313 c 0,0.066628 0.048273,0.1202648 0.1082384,0.1202648 H 1.304237 L 2.9104167,0.79374734 Z"
     style="opacity:0.1;fill:#ffffff;stroke-width:0.278895;enable-background:new"
     id="path999"
     sodipodi:nodetypes="ccssccc" />
  <path
     d="M 1.0583333,0.79375028 V 2.1298652 L 1.8520834,0.79375028 Z"
     style="opacity:0.2;fill:#ffffff;stroke-width:0.278895;enable-background:new"
     id="path1115"
     sodipodi:nodetypes="cccc" />
  <path
     d="m 1.566355,0.264607 c -0.377841,0 -0.571222,0.03201 -0.650867,0.103696 -0.03982,0.03584 -0.06928,0.08775 -0.09077,0.188304 -0.02148,0.100557 -0.03094,0.24442398 -0.03094,0.435419 v 1.124659 1.124659 c 0,0.190998 0.0094,0.334862 0.03094,0.43542 0.02148,0.100557 0.05095,0.152458 0.09077,0.188304 0.07964,0.07169 0.273026,0.103695 0.650867,0.103695 h 1.100499 c 0.377936,0 0.572397,-0.03194 0.652415,-0.103695 0.04001,-0.03588 0.06949,-0.08742 0.09077,-0.187788 0.02125,-0.100365 0.03045,-0.244544 0.0294,-0.435417 V 3.241334 2.116685 0.992026 0.991497 C 3.440539,0.800624 3.431339,0.656444 3.410039,0.55608 3.388769,0.455716 3.359279,0.404175 3.319269,0.368292 3.239249,0.296532 3.04479,0.264597 2.666854,0.264597 Z m 0.082507,0.271881 c 0.240009,-2.65e-4 0.215365,-2.65e-4 0.4553713,0.0011 0.24038,0.0087 0.7483734,-0.01283 0.9865624,0.0263 0.06492,-0.0045 0.05335,0.07245 0.0624,0.115562 0.0199,0.741997 0.01408,1.499798 0.01135,2.248807 -0.006,0.225946 0.0043,0.450837 -0.01807,0.673246 0.0032,0.08312 -0.09426,0.06942 -0.152144,0.08254 -0.55005,0.01611 -0.3225324,0.0097 -0.879773,0.0098 -0.233955,-0.008 -0.734923,0.01148 -0.967007,-0.02267 -0.06701,0.0067 -0.05625,-0.06917 -0.06808,-0.11247 -0.02117,-0.765444 -0.01423,-1.541465 -0.01135,-2.312257 0.0073,-0.208933 -0.0067,-0.416597 0.02061,-0.624755 -0.0061,-0.07268 0.07841,-0.05634 0.124809,-0.06965 0.320572,-0.02201 0.1139903,-0.01058 0.4352763,-0.01548 z"
     style="color:#000000;display:inline;overflow:visible;visibility:visible;opacity:0.4;fill:url(#linearGradient915);fill-opacity:1;fill-rule:nonzero;stroke:none;stroke-width:0.2641;marker:none;enable-background:accumulate"
     id="path4135"
     sodipodi:nodetypes="cccscsccsscccccccccccccccccccccccccc" />
  <path
     d="M 1.565818,1.3e-5 C 1.178703,1.3e-5 0.91992,0.008313 0.738479,0.17158 0.647759,0.25323 0.594461,0.367512 0.565878,0.501274 0.537298,0.63504 0.529188,0.79858653 0.529188,0.992201 V 2.11668 3.241159 c 0,0.198901 0.0081,0.357161 0.03669,0.490926 0.02858,0.133766 0.08188,0.248045 0.172601,0.329695 0.181441,0.163304 0.440224,0.171567 0.827339,0.171567 h 1.101139 c 0.38721,0 0.64738,-0.0078 0.829406,-0.171048 0.09101,-0.08162 0.144208,-0.196255 0.1726,-0.330214 0.02836,-0.133818 0.03615,-0.2922 0.03514,-0.490926 V 3.24063 2.11668 0.992717 0.992187 C 3.705203,0.793462 3.697303,0.635079 3.668963,0.501261 3.640573,0.367303 3.587373,0.252664 3.496363,0.171048 3.314335,0.007818 3.054167,0 2.666957,0 Z m 0,0.264584 h 1.101139 c 0.377997,0 0.572728,0.03218 0.652672,0.10387 0.03997,0.03584 0.06917,0.08723 0.09043,0.187584 0.02127,0.100351 0.03044,0.244226 0.02946,0.435115 v 5.29e-4 1.124995 1.124996 5.29e-4 c 0.0011,0.190889 -0.0082,0.334761 -0.02946,0.435115 -0.02127,0.100351 -0.05046,0.151738 -0.09043,0.187584 -0.07994,0.07167 -0.274675,0.103849 -0.652672,0.103849 H 1.565818 C 1.187916,3.968763 0.994783,3.937023 0.91521,3.865409 0.87542,3.829599 0.84626,3.777339 0.82478,3.67679 0.8033,3.576243 0.75002431,3.4270932 0.79377,3.241159 V 2.11668 0.992201 C 0.79377,0.80119 0.80327,0.657117 0.82478,0.55657 0.84626,0.45602 0.87543,0.403757 0.91521,0.367948 0.99478,0.296338 1.187916,0.264597 1.565818,0.264597 Z"
     style="color:#000000;display:inline;opacity:0.4;fill:#000000;stroke-width:0.264583;-inkscape-stroke:none;enable-background:new"
     id="path4015"
     sodipodi:nodetypes="cccscsccsssccccccccccsscccccccccssssscsccs" />
</svg>
