<svg width="16" height="16" version="1.1" xmlns="http://www.w3.org/2000/svg">
 <path d="m6.3848 3 2 2h1.6152c0.42816 0 1 0.61414 1 1v1h-0.61523l2.6152 2.6172v-3.6172c0-1.6343-1.3198-3-3-3h-3.6152zm-2.3848 1.4434v0.55664h0.55664l-0.55664-0.55664zm2 2.5566c-0.91927 0-1.7356 0.38396-2.25 0.96875s-0.75639 1.3106-0.75 2.0312c6e-3 0.72062 0.26893 1.4528 0.78125 2.0312 0.51232 0.57854 1.3104 0.96875 2.2188 0.96875h6.5547l-2-2h-4.5547c-0.39787 0-0.56691-0.10979-0.71875-0.28125s-0.27877-0.43937-0.28125-0.71875c-2e-3 -0.27938 0.10467-0.55354 0.25-0.71875s0.32764-0.28125 0.75-0.28125h2.5566l-2-2h-0.55664z" fill="#666"/>
 <path d="m2.6914 1.3086-1.4141 1.4141 12 12 1.4141-1.4141-12-12z" fill="#666" stroke-width="1.2393"/>
</svg>
