<svg width="24" height="24" version="1" xmlns="http://www.w3.org/2000/svg" xmlns:xlink="http://www.w3.org/1999/xlink">
 <defs>
  <linearGradient id="linearGradient1690" x1="344" x2="320" y1="188" y2="212" gradientTransform="rotate(-90 77.999 266)" gradientUnits="userSpaceOnUse">
   <stop stop-color="#999" offset="0"/>
   <stop stop-color="#b7b7b7" offset=".61328"/>
   <stop stop-color="#dbdbdb" offset="1"/>
  </linearGradient>
  <linearGradient id="linearGradient981" x1="332" x2="332" y1="189" y2="211" gradientUnits="userSpaceOnUse">
   <stop stop-color="#fff" offset="0"/>
   <stop stop-color="#fff" stop-opacity=".098039" offset=".125"/>
   <stop stop-color="#fff" stop-opacity=".098039" offset=".925"/>
   <stop stop-color="#fff" stop-opacity=".49804" offset="1"/>
  </linearGradient>
  <clipPath id="clipPath971">
   <path d="m327.87 189c-4.4121 0-4.8868 0.45318-4.8652 4.8742v6.1258 6.1258c-0.0217 4.421 0.45311 4.8742 4.8652 4.8742h8.2696c4.4121 0 4.8652-0.45312 4.8652-4.8742v-6.1258-6.1258c0-4.4211-0.45312-4.8742-4.8652-4.8742z" color="#000000" fill="#46a926"/>
  </clipPath>
 </defs>
 <path d="m7.2452 0.99977c-1.2881 0-2.3174 0.0231-3.2095 0.14787-0.8921 0.12479-1.7021 0.37148-2.3111 0.87784-0.60904 0.50637-0.90937 1.1853-1.0579 1.9298-0.14848 0.74444-0.17251 1.602-0.1662 2.6785v5.866 5.8698c-6e-3 1.0743 0.0179 1.9313 0.1662 2.6747 0.14848 0.74444 0.44882 1.4234 1.0579 1.9298 0.60906 0.50636 1.419 0.75304 2.3111 0.87784 0.8921 0.12479 1.9214 0.14787 3.2095 0.14787h9.5096c1.2881 0 2.3144-0.023 3.205-0.14787 0.89059-0.1249 1.702-0.37305 2.3089-0.87972 0.60695-0.50666 0.9038-1.183 1.0534-1.926 0.14958-0.74308 0.17744-1.601 0.17744-2.6766v-5.8698-5.8698c0-1.0756-0.0278-1.9335-0.17744-2.6766-0.14957-0.74307-0.44642-1.4194-1.0534-1.926-0.60694-0.50667-1.4183-0.75482-2.3089-0.87972-0.89062-0.1249-1.9169-0.14787-3.205-0.14787z" color="#000000" color-rendering="auto" dominant-baseline="auto" image-rendering="auto" opacity=".1" shape-rendering="auto" solid-color="#000000" style="font-feature-settings:normal;font-variant-alternates:normal;font-variant-caps:normal;font-variant-ligatures:normal;font-variant-numeric:normal;font-variant-position:normal;isolation:auto;mix-blend-mode:normal;shape-padding:0;text-decoration-color:#000000;text-decoration-line:none;text-decoration-style:solid;text-indent:0;text-orientation:mixed;text-transform:none;white-space:normal"/>
 <path d="m16.822 22.501c5.1467 0 5.7004-0.43262 5.6752-4.6531v-5.8479-5.8479c0.0253-4.2205-0.52855-4.6531-5.6752-4.6531h-9.6464c-5.1466 0-5.6752 0.43256-5.6752 4.6531v5.8479 5.8479c0 4.2205 0.52857 4.6531 5.6752 4.6531z" color="#000000" fill="url(#linearGradient1690)"/>
 <path transform="matrix(1.1051 0 0 .91313 -354.91 -170.63)" d="m327.87 189c-4.4121 0-4.8868 0.45318-4.8652 4.8742v6.1258 6.1258c-0.0217 4.421 0.45311 4.8742 4.8652 4.8742h8.2696c4.4121 0 4.8652-0.45312 4.8652-4.8742v-6.1258-6.1258c0-4.4211-0.45312-4.8742-4.8652-4.8742z" clip-path="url(#clipPath971)" color="#000000" fill="none" opacity=".3" stroke="url(#linearGradient981)" stroke-width="1.9909"/>
 <path d="m16.982 22.512c4.6771 0 5.5533-0.42343 5.5287-4.5543v-5.9574-5.9575c0.0245-4.1309-0.85163-4.5543-5.5287-4.5543h-9.9655c-4.6759 0-5.5287 0.42338-5.5287 4.5543v5.9575 5.9574c0 4.1309 0.8528 4.5543 5.5287 4.5543z" color="#000000" fill="none" opacity=".4" stroke="#000" stroke-width=".97653"/>
 <rect x="4" y="4" width="16" height="10" ry=".42693" enable-background="new" fill="#fff" opacity=".937"/>
 <path d="m17 22.5v-5.5639c0-0.5141-0.4093-0.92796-0.9174-0.92845l-8.1649-8e-3c-0.5082-3e-4 -0.91741 0.41454-0.91741 0.92864v5.5639c9.8688-2.5e-4 -0.69867 0.0251 9.9997 8e-3zm-5.9997-0.50018h-2c-0.2618 0-1 0-1-1v-3c0-1 0.7382-1 1-1h2c0.26181 0 1 0 1 1v3c0 1-0.73819 1-1 1z" enable-background="new" fill="#666" stroke-width="1.1309"/>
 <path d="m4.9999 12c5e-4 0.23471 5e-4 0.46875 6.6e-4 0.7031 1.2e-4 0.0989 4.9e-4 0.19782 4.9e-4 0.29674h13.997c6.5e-4 -0.33318 2e-3 -0.66664 2e-3 -1z" enable-background="new" fill="#007aa6"/>
 <path d="m5 9.0002c5e-4 0.23472 5e-4 0.46876 6.6e-4 0.70311 1.2e-4 0.0989 4.9e-4 0.19781 4.9e-4 0.29673h13.997c6.4e-4 -0.33317 2e-3 -0.66664 2e-3 -1z" enable-background="new" fill="#007aa6"/>
 <path d="m5 6.0002c5e-4 0.23472 5e-4 0.46876 6.6e-4 0.70311 1.2e-4 0.0989 4.9e-4 0.19781 4.9e-4 0.29673h13.997c6.5e-4 -0.33317 2e-3 -0.66664 2e-3 -1z" enable-background="new" fill="#007aa6"/>
</svg>
