<svg width="24" height="24" version="1" xmlns="http://www.w3.org/2000/svg" xmlns:xlink="http://www.w3.org/1999/xlink">
 <defs>
  <linearGradient id="linearGradient8588-0-1" x1="13.735" x2="38.1" y1="249.69" y2="292.77" gradientTransform="matrix(.48294 0 0 .48294 -.01112 -119.42)" gradientUnits="userSpaceOnUse">
   <stop stop-color="#8c59d9" offset="0"/>
   <stop stop-color="#a7a7f1" offset="1"/>
  </linearGradient>
  <clipPath id="clipPath1231-1">
   <path d="m335.72 189.5c6.8108 1e-5 7.7842 0.97093 7.7842 7.7754v5.4489c0 6.8044-0.97337 7.7754-7.7842 7.7754h-7.4316c-6.8108 0-7.7842-0.97095-7.7842-7.7754v-5.4489c0-6.8045 0.97337-7.7754 7.7842-7.7754z" fill="#325fd1"/>
  </clipPath>
  <linearGradient id="linearGradient8590-3-3" x1="96" x2="96" y1="4" y2="188" gradientTransform="matrix(.11957 0 0 .11957 .52176 .52174)" gradientUnits="userSpaceOnUse">
   <stop stop-color="#fff" offset="0"/>
   <stop stop-color="#fff" stop-opacity=".098039" offset=".125"/>
   <stop stop-color="#fff" stop-opacity=".098039" offset=".925"/>
   <stop stop-color="#fff" stop-opacity=".49804" offset="1"/>
  </linearGradient>
  <linearGradient id="linearGradient1230" x1="344" x2="366" y1="94" y2="94" gradientTransform="matrix(.52381 0 0 .52381 -178.95 -56.238)" gradientUnits="userSpaceOnUse" xlink:href="#linearGradient1212"/>
  <linearGradient id="linearGradient1212">
   <stop stop-color="#fff" offset="0"/>
   <stop stop-color="#fff" stop-opacity="0" offset="1"/>
  </linearGradient>
  <linearGradient id="linearGradient1230-2" x1="344" x2="366" y1="94" y2="94" gradientTransform="matrix(.52381 0 0 .52381 -.95238 -366.24)" gradientUnits="userSpaceOnUse" xlink:href="#linearGradient1212"/>
 </defs>
 <ellipse transform="scale(-1)" cx="-12" cy="-12.523" rx="12" ry="11.477" enable-background="new" opacity=".1"/>
 <ellipse cx="12" cy="12" rx="11.5" ry="11.5" enable-background="new" fill="url(#linearGradient8588-0-1)"/>
 <path transform="matrix(1.0952 0 0 1.1213 -351.62 -212.53)" d="m329.55 189.98-1.3125 1.5 1.125 1.125v1.1758l1.3125 1.4492h0.75v-0.75l1.125-1.125v-0.75l0.75-0.75v-1.125l-0.75-0.75zm-2.625 0.83789a10.5 10.5 0 0 0-1.5449 1.0371h1.5449zm-2.3692 1.7871a10.5 10.5 0 0 0-0.0684 0.0742v1.0508h-0.89454a10.5 10.5 0 0 0-2.0898 6.2656 10.5 10.5 0 0 0 0.0234 0.71094l0.52344 0.52344h1.125l1.875 1.875v-2.25l1.125-1.125h0.75l1.125-1.125h1.125l-0.5625-0.5625 1.125-1.3125-1.125-1.125h-1.6875v1.5h-0.75l-0.75-0.75v-0.75l1.125-1.125h0.9375v-0.75l-1.125-1.125zm12.869 0.75-1.125 1.125v0.9375h1.125v-0.5625h0.75v0.75l-0.375 0.375-1.5 0.0254-0.5625 0.53711h-0.75v0.75l-0.5625 0.5625v1.125h1.125l0.75-0.75h0.75v0.375l0.75 0.75h0.375v-0.375l-0.75-0.75h0.75l0.75 0.75h0.9375l-0.5625-0.5625 0.5625-0.5625h0.5625l0.5625 0.5625h-0.5625l-0.5625 0.5625 0.55273 0.55273 0.01 0.57227h-0.75l2.25 2.25h0.29882a10.5 10.5 0 0 0 0.27907-2.3594 10.5 10.5 0 0 0-1.9277-6.041l-0.15039 0.1504-0.75-0.75zm2.25 6.75h-2.25l-0.375-0.375h-2.25l-1.3125 1.3125v1.875l0.9375 0.9375h1.3125l0.5625 0.5625v0.5625l0.375 0.375v2.25l1.0957 1.1582a10.5 10.5 0 0 0 2.6738-2.543l-0.0195-1.6152 1.6445-1.6445a10.5 10.5 0 0 0 0.0586-0.23046h-0.57812l-1.875-1.875zm-7.3125-5.25v0.5625h1.125l-0.5625-0.5625zm3.375 0.1875-0.5625 0.5625v0.5625h0.5625zm-5.8125 2.0625-0.5625 0.5625h0.5625l0.1875 0.1875h0.1875l0.1875-0.1875zm-3.1875 3.9375-0.5625 0.5625h1.125v-0.5625zm-0.5625 1.6875-0.75 0.75v1.875l1.5058 1.3184-6e-3 1.6816-0.51368 0.51367a10.5 10.5 0 0 0 1.8125 0.91211l1.1387-1.0508v-0.75l1.125-1.125v-0.5625l0.5625-0.5625v-1.5l-0.75-0.75h-1.5l-0.75-0.75z" clip-path="url(#clipPath1231-1)" color="#000000" fill="#fff" opacity=".24"/>
 <path d="m6.8618 1.203a11.5 11.774 0 0 0-0.56901 0.32194c-0.13346 2.2901-0.15801 4.5424-0.0109 6.7082-1.387-0.88109-2.7252-1.7945-4.0344-2.7135a11.5 11.774 0 0 0-0.28664 0.47962c1.2735 0.89445 2.5766 1.7858 3.9274 2.6478-1.8648 0.71196-3.655 1.6056-5.3714 2.7179a11.5 11.774 0 0 0-0.0169 0.36574 11.5 11.774 0 0 0 0.0109 0.31537c1.8532-1.2376 3.7963-2.2174 5.8356-2.9741 0.12658 1.4296 0.31927 2.8244 0.60537 4.1633 0.31164 1.4583 0.73966 2.847 1.2706 4.1677-0.78261 0.26556-1.5656 0.47739-2.3231 0.63731-1.2271 0.25909-2.3386 0.36341-3.3306 0.40516a11.5 11.774 0 0 0 0.37863 0.54095c0.93721-0.0568 1.9497-0.1613 3.0632-0.3964 0.78912-0.16661 1.6069-0.3864 2.4258-0.66578 0.90196 2.0857 2.1059 3.9684 3.6772 5.5759a11.5 11.774 0 0 0 0.76366-0.0329c-1.6966-1.6238-2.9843-3.5581-3.9296-5.7358 2.2846-0.85234 4.5365-2.1981 6.2206-4.2597 2.4831 0.95276 5.0645 1.6475 7.7415 1.9557a11.5 11.774 0 0 0 0.1583-0.54533c-5.7362-0.63832-11.053-3.1146-15.904-6.1015 3.0853-1.0494 6.3849-1.6332 9.8635-1.9798-0.49314 2.0328-1.182 4.0007-2.0386 5.8781l0.49627 0.23653c0.89759-1.9673 1.6131-4.037 2.1177-6.1782 1.5191-0.13872 3.0828-0.22679 4.6697-0.29567a11.5 11.774 0 0 0-0.30376-0.55408c-1.4353 0.0647-2.852 0.14883-4.2355 0.27157 0.2986-1.3868 0.50189-2.8048 0.59895-4.2465a11.5 11.774 0 0 0-0.53692-0.33727c-0.089 1.5799-0.30134 3.1323-0.63747 4.6473-3.6336 0.35191-7.0864 0.95855-10.319 2.0762-0.1607-2.2801-0.13041-4.6645 0.0235-7.0958zm0.0514 8.0835c2.4473 1.5061 5.0067 2.8982 7.7009 3.9793-1.5968 1.8821-3.7148 3.1413-5.8783 3.9465-0.52114-1.2936-0.9416-2.6579-1.2492-4.0976-0.26313-1.2313-0.44796-2.512-0.57329-3.8282z" color="#000000" color-rendering="auto" dominant-baseline="auto" fill="#fff" fill-rule="evenodd" image-rendering="auto" opacity=".5" shape-rendering="auto" solid-color="#000000" style="font-feature-settings:normal;font-variant-alternates:normal;font-variant-caps:normal;font-variant-ligatures:normal;font-variant-numeric:normal;font-variant-position:normal;isolation:auto;mix-blend-mode:normal;shape-padding:0;text-decoration-color:#000000;text-decoration-line:none;text-decoration-style:solid;text-indent:0;text-orientation:mixed;text-transform:none;white-space:normal"/>
 <ellipse cx="6.3259" cy="8.7985" rx="1.2977" ry="1.327" enable-background="new" fill="#fff"/>
 <ellipse cx="8.9192" cy="17.596" rx="1.2977" ry="1.327" enable-background="new" fill="#fff"/>
 <ellipse cx="17.571" cy="6.9802" rx="1.2977" ry="1.327" enable-background="new" fill="#fff"/>
 <ellipse cx="14.975" cy="13.173" rx="1.2977" ry="1.327" enable-background="new" fill="#fff"/>
 <ellipse cx="12" cy="11.977" rx="11.455" ry="11.477" enable-background="new" fill="none" opacity=".4" stroke="#000" stroke-dashoffset="6.6" stroke-linejoin="round"/>
 <path d="m12 1c-6.0751 0-11 4.9249-11 11 0 6.0751 4.9249 11 11 11 6.0751 0 11-4.9249 11-11 0-6.0751-4.9249-11-11-11zm0 1a10 10 0 0 1 10 10 10 10 0 0 1-10 10 10 10 0 0 1-10-10 10 10 0 0 1 10-10z" enable-background="new" fill="url(#linearGradient8590-3-3)"/>
 <circle transform="rotate(90)" cx="17" cy="-17" r="5.5" enable-background="new" fill="none" opacity=".3" stroke="url(#linearGradient1230)" stroke-dashoffset="1" stroke-linecap="round" stroke-linejoin="round" stroke-opacity=".4"/>
 <g transform="translate(-310,-178)" enable-background="new">
  <ellipse cx="327" cy="195" rx="6.5" ry="6.5" fill="#5d5d5d" stroke="#000" stroke-dashoffset="1" stroke-linecap="round" stroke-linejoin="round" stroke-opacity=".4"/>
  <circle transform="rotate(90)" cx="195" cy="-327" r="5.5" fill="none" opacity=".3" stroke="url(#linearGradient1230-2)" stroke-dashoffset="1" stroke-linecap="round" stroke-linejoin="round" stroke-opacity=".4"/>
  <g transform="matrix(.5 0 0 .50122 154.99 155.91)" enable-background="new" fill="#e6e6e6" stroke-width="1.2485">
   <path d="m345.33 70-2.6322 1.86e-4v1.7464c0.86819-0.1783 1.764-0.1766 2.6322 0.0053v-1.7514zm-5.3858 1.1906-2.0054 1.7049 0.98801 1.1776c0.54939-0.69591 1.236-1.2714 2.0174-1.6908zm8.1287 0.01271-0.99285 1.1835c0.0573 0.02933 0.11416 0.05947 0.17056 0.0905 0.71061 0.41285 1.3366 0.95679 1.8446 1.6029l1.0051-1.1977zm-11.61 4.2168-0.44056 2.5954 1.5154 0.2674c-0.0273-0.8866 0.12755-1.769 0.45509-2.5927zm15.086 0.0027-1.5228 0.26852c0.33 0.82317 0.4878 1.705 0.46366 2.5909l1.5329-0.26971zm-13.682 4.6946-1.3515 0.78058h-4.5e-4l1.331 2.271 1.3381-0.77238c-0.59006-0.66204-1.0384-1.4377-1.3172-2.2792zm12.301 0.0027c-0.13616 0.42225-0.31536 0.82932-0.53478 1.2148-0.22083 0.38188-0.48014 0.74014-0.77388 1.0692l1.3388 0.77313 1.3016-2.2881zm-9.5569 3.4716-0.53479 1.4688 2.4795 0.88448 0.52585-1.4453c-0.81119-0.11877-1.5928-0.39022-2.3034-0.79996-0.0563-0.03511-0.11203-0.07111-0.16721-0.10799zm6.8133 0.01529c-0.75448 0.46543-1.5968 0.77092-2.4747 0.89752l0.5303 1.4565 2.4676-0.91652z" color="#000000" enable-background="accumulate"/>
   <path d="m344 71.726a6.2745 6.2745 0 0 0-6.2743 6.2743 6.2745 6.2745 0 0 0 6.2743 6.2743 6.2745 6.2745 0 0 0 6.2743-6.2743 6.2745 6.2745 0 0 0-6.2743-6.2743zm0 0.83637a5.4379 5.4379 0 0 1 5.4379 5.4379 5.4379 5.4379 0 0 1-5.4379 5.4379 5.4379 5.4379 0 0 1-5.4379-5.4379 5.4379 5.4379 0 0 1 5.4379-5.4379z" enable-background="new" stroke="#e6e6e6" stroke-linecap="round" stroke-linejoin="round" stroke-width=".9792"/>
  </g>
 </g>
</svg>
