<?xml version="1.0" encoding="UTF-8" standalone="no"?>
<!-- Created with Inkscape (http://www.inkscape.org/) -->

<svg
   width="32"
   height="32"
   viewBox="0 0 8.4666665 8.4666669"
   version="1.1"
   id="svg2719"
   inkscape:version="1.1.2 (0a00cf5339, 2022-02-04, custom)"
   sodipodi:docname="gnome-power-statistics.svg"
   xmlns:inkscape="http://www.inkscape.org/namespaces/inkscape"
   xmlns:sodipodi="http://sodipodi.sourceforge.net/DTD/sodipodi-0.dtd"
   xmlns:xlink="http://www.w3.org/1999/xlink"
   xmlns="http://www.w3.org/2000/svg"
   xmlns:svg="http://www.w3.org/2000/svg">
  <sodipodi:namedview
     id="namedview2721"
     pagecolor="#ffffff"
     bordercolor="#666666"
     borderopacity="1.0"
     inkscape:pageshadow="2"
     inkscape:pageopacity="0.0"
     inkscape:pagecheckerboard="0"
     inkscape:document-units="px"
     showgrid="false"
     units="px"
     inkscape:zoom="24.8125"
     inkscape:cx="16.020151"
     inkscape:cy="15.979849"
     inkscape:window-width="1920"
     inkscape:window-height="1006"
     inkscape:window-x="0"
     inkscape:window-y="0"
     inkscape:window-maximized="1"
     inkscape:current-layer="svg2719" />
  <defs
     id="defs2716">
    <linearGradient
       inkscape:collect="always"
       id="linearGradient1871">
      <stop
         style="stop-color:#ffffff;stop-opacity:1;"
         offset="0"
         id="stop1867" />
      <stop
         style="stop-color:#ffffff;stop-opacity:0.1"
         offset="0.12"
         id="stop2515" />
      <stop
         style="stop-color:#ffffff;stop-opacity:0.102"
         offset="0.89999998"
         id="stop2581" />
      <stop
         style="stop-color:#ffffff;stop-opacity:0.502"
         offset="1"
         id="stop1869" />
    </linearGradient>
    <linearGradient
       inkscape:collect="always"
       xlink:href="#linearGradient1871"
       id="linearGradient867"
       x1="4.6278176"
       y1="11.864628"
       x2="4.6278176"
       y2="18.214628"
       gradientUnits="userSpaceOnUse"
       gradientTransform="translate(-2.5695447,-10.806133)" />
    <linearGradient
       inkscape:collect="always"
       id="linearGradient2290">
      <stop
         style="stop-color:#f5f5f5;stop-opacity:1"
         offset="0"
         id="stop2286" />
      <stop
         style="stop-color:#e8e8e8;stop-opacity:1"
         offset="1"
         id="stop2288" />
    </linearGradient>
    <linearGradient
       inkscape:collect="always"
       xlink:href="#linearGradient2290"
       id="linearGradient1057"
       x1="5.6885076"
       y1="7.4083557"
       x2="2.7780907"
       y2="1.0583555"
       gradientUnits="userSpaceOnUse" />
  </defs>
  <path
     d="M 1.9202958,1.05855 C 1.6045987,1.0609 1.3485526,1.07831 1.1358477,1.123146 0.89262153,1.174426 0.70081823,1.2657609 0.56430643,1.4171849 0.29128553,1.7200319 0.26458333,2.1898658 0.26458333,2.9302708 v 3.1357255 c 0,0.7402219 0.026633,1.2081701 0.2997231,1.5099851 0.1365462,0.150908 0.3285086,0.242385 0.57154127,0.2940388 0.2430331,0.05166 0.5426192,0.067696 0.9234578,0.067696 h 2.1740276 2.1740275 c 0.3808389,0 0.6804247,-0.016026 0.9234577,-0.067696 C 7.5738514,7.8183702 7.7658137,7.7268891 7.9023596,7.5759811 8.1754496,7.2741661 8.2020831,6.8062179 8.2020831,6.065996 V 2.9302703 c 0,-0.740405 -0.026701,-1.2102409 -0.2997235,-1.5130859 C 7.7658486,1.2657604 7.5740443,1.1744215 7.3308183,1.1231455 7.0877263,1.0718956 6.7880116,1.05662 6.4073606,1.05855 H 4.2333331 2.0598222 2.0592931 c -0.047581,-2.375e-4 -0.09391,-3.36e-4 -0.1390097,0 z"
     style="color:#000000;display:inline;overflow:visible;visibility:visible;fill:#000000;fill-opacity:1;fill-rule:nonzero;stroke:none;stroke-width:0.264583;marker:none;enable-background:accumulate;opacity:0.1"
     id="path1438" />
  <path
     d="m 8.0697573,2.6657202 c 0,-1.471547 -0.154541,-1.74722903 -1.662184,-1.73949503 H 4.23332 2.0590245 C 0.55138113,0.91842517 0.39684063,1.1941732 0.39684063,2.6657202 v 3.135429 c 0,1.471181 0.1545246,1.739495 1.66218387,1.739495 H 4.23332 6.4075733 c 1.507659,0 1.662184,-0.268314 1.662184,-1.739495 z"
     style="color:#000000;display:inline;overflow:visible;visibility:visible;fill:url(#linearGradient1057);fill-opacity:1;fill-rule:nonzero;stroke:none;stroke-width:0.264583;marker:none;enable-background:accumulate"
     id="path908" />
  <path
     style="color:#000000;opacity:0.5;fill:#1a7fd4;stroke-width:0.264583;-inkscape-stroke:none"
     d="m 5.8869792,1.8520834 c -0.1564553,0 -0.2853442,0.1015912 -0.3679362,0.2315104 C 5.4364509,2.213513 5.3806765,2.3791136 5.3335245,2.5719361 5.2392207,2.9575813 5.1844919,3.4543357 5.1180338,3.9475627 5.0515758,4.4407896 4.9728522,4.9302037 4.8446656,5.2813315 4.7805721,5.4568955 4.7038842,5.596633 4.6203899,5.6849242 4.5368956,5.7732157 4.4543546,5.8135988 4.3423705,5.8135988 H 3.885551 3.5703248 C 3.475165,5.8055142 3.4061879,5.7664844 3.3367472,5.6864747 3.2670049,5.6061176 3.2036523,5.4824862 3.1501953,5.3283569 3.0432817,5.0200983 2.9752139,4.5959511 2.8964642,4.1692546 2.8177141,3.7425582 2.7292372,3.3124587 2.5595337,2.9734621 2.3899843,2.634773 2.1103174,2.3781875 1.7073894,2.3807333 H 0.39687501 v 0.2645833 h 1.31103109 5.16e-4 c 0.298169,-0.00222 0.4691253,0.1562208 0.6144327,0.4464844 0.1453075,0.2902635 0.2357728,0.7034035 0.313676,1.1255128 0.077903,0.4221091 0.1438498,0.8527344 0.2635499,1.1978595 0.05985,0.1725626 0.1328135,0.3252613 0.236678,0.4449342 0.1038646,0.1196729 0.2462538,0.203908 0.4128948,0.2175576 l 0.00517,5.292e-4 h 0.3307291 0.4568196 c 0.1854075,0 0.348884,-0.083529 0.4702555,-0.2118736 C 4.9339966,5.7379764 5.021743,5.5681057 5.0932281,5.3722941 5.2361986,4.9806711 5.3130513,4.4798223 5.3800322,3.9827149 5.4470133,3.4856076 5.5030304,2.9920993 5.5903553,2.6349935 5.6340193,2.4564285 5.6871583,2.3124205 5.7422851,2.225704 5.7974121,2.138988 5.8355711,2.1166668 5.8869792,2.1166668 c 0.062869,0 0.1088543,0.020568 0.1622639,0.07183 0.05341,0.051262 0.1077447,0.136054 0.1555461,0.2449463 0.095603,0.2177846 0.1661404,0.5277434 0.2268596,0.8418091 0.060719,0.3140655 0.1121937,0.6316316 0.1834512,0.8815999 0.035629,0.1249841 0.0748,0.23348 0.1322917,0.3224609 0.057491,0.088981 0.1514951,0.168982 0.2697509,0.168982 0.08439,0 0.1642388,-0.03481 0.2211753,-0.085783 0.056936,-0.050973 0.095368,-0.1140965 0.1260903,-0.181384 0.061446,-0.1345751 0.094686,-0.2923136 0.1276409,-0.444934 0.032954,-0.1526206 0.065612,-0.3004764 0.1049033,-0.3953248 0.019645,-0.047424 0.040806,-0.079681 0.055294,-0.094051 0.014488,-0.01437 0.014946,-0.013952 0.027389,-0.013952 H 8.0697916 V 3.1682833 H 7.6796347 c -0.082802,0 -0.1608857,0.038319 -0.2134238,0.090434 C 7.4136729,3.3108323 7.3800919,3.3735507 7.3525226,3.4401017 7.2973846,3.5732029 7.2663396,3.7290719 7.233667,3.8803847 7.200995,4.0316975 7.16623,4.1782005 7.1235961,4.2715754 c -0.021318,0.046687 -0.044168,0.078539 -0.061495,0.094051 -0.017328,0.015512 -0.024455,0.018087 -0.044958,0.018087 -0.00537,0 -0.015576,0.00143 -0.047542,-0.048059 C 6.9376332,4.2861761 6.9018983,4.1968769 6.8698649,4.0845052 6.8057982,3.859762 6.7532319,3.5440096 6.6915813,3.2251263 6.6299307,2.9062428 6.5599376,2.5839168 6.4471515,2.3269898 6.3907588,2.1985263 6.3235416,2.085006 6.2326946,1.997811 6.1418472,1.910616 6.0208006,1.8520834 5.8869792,1.8520834 Z"
     id="path25" />
  <path
     style="color:#000000;fill:#da1636;stroke-width:0.264583;-inkscape-stroke:none"
     d="m 4.1242962,2.5972576 c -0.1813838,0 -0.3420756,0.07225 -0.4645713,0.1875854 C 3.5372294,2.9001789 3.4477487,3.0546098 3.3755047,3.2308107 3.2310163,3.5832121 3.1536804,4.0305704 3.0866334,4.4736287 3.0195864,4.9166872 2.9633357,5.3554622 2.876827,5.670455 2.8335727,5.8279514 2.7818395,5.9538867 2.7285157,6.0285727 c -0.053324,0.074686 -0.091664,0.096118 -0.1488282,0.096118 -0.066671,0 -0.1153052,-0.020518 -0.1679484,-0.065629 C 2.359096,6.0139497 2.3068349,5.9407633 2.2598104,5.8451212 2.1657615,5.6538375 2.0951097,5.3782936 2.0345012,5.098397 1.9738926,4.8185001 1.9225792,4.5349472 1.8505331,4.3092978 1.81451,4.1964731 1.7742349,4.0974354 1.7151408,4.0157757 1.6560468,3.9341157 1.561731,3.8638469 1.449524,3.8638469 c -0.082387,0 -0.1607664,0.032011 -0.2180746,0.080098 -0.057308,0.048088 -0.096453,0.1085793 -0.1276408,0.1725997 -0.062374,0.1280412 -0.095702,0.2764864 -0.12867438,0.4196128 -0.032972,0.1431261 -0.065407,0.2809115 -0.1038696,0.3679362 -0.019231,0.043512 -0.039805,0.072824 -0.053743,0.085783 -0.013938,0.012959 -0.015841,0.013435 -0.030489,0.013435 H 0.39687501 v 0.2645835 h 0.39015701 c 0.080595,0 0.1577526,-0.034876 0.2108399,-0.084233 C 1.0509589,5.1343051 1.0851269,5.0743767 1.1131104,5.0110627 1.1690764,4.884435 1.2003454,4.7373283 1.2329997,4.5955843 1.2656537,4.4538404 1.2998157,4.3179105 1.3415202,4.232299 c 0.020853,-0.042806 0.042989,-0.071556 0.059945,-0.085783 0.016955,-0.014227 0.025552,-0.018087 0.048059,-0.018087 0.011419,0 0.020795,4.234e-4 0.05116,0.042375 0.030364,0.041959 0.066029,0.1200143 0.097669,0.2191081 0.063278,0.198188 0.1160058,0.4795917 0.1777669,0.7648112 0.061761,0.2852195 0.1316398,0.5746324 0.2459798,0.8071858 0.05717,0.116277 0.1259441,0.2196658 0.2175578,0.2981732 0.091614,0.078507 0.2100113,0.1291911 0.3400309,0.1291911 0.1506985,0 0.2799234,-0.089017 0.3643188,-0.2072225 C 3.0284021,6.0638454 3.0845485,5.9139087 3.1321087,5.7407341 3.2272288,5.394385 3.2822407,4.9516328 3.3486328,4.5129021 3.415025,4.0741713 3.4937819,3.6400025 3.6204509,3.3310621 3.6837853,3.176592 3.7587391,3.0551509 3.8411092,2.9775954 3.9234793,2.9000397 4.0082883,2.8618402 4.1242962,2.8618402 h 0.3245278 0.3296957 0.00517 c 0.1976665,-0.014227 0.3063979,0.063676 0.4092774,0.2206583 0.1028795,0.156982 0.17561,0.3947231 0.2309937,0.6418212 0.055384,0.2470983 0.094741,0.5017823 0.1524455,0.7069336 0.028852,0.1025757 0.061052,0.1934088 0.1126545,0.2707846 C 5.7406638,4.7794129 5.829485,4.8493 5.9360742,4.850866 6.0713118,4.852846 6.1773808,4.824495 6.2554345,4.769734 6.3334885,4.714974 6.3742068,4.6427655 6.4021957,4.5914504 c 0.027989,-0.051315 0.045704,-0.081927 0.063562,-0.097152 0.017857,-0.015224 0.040649,-0.029456 0.1198893,-0.029456 0.00937,0 0.01823,8.996e-4 0.043925,0.028422 0.025694,0.027523 0.058215,0.079729 0.088883,0.1488281 0.061337,0.138198 0.1173084,0.3396951 0.1715659,0.5441529 0.054257,0.2044579 0.1069615,0.4119034 0.1762165,0.5798095 0.034628,0.083953 0.072804,0.1586979 0.1260906,0.2211753 0.053286,0.062477 0.1333482,0.1167887 0.2284098,0.1167887 H 8.0697916 V 5.8394361 h -0.649056 c -1.883e-4,0 -0.00421,0.00341 -0.027389,-0.02377 -0.02318,-0.027178 -0.0534,-0.080637 -0.082166,-0.1503784 C 7.2536502,5.5258046 7.2003232,5.3234288 7.1458169,5.1180341 7.0913109,4.9126396 7.035392,4.7043154 6.9602987,4.5351239 6.922752,4.4505284 6.8808441,4.3745311 6.8228392,4.3123985 6.7648346,4.2502661 6.6811668,4.2002606 6.5856445,4.2002606 c -0.1222523,0 -0.2231194,0.034757 -0.2914552,0.093018 -0.068335,0.05826 -0.099399,0.1254712 -0.1245402,0.1715656 -0.025141,0.046095 -0.041896,0.070837 -0.066146,0.08785 -0.024249,0.017013 -0.065339,0.035033 -0.1638141,0.03359 -0.00551,-8.1e-5 -0.00657,0.00485 -0.030489,-0.031006 C 5.8852869,4.5194198 5.8563928,4.4491023 5.8311685,4.3594242 5.7807201,4.1800676 5.7396719,3.9245365 5.6818236,3.6664431 5.6239756,3.4083495 5.5506922,3.1456516 5.4141399,2.9372885 5.2775874,2.7289252 5.0536541,2.5769693 4.7645669,2.5977743 l 0.0093,-5.159e-4 H 4.4488248 Z"
     id="path27" />
  <path
     d="m 2.0582599,1.0584922 c -0.3728694,-0.0019 -0.6578733,0.01469 -0.8676481,0.05891 -0.20977492,0.04422 -0.33936792,0.111913 -0.42994802,0.212389 -0.18116015,0.200951 -0.23151035,0.604694 -0.23151035,1.335836 v 3.135725 c 0,0.730959 0.050424,1.132599 0.23151035,1.332735 0.090543,0.100068 0.2199773,0.167765 0.42994802,0.212389 0.2099706,0.04463 0.4956889,0.06201 0.8686799,0.06201 H 4.23332 6.4073484 c 0.372991,0 0.6587093,-0.01738 0.8686799,-0.06201 0.209971,-0.04462 0.339405,-0.112321 0.429948,-0.212389 0.181086,-0.200136 0.23151,-0.601776 0.23151,-1.332735 v -3.135725 c 0,-0.731142 -0.05035,-1.134888 -0.23151,-1.335836 -0.09058,-0.10047 -0.220173,-0.168164 -0.429948,-0.212386 -0.2097748,-0.04423 -0.4947787,-0.06076 -0.8676481,-0.05891 H 6.4078511 4.23332 2.0587758 Z m 1.6820673,0.275953 c 0.7202514,-7.94e-4 1.440352,-5.29e-4 2.1605901,0.0041 0.4519639,0.02 0.9180936,-0.03309 1.3652924,0.06563 0.2361456,0.03078 0.3461546,0.2739 0.3560496,0.486791 0.03456,1.320914 0.0094,2.64699 0.01707,3.970819 -0.0172,0.357251 0.0675,0.747702 -0.133842,1.067634 -0.1683759,0.181321 -0.4509138,0.153966 -0.6769633,0.186552 -1.4090253,0.03524 -2.8201249,0.01918 -4.2312642,0.01704 -0.4972976,-0.02286 -1.0181537,0.04429 -1.5022354,-0.107487 -0.24265202,-0.09412 -0.23905892,-0.405646 -0.26096642,-0.623215 -0.036478,-1.23431 -0.00751,-2.476659 -0.00672,-3.712954 0.019288,-0.331136 -0.027943,-0.673301 0.056846,-0.996838 0.048678,-0.24098 0.31437522,-0.307018 0.52348072,-0.327629 0.7773194,-0.04229 1.5535487,-0.02109 2.3326752,-0.03049 z"
     style="color:#000000;display:inline;overflow:visible;visibility:visible;fill:url(#linearGradient867);fill-opacity:1;fill-rule:nonzero;stroke:none;stroke-width:0.264583;marker:none;enable-background:accumulate;opacity:0.7"
     id="path1034" />
  <path
     d="m 2.059305,0.79390917 c -0.3806508,-0.0019 -0.6803655,0.01336 -0.9234567,0.0646 -0.24322622,0.05128 -0.43503057,0.14261503 -0.57154227,0.29403903 -0.2730209,0.302847 -0.2997227,0.772681 -0.2997227,1.513086 v 3.135725 c 0,0.740222 0.026633,1.20817 0.2997227,1.509985 0.1365461,0.150908 0.32850925,0.242385 0.57154227,0.294039 0.243033,0.05166 0.5426181,0.0677 0.9234567,0.0677 h 2.1740283 2.1740283 c 0.3808386,0 0.6804236,-0.01603 0.9234567,-0.0677 0.243033,-0.05165 0.434996,-0.143131 0.571542,-0.294039 0.27309,-0.301815 0.299723,-0.769763 0.299723,-1.509985 v -3.135725 c 0,-0.740405 -0.0267,-1.210241 -0.299723,-1.513086 -0.136511,-0.151424 -0.328316,-0.24276303 -0.571542,-0.29403903 -0.2430913,-0.05125 -0.542806,-0.06653 -0.9234567,-0.0646 H 4.2333333 2.0598236 Z M 2.058245,1.0584922 h 5.292e-4 2.1745442 2.1745443 5.292e-4 c 0.3728693,-0.0019 0.6578732,0.01469 0.8676481,0.05891 0.2097743,0.04422 0.3393673,0.111916 0.4299473,0.212389 0.18116,0.200948 0.231511,0.604694 0.231511,1.335836 v 3.135725 c 0,0.730959 -0.05043,1.132599 -0.231511,1.332735 -0.09054,0.100068 -0.21998,0.167762 -0.4299473,0.212389 -0.2099681,0.04463 -0.4956916,0.06201 -0.86868,0.06201 H 4.2333333 2.059305 c -0.3729884,0 -0.658712,-0.01738 -0.86868,-0.06201 C 0.98065688,7.3018522 0.85122008,7.2341582 0.76067708,7.1340902 0.57959093,6.9339542 0.52916673,6.5323142 0.52916673,5.8013552 v -3.135725 c 0,-0.731142 0.05035,-1.134885 0.23151035,-1.335836 0.09058,-0.100476 0.220173,-0.168167 0.42994792,-0.212389 0.2097749,-0.04423 0.4947814,-0.06083 0.8676481,-0.05891 z"
     style="color:#000000;display:inline;opacity:0.4;fill:#000000;stroke-width:0.264583;-inkscape-stroke:none;enable-background:new"
     id="path1156" />
</svg>
