<?xml version="1.0" encoding="UTF-8" standalone="no"?>
<!-- Created with Inkscape (http://www.inkscape.org/) -->

<svg
   width="32"
   height="32"
   viewBox="0 0 8.4666667 8.4666667"
   version="1.1"
   id="svg5"
   sodipodi:docname="gnupg.svg"
   inkscape:version="1.1.2 (0a00cf5339, 2022-02-04)"
   xmlns:inkscape="http://www.inkscape.org/namespaces/inkscape"
   xmlns:sodipodi="http://sodipodi.sourceforge.net/DTD/sodipodi-0.dtd"
   xmlns:xlink="http://www.w3.org/1999/xlink"
   xmlns="http://www.w3.org/2000/svg"
   xmlns:svg="http://www.w3.org/2000/svg">
  <sodipodi:namedview
     id="namedview7"
     pagecolor="#ffffff"
     bordercolor="#666666"
     borderopacity="1.0"
     inkscape:pageshadow="2"
     inkscape:pageopacity="0.0"
     inkscape:pagecheckerboard="0"
     inkscape:document-units="px"
     showgrid="false"
     units="px"
     height="48px"
     showguides="false"
     inkscape:zoom="11.578874"
     inkscape:cx="12.954628"
     inkscape:cy="34.416127"
     inkscape:window-width="1920"
     inkscape:window-height="1012"
     inkscape:window-x="0"
     inkscape:window-y="0"
     inkscape:window-maximized="1"
     inkscape:current-layer="svg5" />
  <defs
     id="defs2">
    <linearGradient
       inkscape:collect="always"
       id="linearGradient1544">
      <stop
         style="stop-color:#80a3fa;stop-opacity:1"
         offset="0"
         id="stop1540" />
      <stop
         style="stop-color:#5884f4;stop-opacity:1"
         offset="1"
         id="stop1542" />
    </linearGradient>
    <linearGradient
       inkscape:collect="always"
       id="linearGradient1871">
      <stop
         style="stop-color:#ffffff;stop-opacity:1;"
         offset="0"
         id="stop1867" />
      <stop
         style="stop-color:#ffffff;stop-opacity:0.1"
         offset="0.12"
         id="stop2515" />
      <stop
         style="stop-color:#ffffff;stop-opacity:0.102"
         offset="0.89999998"
         id="stop2581" />
      <stop
         style="stop-color:#ffffff;stop-opacity:0.502"
         offset="1"
         id="stop1869" />
    </linearGradient>
    <linearGradient
       inkscape:collect="always"
       xlink:href="#linearGradient1871"
       id="linearGradient1198"
       x1="6.3499999"
       y1="0.52916658"
       x2="6.3499994"
       y2="12.170834"
       gradientUnits="userSpaceOnUse"
       gradientTransform="matrix(2.405154,0,0,2.405154,0.72727268,0.72727268)" />
    <linearGradient
       inkscape:collect="always"
       xlink:href="#linearGradient1544"
       id="linearGradient2016"
       x1="9.921875"
       y1="11.1125"
       x2="2.7781253"
       y2="1.5874999"
       gradientUnits="userSpaceOnUse"
       gradientTransform="matrix(0.64444444,0,0,0.64444444,0.14111151,0.14111151)" />
  </defs>
  <circle
     style="opacity:0.1;fill:#000000;fill-opacity:1;stroke-width:0.345109;stroke-linecap:round;stroke-linejoin:round"
     id="path3625"
     cx="4.2333331"
     cy="4.4979167"
     r="3.96875" />
  <circle
     style="fill:url(#linearGradient2016);fill-opacity:1.0;stroke-width:0.341019;stroke-linecap:round;stroke-linejoin:round"
     id="path986"
     cx="4.2333336"
     cy="4.2333336"
     r="3.8364584" />
  <path
     id="rect1033"
     style="opacity:0.05;fill:#ffffff;stroke-width:0.341019;stroke-linecap:round;stroke-linejoin:round"
     d="M 0.92805127,2.287463 A 3.8364583,3.8364583 0 0 0 0.39687496,4.2333332 3.8364583,3.8364583 0 0 0 4.2333332,8.0697915 3.8364583,3.8364583 0 0 0 7.5512702,6.158889 Z" />
  <path
     id="path22"
     style="opacity:0.1;fill:#000000;stroke-width:0.264583"
     d="m 4.2333333,2.1166666 c -0.7306069,0 -1.3229166,0.5923099 -1.3229166,1.3229167 V 4.2333332 H 2.38125 V 6.8791665 H 6.0854166 V 4.2333332 H 5.5562499 V 3.4395833 c 0,-0.7306068 -0.5923097,-1.3229167 -1.3229166,-1.3229167 z m 0,0.2645833 c 0.5886042,0 1.0583333,0.469729 1.0583333,1.0583334 V 4.2333332 H 3.175 V 3.4395833 c 0,-0.5886044 0.469729,-1.0583334 1.0583333,-1.0583334 z m 0.2645833,2.5135417 v 1.190625 H 3.96875 V 5.0270832 Z" />
  <path
     id="path28"
     style="fill:#ffffff;fill-opacity:1;stroke-width:0.264583"
     d="m 4.2333333,1.8520833 c -0.7306069,0 -1.3229166,0.5923098 -1.3229166,1.3229166 v 0.79375 H 2.38125 V 6.6145832 H 6.0854166 V 3.9687499 H 5.5562499 v -0.79375 c 0,-0.7306068 -0.5923097,-1.3229166 -1.3229166,-1.3229166 z m 0,0.2645833 c 0.5886042,0 1.0583333,0.469729 1.0583333,1.0583333 v 0.79375 H 3.175 v -0.79375 c 0,-0.5886043 0.469729,-1.0583333 1.0583333,-1.0583333 z m 0.2645833,2.5135416 v 1.190625 H 3.96875 V 4.7624999 Z" />
  <path
     id="path4344"
     style="opacity:0.4;fill:#000000;fill-opacity:1;stroke-width:2;stroke-linecap:round;stroke-linejoin:round"
     d="M 16,1 A 15,15 0 0 0 1,16 15,15 0 0 0 16,31 15,15 0 0 0 31,16 15,15 0 0 0 16,1 Z m 0,1 A 14,14 0 0 1 30,16 14,14 0 0 1 16,30 14,14 0 0 1 2,16 14,14 0 0 1 16,2 Z"
     transform="scale(0.26458333)" />
  <path
     id="path1110"
     style="fill:url(#linearGradient1198);fill-opacity:1;stroke-width:1.27273;stroke-linecap:round;stroke-linejoin:round"
     d="m 16,2 c -7.7319866,-1e-7 -14.0000001,6.2680134 -14,14 2e-7,7.731987 6.2680134,14 14,14 7.731986,0 14,-6.268014 14,-14 C 30,8.2680134 23.731987,2.0000002 16,2 Z m 0,1 A 13,13 0 0 1 29,16 13,13 0 0 1 16,29 13,13 0 0 1 3,16 13,13 0 0 1 16,3 Z"
     transform="scale(0.26458333)" />
</svg>
