<?xml version="1.0" encoding="UTF-8" standalone="no"?>
<!-- Created with Inkscape (http://www.inkscape.org/) -->

<svg
   width="32"
   height="32"
   viewBox="0 0 8.4666665 8.4666669"
   version="1.1"
   id="svg2719"
   inkscape:version="1.1.2 (0a00cf5339, 2022-02-04)"
   sodipodi:docname="goa-account-lastfm.svg"
   xmlns:inkscape="http://www.inkscape.org/namespaces/inkscape"
   xmlns:sodipodi="http://sodipodi.sourceforge.net/DTD/sodipodi-0.dtd"
   xmlns:xlink="http://www.w3.org/1999/xlink"
   xmlns="http://www.w3.org/2000/svg"
   xmlns:svg="http://www.w3.org/2000/svg">
  <sodipodi:namedview
     id="namedview2721"
     pagecolor="#ffffff"
     bordercolor="#666666"
     borderopacity="1.0"
     inkscape:pageshadow="2"
     inkscape:pageopacity="0.0"
     inkscape:pagecheckerboard="0"
     inkscape:document-units="px"
     showgrid="false"
     units="px"
     inkscape:zoom="17.346213"
     inkscape:cx="16.343625"
     inkscape:cy="16.545398"
     inkscape:window-width="1920"
     inkscape:window-height="995"
     inkscape:window-x="0"
     inkscape:window-y="0"
     inkscape:window-maximized="1"
     inkscape:current-layer="svg2719" />
  <defs
     id="defs2716">
    <linearGradient
       inkscape:collect="always"
       id="linearGradient1871">
      <stop
         style="stop-color:#ffffff;stop-opacity:1;"
         offset="0"
         id="stop1867" />
      <stop
         style="stop-color:#ffffff;stop-opacity:0.1"
         offset="0.12"
         id="stop2515" />
      <stop
         style="stop-color:#ffffff;stop-opacity:0.102"
         offset="0.89999998"
         id="stop2581" />
      <stop
         style="stop-color:#ffffff;stop-opacity:0.502"
         offset="1"
         id="stop1869" />
    </linearGradient>
    <linearGradient
       inkscape:collect="always"
       xlink:href="#linearGradient1871"
       id="linearGradient1020"
       x1="4.0024891"
       y1="0.52916664"
       x2="4.0024891"
       y2="7.9374866"
       gradientUnits="userSpaceOnUse" />
  </defs>
  <path
     d="m 2.4608917,0.52916665 c -0.4337817,0 -0.7780919,0.008149 -1.0702528,0.0506439 C 1.0984807,0.62231325 0.84375314,0.70485263 0.65428244,0.86867998 0.46481164,1.0325073 0.36840014,1.2539451 0.31979354,1.5074027 c -0.048615,0.2534576 -0.056983,0.5521986 -0.054856,0.9291399 v 2.061374 2.0629244 c -0.00238,0.376055 0.00632,0.6745552 0.054856,0.9275895 0.048607,0.2534603 0.1450181,0.4748953 0.3344889,0.6387227 0.1894707,0.1638273 0.44419826,0.2463668 0.73635646,0.2888694 0.2921609,0.042505 0.6364711,0.050644 1.0702528,0.050644 h 3.5458506 c 0.4337817,0 0.7774384,-0.00812 1.0690595,-0.050644 C 7.3674229,8.3734909 7.6215684,8.290544 7.8103724,8.1266346 7.9991712,7.9627252 8.0946857,7.7420283 8.1436654,7.4889491 8.192653,7.2358672 8.2021013,6.9375495 8.2021013,6.560841 V 4.4979166 2.4349921 c 0,-0.3767084 -0.00947,-0.6750261 -0.058436,-0.928108 C 8.0946853,1.2538022 7.9991711,1.0331079 7.8103723,0.86919856 7.6215684,0.70528654 7.3674229,0.62234232 7.0758018,0.57981055 6.7841807,0.53727613 6.440524,0.52916665 6.0067423,0.52916665 Z"
     style="color:#000000;font-style:normal;font-variant:normal;font-weight:normal;font-stretch:normal;font-size:medium;line-height:normal;font-family:sans-serif;font-variant-ligatures:normal;font-variant-position:normal;font-variant-caps:normal;font-variant-numeric:normal;font-variant-alternates:normal;font-feature-settings:normal;text-indent:0;text-align:start;text-decoration:none;text-decoration-line:none;text-decoration-style:solid;text-decoration-color:#000000;letter-spacing:normal;word-spacing:normal;text-transform:none;writing-mode:lr-tb;direction:ltr;text-orientation:mixed;dominant-baseline:auto;baseline-shift:baseline;text-anchor:start;white-space:normal;shape-padding:0;clip-rule:nonzero;display:inline;overflow:visible;visibility:visible;opacity:0.1;isolation:auto;mix-blend-mode:normal;color-interpolation:sRGB;color-interpolation-filters:linearRGB;solid-color:#000000;solid-opacity:1;vector-effect:none;fill:#000000;fill-opacity:1;fill-rule:nonzero;stroke:none;stroke-width:0.529167;stroke-linecap:butt;stroke-linejoin:miter;stroke-miterlimit:4;stroke-dasharray:none;stroke-dashoffset:0;stroke-opacity:1;marker:none;color-rendering:auto;image-rendering:auto;shape-rendering:auto;text-rendering:auto;enable-background:accumulate"
     id="path2406" />
  <path
     d="m 2.414886,0.39687499 c -1.70699376,0 -2.02678766,0.15454047 -2.01781566,1.66218391 v 2.1742532 2.1742955 c -0.009,1.5076434 0.3108219,1.6621839 2.01781566,1.6621839 h 3.6370974 c 1.7065704,0 2.0178156,-0.1545246 2.0178156,-1.6621839 V 4.2333121 2.0590589 c 0,-1.50765931 -0.3112452,-1.66218391 -2.0178156,-1.66218391 z"
     style="color:#000000;display:inline;overflow:visible;visibility:visible;fill:#c71818;fill-opacity:1;fill-rule:nonzero;stroke:none;stroke-width:0.264583;marker:none;enable-background:accumulate"
     id="path2526" />
  <path
     d="M 3.1892093,5.5437314 C 3.1045108,5.5320897 2.9538439,5.4823481 2.8533472,5.4332149 2.1985564,5.1145508 1.9307716,4.3119637 2.2532987,3.6359269 2.621731,2.8629467 3.6270418,2.6659115 4.2320115,3.2481271 c 0.1749372,0.1680898 0.2526321,0.3115204 0.5160169,0.9475258 0.2749549,0.6651095 0.3257549,0.7696729 0.4148665,0.8583347 0.095448,0.094324 0.183896,0.126074 0.3531394,0.126074 0.2780506,0 0.476594,-0.1745456 0.476594,-0.4180946 0,-0.2061368 -0.071342,-0.2721504 -0.4352131,-0.4033573 C 5.0032983,4.1555949 4.8237785,3.9721329 4.8231435,3.6036741 c 0,-0.1965589 0.049027,-0.327607 0.1736328,-0.4634176 0.1788451,-0.1939131 0.487336,-0.2579423 0.7603331,-0.1616604 0.1164617,0.042042 0.3601244,0.2610908 0.3601244,0.323797 0,0.030427 -0.1412187,0.1234281 -0.2195671,0.145415 -0.041373,0.010848 -0.077044,-0.00317 -0.1247669,-0.049795 C 5.6761468,3.3037151 5.6106678,3.274585 5.4948491,3.274585 c -0.1998583,0 -0.3238235,0.1221052 -0.3238235,0.3193256 0,0.196559 0.078835,0.2630488 0.4726781,0.3980656 C 6.186417,4.1781106 6.3467016,4.3462004 6.349956,4.7351643 6.353216,5.0712116 6.2041759,5.3135964 5.9077314,5.457027 5.7728654,5.521718 5.7270951,5.529999 5.5068877,5.529999 5.1925362,5.529999 5.0513016,5.4706 4.8750627,5.2689082 4.7566459,5.1332568 4.6364404,4.8786218 4.2515457,3.9491141 4.09192,3.5639602 3.8870028,3.37518 3.5452934,3.300885 3.3721501,3.2633406 3.1310882,3.2982392 2.9738993,3.3822973 2.8206262,3.4637096 2.6494408,3.6473569 2.568637,3.8152879 2.501856,3.9516012 2.495504,3.9898335 2.495504,4.2269266 c 0,0.2261658 0.00896,0.2797704 0.064828,0.40386 0.084698,0.1894417 0.2513277,0.3644635 0.434578,0.4587875 0.132424,0.067839 0.1736329,0.076279 0.3848894,0.076279 0.2029513,0 0.2550742,-0.00979 0.3761052,-0.068501 0.1381257,-0.068501 0.3238236,-0.2365905 0.3995473,-0.3625057 l 0.039418,-0.065352 0.077695,0.1803399 c 0.043328,0.099589 0.078184,0.1932517 0.078184,0.2101057 0,0.049821 -0.1755881,0.2126191 -0.3365235,0.3140339 -0.244324,0.153221 -0.5249596,0.2106092 -0.8246796,0.1692548"
     style="fill:#ffffff;stroke-width:0.264583"
     id="path874" />
  <path
     d="m 2.4149889,0.52915342 c -0.8494844,0 -1.3314997,0.0516308 -1.57093166,0.23771225 -0.1197134,0.0930407 -0.1962574,0.22036087 -0.2470071,0.42787883 -0.050734,0.2075207 -0.06981,0.4912942 -0.067694,0.8635153 v 5.292e-4 2.1745442 2.1745443 5.291e-4 c -0.00212,0.3722211 0.01696,0.6559947 0.067694,0.8635153 0.050747,0.2075154 0.1272937,0.3348382 0.2470071,0.4278789 C 1.0834919,7.8858823 1.5655045,7.9375131 2.4149889,7.9375131 h 3.6369122 c 0.8492728,0 1.329399,-0.051729 1.5678282,-0.2377123 0.1192133,-0.09299 0.1952731,-0.220136 0.2464912,-0.4278789 0.051231,-0.2077772 0.071313,-0.4922123 0.071313,-0.8645736 V 4.23332 2.0592917 c 0,-0.3723613 -0.020082,-0.6567937 -0.071313,-0.8645472 C 7.8150024,0.98700165 7.7389426,0.85985613 7.6197293,0.76686567 7.3813001,0.58088211 6.9011739,0.52915342 6.0519011,0.52915342 Z m 1.7192387,0.276987 c 0.9145058,0.004524 1.8293424,-0.007091 2.741377,0.0242888 0.2172441,0.0351261 0.4779962,0.0392509 0.632505,0.21859078 0.1796071,0.3081681 0.135718,0.6846914 0.149344,1.0247445 0.011404,1.5951544 0.017939,3.1927772 -0.00878,4.7857541 -0.020505,0.2058246 -0.031896,0.44255 -0.1798294,0.6020302 C 7.2829783,7.5965869 7.0406675,7.6194601 6.8182482,7.639833 5.7473895,7.662693 4.6587059,7.651898 3.5797562,7.6558668 2.9310429,7.6506015 2.2796149,7.664254 1.6341771,7.639833 1.4019205,7.6079375 1.1275106,7.6027358 0.95671414,7.4191758 0.78533294,7.1477371 0.82372664,6.8092451 0.80840724,6.5024342 c -0.00926,-1.4964171 -0.00929,-3.0043913 0,-4.5004989 0.016722,-0.3231964 -0.028744,-0.6818947 0.1565751,-0.9663509 C 1.1243885,0.86978329 1.376719,0.86628815 1.5892191,0.83094511 c 0.7242651,-0.0284136 1.4501071,-0.0186267 2.1765656,-0.0242887 0.122772,-7.673e-5 0.2456736,-5.2917e-4 0.3684456,-5.2917e-4 z"
     style="color:#000000;display:inline;overflow:visible;visibility:visible;fill:url(#linearGradient1020);fill-opacity:1;fill-rule:nonzero;stroke:none;stroke-width:0.26458;marker:none;enable-background:accumulate;opacity:0.4"
     id="path2790" />
  <path
     d="m 2.4149892,0.26458333 c -0.857467,0 -1.3887371,0.025426 -1.73369816,0.2935208 -0.1724792,0.13405114 -0.2810245,0.32812831 -0.3410558,0.57360877 -0.060031,0.245483 -0.077716,0.5465101 -0.075446,0.9281107 v 2.1735096 2.1740283 c -0.00238,0.381299 0.015452,0.682244 0.075446,0.9275922 0.060031,0.245483 0.1685739,0.4395575 0.3410558,0.573606 C 1.0262548,8.176662 1.5575222,8.2020832 2.4149892,8.2020832 h 3.6368936 c 0.8572553,0 1.3867792,-0.025321 1.7305973,-0.2935235 C 7.9543931,7.7744636 8.0625521,7.5802092 8.12302,7.3349537 8.1834852,7.0896955 8.2020828,6.7888272 8.2020828,6.4073615 V 4.2333332 2.059305 c 0,-0.3814657 -0.0186,-0.682334 -0.079063,-0.9275921 C 8.0625521,0.88645733 7.9543931,0.6922029 7.7824801,0.55810413 7.438662,0.28991193 6.9091381,0.26458333 6.0518828,0.26458333 Z m 0,0.26458332 h 3.6368936 c 0.8492702,0 1.3293937,0.0517287 1.5678229,0.23771225 0.1192134,0.0929904 0.1952705,0.22013333 0.2464885,0.4278789 0.051221,0.2077482 0.071313,0.4921858 0.071313,0.8645472 v 2.1740282 2.1740283 c 0,0.3723614 -0.020082,0.6567991 -0.071313,0.8645446 C 7.8149762,7.4796543 7.7389191,7.6067972 7.6197057,7.6997876 7.3812765,7.8857712 6.901153,7.9374999 6.0518828,7.9374999 H 2.4149892 c -0.8494819,0 -1.3314918,-0.051631 -1.57092386,-0.2377123 C 0.72435204,7.6067469 0.64780544,7.4794241 0.59706094,7.2719061 0.54631384,7.0643907 0.52714484,6.7806145 0.52936464,6.4083934 V 6.4078643 4.2333332 2.058789 2.0582599 c -0.00212,-0.3722212 0.01696,-0.6559947 0.067696,-0.8635154 0.050747,-0.20751796 0.1272911,-0.3348381 0.2470044,-0.42787883 C 1.0834944,0.58078421 1.565507,0.52915342 2.4149889,0.52915342 Z"
     style="color:#000000;display:inline;opacity:0.4;fill:#000000;stroke-width:0.26458;-inkscape-stroke:none;enable-background:new"
     id="path2670" />
</svg>
