<?xml version="1.0" encoding="UTF-8" standalone="no"?>
<!-- Created with Inkscape (http://www.inkscape.org/) -->

<svg
   width="32"
   height="32"
   viewBox="0 0 8.4666665 8.4666669"
   version="1.1"
   id="svg5"
   inkscape:version="1.1.2 (0a00cf5339, 2022-02-04)"
   sodipodi:docname="preferences-desktop-filetype-association.svg"
   xmlns:inkscape="http://www.inkscape.org/namespaces/inkscape"
   xmlns:sodipodi="http://sodipodi.sourceforge.net/DTD/sodipodi-0.dtd"
   xmlns:xlink="http://www.w3.org/1999/xlink"
   xmlns="http://www.w3.org/2000/svg"
   xmlns:svg="http://www.w3.org/2000/svg">
  <sodipodi:namedview
     id="namedview7"
     pagecolor="#ffffff"
     bordercolor="#666666"
     borderopacity="1.0"
     inkscape:pageshadow="2"
     inkscape:pageopacity="0.0"
     inkscape:pagecheckerboard="0"
     inkscape:document-units="px"
     showgrid="false"
     units="px"
     height="32px"
     inkscape:zoom="25.3125"
     inkscape:cx="15.980247"
     inkscape:cy="16"
     inkscape:window-width="1846"
     inkscape:window-height="1011"
     inkscape:window-x="74"
     inkscape:window-y="32"
     inkscape:window-maximized="1"
     inkscape:current-layer="svg5" />
  <defs
     id="defs2">
    <linearGradient
       inkscape:collect="always"
       id="linearGradient1871">
      <stop
         style="stop-color:#ffffff;stop-opacity:1;"
         offset="0"
         id="stop1867" />
      <stop
         style="stop-color:#ffffff;stop-opacity:0.1"
         offset="0.12"
         id="stop2515" />
      <stop
         style="stop-color:#ffffff;stop-opacity:0.102"
         offset="0.89999998"
         id="stop2581" />
      <stop
         style="stop-color:#ffffff;stop-opacity:0.502"
         offset="1"
         id="stop1869" />
    </linearGradient>
    <linearGradient
       inkscape:collect="always"
       id="linearGradient3598">
      <stop
         style="stop-color:#aea795;stop-opacity:1"
         offset="0"
         id="stop3594" />
      <stop
         style="stop-color:#948b74;stop-opacity:1"
         offset="1"
         id="stop3596" />
    </linearGradient>
    <linearGradient
       inkscape:collect="always"
       xlink:href="#linearGradient3598"
       id="linearGradient885"
       x1="7.4280891"
       y1="8.2020836"
       x2="0.54902518"
       y2="0.39687499"
       gradientUnits="userSpaceOnUse" />
    <linearGradient
       inkscape:collect="always"
       xlink:href="#linearGradient1871"
       id="linearGradient1659"
       x1="2.6654696"
       y1="0.52916664"
       x2="2.69718"
       y2="7.9375"
       gradientUnits="userSpaceOnUse" />
  </defs>
  <path
     d="m 2.69718,0.52916666 c -0.3759491,0 -0.6743515,0.008149 -0.9275577,0.0506439 C 1.5164187,0.62231322 1.2956504,0.70485264 1.131442,0.86867999 0.96723635,1.0325073 0.88367825,1.2539451 0.84154865,1.5074027 c -0.04213,0.2534576 -0.049384,0.5521986 -0.04754,0.9291399 v 2.061374 2.0629245 c -0.00185,0.3760549 0.00548,0.6745552 0.04754,0.9275894 0.04213,0.2534603 0.1256877,0.4748954 0.28989335,0.6387227 0.1642084,0.1638274 0.3849767,0.2463668 0.6381803,0.2888695 0.2532062,0.042505 0.5516086,0.050644 0.9275577,0.050644 h 3.0730798 c 0.3759518,0 0.6737879,-0.00812 0.9265259,-0.050644 C 6.9495262,8.3734909 7.1697892,8.290544 7.3334155,8.1266346 7.4970418,7.9627253 7.5798246,7.7420284 7.6222743,7.4889491 7.6647267,7.2358672 7.6729156,6.9375495 7.6729156,6.5608411 V 4.4979166 2.4349921 c 0,-0.3767084 -0.0082,-0.6750261 -0.050641,-0.928108 C 7.5798246,1.2538022 7.4970418,1.033108 7.3334155,0.86919857 7.1697892,0.70528655 6.9495262,0.62234233 6.6967857,0.57981056 6.4440477,0.53727614 6.1462116,0.52916666 5.7702598,0.52916666 Z"
     style="color:#000000;font-style:normal;font-variant:normal;font-weight:normal;font-stretch:normal;font-size:medium;line-height:normal;font-family:sans-serif;font-variant-ligatures:normal;font-variant-position:normal;font-variant-caps:normal;font-variant-numeric:normal;font-variant-alternates:normal;font-feature-settings:normal;text-indent:0;text-align:start;text-decoration:none;text-decoration-line:none;text-decoration-style:solid;text-decoration-color:#000000;letter-spacing:normal;word-spacing:normal;text-transform:none;writing-mode:lr-tb;direction:ltr;text-orientation:mixed;dominant-baseline:auto;baseline-shift:baseline;text-anchor:start;white-space:normal;shape-padding:0;clip-rule:nonzero;display:inline;overflow:visible;visibility:visible;opacity:0.1;isolation:auto;mix-blend-mode:normal;color-interpolation:sRGB;color-interpolation-filters:linearRGB;solid-color:#000000;solid-opacity:1;vector-effect:none;fill:#000000;fill-opacity:1;fill-rule:nonzero;stroke:none;stroke-width:0.529156;stroke-linecap:butt;stroke-linejoin:miter;stroke-miterlimit:4;stroke-dasharray:none;stroke-dashoffset:0;stroke-opacity:1;marker:none;color-rendering:auto;image-rendering:auto;shape-rendering:auto;text-rendering:auto;enable-background:accumulate"
     id="path1922" />
  <path
     d="m 2.6656919,0.396875 c -1.4715463,0 -1.74722885,0.15454047 -1.73949505,1.6621839 v 2.1742532 2.1742955 c -0.00775,1.5076435 0.26794875,1.662184 1.73949505,1.662184 h 3.1354289 c 1.4711812,0 1.7394952,-0.1545246 1.7394952,-1.662184 V 4.2333121 2.0590589 c 0,-1.5076593 -0.268314,-1.6621839 -1.7394952,-1.6621839 z"
     style="color:#000000;display:inline;overflow:visible;visibility:visible;fill:url(#linearGradient885);fill-opacity:1;fill-rule:nonzero;stroke:none;stroke-width:0.264583;marker:none;enable-background:accumulate"
     id="path2042" />
  <path
     d="m 3.1751689,1.8520905 c -1.0612393,0 -1.0633713,-0.00505 -1.05817,1.0583323 v 1.5874973 1.4731455 c -0.00521,1.0633834 -0.00307,1.1726841 1.05817,1.1726841 h 2.1166667 c 1.0612432,0 1.0526215,-0.1093009 1.0583381,-1.1726841 V 4.4979201 l -4.8e-6,-1.0584726 -1.380945,-0.4701032 -0.206555,-1.117261 z"
     style="color:#000000;display:inline;overflow:visible;visibility:visible;opacity:0.1;fill:#000000;fill-opacity:1;fill-rule:nonzero;stroke:none;stroke-width:0.0500028;marker:none;enable-background:accumulate"
     id="path863"
     sodipodi:nodetypes="ccccsscccccc" />
  <path
     id="path1073"
     style="color:#000000;display:inline;overflow:visible;visibility:visible;fill:#faf8f6;fill-opacity:1;fill-rule:nonzero;stroke:none;stroke-width:0.188987;marker:none;enable-background:accumulate"
     d="m 3.1751689,1.5885345 c -1.0612394,0 -1.0633714,-0.00505 -1.0581701,1.0583324 v 1.5874973 1.4731455 c -0.00521,1.0633833 -0.00307,1.1726841 1.0581701,1.1726841 h 2.1166667 c 1.0612432,0 1.0526214,-0.1093009 1.0583379,-1.1726841 V 4.2343642 2.9114492 L 5.8129062,2.9110712 C 5.1267891,2.9144225 5.0351761,2.8090291 5.0351761,2.1244833 v -0.010335 -0.019562 -0.506059 z"
     sodipodi:nodetypes="ccccssscccscccc" />
  <path
     id="path2771"
     style="color:#000000;opacity:0.2;fill:#000000;stroke:none;stroke-width:1;-inkscape-stroke:none"
     d="m 5.2990703,1.3229167 -2.1456054,0.00103 c -0.2675729,0 -0.4781209,0.00584 -0.6526734,0.03514 C 2.3262389,1.3883858 2.1811543,1.4443577 2.0749777,1.550293 1.968801,1.6562283 1.9148609,1.7999099 1.8858419,1.9745565 1.856823,2.149203 1.8509403,2.3605583 1.8522522,2.6287801 v 1.4722617 1.7394284 c -0.00127,0.2670855 0.00466,0.4780003 0.03359,0.6521567 0.029017,0.1746766 0.082974,0.3198325 0.1891358,0.4258138 0.1061623,0.1059815 0.2512507,0.1623848 0.4258138,0.1917197 0.1745631,0.029335 0.3850926,0.035269 0.6526734,0.03514 l 2.1667927,-0.00103 C 5.5878389,7.1441408 5.797681,7.1385204 5.9708638,7.1091284 6.1440468,7.0797324 6.2861267,7.0237984 6.3904765,6.9174089 6.4948261,6.8110193 6.5493969,6.6656625 6.5780619,6.491595 6.6067268,6.3175275 6.6117629,6.1072462 6.613202,5.8394384 V 4.1000083 2.6453166 Z M 5.0350037,1.5885336 v 0.5059123 0.019637 0.010335 c 0,0.684546 0.091613,0.7898715 0.7777303,0.7865153 l 0.5369181,5.165e-4 v 1.1885581 1.7373616 c -0.00143,0.2638832 -0.00911,0.4658296 -0.033073,0.6113322 -0.023961,0.1455026 -0.062413,0.2293281 -0.1152385,0.2831867 -0.052826,0.053858 -0.1321109,0.09091 -0.2754355,0.1152385 -0.1433242,0.024328 -0.3426079,0.031396 -0.6056476,0.031523 l -2.1667927,0.00103 C 2.8904259,6.8798091 2.688819,6.8725487 2.5436828,6.8481591 2.3985467,6.8237646 2.3169221,6.7851203 2.2625631,6.7308537 2.208204,6.6765874 2.1693272,6.5946277 2.1452576,6.449734 2.1211879,6.3048404 2.1150279,6.1039381 2.1163188,5.8404687 V 4.1010418 2.6287801 C 2.1150288,2.3653104 2.1211888,2.1643696 2.1452578,2.019515 2.1693268,1.8746606 2.2082198,1.7920988 2.2625633,1.7378785 2.3169073,1.6836585 2.3985379,1.6449325 2.543683,1.620573 2.6888281,1.596213 2.8904187,1.589567 3.1534651,1.589567 Z" />
  <path
     d="M 6.3501689,2.6467248 5.2918356,1.5885273 v 0.3925287 0.017075 0.00915 c 0,0.6024015 0.027762,0.6423854 0.6315463,0.6394326 z"
     style="color:#000000;display:inline;overflow:visible;visibility:visible;fill:#e3dfd5;fill-opacity:1;fill-rule:nonzero;stroke:none;stroke-width:0.0441013;marker:none;enable-background:accumulate"
     id="path1195" />
  <path
     id="path2368"
     style="color:#000000;display:inline;opacity:0.7;fill:url(#linearGradient1659);fill-opacity:1;stroke-width:0.264583;-inkscape-stroke:none;enable-background:new"
     d="m 2.6654697,0.52916666 c -0.7311231,0 -1.1348932,0.0503502 -1.3358363,0.23151041 C 1.2291632,0.85125718 1.1614669,0.98085009 1.1172445,1.190625 1.0730194,1.4003999 1.0564803,1.6854037 1.0583323,2.0582731 v 5.292e-4 2.1745442 2.1745442 5.292e-4 c -0.00185,0.3728667 0.014684,0.6578732 0.058912,0.8676481 0.044222,0.2097749 0.1119161,0.3393678 0.2123889,0.4299479 0.2009458,0.1811602 0.6047132,0.2315104 1.3358363,0.2315104 h 3.1357254 c 0.7309432,0 1.1326045,-0.050424 1.3327353,-0.2315104 C 7.2339957,7.6154729 7.3016972,7.4860361 7.3463192,7.276068 7.3909522,7.0660735 7.4083322,6.78035 7.4083322,6.4073616 V 4.2333333 2.059305 c 0,-0.3729884 -0.017383,-0.658712 -0.062013,-0.86868 C 7.3016972,0.98065695 7.2339957,0.85122014 7.1339302,0.76067707 6.9337994,0.57959095 6.5321381,0.52916666 5.8011949,0.52916666 Z m 0.1157552,0.25217966 h 2.9171344 c 0.3844713,0 0.6758808,0.0106892 0.8795332,0.0434102 0.2036524,0.0327157 0.3061811,0.0816213 0.3705198,0.14314223 0.064341,0.061521 0.1156071,0.15958605 0.14986,0.35450195 0.034253,0.1949185 0.045477,0.4740354 0.045477,0.8418089 v 2.0629218 2.0629245 c 0,0.3677735 -0.011218,0.6468904 -0.045477,0.8418089 -0.03425,0.1949186 -0.085519,0.2929784 -0.14986,0.3544993 C 6.8840736,7.5478851 6.7815449,7.5967933 6.5778925,7.629509 6.3742401,7.6622221 6.0828306,7.6729166 5.6983593,7.6729166 H 2.7812249 c -0.3844713,0 -0.6767301,-0.010663 -0.8810837,-0.043408 C 1.695785,7.5967642 1.592243,7.5479671 1.527555,7.4863641 1.462867,7.4247586 1.4120855,7.3269289 1.3782083,7.1323808 1.3443337,6.9378326 1.3334329,6.6591444 1.3353193,6.2916064 V 6.2910772 4.2271209 2.1636804 2.1631513 C 1.3334673,1.7956159 1.3443416,1.516925 1.3782083,1.3223769 1.4120855,1.1278261 1.462867,1.0299965 1.527555,0.96839351 1.592243,0.90678793 1.695785,0.85799611 1.9001412,0.82524864 2.1044948,0.7925038 2.3967536,0.78184109 2.7812249,0.78184109 Z"
     sodipodi:nodetypes="sssscccsssssssscssssscssssscsssssssssscccsssscc" />
  <path
     d="m 2.6655888,0.26458333 c -0.7403862,0 -1.2102121,0.0267017 -1.5130489,0.29972264 C 1.0011188,0.70081774 0.90978205,0.89262213 0.85850585,1.1358483 0.80723225,1.3790745 0.79195785,1.6788685 0.79391315,2.0598235 v 2.1735098 2.1740283 c -0.00185,0.3806507 0.013361,0.6803654 0.064593,0.9234567 0.051276,0.2432261 0.14261295,0.4350305 0.29403405,0.5715423 0.3028394,0.2730209 0.7726627,0.2997226 1.5130489,0.2997226 h 3.1356508 c 0.7402036,0 1.2081404,-0.026633 1.5099506,-0.2997226 C 7.4620929,7.7658144 7.5535673,7.5738513 7.6052219,7.3308183 7.6568739,7.0877852 7.6729156,6.7882002 7.6729156,6.4073616 V 4.2333333 2.059305 c 0,-0.3808386 -0.016034,-0.6804237 -0.067694,-0.9234567 C 7.5535673,0.89281528 7.4620929,0.70085214 7.3111905,0.56430597 7.0093803,0.29121629 6.5414435,0.26458333 5.8012399,0.26458333 Z m 0,0.26458333 h 3.1356511 c 0.7309432,0 1.1325727,0.0504243 1.3327036,0.23151041 0.1000654,0.0905431 0.167759,0.21997988 0.2123837,0.42994793 0.04463,0.209968 0.062013,0.4956916 0.062013,0.86868 v 2.1740283 2.1740283 c 0,0.3729884 -0.017383,0.6587119 -0.062013,0.86868 C 7.3017025,7.4860096 7.2340089,7.6154464 7.1339435,7.7059895 6.9338126,7.8870756 6.5321831,7.9374999 5.8012399,7.9374999 H 2.6655888 c -0.7311232,0 -1.1348588,-0.05035 -1.3358045,-0.2315104 C 1.2293114,7.6154094 1.161623,7.4858165 1.1174006,7.2760416 1.0731755,7.0662667 1.0565729,6.7812602 1.0584911,6.4083935 V 6.4078643 4.2333333 2.058789 2.0582599 C 1.056639,1.6853905 1.0731755,1.4003867 1.1174006,1.1906118 1.161623,0.98083686 1.229314,0.85124395 1.3297843,0.76066384 1.5307274,0.57950364 1.9344656,0.52915343 2.6655888,0.52915343 Z"
     style="color:#000000;display:inline;opacity:0.4;fill:#000000;stroke-width:0.26458;-inkscape-stroke:none;enable-background:new"
     id="path2244" />
</svg>
