<svg version="1.1" viewBox="0 0 16 16" xmlns="http://www.w3.org/2000/svg">
 <path d="M 8,1.333 4.5,5 H 1.87 C 1.87,5 1,5.893 1,8.001 1,10.11 1.87,11 1.87,11 H 4.5 L 8,14.667 Z" fill="#dfdfdf"/>
 <path d="m10.524 4.926-0.707 0.707 0.354 0.354a2.999 2.999 0 0 1 0 4.242l-0.354 0.353 0.707 0.707 0.354-0.353a4 4 0 0 0 0-5.656z" fill="#dfdfdf" font-family="sans-serif" font-weight="400" opacity=".5" overflow="visible" style="font-feature-settings:normal;font-variant-alternates:normal;font-variant-caps:normal;font-variant-ligatures:normal;font-variant-numeric:normal;font-variant-position:normal;isolation:auto;mix-blend-mode:normal;shape-padding:0;text-decoration-color:#000000;text-decoration-line:none;text-decoration-style:solid;text-indent:0;text-orientation:mixed;text-transform:none" white-space="normal"/>
 <path d="m12.645 2.805-0.707 0.707 0.354 0.353a5.999 5.999 0 0 1 0 8.485l-0.354 0.353 0.707 0.707 0.354-0.353a7 7 0 0 0 0-9.899z" fill="#dfdfdf" font-family="sans-serif" font-weight="400" opacity=".5" overflow="visible" style="font-feature-settings:normal;font-variant-alternates:normal;font-variant-caps:normal;font-variant-ligatures:normal;font-variant-numeric:normal;font-variant-position:normal;isolation:auto;mix-blend-mode:normal;shape-padding:0;text-decoration-color:#000000;text-decoration-line:none;text-decoration-style:solid;text-indent:0;text-orientation:mixed;text-transform:none" white-space="normal"/>
</svg>
