<?xml version="1.0" encoding="UTF-8" standalone="no"?>
<!-- Created with Inkscape (http://www.inkscape.org/) -->

<svg
   width="256"
   height="256"
   viewBox="0 0 67.733332 67.733335"
   version="1.1"
   id="svg1299"
   inkscape:version="1.1.2 (0a00cf5339, 2022-02-04)"
   sodipodi:docname="folder-templates-open.svg"
   xmlns:inkscape="http://www.inkscape.org/namespaces/inkscape"
   xmlns:sodipodi="http://sodipodi.sourceforge.net/DTD/sodipodi-0.dtd"
   xmlns:xlink="http://www.w3.org/1999/xlink"
   xmlns="http://www.w3.org/2000/svg"
   xmlns:svg="http://www.w3.org/2000/svg">
  <sodipodi:namedview
     id="namedview1301"
     pagecolor="#ffffff"
     bordercolor="#666666"
     borderopacity="1.0"
     inkscape:pageshadow="2"
     inkscape:pageopacity="0.0"
     inkscape:pagecheckerboard="0"
     inkscape:document-units="px"
     showgrid="false"
     units="px"
     inkscape:zoom="2"
     inkscape:cx="110.75"
     inkscape:cy="158"
     inkscape:window-width="1846"
     inkscape:window-height="1011"
     inkscape:window-x="74"
     inkscape:window-y="32"
     inkscape:window-maximized="1"
     inkscape:current-layer="svg1299" />
  <defs
     id="defs1296">
    <linearGradient
       inkscape:collect="always"
       id="linearGradient4977">
      <stop
         style="stop-color:#000000;stop-opacity:1;"
         offset="0"
         id="stop4973" />
      <stop
         style="stop-color:#000000;stop-opacity:0.439"
         offset="0.15000001"
         id="stop5239" />
      <stop
         style="stop-color:#000000;stop-opacity:0.102"
         offset="0.2"
         id="stop5109" />
      <stop
         style="stop-color:#000000;stop-opacity:0;"
         offset="1"
         id="stop4975" />
    </linearGradient>
    <linearGradient
       inkscape:collect="always"
       id="linearGradient3768">
      <stop
         style="stop-color:#ffffff;stop-opacity:1;"
         offset="0"
         id="stop3764" />
      <stop
         style="stop-color:#ffffff;stop-opacity:0;"
         offset="1"
         id="stop3766" />
    </linearGradient>
    <linearGradient
       inkscape:collect="always"
       xlink:href="#linearGradient1579"
       id="linearGradient3476"
       x1="4.1671863"
       y1="23.283333"
       x2="63.433853"
       y2="61.383331"
       gradientUnits="userSpaceOnUse" />
    <radialGradient
       inkscape:collect="always"
       xlink:href="#linearGradient3768"
       id="radialGradient3770"
       cx="33.866669"
       cy="5.6878662"
       fx="33.866669"
       fy="5.6878662"
       r="29.633334"
       gradientTransform="matrix(1,0,0,0.30768695,0,24.830213)"
       gradientUnits="userSpaceOnUse" />
    <radialGradient
       inkscape:collect="always"
       xlink:href="#linearGradient3768"
       id="radialGradient4222"
       cx="33.866669"
       cy="-3.9604559"
       fx="33.866669"
       fy="-3.9604559"
       r="29.633333"
       gradientTransform="matrix(1,0,0,0.26304411,0,10.424147)"
       gradientUnits="userSpaceOnUse" />
    <linearGradient
       inkscape:collect="always"
       xlink:href="#linearGradient4977"
       id="linearGradient4979"
       x1="67.733337"
       y1="65.616669"
       x2="-3.9709471e-06"
       y2="2.6458316"
       gradientUnits="userSpaceOnUse" />
    <filter
       inkscape:collect="always"
       style="color-interpolation-filters:sRGB"
       id="filter6519"
       x="-0.034797569"
       y="-0.037474303"
       width="1.0695951"
       height="1.0749486">
      <feGaussianBlur
         inkscape:collect="always"
         stdDeviation="0.85930658"
         id="feGaussianBlur6521" />
    </filter>
    <filter
       inkscape:collect="always"
       style="color-interpolation-filters:sRGB"
       id="filter6940"
       x="-0.11571429"
       y="-0.12461539"
       width="1.2314286"
       height="1.2492308">
      <feGaussianBlur
         inkscape:collect="always"
         stdDeviation="2.8574998"
         id="feGaussianBlur6942" />
    </filter>
    <linearGradient
       inkscape:collect="always"
       id="linearGradient1579">
      <stop
         style="stop-color:#666666;stop-opacity:1;"
         offset="0"
         id="stop1575" />
      <stop
         style="stop-color:#7a7a7a;stop-opacity:1"
         offset="1"
         id="stop1577" />
    </linearGradient>
    <linearGradient
       inkscape:collect="always"
       id="linearGradient957">
      <stop
         style="stop-color:#77216f;stop-opacity:1"
         offset="0"
         id="stop953" />
      <stop
         style="stop-color:#e95420;stop-opacity:1"
         offset="1"
         id="stop955" />
    </linearGradient>
    <linearGradient
       inkscape:collect="always"
       xlink:href="#linearGradient957"
       id="linearGradient880"
       x1="4.2333331"
       y1="25.664583"
       x2="63.500004"
       y2="25.664583"
       gradientUnits="userSpaceOnUse" />
  </defs>
  <path
     d="m 14.550533,6.349999 c -9.3579186,0 -10.3171996,0.5289399 -10.3171996,9.868132 v 34.86712 c 0,9.339191 0.9592839,10.298078 10.3171996,10.298078 h 38.632262 c 9.35792,0 10.317199,-0.958887 10.317199,-10.298078 V 21.410578 c 0,-9.339191 -0.959279,-10.827246 -10.317199,-10.827246 H 30.1625 L 25.929166,6.349999 Z"
     style="color:#000000;display:inline;overflow:visible;visibility:visible;opacity:0.1;fill:#000000;fill-opacity:1;fill-rule:nonzero;stroke:none;stroke-width:0.0700042;marker:none;enable-background:accumulate;filter:url(#filter6940)"
     id="path6741" />
  <path
     d="m 14.550533,6.349999 c -9.357919,0 -10.3172,0.52894 -10.3172,9.868132 v 34.867123 c 0,9.339191 0.959284,10.298078 10.3172,10.298078 h 38.632262 c 9.35792,0 10.3172,-0.958887 10.3172,-10.298078 V 21.410578 c 0,-9.339191 -0.95928,-10.827246 -10.3172,-10.827246 H 30.1625 L 25.929166,6.349999 Z"
     style="color:#000000;display:inline;overflow:visible;visibility:visible;opacity:0.4;fill:url(#linearGradient4979);fill-opacity:1;fill-rule:nonzero;stroke:none;stroke-width:0.264583;marker:none;filter:url(#filter6519);enable-background:accumulate"
     id="path4860"
     sodipodi:nodetypes="ssssssssccs" />
  <path
     d="m 14.550523,6.3500001 c -9.3579166,0 -10.3171897,0.528942 -10.3171897,9.8681339 V 44.979167 H 63.500005 V 21.410582 c 0,-9.339191 -0.959273,-10.827248 -10.317189,-10.827248 H 30.1625 L 25.929167,6.3500001 Z"
     style="color:#000000;display:inline;overflow:visible;visibility:visible;fill:url(#linearGradient880);fill-opacity:1.0;fill-rule:nonzero;stroke:none;stroke-width:0.264583;marker:none;enable-background:accumulate"
     id="path2421"
     sodipodi:nodetypes="ssccssccs" />
  <path
     d="m 14.550364,27.516666 c -9.3579162,0 -10.3170307,0.959115 -10.3170307,10.298306 v 13.270054 c 0,9.339191 0.9591145,10.298307 10.3170307,10.298307 h 38.632608 c 9.357916,0 10.31703,-0.959116 10.31703,-10.298307 V 33.581638 c 0,-9.339191 -0.961947,-10.068045 -10.31703,-10.298305 H 31.683854 l -4.235397,4.233333 z"
     style="color:#000000;display:inline;overflow:visible;visibility:visible;fill:url(#linearGradient3476);fill-opacity:1.0;fill-rule:nonzero;stroke:none;stroke-width:0.264583;marker:none;enable-background:accumulate"
     id="path1328"
     sodipodi:nodetypes="ssssssssccs" />
  <path
     d="m 14.550522,6.3499988 c -9.3579178,0 -10.3171884,0.5289417 -10.3171884,9.8681332 v 0.529167 c 0,-9.3391918 0.9592706,-9.8681336 10.3171884,-9.8681336 H 25.929167 L 30.1625,11.112499 h 23.020313 c 9.357916,0 10.317189,1.488054 10.317189,10.827248 V 21.41058 c 0,-9.339194 -0.959273,-10.827248 -10.317189,-10.827248 H 30.1625 L 25.929167,6.3499988 Z"
     style="color:#000000;display:inline;overflow:visible;visibility:visible;opacity:0.4;fill:url(#radialGradient4222);fill-opacity:1;fill-rule:nonzero;stroke:none;stroke-width:0.264583;marker:none;enable-background:accumulate"
     id="path2808" />
  <path
     d="m 31.683854,23.283338 -4.235397,4.233333 H 14.550522 c -9.3579151,0 -10.3171884,0.95889 -10.3171884,10.298081 v 0.529166 c 0,-9.33919 0.9592733,-10.29808 10.3171884,-10.29808 h 12.897935 l 4.235397,-4.233333 h 21.498959 c 9.357916,0 10.317189,0.958889 10.317189,10.29808 v -0.529166 c 0,-9.339191 -0.959273,-10.298081 -10.317189,-10.298081 z"
     style="color:#000000;display:inline;overflow:visible;visibility:visible;opacity:0.4;fill:url(#radialGradient3770);fill-opacity:1;fill-rule:nonzero;stroke:none;stroke-width:0.264583;marker:none;enable-background:accumulate"
     id="path2668" />
  <path
     d="m 4.2333336,50.556085 v 0.529166 c 0,9.339194 0.9592733,10.298081 10.3171884,10.298081 h 38.632291 c 9.357916,0 10.317189,-0.958887 10.317189,-10.298081 v -0.529166 c 0,9.339193 -0.959273,10.29808 -10.317189,10.29808 H 14.550522 c -9.3579151,0 -10.3171884,-0.958887 -10.3171884,-10.29808 z"
     style="color:#000000;display:inline;overflow:visible;visibility:visible;opacity:0.2;fill:#000000;fill-opacity:1;fill-rule:nonzero;stroke:none;stroke-width:0.264583;marker:none;enable-background:accumulate"
     id="path2948" />
  <path
     d="M 63.500002,43.920832 46.566669,60.854165 h 6.616144 c 9.357916,0 10.317189,-0.958887 10.317189,-10.29808 z"
     style="color:#000000;display:inline;overflow:visible;visibility:visible;opacity:0.05;fill:#ffffff;fill-opacity:1;fill-rule:nonzero;stroke:none;stroke-width:0.264583;marker:none;enable-background:accumulate"
     id="path3068" />
  <path
     id="path1165"
     style="font-style:normal;font-variant:normal;font-weight:normal;font-stretch:normal;font-size:15px;line-height:125%;font-family:Ubuntu;-inkscape-font-specification:Ubuntu;text-align:center;letter-spacing:0px;word-spacing:0px;writing-mode:lr-tb;text-anchor:middle;display:inline;opacity:0.6;fill:#ffffff;fill-opacity:1;stroke:none;stroke-width:0.0711523;enable-background:new"
     d="m 24.870803,30.956251 v 0.529165 23.8125 h 7.408333 v -19.84375 -1.5875 -2.910415 z m 11.906249,0 c -0.705564,0 -0.985493,0.313736 -1.152392,0.647506 -0.16682,0.333767 -0.170524,0.675409 -0.170524,0.675409 V 48.26062 l 0.01191,0.05788 c 0.04215,0.184027 0.21164,0.85035 0.600498,1.992127 0.388303,1.140267 1.759612,3.658667 2.562622,5.206918 0.802111,-1.547204 2.174346,-4.066598 2.562622,-5.206918 0.388805,-1.141838 0.559065,-1.81257 0.600498,-1.992643 l 0.01191,-0.05736 V 32.279166 c 0,-0.705556 -0.313743,-0.985501 -0.647515,-1.152384 -0.333984,-0.166881 -0.675455,-0.170532 -0.675455,-0.170532 z m -10.847916,1.058332 h 5.291667 v 2.116667 h -2.116667 v 1.058333 h 2.116667 v 3.175 h -2.116667 v 1.058333 h 2.116667 v 3.175 h -2.116667 v 1.058333 h 2.116667 v 3.175 h -2.116667 v 1.058334 h 2.116667 v 3.175 h -2.116667 v 1.058333 h 2.116667 v 2.116667 H 25.929136 V 32.279166 Z m 10.583333,0 h 4.233333 v 3.175 h -3.96875 -0.264583 z m 0,14.816666 h 0.264583 3.96875 v 1.299147 c -0.03442,0.146301 -0.187536,0.756983 -0.556048,1.839164 -0.199919,0.587158 -0.877861,1.923388 -1.560618,3.243728 -0.682731,-1.320239 -1.36062,-2.656367 -1.560619,-3.243728 -0.36867,-1.082453 -0.521387,-1.689846 -0.556048,-1.837614 z" />
</svg>
