<?xml version="1.0" encoding="UTF-8" standalone="no"?>
<!-- Created with Inkscape (http://www.inkscape.org/) -->

<svg
   width="22"
   height="22"
   viewBox="0 0 5.8208332 5.8208334"
   version="1.1"
   id="svg5"
   inkscape:version="1.1.2 (0a00cf5339, 2022-02-04, custom)"
   sodipodi:docname="media-record.svg"
   xmlns:inkscape="http://www.inkscape.org/namespaces/inkscape"
   xmlns:sodipodi="http://sodipodi.sourceforge.net/DTD/sodipodi-0.dtd"
   xmlns="http://www.w3.org/2000/svg"
   xmlns:svg="http://www.w3.org/2000/svg">
  <sodipodi:namedview
     id="namedview7"
     pagecolor="#ffffff"
     bordercolor="#dfdfdf"
     borderopacity="1.0"
     inkscape:pageshadow="2"
     inkscape:pageopacity="0.0"
     inkscape:pagecheckerboard="0"
     inkscape:document-units="px"
     showgrid="false"
     units="px"
     height="22px"
     inkscape:zoom="36.454545"
     inkscape:cx="10.986284"
     inkscape:cy="11"
     inkscape:window-width="1860"
     inkscape:window-height="1017"
     inkscape:window-x="0"
     inkscape:window-y="0"
     inkscape:window-maximized="1"
     inkscape:current-layer="svg5" />
  <defs
     id="defs2" />
  <path
     id="path846"
     style="fill:#da1636;fill-opacity:1;fill-rule:evenodd;stroke-width:0.264583"
     class="error"
     d="M 2.9104166,0.79374999 A 2.1166665,2.1166665 0 0 0 0.79374999,2.9104166 2.1166665,2.1166665 0 0 0 2.9104166,5.0270833 2.1166665,2.1166665 0 0 0 5.0270833,2.9104166 2.1166665,2.1166665 0 0 0 2.9104166,0.79374999 Z m 0,0.26458331 A 1.8520833,1.8520833 0 0 1 4.7624999,2.9104166 1.8520833,1.8520833 0 0 1 2.9104166,4.7624999 1.8520833,1.8520833 0 0 1 1.0583333,2.9104166 1.8520833,1.8520833 0 0 1 2.9104166,1.0583333 Z m 0,0.2645833 a 1.5875,1.5875 0 0 0 -1.5875,1.5875 1.5875,1.5875 0 0 0 1.5875,1.5875 1.5875,1.5875 0 0 0 1.5875,-1.5875 1.5875,1.5875 0 0 0 -1.5875,-1.5875 z" />
</svg>
