<svg width="24" height="24" version="1" xmlns="http://www.w3.org/2000/svg" xmlns:xlink="http://www.w3.org/1999/xlink">
 <defs>
  <linearGradient id="linearGradient4880-4" x1="328" x2="336.92" y1="201" y2="201" gradientTransform="rotate(90 266 -54)" gradientUnits="userSpaceOnUse">
   <stop stop-color="#fff" offset="0"/>
   <stop stop-color="#fff" stop-opacity=".098039" offset=".125"/>
   <stop stop-color="#fff" stop-opacity=".098039" offset=".925"/>
   <stop stop-color="#fff" stop-opacity=".49804" offset="1"/>
  </linearGradient>
 </defs>
 <path d="m24 12.865c0-1.1201-0.0241-2.0152-0.1543-2.791-0.13022-0.77578-0.38763-1.4801-0.91601-2.0098s-1.2369-0.7908-2.0137-0.91992c-0.77681-0.12912-1.6717-0.15003-2.7949-0.14454h-6.1211-6.125c-1.121-5e-3 -2.0153 0.0156-2.791 0.14454-0.77681 0.12912-1.4853 0.39029-2.0137 0.91992s-0.78579 1.234-0.91601 2.0098c-0.13022 0.77576-0.1543 1.6709-0.1543 2.791v1.2696c0 1.1201 0.024 2.0126 0.1543 2.7871 0.13033 0.77446 0.38927 1.48 0.91797 2.0078 0.52869 0.5278 1.2344 0.78594 2.0098 0.91601 0.77539 0.13007 1.6706 0.1543 2.793 0.1543h6.125 6.125c1.1224 0 2.0176-0.0242 2.793-0.1543 0.77538-0.13007 1.4811-0.38821 2.0098-0.91601 0.5287-0.5278 0.78764-1.2333 0.91797-2.0078 0.13033-0.77448 0.1543-1.667 0.1543-2.7871z" color="#000000" color-rendering="auto" dominant-baseline="auto" image-rendering="auto" opacity=".1" shape-rendering="auto" solid-color="#000000" style="font-feature-settings:normal;font-variant-alternates:normal;font-variant-caps:normal;font-variant-ligatures:normal;font-variant-numeric:normal;font-variant-position:normal;isolation:auto;mix-blend-mode:normal;shape-padding:0;text-decoration-color:#000000;text-decoration-line:none;text-decoration-style:solid;text-indent:0;text-orientation:mixed;text-transform:none;white-space:normal"/>
 <path d="m23.5 11.636c0-4.657-0.47377-5.1581-5.0957-5.1353h-6.4043-6.4042c-4.622-0.0229-5.0957 0.47827-5.0957 5.1353v1.7287c0 4.657 0.52909 4.4219 5.0957 5.1353h6.4042 6.4043c4.622 0 5.0957-0.47827 5.0957-5.1353z" color="#000000" fill="#e3dfd5"/>
 <g transform="translate(-320 -188)" enable-background="new">
  <path d="m339 199a1 1 0 0 0-1 1 1 1 0 0 0 1 0.99999 1 1 0 0 0 1-0.99999 1 1 0 0 0-1-1z" enable-background="new" fill="#0e8420"/>
  <path d="m335 199a1 1 0 0 0-1 1 1 1 0 0 0 1 0.99999 1 1 0 0 0 1-0.99999 1 1 0 0 0-1-1z" enable-background="new" fill="#c7162b"/>
  <path d="m337 201a1 1 0 0 0-1 1 1 1 0 0 0 1 0.99999 1 1 0 0 0 0.99999-0.99999 1 1 0 0 0-0.99999-1z" enable-background="new" fill="#335280"/>
  <path d="m337 197a1 1 0 0 0-1 1 1 1 0 0 0 1 0.99999 1 1 0 0 0 0.99999-0.99999 1 1 0 0 0-0.99999-1z" enable-background="new" fill="#f99b11"/>
 </g>
 <path d="m6.0004 9.625c0-0.35157 0.27269-0.62501 0.6233-0.62501h0.73975c0.3506 0 0.63631 0.27344 0.63631 0.62501l6.4e-4 1.375h1.3562c0.3506 0 0.64377 0.19539 0.64377 0.54697v0.78904c0 0.35157-0.29316 0.66399-0.64377 0.66399h-1.3569v1.375c0 0.46876-0.28571 0.62501-0.63631 0.62501h-0.73975c-0.35061 0-0.6233-0.15625-0.6233-0.62501v-1.375h-1.3767c-0.3506 0-0.6233-0.27344-0.6233-0.62501v-0.74997c-3e-5 -0.35156 0.2727-0.62501 0.6233-0.62501h1.3767z" enable-background="new" fill="#5d5d5d"/>
 <g transform="translate(-323 -138)" enable-background="new" fill="#aea795">
  <circle cx="337" cy="154" r="1" enable-background="new" opacity=".5"/>
  <circle cx="333" cy="154" r="1" enable-background="new" opacity=".5"/>
 </g>
 <path d="m23.5 11.497c0-4.227-0.46324-5.0188-4.9825-4.9966h-6.5174-6.5176c-4.5192-0.0222-4.9825 0.76965-4.9825 4.9966v2.0064c0 4.2259 0.46319 4.9966 4.9825 4.9966h6.5176 6.5174c4.5193 0 4.9825-0.77072 4.9825-4.9966z" color="#000000" fill="none" opacity=".4" stroke="#000"/>
 <path d="m5.4809 6.9995c-1.1152-5e-3 -1.9659 0.0431-2.584 0.16797-0.61805 0.12486-0.9851 0.31306-1.2363 0.58008-0.50245 0.53406-0.66016 1.6528-0.66016 3.748v2.0078c0 2.0947 0.15795 3.2064 0.66016 3.7383 0.2511 0.26593 0.61757 0.456 1.2363 0.58203 0.61876 0.12598 1.4832 7e-3 2.5859 0.17578h6.5176 6.5176c1.1156 0 1.9672-0.0498 2.5859-0.17578 0.61875-0.12603 0.98522-0.3161 1.2363-0.58203 0.50221-0.53187 0.66016-1.6436 0.66016-3.7383v-2.0078c0-2.0952-0.15771-3.214-0.66016-3.748-0.25122-0.26704-0.61827-0.45522-1.2363-0.58008-0.61806-0.12487-1.4688-0.17297-2.584-0.16797h-6.5195zm7.1367 1.0156c1.9855-2e-3 3.9873-4e-3 5.9629 0.0195 0.96763 0.0402 1.9912-0.0256 2.9023 0.34764 0.38183 0.34917 0.35253 0.95779 0.39453 1.4336 0.0768 3.5172 0.0322 0.10038 0.0312 3.6504-0.0482 0.90085 0.0757 1.7786-0.15039 2.6562-0.10866 0.64044-0.871 0.73134-1.4004 0.74414-4.8172 0.0743-9.6354 0.0481-14.453 0.0391-1.0203-0.0584-2.0606 0.10963-3.0586-0.16992-0.66794-0.12827-0.69858-0.9186-0.73828-1.4609-0.1041-3.0047-0.0701 0.92007-0.084-2.127 0.0395-1.41-0.0595-2.8223 0.19726-4.2207 0.0532-0.62993 0.75618-0.7251 1.248-0.81639 3.0469-0.0947 6.0952-0.0772 9.1484-0.0957z" color="#000000" fill="url(#linearGradient4880-4)" opacity=".7"/>
</svg>
