<?xml version="1.0" encoding="UTF-8" standalone="no"?>
<svg
   xmlns:dc="http://purl.org/dc/elements/1.1/"
   xmlns:cc="http://creativecommons.org/ns#"
   xmlns:rdf="http://www.w3.org/1999/02/22-rdf-syntax-ns#"
   xmlns:svg="http://www.w3.org/2000/svg"
   xmlns="http://www.w3.org/2000/svg"
   xmlns:xlink="http://www.w3.org/1999/xlink"
   xmlns:sodipodi="http://sodipodi.sourceforge.net/DTD/sodipodi-0.dtd"
   xmlns:inkscape="http://www.inkscape.org/namespaces/inkscape"
   width="24"
   height="24"
   version="1"
   id="svg20"
   sodipodi:docname="media-flash-memory-stick.svg"
   inkscape:version="1.0.2 (e86c870879, 2021-01-15)">
  <metadata
     id="metadata26">
    <rdf:RDF>
      <cc:Work
         rdf:about="">
        <dc:format>image/svg+xml</dc:format>
        <dc:type
           rdf:resource="http://purl.org/dc/dcmitype/StillImage" />
        <dc:title></dc:title>
      </cc:Work>
    </rdf:RDF>
  </metadata>
  <defs
     id="defs24">
    <linearGradient
       inkscape:collect="always"
       xlink:href="#linearGradient4338-3"
       id="linearGradient916"
       gradientUnits="userSpaceOnUse"
       gradientTransform="matrix(0,-0.05664062,-0.05663901,0,26.74456,27)"
       x1="512.00006"
       y1="313.29221"
       x2="0"
       y2="313.29221" />
    <linearGradient
       inkscape:collect="always"
       id="linearGradient4338-3">
      <stop
         id="stop4342-7"
         offset="0"
         style="stop-color:#999999;stop-opacity:1" />
      <stop
         style="stop-color:#b7b7b7;stop-opacity:1"
         offset="0.61328125"
         id="stop932" />
      <stop
         id="stop4340-0"
         offset="1"
         style="stop-color:#dbdbdb;stop-opacity:1" />
    </linearGradient>
    <linearGradient
       inkscape:collect="always"
       xlink:href="#linearGradient928"
       id="linearGradient1041"
       gradientUnits="userSpaceOnUse"
       x1="352"
       y1="68"
       x2="352"
       y2="96"
       gradientTransform="matrix(0.57142855,0,0,0.57142855,-184.57144,-35.00001)" />
    <linearGradient
       inkscape:collect="always"
       id="linearGradient928">
      <stop
         style="stop-color:#808080;stop-opacity:1"
         offset="0"
         id="stop924" />
      <stop
         style="stop-color:#999999;stop-opacity:1"
         offset="1"
         id="stop926" />
    </linearGradient>
    <linearGradient
       inkscape:collect="always"
       xlink:href="#linearGradient927"
       id="linearGradient981"
       x1="332"
       y1="189"
       x2="332"
       y2="211"
       gradientUnits="userSpaceOnUse"
       gradientTransform="translate(-1.9999985)" />
    <linearGradient
       inkscape:collect="always"
       id="linearGradient927">
      <stop
         style="stop-color:#ffffff;stop-opacity:1;"
         offset="0"
         id="stop923" />
      <stop
         id="stop933"
         offset="0.125"
         style="stop-color:#ffffff;stop-opacity:0.09803922" />
      <stop
         id="stop931"
         offset="0.92500001"
         style="stop-color:#ffffff;stop-opacity:0.09803922" />
      <stop
         style="stop-color:#ffffff;stop-opacity:0.49803922"
         offset="1"
         id="stop925" />
    </linearGradient>
    <clipPath
       clipPathUnits="userSpaceOnUse"
       id="clipPath1048">
      <path
         style="color:#000000;display:inline;overflow:visible;visibility:visible;opacity:1;fill:#46a926;fill-opacity:1;fill-rule:nonzero;stroke:none;stroke-width:2;stroke-miterlimit:4;stroke-dasharray:none;stroke-opacity:1;marker:none;enable-background:accumulate"
         d="m 331.8652,189 c -4.41209,0 -4.88682,0.45318 -4.8652,4.87419 V 198 202.12581 C 326.9783,206.54682 327.45311,207 331.8652,207 h 2.2696 C 338.54689,207 339,206.54688 339,202.12581 V 198 193.87419 C 339,189.45313 338.54688,189 334.13479,189 Z"
         id="path1050"
         inkscape:connector-curvature="0"
         sodipodi:nodetypes="scccssscsss" />
    </clipPath>
  </defs>
  <sodipodi:namedview
     pagecolor="#ffffff"
     bordercolor="#666666"
     borderopacity="1"
     objecttolerance="10"
     gridtolerance="10"
     guidetolerance="10"
     inkscape:pageopacity="0"
     inkscape:pageshadow="2"
     inkscape:window-width="1366"
     inkscape:window-height="703"
     id="namedview22"
     showgrid="false"
     showguides="false"
     inkscape:zoom="15.6742"
     inkscape:cx="9.1036195"
     inkscape:cy="12.056059"
     inkscape:window-x="0"
     inkscape:window-y="0"
     inkscape:window-maximized="1"
     inkscape:current-layer="svg20">
    <sodipodi:guide
       position="30.180451,6.3609023"
       orientation="-0.70710678,-0.70710678"
       id="guide851" />
  </sodipodi:namedview>
  <rect
     style="display:inline;fill:#f7f7f7;fill-opacity:1;stroke:#000000;stroke-width:1;stroke-linecap:round;stroke-linejoin:round;stroke-miterlimit:4;stroke-dasharray:none;stroke-dashoffset:1;stroke-opacity:0.4;enable-background:new"
     id="rect1037"
     width="9"
     height="4"
     x="7.5"
     y="18.5" />
  <path
     style="color:#000000;display:inline;overflow:visible;visibility:visible;fill:url(#linearGradient916);fill-opacity:1;fill-rule:nonzero;stroke:none;stroke-width:1;marker:none;enable-background:accumulate"
     d="m 13.13403,1.5 c 1.11158,0 1.98683,0.0256 2.70703,0.14648 0.72019,0.1209 1.3105,0.34863 1.74218,0.7793 0.43169,0.43067 0.65954,1.01974 0.7793,1.74024 0.11977,0.72049 0.14217,1.59669 0.13672,2.71093 V 13 15.125 c 0.005,1.1131 -0.017,1.989 -0.13672,2.70898 -0.11976,0.72051 -0.3476,1.30957 -0.7793,1.74024 -0.43169,0.43067 -1.02199,0.6584 -1.74218,0.7793 C 15.12086,20.47441 14.24561,20.5 13.13403,20.5 H 10.86449 C 9.75291,20.5 8.87812,20.4745 8.15942,20.35352 7.44072,20.23257 6.85319,20.00504 6.42309,19.57422 5.99299,19.14339 5.76649,18.55573 5.64574,17.83594 5.525,17.11615 5.49926,16.23881 5.49926,15.125 V 13 6.875 c 0,-1.11381 0.0257,-1.99115 0.14648,-2.71094 C 5.76649,3.44427 5.99299,2.85661 6.42309,2.42578 6.85319,1.99496 7.44072,1.76743 8.15942,1.64648 8.87812,1.52554 9.75291,1.5 10.86449,1.5 Z"
     id="path914"
     inkscape:connector-curvature="0"
     sodipodi:nodetypes="scccccccccsscccscscccss" />
  <path
     id="path1043"
     d="m 10.2857,8.85713 h 1.14286 v 5.12724 C 11.13624,13.7987 10.83472,13.63499 10.5424,13.48883 10.11383,13.27454 9.71787,13.06772 9.4732,12.86383 9.22853,12.65995 9.14284,12.5238 9.14284,12.28571 c 0.63118,0 1.14286,-0.51168 1.14286,-1.14286 0,-0.63118 -0.51168,-1.14286 -1.14286,-1.14286 -0.63117,0 -1.14285,0.51168 -1.14285,1.14286 v 1.14286 c 0,0.61905 0.34288,1.12576 0.74107,1.45758 0.39818,0.33183 0.8616,0.55358 1.29017,0.76787 0.42857,0.21428 0.8223,0.42111 1.06697,0.62499 0.24467,0.20389 0.33036,0.34004 0.33036,0.57813 -0.31657,0 -0.57143,0.25485 -0.57143,0.57143 v 1.14285 c 0,0.31657 0.25486,0.57143 0.57143,0.57143 h 1.14285 c 0.31658,0 0.57143,-0.25486 0.57143,-0.57143 v -1.14285 c 0,-0.31658 -0.25485,-0.57143 -0.57143,-0.57143 v -1.14286 c 0,-0.23809 0.0857,-0.37424 0.33036,-0.57813 0.24467,-0.20388 0.64063,-0.4107 1.0692,-0.62499 0.42857,-0.21429 0.88976,-0.43603 1.28794,-0.76786 0.3982,-0.33183 0.74108,-0.83854 0.74108,-1.45759 V 10.57142 9.42856 c 0,-0.31657 -0.25486,-0.57143 -0.57143,-0.57143 H 14.2857 c -0.31657,0 -0.57143,0.25486 -0.57143,0.57143 v 1.14286 c 0,0.31657 0.25486,0.57143 0.57143,0.57143 h 0.57143 c 0,0.23809 -0.0857,0.37424 -0.33036,0.57812 -0.24467,0.20389 -0.6384,0.41071 -1.06697,0.625 -0.29264,0.14633 -0.59511,0.30959 -0.88839,0.49554 V 8.85713 h 1.14286 L 11.99999,5.42856 Z"
     style="display:inline;opacity:0.2;fill:#ffffff;fill-opacity:1;stroke:none;stroke-width:2;stroke-linecap:round;stroke-linejoin:miter;stroke-miterlimit:4;stroke-dasharray:none;stroke-dashoffset:0;stroke-opacity:1;enable-background:new"
     inkscape:connector-curvature="0"
     sodipodi:nodetypes="cccsccsssscsccsssssscscscscsssssscccccccc" />
  <path
     sodipodi:nodetypes="cccsccsssscsccsssssscscscscsssssscccccccc"
     inkscape:connector-curvature="0"
     style="display:inline;fill:url(#linearGradient1041);fill-opacity:1;stroke:none;stroke-width:2;stroke-linecap:round;stroke-linejoin:miter;stroke-miterlimit:4;stroke-dasharray:none;stroke-dashoffset:0;stroke-opacity:1;enable-background:new"
     d="m 10.2857,7.85713 h 1.14286 v 5.12724 C 11.13624,12.7987 10.83472,12.63499 10.5424,12.48883 10.11383,12.27454 9.71787,12.06772 9.4732,11.86383 9.22853,11.65995 9.14284,11.5238 9.14284,11.28571 c 0.63118,0 1.14286,-0.51168 1.14286,-1.14286 0,-0.63118 -0.51168,-1.14286 -1.14286,-1.14286 -0.63117,0 -1.14285,0.51168 -1.14285,1.14286 v 1.14286 c 0,0.61905 0.34288,1.12576 0.74107,1.45758 0.39818,0.33183 0.8616,0.55358 1.29017,0.76787 0.42857,0.21428 0.8223,0.42111 1.06697,0.62499 0.24467,0.20389 0.33036,0.34004 0.33036,0.57813 -0.31657,0 -0.57143,0.25485 -0.57143,0.57143 v 1.14285 c 0,0.31657 0.25486,0.57143 0.57143,0.57143 h 1.14285 c 0.31658,0 0.57143,-0.25486 0.57143,-0.57143 v -1.14285 c 0,-0.31658 -0.25485,-0.57143 -0.57143,-0.57143 v -1.14286 c 0,-0.23809 0.0857,-0.37424 0.33036,-0.57813 0.24467,-0.20388 0.64063,-0.4107 1.0692,-0.62499 0.42857,-0.21429 0.88976,-0.43603 1.28794,-0.76786 0.3982,-0.33183 0.74108,-0.83854 0.74108,-1.45759 V 9.57142 8.42856 c 0,-0.31657 -0.25486,-0.57143 -0.57143,-0.57143 H 14.2857 c -0.31657,0 -0.57143,0.25486 -0.57143,0.57143 v 1.14286 c 0,0.31657 0.25486,0.57143 0.57143,0.57143 h 0.57143 c 0,0.23809 -0.0857,0.37424 -0.33036,0.57812 -0.24467,0.20389 -0.6384,0.41071 -1.06697,0.625 -0.29264,0.14633 -0.59511,0.30959 -0.88839,0.49554 V 7.85713 h 1.14286 L 11.99999,4.42856 Z"
     id="path1039" />
  <path
     id="path1085"
     d="M 10.86523,1.5 C 9.75365,1.5 8.8784,1.5256 8.1582,1.64648 7.43801,1.76738 6.8477,1.99511 6.41602,2.42578 5.98433,2.85645 5.75648,3.44552 5.63672,4.16602 5.51695,4.88651 5.49455,5.76271 5.5,6.87695 V 13 15.125 c -0.005,1.1131 0.017,1.989 0.13672,2.70898 0.11976,0.72051 0.3476,1.30957 0.7793,1.74024 0.43169,0.43067 1.02199,0.6584 1.74218,0.7793 C 8.8784,20.47441 9.75365,20.5 10.86523,20.5 h 2.26954 c 1.11158,0 1.98637,-0.0255 2.70507,-0.14648 0.7187,-0.12095 1.30623,-0.34848 1.73633,-0.7793 0.4301,-0.43083 0.6566,-1.01849 0.77735,-1.73828 C 18.47426,17.11615 18.5,16.23881 18.5,15.125 V 13 6.875 C 18.5,5.76119 18.4743,4.88385 18.35352,4.16406 18.23277,3.44427 18.00627,2.85661 17.57617,2.42578 17.14607,1.99496 16.55854,1.76743 15.83984,1.64648 15.12114,1.52554 14.24635,1.5 13.13477,1.5 Z"
     style="color:#000000;display:inline;overflow:visible;visibility:visible;opacity:0.4;fill:none;fill-opacity:1;fill-rule:nonzero;stroke:#000000;stroke-width:1;stroke-opacity:1;marker:none;enable-background:accumulate"
     inkscape:connector-curvature="0"
     sodipodi:nodetypes="scccccccccsscccscscccss" />
  <path
     sodipodi:nodetypes="scccssscsss"
     inkscape:connector-curvature="0"
     id="path935"
     d="m 331.8652,189 c -4.41209,0 -4.88682,0.45318 -4.8652,4.87419 V 200 202.12581 C 326.9783,206.54682 327.45311,207 331.8652,207 h 2.2696 C 338.54689,207 339,206.54688 339,202.12581 V 200 193.87419 C 339,189.45313 338.54688,189 334.13479,189 Z"
     style="color:#000000;display:inline;overflow:visible;visibility:visible;opacity:0.4;fill:none;fill-opacity:1;fill-rule:nonzero;stroke:url(#linearGradient981);stroke-width:2;stroke-miterlimit:4;stroke-dasharray:none;stroke-opacity:1;marker:none;enable-background:accumulate"
     clip-path="url(#clipPath1048)"
     transform="translate(-321,-187)" />
</svg>
