<?xml version="1.0" encoding="UTF-8" standalone="no"?>
<!-- Created with Inkscape (http://www.inkscape.org/) -->

<svg
   width="256"
   height="256"
   viewBox="0 0 67.733332 67.733335"
   version="1.1"
   id="svg885"
   inkscape:version="1.1.2 (0a00cf5339, 2022-02-04)"
   sodipodi:docname="system-file-manager.svg"
   xmlns:inkscape="http://www.inkscape.org/namespaces/inkscape"
   xmlns:sodipodi="http://sodipodi.sourceforge.net/DTD/sodipodi-0.dtd"
   xmlns:xlink="http://www.w3.org/1999/xlink"
   xmlns="http://www.w3.org/2000/svg"
   xmlns:svg="http://www.w3.org/2000/svg">
  <sodipodi:namedview
     id="namedview887"
     pagecolor="#ffffff"
     bordercolor="#666666"
     borderopacity="1.0"
     inkscape:pageshadow="2"
     inkscape:pageopacity="0.0"
     inkscape:pagecheckerboard="0"
     inkscape:document-units="px"
     showgrid="false"
     units="px"
     inkscape:zoom="0.70710678"
     inkscape:cx="-2.1213203"
     inkscape:cy="45.254834"
     inkscape:window-width="1920"
     inkscape:window-height="995"
     inkscape:window-x="0"
     inkscape:window-y="0"
     inkscape:window-maximized="1"
     inkscape:current-layer="svg885" />
  <defs
     id="defs882">
    <linearGradient
       inkscape:collect="always"
       id="linearGradient1964">
      <stop
         style="stop-color:#ffffff;stop-opacity:1;"
         offset="0"
         id="stop1960" />
      <stop
         style="stop-color:#efefef;stop-opacity:1"
         offset="1"
         id="stop1962" />
    </linearGradient>
    <linearGradient
       inkscape:collect="always"
       id="linearGradient1473">
      <stop
         style="stop-color:#000000;stop-opacity:1;"
         offset="0"
         id="stop1469" />
      <stop
         style="stop-color:#000000;stop-opacity:0;"
         offset="1"
         id="stop1471" />
    </linearGradient>
    <linearGradient
       inkscape:collect="always"
       id="linearGradient979">
      <stop
         style="stop-color:#ffffff;stop-opacity:1;"
         offset="0"
         id="stop975" />
      <stop
         style="stop-color:#ffffff;stop-opacity:0;"
         offset="1"
         id="stop977" />
    </linearGradient>
    <radialGradient
       inkscape:collect="always"
       xlink:href="#linearGradient979"
       id="radialGradient981"
       cx="33.866673"
       cy="-6.5531745"
       fx="33.866673"
       fy="-6.5531745"
       r="29.633334"
       gradientTransform="matrix(1,0,0,0.1830357,0,18.265196)"
       gradientUnits="userSpaceOnUse" />
    <radialGradient
       inkscape:collect="always"
       xlink:href="#linearGradient979"
       id="radialGradient1211"
       cx="33.866669"
       cy="-7.944222"
       fx="33.866669"
       fy="-7.944222"
       r="29.633333"
       gradientTransform="matrix(1,0,0,0.2633929,0,10.426828)"
       gradientUnits="userSpaceOnUse" />
    <linearGradient
       inkscape:collect="always"
       xlink:href="#linearGradient1473"
       id="linearGradient1475"
       x1="25.929169"
       y1="23.8125"
       x2="25.929169"
       y2="6.3500004"
       gradientUnits="userSpaceOnUse" />
    <linearGradient
       inkscape:collect="always"
       xlink:href="#linearGradient1964"
       id="linearGradient1966"
       x1="22.598721"
       y1="27.325899"
       x2="21.705753"
       y2="24.944649"
       gradientUnits="userSpaceOnUse"
       gradientTransform="matrix(1.7777778,0,0,1.7777778,-6.3088223,-18.946043)" />
    <filter
       inkscape:collect="always"
       style="color-interpolation-filters:sRGB"
       id="filter4497"
       x="-0.011571429"
       y="-0.012461539"
       width="1.0231429"
       height="1.0249231">
      <feGaussianBlur
         inkscape:collect="always"
         stdDeviation="0.28575"
         id="feGaussianBlur4499" />
    </filter>
    <linearGradient
       inkscape:collect="always"
       id="linearGradient3944">
      <stop
         style="stop-color:#3daee9;stop-opacity:1"
         offset="0"
         id="stop3940" />
      <stop
         style="stop-color:#8ccef2;stop-opacity:1"
         offset="1"
         id="stop3942" />
    </linearGradient>
    <linearGradient
       inkscape:collect="always"
       xlink:href="#linearGradient3944"
       id="linearGradient1020"
       x1="33.071209"
       y1="16.958502"
       x2="33.071209"
       y2="61.408501"
       gradientUnits="userSpaceOnUse" />
  </defs>
  <path
     d="m 14.550538,6.350001 c -9.3579231,0 -10.317199,0.528942 -10.317199,9.868133 v 11.013281 16.04863 7.805208 c 0,9.339193 0.9592759,10.29808 10.317199,10.29808 h 38.632279 c 9.357915,0 10.317189,-0.958887 10.317189,-10.29808 v -7.805208 -20.281964 -1.5875 c 0,-9.339191 -0.959274,-10.827247 -10.317189,-10.827247 H 30.162505 L 25.929172,6.350001 Z"
     style="color:#000000;display:inline;overflow:visible;visibility:visible;opacity:0.3;fill:#000000;fill-opacity:1;fill-rule:nonzero;stroke:none;stroke-width:0.264583;marker:none;filter:url(#filter4497);enable-background:accumulate"
     id="path8372" />
  <path
     d="m 14.550538,6.3500003 c -9.357926,0 -10.3172018,0.5289418 -10.3172018,9.8681357 v 11.56322 H 63.500005 v -6.370772 c 0,-9.339193 -0.959274,-10.82725 -10.317189,-10.82725 H 30.162505 L 25.929172,6.3500003 Z"
     style="color:#000000;display:inline;overflow:visible;visibility:visible;fill:#147eb8;fill-opacity:1;fill-rule:nonzero;stroke:none;stroke-width:0.264583;marker:none;enable-background:accumulate"
     id="path6624"
     sodipodi:nodetypes="ssccssccs" />
  <path
     d="M 14.550538,6.35 C 5.192612,6.35 4.233337,6.878942 4.233337,16.218136 v 11.298533 h 59.266669 v -6.106085 c 0,-9.339193 -0.95927,-10.82725 -10.31719,-10.82725 H 30.162505 L 25.929172,6.35 Z"
     style="color:#000000;display:inline;overflow:visible;visibility:visible;opacity:0.4;fill:url(#linearGradient1475);fill-opacity:1;fill-rule:nonzero;stroke:none;stroke-width:0.264583;marker:none;enable-background:accumulate"
     id="path6490"
     sodipodi:nodetypes="ssccssccs" />
  <path
     d="m 14.550535,6.3500003 c -9.3579254,0 -10.3172015,0.529643 -10.3172015,9.8812197 v 0.529868 c 0,-9.3515769 0.9592761,-9.8812198 10.3172015,-9.8812198 h 11.378634 l 4.233333,4.2389458 h 23.020311 c 9.357916,0 10.317189,1.490028 10.317189,10.841606 v -0.529867 c 0,-9.351579 -0.959273,-10.841607 -10.317189,-10.841607 H 30.162502 L 25.929169,6.3500003 Z"
     style="color:#000000;display:inline;overflow:visible;visibility:visible;opacity:0.4;fill:url(#radialGradient1211);fill-opacity:1;fill-rule:nonzero;stroke:none;stroke-width:0.264758;marker:none;enable-background:accumulate"
     id="path7419" />
  <path
     d="m 54.840584,16.404454 c -0.520936,0.0016 -1.073087,0.01043 -1.657779,0.02479 h -21.498946 -4.2354 -12.897921 c -9.3579255,2e-6 -10.3172018,0.958503 -10.3172018,10.29389 v 0.528951 c 0,-9.335389 0.9592763,-10.293887 10.3172018,-10.293887 h 12.897921 4.2354 21.498946 c 9.355082,-0.230169 10.3172,0.958498 10.3172,10.293887 v -0.528951 c 0,-8.751928 -0.845386,-10.343529 -8.659421,-10.318682 z"
     style="color:#000000;display:inline;overflow:visible;visibility:visible;opacity:0.1;fill:#000000;fill-opacity:1;fill-rule:nonzero;stroke:none;stroke-width:0.264529;marker:none;enable-background:accumulate"
     id="path7287" />
  <path
     d="m 14.550377,16.958502 c -9.3579251,0 -10.3170408,0.958569 -10.3170408,10.292474 v 23.839885 c 0,9.333903 0.9591157,10.292475 10.3170408,10.292475 h 38.632598 c 9.357915,0 10.31703,-0.958572 10.31703,-10.292475 V 27.250976 c 0,-9.333905 -0.961949,-10.522604 -10.31703,-10.292474 H 31.683859 27.448454 Z"
     style="color:#000000;display:inline;overflow:visible;visibility:visible;fill:url(#linearGradient1020);fill-opacity:1;fill-rule:nonzero;stroke:none;stroke-width:0.264508;marker:none;enable-background:accumulate"
     id="path6251" />
  <path
     d="m 4.2333362,50.53542 v 0.530177 c 0,9.357022 0.959276,10.31774 10.3172018,10.31774 h 38.632278 c 9.357915,0 10.317189,-0.960718 10.317189,-10.31774 V 50.53542 c 0,9.357022 -0.959274,10.31774 -10.317189,10.31774 H 14.550538 c -9.3579258,0 -10.3172018,-0.960718 -10.3172018,-10.31774 z"
     style="color:#000000;display:inline;overflow:visible;visibility:visible;opacity:0.2;fill:#000000;fill-opacity:1;fill-rule:nonzero;stroke:none;stroke-width:0.264835;marker:none;enable-background:accumulate"
     id="path7143" />
  <path
     d="m 54.840584,16.933724 c -0.520936,0.0016 -1.073087,0.01042 -1.657779,0.02479 h -15.0828 -2.050521 -4.365625 -2.050521 -2.184879 -12.897921 c -9.3579258,4e-6 -10.3172018,0.958504 -10.3172018,10.29389 v 0.528952 c 0,-9.335393 0.959284,-10.293886 10.3172018,-10.293886 h 15.0828 6.416146 2.050521 15.0828 c 9.357916,0 10.3172,0.958493 10.3172,10.293886 v -0.528952 c 0,-8.751927 -0.845386,-10.34353 -8.659421,-10.31868 z"
     style="color:#000000;display:inline;overflow:visible;visibility:visible;fill:url(#radialGradient981);fill-opacity:1;fill-rule:nonzero;stroke:none;stroke-width:0.264529;marker:none;enable-background:accumulate"
     id="path6746" />
  <path
     d="M 63.500005,43.920837 46.566671,60.85417 h 6.616145 c 9.357915,0 10.317189,-0.958887 10.317189,-10.298081 z"
     style="color:#000000;display:inline;overflow:visible;visibility:visible;opacity:0.05;fill:#ffffff;fill-opacity:1;fill-rule:nonzero;stroke:none;stroke-width:0.264583;marker:none;enable-background:accumulate"
     id="path7023" />
  <path
     id="rect4864"
     style="opacity:0.3;stroke-width:2.82222;stroke-linejoin:round"
     d="m 26.458334,25.929167 h 14.816667 c 1.172634,0 2.116666,0.944032 2.116666,2.116667 0,1.172629 -0.944037,2.116666 -2.116666,2.116666 H 26.458334 c -1.172635,0 -2.116667,-0.944037 -2.116667,-2.116666 0,-1.172635 0.944032,-2.116667 2.116667,-2.116667 z"
     sodipodi:nodetypes="sssssss" />
  <path
     id="rect5100"
     style="fill:url(#linearGradient1966);fill-opacity:1;stroke-width:2.82222;stroke-linejoin:round"
     d="m 26.458334,25.4 h 14.816667 c 1.172634,0 2.116666,0.944032 2.116666,2.116667 0,1.172634 -0.944032,2.116666 -2.116666,2.116666 H 26.458334 c -1.172635,0 -2.116667,-0.944032 -2.116667,-2.116666 0,-1.172635 0.944032,-2.116667 2.116667,-2.116667 z"
     sodipodi:nodetypes="sssssss" />
  <path
     id="path3725"
     style="opacity:0.3;stroke-width:0.746712;stroke-linejoin:round"
     d="m 24.35872,27.252083 c -0.01074,0.08674 -0.01705,0.174842 -0.01705,0.264583 0,1.172631 0.944032,2.116667 2.116667,2.116667 h 14.816666 c 1.172631,0 2.116667,-0.944036 2.116667,-2.116667 0,-0.08974 -0.0063,-0.177839 -0.01704,-0.264583 -0.129569,1.046708 -1.016725,1.852083 -2.099614,1.852083 h -14.81667 c -1.082891,0 -1.970046,-0.805375 -2.099613,-1.852083 z" />
  <path
     id="path3483"
     style="fill:#ffffff;fill-opacity:1;stroke-width:0.746712;stroke-linejoin:round"
     d="m 26.458333,25.4 c -1.172635,0 -2.116667,0.944032 -2.116667,2.116666 0,0.08974 0.0063,0.17784 0.01705,0.264584 0.129567,-1.046711 1.016721,-1.852084 2.099613,-1.852084 h 14.816667 c 1.082892,0 1.970048,0.805373 2.099615,1.852084 0.01074,-0.08674 0.01704,-0.174842 0.01704,-0.264584 C 43.391651,26.344032 42.44762,25.4 41.274984,25.4 Z" />
</svg>
