<?xml version="1.0" encoding="UTF-8" standalone="no"?>
<!-- Created with Inkscape (http://www.inkscape.org/) -->

<svg
   width="48"
   height="48"
   viewBox="0 0 12.7 12.7"
   version="1.1"
   id="svg5"
   inkscape:version="1.1.2 (0a00cf5339, 2022-02-04)"
   sodipodi:docname="applications-graphics.svg"
   xmlns:inkscape="http://www.inkscape.org/namespaces/inkscape"
   xmlns:sodipodi="http://sodipodi.sourceforge.net/DTD/sodipodi-0.dtd"
   xmlns:xlink="http://www.w3.org/1999/xlink"
   xmlns="http://www.w3.org/2000/svg"
   xmlns:svg="http://www.w3.org/2000/svg">
  <sodipodi:namedview
     id="namedview7"
     pagecolor="#ffffff"
     bordercolor="#666666"
     borderopacity="1.0"
     inkscape:pageshadow="2"
     inkscape:pageopacity="0.0"
     inkscape:pagecheckerboard="0"
     inkscape:document-units="px"
     showgrid="false"
     units="px"
     height="48px"
     showguides="true"
     inkscape:zoom="5.7820711"
     inkscape:cx="23.866881"
     inkscape:cy="30.006549"
     inkscape:window-width="1920"
     inkscape:window-height="1012"
     inkscape:window-x="0"
     inkscape:window-y="0"
     inkscape:window-maximized="1"
     inkscape:current-layer="svg5" />
  <defs
     id="defs2">
    <linearGradient
       inkscape:collect="always"
       id="linearGradient1871">
      <stop
         style="stop-color:#ffffff;stop-opacity:1;"
         offset="0"
         id="stop1867" />
      <stop
         style="stop-color:#ffffff;stop-opacity:0.1"
         offset="0.12"
         id="stop2515" />
      <stop
         style="stop-color:#ffffff;stop-opacity:0.102"
         offset="0.89999998"
         id="stop2581" />
      <stop
         style="stop-color:#ffffff;stop-opacity:0.502"
         offset="1"
         id="stop1869" />
    </linearGradient>
    <linearGradient
       inkscape:collect="always"
       xlink:href="#linearGradient1871"
       id="linearGradient867"
       x1="10.294504"
       y1="0.17081539"
       x2="10.294504"
       y2="11.812482"
       gradientUnits="userSpaceOnUse"
       gradientTransform="translate(-6.7661995,0.35835127)" />
  </defs>
  <path
     d="m 3.6136175,0.52916666 c -0.6937644,0 -1.2400363,0.013253 -1.6895264,0.0758653 C 1.4745984,0.6676427 1.1067826,0.78508171 0.83735475,1.0081286 0.56792955,1.2311758 0.42572395,1.536256 0.35097645,1.9094069 c -0.07475,0.3731514 -0.0893418,0.8274436 -0.0859419,1.4045173 v 3.3006284 3.3022071 c -0.00336,0.5761873 0.011271,1.0302483 0.085942,1.4029983 0.074747,0.373153 0.2169531,0.678233 0.4863783,0.90128 0.26942785,0.223046 0.63724365,0.340487 1.08673635,0.403095 0.4494954,0.06261 0.995762,0.07587 1.6895263,0.07587 h 5.473218 c 0.693772,0 1.2397525,-0.01323 1.6883165,-0.07587 0.448558,-0.06264 0.81525,-0.180472 1.083683,-0.403601 0.268438,-0.223126 0.4098,-0.527989 0.485158,-0.900774 0.07536,-0.372779 0.09142,-0.826151 0.09142,-1.4029983 V 6.6145526 3.3124068 c 0,-0.5768474 -0.01609,-1.0302168 -0.09142,-1.4029999 C 12.268635,1.5366243 12.12727,1.2317621 11.858832,1.0086345 11.590399,0.7855069 11.223708,0.66766995 10.775146,0.60503196 10.326588,0.54239371 9.7806025,0.52916666 9.0868355,0.52916666 Z"
     style="color:#000000;font-style:normal;font-variant:normal;font-weight:normal;font-stretch:normal;font-size:medium;line-height:normal;font-family:sans-serif;font-variant-ligatures:normal;font-variant-position:normal;font-variant-caps:normal;font-variant-numeric:normal;font-variant-alternates:normal;font-feature-settings:normal;text-indent:0;text-align:start;text-decoration:none;text-decoration-line:none;text-decoration-style:solid;text-decoration-color:#000000;letter-spacing:normal;word-spacing:normal;text-transform:none;writing-mode:lr-tb;direction:ltr;text-orientation:mixed;dominant-baseline:auto;baseline-shift:baseline;text-anchor:start;white-space:normal;shape-padding:0;clip-rule:nonzero;display:inline;overflow:visible;visibility:visible;opacity:0.1;isolation:auto;mix-blend-mode:normal;color-interpolation:sRGB;color-interpolation-filters:linearRGB;solid-color:#000000;solid-opacity:1;vector-effect:none;fill:#000000;fill-opacity:1;fill-rule:nonzero;stroke:none;stroke-width:0.529167;stroke-linecap:butt;stroke-linejoin:miter;stroke-miterlimit:4;stroke-dasharray:none;stroke-dashoffset:0;stroke-opacity:1;marker:none;color-rendering:auto;image-rendering:auto;shape-rendering:auto;text-rendering:auto;enable-background:accumulate"
     id="path1178" />
  <path
     d="m 3.5282515,0.396875 c -2.64878565,0 -3.14501435,0.2398051 -3.13109725,2.5792589 v 3.3738528 3.3739164 c -0.013944,2.3394539 0.4823116,2.5792589 3.13109725,2.5792589 h 5.643775 c 2.6481235,0 3.1310915,-0.239779 3.1310915,-2.5792589 V 6.3499867 2.9761339 c 0,-2.33948026 -0.482968,-2.5792589 -3.1310945,-2.5792589 z"
     style="color:#000000;display:inline;overflow:visible;visibility:visible;fill:#4d4d4d;fill-opacity:1;fill-rule:nonzero;stroke:none;stroke-width:0.264583;marker:none;enable-background:accumulate"
     id="path908" />
  <path
     id="path1102"
     style="opacity:0.1;fill:#000000;fill-rule:evenodd;stroke-width:1.00006"
     d="M 7.6997886,1.7725015 C 7.3368305,1.7690915 6.9717883,1.9439154 6.7716797,2.2592935 6.466763,2.7398214 6.6208045,3.4271494 7.1013754,3.7320719 7.5819566,4.0369832 8.2692206,3.8834799 8.5741536,3.4028929 8.8790656,2.9223114 8.7250296,2.2350367 8.2444576,1.9301146 8.0792766,1.8253012 7.8899096,1.7742864 7.6997886,1.7725015 Z M 4.1542685,2.3016682 C 3.7913035,2.2982606 3.4267807,2.473089 3.2266764,2.78846 2.9217769,3.2690309 3.0752844,3.9563123 3.5558553,4.2612385 4.0363725,4.566143 4.7237076,4.4126355 5.0286336,3.9320596 5.3335436,3.4514886 5.1800152,2.764202 4.6994549,2.4592813 4.5342586,2.3544703 4.344393,2.303453 4.1542685,2.3016682 Z m 7.1139065,0.74104 c -0.07027,0.00322 -0.138423,0.036519 -0.183969,0.097152 L 10.64444,3.725354 11.24337,4.1754558 11.683136,3.5899617 c 0.08097,-0.1077918 0.05922,-0.2606159 -0.04858,-0.341581 L 11.425788,3.0912841 C 11.378627,3.0558601 11.322826,3.040206 11.268175,3.0427082 Z M 10.497679,3.9206907 8.8848569,6.0678466 9.4843039,6.5179483 11.096609,4.3707924 Z M 2.1177003,5.4239582 C 1.7633839,5.4288847 1.4107661,5.6028882 1.2154298,5.9107502 0.91053057,6.3913209 1.0645548,7.0786023 1.5451254,7.3835285 2.0256425,7.6884327 2.7129778,7.5344089 3.0179037,7.0538328 3.3228135,6.5732621 3.1687734,5.8859752 2.688208,5.5810545 2.5155032,5.4714794 2.3164631,5.4211941 2.1177003,5.4239582 Z m 6.3552956,0.6976319 c -0.052255,0.00523 -0.104414,0.018264 -0.147794,0.05271 l -0.485759,0.3855061 c -0.0163,0.012943 -0.0309,0.028306 -0.04341,0.044958 -0.04956,0.065978 -0.06027,0.1487176 -0.03669,0.2216918 C 7.3076191,6.8407783 6.6985883,7.1499083 6.3883688,7.7070228 5.7927994,8.7765509 6.2611714,10.39729 4.9745016,10.114628 6.6752107,11.416111 9.0042209,9.4730603 9.0212829,8.2336059 c 0.0025,-0.1795399 -0.02241,-0.3390726 -0.06718,-0.4805911 0.116743,0.027182 0.238408,-0.034802 0.28267,-0.1498615 l 0.225309,-0.5844604 c 0.03927,-0.1020786 0.0055,-0.2177582 -0.08216,-0.283187 L 8.6228619,6.1701657 C 8.5784719,6.1370297 8.5252571,6.116364 8.4729999,6.1215897 Z M 3.3786051,9.1281246 C 3.0272657,9.1330246 2.6783168,9.3054816 2.4846029,9.6107823 2.1822363,10.087344 2.3345033,10.768691 2.811198,11.071158 3.2879197,11.373631 3.9691914,11.22113 4.2715739,10.744563 4.5739299,10.267947 4.4216847,9.5866553 3.9449788,9.2841876 3.7736762,9.1754886 3.5756983,9.1253836 3.3786051,9.1281246 Z"
     sodipodi:nodetypes="ccccccsccccscccccccccccccsccccssccccccccccccsscccccc" />
  <path
     d="M 7.7632646,6.5644993 C 7.305726,6.52613 6.6186335,6.8389294 6.2824462,7.4426792 5.6868766,8.5122069 6.1550033,10.132709 4.8683335,9.8500463 6.5690426,11.15153 8.8981166,9.2088186 8.9151786,7.9693638 8.9188716,7.7012377 8.8618616,7.4772811 8.7680956,7.2922053 Z"
     style="fill:#1b90ff;fill-rule:evenodd;stroke-width:1.00006"
     id="path1204" />
  <path
     d="M 5.1040664,10.007686 C 6.7761265,10.97564 8.8985986,9.1519896 8.9149156,7.9689822 8.9186096,7.7008561 8.8615986,7.4768996 8.7678326,7.2918238 L 7.7952016,6.5874517 C 7.5368346,6.7360065 7.2957208,6.94187 7.1106556,7.2050796 6.2428937,8.4392189 6.6079213,10.485683 5.0673277,9.9735093 c 0.0122,0.01153 0.024453,0.02291 0.036742,0.03417 z"
     style="fill:#a197ff;fill-rule:evenodd;stroke-width:1.00006"
     id="path1404" />
  <path
     d="M 5.8258265,10.259635 C 7.3291286,10.477681 8.9008906,8.9864816 8.9148696,7.9690965 8.9185636,7.7009704 8.8615526,7.4770139 8.7677866,7.2919381 L 7.8025446,6.5929344 c -0.207921,0.1806003 -0.3906315,0.40773 -0.5162779,0.6758294 -0.6187972,1.3203531 0.072085,3.2069342 -1.4802342,2.9779552 0.00659,0.0043 0.013163,0.0086 0.019751,0.01291 z"
     style="fill:#dd61fa;fill-rule:evenodd;stroke-width:1.00006"
     id="path1604" />
  <path
     d="m 7.6675486,9.7705293 c 0.722284,-0.4834507 1.239348,-1.2198414 1.247321,-1.801433 0.0037,-0.2681259 -0.05332,-0.4920824 -0.147083,-0.6771582 L 7.8094006,6.5978773 c -0.10522,0.1808237 -0.184767,0.3839019 -0.223717,0.6023202 -0.1700232,0.9533901 0.345186,2.0077691 0.08182,2.5703318 z"
     style="fill:#fa6196;fill-rule:evenodd;stroke-width:1.00006"
     id="path1804" />
  <path
     d="m 8.7681166,8.5468089 c 0.09246,-0.199305 0.144558,-0.3959253 0.147062,-0.5774451 0.0037,-0.2681261 -0.05332,-0.4920827 -0.147083,-0.6771585 L 7.8580246,6.6331187 c 0.0067,0.049518 0.01598,0.099108 0.0282,0.1485231 0.175811,0.7110161 0.834861,1.286973 0.881901,1.7651301 z"
     style="fill:#f1a443;fill-rule:evenodd;stroke-width:1.00006"
     id="path2004" />
  <path
     d="M 10.391683,3.656347 10.99081,4.1063678 9.3781476,6.2533512 8.7790216,5.8033304 Z M 8.5167946,5.9057091 9.2740456,6.47104 c 0.08765,0.065429 0.121079,0.1811737 0.08181,0.2832524 l -0.224851,0.5845405 c -0.0484,0.1258281 -0.189646,0.1885952 -0.315469,0.1401953 -0.0211,-0.00806 -0.04094,-0.019066 -0.05899,-0.032625 l -1.017723,-0.764441 c -0.107792,-0.080966 -0.12954,-0.2339925 -0.04858,-0.3417843 0.01251,-0.016653 0.02706,-0.031596 0.04336,-0.044538 l 0.485382,-0.385473 c 0.08676,-0.068893 0.209042,-0.070723 0.29782,-0.00445 z M 10.538296,3.4611567 10.978095,2.8756409 c 0.08097,-0.1077917 0.233986,-0.1295442 0.341784,-0.048575 l 0.208795,0.1568321 c 0.107792,0.080965 0.12954,0.2339925 0.04857,0.3417843 L 11.137447,3.911198 Z"
     style="fill:#ffffff;fill-opacity:1;stroke-width:3.4444"
     id="path1082" />
  <path
     d="M 10.391683,3.656347 10.990809,4.1063678 9.3781466,6.2533512 8.7790206,5.8033304 Z M 8.5167946,5.9057091 9.2740446,6.47104 c 0.08765,0.065429 0.12108,0.1811737 0.08181,0.2832524 l -0.22485,0.5845405 c -0.0484,0.1258281 -0.189647,0.1885952 -0.315469,0.1401953 -0.0211,-0.00806 -0.04094,-0.019066 -0.05899,-0.032625 l -1.017723,-0.764441 c -0.107792,-0.080966 -0.12954,-0.2339925 -0.04857,-0.3417843 0.01251,-0.016653 0.02706,-0.031596 0.04336,-0.044538 l 0.485381,-0.3854731 c 0.08676,-0.068893 0.209043,-0.070723 0.297821,-0.00445 z M 10.538296,3.4611567 10.978094,2.8756409 c 0.08097,-0.1077917 0.233987,-0.1295442 0.341784,-0.048575 l 0.208795,0.1568321 c 0.107792,0.080965 0.12954,0.2339925 0.04857,0.3417843 L 11.137445,3.911198 Z"
     style="fill:#828282;fill-opacity:1;stroke-width:3.4444"
     id="path958" />
  <path
     d="M 8.5740276,3.1381761 C 8.2690946,3.6187631 7.5817766,3.7724301 7.1011949,3.4675187 6.6206241,3.1625963 6.4669409,2.4752672 6.7718577,1.9947392 7.0767852,1.514163 7.7641096,1.3604851 8.2446376,1.6653967 c 0.48057,0.3049221 0.634254,0.9922514 0.329342,1.4728329 z"
     style="fill:#f35b5b;stroke-width:1.6078"
     id="path2971" />
  <path
     d="M 5.0285196,3.6673602 C 4.7235936,4.1479362 4.0362902,4.3016 3.5557731,3.9966953 3.0752021,3.6917692 2.921533,3.0044658 3.2264325,2.523895 3.5313532,2.0433295 4.2186619,1.8896551 4.6992325,2.1945598 5.1797929,2.4994805 5.3334726,3.1867892 5.0285626,3.6673602 Z"
     style="fill:#56a913;stroke-width:1.00847"
     id="path2277" />
  <path
     d="M 3.017685,6.7894422 C 2.7127591,7.2700183 2.0254563,7.4236818 1.5449392,7.1187775 1.0643686,6.8138512 0.91069972,6.1265486 1.2155989,5.6459779 1.5205141,5.1654129 2.2078276,5.0117385 2.6883981,5.316643 3.1689635,5.6215636 3.3226379,6.3088716 3.017728,6.7894422 Z"
     style="fill:#3f90dc;stroke-width:1.00847"
     id="path2392" />
  <path
     d="M 4.2714241,10.480015 C 3.9690416,10.956582 3.287631,11.109069 2.8109092,10.806597 2.3342145,10.50413 2.18196,9.8226973 2.4843266,9.3461356 2.7867091,8.8695689 3.4681197,8.7170809 3.944788,9.0195476 4.4214939,9.3220156 4.5737375,10.003447 4.2713815,10.480063 Z"
     style="fill:#f1a443;stroke-width:1.00006"
     id="path2507" />
  <path
     d="m 3.5283045,0.52916666 c -1.3204001,0 -2.0824054,0.0730996 -2.4830534,0.38447265 C 0.84492715,1.0693257 0.71780015,1.2849868 0.63649105,1.6174724 0.55518455,1.9499578 0.52608035,2.3953556 0.52951995,2.975529 v 3.3744709 3.374471 c -0.00347,0.5801731 0.025665,1.0255711 0.1069711,1.3580571 0.081309,0.332483 0.2084361,0.548142 0.40876005,0.703834 0.4006506,0.311369 1.1626533,0.384471 2.4830534,0.384471 h 5.643584 c 1.3200665,0 2.0783065,-0.0732 2.4773675,-0.384471 0.199527,-0.155639 0.326212,-0.371637 0.408244,-0.70435 0.08203,-0.332714 0.11317,-0.77774 0.11317,-1.3580579 V 6.3499999 2.9760458 c 0,-0.5803182 -0.03114,-1.0253432 -0.11317,-1.3580567 C 11.975468,1.2852757 11.848786,1.0692765 11.649256,0.91363931 11.250195,0.60236523 10.491958,0.52916666 9.1718885,0.52916666 Z m 0.635619,0.29042148 c 1.838159,2.196e-4 3.680521,8.9958e-4 5.51646,0.0144701 0.5669905,0.0219419 1.1811815,-0.0390792 1.6996375,0.24649646 0.342924,0.1839457 0.409739,0.5953985 0.468188,0.9430952 0.04644,0.5828474 0.02421,1.1753393 0.03669,1.7647498 0.006,2.2435428 0.02037,4.4897126 -0.02119,6.7329223 -0.04273,0.392438 -0.100899,0.874657 -0.475938,1.096056 -0.424789,0.219262 -0.919562,0.239826 -1.3885465,0.252182 -2.513472,0.01794 -5.033512,0.0223 -7.5468263,-0.0047 C 2.0348404,11.834706 1.5870675,11.801366 1.2266309,11.568281 0.90132035,11.30492 0.86658065,10.846659 0.82872135,10.458788 0.79506635,8.0779127 0.80660225,5.695102 0.81477785,3.3129712 0.84115675,2.6829256 0.74985435,2.0165125 1.0013303,1.4185133 1.1790377,1.0190665 1.6537214,0.92640043 2.0436431,0.87436059 2.7478793,0.79059827 3.4570045,0.83546102 4.1639265,0.81958338 Z"
     style="color:#000000;display:inline;overflow:visible;visibility:visible;fill:url(#linearGradient867);fill-opacity:1;fill-rule:nonzero;stroke:none;stroke-width:0.264583;marker:none;enable-background:accumulate"
     id="path1316" />
  <path
     d="m 3.5283045,0.26458333 c -1.3284091,0 -2.1391691,0.0468905 -2.64536475,0.44028307 -0.2530951,0.19669653 -0.4132606,0.4796285 -0.5038539,0.8500774 -0.090596,0.370449 -0.1177132,0.8325826 -0.1142074,1.4221354 v 3.3729207 3.3739542 c -0.00347,0.5889439 0.02368,1.0509189 0.1142074,1.4211029 0.090593,0.370448 0.2507588,0.65338 0.5038539,0.850077 0.50619825,0.393393 1.31695565,0.440282 2.64536475,0.440282 h 5.643687 c 1.3280755,0 2.1357325,-0.0468 2.6401945,-0.440282 0.252233,-0.196744 0.411025,-0.479338 0.502306,-0.849561 0.09128,-0.370224 0.120923,-0.832198 0.120923,-1.4216189 V 6.3499999 2.9760458 c 0,-0.5894213 -0.02964,-1.0513952 -0.120923,-1.4216187 C 12.223211,1.1842036 12.064419,0.90160897 11.812186,0.7048664 11.307724,0.31138177 10.50007,0.26458333 9.1719915,0.26458333 Z m 0,0.26458333 h 5.643687 c 1.3200905,0 2.0783445,0.0731988 2.4774125,0.38447265 0.19953,0.15563689 0.326218,0.37163669 0.408252,0.70434969 0.08203,0.3327133 0.113173,0.777739 0.113173,1.3580568 v 3.3739541 3.3739542 c 0,0.5803179 -0.03114,1.0253439 -0.113173,1.3580579 -0.08203,0.332711 -0.208722,0.548711 -0.408252,0.70435 -0.399068,0.311271 -1.157322,0.384471 -2.4774125,0.384471 h -5.643687 c -1.3204239,0 -2.0824398,-0.0731 -2.4830983,-0.384471 C 0.84487945,11.630673 0.71774985,11.415011 0.63644075,11.082528 0.55512895,10.750042 0.52600895,10.304644 0.52946705,9.7244709 V 6.3499999 2.975529 C 0.52602745,2.395356 0.55513165,1.9499575 0.63644075,1.6174723 0.71774985,1.284987 0.84487945,1.0693257 1.0452062,0.91363931 1.445862,0.6022668 2.2078806,0.52916666 3.5283045,0.52916666 Z"
     style="color:#000000;display:inline;opacity:0.4;fill:#000000;stroke-width:0.264586;-inkscape-stroke:none;enable-background:new"
     id="path1058" />
</svg>
