<?xml version="1.0" encoding="UTF-8" standalone="no"?>
<!-- Created with Inkscape (http://www.inkscape.org/) -->

<svg
   width="48"
   height="48"
   viewBox="0 0 12.7 12.7"
   version="1.1"
   id="svg5"
   inkscape:version="1.1.2 (0a00cf5339, 2022-02-04, custom)"
   sodipodi:docname="online-accounts.svg"
   xmlns:inkscape="http://www.inkscape.org/namespaces/inkscape"
   xmlns:sodipodi="http://sodipodi.sourceforge.net/DTD/sodipodi-0.dtd"
   xmlns:xlink="http://www.w3.org/1999/xlink"
   xmlns="http://www.w3.org/2000/svg"
   xmlns:svg="http://www.w3.org/2000/svg">
  <sodipodi:namedview
     id="namedview7"
     pagecolor="#ffffff"
     bordercolor="#666666"
     borderopacity="1.0"
     inkscape:pageshadow="2"
     inkscape:pageopacity="0.0"
     inkscape:pagecheckerboard="0"
     inkscape:document-units="px"
     showgrid="false"
     units="px"
     height="48px"
     showguides="true"
     inkscape:zoom="16.604167"
     inkscape:cx="23.969887"
     inkscape:cy="24"
     inkscape:window-width="1920"
     inkscape:window-height="1006"
     inkscape:window-x="0"
     inkscape:window-y="0"
     inkscape:window-maximized="1"
     inkscape:current-layer="svg5" />
  <defs
     id="defs2">
    <linearGradient
       inkscape:collect="always"
       id="linearGradient1871">
      <stop
         style="stop-color:#ffffff;stop-opacity:1;"
         offset="0"
         id="stop1867" />
      <stop
         style="stop-color:#ffffff;stop-opacity:0.1"
         offset="0.12"
         id="stop2515" />
      <stop
         style="stop-color:#ffffff;stop-opacity:0.102"
         offset="0.89999998"
         id="stop2581" />
      <stop
         style="stop-color:#ffffff;stop-opacity:0.502"
         offset="1"
         id="stop1869" />
    </linearGradient>
    <linearGradient
       inkscape:collect="always"
       xlink:href="#linearGradient1871"
       id="linearGradient1198"
       x1="6.3499999"
       y1="0.52916658"
       x2="6.3499994"
       y2="12.170834"
       gradientUnits="userSpaceOnUse" />
    <linearGradient
       inkscape:collect="always"
       id="linearGradient3598">
      <stop
         style="stop-color:#8c59d9;stop-opacity:1"
         offset="0"
         id="stop3594" />
      <stop
         style="stop-color:#a7a7f1;stop-opacity:1"
         offset="1"
         id="stop3596" />
    </linearGradient>
    <linearGradient
       inkscape:collect="always"
       xlink:href="#linearGradient3598"
       id="linearGradient1142"
       x1="2.5135415"
       y1="1.5874999"
       x2="8.598959"
       y2="11.641666"
       gradientUnits="userSpaceOnUse" />
  </defs>
  <circle
     style="opacity:0.1;fill:#000000;fill-opacity:1;stroke-width:0.529167;stroke-linecap:round;stroke-linejoin:round"
     id="path3625"
     cx="6.3499999"
     cy="6.6145835"
     r="6.0854168" />
  <circle
     style="fill:url(#linearGradient1142);fill-opacity:1;stroke-width:0.529167;stroke-linecap:round;stroke-linejoin:round"
     id="path986-6"
     cx="6.3499999"
     cy="6.3499999"
     r="5.953125" />
  <path
     d="M 5.0271177,0.79375 4.3325864,1.5875 4.9278989,2.1828125 V 2.8050066 L 5.6224302,3.571875 H 6.0193051 V 3.175 l 0.595313,-0.5953125 v -0.396875 l 0.396875,-0.396875 V 1.190625 L 6.6146181,0.79375 Z M 3.6380552,1.0510996 C 3.2672866,1.2418274 2.9175816,1.4709796 2.5946973,1.7347829 l 0.05116,0.05116 H 3.6380446 Z M 2.3482115,2.1828019 V 2.7781144 H 1.8521177 L 1.7069064,2.6329031 C 0.91740218,3.6209644 0.46309278,4.8347915 0.40983958,6.0984156 L 1.0583862,6.7469622 H 1.6536987 L 2.6458862,7.7391497 V 6.5485247 L 3.2411987,5.9532122 h 0.396875 L 4.2333862,5.3578997 H 4.8286987 L 4.5310424,5.0602435 5.1263549,4.3657123 4.5310424,3.7703998 H 3.6380737 v 0.79375 H 3.2411987 L 2.8443237,4.1672748 V 3.7703998 L 3.4396362,3.1750873 H 3.93573 V 2.7782123 L 3.3404175,2.1828998 Z m 6.8460936,0.396875 -0.595312,0.5953125 v 0.4960937 h 0.595312 V 3.3734269 h 0.396875 v 0.396875 l -0.198437,0.1984375 -0.79375,0.013435 -0.297657,0.2842154 h -0.396875 v 0.396875 l -0.297656,0.2976563 v 0.5953125 h 0.595313 l 0.396875,-0.396875 h 0.396875 v 0.1984375 l 0.396875,0.396875 h 0.198437 v -0.198437 l -0.396875,-0.396875 h 0.396875 l 0.396875,0.396875 H 10.484149 L 10.186493,5.2585778 10.484149,4.9609216 h 0.297656 l 0.297656,0.2976562 h -0.297656 l -0.297656,0.2976563 0.292497,0.2924968 0.0052,0.3028156 h -0.396908 l 1.190625,1.190625 H 11.774 L 11.972438,7.143734 12.278349,6.8378228 c 0.0038,-0.05766 0.0067,-0.1153716 0.0088,-0.1731169 L 11.972438,6.349984 h 0.330729 C 12.302067,5.0301228 11.862303,3.7480623 11.053117,2.7053487 L 10.781813,2.9766524 10.384938,2.5797774 Z M 10.38493,6.1515518 H 9.1943051 L 8.9958681,5.9531143 h -1.190625 l -0.694532,0.6945313 v 0.9921875 l 0.496094,0.4960937 h 0.694531 l 0.297657,0.2976563 v 0.2976562 l 0.198437,0.1984375 v 1.1906252 l 0.753454,0.796343 1.2443619,-1.2443622 -0.01344,-1.1394545 0.992188,-0.9921875 H 11.377123 L 10.384935,6.5484533 Z M 6.5153991,3.3734269 v 0.2976562 h 0.595312 L 6.8130551,3.3734269 Z m 1.785937,0.099219 -0.297656,0.2976562 v 0.2976562 h 0.297656 z M 5.2255552,4.5640519 4.9278989,4.8617081 h 0.2976563 l 0.099219,0.099219 h 0.099219 l 0.099219,-0.099219 z M 3.5388364,6.6476456 3.2411802,6.9453018 H 3.8364927 V 6.6476456 Z m -0.2976562,0.8929687 -0.396875,0.396875 v 0.9921875 l 0.7963429,0.6976269 -0.00265,0.8898733 -0.2976563,0.297656 v 0.664051 c 0.157579,0.09231 0.3193222,0.177323 0.4847167,0.254765 L 4.9278989,10.715612 V 10.318737 L 5.5232114,9.7234241 V 9.4257679 L 5.8208677,9.1281117 v -0.79375 l -0.396875,-0.396875 h -0.79375 l -0.396875,-0.396875 z m 8.2351558,1.3890625 -0.396875,0.3699933 v 0.6221942 h 0.02376 C 11.237975,9.743165 11.362545,9.5570084 11.476336,9.3642814 Z"
     style="color:#000000;opacity:0.25;fill:#ffffff;stroke-width:0.264583"
     id="path1142" />
  <path
     id="path854"
     style="opacity:0.4;fill:#000000;stroke-width:0.529167;stroke-linecap:round;stroke-linejoin:round"
     d="M 6.3499999,0.26458333 A 6.0854166,6.0854166 0 0 0 0.26458333,6.3499999 6.0854166,6.0854166 0 0 0 6.3499999,12.435417 6.0854166,6.0854166 0 0 0 12.435417,6.3499999 6.0854166,6.0854166 0 0 0 6.3499999,0.26458333 Z m 0,0.26458333 A 5.8208333,5.8208333 0 0 1 12.170833,6.3499999 5.8208333,5.8208333 0 0 1 6.3499999,12.170833 5.8208333,5.8208333 0 0 1 0.52916666,6.3499999 5.8208333,5.8208333 0 0 1 6.3499999,0.52916666 Z" />
  <path
     id="path1110"
     style="fill:url(#linearGradient1198);fill-opacity:1;stroke-width:0.529167;stroke-linecap:round;stroke-linejoin:round"
     d="M 6.3499999,0.52916666 A 5.8208333,5.8208333 0 0 0 0.52916666,6.3499999 5.8208333,5.8208333 0 0 0 6.3499999,12.170833 5.8208333,5.8208333 0 0 0 12.170833,6.3499999 5.8208333,5.8208333 0 0 0 6.3499999,0.52916666 Z m 0,0.26458333 A 5.5562499,5.5562499 0 0 1 11.90625,6.3499999 5.5562499,5.5562499 0 0 1 6.3499999,11.90625 5.5562499,5.5562499 0 0 1 0.79374999,6.3499999 5.5562499,5.5562499 0 0 1 6.3499999,0.79374999 Z" />
  <path
     id="path1019"
     style="fill:#ffffff;stroke-width:0.999999"
     d="M 25 12 C 20.664506 12.0015 16.666966 14.341524 14.542969 18.121094 C 10.193804 18.834603 7.0011604 22.592696 7 27 C 6.9999998 31.970563 11.029437 36 16 36 L 34 36 C 37.865993 36 41 32.865993 41 29 C 41.000118 26.264939 39.407274 23.780316 36.921875 22.638672 C 36.229816 16.577608 31.100446 12.000334 25 12 z M 25 13 C 30.815934 13.001785 35.62546 17.530612 35.976562 23.335938 C 38.385585 24.176451 39.999564 26.448558 40 29 C 40 32.313709 37.313709 35 34 35 C 34 35 16.103818 35.0052 16 35 C 11.581722 35 7.9999997 31.418278 8 27 C 8.0027211 22.899107 11.10596 19.464372 15.185547 19.046875 C 17.054341 15.34117 20.849742 13.0027 25 13 z "
     transform="scale(0.26458333)" />
</svg>
