<?xml version="1.0" encoding="UTF-8" standalone="no"?>
<!-- Created with Inkscape (http://www.inkscape.org/) -->

<svg
   width="48"
   height="48"
   viewBox="0 0 12.7 12.7"
   version="1.1"
   id="svg5"
   inkscape:version="1.1.2 (0a00cf5339, 2022-02-04)"
   sodipodi:docname="system-suspend.svg"
   xmlns:inkscape="http://www.inkscape.org/namespaces/inkscape"
   xmlns:sodipodi="http://sodipodi.sourceforge.net/DTD/sodipodi-0.dtd"
   xmlns:xlink="http://www.w3.org/1999/xlink"
   xmlns="http://www.w3.org/2000/svg"
   xmlns:svg="http://www.w3.org/2000/svg">
  <sodipodi:namedview
     id="namedview7"
     pagecolor="#ffffff"
     bordercolor="#666666"
     borderopacity="1.0"
     inkscape:pageshadow="2"
     inkscape:pageopacity="0.0"
     inkscape:pagecheckerboard="0"
     inkscape:document-units="px"
     showgrid="false"
     units="px"
     height="48px"
     showguides="true"
     inkscape:zoom="11.578874"
     inkscape:cx="27.161537"
     inkscape:cy="21.806957"
     inkscape:window-width="1920"
     inkscape:window-height="1010"
     inkscape:window-x="0"
     inkscape:window-y="0"
     inkscape:window-maximized="1"
     inkscape:current-layer="svg5" />
  <defs
     id="defs2">
    <linearGradient
       inkscape:collect="always"
       id="linearGradient2014">
      <stop
         style="stop-color:#80d5fa;stop-opacity:1"
         offset="0"
         id="stop2010" />
      <stop
         style="stop-color:#58bdf4;stop-opacity:1"
         offset="1"
         id="stop2012" />
    </linearGradient>
    <linearGradient
       inkscape:collect="always"
       id="linearGradient1871">
      <stop
         style="stop-color:#ffffff;stop-opacity:1;"
         offset="0"
         id="stop1867" />
      <stop
         style="stop-color:#ffffff;stop-opacity:0.1"
         offset="0.12"
         id="stop2515" />
      <stop
         style="stop-color:#ffffff;stop-opacity:0.102"
         offset="0.89999998"
         id="stop2581" />
      <stop
         style="stop-color:#ffffff;stop-opacity:0.502"
         offset="1"
         id="stop1869" />
    </linearGradient>
    <linearGradient
       inkscape:collect="always"
       xlink:href="#linearGradient1871"
       id="linearGradient1198"
       x1="6.3499999"
       y1="0.52916658"
       x2="6.3499994"
       y2="12.170834"
       gradientUnits="userSpaceOnUse" />
    <linearGradient
       inkscape:collect="always"
       xlink:href="#linearGradient2014"
       id="linearGradient2016"
       x1="9.921875"
       y1="11.1125"
       x2="2.7781253"
       y2="1.5874999"
       gradientUnits="userSpaceOnUse" />
  </defs>
  <circle
     style="opacity:0.1;fill:#000000;fill-opacity:1;stroke-width:0.529167;stroke-linecap:round;stroke-linejoin:round"
     id="path3625"
     cx="6.3499999"
     cy="6.6145835"
     r="6.0854168" />
  <circle
     style="fill:url(#linearGradient2016);fill-opacity:1;stroke-width:0.529167;stroke-linecap:round;stroke-linejoin:round"
     id="path986"
     cx="6.3499999"
     cy="6.3499999"
     r="5.953125" />
  <path
     id="rect1033"
     style="opacity:0.05;fill:#ffffff;stroke-width:2;stroke-linecap:round;stroke-linejoin:round"
     d="M 4.6152344,12.587891 A 22.5,22.5 0 0 0 1.5,24 22.5,22.5 0 0 0 24,46.5 22.5,22.5 0 0 0 43.458984,35.292969 Z"
     transform="scale(0.26458333)" />
  <path
     d="m 6.3499999,2.9104167 c -2.0457546,0 -3.7041666,1.6584119 -3.7041666,3.7041665 0,2.0457546 1.658412,3.7041668 3.7041666,3.7041668 2.0457546,0 3.7041661,-1.6584122 3.7041661,-3.7041668 0,-2.0457546 -1.6584115,-3.7041665 -3.7041661,-3.7041665 z m 0,0.5291666 c 1.7535041,0 3.1749994,1.4214958 3.1749994,3.1749999 0,1.7535041 -1.4214953,3.1750001 -3.1749994,3.1750001 C 4.5964959,9.7895833 3.175,8.3680873 3.175,6.6145832 3.175,4.8610791 4.5964959,3.4395833 6.3499999,3.4395833 Z M 4.4979166,6.3499999 V 6.8791665 H 8.2020832 V 6.3499999 Z"
     style="opacity:0.1;fill:#000000;stroke-width:0.264583;paint-order:stroke fill markers"
     id="path925"
     sodipodi:nodetypes="ssssssssssccccc" />
  <path
     d="m 6.35,2.6458333 c -2.0457546,0 -3.7041667,1.658412 -3.7041667,3.704166 0,2.045755 1.6584121,3.7041667 3.7041667,3.7041667 2.0457546,0 3.704166,-1.6584117 3.704166,-3.7041667 0,-2.045754 -1.6584114,-3.704166 -3.704166,-3.704166 z m 0,0.529167 c 1.753504,0 3.1749992,1.421495 3.1749992,3.174999 0,1.753505 -1.4214952,3.175001 -3.1749992,3.175001 -1.7535041,0 -3.175,-1.421496 -3.175,-3.175001 0,-1.753504 1.4214959,-3.174999 3.175,-3.174999 z m -1.8520833,2.910416 v 0.529167 H 8.202083 v -0.529167 z"
     style="opacity:1;fill:#ffffff;stroke-width:0.0700042;paint-order:stroke fill markers"
     id="path1066" />
  <path
     id="path854"
     style="opacity:0.4;fill:#000000;stroke-width:0.529167;stroke-linecap:round;stroke-linejoin:round"
     d="M 6.3499999,0.26458333 A 6.0854166,6.0854166 0 0 0 0.26458333,6.3499999 6.0854166,6.0854166 0 0 0 6.3499999,12.435417 6.0854166,6.0854166 0 0 0 12.435417,6.3499999 6.0854166,6.0854166 0 0 0 6.3499999,0.26458333 Z m 0,0.26458333 A 5.8208333,5.8208333 0 0 1 12.170833,6.3499999 5.8208333,5.8208333 0 0 1 6.3499999,12.170833 5.8208333,5.8208333 0 0 1 0.52916666,6.3499999 5.8208333,5.8208333 0 0 1 6.3499999,0.52916666 Z" />
  <path
     id="path1110"
     style="fill:url(#linearGradient1198);fill-opacity:1;stroke-width:0.529167;stroke-linecap:round;stroke-linejoin:round"
     d="M 6.3499999,0.52916666 A 5.8208333,5.8208333 0 0 0 0.52916666,6.3499999 5.8208333,5.8208333 0 0 0 6.3499999,12.170833 5.8208333,5.8208333 0 0 0 12.170833,6.3499999 5.8208333,5.8208333 0 0 0 6.3499999,0.52916666 Z m 0,0.26458333 A 5.5562499,5.5562499 0 0 1 11.90625,6.3499999 5.5562499,5.5562499 0 0 1 6.3499999,11.90625 5.5562499,5.5562499 0 0 1 0.79374999,6.3499999 5.5562499,5.5562499 0 0 1 6.3499999,0.79374999 Z" />
</svg>
