<?xml version="1.0" encoding="UTF-8" standalone="no"?>
<!-- Created with Inkscape (http://www.inkscape.org/) -->

<svg
   width="48"
   height="48"
   viewBox="0 0 12.7 12.7"
   version="1.1"
   id="svg5"
   inkscape:version="1.1.2 (0a00cf5339, 2022-02-04)"
   sodipodi:docname="ubuntusoftware.svg"
   xmlns:inkscape="http://www.inkscape.org/namespaces/inkscape"
   xmlns:sodipodi="http://sodipodi.sourceforge.net/DTD/sodipodi-0.dtd"
   xmlns:xlink="http://www.w3.org/1999/xlink"
   xmlns="http://www.w3.org/2000/svg"
   xmlns:svg="http://www.w3.org/2000/svg">
  <sodipodi:namedview
     id="namedview7"
     pagecolor="#ffffff"
     bordercolor="#666666"
     borderopacity="1.0"
     inkscape:pageshadow="2"
     inkscape:pageopacity="0.0"
     inkscape:pagecheckerboard="0"
     inkscape:document-units="px"
     showgrid="false"
     units="px"
     inkscape:zoom="7.1107479"
     inkscape:cx="31.782873"
     inkscape:cy="8.1566666"
     inkscape:window-width="1920"
     inkscape:window-height="1017"
     inkscape:window-x="0"
     inkscape:window-y="0"
     inkscape:window-maximized="1"
     inkscape:current-layer="svg5"
     showguides="false"
     inkscape:lockguides="true" />
  <defs
     id="defs2">
    <linearGradient
       inkscape:collect="always"
       id="linearGradient1871">
      <stop
         style="stop-color:#ffffff;stop-opacity:1;"
         offset="0"
         id="stop1867" />
      <stop
         style="stop-color:#ffffff;stop-opacity:0.1"
         offset="0.12"
         id="stop2515" />
      <stop
         style="stop-color:#ffffff;stop-opacity:0.102"
         offset="0.89999998"
         id="stop2581" />
      <stop
         style="stop-color:#ffffff;stop-opacity:0.502"
         offset="1"
         id="stop1869" />
    </linearGradient>
    <linearGradient
       inkscape:collect="always"
       xlink:href="#linearGradient1871"
       id="linearGradient2252"
       x1="12.5"
       y1="7"
       x2="12.5"
       y2="43"
       gradientUnits="userSpaceOnUse"
       gradientTransform="matrix(0.26458333,0,0,0.26458333,0,-0.26458333)" />
    <linearGradient
       inkscape:collect="always"
       id="linearGradient1331">
      <stop
         style="stop-color:#f37e40;stop-opacity:1;"
         offset="0"
         id="stop1327" />
      <stop
         style="stop-color:#f34f17;stop-opacity:1"
         offset="1"
         id="stop1329" />
    </linearGradient>
    <linearGradient
       inkscape:collect="always"
       xlink:href="#linearGradient1331"
       id="linearGradient1003"
       x1="15.213542"
       y1="12.700001"
       x2="-3.0427079"
       y2="-0.52916628"
       gradientUnits="userSpaceOnUse" />
  </defs>
  <path
     d="m 3.3072916,1.5875 c -3.04237179,0 -3.04270832,0.5324204 -3.04270832,3.571875 v 2.9104167 c 0,3.0394563 3.3633e-4,3.5718763 3.04270832,3.5718763 h 6.0854167 c 3.0423717,0 3.0427077,-0.53242 3.0427077,-3.5718763 V 5.159375 c 0,-3.0394547 -3.36e-4,-3.571875 -3.0427077,-3.571875 z"
     style="display:inline;opacity:0.1;fill:#000000;fill-opacity:1;stroke:none;stroke-width:0.0992187;stroke-linecap:round;stroke-linejoin:round;stroke-miterlimit:4;stroke-dasharray:none;stroke-dashoffset:0;stroke-opacity:1;enable-background:new"
     id="path3132"
     sodipodi:nodetypes="sssssssss" />
  <path
     id="rect877"
     style="display:inline;fill:url(#linearGradient1003);fill-opacity:1;stroke:none;stroke-width:0.0992187;stroke-linecap:round;stroke-linejoin:round;stroke-miterlimit:4;stroke-dasharray:none;stroke-dashoffset:0;stroke-opacity:1;enable-background:new"
     d="m 3.3072916,1.4552084 c -2.91041661,0 -2.9104166,0.4001287 -2.9104166,3.4395832 v 2.9104166 c 0,3.0394558 -10e-9,3.4395838 2.9104166,3.4395838 h 6.0854167 c 2.9104167,0 2.9104167,-0.400129 2.9104167,-3.4395838 V 4.8947916 c 0,-3.0394546 0,-3.4395832 -2.9104167,-3.4395832 z"
     sodipodi:nodetypes="cssccsscc" />
  <path
     id="rect5299"
     style="opacity:0.1;fill:#ffffff;fill-opacity:1;stroke-width:0.999999"
     d="M 1.5 24 L 1.5 29.5 C 1.5 40.987708 1.4999987 42.5 12.5 42.5 L 35.5 42.5 C 46.500003 42.5 46.5 40.987705 46.5 29.5 L 46.5 24 L 1.5 24 z "
     transform="scale(0.26458333)" />
  <path
     id="path29"
     d="M 5.5641711,2.6458333 C 5.2733441,3.2464256 5.0540344,3.6765244 4.7874404,4.2931406 4.5208467,4.90173 4.2502237,5.5424399 3.975563,6.2150955 3.872758,6.4744935 3.767959,6.7456647 3.662761,7.0169749 3.597943,7.163737 3.5250063,7.3390832 3.4108803,7.6429166 3.2196363,8.1466501 3.0912183,8.4499333 2.8778296,9.008608 2.8000786,9.2035578 2.7146576,9.4216229 2.5796716,9.7895835 H 4.1741387 L 4.8477744,7.9315003 6.3502755,7.8664713 7.8527766,7.9315003 8.5258253,9.7895835 H 10.120292 C 9.9853064,9.4216229 9.8998857,9.2035423 9.8221357,9.008608 9.6087317,8.4499333 9.4808947,8.1466501 9.289669,7.6429166 9.175541,7.3390832 9.102604,7.1637489 9.03779,7.0169749 8.932594,6.7456741 8.8272093,6.4745137 8.7244023,6.2150955 8.4497343,5.5424399 8.2388666,5.0805705 7.9722716,4.4719813 7.7056849,3.8553652 7.4271759,3.2464256 7.1363792,2.6458333 h -0.02402 -0.8060207 -0.03222 l -0.6859374,5.945e-4 z m 0.7861044,1.4765958 c 0.0053,0.012219 0.01051,0.02435 0.01581,0.036581 v 0.00929 c 0.221856,0.488608 0.4361597,0.9940726 0.6425897,1.518409 0.250435,0.6486346 0.253926,0.587142 0.5043487,1.28382 L 6.3502725,7.0117481 5.1869321,6.9705191 C 5.4373641,6.2738456 5.4408581,6.3353382 5.6912841,5.6867032 5.8976968,5.1623966 6.1125828,4.6569023 6.3344595,4.1683005 v -0.00929 c 0.0053,-0.012215 0.01053,-0.024378 0.01581,-0.036577 z"
     style="fill:#fff9f2;fill-opacity:1;stroke-width:0.2986" />
  <path
     id="path29-6"
     style="opacity:0.2;fill:#000000;fill-opacity:1;stroke-width:0.298601"
     d="m 6.3501175,4.1222289 c -0.0053,0.0122 -0.01022,0.024477 -0.0155,0.03669 v 0.0093 C 6.1127408,4.6568207 5.8976588,5.1621659 5.6912461,5.6864726 5.4408211,6.3351074 5.4373131,6.2739588 5.1868841,6.9706318 l 0.0956,0.00362 C 5.4433551,6.5428087 5.4776591,6.5042719 5.6912441,5.9510585 5.8976568,5.4267518 6.1127388,4.9214066 6.3346155,4.4328048 v -0.0093 c 0.0053,-0.012213 0.01022,-0.024492 0.0155,-0.03669 0.0053,0.012219 0.01072,0.024461 0.01602,0.03669 v 0.0093 c 0.221856,0.4886081 0.4359077,0.9939173 0.6423377,1.5182537 0.213567,0.5531451 0.247928,0.5918518 0.4087607,1.0231933 l 0.0956,-0.00362 C 7.2624142,6.2739563 7.2589092,6.3351092 7.0084742,5.6864747 6.8020442,5.1621383 6.5879935,4.6568291 6.3661365,4.1682209 v -0.0093 c -0.0053,-0.012232 -0.01074,-0.024471 -0.01602,-0.03669 z m 1.4076654,3.8049359 0.09508,0.2687171 0.6728274,1.8582851 h 1.5947337 c -0.03621,-0.098691 -0.0683,-0.1850255 -0.09819,-0.2645835 H 8.5256853 L 7.8528666,7.9312986 Z m -2.8235985,5.291e-4 -0.0863,0.00362 -0.6738607,1.8582726 H 2.6779916 c -0.02988,0.07956 -0.06198,0.16589 -0.09818,0.2645835 H 4.1740287 L 4.8478894,8.195885 Z" />
  <path
     id="path31"
     d="M 7.1361572,2.6458333 6.3500915,4.1224292 c 0.130719,0.3067911 0.4495497,1.0277444 0.6589597,1.5642741 0.250422,0.648635 0.253916,0.5865619 0.5043227,1.2832392 l -0.3924467,0.01452 0.2717847,0.9267187 0.4598067,0.019738 0.6736027,1.8586643 H 10.119924 C 9.9849444,9.4216254 9.9001127,9.2035447 9.8223677,9.0086089 9.6089727,8.4499351 9.4805577,8.1466518 9.289341,7.6429183 9.175219,7.3390849 9.102284,7.1631699 9.037474,7.016396 8.932284,6.7450952 8.8274913,6.4745158 8.7246873,6.2150977 8.4500343,5.5424417 8.2385896,5.0799918 7.9720086,4.4714024 7.7797979,4.0268002 7.5811119,3.586699 7.3763099,3.150421 Z"
     style="opacity:0.1;fill:#f34f17;fill-opacity:1;stroke-width:0.298593"
     sodipodi:nodetypes="cccccccccccccccc" />
  <rect
     style="fill:#ffffff;fill-opacity:1;stroke-width:0.107303;stroke-linecap:round;stroke-linejoin:round"
     id="rect4952"
     width="7.9375"
     height="1.0583333"
     x="2.3812499"
     y="6.8791666"
     ry="0.52916664" />
  <path
     id="rect4952-6"
     style="opacity:0.3;fill:#f34f17;stroke-width:0.050901;stroke-linecap:round;stroke-linejoin:round"
     d="m 2.9761646,7.2098958 h 6.7799441 c 0.109935,0 0.1984377,0.088503 0.1984377,0.1984376 0,0.1099335 -0.0885,0.1984374 -0.1984377,0.1984374 H 2.9761646 c -0.109935,0 -0.198437,-0.088503 -0.198437,-0.1984374 0,-0.109935 0.0885,-0.1984376 0.198437,-0.1984376 z"
     sodipodi:nodetypes="sssssss" />
  <path
     id="rect1725"
     style="opacity:0.2;fill:#000000;stroke-width:0.264583;stroke-linejoin:round"
     d="m 2.3979059,7.5406249 c -0.01084,0.042333 -0.01654,0.086486 -0.01654,0.1322917 0,0.2931583 0.2360077,0.5291667 0.5291657,0.5291667 h 6.8791631 c 0.2931573,0 0.5291663,-0.2360084 0.5291663,-0.5291667 0,-0.045806 -0.0057,-0.089959 -0.01654,-0.1322917 -0.05854,0.2285992 -0.265278,0.396875 -0.5126293,0.396875 H 2.9105286 c -0.247352,0 -0.4540847,-0.1682758 -0.5126297,-0.396875 z" />
  <path
     id="path1984"
     style="display:inline;opacity:0.7;fill:url(#linearGradient2252);fill-opacity:1;stroke:none;stroke-width:0.0262516;stroke-linecap:round;stroke-linejoin:round;stroke-miterlimit:4;stroke-dasharray:none;stroke-dashoffset:0;stroke-opacity:1;enable-background:new"
     d="m 3.3072916,1.5875 c -2.77812481,0 -2.77812494,0.5291667 -2.77812494,3.3072916 v 2.9104166 c 0,2.7781258 1.3e-7,3.3072918 2.77812494,3.3072918 h 6.0854166 c 2.7781248,0 2.7781248,-0.529166 2.7781248,-3.3072918 V 4.8947916 c 0,-2.7781245 0,-3.3072916 -2.7781248,-3.3072916 z m 0.138493,0.2645833 h 5.8084306 c 2.6518468,0 2.6520348,0.5012344 2.6520348,3.1331421 v 2.729549 c 0,2.6319086 -1.88e-4,3.1331426 -2.6520348,3.1331426 H 3.4457846 c -2.6518466,0 -2.65203461,-0.501234 -2.65203461,-3.1331426 v -2.729549 c 0,-2.631908 1.8801e-4,-3.1331421 2.65203461,-3.1331421 z"
     sodipodi:nodetypes="ssssssssssssssssss" />
  <path
     id="path3421"
     style="display:inline;opacity:0.4;fill:#000000;fill-opacity:1;stroke:none;stroke-width:0.0262516;stroke-linecap:round;stroke-linejoin:round;stroke-miterlimit:4;stroke-dasharray:none;stroke-dashoffset:0;stroke-opacity:1;enable-background:new"
     d="m 3.3072916,1.3229167 c -3.04237164,0 -3.04270827,0.5324204 -3.04270827,3.5718749 v 2.9104166 c 0,3.0394558 3.3634e-4,3.5718758 3.04270827,3.5718758 h 6.0854166 c 3.0423718,0 3.0427088,-0.532421 3.0427088,-3.5718758 V 4.8947916 c 0,-3.0394546 -3.37e-4,-3.5718749 -3.0427088,-3.5718749 z m 0,0.2645833 h 6.0854166 c 2.7781248,0 2.7781248,0.529167 2.7781248,3.3072916 v 2.9104166 c 0,2.7781258 0,3.3072928 -2.7781248,3.3072928 H 3.3072916 c -2.77812489,0 -2.77812494,-0.529167 -2.77812494,-3.3072928 V 4.8947916 c 0,-2.778125 3e-8,-3.3072916 2.77812494,-3.3072916 z"
     sodipodi:nodetypes="ssssssssssssssssss" />
  <path
     d="M 6.3500026,0 C 5.3357674,0 4.7558153,0.5461588 4.4927517,1.072286 4.2296882,1.5984131 4.233336,2.1166667 4.233336,2.1166667 c 0,0.1461253 0.1184579,0.2645833 0.2645833,0.2645833 0.1461254,0 0.2645833,-0.118458 0.2645833,-0.2645833 0,0 0.00365,-0.407789 0.2036051,-0.8077027 0.199957,-0.3999136 0.5460484,-0.7797973 1.3838949,-0.7797973 0.8378463,0 1.1839379,0.3798837 1.3838949,0.7797973 0.1999568,0.3999137 0.2036051,0.8077027 0.2036051,0.8077027 0,0.1461253 0.1184579,0.2645833 0.2645833,0.2645833 0.1461255,0 0.2645834,-0.118458 0.2645834,-0.2645833 0,0 0.00365,-0.5182536 -0.2594158,-1.0443807 C 7.94419,0.5461588 7.3642376,0 6.3500026,0 Z"
     style="color:#000000;fill:#fee8bc;stroke-width:0.264583;stroke-linecap:round;-inkscape-stroke:none;fill-opacity:1"
     id="path901" />
</svg>
