<svg width="32" height="32" enable-background="new" version="1.0" xmlns="http://www.w3.org/2000/svg" xmlns:xlink="http://www.w3.org/1999/xlink">
 <title>Suru Icon Theme Template</title>
 <defs>
  <linearGradient id="linearGradient924" x1="459.03" x2="35.31" y1="419.23" y2="207.37" gradientTransform="matrix(-.072088 0 0 -.072086 353.82 172.13)" gradientUnits="userSpaceOnUse">
   <stop stop-color="#f2f2f2" offset="0"/>
   <stop stop-color="#f9f9f9" offset="1"/>
  </linearGradient>
  <linearGradient id="linearGradient969" x1="336" x2="336" y1="136" y2="160" gradientTransform="rotate(90 336 148)" gradientUnits="userSpaceOnUse">
   <stop stop-color="#fff" offset="0"/>
   <stop stop-color="#fff" stop-opacity=".098039" offset=".125"/>
   <stop stop-color="#fff" stop-opacity=".098039" offset=".925"/>
   <stop stop-color="#fff" stop-opacity=".49804" offset="1"/>
  </linearGradient>
  <clipPath id="clipPath959-7">
   <path d="m330.19 134c-5.6154 0-6.2196 0.57678-6.1921 6.2035v7.7965 7.7965c-0.0276 5.6267 0.57668 6.2035 6.1921 6.2035h11.615c5.6154 0 6.1921-0.5767 6.1921-6.2035v-7.7965-7.7965c0-5.6268-0.5767-6.2035-6.1921-6.2035z" color="#000000" enable-background="accumulate" fill="#46a926"/>
  </clipPath>
 </defs>
 <g transform="translate(-182,-149.5)">
  <g transform="translate(-138,17.5)" enable-background="new">
   <rect x="320" y="132" width="32" height="32" enable-background="accumulate" opacity="0" stroke-width="2"/>
   <path d="m321 155.81c0 1.421 0.0308 2.5488 0.19141 3.5059 0.16064 0.95703 0.4726 1.7915 1.0918 2.4121s1.4561 0.93647 2.4141 1.0957c0.95795 0.15924 2.087 0.18666 3.5117 0.17969h7.791 7.7969c1.4213 7e-3 2.5495-0.0207 3.5058-0.17969 0.95796-0.15923 1.7949-0.47505 2.4141-1.0957s0.93115-1.4551 1.0918-2.4121c0.16065-0.95703 0.19141-2.0849 0.19141-3.5059v-11.615c0-1.421-0.0307-2.5467-0.19141-3.502-0.16075-0.95527-0.47425-1.7878-1.0938-2.4062-0.6195-0.61845-1.4536-0.93134-2.4102-1.0918-0.95653-0.16046-2.084-0.19141-3.5078-0.19141h-7.7969-7.7969c-1.4238 0-2.5513 0.031-3.5078 0.19141-0.95653 0.16045-1.7906 0.47334-2.4102 1.0918-0.61951 0.61846-0.933 1.451-1.0938 2.4062-0.16076 0.95527-0.19141 2.081-0.19141 3.502z" color="#000000" color-rendering="auto" dominant-baseline="auto" enable-background="accumulate" image-rendering="auto" opacity=".1" shape-rendering="auto" solid-color="#000000" style="font-feature-settings:normal;font-variant-alternates:normal;font-variant-caps:normal;font-variant-ligatures:normal;font-variant-numeric:normal;font-variant-position:normal;isolation:auto;mix-blend-mode:normal;shape-padding:0;text-decoration-color:#000000;text-decoration-line:none;text-decoration-style:solid;text-indent:0;text-orientation:mixed;text-transform:none;white-space:normal"/>
   <path d="m321.5 154.81c0 1.4124 0.0342 2.5224 0.18555 3.4238 0.15132 0.90145 0.43164 1.6199 0.95312 2.1426 0.52148 0.5227 1.239 0.80325 2.1406 0.95312 0.90164 0.14988 2.0101 0.18075 3.4258 0.17383h7.7949 7.7969c1.4145 7e-3 2.5227-0.024 3.4238-0.17383 0.90165-0.14987 1.6192-0.43041 2.1406-0.95312 0.52148-0.52272 0.8018-1.2411 0.95312-2.1426s0.18555-2.0114 0.18555-3.4238v-11.615c0-1.4124-0.0342-2.5185-0.18555-3.418-0.15137-0.8995-0.43149-1.616-0.95312-2.1367s-1.2377-0.80004-2.1387-0.95117c-0.90094-0.15113-2.0106-0.18555-3.4258-0.18555h-7.7969-7.7969c-1.4152 0-2.5248 0.0344-3.4258 0.18555-0.90093 0.15113-1.617 0.43042-2.1387 0.95117-0.52163 0.52075-0.80175 1.2372-0.95312 2.1367s-0.18555 2.0056-0.18555 3.418z" color="#000000" enable-background="accumulate" fill="url(#linearGradient924)"/>
   <path d="m336.59 147.4c0 1.2816-2.0506 2.5633-2.0506 4.1013 0 1.7943 2.0506 2.5633 8.4589 2.5633v1.0253c-6.4083 0-8.9716-1.2816-8.9716-3.5886 0-1.7943 2.0506-3.076 2.0506-4.1013 0-0.76899-0.76899-5.1266-8.4589-5.1266 7.6899 0 8.9716 3.845 8.9716 5.1266z" enable-background="new" stroke="#000" stroke-width=".28656"/>
   <path d="m345.73 154.58c0 1.5097-1.2239 2.7336-2.7336 2.7336-1.5097 0-2.7336-1.2239-2.7336-2.7336s1.2239-2.7336 2.7336-2.7336c1.5097 0 2.7336 1.2239 2.7336 2.7336z" enable-background="new" fill="#fff" stroke="#1c399e" stroke-width=".40897"/>
   <path d="m335.8 151.48c0 0.82375-0.68002 1.4915-1.5188 1.4915-0.83884 0-1.5188-0.66777-1.5188-1.4915 0-0.82374 0.68001-1.4915 1.5188-1.4915 0.83883 0 1.5188 0.66777 1.5188 1.4915z" enable-background="new" fill="#fff" stroke="#1c399e" stroke-width=".3034"/>
   <path d="m337.51 146.47c0 0.79526-0.64469 1.44-1.44 1.44-0.79527 0-1.44-0.64469-1.44-1.44 0-0.79527 0.64469-1.44 1.44-1.44 0.79526 0 1.44 0.64469 1.44 1.44z" enable-background="new" fill="#fff" stroke="#1c399e" stroke-width=".35999"/>
   <ellipse cx="327.98" cy="142.33" rx="1.2626" ry="1.26" enable-background="new" fill="#fff" stroke="#1c399e" stroke-width=".35974"/>
   <path d="m336 137h7.7969c5.6267-0.0276 6.2031 0.57798 6.2031 6.1934v11.615c0 5.6154-0.57631 6.1914-6.2031 6.1914h-7.7969z" color="#000000" enable-background="accumulate" fill="#fff" opacity=".1"/>
   <path d="m322 149h28v5.8086c0 5.6154-0.57631 6.1914-6.2031 6.1914h-7.7969-7.7969c-5.6268 0-6.2031-0.57603-6.2031-6.1914z" color="#000000" enable-background="accumulate" fill="#fff" opacity=".1"/>
   <path d="m321.5 154.81c0 1.4124 0.0342 2.5224 0.18555 3.4238 0.15132 0.90145 0.43164 1.6199 0.95312 2.1426 0.52148 0.5227 1.239 0.80325 2.1406 0.95312 0.90164 0.14988 2.0101 0.18075 3.4258 0.17383h7.7949 7.7969c1.4145 7e-3 2.5227-0.024 3.4238-0.17383 0.90165-0.14987 1.6192-0.43041 2.1406-0.95312 0.52148-0.52272 0.8018-1.2411 0.95312-2.1426s0.18555-2.0114 0.18555-3.4238v-11.615c0-1.4124-0.0342-2.5185-0.18555-3.418-0.15137-0.8995-0.43149-1.616-0.95312-2.1367s-1.2377-0.80004-2.1387-0.95117c-0.90094-0.15113-2.0106-0.18555-3.4258-0.18555h-7.7969-7.7969c-1.4152 0-2.5248 0.0344-3.4258 0.18555-0.90093 0.15113-1.617 0.43042-2.1387 0.95117-0.52163 0.52075-0.80175 1.2372-0.95312 2.1367s-0.18555 2.0056-0.18555 3.418z" color="#000000" enable-background="accumulate" fill="none" opacity=".2" stroke="#000"/>
   <path transform="rotate(-90 336.5 148.5)" d="m330.19 134c-5.6154 0-6.2196 0.57678-6.1921 6.2035v7.7965 7.7965c-0.0276 5.6267 0.57668 6.2035 6.1921 6.2035h11.615c5.6154 0 6.1921-0.5767 6.1921-6.2035v-7.7965-7.7965c0-5.6268-0.5767-6.2035-6.1921-6.2035z" clip-path="url(#clipPath959-7)" color="#000000" enable-background="accumulate" fill="none" opacity=".4" stroke="url(#linearGradient969)" stroke-width="2"/>
  </g>
 </g>
</svg>
