<svg width="32" height="32" enable-background="new" version="1.0" xmlns="http://www.w3.org/2000/svg" xmlns:xlink="http://www.w3.org/1999/xlink">
 <title>Suru Icon Theme Template</title>
 <defs>
  <linearGradient id="linearGradient924" x1="459.03" x2="35.31" y1="419.23" y2="207.37" gradientTransform="matrix(0 -.072088 .072086 0 312.87 165.82)" gradientUnits="userSpaceOnUse">
   <stop stop-color="#f2f2f2" offset="0"/>
   <stop stop-color="#f9f9f9" offset="1"/>
  </linearGradient>
  <linearGradient id="linearGradient969" x1="336" x2="336" y1="134" y2="162" gradientUnits="userSpaceOnUse">
   <stop stop-color="#fff" offset="0"/>
   <stop stop-color="#fff" stop-opacity=".098039" offset=".125"/>
   <stop stop-color="#fff" stop-opacity=".098039" offset=".925"/>
   <stop stop-color="#fff" stop-opacity=".49804" offset="1"/>
  </linearGradient>
  <clipPath id="clipPath959-3">
   <path d="m330.19 134c-5.6154 0-6.2196 0.57678-6.1921 6.2035v7.7965 7.7965c-0.0276 5.6267 0.57668 6.2035 6.1921 6.2035h11.615c5.6154 0 6.1921-0.5767 6.1921-6.2035v-7.7965-7.7965c0-5.6268-0.5767-6.2035-6.1921-6.2035z" color="#000000" enable-background="accumulate" fill="#46a926"/>
  </clipPath>
 </defs>
 <g transform="translate(-43.678 -257.65)">
  <g fill="#000000" font-family="ubuntu" letter-spacing="0px" word-spacing="0px">
   <text x="325.93442" y="77.856834" font-size="48px" style="line-height:1.25" xml:space="preserve"/>
   <flowRoot font-size="47.2px" style="line-height:1.25" xml:space="preserve"><flowRegion font-size="47.2px"><rect x="64.216" y="207.6" width="175.47" height="45.362"/></flowRegion><flowPara/></flowRoot>
  </g>
  <g>
   <g transform="translate(-276.32 125.65)" enable-background="new">
    <rect x="320" y="132" width="32" height="32" enable-background="accumulate" opacity="0" stroke-width="2"/>
    <path d="m330.19 134c-1.421 0-2.5488 0.0308-3.5059 0.19141-0.95703 0.16064-1.7915 0.4726-2.4121 1.0918s-0.93647 1.4561-1.0957 2.4141c-0.15924 0.95795-0.18666 2.087-0.17969 3.5117v7.791 7.7969c-7e-3 1.4213 0.0207 2.5495 0.17969 3.5058 0.15923 0.95796 0.47505 1.7949 1.0957 2.4141s1.4551 0.93115 2.4121 1.0918c0.95703 0.16065 2.0849 0.19141 3.5059 0.19141h11.615c1.421 0 2.5467-0.0307 3.502-0.19141 0.95527-0.16075 1.7878-0.47425 2.4062-1.0938 0.61845-0.6195 0.93134-1.4536 1.0918-2.4102 0.16046-0.95653 0.19141-2.084 0.19141-3.5078v-7.7969-7.7969c0-1.4238-0.031-2.5513-0.19141-3.5078-0.16045-0.95653-0.47334-1.7906-1.0918-2.4102-0.61846-0.61951-1.451-0.933-2.4062-1.0938-0.95527-0.16076-2.081-0.19141-3.502-0.19141z" color="#000000" color-rendering="auto" dominant-baseline="auto" enable-background="accumulate" image-rendering="auto" opacity=".1" shape-rendering="auto" solid-color="#000000" style="font-feature-settings:normal;font-variant-alternates:normal;font-variant-caps:normal;font-variant-ligatures:normal;font-variant-numeric:normal;font-variant-position:normal;isolation:auto;mix-blend-mode:normal;shape-padding:0;text-decoration-color:#000000;text-decoration-line:none;text-decoration-style:solid;text-indent:0;text-orientation:mixed;text-transform:none;white-space:normal"/>
    <path d="m330.19 134c-5.6154 0-6.2196 0.57678-6.1921 6.2035v7.7965 7.7965c-0.0276 5.6267 0.57668 6.2035 6.1921 6.2035h11.615c5.6154 0 6.1921-0.5767 6.1921-6.2035v-7.7965-7.7965c0-5.6268-0.5767-6.2035-6.1921-6.2035z" color="#000000" enable-background="accumulate" fill="none" opacity=".2" stroke="#000" stroke-width="2"/>
    <path d="m330.19 134c-5.6154 0-6.2196 0.57678-6.1921 6.2035v7.7965 7.7965c-0.0276 5.6267 0.57668 6.2035 6.1921 6.2035h11.615c5.6154 0 6.1921-0.5767 6.1921-6.2035v-7.7965-7.7965c0-5.6268-0.5767-6.2035-6.1921-6.2035z" color="#000000" enable-background="accumulate" fill="url(#linearGradient924)"/>
    <path d="m342.35 137.17c-0.22856-3e-3 -0.53242 0.0331-0.93672 0.0939l-6.7394 1.061c-1.6243 0.34586-1.6187 0.45345-1.6242 1.8257v10.134c-0.0678-0.0474-0.13456-0.0952-0.20461-0.14211v5e-4c-0.51604-0.34582-1.066-0.59193-1.8048-0.59193-0.92532 0-1.4772 0.35431-1.8112 0.821-0.33404 0.46669-0.44483 1.0549-0.44483 1.5096 0 0.54833 0.18723 1.1336 0.59335 1.5795 0.40614 0.44597 1.0306 0.75826 1.9284 0.75827 1.0138 0 1.727-0.2831 2.1301-0.83598 0.31743-0.43529 0.49294-1.0168 0.55557-1.7342v-0.00173c8e-3 -0.087 0.0151-0.17642 0.0207-0.26852 8e-3 -0.14179 7e-3 -0.40705 7e-3 -0.40705v-7.5254c0-1.2179-6e-5 -1.2906 1.6247-1.5683l4.7961-0.7827c1.6276-0.21296 1.628-0.0636 1.628 0.84979v6.8239c-0.0659-0.0462-0.13102-0.0927-0.19914-0.13829v4.7e-4c-0.51604-0.34582-1.0658-0.59192-1.8045-0.59192-0.92534 0-1.4774 0.35431-1.8114 0.821-0.33405 0.46668-0.44485 1.0549-0.44485 1.5096 0 0.54832 0.18746 1.1335 0.59359 1.5795 0.40615 0.44596 1.0306 0.75849 1.9284 0.7585 1.0138 0 1.727-0.28333 2.1301-0.83621 0.31741-0.4353 0.49269-1.0166 0.55534-1.734v-0.00174c8e-3 -0.087 0.0151-0.17618 0.0206-0.26828 8e-3 -0.14179 7e-3 -0.40729 7e-3 -0.40729v-10.861c0-1.0682-7e-3 -1.4219-0.69268-1.4296z" enable-background="new" fill="#ec3c50" opacity=".8"/>
    <path d="m324 148v7.7969c-0.0276 5.6267 0.57798 6.2031 6.1934 6.2031h11.615c5.6154 0 6.1914-0.57631 6.1914-6.2031v-7.7969z" color="#000000" enable-background="accumulate" fill="#fff" opacity=".2"/>
    <path d="m336 134v28h5.8086c5.6154 0 6.1914-0.57631 6.1914-6.2031v-7.7969-7.7969c0-5.6268-0.57603-6.2031-6.1914-6.2031z" color="#000000" enable-background="accumulate" fill="#fff" opacity=".2"/>
    <path d="m332.19 159.01q-0.19501-0.50146-0.41789-1.1422-0.2159-0.64772-0.39699-1.3442-0.18108 0.69648-0.39699 1.3442-0.21591 0.64077-0.41093 1.1422h-0.56415q-0.32038-0.71737-0.62683-1.6367-0.30645-0.91935-0.57808-1.985h0.69648q0.0696 0.32735 0.16716 0.71041 0.0975 0.38307 0.20198 0.76613 0.11143 0.38307 0.22984 0.73827 0.1184 0.35521 0.22287 0.61987 0.1184-0.32735 0.22984-0.68952 0.1184-0.36913 0.22287-0.73827 0.10447-0.3761 0.19502-0.7313 0.0975-0.36217 0.16715-0.67559h0.53629q0.0627 0.31342 0.15323 0.67559 0.0905 0.3552 0.19501 0.7313 0.10447 0.36914 0.21591 0.73827 0.1184 0.36217 0.23681 0.68952 0.10447-0.26466 0.2159-0.61987 0.11841-0.3552 0.22984-0.73827 0.11144-0.38306 0.20895-0.76613 0.0975-0.38306 0.16715-0.71041h0.66862q-0.27162 1.0656-0.57807 1.985-0.30646 0.91936-0.62684 1.6367z" enable-background="new" fill="#888"/>
    <path d="m334.64 155.49q0.22287-0.0557 0.58504-0.1184 0.36914-0.0627 0.84971-0.0627 0.34824 0 0.58504 0.0975 0.23681 0.0905 0.397 0.27162 0.0488-0.0348 0.15322-0.0975 0.10448-0.0627 0.2577-0.1184 0.15323-0.0627 0.34128-0.10448 0.18805-0.0487 0.40396-0.0487 0.41789 0 0.68255 0.12537 0.26466 0.1184 0.41092 0.34127 0.15323 0.22288 0.20198 0.52933 0.0557 0.30645 0.0557 0.66862v2.0337h-0.64773v-1.8944q0-0.32039-0.0348-0.55022-0.0279-0.22984-0.1184-0.38307-0.0836-0.15323-0.23681-0.22287-0.14626-0.0766-0.38306-0.0766-0.32735 0-0.54326 0.0905-0.20894 0.0836-0.28555 0.15322 0.0557 0.18109 0.0836 0.397t0.0279 0.45271v2.0337h-0.64772v-1.8944q0-0.32039-0.0348-0.55022-0.0348-0.22984-0.12536-0.38307-0.0836-0.15323-0.23681-0.22287-0.14626-0.0766-0.3761-0.0766-0.0975 0-0.20894 7e-3t-0.21591 0.0209q-0.0975 7e-3 -0.18109 0.0209-0.0836 0.0139-0.11143 0.0209v3.0576h-0.64773z" enable-background="new" fill="#888"/>
    <path d="m341.87 158.54q0.22984 0 0.40396-7e-3 0.18109-0.0139 0.29949-0.0418v-1.0796q-0.0697-0.0348-0.22984-0.0557-0.15323-0.0279-0.3761-0.0279-0.14626 0-0.31342 0.0209-0.16019 0.0209-0.29948 0.0905-0.13234 0.0627-0.22288 0.18109-0.0905 0.11143-0.0905 0.29948 0 0.34824 0.22287 0.48754 0.22288 0.13233 0.60594 0.13233zm-0.0557-3.2456q0.39003 0 0.6547 0.10447 0.27162 0.0975 0.43181 0.28556 0.16716 0.18108 0.23681 0.43878 0.0697 0.25074 0.0697 0.55719v2.2636q-0.0836 0.0139-0.23681 0.0418-0.14626 0.0209-0.33431 0.0418t-0.41092 0.0348q-0.21591 0.0209-0.43182 0.0209-0.30645 0-0.56415-0.0627t-0.44575-0.19501q-0.18805-0.1393-0.29252-0.36217-0.10447-0.22288-0.10447-0.53629 0-0.29949 0.1184-0.5154 0.12537-0.21591 0.33431-0.34824t0.48754-0.19501q0.27859-0.0627 0.58504-0.0627 0.0975 0 0.20198 0.0139 0.10447 7e-3 0.19501 0.0279 0.0975 0.0139 0.16716 0.0279 0.0696 0.0139 0.0975 0.0209v-0.18112q0-0.16019-0.0348-0.31342-0.0348-0.16019-0.12536-0.27859-0.0906-0.12536-0.25074-0.19501-0.15322-0.0766-0.40396-0.0766-0.32038 0-0.56414 0.0488-0.23681 0.0418-0.35521 0.0905l-0.0766-0.53629q0.12536-0.0557 0.41789-0.10447 0.29252-0.0557 0.63379-0.0557z" enable-background="new" fill="#888"/>
    <path d="m330.19 134c-5.6154 0-6.2196 0.57678-6.1921 6.2035v7.7965 7.7965c-0.0276 5.6267 0.57668 6.2035 6.1921 6.2035h11.615c5.6154 0 6.1921-0.5767 6.1921-6.2035v-7.7965-7.7965c0-5.6268-0.5767-6.2035-6.1921-6.2035z" clip-path="url(#clipPath959-3)" color="#000000" enable-background="accumulate" fill="none" opacity=".4" stroke="url(#linearGradient969)" stroke-width="2"/>
   </g>
  </g>
 </g>
</svg>
