<svg width="32" height="32" version="1.1" xmlns="http://www.w3.org/2000/svg" xmlns:xlink="http://www.w3.org/1999/xlink">
 <defs>
  <linearGradient id="linearGradient924" x1="459.03" x2="35.31" y1="419.23" y2="207.37" gradientTransform="matrix(0 -.072088 -.072086 0 39.129 33.818)" gradientUnits="userSpaceOnUse">
   <stop stop-color="#00c8ff" offset="0"/>
   <stop stop-color="#6bdfff" offset="1"/>
  </linearGradient>
  <linearGradient id="linearGradient1313" x1="340" x2="328" y1="132" y2="164" gradientTransform="matrix(-1,0,0,1,352,-132)" gradientUnits="userSpaceOnUse">
   <stop offset="0"/>
   <stop stop-color="#333" offset="1"/>
  </linearGradient>
  <linearGradient id="linearGradient969-7" x1="336" x2="336" y1="134" y2="162" gradientUnits="userSpaceOnUse">
   <stop stop-color="#fff" offset="0"/>
   <stop stop-color="#fff" stop-opacity=".098039" offset=".125"/>
   <stop stop-color="#fff" stop-opacity=".098039" offset=".925"/>
   <stop stop-color="#fff" stop-opacity=".49804" offset="1"/>
  </linearGradient>
  <clipPath id="clipPath959-5">
   <path d="m330.19 134c-5.6154 0-6.2196 0.57678-6.1921 6.2035v7.7965 7.7965c-0.0276 5.6267 0.57668 6.2035 6.1921 6.2035h11.615c5.6154 0 6.1921-0.5767 6.1921-6.2035v-7.7965-7.7965c0-5.6268-0.5767-6.2035-6.1921-6.2035z" color="#000000" fill="#46a926"/>
  </clipPath>
 </defs>
 <path d="m10.193 2c-1.421 0-2.5488 0.0308-3.5059 0.19141-0.95703 0.16064-1.7915 0.4726-2.4121 1.0918s-0.93647 1.4561-1.0957 2.4141c-0.15924 0.95795-0.18666 2.087-0.17969 3.5117v7.791 7.7969c-7e-3 1.4213 0.0207 2.5495 0.17969 3.5058 0.15923 0.95796 0.47505 1.7949 1.0957 2.4141s1.4551 0.93115 2.4121 1.0918c0.95703 0.16065 2.0849 0.19141 3.5059 0.19141h11.615c1.421 0 2.5467-0.0307 3.502-0.19141 0.95527-0.16075 1.7878-0.47425 2.4062-1.0938 0.61845-0.6195 0.93134-1.4536 1.0918-2.4102 0.16046-0.95653 0.19141-2.084 0.19141-3.5078v-7.7969-7.7969c0-1.4238-0.031-2.5513-0.19141-3.5078-0.16045-0.95653-0.47334-1.7906-1.0918-2.4102-0.61846-0.61951-1.451-0.933-2.4062-1.0938-0.95527-0.16076-2.081-0.19141-3.502-0.19141z" color="#000000" color-rendering="auto" dominant-baseline="auto" image-rendering="auto" opacity=".1" shape-rendering="auto" solid-color="#000000" style="font-feature-settings:normal;font-variant-alternates:normal;font-variant-caps:normal;font-variant-ligatures:normal;font-variant-numeric:normal;font-variant-position:normal;isolation:auto;mix-blend-mode:normal;shape-padding:0;text-decoration-color:#000000;text-decoration-line:none;text-decoration-style:solid;text-indent:0;text-orientation:mixed;text-transform:none;white-space:normal"/>
 <path d="m21.806 1.5c1.4124 0 2.5224 0.0342 3.4238 0.18555 0.90145 0.15132 1.6199 0.43164 2.1426 0.95312 0.5227 0.52148 0.80325 1.239 0.95312 2.1406 0.14988 0.90164 0.18075 2.0101 0.17383 3.4258v7.7949 7.7969c7e-3 1.4145-0.024 2.5227-0.17383 3.4238-0.14987 0.90165-0.43041 1.6192-0.95312 2.1406-0.52272 0.52148-1.2411 0.8018-2.1426 0.95312s-2.0114 0.18555-3.4238 0.18555h-11.615c-1.4124 0-2.5185-0.0342-3.418-0.18555-0.8995-0.15137-1.616-0.43149-2.1367-0.95312s-0.80004-1.2377-0.95117-2.1387c-0.15113-0.90094-0.18555-2.0106-0.18555-3.4258v-7.7969-7.7969c0-1.4152 0.0344-2.5248 0.18555-3.4258 0.15113-0.90093 0.43042-1.617 0.95117-2.1387 0.52075-0.52163 1.2372-0.80175 2.1367-0.95312s2.0056-0.18555 3.418-0.18555z" color="#000000" fill="url(#linearGradient924)"/>
 <path d="m21.807 4c1.372 0 2.3782 0.0445 3.0098 0.15039 0.61819 0.10377 0.76201 0.22891 0.79101 0.25781 0.0276 0.0276 0.14963 0.1658 0.25196 0.78125 0.10462 0.62946 0.14762 1.631 0.14062 3.0039v6e-3 7.8008 7.8027 6e-3c7e-3 1.3715-0.036 2.3729-0.14062 3.002-0.10231 0.61547-0.22436 0.75365-0.25196 0.78125-0.029 0.029-0.17281 0.15404-0.79101 0.25781-0.63175 0.10581-1.6378 0.15011-3.0098 0.15011h-5.8066-5.8066c-1.372 0-2.378-0.0446-3.0098-0.15039-0.6182-0.10377-0.76201-0.22881-0.79101-0.25781-0.0276-0.0276-0.14964-0.16578-0.25196-0.78125-0.10462-0.62905-0.14762-1.6304-0.14062-3.002v-6e-3 -7.8026-7.8008-6e-3c-7e-3 -1.373 0.036-2.3744 0.14062-3.0039 0.10232-0.61545 0.22436-0.75365 0.25196-0.78125 0.029-0.0289 0.17282-0.15404 0.79101-0.25781 0.63162-0.10575 1.6377-0.15025 3.0098-0.15025h5.8066z" color="#000000" color-rendering="auto" dominant-baseline="auto" fill="url(#linearGradient1313)" image-rendering="auto" shape-rendering="auto" solid-color="#000000" style="font-feature-settings:normal;font-variant-alternates:normal;font-variant-caps:normal;font-variant-ligatures:normal;font-variant-numeric:normal;font-variant-position:normal;isolation:auto;mix-blend-mode:normal;shape-padding:0;text-decoration-color:#000000;text-decoration-line:none;text-decoration-style:solid;text-indent:0;text-orientation:mixed;text-transform:none;white-space:normal"/>
 <path class="st1" d="m9.7995 9.78c0-0.07 0.14-0.12 0.22-0.12 0.64-0.03 1.59-0.05 2.58-0.05 2.77 0 3.85 1.52 3.85 3.47 0 2.54-1.84 3.63-4.1 3.63-0.38 0-0.51-0.02-0.78-0.02v3.84c0 0.08-0.03 0.12-0.12 0.12h-1.53c-0.08 0-0.12-0.03-0.12-0.12zm1.78 5.31c0.23 0.02 0.41 0.02 0.81 0.02 1.17 0 2.27-0.40999 2.27-2 0-1.27-0.79-1.91-2.12-1.91-0.4 0-0.78 0.02-0.96 0.03zm8.6-1.19c-0.79 0-1.06 0.4-1.06 0.73 0 0.36 0.18 0.61 1.24 1.16 1.57 0.76 2.06 1.49 2.06 2.56 0 1.6-1.22 2.46-2.87 2.46-0.87 0-1.62-0.18-2.05-0.43-0.07-0.03-0.08-0.08-0.08-0.16v-1.47c0-0.1 0.05-0.13 0.12-0.08 0.63 0.41 1.35 0.59 2.01 0.59 0.79 0 1.12-0.33 1.12-0.78 0-0.36-0.23-0.68-1.24-1.2-1.42-0.68-2.01-1.37-2.01-2.52 0-1.29 1.01-2.36 2.76-2.36 0.86 0 1.46 0.13 1.79 0.28 0.08 0.05 0.1 0.13 0.1 0.2v1.37c0 0.08-0.05 0.13-0.15 0.1-0.44-0.28-1.09-0.45-1.74-0.45z" enable-background="new" fill="#00c8ff" stroke-width=".1"/>
 <path d="m4 16v7.7969c-0.0276 5.6267 0.57798 6.2031 6.1934 6.2031h11.615c5.6154 0 6.1914-0.57631 6.1914-6.2031v-7.7969z" color="#000000" fill="#fff" opacity=".05"/>
 <path d="m16 2v28h5.8086c5.6154 0 6.1914-0.57631 6.1914-6.2031v-7.7969-7.7969c0-5.6268-0.57603-6.2031-6.1914-6.2031z" color="#000000" fill="#fff" opacity=".05"/>
 <path d="m10.193 1.5c-1.4124 0-2.5224 0.0342-3.4238 0.18555-0.90145 0.15132-1.6199 0.43164-2.1426 0.95312-0.5227 0.52148-0.80325 1.239-0.95312 2.1406-0.14988 0.90164-0.18075 2.0101-0.17383 3.4258v7.7949 7.7969c-7e-3 1.4145 0.024 2.5227 0.17383 3.4238 0.14987 0.90165 0.43041 1.6192 0.95312 2.1406 0.52272 0.52148 1.2411 0.8018 2.1426 0.95312s2.0114 0.18555 3.4238 0.18555h11.615c1.4124 0 2.5185-0.0342 3.418-0.18555 0.8995-0.15137 1.616-0.43149 2.1367-0.95312s0.80004-1.2377 0.95117-2.1387c0.15113-0.90094 0.18555-2.0106 0.18555-3.4258v-7.7969-7.7969c0-1.4152-0.0344-2.5248-0.18555-3.4258-0.15113-0.90093-0.43042-1.617-0.95117-2.1387-0.52075-0.52163-1.2372-0.80175-2.1367-0.95312s-2.0056-0.18555-3.418-0.18555z" color="#000000" fill="none" opacity=".3" stroke="#000"/>
 <path transform="translate(-320,-132)" d="m330.19 134c-5.6154 0-6.2196 0.57678-6.1921 6.2035v7.7965 7.7965c-0.0276 5.6267 0.57668 6.2035 6.1921 6.2035h11.615c5.6154 0 6.1921-0.5767 6.1921-6.2035v-7.7965-7.7965c0-5.6268-0.5767-6.2035-6.1921-6.2035z" clip-path="url(#clipPath959-5)" color="#000000" fill="none" opacity=".4" stroke="url(#linearGradient969-7)" stroke-width="2"/>
</svg>
