<?xml version="1.0" encoding="UTF-8" standalone="no"?>
<!-- Created with Inkscape (http://www.inkscape.org/) -->

<svg
   width="32"
   height="32"
   viewBox="0 0 8.4666665 8.4666669"
   version="1.1"
   id="svg5"
   inkscape:version="1.1.2 (0a00cf5339, 2022-02-04, custom)"
   sodipodi:docname="gsconnect.svg"
   xmlns:inkscape="http://www.inkscape.org/namespaces/inkscape"
   xmlns:sodipodi="http://sodipodi.sourceforge.net/DTD/sodipodi-0.dtd"
   xmlns:xlink="http://www.w3.org/1999/xlink"
   xmlns="http://www.w3.org/2000/svg"
   xmlns:svg="http://www.w3.org/2000/svg">
  <sodipodi:namedview
     id="namedview7"
     pagecolor="#ffffff"
     bordercolor="#666666"
     borderopacity="1.0"
     inkscape:pageshadow="2"
     inkscape:pageopacity="0.0"
     inkscape:pagecheckerboard="0"
     inkscape:document-units="px"
     showgrid="false"
     units="px"
     height="32px"
     inkscape:zoom="12.65625"
     inkscape:cx="5.4123457"
     inkscape:cy="14.65679"
     inkscape:window-width="1920"
     inkscape:window-height="1006"
     inkscape:window-x="0"
     inkscape:window-y="0"
     inkscape:window-maximized="1"
     inkscape:current-layer="svg5" />
  <defs
     id="defs2">
    <linearGradient
       inkscape:collect="always"
       id="linearGradient1871">
      <stop
         style="stop-color:#ffffff;stop-opacity:1;"
         offset="0"
         id="stop1867" />
      <stop
         style="stop-color:#ffffff;stop-opacity:0.1"
         offset="0.12"
         id="stop2515" />
      <stop
         style="stop-color:#ffffff;stop-opacity:0.102"
         offset="0.89999998"
         id="stop2581" />
      <stop
         style="stop-color:#ffffff;stop-opacity:0.502"
         offset="1"
         id="stop1869" />
    </linearGradient>
    <linearGradient
       inkscape:collect="always"
       xlink:href="#linearGradient1871"
       id="linearGradient1659"
       x1="2.6654696"
       y1="0.52916664"
       x2="2.69718"
       y2="7.9375"
       gradientUnits="userSpaceOnUse"
       gradientTransform="translate(0.79388967)" />
    <linearGradient
       inkscape:collect="always"
       xlink:href="#linearGradient1923"
       id="linearGradient1925"
       x1="1.8520833"
       y1="0.79374999"
       x2="2.9104166"
       y2="3.175"
       gradientUnits="userSpaceOnUse"
       gradientTransform="matrix(2.6666667,0,0,2.3333335,-1.4111112,-0.52916712)" />
    <linearGradient
       inkscape:collect="always"
       id="linearGradient1923">
      <stop
         style="stop-color:#5884f4;stop-opacity:1"
         offset="0"
         id="stop1919" />
      <stop
         style="stop-color:#80a3fa;stop-opacity:1"
         offset="1"
         id="stop1921" />
    </linearGradient>
  </defs>
  <path
     d="m 3.4909294,0.52916666 c -0.3759491,0 -0.6743515,0.008149 -0.9275577,0.0506439 C 2.3101681,0.62231322 2.0893998,0.70485264 1.9251914,0.86867999 1.7609857,1.0325073 1.6774276,1.2539451 1.635298,1.5074027 1.593168,1.7608603 1.585914,2.0596013 1.587758,2.4365426 v 2.061374 2.0629245 c -0.00185,0.3760549 0.00548,0.6745552 0.04754,0.9275894 0.04213,0.2534603 0.1256877,0.4748954 0.2898934,0.6387227 0.1642084,0.1638274 0.3849767,0.2463668 0.6381803,0.2888695 0.2532062,0.042505 0.5516086,0.050644 0.9275577,0.050644 h 1.4855798 c 0.3759518,0 0.6737879,-0.00812 0.9265259,-0.050644 C 6.1557756,8.3734909 6.3760386,8.290544 6.5396649,8.1266346 6.7032912,7.9627253 6.786074,7.7420284 6.8285237,7.4889491 6.8709761,7.2358672 6.7855648,6.9257359 6.879165,6.5608411 V 4.4979166 2.4349921 c 0,-0.3767084 -0.0082,-0.6750261 -0.050641,-0.928108 C 6.786074,1.2538022 6.7032912,1.033108 6.5396649,0.86919857 6.3760386,0.70528655 6.1557756,0.62234233 5.9030351,0.57981056 5.6502971,0.53727614 5.352461,0.52916666 4.9765092,0.52916666 Z"
     style="color:#000000;font-style:normal;font-variant:normal;font-weight:normal;font-stretch:normal;font-size:medium;line-height:normal;font-family:sans-serif;font-variant-ligatures:normal;font-variant-position:normal;font-variant-caps:normal;font-variant-numeric:normal;font-variant-alternates:normal;font-feature-settings:normal;text-indent:0;text-align:start;text-decoration:none;text-decoration-line:none;text-decoration-style:solid;text-decoration-color:#000000;letter-spacing:normal;word-spacing:normal;text-transform:none;writing-mode:lr-tb;direction:ltr;text-orientation:mixed;dominant-baseline:auto;baseline-shift:baseline;text-anchor:start;white-space:normal;shape-padding:0;clip-rule:nonzero;display:inline;overflow:visible;visibility:visible;opacity:0.1;isolation:auto;mix-blend-mode:normal;color-interpolation:sRGB;color-interpolation-filters:linearRGB;solid-color:#000000;solid-opacity:1;vector-effect:none;fill:#000000;fill-opacity:1;fill-rule:nonzero;stroke:none;stroke-width:0.529156;stroke-linecap:butt;stroke-linejoin:miter;stroke-miterlimit:4;stroke-dasharray:none;stroke-dashoffset:0;stroke-opacity:1;marker:none;color-rendering:auto;image-rendering:auto;shape-rendering:auto;text-rendering:auto;enable-background:accumulate"
     id="path1922"
     sodipodi:nodetypes="sccccccsccsscscscscccss" />
  <path
     d="m 3.4594434,0.396875 c -1.4715463,0 -1.7472289,0.15454047 -1.7394951,1.6621839 0,1.4495162 0,2.8990325 0,4.3485487 -0.00775,1.5076435 0.2679488,1.662184 1.7394951,1.662184 h 1.5479289 c 1.4711812,0 1.7394952,-0.1545246 1.7394952,-1.662184 0,-1.4495162 0,-2.8990325 0,-4.3485487 0,-1.5076593 -0.268314,-1.6621839 -1.7394952,-1.6621839 z"
     style="color:#000000;display:inline;overflow:visible;visibility:visible;fill:#4d4d4d;fill-opacity:1;fill-rule:nonzero;stroke:none;stroke-width:0.264583;marker:none;enable-background:accumulate"
     id="path2042"
     sodipodi:nodetypes="sccssccss" />
  <rect
     x="3.7041667"
     y="0.79374999"
     width="1.0583333"
     height="0.26458332"
     rx="0.13229166"
     ry="0.13229166"
     enable-background="new"
     opacity="0.3"
     id="rect35"
     style="stroke-width:0.264583" />
  <path
     id="rect1099"
     style="fill:url(#linearGradient1925);stroke-width:0.722978"
     d="M 2.3812501,1.3229166 H 6.085417 c 0.1465792,0 0.2645834,0.1180042 0.2645834,0.2645834 v 5.0270834 c 0,0.1465791 -0.1180042,0.2645833 -0.2645834,0.2645833 H 2.3812501 c -0.1465791,0 -0.2645833,-0.1180042 -0.2645833,-0.2645833 V 1.5875 c 0,-0.1465792 0.1180042,-0.2645834 0.2645833,-0.2645834 z" />
  <path
     d="M 3.9447788,1.3229167 2.1167461,5.3638979 v 1.2627768 c 0,0.1399143 0.1019122,0.2525554 0.2285047,0.2525554 H 3.1939812 L 5.7075229,1.3229802 Z"
     style="opacity:0.1;fill:#ffffff;stroke-width:0.264583;enable-background:new"
     id="path887" />
  <path
     d="m 2.3560511,1.3229167 c -0.1326197,0 -0.2393844,0.1180041 -0.2393844,0.2645833 V 5.3638979 L 3.9447788,1.3229167 Z"
     style="opacity:0.2;fill:#f9f9f9;stroke-width:0.264583;enable-background:new"
     id="path1003" />
  <path
     id="path2368"
     style="color:#000000;display:inline;opacity:0.3;fill:url(#linearGradient1659);fill-opacity:1;stroke-width:0.264583;-inkscape-stroke:none;enable-background:new"
     d="m 3.4593594,0.52916666 c -0.7311231,0 -1.1348932,0.0503502 -1.3358363,0.23151041 C 2.0230529,0.85125718 1.9553566,0.98085009 1.9111342,1.190625 1.8669091,1.4003999 1.85037,1.6854037 1.852222,2.0582731 v 5.292e-4 4.3490884 5.292e-4 C 1.850372,6.7812866 1.866906,7.0662931 1.911134,7.276068 1.955356,7.4858429 2.0230501,7.6154358 2.1235229,7.7060159 2.3244687,7.8871761 2.7282361,7.9375263 3.4593592,7.9375263 h 1.5482254 c 0.7309432,0 1.1326045,-0.050424 1.3327353,-0.2315104 C 6.4403854,7.6154729 6.5080869,7.4860361 6.5527089,7.276068 6.5973419,7.0660735 6.6147219,6.78035 6.6147219,6.4073616 V 2.059305 c 0,-0.3729884 -0.017383,-0.658712 -0.062013,-0.86868 C 6.5080869,0.98065695 6.4403854,0.85122014 6.3403199,0.76067707 6.1401891,0.57959095 5.7385278,0.52916666 5.0075846,0.52916666 Z M 3.5751146,0.78134632 H 4.904749 c 0.3844713,0 0.6758808,0.0106892 0.8795332,0.0434102 0.2036524,0.0327157 0.3061811,0.0816213 0.3705198,0.14314223 0.064341,0.061521 0.1156071,0.15958605 0.14986,0.35450195 0.034253,0.1949185 0.045477,0.4740354 0.045477,0.8418089 v 4.1258463 c 0,0.3677735 -0.011218,0.6468904 -0.045477,0.8418089 C 6.270412,7.3267834 6.219143,7.4248432 6.154802,7.4863641 6.0904633,7.5478851 5.9879346,7.5967933 5.7842822,7.629509 5.5806298,7.6622221 5.2892203,7.6729166 4.904749,7.6729166 H 3.5751146 c -0.3844713,0 -0.6767301,-0.010663 -0.8810837,-0.043408 C 2.4896747,7.5967642 2.3861327,7.5479671 2.3214447,7.4863641 2.2567567,7.4247586 2.2059752,7.3269289 2.172098,7.1323808 2.1382234,6.9378326 2.1273226,6.6591444 2.129209,6.2916064 V 6.2910772 2.1636804 2.1631513 C 2.127357,1.7956159 2.1382313,1.516925 2.172098,1.3223769 2.2059752,1.1278261 2.2567567,1.0299965 2.3214447,0.96839351 2.3861327,0.90678793 2.4896747,0.85799611 2.6940309,0.82524864 2.8983845,0.7925038 3.1906433,0.78184109 3.5751146,0.78184109 Z"
     sodipodi:nodetypes="ssssccsssssssccsssscssssccsssssssssccsssscc" />
  <path
     d="m 3.4593388,0.26458333 c -0.7403862,0 -1.2102121,0.0267017 -1.5130489,0.29972264 C 1.7948688,0.70081774 1.703532,0.89262213 1.6522558,1.1358483 1.6009822,1.3790745 1.5857078,1.6788685 1.5876631,2.0598235 v 4.3475381 c -0.00185,0.3806507 0.013361,0.6803654 0.064593,0.9234567 0.051276,0.2432261 0.142613,0.4350305 0.2940341,0.5715423 0.3028394,0.2730209 0.7726627,0.2997226 1.5130489,0.2997226 h 1.5481508 c 0.7402036,0 1.2081404,-0.026633 1.5099506,-0.2997226 C 6.6683429,7.7658144 6.7598173,7.5738513 6.8114719,7.3308183 6.8631239,7.0877852 6.8791659,6.7882002 6.8791659,6.4073616 V 2.059305 c 0,-0.3808386 -0.016034,-0.6804237 -0.067694,-0.9234567 C 6.7598173,0.89281528 6.6683429,0.70085214 6.5174405,0.56430597 6.2156303,0.29121629 5.7476935,0.26458333 5.0074899,0.26458333 Z m 0,0.26458333 h 1.5481511 c 0.7309432,0 1.1325727,0.0504243 1.3327036,0.23151041 0.1000654,0.0905431 0.167759,0.21997988 0.2123837,0.42994793 0.04463,0.209968 0.062013,0.4956916 0.062013,0.86868 v 4.3480566 c 0,0.3729884 -0.017383,0.6587119 -0.062013,0.86868 C 6.5079525,7.4860096 6.4402589,7.6154464 6.3401935,7.7059895 6.1400626,7.8870756 5.7384331,7.9374999 5.0074899,7.9374999 H 3.4593388 c -0.7311232,0 -1.1348588,-0.05035 -1.3358045,-0.2315104 C 2.0230614,7.6154094 1.955373,7.4858165 1.9111506,7.2760416 1.8669255,7.0662667 1.8503229,6.7812602 1.8522411,6.4083935 V 6.4078643 2.058789 2.0582599 C 1.850389,1.6853905 1.8669255,1.4003867 1.9111506,1.1906118 1.955373,0.98083686 2.023064,0.85124395 2.1235343,0.76066384 2.3244774,0.57950364 2.7282156,0.52915343 3.4593388,0.52915343 Z"
     style="color:#000000;display:inline;opacity:0.4;fill:#000000;stroke-width:0.26458;-inkscape-stroke:none;enable-background:new"
     id="path2244"
     sodipodi:nodetypes="scccccsssccccccsscssccccssssccccccccc" />
</svg>
