<?xml version="1.0" encoding="UTF-8" standalone="no"?>
<!-- Created with Inkscape (http://www.inkscape.org/) -->

<svg
   width="32"
   height="32"
   viewBox="0 0 8.4666665 8.4666669"
   version="1.1"
   id="svg2719"
   inkscape:version="1.1.2 (0a00cf5339, 2022-02-04)"
   sodipodi:docname="preferences-desktop-theme.svg"
   xmlns:inkscape="http://www.inkscape.org/namespaces/inkscape"
   xmlns:sodipodi="http://sodipodi.sourceforge.net/DTD/sodipodi-0.dtd"
   xmlns:xlink="http://www.w3.org/1999/xlink"
   xmlns="http://www.w3.org/2000/svg"
   xmlns:svg="http://www.w3.org/2000/svg">
  <sodipodi:namedview
     id="namedview2721"
     pagecolor="#ffffff"
     bordercolor="#666666"
     borderopacity="1.0"
     inkscape:pageshadow="2"
     inkscape:pageopacity="0.0"
     inkscape:pagecheckerboard="0"
     inkscape:document-units="px"
     showgrid="false"
     units="px"
     inkscape:zoom="25.3125"
     inkscape:cx="16.019753"
     inkscape:cy="16"
     inkscape:window-width="1846"
     inkscape:window-height="1011"
     inkscape:window-x="74"
     inkscape:window-y="32"
     inkscape:window-maximized="1"
     inkscape:current-layer="svg2719" />
  <defs
     id="defs2716">
    <linearGradient
       inkscape:collect="always"
       id="linearGradient1871">
      <stop
         style="stop-color:#ffffff;stop-opacity:1;"
         offset="0"
         id="stop1867" />
      <stop
         style="stop-color:#ffffff;stop-opacity:0.1"
         offset="0.12"
         id="stop2515" />
      <stop
         style="stop-color:#ffffff;stop-opacity:0.102"
         offset="0.89999998"
         id="stop2581" />
      <stop
         style="stop-color:#ffffff;stop-opacity:0.502"
         offset="1"
         id="stop1869" />
    </linearGradient>
    <linearGradient
       inkscape:collect="always"
       xlink:href="#linearGradient1871"
       id="linearGradient867"
       x1="4.6278176"
       y1="11.864628"
       x2="4.6278176"
       y2="18.214628"
       gradientUnits="userSpaceOnUse"
       gradientTransform="translate(-2.5695447,-10.806133)" />
    <linearGradient
       inkscape:collect="always"
       id="linearGradient3598">
      <stop
         style="stop-color:#3daee9;stop-opacity:1"
         offset="0"
         id="stop3594" />
      <stop
         style="stop-color:#0e8dff;stop-opacity:1"
         offset="1"
         id="stop3596" />
    </linearGradient>
    <linearGradient
       inkscape:collect="always"
       xlink:href="#linearGradient3598"
       id="linearGradient2033"
       x1="8.8635073"
       y1="4.7625222"
       x2="0.13225743"
       y2="3.1750221"
       gradientUnits="userSpaceOnUse" />
  </defs>
  <path
     d="M 1.9202958,1.05855 C 1.6045987,1.0609 1.3485526,1.07831 1.1358477,1.123146 0.89262153,1.174426 0.70081823,1.2657609 0.56430643,1.4171849 0.29128553,1.7200319 0.26458333,2.1898658 0.26458333,2.9302708 v 3.1357255 c 0,0.7402219 0.026633,1.2081701 0.2997231,1.5099851 0.1365462,0.150908 0.3285086,0.242385 0.57154127,0.2940388 0.2430331,0.05166 0.5426192,0.067696 0.9234578,0.067696 h 2.1740276 2.1740275 c 0.3808389,0 0.6804247,-0.016026 0.9234577,-0.067696 C 7.5738514,7.8183702 7.7658137,7.7268891 7.9023596,7.5759811 8.1754496,7.2741661 8.2020831,6.8062179 8.2020831,6.065996 V 2.9302703 c 0,-0.740405 -0.026701,-1.2102409 -0.2997235,-1.5130859 C 7.7658486,1.2657604 7.5740443,1.1744215 7.3308183,1.1231455 7.0877263,1.0718956 6.7880116,1.05662 6.4073606,1.05855 H 4.2333331 2.0598222 2.0592931 c -0.047581,-2.375e-4 -0.09391,-3.36e-4 -0.1390097,0 z"
     style="color:#000000;display:inline;overflow:visible;visibility:visible;fill:#000000;fill-opacity:1;fill-rule:nonzero;stroke:none;stroke-width:0.264583;marker:none;enable-background:accumulate;opacity:0.1"
     id="path1438" />
  <path
     d="m 8.0697573,2.6657202 c 0,-1.471547 -0.154541,-1.74722903 -1.662184,-1.73949503 H 4.23332 2.0590245 C 0.55138113,0.91842517 0.39684063,1.1941732 0.39684063,2.6657202 v 3.135429 c 0,1.471181 0.1545246,1.739495 1.66218387,1.739495 H 4.23332 6.4075733 c 1.507659,0 1.662184,-0.268314 1.662184,-1.739495 z"
     style="color:#000000;display:inline;overflow:visible;visibility:visible;fill:url(#linearGradient2033);fill-opacity:1;fill-rule:nonzero;stroke:none;stroke-width:0.264583;marker:none;enable-background:accumulate"
     id="path908" />
  <path
     id="rect1519"
     style="opacity:0.3;fill:#000000;stroke-width:0.94868;stroke-linejoin:round"
     d="M 7.78125 3.5 C 2.0830704 3.4705197 1.5 4.5124663 1.5 10.074219 L 1.5 21.925781 C 1.5 27.48615 2.0830103 28.5 7.78125 28.5 L 9 28.5 L 9 3.5 L 7.78125 3.5 z "
     transform="scale(0.26458333)" />
  <path
     id="rect31"
     d="m 1.0583334,2.1166666 c -0.1465792,0 -0.2645834,0.1180041 -0.2645834,0.2645833 v 0.5291667 c 0,0.1465791 0.1180042,0.2645833 0.2645834,0.2645833 H 1.5875 c 0.1465792,0 0.2645834,-0.1180042 0.2645834,-0.2645833 V 2.3812499 c 0,-0.1465792 -0.1180042,-0.2645833 -0.2645834,-0.2645833 z m 0,1.8520833 c -0.1465792,0 -0.2645834,0.1180042 -0.2645834,0.2645833 v 0.5291667 c 0,0.1465791 0.1180042,0.2645833 0.2645834,0.2645833 H 1.5875 c 0.1465792,0 0.2645834,-0.1180042 0.2645834,-0.2645833 V 4.2333332 c 0,-0.1465791 -0.1180042,-0.2645833 -0.2645834,-0.2645833 z m 0,1.8520833 c -0.1465792,0 -0.2645834,0.1180042 -0.2645834,0.2645833 v 0.5291667 c 0,0.1465792 0.1180042,0.2645833 0.2645834,0.2645833 H 1.5875 c 0.1465792,0 0.2645834,-0.1180041 0.2645834,-0.2645833 V 6.0854165 c 0,-0.1465791 -0.1180042,-0.2645833 -0.2645834,-0.2645833 z"
     style="opacity:0.25;fill:#000000;fill-opacity:1;stroke-width:0.264583" />
  <path
     id="rect33"
     d="m 1.0583334,1.8520833 c -0.1465792,0 -0.2645834,0.1180041 -0.2645834,0.2645833 v 0.5291666 c 0,0.1465792 0.1180042,0.2645834 0.2645834,0.2645834 H 1.5875 c 0.1465792,0 0.2645834,-0.1180042 0.2645834,-0.2645834 V 2.1166666 c 0,-0.1465792 -0.1180042,-0.2645833 -0.2645834,-0.2645833 z m 0,1.8520833 c -0.1465792,0 -0.2645834,0.1180041 -0.2645834,0.2645833 v 0.5291666 c 0,0.1465792 0.1180042,0.2645834 0.2645834,0.2645834 H 1.5875 c 0.1465792,0 0.2645834,-0.1180042 0.2645834,-0.2645834 V 3.9687499 c 0,-0.1465792 -0.1180042,-0.2645833 -0.2645834,-0.2645833 z m 0,1.8520833 c -0.1465792,0 -0.2645834,0.1180041 -0.2645834,0.2645833 v 0.5291667 c 0,0.1465791 0.1180042,0.2645833 0.2645834,0.2645833 H 1.5875 c 0.1465792,0 0.2645834,-0.1180042 0.2645834,-0.2645833 V 5.8208332 C 1.8520834,5.674254 1.7340792,5.5562499 1.5875,5.5562499 Z"
     style="fill:#faf8f6;fill-opacity:1;stroke-width:0.264583" />
  <path
     d="m 4.2957843,2.6459535 c -0.180676,-7.937e-4 -0.3222096,0.00307 -0.4373298,0.022199 -0.1151678,0.019156 -0.2068142,0.054978 -0.2734204,0.1217427 -0.066609,0.066768 -0.1024149,0.1585277 -0.1217428,0.273685 -0.00781,0.046556 -0.011827,0.1011079 -0.015478,0.1571678 -0.00534,0.082582 -0.00823,0.1726962 -0.00823,0.2801673 v 1.4835981 c 0,0.1804061 0.00437,0.3216804 0.023707,0.4365625 0.019341,0.114882 0.055113,0.2064067 0.1217401,0.2729177 0.066627,0.066511 0.1580965,0.10219 0.2731823,0.1214913 0.1150779,0.019315 0.2568099,0.023707 0.4375679,0.023707 h 0.9958917 0.9958916 c 0.180766,0 0.3225007,-0.00439 0.4375679,-0.023707 C 6.8402081,5.7961959 6.9316745,5.7605089 6.9983151,5.6939932 7.0649421,5.6274772 7.1007221,5.5359628 7.1200552,5.4210755 7.1393962,5.3061828 7.1437622,5.1649059 7.1437622,4.984513 V 3.5009149 c 0,-0.1074632 -0.00315,-0.197575 -0.00849,-0.2801673 -0.00362,-0.05606 -0.00741,-0.1106117 -0.015214,-0.1571678 C 7.1007406,2.9484358 7.064924,2.856673 6.9983125,2.7898948 6.9317036,2.7231298 6.8400599,2.6872947 6.7248921,2.6681521 6.6097242,2.6489962 6.4681431,2.6450539 6.2873242,2.6459535 H 5.2916706 Z"
     style="color:#000000;fill:#eff0f1;stroke-width:0.264583;enable-background:accumulate;fill-opacity:1"
     id="path899"
     sodipodi:nodetypes="ccsccsscscscscccssccccccc" />
  <path
     d="m 4.2969643,2.6459509 c -0.180676,-7.938e-4 -0.3220773,0.0031 -0.4371975,0.022225 -0.1151678,0.019156 -0.2072772,0.055192 -0.2738966,0.121957 -0.066609,0.066768 -0.1021133,0.1582235 -0.1214411,0.2733675 -0.00601,0.035835 -0.00881,0.078573 -0.01188,0.1209225 H 7.1329034 C 7.1298871,3.1420737 7.1270296,3.0993356 7.1210236,3.0635004 7.101709,2.9483564 7.066194,2.8568979 6.9995825,2.7901329 6.9329736,2.723368 6.8408642,2.6873185 6.7256858,2.6681759 6.610518,2.64902 6.4693257,2.6450513 6.2884883,2.6459509 H 5.2926761 Z"
     style="color:#000000;fill:#51565b;stroke-width:0.264583;enable-background:accumulate;fill-opacity:1"
     id="path1019" />
  <path
     d="m 2.0582599,1.0584922 c -0.3728694,-0.0019 -0.6578733,0.01469 -0.8676481,0.05891 -0.20977492,0.04422 -0.33936792,0.111913 -0.42994802,0.212389 -0.18116015,0.200951 -0.23151035,0.604694 -0.23151035,1.335836 v 3.135725 c 0,0.730959 0.050424,1.132599 0.23151035,1.332735 0.090543,0.100068 0.2199773,0.167765 0.42994802,0.212389 0.2099706,0.04463 0.4956889,0.06201 0.8686799,0.06201 H 4.23332 6.4073484 c 0.372991,0 0.6587093,-0.01738 0.8686799,-0.06201 0.209971,-0.04462 0.339405,-0.112321 0.429948,-0.212389 0.181086,-0.200136 0.23151,-0.601776 0.23151,-1.332735 v -3.135725 c 0,-0.731142 -0.05035,-1.134888 -0.23151,-1.335836 -0.09058,-0.10047 -0.220173,-0.168164 -0.429948,-0.212386 -0.2097748,-0.04423 -0.4947787,-0.06076 -0.8676481,-0.05891 H 6.4078511 4.23332 2.0587758 Z m 1.6820673,0.275953 c 0.7202514,-7.94e-4 1.440352,-5.29e-4 2.1605901,0.0041 0.4519639,0.02 0.9180936,-0.03309 1.3652924,0.06563 0.2361456,0.03078 0.3461546,0.2739 0.3560496,0.486791 0.03456,1.320914 0.0094,2.64699 0.01707,3.970819 -0.0172,0.357251 0.0675,0.747702 -0.133842,1.067634 -0.1683759,0.181321 -0.4509138,0.153966 -0.6769633,0.186552 -1.4090253,0.03524 -2.8201249,0.01918 -4.2312642,0.01704 -0.4972976,-0.02286 -1.0181537,0.04429 -1.5022354,-0.107487 -0.24265202,-0.09412 -0.23905892,-0.405646 -0.26096642,-0.623215 -0.036478,-1.23431 -0.00751,-2.476659 -0.00672,-3.712954 0.019288,-0.331136 -0.027943,-0.673301 0.056846,-0.996838 0.048678,-0.24098 0.31437522,-0.307018 0.52348072,-0.327629 0.7773194,-0.04229 1.5535487,-0.02109 2.3326752,-0.03049 z"
     style="color:#000000;display:inline;overflow:visible;visibility:visible;fill:url(#linearGradient867);fill-opacity:1;fill-rule:nonzero;stroke:none;stroke-width:0.264583;marker:none;enable-background:accumulate;opacity:0.3"
     id="path1034" />
  <path
     d="m 2.059305,0.79390917 c -0.3806508,-0.0019 -0.6803655,0.01336 -0.9234567,0.0646 -0.24322622,0.05128 -0.43503057,0.14261503 -0.57154227,0.29403903 -0.2730209,0.302847 -0.2997227,0.772681 -0.2997227,1.513086 v 3.135725 c 0,0.740222 0.026633,1.20817 0.2997227,1.509985 0.1365461,0.150908 0.32850925,0.242385 0.57154227,0.294039 0.243033,0.05166 0.5426181,0.0677 0.9234567,0.0677 h 2.1740283 2.1740283 c 0.3808386,0 0.6804236,-0.01603 0.9234567,-0.0677 0.243033,-0.05165 0.434996,-0.143131 0.571542,-0.294039 0.27309,-0.301815 0.299723,-0.769763 0.299723,-1.509985 v -3.135725 c 0,-0.740405 -0.0267,-1.210241 -0.299723,-1.513086 -0.136511,-0.151424 -0.328316,-0.24276303 -0.571542,-0.29403903 -0.2430913,-0.05125 -0.542806,-0.06653 -0.9234567,-0.0646 H 4.2333333 2.0598236 Z M 2.058245,1.0584922 h 5.292e-4 2.1745442 2.1745443 5.292e-4 c 0.3728693,-0.0019 0.6578732,0.01469 0.8676481,0.05891 0.2097743,0.04422 0.3393673,0.111916 0.4299473,0.212389 0.18116,0.200948 0.231511,0.604694 0.231511,1.335836 v 3.135725 c 0,0.730959 -0.05043,1.132599 -0.231511,1.332735 -0.09054,0.100068 -0.21998,0.167762 -0.4299473,0.212389 -0.2099681,0.04463 -0.4956916,0.06201 -0.86868,0.06201 H 4.2333333 2.059305 c -0.3729884,0 -0.658712,-0.01738 -0.86868,-0.06201 C 0.98065688,7.3018522 0.85122008,7.2341582 0.76067708,7.1340902 0.57959093,6.9339542 0.52916673,6.5323142 0.52916673,5.8013552 v -3.135725 c 0,-0.731142 0.05035,-1.134885 0.23151035,-1.335836 0.09058,-0.100476 0.220173,-0.168167 0.42994792,-0.212389 0.2097749,-0.04423 0.4947814,-0.06083 0.8676481,-0.05891 z"
     style="color:#000000;display:inline;opacity:0.4;fill:#000000;stroke-width:0.264583;-inkscape-stroke:none;enable-background:new"
     id="path1156" />
</svg>
