<?xml version="1.0" encoding="UTF-8" standalone="no"?>
<svg
   width="32"
   height="32"
   version="1"
   id="svg53"
   sodipodi:docname="qvidcap.svg"
   inkscape:version="1.1.2 (0a00cf5339, 2022-02-04, custom)"
   xmlns:inkscape="http://www.inkscape.org/namespaces/inkscape"
   xmlns:sodipodi="http://sodipodi.sourceforge.net/DTD/sodipodi-0.dtd"
   xmlns="http://www.w3.org/2000/svg"
   xmlns:svg="http://www.w3.org/2000/svg">
  <sodipodi:namedview
     id="namedview55"
     pagecolor="#ffffff"
     bordercolor="#666666"
     borderopacity="1.0"
     inkscape:pageshadow="2"
     inkscape:pageopacity="0.0"
     inkscape:pagecheckerboard="0"
     showgrid="false"
     inkscape:zoom="25.96875"
     inkscape:cx="16"
     inkscape:cy="16"
     inkscape:window-width="1920"
     inkscape:window-height="1006"
     inkscape:window-x="0"
     inkscape:window-y="0"
     inkscape:window-maximized="1"
     inkscape:current-layer="svg53" />
  <defs
     id="defs25">
    <linearGradient
       id="linearGradient8588-0"
       x1="13.735"
       x2="38.1"
       y1="249.69"
       y2="292.77"
       gradientTransform="matrix(.60892 0 0 .60892 .85556 -149.71)"
       gradientUnits="userSpaceOnUse">
      <stop
         stop-color="#cdcdcd"
         offset="0"
         id="stop2" />
      <stop
         stop-color="#d9d9d9"
         offset="1"
         id="stop4" />
    </linearGradient>
    <radialGradient
       id="radialGradient1066"
       cx="-256"
       cy="-256.2"
       r="96"
       gradientTransform="matrix(0 -.09375 -.09375 0 -8.0188 -8.0001)"
       gradientUnits="userSpaceOnUse">
      <stop
         stop-opacity="0"
         offset="0"
         id="stop7" />
      <stop
         stop-opacity="0"
         offset=".89867"
         id="stop9" />
      <stop
         stop-opacity=".26166"
         offset=".94933"
         id="stop11" />
      <stop
         offset="1"
         id="stop13" />
    </radialGradient>
    <linearGradient
       id="linearGradient8590-3"
       x1="96"
       x2="96"
       y1="4"
       y2="188"
       gradientTransform="matrix(.15217 0 0 .15217 1.3913 1.3913)"
       gradientUnits="userSpaceOnUse">
      <stop
         stop-color="#fff"
         offset="0"
         id="stop16" />
      <stop
         stop-color="#fff"
         stop-opacity=".098039"
         offset=".125"
         id="stop18" />
      <stop
         stop-color="#fff"
         stop-opacity=".098039"
         offset=".925"
         id="stop20" />
      <stop
         stop-color="#fff"
         stop-opacity=".49804"
         offset="1"
         id="stop22" />
    </linearGradient>
  </defs>
  <circle
     transform="scale(-1)"
     cx="-16"
     cy="-17"
     r="15"
     enable-background="new"
     opacity=".1"
     id="circle27" />
  <circle
     cx="16"
     cy="16"
     r="14.5"
     enable-background="new"
     fill="url(#linearGradient8588-0)"
     id="circle29" />
  <circle
     transform="matrix(0,-1,-1,0,0,0)"
     cx="-15.972"
     cy="-16"
     r="12.273"
     color="#000000"
     fill="#46444a"
     id="circle31" />
  <path
     d="m16 3.6992a12.273 12.273 0 0 0-12.273 12.273 12.273 12.273 0 0 0 12.273 12.273 12.273 12.273 0 0 0 12.273-12.273 12.273 12.273 0 0 0-12.273-12.273zm0 4.391a7.8819 7.8819 0 0 1 7.8819 7.8819 7.8819 7.8819 0 0 1-7.8819 7.8819 7.8819 7.8819 0 0 1-7.8819-7.8819 7.8819 7.8819 0 0 1 7.8819-7.8819z"
     color="#000000"
     fill="url(#radialGradient1066)"
     opacity=".1"
     id="path33" />
  <circle
     transform="matrix(0,-1,-1,0,0,0)"
     cx="-15.972"
     cy="-16"
     r="9.5455"
     color="#000000"
     fill="#fda463"
     id="circle35" />
  <circle
     transform="matrix(0,-1,-1,0,0,0)"
     cx="-15.972"
     cy="-15.812"
     r="8.1818"
     color="#000000"
     fill="#fb7c38"
     id="circle37" />
  <circle
     transform="matrix(0,-1,-1,0,0,0)"
     cx="-15.972"
     cy="-16"
     r="6.8182"
     color="#000000"
     fill="#f34f17"
     id="circle39" />
  <circle
     transform="matrix(-.13917 -.99027 -.99027 .13917 0 0)"
     cx="-18.043"
     cy="-13.621"
     r="2.7273"
     color="#000000"
     fill="#d64310"
     id="circle41" />
  <circle
     transform="rotate(-8)"
     cx="14.84"
     cy="17.113"
     r=".81818"
     color="#000000"
     fill="#fff"
     opacity=".3"
     id="circle43" />
  <circle
     transform="rotate(-8)"
     cx="12.376"
     cy="18.97"
     r=".27273"
     color="#000000"
     fill="#fff"
     opacity=".3"
     id="circle45" />
  <circle
     cx="18.727"
     cy="13.245"
     r="2.7273"
     color="#000000"
     fill="#fff"
     opacity=".2"
     id="circle47" />
  <circle
     cx="16"
     cy="16"
     r="14.5"
     enable-background="new"
     fill="none"
     opacity=".4"
     stroke="#000"
     stroke-dashoffset="6.6"
     stroke-linejoin="round"
     id="circle49" />
  <path
     d="m16 2c-7.732 0-14 6.268-14 14s6.268 14 14 14c7.732 0 14-6.268 14-14s-6.268-14-14-14zm0 1a13 13 0 0 1 13 13 13 13 0 0 1-13 13 13 13 0 0 1-13-13 13 13 0 0 1 13-13z"
     enable-background="new"
     fill="url(#linearGradient8590-3)"
     id="path51" />
  <circle
     style="fill:#e95420;fill-opacity:1;stroke-width:0.739128"
     id="path980"
     cx="23"
     cy="22.999998"
     r="8.5" />
  <path
     id="path45"
     d="m 22.005859,17.000001 v 1.050781 c -0.526427,0.103695 -1.024236,0.288748 -1.478515,0.542969 l -0.585938,-0.699219 -1.503906,1.283202 0.585938,0.701173 c -0.322215,0.407497 -0.583749,0.864539 -0.769532,1.359374 L 17.330078,21.07422 17,23.025391 l 0.935547,0.166016 c 0.0181,0.527438 0.117317,1.034904 0.285158,1.509766 l -0.851564,0.492186 0.998047,1.707032 0.863281,-0.499999 c 0.336264,0.373863 0.727195,0.696704 1.160156,0.95703 l -0.351564,0.964845 1.859376,0.666014 0.34961,-0.966796 c 0.239391,0.03504 0.483461,0.05468 0.732422,0.05469 0.257004,-1.1e-5 0.509095,-0.01931 0.755859,-0.05664 l 0.355469,0.980466 1.851562,-0.689453 -0.351562,-0.964844 c 0.428285,-0.260322 0.813715,-0.583269 1.146484,-0.955077 l 0.892577,0.515624 0.976563,-1.71875 -0.86328,-0.498047 c 0.164938,-0.47033 0.262934,-0.972413 0.281249,-1.49414 l 0.974609,-0.171875 -0.355468,-1.947265 -0.935547,0.166016 c -0.183416,-0.489819 -0.440605,-0.943124 -0.757812,-1.347657 l 0.607421,-0.726562 -1.519531,-1.263672 -0.58789,0.701172 C 24.99929,18.350122 24.504511,18.162699 23.980469,18.056643 v -1.056641 z m 0.97461,2.269531 c 2.066572,-5.1e-5 3.736328,1.673089 3.736328,3.746093 0,2.073006 -1.669756,3.744191 -3.736328,3.744141 -2.066538,0 -3.734375,-1.671171 -3.734375,-3.744141 0,-2.072968 1.667837,-3.746093 3.734375,-3.746093 z"
     style="fill:#ffffff;fill-opacity:1;stroke:none;stroke-width:0.999999" />
  <path
     id="path854"
     style="opacity:0.4;fill:#000000;stroke-width:0.750002"
     d="m 23,14 a 8.9999995,8.9999995 0 0 0 -9,9 8.9999995,8.9999995 0 0 0 9,9 8.9999995,8.9999995 0 0 0 9,-9 8.9999995,8.9999995 0 0 0 -9,-9 z m 0,1 a 8,8 0 0 1 8,8 8,8 0 0 1 -8,8 8,8 0 0 1 -8,-8 8,8 0 0 1 8,-8 z" />
</svg>
