<?xml version="1.0" encoding="UTF-8" standalone="no"?>
<!-- Created with Inkscape (http://www.inkscape.org/) -->

<svg
   width="32"
   height="32"
   viewBox="0 0 8.4666667 8.4666667"
   version="1.1"
   id="svg5"
   sodipodi:docname="system-settings.svg"
   inkscape:version="1.1.2 (0a00cf5339, 2022-02-04)"
   xmlns:inkscape="http://www.inkscape.org/namespaces/inkscape"
   xmlns:sodipodi="http://sodipodi.sourceforge.net/DTD/sodipodi-0.dtd"
   xmlns:xlink="http://www.w3.org/1999/xlink"
   xmlns="http://www.w3.org/2000/svg"
   xmlns:svg="http://www.w3.org/2000/svg">
  <sodipodi:namedview
     id="namedview7"
     pagecolor="#ffffff"
     bordercolor="#666666"
     borderopacity="1.0"
     inkscape:pageshadow="2"
     inkscape:pageopacity="0.0"
     inkscape:pagecheckerboard="0"
     inkscape:document-units="px"
     showgrid="false"
     units="px"
     height="48px"
     showguides="false"
     inkscape:zoom="16.375"
     inkscape:cx="16.793893"
     inkscape:cy="19.206107"
     inkscape:window-width="1920"
     inkscape:window-height="1012"
     inkscape:window-x="0"
     inkscape:window-y="0"
     inkscape:window-maximized="1"
     inkscape:current-layer="svg5" />
  <defs
     id="defs2">
    <linearGradient
       inkscape:collect="always"
       id="linearGradient1871">
      <stop
         style="stop-color:#ffffff;stop-opacity:1;"
         offset="0"
         id="stop1867" />
      <stop
         style="stop-color:#ffffff;stop-opacity:0.1"
         offset="0.12"
         id="stop2515" />
      <stop
         style="stop-color:#ffffff;stop-opacity:0.102"
         offset="0.89999998"
         id="stop2581" />
      <stop
         style="stop-color:#ffffff;stop-opacity:0.502"
         offset="1"
         id="stop1869" />
    </linearGradient>
    <linearGradient
       inkscape:collect="always"
       xlink:href="#linearGradient1871"
       id="linearGradient1198"
       x1="6.3499999"
       y1="0.52916658"
       x2="6.3499994"
       y2="12.170834"
       gradientUnits="userSpaceOnUse"
       gradientTransform="matrix(2.405154,0,0,2.405154,0.72727268,0.72727268)" />
    <linearGradient
       inkscape:collect="always"
       xlink:href="#linearGradient2014"
       id="linearGradient2016"
       x1="9.921875"
       y1="11.1125"
       x2="2.7781253"
       y2="1.5874999"
       gradientUnits="userSpaceOnUse"
       gradientTransform="matrix(0.64444444,0,0,0.64444444,0.14111151,0.14111151)" />
    <linearGradient
       inkscape:collect="always"
       id="linearGradient2014">
      <stop
         style="stop-color:#e6e6e6;stop-opacity:1"
         offset="0"
         id="stop2010" />
      <stop
         style="stop-color:#d3d3d3;stop-opacity:1"
         offset="1"
         id="stop2012" />
    </linearGradient>
  </defs>
  <circle
     style="opacity:0.1;fill:#000000;fill-opacity:1;stroke-width:0.345109;stroke-linecap:round;stroke-linejoin:round"
     id="path3625"
     cx="4.2333331"
     cy="4.4979167"
     r="3.96875" />
  <circle
     style="fill:url(#linearGradient2016);fill-opacity:1;stroke-width:0.341019;stroke-linecap:round;stroke-linejoin:round"
     id="path986"
     cx="4.2333336"
     cy="4.2333336"
     r="3.8364584" />
  <circle
     style="fill:#4d4d4d;fill-opacity:1;stroke-width:0.264583;stroke-linejoin:round"
     id="path1469"
     cx="4.2333331"
     cy="4.2333331"
     r="2.9104166" />
  <path
     id="rect884"
     style="fill:#cdcdcd;fill-opacity:1;stroke-width:0.264583;stroke-linejoin:round"
     d="m 4.1743082,1.8607906 c -0.126066,0.00276 -0.1743348,0.030305 -0.1953371,0.2108399 l -0.00878,0.072864 c -0.021061,0.1338149 -0.025323,0.1945885 -0.1519285,0.2273763 -0.00848,0.0019 -0.01688,0.00367 -0.025321,0.00568 -0.00198,4.127e-4 -0.00364,0.00115 -0.00569,0.00155 -0.031803,0.00767 -0.063917,0.01607 -0.095085,0.025322 -0.00504,0.00171 -0.00967,0.00315 -0.01447,0.00465 -0.00474,0.00145 -0.00923,0.00265 -0.013954,0.00413 -0.1272252,0.035689 -0.1610249,-0.01465 -0.2464964,-0.1204061 l -0.04444,-0.058911 C 3.3108312,2.150552 3.2663667,2.1152873 3.218811,2.1114214 c -0.00595,-4.842e-4 -0.012015,-4.763e-4 -0.018087,0 -0.042516,0.00334 -0.089245,0.029134 -0.153479,0.067179 C 2.8985201,2.2622754 2.8501487,2.2979748 2.9325233,2.488659 l 0.028422,0.067696 c 0.052402,0.1361148 0.079541,0.188456 -0.041341,0.294039 l 0.0031,-5.291e-4 c -0.024985,0.023683 -0.049181,0.047877 -0.072864,0.072864 l 5.291e-4,-0.0031 c -0.105583,0.1208852 -0.1579242,0.093743 -0.294039,0.041341 L 2.4886214,2.9320439 C 2.4290314,2.9062999 2.3845529,2.8933609 2.349095,2.8922529 2.27109,2.8898229 2.2360902,2.9450339 2.1785628,3.0472821 2.0916008,3.1941089 2.0671748,3.2488927 2.2338568,3.3728437 l 0.058911,0.044442 c 0.1057568,0.085472 0.1560981,0.1192712 0.1204062,0.2464964 -0.00149,0.00473 -0.00268,0.00921 -0.00413,0.013954 -0.0015,0.0048 -0.00294,0.00995 -0.00465,0.014986 -0.00925,0.031167 -0.01765,0.062765 -0.025321,0.094568 -4.022e-4,0.00204 -0.00114,0.00369 -0.00155,0.00569 -0.00201,0.00844 -0.00379,0.016838 -0.00568,0.025321 C 2.339052,3.9449064 2.278282,3.9486526 2.1444667,3.9697129 l -0.072864,0.0093 c -0.2063251,0.023997 -0.212738,0.083609 -0.2108398,0.2542452 -0.0019,0.1706362 0.00451,0.2302455 0.2108398,0.2542482 l 0.072864,0.0093 c 0.1338149,0.021061 0.1945885,0.025323 0.2273763,0.1519286 0.0019,0.00849 0.00367,0.01688 0.00568,0.025321 4.128e-4,0.00198 0.00115,0.00364 0.00155,0.00568 0.00771,0.031965 0.016015,0.063245 0.025321,0.094568 0.00179,0.00523 0.0031,0.010033 0.00465,0.014986 0.00145,0.00474 0.00265,0.00923 0.00413,0.013952 0.035689,0.1272252 -0.01465,0.1610246 -0.1204062,0.2464967 l -0.058911,0.044442 C 2.0671763,5.21813 2.0916027,5.272917 2.1785643,5.4197441 2.262239,5.568469 2.2979387,5.6168404 2.4886229,5.5344659 l 0.067696,-0.028422 c 0.1361145,-0.052402 0.1884565,-0.079541 0.294039,0.041341 l -5.292e-4,-0.0031 c 0.023683,0.024985 0.047877,0.049184 0.072864,0.072864 l -0.0031,-0.00103 c 0.1208852,0.1055828 0.093743,0.158441 0.041341,0.2945559 l -0.028422,0.067696 c -0.082378,0.1906812 -0.034004,0.225861 0.114721,0.3095389 0.1468268,0.086962 0.2016106,0.1113883 0.3255616,-0.055294 l 0.044442,-0.058394 c 0.085471,-0.1057566 0.1192715,-0.1560951 0.2464964,-0.1204063 0.00473,0.00148 0.00921,0.00268 0.013954,0.00414 0.00495,0.00153 0.00976,0.00286 0.014986,0.00465 l -5.292e-4,-5.287e-4 c 0.031323,0.00931 0.063119,0.018129 0.095085,0.025839 0.00204,3.968e-4 0.00369,0.00114 0.00569,0.00156 0.00844,0.00201 0.016838,0.00379 0.025321,0.00568 0.126605,0.032791 0.1308682,0.093045 0.1519285,0.2268595 l 0.00878,0.073381 c 0.024,0.2063253 0.083609,0.2122213 0.2542481,0.2103231 0.1706365,0.00191 0.2307625,-0.004 0.254765,-0.2103231 l 0.00878,-0.073381 c 0.021067,-0.1338139 0.025327,-0.1940709 0.1519319,-0.2268586 0.00848,-0.0019 0.01688,-0.00368 0.025321,-0.00568 0.00198,-4.233e-4 0.00364,-0.00116 0.00568,-0.00156 0.031965,-0.00771 0.063245,-0.016534 0.094568,-0.025839 v 5.291e-4 c 0.00523,-0.0018 0.01003,-0.00311 0.014986,-0.00465 0.00474,-0.00146 0.00923,-0.00265 0.013952,-0.00414 0.1272251,-0.035689 0.1610249,0.01465 0.2464967,0.1204063 l 0.044441,0.058394 C 5.218068,6.399298 5.2728553,6.3748714 5.4196821,6.2879097 5.568407,6.2042353 5.6167813,6.169052 5.5344038,5.9783679 L 5.5059818,5.9106719 C 5.4535794,5.774557 5.4264409,5.7216988 5.5473229,5.616116 l -0.0031,0.00103 c 0.024985,-0.023683 0.049184,-0.048394 0.072864,-0.073381 l -0.00103,0.00362 C 5.7216368,5.4264989 5.7744949,5.453641 5.9106098,5.506043 l 0.067696,0.028422 C 6.16899,5.6168426 6.204173,5.5684685 6.2878477,5.4197433 6.3748094,5.2729165 6.399236,5.2181324 6.232554,5.0941817 L 6.1741597,5.0497402 C 6.0684031,4.9642684 6.0180614,4.9304687 6.0537534,4.8032435 c 0.00148,-0.00473 0.00268,-0.00922 0.00414,-0.013952 0.00153,-0.00495 0.00287,-0.00976 0.00465,-0.014986 0.00931,-0.031323 0.017611,-0.062602 0.025321,-0.094568 3.969e-4,-0.00204 0.00114,-0.00369 0.00156,-0.00568 0.00201,-0.00844 0.00379,-0.016838 0.00568,-0.025321 0.032791,-0.126605 0.093561,-0.1308682 0.2273763,-0.1519285 l 0.072864,-0.00878 c 0.2063411,-0.024001 0.2122374,-0.084126 0.210339,-0.254766 0.0019,-0.1706364 -0.004,-0.2302454 -0.2103231,-0.2542482 l -0.072864,-0.00878 C 6.1886824,3.9491624 6.1279087,3.9449 6.095121,3.8182948 c -0.00191,-0.00848 -0.00368,-0.01688 -0.00568,-0.025321 -4.233e-4,-0.00198 -0.00116,-0.00364 -0.00156,-0.00569 C 6.080211,3.7554808 6.07181,3.7238828 6.06256,3.6927158 V 3.6921867 C 6.06084,3.6871467 6.05941,3.6825167 6.05791,3.6777167 6.05645,3.6729767 6.05526,3.6684867 6.05377,3.6637627 6.018081,3.5365378 6.06842,3.5027378 6.1741763,3.4172663 l 0.058394,-0.044442 C 6.3992519,3.248881 6.3748253,3.194094 6.2878636,3.0472672 6.230336,2.945019 6.1958537,2.8897957 6.1178482,2.892238 6.0823932,2.893348 6.0379122,2.906801 5.9783217,2.932545 L 5.9106257,2.960967 C 5.7745111,3.0133698 5.7216529,3.0405084 5.6160699,2.9196264 l 0.00103,0.0031 c -0.023681,-0.024984 -0.047876,-0.049183 -0.072862,-0.072863 l 0.0031,5.292e-4 C 5.4264639,2.7448024 5.4536075,2.6924702 5.5060098,2.5563554 l 0.028422,-0.067696 C 5.6168094,2.2979751 5.5684353,2.2622754 5.4197101,2.1786007 5.3462951,2.1351199 5.2957002,2.1075585 5.2481445,2.1114214 c -0.047556,0.00386 -0.092021,0.039131 -0.153996,0.1224731 l -0.044441,0.058911 c -0.085472,0.1057568 -0.1192718,0.1560981 -0.2464967,0.1204061 -0.00473,-0.00149 -0.00921,-0.00268 -0.013951,-0.00413 -0.00496,-0.00155 -0.00976,-0.00286 -0.014986,-0.00465 -0.031323,-0.00931 -0.062603,-0.01761 -0.094568,-0.025322 -0.00204,-4.021e-4 -0.00369,-0.00114 -0.00568,-0.00155 -0.00844,-0.00201 -0.016838,-0.00379 -0.025321,-0.00568 -0.12661,-0.032792 -0.1308682,-0.093561 -0.1519285,-0.2273763 l -0.00878,-0.072864 C 4.4639902,1.8653022 4.4038557,1.8588925 4.2332193,1.8607906 c -0.021331,-2.371e-4 -0.040902,-3.942e-4 -0.058911,0 z m 0.058911,0.9808186 c 0.160247,9.5e-6 0.3152095,0.027754 0.4599201,0.078548 a 0.37963475,0.37963475 0 0 0 0.1731162,0.2175581 0.37963475,0.37963475 0 0 0 0.274402,0.040824 c 0.227888,0.1958504 0.3927457,0.4652383 0.4563028,0.7766968 0.01602,0.078458 -0.043429,0.1519348 -0.1235067,0.1519288 H 5.0817462 C 5.0257723,4.10717 4.9762989,4.0703707 4.9603067,4.0167315 4.8643193,3.6947695 4.5696494,3.4746034 4.233736,3.4741287 4.174719,3.4744462 4.115903,3.4818987 4.058553,3.4958327 4.003971,3.5090887 3.9471166,3.4845267 3.9190266,3.4358877 L 3.7236897,3.0974076 c -0.039953,-0.069239 -0.00652,-0.157965 0.069247,-0.1834512 0.1418791,-0.047758 0.2905868,-0.071936 0.4402825,-0.072347 z M 3.400712,3.1609698 c 0.04306,0.00201 0.082319,0.025712 0.1038696,0.063045 l 0.1953369,0.3384807 c 0.028012,0.048514 0.02096,0.1097129 -0.017571,0.1503783 -0.133277,0.1406737 -0.2078609,0.3266099 -0.2082562,0.5203817 2.215e-4,0.1938891 0.074456,0.3805706 0.2077395,0.5214152 0.038501,0.040652 0.046069,0.1018799 0.018087,0.1503783 L 3.5045808,5.2424963 C 3.4645642,5.3118113 3.3712552,5.327051 3.3113109,5.274019 3.0785252,5.0681621 2.9235752,4.7922453 2.8663768,4.4916376 A 0.37963475,0.37963475 0 0 0 2.9681802,4.2332556 0.37963475,0.37963475 0 0 0 2.8663775,3.9753903 C 2.9234655,3.6746501 3.0779617,3.3985074 3.310795,3.1924922 3.335465,3.1706642 3.367807,3.1594292 3.400712,3.1609698 Z M 5.0817462,4.359863 h 0.3901572 c 0.080077,-7.7e-6 0.1400472,0.07347 0.1240235,0.1519285 -0.063538,0.3112783 -0.2285918,0.5803519 -0.4563031,0.7761801 a 0.37963475,0.37963475 0 0 0 -0.092501,-0.0093 0.37963475,0.37963475 0 0 0 -0.1808676,0.050643 0.37963475,0.37963475 0 0 0 -0.1725993,0.2170412 c -0.1447546,0.05101 -0.299562,0.078891 -0.4599199,0.079062 -1.897e-4,8e-7 -8.202e-4,8e-7 -0.00103,0 C 4.0830711,5.6248356 3.9346933,5.5999251 3.7929378,5.5520371 3.7172606,5.5264863 3.6837789,5.4382911 3.7236913,5.3691026 L 3.9190266,5.0311397 c 0.028091,-0.048637 0.084944,-0.0732 0.1395264,-0.059945 0.057388,0.013941 0.1161275,0.020873 0.175183,0.021188 0.3360084,-3.44e-4 0.6310714,-0.2200294 0.7270874,-0.542086 0.015991,-0.053639 0.064949,-0.09044 0.1209228,-0.090434 z" />
  <path
     id="rect989"
     style="fill:#b3b3b3;fill-opacity:1;stroke-width:0.264583;stroke-linejoin:round"
     d="M 5.0471231,2.6188839 A 0.18981737,0.18981737 0 0 0 4.8915769,2.7139684 0.18981737,0.18981737 0 0 0 4.9613401,2.9728674 0.18981737,0.18981737 0 0 0 5.2202392,2.9036209 0.18981737,0.18981737 0 0 0 5.1509927,2.6442053 0.18981737,0.18981737 0 0 0 5.0471231,2.6188839 Z M 2.5883584,4.0436031 A 0.18981737,0.18981737 0 0 0 2.3987059,4.2332556 0.18981737,0.18981737 0 0 0 2.5883584,4.4234249 0.18981737,0.18981737 0 0 0 2.7780109,4.2332556 0.18981737,0.18981737 0 0 0 2.5883584,4.0436031 Z m 2.4634155,1.4247193 a 0.18981737,0.18981737 0 0 0 -0.090434,0.025321 0.18981737,0.18981737 0 0 0 -0.069763,0.2594158 0.18981737,0.18981737 0 0 0 0.2594158,0.069246 0.18981737,0.18981737 0 0 0 0.069246,-0.2594155 0.18981737,0.18981737 0 0 0 -0.1684648,-0.094567 z" />
  <path
     id="rect1112"
     style="opacity:0.1;fill:#000000;stroke-width:0.264583;stroke-linejoin:round"
     d="m 4.2332193,2.5883948 c -0.778536,0 -1.4304799,0.5413922 -1.6009359,1.2681397 0.089689,0.010501 0.1726693,0.052663 0.2340941,0.1188558 0.057088,-0.3007405 0.2115844,-0.5768829 0.4444175,-0.7828981 0.02467,-0.021828 0.057012,-0.033063 0.089917,-0.031522 0.04306,0.00201 0.082319,0.025712 0.1038696,0.063045 l 0.1953369,0.3384807 c 0.028012,0.048514 0.02096,0.1097129 -0.017571,0.1503783 -0.133277,0.1406737 -0.2078609,0.3266099 -0.2082562,0.5203817 2.215e-4,0.1938891 0.074456,0.3805706 0.2077395,0.5214152 0.038501,0.040652 0.046066,0.1018799 0.018087,0.1503783 L 3.5045808,5.2424963 C 3.4645642,5.3118113 3.3712552,5.327051 3.3113109,5.274019 3.0785252,5.0681621 2.9235752,4.7922453 2.8663768,4.4916376 2.8049518,4.5578276 2.7219711,4.5999903 2.6322826,4.6104935 2.802809,5.337146 3.4547466,5.8786332 4.2332193,5.8786332 c 0.1650018,0 0.3246027,-0.024508 0.4749064,-0.069763 C 4.6722887,5.7259292 4.6670697,5.6327051 4.6936557,5.546354 4.5489011,5.597367 4.3940932,5.625248 4.2337356,5.625419 c -1.9e-4,7e-7 -8.202e-4,7e-7 -0.00103,0 C 4.0830706,5.6248367 3.9346928,5.5999262 3.7929373,5.5520382 3.7172601,5.5264873 3.6837786,5.4382919 3.7236908,5.3691037 l 0.1953358,-0.337964 c 0.028091,-0.048637 0.084944,-0.0732 0.1395264,-0.059945 0.057388,0.013941 0.1161277,0.021389 0.175183,0.021704 0.3360084,-3.44e-4 0.6310714,-0.2205461 0.7270874,-0.5426027 0.015991,-0.053639 0.064949,-0.09044 0.1209228,-0.090434 h 0.3901572 c 0.080078,-7.4e-6 0.1400472,0.073471 0.1240235,0.1519286 -0.063538,0.3112783 -0.2285918,0.5803519 -0.4563031,0.77618 0.088227,0.019902 0.1665227,0.070691 0.2206585,0.1431438 0.3189251,-0.300088 0.5183145,-0.7256568 0.5183145,-1.1978592 0,-0.4722971 -0.1997924,-0.8977585 -0.5188315,-1.1978597 -0.05388,0.072191 -0.1313013,0.1230329 -0.2191078,0.1431442 0.2278886,0.1958504 0.3932624,0.4652383 0.4568196,0.7766968 0.01602,0.078458 -0.043946,0.1519348 -0.1240235,0.1519288 H 5.0817462 C 5.0257723,4.10717 4.9762989,4.0703707 4.9603067,4.0167315 4.8643193,3.6947695 4.5696497,3.4746034 4.233736,3.4741287 4.1747186,3.4744462 4.1159033,3.4819022 4.058553,3.4958325 4.003971,3.5090881 3.9471163,3.4845269 3.9190266,3.4358877 L 3.7236897,3.0974076 c -0.039953,-0.069239 -0.00652,-0.157965 0.069246,-0.1834512 0.1418786,-0.047758 0.2905866,-0.071936 0.4402831,-0.072347 0.1602467,9.5e-6 0.3152097,0.027754 0.4599201,0.078548 C 4.6667339,2.8339364 4.6718289,2.740931 4.7076089,2.658158 4.557351,2.6129386 4.3981483,2.5883948 4.2332193,2.5883948 Z" />
  <circle
     style="fill:#d9d9d9;fill-opacity:1;stroke-width:0.264583;stroke-linejoin:round"
     id="path1113"
     cx="4.2333336"
     cy="4.2333331"
     r="0.5291667" />
  <path
     id="path4344"
     style="opacity:0.4;fill:#000000;fill-opacity:1;stroke-width:2;stroke-linecap:round;stroke-linejoin:round"
     d="M 16,1 A 15,15 0 0 0 1,16 15,15 0 0 0 16,31 15,15 0 0 0 31,16 15,15 0 0 0 16,1 Z m 0,1 A 14,14 0 0 1 30,16 14,14 0 0 1 16,30 14,14 0 0 1 2,16 14,14 0 0 1 16,2 Z"
     transform="scale(0.26458333)" />
  <path
     id="path1110"
     style="fill:url(#linearGradient1198);fill-opacity:1;stroke-width:1.27273;stroke-linecap:round;stroke-linejoin:round"
     d="m 16,2 c -7.7319866,-1e-7 -14.0000001,6.2680134 -14,14 2e-7,7.731987 6.2680134,14 14,14 7.731986,0 14,-6.268014 14,-14 C 30,8.2680134 23.731987,2.0000002 16,2 Z m 0,1 A 13,13 0 0 1 29,16 13,13 0 0 1 16,29 13,13 0 0 1 3,16 13,13 0 0 1 16,3 Z"
     transform="scale(0.26458333)" />
</svg>
