<?xml version="1.0" encoding="UTF-8" standalone="no"?>
<!-- Created with Inkscape (http://www.inkscape.org/) -->

<svg
   width="32"
   height="32"
   viewBox="0 0 8.4666667 8.4666667"
   version="1.1"
   id="svg5"
   sodipodi:docname="system-users.svg"
   inkscape:version="1.1.2 (0a00cf5339, 2022-02-04)"
   xmlns:inkscape="http://www.inkscape.org/namespaces/inkscape"
   xmlns:sodipodi="http://sodipodi.sourceforge.net/DTD/sodipodi-0.dtd"
   xmlns:xlink="http://www.w3.org/1999/xlink"
   xmlns="http://www.w3.org/2000/svg"
   xmlns:svg="http://www.w3.org/2000/svg">
  <sodipodi:namedview
     id="namedview7"
     pagecolor="#ffffff"
     bordercolor="#666666"
     borderopacity="1.0"
     inkscape:pageshadow="2"
     inkscape:pageopacity="0.0"
     inkscape:pagecheckerboard="0"
     inkscape:document-units="px"
     showgrid="false"
     units="px"
     height="48px"
     showguides="false"
     inkscape:zoom="24.65625"
     inkscape:cx="16"
     inkscape:cy="16"
     inkscape:window-width="1851"
     inkscape:window-height="1016"
     inkscape:window-x="0"
     inkscape:window-y="0"
     inkscape:window-maximized="1"
     inkscape:current-layer="svg5" />
  <defs
     id="defs2">
    <linearGradient
       inkscape:collect="always"
       id="linearGradient1544">
      <stop
         style="stop-color:#37a6e6;stop-opacity:1"
         offset="0"
         id="stop1540" />
      <stop
         style="stop-color:#1a7fe4;stop-opacity:1"
         offset="1"
         id="stop1542" />
    </linearGradient>
    <linearGradient
       inkscape:collect="always"
       id="linearGradient1871">
      <stop
         style="stop-color:#ffffff;stop-opacity:1;"
         offset="0"
         id="stop1867" />
      <stop
         style="stop-color:#ffffff;stop-opacity:0.1"
         offset="0.12"
         id="stop2515" />
      <stop
         style="stop-color:#ffffff;stop-opacity:0.102"
         offset="0.89999998"
         id="stop2581" />
      <stop
         style="stop-color:#ffffff;stop-opacity:0.502"
         offset="1"
         id="stop1869" />
    </linearGradient>
    <linearGradient
       inkscape:collect="always"
       xlink:href="#linearGradient1871"
       id="linearGradient1198"
       x1="6.3499999"
       y1="0.52916658"
       x2="6.3499994"
       y2="12.170834"
       gradientUnits="userSpaceOnUse"
       gradientTransform="matrix(2.405154,0,0,2.405154,0.72727268,0.72727268)" />
    <linearGradient
       inkscape:collect="always"
       xlink:href="#linearGradient1544"
       id="linearGradient2016"
       x1="9.921875"
       y1="11.1125"
       x2="2.7781253"
       y2="1.5874999"
       gradientUnits="userSpaceOnUse"
       gradientTransform="matrix(0.64444444,0,0,0.64444444,0.14111151,0.14111151)" />
  </defs>
  <circle
     style="opacity:0.1;fill:#000000;fill-opacity:1;stroke-width:0.345109;stroke-linecap:round;stroke-linejoin:round"
     id="path3625"
     cx="4.2333331"
     cy="4.4979167"
     r="3.96875" />
  <circle
     style="fill:url(#linearGradient2016);fill-opacity:1;stroke-width:0.341019;stroke-linecap:round;stroke-linejoin:round"
     id="path986"
     cx="4.2333336"
     cy="4.2333336"
     r="3.8364584" />
  <path
     id="rect960"
     style="opacity:0.1;fill:#ffffff;fill-opacity:1;stroke-width:0.999999;stroke-linejoin:round"
     d="M 16 1.5 L 16 30.5 A 14.5 14.5 0 0 0 30.5 16 A 14.5 14.5 0 0 0 16 1.5 z "
     transform="scale(0.26458333)" />
  <path
     d="m 4.2353934,2.3812499 c -0.1398852,0 -0.2729285,0.02585 -0.3953248,0.078031 C 3.7183973,2.5089589 3.610455,2.581871 3.5207083,2.676322 l -5.291e-4,0.00103 -5.292e-4,5.159e-4 c -0.087442,0.094893 -0.1551028,0.2090279 -0.2025716,0.3384807 -0.048353,0.1295559 -0.071313,0.2714384 -0.071313,0.42323 0,0.1538737 0.02286,0.2970426 0.071313,0.4268472 0.04758,0.1274895 0.1153438,0.240206 0.2025716,0.3348633 l 0.00103,0.00103 c 0.089546,0.094234 0.1966812,0.1682147 0.3178101,0.2201418 l 0.00206,0.00103 c 0.1221666,0.049689 0.2551642,0.074417 0.3948377,0.074417 0.1396471,0 0.2720536,-0.024659 0.3942911,-0.074414 V 4.4229676 C 4.7507105,4.3710825 4.8569709,4.2968873 4.9443998,4.2023091 5.0342258,4.107633 5.1033482,3.9944045 5.1511055,3.8664123 5.1997298,3.7366234 5.2229298,3.593465 5.2229298,3.4395833 h 0.00206 c 0,-0.1516168 -0.023045,-0.293279 -0.071313,-0.4227132 C 5.1061084,2.8868697 5.036986,2.7723148 4.9469747,2.6773559 4.8593447,2.5824763 4.7522885,2.5089701 4.6307151,2.4592813 4.5083246,2.4070103 4.3753765,2.3812499 4.2353934,2.3812499 Z m 0.00775,2.6525514 c -0.762344,0 -1.1717404,0.070799 -1.475879,0.3002399 -0.1520751,0.1147233 -0.2523466,0.2706841 -0.309023,0.4526854 -0.056674,0.1820071 -0.074931,0.5627566 -0.074931,0.5627566 l 3.7041667,5.292e-4 c 0,0 -0.017436,-0.3807204 -0.073897,-0.5627564 C 5.9571438,5.6052227 5.8565574,5.4488005 5.7045543,5.3340536 5.4005745,5.1045567 5.0054889,5.0338137 4.2431449,5.0338137 Z"
     style="font-variant-ligatures:normal;font-variant-position:normal;font-variant-caps:normal;font-variant-numeric:normal;font-variant-alternates:normal;font-feature-settings:normal;text-indent:0;text-decoration-line:none;text-decoration-style:solid;text-decoration-color:#000000;text-transform:none;text-orientation:mixed;white-space:normal;shape-padding:0;opacity:0.1;isolation:auto;mix-blend-mode:normal;fill:#000000;stroke-width:0.0700042;shape-rendering:auto"
     id="path1029" />
  <path
     d="m 4.2333333,2.1166665 c -0.1398852,0 -0.2729285,0.02585 -0.3953248,0.078031 -0.1216713,0.049678 -0.2296136,0.1225901 -0.3193603,0.2170411 l -5.291e-4,0.00103 -5.292e-4,5.159e-4 c -0.087442,0.094893 -0.1551027,0.2090279 -0.2025716,0.3384808 -0.048353,0.1295559 -0.071313,0.2714385 -0.071313,0.4232299 0,0.1538737 0.02286,0.2970427 0.071313,0.4268473 0.04758,0.1274894 0.1153438,0.2402059 0.2025716,0.3348632 l 0.00103,0.00103 c 0.089546,0.094234 0.1966812,0.1682147 0.3178101,0.2201418 l 0.00206,0.00103 c 0.1221666,0.049689 0.2551642,0.074417 0.3948377,0.074417 0.1396471,0 0.2720536,-0.024659 0.3942911,-0.074414 v -5.206e-4 c 0.121026,-0.051885 0.2272864,-0.1260803 0.3147153,-0.2206585 0.089826,-0.094676 0.1589484,-0.2079045 0.2067057,-0.3358967 0.04863,-0.1297948 0.07183,-0.2729532 0.07183,-0.4268349 h 0.00206 c 0,-0.1516168 -0.023045,-0.2932789 -0.071313,-0.4227131 C 5.1040482,2.6222863 5.0349258,2.5077314 4.9449146,2.4127725 4.8572846,2.3178929 4.7502283,2.2443867 4.6286549,2.1946979 4.5062645,2.1424269 4.3733164,2.1166665 4.2333333,2.1166665 Z m 0.00775,2.6525514 c -0.7623439,0 -1.1717403,0.070799 -1.4758789,0.3002399 C 2.6131295,5.1841811 2.512858,5.3401419 2.4561816,5.5221434 2.3995076,5.7041504 2.3812496,6.0848998 2.3812496,6.0848998 l 3.7041666,5.292e-4 c 0,0 -0.017436,-0.3807203 -0.073897,-0.5627564 C 5.9550837,5.3406393 5.8544973,5.1842173 5.7024942,5.0694702 5.3985144,4.8399733 5.0034288,4.7692303 4.2410848,4.7692303 Z"
     style="font-variant-ligatures:normal;font-variant-position:normal;font-variant-caps:normal;font-variant-numeric:normal;font-variant-alternates:normal;font-feature-settings:normal;text-indent:0;text-decoration-line:none;text-decoration-style:solid;text-decoration-color:#000000;text-transform:none;text-orientation:mixed;white-space:normal;shape-padding:0;isolation:auto;mix-blend-mode:normal;fill:#f6fcfe;stroke-width:0.264583;shape-rendering:auto"
     id="path987"
     sodipodi:nodetypes="scccccscccccscccccccccscsccccccc" />
  <path
     id="path4344"
     style="opacity:0.4;fill:#000000;fill-opacity:1;stroke-width:2;stroke-linecap:round;stroke-linejoin:round"
     d="M 16,1 A 15,15 0 0 0 1,16 15,15 0 0 0 16,31 15,15 0 0 0 31,16 15,15 0 0 0 16,1 Z m 0,1 A 14,14 0 0 1 30,16 14,14 0 0 1 16,30 14,14 0 0 1 2,16 14,14 0 0 1 16,2 Z"
     transform="scale(0.26458333)" />
  <path
     id="path1110"
     style="fill:url(#linearGradient1198);fill-opacity:1;stroke-width:1.27273;stroke-linecap:round;stroke-linejoin:round"
     d="m 16,2 c -7.7319866,-1e-7 -14.0000001,6.2680134 -14,14 2e-7,7.731987 6.2680134,14 14,14 7.731986,0 14,-6.268014 14,-14 C 30,8.2680134 23.731987,2.0000002 16,2 Z m 0,1 A 13,13 0 0 1 29,16 13,13 0 0 1 16,29 13,13 0 0 1 3,16 13,13 0 0 1 16,3 Z"
     transform="scale(0.26458333)" />
</svg>
