<?xml version="1.0" encoding="UTF-8" standalone="no"?>
<!-- Created with Inkscape (http://www.inkscape.org/) -->

<svg
   width="32"
   height="32"
   viewBox="0 0 8.4666665 8.4666669"
   version="1.1"
   id="svg5"
   inkscape:version="1.1.2 (0a00cf5339, 2022-02-04, custom)"
   sodipodi:docname="usb-creator.svg"
   xmlns:inkscape="http://www.inkscape.org/namespaces/inkscape"
   xmlns:sodipodi="http://sodipodi.sourceforge.net/DTD/sodipodi-0.dtd"
   xmlns:xlink="http://www.w3.org/1999/xlink"
   xmlns="http://www.w3.org/2000/svg"
   xmlns:svg="http://www.w3.org/2000/svg">
  <sodipodi:namedview
     id="namedview7"
     pagecolor="#ffffff"
     bordercolor="#666666"
     borderopacity="1.0"
     inkscape:pageshadow="2"
     inkscape:pageopacity="0.0"
     inkscape:pagecheckerboard="0"
     inkscape:document-units="px"
     showgrid="false"
     units="px"
     height="32px"
     inkscape:zoom="12.265625"
     inkscape:cx="8.7643313"
     inkscape:cy="14.063694"
     inkscape:window-width="1920"
     inkscape:window-height="1006"
     inkscape:window-x="0"
     inkscape:window-y="0"
     inkscape:window-maximized="1"
     inkscape:current-layer="svg5" />
  <defs
     id="defs2">
    <linearGradient
       inkscape:collect="always"
       id="linearGradient865">
      <stop
         style="stop-color:#ffffff;stop-opacity:1;"
         offset="0"
         id="stop861" />
      <stop
         style="stop-color:#ffffff;stop-opacity:0;"
         offset="1"
         id="stop863" />
    </linearGradient>
    <linearGradient
       inkscape:collect="always"
       id="linearGradient1871">
      <stop
         style="stop-color:#ffffff;stop-opacity:1;"
         offset="0"
         id="stop1867" />
      <stop
         style="stop-color:#ffffff;stop-opacity:0.1"
         offset="0.12"
         id="stop2515" />
      <stop
         style="stop-color:#ffffff;stop-opacity:0.102"
         offset="0.89999998"
         id="stop2581" />
      <stop
         style="stop-color:#ffffff;stop-opacity:0.502"
         offset="1"
         id="stop1869" />
    </linearGradient>
    <linearGradient
       inkscape:collect="always"
       xlink:href="#linearGradient1871"
       id="linearGradient1659"
       x1="2.6654696"
       y1="0.52916664"
       x2="2.69718"
       y2="6.8791666"
       gradientUnits="userSpaceOnUse"
       gradientTransform="translate(0.26458438)" />
    <linearGradient
       inkscape:collect="always"
       xlink:href="#linearGradient865"
       id="linearGradient867"
       x1="2.3812499"
       y1="0.26458329"
       x2="2.3812499"
       y2="4.4979167"
       gradientUnits="userSpaceOnUse" />
    <linearGradient
       inkscape:collect="always"
       xlink:href="#linearGradient3043"
       id="linearGradient3045"
       x1="6.3500051"
       y1="1.3229166"
       x2="6.3500051"
       y2="9.260417"
       gradientUnits="userSpaceOnUse"
       gradientTransform="matrix(0.71428368,0,0,0.71428368,-0.3023717,-0.11338795)" />
    <linearGradient
       inkscape:collect="always"
       id="linearGradient3043">
      <stop
         style="stop-color:#808080;stop-opacity:1;"
         offset="0"
         id="stop3039" />
      <stop
         style="stop-color:#999999;stop-opacity:1"
         offset="1"
         id="stop3041" />
    </linearGradient>
    <linearGradient
       inkscape:collect="always"
       id="linearGradient3598">
      <stop
         style="stop-color:#999999;stop-opacity:1"
         offset="0"
         id="stop3594" />
      <stop
         style="stop-color:#b7b7b7;stop-opacity:1"
         offset="0.60000002"
         id="stop2347" />
      <stop
         style="stop-color:#dbdbdb;stop-opacity:1"
         offset="1"
         id="stop3596" />
    </linearGradient>
    <linearGradient
       inkscape:collect="always"
       xlink:href="#linearGradient3598"
       id="linearGradient3251"
       x1="4.2333336"
       y1="-1.3229167"
       x2="4.2333336"
       y2="10.31875"
       gradientUnits="userSpaceOnUse" />
  </defs>
  <path
     d="m 3.4909294,0.52916666 c -0.3759491,0 -0.6743515,0.008149 -0.9275577,0.0506439 C 2.3101681,0.62231322 2.0893998,0.70485264 1.9251914,0.86867999 1.7609857,1.0325073 1.6774276,1.2539451 1.635298,1.5074027 1.593168,1.7608603 1.585914,2.0596013 1.587758,2.4365426 v 3.0659652 c -0.00185,0.3760549 0.00548,0.6745552 0.04754,0.9275894 0.04213,0.2534603 0.1256877,0.4748954 0.2898934,0.6387227 0.1642084,0.1638274 0.3849767,0.2463668 0.6381803,0.2888695 0.2532062,0.042505 0.5516086,0.050644 0.9275577,0.050644 h 1.4855797 c 0.3759518,0 0.6737879,-0.00812 0.9265259,-0.050644 C 6.1557755,7.3151576 6.3760385,7.2322107 6.5396648,7.0683013 6.7032911,6.904392 6.7860739,6.6836951 6.8285236,6.4306158 6.8709756,6.1775339 6.8791646,5.8792162 6.8791646,5.5025078 V 2.4349921 c 0,-0.3767084 -0.0082,-0.6750261 -0.050641,-0.928108 C 6.7860739,1.2538022 6.7032911,1.033108 6.5396648,0.86919857 6.3760385,0.70528655 6.1557755,0.62234233 5.903035,0.57981056 5.650297,0.53727614 5.3524609,0.52916666 4.9765091,0.52916666 Z"
     style="color:#000000;font-style:normal;font-variant:normal;font-weight:normal;font-stretch:normal;font-size:medium;line-height:normal;font-family:sans-serif;font-variant-ligatures:normal;font-variant-position:normal;font-variant-caps:normal;font-variant-numeric:normal;font-variant-alternates:normal;font-feature-settings:normal;text-indent:0;text-align:start;text-decoration:none;text-decoration-line:none;text-decoration-style:solid;text-decoration-color:#000000;letter-spacing:normal;word-spacing:normal;text-transform:none;writing-mode:lr-tb;direction:ltr;text-orientation:mixed;dominant-baseline:auto;baseline-shift:baseline;text-anchor:start;white-space:normal;shape-padding:0;clip-rule:nonzero;display:inline;overflow:visible;visibility:visible;opacity:0.1;isolation:auto;mix-blend-mode:normal;color-interpolation:sRGB;color-interpolation-filters:linearRGB;solid-color:#000000;solid-opacity:1;vector-effect:none;fill:#000000;fill-opacity:1;fill-rule:nonzero;stroke:none;stroke-width:0.529156;stroke-linecap:butt;stroke-linejoin:miter;stroke-miterlimit:4;stroke-dasharray:none;stroke-dashoffset:0;stroke-opacity:1;marker:none;color-rendering:auto;image-rendering:auto;shape-rendering:auto;text-rendering:auto;enable-background:accumulate"
     id="path1922"
     sodipodi:nodetypes="scccccsccsscsccccccss" />
  <g
     id="g2705">
    <g
       id="rect35"
       transform="matrix(0.26458333,0,0,0.26458333,4.3749999e-8,0.02583826)">
      <path
         style="color:#000000;fill:#c0bfbc;stroke-linecap:round;stroke-linejoin:round;stroke-dashoffset:1;-inkscape-stroke:none"
         d="m 10.5,25.402 h 11 v 5.097701 h -11 z"
         id="path1911" />
      <path
         style="color:#000000;fill:#000000;fill-opacity:0.4;stroke-linecap:round;stroke-linejoin:round;stroke-dashoffset:1;-inkscape-stroke:none"
         d="m 10.5,24.902344 a 0.50005,0.50005 0 0 0 -0.5,0.5 V 30.5 a 0.50005,0.50005 0 0 0 0.5,0.5 h 11 A 0.50005,0.50005 0 0 0 22,30.5 v -5.097656 a 0.50005,0.50005 0 0 0 -0.5,-0.5 z m 0.5,1 H 21 V 30 H 11 Z"
         id="path1913" />
    </g>
    <rect
       style="fill:#f6f5f4;fill-opacity:1;stroke-width:0.264583"
       id="rect1575"
       width="2.6458333"
       height="1.8520833"
       x="2.9104166"
       y="5.8208332" />
  </g>
  <path
     d="m 3.4594434,0.396875 c -1.4715463,0 -1.7472289,0.15454047 -1.7394951,1.6621839 v 3.2902154 c -0.00775,1.5076435 0.2679488,1.662184 1.7394951,1.662184 h 1.5479288 c 1.4711812,0 1.7394952,-0.1545246 1.7394952,-1.662184 V 2.0590589 c 0,-1.5076593 -0.268314,-1.6621839 -1.7394952,-1.6621839 z"
     style="color:#000000;display:inline;overflow:visible;visibility:visible;fill:url(#linearGradient3251);fill-opacity:1;fill-rule:nonzero;stroke:none;stroke-width:0.264583;marker:none;enable-background:accumulate"
     id="path2042"
     sodipodi:nodetypes="sccssccss" />
  <path
     d="M 3.6663707,2.9860086 H 4.0443458 V 4.6817372 C 3.9476673,4.6203314 3.84795,4.5661865 3.751264,4.5178472 3.6095233,4.4469769 3.4785738,4.3785748 3.3976493,4.3111516 3.3167324,4.2437208 3.2883919,4.1986926 3.2883919,4.1199529 c 0.2087556,0 0.377975,-0.1692252 0.377975,-0.3779752 0,-0.2087499 -0.1692251,-0.3779751 -0.377975,-0.3779751 -0.2087501,0 -0.3779752,0.1692252 -0.3779752,0.3779751 v 0.3779752 c 0,0.2047301 0.1134001,0.3723243 0.2450979,0.4820694 0.1316904,0.1097451 0.2849555,0.1830836 0.4266962,0.2539614 0.1417407,0.070877 0.2719531,0.1392726 0.3528776,0.2066958 0.080917,0.067431 0.1092574,0.1124589 0.1092574,0.1911987 -0.1046991,0 -0.1889875,0.084288 -0.1889875,0.1889875 v 0.3779751 c 0,0.1046992 0.084288,0.1889875 0.1889875,0.1889875 H 4.422321 c 0.104699,0 0.1889874,-0.084288 0.1889874,-0.1889875 V 5.4428657 c 0,-0.1046991 -0.084288,-0.1889875 -0.1889874,-0.1889875 V 4.8759031 c 0,-0.078743 0.028348,-0.1237718 0.1092574,-0.1911988 C 4.6124991,4.6172736 4.7434524,4.5488714 4.885193,4.4780086 5.0269337,4.4071459 5.1794655,4.3337998 5.311152,4.2240472 5.4428461,4.1143021 5.55625,3.9467269 5.55625,3.7419777 V 3.1750151 C 5.55625,3.070316 5.471961,2.9860276 5.3672625,2.9860276 H 4.9892874 c -0.1046991,0 -0.1889876,0.084288 -0.1889876,0.1889875 v 0.3779751 c 0,0.1046991 0.084288,0.1889875 0.1889876,0.1889875 h 0.1889875 c 0,0.078743 -0.028347,0.1237718 -0.1092575,0.1911988 -0.080921,0.067431 -0.2111369,0.1358329 -0.3528775,0.2066956 -0.096784,0.048396 -0.1968117,0.1023897 -0.2938189,0.16389 V 2.9860086 H 4.800296 L 4.2333334,1.8520833 Z"
     style="opacity:0.2;fill:#ffffff;fill-opacity:1;stroke-width:0.0500028;enable-background:new"
     id="path2894" />
  <path
     d="M 3.6663708,2.7214254 H 4.0443459 V 4.417154 C 3.9476675,4.3557482 3.8479501,4.3016033 3.7512641,4.253264 3.6095234,4.1823937 3.4785739,4.1139915 3.3976494,4.0465683 3.3167325,3.9791376 3.2883919,3.9341094 3.2883919,3.8553696 c 0.2087557,0 0.3779751,-0.1692251 0.3779751,-0.3779751 0,-0.20875 -0.1692251,-0.3779751 -0.3779751,-0.3779751 -0.2087499,0 -0.3779751,0.1692251 -0.3779751,0.3779751 v 0.3779751 c 0,0.2047302 0.1134001,0.3723244 0.2450979,0.4820694 0.1316904,0.1097452 0.2849555,0.1830837 0.4266962,0.2539615 0.1417407,0.070878 0.2719531,0.1392726 0.3528776,0.2066957 0.080917,0.067431 0.1092574,0.112459 0.1092574,0.1911988 -0.1046991,0 -0.1889875,0.084288 -0.1889875,0.1889875 v 0.3779751 c 0,0.1046991 0.084288,0.1889876 0.1889875,0.1889876 h 0.3779752 c 0.104699,0 0.1889875,-0.084288 0.1889875,-0.1889876 V 5.1782825 c 0,-0.1046991 -0.084289,-0.1889875 -0.1889875,-0.1889875 V 4.6113198 c 0,-0.078743 0.028349,-0.1237717 0.1092574,-0.1911986 C 4.6124992,4.3526904 4.7434524,4.2842882 4.8851931,4.2134255 5.0269338,4.1425627 5.1794656,4.0692166 5.3111522,3.959464 5.4428463,3.8497189 5.5562501,3.6821436 5.5562501,3.4773945 V 2.9104318 c 0,-0.104699 -0.084288,-0.1889875 -0.1889875,-0.1889875 H 4.9892875 c -0.1046991,0 -0.1889876,0.084288 -0.1889876,0.1889875 v 0.3779751 c 0,0.1046992 0.084289,0.1889876 0.1889876,0.1889876 h 0.1889876 c 0,0.078743 -0.028348,0.1237717 -0.1092575,0.1911987 C 4.9880966,3.7360242 4.8578807,3.8044261 4.71614,3.8752889 4.619356,3.9236849 4.5193284,3.9776786 4.4223211,4.0391789 V 2.7214254 h 0.377975 L 4.2333335,1.5875 Z"
     style="fill:url(#linearGradient3045);fill-opacity:1;stroke-width:0.188987;enable-background:new"
     id="path1826"
     sodipodi:nodetypes="ccccccsssscsccsssssscscscssssssscccccccc" />
  <path
     id="path2368"
     style="color:#000000;display:inline;opacity:0.4;fill:url(#linearGradient1659);fill-opacity:1;stroke-width:0.264583;-inkscape-stroke:none;enable-background:new"
     d="m 3.4592207,0.52916666 c -0.7311231,0 -1.1348932,0.0503502 -1.3358363,0.23151041 C 2.0229142,0.85125717 1.9552179,0.98085009 1.9109955,1.190625 1.8667704,1.4003999 1.8520833,1.6853991 1.8520833,2.0582731 v 5.292e-4 3.2907551 5.292e-4 c 0,0.3728713 0.014684,0.6578732 0.058912,0.8676481 0.044222,0.2097749 0.1119161,0.3393678 0.2123889,0.4299479 C 2.32433,6.8288428 2.7280974,6.879193 3.4592205,6.879193 h 1.5482254 c 0.7309432,0 1.1326045,-0.050424 1.3327353,-0.2315104 0.1000655,-0.090543 0.167767,-0.2199798 0.212389,-0.4299479 0.044633,-0.2099945 0.062013,-0.495718 0.062013,-0.8687064 V 2.059305 c 0,-0.3729884 -0.017383,-0.658712 -0.062013,-0.86868 C 6.5079482,0.98065695 6.4402467,0.85122014 6.3401812,0.76067707 6.1400504,0.57959095 5.7383891,0.52916666 5.0074459,0.52916666 Z m 0.1157552,0.25217966 h 1.3296344 c 0.3844713,0 0.6758808,0.0106892 0.8795332,0.0434102 0.2036524,0.0327157 0.3061811,0.0816213 0.3705198,0.14314223 0.064341,0.061521 0.1156071,0.15958605 0.14986,0.35450195 0.034253,0.1949185 0.045477,0.4740354 0.045477,0.8418089 v 3.067513 c 0,0.3677735 -0.011218,0.6468904 -0.045477,0.8418089 -0.03425,0.1949186 -0.085519,0.2929784 -0.14986,0.3544993 C 6.0903246,6.4895518 5.9877959,6.53846 5.7841435,6.5711757 5.5804911,6.6038888 5.2890816,6.6145833 4.9046103,6.6145833 H 3.5749759 c -0.3844713,0 -0.6767301,-0.010663 -0.8810837,-0.043408 C 2.489536,6.5384313 2.385994,6.4896333 2.321306,6.4280308 2.256618,6.3664258 2.2058365,6.2685956 2.1719593,6.0740475 2.1380847,5.8794993 2.1275212,5.447276 2.1290703,5.2332731 V 5.2327439 2.1636804 2.1631513 c 0,-0.3675401 0.00902,-0.6462263 0.042889,-0.8407744 0.033877,-0.1945508 0.084659,-0.2923804 0.1493467,-0.35398339 0.064688,-0.0616056 0.16823,-0.1103974 0.3725862,-0.14314487 0.2043536,-0.0327448 0.4966124,-0.0434075 0.8810837,-0.0434075 z"
     sodipodi:nodetypes="ssssccsssssssccsssscssssccsssssssscccsssscc" />
  <path
     d="m 3.4593388,0.26458333 c -0.7403862,0 -1.2102121,0.0267017 -1.5130489,0.29972264 C 1.7948688,0.70081774 1.703532,0.89262213 1.6522558,1.1358483 1.6009822,1.3790745 1.5857078,1.6788685 1.5876631,2.0598235 v 3.2892048 c -0.00185,0.3806507 0.013361,0.6803654 0.064593,0.9234567 0.051276,0.2432261 0.142613,0.4350305 0.2940341,0.5715423 0.3028394,0.2730209 0.7726627,0.2997226 1.5130489,0.2997226 h 1.5481507 c 0.7402036,0 1.2081404,-0.026633 1.5099506,-0.2997226 C 6.6683428,6.7074811 6.7598172,6.515518 6.8114718,6.272485 6.8631238,6.0294519 6.8791658,5.7298669 6.8791658,5.3490283 V 2.059305 c 0,-0.3808386 -0.016034,-0.6804237 -0.067694,-0.9234567 C 6.7598172,0.89281528 6.6683428,0.70085214 6.5174404,0.56430597 6.2156302,0.29121629 5.7476934,0.26458333 5.0074898,0.26458333 Z m 0,0.26458333 h 1.548151 c 0.7309432,0 1.1325727,0.0504243 1.3327036,0.23151041 0.1000654,0.0905431 0.167759,0.21997988 0.2123837,0.42994793 0.04463,0.209968 0.062013,0.4956916 0.062013,0.86868 v 3.2897233 c 0,0.3729884 -0.017383,0.6587119 -0.062013,0.86868 C 6.5079524,6.4276763 6.4402588,6.5571131 6.3401934,6.6476562 6.1400625,6.8287423 5.738433,6.8791666 5.0074898,6.8791666 h -1.548151 c -0.7311232,0 -1.1348588,-0.05035 -1.3358045,-0.2315104 C 2.0230614,6.5570761 1.955373,6.4274832 1.9111506,6.2177083 1.8669255,6.0079334 1.8503229,5.7229269 1.8522411,5.3500602 V 5.349531 2.058789 2.0582599 C 1.850389,1.6853905 1.8669255,1.4003867 1.9111506,1.1906118 1.955373,0.98083686 2.023064,0.85124395 2.1235343,0.76066384 2.3244774,0.57950364 2.7282156,0.52915343 3.4593388,0.52915343 Z"
     style="color:#000000;display:inline;opacity:0.4;fill:#000000;stroke-width:0.26458;-inkscape-stroke:none;enable-background:new"
     id="path2244"
     sodipodi:nodetypes="scccccsssccccccsscssccccssssccccccccc" />
  <path
     style="color:#000000;fill:#5884f4;stroke-width:0.264583;stroke-linecap:round;stroke-linejoin:round;stroke-dashoffset:1;stroke-opacity:0.4;-inkscape-stroke:none"
     d="M 4.6299807,2.3812288 A 2.2489583,2.2489583 0 0 1 2.3810224,4.6301871 2.2489583,2.2489583 0 0 1 0.13206412,2.3812288 2.2489583,2.2489583 0 0 1 2.3810224,0.1322705 2.2489583,2.2489583 0 0 1 4.6299807,2.3812288 Z"
     id="path1111" />
  <path
     style="color:#000000;fill:#000000;fill-opacity:0.4;stroke-width:0.264583;stroke-linecap:round;stroke-linejoin:round;stroke-dashoffset:1;stroke-opacity:0.4;-inkscape-stroke:none"
     d="M 2.38125,0 C 1.067689,0 0,1.0676889 0,2.3812499 c 0,1.3135584 1.067689,2.38125 2.38125,2.38125 1.3135583,0 2.3812499,-1.0676916 2.3812499,-2.38125 C 4.7624999,1.0676889 3.6948083,0 2.38125,0 Z m 0,0.2645833 c 1.1705695,0 2.1166666,0.9460971 2.1166666,2.1166666 0,1.170567 -0.9460971,2.1166667 -2.1166666,2.1166667 -1.1705696,0 -2.11666667,-0.9460997 -2.11666667,-2.1166667 0,-1.1705695 0.94609707,-2.1166666 2.11666667,-2.1166666 z"
     id="path1113" />
  <path
     d="m 4.4976891,2.3812499 c 0,-1.1674342 -0.9492324,-2.1166666 -2.1166667,-2.1166666 -1.1674342,0 -2.11666661,0.9492324 -2.11666661,2.1166666 0,1.1674343 0.94923241,2.1166667 2.11666661,2.1166667 1.1674343,0 2.1166667,-0.9492324 2.1166667,-2.1166667 z m -0.2645834,0 c 0,1.0244429 -0.8276404,1.8520833 -1.8520833,1.8520833 -1.0244428,0 -1.85208328,-0.8276404 -1.85208328,-1.8520833 0,-1.0244428 0.82764048,-1.85208327 1.85208328,-1.85208327 1.0244429,0 1.8520833,0.82764047 1.8520833,1.85208327 z"
     style="color:#000000;opacity:0.3;fill:url(#linearGradient867);fill-opacity:1;stroke-width:0.264583;stroke-linecap:round;stroke-linejoin:round;stroke-dashoffset:1;stroke-opacity:0.4;-inkscape-stroke:none"
     id="path1224" />
  <path
     d="m 2.1166667,1.0583333 h 0.5291667 v 0.794041 H 2.8887129 C 2.7992308,2.0517802 2.6379594,2.3882614 2.3812421,2.8150872 2.1244798,2.388182 1.9632534,2.0515262 1.8737713,1.8520832 H 2.1166535 Z M 1.5875,3.1749999 V 3.4395832 H 3.175 V 3.1749999 Z"
     style="color:#000000;fill:#ffffff;stroke-width:0.264583"
     id="path901" />
</svg>
