<svg width="16" height="16" version="1.1" xmlns="http://www.w3.org/2000/svg">
 <path d="m8.0002 1.0071c-2.2028 0-3.9929 1.79-3.9929 3.9929s1.79 3.9929 3.9929 3.9929c2.2028 0 3.9928-1.79 3.9928-3.9929s-1.79-3.9929-3.9928-3.9929zm0 1.0524c1.6264 0 2.9405 1.3141 2.9405 2.9405s-1.3141 2.9405-2.9405 2.9405-2.9405-1.3141-2.9405-2.9405 1.3141-2.9405 2.9405-2.9405z" fill="#dfdfdf"/>
 <path d="m4.0002 8.0071c-2.2028 0-3.9929 1.79-3.9929 3.9929s1.79 3.9929 3.9929 3.9929c2.2028 0 3.9928-1.79 3.9928-3.9929s-1.79-3.9929-3.9928-3.9929zm0 1.0524c1.6264 0 2.9405 1.3141 2.9405 2.9405s-1.3141 2.9405-2.9405 2.9405-2.9405-1.3141-2.9405-2.9405 1.3141-2.9405 2.9405-2.9405z" fill="#dfdfdf"/>
 <path d="m15.998 12a3.9991 3.9991 0 0 1-3.9991 3.9991 3.9991 3.9991 0 0 1-3.9991-3.9991 3.9991 3.9991 0 0 1 3.9991-3.9991 3.9991 3.9991 0 0 1 3.9991 3.9991z" fill="#dfdfdf" stroke-width=".57131"/>
 <path d="m7.4669 12a3.4667 3.4667 0 0 1-3.4667 3.4667 3.4667 3.4667 0 0 1-3.4667-3.4667 3.4667 3.4667 0 0 1 3.4667-3.4667 3.4667 3.4667 0 0 1 3.4667 3.4667z" fill="#dfdfdf" opacity=".75" stroke-width=".49524"/>
</svg>
