<svg width="16" height="16" version="1.1" xmlns="http://www.w3.org/2000/svg">
 <defs>
  <style id="current-color-scheme" type="text/css">.ColorScheme-Text { color:#dfdfdf; } .ColorScheme-Highlight { color:#4285f4; }</style>
 </defs>
 <path d="m9 3h0.3184c0.8396 0 1.3996 0.1296 1.6796 0.3906 0.283 0.2575 0.424 0.7771 0.424 1.5567v1.2695c0 0.5256 0.091 0.8917 0.273 1.0957 0.182 0.202 0.512 0.3008 0.991 0.3008h0.314v0.7578h-0.314c-0.479 0-0.809 0.1016-0.991 0.3066-0.182 0.204-0.273 0.5735-0.273 1.1055v1.2638c0 0.779-0.141 1.301-0.424 1.562-0.28 0.261-0.84 0.391-1.6796 0.391h-0.3184v-0.762h0.3535c0.472 0 0.7785-0.077 0.9195-0.228 0.145-0.152 0.219-0.478 0.219-0.983v-1.3122c0-0.55 0.075-0.9511 0.227-1.2011 0.151-0.251 0.415-0.4246 0.789-0.5196-0.374-0.088-0.638-0.2568-0.789-0.5078-0.152-0.25-0.227-0.6512-0.227-1.2051v-1.3124c0-0.5008-0.074-0.8269-0.219-0.9786-0.141-0.1552-0.4475-0.2343-0.9195-0.2343h-0.3535z" fill="#dfdfdf"/>
 <path d="m6.6816 3h0.3184v0.7559h-0.3535c-0.472 0-0.7783 0.0791-0.9199 0.2343-0.145 0.1517-0.2188 0.4777-0.2188 0.9786v1.3124c0 0.5539-0.0747 0.9551-0.2266 1.2051-0.1516 0.251-0.4148 0.4198-0.789 0.5078 0.3742 0.095 0.6374 0.2686 0.789 0.5196 0.1518 0.25 0.2266 0.6511 0.2266 1.2011v1.3122c0 0.505 0.0738 0.831 0.2188 0.983 0.1416 0.151 0.4479 0.228 0.9199 0.228h0.3535v0.762h-0.3184c-0.8394 0-1.3998-0.13-1.6796-0.391-0.2832-0.261-0.4239-0.783-0.4239-1.562v-1.2638c0-0.532-0.0914-0.9015-0.2734-1.1055-0.1821-0.205-0.5115-0.3066-0.9902-0.3066h-0.3145v-0.7578h0.3145c0.4787 0 0.8081-0.0988 0.9902-0.3008 0.182-0.204 0.2734-0.5701 0.2734-1.0957v-1.2695c0-0.7796 0.1407-1.2992 0.4239-1.5567 0.2798-0.261 0.8402-0.3906 1.6796-0.3906z" fill="#dfdfdf"/>
 <path d="m3 1c-1.108 0-2 0.892-2 2v10c0 1.108 0.892 2 2 2h10c1.108 0 2-0.892 2-2v-10c0-1.108-0.892-2-2-2zm0 1h10c0.554 0 1 0.446 1 1v10c0 0.554-0.446 1-1 1h-10c-0.554 0-1-0.446-1-1v-10c0-0.554 0.446-1 1-1z" fill="#dfdfdf"/>
</svg>
