<svg width="48" height="48" version="1.1" xmlns="http://www.w3.org/2000/svg">
 <rect transform="matrix(0,-1,-1,0,0,0)" x="-46" y="-45" width="42" height="42" rx="21" ry="21" enable-background="new" opacity=".2"/>
 <rect transform="matrix(0,-1,-1,0,0,0)" x="-46" y="-45" width="42" height="42" rx="21" ry="21" enable-background="new" opacity=".1"/>
 <rect transform="matrix(0,-1,-1,0,0,0)" x="-45" y="-45" width="42" height="42" rx="21" ry="21" enable-background="new" fill="#f1f0e9"/>
 <path d="m25.363 12.44c-3.6966 0.0034-6.8368 2.2789-8.3384 5.5338l-0.10273 0.22258-0.238 0.01712c-3.4141 0.24484-6.116 3.2018-6.116 6.7923 0 3.7548 2.9381 6.8368 6.5714 6.8368h15.898c2.7241 0 4.926-2.3115 4.926-5.116a5.0647 5.0647 0 0 0-3.0905-4.6828l-0.23286-0.09931-0.0172-0.25512c-0.23286-5.1246-4.2582-9.2458-9.2544-9.2493zm0 1.7122c4.0545 0.0034 7.347 3.3422 7.5405 7.6141v0.01712l0.0873 1.3269 1.2037 0.50852a3.3285 3.3285 0 0 1 2.0478 3.1076c0.0172 1.9074-1.4485 3.4038-3.2035 3.4038h-15.899c-2.6642 0-4.8575-2.2618-4.8575-5.1229-2e-3 -2.7361 2.0272-4.9071 4.527-5.0903l1.2379-0.0856 0.53078-1.1352v-0.0068c1.2465-2.7053 3.7891-4.5339 6.782-4.5373z" color="#000000" enable-background="new" fill="#808080" font-weight="400" overflow="visible" stroke="#808080" stroke-width=".36495" style="text-decoration-line:none;text-indent:0;text-transform:none"/>
</svg>
