<svg width="48" height="48" version="1.1" xmlns="http://www.w3.org/2000/svg">
 <rect x="4" y="28" width="44" height="20" rx="10" ry="10" opacity=".2"/>
 <rect x="14" y="27" width="24" height="20" fill="#455a64"/>
 <circle cx="14" cy="37" r="10" fill="#455a64"/>
 <path d="m19 29a3 3 0 0 0-3 3 3 3 0 0 0 0.03906 0.47266l-4.8828 2.4414a3 3 0 0 1-0.0039-4e-3 3 3 0 0 0-2.1523-0.91006 3 3 0 0 0-3 3 3 3 0 0 0 3 3 3 3 0 0 0 2.1523-0.91797l4.8867 2.4453a3 3 0 0 0-0.039062 0.47266 3 3 0 0 0 3 3 3 3 0 0 0 3-3 3 3 0 0 0-3-3 3 3 0 0 0-2.1523 0.91797l-4.8867-2.4453a3 3 0 0 0 0.039062-0.47266 3 3 0 0 0-0.039062-0.47656l4.8828-2.4414a3 3 0 0 0 2.1562 0.91797 3 3 0 0 0 3-3 3 3 0 0 0-3-3z" fill="#fff"/>
 <circle cx="38" cy="37" r="10" fill="#f44336"/>
 <path d="M 33.92,31 38,35.08 42.08,31 44,32.92 39.92,37 44,41.08 42.08,43 38,38.92 33.92,43 32,41.08 36.08,37 32,32.92 Z" fill="#fff"/>
</svg>
