<svg width="16" height="16" version="1.1" xmlns="http://www.w3.org/2000/svg" xmlns:xlink="http://www.w3.org/1999/xlink">
 <defs>
  <linearGradient id="linearGradient1184" x1="1077.4" x2="1084.3" y1="-265" y2="-252.41" gradientTransform="matrix(.97849 0 0 .98958 -1049.7 263.74)" gradientUnits="userSpaceOnUse" xlink:href="#linearGradient1166"/>
  <linearGradient id="linearGradient1166">
   <stop stop-color="#4975e9" offset="0"/>
   <stop stop-color="#7094f0" offset="1"/>
  </linearGradient>
  <linearGradient id="linearGradient977" x1="328" x2="328" y1="238" y2="249.2" gradientTransform="translate(-320 -236)" gradientUnits="userSpaceOnUse">
   <stop stop-color="#fff" offset="0"/>
   <stop stop-color="#fff" stop-opacity=".098039" offset=".17856"/>
   <stop stop-color="#fff" stop-opacity=".098039" offset=".60052"/>
   <stop stop-color="#fff" stop-opacity=".49804" offset="1"/>
  </linearGradient>
 </defs>
 <path d="m8.0011 3.5c-2.5538 0-5.1077 0.82927-7.2408 2.4918l-0.26028 0.20287 0.20059 0.26026 7.2995 9.5712 7.5001-9.8275-0.25832-0.20385c-2.0744-1.6186-4.6208-2.496-7.2408-2.4947z" color="#000000" enable-background="new" font-family="sans-serif" font-weight="400" opacity=".1" overflow="visible" stroke-width=".068438" style="font-feature-settings:normal;font-variant-alternates:normal;font-variant-caps:normal;font-variant-ligatures:none;font-variant-numeric:normal;font-variant-position:normal;isolation:auto;mix-blend-mode:normal;shape-padding:0;text-decoration-color:#000000;text-decoration-line:none;text-decoration-style:solid;text-indent:0;text-transform:none" white-space="normal"/>
 <path d="m8.0011 1.5c-2.5538 0-5.1077 0.82927-7.2408 2.4918l-0.26028 0.20287 0.20059 0.26026 7.2995 9.5712 7.5001-9.8275-0.25832-0.20385c-2.0744-1.6186-4.6208-2.496-7.2408-2.4947z" color="#000000" enable-background="new" fill="url(#linearGradient1184)" font-family="sans-serif" font-weight="400" opacity=".5" overflow="visible" stroke-width=".068438" style="font-feature-settings:normal;font-variant-alternates:normal;font-variant-caps:normal;font-variant-ligatures:none;font-variant-numeric:normal;font-variant-position:normal;isolation:auto;mix-blend-mode:normal;shape-padding:0;text-decoration-color:#000000;text-decoration-line:none;text-decoration-style:solid;text-indent:0;text-transform:none" white-space="normal"/>
 <path d="m8.0011 1.5c-2.5538 0-5.1077 0.82927-7.2408 2.4918l-0.26028 0.20287 0.20059 0.26026 7.2995 9.5712 7.5001-9.8275-0.25832-0.20385c-2.0744-1.6186-4.6208-2.496-7.2408-2.4947z" color="#000000" enable-background="new" fill="url(#linearGradient1184)" font-family="sans-serif" font-weight="400" opacity=".5" overflow="visible" stroke-width=".068438" style="font-feature-settings:normal;font-variant-alternates:normal;font-variant-caps:normal;font-variant-ligatures:none;font-variant-numeric:normal;font-variant-position:normal;isolation:auto;mix-blend-mode:normal;shape-padding:0;text-decoration-color:#000000;text-decoration-line:none;text-decoration-style:solid;text-indent:0;text-transform:none" white-space="normal"/>
 <path d="m8.0015 1.5c-2.5538 0-5.1091 0.8297-7.2422 2.4922l-0.25976 0.20312 0.20117 0.25977 3.2578 4.2715c1.3054-0.4782 2.6745-0.72656 4.0449-0.72656 1.3884-6.5e-4 2.7532 0.25224 4.041 0.72461l3.4551-4.5254-0.25782-0.20508c-2.0744-1.6186-4.6202-2.4954-7.2402-2.4941z" color="#000000" enable-background="new" fill="#fff" opacity=".3" stroke-width=".068438" style="font-feature-settings:normal;font-variant-alternates:normal;font-variant-caps:normal;font-variant-ligatures:none;font-variant-numeric:normal;font-variant-position:normal;isolation:auto;mix-blend-mode:normal;shape-padding:0;text-decoration-color:#000000;text-decoration-line:none;text-decoration-style:solid;text-indent:0;text-transform:none"/>
 <path d="m8.0015 1.5c-2.5538 0-5.1091 0.8297-7.2422 2.4922l-0.25976 0.20312 0.20117 0.25977 2.1074 2.7637c1.637-0.80633 3.4141-1.2188 5.1934-1.2188 1.8111-8.4e-4 3.5822 0.42727 5.1914 1.2207l2.3066-3.0215-0.25782-0.20508c-2.0744-1.6186-4.6202-2.4954-7.2402-2.4941z" color="#000000" enable-background="new" fill="#fff" opacity=".35" stroke-width=".068438" style="font-feature-settings:normal;font-variant-alternates:normal;font-variant-caps:normal;font-variant-ligatures:none;font-variant-numeric:normal;font-variant-position:normal;isolation:auto;mix-blend-mode:normal;shape-padding:0;text-decoration-color:#000000;text-decoration-line:none;text-decoration-style:solid;text-indent:0;text-transform:none"/>
 <path d="m8.0015 1.5c-2.5538 0-5.1091 0.8297-7.2422 2.4922l-0.25976 0.20312 0.20117 0.25977 1.0176 1.334c1.9054-1.1888 4.0626-1.7891 6.2226-1.7891 2.2393-1e-3 4.4217 0.64496 6.3047 1.8418l1.2539-1.6426-0.25782-0.20508c-2.0744-1.6186-4.6202-2.4954-7.2402-2.4941z" color="#000000" enable-background="new" fill="#fff" opacity=".4" stroke-width=".068438" style="font-feature-settings:normal;font-variant-alternates:normal;font-variant-caps:normal;font-variant-ligatures:none;font-variant-numeric:normal;font-variant-position:normal;isolation:auto;mix-blend-mode:normal;shape-padding:0;text-decoration-color:#000000;text-decoration-line:none;text-decoration-style:solid;text-indent:0;text-transform:none"/>
 <path d="m8.0011 1.5-1e-3 12.526 7.5001-9.8275-0.25832-0.20385c-2.0744-1.6186-4.6208-2.496-7.2408-2.4947z" color="#000000" enable-background="new" fill="#fff" font-family="sans-serif" font-weight="400" opacity=".1" overflow="visible" stroke-width=".068438" style="font-feature-settings:normal;font-variant-alternates:normal;font-variant-caps:normal;font-variant-ligatures:none;font-variant-numeric:normal;font-variant-position:normal;isolation:auto;mix-blend-mode:normal;shape-padding:0;text-decoration-color:#000000;text-decoration-line:none;text-decoration-style:solid;text-indent:0;text-transform:none" white-space="normal"/>
 <path d="m8.0011 1.5c-2.5538 0-5.1077 0.82927-7.2408 2.4918l-0.26028 0.20287 0.20059 0.26026 7.2995 9.5712 7.5001-9.8275-0.25832-0.20385c-2.0744-1.6186-4.6208-2.496-7.2408-2.4947z" color="#000000" enable-background="new" fill="none" font-family="sans-serif" font-weight="400" opacity=".4" overflow="visible" stroke="#000" stroke-linejoin="round" style="font-feature-settings:normal;font-variant-alternates:normal;font-variant-caps:normal;font-variant-ligatures:none;font-variant-numeric:normal;font-variant-position:normal;isolation:auto;mix-blend-mode:normal;shape-padding:0;text-decoration-color:#000000;text-decoration-line:none;text-decoration-style:solid;text-indent:0;text-transform:none" white-space="normal"/>
 <path d="m8.0015 2c-2.3914 0-4.7712 0.78347-6.7871 2.3066l6.7871 8.8945 6.7871-8.8926c-1.962-1.4844-4.3351-2.3096-6.7871-2.3086zm-0.0137 1c1.9146-7.5e-4 3.7687 0.61908 5.3008 1.7324l-5.3008 6.668-5.2988-6.6699c1.5741-1.1424 3.4314-1.7305 5.2988-1.7305zm-6.8906 1.1523 0.0996 0.13086h2e-3zm1.5 0.46289 0.0801 0.0977h-2e-3z" color="#000000" color-rendering="auto" dominant-baseline="auto" enable-background="new" fill="url(#linearGradient977)" image-rendering="auto" shape-rendering="auto" solid-color="#000000" stop-color="#000000" style="font-feature-settings:normal;font-variant-alternates:normal;font-variant-caps:normal;font-variant-east-asian:normal;font-variant-ligatures:none;font-variant-numeric:normal;font-variant-position:normal;font-variation-settings:normal;inline-size:0;isolation:auto;mix-blend-mode:normal;shape-margin:0;shape-padding:0;text-decoration-color:#000000;text-decoration-line:none;text-decoration-style:solid;text-indent:0;text-orientation:mixed;text-transform:none;white-space:normal"/>
</svg>
