<svg width="16" height="16" version="1.1" xmlns="http://www.w3.org/2000/svg">
 <defs>
  <linearGradient id="linearGradient8588-0-1-5" x1="13.735" x2="38.1" y1="249.69" y2="292.77" gradientTransform="matrix(.31496 0 0 .31496 .16669 -77.71)" gradientUnits="userSpaceOnUse">
   <stop stop-color="#46a926" offset="0"/>
   <stop stop-color="#76c22b" offset="1"/>
  </linearGradient>
  <linearGradient id="linearGradient8590-3-3-4" x1="96" x2="96" y1="4" y2="188" gradientTransform="matrix(.076087 0 0 .076087 .69566 .69567)" gradientUnits="userSpaceOnUse">
   <stop stop-color="#fff" offset="0"/>
   <stop stop-color="#fff" stop-opacity=".098039" offset=".125"/>
   <stop stop-color="#fff" stop-opacity=".098039" offset=".925"/>
   <stop stop-color="#fff" stop-opacity=".49804" offset="1"/>
  </linearGradient>
 </defs>
 <ellipse transform="scale(-1)" cx="-8" cy="-8.5" rx="7" ry="6.5" enable-background="new" opacity=".1"/>
 <circle cx="8" cy="8" r="7.5" enable-background="new" fill="url(#linearGradient8588-0-1-5)"/>
 <path d="m1.082 9a7.2329 7.2329 0 0 0 7.1152 6 7.2329 7.2329 0 0 0 7.123-6z" enable-background="new" fill="#fff" opacity=".05"/>
 <path d="m8 1c-3.866 0-7 3.134-7 7s3.134 7 7 7c3.866 0 7-3.134 7-7s-3.134-7-7-7zm0 1a6 6 0 0 1 6 6 6 6 0 0 1-6 6 6 6 0 0 1-6-6 6 6 0 0 1 6-6z" enable-background="new" fill="url(#linearGradient8590-3-3-4)"/>
 <circle cx="8" cy="8" r="7.5" enable-background="new" fill="none" opacity=".4" stroke="#000" stroke-dashoffset="6.6" stroke-linejoin="round"/>
 <polygon transform="translate(.75 .75)" points="11.05 4.1734 10.984 4.2311 6.2496 8.3784 3.4741 5.9974 2.635 6.9463 6.2503 10.75 11.75 4.9628 11.05 4.1735" enable-background="new" fill="#fff" fill-rule="evenodd"/>
</svg>
