<?xml version="1.0" encoding="UTF-8" standalone="no"?>
<svg
   width="24"
   height="24"
   version="1.1"
   id="svg8"
   sodipodi:docname="media-repeat-none.svg"
   inkscape:version="1.1.2 (0a00cf5339, 2022-02-04, custom)"
   xmlns:inkscape="http://www.inkscape.org/namespaces/inkscape"
   xmlns:sodipodi="http://sodipodi.sourceforge.net/DTD/sodipodi-0.dtd"
   xmlns="http://www.w3.org/2000/svg"
   xmlns:svg="http://www.w3.org/2000/svg">
  <defs
     id="defs12" />
  <sodipodi:namedview
     id="namedview10"
     pagecolor="#ffffff"
     bordercolor="#dfdfdf"
     borderopacity="1.0"
     inkscape:pageshadow="2"
     inkscape:pageopacity="0.0"
     inkscape:pagecheckerboard="0"
     showgrid="false"
     inkscape:zoom="6.9605824"
     inkscape:cx="3.9508188"
     inkscape:cy="20.113259"
     inkscape:window-width="1860"
     inkscape:window-height="1017"
     inkscape:window-x="0"
     inkscape:window-y="0"
     inkscape:window-maximized="1"
     inkscape:current-layer="svg8" />
  <path
     d="M 7.9941,7 C 6.7361,7.015 5.8145,6.969766 5.0625,7.38477 A 1.88,1.88 0 0 0 4.22461,8.38282 C 4.05961,8.81982 4,9.34301 4,10.00002 v 6 c 0,0.658 0.059609,1.1792 0.22461,1.6172 0.164,0.439 0.46089,0.79005 0.83789,0.99805 0.752,0.416 1.6736,0.36977 2.9316,0.38477 h 8.0117 c 1.258,-0.015 2.1786,0.03023 2.9316,-0.38477 a 1.88,1.88 0 0 0 0.83789,-0.99805 c 0.164,-0.438 0.22461,-0.96019 0.22461,-1.6172 v -6 c 0,-0.040396 -0.0054,-0.07 -0.0059,-0.10938 l -0.99414,0.99219 v 5.1172 c 0,0.592 -0.06316,1.0056 -0.16016,1.2656 -0.098,0.26 -0.20272,0.37166 -0.38672,0.47266 -0.366,0.202 -1.1941,0.24672 -2.4531,0.26172 h -8 c -1.259,-0.015 -2.0901,-0.05972 -2.4551,-0.26172 -0.183,-0.1 -0.28677,-0.21266 -0.38477,-0.47266 -0.097,-0.26 -0.16016,-0.67362 -0.16016,-1.2656 v -6 c 0,-0.592 0.063156,-1.0056 0.16016,-1.2656 0.098,-0.26 0.20177,-0.37166 0.38477,-0.47266 0.365,-0.202 1.1951,-0.24672 2.4551,-0.26172 h 2.5 v -1 h -2.502 -0.00391 z"
     color="#000000"
     fill="#dfdfdf"
     style="font-variant-ligatures:normal;font-variant-position:normal;font-variant-caps:normal;font-variant-numeric:normal;font-variant-alternates:normal;font-feature-settings:normal;text-indent:0;text-decoration-line:none;text-decoration-style:solid;text-decoration-color:#000000;text-transform:none;text-orientation:mixed;shape-padding:0;isolation:auto;mix-blend-mode:normal"
     id="path2" />
  <path
     d="m 9,5 10e-4,5 C 9.761,9.652 10.536,9.263 11.324,8.834 A 44.09,44.09 0 0 0 13.583,7.5 C 12.858,7.051 12.105,6.611 11.323,6.18 A 43.088,43.088 0 0 0 9,5 Z"
     color="#000000"
     fill="#dfdfdf"
     overflow="visible"
     id="path4" />
  <path
     d="m 19.5,8.9722 -1.4477,-1.4731 1.3931,-1.5432 -1.0042,-0.95588 -1.4336,1.4706 -1.4627,-1.4706 -1.0448,0.99104 1.4627,1.5018 -1.4627,1.4778 1.0448,1.0294 1.461,-1.5441 1.4644,1.5441 z"
     fill="#ed4737"
     id="path6" />
</svg>
