<svg width="24" height="24" version="1.1" xmlns="http://www.w3.org/2000/svg">
 <path d="m9.994 6c-1.258 0.015-2.179-0.03-2.932 0.385a1.88 1.88 0 0 0-0.837 0.998c-0.165 0.437-0.225 0.96-0.225 1.617v6c0 0.658 0.06 1.179 0.225 1.617 0.164 0.439 0.461 0.79 0.837 0.998 0.753 0.416 1.674 0.37 2.932 0.385h4.012c1.258-0.015 2.179 0.03 2.932-0.385a1.88 1.88 0 0 0 0.838-0.998c0.164-0.438 0.224-0.96 0.224-1.617v-6c0-0.658-0.06-1.179-0.225-1.617a1.88 1.88 0 0 0-0.838-0.998c-0.752-0.416-1.673-0.37-2.931-0.385h-4.008zm6e-3 1h4c1.259 0.015 2.087 0.06 2.453 0.262 0.184 0.1 0.29 0.212 0.387 0.472s0.16 0.674 0.16 1.266v6c0 0.592-0.063 1.006-0.16 1.266-0.098 0.26-0.202 0.371-0.385 0.472-0.366 0.202-1.197 0.247-2.455 0.262h-4c-1.259-0.015-2.09-0.06-2.455-0.262-0.184-0.1-0.287-0.212-0.385-0.472-0.097-0.26-0.16-0.674-0.16-1.266v-6c0-0.592 0.063-1.006 0.16-1.266 0.098-0.26 0.201-0.371 0.385-0.472 0.365-0.202 1.195-0.247 2.455-0.262z" color="#000000" fill="#dfdfdf" font-weight="400" overflow="visible"/>
 <path d="m10.117 10.247c0.167-0.07 0.34-0.147 0.52-0.234 0.184-0.092 0.363-0.19 0.536-0.294a8.2 8.2 0 0 0 0.494-0.338c0.161-0.121 0.306-0.248 0.433-0.381h0.9v6h-1v-4.652c-0.448 0.347-1.012 0.566-1.494 0.762z" fill="#dfdfdf" font-weight="700" letter-spacing="0" word-spacing="0"/>
</svg>
