<svg width="18" height="18" version="1.1" viewBox="0 0 18 18" xmlns="http://www.w3.org/2000/svg">
 <defs>
  <style id="current-color-scheme" type="text/css">.ColorScheme-Text { color:#666666; } .ColorScheme-Highlight { color:#f34f17; }</style>
 </defs>
 <path d="m7.3848 2.6816-0.76953 0.63867 5 6 0.76953-0.63867z" color="#666666" fill="currentColor"/>
 <path d="m15.85 3.8242-3.2656 4.8984 0.83203 0.55469 3.4922-5.2383h-0.47852c-0.22332 0-0.41744-0.087772-0.58008-0.21484z" color="#666666" fill="currentColor"/>
 <path d="m2 6.022v8.976h1v-8.976z" color="#666666" fill="currentColor"/>
 <path d="m1 14.998v1h6v-1z" color="#666666" fill="currentColor"/>
 <path d="m11.609 9.6894-4 5 0.78125 0.62305 4-5z" color="#666666" fill="currentColor"/>
 <path d="m13.391 9.6894-0.78125 0.62305 2.5137 3.1426c0.17564-0.20899 0.43096-0.34961 0.72656-0.34961h0.27344z" color="#666666" fill="currentColor"/>
 <path d="m5.6875 2.6113-3.166 2.5332c0.41313 0 0.78532 0.16577 1.0566 0.43359l2.7344-2.1875z" color="#666666" fill="currentColor"/>
 <path d="m6.5 0.99996a1.5 1.5 0 0 0-1.5 1.5 1.5 1.5 0 0 0 1.5 1.5 1.5 1.5 0 0 0 1.5-1.5 1.5 1.5 0 0 0-1.5-1.5z" color="#f34f17" fill="currentColor"/>
 <path d="m15.5 3a1.5 1.5 0 0 0-1.5 1.5 1.5 1.5 0 0 0 1.5 1.5 1.5 1.5 0 0 0 1.5-1.5 1.5 1.5 0 0 0-1.5-1.5z" color="#f34f17" fill="currentColor"/>
 <path d="m2.5 4a1.5 1.5 0 0 0-1.5 1.5 1.5 1.5 0 0 0 1.5 1.5 1.5 1.5 0 0 0 1.5-1.5 1.5 1.5 0 0 0-1.5-1.5z" color="#f34f17" fill="currentColor"/>
 <path d="m12.5 8a1.5 1.5 0 0 0-1.5 1.5 1.5 1.5 0 0 0 1.5 1.5 1.5 1.5 0 0 0 1.5-1.5 1.5 1.5 0 0 0-1.5-1.5z" color="#f34f17" fill="currentColor"/>
 <path d="m2.5 14a1.5 1.5 0 0 0-1.5 1.5 1.5 1.5 0 0 0 1.5 1.5 1.5 1.5 0 0 0 1.5-1.5 1.5 1.5 0 0 0-1.5-1.5z" color="#f34f17" fill="currentColor"/>
 <path d="m7.5 14a1.5 1.5 0 0 0-1.5 1.5 1.5 1.5 0 0 0 1.5 1.5 1.5 1.5 0 0 0 1.5-1.5 1.5 1.5 0 0 0-1.5-1.5z" color="#f34f17" fill="currentColor"/>
 <path d="m15.5 12a1.5 1.5 0 0 0-1.5 1.5 1.5 1.5 0 0 0 1.5 1.5 1.5 1.5 0 0 0 1.5-1.5 1.5 1.5 0 0 0-1.5-1.5z" color="#f34f17" fill="currentColor"/>
</svg>
