<svg width="18" height="18" version="1.1" xmlns="http://www.w3.org/2000/svg">
 <g transform="translate(1,2)" fill="#666">
  <g transform="translate(-52,-140)">
   <path d="m56 140v1h1v-1zm2 0v1h1v-1zm-3 0.0254c-0.73613 0.0186-1.3876 0.0697-1.9082 0.34766l0.77734 0.77734c0.26868-0.0647 0.66736-0.0972 1.1309-0.11914zm-2.627 1.043c-0.05745 0.0986-0.10694 0.2039-0.14844 0.31445-0.16466 0.43866-0.22461 0.95957-0.22461 1.6172h1c0-0.53531 0.05488-0.90618 0.13672-1.168zm-0.37305 2.9316v1h1v-1zm0 2v1h1v-1z"/>
   <path d="m63 140v1h-1v-1zm-2 0v1h-1v-1zm3 0.0254c0.73613 0.0186 1.3876 0.0697 1.9082 0.34766l-0.77734 0.77734c-0.26868-0.0647-0.66736-0.0972-1.1309-0.11914zm2.627 1.043c0.05745 0.0986 0.10694 0.2039 0.14844 0.31445 0.16466 0.43866 0.22461 0.95957 0.22461 1.6172h-1c0-0.53531-0.05488-0.90618-0.13672-1.168zm0.37305 2.9316v1h-1v-1zm0 2v1h-1v-1z"/>
   <path d="m56 155v-1h1v1zm2 0v-1h1v1zm-3-0.0254c-0.73613-0.0186-1.3876-0.0697-1.9082-0.34766l0.77734-0.77734c0.26868 0.0647 0.66736 0.0972 1.1309 0.11914zm-2.627-1.043c-0.05745-0.0986-0.10694-0.2039-0.14844-0.31445-0.16466-0.43866-0.22461-0.95957-0.22461-1.6172h1c0 0.53531 0.05488 0.90618 0.13672 1.168zm-0.37305-2.9316v-1h1v1zm0-2v-1h1v1z"/>
   <path d="m63 155v-1h-1v1zm-2 0v-1h-1v1zm3-0.0254c0.73613-0.0186 1.3876-0.0697 1.9082-0.34766l-0.77734-0.77734c-0.26868 0.0647-0.66736 0.0972-1.1309 0.11914zm2.627-1.043c0.05745-0.0986 0.10694-0.2039 0.14844-0.31445 0.16466-0.43866 0.22461-0.95957 0.22461-1.6172h-1c0 0.53531-0.05488 0.90618-0.13672 1.168zm0.37305-2.9316v-1h-1v1zm0-2v-1h-1v1z"/>
  </g>
  <path class="ColorScheme-Text" d="m6 2.4266-4.5 4.3487h7.5l4.5-4.3487zm0 5.7982-4.5 4.3487h7.5l4.5-4.3487z"/>
 </g>
</svg>
