<svg width="18" height="18" version="1.1" viewBox="0 0 18 18" xmlns="http://www.w3.org/2000/svg">
 <defs>
  <style id="current-color-scheme" type="text/css">.ColorScheme-Text { color:#4d4d4d; } .ColorScheme-Highlight { color:#f34f17; }</style>
 </defs>
 <path d="m8 1v16h1v-4h7v-1h-7v-11z" color="#f34f17" fill="currentColor"/>
 <path d="m10 5v6h1v-0.7832c0.53252 0.48111 1.2296 0.7832 2 0.7832 1.6509 0 3-1.3491 3-3s-1.3491-3-3-3c-0.77039 0-1.4675 0.30209-2 0.7832v-0.7832zm3 1c1.1105 0 2 0.88951 2 2s-0.88951 2-2 2-2-0.88951-2-2 0.88951-2 2-2z" color="#000000" color-rendering="auto" dominant-baseline="auto" fill="#666" image-rendering="auto" shape-rendering="auto" solid-color="#000000" style="font-feature-settings:normal;font-variant-alternates:normal;font-variant-caps:normal;font-variant-ligatures:normal;font-variant-numeric:normal;font-variant-position:normal;isolation:auto;mix-blend-mode:normal;paint-order:stroke fill markers;shape-padding:0;text-decoration-color:#000000;text-decoration-line:none;text-decoration-style:solid;text-indent:0;text-orientation:mixed;text-transform:none;white-space:normal"/>
 <path d="m7 11v6h-1v-0.7832c-0.53252 0.48111-1.2296 0.7832-2 0.7832-1.6509 0-3-1.3491-3-3s1.3491-3 3-3c0.77039 0 1.4675 0.30209 2 0.7832v-0.7832zm-3 1c-1.1105 0-2 0.88951-2 2s0.88951 2 2 2 2-0.88951 2-2-0.88951-2-2-2z" color="#000000" color-rendering="auto" dominant-baseline="auto" fill="#666" image-rendering="auto" shape-rendering="auto" solid-color="#000000" style="font-feature-settings:normal;font-variant-alternates:normal;font-variant-caps:normal;font-variant-ligatures:normal;font-variant-numeric:normal;font-variant-position:normal;isolation:auto;mix-blend-mode:normal;paint-order:stroke fill markers;shape-padding:0;text-decoration-color:#000000;text-decoration-line:none;text-decoration-style:solid;text-indent:0;text-orientation:mixed;text-transform:none;white-space:normal"/>
</svg>
