<?xml version="1.0" encoding="UTF-8" standalone="no"?>
<svg
   version="1.1"
   viewBox="0 0 16 16"
   id="svg4"
   sodipodi:docname="go-first-symbolic.svg"
   inkscape:version="1.1.2 (0a00cf5339, 2022-02-04)"
   xmlns:inkscape="http://www.inkscape.org/namespaces/inkscape"
   xmlns:sodipodi="http://sodipodi.sourceforge.net/DTD/sodipodi-0.dtd"
   xmlns="http://www.w3.org/2000/svg"
   xmlns:svg="http://www.w3.org/2000/svg">
  <defs
     id="defs8" />
  <sodipodi:namedview
     id="namedview6"
     pagecolor="#ffffff"
     bordercolor="#666666"
     borderopacity="1.0"
     inkscape:pageshadow="2"
     inkscape:pageopacity="0.0"
     inkscape:pagecheckerboard="0"
     showgrid="false"
     inkscape:zoom="49.375"
     inkscape:cx="7.9898734"
     inkscape:cy="8"
     inkscape:window-width="1851"
     inkscape:window-height="1053"
     inkscape:window-x="0"
     inkscape:window-y="0"
     inkscape:window-maximized="1"
     inkscape:current-layer="svg4" />
  <path
     id="path2"
     style="font-variant-ligatures:normal;font-variant-position:normal;font-variant-caps:normal;font-variant-numeric:normal;font-variant-alternates:normal;font-variant-east-asian:normal;font-feature-settings:normal;font-variation-settings:normal;text-indent:0;text-decoration-line:none;text-decoration-style:solid;text-decoration-color:#000000;text-transform:none;text-orientation:mixed;white-space:normal;shape-padding:0;shape-margin:0;inline-size:0;isolation:auto;mix-blend-mode:normal;fill:#808080;fill-opacity:1"
     d="m 10.470703,1.0019531 c 0.127561,-0.007421 0.258255,0.033479 0.361328,0.125 0.205712,0.1835295 0.22406,0.4989338 0.04101,0.7050781 L 5.1699215,8 10.873046,14.167969 c 0.08023,0.08988 0.125316,0.205705 0.126954,0.326172 0.0015,0.144655 -0.0598,0.282849 -0.167969,0.378906 -0.206146,0.183043 -0.521549,0.164697 -0.705078,-0.04102 l -6,-6.4999958 c -0.168191,-0.1894041 -0.168191,-0.4746584 0,-0.6640624 l 6,-6.5 c 0.09176,-0.1028565 0.216189,-0.1585945 0.34375,-0.1660157 z M 1,7 C 1.552285,7 2,7.4477153 2,8 2,8.5522847 1.552285,9 1,9 0.447715,9 0,8.5522847 0,8 0,7.4477153 0.447715,7 1,7 Z" />
</svg>
