<svg width="18" height="18" version="1.1" xmlns="http://www.w3.org/2000/svg">
 <g transform="translate(-552 56)" color="#dfdfdf" fill="#dfdfdf">
  <path d="m556-53s-1 0-1 1v3h1v-2.5s0-0.5 0.5-0.5h9s0.5 0 0.5 0.5v9c0 0.5-0.5 0.5-0.5 0.5h-9s-0.5 0-0.5-0.5v-2.5h-1v3c0 1 1 1 1 1h10s1 0 1-1v-10c0-1-1-1-1-1zm2.569 3.035c-0.267-0.013-0.559 0.188-0.567 0.465v1.5h-3.5a0.52 0.52 0 0 0-0.5 0.5v1a0.489 0.489 0 0 0 0 0.094c0.044 0.229 0.267 0.41 0.5 0.406h3.5v1.5c0.011 0.369 0.524 0.606 0.813 0.375l3-2.5a0.522 0.522 0 0 0 0-0.75l-3-2.5a0.418 0.418 0 0 0-0.246-0.09z" fill="#dfdfdf" overflow="visible"/>
 </g>
</svg>
