<svg width="18" height="18" version="1.1" xmlns="http://www.w3.org/2000/svg">
 <path d="m3.994 2c-1.258 0.015-2.179-0.029-2.932 0.387a1.878 1.878 0 0 0-0.84 0.996c-0.164 0.438-0.222 0.96-0.222 1.617v8c0 0.658 0.058 1.179 0.223 1.617 0.164 0.439 0.463 0.79 0.84 0.998 0.526 0.29 1.188 0.342 1.937 0.36v-1.014c-0.666-0.032-1.204-0.085-1.453-0.223-0.184-0.1-0.29-0.212-0.387-0.472s-0.16-0.674-0.16-1.266v-8c0-0.592 0.063-1.006 0.16-1.266 0.098-0.26 0.203-0.371 0.387-0.472 0.367-0.203 1.195-0.247 2.459-0.262h2.53l2.02 2h3.436c1.264 0.015 2.092 0.06 2.46 0.262 0.183 0.1 0.288 0.212 0.386 0.472s0.162 0.674 0.162 1.266v6c0 0.592-0.063 1.006-0.16 1.266-0.098 0.26-0.203 0.371-0.387 0.472-0.104 0.057-0.273 0.093-0.453 0.127v-8.865h-10v11h10v-1.088c0.34-0.053 0.654-0.14 0.937-0.297a1.88 1.88 0 0 0 0.838-0.998c0.165-0.438 0.225-0.96 0.225-1.617v-6c0-0.658-0.06-1.179-0.225-1.617a1.88 1.88 0 0 0-0.837-0.998c-0.753-0.416-1.674-0.37-2.932-0.385h-3.039l-2.022-2h-2.949zm1.006 5h8v9h-8zm1.008 1v1h6.012v-1zm0 2v1h6.012v-1zm-8e-3 2v1h3v-1z" color="#000000" fill="#dfdfdf" font-family="sans-serif" font-weight="400" overflow="visible"/>
</svg>
