<svg width="18" height="18" version="1.1" viewBox="0 0 18 18" xmlns="http://www.w3.org/2000/svg">
 <defs>
  <style id="current-color-scheme" type="text/css">.ColorScheme-Text { color:#dfdfdf; } .ColorScheme-Highlight { color:#f34f17; }</style>
 </defs>
 <path d="m14 14v3h3v-3zm1 1h1v1h-1z" color="#dfdfdf" fill="#dfdfdf"/>
 <path d="m12 15v1h1v-1z" color="#dfdfdf" fill="#dfdfdf"/>
 <path d="m1 1a10 15 0 0 0 6.2656 13.891l0.50781-0.84766a9 14 0 0 1-5.7734-13.043z" color="#dfdfdf" fill="#dfdfdf"/>
 <path d="m16 1a9 14 0 0 1-5.7715 13.049l0.51172 0.85352a10 15 0 0 0 6.2598-13.902z" color="#dfdfdf" fill="#dfdfdf"/>
 <path d="m1 14v3h3v-3zm1 1h1v1h-1z" color="#dfdfdf" fill="#dfdfdf"/>
 <path d="m5 15v1h1v-1z" color="#dfdfdf" fill="#dfdfdf"/>
 <path d="m9 13a2 2 0 0 0-2 2 2 2 0 0 0 2 2 2 2 0 0 0 2-2 2 2 0 0 0-2-2zm0 1a1 1 0 0 1 1 1 1 1 0 0 1-1 1 1 1 0 0 1-1-1 1 1 0 0 1 1-1z" color="#f34f17" fill="#f34f17"/>
</svg>
