<svg width="24" height="24" version="1.1" xmlns="http://www.w3.org/2000/svg">
 <path d="m12 5c-3.3137 0-6 2.6863-6 6 0 1.3863 0.47448 2.6618 1.2656 3.6777l0.13086-0.13086 0.58008-0.58203a5 5 0 0 1-0.97656-2.9648 5 5 0 0 1 5-5 5 5 0 0 1 2.9648 0.97656l0.39258-0.39258c0.0017 0.00127 0.005912 0.0010375 0.007812 0.0019531l0.32031-0.32031c-1.0172-0.79311-2.2958-1.2656-3.6855-1.2656zm5.0293 2.7305-0.72656 0.72656a5 5 0 0 1 0.69727 2.543 5 5 0 0 1-5 5 5 5 0 0 1-2.5332-0.70703l-1.7461 1.7461c0.088469-0.02547 0.18241-0.039062 0.2793-0.039062h8c0.554 0 1 0.446 1 1h-10c0-0.096883 0.013591-0.19083 0.039062-0.2793l-1.0391 1.0391v0.24023h12v-1s0-2-2-2h-0.6875c1.6167-1.0749 2.6875-2.913 2.6875-5 0-1.2062-0.3581-2.3289-0.9707-3.2695z" fill="#dfdfdf"/>
 <path d="m11.951 9a2 2 0 0 0-1.9512 2 2 2 0 0 0 0.16211 0.78125l0.84375-0.8457a1 1 0 0 1 0.92969-0.92969l0.84766-0.8457a2 2 0 0 0-0.7832-0.16016 2 2 0 0 0-0.048828 0zm2.0352 1.7734-2.2109 2.2109a2 2 0 0 0 0.22461 0.015625 2 2 0 0 0 2-2 2 2 0 0 0-0.013672-0.22656z" fill="#dfdfdf"/>
 <path d="m18.172 5.1719-0.51367 0.51562a4.9449 8.4532 45 0 1 0.005859 0.0019531l-1.6035 1.6035c-0.0019-9.156e-4 -0.00406-6.755e-4 -0.005859-0.0019532l-9.7656 9.7676v0.003906l-2.1133 2.1133 0.70312 0.70312 14-14-0.70703-0.70703z" fill="#dfdfdf" stroke-width="1.8525"/>
</svg>
