<svg width="24" height="24" version="1.1" xmlns="http://www.w3.org/2000/svg">
 <defs>
  <style id="current-color-scheme" type="text/css">.ColorScheme-Text { color:#dfdfdf; } .ColorScheme-Highlight { color:#4285f4; } .ColorScheme-NeutralText { color:#ff9800; } .ColorScheme-PositiveText { color:#4caf50; } .ColorScheme-NegativeText { color:#f44336; }</style>
 </defs>
 <path d="m12 4c-4.4179-1e-7 -8 3.5821-8 8-1e-7 4.4179 3.5821 8 8 8 0.57995 0 1.1445-0.062443 1.6895-0.17969l-0.30859-0.30859 0.9043-0.9043a7 7 0 0 1-2.2852 0.39258 7 7 0 0 1-7-7 7 7 0 0 1 7-7 7 7 0 0 1 7 7 7 7 0 0 1-0.39258 2.2852l0.89648-0.89648 0.3125 0.31445c0.11919-0.5492 0.18359-1.1183 0.18359-1.7031 0-4.4179-3.5821-8-8-8z" fill="#dfdfdf"/>
 <path d="m10 9v2h4v-2l3 3-3 3v-2h-4v2l-3-3z" fill="#dfdfdf"/>
 <g transform="translate(1 .99982)" fill="#dfdfdf" fill-rule="evenodd">
  <path d="m14.501 13.805-0.707 0.707 0.353 0.354 4 4 0.354 0.353 0.707-0.707-4.354-4.354z" color="#000000" overflow="visible" style="font-feature-settings:normal;font-variant-alternates:normal;font-variant-caps:normal;font-variant-ligatures:normal;font-variant-numeric:normal;font-variant-position:normal;isolation:auto;mix-blend-mode:normal;shape-padding:0;text-decoration-color:#000000;text-decoration-line:none;text-decoration-style:solid;text-indent:0;text-orientation:mixed;text-transform:none;white-space:normal"/>
  <path d="m18.501 13.805-4.707 4.707 0.707 0.707 0.354-0.353 4-4 0.353-0.354z" color="#000000" overflow="visible" style="font-feature-settings:normal;font-variant-alternates:normal;font-variant-caps:normal;font-variant-ligatures:normal;font-variant-numeric:normal;font-variant-position:normal;isolation:auto;mix-blend-mode:normal;shape-padding:0;text-decoration-color:#000000;text-decoration-line:none;text-decoration-style:solid;text-indent:0;text-orientation:mixed;text-transform:none;white-space:normal"/>
 </g>
</svg>
