<?xml version="1.0" encoding="UTF-8" standalone="no"?>
<svg
   version="1.1"
   viewBox="0 0 16 16"
   id="svg8"
   sodipodi:docname="org.gnome.Devhelp-symbolic.svg"
   inkscape:version="1.1.2 (0a00cf5339, 2022-02-04)"
   xmlns:inkscape="http://www.inkscape.org/namespaces/inkscape"
   xmlns:sodipodi="http://sodipodi.sourceforge.net/DTD/sodipodi-0.dtd"
   xmlns="http://www.w3.org/2000/svg"
   xmlns:svg="http://www.w3.org/2000/svg">
  <defs
     id="defs12" />
  <sodipodi:namedview
     id="namedview10"
     pagecolor="#ffffff"
     bordercolor="#666666"
     borderopacity="1.0"
     inkscape:pageshadow="2"
     inkscape:pageopacity="0.0"
     inkscape:pagecheckerboard="0"
     showgrid="false"
     showguides="false"
     inkscape:zoom="33.764349"
     inkscape:cx="4.2648535"
     inkscape:cy="7.448685"
     inkscape:window-width="1920"
     inkscape:window-height="1012"
     inkscape:window-x="0"
     inkscape:window-y="0"
     inkscape:window-maximized="1"
     inkscape:current-layer="svg8" />
  <path
     id="path2"
     style="font-variant-ligatures:normal;font-variant-position:normal;font-variant-caps:normal;font-variant-numeric:normal;font-variant-alternates:normal;font-feature-settings:normal;text-indent:0;text-decoration-line:none;text-decoration-style:solid;text-decoration-color:#000000;text-transform:none;text-orientation:mixed;white-space:normal;shape-padding:0;isolation:auto;mix-blend-mode:normal;fill:#dfdfdf"
     d="M 4.9902344 0 C 3.7320344 0.0145 2.8112937 -0.03060437 2.0585938 0.38476562 C 1.6822237 0.59242564 1.3853631 0.9441525 1.2207031 1.3828125 C 1.0560331 1.8214825 0.99609375 2.34238 0.99609375 3 L 0.99609375 13 C 0.99609375 13.65761 1.0559931 14.178586 1.2207031 14.617188 C 1.3853831 15.055797 1.6822338 15.405711 2.0585938 15.613281 C 2.8113138 16.028421 3.7321344 15.98493 4.9902344 16 L 4.9921875 16 L 9.9980469 16 L 10.001953 16 C 11.260153 15.9855 12.180894 16.030604 12.933594 15.615234 C 13.309964 15.407574 13.606824 15.055846 13.771484 14.617188 C 13.936014 14.178516 13.996094 13.65762 13.996094 13 L 13.996094 3 C 13.996094 2.34239 13.936194 1.8214125 13.771484 1.3828125 C 13.606804 0.9442025 13.309954 0.59428875 12.933594 0.38671875 C 12.180874 -0.02841125 11.259953 0.01507 10.001953 0 L 10 0 L 4.9941406 0 L 4.9902344 0 z M 4.9960938 1 L 9.9960938 1 C 11.254694 1.0152 12.085172 1.0598986 12.451172 1.2617188 C 12.634592 1.3628787 12.738397 1.474575 12.835938 1.734375 C 12.933337 1.994165 12.996094 2.40763 12.996094 3 L 12.996094 13 C 12.996094 13.59239 12.933498 14.005725 12.835938 14.265625 C 12.738338 14.525535 12.634582 14.637091 12.451172 14.738281 C 12.085212 14.940201 11.254594 14.98529 9.9960938 15 L 5.0019531 15 L 4.9960938 15 C 4.6216773 14.995478 4.297686 14.985759 4 14.972656 L 4 1.0273438 C 4.29744 1.0142608 4.621707 1.0043731 4.9960938 1 z M 3 1.1210938 L 3 14.878906 C 2.8076053 14.843198 2.6508026 14.79882 2.5410156 14.738281 C 2.3575956 14.637121 2.25379 14.525425 2.15625 14.265625 C 2.05875 14.005835 1.9960937 13.59237 1.9960938 13 L 1.9960938 3 C 1.9960938 2.40761 2.05869 1.994275 2.15625 1.734375 C 2.25385 1.474465 2.3595587 1.3629087 2.5429688 1.2617188 C 2.6523867 1.2013482 2.80873 1.1568071 3 1.1210938 z M 7.515625 3.8984375 C 7.2103371 3.8984375 6.9501961 3.9332765 6.7324219 4.0039062 C 6.5223924 4.0684818 6.3454979 4.168174 6.2109375 4.3027344 C 6.0765183 4.4314806 5.9814932 4.5940131 5.9277344 4.7851562 C 5.8750069 4.972632 5.8496094 5.1825967 5.8496094 5.4160156 L 5.8496094 6.9023438 C 5.8496094 6.9891857 5.8346225 7.0781634 5.8046875 7.1679688 L 5.8027344 7.1699219 L 5.8027344 7.171875 C 5.7790104 7.252536 5.7422984 7.3244142 5.6855469 7.390625 C 5.6355889 7.449666 5.5683411 7.5009436 5.4863281 7.5449219 L 5.484375 7.5449219 C 5.407539 7.5807609 5.3131641 7.6015625 5.1933594 7.6015625 L 5.0898438 7.6015625 L 5.0898438 8.4023438 L 5.1933594 8.4023438 C 5.3117181 8.4023438 5.4053904 8.4260159 5.4824219 8.4667969 L 5.484375 8.4667969 L 5.4863281 8.46875 C 5.5670851 8.506753 5.6315156 8.5572979 5.6816406 8.6210938 L 5.6855469 8.6230469 L 5.6875 8.6269531 C 5.741793 8.6857711 5.778882 8.7539762 5.8027344 8.8398438 L 5.8027344 8.84375 L 5.8046875 8.8476562 C 5.8342045 8.9312894 5.8496094 9.0147201 5.8496094 9.1015625 L 5.8496094 10.589844 C 5.8496094 10.823262 5.8750604 11.031466 5.9277344 11.21875 C 5.9815374 11.410051 6.0767069 11.576705 6.2109375 11.710938 C 6.3460949 11.846094 6.5231108 11.947166 6.734375 12.011719 C 6.9517229 12.076339 7.2113243 12.105469 7.515625 12.105469 L 7.6523438 12.105469 L 7.6523438 11.294922 L 7.5488281 11.294922 C 7.2475499 11.294922 7.0456303 11.235362 6.9375 11.144531 C 6.842875 11.065681 6.7753906 10.885173 6.7753906 10.580078 L 6.7753906 9.3085938 C 6.7753906 8.9356098 6.7258106 8.6391211 6.6152344 8.4179688 C 6.53164 8.2419401 6.3961561 8.1153168 6.25 8.0019531 C 6.3961561 7.8885896 6.53164 7.7619663 6.6152344 7.5859375 C 6.7256891 7.365028 6.7753906 7.0702494 6.7753906 6.6972656 L 6.7753906 5.4238281 C 6.7753906 5.1187335 6.8428743 4.9382298 6.9375 4.859375 C 7.0456302 4.7685456 7.2475498 4.7089844 7.5488281 4.7089844 L 7.6523438 4.7089844 L 7.6523438 3.8984375 L 7.515625 3.8984375 z M 9.4863281 3.8984375 L 9.4863281 4.0019531 L 9.4863281 4.7089844 L 9.5898438 4.7089844 C 9.8911219 4.7089844 10.087438 4.7681584 10.189453 4.8574219 L 10.191406 4.859375 L 10.193359 4.859375 C 10.293089 4.939162 10.361328 5.1192309 10.361328 5.4238281 L 10.361328 6.6972656 C 10.361328 7.0698124 10.407708 7.3637302 10.511719 7.5839844 L 10.513672 7.5859375 C 10.601912 7.7624273 10.739335 7.8883396 10.886719 8.0019531 C 10.739336 8.1155664 10.601917 8.2414783 10.513672 8.4179688 L 10.511719 8.4199219 C 10.407504 8.6404225 10.361328 8.936047 10.361328 9.3085938 L 10.361328 10.580078 C 10.361328 10.884675 10.293098 11.064745 10.193359 11.144531 L 10.191406 11.144531 L 10.189453 11.146484 C 10.087438 11.235744 9.8911223 11.294921 9.5898438 11.294922 L 9.4863281 11.294922 L 9.4863281 12.105469 L 9.6230469 12.105469 C 9.9273474 12.105469 10.182179 12.076609 10.394531 12.011719 C 10.611234 11.947299 10.79016 11.846559 10.925781 11.710938 C 11.060012 11.576707 11.155181 11.410051 11.208984 11.21875 C 11.261654 11.031466 11.287109 10.823262 11.287109 10.589844 L 11.287109 9.1015625 C 11.287109 9.0117605 11.299509 8.9258138 11.324219 8.8417969 C 11.353459 8.7557159 11.392709 8.682904 11.443359 8.6230469 C 11.499859 8.5571329 11.569042 8.5070319 11.650391 8.46875 L 11.652344 8.4667969 L 11.654297 8.4667969 C 11.730807 8.4262939 11.826954 8.4023438 11.945312 8.4023438 L 12.048828 8.4023438 L 12.048828 7.6015625 L 11.945312 7.6015625 C 11.825503 7.6015625 11.728721 7.5805359 11.652344 7.5449219 L 11.650391 7.5449219 C 11.570191 7.5019739 11.502755 7.4513369 11.447266 7.3925781 L 11.445312 7.390625 C 11.392854 7.323412 11.353223 7.2492917 11.324219 7.1679688 L 11.322266 7.1660156 C 11.298676 7.0784116 11.287109 6.9895227 11.287109 6.9023438 L 11.287109 5.4160156 C 11.287109 5.1825968 11.261714 4.9726321 11.208984 4.7851562 C 11.155275 4.5940134 11.0602 4.4314807 10.925781 4.3027344 C 10.791129 4.1680823 10.613065 4.0683676 10.398438 4.0039062 C 10.18565 3.9329772 9.9283345 3.8984375 9.6230469 3.8984375 L 9.4863281 3.8984375 z " />
</svg>
