<svg width="16" height="16" version="1.1" xmlns="http://www.w3.org/2000/svg">
 <path d="m2 7.36c-1.287 0.729-1.998 1.667-2 2.64 0 1.256 1.039 2.255 2.484 2.93 1.214 0.566 2.784 0.92 4.516 1.023v-1c-1.602-0.104-3.04-0.438-4.092-0.93-1.268-0.592-1.908-1.346-1.908-2.023a7 3 0 0 1 1-1.537zm12 1e-3v1.1a7 3 0 0 1 1 1.54c0 0.676-0.64 1.43-1.908 2.022-0.589 0.275-1.304 0.499-2.092 0.667v1.03c0.937-0.183 1.789-0.451 2.516-0.79 1.444-0.675 2.484-1.674 2.484-2.93-3e-3 -0.972-0.714-1.91-2-2.639z" color="#000000" fill="#dfdfdf" fill-rule="evenodd" font-family="sans-serif" font-weight="400" overflow="visible"/>
 <path d="m7 11v5l3.5-2.5z" fill="#dfdfdf" fill-rule="evenodd"/>
 <path d="m5 0v1.025c-0.75 0.018-1.41 0.07-1.938 0.36a1.88 1.88 0 0 0-0.837 0.998c-0.165 0.438-0.225 0.96-0.225 1.617v4c0 0.658 0.06 1.179 0.225 1.617 0.164 0.439 0.461 0.79 0.837 0.998 0.753 0.416 1.674 0.37 2.932 0.385h4.012c1.258-0.015 2.179 0.03 2.932-0.385a1.88 1.88 0 0 0 0.838-0.998c0.164-0.438 0.224-0.96 0.224-1.617v-4c0-0.658-0.06-1.179-0.225-1.617a1.88 1.88 0 0 0-0.837-0.998c-0.753-0.416-1.674-0.37-2.932-0.385h-3.006v-1zm1 2h4c1.259 0.015 2.087 0.06 2.453 0.262 0.184 0.1 0.29 0.212 0.387 0.472s0.16 0.674 0.16 1.266v4c0 0.592-0.063 1.006-0.16 1.266-0.098 0.26-0.203 0.371-0.387 0.472-0.366 0.202-1.194 0.247-2.453 0.262h-4c-1.259-0.015-2.09-0.06-2.455-0.262-0.183-0.1-0.287-0.212-0.385-0.472-0.097-0.26-0.16-0.674-0.16-1.266v-4c0-0.592 0.063-1.006 0.16-1.266 0.098-0.26 0.202-0.371 0.385-0.472 0.366-0.202 1.196-0.247 2.455-0.262zm2 1a3 3 0 1 0 0 6 3 3 0 0 0 0-6zm3.5 0a0.5 0.5 0 1 0 0 1 0.5 0.5 0 0 0 0-1zm-3.5 1a2 2 0 0 1 2 2 2 2 0 0 1-2 2 2 2 0 0 1-2-2 2 2 0 0 1 2-2zm0 1a1 1 0 0 0-1 1 1 1 0 0 0 1 1 1 1 0 0 0 1-1 1 1 0 0 0-1-1z" color="#000000" fill="#dfdfdf" font-family="sans-serif" font-weight="400" overflow="visible"/>
</svg>
