<svg version="1.1" viewBox="0 0 16 16" xmlns="http://www.w3.org/2000/svg">
 <path d="m6 0c-0.658 0-1.18 0.06-1.617 0.225-0.44 0.164-0.79 0.461-0.998 0.838-0.416 0.752-0.37 1.673-0.385 2.931v8.012c0.014 1.258-0.031 2.179 0.385 2.931 0.207 0.377 0.559 0.674 0.998 0.838 0.438 0.165 0.96 0.225 1.617 0.225h4c0.657 0 1.178-0.06 1.617-0.225 0.439-0.164 0.79-0.461 0.998-0.837 0.415-0.753 0.37-1.674 0.385-2.932v-1.006h-1v0.994c-0.014 1.264-0.06 2.092-0.262 2.46-0.101 0.183-0.213 0.288-0.473 0.386-0.26 0.097-0.673 0.16-1.265 0.16h-4c-0.593 0-1.006-0.063-1.266-0.16-0.26-0.098-0.371-0.203-0.472-0.387-0.202-0.366-0.248-1.193-0.262-2.453v-8c0.015-1.259 0.06-2.087 0.261-2.453 0.102-0.184 0.213-0.29 0.473-0.387s0.673-0.16 1.266-0.16h4c0.592 0 1.005 0.063 1.265 0.16 0.26 0.098 0.372 0.202 0.473 0.385 0.202 0.366 0.247 1.196 0.262 2.455v2.5h1v-2.506c-0.015-1.258 0.03-2.179-0.385-2.931a1.88 1.88 0 0 0-0.998-0.838c-0.439-0.165-0.96-0.225-1.617-0.225z" fill="#dfdfdf" font-family="sans-serif" font-weight="400" overflow="visible" style="font-feature-settings:normal;font-variant-alternates:normal;font-variant-caps:normal;font-variant-ligatures:normal;font-variant-numeric:normal;font-variant-position:normal;isolation:auto;mix-blend-mode:normal;shape-padding:0;text-decoration-color:#000000;text-decoration-line:none;text-decoration-style:solid;text-indent:0;text-orientation:mixed;text-transform:none" white-space="normal"/>
 <path d="m15 5-5 1e-3c0.348 0.76 0.737 1.535 1.166 2.323 0.431 0.78 0.875 1.534 1.334 2.259 0.449-0.725 0.889-1.478 1.32-2.26 0.43-0.788 0.823-1.562 1.18-2.323z" fill="#dfdfdf" overflow="visible"/>
</svg>
