<svg width="24" height="24" version="1" xmlns="http://www.w3.org/2000/svg">
 <rect transform="matrix(0,-1,-1,0,0,0)" x="-24" y="-23" width="22" height="22" rx="11" ry="11" enable-background="new" opacity=".2"/>
 <rect transform="matrix(0,-1,-1,0,0,0)" x="-23" y="-23" width="22" height="22" rx="11" ry="11" enable-background="new" fill="#1a7fd4"/>
 <path d="m12.313 5.5055 1e-3 1e-3c-0.60361 5e-5 -1.1746 0.0692-1.7129 0.20699-0.48872 0.12799-0.92166 0.30271-1.3216 0.50473l0.40853 1.13c0.77898-0.39542 1.578-0.61188 2.3959-0.61188 0.68767 0 1.2332 0.18178 1.6087 0.55681 0.37059 0.35733 0.5583 0.83424 0.5583 1.3996 0 0.35248-0.0825 0.68239-0.24614 0.98276-0.14631 0.29198-0.33814 0.57009-0.57488 0.83314-0.23188 0.25764-0.47625 0.51521-0.73363 0.7726l-1e-3 1e-3 -3e-3 1e-3c-0.25083 0.23829-0.48908 0.50197-0.71554 0.79134l-9.9e-4 1e-3 -4.8e-4 9.9e-4c-0.22274 0.27223-0.40791 0.56899-0.55664 0.89087-0.1324 0.31392-0.20037 0.66515-0.20037 1.0582 0 0.23576 0.0273 0.4569 0.064 0.67275h1.231c-1e-3 -0.0264-7e-3 -0.05-7e-3 -0.0774v-0.21131c0-0.4388 0.0871-0.83768 0.26273-1.1899 0.17066-0.35444 0.38124-0.6769 0.63112-0.96667l1e-3 -9.9e-4c4.7e-4 -4.7e-4 4.7e-4 -9.7e-4 1e-3 -3e-3 0.2466-0.29828 0.51913-0.58303 0.81688-0.85486 0.2898-0.26461 0.5541-0.5418 0.79301-0.831 0.23633-0.28608 0.4346-0.59045 0.59612-0.91309v-4.7e-4c0.15667-0.32555 0.23636-0.69425 0.23636-1.112 0-0.33055-0.0548-0.67554-0.16653-1.0353l-1e-3 -3e-3 -4.7e-4 -3e-3c-0.0967-0.3629-0.27673-0.68823-0.54487-0.98076-0.26561-0.28976-0.6249-0.52836-1.0838-0.71439l-6e-3 -0.00198c-0.43654-0.19402-1.0136-0.29554-1.73-0.29558zm-0.30552 11.283c-0.36786 0-0.63599 0.11237-0.84078 0.33985-0.21031 0.23368-0.31117 0.49698-0.31117 0.81275 0 0.31575 0.10092 0.57957 0.31117 0.81324 0.20479 0.22755 0.47292 0.33919 0.84078 0.33919 0.36788 0 0.63646-0.11169 0.84127-0.33919 0.21028-0.23366 0.31117-0.49749 0.31117-0.81324 0-0.31577-0.10082-0.57907-0.31117-0.81275-0.20481-0.22756-0.47339-0.33985-0.84127-0.33985z" enable-background="new" fill="#fff"/>
</svg>
