<?xml version="1.0" encoding="UTF-8" standalone="no"?>
<!-- Created with Inkscape (http://www.inkscape.org/) -->

<svg
   width="32"
   height="32"
   viewBox="0 0 8.4666665 8.4666669"
   version="1.1"
   id="svg2719"
   inkscape:version="1.1.2 (0a00cf5339, 2022-02-04, custom)"
   sodipodi:docname="com.github.maoschanz.drawing.svg"
   xmlns:inkscape="http://www.inkscape.org/namespaces/inkscape"
   xmlns:sodipodi="http://sodipodi.sourceforge.net/DTD/sodipodi-0.dtd"
   xmlns:xlink="http://www.w3.org/1999/xlink"
   xmlns="http://www.w3.org/2000/svg"
   xmlns:svg="http://www.w3.org/2000/svg">
  <sodipodi:namedview
     id="namedview2721"
     pagecolor="#ffffff"
     bordercolor="#666666"
     borderopacity="1.0"
     inkscape:pageshadow="2"
     inkscape:pageopacity="0.0"
     inkscape:pagecheckerboard="0"
     inkscape:document-units="px"
     showgrid="false"
     units="px"
     inkscape:zoom="12.40625"
     inkscape:cx="10.397985"
     inkscape:cy="20.392947"
     inkscape:window-width="1920"
     inkscape:window-height="1012"
     inkscape:window-x="0"
     inkscape:window-y="0"
     inkscape:window-maximized="1"
     inkscape:current-layer="svg2719" />
  <defs
     id="defs2716">
    <linearGradient
       inkscape:collect="always"
       id="linearGradient1871">
      <stop
         style="stop-color:#ffffff;stop-opacity:1;"
         offset="0"
         id="stop1867" />
      <stop
         style="stop-color:#ffffff;stop-opacity:0.1"
         offset="0.12"
         id="stop2515" />
      <stop
         style="stop-color:#ffffff;stop-opacity:0.102"
         offset="0.89999998"
         id="stop2581" />
      <stop
         style="stop-color:#ffffff;stop-opacity:0.502"
         offset="1"
         id="stop1869" />
    </linearGradient>
    <linearGradient
       inkscape:collect="always"
       xlink:href="#linearGradient1871"
       id="linearGradient867"
       x1="4.6278176"
       y1="11.864628"
       x2="4.6278176"
       y2="18.214628"
       gradientUnits="userSpaceOnUse"
       gradientTransform="translate(-2.5695447,-10.806133)" />
    <linearGradient
       inkscape:collect="always"
       id="linearGradient3598">
      <stop
         style="stop-color:#e8e8e8;stop-opacity:1"
         offset="0"
         id="stop3594" />
      <stop
         style="stop-color:#f5f5f5;stop-opacity:1"
         offset="1"
         id="stop3596" />
    </linearGradient>
    <linearGradient
       inkscape:collect="always"
       xlink:href="#linearGradient3598"
       id="linearGradient2033"
       x1="2.059305"
       y1="0.79390919"
       x2="5.7634716"
       y2="7.6730757"
       gradientUnits="userSpaceOnUse" />
    <linearGradient
       inkscape:collect="always"
       xlink:href="#linearGradient2453"
       id="linearGradient1521"
       x1="5.1494088"
       y1="4.3703499"
       x2="4.0963168"
       y2="3.3172579"
       gradientUnits="userSpaceOnUse"
       gradientTransform="matrix(3.7795275,0,0,3.7795275,13.086648,11.652146)" />
    <linearGradient
       inkscape:collect="always"
       id="linearGradient2453">
      <stop
         style="stop-color:#e03636;stop-opacity:1;"
         offset="0"
         id="stop2449" />
      <stop
         style="stop-color:#e76666;stop-opacity:1"
         offset="1"
         id="stop2451" />
    </linearGradient>
  </defs>
  <path
     d="M 1.9202958,1.05855 C 1.6045987,1.0609 1.3485526,1.07831 1.1358477,1.123146 0.89262153,1.174426 0.70081823,1.2657609 0.56430643,1.4171849 0.29128553,1.7200319 0.26458333,2.1898658 0.26458333,2.9302708 v 3.1357255 c 0,0.7402219 0.026633,1.2081701 0.2997231,1.5099851 0.1365462,0.150908 0.3285086,0.242385 0.57154127,0.2940388 0.2430331,0.05166 0.5426192,0.067696 0.9234578,0.067696 h 2.1740276 2.1740275 c 0.3808389,0 0.6804247,-0.016026 0.9234577,-0.067696 C 7.5738514,7.8183702 7.7658137,7.7268891 7.9023596,7.5759811 8.1754496,7.2741661 8.2020831,6.8062179 8.2020831,6.065996 V 2.9302703 c 0,-0.740405 -0.026701,-1.2102409 -0.2997235,-1.5130859 C 7.7658486,1.2657604 7.5740443,1.1744215 7.3308183,1.1231455 7.0877263,1.0718956 6.7880116,1.05662 6.4073606,1.05855 H 4.2333331 2.0598222 2.0592931 c -0.047581,-2.375e-4 -0.09391,-3.36e-4 -0.1390097,0 z"
     style="color:#000000;display:inline;overflow:visible;visibility:visible;fill:#000000;fill-opacity:1;fill-rule:nonzero;stroke:none;stroke-width:0.264583;marker:none;enable-background:accumulate;opacity:0.1"
     id="path1438" />
  <path
     d="m 8.0697573,2.6657202 c 0,-1.471547 -0.154541,-1.74722903 -1.662184,-1.73949503 H 4.23332 2.0590245 C 0.55138113,0.91842517 0.39684063,1.1941732 0.39684063,2.6657202 v 3.135429 c 0,1.471181 0.1545246,1.739495 1.66218387,1.739495 H 4.23332 6.4075733 c 1.507659,0 1.662184,-0.268314 1.662184,-1.739495 z"
     style="color:#000000;display:inline;overflow:visible;visibility:visible;fill:url(#linearGradient2033);fill-opacity:1;fill-rule:nonzero;stroke:none;stroke-width:0.264583;marker:none;enable-background:accumulate"
     id="path908" />
  <path
     id="rect872"
     style="opacity:1;fill:#4d4d4d;fill-opacity:1;stroke:none;stroke-width:0.274241;stroke-linecap:round;stroke-linejoin:round"
     d="M 2.058789,0.9261998 C 0.55820772,0.91843706 0.39834216,1.1924432 0.396875,2.6458334 v 0.2645833 h 7.6729167 l -10e-8,-0.2645833 C 8.0683245,1.1924438 7.9079417,0.91850275 6.4073608,0.9261998 H 4.2333333 Z"
     sodipodi:nodetypes="cccccccc" />
  <path
     id="rect1044"
     style="opacity:0.4;fill:#1a1a1a;fill-opacity:1;stroke-width:0.999999"
     d="M 1.6367188 7 C 1.5968311 7.3070806 1.5696077 7.6419037 1.5488281 8.0019531 L 30.451172 8.0019531 C 30.430354 7.6419083 30.403224 7.3070745 30.363281 7 L 1.6367188 7 z M 1.5097656 9 C 1.5033378 9.3158769 1.5003548 9.6485107 1.5 10 L 30.5 10 C 30.499645 9.6485108 30.496677 9.3158749 30.490234 9 L 1.5097656 9 z "
     transform="scale(0.26458333)" />
  <path
     d="M 6.7750961,2.1166663 3.457469,5.4511807 2.8296003,6.8044149 c -0.039474,0.1011423 -0.092816,0.2438366 0,0.3371398 0.092816,0.093303 0.217488,0.059611 0.3348635,0 L 4.5106348,6.5098723 7.8277452,3.1753575 Z"
     style="opacity:0.1;fill:#000000;stroke-width:0.264583"
     id="path8784" />
  <path
     style="color:#000000;fill:#de4848;fill-opacity:1;stroke:none;-inkscape-stroke:none"
     d="M 1.3515118,3.5742184 1.2948708,3.833984 c 0.3384962,0.072935 0.5457345,0.1562876 0.7011718,0.4570312 0.025237,0.059078 0.023848,0.092111 0.00977,0.1367188 -0.014482,0.045876 -0.049583,0.1020371 -0.09375,0.171875 -0.088334,0.1396757 -0.2042917,0.3531743 -0.1210938,0.6308593 0.079904,0.2666902 0.2545047,0.3765559 0.3867188,0.4257813 0.1311833,0.048842 0.2037334,0.055941 0.2851562,0.1953125 0.077546,0.1420587 0.054928,0.3402898 0.072266,0.5566406 0.00867,0.1081754 0.031952,0.2267034 0.109375,0.328125 0.077423,0.1014216 0.2020109,0.1724179 0.3710937,0.2070313 l 0.05273,-0.2597657 C 2.9405337,6.6574362 2.8859684,6.6167969 2.8534649,6.5742183 2.8209614,6.5316398 2.8056086,6.4719608 2.7987774,6.3867183 2.7851151,6.2162335 2.8260399,5.9641854 2.6952618,5.724609 v -0.00195 h -0.00195 C 2.5695895,5.5080773 2.3832597,5.4498373 2.2714337,5.4082027 2.1596076,5.3665681 2.1057896,5.3576205 2.0448712,5.1542965 1.9884132,4.96586 2.0515612,4.8767538 2.1366682,4.7421871 c 0.042551,-0.067283 0.091287,-0.1399552 0.1210937,-0.234375 0.029807,-0.09442 0.031464,-0.2129328 -0.019531,-0.328125 l -0.00195,-0.00391 -0.00195,-0.00195 C 2.0397221,3.7947152 1.7167021,3.6529054 1.3515118,3.5742184 Z"
     id="path4877" />
  <g
     id="g3929"
     transform="matrix(1,0,0,1.0052468,-2.5137831,-2.8429379)">
    <path
       id="rect1329"
       style="opacity:1;fill:url(#linearGradient1521);stroke-width:0.999999"
       d="m 35.107422,17.652344 -12.539063,12.537109 -2.373047,5.087891 c -0.149194,0.380275 -0.3508,0.916777 0,1.267578 0.350802,0.3508 0.822002,0.224124 1.265626,0 l 5.08789,-2.375 12.53711,-12.53711 z"
       transform="scale(0.26458333)"
       sodipodi:nodetypes="cccscccc" />
    <path
       d="M 6.1688038,7.7902444 5.971326,7.9877223 7.0244179,9.0408137 7.2218958,8.8433358 Z"
       style="opacity:0.3;fill:#000000;fill-opacity:1;stroke-width:0.0500031;stroke-linejoin:round"
       id="path2313"
       sodipodi:nodetypes="ccccc" />
    <path
       d="m 6.7667638,7.1922846 -0.29898,0.2989799 1.053092,1.0530916 0.29898,-0.29898 z"
       style="opacity:1;fill:#3c3c3c;fill-opacity:1;stroke-width:0.01323;stroke-linejoin:round"
       id="path2996"
       sodipodi:nodetypes="ccccc" />
    <path
       d="m 8.9894156,4.9695697 -0.29898,0.2989799 1.0530919,1.0530915 0.2989805,-0.29898 z"
       style="opacity:1;fill:#3c3c3c;fill-opacity:1;stroke-width:0.00350044;stroke-linejoin:round"
       id="path3651" />
  </g>
  <path
     d="m 2.0582599,1.0584922 c -0.3728694,-0.0019 -0.6578733,0.01469 -0.8676481,0.05891 -0.20977492,0.04422 -0.33936792,0.111913 -0.42994802,0.212389 -0.18116015,0.200951 -0.23151035,0.604694 -0.23151035,1.335836 v 3.135725 c 0,0.730959 0.050424,1.132599 0.23151035,1.332735 0.090543,0.100068 0.2199773,0.167765 0.42994802,0.212389 0.2099706,0.04463 0.4956889,0.06201 0.8686799,0.06201 H 4.23332 6.4073484 c 0.372991,0 0.6587093,-0.01738 0.8686799,-0.06201 0.209971,-0.04462 0.339405,-0.112321 0.429948,-0.212389 0.181086,-0.200136 0.23151,-0.601776 0.23151,-1.332735 v -3.135725 c 0,-0.731142 -0.05035,-1.134888 -0.23151,-1.335836 -0.09058,-0.10047 -0.220173,-0.168164 -0.429948,-0.212386 -0.2097748,-0.04423 -0.4947787,-0.06076 -0.8676481,-0.05891 H 6.4078511 4.23332 2.0587758 Z m 1.6820673,0.275953 c 0.7202514,-7.94e-4 1.440352,-5.29e-4 2.1605901,0.0041 0.4519639,0.02 0.9180936,-0.03309 1.3652924,0.06563 0.2361456,0.03078 0.3461546,0.2739 0.3560496,0.486791 0.03456,1.320914 0.0094,2.64699 0.01707,3.970819 -0.0172,0.357251 0.0675,0.747702 -0.133842,1.067634 -0.1683759,0.181321 -0.4509138,0.153966 -0.6769633,0.186552 -1.4090253,0.03524 -2.8201249,0.01918 -4.2312642,0.01704 -0.4972976,-0.02286 -1.0181537,0.04429 -1.5022354,-0.107487 -0.24265202,-0.09412 -0.23905892,-0.405646 -0.26096642,-0.623215 -0.036478,-1.23431 -0.00751,-2.476659 -0.00672,-3.712954 0.019288,-0.331136 -0.027943,-0.673301 0.056846,-0.996838 0.048678,-0.24098 0.31437522,-0.307018 0.52348072,-0.327629 0.7773194,-0.04229 1.5535487,-0.02109 2.3326752,-0.03049 z"
     style="color:#000000;display:inline;overflow:visible;visibility:visible;fill:url(#linearGradient867);fill-opacity:1;fill-rule:nonzero;stroke:none;stroke-width:0.264583;marker:none;enable-background:accumulate;opacity:0.7"
     id="path1034" />
  <path
     d="m 2.059305,0.79390917 c -0.3806508,-0.0019 -0.6803655,0.01336 -0.9234567,0.0646 -0.24322622,0.05128 -0.43503057,0.14261503 -0.57154227,0.29403903 -0.2730209,0.302847 -0.2997227,0.772681 -0.2997227,1.513086 v 3.135725 c 0,0.740222 0.026633,1.20817 0.2997227,1.509985 0.1365461,0.150908 0.32850925,0.242385 0.57154227,0.294039 0.243033,0.05166 0.5426181,0.0677 0.9234567,0.0677 h 2.1740283 2.1740283 c 0.3808386,0 0.6804236,-0.01603 0.9234567,-0.0677 0.243033,-0.05165 0.434996,-0.143131 0.571542,-0.294039 0.27309,-0.301815 0.299723,-0.769763 0.299723,-1.509985 v -3.135725 c 0,-0.740405 -0.0267,-1.210241 -0.299723,-1.513086 -0.136511,-0.151424 -0.328316,-0.24276303 -0.571542,-0.29403903 -0.2430913,-0.05125 -0.542806,-0.06653 -0.9234567,-0.0646 H 4.2333333 2.0598236 Z M 2.058245,1.0584922 h 5.292e-4 2.1745442 2.1745443 5.292e-4 c 0.3728693,-0.0019 0.6578732,0.01469 0.8676481,0.05891 0.2097743,0.04422 0.3393673,0.111916 0.4299473,0.212389 0.18116,0.200948 0.231511,0.604694 0.231511,1.335836 v 3.135725 c 0,0.730959 -0.05043,1.132599 -0.231511,1.332735 -0.09054,0.100068 -0.21998,0.167762 -0.4299473,0.212389 -0.2099681,0.04463 -0.4956916,0.06201 -0.86868,0.06201 H 4.2333333 2.059305 c -0.3729884,0 -0.658712,-0.01738 -0.86868,-0.06201 C 0.98065688,7.3018522 0.85122008,7.2341582 0.76067708,7.1340902 0.57959093,6.9339542 0.52916673,6.5323142 0.52916673,5.8013552 v -3.135725 c 0,-0.731142 0.05035,-1.134885 0.23151035,-1.335836 0.09058,-0.100476 0.220173,-0.168167 0.42994792,-0.212389 0.2097749,-0.04423 0.4947814,-0.06083 0.8676481,-0.05891 z"
     style="color:#000000;display:inline;opacity:0.4;fill:#000000;stroke-width:0.264583;-inkscape-stroke:none;enable-background:new"
     id="path1156" />
</svg>
