<?xml version="1.0" encoding="UTF-8" standalone="no"?>
<!-- Created with Inkscape (http://www.inkscape.org/) -->

<svg
   width="32"
   height="32"
   viewBox="0 0 8.4666665 8.4666669"
   version="1.1"
   id="svg2719"
   inkscape:version="1.1.2 (0a00cf5339, 2022-02-04, custom)"
   sodipodi:docname="gnome-usage.svg"
   xmlns:inkscape="http://www.inkscape.org/namespaces/inkscape"
   xmlns:sodipodi="http://sodipodi.sourceforge.net/DTD/sodipodi-0.dtd"
   xmlns:xlink="http://www.w3.org/1999/xlink"
   xmlns="http://www.w3.org/2000/svg"
   xmlns:svg="http://www.w3.org/2000/svg">
  <sodipodi:namedview
     id="namedview2721"
     pagecolor="#ffffff"
     bordercolor="#666666"
     borderopacity="1.0"
     inkscape:pageshadow="2"
     inkscape:pageopacity="0.0"
     inkscape:pagecheckerboard="0"
     inkscape:document-units="px"
     showgrid="false"
     units="px"
     inkscape:zoom="8.7725435"
     inkscape:cx="15.274931"
     inkscape:cy="22.969393"
     inkscape:window-width="1920"
     inkscape:window-height="1006"
     inkscape:window-x="0"
     inkscape:window-y="0"
     inkscape:window-maximized="1"
     inkscape:current-layer="svg2719" />
  <defs
     id="defs2716">
    <linearGradient
       inkscape:collect="always"
       id="linearGradient1230">
      <stop
         style="stop-color:#31c6b7;stop-opacity:1"
         offset="0"
         id="stop1226" />
      <stop
         style="stop-color:#2daaaa;stop-opacity:1"
         offset="1"
         id="stop1228" />
    </linearGradient>
    <linearGradient
       inkscape:collect="always"
       id="linearGradient1871">
      <stop
         style="stop-color:#ffffff;stop-opacity:1;"
         offset="0"
         id="stop1867" />
      <stop
         style="stop-color:#ffffff;stop-opacity:0.1"
         offset="0.12"
         id="stop2515" />
      <stop
         style="stop-color:#ffffff;stop-opacity:0.102"
         offset="0.89999998"
         id="stop2581" />
      <stop
         style="stop-color:#ffffff;stop-opacity:0.502"
         offset="1"
         id="stop1869" />
    </linearGradient>
    <linearGradient
       inkscape:collect="always"
       xlink:href="#linearGradient1871"
       id="linearGradient867"
       x1="4.6278176"
       y1="11.864628"
       x2="4.6278176"
       y2="18.214628"
       gradientUnits="userSpaceOnUse"
       gradientTransform="translate(-2.5695447,-10.806133)" />
    <linearGradient
       inkscape:collect="always"
       xlink:href="#linearGradient1230"
       id="linearGradient1232"
       x1="9.3926744"
       y1="7.9375229"
       x2="-0.92607588"
       y2="0.52918881"
       gradientUnits="userSpaceOnUse" />
  </defs>
  <path
     d="M 1.9202958,1.05855 C 1.6045987,1.0609 1.3485526,1.07831 1.1358477,1.123146 0.89262153,1.174426 0.70081823,1.2657609 0.56430643,1.4171849 0.29128553,1.7200319 0.26458333,2.1898658 0.26458333,2.9302708 v 3.1357255 c 0,0.7402219 0.026633,1.2081701 0.2997231,1.5099851 0.1365462,0.150908 0.3285086,0.242385 0.57154127,0.2940388 0.2430331,0.05166 0.5426192,0.067696 0.9234578,0.067696 h 2.1740276 2.1740275 c 0.3808389,0 0.6804247,-0.016026 0.9234577,-0.067696 C 7.5738514,7.8183702 7.7658137,7.7268891 7.9023596,7.5759811 8.1754496,7.2741661 8.2020831,6.8062179 8.2020831,6.065996 V 2.9302703 c 0,-0.740405 -0.026701,-1.2102409 -0.2997235,-1.5130859 C 7.7658486,1.2657604 7.5740443,1.1744215 7.3308183,1.1231455 7.0877263,1.0718956 6.7880116,1.05662 6.4073606,1.05855 H 4.2333331 2.0598222 2.0592931 c -0.047581,-2.375e-4 -0.09391,-3.36e-4 -0.1390097,0 z"
     style="color:#000000;display:inline;overflow:visible;visibility:visible;fill:#000000;fill-opacity:1;fill-rule:nonzero;stroke:none;stroke-width:0.264583;marker:none;enable-background:accumulate;opacity:0.1"
     id="path1438" />
  <path
     d="m 8.0697573,2.6657202 c 0,-1.471547 -0.154541,-1.74722903 -1.662184,-1.73949503 H 4.23332 2.0590245 C 0.55138113,0.91842517 0.39684063,1.1941732 0.39684063,2.6657202 v 3.135429 c 0,1.471181 0.1545246,1.739495 1.66218387,1.739495 H 4.23332 6.4075733 c 1.507659,0 1.662184,-0.268314 1.662184,-1.739495 z"
     style="color:#000000;display:inline;overflow:visible;visibility:visible;fill:url(#linearGradient1232);fill-opacity:1;fill-rule:nonzero;stroke:none;stroke-width:0.264583;marker:none;enable-background:accumulate"
     id="path908" />
  <path
     id="path884"
     style="opacity:0.1;fill:#ffffff;fill-opacity:1;stroke-width:0.264583;stroke-linejoin:round"
     d="M 1.5 16 L 1.5 21.925781 C 1.5 27.48615 2.0830101 28.5 7.78125 28.5 L 16 28.5 L 24.216797 28.5 C 29.915036 28.5 30.5 27.48615 30.5 21.925781 L 30.5 16 L 1.5 16 z "
     transform="scale(0.26458333)" />
  <path
     id="circle29"
     d="M 7.0114583,2.1166667 A 0.396875,0.396875 0 0 0 6.630603,2.4019206 H 5.2678954 c -0.1871048,0 -0.3518207,0.080165 -0.4759399,0.2056723 C 4.6678366,2.7331004 4.5779055,2.9003951 4.5046347,3.0923178 4.3580928,3.4761631 4.2790822,3.9658793 4.2105956,4.4519247 4.1421092,4.9379701 4.0846687,5.4204296 3.9956216,5.7686401 3.9510978,5.9427454 3.8975861,6.0828926 3.8416259,6.1670655 c -0.05596,0.084173 -0.09591,0.107487 -0.1519288,0.107487 -0.059288,0 -0.1153839,-0.025321 -0.1824177,-0.091467 C 3.4402456,6.1169397 3.3700763,6.010823 3.304191,5.8776775 3.1724209,5.6113863 3.0568117,5.2405249 2.9507244,4.8663696 2.8446368,4.4922144 2.7476096,4.1152371 2.6416992,3.8230226 2.5887441,3.6769152 2.5344525,3.5516638 2.4680664,3.4530192 2.4016803,3.3543749 2.3105854,3.2654338 2.181779,3.2654338 c -0.092526,0 -0.1781294,0.046969 -0.2340942,0.1080038 C 1.8917198,3.4344726 1.8557828,3.507707 1.8257284,3.5878948 1.7656194,3.7482701 1.7312094,3.9417427 1.6975708,4.1315307 1.6639328,4.321319 1.6310518,4.5077605 1.5885336,4.6327923 1.5672746,4.6953083 1.5429626,4.7413855 1.5254886,4.7625 1.5080146,4.783614 1.5101316,4.779552 1.5043016,4.779552 H 0.52916667 V 5.0441358 H 1.5043009 c 0.091536,0 0.1737486,-0.051494 0.2247925,-0.1131713 0.051044,-0.061678 0.083065,-0.1340099 0.1100709,-0.2134238 0.054011,-0.1588278 0.085929,-0.3508105 0.1193725,-0.5395018 0.033444,-0.1886913 0.06844,-0.373643 0.1147217,-0.4971275 0.023141,-0.061742 0.049813,-0.106917 0.069763,-0.1286742 0.01995,-0.021757 0.024055,-0.02222 0.038757,-0.02222 -0.00243,0 0.022829,0.00489 0.067179,0.070797 0.044351,0.065901 0.094896,0.1761543 0.1441772,0.3121255 0.098563,0.271943 0.1961478,0.6472063 0.3033406,1.0252604 0.107193,0.378055 0.2231255,0.7589171 0.3705201,1.0567832 0.073697,0.1489331 0.1550427,0.2783207 0.2547649,0.3767211 0.099722,0.0984 0.2261608,0.1674318 0.3679359,0.1674318 0.1564677,0 0.2872481,-0.09824 0.3720704,-0.2258261 C 4.14659,6.1857234 4.2036272,6.0231803 4.2519367,5.8342694 4.3485565,5.4564476 4.4046791,4.9711298 4.4725953,4.489132 4.5405114,4.0071342 4.6210101,3.5290729 4.7516479,3.1868859 4.8169669,3.0157923 4.8947599,2.8798804 4.9800579,2.7936283 5.0653556,2.7073763 5.1510012,2.6665042 5.2678954,2.6665042 H 6.646106 a 0.396875,0.396875 0 0 0 0.3653523,0.2439125 0.396875,0.396875 0 0 0 0.396875,-0.396875 0.396875,0.396875 0 0 0 -0.396875,-0.396875 z"
     style="fill:#d6f6f0;fill-opacity:1;stroke-width:0.264583" />
  <path
     d="m 2.0582599,1.0584922 c -0.3728694,-0.0019 -0.6578733,0.01469 -0.8676481,0.05891 -0.20977492,0.04422 -0.33936792,0.111913 -0.42994802,0.212389 -0.18116015,0.200951 -0.23151035,0.604694 -0.23151035,1.335836 v 3.135725 c 0,0.730959 0.050424,1.132599 0.23151035,1.332735 0.090543,0.100068 0.2199773,0.167765 0.42994802,0.212389 0.2099706,0.04463 0.4956889,0.06201 0.8686799,0.06201 H 4.23332 6.4073484 c 0.372991,0 0.6587093,-0.01738 0.8686799,-0.06201 0.209971,-0.04462 0.339405,-0.112321 0.429948,-0.212389 0.181086,-0.200136 0.23151,-0.601776 0.23151,-1.332735 v -3.135725 c 0,-0.731142 -0.05035,-1.134888 -0.23151,-1.335836 -0.09058,-0.10047 -0.220173,-0.168164 -0.429948,-0.212386 -0.2097748,-0.04423 -0.4947787,-0.06076 -0.8676481,-0.05891 H 6.4078511 4.23332 2.0587758 Z m 1.6820673,0.275953 c 0.7202514,-7.94e-4 1.440352,-5.29e-4 2.1605901,0.0041 0.4519639,0.02 0.9180936,-0.03309 1.3652924,0.06563 0.2361456,0.03078 0.3461546,0.2739 0.3560496,0.486791 0.03456,1.320914 0.0094,2.64699 0.01707,3.970819 -0.0172,0.357251 0.0675,0.747702 -0.133842,1.067634 -0.1683759,0.181321 -0.4509138,0.153966 -0.6769633,0.186552 -1.4090253,0.03524 -2.8201249,0.01918 -4.2312642,0.01704 -0.4972976,-0.02286 -1.0181537,0.04429 -1.5022354,-0.107487 -0.24265202,-0.09412 -0.23905892,-0.405646 -0.26096642,-0.623215 -0.036478,-1.23431 -0.00751,-2.476659 -0.00672,-3.712954 0.019288,-0.331136 -0.027943,-0.673301 0.056846,-0.996838 0.048678,-0.24098 0.31437522,-0.307018 0.52348072,-0.327629 0.7773194,-0.04229 1.5535487,-0.02109 2.3326752,-0.03049 z"
     style="color:#000000;display:inline;overflow:visible;visibility:visible;opacity:0.7;fill:url(#linearGradient867);fill-opacity:1;fill-rule:nonzero;stroke:none;stroke-width:0.264583;marker:none;enable-background:accumulate"
     id="path1034" />
  <path
     d="m 2.059305,0.79390917 c -0.3806508,-0.0019 -0.6803655,0.01336 -0.9234567,0.0646 -0.24322622,0.05128 -0.43503057,0.14261503 -0.57154227,0.29403903 -0.2730209,0.302847 -0.2997227,0.772681 -0.2997227,1.513086 v 3.135725 c 0,0.740222 0.026633,1.20817 0.2997227,1.509985 0.1365461,0.150908 0.32850925,0.242385 0.57154227,0.294039 0.243033,0.05166 0.5426181,0.0677 0.9234567,0.0677 h 2.1740283 2.1740283 c 0.3808386,0 0.6804236,-0.01603 0.9234567,-0.0677 0.243033,-0.05165 0.434996,-0.143131 0.571542,-0.294039 0.27309,-0.301815 0.299723,-0.769763 0.299723,-1.509985 v -3.135725 c 0,-0.740405 -0.0267,-1.210241 -0.299723,-1.513086 -0.136511,-0.151424 -0.328316,-0.24276303 -0.571542,-0.29403903 -0.2430913,-0.05125 -0.542806,-0.06653 -0.9234567,-0.0646 H 4.2333333 2.0598236 Z M 2.058245,1.0584922 h 5.292e-4 2.1745442 2.1745443 5.292e-4 c 0.3728693,-0.0019 0.6578732,0.01469 0.8676481,0.05891 0.2097743,0.04422 0.3393673,0.111916 0.4299473,0.212389 0.18116,0.200948 0.231511,0.604694 0.231511,1.335836 v 3.135725 c 0,0.730959 -0.05043,1.132599 -0.231511,1.332735 -0.09054,0.100068 -0.21998,0.167762 -0.4299473,0.212389 -0.2099681,0.04463 -0.4956916,0.06201 -0.86868,0.06201 H 4.2333333 2.059305 c -0.3729884,0 -0.658712,-0.01738 -0.86868,-0.06201 C 0.98065688,7.3018522 0.85122008,7.2341582 0.76067708,7.1340902 0.57959093,6.9339542 0.52916673,6.5323142 0.52916673,5.8013552 v -3.135725 c 0,-0.731142 0.05035,-1.134885 0.23151035,-1.335836 0.09058,-0.100476 0.220173,-0.168167 0.42994792,-0.212389 0.2097749,-0.04423 0.4947814,-0.06083 0.8676481,-0.05891 z"
     style="color:#000000;display:inline;opacity:0.4;fill:#000000;stroke-width:0.264583;-inkscape-stroke:none;enable-background:new"
     id="path1156" />
</svg>
