<svg width="32" height="32" version="1" xmlns="http://www.w3.org/2000/svg" xmlns:xlink="http://www.w3.org/1999/xlink">
 <defs>
  <radialGradient id="radialGradient1091" cx="340" cy="210.56" r="5.5" gradientTransform="matrix(3.7948 -6.29e-6 6.5728e-6 3.6315 -1273.7 -741.63)" gradientUnits="userSpaceOnUse">
   <stop stop-color="#cdcdcd" offset="0"/>
   <stop stop-color="#cdcdcd" offset=".46875"/>
   <stop stop-color="#e6e6e6" offset="1"/>
  </radialGradient>
  <radialGradient id="radialGradient1093" cx="152" cy="228.01" r="88" gradientTransform="matrix(.17788 2.6694e-8 -2.7932e-8 .15888 -10.538 -10.216)" gradientUnits="userSpaceOnUse">
   <stop stop-color="#fff" stop-opacity="0" offset="0"/>
   <stop stop-color="#fff" offset="1"/>
  </radialGradient>
  <linearGradient id="linearGradient1121" x1="340" x2="340" y1="132" y2="164" gradientUnits="userSpaceOnUse">
   <stop stop-color="#fff" offset="0"/>
   <stop stop-color="#fff" stop-opacity=".098039" offset=".125"/>
   <stop stop-color="#fff" stop-opacity=".098039" offset=".925"/>
   <stop stop-color="#fff" stop-opacity=".49804" offset="1"/>
  </linearGradient>
  <clipPath id="clipPath1109">
   <path d="m336.38 132.98c-2.7324 0-5.3457 0.49905-7.9126 1.3849l-0.36278 0.12483-2.3003 10.88c-0.39206 1.8529-0.78108 3.761-0.78741 5.7267-6e-3 1.9671 0.37733 3.9645 1.2944 5.7696 0.91771 1.8062 2.3563 3.3761 4.1514 4.4588 1.7946 1.0824 3.9099 1.6579 6.0353 1.6579 2.1254 0 4.2407-0.57552 6.0353-1.6579 1.795-1.0827 3.2295-2.6526 4.1472-4.4588 0.91712-1.8051 1.3008-3.8025 1.2945-5.7696-6e-3 -1.9657-0.39117-3.8738-0.78327-5.7267l-2.3045-10.88-0.36279-0.12483c-2.5668-0.88585-5.4122-1.3849-8.1445-1.3849z" color="#000000" color-rendering="auto" fill="url(#radialGradient1113)" image-rendering="auto" opacity=".5" shape-rendering="auto" solid-color="#000000" style="font-feature-settings:normal;font-variant-alternates:normal;font-variant-caps:normal;font-variant-ligatures:normal;font-variant-numeric:normal;font-variant-position:normal;isolation:auto;mix-blend-mode:normal;shape-padding:0;text-decoration-color:#000000;text-decoration-line:none;text-decoration-style:solid;text-indent:0;text-orientation:mixed;text-transform:none;white-space:normal"/>
  </clipPath>
 </defs>
 <path d="m16.384 1.9987c-2.7324 0-5.3457 0.49904-7.9126 1.3849l-0.36278 0.12483-2.3003 10.88c-0.39206 1.8529-0.78108 3.761-0.78741 5.7267-6e-3 1.9671 0.37733 3.9645 1.2944 5.7696 0.91771 1.8062 2.3563 3.3761 4.1514 4.4588 1.7946 1.0824 3.9099 1.6579 6.0353 1.6579 2.1254 0 4.2407-0.57553 6.0353-1.6579 1.795-1.0827 3.2295-2.6526 4.1472-4.4588 0.91712-1.8051 1.3008-3.8025 1.2945-5.7696-6e-3 -1.9657-0.39117-3.8738-0.78327-5.7267l-2.3045-10.88-0.36279-0.12483c-2.5668-0.88585-5.4122-1.3849-8.1445-1.3849z" color="#000000" color-rendering="auto" fill="none" image-rendering="auto" opacity=".1" shape-rendering="auto" solid-color="#000000" stroke="#000" stroke-width="2.0417" style="font-feature-settings:normal;font-variant-alternates:normal;font-variant-caps:normal;font-variant-ligatures:normal;font-variant-numeric:normal;font-variant-position:normal;isolation:auto;mix-blend-mode:normal;shape-padding:0;text-decoration-color:#000000;text-decoration-line:none;text-decoration-style:solid;text-indent:0;text-orientation:mixed;text-transform:none;white-space:normal"/>
 <path d="m16.384 1c-2.7324 0-5.3457 0.49905-7.9126 1.3849l-0.36278 0.12483-2.3003 10.88c-0.39206 1.8529-0.78108 3.761-0.78741 5.7267-6e-3 1.9671 0.37733 3.9645 1.2944 5.7696 0.91771 1.8062 2.3563 3.3761 4.1514 4.4588 1.7946 1.0824 3.9099 1.6579 6.0353 1.6579 2.1254 0 4.2407-0.57552 6.0353-1.6579 1.795-1.0827 3.2295-2.6526 4.1472-4.4588 0.91712-1.8051 1.3008-3.8025 1.2945-5.7696-6e-3 -1.9657-0.39117-3.8738-0.78327-5.7267l-2.3045-10.88-0.36279-0.12483c-2.5668-0.88585-5.4122-1.3849-8.1445-1.3849z" color="#000000" color-rendering="auto" fill="none" image-rendering="auto" opacity=".4" shape-rendering="auto" solid-color="#000000" stroke="#000" stroke-linejoin="round" stroke-width="2" style="font-feature-settings:normal;font-variant-alternates:normal;font-variant-caps:normal;font-variant-ligatures:normal;font-variant-numeric:normal;font-variant-position:normal;isolation:auto;mix-blend-mode:normal;shape-padding:0;text-decoration-color:#000000;text-decoration-line:none;text-decoration-style:solid;text-indent:0;text-orientation:mixed;text-transform:none;white-space:normal"/>
 <path d="m16.384 1c-2.7324 0-5.3457 0.49905-7.9126 1.3849l-0.36278 0.12483-2.3003 10.88c-0.39206 1.8529-0.78108 3.761-0.78741 5.7267-6e-3 1.9671 0.37733 3.9645 1.2944 5.7696 0.91771 1.8062 2.3563 3.3761 4.1514 4.4588 1.7946 1.0824 3.9099 1.6579 6.0353 1.6579 2.1254 0 4.2407-0.57552 6.0353-1.6579 1.795-1.0827 3.2295-2.6526 4.1472-4.4588 0.91712-1.8051 1.3008-3.8025 1.2945-5.7696-6e-3 -1.9657-0.39117-3.8738-0.78327-5.7267l-2.3045-10.88-0.36279-0.12483c-2.5668-0.88585-5.4122-1.3849-8.1445-1.3849z" color="#000000" color-rendering="auto" fill="url(#radialGradient1091)" image-rendering="auto" shape-rendering="auto" solid-color="#000000" style="font-feature-settings:normal;font-variant-alternates:normal;font-variant-caps:normal;font-variant-ligatures:normal;font-variant-numeric:normal;font-variant-position:normal;isolation:auto;mix-blend-mode:normal;shape-padding:0;text-decoration-color:#000000;text-decoration-line:none;text-decoration-style:solid;text-indent:0;text-orientation:mixed;text-transform:none;white-space:normal"/>
 <path d="m16.384 1c-2.7324 0-5.3457 0.49905-7.9126 1.3849l-0.36278 0.12483-2.3003 10.88c-0.39206 1.8529-0.78108 3.761-0.78741 5.7267-6e-3 1.9671 0.37733 3.9645 1.2944 5.7696 0.91771 1.8062 2.3563 3.3761 4.1514 4.4588 1.7946 1.0824 3.9099 1.6579 6.0353 1.6579 2.1254 0 4.2407-0.57552 6.0353-1.6579 1.795-1.0827 3.2295-2.6526 4.1472-4.4588 0.91712-1.8051 1.3008-3.8025 1.2945-5.7696-6e-3 -1.9657-0.39117-3.8738-0.78327-5.7267l-2.3045-10.88-0.36279-0.12483c-2.5668-0.88585-5.4122-1.3849-8.1445-1.3849z" color="#000000" color-rendering="auto" fill="url(#radialGradient1093)" image-rendering="auto" opacity=".5" shape-rendering="auto" solid-color="#000000" style="font-feature-settings:normal;font-variant-alternates:normal;font-variant-caps:normal;font-variant-ligatures:normal;font-variant-numeric:normal;font-variant-position:normal;isolation:auto;mix-blend-mode:normal;shape-padding:0;text-decoration-color:#000000;text-decoration-line:none;text-decoration-style:solid;text-indent:0;text-orientation:mixed;text-transform:none;white-space:normal"/>
 <path d="m16.5 1.0221v10" enable-background="new" fill="none" stroke="#b3b3b3" stroke-width="1px"/>
 <path transform="translate(-320 -131.98)" d="m336.38 132.98c-2.7324 0-5.3457 0.49905-7.9126 1.3849l-0.36278 0.12483-2.3003 10.88c-0.39206 1.8529-0.78108 3.761-0.78741 5.7267-6e-3 1.9671 0.37733 3.9645 1.2944 5.7696 0.91771 1.8062 2.3563 3.3761 4.1514 4.4588 1.7946 1.0824 3.9099 1.6579 6.0353 1.6579 2.1254 0 4.2407-0.57552 6.0353-1.6579 1.795-1.0827 3.2295-2.6526 4.1472-4.4588 0.91712-1.8051 1.3008-3.8025 1.2945-5.7696-6e-3 -1.9657-0.39117-3.8738-0.78327-5.7267l-2.3045-10.88-0.36279-0.12483c-2.5668-0.88585-5.4122-1.3849-8.1445-1.3849z" clip-path="url(#clipPath1109)" color="#000000" color-rendering="auto" fill="none" image-rendering="auto" opacity=".3" shape-rendering="auto" solid-color="#000000" stroke="url(#linearGradient1121)" stroke-width="2.0417" style="font-feature-settings:normal;font-variant-alternates:normal;font-variant-caps:normal;font-variant-ligatures:normal;font-variant-numeric:normal;font-variant-position:normal;isolation:auto;mix-blend-mode:normal;shape-padding:0;text-decoration-color:#000000;text-decoration-line:none;text-decoration-style:solid;text-indent:0;text-orientation:mixed;text-transform:none;white-space:normal"/>
</svg>
