<?xml version="1.0" encoding="UTF-8" standalone="no"?>
<!-- Created with Inkscape (http://www.inkscape.org/) -->

<svg
   width="32"
   height="32"
   viewBox="0 0 8.4666667 8.4666667"
   version="1.1"
   id="svg5"
   sodipodi:docname="preferences-desktop-accessibility.svg"
   inkscape:version="1.1.2 (0a00cf5339, 2022-02-04, custom)"
   xmlns:inkscape="http://www.inkscape.org/namespaces/inkscape"
   xmlns:sodipodi="http://sodipodi.sourceforge.net/DTD/sodipodi-0.dtd"
   xmlns:xlink="http://www.w3.org/1999/xlink"
   xmlns="http://www.w3.org/2000/svg"
   xmlns:svg="http://www.w3.org/2000/svg">
  <sodipodi:namedview
     id="namedview7"
     pagecolor="#ffffff"
     bordercolor="#666666"
     borderopacity="1.0"
     inkscape:pageshadow="2"
     inkscape:pageopacity="0.0"
     inkscape:pagecheckerboard="0"
     inkscape:document-units="px"
     showgrid="false"
     units="px"
     height="48px"
     showguides="false"
     inkscape:zoom="24.53125"
     inkscape:cx="16"
     inkscape:cy="15.959236"
     inkscape:window-width="1920"
     inkscape:window-height="1006"
     inkscape:window-x="0"
     inkscape:window-y="0"
     inkscape:window-maximized="1"
     inkscape:current-layer="svg5" />
  <defs
     id="defs2">
    <linearGradient
       inkscape:collect="always"
       id="linearGradient1209">
      <stop
         style="stop-color:#2f5fdd;stop-opacity:1;"
         offset="0"
         id="stop1205" />
      <stop
         style="stop-color:#5884f4;stop-opacity:1"
         offset="1"
         id="stop1207" />
    </linearGradient>
    <linearGradient
       inkscape:collect="always"
       id="linearGradient1871">
      <stop
         style="stop-color:#ffffff;stop-opacity:1;"
         offset="0"
         id="stop1867" />
      <stop
         style="stop-color:#ffffff;stop-opacity:0.1"
         offset="0.12"
         id="stop2515" />
      <stop
         style="stop-color:#ffffff;stop-opacity:0.102"
         offset="0.89999998"
         id="stop2581" />
      <stop
         style="stop-color:#ffffff;stop-opacity:0.502"
         offset="1"
         id="stop1869" />
    </linearGradient>
    <linearGradient
       inkscape:collect="always"
       xlink:href="#linearGradient1871"
       id="linearGradient1198"
       x1="6.3499999"
       y1="0.52916658"
       x2="6.3499994"
       y2="12.170834"
       gradientUnits="userSpaceOnUse"
       gradientTransform="matrix(2.405154,0,0,2.405154,0.72727268,0.72727268)" />
    <linearGradient
       inkscape:collect="always"
       xlink:href="#linearGradient1209"
       id="linearGradient1211"
       x1="4.2333331"
       y1="0.26458332"
       x2="4.2333331"
       y2="8.2020836"
       gradientUnits="userSpaceOnUse" />
  </defs>
  <circle
     style="opacity:0.1;fill:#000000;fill-opacity:1;stroke-width:0.345109;stroke-linecap:round;stroke-linejoin:round"
     id="path3625"
     cx="4.2333331"
     cy="4.4979167"
     r="3.96875" />
  <circle
     style="fill:url(#linearGradient1211);fill-opacity:1;stroke-width:0.341019;stroke-linecap:round;stroke-linejoin:round"
     id="path986-6"
     cx="4.2333331"
     cy="4.2333331"
     r="3.8364584" />
  <path
     d="m 4.2328041,2.1166667 c -0.2922587,0 -0.5291666,0.2369158 -0.5291666,0.5291666 0,0.2922588 0.2369158,0.5291667 0.5291666,0.5291667 0.2922588,0 0.5291667,-0.2369159 0.5291667,-0.5291667 0,-0.2922587 -0.2369132,-0.5291666 -0.5291667,-0.5291666 z M 2.38125,3.4390277 V 3.703611 l 0.5920846,0.00106 c 0.1378955,-2.6e-6 0.2550636,0.019897 0.3515254,0.06214 0.094755,0.039367 0.1724739,0.09742 0.229571,0.1733735 0.058507,0.072869 0.099134,0.1605545 0.121957,0.2609638 0.022966,0.1011026 0.0263,0.2078726 0.03333,0.3207809 l 1.296e-4,0.00159 -0.00238,1.8264981 H 3.9683028 V 5.2910978 c 0,-0.1461268 0.1184566,-0.2645834 0.2645807,-0.2645834 0.1461241,0 0.2645833,0.1184566 0.2645833,0.2645834 v 1.0589154 h 0.2645807 l 0.00238,-1.8249371 c 2.645e-4,-0.1170728 0.011139,-0.225089 0.033589,-0.3238764 0.02286,-0.1005761 0.063553,-0.1884098 0.1222163,-0.2613502 0.0571,-0.075785 0.134792,-0.1338183 0.2294414,-0.1731168 0.096417,-0.042172 0.2329207,-0.06201 0.3512609,-0.06201 L 6.0854007,3.7041931 V 3.4390806 Z"
     style="fill:#faf8f6;stroke-width:0.264583;enable-background:new"
     id="path875" />
  <path
     id="path4344"
     style="opacity:0.4;fill:#000000;fill-opacity:1;stroke-width:2;stroke-linecap:round;stroke-linejoin:round"
     d="M 16,1 A 15,15 0 0 0 1,16 15,15 0 0 0 16,31 15,15 0 0 0 31,16 15,15 0 0 0 16,1 Z m 0,1 A 14,14 0 0 1 30,16 14,14 0 0 1 16,30 14,14 0 0 1 2,16 14,14 0 0 1 16,2 Z"
     transform="scale(0.26458333)" />
  <path
     id="path1110"
     style="fill:url(#linearGradient1198);fill-opacity:1;stroke-width:1.27273;stroke-linecap:round;stroke-linejoin:round"
     d="m 16,2 c -7.7319866,-1e-7 -14.0000001,6.2680134 -14,14 2e-7,7.731987 6.2680134,14 14,14 7.731986,0 14,-6.268014 14,-14 C 30,8.2680134 23.731987,2.0000002 16,2 Z m 0,1 A 13,13 0 0 1 29,16 13,13 0 0 1 16,29 13,13 0 0 1 3,16 13,13 0 0 1 16,3 Z"
     transform="scale(0.26458333)" />
</svg>
