<?xml version="1.0" encoding="UTF-8" standalone="no"?>
<!-- Created with Inkscape (http://www.inkscape.org/) -->

<svg
   width="32"
   height="32"
   viewBox="0 0 8.4666667 8.4666667"
   version="1.1"
   id="svg5"
   sodipodi:docname="preferences-system-sharing.svg"
   inkscape:version="1.1.2 (0a00cf5339, 2022-02-04)"
   xmlns:inkscape="http://www.inkscape.org/namespaces/inkscape"
   xmlns:sodipodi="http://sodipodi.sourceforge.net/DTD/sodipodi-0.dtd"
   xmlns:xlink="http://www.w3.org/1999/xlink"
   xmlns="http://www.w3.org/2000/svg"
   xmlns:svg="http://www.w3.org/2000/svg">
  <sodipodi:namedview
     id="namedview7"
     pagecolor="#ffffff"
     bordercolor="#666666"
     borderopacity="1.0"
     inkscape:pageshadow="2"
     inkscape:pageopacity="0.0"
     inkscape:pagecheckerboard="0"
     inkscape:document-units="px"
     showgrid="false"
     units="px"
     height="48px"
     showguides="false"
     inkscape:zoom="24"
     inkscape:cx="15.979167"
     inkscape:cy="16"
     inkscape:window-width="1920"
     inkscape:window-height="995"
     inkscape:window-x="0"
     inkscape:window-y="0"
     inkscape:window-maximized="1"
     inkscape:current-layer="svg5" />
  <defs
     id="defs2">
    <linearGradient
       inkscape:collect="always"
       id="linearGradient1871">
      <stop
         style="stop-color:#ffffff;stop-opacity:1;"
         offset="0"
         id="stop1867" />
      <stop
         style="stop-color:#ffffff;stop-opacity:0.1"
         offset="0.12"
         id="stop2515" />
      <stop
         style="stop-color:#ffffff;stop-opacity:0.102"
         offset="0.89999998"
         id="stop2581" />
      <stop
         style="stop-color:#ffffff;stop-opacity:0.502"
         offset="1"
         id="stop1869" />
    </linearGradient>
    <linearGradient
       inkscape:collect="always"
       xlink:href="#linearGradient1871"
       id="linearGradient1198"
       x1="6.3499999"
       y1="0.52916658"
       x2="6.3499994"
       y2="12.170834"
       gradientUnits="userSpaceOnUse"
       gradientTransform="matrix(2.405154,0,0,2.405154,0.72727268,0.72727268)" />
    <linearGradient
       inkscape:collect="always"
       xlink:href="#linearGradient17934"
       id="linearGradient2016-3"
       x1="9.921875"
       y1="11.1125"
       x2="2.7781253"
       y2="1.5874999"
       gradientUnits="userSpaceOnUse"
       gradientTransform="matrix(0.64444433,0,0,0.64444433,0.14111139,0.1411115)" />
    <linearGradient
       inkscape:collect="always"
       id="linearGradient17934">
      <stop
         style="stop-color:#a7a7fe;stop-opacity:1"
         offset="0"
         id="stop17930" />
      <stop
         style="stop-color:#8c57d9;stop-opacity:1"
         offset="1"
         id="stop17932" />
    </linearGradient>
  </defs>
  <circle
     style="opacity:0.1;fill:#000000;fill-opacity:1;stroke-width:0.345109;stroke-linecap:round;stroke-linejoin:round"
     id="path3625"
     cx="4.2333331"
     cy="4.4979167"
     r="3.96875" />
  <circle
     style="fill:url(#linearGradient2016-3);fill-opacity:1;stroke-width:0.341019;stroke-linecap:round;stroke-linejoin:round"
     id="path986-6"
     cx="4.2333331"
     cy="4.2333331"
     r="3.8364584" />
  <path
     d="M 2.4248528,1.0252758 C 2.1947151,1.1547081 1.9790225,1.3082918 1.781427,1.4834263 L 1.9241302,1.6261296 H 2.5249994 V 1.0252604 Z m 0.9413479,0 -0.420593,0.4806851 0.3605011,0.3605009 v 0.3770366 l 0.420593,0.4641752 H 3.9670443 V 2.467331 L 4.3275452,2.10683 V 1.8664875 L 4.5678879,1.626145 V 1.2656439 L 4.3275452,1.0253014 Z m -1.6223056,0.841186 v 0.360501 H 1.4434605 L 1.2637048,2.0472071 C 0.80056271,2.6695341 0.54372067,3.4211638 0.52916667,4.1967796 L 0.96278311,4.6303959 H 1.3233097 L 1.9241533,5.2312652 V 4.5102375 L 2.2846799,4.1497366 H 2.5250224 L 2.8855235,3.7892355 H 3.2460499 L 3.0657918,3.6089772 3.4262928,3.1883842 3.0657918,2.8278833 H 2.5250148 V 3.3085682 H 2.2846722 L 2.0443297,3.0682258 V 2.8278833 l 0.360501,-0.360501 H 2.7052652 V 2.2270397 L 2.3447642,1.8665388 Z M 7.19371,2.0046582 6.8512318,2.3471367 6.610889,2.1067941 H 5.8898616 L 5.5293348,2.4672951 V 2.7677297 H 5.8898616 V 2.5874715 H 6.1302041 V 2.827814 l -0.120174,0.1201713 -0.480685,0.008 -0.1802556,0.1722443 H 5.108747 V 3.3685705 L 4.9284914,3.5488287 V 3.9093296 H 5.2889923 L 5.5293348,3.6689871 H 5.7696773 V 3.7891582 L 6.01002,4.029501 H 6.1301937 V 3.9093423 L 5.8898513,3.6689998 H 6.1301937 L 6.3705362,3.9093423 H 6.6709709 L 6.4907126,3.7290867 6.6709709,3.5488287 h 0.1802582 l 0.1802556,0.180258 H 6.8512291 l -0.1802582,0.1802556 0.1772536,0.1772536 0.003,0.1832602 H 6.6108824 L 7.3319101,4.9908838 H 7.4520788 L 7.5722526,4.8707125 7.812595,4.63037 7.5722526,4.3900275 h 0.3820358 c 0.00291,-0.042687 0.00508,-0.085421 0.00651,-0.1281827 C 7.9598473,3.4456261 7.6902803,2.6524095 7.1937031,2.0046246 Z M 6.610889,4.2698771 H 5.8898616 L 5.7696876,4.1497057 H 5.0486599 L 4.6280671,4.5702987 V 5.171168 l 0.3004344,0.3004346 h 0.420593 l 0.1802556,0.180258 v 0.1802556 l 0.120174,0.1201714 v 0.7210277 l 0.456151,0.4821976 0.7535603,-0.7535604 -0.008,-0.6899817 0.6008437,-0.6008693 H 7.2117377 L 6.6108943,4.5102325 Z M 4.2675556,2.5874792 V 2.7677374 H 4.6280568 L 4.4478012,2.5874792 Z m 1.0815543,0.060085 -0.1802556,0.180258 V 3.0080799 H 5.3491099 Z M 3.4864617,3.3084992 3.3062035,3.4887574 h 0.1802582 l 0.060084,0.060084 h 0.060084 l 0.060088,-0.060084 z M 2.4649996,4.570304 2.284744,4.750562 H 2.645245 V 4.570304 Z M 2.284744,5.1110811 2.0444015,5.3514236 v 0.600869 L 2.5265734,6.3748854 2.5250362,6.9136628 2.344778,7.093921 v 0.3585015 c 0.1046157,0.062329 0.2122309,0.1194789 0.3224566,0.1712444 L 3.3061482,7.0338215 V 6.7934787 L 3.6666491,6.4329778 V 6.2527196 L 3.8469049,6.072464 V 5.591779 L 3.6065611,5.3514363 H 3.1258763 L 2.8855338,5.1110938 Z M 7.2718195,5.9522672 7.031477,6.1765868 v 0.3765494 h 0.1336895 c 0.036654,-0.045885 0.072215,-0.092631 0.106653,-0.1402011 z"
     style="color:#000000;opacity:0.24;fill:#ffffff;stroke-width:0.264583"
     id="path891" />
  <path
     d="M 3.8556387,1.5875 C 3.6968907,1.58928 3.5803071,1.58369 3.4854112,1.636266 3.4364782,1.66422 3.3990832,1.70867 3.3799162,1.7616651 3.3591012,1.8170501 3.3510552,1.8817912 3.3510552,1.964693 v 0.6558606 c 0,0.082902 0.0084,0.1486389 0.028861,0.2040231 0.019028,0.053074 0.05646,0.097566 0.105495,0.1253992 0.094544,0.052211 0.2114793,0.047001 0.3702275,0.048766 H 4.058667 L 4.056687,3.7043636 H 2.8225874 c -0.2353004,0 -0.4018554,0.1435161 -0.4667659,0.2736897 -0.065263,0.1305261 -0.062699,0.2557758 -0.062699,0.2557758 V 4.7622987 H 2.0910894 c -0.158748,0.00178 -0.2743363,-0.00381 -0.3692329,0.048766 -0.048933,0.027954 -0.086326,0.072404 -0.105495,0.1253992 C 1.5955464,4.9918484 1.5875,5.0575852 1.5875,5.1404864 v 0.6548651 c 0,0.082902 0.0084,0.1486371 0.028862,0.2040235 C 1.63539,6.052449 1.672821,6.096941 1.721857,6.124774 1.816401,6.176985 1.9323413,6.171775 2.0910899,6.17354 H 2.8484642 C 3.0072122,6.17176 3.1228004,6.17735 3.2176964,6.124774 3.2667314,6.096941 3.3041614,6.052449 3.3231914,5.999375 3.3436504,5.94399 3.3520524,5.8782532 3.3520524,5.7953515 V 5.1404864 c 0,-0.082902 -0.0084,-0.1489894 -0.028861,-0.2040229 -0.019144,-0.05301 -0.056543,-0.09747 -0.105495,-0.1253992 -0.094897,-0.052917 -0.210485,-0.047003 -0.3692331,-0.048766 H 2.8474441 2.6464067 V 4.2338283 c 0,0 0.00195,-0.052668 0.024883,-0.098529 0.023282,-0.046212 0.033805,-0.078623 0.1512754,-0.078623 H 5.645053 c 0.117474,0 0.1269976,0.032407 0.1502797,0.078623 0.02293,0.045861 0.025874,0.098529 0.025874,0.098529 v 0.5284704 h -0.20201 c -0.158748,0.00178 -0.2753315,-0.00381 -0.3702274,0.048766 -0.048933,0.027954 -0.086328,0.072404 -0.105495,0.1253992 -0.020815,0.055385 -0.027868,0.1211217 -0.027868,0.2040229 v 0.6548651 c 0,0.082902 0.0074,0.1486371 0.027868,0.2040235 0.019282,0.053236 0.057082,0.097751 0.1064906,0.125399 0.094544,0.052211 0.2104842,0.047001 0.3692324,0.048766 H 6.376571 c 0.1587481,-0.00178 0.2743366,0.00381 0.3692332,-0.048766 0.049033,-0.027833 0.086463,-0.072325 0.1054948,-0.125399 C 6.871762,5.9439904 6.879167,5.8782536 6.879167,5.7953519 V 5.1404864 c 0,-0.082902 -0.00741,-0.1489894 -0.027868,-0.2040229 C 6.8321556,4.8834532 6.7947547,4.8389938 6.7458042,4.8110643 6.6509056,4.7581474 6.5353196,4.7640619 6.376571,4.7622987 H 6.3755518 6.1735191 V 4.2338283 c 0,0 0.00254,-0.125249 -0.062699,-0.2557756 C 6.018201,3.807632 5.8390003,3.7023329 5.6450486,3.704363 H 4.4099611 l 0.00198,-0.7056217 h 0.2000466 c 0.158748,-0.00178 0.2743358,0.00381 0.3692322,-0.048766 0.049407,-0.027648 0.08721,-0.072163 0.1064907,-0.1253992 0.020459,-0.055385 0.027868,-0.1211217 0.027868,-0.2040231 V 1.9646927 c 0,-0.082902 -0.0074,-0.1479957 -0.027868,-0.2030279 C 5.06833,1.7084986 5.0305671,1.6640198 4.9812505,1.6362657 4.8863539,1.5833498 4.7707663,1.5892642 4.6120183,1.587502 Z"
     style="font-variant-ligatures:normal;font-variant-position:normal;font-variant-caps:normal;font-variant-numeric:normal;font-variant-alternates:normal;font-feature-settings:normal;text-indent:0;text-decoration-line:none;text-decoration-style:solid;text-decoration-color:#000000;text-transform:none;text-orientation:mixed;shape-padding:0;isolation:auto;mix-blend-mode:normal;fill:#ffffff;stroke-width:0.509547"
     id="path1139" />
  <path
     id="path4344"
     style="opacity:0.4;fill:#000000;fill-opacity:1;stroke-width:2;stroke-linecap:round;stroke-linejoin:round"
     d="M 16,1 A 15,15 0 0 0 1,16 15,15 0 0 0 16,31 15,15 0 0 0 31,16 15,15 0 0 0 16,1 Z m 0,1 A 14,14 0 0 1 30,16 14,14 0 0 1 16,30 14,14 0 0 1 2,16 14,14 0 0 1 16,2 Z"
     transform="scale(0.26458333)" />
  <path
     id="path1110"
     style="fill:url(#linearGradient1198);fill-opacity:1;stroke-width:1.27273;stroke-linecap:round;stroke-linejoin:round"
     d="m 16,2 c -7.7319866,-1e-7 -14.0000001,6.2680134 -14,14 2e-7,7.731987 6.2680134,14 14,14 7.731986,0 14,-6.268014 14,-14 C 30,8.2680134 23.731987,2.0000002 16,2 Z m 0,1 A 13,13 0 0 1 29,16 13,13 0 0 1 16,29 13,13 0 0 1 3,16 13,13 0 0 1 16,3 Z"
     transform="scale(0.26458333)" />
</svg>
