<?xml version="1.0" encoding="UTF-8" standalone="no"?>
<!-- Created with Inkscape (http://www.inkscape.org/) -->

<svg
   width="32"
   height="32"
   viewBox="0 0 8.4666665 8.4666669"
   version="1.1"
   id="svg2719"
   inkscape:version="1.1.2 (0a00cf5339, 2022-02-04, custom)"
   sodipodi:docname="sudoku.svg"
   xmlns:inkscape="http://www.inkscape.org/namespaces/inkscape"
   xmlns:sodipodi="http://sodipodi.sourceforge.net/DTD/sodipodi-0.dtd"
   xmlns:xlink="http://www.w3.org/1999/xlink"
   xmlns="http://www.w3.org/2000/svg"
   xmlns:svg="http://www.w3.org/2000/svg">
  <sodipodi:namedview
     id="namedview2721"
     pagecolor="#ffffff"
     bordercolor="#666666"
     borderopacity="1.0"
     inkscape:pageshadow="2"
     inkscape:pageopacity="0.0"
     inkscape:pagecheckerboard="0"
     inkscape:document-units="px"
     showgrid="false"
     units="px"
     inkscape:zoom="17.346213"
     inkscape:cx="16.37245"
     inkscape:cy="16.516573"
     inkscape:window-width="1920"
     inkscape:window-height="1006"
     inkscape:window-x="0"
     inkscape:window-y="0"
     inkscape:window-maximized="1"
     inkscape:current-layer="svg2719" />
  <defs
     id="defs2716">
    <linearGradient
       inkscape:collect="always"
       id="linearGradient1871">
      <stop
         style="stop-color:#ffffff;stop-opacity:1;"
         offset="0"
         id="stop1867" />
      <stop
         style="stop-color:#ffffff;stop-opacity:0.1"
         offset="0.12"
         id="stop2515" />
      <stop
         style="stop-color:#ffffff;stop-opacity:0.102"
         offset="0.89999998"
         id="stop2581" />
      <stop
         style="stop-color:#ffffff;stop-opacity:0.502"
         offset="1"
         id="stop1869" />
    </linearGradient>
    <linearGradient
       inkscape:collect="always"
       xlink:href="#linearGradient1871"
       id="linearGradient1020"
       x1="4.0024891"
       y1="0.52916664"
       x2="4.0024891"
       y2="7.9374866"
       gradientUnits="userSpaceOnUse" />
  </defs>
  <path
     d="m 2.4608917,0.52916665 c -0.4337817,0 -0.7780919,0.008149 -1.0702528,0.0506439 C 1.0984807,0.62231325 0.84375314,0.70485263 0.65428244,0.86867998 0.46481164,1.0325073 0.36840014,1.2539451 0.31979354,1.5074027 c -0.048615,0.2534576 -0.056983,0.5521986 -0.054856,0.9291399 v 2.061374 2.0629244 c -0.00238,0.376055 0.00632,0.6745552 0.054856,0.9275895 0.048607,0.2534603 0.1450181,0.4748953 0.3344889,0.6387227 0.1894707,0.1638273 0.44419826,0.2463668 0.73635646,0.2888694 0.2921609,0.042505 0.6364711,0.050644 1.0702528,0.050644 h 3.5458506 c 0.4337817,0 0.7774384,-0.00812 1.0690595,-0.050644 C 7.3674229,8.3734909 7.6215684,8.290544 7.8103724,8.1266346 7.9991712,7.9627252 8.0946857,7.7420283 8.1436654,7.4889491 8.192653,7.2358672 8.2021013,6.9375495 8.2021013,6.560841 V 4.4979166 2.4349921 c 0,-0.3767084 -0.00947,-0.6750261 -0.058436,-0.928108 C 8.0946853,1.2538022 7.9991711,1.0331079 7.8103723,0.86919856 7.6215684,0.70528654 7.3674229,0.62234232 7.0758018,0.57981055 6.7841807,0.53727613 6.440524,0.52916665 6.0067423,0.52916665 Z"
     style="color:#000000;font-style:normal;font-variant:normal;font-weight:normal;font-stretch:normal;font-size:medium;line-height:normal;font-family:sans-serif;font-variant-ligatures:normal;font-variant-position:normal;font-variant-caps:normal;font-variant-numeric:normal;font-variant-alternates:normal;font-feature-settings:normal;text-indent:0;text-align:start;text-decoration:none;text-decoration-line:none;text-decoration-style:solid;text-decoration-color:#000000;letter-spacing:normal;word-spacing:normal;text-transform:none;writing-mode:lr-tb;direction:ltr;text-orientation:mixed;dominant-baseline:auto;baseline-shift:baseline;text-anchor:start;white-space:normal;shape-padding:0;clip-rule:nonzero;display:inline;overflow:visible;visibility:visible;opacity:0.1;isolation:auto;mix-blend-mode:normal;color-interpolation:sRGB;color-interpolation-filters:linearRGB;solid-color:#000000;solid-opacity:1;vector-effect:none;fill:#000000;fill-opacity:1;fill-rule:nonzero;stroke:none;stroke-width:0.529167;stroke-linecap:butt;stroke-linejoin:miter;stroke-miterlimit:4;stroke-dasharray:none;stroke-dashoffset:0;stroke-opacity:1;marker:none;color-rendering:auto;image-rendering:auto;shape-rendering:auto;text-rendering:auto;enable-background:accumulate"
     id="path2406" />
  <path
     d="m 2.414886,0.39687499 c -1.70699376,0 -2.02678766,0.15454047 -2.01781566,1.66218391 v 2.1742532 2.1742955 c -0.009,1.5076434 0.3108219,1.6621839 2.01781566,1.6621839 h 3.6370974 c 1.7065704,0 2.0178156,-0.1545246 2.0178156,-1.6621839 V 4.2333121 2.0590589 c 0,-1.50765931 -0.3112452,-1.66218391 -2.0178156,-1.66218391 z"
     style="color:#000000;display:inline;overflow:visible;visibility:visible;fill:#e7e7df;fill-opacity:1;fill-rule:nonzero;stroke:none;stroke-width:0.264583;marker:none;enable-background:accumulate"
     id="path2526" />
  <path
     id="rect26"
     d="M 2.9104167,1.0583333 V 2.9104167 H 1.0583334 V 3.175 H 2.9104167 V 5.2916666 H 1.0583334 V 5.55625 H 2.9104167 V 7.4083333 H 3.1750001 V 5.55625 H 5.2916667 V 7.4083333 H 5.55625 V 5.55625 H 7.4083333 V 5.2916666 H 5.55625 V 3.175 H 7.4083333 V 2.9104167 H 5.55625 V 1.0583333 H 5.2916667 V 2.9104167 H 3.1750001 V 1.0583333 Z M 1.5611451,1.2965617 v 0.2067057 h 0.5860107 c -0.038418,0.053748 -0.076435,0.1106305 -0.1152384,0.1855184 -0.04786,0.090925 -0.091751,0.1903339 -0.1312581,0.298173 -0.039505,0.106396 -0.073227,0.2168672 -0.1018026,0.3317627 v 5.16e-4 c -0.027301,0.1138203 -0.044814,0.2216824 -0.051677,0.3245288 l -0.00155,0.028422 h 0.027905 0.1968872 l 0.00207,-0.024805 c 0.00798,-0.116556 0.027238,-0.2331422 0.057878,-0.3498493 0.030747,-0.1185202 0.066695,-0.2290351 0.1080037,-0.3317627 v -5.159e-4 c 0.042792,-0.1043973 0.087809,-0.1982996 0.1343588,-0.2811206 0.04676,-0.083195 0.090105,-0.1487593 0.129191,-0.1968873 l 0.00568,-0.00775 V 1.2965617 Z m 2.6742552,0 -0.00775,0.00879 C 4.1693743,1.3706401 4.1062561,1.4243326 4.0385133,1.4670939 3.9699943,1.5089175 3.89982,1.5436291 3.8271567,1.5714803 l -0.025839,0.010335 0.010851,0.024805 0.066146,0.1545126 0.022738,-0.00672 c 0.028759,-0.00888 0.058369,-0.019879 0.088367,-0.033073 0.029565,-0.013003 0.057484,-0.026839 0.084233,-0.041341 l 5.291e-4,-5.159e-4 c 0.028098,-0.014479 0.053895,-0.029208 0.076481,-0.043925 0.00707,-0.00475 0.01162,-0.0093 0.018087,-0.013953 V 2.4696177 H 3.8757432 V 2.6721893 H 4.6565738 V 2.4696167 H 4.4007649 V 1.2965617 Z M 3.1750001,3.175 H 5.2916667 V 5.2916666 H 3.1750001 Z m 3.6416381,0.3700034 -0.024289,5.291e-4 c -0.1125501,0.00143 -0.2143707,0.019717 -0.304891,0.05581 -0.090381,0.036039 -0.168257,0.088482 -0.2325439,0.1565796 -0.063069,0.068292 -0.1117547,0.1530956 -0.1462442,0.2532144 h -5.292e-4 v 5.292e-4 c -0.033255,0.099121 -0.049609,0.2122477 -0.049609,0.3395141 0,0.1743586 0.034851,0.3135956 0.107487,0.4154787 0.07321,0.1026874 0.1871366,0.1545124 0.3312459,0.1545124 0.070274,0 0.1323308,-0.013004 0.1850014,-0.040307 l 5.292e-4,-5.292e-4 c 0.051119,-0.02797 0.093442,-0.063616 0.1266074,-0.10697 h 5.291e-4 v -5.291e-4 c 0.032539,-0.044 0.056735,-0.091642 0.072347,-0.1431436 v -5.291e-4 c 0.015375,-0.052166 0.023254,-0.1029888 0.023254,-0.1529622 0,-0.053687 -0.00716,-0.1061836 -0.021188,-0.1570963 -0.014205,-0.05155 -0.037045,-0.097447 -0.068729,-0.1364258 L 6.8150867,4.1821494 C 6.7827779,4.1412422 6.7395429,4.1085855 6.6869294,4.0849976 v 5.292e-4 C 6.6343044,4.0612778 6.571819,4.0493528 6.4993438,4.0493538 c -0.044869,0 -0.088118,0.00522 -0.129191,0.015502 -0.019333,0.00501 -0.036197,0.013171 -0.05426,0.019637 0.014113,-0.048249 0.027983,-0.097085 0.049093,-0.1322917 0.029098,-0.04853 0.064586,-0.087064 0.1069703,-0.1167887 l 5.291e-4,-5.291e-4 c 0.042672,-0.031228 0.09075,-0.053532 0.1452108,-0.066663 h 5.291e-4 c 0.056636,-0.014676 0.1198861,-0.022928 0.1891353,-0.024288 l 0.028422,-5.291e-4 z m -0.33538,0.6991821 c 0.074081,0 0.1217136,0.019717 0.1519285,0.056844 h 5.292e-4 v 5.292e-4 c 0.032166,0.038112 0.050126,0.095917 0.050126,0.1767335 0,0.026736 -0.00374,0.05571 -0.011369,0.087333 v 5.292e-4 5.291e-4 c -0.00605,0.028869 -0.016986,0.054438 -0.032556,0.078032 -0.015372,0.023291 -0.034641,0.042792 -0.058394,0.058911 -0.021754,0.013533 -0.049768,0.021188 -0.0863,0.021188 -0.044418,0 -0.078364,-0.00963 -0.1038696,-0.026872 -0.026794,-0.019463 -0.048268,-0.044922 -0.065112,-0.076998 V 4.620415 l -5.298e-4,-5.291e-4 c -0.015997,-0.034695 -0.02802,-0.073722 -0.035656,-0.1183392 v -5.291e-4 c -0.00647,-0.047152 -0.00982,-0.096968 -0.00982,-0.1498619 v -0.041858 c 0,-0.00755 6.085e-4,-0.01519 0.00103,-0.022738 0.02973,-0.012816 0.058936,-0.023696 0.087333,-0.030489 0.033943,-0.00782 0.0715,-0.011885 0.1126548,-0.011885 z m 0.1033529,1.5497762 -0.00827,0.0093 C 6.5226311,5.8654507 6.4698991,5.9353622 6.417696,6.0130706 6.365603,6.0891796 6.3168223,6.1672724 6.2709351,6.2476816 6.2251441,6.3264906 6.1835891,6.4030002 6.1463949,6.4776418 v 5.292e-4 c -0.035961,0.074656 -0.064464,0.1408763 -0.085783,0.1989542 l -0.00206,0.00414 v 0.00517 0.1457277 H 6.5701447 V 7.1701194 H 6.7706494 V 6.8321557 H 6.9055247 V 6.634235 H 6.7706494 V 5.7939762 Z m -4.6162557,5.292e-4 c -0.070297,0 -0.1323676,0.014018 -0.1850016,0.042891 -0.050999,0.027976 -0.093525,0.063616 -0.1266073,0.1069702 -0.032703,0.042858 -0.056783,0.091235 -0.072347,0.1441773 -0.015284,0.050711 -0.023255,0.1010947 -0.023255,0.1508951 0,0.05501 0.00712,0.1079066 0.021187,0.157613 0.014247,0.050347 0.037206,0.095698 0.06873,0.1359091 v 5.292e-4 c 0.032181,0.03953 0.074895,0.070918 0.1260905,0.094568 v 5.291e-4 h 5.16e-4 c 0.05245,0.022715 0.1152026,0.03359 0.1886189,0.03359 0.044479,0 0.087451,-0.00468 0.1281576,-0.013435 h 5.159e-4 c 0.016078,-0.00403 0.029381,-0.010517 0.044442,-0.015502 -0.031895,0.1080293 -0.071254,0.203468 -0.1415933,0.2511472 -0.085284,0.057356 -0.2001716,0.087333 -0.3462321,0.087333 H 1.62419 L 1.63246,7.1706604 1.657781,7.1701312 C 1.9043284,7.1687025 2.0942769,7.101614 2.2205363,6.9660095 2.3466604,6.829094 2.407605,6.627632 2.407605,6.3665629 2.407605,6.1935039 2.372282,6.0547379 2.2985678,5.9516012 2.2243233,5.8477221 2.1109451,5.7945049 1.9683553,5.7945049 Z m 0.00207,0.1989542 c 0.044032,0 0.077414,0.00952 0.1028361,0.027905 l 5.159e-4,5.291e-4 5.16e-4,5.292e-4 c 0.028044,0.018217 0.04912,0.042244 0.064596,0.074414 l 5.159e-4,5.291e-4 v 5.294e-4 c 0.017069,0.032947 0.028791,0.072152 0.03514,0.1183391 v 5.292e-4 h 5.159e-4 c 0.00776,0.047053 0.011369,0.097001 0.011369,0.1498616 v 0.039791 c 0,0.00626 -6.667e-4,0.01343 -0.00103,0.020153 -0.028685,0.011658 -0.057767,0.022125 -0.088367,0.028939 h -5.159e-4 c -0.033842,0.00775 -0.071096,0.011885 -0.1121379,0.011885 -0.073725,0 -0.1226005,-0.018947 -0.1539958,-0.054777 v -5.291e-4 c -0.030737,-0.03805 -0.048059,-0.095988 -0.048059,-0.1767335 0,-0.026825 0.0031,-0.055299 0.0093,-0.085266 0.00732,-0.029149 0.01866,-0.054252 0.034107,-0.076481 V 6.073063 h 5.159e-4 c 0.015352,-0.02332 0.034288,-0.042133 0.057878,-0.056844 h 5.159e-4 l 5.16e-4,-5.292e-4 c 0.021641,-0.014621 0.04915,-0.02222 0.085266,-0.02222 z M 6.5701416,6.1102213 V 6.6342204 H 6.273519 C 6.29145,6.5910654 6.309443,6.5475424 6.330363,6.5034789 l 5.292e-4,-5.291e-4 c 0.027931,-0.056202 0.057336,-0.1109491 0.088884,-0.1643312 l 5.291e-4,-5.291e-4 c 0.031651,-0.054968 0.063832,-0.1068128 0.096635,-0.1560629 v -5.292e-4 c 0.018031,-0.026085 0.035575,-0.047642 0.053227,-0.071313 z"
     style="fill:#847d6c;fill-opacity:1;stroke-width:0.264583" />
  <rect
     style="fill:#f2f2f2;fill-opacity:1;stroke-width:0.529167;stroke-linecap:round;stroke-linejoin:round"
     id="rect1114"
     width="1.8520833"
     height="2.1166666"
     x="1.0583334"
     y="3.175" />
  <path
     id="path1050"
     style="color:#000000;fill:#1a1a1a;stroke-width:0.0529169;-inkscape-stroke:none"
     d="m 1.9414836,3.5455201 c -0.045894,0 -0.089435,0.00566 -0.1302246,0.017571 -0.039732,0.011597 -0.076407,0.026257 -0.109554,0.043925 -0.031277,0.016007 -0.058685,0.033737 -0.082166,0.053227 -0.022462,0.018645 -0.03969,0.034723 -0.052193,0.049093 l -0.013436,0.015502 0.1136881,0.1643312 0.022737,-0.022738 c 0.00664,-0.00678 0.018304,-0.01683 0.034106,-0.028939 l 5.16e-4,-5.292e-4 5.159e-4,-5.292e-4 c 0.015166,-0.012912 0.032932,-0.025964 0.053743,-0.039274 0.021398,-0.012859 0.045284,-0.023858 0.072347,-0.033073 0.02709,-0.00881 0.056884,-0.01292 0.089917,-0.01292 0.027547,0 0.052375,0.00341 0.075448,0.010853 0.022405,0.00723 0.041129,0.018709 0.057361,0.034106 l 0.00103,5.291e-4 5.159e-4,5.292e-4 c 0.016944,0.013848 0.029836,0.03136 0.039274,0.054261 l 5.159e-4,5.292e-4 v 5.291e-4 c 0.010262,0.022132 0.01602,0.050525 0.01602,0.085266 0,0.029841 -0.00575,0.058856 -0.018087,0.08785 h -5.159e-4 v 5.292e-4 c -0.011343,0.028326 -0.026947,0.056101 -0.047542,0.083716 l -5.159e-4,5.292e-4 v 5.292e-4 c -0.019508,0.027901 -0.043038,0.055874 -0.070797,0.084233 h -5.099e-4 v 5.292e-4 c -0.02712,0.028941 -0.055919,0.058817 -0.085783,0.089325 -0.036937,0.037735 -0.074367,0.076794 -0.1126547,0.1173057 -0.037814,0.040062 -0.072029,0.082895 -0.1028361,0.1286743 -0.031118,0.046241 -0.056676,0.095766 -0.076481,0.1477946 -0.02031,0.053355 -0.030489,0.1106874 -0.030489,0.1720824 v 0.023254 c 0,0.00869 8.996e-4,0.01724 0.00258,0.025839 l 0.00413,0.021188 H 2.4076051 V 4.7221923 H 1.8334799 c 0.00328,-0.011486 0.00373,-0.020151 0.012402,-0.035657 0.015536,-0.027775 0.035137,-0.056615 0.058911,-0.0863 0.024127,-0.030126 0.049648,-0.059583 0.076481,-0.088367 0.027169,-0.029144 0.050545,-0.054242 0.070797,-0.074931 0.037051,-0.037852 0.073876,-0.076503 0.109554,-0.1157552 0.036151,-0.039773 0.068128,-0.080014 0.096118,-0.1214395 v -5.292e-4 c 0.029624,-0.041854 0.053112,-0.084828 0.07028,-0.1286743 0.018783,-0.044621 0.028422,-0.091259 0.028422,-0.1390097 0,-0.1202666 -0.034075,-0.2171888 -0.1038696,-0.2842204 0,0 -5.16e-4,0 -5.16e-4,0 C 2.1827431,3.5782538 2.0777491,3.5455077 1.9414845,3.5455077 Z" />
  <path
     id="rect1032"
     style="opacity:0.05;fill:#000000;fill-opacity:1;stroke-width:0.232324;stroke-linecap:round;stroke-linejoin:round"
     d="M 0.39705705,3.175 V 2.0593058 C 0.38805705,0.5516623 0.70802794,0.396875 2.4150216,0.396875 h 1.8184937 1.8184936 c 1.7065705,0 2.0179647,0.1547714 2.0179647,1.6624308 V 3.175 c -2.5576388,0 -5.1152777,0 -7.67291655,0 z"
     sodipodi:nodetypes="ccscsscc" />
  <path
     d="m 2.4149889,0.52915342 c -0.8494844,0 -1.3314997,0.0516308 -1.57093166,0.23771225 -0.1197134,0.0930407 -0.1962574,0.22036087 -0.2470071,0.42787883 -0.050734,0.2075207 -0.06981,0.4912942 -0.067694,0.8635153 v 5.292e-4 2.1745442 2.1745443 5.291e-4 c -0.00212,0.3722211 0.01696,0.6559947 0.067694,0.8635153 0.050747,0.2075154 0.1272937,0.3348382 0.2470071,0.4278789 C 1.0834919,7.8858823 1.5655045,7.9375131 2.4149889,7.9375131 h 3.6369122 c 0.8492728,0 1.329399,-0.051729 1.5678282,-0.2377123 0.1192133,-0.09299 0.1952731,-0.220136 0.2464912,-0.4278789 0.051231,-0.2077772 0.071313,-0.4922123 0.071313,-0.8645736 V 4.23332 2.0592917 c 0,-0.3723613 -0.020082,-0.6567937 -0.071313,-0.8645472 C 7.8150024,0.98700165 7.7389426,0.85985613 7.6197293,0.76686567 7.3813001,0.58088211 6.9011739,0.52915342 6.0519011,0.52915342 Z m 1.7192387,0.276987 c 0.9145058,0.004524 1.8293424,-0.007091 2.741377,0.0242888 0.2172441,0.0351261 0.4779962,0.0392509 0.632505,0.21859078 0.1796071,0.3081681 0.135718,0.6846914 0.149344,1.0247445 0.011404,1.5951544 0.017939,3.1927772 -0.00878,4.7857541 -0.020505,0.2058246 -0.031896,0.44255 -0.1798294,0.6020302 C 7.2829783,7.5965869 7.0406675,7.6194601 6.8182482,7.639833 5.7473895,7.662693 4.6587059,7.651898 3.5797562,7.6558668 2.9310429,7.6506015 2.2796149,7.664254 1.6341771,7.639833 1.4019205,7.6079375 1.1275106,7.6027358 0.95671414,7.4191758 0.78533294,7.1477371 0.82372664,6.8092451 0.80840724,6.5024342 c -0.00926,-1.4964171 -0.00929,-3.0043913 0,-4.5004989 0.016722,-0.3231964 -0.028744,-0.6818947 0.1565751,-0.9663509 C 1.1243885,0.86978329 1.376719,0.86628815 1.5892191,0.83094511 c 0.7242651,-0.0284136 1.4501071,-0.0186267 2.1765656,-0.0242887 0.122772,-7.673e-5 0.2456736,-5.2917e-4 0.3684456,-5.2917e-4 z"
     style="color:#000000;display:inline;overflow:visible;visibility:visible;fill:url(#linearGradient1020);fill-opacity:1;fill-rule:nonzero;stroke:none;stroke-width:0.26458;marker:none;enable-background:accumulate;opacity:1"
     id="path2790" />
  <path
     d="m 2.4149892,0.26458333 c -0.857467,0 -1.3887371,0.025426 -1.73369816,0.2935208 -0.1724792,0.13405114 -0.2810245,0.32812831 -0.3410558,0.57360877 -0.060031,0.245483 -0.077716,0.5465101 -0.075446,0.9281107 v 2.1735096 2.1740283 c -0.00238,0.381299 0.015452,0.682244 0.075446,0.9275922 0.060031,0.245483 0.1685739,0.4395575 0.3410558,0.573606 C 1.0262548,8.176662 1.5575222,8.2020832 2.4149892,8.2020832 h 3.6368936 c 0.8572553,0 1.3867792,-0.025321 1.7305973,-0.2935235 C 7.9543931,7.7744636 8.0625521,7.5802092 8.12302,7.3349537 8.1834852,7.0896955 8.2020828,6.7888272 8.2020828,6.4073615 V 4.2333332 2.059305 c 0,-0.3814657 -0.0186,-0.682334 -0.079063,-0.9275921 C 8.0625521,0.88645733 7.9543931,0.6922029 7.7824801,0.55810413 7.438662,0.28991193 6.9091381,0.26458333 6.0518828,0.26458333 Z m 0,0.26458332 h 3.6368936 c 0.8492702,0 1.3293937,0.0517287 1.5678229,0.23771225 0.1192134,0.0929904 0.1952705,0.22013333 0.2464885,0.4278789 0.051221,0.2077482 0.071313,0.4921858 0.071313,0.8645472 v 2.1740282 2.1740283 c 0,0.3723614 -0.020082,0.6567991 -0.071313,0.8645446 C 7.8149762,7.4796543 7.7389191,7.6067972 7.6197057,7.6997876 7.3812765,7.8857712 6.901153,7.9374999 6.0518828,7.9374999 H 2.4149892 c -0.8494819,0 -1.3314918,-0.051631 -1.57092386,-0.2377123 C 0.72435204,7.6067469 0.64780544,7.4794241 0.59706094,7.2719061 0.54631384,7.0643907 0.52714484,6.7806145 0.52936464,6.4083934 V 6.4078643 4.2333332 2.058789 2.0582599 c -0.00212,-0.3722212 0.01696,-0.6559947 0.067696,-0.8635154 0.050747,-0.20751796 0.1272911,-0.3348381 0.2470044,-0.42787883 C 1.0834944,0.58078421 1.565507,0.52915342 2.4149889,0.52915342 Z"
     style="color:#000000;display:inline;opacity:0.4;fill:#000000;stroke-width:0.26458;-inkscape-stroke:none;enable-background:new"
     id="path2670" />
</svg>
