<svg width="32" height="32" version="1" xmlns="http://www.w3.org/2000/svg" xmlns:xlink="http://www.w3.org/1999/xlink">
 <defs>
  <linearGradient id="linearGradient8588-0-3" x1="13.735" x2="38.1" y1="249.69" y2="292.77" gradientTransform="matrix(.60892 0 0 .60892 .85558 -149.71)" gradientUnits="userSpaceOnUse">
   <stop stop-color="#62237c" offset="0"/>
   <stop stop-color="#c43ac4" offset="1"/>
  </linearGradient>
  <linearGradient id="linearGradient8590-3-6" x1="96" x2="96" y1="4" y2="188" gradientTransform="matrix(.15217 0 0 .15217 1.3913 1.3913)" gradientUnits="userSpaceOnUse" xlink:href="#linearGradient927-7"/>
  <linearGradient id="linearGradient927-7">
   <stop stop-color="#fff" offset="0"/>
   <stop stop-color="#fff" stop-opacity=".098039" offset=".125"/>
   <stop stop-color="#fff" stop-opacity=".098039" offset=".925"/>
   <stop stop-color="#fff" stop-opacity=".49804" offset="1"/>
  </linearGradient>
  <linearGradient id="linearGradient4704-1-5" x1="340" x2="347" y1="64" y2="103" gradientTransform="matrix(.68723 0 0 .66311 -220.41 -39.506)" gradientUnits="userSpaceOnUse">
   <stop stop-color="#e5e5e5" offset="0"/>
   <stop stop-color="#eaeaea" offset="1"/>
  </linearGradient>
  <linearGradient id="linearGradient2265-3" x1="344" x2="344" y1="83" y2="101" gradientTransform="matrix(.68723 0 0 .66311 -220.41 -39.506)" gradientUnits="userSpaceOnUse" xlink:href="#linearGradient927-7"/>
 </defs>
 <circle transform="scale(-1)" cx="-16" cy="-17" r="15" enable-background="new" opacity=".1"/>
 <circle cx="16" cy="16" r="14.5" enable-background="new" fill="url(#linearGradient8588-0-3)"/>
 <path d="m16 1.5c-8.0081 0-14.5 6.4919-14.5 14.5 1e-3 1.7687 0.32645 3.5221 0.95898 5.1738h8.0039l1.877-6.8906c0.061-0.22573 0.27029-0.37904 0.50391-0.36914 0.2249 9e-3 0.41597 0.16744 0.4668 0.38672l2.1074 11.15 2.0879-9.5332c0.0888-0.53544 0.84727-0.56574 0.97852-0.0391l1.6719 6.6836 0.55078-1.1113c0.0845-0.16977 0.25766-0.27717 0.44727-0.27734h8.373c0.6372-1.6508 0.96685-3.4043 0.97266-5.1738 0-8.0081-6.4919-14.5-14.5-14.5z" enable-background="new" fill="#62237c" opacity=".2"/>
 <circle cx="16" cy="16" r="14.5" enable-background="new" fill="none" opacity=".4" stroke="#000" stroke-dashoffset="6.6" stroke-linejoin="round"/>
 <path d="m16 2c-7.732 0-14 6.268-14 14 0 7.732 6.268 14 14 14s14-6.268 14-14c0-7.732-6.268-14-14-14zm0 1a13 13 0 0 1 13 13 13 13 0 0 1-13 13 13 13 0 0 1-13-13 13 13 0 0 1 13-13z" enable-background="new" fill="url(#linearGradient8590-3-6)" opacity=".7"/>
 <path d="m16.217 5.0019a11 11 0 0 0-0.63868 6e-3 11 11 0 0 0-10.574 10.992h1.0059a10 10 0 0 1 9.6055-9.9922 10 10 0 0 1 10.371 9.4805l0.01367 0.51172h1l-0.0137-0.5625a11 11 0 0 0-10.77-10.436z" enable-background="new" fill="#d9d9d9"/>
 <path d="m6.6714 21.674h4.1744l1.9774-7.2596 2.6768 13.586 2.5-12 2 8 1.1542-2.3262h4.1744" enable-background="new" fill="none" stroke="#d85eca" stroke-linecap="square" stroke-linejoin="round"/>
 <path d="m6.3788 14.537v9e-3c-3.2531 0.10035-5.8788 2.5395-5.8788 5.5611v2.7845c0 3.0216 2.6257 5.4608 5.8788 5.5613v9e-3c0.0233 0 0.0465-5e-3 0.0698-7e-3 0.046 6.6e-4 0.0907 7e-3 0.13691 7e-3v-0.0181c0.76945-0.0908 1.5114-0.66613 1.5114-1.3742v-11.14c0-0.70802-0.74192-1.2834-1.5114-1.3741v-0.0182c-0.0463 0-0.0909 5e-3 -0.13691 7e-3 -0.0233-6.7e-4 -0.0465-7e-3 -0.0698-7e-3zm19.036 0v0.0181c-0.76945 0.0908-1.5114 0.66613-1.5114 1.3741v11.141c0 0.70801 0.74191 1.2834 1.5114 1.3741v0.0182c0.0462 0 0.0909-5e-3 0.13691-7e-3 0.0233 6.7e-4 0.0465 7e-3 0.0698 7e-3v-9e-3c3.2531-0.10056 5.8788-2.5397 5.8788-5.5613v-2.7845c0-3.0216-2.6257-5.4608-5.8788-5.5613v-9e-3c-0.0233 0-0.0465 5e-3 -0.0698 7e-3 -0.046-6.6e-4 -0.0907-7e-3 -0.13691-7e-3z" enable-background="new" fill="url(#linearGradient4704-1-5)"/>
 <path d="m6.5855 14.894c-2.6447 0-4.8326 1.632-5.479 3.8543 0.96085-1.9008 3.0448-3.2158 5.479-3.2158 0.46019 0 0.86554 0.19145 1.1422 0.48828v-0.0906c0-0.57127-0.49376-1.0361-1.1422-1.0361zm18.829 0c-0.64849 0-1.1422 0.46483-1.1422 1.0361v0.0907c0.27672-0.29683 0.68206-0.48828 1.1422-0.48828 2.4342 0 4.5182 1.315 5.479 3.2158-0.64646-2.2223-2.8343-3.8543-5.479-3.8543zm-24.308 9.3586c0.64646 2.2223 2.8343 3.8543 5.479 3.8543 0.64849 0 1.1422-0.46483 1.1422-1.0361v-0.0906c-0.27671 0.29681-0.68206 0.48826-1.1422 0.48826-2.4342 0-4.5182-1.315-5.479-3.2158zm29.787 0c-0.96085 1.9008-3.0448 3.2158-5.479 3.2158-0.46019 0-0.86553-0.19145-1.1422-0.48826v0.0906c0 0.57128 0.49376 1.0361 1.1422 1.0361 2.6447 0 4.8326-1.632 5.479-3.8543z" enable-background="new" fill="url(#linearGradient2265-3)" opacity=".7"/>
 <path d="m6.3788 14.537v9e-3c-0.23321 7e-3 -0.46155 0.029-0.68722 0.0596v13.788c0.22567 0.0306 0.45401 0.0523 0.68722 0.0596v9e-3c0.0233 0 0.0465-5e-3 0.0698-7e-3 0.046 6.6e-4 0.0907 7e-3 0.13691 7e-3v-0.0181c0.76945-0.0908 1.5114-0.66612 1.5114-1.3742v-11.14c0-0.70802-0.74192-1.2834-1.5114-1.3741v-0.0182c-0.0463 0-0.0909 5e-3 -0.13691 7e-3 -0.0233-6.7e-4 -0.0465-7e-3 -0.0698-7e-3zm19.036 0v0.0181c-0.76945 0.0908-1.5114 0.66613-1.5114 1.3741v11.141c0 0.70801 0.74191 1.2834 1.5114 1.3741v0.0182c0.0462 0 0.0909-5e-3 0.13691-7e-3 0.0233 6.7e-4 0.0465 7e-3 0.0698 7e-3v-9e-3c0.23321-7e-3 0.46155-0.029 0.68723-0.0596v-13.788c-0.22568-0.0307-0.45402-0.0523-0.68723-0.0596v-9e-3c-0.0233 0-0.0465 5e-3 -0.0698 7e-3 -0.046-6.7e-4 -0.0907-7e-3 -0.13691-7e-3z" enable-background="new" opacity=".2"/>
 <path d="m6.3788 14.537v13.925c0.23307 0 0.46742-0.0513 0.68723-0.13729 2e-3 -6.6e-4 4e-3 -3e-3 7e-3 -4e-3 0.13372-0.0529 0.25908-0.12073 0.37583-0.19945 9e-3 -6e-3 0.0192-0.0106 0.0282-0.0168 0.11853-0.0829 0.22668-0.17603 0.31676-0.28105 4.1e-4 -4.7e-4 6.9e-4 -6.6e-4 1e-3 -9.7e-4 0.0513-0.0594 0.096-0.12252 0.13557-0.1878 0.0137-0.0228 0.0241-0.0465 0.0362-0.0699 0.0286-0.0548 0.0532-0.11046 0.0725-0.16836 9e-3 -0.0267 0.0174-0.053 0.0241-0.0803 0.0199-0.08 0.0335-0.16176 0.0335-0.24607v-11.141c0-0.0843-0.0137-0.1661-0.0335-0.24608-7e-3 -0.0273-0.0153-0.0536-0.0241-0.0803-0.0193-0.0579-0.0439-0.11362-0.0725-0.16837-0.0122-0.0234-0.0225-0.0472-0.0362-0.0699-0.0396-0.0653-0.0843-0.12836-0.13557-0.18779-3.9e-4 -4.7e-4 -6.8e-4 -6.6e-4 -1e-3 -9.8e-4 -0.0901-0.10501-0.19823-0.19809-0.31676-0.28104-9e-3 -7e-3 -0.019-0.0106-0.0282-0.0168-0.11675-0.0787-0.24211-0.14654-0.37583-0.19945-3e-3 -6.7e-4 -4e-3 -3e-3 -7e-3 -4e-3 -0.21981-0.0859-0.45416-0.13723-0.68723-0.13723zm19.242 0c-0.23307 0-0.46742 0.0513-0.68723 0.13729-3e-3 6.6e-4 -4e-3 3e-3 -7e-3 4e-3 -0.13372 0.0529-0.25908 0.12073-0.37583 0.19945-9e-3 6e-3 -0.0192 0.0105-0.0282 0.0168-0.11853 0.0829-0.22668 0.17602-0.31676 0.28104-4e-4 4.6e-4 -6.9e-4 6.7e-4 -1e-3 9.8e-4 -0.0513 0.0594-0.096 0.12251-0.13557 0.1878-0.0137 0.0229-0.0241 0.0465-0.0362 0.0699-0.0286 0.0548-0.0532 0.11046-0.0725 0.16836-9e-3 0.0267-0.0174 0.053-0.0241 0.0803-0.0199 0.08-0.0335 0.16177-0.0335 0.24607v11.141c0 0.0843 0.0137 0.16611 0.0335 0.24607 7e-3 0.0272 0.0153 0.0536 0.0241 0.0803 0.0193 0.0579 0.0439 0.11361 0.0725 0.16836 0.0122 0.0234 0.0225 0.0472 0.0362 0.0699 0.0396 0.0652 0.0843 0.12837 0.13557 0.18779 3.9e-4 4.6e-4 6.8e-4 6.7e-4 1e-3 9.8e-4 0.0901 0.10502 0.19823 0.1981 0.31676 0.28105 9e-3 6e-3 0.019 0.0106 0.0282 0.0168 0.11675 0.0787 0.24211 0.14654 0.37583 0.19945 3e-3 6.6e-4 4e-3 3e-3 7e-3 4e-3 0.21981 0.0861 0.45416 0.13728 0.68723 0.13728z" enable-background="new" fill="#474747"/>
 <path d="m6.5855 14.894c-0.0697 0-0.13763 5e-3 -0.20671 8e-3v0.64498c0.0697-2e-3 0.13645-0.0143 0.20671-0.0143 0.46019 0 0.86554 0.19145 1.1422 0.48827v-0.0907c0-0.57127-0.49376-1.0361-1.1422-1.0361zm18.829 0c-0.64849 0-1.1422 0.46483-1.1422 1.0361v0.0907c0.27672-0.29683 0.68206-0.48828 1.1422-0.48828 0.0703 0 0.13704 0.0121 0.20671 0.0143v-0.64497c-0.0691-2e-3 -0.13697-8e-3 -0.20671-8e-3zm-17.687 12.086c-0.27671 0.29681-0.68206 0.48826-1.1422 0.48826-0.0703 0-0.13704-0.0121-0.20671-0.0143v0.64498c0.0691 2e-3 0.13698 8e-3 0.20671 8e-3 0.64849 0 1.1422-0.46483 1.1422-1.0361zm16.544 0v0.0906c0 0.57128 0.49376 1.0361 1.1422 1.0361 0.0697 0 0.13763-5e-3 0.20671-8e-3v-0.64497c-0.0697 2e-3 -0.13645 0.0143-0.20671 0.0143-0.46019 0-0.86553-0.19146-1.1422-0.48828z" enable-background="new" fill="url(#linearGradient2265-3)" opacity=".3"/>
 <path d="m6.5855 14.537c-3.3504 0-6.0481 2.4845-6.0481 5.5704v2.7845c0 3.0858 2.6978 5.5704 6.0481 5.5704 0.83759 0 1.5114-0.62081 1.5114-1.3923v-11.141c0-0.77146-0.67378-1.3923-1.5114-1.3923zm18.829 0c-0.83759 0-1.5114 0.62081-1.5114 1.3923v11.141c0 0.77147 0.67377 1.3923 1.5114 1.3923 3.3504 0 6.0482-2.4845 6.0482-5.5704v-2.7845c0-3.0858-2.6978-5.5704-6.0482-5.5704z" enable-background="new" fill="none" opacity=".4" stroke="#000" stroke-linejoin="round" stroke-width="1.0747"/>
 <path d="m26.3 16.7-0.0137 0.51172c-0.27444 5.3152-4.9639 9.7844-10.286 9.7846v1c0.0723 1e-3 0.14453 2e-3 0.2168 2e-3 4.2268-0.0869 8.3296-2.8888 10.083-6.7358z" enable-background="new" fill="#d9d9d9"/>
 <path d="m20 26.022c-2 0.97787-3 0.97787-4 0.97787v1c1 0 2 0 4-0.80013z" enable-background="new" fill="#474747" stroke="#474747" stroke-linecap="round" stroke-linejoin="round" stroke-width="2"/>
</svg>
