<svg width="32" height="32" version="1" xmlns="http://www.w3.org/2000/svg" xmlns:xlink="http://www.w3.org/1999/xlink">
 <defs>
  <radialGradient id="radialGradient1066" cx="-256" cy="-256.2" r="96" gradientTransform="matrix(0 -.09375 -.09375 0 -8.0188 -8.0001)" gradientUnits="userSpaceOnUse">
   <stop stop-opacity="0" offset="0"/>
   <stop stop-opacity="0" offset=".89867"/>
   <stop stop-opacity=".26166" offset=".94933"/>
   <stop offset="1"/>
  </radialGradient>
  <linearGradient id="linearGradient1004-8" x1="344" x2="344" y1="65.144" y2="102.86" gradientTransform="matrix(0 -1.0476 .95458 0 263.82 444.37)" gradientUnits="userSpaceOnUse">
   <stop stop-color="#fff" offset="0"/>
   <stop stop-color="#fff" stop-opacity=".098039" offset=".125"/>
   <stop stop-color="#fff" stop-opacity=".098039" offset=".925"/>
   <stop stop-color="#fff" stop-opacity=".49804" offset="1"/>
  </linearGradient>
  <clipPath id="clipPath994-1">
   <path d="m335.73 62c-8.8242 0-9.7736 0.90635-9.7304 9.7484v12.252 12.252c-0.0433 8.842 0.90622 9.7484 9.7304 9.7484h16.539c8.8242 0 9.7304-0.90625 9.7304-9.7484v-12.252-12.252c0-8.8421-0.90622-9.7484-9.7304-9.7484z" color="#000000" fill="#cdcdcd"/>
  </clipPath>
 </defs>
 <path d="m31 11.194c0-1.421-0.0308-2.5488-0.19141-3.5059-0.16064-0.95703-0.4726-1.7915-1.0918-2.4121s-1.4561-0.93647-2.4141-1.0957c-0.95795-0.15924-2.087-0.18666-3.5117-0.17969h-7.791-7.7969c-1.4213-7e-3 -2.5495 0.0207-3.5058 0.17969-0.95796 0.15923-1.7949 0.47505-2.4141 1.0957s-0.93115 1.4551-1.0918 2.4121c-0.16065 0.95703-0.19141 2.0849-0.19141 3.5059v11.615c0 1.421 0.0307 2.5467 0.19141 3.502 0.16075 0.95527 0.47425 1.7878 1.0938 2.4062 0.6195 0.61845 1.4536 0.93134 2.4102 1.0918 0.95653 0.16046 2.084 0.19141 3.5078 0.19141h7.7969 7.7969c1.4238 0 2.5513-0.031 3.5078-0.19141 0.95653-0.16045 1.7906-0.47334 2.4102-1.0918 0.61951-0.61846 0.933-1.451 1.0938-2.4062 0.16076-0.95527 0.19141-2.081 0.19141-3.502z" color="#000000" color-rendering="auto" dominant-baseline="auto" image-rendering="auto" opacity=".1" shape-rendering="auto" solid-color="#000000" style="font-feature-settings:normal;font-variant-alternates:normal;font-variant-caps:normal;font-variant-ligatures:normal;font-variant-numeric:normal;font-variant-position:normal;isolation:auto;mix-blend-mode:normal;shape-padding:0;text-decoration-color:#000000;text-decoration-line:none;text-decoration-style:solid;text-indent:0;text-orientation:mixed;text-transform:none;white-space:normal"/>
 <path d="m30.5 10.075c0-5.5618-0.58409-6.6037-6.2823-6.5745h-8.2176-8.2178c-5.6982-0.0293-6.2823 1.0127-6.2823 6.5745v11.85c0 5.5604 0.58403 6.5745 6.2823 6.5745h8.2178 8.2176c5.6982 0 6.2823-1.0141 6.2823-6.5745z" color="#000000" fill="#e6e6e6"/>
 <path d="m1.5 12v9.9258c0 5.5604 0.58496 6.5742 6.2832 6.5742h16.434c5.6982 0 6.2832-1.0138 6.2832-6.5742v-9.9258z" enable-background="new" fill="#fff" opacity=".5"/>
 <circle transform="matrix(0,-1,-1,0,0,0)" cx="-16" cy="-16" r="11" color="#000000" opacity=".05" stroke="#000" stroke-width="2"/>
 <circle transform="matrix(0,-1,-1,0,0,0)" cx="-17" cy="-16" r="11" color="#000000" opacity=".1"/>
 <circle transform="matrix(0,-1,-1,0,0,0)" cx="-16" cy="-16" r="11" color="#000000" fill="#f2f2f2"/>
 <circle transform="matrix(0,-1,-1,0,0,0)" cx="-16" cy="-16" r="9" color="#000000" fill="#46444a"/>
 <path d="m16 6.9998a9 9 0 0 0-8.9999 9.0001 9 9 0 0 0 8.9999 9.0001 9 9 0 0 0 9.0001-9.0001 9 9 0 0 0-9.0001-9.0001zm0 3.22a5.78 5.78 0 0 1 5.78 5.78 5.78 5.78 0 0 1-5.78 5.78 5.78 5.78 0 0 1-5.78-5.78 5.78 5.78 0 0 1 5.78-5.78z" color="#000000" fill="url(#radialGradient1066)" opacity=".1"/>
 <circle transform="matrix(0,-1,-1,0,0,0)" cx="-16" cy="-16" r="7" color="#000000" fill="#cdcdcd"/>
 <circle transform="matrix(0,-1,-1,0,0,0)" cx="-16" cy="-15.862" r="6" color="#000000" fill="#888"/>
 <circle transform="matrix(0,-1,-1,0,0,0)" cx="-16" cy="-16" r="5" color="#000000" fill="#666"/>
 <g transform="matrix(.97778 0 0 .97778 -312.54 -128.71)" enable-background="new" fill="#5d5d5d">
  <circle transform="matrix(-.13917 -.99027 -.99027 .13917 0 0)" cx="-193.32" cy="-312.14" r="2.0455" color="#000000" enable-background="accumulate"/>
  <circle transform="rotate(-8)" cx="313.06" cy="192.63" r=".61364" color="#000000" enable-background="accumulate" opacity=".3"/>
  <circle transform="rotate(-8)" cx="311.21" cy="194.02" r=".20455" color="#000000" enable-background="accumulate" opacity=".3"/>
 </g>
 <circle cx="18" cy="14" r="2" color="#000000" fill="#fff" opacity=".2"/>
 <circle cx="25.875" cy="6.25" r="1" color="#000000" fill="#df382c"/>
 <path d="m30.5 10.075c0-5.5618-0.58409-6.6037-6.2823-6.5745h-8.2176-8.2178c-5.6982-0.0293-6.2823 1.0127-6.2823 6.5745v11.85c0 5.5604 0.58403 6.5745 6.2823 6.5745h8.2178 8.2176c5.6982 0 6.2823-1.0141 6.2823-6.5745z" color="#000000" fill="none" opacity=".4" stroke="#000"/>
 <path transform="matrix(0 .66664 -.63636 0 69.455 -213.32)" d="m335.73 62c-8.8242 0-9.7736 0.90635-9.7304 9.7484v12.252 12.252c-0.0433 8.842 0.90622 9.7484 9.7304 9.7484h16.539c8.8242 0 9.7304-0.90625 9.7304-9.7484v-12.252-12.252c0-8.8421-0.90622-9.7484-9.7304-9.7484z" clip-path="url(#clipPath994-1)" color="#000000" fill="none" opacity=".7" stroke="url(#linearGradient1004-8)" stroke-width="3.0707"/>
</svg>
