<?xml version="1.0" encoding="UTF-8" standalone="no"?>
<!-- Created with Inkscape (http://www.inkscape.org/) -->

<svg
   width="32"
   height="32"
   viewBox="0 0 8.4666665 8.4666669"
   version="1.1"
   id="svg2719"
   inkscape:version="1.1.2 (0a00cf5339, 2022-02-04)"
   sodipodi:docname="computer-laptop.svg"
   xmlns:inkscape="http://www.inkscape.org/namespaces/inkscape"
   xmlns:sodipodi="http://sodipodi.sourceforge.net/DTD/sodipodi-0.dtd"
   xmlns:xlink="http://www.w3.org/1999/xlink"
   xmlns="http://www.w3.org/2000/svg"
   xmlns:svg="http://www.w3.org/2000/svg">
  <sodipodi:namedview
     id="namedview2721"
     pagecolor="#ffffff"
     bordercolor="#666666"
     borderopacity="1.0"
     inkscape:pageshadow="2"
     inkscape:pageopacity="0.0"
     inkscape:pagecheckerboard="0"
     inkscape:document-units="px"
     showgrid="false"
     units="px"
     inkscape:zoom="12.25"
     inkscape:cx="11.959184"
     inkscape:cy="20.163265"
     inkscape:window-width="1846"
     inkscape:window-height="1011"
     inkscape:window-x="74"
     inkscape:window-y="32"
     inkscape:window-maximized="1"
     inkscape:current-layer="svg2719" />
  <defs
     id="defs2716">
    <linearGradient
       inkscape:collect="always"
       id="linearGradient2698">
      <stop
         style="stop-color:#3daee9;stop-opacity:1"
         offset="0"
         id="stop2694" />
      <stop
         style="stop-color:#0e8dff;stop-opacity:1"
         offset="1"
         id="stop2696" />
    </linearGradient>
    <linearGradient
       inkscape:collect="always"
       id="linearGradient1871">
      <stop
         style="stop-color:#ffffff;stop-opacity:1;"
         offset="0"
         id="stop1867" />
      <stop
         style="stop-color:#ffffff;stop-opacity:0.1"
         offset="0.12"
         id="stop2515" />
      <stop
         style="stop-color:#ffffff;stop-opacity:0.102"
         offset="0.89999998"
         id="stop2581" />
      <stop
         style="stop-color:#ffffff;stop-opacity:0.502"
         offset="1"
         id="stop1869" />
    </linearGradient>
    <linearGradient
       inkscape:collect="always"
       xlink:href="#linearGradient1871"
       id="linearGradient1346"
       x1="2.4350028"
       y1="1.0583333"
       x2="2.4350028"
       y2="7.4083333"
       gradientUnits="userSpaceOnUse"
       gradientTransform="translate(0,0.26458334)" />
    <linearGradient
       inkscape:collect="always"
       xlink:href="#linearGradient2698"
       id="linearGradient2700"
       x1="8.2020836"
       y1="4.6302085"
       x2="0.66145837"
       y2="2.1166666"
       gradientUnits="userSpaceOnUse"
       gradientTransform="translate(0,0.26458334)" />
  </defs>
  <path
     d="m 0.6614741,2.9617458 c 0,-0.3736974 0.009049,-0.6673849 0.0490934,-0.9058803 C 0.75060429,1.8173568 0.82477228,1.6272669 0.96274731,1.4889692 1.1007222,1.3506715 1.290566,1.2764426 1.5291143,1.2367895 1.7676732,1.1971338 2.0609533,1.1889661 2.4355239,1.190797 h 2.0624006 l 1.5337366,4.23e-5 c 0.3742532,-0.00185 0.6674644,0.00635 0.9058805,0.045993 0.2385615,0.039653 0.4284133,0.1138793 0.566367,0.2521797 0.1379749,0.1383029 0.2121429,0.3283743 0.2521797,0.5668962 0.040037,0.2385219 0.049093,0.5321829 0.049093,0.9058803 v 1.7501923 c 0,0.3736975 -0.00905,0.6663531 -0.049093,0.9043458 C 7.7160383,5.8543189 7.6419232,6.0438929 7.5039086,6.1816614 7.365894,6.31943 7.1764338,6.3933387 6.9380443,6.4333251 6.6996706,6.4733116 6.3950895,6.4849674 6.0316347,6.4824186 L 4.497898,6.4823762 H 2.4349683 c -0.3744384,0 -0.66802,-0.0091 -0.9064096,-0.049093 C 1.2901877,6.3932963 1.1007275,6.3194008 0.96269439,6.1816191 0.82467968,6.0438373 0.7505646,5.8542766 0.71051462,5.6162839 0.67046464,5.3782912 0.66142118,5.0856356 0.66142118,4.7119381 Z"
     style="color:#000000;fill:#4d4d4d;stroke-width:0.264583"
     id="path874"
     sodipodi:nodetypes="ccsccccccssscscccsccscc" />
  <path
     id="rect1885"
     style="opacity:1;fill:#4d4d4d;stroke-width:0.396874"
     d="M 0.66145843,6.6145833 H 7.8052085 c 0.2198689,0 0.3968749,0.1770063 0.3968749,0.3968749 0,0.2198688 -0.177006,0.3968751 -0.3968749,0.3968751 H 0.66145843 c -0.2198688,0 -0.3968751,-0.1770063 -0.3968751,-0.3968751 0,-0.2198686 0.1770063,-0.3968749 0.3968751,-0.3968749 z"
     sodipodi:nodetypes="sssssss" />
  <path
     id="rect2306"
     style="opacity:1;fill:url(#linearGradient2700);fill-opacity:1;stroke-width:0.264583"
     d="m 1.7197916,1.8520833 h 5.0270832 c 0.2198688,0 0.396875,0.1770062 0.396875,0.396875 v 3.175 c 0,0.2198687 -0.1770062,0.396875 -0.396875,0.396875 H 1.7197916 c -0.2198687,0 -0.396875,-0.1770063 -0.396875,-0.396875 v -3.175 c 0,-0.2198688 0.1770063,-0.396875 0.396875,-0.396875 z" />
  <path
     id="rect4707"
     style="opacity:0.25;fill:#000000;fill-opacity:1;stroke-width:0.264583"
     d="M 1.977657,2.6458333 C 1.907565,2.6493633 1.8520833,2.7071253 1.8520833,2.778125 v 0.5291666 c 0,0.07329 0.059002,0.1322917 0.1322917,0.1322917 h 0.5291666 c 0.07329,0 0.1322917,-0.059002 0.1322917,-0.1322917 V 2.778125 c 0,-0.07329 -0.059002,-0.1322917 -0.1322917,-0.1322917 H 1.984375 c -0.00229,0 -0.00446,-1.139e-4 -0.00672,0 z m 0,1.3229167 C 1.9075651,3.97228 1.8520833,4.0300423 1.8520833,4.1010416 v 0.5291667 c 0,0.07329 0.059002,0.1322916 0.1322917,0.1322916 h 0.5291666 c 0.07329,0 0.1322917,-0.059002 0.1322917,-0.1322916 V 4.1010416 c 0,-0.07329 -0.059002,-0.1322916 -0.1322917,-0.1322916 H 1.984375 c -0.00229,0 -0.00446,-1.138e-4 -0.00672,0 z" />
  <path
     id="rect1386"
     style="fill:#faf8f6;fill-opacity:1;stroke-width:0.264583"
     d="M 1.977657,2.38125 C 1.907565,2.38478 1.8520833,2.442542 1.8520833,2.5135416 v 0.5291667 c 0,0.07329 0.059002,0.1322917 0.1322917,0.1322917 h 0.5291666 c 0.07329,0 0.1322917,-0.059002 0.1322917,-0.1322917 V 2.5135416 c 0,-0.07329 -0.059002,-0.1322916 -0.1322917,-0.1322916 H 1.984375 c -0.00229,0 -0.00446,-1.139e-4 -0.00672,0 z m 0,1.3229166 C 1.907565,3.7076966 1.8520833,3.7654586 1.8520833,3.8364583 V 4.365625 c 0,0.07329 0.059002,0.1322916 0.1322917,0.1322916 h 0.5291666 c 0.07329,0 0.1322917,-0.059002 0.1322917,-0.1322916 V 3.8364583 c 0,-0.07329 -0.059002,-0.1322917 -0.1322917,-0.1322917 H 1.984375 c -0.00229,0 -0.00446,-1.137e-4 -0.00672,0 z" />
  <path
     d="m 2.435135,1.3229166 c -1.48875747,0 -1.64123684,0.152408 -1.64123684,1.6381413 v 1.7501922 c 0,1.4857413 0.15250054,1.6459465 1.64123684,1.6386704 h 2.0629297 l 1.5337367,4.24e-5 c 1.488731,0.0073 1.6412368,-0.1529239 1.6412368,-1.6386704 V 2.9611002 c 0,-1.4857412 -0.1524873,-1.6380883 -1.6412368,-1.6381412 l -1.5337367,-4.24e-5 z m 0,0.2645834 h 2.0629297 l 1.5337367,4.23e-5 c 0.367665,1.06e-5 0.6465358,0.010822 0.8407664,0.043408 0.1942439,0.032583 0.2910681,0.080849 0.3513931,0.1410785 0.060333,0.06023 0.1084766,0.1566413 0.1410785,0.3503613 0.032597,0.1937252 0.043408,0.471805 0.043408,0.8387027 V 4.711285 c 0,0.3668977 -0.010769,0.6458479 -0.043408,0.8402638 C 7.3324084,5.7459487 7.2838654,5.8429079 7.223445,5.9034711 7.163027,5.9640311 7.0664254,6.0123233 6.8725546,6.0445469 6.6786838,6.0767709 6.4002469,6.0853719 6.03282,6.0853719 H 6.0322909 L 4.498078,6.0853293 H 2.4346455 2.4341163 c -0.3674269,0 -0.6464035,-0.0086 -0.8402637,-0.040825 C 1.3999871,6.0122805 1.3038958,5.9639887 1.2434914,5.9034282 1.183087,5.8428677 1.1345307,5.7459085 1.101897,5.5515059 1.0692791,5.3571086 1.0585027,5.0781664 1.0585027,4.7112422 V 2.9610499 c 0,-0.3668977 0.010795,-0.6449748 0.043408,-0.8387027 0.032602,-0.1937226 0.080745,-0.290142 0.1410784,-0.3503612 0.06033,-0.060232 0.1571572,-0.1084924 0.3513931,-0.1410785 0.1942413,-0.032583 0.4731015,-0.043408 0.8407665,-0.043408 z"
     style="color:#000000;font-variant-ligatures:normal;font-variant-position:normal;font-variant-caps:normal;font-variant-numeric:normal;font-variant-alternates:normal;font-variant-east-asian:normal;font-feature-settings:normal;font-variation-settings:normal;text-indent:0;text-decoration-line:none;text-decoration-style:solid;text-decoration-color:#000000;text-transform:none;text-orientation:mixed;dominant-baseline:auto;white-space:normal;shape-padding:0;shape-margin:0;inline-size:0;opacity:0.25;isolation:auto;mix-blend-mode:normal;solid-color:#000000;fill:url(#linearGradient1346);fill-opacity:1;stroke-width:0.264583;color-rendering:auto;image-rendering:auto;shape-rendering:auto;stop-color:#000000"
     id="path1144" />
  <path
     d="m 2.4350027,1.0583333 c -0.3765815,0 -0.6754813,0.00825 -0.9281054,0.050644 C 1.2535799,1.1514693 1.0333461,1.2340061 0.86919858,1.3978493 0.7050061,1.5617666 0.6229006,1.7814951 0.5803265,2.0344897 0.53787146,2.2867699 0.52916667,2.5852199 0.52916667,2.9610605 v 1.7501923 c 0,0.3758406 0.008731,0.6747933 0.0511598,0.9276027 0.0425529,0.2534973 0.12483306,0.4742921 0.28887208,0.6387306 C 1.033309,6.4420802 1.253691,6.5242889 1.5074,6.5664582 c 0.2528199,0.042026 0.5515768,0.04989 0.9281054,0.048059 H 4.497906 l 1.5332075,4.23e-5 c 0.3765285,0.00185 0.675296,-0.00603 0.9281054,-0.048059 C 7.2129252,6.5243312 7.4332993,6.4421278 7.5974203,6.2776284 7.7614567,6.1132031 7.8437421,5.8923951 7.8862924,5.6388978 7.9287263,5.3861149 7.9374522,5.0871357 7.9374522,4.7112951 V 2.9611028 c 0,-0.3758406 -0.0087,-0.6742906 -0.05116,-0.9265708 C 7.8437183,1.7815374 7.7616128,1.561801 7.5974203,1.3978916 7.4333019,1.2340484 7.2130601,1.1515143 6.959748,1.1090195 6.7071265,1.0666412 6.4082241,1.0583862 6.0316426,1.0583756 L 4.497906,1.0583333 Z m 0,0.2645833 h 2.0629297 l 1.5337367,4.24e-5 c 0.3722952,1.06e-5 0.6605587,0.00942 0.8846873,0.047024 0.2234274,0.037481 0.3821112,0.1032536 0.49403,0.2149739 0.1118367,0.1116489 0.1779693,0.27051 0.2154925,0.4935009 0.037642,0.2237078 0.047024,0.5110691 0.047024,0.8826235 v 1.7501923 c 0,0.3715543 -0.00939,0.659421 -0.047024,0.8836554 C 7.5883583,5.818452 7.5222998,5.9783371 7.4103864,6.0904939 7.2985496,6.2025979 7.1392678,6.268331 6.9158537,6.3054679 6.6918283,6.3427159 6.404176,6.3517515 6.0321983,6.34991 L 4.4979589,6.3498676 H 2.4350291 C 2.0627339,6.3517197 1.7749996,6.3426974 1.5508446,6.3054256 1.3274278,6.2682913 1.1681513,6.2025529 1.0563119,6.0904516 0.9444011,5.9782762 0.87833993,5.818407 0.84081937,5.594887 0.80317445,5.3706579 0.79379497,5.082786 0.79379497,4.7112316 V 2.9610393 c 0,-0.3715808 0.009393,-0.6589183 0.0470244,-0.8826235 C 0.87834527,1.855425 0.94447518,1.6965427 1.0563119,1.584915 1.1682254,1.4731947 1.3269013,1.4074219 1.5503419,1.369941 1.7744651,1.332341 2.0627339,1.322917 2.4350291,1.322917 Z"
     style="color:#000000;font-variant-ligatures:normal;font-variant-position:normal;font-variant-caps:normal;font-variant-numeric:normal;font-variant-alternates:normal;font-variant-east-asian:normal;font-feature-settings:normal;font-variation-settings:normal;text-indent:0;text-decoration-line:none;text-decoration-style:solid;text-decoration-color:#000000;text-transform:none;text-orientation:mixed;dominant-baseline:auto;white-space:normal;shape-padding:0;shape-margin:0;inline-size:0;opacity:0.4;isolation:auto;mix-blend-mode:normal;solid-color:#000000;stroke-width:0.264583;color-rendering:auto;image-rendering:auto;shape-rendering:auto;stop-color:#000000"
     id="path990" />
</svg>
