<svg width="32" height="32" version="1" xmlns="http://www.w3.org/2000/svg" xmlns:xlink="http://www.w3.org/1999/xlink">
 <defs>
  <linearGradient id="linearGradient6885" x1="335.85" x2="336.13" y1="131.99" y2="163.89" gradientTransform="translate(-320,-132)" gradientUnits="userSpaceOnUse">
   <stop stop-color="#999" offset="0"/>
   <stop stop-color="#b7b7b7" offset=".61328"/>
   <stop stop-color="#dbdbdb" offset="1"/>
  </linearGradient>
  <linearGradient id="linearGradient10147" x1="336" x2="336" y1="150" y2="159" gradientTransform="translate(-320,-132)" gradientUnits="userSpaceOnUse">
   <stop stop-color="#808080" offset="0"/>
   <stop stop-color="#999" offset="1"/>
  </linearGradient>
  <linearGradient id="linearGradient4316" x1="372" x2="372" y1="134" y2="162" gradientTransform="matrix(-1 0 0 1 389 -132)" gradientUnits="userSpaceOnUse">
   <stop stop-color="#fff" offset="0"/>
   <stop stop-color="#fff" stop-opacity=".098039" offset=".125"/>
   <stop stop-color="#fff" stop-opacity=".098039" offset=".925"/>
   <stop stop-color="#fff" stop-opacity=".49804" offset="1"/>
  </linearGradient>
 </defs>
 <path d="m14.973 1.9979 6.9551 2e-3c2.7994 0 4.5752 0.10197 5.7188 1.1328 0.24259 0.21892 0.43083 0.4754 0.5879 0.74414 0.0117 0.02 0.0564 0.0782 0.11132 0.1875 0.0907 0.18027 0.17065 0.37241 0.23828 0.57617 0.0671 0.20198 0.12496 0.41859 0.17383 0.65039 0.0486 0.23023 0.0869 0.47111 0.11914 0.72851v2e-3c0.0646 0.51578 0.10015 1.0903 0.11524 1.7363 7e-3 0.32198 0.0116 0.66266 0.01 1.0234v8.2188 8.2207c2e-3 0.3594-2e-3 0.69873-0.01 1.0215-0.0151 0.64603-0.0505 1.2224-0.11524 1.7383-0.0323 0.25754-0.0707 0.4986-0.11914 0.72852-0.0971 0.4603-0.23097 0.86702-0.41211 1.2266-0.18147 0.36018-0.41279 0.67544-0.69922 0.93359-0.14342 0.12929-0.30075 0.24284-0.46679 0.34375-0.33271 0.20222-0.70911 0.35057-1.1289 0.46094v2e-3c-1.0494 0.27537-2.3742 0.32422-4.123 0.32422h-11.855c-0.69562 0-1.3224-0.0101-1.8906-0.0371h-2e-3c-0.23885-0.0115-0.45772-0.0289-0.66992-0.0469h-2e-3 -2e-3c-6e-3 -5.4e-4 -0.052-4e-3 -0.0898-6e-3h-0.0137c-0.0155-1e-3 -0.0141-1.1e-4 -0.0332-2e-3h-2e-3c-0.51385-0.0486-0.97388-0.12251-1.3887-0.23047-0.20576-0.0536-0.4054-0.11525-0.59571-0.19141-0.18901-0.0755-0.36479-0.163-0.52929-0.26172-0.1657-0.0995-0.3216-0.21271-0.46485-0.33984-0.12928-0.11465-0.24087-0.23957-0.34179-0.36524 0 2e-5 -5e-3 -5e-3 -6e-3 -6e-3l-0.0215-0.0215-0.0156-0.0195-6e-3 -8e-3 -2e-3 -4e-3 -8e-3 -8e-3 -8e-3 -0.0137c-4e-5 -7e-5 -8e-3 -0.016-0.0117-0.0234-3e-3 -4e-3 -9e-3 -8e-3 -0.0117-0.0117 5.4e-4 7e-4 7e-3 3e-3 8e-3 4e-3 -0.01-0.0181-0.0172-0.0306-0.0254-0.0469 6e-3 0.0128 0.01 0.0233 0.0117 0.0273-0.095-0.13149-0.18742-0.26844-0.26562-0.41992-0.0922-0.17881-0.17175-0.3686-0.24024-0.56836-0.069-0.20111-0.12594-0.41283-0.17578-0.63867-0.0501-0.22709-0.0911-0.46643-0.125-0.71875-0.0307-0.22912-0.0546-0.4717-0.0742-0.71875l-2e-3 -2e-3v-4e-3c1e-3 0.0185-5e-3 -9e-3 -0.01-0.082v-2e-3c-2e-3 -0.0307-4e-3 -0.0623 0-6e-3v-2e-3 -2e-3c-0.0411-0.56466-0.0568-1.1896-0.0586-1.8906v-4e-3 -13.188c7e-3 -1.5618 1.321-2.6905 2.2676-3.5039l0.01-8e-3 2e-3 -2e-3 4.7109-4.4746 8e-3 -6e-3c1.5433-1.391 2.7944-2.1504 4.9746-2.1504z" color="#000000" color-rendering="auto" dominant-baseline="auto" image-rendering="auto" opacity=".1" shape-rendering="auto" solid-color="#000000" style="font-feature-settings:normal;font-variant-alternates:normal;font-variant-caps:normal;font-variant-ligatures:normal;font-variant-numeric:normal;font-variant-position:normal;isolation:auto;mix-blend-mode:normal;shape-padding:0;text-decoration-color:#000000;text-decoration-line:none;text-decoration-style:solid;text-indent:0;text-orientation:mixed;text-transform:none;white-space:normal"/>
 <path d="m16.439 1.4996c-1.3934 0.036-2.8891-0.15118-4.1453 0.5987-1.5597 0.83223-2.698 2.2383-4.0149 3.3847-1.3212 1.3054-2.7497 2.5168-3.9533 3.9334-0.45679 0.63555-0.96952 1.3261-0.8182 2.1571 0.0183 5.0311-0.15297 10.07 0.13555 15.096 0.0427 1.3343 0.59636 2.8516 1.955 3.3407 1.7732 0.66292 3.7056 0.35787 5.5538 0.45098 4.5581-8e-3 9.1191 0.0546 13.675-0.0833 1.3233-0.0684 2.8012-0.70441 3.2231-2.0681 0.6215-1.9356 0.34293-4.0041 0.4366-6.0018 0.0121-5.5702 0.0677-11.143-0.0696-16.712-0.10176-1.3288-0.43433-2.948-1.8085-3.5236-1.4506-0.67745-3.1132-0.44165-4.6635-0.53772-1.8352-0.0217-3.6706-0.0374-5.506-0.0349z" enable-background="new" fill="url(#linearGradient6885)"/>
 <rect x="7" y="19" width="18" height="8" rx="1" ry="1" enable-background="new" fill="#fff" opacity=".2"/>
 <rect x="7" y="18" width="18" height="8" rx="1" ry="1" enable-background="new" fill="url(#linearGradient10147)"/>
 <rect x="12" y="4" width="2" height="6" enable-background="new" fill="#ffda64"/>
 <rect x="15" y="4" width="2" height="6" enable-background="new" fill="#ffda64"/>
 <rect x="18" y="4" width="2" height="6" enable-background="new" fill="#ffda64"/>
 <rect x="21" y="4" width="2" height="6" enable-background="new" fill="#ffda64"/>
 <rect x="24" y="4" width="2" height="6" enable-background="new" fill="#ffda64"/>
 <path d="m8 18c-0.554 0-1 0.446-1 1v1c0-0.554 0.446-1 1-1h16c0.554 0 1 0.446 1 1v-1c0-0.554-0.446-1-1-1z" enable-background="new" opacity=".05"/>
 <rect x="12" y="10" width="2" height="1" enable-background="new" opacity=".075"/>
 <rect x="15" y="10" width="2" height="1" enable-background="new" opacity=".075"/>
 <rect x="18" y="10" width="2" height="1" enable-background="new" opacity=".075"/>
 <rect x="21" y="10" width="2" height="1" enable-background="new" opacity=".075"/>
 <rect x="24" y="10" width="2" height="1" enable-background="new" opacity=".075"/>
 <rect x="24" y="4" width="2" height="1" enable-background="new" fill="#fff" opacity=".3"/>
 <rect x="21" y="4" width="2" height="1" enable-background="new" fill="#fff" opacity=".3"/>
 <rect x="18" y="4" width="2" height="1" enable-background="new" fill="#fff" opacity=".3"/>
 <rect x="15" y="4" width="2" height="1" enable-background="new" fill="#fff" opacity=".3"/>
 <rect x="12" y="4" width="2" height="1" enable-background="new" fill="#fff" opacity=".3"/>
 <path d="m21.929 1.4962c2.7821 1.8e-4 4.4342 0.14534 5.3867 1.0039 0.19416 0.175 0.35249 0.38793 0.49219 0.62695 0.0316 0.054 0.0686 0.10247 0.0976 0.16016 0.0785 0.156 0.14802 0.3261 0.20899 0.50977 0.0611 0.18405 0.11501 0.38162 0.16015 0.5957 0.0452 0.21409 0.0824 0.44315 0.11329 0.68945 0.0617 0.49261 0.0965 1.0527 0.11132 1.6875 7e-3 0.31739 0.01 0.65353 8e-3 1.0098v8.2206 8.2207c2e-3 0.35623-3.5e-4 0.69239-8e-3 1.0098-0.0148 0.63477-0.0495 1.1949-0.11132 1.6875-0.0309 0.24631-0.0682 0.47537-0.11329 0.68945-0.0903 0.42816-0.21168 0.79292-0.36914 1.1055-0.15746 0.31252-0.35171 0.57249-0.58984 0.78711-0.11906 0.10732-0.24887 0.20291-0.39062 0.28906-0.28319 0.17212-0.61423 0.30534-0.99805 0.40625-0.96081 0.25213-2.26 0.3086-3.998 0.3086h-11.855c-0.69054 0-1.3101-0.0106-1.8672-0.0371-0.23047-0.0111-0.44308-0.0272-0.65234-0.0449-0.0436-4e-3 -0.094-4e-3 -0.13672-8e-3h-2e-3c-0.49424-0.0467-0.92903-0.11749-1.3106-0.21679-0.19111-0.0498-0.36981-0.10571-0.53515-0.17188-0.16536-0.0661-0.31771-0.14178-0.45899-0.22656-0.14129-0.0848-0.2717-0.17962-0.39062-0.28516-0.10532-0.0934-0.20005-0.19727-0.28907-0.30859-0.0115-0.0144-0.0259-0.0264-0.0371-0.041-6.7e-4 -1e-3 -9.5e-4 -3e-3 -2e-3 -4e-3 -0.0971-0.12749-0.18514-0.26586-0.26367-0.41797-0.0792-0.15352-0.14897-0.32121-0.21094-0.50196-0.062-0.18077-0.11573-0.37576-0.16211-0.58593-0.0464-0.21016-0.0847-0.43601-0.11718-0.67774-0.0289-0.21541-0.0511-0.44929-0.0703-0.6914-2e-3 -0.0292-8e-3 -0.0543-0.01-0.084-2.9e-4 -4e-3 2.9e-4 -8e-3 0-0.0117-0.0399-0.54795-0.0568-1.1636-0.0586-1.8574v-13.186c6e-3 -1.2604 2.0957-3.1289 2.0957-3.1289l8e-3 -6e-3 4.7299-4.492c1.5174-1.3677 2.5668-2.0236 4.6426-2.0234z" color="#000000" fill="none" opacity=".4" stroke="#000" stroke-width=".99158"/>
 <path d="m17.674 2.0121c5.1668 2e-3 7.8923 0.0632 8.9023 0.57617 0.60351 0.30649 1.0384 1.0652 1.2461 2.1719 0.24355 1.3004 0.239 21.525-6e-3 22.6-0.4115 1.8078-1.0604 2.3312-3.1856 2.5645-0.49142 0.054-4.6352 0.0862-9.207 0.0723-7.441-0.0226-8.3911-0.0477-9.0625-0.24023-1.2076-0.3464-1.676-0.80148-2.0254-1.9629-0.17841-0.59326-0.21211-3.6849-0.25391-10.283-0.0479-7.5564-0.0468-6.6039 0.21875-7.1526 0.0736-0.15205 0.33859-0.46265 0.72266-0.875v4.0742c0 0.12416 0.0206 0.24218 0.0488 0.35742-0.0246 3.832 0.0428 8.676 0.12305 12.473-0.094 0.98908 0.26416 2.2098 1.373 2.4297 4.1785 0.21246 8.3977 0.16055 12.605 0.18945 2.0932-0.0712 4.2187 0.13385 6.291-0.20117 1.2079-0.09 1.3714-1.432 1.4668-2.377 0.1751-6.5788 0.13104-13.382 0.041-19.989-0.0853-1.0921 0.0376-2.658-1.1816-3.1641-2.366-0.42229-6.785-0.2218-9.1758-0.3125-0.61114 0.0344-0.29054 0.0147-0.94202 0.0117-0.059-7e-3 -0.11677-0.0176-0.17773-0.0176h-3.7919c0.42688-0.30915 0.78914-0.52782 1.168-0.68359 0.60974-0.25114 0.0743-0.26372 4.8023-0.26172z" enable-background="new" fill="url(#linearGradient4316)" opacity=".4"/>
</svg>
