<svg width="48" height="48" version="1" xmlns="http://www.w3.org/2000/svg" xmlns:xlink="http://www.w3.org/1999/xlink">
 <defs>
  <linearGradient id="linearGradient2644" x1="344" x2="344" y1="60" y2="108" gradientTransform="translate(-320,-60)" gradientUnits="userSpaceOnUse">
   <stop stop-color="#999" offset="0"/>
   <stop stop-color="#b7b7b7" offset=".61328"/>
   <stop stop-color="#dbdbdb" offset="1"/>
  </linearGradient>
  <linearGradient id="linearGradient10139" x1="344" x2="344" y1="87" y2="101" gradientTransform="translate(-320,-60)" gradientUnits="userSpaceOnUse">
   <stop stop-color="#808080" offset="0"/>
   <stop stop-color="#999" offset="1"/>
  </linearGradient>
  <linearGradient id="linearGradient1004" x1="344" x2="344" y1="62" y2="106" gradientUnits="userSpaceOnUse">
   <stop stop-color="#fff" offset="0"/>
   <stop stop-color="#fff" stop-opacity=".098039" offset=".125"/>
   <stop stop-color="#fff" stop-opacity=".098039" offset=".925"/>
   <stop stop-color="#fff" stop-opacity=".49804" offset="1"/>
  </linearGradient>
  <clipPath id="clipPath994-5">
   <path d="m335.73 62c-8.8242 0-9.7736 0.90635-9.7304 9.7484v12.252 12.252c-0.0433 8.842 0.90622 9.7484 9.7304 9.7484h16.539c8.8242 0 9.7304-0.90625 9.7304-9.7484v-12.252-12.252c0-8.8421-0.90622-9.7484-9.7304-9.7484z" color="#000000" fill="#cdcdcd"/>
  </clipPath>
 </defs>
 <path d="m23.998 1.9995c-3.1813 0-4.9405 1.1296-7.2109 3.2754l-6e-3 0.0039-8.5059 8.5098-2e-3 2e-3 -8e-3 0.0059c-1.3948 1.2568-3.2553 2.9774-3.2656 5.2227v18.906 2e-3c3e-3 1.0837 0.0278 2.0485 0.0879 2.9141-5e-3 -0.0683-6e-3 -0.0619 0 0.0195 6e-3 0.0787 0.013 0.11853 0.0137 0.1289v2e-3 2e-3c0.0286 0.38003 0.0629 0.74983 0.10742 1.0977 0.0494 0.38575 0.10778 0.75007 0.17969 1.0918 0.0719 0.34178 0.15594 0.65944 0.2539 0.95899 0.098 0.29976 0.21074 0.5815 0.33984 0.84375 0.11483 0.23322 0.2475 0.44759 0.39063 0.65234l6e-3 8e-3 0.0156 0.0352 0.0156 0.0195 0.01 0.0156 2e-3 2e-3c0.0599 0.0814 0.0857 0.10384 0.0586 0.0684 0.14361 0.18831 0.30145 0.37275 0.48438 0.54297 0.1995 0.18562 0.41629 0.35273 0.65039 0.5 0.233 0.14658 0.48518 0.27591 0.7539 0.38867 0.26913 0.11294 0.55219 0.20732 0.85157 0.28906 0.59656 0.16282 1.2632 0.27323 2.0078 0.34766 1e-5 0 4e-3 -3e-5 4e-3 0 3.6e-4 2e-5 3e-3 -5e-5 4e-3 0 2e-3 2.2e-4 4e-3 2e-3 6e-3 2e-3h2e-3c0.0984 0.0104 0.17228 0.0104 0.20704 0.0137h2e-3c0.31227 0.0278 0.63401 0.0546 0.98437 0.0723 0.83672 0.0422 1.7626 0.0566 2.7891 0.0566h17.539c2.507 0 4.3731-0.099 5.8672-0.48438 0.0139 1e-3 0.0273 4e-3 0.0273 4e-3 6e-5 0 0.0318-4e-3 0.0625-8e-3 -0.0155 3e-4 -0.0221 2e-3 -0.043 2e-3 0.0332-9e-3 0.0981-3e-3 0.13086-0.0117h2e-3c0.60485-0.16673 1.1414-0.38997 1.6113-0.68945 0.23501-0.14977 0.45444-0.31891 0.6543-0.50781 0.39911-0.37721 0.72254-0.83251 0.97851-1.3652h2e-3c0.25577-0.53235 0.44431-1.1414 0.58398-1.8359 0.0698-0.34732 0.12681-0.71627 0.17383-1.1094 0.0941-0.78679 0.14583-1.6687 0.16797-2.6641 0.011-0.49698 0.0147-1.0223 0.0117-1.5781v-0.0019-12.75-12.75-2e-3c3e-3 -0.55551-7.4e-4 -1.081-0.0117-1.5781-0.0221-0.99538-0.074-1.8773-0.16797-2.6641-0.047-0.39312-0.10396-0.76397-0.17383-1.1113-0.07-0.34834-0.1537-0.6724-0.25-0.97656-0.0935-0.29542-0.20138-0.57108-0.32422-0.83008 3e-3 0.01102 0.0192 0.07063 0.0274 0.09961-9e-3 -0.03097-0.0371-0.12494-0.0371-0.125l-2e-3 -2e-3c-0.069-0.14354-0.13237-0.22712-0.1582-0.27344-0.22352-0.401-0.48465-0.77456-0.82031-1.0918-1.5982-1.5106-4.1784-1.6953-8.3125-1.6953z" color="#000000" color-rendering="auto" dominant-baseline="auto" image-rendering="auto" opacity=".1" shape-rendering="auto" solid-color="#000000" style="font-feature-settings:normal;font-variant-alternates:normal;font-variant-caps:normal;font-variant-ligatures:normal;font-variant-numeric:normal;font-variant-position:normal;isolation:auto;mix-blend-mode:normal;shape-padding:0;text-decoration-color:#000000;text-decoration-line:none;text-decoration-style:solid;text-indent:0;text-orientation:mixed;text-transform:none;white-space:normal"/>
 <path d="m26.629 1.488c-2.3148 0.0401-4.8313-0.26552-6.8861 1.027-1.5755 0.92575-2.7302 2.3876-4.075 3.5971-3.0203 2.9793-6.0835 5.9199-8.9995 9.0017-0.79268 0.96623-1.3278 2.1924-1.2174 3.4592-0.058 7.2031-0.0491 14.408 0.0978 21.61 0.15265 1.7535 0.5125 3.719 1.9084 4.9373 1.5852 1.27 3.7468 1.3675 5.687 1.3936 7.6708 0.0577 15.343 0.0894 23.014-0.0283 1.74-0.16622 3.7559-0.43634 4.9325-1.8913 1.0486-1.3961 1.3178-3.2195 1.3717-4.9223 0.13321-9.5441 0.15207-19.09 0.0758-28.635-0.0943-2.0323 0.0194-4.1324-0.61936-6.0907-0.43049-1.3522-1.4958-2.4709-2.8687-2.8761-2.3649-0.79469-4.9-0.44748-7.3498-0.5581-1.6902-0.01904-3.3806-0.02745-5.071-0.02413z" enable-background="new" fill="url(#linearGradient2644)"/>
 <rect x="11" y="28" width="26" height="13" rx="2" ry="2" enable-background="new" fill="#fff" opacity=".2"/>
 <rect x="11" y="27" width="26" height="13" rx="2" ry="2" enable-background="new" fill="url(#linearGradient10139)"/>
 <rect x="21" y="5" width="2" height="10" enable-background="new" fill="#ffda64"/>
 <rect x="25" y="5" width="2" height="10" enable-background="new" fill="#ffda64"/>
 <rect x="29" y="5" width="2" height="10" enable-background="new" fill="#ffda64"/>
 <rect x="33" y="5" width="2" height="10" enable-background="new" fill="#ffda64"/>
 <rect x="37" y="5" width="2" height="10" enable-background="new" fill="#ffda64"/>
 <path d="m13 27c-1.108 0-2 0.892-2 2v1c0-1.108 0.892-2 2-2h22c1.108 0 2 0.892 2 2v-1c0-1.108-0.892-2-2-2z" enable-background="new" opacity=".04"/>
 <rect x="21" y="15" width="2" height="1" enable-background="new" opacity=".075"/>
 <rect x="25" y="15" width="2" height="1" enable-background="new" opacity=".075"/>
 <rect x="29" y="15" width="2" height="1" enable-background="new" opacity=".075"/>
 <rect x="33" y="15" width="2" height="1" enable-background="new" opacity=".075"/>
 <rect x="37" y="15" width="2" height="1" enable-background="new" opacity=".075"/>
 <rect x="37" y="5" width="2" height="1" enable-background="new" fill="#fff" opacity=".3"/>
 <rect x="33" y="5" width="2" height="1" enable-background="new" fill="#fff" opacity=".3"/>
 <rect x="29" y="5" width="2" height="1" enable-background="new" fill="#fff" opacity=".3"/>
 <rect x="25" y="5" width="2" height="1" enable-background="new" fill="#fff" opacity=".3"/>
 <rect x="21" y="5" width="2" height="1" enable-background="new" fill="#fff" opacity=".3"/>
 <path d="m32.771 1.5c4.1158 0 6.5597 0.22675 7.9688 1.5586 0.28725 0.27149 0.52183 0.60186 0.72851 0.97266 0.0468 0.08393 0.10154 0.15661 0.14454 0.24609 2.5e-4 5.28e-4 -2.6e-4 0.0014 0 2e-3 0.11616 0.24198 0.2184 0.50414 0.30859 0.78906 0.0904 0.28553 0.16955 0.59369 0.23633 0.92578 0.0668 0.3321 0.1223 0.68823 0.16797 1.0703 0.0913 0.76415 0.1422 1.6325 0.16406 2.6172 0.0109 0.49234 0.0144 1.0138 0.0117 1.5664v12.752 12.752c3e-3 0.55263-8e-4 1.0741-0.0117 1.5664-0.0219 0.98469-0.0727 1.853-0.16406 2.6172-0.0457 0.38208-0.1012 0.73821-0.16797 1.0703-0.13356 0.66417-0.31198 1.232-0.54492 1.7168-0.23295 0.48482-0.52078 0.88581-0.87305 1.2188-0.17614 0.16648-0.36842 0.31556-0.57813 0.44921-0.41895 0.26701-0.90872 0.47238-1.4766 0.62891-6.2e-4 1.7e-4 -1e-3 -1.7e-4 -2e-3 0-1.4214 0.39113-3.3408 0.48047-5.9121 0.48047h-17.539c-1.0216 0-1.9396-0.015-2.7637-0.0566-0.34097-0.0172-0.65525-0.0427-0.96484-0.0703-0.0645-6e-3 -0.13795-7e-3 -0.20117-0.0137-1e-3 -1.4e-4 -3e-3 1.3e-4 -4e-3 0-0.73118-0.0725-1.375-0.17995-1.9394-0.33399-0.28273-0.0772-0.54639-0.16492-0.79102-0.26758-0.24462-0.10265-0.47066-0.22006-0.67968-0.35156-0.20903-0.1315-0.40024-0.27771-0.57618-0.44141-0.15581-0.14498-0.29602-0.30775-0.42773-0.48046-0.017-0.0223-0.0381-0.0397-0.0547-0.0625-1e-3 -2e-3 -3e-3 -4e-3 -4e-3 -6e-3 -0.14374-0.19776-0.2725-0.41443-0.38868-0.6504-0.11725-0.23815-0.22082-0.49693-0.3125-0.77734-0.0917-0.28041-0.17164-0.58218-0.24023-0.9082-0.0686-0.32602-0.12581-0.6758-0.17383-1.0508-0.0428-0.33417-0.0752-0.6967-0.10351-1.0723-3e-3 -0.04534-0.0104-0.0849-0.0137-0.13086-4.2e-4 -0.0061 4.3e-4 -0.01341 0-0.01953-0.059-0.85002-0.0853-1.8046-0.0879-2.8809v-18.904c9e-3 -1.9553 1.7178-3.6067 3.1016-4.8535l0.0117-0.0098 8.5176-8.5195c2.2448-2.1216 3.7965-3.1386 6.8675-3.1386z" color="#000000" fill="none" opacity=".4" stroke="#000"/>
 <path transform="matrix(-1 0 0 1 368 -60)" d="m335.23 61.5c-8.2315 0-9.7737 0.90602-9.7305 9.748v12.752 12.752c-0.0433 8.842 1.4989 9.748 9.7305 9.748h17.539c8.1724 0 9.7056-0.9024 9.7266-9.5742v-17.904c-0.00559-1.214-0.66655-2.31-1.498-3.2656v8.2438 12.252c0 2.1935-0.0614 3.8707-0.26562 5.0879-0.20419 1.2172-0.52867 1.9244-0.99805 2.3945-0.46938 0.47016-1.1744 0.79564-2.3887 1-1.2143 0.20434-2.8892 0.26562-5.0781 0.26562h-16.539c-2.1889 0-3.8659-0.0612-5.084-0.26562-1.2181-0.20448-1.9288-0.5295-2.4004-1-0.47161-0.47052-0.79596-1.1768-0.99804-2.3926-0.20209-1.2158-0.25879-2.8934-0.24805-5.0859v-2e-3 -12.254-12.254-2e-3c-0.0107-2.1925 0.046-3.8702 0.24805-5.0859 0.20209-1.2158 0.52643-1.9221 0.99804-2.3926s1.1843-0.79553 2.4024-1c1.2181-0.20438 2.8931-0.26558 5.082-0.26558h12.27c-1.4018-1.0011-3.7989-1.5-5.922-1.5z" clip-path="url(#clipPath994-5)" color="#000000" color-rendering="auto" dominant-baseline="auto" fill="url(#linearGradient1004)" image-rendering="auto" opacity=".4" shape-rendering="auto" solid-color="#000000" style="font-feature-settings:normal;font-variant-alternates:normal;font-variant-caps:normal;font-variant-ligatures:normal;font-variant-numeric:normal;font-variant-position:normal;isolation:auto;mix-blend-mode:normal;shape-padding:0;text-decoration-color:#000000;text-decoration-line:none;text-decoration-style:solid;text-indent:0;text-orientation:mixed;text-transform:none;white-space:normal"/>
 <path d="m32.409 1.5222c2.4194 0.08154 4.965-0.13662 7.2446 0.83762 1.6563 0.66211 2.2954 2.5179 2.5827 4.1326 0.31676 2.0472 0.16 4.1337 0.22526 6.1974 0.0181 8.7814 0.099 17.564-0.0146 26.345-0.13465 1.9707-0.18575 4.1911-1.5782 5.7449-1.3627 1.4256-3.4885 1.508-5.3292 1.6441-6.2431 0.13085-12.489 0.0489-18.734 0.0277-2.0163-0.0579-4.045 0.0479-6.0532-0.15656-1.6104-0.20061-3.3973-0.79552-4.1861-2.3406-0.94434-1.6924-0.9218-3.6768-0.947-5.5569-0.0476-6.7318-0.093-13.465-0.0394-20.196-0.0789-1.1146 0.36608-2.1955 1.1346-2.9947 2.7104-2.9784 5.6512-5.7376 8.488-8.5941 1.7892-1.677 3.3874-3.7377 5.7583-4.6222 1.57-0.64293 3.3088-0.35416 4.9582-0.44717 2.1632-0.0137 4.3266-0.02968 6.4898-0.02032z" enable-background="new" opacity="0" stroke-width="1.2"/>
</svg>
