<svg width="24" height="24" version="1" xmlns="http://www.w3.org/2000/svg" xmlns:xlink="http://www.w3.org/1999/xlink">
 <defs>
  <linearGradient id="linearGradient1223" x1="333" x2="333" y1="194" y2="206" gradientTransform="translate(-320,-188)" gradientUnits="userSpaceOnUse">
   <stop stop-color="#666" offset="0"/>
   <stop stop-color="#808080" offset="1"/>
  </linearGradient>
  <linearGradient id="linearGradient1250" x1="332" x2="332" y1="194" y2="206" gradientUnits="userSpaceOnUse">
   <stop stop-color="#fff" offset="0"/>
   <stop stop-color="#fff" stop-opacity=".098039" offset=".125"/>
   <stop stop-color="#fff" stop-opacity=".098039" offset=".925"/>
   <stop stop-color="#fff" stop-opacity=".49804" offset="1"/>
  </linearGradient>
  <clipPath id="clipPath1238">
   <path d="m338 194c1.2585 0.0147 2.0891 0.0598 2.4551 0.26172 0.18341 0.10119 0.28716 0.21275 0.38476 0.47266 0.09756 0.25989 0.16016 0.67323 0.16016 1.2656v8c0 0.59239-0.0626 1.0057-0.16016 1.2656-0.0976 0.25992-0.20135 0.37147-0.38476 0.47266-0.36596 0.20192-1.1966 0.24702-2.4551 0.26172h-6e-3 -11.994c-1.2585-0.0147-2.0891-0.0598-2.4551-0.26172-0.18341-0.10119-0.28716-0.21275-0.38476-0.47266-0.09756-0.25989-0.16016-0.67323-0.16016-1.2656v-8c0-0.59239 0.0627-1.0057 0.16016-1.2656 0.0976-0.25992 0.20331-0.37146 0.38672-0.47266 0.36594-0.20192 1.1946-0.24702 2.4531-0.26172z" color="#000000" fill="url(#linearGradient1242)"/>
  </clipPath>
 </defs>
 <path d="m21.5 17c0 2.5-0.97827 2.4708-3.5 2.5h-12c-2.5217-0.0292-3.5 0-3.5-2.5v-8.0001c0-2.5 0.97826-2.4708 3.5-2.5h12c2.5217 0.0291 3.5 0 3.5 2.5z" color="#000000" fill="none" opacity=".2" stroke="#000"/>
 <path d="m21.5 16c0 2.5-0.97827 2.4708-3.5 2.5h-12c-2.5217-0.0292-3.5 0-3.5-2.5v-8.0001c0-2.5 0.97826-2.4708 3.5-2.5h12c2.5217 0.0291 3.5 0 3.5 2.5z" color="#000000" fill="url(#linearGradient1223)"/>
 <path d="m21.5 16c0 2.5-0.97827 2.4708-3.5 2.5h-12c-2.5217-0.0292-3.5 0-3.5-2.5v-8.0001c0-2.5 0.97826-2.4708 3.5-2.5h12c2.5217 0.0291 3.5 0 3.5 2.5z" color="#000000" fill="none" opacity=".5" stroke="#000"/>
 <path transform="translate(-320,-188)" d="m326 194c-1.2585 0.0147-2.0891 0.0598-2.4551 0.26172-0.18341 0.10119-0.28716 0.21275-0.38476 0.47266-0.09756 0.25989-0.16016 0.67323-0.16016 1.2656v8c0 0.59239 0.0626 1.0057 0.16016 1.2656 0.0976 0.25992 0.20135 0.37147 0.38476 0.47266 0.36596 0.20192 1.1966 0.24702 2.4551 0.26172h6e-3 11.994c1.2585-0.0147 2.0891-0.0598 2.4551-0.26172 0.18341-0.10119 0.28716-0.21275 0.38476-0.47266 0.09756-0.25989 0.16016-0.67323 0.16016-1.2656v-8c0-0.59239-0.0627-1.0057-0.16016-1.2656-0.0976-0.25992-0.20331-0.37146-0.38672-0.47266-0.36594-0.20192-1.1946-0.24702-2.4531-0.26172z" clip-path="url(#clipPath1238)" color="#000000" fill="none" opacity=".5" stroke="url(#linearGradient1250)" stroke-width="2"/>
</svg>
