<?xml version="1.0" encoding="UTF-8" standalone="no"?>
<!-- Created with Inkscape (http://www.inkscape.org/) -->

<svg
   width="24"
   height="24"
   viewBox="0 0 6.3499999 6.3500002"
   version="1.1"
   id="svg5"
   inkscape:version="1.1.2 (0a00cf5339, 2022-02-04)"
   sodipodi:docname="kblackbox.svg"
   xmlns:inkscape="http://www.inkscape.org/namespaces/inkscape"
   xmlns:sodipodi="http://sodipodi.sourceforge.net/DTD/sodipodi-0.dtd"
   xmlns:xlink="http://www.w3.org/1999/xlink"
   xmlns="http://www.w3.org/2000/svg"
   xmlns:svg="http://www.w3.org/2000/svg">
  <sodipodi:namedview
     id="namedview7"
     pagecolor="#ffffff"
     bordercolor="#666666"
     borderopacity="1.0"
     inkscape:pageshadow="2"
     inkscape:pageopacity="0.0"
     inkscape:pagecheckerboard="0"
     inkscape:document-units="px"
     showgrid="false"
     units="px"
     height="24px"
     inkscape:zoom="19.533825"
     inkscape:cx="6.4759462"
     inkscape:cy="10.750583"
     inkscape:window-width="1846"
     inkscape:window-height="1011"
     inkscape:window-x="74"
     inkscape:window-y="32"
     inkscape:window-maximized="1"
     inkscape:current-layer="svg5" />
  <defs
     id="defs2">
    <linearGradient
       inkscape:collect="always"
       id="linearGradient1871">
      <stop
         style="stop-color:#ffffff;stop-opacity:1;"
         offset="0"
         id="stop1867" />
      <stop
         style="stop-color:#ffffff;stop-opacity:0.1"
         offset="0.12"
         id="stop2515" />
      <stop
         style="stop-color:#ffffff;stop-opacity:0.102"
         offset="0.89999998"
         id="stop2581" />
      <stop
         style="stop-color:#ffffff;stop-opacity:0.502"
         offset="1"
         id="stop1869" />
    </linearGradient>
    <linearGradient
       inkscape:collect="always"
       xlink:href="#linearGradient1871"
       id="linearGradient1178"
       x1="1.5937018"
       y1="0.26458335"
       x2="1.5937018"
       y2="6.0854168"
       gradientUnits="userSpaceOnUse" />
  </defs>
  <path
     d="m 1.6344609,0.26458334 c -1.3619057,0 -1.50844254,0.11445611 -1.50176975,1.23104016 V 3.0427719 5.1189653 C 0.12599715,6.2355467 0.2725552,6.3500002 1.6344609,6.3500002 h 3.0816683 c 1.3619031,0 1.5017697,-0.1144376 1.5017697,-1.2310349 V 3.0427719 1.4956235 C 6.217899,0.37902886 6.0780296,0.26458334 4.7161266,0.26458334 Z"
     style="color:#000000;display:inline;overflow:visible;visibility:visible;opacity:0.1;fill:#000000;fill-opacity:1;fill-rule:nonzero;stroke:none;stroke-width:0.264591;marker:none;enable-background:accumulate"
     id="path1338" />
  <path
     d="m 1.6344609,0.13229167 c -1.3619057,0 -1.50844254,0.11445611 -1.50176975,1.23104013 V 2.9104802 4.9866736 C 0.12599715,6.103255 0.2725552,6.2177085 1.6344609,6.2177085 h 3.0816683 c 1.3619031,0 1.5017697,-0.1144376 1.5017697,-1.2310349 V 2.9104802 1.3633318 c 0,-1.11659461 -0.1398693,-1.23104013 -1.5017723,-1.23104013 z"
     style="color:#000000;display:inline;overflow:visible;visibility:visible;fill:#4d4d4d;fill-opacity:1;fill-rule:nonzero;stroke:none;stroke-width:0.264591;marker:none;enable-background:accumulate"
     id="path908-3"
     sodipodi:nodetypes="scccssscsss" />
  <path
     id="rect1071"
     style="fill:#ffffff;fill-opacity:1;stroke-width:0.119104;stroke-linecap:round;stroke-linejoin:round"
     d="m 3.1770579,1.3229167 c -0.1524522,0 -0.2970401,0.017404 -0.4336117,0.05234 C 2.6100505,1.4101937 2.489237,1.4562657 2.38125,1.5134357 L 2.5052388,1.8565568 C 2.7053323,1.7485699 2.9102105,1.6944177 3.1198323,1.6944177 c 0.1651565,0 0.2906319,0.042886 0.3763861,0.1286413 0.085754,0.082579 0.1286412,0.19065 0.1286413,0.3240457 0,0.082578 -0.019113,0.1587958 -0.057226,0.2286697 -0.034937,0.069874 -0.081009,0.1365351 -0.1381785,0.2000569 -0.057169,0.063522 -0.1174599,0.1269977 -0.1809817,0.1905194 -0.063522,0.060346 -0.1238122,0.1270068 -0.1809817,0.200057 -0.057169,0.069874 -0.1049509,0.1460914 -0.143064,0.2286696 -0.034937,0.082578 -0.052341,0.174723 -0.052341,0.2763577 0,0.069874 0.00637,0.1365351 0.019076,0.200057 h 0.3715007 c -0.00318,-0.01588 -0.00465,-0.033284 -0.00465,-0.05234 V 3.566811 c 0,-0.104811 0.020589,-0.198432 0.061878,-0.2810102 0.041293,-0.085754 0.092028,-0.163681 0.1523735,-0.2335549 0.060346,-0.07305 0.1270069,-0.1428967 0.2000568,-0.2095947 0.07305,-0.066698 0.139944,-0.1365444 0.2002896,-0.2095944 0.060346,-0.07305 0.1110797,-0.1509765 0.1523688,-0.2335549 0.041289,-0.085754 0.061878,-0.1825608 0.061878,-0.2905477 0,-0.085754 -0.014218,-0.1747137 -0.042803,-0.2668202 C 4.0186401,1.7468516 3.9708587,1.6610778 3.9009847,1.5848517 3.8311108,1.5086256 3.7374898,1.4468588 3.6199746,1.3992175 3.5056354,1.3484 3.3580948,1.3229167 3.1770579,1.3229167 Z m -0.076301,2.8012622 c -0.098459,0 -0.1763852,0.031854 -0.2335548,0.095376 -0.057169,0.063522 -0.085606,0.1380303 -0.085606,0.2237848 0,0.085754 0.028437,0.1604953 0.085606,0.2240171 0.057169,0.063522 0.1350962,0.095143 0.2335548,0.095143 0.098459,0 0.1761526,-0.031622 0.2333222,-0.095143 0.057169,-0.063522 0.085838,-0.1382629 0.085838,-0.2240171 0,-0.085755 -0.028669,-0.160263 -0.085838,-0.2237848 -0.057169,-0.063522 -0.134863,-0.095376 -0.2333222,-0.095376 z" />
  <path
     d="m 1.5938923,0.26458334 c -0.61390475,0 -0.95498972,0.0409945 -1.11311002,0.16433006 C 0.40171949,0.4905825 0.3512317,0.5735558 0.3154177,0.71882 0.27959047,0.8640816 0.2647738,1.0674483 0.2647738,1.3358363 v 1.5745804 2.1036598 c 0,0.2683854 0.0148167,0.4717521 0.0506439,0.6170163 0.035814,0.1452642 0.0863018,0.2282376 0.16536458,0.2899066 0.1581203,0.1233356 0.49920527,0.1643301 1.11311002,0.1643301 h 3.1624059 c 0.6140583,0 0.956871,-0.040897 1.1156951,-0.1643301 0.079412,-0.061719 0.1298972,-0.1448699 0.1653646,-0.2899066 0.035465,-0.145034 0.049646,-0.3482525 0.048059,-0.6165003 V 2.9104167 1.3353204 C 6.0870043,1.0670699 6.0728226,0.8638567 6.0373579,0.71882 6.0018878,0.5737834 5.9514053,0.4906328 5.8719933,0.4289134 5.7131692,0.30547999 5.3703565,0.26458334 4.7562982,0.26458334 Z M 2.9058526,0.5317517 c 0.4179888,-5.292e-4 1.1007038,-1.032e-4 1.5186846,0.0031 0.3969306,0.01352 0.7996661,-0.018838 1.190625,0.074933 0.1458146,0.024315 0.1621976,0.1899894 0.1793161,0.3085069 0.029554,1.1399096 0.019844,2.8114837 0.013441,3.9531608 -0.018944,0.262173 0.036213,0.5492909 -0.079581,0.7973642 -0.090901,0.1083791 -0.2564876,0.095134 -0.383956,0.1204045 -1.046181,0.021775 -2.6271432,0.013203 -3.6760706,0.00982 C 1.3589926,5.78258 1.0404766,5.8289112 0.73761862,5.740125 0.58433227,5.7141958 0.57524383,5.5392692 0.55571758,5.4171481 0.52539633,4.3275013 0.53584737,2.7065659 0.54124487,1.6154004 0.55637904,1.334135 0.52015758,1.0419583 0.58930379,0.7648046 0.61707181,0.5958417 0.81721588,0.5900658 0.95103948,0.5689521 1.5147343,0.5169403 2.337644,0.5407422 2.9058553,0.5317464 Z"
     style="color:#000000;display:inline;overflow:visible;visibility:visible;opacity:0.7;fill:url(#linearGradient1178);fill-opacity:1;fill-rule:nonzero;stroke:none;stroke-width:0.264583;marker:none;enable-background:accumulate"
     id="path1082" />
  <path
     d="M 1.5937018,0 C 0.97181192,0 0.58184518,0.0151077 0.31832547,0.22065721 0.18656826,0.32343197 0.10345734,0.4730009 0.0583935,0.6557751 0.0133323,0.8385466 0,1.0583466 0,1.3358363 v 1.5745804 2.1037472 c 0,0.2774897 0.013335,0.4972896 0.0583935,0.6800612 0.04506384,0.1827741 0.12817476,0.332859 0.25993197,0.4356338 0.26351971,0.2055468 0.65348645,0.2201413 1.27537633,0.2201413 h 3.1625964 c 0.6220408,0 1.0135977,-0.014684 1.2779587,-0.2201413 C 6.1664375,6.0271318 6.2494373,5.8772268 6.2941889,5.6942251 6.3388744,5.5115038 6.3516061,5.2911985 6.3500001,5.0141639 V 5.0131055 2.9104167 1.3368682 1.3358098 C 6.3515876,1.0587752 6.3388612,0.8384699 6.2941889,0.6557486 6.2494373,0.4727496 6.1664375,0.32284195 6.0342569,0.22011482 5.7698985,0.01468702 5.378339,0 4.7562982,0 Z m 0,0.26458334 h 3.1625964 c 0.6140583,0 0.956355,0.0414126 1.1151791,0.16484866 0.079409,0.061717 0.1304105,0.1443514 0.1658806,0.289388 0.03547,0.145034 0.049652,0.3482525 0.048059,0.6164977 v 5.292e-4 1.5745804 2.1042631 C 6.0870043,5.2829382 6.0728226,5.4861567 6.0373579,5.6311907 6.0018905,5.7762274 5.9508894,5.859378 5.8714773,5.9210973 5.7126506,6.0445308 5.3703565,6.0854274 4.7562982,6.0854274 H 1.5937018 c -0.61390211,0 -0.95447114,-0.040995 -1.11259408,-0.1643301 C 0.40204757,5.8594283 0.3510412,5.7764549 0.3152272,5.6311907 0.27941055,5.4859186 0.2645833,5.2825519 0.2645833,5.0141639 V 2.9104167 1.3358363 C 0.2645833,1.0674483 0.2794,0.8646001 0.3152272,0.719336 0.3510412,0.5740718 0.40204757,0.4905825 0.48110772,0.4289134 0.63923066,0.30557788 0.97979969,0.26458334 1.5937018,0.26458334 Z"
     style="color:#000000;display:inline;opacity:0.4;fill:#000000;stroke-width:0.264583;-inkscape-stroke:none;enable-background:new"
     id="path1222" />
</svg>
