<?xml version="1.0" encoding="UTF-8" standalone="no"?>
<!-- Created with Inkscape (http://www.inkscape.org/) -->

<svg
   width="24"
   height="24"
   viewBox="0 0 6.35 6.35"
   version="1.1"
   id="svg5"
   sodipodi:docname="linuxmint.svg"
   inkscape:version="1.1.2 (0a00cf5339, 2022-02-04)"
   xmlns:inkscape="http://www.inkscape.org/namespaces/inkscape"
   xmlns:sodipodi="http://sodipodi.sourceforge.net/DTD/sodipodi-0.dtd"
   xmlns:xlink="http://www.w3.org/1999/xlink"
   xmlns="http://www.w3.org/2000/svg"
   xmlns:svg="http://www.w3.org/2000/svg">
  <sodipodi:namedview
     id="namedview7"
     pagecolor="#ffffff"
     bordercolor="#666666"
     borderopacity="1.0"
     inkscape:pageshadow="2"
     inkscape:pageopacity="0.0"
     inkscape:pagecheckerboard="0"
     inkscape:document-units="px"
     showgrid="false"
     units="px"
     height="48px"
     showguides="false"
     inkscape:zoom="16.375"
     inkscape:cx="9.3129771"
     inkscape:cy="15.725191"
     inkscape:window-width="1920"
     inkscape:window-height="995"
     inkscape:window-x="0"
     inkscape:window-y="0"
     inkscape:window-maximized="1"
     inkscape:current-layer="svg5" />
  <defs
     id="defs2">
    <linearGradient
       inkscape:collect="always"
       id="linearGradient2014">
      <stop
         style="stop-color:#a2d740;stop-opacity:1"
         offset="0"
         id="stop2010" />
      <stop
         style="stop-color:#76c22b;stop-opacity:1"
         offset="1"
         id="stop2012" />
    </linearGradient>
    <linearGradient
       inkscape:collect="always"
       id="linearGradient1871">
      <stop
         style="stop-color:#ffffff;stop-opacity:1;"
         offset="0"
         id="stop1867" />
      <stop
         style="stop-color:#ffffff;stop-opacity:0.1"
         offset="0.12"
         id="stop2515" />
      <stop
         style="stop-color:#ffffff;stop-opacity:0.102"
         offset="0.89999998"
         id="stop2581" />
      <stop
         style="stop-color:#ffffff;stop-opacity:0.502"
         offset="1"
         id="stop1869" />
    </linearGradient>
    <linearGradient
       inkscape:collect="always"
       xlink:href="#linearGradient1871"
       id="linearGradient1198"
       x1="6.3499999"
       y1="0.52916658"
       x2="6.3499994"
       y2="12.170834"
       gradientUnits="userSpaceOnUse"
       gradientTransform="scale(1.8897639)" />
    <linearGradient
       inkscape:collect="always"
       xlink:href="#linearGradient2014"
       id="linearGradient2016"
       x1="15.098506"
       y1="15.253805"
       x2="-2.3985054"
       y2="-2.5538046"
       gradientUnits="userSpaceOnUse"
       gradientTransform="matrix(0.51111109,0,0,0.51111109,-0.07055533,-0.07055533)" />
  </defs>
  <circle
     style="fill:url(#linearGradient2016);fill-opacity:1;stroke-width:0.270463;stroke-linecap:round;stroke-linejoin:round"
     id="path986"
     cx="3.175"
     cy="3.175"
     r="3.0427084" />
  <path
     id="rect13049"
     style="opacity:0.1;fill:#ffffff;stroke-width:0.999999;stroke-linecap:round;stroke-linejoin:round"
     d="M 0.5 12 A 11.5 11.5 0 0 0 12 23.5 A 11.5 11.5 0 0 0 23.5 12 L 0.5 12 z "
     transform="scale(0.26458333)" />
  <path
     d="m 1.5875,1.8520833 v 2.1065109 c 0,0.5142958 0.4219311,0.9362271 0.936227,0.9362271 h 1.4043407 c 0.5142957,0 0.9362271,-0.4219313 0.9362271,-0.9362271 V 2.7883104 C 4.8642948,2.403287 4.5471477,2.08614 4.1621245,2.08614 3.9822517,2.08614 3.8188363,2.157238 3.6940109,2.270255 3.5691826,2.1572392 3.4057701,2.08614 3.2258974,2.08614 2.8408741,2.08614 2.523727,2.403287 2.523727,2.7883104 V 3.9585942 H 2.9918406 V 2.7883104 c 0,-0.1320388 0.1020181,-0.2340568 0.2340568,-0.2340568 0.1320387,0 0.2340567,0.102018 0.2340567,0.2340568 V 3.9585942 H 3.9280677 V 2.7883104 c 0,-0.1320388 0.102018,-0.2340568 0.2340568,-0.2340568 0.1320387,0 0.2340567,0.102018 0.2340567,0.2340568 v 1.1702838 c 0,0.2613097 -0.2068039,0.4681136 -0.4681135,0.4681136 H 2.523727 c -0.2613098,0 -0.4681135,-0.2068039 -0.4681135,-0.4681136 V 1.8520833 Z"
     style="color:#000000;font-variant-ligatures:normal;font-variant-position:normal;font-variant-caps:normal;font-variant-numeric:normal;font-variant-alternates:normal;font-feature-settings:normal;text-indent:0;text-decoration-line:none;text-decoration-style:solid;text-decoration-color:#000000;text-transform:none;text-orientation:mixed;dominant-baseline:auto;white-space:normal;shape-padding:0;opacity:0.1;isolation:auto;mix-blend-mode:normal;solid-color:#000000;fill:#000000;stroke-width:0.0700042;color-rendering:auto;image-rendering:auto;shape-rendering:auto;enable-background:accumulate"
     id="path1449" />
  <path
     d="m 1.5875,1.5875 v 2.1065109 c 0,0.5142958 0.4219311,0.9362271 0.936227,0.9362271 h 1.4043406 c 0.5142958,0 0.9362271,-0.4219313 0.9362271,-0.9362271 V 2.5237271 c 0,-0.3850234 -0.317147,-0.7021704 -0.7021703,-0.7021704 -0.1798727,0 -0.3432881,0.071098 -0.4681135,0.184115 -0.1248283,-0.1130158 -0.2882408,-0.184115 -0.4681136,-0.184115 -0.3850232,0 -0.7021703,0.317147 -0.7021703,0.7021704 V 3.6940109 H 2.9918406 V 2.5237271 c 0,-0.1320388 0.102018,-0.2340568 0.2340567,-0.2340568 0.1320388,0 0.2340568,0.102018 0.2340568,0.2340568 V 3.6940109 H 3.9280676 V 2.5237271 c 0,-0.1320388 0.1020181,-0.2340568 0.2340568,-0.2340568 0.1320387,0 0.2340568,0.102018 0.2340568,0.2340568 v 1.1702838 c 0,0.2613097 -0.2068039,0.4681136 -0.4681136,0.4681136 H 2.523727 c -0.2613098,0 -0.4681135,-0.2068039 -0.4681135,-0.4681136 V 1.5875 Z"
     style="color:#000000;font-variant-ligatures:normal;font-variant-position:normal;font-variant-caps:normal;font-variant-numeric:normal;font-variant-alternates:normal;font-feature-settings:normal;text-indent:0;text-decoration-line:none;text-decoration-style:solid;text-decoration-color:#000000;text-transform:none;text-orientation:mixed;dominant-baseline:auto;white-space:normal;shape-padding:0;isolation:auto;mix-blend-mode:normal;solid-color:#000000;fill:#ffffff;stroke-width:0.264583;color-rendering:auto;image-rendering:auto;shape-rendering:auto;enable-background:accumulate"
     id="path896"
     sodipodi:nodetypes="csssssscssccsssccssssssscc" />
  <path
     id="path4344"
     style="opacity:0.4;fill:#000000;fill-opacity:1;stroke-width:1.6;stroke-linecap:round;stroke-linejoin:round"
     d="M 12,0 C 5.372583,1.2369363e-7 1.0909091e-7,5.372583 0,12 0,18.627416 5.372583,24 12,24 18.627417,24 24,18.627416 24,12 24,5.372583 18.627417,0 12,0 Z m 0,1 A 11,11 0 0 1 23,12 11,11 0 0 1 12,23 11,11 0 0 1 1,12 11,11 0 0 1 12,1 Z"
     transform="scale(0.26458333)" />
  <path
     id="path1110"
     style="fill:url(#linearGradient1198);fill-opacity:1;stroke-width:1;stroke-linecap:round;stroke-linejoin:round"
     d="m 12,1 c -6.0751324,-8e-8 -11.00000008,4.9248676 -11,11 2e-7,6.075132 4.9248676,11 11,11 6.075132,0 11,-4.924868 11,-11 C 23,5.9248676 18.075132,1.0000002 12,1 Z m 0,1 C 17.522848,2 22,6.4771525 22,12 22,17.522847 17.522847,22 12,22 6.4771525,22 2,17.522848 2,12 1.9999996,6.4771525 6.4771525,1.9999996 12,2 Z"
     transform="scale(0.26458333)" />
</svg>
