<?xml version="1.0" encoding="UTF-8" standalone="no"?>
<!-- Created with Inkscape (http://www.inkscape.org/) -->

<svg
   width="24"
   height="24"
   viewBox="0 0 6.3499999 6.3500002"
   version="1.1"
   id="svg5"
   inkscape:version="1.1.2 (0a00cf5339, 2022-02-04, custom)"
   sodipodi:docname="sudoku.svg"
   xmlns:inkscape="http://www.inkscape.org/namespaces/inkscape"
   xmlns:sodipodi="http://sodipodi.sourceforge.net/DTD/sodipodi-0.dtd"
   xmlns:xlink="http://www.w3.org/1999/xlink"
   xmlns="http://www.w3.org/2000/svg"
   xmlns:svg="http://www.w3.org/2000/svg">
  <sodipodi:namedview
     id="namedview7"
     pagecolor="#ffffff"
     bordercolor="#666666"
     borderopacity="1.0"
     inkscape:pageshadow="2"
     inkscape:pageopacity="0.0"
     inkscape:pagecheckerboard="0"
     inkscape:document-units="px"
     showgrid="false"
     units="px"
     height="24px"
     inkscape:zoom="8.4375"
     inkscape:cx="14.933333"
     inkscape:cy="10.251852"
     inkscape:window-width="1920"
     inkscape:window-height="1006"
     inkscape:window-x="0"
     inkscape:window-y="0"
     inkscape:window-maximized="1"
     inkscape:current-layer="svg5" />
  <defs
     id="defs2">
    <linearGradient
       inkscape:collect="always"
       id="linearGradient1871">
      <stop
         style="stop-color:#ffffff;stop-opacity:1;"
         offset="0"
         id="stop1867" />
      <stop
         style="stop-color:#ffffff;stop-opacity:0.1"
         offset="0.12"
         id="stop2515" />
      <stop
         style="stop-color:#ffffff;stop-opacity:0.102"
         offset="0.89999998"
         id="stop2581" />
      <stop
         style="stop-color:#ffffff;stop-opacity:0.502"
         offset="1"
         id="stop1869" />
    </linearGradient>
    <linearGradient
       inkscape:collect="always"
       xlink:href="#linearGradient1871"
       id="linearGradient1178"
       x1="1.5937018"
       y1="0.26458335"
       x2="1.5937018"
       y2="6.0854168"
       gradientUnits="userSpaceOnUse" />
  </defs>
  <path
     d="m 1.6344609,0.26458334 c -1.3619057,0 -1.50844254,0.11445611 -1.50176975,1.23104016 V 3.0427719 5.1189653 C 0.12599715,6.2355467 0.2725552,6.3500002 1.6344609,6.3500002 h 3.0816683 c 1.3619031,0 1.5017697,-0.1144376 1.5017697,-1.2310349 V 3.0427719 1.4956235 C 6.217899,0.37902886 6.0780296,0.26458334 4.7161266,0.26458334 Z"
     style="color:#000000;display:inline;overflow:visible;visibility:visible;opacity:0.1;fill:#000000;fill-opacity:1;fill-rule:nonzero;stroke:none;stroke-width:0.264591;marker:none;enable-background:accumulate"
     id="path1338" />
  <path
     d="m 1.6344609,0.13229167 c -1.3619057,0 -1.50844254,0.11445611 -1.50176975,1.23104013 V 2.9104802 4.9866736 C 0.12599715,6.103255 0.2725552,6.2177085 1.6344609,6.2177085 h 3.0816683 c 1.3619031,0 1.5017697,-0.1144376 1.5017697,-1.2310349 V 2.9104802 1.3633318 c 0,-1.11659461 -0.1398693,-1.23104013 -1.5017723,-1.23104013 z"
     style="color:#000000;display:inline;overflow:visible;visibility:visible;fill:#e7e7df;fill-opacity:1;fill-rule:nonzero;stroke:none;stroke-width:0.264591;marker:none;enable-background:accumulate"
     id="path908-3"
     sodipodi:nodetypes="scccssscsss" />
  <path
     id="rect22"
     style="fill:#847d6c;fill-opacity:1;stroke:none;stroke-width:0.264583"
     d="M 2.1166667,0.52916667 V 1.9843751 H 0.52916667 V 2.2489584 H 2.1166667 V 4.1010418 H 0.52916667 V 4.3656251 H 2.1166667 V 5.8208334 H 2.3812501 V 4.3656251 h 1.5875 V 5.8208334 H 4.2333334 V 4.3656251 H 5.8208335 V 4.1010418 H 4.2333334 V 2.2489584 H 5.8208335 V 1.9843751 H 4.2333334 V 0.52916667 H 3.9687501 V 1.9843751 h -1.5875 V 0.52916667 Z M 2.3812501,2.2489584 h 1.5875 v 1.8520834 h -1.5875 z m 2.8168823,0.2821533 -0.024289,5.16e-4 c -0.1018657,0.00134 -0.1939074,0.018781 -0.275952,0.05271 -0.081903,0.033871 -0.1526617,0.082847 -0.2108399,0.146761 -0.057086,0.064108 -0.1011496,0.1434382 -0.1322916,0.2371949 v 5.291e-4 c -0.030032,0.092837 -0.044959,0.1987119 -0.044959,0.3178101 0,0.1631794 0.031379,0.2934433 0.097152,0.3891236 0.066326,0.096484 0.1699662,0.1457274 0.3007569,0.1457274 0.063821,0 0.1204725,-0.012438 0.1684652,-0.038241 h 5.292e-4 c 0.046415,-0.026339 0.085176,-0.060012 0.1152385,-0.1007689 v -5.292e-4 c 0.029454,-0.041307 0.051518,-0.086081 0.065629,-0.1343588 v -5.292e-4 c 0.013888,-0.048871 0.021188,-0.09684 0.021188,-0.1436605 0,-0.05028 -0.00645,-0.099059 -0.019121,-0.146761 -0.012838,-0.048314 -0.033803,-0.091497 -0.062528,-0.1281575 l -5.291e-4,-5.292e-4 c -0.029326,-0.038492 -0.068464,-0.069238 -0.116272,-0.091467 v 5.291e-4 c -0.047965,-0.022921 -0.1047914,-0.034107 -0.1705321,-0.034107 -0.040735,0 -0.079979,0.00478 -0.1173057,0.01447 h -5.292e-4 c -0.015729,0.00423 -0.029114,0.011205 -0.043925,0.016536 0.012517,-0.043345 0.0245,-0.088077 0.042892,-0.1198893 0.026149,-0.045229 0.058205,-0.080944 0.096118,-0.1085205 v -5.291e-4 h 5.291e-4 c 0.038208,-0.028999 0.080999,-0.049315 0.129708,-0.061495 h 5.292e-4 c 0.05078,-0.013651 0.1072862,-0.021476 0.1694987,-0.022738 l 0.028422,-5.159e-4 z M 4.8916911,3.1884359 h 0.00156 c 0.066136,0 0.1080339,0.017989 0.1348753,0.052193 h 5.292e-4 v 5.292e-4 c 0.028632,0.035184 0.044958,0.088857 0.044958,0.1643311 0,0.024934 -0.00347,0.052131 -0.010335,0.081649 v 5.292e-4 5.292e-4 c -0.00544,0.026899 -0.015521,0.050966 -0.029456,0.072864 -0.01374,0.021593 -0.030552,0.039382 -0.051676,0.05426 -0.019098,0.012322 -0.043513,0.019121 -0.075964,0.019121 -0.039334,0 -0.069036,-0.00869 -0.091467,-0.024289 -0.024051,-0.017989 -0.043187,-0.041314 -0.058395,-0.071313 v -5.29e-4 L 4.7557932,3.5377814 C 4.7414369,3.5054695 4.730626,3.4688196 4.723754,3.4271938 V 3.4266646 C 4.717924,3.3826136 4.714974,3.3360496 4.714974,3.2866215 v -0.038757 c 0,-0.00686 6.88e-4,-0.013806 0.00103,-0.020672 0.026009,-0.011509 0.051675,-0.021749 0.076481,-0.027905 0.029861,-0.00714 0.062997,-0.010739 0.099219,-0.010853 z"
     sodipodi:nodetypes="ccccccccccccccccccccccccccccccccccccscccsssccccccscccccscccscccccccccscccscccscsccccccsscccc" />
  <rect
     style="fill:#f2f2f2;fill-opacity:1;stroke-width:0.529167;stroke-linecap:round;stroke-linejoin:round"
     id="rect1133"
     width="1.3229166"
     height="1.8520833"
     x="0.79374999"
     y="2.2489583" />
  <path
     id="path1000"
     style="color:#000000;fill:#1a1a1a;stroke:none;stroke-width:0.0529193;-inkscape-stroke:none"
     d="m 1.4257528,2.5311117 c -0.041573,0 -0.081331,0.00529 -0.118339,0.016536 -0.035917,0.010918 -0.068705,0.02469 -0.098702,0.041341 -0.028268,0.01507 -0.053156,0.03175 -0.074414,0.050126 -0.020249,0.017503 -0.035673,0.032404 -0.047026,0.045992 l -0.012919,0.015503 0.1049031,0.157613 0.022738,-0.024289 c 0.00585,-0.00622 0.016339,-0.015581 0.030489,-0.026872 l 5.159e-4,-5.291e-4 5.159e-4,-5.292e-4 c 0.01346,-0.01188 0.029577,-0.02382 0.048061,-0.036148 l 5.159e-4,-5.16e-4 c 0.01878,-0.011692 0.039862,-0.022051 0.063562,-0.030489 0.02397,-0.00811 0.050753,-0.011886 0.080099,-0.011886 0.02441,0 0.046294,0.00349 0.066663,0.010335 0.019682,0.00661 0.03629,0.016827 0.050643,0.031006 l 5.159e-4,5.159e-4 0.00103,5.16e-4 c 0.014909,0.012689 0.026198,0.028836 0.034624,0.050127 l 5.159e-4,5.292e-4 v 5.292e-4 c 0.00914,0.020526 0.014469,0.047131 0.014469,0.079582 0,0.027847 -0.0055,0.054635 -0.016536,0.081649 v 5.291e-4 h -5.16e-4 c -0.01016,0.026421 -0.02394,0.05229 -0.042375,0.078032 l -5.159e-4,5.291e-4 v 5.292e-4 c -0.017478,0.026032 -0.03868,0.052076 -0.063562,0.078548 l -5.159e-4,5.292e-4 c -0.024364,0.027217 -0.050166,0.055169 -0.076998,0.083716 -0.03321,0.035332 -0.066864,0.072141 -0.1012858,0.1100706 -0.034065,0.037585 -0.064763,0.077482 -0.092501,0.1204063 -0.028035,0.043385 -0.051418,0.089718 -0.069246,0.1384927 -0.018301,0.050068 -0.027389,0.1042072 -0.027389,0.1617472 v 0.021704 c 0,0.00818 0.00106,0.016192 0.00259,0.024289 l 0.00413,0.021704 H 1.8474352 V 3.6324113 H 1.3317017 c 0.00299,-0.010311 0.00299,-0.017841 0.010335,-0.031523 0.013923,-0.025924 0.031909,-0.052379 0.053227,-0.080098 0.021659,-0.028164 0.044127,-0.055776 0.068213,-0.082682 0.024413,-0.027272 0.045892,-0.050931 0.064079,-0.07028 0.033322,-0.035451 0.0661,-0.071242 0.098185,-0.108004 0.032474,-0.037207 0.06114,-0.075457 0.0863,-0.1142047 l 5.159e-4,-5.292e-4 c 0.026529,-0.039069 0.047627,-0.078988 0.063045,-0.1198893 v -5.292e-4 c 0.017047,-0.042073 0.025838,-0.08581 0.025838,-0.1307414 0,-0.1127491 -0.030764,-0.2034086 -0.094051,-0.2666504 -0.062827,-0.065439 -0.1583742,-0.096168 -0.2816358,-0.096168 z" />
  <path
     d="m 1.5938923,0.26458334 c -0.61390475,0 -0.95498972,0.0409945 -1.11311002,0.16433006 C 0.40171949,0.4905825 0.3512317,0.5735558 0.3154177,0.71882 0.27959047,0.8640816 0.2647738,1.0674483 0.2647738,1.3358363 v 1.5745804 2.1036598 c 0,0.2683854 0.0148167,0.4717521 0.0506439,0.6170163 0.035814,0.1452642 0.0863018,0.2282376 0.16536458,0.2899066 0.1581203,0.1233356 0.49920527,0.1643301 1.11311002,0.1643301 h 3.1624059 c 0.6140583,0 0.956871,-0.040897 1.1156951,-0.1643301 0.079412,-0.061719 0.1298972,-0.1448699 0.1653646,-0.2899066 0.035465,-0.145034 0.049646,-0.3482525 0.048059,-0.6165003 V 2.9104167 1.3353204 C 6.0870043,1.0670699 6.0728226,0.8638567 6.0373579,0.71882 6.0018878,0.5737834 5.9514053,0.4906328 5.8719933,0.4289134 5.7131692,0.30547999 5.3703565,0.26458334 4.7562982,0.26458334 Z M 2.9058526,0.5317517 c 0.4179888,-5.292e-4 1.1007038,-1.032e-4 1.5186846,0.0031 0.3969306,0.01352 0.7996661,-0.018838 1.190625,0.074933 0.1458146,0.024315 0.1621976,0.1899894 0.1793161,0.3085069 0.029554,1.1399096 0.019844,2.8114837 0.013441,3.9531608 -0.018944,0.262173 0.036213,0.5492909 -0.079581,0.7973642 -0.090901,0.1083791 -0.2564876,0.095134 -0.383956,0.1204045 -1.046181,0.021775 -2.6271432,0.013203 -3.6760706,0.00982 C 1.3589926,5.78258 1.0404766,5.8289112 0.73761862,5.740125 0.58433227,5.7141958 0.57524383,5.5392692 0.55571758,5.4171481 0.52539633,4.3275013 0.53584737,2.7065659 0.54124487,1.6154004 0.55637904,1.334135 0.52015758,1.0419583 0.58930379,0.7648046 0.61707181,0.5958417 0.81721588,0.5900658 0.95103948,0.5689521 1.5147343,0.5169403 2.337644,0.5407422 2.9058553,0.5317464 Z"
     style="color:#000000;display:inline;overflow:visible;visibility:visible;fill:url(#linearGradient1178);fill-opacity:1;fill-rule:nonzero;stroke:none;stroke-width:0.264583;marker:none;enable-background:accumulate;opacity:0.7"
     id="path1082" />
  <path
     d="M 1.5937018,0 C 0.97181192,0 0.58184518,0.0151077 0.31832547,0.22065721 0.18656826,0.32343197 0.10345734,0.4730009 0.0583935,0.6557751 0.0133323,0.8385466 0,1.0583466 0,1.3358363 v 1.5745804 2.1037472 c 0,0.2774897 0.013335,0.4972896 0.0583935,0.6800612 0.04506384,0.1827741 0.12817476,0.332859 0.25993197,0.4356338 0.26351971,0.2055468 0.65348645,0.2201413 1.27537633,0.2201413 h 3.1625964 c 0.6220408,0 1.0135977,-0.014684 1.2779587,-0.2201413 C 6.1664375,6.0271318 6.2494373,5.8772268 6.2941889,5.6942251 6.3388744,5.5115038 6.3516061,5.2911985 6.3500001,5.0141639 V 5.0131055 2.9104167 1.3368682 1.3358098 C 6.3515876,1.0587752 6.3388612,0.8384699 6.2941889,0.6557486 6.2494373,0.4727496 6.1664375,0.32284195 6.0342569,0.22011482 5.7698985,0.01468702 5.378339,0 4.7562982,0 Z m 0,0.26458334 h 3.1625964 c 0.6140583,0 0.956355,0.0414126 1.1151791,0.16484866 0.079409,0.061717 0.1304105,0.1443514 0.1658806,0.289388 0.03547,0.145034 0.049652,0.3482525 0.048059,0.6164977 v 5.292e-4 1.5745804 2.1042631 C 6.0870043,5.2829382 6.0728226,5.4861567 6.0373579,5.6311907 6.0018905,5.7762274 5.9508894,5.859378 5.8714773,5.9210973 5.7126506,6.0445308 5.3703565,6.0854274 4.7562982,6.0854274 H 1.5937018 c -0.61390211,0 -0.95447114,-0.040995 -1.11259408,-0.1643301 C 0.40204757,5.8594283 0.3510412,5.7764549 0.3152272,5.6311907 0.27941055,5.4859186 0.2645833,5.2825519 0.2645833,5.0141639 V 2.9104167 1.3358363 C 0.2645833,1.0674483 0.2794,0.8646001 0.3152272,0.719336 0.3510412,0.5740718 0.40204757,0.4905825 0.48110772,0.4289134 0.63923066,0.30557788 0.97979969,0.26458334 1.5937018,0.26458334 Z"
     style="color:#000000;display:inline;opacity:0.4;fill:#000000;stroke-width:0.264583;-inkscape-stroke:none;enable-background:new"
     id="path1222" />
</svg>
