<?xml version="1.0" encoding="UTF-8" standalone="no"?>
<!-- Created with Inkscape (http://www.inkscape.org/) -->

<svg
   width="24"
   height="24"
   viewBox="0 0 6.35 6.35"
   version="1.1"
   id="svg5"
   sodipodi:docname="system-help.svg"
   inkscape:version="1.1.2 (0a00cf5339, 2022-02-04, custom)"
   xmlns:inkscape="http://www.inkscape.org/namespaces/inkscape"
   xmlns:sodipodi="http://sodipodi.sourceforge.net/DTD/sodipodi-0.dtd"
   xmlns:xlink="http://www.w3.org/1999/xlink"
   xmlns="http://www.w3.org/2000/svg"
   xmlns:svg="http://www.w3.org/2000/svg">
  <sodipodi:namedview
     id="namedview7"
     pagecolor="#ffffff"
     bordercolor="#666666"
     borderopacity="1.0"
     inkscape:pageshadow="2"
     inkscape:pageopacity="0.0"
     inkscape:pagecheckerboard="0"
     inkscape:document-units="px"
     showgrid="false"
     units="px"
     height="48px"
     showguides="false"
     inkscape:zoom="33.75"
     inkscape:cx="12"
     inkscape:cy="12"
     inkscape:window-width="1920"
     inkscape:window-height="1012"
     inkscape:window-x="0"
     inkscape:window-y="0"
     inkscape:window-maximized="1"
     inkscape:current-layer="svg5" />
  <defs
     id="defs2">
    <linearGradient
       inkscape:collect="always"
       id="linearGradient2014">
      <stop
         style="stop-color:#37a6e7;stop-opacity:1"
         offset="0"
         id="stop2010" />
      <stop
         style="stop-color:#1a7fe4;stop-opacity:1"
         offset="1"
         id="stop2012" />
    </linearGradient>
    <linearGradient
       inkscape:collect="always"
       id="linearGradient1871">
      <stop
         style="stop-color:#ffffff;stop-opacity:1;"
         offset="0"
         id="stop1867" />
      <stop
         style="stop-color:#ffffff;stop-opacity:0.1"
         offset="0.12"
         id="stop2515" />
      <stop
         style="stop-color:#ffffff;stop-opacity:0.102"
         offset="0.89999998"
         id="stop2581" />
      <stop
         style="stop-color:#ffffff;stop-opacity:0.502"
         offset="1"
         id="stop1869" />
    </linearGradient>
    <linearGradient
       inkscape:collect="always"
       xlink:href="#linearGradient1871"
       id="linearGradient1198"
       x1="6.3499999"
       y1="0.52916658"
       x2="6.3499994"
       y2="12.170834"
       gradientUnits="userSpaceOnUse"
       gradientTransform="scale(1.8897639)" />
    <linearGradient
       inkscape:collect="always"
       xlink:href="#linearGradient2014"
       id="linearGradient2016"
       x1="9.921875"
       y1="11.1125"
       x2="2.7781253"
       y2="1.5874999"
       gradientUnits="userSpaceOnUse"
       gradientTransform="matrix(0.51111109,0,0,0.51111109,-0.07055533,-0.07055533)" />
  </defs>
  <circle
     style="fill:url(#linearGradient2016);fill-opacity:1;stroke-width:0.270463;stroke-linecap:round;stroke-linejoin:round"
     id="path986"
     cx="3.175"
     cy="3.175"
     r="3.0427084" />
  <path
     id="rect13049"
     style="opacity:0.1;fill:#ffffff;stroke-width:0.999999;stroke-linecap:round;stroke-linejoin:round"
     d="M 0.5 12 A 11.5 11.5 0 0 0 12 23.5 A 11.5 11.5 0 0 0 23.5 12 L 0.5 12 z "
     transform="scale(0.26458333)" />
  <path
     id="rect1071"
     style="fill:#ffffff;fill-opacity:1;stroke-width:0.137428;stroke-linecap:round;stroke-linejoin:round"
     d="M 3.1671982,1.11125 C 2.9912918,1.11125 2.8244596,1.131332 2.666877,1.171642 2.5129589,1.211954 2.3735587,1.265114 2.2489583,1.3310793 l 0.143064,0.3959093 C 2.6228994,1.6023883 2.8592973,1.539905 3.1011686,1.539905 c 0.1905652,0 0.3353445,0.049484 0.4342917,0.1484323 0.098947,0.095283 0.1484322,0.2199807 0.1484323,0.3738989 0,0.095282 -0.022054,0.1832259 -0.06603,0.2638496 -0.040312,0.080624 -0.093472,0.1575405 -0.1594368,0.2308349 -0.065964,0.073295 -0.1355306,0.1465358 -0.208825,0.21983 -0.073295,0.06963 -0.1428602,0.1465464 -0.208825,0.230835 -0.065964,0.080624 -0.1210972,0.168567 -0.1650739,0.2638496 -0.040312,0.095282 -0.060393,0.2016035 -0.060393,0.3188743 0,0.080624 0.00735,0.1575405 0.022011,0.2308349 h 0.4286547 c -0.00367,-0.018323 -0.00537,-0.038405 -0.00537,-0.060392 v -0.060394 c 0,-0.1209357 0.023756,-0.2289599 0.071398,-0.3242425 0.047646,-0.098947 0.1061859,-0.1888627 0.1758156,-0.2694864 0.06963,-0.084288 0.1465464,-0.1648808 0.2308347,-0.24184 0.084289,-0.076959 0.1614739,-0.1575513 0.2311034,-0.2418397 0.06963,-0.084288 0.1281689,-0.1742037 0.1758102,-0.2694864 0.047641,-0.098947 0.071398,-0.2106471 0.071398,-0.3352474 0,-0.098947 -0.016405,-0.2015927 -0.049388,-0.3078694 C 4.1382545,1.6004057 4.0831222,1.5014359 4.0024983,1.4134827 3.9218746,1.3255295 3.8138504,1.2542601 3.6782559,1.1992894 3.5463261,1.1406538 3.3760869,1.11125 3.1671982,1.11125 Z m -0.08804,3.2322256 c -0.1136061,0 -0.2035214,0.036755 -0.2694863,0.1100491 -0.065964,0.073295 -0.098776,0.1592657 -0.098776,0.2582132 0,0.098947 0.032812,0.1851869 0.098776,0.2584813 C 2.8756359,5.0435142 2.9655521,5.08 3.0791582,5.08 c 0.1136063,0 0.203253,-0.036487 0.2692179,-0.1097808 0.065964,-0.073295 0.099044,-0.1595341 0.099044,-0.2584813 0,-0.098948 -0.03308,-0.1849188 -0.099044,-0.2582132 C 3.2824121,4.3802304 3.192765,4.3434756 3.0791582,4.3434756 Z" />
  <path
     id="path4344"
     style="opacity:0.4;fill:#000000;fill-opacity:1;stroke-width:1.6;stroke-linecap:round;stroke-linejoin:round"
     d="M 12,0 C 5.372583,1.2369363e-7 1.0909091e-7,5.372583 0,12 0,18.627416 5.372583,24 12,24 18.627417,24 24,18.627416 24,12 24,5.372583 18.627417,0 12,0 Z m 0,1 A 11,11 0 0 1 23,12 11,11 0 0 1 12,23 11,11 0 0 1 1,12 11,11 0 0 1 12,1 Z"
     transform="scale(0.26458333)" />
  <path
     id="path1110"
     style="fill:url(#linearGradient1198);fill-opacity:1;stroke-width:1;stroke-linecap:round;stroke-linejoin:round"
     d="m 12,1 c -6.0751324,-8e-8 -11.00000008,4.9248676 -11,11 2e-7,6.075132 4.9248676,11 11,11 6.075132,0 11,-4.924868 11,-11 C 23,5.9248676 18.075132,1.0000002 12,1 Z m 0,1 C 17.522848,2 22,6.4771525 22,12 22,17.522847 17.522847,22 12,22 6.4771525,22 2,17.522848 2,12 1.9999996,6.4771525 6.4771525,1.9999996 12,2 Z"
     transform="scale(0.26458333)" />
</svg>
