<?xml version="1.0" encoding="UTF-8" standalone="no"?>
<!-- Created with Inkscape (http://www.inkscape.org/) -->

<svg
   width="16"
   height="16"
   viewBox="0 0 4.2333332 4.2333335"
   version="1.1"
   id="svg5"
   inkscape:version="1.1.2 (0a00cf5339, 2022-02-04)"
   sodipodi:docname="microsoft-edge-symbolic.svg"
   xmlns:inkscape="http://www.inkscape.org/namespaces/inkscape"
   xmlns:sodipodi="http://sodipodi.sourceforge.net/DTD/sodipodi-0.dtd"
   xmlns="http://www.w3.org/2000/svg"
   xmlns:svg="http://www.w3.org/2000/svg">
  <sodipodi:namedview
     id="namedview7"
     pagecolor="#ffffff"
     bordercolor="#666666"
     borderopacity="1.0"
     inkscape:pageshadow="2"
     inkscape:pageopacity="0.0"
     inkscape:pagecheckerboard="0"
     inkscape:document-units="px"
     showgrid="false"
     units="px"
     inkscape:zoom="49.0625"
     inkscape:cx="7.9898089"
     inkscape:cy="8"
     inkscape:window-width="1920"
     inkscape:window-height="1012"
     inkscape:window-x="0"
     inkscape:window-y="0"
     inkscape:window-maximized="1"
     inkscape:current-layer="svg5" />
  <defs
     id="defs2" />
  <path
     id="path1152"
     style="fill:#808080;fill-opacity:1;stroke-width:0.0165342"
     d="M 2.1166666,0 C 1.012926,0.00218728 0.09730503,0.85166548 0.01085205,1.9497518 0.09781628,1.4185857 0.64448716,1.0064769 1.2908772,0.99373779 c 0.01026,-2.0222e-4 0.02018,0 0.030489,0 0.057874,0 0.3879644,0.006047 0.6945312,0.16691491 0.2701888,0.1418546 0.4116606,0.312862 0.5100464,0.4826578 0.078106,0.1348344 0.105979,0.2933011 0.1152384,0.4015259 0.00266,0.018959 0.00459,0.038092 0.00517,0.057361 2.91e-4,0.0092 0.00156,0.022067 0.00156,0.029456 0,0.088786 -0.045524,0.2203928 -0.129191,0.3291789 -0.01339,0.017357 -0.05426,0.041809 -0.05426,0.094051 0,0.043153 0.028091,0.084489 0.078032,0.1193726 0.237779,0.1653299 0.6861395,0.1436605 0.6872965,0.1436605 0.176198,-4.233e-4 0.348732,-0.048533 0.5002279,-0.138493 C 4.0409579,2.4978763 4.2326022,2.1656096 4.2333333,1.8055745 4.2376333,1.4350721 4.1009768,1.1886378 4.0457479,1.0795207 3.6953629,0.39423226 2.9391395,0 2.1166666,0 Z M 1.3213664,1.2583211 c -0.65978605,0 -1.22216974,0.4164169 -1.31051435,0.956014 -0.00117801,0.00821 -0.00264237,0.016607 -0.00361735,0.024805 l -5.1676e-4,0.00413 c -9.827e-5,0.00104 -4.0952e-4,0.00206 -5.1675e-4,0.0031 C 0.02328865,2.5119444 0.08953947,2.7726285 0.20205485,3.014803 0.57871629,3.818364 1.4035601,4.2832821 2.2536092,4.2286824 2.0293456,4.1457197 1.8467456,4.0629453 1.749764,3.9920044 L 1.748214,3.9914753 C 1.6008337,3.8998871 1.4731308,3.7799131 1.372526,3.6385375 0.90743703,2.9987973 1.0990494,2.1025674 1.7725016,1.7053222 1.9003116,1.6307972 1.9585235,1.5901412 2.1166667,1.5885335 2.0965025,1.5211531 2.0972105,1.4943916 1.984375,1.4221354 1.6778082,1.2612676 1.3792404,1.2583211 1.3213664,1.2583211 Z m 0.3395141,2.3011515 c 0.1101071,0.1547286 0.2500453,0.2857537 0.4113444,0.3860229 l 0.00155,0.00103 c 0.1907734,0.1193374 0.4064934,0.1884609 0.6278688,0.2041218 0.028844,-0.00828 0.057586,-0.016785 0.086299,-0.026355 -0.011769,0.003 -0.023807,0.00567 -0.035657,0.00827 0.010771,-0.0031 0.02382,-0.00569 0.03359,-0.00878 l 0.021704,-0.00723 C 3.2631726,3.9590646 3.6515344,3.6508062 3.9088054,3.2432125 3.9455251,3.1853417 3.8808853,3.1169406 3.8209553,3.150195 3.7645154,3.1797101 3.705934,3.2058694 3.646289,3.2282265 3.4564521,3.2992554 3.2557354,3.3350747 3.0530434,3.33468 c -0.7797,0 -1.4592131,-0.534048 -1.4639932,-1.2211142 -0.2954316,0.6233 -0.1990605,1.0643835 0.07183,1.4459068 z"
     sodipodi:nodetypes="ccssccccscsccccccsccccccccccccscccccccccccccc" />
</svg>
