<svg width="24" height="24" enable-background="new" version="1.0" xmlns="http://www.w3.org/2000/svg" xmlns:xlink="http://www.w3.org/1999/xlink">
 <title>Suru Icon Theme Template</title>
 <defs>
  <linearGradient id="linearGradient916" x1="459.03" x2="35.31" y1="419.23" y2="207.37" gradientTransform="matrix(0 -.056641 -.056639 0 349.74 214)" gradientUnits="userSpaceOnUse">
   <stop stop-color="#8c59d9" offset="0"/>
   <stop stop-color="#a7a7f1" offset="1"/>
  </linearGradient>
  <linearGradient id="linearGradient981" x1="332" x2="332" y1="189" y2="211" gradientUnits="userSpaceOnUse">
   <stop stop-color="#fff" offset="0"/>
   <stop stop-color="#fff" stop-opacity=".098039" offset=".125"/>
   <stop stop-color="#fff" stop-opacity=".098039" offset=".925"/>
   <stop stop-color="#fff" stop-opacity=".49804" offset="1"/>
  </linearGradient>
  <clipPath id="clipPath971-7">
   <path d="m327.87 189c-4.4121 0-4.8868 0.45318-4.8652 4.8742v6.1258 6.1258c-0.0217 4.421 0.45311 4.8742 4.8652 4.8742h8.2696c4.4121 0 4.8652-0.45312 4.8652-4.8742v-6.1258-6.1258c0-4.4211-0.45312-4.8742-4.8652-4.8742z" color="#000000" enable-background="accumulate" fill="#46a926"/>
  </clipPath>
 </defs>
 <g transform="translate(0,-176)">
  <g transform="translate(-320,-12)" enable-background="new">
   <rect x="320" y="188" width="24" height="24" enable-background="accumulate" opacity="0" stroke-width="2"/>
   <path d="m327.87 189c-1.1201 0-2.0152 0.0241-2.791 0.1543-0.77577 0.13022-1.4801 0.38763-2.0098 0.91601-0.52962 0.52838-0.79079 1.2369-0.91992 2.0137-0.12912 0.77681-0.15002 1.6717-0.14453 2.7949v6.1211 5.125c-5e-3 1.121 0.0156 2.0153 0.14453 2.791 0.12912 0.77681 0.39029 1.4853 0.91992 2.0137 0.52964 0.52838 1.234 0.78579 2.0098 0.91601s1.6709 0.1543 2.791 0.1543h8.2695c1.1201 0 2.0126-0.024 2.7871-0.1543 0.77446-0.13033 1.48-0.38927 2.0078-0.91797 0.5278-0.52869 0.78594-1.2344 0.91601-2.0098 0.13007-0.77539 0.1543-1.6706 0.1543-2.793v-5.125-6.125c0-1.1224-0.0242-2.0176-0.1543-2.793-0.13007-0.77538-0.38821-1.4811-0.91601-2.0098-0.5278-0.5287-1.2333-0.78764-2.0078-0.91797-0.77448-0.13033-1.667-0.1543-2.7871-0.1543z" color="#000000" color-rendering="auto" dominant-baseline="auto" enable-background="accumulate" image-rendering="auto" opacity=".1" shape-rendering="auto" solid-color="#000000" style="font-feature-settings:normal;font-variant-alternates:normal;font-variant-caps:normal;font-variant-ligatures:normal;font-variant-numeric:normal;font-variant-position:normal;isolation:auto;mix-blend-mode:normal;shape-padding:0;text-decoration-color:#000000;text-decoration-line:none;text-decoration-style:solid;text-indent:0;text-orientation:mixed;text-transform:none;white-space:normal"/>
   <path d="m336.13 188.5c1.1116 0 1.9868 0.0256 2.707 0.14648 0.72019 0.1209 1.3105 0.34863 1.7422 0.7793 0.43169 0.43067 0.65954 1.0197 0.7793 1.7402 0.11977 0.72049 0.14217 1.5967 0.13672 2.7109v6.123 6.125c5e-3 1.1131-0.017 1.989-0.13672 2.709-0.11976 0.72051-0.3476 1.3096-0.7793 1.7402-0.43169 0.43067-1.022 0.6584-1.7422 0.7793-0.7202 0.12089-1.5954 0.14648-2.707 0.14648h-8.2695c-1.1116 0-1.9864-0.0255-2.7051-0.14648-0.7187-0.12095-1.3062-0.34848-1.7363-0.7793-0.4301-0.43083-0.6566-1.0185-0.77735-1.7383-0.12074-0.71979-0.14648-1.5971-0.14648-2.7109v-6.125-6.125c0-1.1138 0.0257-1.9912 0.14648-2.7109 0.12075-0.71979 0.34725-1.3074 0.77735-1.7383 0.4301-0.43082 1.0176-0.65835 1.7363-0.7793 0.7187-0.12094 1.5935-0.14648 2.7051-0.14648z" color="#000000" enable-background="accumulate" fill="url(#linearGradient916)"/>
   <path d="m331 197v2.75c1e-5 0.1385 0.1115 0.25 0.25 0.25h1.5c0.1385 0 0.25-0.1115 0.25-0.25v-2.75zm0.5 1.5h1v1h-1z" color="#000000" enable-background="accumulate" opacity=".2"/>
   <path d="m332 189v1h1v-1zm0 1h-1v1h1zm0 1v1h1v-1zm0 1h-1v1h1zm0 1v1h1v-1zm0 1h-1v1h1zm0 1v1h1v-1z" color="#000000" enable-background="accumulate" opacity=".2"/>
   <path d="m331 196v2.75c1e-5 0.1385 0.1115 0.25 0.25 0.25h1.5c0.1385 0 0.25-0.1115 0.25-0.25v-2.75zm0.5 1.5h1v1h-1z" color="#000000" enable-background="accumulate" fill="#fff"/>
   <path d="m332 189h-1v1h1zm0 1v1h1v-1zm0 1h-1v1h1zm0 1v1h1v-1zm0 1h-1v1h1zm0 1v1h1v-1z" color="#000000" enable-background="accumulate" fill="#fff"/>
   <path d="m325 207.94c0-0.0589 0.92939-4.5285 0.97114-4.6696 0.0229-0.0771 0.10967-0.0807 1.6243-0.0673l1.6002 0.0144 0.26298 0.12911c0.27227 0.1337 0.48934 0.37728 0.59738 0.67031 0.0825 0.22355 0.069 0.58524-0.0316 0.85439-0.21995 0.58787-0.58687 0.87556-1.2639 0.99093l-0.166 0.0283 0.25192 0.3686c0.13854 0.20272 0.33128 0.53725 0.42832 0.74341 0.0971 0.20615 0.19326 0.35758 0.21383 0.33652 0.0206-0.0211 0.54041-0.95704 1.1552-2.0799l1.1178-2.0416h1.6024l0.14679 1.0769c0.41434 3.0399 0.43583 3.1799 0.47118 3.0709 0.0195-0.0602 0.21856-0.98774 0.44232-2.0613 0.22378-1.0735 0.41785-1.9886 0.43125-2.0334 0.0231-0.0771 0.1099-0.0807 1.6245-0.0671 1.7367 0.0157 1.749 0.0173 2.0987 0.28404 0.21359 0.16292 0.42129 0.60768 0.42129 0.90215 0 0.28882-0.13659 0.67146-0.33092 0.92703-0.17946 0.23604-0.55842 0.46765-0.83069 0.50776-0.38795 0.057-0.38738 0.0559-0.16295 0.35552 0.24206 0.32318 0.61001 1.0444 0.76072 1.491l0.10979 0.32533h-0.73771c-0.62324 0-0.73769-0.0105-0.73769-0.0668 0-0.11352-0.4394-1.1946-0.62029-1.5261-0.0943-0.17276-0.22039-0.33903-0.28033-0.36953-0.11843-0.0603-0.49037-0.0777-0.49037-0.023 0 0.0186-0.0687 0.35674-0.15259 0.75158-0.0839 0.39486-0.1762 0.83402-0.2051 0.97592l-0.0525 0.25802h-2.5513v-0.19566c0-0.10757-0.0128-0.28935-0.0286-0.40384l-0.0286-0.20818h-1.7193l-0.19795 0.40383-0.19795 0.40385h-1.1798c-1.0147 0-1.1798-9e-3 -1.1798-0.0668 0-0.11352-0.43939-1.1946-0.62028-1.5261-0.0943-0.17276-0.22041-0.33904-0.28034-0.36953-0.11843-0.0603-0.49039-0.0777-0.49039-0.023 0 0.0186-0.0687 0.35674-0.15257 0.7516-0.0839 0.39483-0.17621 0.834-0.2051 0.9759l-0.05249 0.25796h-0.69232c-0.52385 0-0.69237-0.0137-0.69248-0.0561zm7.6123-1.7948c-0.0143-0.10489-0.0498-0.59455-0.079-1.0881-0.029-0.49358-0.0659-0.92265-0.0818-0.95349-0.0246-0.048-1.0822 2.1042-1.0804 2.1987 4.4e-4 0.0186 0.28562 0.0337 0.63393 0.0337h0.63328zm-4.1706-1.0251c0.39094-0.18925 0.53592-0.66915 0.28655-0.94848l-0.13082-0.14655-0.68965-0.0144-0.68964-0.0143-0.10301 0.50782c-0.0567 0.2793-0.11375 0.55324-0.1267 0.60876l-0.0237 0.10092h0.64132c0.55941 0 0.66615-0.012 0.83562-0.094zm8.8845 0c0.39095-0.18925 0.53592-0.66915 0.28654-0.94848l-0.13081-0.14655-0.68965-0.0144-0.68964-0.0143-0.10301 0.50782c-0.0567 0.2793-0.11364 0.55324-0.12669 0.60876l-0.0237 0.10092h0.64133c0.55942 0 0.66614-0.012 0.83561-0.094z" enable-background="new" fill="#fff" opacity=".5" stroke-width=".044871"/>
   <path d="m323 200v6.125c-0.0217 4.421 0.45314 4.875 4.8652 4.875h8.2695c4.4121 0 4.8652-0.45393 4.8652-4.875v-6.125z" color="#000000" enable-background="accumulate" fill="#fff" opacity=".08"/>
   <path d="m332 189v22h4.1348c4.4121 0 4.8652-0.45393 4.8652-4.875v-6.125-6.125c0-4.4211-0.45314-4.875-4.8652-4.875z" color="#000000" enable-background="accumulate" fill="#fff" opacity=".08"/>
   <path d="m327.87 188.5c-1.1116 0-1.9868 0.0256-2.707 0.14648-0.72019 0.1209-1.3105 0.34863-1.7422 0.7793-0.43169 0.43067-0.65954 1.0197-0.7793 1.7402-0.11977 0.72049-0.14217 1.5967-0.13672 2.7109v6.123 6.125c-5e-3 1.1131 0.017 1.989 0.13672 2.709 0.11976 0.72051 0.3476 1.3096 0.7793 1.7402 0.43169 0.43067 1.022 0.6584 1.7422 0.7793 0.7202 0.12089 1.5954 0.14648 2.707 0.14648h8.2695c1.1116 0 1.9864-0.0255 2.7051-0.14648 0.7187-0.12095 1.3062-0.34848 1.7363-0.7793 0.4301-0.43083 0.6566-1.0185 0.77735-1.7383 0.12074-0.71979 0.14648-1.5971 0.14648-2.7109v-6.125-6.125c0-1.1138-0.0257-1.9912-0.14648-2.7109-0.12075-0.71979-0.34725-1.3074-0.77735-1.7383-0.4301-0.43082-1.0176-0.65835-1.7363-0.7793-0.7187-0.12094-1.5935-0.14648-2.7051-0.14648z" color="#000000" enable-background="accumulate" fill="none" opacity=".4" stroke="#000"/>
   <path transform="translate(1.5262e-6)" d="m327.87 189c-4.4121 0-4.8868 0.45318-4.8652 4.8742v6.1258 6.1258c-0.0217 4.421 0.45311 4.8742 4.8652 4.8742h8.2696c4.4121 0 4.8652-0.45312 4.8652-4.8742v-6.1258-6.1258c0-4.4211-0.45312-4.8742-4.8652-4.8742z" clip-path="url(#clipPath971-7)" color="#000000" enable-background="accumulate" fill="none" opacity=".4" stroke="url(#linearGradient981)" stroke-width="2"/>
  </g>
 </g>
</svg>
