<svg xmlns:dc="http://purl.org/dc/elements/1.1/" xmlns:cc="http://creativecommons.org/ns#" xmlns:rdf="http://www.w3.org/1999/02/22-rdf-syntax-ns#" xmlns:svg="http://www.w3.org/2000/svg" xmlns="http://www.w3.org/2000/svg" xmlns:xlink="http://www.w3.org/1999/xlink" style="display:inline;enable-background:new" version="1.0" id="svg11300" height="25" width="24">
  <title id="title3004">Suru Icon Theme Template</title>
  <defs id="defs3">
    <linearGradient y2="207.36522" x2="35.310345" y1="419.23337" x1="459.03448" gradientTransform="matrix(0,-0.05664062,0.05663901,0,314.2547,214)" gradientUnits="userSpaceOnUse" id="linearGradient916" xlink:href="#linearGradient4338"/>
    <linearGradient id="linearGradient4338">
      <stop id="stop4340" offset="0" style="stop-color:#f2f2f2;stop-opacity:1"/>
      <stop id="stop4342" offset="1" style="stop-color:#f9f9f9;stop-opacity:1"/>
    </linearGradient>
    <linearGradient gradientUnits="userSpaceOnUse" y2="211" x2="332" y1="189" x1="332" id="linearGradient981" xlink:href="#linearGradient927"/>
    <linearGradient id="linearGradient927">
      <stop id="stop923" offset="0" style="stop-color:#ffffff;stop-opacity:1;"/>
      <stop style="stop-color:#ffffff;stop-opacity:0.09803922" offset="0.125" id="stop933"/>
      <stop style="stop-color:#ffffff;stop-opacity:0.09803922" offset="0.92500001" id="stop931"/>
      <stop id="stop925" offset="1" style="stop-color:#ffffff;stop-opacity:0.49803922"/>
    </linearGradient>
  </defs>
  <metadata id="metadata4">
    <rdf:RDF>
      <cc:Work rdf:about="">
        <dc:format>image/svg+xml</dc:format>
        <dc:type rdf:resource="http://purl.org/dc/dcmitype/StillImage"/>
        <dc:creator>
          <cc:Agent>
            <dc:title>Sam Hewitt</dc:title>
          </cc:Agent>
        </dc:creator>
        <dc:source/>
        <cc:license rdf:resource="http://creativecommons.org/licenses/by-sa/4.0/"/>
        <dc:title>Suru Icon Theme Template</dc:title>
        <dc:subject>
          <rdf:Bag/>
        </dc:subject>
        <dc:date/>
        <dc:rights>
          <cc:Agent>
            <dc:title/>
          </cc:Agent>
        </dc:rights>
        <dc:publisher>
          <cc:Agent>
            <dc:title/>
          </cc:Agent>
        </dc:publisher>
        <dc:identifier/>
        <dc:relation/>
        <dc:language/>
        <dc:coverage/>
        <dc:description/>
        <dc:contributor>
          <cc:Agent>
            <dc:title/>
          </cc:Agent>
        </dc:contributor>
      </cc:Work>
      <cc:Work rdf:about="">
        <dc:format>image/svg+xml</dc:format>
        <dc:type rdf:resource="http://purl.org/dc/dcmitype/StillImage"/>
      </cc:Work>
      <cc:License rdf:about="http://creativecommons.org/licenses/by-sa/4.0/">
        <cc:permits rdf:resource="http://creativecommons.org/ns#Reproduction"/>
        <cc:permits rdf:resource="http://creativecommons.org/ns#Distribution"/>
        <cc:requires rdf:resource="http://creativecommons.org/ns#Notice"/>
        <cc:requires rdf:resource="http://creativecommons.org/ns#Attribution"/>
        <cc:permits rdf:resource="http://creativecommons.org/ns#DerivativeWorks"/>
        <cc:requires rdf:resource="http://creativecommons.org/ns#ShareAlike"/>
      </cc:License>
    </rdf:RDF>
  </metadata>
  <g transform="translate(-234,-150.5)" id="layer1" style="display:inline">
    <g id="layer7" style="display:inline"/>
    <g style="display:inline" id="layer4"/>
    <g style="display:inline" id="layer2"/>
    <g style="display:inline" id="layer6"/>
    <g style="display:inline" id="layer3"/>
    <g style="display:inline" id="layer5"/>
    <g style="display:inline" id="layer9">
      <g id="g3035" style="display:inline;enable-background:new" transform="translate(-86,-37.5)">
        <rect style="display:inline;overflow:visible;visibility:visible;opacity:0;fill:#cdcdcd;fill-opacity:1;fill-rule:nonzero;stroke:none;stroke-width:2;marker:none;enable-background:accumulate" id="rect24x24" width="24" height="24" x="320" y="188"/>
        <path style="color:#000000;font-style:normal;font-variant:normal;font-weight:normal;font-stretch:normal;font-size:medium;line-height:normal;font-family:sans-serif;font-variant-ligatures:normal;font-variant-position:normal;font-variant-caps:normal;font-variant-numeric:normal;font-variant-alternates:normal;font-feature-settings:normal;text-indent:0;text-align:start;text-decoration:none;text-decoration-line:none;text-decoration-style:solid;text-decoration-color:#000000;letter-spacing:normal;word-spacing:normal;text-transform:none;writing-mode:lr-tb;direction:ltr;text-orientation:mixed;dominant-baseline:auto;baseline-shift:baseline;text-anchor:start;white-space:normal;shape-padding:0;clip-rule:nonzero;display:inline;overflow:visible;visibility:visible;opacity:0.1;isolation:auto;mix-blend-mode:normal;color-interpolation:sRGB;color-interpolation-filters:linearRGB;solid-color:#000000;solid-opacity:1;vector-effect:none;fill:#000000;fill-opacity:1;fill-rule:nonzero;stroke:none;stroke-width:2;stroke-linecap:butt;stroke-linejoin:miter;stroke-miterlimit:4;stroke-dasharray:none;stroke-dashoffset:0;stroke-opacity:1;marker:none;color-rendering:auto;image-rendering:auto;shape-rendering:auto;text-rendering:auto;enable-background:accumulate" d="m 327.86523,189 c -1.12014,0 -2.01524,0.0241 -2.79101,0.1543 -0.77577,0.13022 -1.48014,0.38763 -2.00977,0.91601 -0.52962,0.52838 -0.79079,1.23687 -0.91992,2.01367 -0.12912,0.77681 -0.15002,1.67169 -0.14453,2.79493 V 201 v 6.125 c -0.005,1.12104 0.0156,2.01529 0.14453,2.79102 0.12912,0.77681 0.39029,1.48529 0.91992,2.01367 0.52964,0.52838 1.234,0.78579 2.00977,0.91601 0.77577,0.13022 1.67087,0.1543 2.79101,0.1543 h 8.26954 c 1.12013,0 2.01264,-0.024 2.78711,-0.1543 0.77446,-0.13033 1.48001,-0.38927 2.00781,-0.91797 0.5278,-0.52869 0.78594,-1.23438 0.91601,-2.00976 C 341.97577,209.14258 342,208.24735 342,207.125 V 201 195 l -6,-6 z" id="path995"/>
        <path style="color:#000000;display:inline;overflow:visible;visibility:visible;opacity:0.2;fill:none;fill-opacity:1;fill-rule:nonzero;stroke:#000000;stroke-width:2;stroke-miterlimit:4;stroke-dasharray:none;stroke-opacity:1;marker:none;enable-background:accumulate" d="m 327.8652,189 c -4.41209,0 -4.88682,0.45318 -4.8652,4.87419 V 200 206.12581 C 322.9783,210.54682 323.45311,211 327.8652,211 h 8.2696 C 340.54689,211 341,210.54688 341,206.12581 V 200 193.87419 L 336.13479,189 Z" id="path926"/>
        <path id="path914" d="m 327.8652,189 c -4.41209,0 -4.88682,0.45318 -4.8652,4.87419 V 200 206.12581 C 322.9783,210.54682 323.45311,211 327.8652,211 h 8.2696 C 340.54689,211 341,210.54688 341,206.12581 V 200 194 l -5,-5 z" style="color:#000000;display:inline;overflow:visible;visibility:visible;fill:url(#linearGradient916);fill-opacity:1;fill-rule:nonzero;stroke:none;stroke-width:1;marker:none;enable-background:accumulate"/>
        <path id="path1039" d="m 329.19213,200.55759 c 0,0 -1.96964,3.9198 -1.6612,5.56299 0.21451,1.14276 0.90361,1.71663 1.97299,2.14438 0.63387,0.25354 2.49551,-0.40566 2.49551,-0.40566 l -0.23797,-2.83955 h 0.23795 v 0 c 0,0 -1.19791,-0.53242 -1.52376,-2.58603 0,0 0.22559,1.9522 0.55143,2.0029" style="display:inline;opacity:1;fill:none;fill-rule:evenodd;stroke:#1463a5;stroke-width:0.99999994;stroke-linecap:round;stroke-linejoin:round;stroke-miterlimit:4;stroke-dasharray:none;stroke-opacity:1;enable-background:new"/>
        <path id="path1041" d="m 328.65374,197.44496 c -1.22819,-1.11554 -2.92058,-0.65918 -2.92058,-0.65918 0,0 0.80208,2.56067 2.30598,2.30714" style="display:inline;opacity:1;fill:none;fill-rule:evenodd;stroke:#1463a5;stroke-width:0.99999994;stroke-linecap:butt;stroke-linejoin:miter;stroke-miterlimit:4;stroke-dasharray:none;stroke-opacity:1;enable-background:new"/>
        <path id="path1043" d="m 328.70184,207.8593 c -0.40104,1.62261 0.75824,1.63998 3.29757,1.63998 2.53933,0 3.69861,-0.0174 3.29757,-1.63998" style="display:inline;opacity:1;fill:none;fill-rule:evenodd;stroke:#1463a5;stroke-width:0.99999994;stroke-linecap:round;stroke-linejoin:round;stroke-miterlimit:4;stroke-dasharray:none;stroke-opacity:1;enable-background:new"/>
        <path id="path1045" d="m 329.67875,198.1654 c 0.75997,-0.35713 1.56764,0.0807 1.54037,0.12549 0,0 -0.26242,0.97519 -0.88269,0.88022 -0.58102,-0.089 -0.65719,-0.75608 -0.65768,-1.00571 z" style="display:inline;opacity:1;fill:#1463a5;fill-opacity:1;fill-rule:evenodd;stroke:none;stroke-width:0.99999994;stroke-linecap:butt;stroke-linejoin:round;stroke-miterlimit:4;stroke-dasharray:none;stroke-opacity:1;enable-background:new"/>
        <path style="display:inline;opacity:1;fill:none;fill-rule:evenodd;stroke:#1463a5;stroke-width:0.99999994;stroke-linecap:butt;stroke-linejoin:miter;stroke-miterlimit:4;stroke-dasharray:none;stroke-opacity:1;enable-background:new" d="m 334.97893,201.77454 v 0 c 0,0 1.03805,-3.11478 0.40104,-4.46216 -0.20794,-0.43983 -0.80208,-0.81131 -1.20312,-0.81131 -0.81314,0 -0.97432,-0.002 -2.17744,-0.002 -1.20312,0 -1.42967,0.002 -2.24281,0.002 -0.40104,0 -0.99518,0.37148 -1.20312,0.81131 -0.63701,1.34738 0.23761,4.46216 0.23761,4.46216 v 0" id="path1049"/>
        <path style="display:inline;opacity:1;fill:none;fill-rule:evenodd;stroke:#1463a5;stroke-width:0.99999994;stroke-linecap:round;stroke-linejoin:round;stroke-miterlimit:4;stroke-dasharray:none;stroke-opacity:1;enable-background:new" d="m 334.57789,200.55759 c 0,0 2.16869,3.85967 1.86025,5.50285 -0.21451,1.14277 -0.87386,1.77677 -1.94324,2.20452 -0.63387,0.25354 -2.49547,-0.40566 -2.49547,-0.40566 l 0.23798,-2.83955 h -0.238 v 0 c 0,0 1.16666,-0.53242 1.4925,-2.58603 0,0 -0.22558,1.9522 -0.55143,2.0029" id="path1051"/>
        <path style="display:inline;opacity:1;fill:none;fill-rule:evenodd;stroke:#1463a5;stroke-width:0.99999994;stroke-linecap:butt;stroke-linejoin:miter;stroke-miterlimit:4;stroke-dasharray:none;stroke-opacity:1;enable-background:new" d="m 335.27971,197.44495 c 1.22818,-1.11554 2.75715,-0.65919 2.75715,-0.65919 0,0 -0.80208,2.56068 -2.30598,2.30714" id="path1053"/>
        <path style="display:inline;opacity:1;fill:#1463a5;fill-opacity:1;fill-rule:evenodd;stroke:none;stroke-width:0.99999994;stroke-linecap:butt;stroke-linejoin:round;stroke-miterlimit:4;stroke-dasharray:none;stroke-opacity:1;enable-background:new" d="m 334.32007,198.1654 c -0.75997,-0.35713 -1.56764,0.0807 -1.54037,0.12549 0,0 0.26242,0.97519 0.88269,0.88022 0.58102,-0.089 0.65719,-0.75608 0.65768,-1.00571 z" id="path1055"/>
        <path style="color:#000000;display:inline;overflow:visible;visibility:visible;opacity:0.2;fill:#ffffff;fill-opacity:1;fill-rule:nonzero;stroke:none;stroke-width:1;marker:none;enable-background:accumulate" d="m 323,200 v 6.125 c -0.0217,4.42101 0.45314,4.875 4.86523,4.875 h 8.26954 C 340.54686,211 341,210.54607 341,206.125 V 200 Z" id="path1007"/>
        <path style="color:#000000;display:inline;overflow:visible;visibility:visible;opacity:0.2;fill:#ffffff;fill-opacity:1;fill-rule:nonzero;stroke:none;stroke-width:1;marker:none;enable-background:accumulate" d="m 332,189 v 22 h 4.13477 C 340.54686,211 341,210.54607 341,206.125 V 200 194 l -5,-5 z" id="path1014"/>
        <path style="color:#000000;font-style:normal;font-variant:normal;font-weight:normal;font-stretch:normal;font-size:medium;line-height:normal;font-family:sans-serif;font-variant-ligatures:normal;font-variant-position:normal;font-variant-caps:normal;font-variant-numeric:normal;font-variant-alternates:normal;font-feature-settings:normal;text-indent:0;text-align:start;text-decoration:none;text-decoration-line:none;text-decoration-style:solid;text-decoration-color:#000000;letter-spacing:normal;word-spacing:normal;text-transform:none;writing-mode:lr-tb;direction:ltr;text-orientation:mixed;dominant-baseline:auto;baseline-shift:baseline;text-anchor:start;white-space:normal;shape-padding:0;clip-rule:nonzero;display:inline;overflow:visible;visibility:visible;opacity:0.4;isolation:auto;mix-blend-mode:normal;color-interpolation:sRGB;color-interpolation-filters:linearRGB;solid-color:#000000;solid-opacity:1;vector-effect:none;fill:url(#linearGradient981);fill-opacity:1;fill-rule:nonzero;stroke:none;stroke-width:2;stroke-linecap:butt;stroke-linejoin:miter;stroke-miterlimit:4;stroke-dasharray:none;stroke-dashoffset:0;stroke-opacity:1;marker:none;color-rendering:auto;image-rendering:auto;shape-rendering:auto;text-rendering:auto;enable-background:accumulate" clip-path="none" d="m 327.86523,189 c -4.41209,0 -4.88685,0.45399 -4.86523,4.875 v 6.125 6.125 c -0.0217,4.42101 0.45314,4.875 4.86523,4.875 h 8.26954 C 340.54686,211 341,210.54607 341,206.125 V 200 194 l -5,-5 z m 0,1 H 336 l 4,4 v 6 6.125 c 0,1.08819 -0.0322,1.90989 -0.125,2.46289 -0.0928,0.553 -0.22434,0.78856 -0.36133,0.92578 -0.13699,0.13722 -0.37244,0.26659 -0.92383,0.35938 -0.55138,0.0928 -1.36917,0.12695 -2.45507,0.12695 h -8.26954 c -1.0859,0 -1.9055,-0.0341 -2.45898,-0.12695 -0.55348,-0.0929 -0.79182,-0.22184 -0.92969,-0.35938 -0.13786,-0.13754 -0.26769,-0.37421 -0.35937,-0.92578 -0.0917,-0.55157 -0.12253,-1.36976 -0.11719,-2.45703 v -0.002 V 200 v -6.12891 -0.002 c -0.005,-1.08727 0.0255,-1.90546 0.11719,-2.45703 0.0917,-0.55157 0.22151,-0.78824 0.35937,-0.92578 0.13787,-0.13754 0.37622,-0.26647 0.92969,-0.35938 0.55347,-0.0929 1.37308,-0.12695 2.45898,-0.12695 z" id="path935"/>
        <path style="color:#000000;display:inline;overflow:visible;visibility:visible;opacity:0.2;fill:#000000;fill-opacity:1;fill-rule:nonzero;stroke:none;stroke-width:0.25002289;marker:none;enable-background:accumulate" d="m 341,195 v -1 l -5,-5 h -1 v 2.29585 0.088 0.0472 c 0,3.10471 0.41561,3.58345 3.52745,3.56823 z" id="rect4158-0-3-62-2-3-7"/>
        <path style="color:#000000;display:inline;overflow:visible;visibility:visible;fill:#faf8f6;fill-opacity:1;fill-rule:nonzero;stroke:none;stroke-width:0.25002289;marker:none;enable-background:accumulate" d="m 341,193.99934 -5,-4.99936 v 1.85447 0.0807 0.0433 c 0,2.84599 0.13116,3.03489 2.98368,3.02094 z" id="rect4158-0-3-62-6-5"/>
      </g>
    </g>
  </g>
</svg>