<svg width="24" height="24" version="1" xmlns="http://www.w3.org/2000/svg" xmlns:xlink="http://www.w3.org/1999/xlink">
 <defs>
  <linearGradient id="linearGradient916" x1="441.38" x2="52.965" y1="240.3" y2="386.31" gradientTransform="matrix(0 -.059215 .059783 0 -6.7301 26.636)" gradientUnits="userSpaceOnUse">
   <stop stop-color="#da1636" offset="0"/>
   <stop stop-color="#f22c42" offset="1"/>
  </linearGradient>
  <linearGradient id="linearGradient981" x1="332" x2="332" y1="189" y2="211" gradientTransform="translate(-320,-188)" gradientUnits="userSpaceOnUse">
   <stop stop-color="#fff" offset="0"/>
   <stop stop-color="#fff" stop-opacity=".098039" offset=".125"/>
   <stop stop-color="#fff" stop-opacity=".098039" offset=".925"/>
   <stop stop-color="#fff" stop-opacity=".49804" offset="1"/>
  </linearGradient>
 </defs>
 <path d="m7.8652 1c-1.1201 0-2.0152 0.0241-2.791 0.1543-0.77577 0.13022-1.4801 0.38763-2.0098 0.91601-0.52962 0.52838-0.79079 1.2369-0.91992 2.0137-0.12912 0.77681-0.15002 1.6717-0.14453 2.7949v6.1211 6.125c-5e-3 1.121 0.0156 2.0153 0.14453 2.791 0.12912 0.77681 0.39029 1.4853 0.91992 2.0137 0.52964 0.52838 1.234 0.78579 2.0098 0.91601s1.6709 0.1543 2.791 0.1543h8.2695c1.1201 0 2.0126-0.024 2.7871-0.1543 0.77446-0.13033 1.48-0.38927 2.0078-0.91797 0.5278-0.52869 0.78594-1.2344 0.91601-2.0098 0.13007-0.77539 0.1543-1.6706 0.1543-2.793v-6.125-6l-6-6z" color="#000000" color-rendering="auto" dominant-baseline="auto" image-rendering="auto" opacity=".1" shape-rendering="auto" solid-color="#000000" style="font-feature-settings:normal;font-variant-alternates:normal;font-variant-caps:normal;font-variant-ligatures:normal;font-variant-numeric:normal;font-variant-position:normal;isolation:auto;mix-blend-mode:normal;shape-padding:0;text-decoration-color:#000000;text-decoration-line:none;text-decoration-style:solid;text-indent:0;text-orientation:mixed;text-transform:none;white-space:normal"/>
 <path d="m7.636 0.49999c-4.657 0-5.1581 0.47378-5.1353 5.0958v6.4042 6.4043c-0.0229 4.622 0.47827 5.0957 5.1353 5.0957h8.7287c4.657 0 5.1353-0.47372 5.1353-5.0957v-6.4043-6.2727l-5.2776-5.2273z" color="#000000" fill="url(#linearGradient916)"/>
 <g transform="matrix(.09375 0 0 .09375 -2.2498 -.625)" enable-background="new" stroke-width="10.667">
  <rect x="24" y="28" width="256" height="256" enable-background="accumulate" fill="none"/>
  <path d="m128.95 166.7c3.9862-7.8131 8.5164-16.616 12.142-25.454l1.4337-3.4888c-4.7362-18.023-7.5761-32.489-5.039-41.844 0.683-2.4388 3.5077-3.9185 6.5276-3.9185l1.8402 0.02708h0.33776c4.1344-0.06342 6.0811 5.1958 6.302 7.2405 0.36484 3.4054-1.2107 9.1687-1.2107 9.1687 0-2.3273 0.0912-6.0879-1.3778-9.333-1.7098-3.7549-3.3431-5.9981-4.8074-6.3537-0.7393 0.49382-1.4579 1.5164-1.7041 3.4834-0.50985 2.758-0.6627 6.2393-0.6627 8.034 0 6.3405 1.2484 14.709 3.7018 23.337 0.46282-1.3357 0.87006-2.6191 1.1939-3.8216 0.50308-1.8951 3.7015-14.457 3.7015-14.457s-0.80593 16.722-1.9318 21.782c-0.24121 1.0692-0.50735 2.1267-0.78455 3.2091 4.0457 11.304 10.565 21.393 18.341 28.654 3.0662 2.8656 6.9387 5.1762 10.604 7.2822 8.004-1.1437 15.374-1.6838 21.522-1.6158 8.1569 0.1076 14.144 1.314 16.569 3.7022 1.1872 1.1608 1.6689 2.5628 1.8185 4.1344 0.0356 0.6114-0.26223 2.048-0.34952 2.4085 0.0873-0.43646 0.0873-2.5827-6.4606-4.6727-5.1569-1.6486-14.808-1.5972-26.39-0.36449 13.395 6.5536 26.446 9.8097 30.581 7.8576 1.0112-0.49275 2.2375-2.173 2.2375-2.173s-0.72897 3.3121-1.2524 4.1401c-0.66804 0.89963-1.9785 1.8741-3.2208 2.2026-6.5315 1.7426-23.533-2.2899-38.355-10.759-16.56 2.4388-34.746 6.9441-49.323 11.725-14.325 25.105-25.095 36.635-33.857 32.249l-3.2212-1.6197c-1.3094-0.74892-1.5092-2.572-1.2064-4.0567 1.0215-4.9977 7.2882-12.525 19.876-20.042 1.355-0.81983 7.3905-4.0111 7.3905-4.0111s-4.4682 4.3246-5.515 5.1733c-10.047 8.2335-17.463 18.592-17.278 22.608l0.03634 0.35023c8.5349-1.2164 21.334-18.588 37.789-50.785m5.2146 2.67c-2.7484 5.1762-5.4348 9.9754-7.915 14.382 13.719-5.748 28.485-9.4263 42.541-12.039-1.889-1.3044-3.7229-2.6857-5.4484-4.1458-7.7404-6.5532-13.642-14.729-17.919-23.332-2.7128 7.3086-5.9386 15.075-11.259 25.135" fill="#fff" stroke-width="4.1794"/>
 </g>
 <path d="m3 12v6.125c-0.0217 4.421 0.45314 4.875 4.8652 4.875h8.2695c4.4121 0 4.8652-0.45393 4.8652-4.875v-6.125z" color="#000000" fill="#fff" opacity=".1"/>
 <path d="m12 1v22h4.1348c4.4121 0 4.8652-0.45393 4.8652-4.875v-6.125-6l-5-5z" color="#000000" fill="#fff" opacity=".1"/>
 <path d="m7.8652 0c-1.1201 0-2.0152 0.0241-2.791 0.1543-0.77577 0.13022-1.4801 0.38763-2.0098 0.91601-0.52962 0.52838-0.79079 1.2369-0.91992 2.0137-0.12912 0.77681-0.15002 1.6717-0.14453 2.7949v6.1211 6.125c-5e-3 1.121 0.0156 2.0153 0.14453 2.791 0.12912 0.77681 0.39029 1.4853 0.91992 2.0137 0.52964 0.52838 1.234 0.78579 2.0098 0.91601s1.6709 0.1543 2.791 0.1543h8.2695c1.1201 0 2.0126-0.024 2.7871-0.1543 0.77445-0.13033 1.48-0.38927 2.0078-0.91797 0.5278-0.52869 0.78594-1.2344 0.91601-2.0098 0.13007-0.77539 0.1543-1.6706 0.1543-2.793v-6.125-6.5391l-5.4512-5.4609zm0 1h8.1348l5 5v6 6.125c0 4.4211-0.45314 4.875-4.8652 4.875h-8.2695c-4.4121 0-4.8869-0.45399-4.8652-4.875v-6.125-6.125c-0.0216-4.421 0.45314-4.875 4.8652-4.875z" color="#000000" color-rendering="auto" dominant-baseline="auto" image-rendering="auto" opacity=".4" shape-rendering="auto" solid-color="#000000" style="font-feature-settings:normal;font-variant-alternates:normal;font-variant-caps:normal;font-variant-ligatures:normal;font-variant-numeric:normal;font-variant-position:normal;isolation:auto;mix-blend-mode:normal;shape-padding:0;text-decoration-color:#000000;text-decoration-line:none;text-decoration-style:solid;text-indent:0;text-orientation:mixed;text-transform:none;white-space:normal"/>
 <path d="m7.8652 1c-4.4121 0-4.8868 0.45399-4.8652 4.875v6.125 6.125c-0.0217 4.421 0.45314 4.875 4.8652 4.875h8.2695c4.4121 0 4.8652-0.45393 4.8652-4.875v-6.125-6l-5-5zm0 1h8.1348l4 4v6 6.125c0 1.0882-0.0322 1.9099-0.125 2.4629s-0.22434 0.78856-0.36133 0.92578-0.37244 0.26659-0.92383 0.35938c-0.55138 0.0928-1.3692 0.12695-2.4551 0.12695h-8.2695c-1.0859 0-1.9055-0.0341-2.459-0.12695-0.55348-0.0929-0.79182-0.22184-0.92969-0.35938-0.13786-0.13754-0.26769-0.37421-0.35937-0.92578-0.0917-0.55157-0.12253-1.3698-0.11719-2.457v-2e-3 -6.1289-6.1289-2e-3c-5e-3 -1.0873 0.0255-1.9055 0.11719-2.457 0.0917-0.55157 0.22151-0.78824 0.35937-0.92578 0.13787-0.13754 0.37622-0.26647 0.92969-0.35938 0.55347-0.0929 1.3731-0.12695 2.459-0.12695z" color="#000000" color-rendering="auto" dominant-baseline="auto" fill="url(#linearGradient981)" image-rendering="auto" opacity=".4" shape-rendering="auto" solid-color="#000000" style="font-feature-settings:normal;font-variant-alternates:normal;font-variant-caps:normal;font-variant-ligatures:normal;font-variant-numeric:normal;font-variant-position:normal;isolation:auto;mix-blend-mode:normal;shape-padding:0;text-decoration-color:#000000;text-decoration-line:none;text-decoration-style:solid;text-indent:0;text-orientation:mixed;text-transform:none;white-space:normal"/>
 <path d="m21 7v-1l-5-5h-1v2.2958 0.088 0.0472c0 3.1047 0.41561 3.5834 3.5274 3.5682z" color="#000000" fill="#830e21" opacity=".6"/>
 <path d="m21 5.9993-5-4.9994v1.8545 0.0807 0.0433c0 2.846 0.13116 3.0349 2.9837 3.0209z" color="#000000" fill="#f66f7e"/>
</svg>
