<svg xmlns:dc="http://purl.org/dc/elements/1.1/" xmlns:cc="http://creativecommons.org/ns#" xmlns:rdf="http://www.w3.org/1999/02/22-rdf-syntax-ns#" xmlns:svg="http://www.w3.org/2000/svg" xmlns="http://www.w3.org/2000/svg" xmlns:xlink="http://www.w3.org/1999/xlink" style="display:inline;enable-background:new" version="1.0" id="svg11300" height="25" width="24">
  <title id="title3004">Suru Icon Theme Template</title>
  <defs id="defs3">
    <linearGradient y2="207.36522" x2="35.310345" y1="419.23337" x1="459.03448" gradientTransform="matrix(0,-0.05664062,0.05663901,0,314.2547,214)" gradientUnits="userSpaceOnUse" id="linearGradient916" xlink:href="#linearGradient4338"/>
    <linearGradient id="linearGradient4338">
      <stop id="stop4340" offset="0" style="stop-color:#f2f2f2;stop-opacity:1"/>
      <stop id="stop4342" offset="1" style="stop-color:#f9f9f9;stop-opacity:1"/>
    </linearGradient>
    <linearGradient gradientUnits="userSpaceOnUse" y2="211" x2="332" y1="189" x1="332" id="linearGradient981" xlink:href="#linearGradient927"/>
    <linearGradient id="linearGradient927">
      <stop id="stop923" offset="0" style="stop-color:#ffffff;stop-opacity:1;"/>
      <stop style="stop-color:#ffffff;stop-opacity:0.09803922" offset="0.125" id="stop933"/>
      <stop style="stop-color:#ffffff;stop-opacity:0.09803922" offset="0.92500001" id="stop931"/>
      <stop id="stop925" offset="1" style="stop-color:#ffffff;stop-opacity:0.49803922"/>
    </linearGradient>
    <clipPath id="clipPath971-3" clipPathUnits="userSpaceOnUse">
      <path id="path973-6" d="m 327.8652,189 c -4.41209,0 -4.88682,0.45318 -4.8652,4.87419 V 200 206.12581 C 322.9783,210.54682 323.45311,211 327.8652,211 h 8.2696 C 340.54689,211 341,210.54688 341,206.12581 V 200 193.87419 C 341,189.45313 340.54688,189 336.13479,189 Z" style="color:#000000;display:inline;overflow:visible;visibility:visible;opacity:1;fill:#46a926;fill-opacity:1;fill-rule:nonzero;stroke:none;stroke-width:2;stroke-miterlimit:4;stroke-dasharray:none;stroke-opacity:1;marker:none;enable-background:accumulate"/>
    </clipPath>
  </defs>
  <metadata id="metadata4">
    <rdf:RDF>
      <cc:Work rdf:about="">
        <dc:format>image/svg+xml</dc:format>
        <dc:type rdf:resource="http://purl.org/dc/dcmitype/StillImage"/>
        <dc:creator>
          <cc:Agent>
            <dc:title>Sam Hewitt</dc:title>
          </cc:Agent>
        </dc:creator>
        <dc:source/>
        <cc:license rdf:resource="http://creativecommons.org/licenses/by-sa/4.0/"/>
        <dc:title>Suru Icon Theme Template</dc:title>
        <dc:subject>
          <rdf:Bag/>
        </dc:subject>
        <dc:date/>
        <dc:rights>
          <cc:Agent>
            <dc:title/>
          </cc:Agent>
        </dc:rights>
        <dc:publisher>
          <cc:Agent>
            <dc:title/>
          </cc:Agent>
        </dc:publisher>
        <dc:identifier/>
        <dc:relation/>
        <dc:language/>
        <dc:coverage/>
        <dc:description/>
        <dc:contributor>
          <cc:Agent>
            <dc:title/>
          </cc:Agent>
        </dc:contributor>
      </cc:Work>
      <cc:Work rdf:about="">
        <dc:format>image/svg+xml</dc:format>
        <dc:type rdf:resource="http://purl.org/dc/dcmitype/StillImage"/>
      </cc:Work>
      <cc:License rdf:about="http://creativecommons.org/licenses/by-sa/4.0/">
        <cc:permits rdf:resource="http://creativecommons.org/ns#Reproduction"/>
        <cc:permits rdf:resource="http://creativecommons.org/ns#Distribution"/>
        <cc:requires rdf:resource="http://creativecommons.org/ns#Notice"/>
        <cc:requires rdf:resource="http://creativecommons.org/ns#Attribution"/>
        <cc:permits rdf:resource="http://creativecommons.org/ns#DerivativeWorks"/>
        <cc:requires rdf:resource="http://creativecommons.org/ns#ShareAlike"/>
      </cc:License>
    </rdf:RDF>
  </metadata>
  <g transform="translate(-47.67813,-261.14862)" id="layer1" style="display:inline">
    <g id="layer7" style="display:inline"/>
    <g style="display:inline" id="layer4"/>
    <g style="display:inline" id="layer2"/>
    <g style="display:inline" id="layer6"/>
    <g style="display:inline" id="layer3"/>
    <g id="layer8">
      <text id="text161" y="77.856834" x="325.93442" style="font-style:normal;font-variant:normal;font-weight:normal;font-stretch:normal;font-size:48px;line-height:1.25;font-family:ubuntu;-inkscape-font-specification:ubuntu;letter-spacing:0px;word-spacing:0px;fill:#000000;fill-opacity:1;stroke:none" xml:space="preserve"/>
      <flowRoot style="font-style:normal;font-variant:normal;font-weight:normal;font-stretch:normal;font-size:47.20000076px;line-height:1.25;font-family:ubuntu;-inkscape-font-specification:ubuntu;letter-spacing:0px;word-spacing:0px;fill:#000000;fill-opacity:1;stroke:none" id="flowRoot238" xml:space="preserve"><flowRegion style="font-size:47.20000076px" id="flowRegion240"><rect style="font-size:47.20000076px" y="207.5959" x="64.216179" height="45.362007" width="175.47444" id="rect242"/></flowRegion><flowPara id="flowPara244"/></flowRoot>    </g>
    <g style="display:inline" id="layer5">
      <g id="g6229" style="display:inline;enable-background:new" transform="translate(-272.32187,73.148618)">
        <rect style="display:inline;overflow:visible;visibility:visible;opacity:0;fill:#cdcdcd;fill-opacity:1;fill-rule:nonzero;stroke:none;stroke-width:2;marker:none;enable-background:accumulate" id="rect24x24" width="24" height="24" x="320" y="188"/>
        <path style="color:#000000;font-style:normal;font-variant:normal;font-weight:normal;font-stretch:normal;font-size:medium;line-height:normal;font-family:sans-serif;font-variant-ligatures:normal;font-variant-position:normal;font-variant-caps:normal;font-variant-numeric:normal;font-variant-alternates:normal;font-feature-settings:normal;text-indent:0;text-align:start;text-decoration:none;text-decoration-line:none;text-decoration-style:solid;text-decoration-color:#000000;letter-spacing:normal;word-spacing:normal;text-transform:none;writing-mode:lr-tb;direction:ltr;text-orientation:mixed;dominant-baseline:auto;baseline-shift:baseline;text-anchor:start;white-space:normal;shape-padding:0;clip-rule:nonzero;display:inline;overflow:visible;visibility:visible;opacity:0.1;isolation:auto;mix-blend-mode:normal;color-interpolation:sRGB;color-interpolation-filters:linearRGB;solid-color:#000000;solid-opacity:1;vector-effect:none;fill:#000000;fill-opacity:1;fill-rule:nonzero;stroke:none;stroke-width:2;stroke-linecap:butt;stroke-linejoin:miter;stroke-miterlimit:4;stroke-dasharray:none;stroke-dashoffset:0;stroke-opacity:1;marker:none;color-rendering:auto;image-rendering:auto;shape-rendering:auto;text-rendering:auto;enable-background:accumulate" d="m 327.86523,189 c -1.12014,0 -2.01524,0.0241 -2.79101,0.1543 -0.77577,0.13022 -1.48014,0.38763 -2.00977,0.91601 -0.52962,0.52838 -0.79079,1.23687 -0.91992,2.01367 -0.12912,0.77681 -0.15002,1.67169 -0.14453,2.79493 V 201 v 6.125 c -0.005,1.12104 0.0156,2.01529 0.14453,2.79102 0.12912,0.77681 0.39029,1.48529 0.91992,2.01367 0.52964,0.52838 1.234,0.78579 2.00977,0.91601 0.77577,0.13022 1.67087,0.1543 2.79101,0.1543 h 8.26954 c 1.12013,0 2.01264,-0.024 2.78711,-0.1543 0.77446,-0.13033 1.48001,-0.38927 2.00781,-0.91797 0.5278,-0.52869 0.78594,-1.23438 0.91601,-2.00976 C 341.97577,209.14258 342,208.24735 342,207.125 V 201 194.875 c 0,-1.12235 -0.0242,-2.01758 -0.1543,-2.79297 -0.13007,-0.77538 -0.38821,-1.48107 -0.91601,-2.00976 -0.5278,-0.5287 -1.23334,-0.78764 -2.00781,-0.91797 C 338.1474,189.02397 337.25491,189 336.13477,189 Z" id="path995"/>
        <path style="color:#000000;display:inline;overflow:visible;visibility:visible;opacity:0.2;fill:none;fill-opacity:1;fill-rule:nonzero;stroke:#000000;stroke-width:2;stroke-miterlimit:4;stroke-dasharray:none;stroke-opacity:1;marker:none;enable-background:accumulate" d="m 327.8652,189 c -4.41209,0 -4.88682,0.45318 -4.8652,4.87419 V 200 206.12581 C 322.9783,210.54682 323.45311,211 327.8652,211 h 8.2696 C 340.54689,211 341,210.54688 341,206.12581 V 200 193.87419 C 341,189.45313 340.54688,189 336.13479,189 Z" id="path926"/>
        <path id="path914" d="m 327.8652,189 c -4.41209,0 -4.88682,0.45318 -4.8652,4.87419 V 200 206.12581 C 322.9783,210.54682 323.45311,211 327.8652,211 h 8.2696 C 340.54689,211 341,210.54688 341,206.12581 V 200 193.87419 C 341,189.45313 340.54688,189 336.13479,189 Z" style="color:#000000;display:inline;overflow:visible;visibility:visible;fill:url(#linearGradient916);fill-opacity:1;fill-rule:nonzero;stroke:none;stroke-width:1;marker:none;enable-background:accumulate"/>
        <path style="color:#000000;font-style:normal;font-variant:normal;font-weight:normal;font-stretch:normal;font-size:medium;line-height:normal;font-family:sans-serif;font-variant-ligatures:normal;font-variant-position:normal;font-variant-caps:normal;font-variant-numeric:normal;font-variant-alternates:normal;font-feature-settings:normal;text-indent:0;text-align:start;text-decoration:none;text-decoration-line:none;text-decoration-style:solid;text-decoration-color:#000000;letter-spacing:normal;word-spacing:normal;text-transform:none;writing-mode:lr-tb;direction:ltr;text-orientation:mixed;dominant-baseline:auto;baseline-shift:baseline;text-anchor:start;white-space:normal;shape-padding:0;clip-rule:nonzero;display:inline;overflow:visible;visibility:visible;opacity:0.8;isolation:auto;mix-blend-mode:normal;color-interpolation:sRGB;color-interpolation-filters:linearRGB;solid-color:#000000;solid-opacity:1;vector-effect:none;fill:#ec3c50;fill-opacity:1;fill-rule:evenodd;stroke:none;stroke-width:1px;stroke-linecap:butt;stroke-linejoin:round;stroke-miterlimit:4;stroke-dasharray:none;stroke-dashoffset:0;stroke-opacity:1;color-rendering:auto;image-rendering:auto;shape-rendering:auto;text-rendering:auto;enable-background:accumulate" d="m 336.4118,190.95973 c -0.11528,-0.008 -0.25052,0.002 -0.41015,0.0156 l -6.20899,1.125 c -0.81332,0.0828 -0.90176,0.46246 -0.89453,0.93554 v 8.51953 c -0.41338,-0.27155 -0.85577,-0.46484 -1.44531,-0.46484 -0.75911,0 -1.21229,0.29098 -1.48633,0.67383 -0.27403,0.38285 -0.36524,0.86524 -0.36524,1.23828 0,0.44983 0.15511,0.92907 0.48829,1.29492 0.33318,0.36585 0.84551,0.62304 1.58203,0.62305 0.83169,0 1.41537,-0.23199 1.74609,-0.68555 0.26039,-0.35711 0.40565,-0.83534 0.45703,-1.42383 0.007,-0.0714 0.0111,-0.14515 0.0156,-0.2207 0.004,-0.0599 0.003,-0.1018 0.004,-0.17187 h 0.004 v -6.70313 c 0.0221,-0.61938 0.58398,-0.71094 0.58398,-0.71094 l 4.85352,-0.91406 c 0.56193,-0.17179 0.5625,0.52343 0.5625,0.52343 v 5.94141 c -0.41338,-0.27156 -0.85577,-0.46484 -1.44531,-0.46485 -0.75911,0 -1.21229,0.29098 -1.48633,0.67383 -0.27403,0.38285 -0.36524,0.86525 -0.36524,1.23828 0,0.44983 0.15511,0.92907 0.48829,1.29493 0.33318,0.36585 0.84551,0.62303 1.58203,0.62304 0.83169,0 1.41537,-0.23198 1.74609,-0.68554 0.26039,-0.35711 0.40565,-0.83535 0.45703,-1.42383 0.007,-0.0714 0.0111,-0.14515 0.0156,-0.22071 0.004,-0.0599 0.003,-0.1018 0.004,-0.17187 h 0.004 v -9.56836 c 0.0119,-0.68564 -0.14049,-0.86619 -0.48633,-0.89062 z" id="path1954"/>
        <path style="color:#000000;display:inline;overflow:visible;visibility:visible;opacity:0.2;fill:#ffffff;fill-opacity:1;fill-rule:nonzero;stroke:none;stroke-width:1;marker:none;enable-background:accumulate" d="m 323,200 v 6.125 c -0.0217,4.42101 0.45314,4.875 4.86523,4.875 h 8.26954 C 340.54686,211 341,210.54607 341,206.125 V 200 Z" id="path1007"/>
        <path style="color:#000000;display:inline;overflow:visible;visibility:visible;opacity:0.2;fill:#ffffff;fill-opacity:1;fill-rule:nonzero;stroke:none;stroke-width:1;marker:none;enable-background:accumulate" d="m 332,189 v 22 h 4.13477 C 340.54686,211 341,210.54607 341,206.125 V 200 193.875 C 341,189.45394 340.54686,189 336.13477,189 Z" id="path1014"/>
        <path id="path132-9" style="font-style:normal;font-variant:normal;font-weight:normal;font-stretch:normal;font-size:6.96480894px;line-height:1.25;font-family:ubuntu;-inkscape-font-specification:ubuntu;letter-spacing:0px;word-spacing:0px;display:inline;fill:#888888;fill-opacity:1;stroke:none;stroke-width:0.68171006;enable-background:new" d="m 328.5428,208.9765 q -0.1527,-0.39266 -0.32722,-0.8944 -0.16906,-0.50719 -0.31086,-1.05256 -0.14179,0.54537 -0.31085,1.05256 -0.16907,0.50174 -0.32178,0.8944 h -0.44175 q -0.25086,-0.56172 -0.49082,-1.28161 -0.23997,-0.71989 -0.45266,-1.5543 h 0.54537 q 0.0545,0.25632 0.13089,0.55627 0.0763,0.29996 0.15816,0.59991 0.0873,0.29995 0.17997,0.57809 0.0927,0.27814 0.17451,0.48538 0.0927,-0.25633 0.17998,-0.53992 0.0927,-0.28904 0.17451,-0.57809 0.0818,-0.2945 0.15271,-0.57263 0.0763,-0.28359 0.13088,-0.52901 h 0.41993 q 0.0491,0.24542 0.11999,0.52901 0.0709,0.27813 0.1527,0.57263 0.0818,0.28905 0.16906,0.57809 0.0927,0.28359 0.18543,0.53992 0.0818,-0.20724 0.16906,-0.48538 0.0927,-0.27814 0.17997,-0.57809 0.0873,-0.29995 0.16362,-0.59991 0.0763,-0.29995 0.13088,-0.55627 h 0.52355 q -0.21268,0.83441 -0.45264,1.5543 -0.23997,0.71989 -0.49084,1.28161 z"/>
        <path id="path134-1" style="font-style:normal;font-variant:normal;font-weight:normal;font-stretch:normal;font-size:6.96480894px;line-height:1.25;font-family:ubuntu;-inkscape-font-specification:ubuntu;letter-spacing:0px;word-spacing:0px;display:inline;fill:#888888;fill-opacity:1;stroke:none;stroke-width:0.68171006;enable-background:new" d="m 330.46437,206.22239 q 0.17452,-0.0436 0.45811,-0.0927 0.28905,-0.0491 0.66535,-0.0491 0.27268,0 0.45811,0.0763 0.18543,0.0709 0.31086,0.21269 0.0382,-0.0273 0.11998,-0.0763 0.0818,-0.0491 0.20179,-0.0927 0.11998,-0.0491 0.26723,-0.0818 0.14725,-0.0381 0.31631,-0.0381 0.32723,0 0.53446,0.0982 0.20724,0.0927 0.32177,0.26723 0.11998,0.17452 0.15815,0.41448 0.0436,0.23996 0.0436,0.52355 v 1.59248 h -0.50719 v -1.48341 q 0,-0.25088 -0.0273,-0.43085 -0.0218,-0.17997 -0.0927,-0.29995 -0.0655,-0.11999 -0.18543,-0.17452 -0.11452,-0.06 -0.29994,-0.06 -0.25633,0 -0.4254,0.0709 -0.1636,0.0655 -0.22359,0.11997 0.0436,0.1418 0.0655,0.31087 0.0218,0.16906 0.0218,0.35449 v 1.59247 h -0.50719 v -1.48337 q 0,-0.25088 -0.0272,-0.43085 -0.0273,-0.17997 -0.0982,-0.29995 -0.0655,-0.11999 -0.18543,-0.17452 -0.11453,-0.06 -0.2945,-0.06 -0.0763,0 -0.16361,0.005 -0.0873,0.005 -0.16906,0.0164 -0.0763,0.005 -0.1418,0.0164 -0.0655,0.0109 -0.0872,0.0164 v 2.39417 h -0.5072 z"/>
        <path id="path136-2" style="font-style:normal;font-variant:normal;font-weight:normal;font-stretch:normal;font-size:6.96480894px;line-height:1.25;font-family:ubuntu;-inkscape-font-specification:ubuntu;letter-spacing:0px;word-spacing:0px;display:inline;fill:#888888;fill-opacity:1;stroke:none;stroke-width:0.68171006;enable-background:new" d="m 336.12163,208.61111 q 0.17997,0 0.31631,-0.005 0.1418,-0.0109 0.23451,-0.0327 v -0.84532 q -0.0546,-0.0272 -0.17997,-0.0436 -0.11998,-0.0218 -0.2945,-0.0218 -0.11453,0 -0.24542,0.0164 -0.12543,0.0164 -0.2345,0.0709 -0.10363,0.0491 -0.17452,0.1418 -0.0709,0.0872 -0.0709,0.2345 0,0.27268 0.17452,0.38176 0.17452,0.10362 0.47447,0.10362 z m -0.0436,-2.54142 q 0.30541,0 0.51265,0.0818 0.21269,0.0763 0.33813,0.22361 0.13089,0.14179 0.18543,0.34358 0.0546,0.19634 0.0546,0.4363 v 1.77244 q -0.0655,0.0109 -0.18543,0.0327 -0.11452,0.0164 -0.26177,0.0327 -0.14725,0.0164 -0.32177,0.0272 -0.16906,0.0164 -0.33813,0.0164 -0.23996,0 -0.44174,-0.0491 -0.20179,-0.0491 -0.34904,-0.1527 -0.14725,-0.10908 -0.22905,-0.28359 -0.0818,-0.17452 -0.0818,-0.41993 0,-0.23451 0.0927,-0.40358 0.0982,-0.16906 0.26178,-0.27268 0.16361,-0.10362 0.38176,-0.1527 0.21814,-0.0491 0.45811,-0.0491 0.0763,0 0.15815,0.0109 0.0818,0.005 0.1527,0.0218 0.0763,0.0109 0.13089,0.0219 0.0545,0.0109 0.0763,0.0164 v -0.14182 q 0,-0.12543 -0.0273,-0.24542 -0.0272,-0.12543 -0.0982,-0.21814 -0.0709,-0.0982 -0.19634,-0.1527 -0.11998,-0.06 -0.31631,-0.06 -0.25087,0 -0.44174,0.0382 -0.18543,0.0327 -0.27815,0.0709 l -0.06,-0.41993 q 0.0982,-0.0436 0.32723,-0.0818 0.22905,-0.0436 0.49628,-0.0436 z"/>
        <path id="path935" d="m 327.8652,189 c -4.41209,0 -4.88682,0.45318 -4.8652,4.87419 V 200 206.12581 C 322.9783,210.54682 323.45311,211 327.8652,211 h 8.2696 C 340.54689,211 341,210.54688 341,206.12581 V 200 193.87419 C 341,189.45313 340.54688,189 336.13479,189 Z" style="color:#000000;display:inline;overflow:visible;visibility:visible;opacity:0.4;fill:none;fill-opacity:1;fill-rule:nonzero;stroke:url(#linearGradient981);stroke-width:2;stroke-miterlimit:4;stroke-dasharray:none;stroke-opacity:1;marker:none;enable-background:accumulate" clip-path="url(#clipPath971-3)"/>
      </g>
    </g>
  </g>
</svg>