<svg xmlns:dc="http://purl.org/dc/elements/1.1/" xmlns:cc="http://creativecommons.org/ns#" xmlns:rdf="http://www.w3.org/1999/02/22-rdf-syntax-ns#" xmlns:svg="http://www.w3.org/2000/svg" xmlns="http://www.w3.org/2000/svg" xmlns:xlink="http://www.w3.org/1999/xlink" style="display:inline;enable-background:new" version="1.0" id="svg11300" height="25" width="24">
  <title id="title3004">Suru Icon Theme Template</title>
  <defs id="defs3">
    <linearGradient y2="207.36522" x2="35.310345" y1="419.23337" x1="459.03448" gradientTransform="matrix(0,-0.05664062,0.05663901,0,314.2547,214)" gradientUnits="userSpaceOnUse" id="linearGradient916" xlink:href="#linearGradient4338"/>
    <linearGradient id="linearGradient4338">
      <stop id="stop4340" offset="0" style="stop-color:#f2f2f2;stop-opacity:1"/>
      <stop id="stop4342" offset="1" style="stop-color:#f9f9f9;stop-opacity:1"/>
    </linearGradient>
    <linearGradient gradientUnits="userSpaceOnUse" y2="211" x2="332" y1="189" x1="332" id="linearGradient981" xlink:href="#linearGradient927"/>
    <linearGradient id="linearGradient927">
      <stop id="stop923" offset="0" style="stop-color:#ffffff;stop-opacity:1;"/>
      <stop style="stop-color:#ffffff;stop-opacity:0.09803922" offset="0.125" id="stop933"/>
      <stop style="stop-color:#ffffff;stop-opacity:0.09803922" offset="0.92500001" id="stop931"/>
      <stop id="stop925" offset="1" style="stop-color:#ffffff;stop-opacity:0.49803922"/>
    </linearGradient>
  </defs>
  <metadata id="metadata4">
    <rdf:RDF>
      <cc:Work rdf:about="">
        <dc:format>image/svg+xml</dc:format>
        <dc:type rdf:resource="http://purl.org/dc/dcmitype/StillImage"/>
        <dc:creator>
          <cc:Agent>
            <dc:title>Sam Hewitt</dc:title>
          </cc:Agent>
        </dc:creator>
        <dc:source/>
        <cc:license rdf:resource="http://creativecommons.org/licenses/by-sa/4.0/"/>
        <dc:title>Suru Icon Theme Template</dc:title>
        <dc:subject>
          <rdf:Bag/>
        </dc:subject>
        <dc:date/>
        <dc:rights>
          <cc:Agent>
            <dc:title/>
          </cc:Agent>
        </dc:rights>
        <dc:publisher>
          <cc:Agent>
            <dc:title/>
          </cc:Agent>
        </dc:publisher>
        <dc:identifier/>
        <dc:relation/>
        <dc:language/>
        <dc:coverage/>
        <dc:description/>
        <dc:contributor>
          <cc:Agent>
            <dc:title/>
          </cc:Agent>
        </dc:contributor>
      </cc:Work>
      <cc:Work rdf:about="">
        <dc:format>image/svg+xml</dc:format>
        <dc:type rdf:resource="http://purl.org/dc/dcmitype/StillImage"/>
      </cc:Work>
      <cc:License rdf:about="http://creativecommons.org/licenses/by-sa/4.0/">
        <cc:permits rdf:resource="http://creativecommons.org/ns#Reproduction"/>
        <cc:permits rdf:resource="http://creativecommons.org/ns#Distribution"/>
        <cc:requires rdf:resource="http://creativecommons.org/ns#Notice"/>
        <cc:requires rdf:resource="http://creativecommons.org/ns#Attribution"/>
        <cc:permits rdf:resource="http://creativecommons.org/ns#DerivativeWorks"/>
        <cc:requires rdf:resource="http://creativecommons.org/ns#ShareAlike"/>
      </cc:License>
    </rdf:RDF>
  </metadata>
  <g transform="translate(-250.5,-155.5)" id="layer1" style="display:inline">
    <g id="layer7" style="display:inline"/>
    <g style="display:inline" id="layer4"/>
    <g style="display:inline" id="layer2"/>
    <g style="display:inline" id="layer6"/>
    <g style="display:inline" id="layer3"/>
    <g style="display:inline" id="layer5"/>
    <g style="display:inline" id="layer9">
      <g id="g979" style="display:inline;enable-background:new" transform="translate(-69.5,-32.5)">
        <rect style="display:inline;overflow:visible;visibility:visible;opacity:0;fill:#cdcdcd;fill-opacity:1;fill-rule:nonzero;stroke:none;stroke-width:2;marker:none;enable-background:accumulate" id="rect24x24" width="24" height="24" x="320" y="188"/>
        <path style="color:#000000;font-style:normal;font-variant:normal;font-weight:normal;font-stretch:normal;font-size:medium;line-height:normal;font-family:sans-serif;font-variant-ligatures:normal;font-variant-position:normal;font-variant-caps:normal;font-variant-numeric:normal;font-variant-alternates:normal;font-feature-settings:normal;text-indent:0;text-align:start;text-decoration:none;text-decoration-line:none;text-decoration-style:solid;text-decoration-color:#000000;letter-spacing:normal;word-spacing:normal;text-transform:none;writing-mode:lr-tb;direction:ltr;text-orientation:mixed;dominant-baseline:auto;baseline-shift:baseline;text-anchor:start;white-space:normal;shape-padding:0;clip-rule:nonzero;display:inline;overflow:visible;visibility:visible;opacity:0.1;isolation:auto;mix-blend-mode:normal;color-interpolation:sRGB;color-interpolation-filters:linearRGB;solid-color:#000000;solid-opacity:1;vector-effect:none;fill:#000000;fill-opacity:1;fill-rule:nonzero;stroke:none;stroke-width:2;stroke-linecap:butt;stroke-linejoin:miter;stroke-miterlimit:4;stroke-dasharray:none;stroke-dashoffset:0;stroke-opacity:1;marker:none;color-rendering:auto;image-rendering:auto;shape-rendering:auto;text-rendering:auto;enable-background:accumulate" d="m 327.86523,189 c -1.12014,0 -2.01524,0.0241 -2.79101,0.1543 -0.77577,0.13022 -1.48014,0.38763 -2.00977,0.91601 -0.52962,0.52838 -0.79079,1.23687 -0.91992,2.01367 -0.12912,0.77681 -0.15002,1.67169 -0.14453,2.79493 V 201 v 6.125 c -0.005,1.12104 0.0156,2.01529 0.14453,2.79102 0.12912,0.77681 0.39029,1.48529 0.91992,2.01367 0.52964,0.52838 1.234,0.78579 2.00977,0.91601 0.77577,0.13022 1.67087,0.1543 2.79101,0.1543 h 8.26954 c 1.12013,0 2.01264,-0.024 2.78711,-0.1543 0.77446,-0.13033 1.48001,-0.38927 2.00781,-0.91797 0.5278,-0.52869 0.78594,-1.23438 0.91601,-2.00976 C 341.97577,209.14258 342,208.24735 342,207.125 V 201 195 l -6,-6 z" id="path995"/>
        <path style="color:#000000;display:inline;overflow:visible;visibility:visible;opacity:0.2;fill:none;fill-opacity:1;fill-rule:nonzero;stroke:#000000;stroke-width:2;stroke-miterlimit:4;stroke-dasharray:none;stroke-opacity:1;marker:none;enable-background:accumulate" d="m 327.8652,189 c -4.41209,0 -4.88682,0.45318 -4.8652,4.87419 V 200 206.12581 C 322.9783,210.54682 323.45311,211 327.8652,211 h 8.2696 C 340.54689,211 341,210.54688 341,206.12581 V 200 193.87419 L 336.13479,189 Z" id="path926"/>
        <path id="path914" d="m 327.8652,189 c -4.41209,0 -4.88682,0.45318 -4.8652,4.87419 V 200 206.12581 C 322.9783,210.54682 323.45311,211 327.8652,211 h 8.2696 C 340.54689,211 341,210.54688 341,206.12581 V 200 194 l -5,-5 z" style="color:#000000;display:inline;overflow:visible;visibility:visible;fill:url(#linearGradient916);fill-opacity:1;fill-rule:nonzero;stroke:none;stroke-width:1;marker:none;enable-background:accumulate"/>
        <path id="path163" style="font-style:normal;font-variant:normal;font-weight:normal;font-stretch:normal;font-size:40px;line-height:1.25;font-family:ubuntu;-inkscape-font-specification:ubuntu;letter-spacing:0px;word-spacing:0px;display:inline;fill:#007aa6;fill-opacity:0.94117647;stroke:none;stroke-width:0.26983038;enable-background:new" d="m 334.62195,205.49884 q -0.39024,0 -0.64634,-0.11485 -0.2561,-0.11485 -0.42683,-0.30627 -0.26829,0.15313 -0.64634,0.26798 -0.37805,0.10209 -0.7561,0.10209 -0.58536,0 -1.07317,-0.19141 -0.47561,-0.19142 -0.82927,-0.56149 -0.35365,-0.38283 -0.54878,-0.93155 -0.19512,-0.54873 -0.19512,-1.27611 0,-0.61252 0.18293,-1.14849 0.18293,-0.54872 0.53658,-0.94431 0.36586,-0.40836 0.87805,-0.63805 0.52439,-0.2297 1.18293,-0.2297 0.62195,0 1.13415,0.10209 0.52439,0.10208 0.80487,0.20417 v 3.90487 q 0,0.40836 0.13415,0.57425 0.13415,0.16589 0.35366,0.16589 0.31707,0 0.54878,-0.22969 0.2439,-0.2297 0.39024,-0.59977 0.15854,-0.37007 0.23171,-0.82947 0.0732,-0.47216 0.0732,-0.95708 0,-0.80394 -0.26829,-1.5058 -0.26829,-0.71461 -0.76829,-1.25058 -0.5,-0.53596 -1.21952,-0.84222 -0.70731,-0.30627 -1.59756,-0.30627 -0.89024,0 -1.63414,0.31903 -0.74391,0.30626 -1.28049,0.89327 -0.53659,0.57424 -0.84146,1.41647 -0.29269,0.84223 -0.29269,1.91416 0,1.12297 0.31708,1.97795 0.31707,0.84223 0.87804,1.41648 0.57317,0.56148 1.34147,0.84222 0.78049,0.29351 1.70731,0.29351 0.71952,0 1.18293,-0.0893 0.47561,-0.0893 0.60976,-0.14037 l 0.12195,0.94431 q -0.20732,0.0766 -0.7561,0.1659 -0.53658,0.0893 -1.15854,0.0893 -1.08536,0 -2.04878,-0.33179 -0.96341,-0.31903 -1.68292,-0.99536 -0.71951,-0.66357 -1.14634,-1.69722 Q 327,203.92923 327,202.5 q 0,-1.37819 0.41464,-2.41184 0.41463,-1.03364 1.10975,-1.70997 0.70732,-0.6891 1.62195,-1.03365 Q 331.07317,197 332.09756,197 q 1,0 1.89025,0.34454 0.89024,0.33179 1.56097,0.9826 0.67073,0.63805 1.06098,1.55685 0.39024,0.90603 0.39024,2.05452 0,0.86775 -0.19512,1.53132 -0.18293,0.66358 -0.5,1.12297 -0.31707,0.44664 -0.7561,0.67634 -0.43902,0.2297 -0.92683,0.2297 z m -2.43902,-1.03365 q 0.2561,0 0.51219,-0.051 0.2683,-0.0638 0.47561,-0.17866 -0.0366,-0.16589 -0.0488,-0.33178 -0.0122,-0.1659 -0.0122,-0.31903 v -2.99884 q -0.0732,-0.0255 -0.28049,-0.051 -0.20732,-0.0255 -0.46341,-0.0255 -0.86586,0 -1.29269,0.56148 -0.42683,0.56149 -0.42683,1.41647 0,0.90604 0.41464,1.442 0.41463,0.53596 1.12195,0.53596 z"/>
        <path style="color:#000000;display:inline;overflow:visible;visibility:visible;opacity:0.2;fill:#ffffff;fill-opacity:1;fill-rule:nonzero;stroke:none;stroke-width:1;marker:none;enable-background:accumulate" d="m 323,200 v 6.125 c -0.0217,4.42101 0.45314,4.875 4.86523,4.875 h 8.26954 C 340.54686,211 341,210.54607 341,206.125 V 200 Z" id="path1007"/>
        <path style="color:#000000;display:inline;overflow:visible;visibility:visible;opacity:0.2;fill:#ffffff;fill-opacity:1;fill-rule:nonzero;stroke:none;stroke-width:1;marker:none;enable-background:accumulate" d="m 332,189 v 22 h 4.13477 C 340.54686,211 341,210.54607 341,206.125 V 200 194 l -5,-5 z" id="path1014"/>
        <path style="color:#000000;font-style:normal;font-variant:normal;font-weight:normal;font-stretch:normal;font-size:medium;line-height:normal;font-family:sans-serif;font-variant-ligatures:normal;font-variant-position:normal;font-variant-caps:normal;font-variant-numeric:normal;font-variant-alternates:normal;font-feature-settings:normal;text-indent:0;text-align:start;text-decoration:none;text-decoration-line:none;text-decoration-style:solid;text-decoration-color:#000000;letter-spacing:normal;word-spacing:normal;text-transform:none;writing-mode:lr-tb;direction:ltr;text-orientation:mixed;dominant-baseline:auto;baseline-shift:baseline;text-anchor:start;white-space:normal;shape-padding:0;clip-rule:nonzero;display:inline;overflow:visible;visibility:visible;opacity:0.4;isolation:auto;mix-blend-mode:normal;color-interpolation:sRGB;color-interpolation-filters:linearRGB;solid-color:#000000;solid-opacity:1;vector-effect:none;fill:url(#linearGradient981);fill-opacity:1;fill-rule:nonzero;stroke:none;stroke-width:2;stroke-linecap:butt;stroke-linejoin:miter;stroke-miterlimit:4;stroke-dasharray:none;stroke-dashoffset:0;stroke-opacity:1;marker:none;color-rendering:auto;image-rendering:auto;shape-rendering:auto;text-rendering:auto;enable-background:accumulate" clip-path="none" d="m 327.86523,189 c -4.41209,0 -4.88685,0.45399 -4.86523,4.875 v 6.125 6.125 c -0.0217,4.42101 0.45314,4.875 4.86523,4.875 h 8.26954 C 340.54686,211 341,210.54607 341,206.125 V 200 194 l -5,-5 z m 0,1 H 336 l 4,4 v 6 6.125 c 0,1.08819 -0.0322,1.90989 -0.125,2.46289 -0.0928,0.553 -0.22434,0.78856 -0.36133,0.92578 -0.13699,0.13722 -0.37244,0.26659 -0.92383,0.35938 -0.55138,0.0928 -1.36917,0.12695 -2.45507,0.12695 h -8.26954 c -1.0859,0 -1.9055,-0.0341 -2.45898,-0.12695 -0.55348,-0.0929 -0.79182,-0.22184 -0.92969,-0.35938 -0.13786,-0.13754 -0.26769,-0.37421 -0.35937,-0.92578 -0.0917,-0.55157 -0.12253,-1.36976 -0.11719,-2.45703 v -0.002 V 200 v -6.12891 -0.002 c -0.005,-1.08727 0.0255,-1.90546 0.11719,-2.45703 0.0917,-0.55157 0.22151,-0.78824 0.35937,-0.92578 0.13787,-0.13754 0.37622,-0.26647 0.92969,-0.35938 0.55347,-0.0929 1.37308,-0.12695 2.45898,-0.12695 z" id="path935"/>
        <path style="color:#000000;display:inline;overflow:visible;visibility:visible;opacity:0.2;fill:#000000;fill-opacity:1;fill-rule:nonzero;stroke:none;stroke-width:0.25002289;marker:none;enable-background:accumulate" d="m 341,195 v -1 l -5,-5 h -1 v 2.29585 0.088 0.0472 c 0,3.10471 0.41561,3.58345 3.52745,3.56823 z" id="rect4158-0-3-62-2-3-7"/>
        <path style="color:#000000;display:inline;overflow:visible;visibility:visible;fill:#faf8f6;fill-opacity:1;fill-rule:nonzero;stroke:none;stroke-width:0.25002289;marker:none;enable-background:accumulate" d="m 341,193.99934 -5,-4.99936 v 1.85447 0.0807 0.0433 c 0,2.84599 0.13116,3.03489 2.98368,3.02094 z" id="rect4158-0-3-62-6-5"/>
      </g>
    </g>
  </g>
</svg>