<svg xmlns:dc="http://purl.org/dc/elements/1.1/" xmlns:cc="http://creativecommons.org/ns#" xmlns:rdf="http://www.w3.org/1999/02/22-rdf-syntax-ns#" xmlns:svg="http://www.w3.org/2000/svg" xmlns="http://www.w3.org/2000/svg" xmlns:xlink="http://www.w3.org/1999/xlink" style="display:inline;enable-background:new" version="1.0" id="svg11300" height="25" width="24">
  <title id="title3004">Suru Icon Theme Template</title>
  <defs id="defs3">
    <linearGradient gradientUnits="userSpaceOnUse" y2="211" x2="332" y1="189" x1="332" id="linearGradient981" xlink:href="#linearGradient927"/>
    <linearGradient id="linearGradient927">
      <stop id="stop923" offset="0" style="stop-color:#ffffff;stop-opacity:1;"/>
      <stop style="stop-color:#ffffff;stop-opacity:0.09803922" offset="0.125" id="stop933"/>
      <stop style="stop-color:#ffffff;stop-opacity:0.09803922" offset="0.92500001" id="stop931"/>
      <stop id="stop925" offset="1" style="stop-color:#ffffff;stop-opacity:0.49803922"/>
    </linearGradient>
  </defs>
  <metadata id="metadata4">
    <rdf:RDF>
      <cc:Work rdf:about="">
        <dc:format>image/svg+xml</dc:format>
        <dc:type rdf:resource="http://purl.org/dc/dcmitype/StillImage"/>
        <dc:creator>
          <cc:Agent>
            <dc:title>Sam Hewitt</dc:title>
          </cc:Agent>
        </dc:creator>
        <dc:source/>
        <cc:license rdf:resource="http://creativecommons.org/licenses/by-sa/4.0/"/>
        <dc:title>Suru Icon Theme Template</dc:title>
        <dc:subject>
          <rdf:Bag/>
        </dc:subject>
        <dc:date/>
        <dc:rights>
          <cc:Agent>
            <dc:title/>
          </cc:Agent>
        </dc:rights>
        <dc:publisher>
          <cc:Agent>
            <dc:title/>
          </cc:Agent>
        </dc:publisher>
        <dc:identifier/>
        <dc:relation/>
        <dc:language/>
        <dc:coverage/>
        <dc:description/>
        <dc:contributor>
          <cc:Agent>
            <dc:title/>
          </cc:Agent>
        </dc:contributor>
      </cc:Work>
      <cc:Work rdf:about="">
        <dc:format>image/svg+xml</dc:format>
        <dc:type rdf:resource="http://purl.org/dc/dcmitype/StillImage"/>
      </cc:Work>
      <cc:License rdf:about="http://creativecommons.org/licenses/by-sa/4.0/">
        <cc:permits rdf:resource="http://creativecommons.org/ns#Reproduction"/>
        <cc:permits rdf:resource="http://creativecommons.org/ns#Distribution"/>
        <cc:requires rdf:resource="http://creativecommons.org/ns#Notice"/>
        <cc:requires rdf:resource="http://creativecommons.org/ns#Attribution"/>
        <cc:permits rdf:resource="http://creativecommons.org/ns#DerivativeWorks"/>
        <cc:requires rdf:resource="http://creativecommons.org/ns#ShareAlike"/>
      </cc:License>
    </rdf:RDF>
  </metadata>
  <g transform="translate(-321,-250.5)" id="layer1" style="display:inline">
    <g id="layer7" style="display:inline"/>
    <g style="display:inline" id="layer4"/>
    <g style="display:inline" id="layer2"/>
    <g style="display:inline" id="layer6"/>
    <g style="display:none" id="layer3">
      <path id="path1006" d="M 326,84 V 96.251953 C 325.9567,105.09398 326.90629,106 335.73047,106 h 16.53906 C 361.09371,106 362,105.09408 362,96.251953 V 84 Z" style="color:#000000;display:inline;overflow:visible;visibility:visible;opacity:0.1;fill:#ffffff;fill-opacity:1;fill-rule:nonzero;stroke:none;stroke-width:1;marker:none;enable-background:accumulate"/>
      <path id="path1013" d="m 344,62 v 44 h 8.26953 C 361.09371,106 362,105.09408 362,96.251953 V 84 72 L 352,62 Z" style="color:#000000;display:inline;overflow:visible;visibility:visible;opacity:0.1;fill:#ffffff;fill-opacity:1;fill-rule:nonzero;stroke:none;stroke-width:1;marker:none;enable-background:accumulate"/>
      <path id="path1007" d="m 323,200 v 6.125 c -0.0217,4.42101 0.45314,4.875 4.86523,4.875 h 8.26954 C 340.54686,211 341,210.54607 341,206.125 V 200 Z" style="color:#000000;display:inline;overflow:visible;visibility:visible;opacity:0.1;fill:#ffffff;fill-opacity:1;fill-rule:nonzero;stroke:none;stroke-width:1;marker:none;enable-background:accumulate"/>
      <path id="path1009" d="m 328,237 v 14 h 2.9043 C 333.712,251 334,250.71185 334,247.89844 V 244 240 l -3,-3 z" style="color:#000000;display:inline;overflow:visible;visibility:visible;opacity:0.1;fill:#ffffff;fill-opacity:1;fill-rule:nonzero;stroke:none;stroke-width:1;marker:none;enable-background:accumulate"/>
      <path id="path1011" d="m 324,148 v 7.79688 C 323.9724,161.42361 324.57798,162 330.19336,162 h 11.61523 C 347.42399,162 348,161.42369 348,155.79688 V 148 Z" style="color:#000000;display:inline;overflow:visible;visibility:visible;opacity:0.1;fill:#ffffff;fill-opacity:1;fill-rule:nonzero;stroke:none;stroke-width:0.99999994;marker:none;enable-background:accumulate"/>
      <path id="path1014" d="m 332,189 v 22 h 4.13477 C 340.54686,211 341,210.54607 341,206.125 V 200 194 l -5,-5 z" style="color:#000000;display:inline;overflow:visible;visibility:visible;opacity:0.1;fill:#ffffff;fill-opacity:1;fill-rule:nonzero;stroke:none;stroke-width:1;marker:none;enable-background:accumulate"/>
      <path id="path1016" d="m 322,244 v 3.89844 C 321.9862,250.71181 322.28801,251 325.0957,251 h 5.8086 C 333.712,251 334,250.71185 334,247.89844 V 244 Z" style="color:#000000;display:inline;overflow:visible;visibility:visible;opacity:0.1;fill:#ffffff;fill-opacity:1;fill-rule:nonzero;stroke:none;stroke-width:1;marker:none;enable-background:accumulate"/>
      <path id="path1018" d="m 336,134 v 28 h 5.80859 C 347.42399,162 348,161.42369 348,155.79688 V 148 140 l -6,-6 z" style="color:#000000;display:inline;overflow:visible;visibility:visible;opacity:0.1;fill:#ffffff;fill-opacity:1;fill-rule:nonzero;stroke:none;stroke-width:0.99999994;marker:none;enable-background:accumulate"/>
    </g>
    <g style="display:inline" id="layer5"/>
    <g style="display:inline" id="layer9">
      <g id="g978" style="display:inline;enable-background:new" transform="translate(1,62.5)">
        <rect style="display:inline;overflow:visible;visibility:visible;opacity:0;fill:#cdcdcd;fill-opacity:1;fill-rule:nonzero;stroke:none;stroke-width:2;marker:none;enable-background:accumulate" id="rect24x24" width="24" height="24" x="320" y="188"/>
        <path style="color:#000000;font-style:normal;font-variant:normal;font-weight:normal;font-stretch:normal;font-size:medium;line-height:normal;font-family:sans-serif;font-variant-ligatures:normal;font-variant-position:normal;font-variant-caps:normal;font-variant-numeric:normal;font-variant-alternates:normal;font-feature-settings:normal;text-indent:0;text-align:start;text-decoration:none;text-decoration-line:none;text-decoration-style:solid;text-decoration-color:#000000;letter-spacing:normal;word-spacing:normal;text-transform:none;writing-mode:lr-tb;direction:ltr;text-orientation:mixed;dominant-baseline:auto;baseline-shift:baseline;text-anchor:start;white-space:normal;shape-padding:0;clip-rule:nonzero;display:inline;overflow:visible;visibility:visible;opacity:0.1;isolation:auto;mix-blend-mode:normal;color-interpolation:sRGB;color-interpolation-filters:linearRGB;solid-color:#000000;solid-opacity:1;vector-effect:none;fill:#000000;fill-opacity:1;fill-rule:nonzero;stroke:none;stroke-width:2;stroke-linecap:butt;stroke-linejoin:miter;stroke-miterlimit:4;stroke-dasharray:none;stroke-dashoffset:0;stroke-opacity:1;marker:none;color-rendering:auto;image-rendering:auto;shape-rendering:auto;text-rendering:auto;enable-background:accumulate" d="m 327.86523,189 c -1.12014,0 -2.01524,0.0241 -2.79101,0.1543 -0.77577,0.13022 -1.48014,0.38763 -2.00977,0.91601 -0.52962,0.52838 -0.79079,1.23687 -0.91992,2.01367 -0.12912,0.77681 -0.15002,1.67169 -0.14453,2.79493 V 201 v 6.125 c -0.005,1.12104 0.0156,2.01529 0.14453,2.79102 0.12912,0.77681 0.39029,1.48529 0.91992,2.01367 0.52964,0.52838 1.234,0.78579 2.00977,0.91601 0.77577,0.13022 1.67087,0.1543 2.79101,0.1543 h 8.26954 c 1.12013,0 2.01264,-0.024 2.78711,-0.1543 0.77446,-0.13033 1.48001,-0.38927 2.00781,-0.91797 0.5278,-0.52869 0.78594,-1.23438 0.91601,-2.00976 C 341.97577,209.14258 342,208.24735 342,207.125 V 201 195 l -6,-6 z" id="path995"/>
        <path id="path914" d="m 327.636,188.49999 c -4.65703,0 -5.15812,0.47378 -5.1353,5.09575 v 6.40425 6.40426 c -0.0229,4.62196 0.47827,5.09574 5.1353,5.09574 h 8.72869 c 4.65703,0 5.1353,-0.47372 5.1353,-5.09574 v -6.40426 -6.27273 l -5.27758,-5.22727 z" style="color:#000000;display:inline;overflow:visible;visibility:visible;fill:#0ca1a6;fill-opacity:1;fill-rule:nonzero;stroke:none;stroke-width:1;marker:none;enable-background:accumulate"/>
        <path style="display:inline;opacity:0.7;fill:#ffffff;stroke-width:1.30457771;enable-background:new" d="M 328.44141,198 C 326.5346,198 325,199.57359 325,201.5 c 0,1.92642 1.5542,3.5 3.44141,3.5 0.17651,0 0.35484,-0.0207 0.53125,-0.041 1.4742,-0.2282 2.45754,-1.34692 3.02734,-2.19531 0.55021,0.86937 1.53356,1.98811 3.02734,2.19531 0.17651,0.0217 0.35486,0.041 0.53125,0.041 1.88721,0 3.44141,-1.55261 3.44141,-3.5 0,-1.92641 -1.5542,-3.5 -3.44141,-3.5 -0.17651,0 -0.35484,0.0227 -0.53125,0.043 -1.47419,0.22819 -2.45754,1.34496 -3.02734,2.19336 -0.55021,-0.84979 -1.55314,-1.98616 -3.02734,-2.19336 C 328.79615,198.0214 328.6178,198 328.44141,198 Z m 6.98828,1.04883 c 0.68154,-0.0186 1.37336,0.21849 1.85156,0.71484 0.82068,0.77954 0.96501,2.1432 0.31641,3.07227 -0.52975,0.82237 -1.56565,1.2468 -2.52344,1.06836 -1.13235,-0.21922 -1.94486,-1.17259 -2.49414,-2.12696 -0.26103,-0.27813 0.0506,-0.599 0.17969,-0.86328 0.58104,-0.94188 1.50912,-1.81173 2.66992,-1.86523 z m -7.01367,0.0234 c 1.11536,-0.0879 2.04835,0.73311 2.64843,1.58789 0.16919,0.27894 0.40921,0.55652 0.47461,0.87109 -0.25946,0.57867 -0.64995,1.11548 -1.10742,1.5625 -0.57907,0.57984 -1.39735,0.93655 -2.22461,0.83203 -1.32182,-0.0754 -2.38643,-1.40733 -2.19531,-2.71289 0.13113,-1.17542 1.20585,-2.17792 2.4043,-2.14062 z" id="path8-6-2-9"/>
        <rect style="display:inline;opacity:1;fill:#ffffff;fill-opacity:1;stroke:none;stroke-width:9.06330681;stroke-linecap:round;stroke-linejoin:round;stroke-miterlimit:4;stroke-dasharray:none;stroke-opacity:1;enable-background:new" id="rect41686-6" width="3" height="1" x="327" y="201"/>
        <rect style="display:inline;opacity:1;fill:#ffffff;fill-opacity:1;stroke:none;stroke-width:9.06330681;stroke-linecap:round;stroke-linejoin:round;stroke-miterlimit:4;stroke-dasharray:none;stroke-opacity:1;enable-background:new" id="rect41688-9" width="3" height="1" x="334" y="201"/>
        <rect style="display:inline;opacity:1;fill:#ffffff;fill-opacity:1;stroke:none;stroke-width:9.06330681;stroke-linecap:round;stroke-linejoin:round;stroke-miterlimit:4;stroke-dasharray:none;stroke-opacity:1;enable-background:new" id="rect41688-5-1" width="3" height="1" x="-203" y="335" transform="rotate(-90)"/>
        <path style="color:#000000;font-style:normal;font-variant:normal;font-weight:normal;font-stretch:normal;font-size:medium;line-height:normal;font-family:sans-serif;font-variant-ligatures:normal;font-variant-position:normal;font-variant-caps:normal;font-variant-numeric:normal;font-variant-alternates:normal;font-feature-settings:normal;text-indent:0;text-align:start;text-decoration:none;text-decoration-line:none;text-decoration-style:solid;text-decoration-color:#000000;letter-spacing:normal;word-spacing:normal;text-transform:none;writing-mode:lr-tb;direction:ltr;text-orientation:mixed;dominant-baseline:auto;baseline-shift:baseline;text-anchor:start;white-space:normal;shape-padding:0;clip-rule:nonzero;display:inline;overflow:visible;visibility:visible;opacity:0.4;isolation:auto;mix-blend-mode:normal;color-interpolation:sRGB;color-interpolation-filters:linearRGB;solid-color:#000000;solid-opacity:1;vector-effect:none;fill:#000000;fill-opacity:1;fill-rule:nonzero;stroke:none;stroke-width:2;stroke-linecap:butt;stroke-linejoin:miter;stroke-miterlimit:4;stroke-dasharray:none;stroke-dashoffset:0;stroke-opacity:1;marker:none;color-rendering:auto;image-rendering:auto;shape-rendering:auto;text-rendering:auto;enable-background:accumulate" d="m 327.86523,188 c -1.12014,0 -2.01524,0.0241 -2.79101,0.1543 -0.77577,0.13022 -1.48014,0.38763 -2.00977,0.91601 -0.52962,0.52838 -0.79079,1.23687 -0.91992,2.01367 -0.12912,0.77681 -0.15002,1.67169 -0.14453,2.79493 V 200 v 6.125 c -0.005,1.12104 0.0156,2.01529 0.14453,2.79102 0.12912,0.77681 0.39029,1.48529 0.91992,2.01367 0.52964,0.52838 1.234,0.78579 2.00977,0.91601 0.77577,0.13022 1.67087,0.1543 2.79101,0.1543 h 8.26954 c 1.12013,0 2.01264,-0.024 2.78711,-0.1543 0.77445,-0.13033 1.48001,-0.38927 2.00781,-0.91797 0.5278,-0.52869 0.78594,-1.23438 0.91601,-2.00976 C 341.97577,208.14258 342,207.24735 342,206.125 V 200 193.46094 L 336.54883,188 Z m 0,1 H 336 l 5,5 v 6 6.125 c 0,4.42107 -0.45314,4.875 -4.86523,4.875 h -8.26954 C 323.45314,211 322.9783,210.54601 323,206.125 V 200 193.875 c -0.0216,-4.42101 0.45314,-4.875 4.86523,-4.875 z" id="path926"/>
        <path style="color:#000000;font-style:normal;font-variant:normal;font-weight:normal;font-stretch:normal;font-size:medium;line-height:normal;font-family:sans-serif;font-variant-ligatures:normal;font-variant-position:normal;font-variant-caps:normal;font-variant-numeric:normal;font-variant-alternates:normal;font-feature-settings:normal;text-indent:0;text-align:start;text-decoration:none;text-decoration-line:none;text-decoration-style:solid;text-decoration-color:#000000;letter-spacing:normal;word-spacing:normal;text-transform:none;writing-mode:lr-tb;direction:ltr;text-orientation:mixed;dominant-baseline:auto;baseline-shift:baseline;text-anchor:start;white-space:normal;shape-padding:0;clip-rule:nonzero;display:inline;overflow:visible;visibility:visible;opacity:0.4;isolation:auto;mix-blend-mode:normal;color-interpolation:sRGB;color-interpolation-filters:linearRGB;solid-color:#000000;solid-opacity:1;vector-effect:none;fill:url(#linearGradient981);fill-opacity:1;fill-rule:nonzero;stroke:none;stroke-width:2;stroke-linecap:butt;stroke-linejoin:miter;stroke-miterlimit:4;stroke-dasharray:none;stroke-dashoffset:0;stroke-opacity:1;marker:none;color-rendering:auto;image-rendering:auto;shape-rendering:auto;text-rendering:auto;enable-background:accumulate" clip-path="none" d="m 327.86523,189 c -4.41209,0 -4.88685,0.45399 -4.86523,4.875 v 6.125 6.125 c -0.0217,4.42101 0.45314,4.875 4.86523,4.875 h 8.26954 C 340.54686,211 341,210.54607 341,206.125 V 200 194 l -5,-5 z m 0,1 H 336 l 4,4 v 6 6.125 c 0,1.08819 -0.0322,1.90989 -0.125,2.46289 -0.0928,0.553 -0.22434,0.78856 -0.36133,0.92578 -0.13699,0.13722 -0.37244,0.26659 -0.92383,0.35938 -0.55138,0.0928 -1.36917,0.12695 -2.45507,0.12695 h -8.26954 c -1.0859,0 -1.9055,-0.0341 -2.45898,-0.12695 -0.55348,-0.0929 -0.79182,-0.22184 -0.92969,-0.35938 -0.13786,-0.13754 -0.26769,-0.37421 -0.35937,-0.92578 -0.0917,-0.55157 -0.12253,-1.36976 -0.11719,-2.45703 v -0.002 V 200 v -6.12891 -0.002 c -0.005,-1.08727 0.0255,-1.90546 0.11719,-2.45703 0.0917,-0.55157 0.22151,-0.78824 0.35937,-0.92578 0.13787,-0.13754 0.37622,-0.26647 0.92969,-0.35938 0.55347,-0.0929 1.37308,-0.12695 2.45898,-0.12695 z" id="path935"/>
        <path style="color:#000000;display:inline;overflow:visible;visibility:visible;opacity:0.6;fill:#076164;fill-opacity:1;fill-rule:nonzero;stroke:none;stroke-width:0.25002289;marker:none;enable-background:accumulate" d="m 341,195 v -1 l -5,-5 h -1 v 2.29585 0.088 0.0472 c 0,3.10471 0.41561,3.58345 3.52745,3.56823 z" id="rect4158-0-3-62-2-3-7"/>
        <path style="color:#000000;display:inline;overflow:visible;visibility:visible;fill:#64c3c6;fill-opacity:1;fill-rule:nonzero;stroke:none;stroke-width:0.25002289;marker:none;enable-background:accumulate" d="m 341,193.99934 -5,-4.99936 v 1.85447 0.0807 0.0433 c 0,2.84599 0.13116,3.03489 2.98368,3.02094 z" id="rect4158-0-3-62-6-5"/>
      </g>
    </g>
  </g>
</svg>