<svg width="48" height="48" version="1" xmlns="http://www.w3.org/2000/svg">
 <rect transform="matrix(0,-1,-1,0,0,0)" x="-46" y="-45" width="42" height="42" rx="21" ry="21" enable-background="new" opacity=".2"/>
 <rect transform="matrix(0,-1,-1,0,0,0)" x="-46" y="-45" width="42" height="42" rx="21" ry="21" enable-background="new" opacity=".1"/>
 <rect transform="matrix(0,-1,-1,0,0,0)" x="-45" y="-45" width="42" height="42" rx="21" ry="21" enable-background="new" fill="#1a7fd4"/>
 <path d="m24.626 11.011 3e-3 3e-3c-1.2072 1.1e-4 -2.3492 0.13833-3.4258 0.414-0.97744 0.25599-1.8433 0.60541-2.6432 1.0095l0.81705 2.2601c1.558-0.79083 3.156-1.2238 4.7919-1.2238 1.3753 0 2.4663 0.36356 3.2175 1.1136 0.74118 0.71466 1.1166 1.6685 1.1166 2.7992 0 0.70496-0.16496 1.3648-0.49229 1.9655-0.29262 0.58398-0.67629 1.1402-1.1498 1.6663-0.46375 0.51528-0.9525 1.0304-1.4673 1.5452l-2e-3 2e-3 -5e-3 2e-3c-0.50166 0.47658-0.97815 1.0039-1.4311 1.5827l-2e-3 2e-3 -9.4e-4 2e-3c-0.4455 0.54446-0.81583 1.138-1.1133 1.7817-0.2648 0.62784-0.40073 1.3303-0.40073 2.1165 0 0.47152 0.0547 0.9138 0.12805 1.3455h2.4621c-2e-3 -0.05272-0.0136-0.10001-0.0136-0.1549v-0.42263c0-0.87761 0.1742-1.6753 0.52547-2.3798 0.34132-0.7089 0.76249-1.3538 1.2622-1.9333l2e-3 -2e-3c9.5e-4 -9.45e-4 9.5e-4 -0.0019 2e-3 -0.0054 0.4932-0.59656 1.0383-1.166 1.6338-1.7097 0.5796-0.52922 1.1082-1.0836 1.586-1.662 0.47266-0.57215 0.86921-1.1809 1.1922-1.8262v-9.45e-4c0.31333-0.6511 0.47272-1.3885 0.47272-2.2239 0-0.66112-0.10952-1.3511-0.33306-2.0707l-2e-3 -5e-3 -9.5e-4 -5e-3c-0.19348-0.7258-0.55345-1.3765-1.0897-1.9615-0.53123-0.57952-1.2498-1.0567-2.1675-1.4288l-0.01-4e-3c-0.87307-0.38804-2.0273-0.59106-3.46-0.59115zm-0.61106 22.566c-0.7357 0-1.272 0.22474-1.6816 0.67971-0.42061 0.46737-0.62233 0.99397-0.62233 1.6255 0 0.6315 0.20183 1.1591 0.62233 1.6265 0.4096 0.45511 0.94584 0.67838 1.6816 0.67838 0.73577 0 1.2729-0.22338 1.6825-0.67838 0.42057-0.46734 0.62235-0.99498 0.62235-1.6265 0-0.63153-0.20164-1.1581-0.62235-1.6255-0.40961-0.45511-0.94676-0.67971-1.6825-0.67971z" enable-background="new" fill="#fff"/>
</svg>
