<svg width="48" height="48" version="1.1" xmlns="http://www.w3.org/2000/svg">
 <rect transform="matrix(0,-1,-1,0,0,0)" x="-46" y="-45" width="42" height="42" rx="21" ry="21" enable-background="new" opacity=".2"/>
 <rect transform="matrix(0,-1,-1,0,0,0)" x="-46" y="-45" width="42" height="42" rx="21" ry="21" enable-background="new" opacity=".1"/>
 <rect transform="matrix(0,-1,-1,0,0,0)" x="-45" y="-45" width="42" height="42" rx="21" ry="21" enable-background="new" fill="#5d5d5d"/>
 <g transform="matrix(2.0164 0 0 2.0164 -653.52 -274.43)" enable-background="new" stroke-width=".57195">
  <rect transform="rotate(90)" x="140.04" y="-343.99" width="16" height="16" color="#000000" enable-background="accumulate" fill="none"/>
  <path d="m337.31 139.96-2.6322 0.39327v1.3534a6.4893 6.4775 43.146 0 1 2.6322 5e-3v-1.7515zm-5.3858 1.1906-2.0054 1.7049 0.98801 1.1776a6.4893 6.4775 43.146 0 1 2.0174-1.6908zm8.1287 0.0127-0.99285 1.1835a6.4893 6.4775 43.146 0 1 0.17056 0.0905 6.4893 6.4775 43.146 0 1 1.8446 1.6029l1.0051-1.1977zm-11.61 4.2168-0.44056 2.5954 1.5154 0.26739a6.4893 6.4775 43.146 0 1 0.45509-2.5927zm15.086 3e-3 -1.5228 0.26851a6.4893 6.4775 43.146 0 1 0.46365 2.5909l1.5329-0.27zm-13.682 4.6946-1.3515 0.78058h-3.4e-4l1.331 2.271 1.3381-0.77238a6.4893 6.4775 43.146 0 1-1.3172-2.2792zm12.301 3e-3a6.4893 6.4775 43.146 0 1-0.53478 1.2148 6.4893 6.4775 43.146 0 1-0.77388 1.0692l1.3388 0.77313 1.3016-2.2881zm-9.5569 3.4716-0.53479 1.4688 2.4795 0.88448 0.52585-1.4453a6.4893 6.4775 43.146 0 1-2.3034-0.79995 6.4893 6.4775 43.146 0 1-0.16721-0.10799zm6.8133 0.0153a6.4893 6.4775 43.146 0 1-2.4747 0.89752l0.53031 1.4565 2.4676-0.91651z" color="#000000" enable-background="accumulate" fill="#e6e6e6"/>
  <circle cx="336" cy="148" r="6.44" fill="none" stroke="#e6e6e6" stroke-linecap="square" stroke-linejoin="round" stroke-width=".64059"/>
  <circle cx="336" cy="148" r="4.44" fill="none" stroke="#e6e6e6" stroke-linecap="square" stroke-linejoin="round" stroke-width=".64059"/>
 </g>
</svg>
