<svg width="48" height="48" version="1.1" xmlns="http://www.w3.org/2000/svg">
 <rect transform="matrix(0,-1,-1,0,0,0)" x="-46" y="-45" width="42" height="42" rx="21" ry="21" enable-background="new" opacity=".2"/>
 <rect transform="matrix(0,-1,-1,0,0,0)" x="-46" y="-45" width="42" height="42" rx="21" ry="21" enable-background="new" opacity=".1"/>
 <rect transform="matrix(0,-1,-1,0,0,0)" x="-45" y="-45" width="42" height="42" rx="21" ry="21" enable-background="new" fill="#e95420"/>
 <g transform="matrix(2 0 0 2 -2298 502)" enable-background="new">
  <rect transform="rotate(90)" x="-247" y="-1169" width="16" height="16" color="#000000" enable-background="accumulate" fill="none"/>
  <path d="m1161-246c-2.222 0-4 1.778-4 4v2h-1v7h10v-7h-1v-2c0-2.222-1.778-4-4-4zm0 1c1.662 0 3 1.338 3 3v2h-6v-2c0-1.662 1.338-3 3-3zm1 6.75v3.25h-2v-3z" color="#000000" color-rendering="auto" enable-background="accumulate" fill="#fff" image-rendering="auto" shape-rendering="auto" solid-color="#000000" style="font-feature-settings:normal;font-variant-alternates:normal;font-variant-caps:normal;font-variant-ligatures:none;font-variant-numeric:normal;font-variant-position:normal;isolation:auto;mix-blend-mode:normal;shape-padding:0;text-decoration-color:#000000;text-decoration-line:none;text-decoration-style:solid;text-indent:0;text-transform:none;white-space:normal"/>
 </g>
</svg>
