<svg version="1.1" viewBox="0 0 16 16" xmlns="http://www.w3.org/2000/svg">
 <path d="m10.229 0c-0.10375-1e-3 -0.1908-9.8438e-4 -0.26367 0.0078125-0.07286 0.0086719-0.132 0.027109-0.17969 0.060547-0.09462 0.067127-0.1469 0.19722-0.17578 0.45117l-0.02148 0.17969v0.001953c-0.024784 0.16424-0.040878 0.28461-0.087895 0.37305v0.00195c-0.02355 0.043854-0.05502 0.079002-0.09961 0.10938l-2e-3 0.00195c-0.02606 0.017524-0.06761 0.029036-0.10352 0.042969-0.02573 0.010011-0.04442 0.022829-0.07617 0.03125l-0.0625 0.013672c-0.0035 8.679e-4 -0.0093 0.00349-0.01367 0.00391-0.07639 0.01885-0.15505 0.039713-0.23047 0.0625-0.01167 0.00354-0.0243 0.00736-0.03516 0.011719l-0.0332 0.00977c-0.309 0.088-0.39061-0.034875-0.59961-0.29688l-0.10738-0.14453c-0.15-0.206-0.26-0.29373-0.375-0.30273a0.322 0.322 0 0 0-0.042969 0c-0.030213 0.002324-0.064995 0.018253-0.097656 0.029297-0.01994 0.006856-0.039182 0.009743-0.060547 0.019531-0.043429 0.019768-0.095184 0.047937-0.14648 0.078125-0.024205 0.014046-0.043764 0.023197-0.070312 0.039062-0.07 0.04-0.12969 0.074375-0.17969 0.10938v0.003906c-0.20784 0.14292-0.25922 0.27646-0.09961 0.65234l0.070312 0.16602c0.06032 0.15959 0.10056 0.27029 0.10156 0.37305 0.00115 0.069425-0.01858 0.13458-0.068359 0.20508-0.032704 0.046486-0.070908 0.093482-0.13281 0.14844l0.00781-0.00195c-0.06 0.058-0.12073 0.11769-0.17773 0.17969l0.00195-0.00781c-0.257 0.298-0.3858 0.23252-0.7168 0.10352l-0.16406-0.070318a0.971 0.971 0 0 0-0.33984-0.099609c-0.19-5e-3 -0.27211 0.12981-0.41211 0.38281-0.212 0.362-0.27219 0.49673 0.13281 0.80273l0.14453 0.11133c0.257 0.21 0.37997 0.29147 0.29297 0.60547l-0.011719 0.035156-0.011719 0.037109a4.705 4.705 0 0 0-0.00391 0.013672c-0.00733 0.024333-0.012791 0.0497-0.019531 0.074219a4.705 4.705 0 0 0-0.025391 0.097656c-0.00424 0.016891-0.00956 0.033879-0.013672 0.050781-7.2e-4 0.0036-0.00132 0.00646-0.00195 0.00977v0.00195c-7.02e-5 6.663e-4 0 0.00125 0 0.00195l-0.00391 0.013672-0.011719 0.048828c-0.01985 0.076766-0.042528 0.13646-0.072266 0.18164-3.83e-4 5.903e-4 -0.00157 0.00137-0.00195 0.00195-0.029784 0.044429-0.064481 0.075992-0.10742 0.099609-0.066662 0.036664-0.1727 0.050498-0.28125 0.068359-0.034577 0.00571-0.050162 0.015155-0.089844 0.021484l-0.019531 0.00195-0.15625 0.019531c-0.19787 0.02365-0.30572 0.068722-0.38086 0.13086-0.020247 0.016579-0.050431 0.028447-0.064453 0.048828-0.06667 0.096901-0.068917 0.23836-0.066406 0.44922-0.00375 0.3165 0.00298 0.47844 0.21875 0.56445 0.071922 0.028672 0.16747 0.049703 0.29297 0.064453l0.17578 0.023437c0.163 0.026 0.28189 0.039891 0.36914 0.087891 4.386e-4 2.376e-4 0.00152-2.391e-4 0.00195 0 0.086551 0.04808 0.14183 0.12989 0.18164 0.28516a3.778 3.778 0 0 0 0.015625 0.0625l0.00195 0.015625a4.718 4.718 0 0 0 0.0625 0.23242h-0.00195l0.013672 0.037109 0.00977 0.035156c0.087 0.314-0.034969 0.39742-0.29297 0.60742l-0.14258 0.10938c-0.405 0.306-0.34677 0.44169-0.13477 0.80469 0.139 0.252 0.22406 0.38881 0.41406 0.38281a0.971 0.971 0 0 0 0.33789-0.099599l0.16602-0.070312c0.332-0.13 0.4598-0.19744 0.7168 0.10156l-0.00195-0.00781a4.755 4.755 0 0 0 0.17773 0.17969l-0.00781-0.00195c0.068984 0.06145 0.11341 0.11664 0.14648 0.16797 0.034731 0.05927 0.060001 0.11604 0.058594 0.17578 0.00213 0.10538-0.043231 0.21815-0.10547 0.38281l-0.070312 0.16797c-0.2 0.471-0.08075 0.55767 0.28125 0.76367 0.156 0.094 0.26905 0.15997 0.37305 0.16797a0.322 0.322 0 0 0 0.042969 0c0.115-0.01 0.225-0.09673 0.375-0.30273l0.10742-0.14648c0.209-0.261 0.29061-0.38588 0.59961-0.29688l0.03516 0.0098 0.03516 0.01172a4.466 4.466 0 0 0 0.22852 0.0625h2e-3l0.01367 0.0039 0.06055 0.01367c0.309 0.081 0.31814 0.2325 0.36914 0.5625l0.02148 0.17969c0.05889 0.50906 0.2059 0.52445 0.61914 0.51953 0.31376 0.0037 0.47255-0.0071 0.55664-0.23438 2.1e-4 -5.68e-4 0.0017-0.0014 2e-3 -2e-3 0.02838-0.07305 0.04775-0.16938 0.0625-0.29688l0.02149-0.17969c0.02479-0.15839 0.03895-0.27724 0.08594-0.36328 0.04765-0.08725 0.12671-0.14542 0.2793-0.18555a2.21 2.21 0 0 0 0.0625-0.01367l0.01367-0.0039a4.471 4.471 0 0 0 0.23047-0.0625l0.03516-0.01172c0.012-3e-3 0.0232-0.0058 0.0332-0.0098 0.31-0.088 0.39356 0.03683 0.60156 0.29883l0.10742 0.14453c0.15 0.206 0.259 0.29273 0.375 0.30273 0.115 0.01 0.23602-0.05902 0.41602-0.16602 0.069-0.04 0.13064-0.07633 0.18164-0.11133v-0.01367c0.2106-0.14326 0.26199-0.27648 0.10156-0.6543l-0.07031-0.16602c-0.05973-0.15803-0.09982-0.26719-0.10156-0.36914 7.65e-4 -0.070394 0.01542-0.13625 0.07031-0.20898 0.03264-0.046486 0.07112-0.093482 0.13281-0.14844l-0.0078 0.00195c0.06-0.059 0.12073-0.12064 0.17773-0.18164l-2e-3 0.00977c0.256-0.299 0.38384-0.23252 0.71484-0.10352l0.16602 0.070312a0.969 0.969 0 0 0 0.33782 0.099649c0.19 6e-3 0.27406-0.13081 0.41406-0.38281 0.21-0.363 0.27024-0.49673-0.13476-0.80273l-0.14258-0.11133c-0.257-0.21-0.37997-0.29342-0.29297-0.60742l0.01172-0.035156 0.01172-0.037109h-2e-3a4.682 4.682 0 0 0 0.05859-0.2207l0.0039-0.011719v-0.00195l0.0039-0.011719 0.0098-0.050781c0.08-0.312 0.22774-0.323 0.55274-0.375l0.17773-0.023437c0.25912-0.030455 0.38538-0.086386 0.44922-0.18945 0.06588-0.09675 0.06695-0.23822 0.06445-0.44922 5e-3 -0.42-0.0097-0.56795-0.51172-0.62695l-0.17578-0.023437c-0.325-0.052-0.47374-0.062-0.55274-0.375a5.164 5.164 0 0 0-0.01367-0.0625l-0.0039-0.013672v-0.00195a4.672 4.672 0 0 0-0.05859-0.21875h-0.0059v-0.00195l-0.01367-0.035156-0.0098-0.035156c-0.087-0.314 0.03597-0.39742 0.29297-0.60742l0.14453-0.11133c0.404-0.306 0.34381-0.44073 0.13281-0.80273-0.14-0.252-0.22311-0.38881-0.41211-0.38281a0.971 0.971 0 0 0-0.33984 0.099609l-0.16406 0.070312c-0.331 0.129-0.4598 0.19448-0.7168-0.10352l2e-3 0.00781c-0.058-0.062-0.11773-0.12169-0.17774-0.17969l0.0078 0.00195c-0.0619-0.054956-0.10004-0.10195-0.13281-0.14844-0.05077-0.071913-0.07232-0.13797-0.07031-0.20898 0.0016-0.10195 0.04183-0.21111 0.10156-0.36914l0.07031-0.16602c0.16046-0.37588 0.10995-0.50994-0.097598-0.65235v-0.003906a2.91 2.91 0 0 0-0.17969-0.10938h-2e-3c-0.08241-0.049655-0.15131-0.087844-0.21484-0.11719-0.0229-0.010507-0.0432-0.014314-0.06445-0.021484-0.03103-0.010449-0.06509-0.025118-0.09375-0.027344a0.322 0.322 0 0 0-0.0332 0c-3e-3 1.2944e-4 -0.0068-0.002189-0.0098-0.001953-0.116 0.01-0.224 0.099688-0.375 0.30469l-0.10742 0.14453c-0.156 0.19575-0.2407 0.31395-0.4043 0.32422-0.05445 0.00333-0.11781-0.00534-0.19531-0.027344l-0.03516-0.00977-0.03516-0.011719a4.471 4.471 0 0 0-0.23047-0.0625l-0.01172-0.00391a2.21 2.21 0 0 0-2e-3 0l-0.06055-0.013672c-0.07725-0.02025-0.13653-0.043609-0.18164-0.074219-0.04505-0.030531-0.07592-0.068906-0.09961-0.11328-0.04683-0.088619-0.06252-0.20836-0.08789-0.37305l-0.02149-0.17969c-0.0295-0.255-0.08223-0.38625-0.17773-0.45313-0.095236-0.067116-0.23377-0.070351-0.44127-0.068351zm-0.07617 2.4219a3.384 3.436 0 0 1 0.07617 0 3.384 3.436 0 0 1 0.10156 0.00195 3.384 3.436 0 0 1 0.25195 0.017578 3.384 3.436 0 0 1 0.05859 0.00586 3.384 3.436 0 0 1 0.09766 0.013672 3.384 3.436 0 0 1 0.07617 0.013672 3.384 3.436 0 0 1 0.03906 0.00586 3.384 3.436 0 0 1 0.13086 0.027344 3.384 3.436 0 0 1 0.01563 0.00391 3.384 3.436 0 0 1 0.12305 0.03125 3.384 3.436 0 0 1 0.03711 0.011719 3.384 3.436 0 0 1 2.1328 1.8535v-0.00586a3.384 3.436 0 0 1 0.31836 1.4551 3.384 3.436 0 0 1-0.26367 1.3223h2e-3a3.384 3.436 0 0 1-0.05664 0.12891 3.384 3.436 0 0 1-0.0625 0.12695 3.384 3.436 0 0 1-0.07031 0.13086 3.384 3.436 0 0 1-0.0039 0.00781 3.384 3.436 0 0 1-0.0332 0.056641 3.384 3.436 0 0 1-0.04687 0.076172 3.384 3.436 0 0 1-0.03516 0.054688 3.384 3.436 0 0 1-0.01367 0.019531 3.384 3.436 0 0 1-0.07617 0.10938 3.384 3.436 0 0 1-0.09375 0.12305 3.384 3.436 0 0 1-0.09961 0.11914 3.384 3.436 0 0 1-0.10547 0.11523 3.384 3.436 0 0 1-0.10938 0.10938 3.384 3.436 0 0 1-2.3106 0.92383 3.384 3.436 0 0 1-3.0645-1.9863v0.03125a3.384 3.436 0 0 1-0.064453-0.14648h0.00586a3.384 3.436 0 0 1-0.26367-1.2168 3.384 3.436 0 0 1-0.0019531-0.10547 3.384 3.436 0 0 1 0.00391-0.13281 3.384 3.436 0 0 1 0.00391-0.070312 3.384 3.436 0 0 1 0.00391-0.078125 3.384 3.436 0 0 1 0.011719-0.125 3.384 3.436 0 0 1 0.00195-0.015625 3.384 3.436 0 0 1 0.023437-0.15039 3.384 3.436 0 0 1 0.029297-0.1543 3.384 3.436 0 0 1 0.18555-0.5957h-0.00195a3.384 3.436 0 0 1 0.058594-0.13281v0.00586a3.384 3.436 0 0 1 2.4629-1.9316 3.384 3.436 0 0 1 0.10352-0.017578 3.384 3.436 0 0 1 0.07422-0.00977 3.384 3.436 0 0 1 0.07617-0.00977 3.384 3.436 0 0 1 0.11719-0.00977 3.384 3.436 0 0 1 0.1543-0.00781z" fill="#666666"/>
 <path d="m2.6738 9.2812c-0.06-0.01-0.13333 0.00811-0.23633 0.037109-0.00583 0.00153-0.00608 0.00436-0.011719 0.00586-0.040195 0.010351-0.076814 0.018494-0.10742 0.029297l-0.00586 0.019531c-0.11721 0.048803-0.18037 0.11346-0.14844 0.33398l0.013672 0.10742c0.010639 0.10156 0.017955 0.17145 0.00195 0.23047-0.0023 0.0087-0.012166 0.01521-0.015625 0.02344-0.021775 0.05216-0.057764 0.09604-0.15039 0.14258h0.00391a2.849 2.849 0 0 0-0.12695 0.07422l0.00195-0.0039c-0.19 0.13-0.25288 0.07127-0.42188-0.05273l-0.083984-0.06445a0.575 0.575 0 0 0-0.17578-0.10742c-0.107-0.033-0.17497 0.02839-0.29297 0.15039-0.174 0.173-0.22892 0.24152-0.044922 0.47852l0.064453 0.08398c0.114 0.16 0.17217 0.22367 0.076172 0.38867l-0.023438 0.03906c-7.471e-4 0.0012-0.00121 0.0027-0.00195 0.0039h-0.00195c-0.023 0.038-0.046406 0.07719-0.066406 0.11719l-0.00391 0.0078-0.017578 0.0332c-0.0465 0.0825-0.089824 0.11907-0.14648 0.13281-0.05666 0.01374-0.12666 0.0046-0.22266-0.0059h-0.00195l-0.10156-0.01367c-0.075398-0.01125-0.13187-0.01331-0.17773-0.0078-0.044469 0.0053-0.07779 0.0188-0.10352 0.04101-0.05156 0.04453-0.075671 0.123-0.10547 0.24219-2.016e-4 8.05e-4 2.023e-4 0.0011 0 2e-3 -0.032563 0.11759-0.05232 0.19888-0.029297 0.26367 1.617e-4 4.75e-4 -1.662e-4 0.0015 0 2e-3 0.011724 0.03208 0.034267 0.05887 0.070312 0.08594 0.036709 0.0278 0.086062 0.05586 0.15625 0.08399l0.097656 0.03906c0.177 0.08 0.25981 0.10788 0.25781 0.29688l-0.00195 0.03711v0.0118a2.65 2.65 0 0 0 0 0.13281 2.739 2.739 0 0 0 0 0.0078c2e-3 8e-3 0.00195 0.01348 0.00195 0.02148v0.02148c3e-3 0.191-0.080813 0.22078-0.25781 0.30078l-0.097656 0.03906c-0.276 0.111-0.26327 0.19655-0.19727 0.43555 0.041 0.164 0.069734 0.2533 0.17773 0.2793a0.557 0.557 0 0 0 0.20703-2e-3l0.10352-0.01563c0.208-0.022 0.29058-0.04003 0.39258 0.16797v-0.0059a2.786 2.786 0 0 0 0.072266 0.13086l-0.00391-2e-3c0.06112 0.09216 0.074739 0.15397 0.064453 0.21289-9.429e-4 0.0043 0.00319 0.0094 0.00195 0.01367-0.014502 0.06015-0.056818 0.11773-0.11719 0.20117l-0.064453 0.08398c-0.13745 0.17704-0.11219 0.26482-0.033203 0.36719l-0.00391 0.01172c0.012522 0.01524 0.030958 0.03251 0.046875 0.04883 0.016455 0.01727 0.015452 0.02924 0.035156 0.04883 0.075 0.077 0.12755 0.13234 0.18555 0.15234a0.113 0.113 0 0 0 0.025391 0.0059c0.067 0.012 0.14081-0.02028 0.25781-0.11328l0.083984-0.06641c0.157-0.116 0.22081-0.17417 0.38281-0.07617l0.019531 0.01172a0.43 0.43 0 0 0 0.14648 0.08594l0.033203 0.01953c0.162 0.094 0.145 0.18 0.125 0.375l-0.013672 0.10547c-0.043786 0.29556 0.037156 0.32824 0.27148 0.38867 0.1777 0.05066 0.27002 0.06907 0.35156-0.04492 0 0 0.00195-2e-3 0.00195-2e-3 0.02604-0.03565 0.049871-0.08648 0.076172-0.15234 0.00108-0.0027 0.00282-0.0031 0.00391-0.0059l0.039063-0.09961c0.037778-0.08718 0.063497-0.14826 0.10156-0.19141 0.040125-0.04288 0.094-0.0635 0.1875-0.0625h0.046875a3.716 3.716 0 0 0 0.14062 0h0.042969c0.189-3e-3 0.21692 0.07976 0.29492 0.25976l0.039063 0.09766c0.055 0.14 0.10297 0.20747 0.16797 0.23047 0.00382 0.0014 0.011683-0.0031 0.015625-2e-3a0.2 0.2 0 0 0 0.011719 0.0039c0.036354 0.0061 0.094561-0.01077 0.14453-0.02148 0.032326-0.0072 0.049627-3.1e-5 0.089844-0.01172a1.685 1.685 0 0 0 0.11914-0.0332l0.00586-0.02539c0.11913-0.04863 0.18449-0.1138 0.15235-0.33583l-0.015625-0.10547c-0.010369-0.09898-0.016397-0.16643-0.00195-0.22461 0.00347-0.01275 0.015381-0.02348 0.021484-0.03516 0.022994-0.04943 0.057041-0.092 0.14648-0.13672h-0.00391c0.043-0.024 0.084953-0.05017 0.12695-0.07617l-0.00195 0.0039c0.19-0.13 0.25388-0.06931 0.42188 0.05469l0.082031 0.06445c0.073 0.059 0.13169 0.09242 0.17969 0.10742 0.106 0.033 0.17402-0.03034 0.29102-0.15234 0.174-0.173 0.22892-0.23956 0.044922-0.47656l-0.066406-0.08399c-0.114-0.16-0.17022-0.22562-0.074219-0.39062l0.011719-0.01758 0.00977-0.01758h0.00195v-2e-3c0.017477-0.02913 0.034077-0.05965 0.050781-0.08984 0.00434-0.0081 0.00956-0.01522 0.013672-0.02344 2e-3 -3e-3 0.00586-0.0068 0.00586-0.0098a1.868 1.868 0 0 0 0.00391-0.0078l0.011719-0.02344 0.00195-2e-3c0.092256-0.16137 0.17846-0.14486 0.36914-0.125l0.10352 0.01367c0.295 0.044 0.32477-0.03734 0.38477-0.27734 9.695e-4 -0.0038 0.00292-0.0039 0.00391-0.0078 0.066-0.238 0.080687-0.32455-0.19531-0.43555l-0.097656-0.03906c-0.177-0.08-0.25981-0.10983-0.25781-0.29883l0.00195-0.03711v-0.0098c2e-3 -0.045 9.999e-4 -0.08881 0-0.13281h-0.00391v-2e-3c-0.00151-0.0071-0.00195-0.01225-0.00195-0.01953v-0.02148c-3e-3 -0.192 0.080812-0.22078 0.25781-0.30078l0.097656-0.03906c0.276-0.111 0.26131-0.1985 0.19531-0.4375-0.041-0.164-0.069734-0.2533-0.17773-0.2793a0.557 0.557 0 0 0-0.20703 0.0039l-0.10352 0.01367c-0.208 0.022-0.29058 0.04103-0.39258-0.16797v0.0059c-0.023-0.044-0.047266-0.08786-0.072266-0.13086l0.00391 2e-3c-0.05322-0.08025-0.058979-0.1313-0.056641-0.18359 5.078e-4 -0.01626-0.00864-0.03509-0.00391-0.05078 0.016708-0.0568 0.055847-0.11203 0.11328-0.19141l0.064453-0.08398c0.13556-0.17461 0.11299-0.26437 0.037105-0.36524l0.00586-0.02344a1.726 1.726 0 0 0-0.085937-0.08984c-5.037e-4 -5.21e-4 -0.00145 5.2e-4 -0.00195 0-0.011236-0.01153-0.016956-0.01303-0.027348-0.02344-0.059006-0.05907-0.11084-0.1091-0.16016-0.12695a0.113 0.113 0 0 0-0.019531-0.0059 0.113 0.113 0 0 0-0.00586-2e-3c-0.067-0.012-0.14081 0.02028-0.25781 0.11328l-0.082031 0.06641c-0.047936 0.03542-0.080925 0.05043-0.11719 0.07226-0.022467 0.01339-0.050892 0.03852-0.072266 0.04492-0.056375 0.01687-0.11236 0.0075-0.19336-0.04101a0.3 0.3 0 0 0-0.00195 0 0.3 0.3 0 0 0-0.015625-0.01172l-0.019531-0.01172a2.68 2.68 0 0 0-0.00195 0c-0.038755-0.02422-0.078369-0.04697-0.11719-0.06836a2.68 2.68 0 0 0-0.00195-2e-3h-0.00195l-0.00586-0.0059a2.129 2.129 0 0 0-0.033203-0.01563c-0.163-0.094-0.145-0.18-0.125-0.375l0.015625-0.10547c0.01075-0.0745 0.012953-0.13189 0.00781-0.17773-8.16e-5 -7.275e-4 8.57e-5 -0.00123 0-0.00195-0.0050592-0.045516-0.018897-0.079322-0.041015-0.10547-0.044125-0.05275-0.12223-0.075469-0.24023-0.10547h-0.00195c-0.1175-0.033-0.19747-0.052547-0.26172-0.029297-0.032441 0.011739-0.058728 0.03458-0.085937 0.072266-0.02668 0.036952-0.053096 0.086938-0.080078 0.15625l-0.041016 0.097656c-0.039 0.09-0.065344 0.15609-0.10547 0.19922-0.040125 0.043125-0.094 0.064953-0.1875 0.064453a0.893 0.893 0 0 0-0.037109-0.00195h-0.00781a2.921 2.921 0 0 0-0.14062 0 0.52 0.52 0 0 1-0.021484 0h-0.021484c-0.095 0.0015-0.14908-0.017672-0.18945-0.060547-0.040392-0.042586-0.065985-0.10893-0.10549-0.19893l-0.041016-0.097656c-2.703e-4 -6.879e-4 2.699e-4 -0.00127 0-0.00195-0.02723-0.069312-0.053489-0.11933-0.080078-0.15625-0.027117-0.037652-0.053623-0.062101-0.085937-0.074219a0.201 0.201 0 0 0-0.025391-0.0058625zm0.56055 1.3438a1.989 2.017 0.226 0 1 0.23633 0.0039 1.989 2.017 0.226 0 1 0.23438 0.0332 1.989 2.017 0.226 0 1 0.12305 0.0293 1.989 2.017 0.226 0 1 0.33203 0.12305 1.989 2.017 0.226 0 1 0.00195 0 1.989 2.017 0.226 0 1 0.10352 0.05469 1.989 2.017 0.226 0 1 0.00195 0 1.989 2.017 0.226 0 1 0.099609 0.06055 1.989 2.017 0.226 0 1 0.099609 0.06641 1.989 2.017 0.226 0 1 0.09375 0.07226 1.989 2.017 0.226 0 1 0.00195 0 1.989 2.017 0.226 0 1 0.087891 0.07813 1.989 2.017 0.226 0 1 0.00195 0 1.989 2.017 0.226 0 1 0.082031 0.08203 1.989 2.017 0.226 0 1 0.15625 0.18164 1.989 2.017 0.226 0 1 0.13281 0.19922 1.989 2.017 0.226 0 1 0.056641 0.10352 1.989 2.017 0.226 0 1 0.050781 0.10742 1.989 2.017 0.226 0 1 0.044922 0.11133 1.989 2.017 0.226 0 1 0.039063 0.11328 1.989 2.017 0.226 0 1 0 2e-3 1.989 2.017 0.226 0 1 0.03125 0.11328 1.989 2.017 0.226 0 1 0 2e-3 1.989 2.017 0.226 0 1 0.023437 0.11719 1.989 2.017 0.226 0 1 0.00195 0.0059v0.0039a1.989 2.017 0.226 0 1-0.037109 0.87305 1.989 2.017 0.226 0 1-0.15625 0.4082 1.989 2.017 0.226 0 1-0.00195 0.0039 1.989 2.017 0.226 0 1-0.056641 0.09961 1.989 2.017 0.226 0 1-0.015625 0.02734 1.989 2.017 0.226 0 1-0.046875 0.07422 1.989 2.017 0.226 0 1-0.017578 0.02539 1.989 2.017 0.226 0 1-0.052734 0.07031 1.989 2.017 0.226 0 1-0.050781 0.06055v2e-3a1.989 2.017 0.226 0 1-0.00586 0.0059 1.989 2.017 0.226 0 1-0.080078 0.08984 1.989 2.017 0.226 0 1-0.041016 0.04297 1.989 2.017 0.226 0 1-0.042969 0.04101 1.989 2.017 0.226 0 1-0.044922 0.04102 1.989 2.017 0.226 0 1-0.042969 0.03711 1.989 2.017 0.226 0 1-0.011719 0.0098 1.989 2.017 0.226 0 1-0.0625 0.04883 1.989 2.017 0.226 0 1-0.019531 0.01563 1.989 2.017 0.226 0 1-0.050781 0.03516 1.989 2.017 0.226 0 1-0.099609 0.06445 1.989 2.017 0.226 0 1-0.048828 0.0293 1.989 2.017 0.226 0 1-0.052734 0.0293 1.989 2.017 0.226 0 1-0.00586 2e-3 1.989 2.017 0.226 0 1-1.4238 0.1543 1.989 2.017 0.226 0 1-1.4414-1.5996l-0.00391 0.01367a1.989 2.017 0.226 0 1-0.011719-0.08594 1.989 2.017 0.226 0 1-0.011719-0.0957 1.989 2.017 0.226 0 1-0.00391-0.04687 1.989 2.017 0.226 0 1 0-0.0293 1.989 2.017 0.226 0 1-0.00391-0.08789 1.989 2.017 0.226 0 1 0.00195-0.09961 1.989 2.017 0.226 0 1 0.019531-0.20117 1.989 2.017 0.226 0 1 0.00781-0.06055 1.989 2.017 0.226 0 1 0.019531-0.09375 1.989 2.017 0.226 0 1 0.017578-0.07617 1.989 2.017 0.226 0 1 0-2e-3 1.989 2.017 0.226 0 1 0.035156-0.11133 1.989 2.017 0.226 0 1 0.039063-0.11328 1.989 2.017 0.226 0 1 0-2e-3 1.989 2.017 0.226 0 1 0.021484-0.04687 1.989 2.017 0.226 0 1 0.027344-0.0625 1.989 2.017 0.226 0 1 0.052734-0.10547 1.989 2.017 0.226 0 1 0-2e-3 1.989 2.017 0.226 0 1 0.035156-0.05859 1.989 2.017 0.226 0 1 0.025391-0.04492 1.989 2.017 0.226 0 1 0.064453-0.09766 1.989 2.017 0.226 0 1 0.00195-2e-3 1.989 2.017 0.226 0 1 0.044922-0.0625 1.989 2.017 0.226 0 1 0.054687-0.06836l-0.00195 0.0078a1.989 2.017 0.226 0 1 0.54105-0.45909 1.989 2.017 0.226 0 1 0.90039-0.26172z" fill="#666666"/>
</svg>
