<svg width="24" height="24" version="1" xmlns="http://www.w3.org/2000/svg" xmlns:xlink="http://www.w3.org/1999/xlink">
 <defs>
  <linearGradient id="linearGradient8588-0-1" x1="13.735" x2="38.1" y1="249.69" y2="292.77" gradientTransform="matrix(.48294 0 0 .48294 -.0111 -119.42)" gradientUnits="userSpaceOnUse">
   <stop stop-color="#cdcdcd" offset="0"/>
   <stop stop-color="#d9d9d9" offset="1"/>
  </linearGradient>
  <linearGradient id="linearGradient8590-3-3" x1="96" x2="96" y1="4" y2="188" gradientTransform="matrix(.11957 0 0 .11957 .52176 .52174)" gradientUnits="userSpaceOnUse">
   <stop stop-color="#fff" offset="0"/>
   <stop stop-color="#fff" stop-opacity=".098039" offset=".125"/>
   <stop stop-color="#fff" stop-opacity=".098039" offset=".925"/>
   <stop stop-color="#fff" stop-opacity=".49804" offset="1"/>
  </linearGradient>
 </defs>
 <ellipse transform="scale(-1)" cx="-12" cy="-12.523" rx="12" ry="11.477" enable-background="new" opacity=".1"/>
 <circle cx="12" cy="12" r="11.5" enable-background="new" fill="url(#linearGradient8588-0-1)"/>
 <g transform="matrix(.10268 0 0 .10268 -31.127 1.4894)" enable-background="new" stroke-width=".91304">
  <path d="m420.02-9.6363a112 112 0 0 0-112 112h112zm0 112v112a112 112 0 0 0 112-112z" enable-background="new" fill="#fff" opacity=".2"/>
  <path d="m499.22 23.168a112 112 0 0 0-158.39 0l79.196 79.196zm-79.196 79.196-79.196 79.196a112 112 0 0 0 158.39 0z" enable-background="new" opacity=".02"/>
  <path d="m389.47-5.3872a112 112 0 0 0-2.0337 0.68848 112 112 0 0 1 5.4161-1.4674 112 112 0 0 0-3.3824 0.77892zm8.8196-2.0316a112 112 0 0 1 5.5173-0.91622 112 112 0 0 0-5.5173 0.91622zm-16.139 4.5084a112 112 0 0 0-5.237 1.9998 112 112 0 0 1 5.237-1.9998zm27.22-6.1308a112 112 0 0 1 5.5588-0.36119 112 112 0 0 0-5.5588 0.36119zm-37.531 10.435a112 112 0 0 0-5.034 2.5236 112 112 0 0 1 5.034-2.5236zm48.706-10.944a112 112 0 0 1 5.5858 0.19977 112 112 0 0 0-5.5858-0.19977zm-58.536 16.255a112 112 0 0 0-4.7628 3.0151 112 112 0 0 1 4.7628-3.0151zm69.688-15.646a112 112 0 0 1 5.553 0.75653 112 112 0 0 0-5.553-0.75653zm-78.949 21.917a112 112 0 0 0-4.4385 3.4782 112 112 0 0 1 4.4385-3.4782zm90.023-20.193a112 112 0 0 1 5.411 1.2981 112 112 0 0 0-5.411-1.2981zm-100.22 28.792a112 112 0 0 0-1.2702 1.1835 112 112 0 0 1 1.2702-1.1835zm-1.6759 1.6238a112 112 0 0 0-17.831 23.164l96.994 56zm79.163 79.164 79.163 79.164a112 112 0 0 0 17.831-23.164zm33.56-106.76a112 112 0 0 1 5.2655 1.8344 112 112 0 0 0-5.2655-1.8344zm10.485 3.8815a112 112 0 0 1 5.0821 2.3648 112 112 0 0 0-5.0821-2.3648zm10.051 4.9116a112 112 0 0 1 1.8372 1.091l0.0663-0.11482a112 112 0 0 0-1.9034-0.97616zm-110.03 194.85-0.0663 0.11482a112 112 0 0 0 1.9034 0.97616 112 112 0 0 1-1.8372-1.091zm6.8062 3.6378a112 112 0 0 0 5.0821 2.3648 112 112 0 0 1-5.0821-2.3648zm10.301 4.4118a112 112 0 0 0 5.2655 1.8344 112 112 0 0 1-5.2655-1.8344zm117.58-25.325a112 112 0 0 1-1.2702 1.1835 112 112 0 0 0 1.2702-1.1835zm-106.91 28.678a112 112 0 0 0 5.411 1.2981 112 112 0 0 1-5.411-1.2981zm99.872-22.373a112 112 0 0 1-4.4385 3.4782 112 112 0 0 0 4.4385-3.4782zm-88.941 24.638a112 112 0 0 0 5.553 0.75653 112 112 0 0 1-5.553-0.75653zm80.004-17.905a112 112 0 0 1-4.7628 3.0151 112 112 0 0 0 4.7628-3.0151zm-68.884 19.07a112 112 0 0 0 5.5858 0.19978 112 112 0 0 1-5.5858-0.19978zm59.326-13.268a112 112 0 0 1-5.034 2.5236 112 112 0 0 0 5.034-2.5236zm-48.124 13.319a112 112 0 0 0 5.5588-0.36119 112 112 0 0 1-5.5588 0.36119zm38.015-8.4918a112 112 0 0 1-5.237 1.9998 112 112 0 0 0 5.237-1.9998zm-26.893 7.4244a112 112 0 0 0 5.5173-0.91622 112 112 0 0 1-5.5173 0.91622zm16.371-3.6363a112 112 0 0 1-5.4161 1.4674 112 112 0 0 0 5.4161-1.4674z" enable-background="new" fill="#faf8f6"/>
  <circle transform="scale(1,-1)" cx="420.02" cy="-102.36" r="40" enable-background="new" fill="#aea795"/>
  <circle cx="420.02" cy="102.36" r="36" enable-background="new" fill="#faf8f6"/>
  <circle cx="420.02" cy="102.36" r="14" enable-background="new" fill="#4d4d4d"/>
 </g>
 <ellipse cx="12" cy="11.977" rx="11.455" ry="11.477" enable-background="new" fill="none" opacity=".4" stroke="#000" stroke-dashoffset="6.6" stroke-linejoin="round"/>
 <path d="m12 1c-6.0751 0-11 4.9249-11 11 0 6.0751 4.9249 11 11 11s11-4.9249 11-11c0-6.0751-4.9249-11-11-11zm0 1a10 10 0 0 1 10 10 10 10 0 0 1-10 10 10 10 0 0 1-10-10 10 10 0 0 1 10-10z" enable-background="new" fill="url(#linearGradient8590-3-3)"/>
</svg>
