<svg width="24" height="24" version="1" xmlns="http://www.w3.org/2000/svg" xmlns:xlink="http://www.w3.org/1999/xlink">
 <defs>
  <linearGradient id="linearGradient1250" x1="341.07" x2="322.93" y1="200" y2="200" gradientUnits="userSpaceOnUse">
   <stop stop-color="#fff" offset="0"/>
   <stop stop-color="#fff" stop-opacity=".098039" offset=".125"/>
   <stop stop-color="#fff" stop-opacity=".098039" offset=".925"/>
   <stop stop-color="#fff" stop-opacity=".49804" offset="1"/>
  </linearGradient>
  <clipPath id="clipPath1238">
   <path d="m338 194c1.2585 0.0147 2.0891 0.0598 2.4551 0.26172 0.18341 0.10119 0.28716 0.21275 0.38476 0.47266 0.09756 0.25989 0.16016 0.67323 0.16016 1.2656v8c0 0.59239-0.0626 1.0057-0.16016 1.2656-0.0976 0.25992-0.20135 0.37147-0.38476 0.47266-0.36596 0.20192-1.1966 0.24702-2.4551 0.26172h-6e-3 -11.994c-1.2585-0.0147-2.0891-0.0598-2.4551-0.26172-0.18341-0.10119-0.28716-0.21275-0.38476-0.47266-0.09756-0.25989-0.16016-0.67323-0.16016-1.2656v-8c0-0.59239 0.0627-1.0057 0.16016-1.2656 0.0976-0.25992 0.20331-0.37146 0.38672-0.47266 0.36594-0.20192 1.1946-0.24702 2.4531-0.26172z" color="#000000" fill="url(#linearGradient1242)"/>
  </clipPath>
  <linearGradient id="linearGradient13867" x1="328" x2="336" y1="192" y2="207" gradientTransform="matrix(.75 0 0 .46665 -237 -85.897)" gradientUnits="userSpaceOnUse">
   <stop stop-color="#9a9a9a" offset="0"/>
   <stop stop-color="#c5c5c5" offset="1"/>
  </linearGradient>
  <radialGradient id="radialGradient1052-9-7-9-9" cx="232.77" cy="368.96" r="160" gradientTransform="matrix(-.025359 -.047455 .016538 -.0088368 9.4656 37.158)" gradientUnits="userSpaceOnUse">
   <stop stop-color="#cdcdcd" offset="0"/>
   <stop stop-color="#d9d9d9" offset="1"/>
  </radialGradient>
 </defs>
 <path d="m7.4286 1c-0.75156 0-1.3469 0.0689-1.8482 0.2583-0.50133 0.18936-0.90329 0.53075-1.1406 0.96357-0.47467 0.86567-0.42314 1.9245-0.43973 3.3714v5e-3 13.807 2e-3c0.0166 1.4469-0.035 2.5057 0.43973 3.3714 0.23733 0.43282 0.63929 0.77421 1.1406 0.96357 0.50134 0.18921 1.0967 0.25814 1.8482 0.25814h9.1428c0.75156 0 1.3469-0.0689 1.8482-0.2583 0.50133-0.18937 0.9033-0.53075 1.1406-0.96358 0.47465-0.86566 0.42308-1.9245 0.43974-3.3714v-2e-3 -13.807-5e-3c-0.0166-1.4469 0.035-2.5057-0.43974-3.3714-0.23733-0.43282-0.63929-0.7742-1.1406-0.96357-0.50134-0.18921-1.0967-0.25814-1.8482-0.25814z" color="#000000" color-rendering="auto" dominant-baseline="auto" image-rendering="auto" opacity=".2" shape-rendering="auto" solid-color="#000000" style="font-feature-settings:normal;font-variant-alternates:normal;font-variant-caps:normal;font-variant-ligatures:normal;font-variant-numeric:normal;font-variant-position:normal;isolation:auto;mix-blend-mode:normal;shape-padding:0;text-decoration-color:#000000;text-decoration-line:none;text-decoration-style:solid;text-indent:0;text-orientation:mixed;text-transform:none;white-space:normal"/>
 <path d="m16.615 0.5c2.8846 0 2.851 1.1327 2.8846 4.0526v13.895c-0.0337 2.9199 0 4.0526-2.8846 4.0526h-9.2308c-2.8846 0-2.851-1.1327-2.8846-4.0526v-13.895c0.0336-2.9199 0-4.0526 2.8846-4.0526z" color="#000000" fill="#4d4d4d"/>
 <path d="m16.615 0.5c2.8846 0 2.851 1.1327 2.8846 4.0526v13.895c-0.0337 2.9199 0 4.0526-2.8846 4.0526h-9.2308c-2.8846 0-2.851-1.1327-2.8846-4.0526v-13.895c0.0336-2.9199 0-4.0526 2.8846-4.0526z" color="#000000" fill="none" opacity=".3" stroke="#000"/>
 <path transform="matrix(0 -1.1579 1.1538 0 -218.77 395.92)" d="m326 194c-1.2585 0.0147-2.0891 0.0598-2.4551 0.26172-0.18341 0.10119-0.28716 0.21275-0.38476 0.47266-0.09756 0.25989-0.16016 0.67323-0.16016 1.2656v8c0 0.59239 0.0626 1.0057 0.16016 1.2656 0.0976 0.25992 0.20135 0.37147 0.38476 0.47266 0.36596 0.20192 1.1966 0.24702 2.4551 0.26172h6e-3 11.994c1.2585-0.0147 2.0891-0.0598 2.4551-0.26172 0.18341-0.10119 0.28716-0.21275 0.38476-0.47266 0.09756-0.25989 0.16016-0.67323 0.16016-1.2656v-8c0-0.59239-0.0627-1.0057-0.16016-1.2656-0.0976-0.25992-0.20331-0.37146-0.38672-0.47266-0.36594-0.20192-1.1946-0.24702-2.4531-0.26172z" clip-path="url(#clipPath1238)" color="#000000" fill="none" opacity=".3" stroke="url(#linearGradient1250)" stroke-width="1.7303"/>
 <rect x="7.5" y="3.7002" width="9" height="6.9998" rx=".75" ry=".46665" enable-background="new" fill="url(#linearGradient13867)"/>
 <path d="m11.591 3.7002-4.0909 5.0908v1.5909c0 0.17626 0.22807 0.31816 0.51136 0.31816h1.8994l5.625-6.9998z" enable-background="new" fill="#fff" opacity=".1"/>
 <path d="m8.25 3.7c-0.4155-2e-5 -0.75 0.20812-0.75 0.46666v4.6201l4.0875-5.0865z" enable-background="new" fill="#f9f9f9" opacity=".2"/>
 <circle cx="12.04" cy="16.313" r="3.25" enable-background="new" fill="#9a9a9a" style="paint-order:normal"/>
 <ellipse transform="matrix(.96593 -.25881 .25883 .96592 0 0)" cx="7.4074" cy="18.873" rx="3" ry="3" enable-background="new" fill="url(#radialGradient1052-9-7-9-9)" style="paint-order:normal"/>
 <circle cx="12.04" cy="16.313" r="1.75" enable-background="new" fill="#9a9a9a" style="paint-order:normal"/>
 <circle cx="12.04" cy="16.313" r="1.5555" enable-background="new" fill="#4d4d4d" style="paint-order:normal"/>
</svg>
