<?xml version="1.0" encoding="UTF-8" standalone="no"?>
<!-- Created with Inkscape (http://www.inkscape.org/) -->

<svg
   width="256"
   height="256"
   viewBox="0 0 67.733332 67.733335"
   version="1.1"
   id="svg1196"
   inkscape:version="1.1.2 (0a00cf5339, 2022-02-04, custom)"
   sodipodi:docname="camera-app.svg"
   xmlns:inkscape="http://www.inkscape.org/namespaces/inkscape"
   xmlns:sodipodi="http://sodipodi.sourceforge.net/DTD/sodipodi-0.dtd"
   xmlns:xlink="http://www.w3.org/1999/xlink"
   xmlns="http://www.w3.org/2000/svg"
   xmlns:svg="http://www.w3.org/2000/svg">
  <sodipodi:namedview
     id="namedview1198"
     pagecolor="#ffffff"
     bordercolor="#666666"
     borderopacity="1.0"
     inkscape:pageshadow="2"
     inkscape:pageopacity="0.0"
     inkscape:pagecheckerboard="0"
     inkscape:document-units="px"
     showgrid="false"
     units="px"
     inkscape:zoom="1.4142136"
     inkscape:cx="155.20994"
     inkscape:cy="126.21856"
     inkscape:window-width="1920"
     inkscape:window-height="1011"
     inkscape:window-x="0"
     inkscape:window-y="32"
     inkscape:window-maximized="1"
     inkscape:current-layer="svg1196" />
  <defs
     id="defs1193">
    <linearGradient
       inkscape:collect="always"
       id="linearGradient1727">
      <stop
         style="stop-color:#000000;stop-opacity:1;"
         offset="0"
         id="stop1723" />
      <stop
         style="stop-color:#000000;stop-opacity:0;"
         offset="1"
         id="stop1725" />
    </linearGradient>
    <radialGradient
       inkscape:collect="always"
       xlink:href="#linearGradient1727"
       id="radialGradient1729"
       cx="33.866669"
       cy="33.866669"
       fx="33.866669"
       fy="33.866669"
       r="22.754168"
       gradientUnits="userSpaceOnUse" />
  </defs>
  <path
     d="m 64.029167,20.587652 c 0,-9.551143 -0.976355,-10.578835 -10.50127,-10.532025 H 33.866667 14.205438 C 4.6805197,10.008817 3.7041667,11.036509 3.7041667,20.587652 v 26.560811 c 0,9.551143 0.976242,10.532025 10.5012713,10.532025 h 19.661229 19.66123 c 9.525029,0 10.50127,-0.980882 10.50127,-10.532025 z"
     style="color:#000000;display:inline;overflow:visible;visibility:visible;opacity:0.1;fill:#000000;fill-opacity:1;fill-rule:nonzero;stroke:none;stroke-width:0.269952;marker:none;enable-background:accumulate"
     id="path1004" />
  <path
     d="m 63.499999,46.851986 c 0,9.338927 -0.959226,10.343782 -10.317038,10.298012 H 33.866666 14.550371 C 5.1925563,57.195768 4.2333333,56.190913 4.2333333,46.851986 V 20.881344 c 0,-9.338923 0.959114,-10.298011 10.3170377,-10.298011 h 19.316295 19.316295 c 9.357923,0 10.317038,0.959088 10.317038,10.298011 z"
     style="color:#000000;display:inline;overflow:visible;visibility:visible;fill:#e6e6e6;fill-opacity:1;fill-rule:nonzero;stroke:none;stroke-width:0.264583;marker:none;enable-background:accumulate"
     id="path1295" />
  <circle
     style="color:#000000;display:inline;overflow:visible;visibility:visible;fill:#df382c;fill-opacity:1;fill-rule:nonzero;stroke:none;stroke-width:0.352777;marker:none;enable-background:accumulate"
     id="path5121"
     cy="14.552083"
     cx="55.033329"
     r="2.1166666" />
  <path
     d="m 14.550018,10.31875 c -9.3579243,0 -10.3166835,0.958639 -10.3166835,10.297563 v 25.971024 c 0,0.02334 5.027e-4,0.04293 5.291e-4,0.06615 V 21.144964 C 4.2338512,11.80604 5.1931274,10.846884 14.55105,10.846884 h 19.316133 19.316134 c 9.334542,0 10.311854,0.958065 10.316683,10.231934 V 20.616313 C 63.5,11.277389 62.540724,10.31875 53.182801,10.31875 H 33.866667 Z"
     style="color:#000000;display:inline;overflow:visible;visibility:visible;opacity:0.3;fill:#ffffff;fill-opacity:1;fill-rule:nonzero;stroke:none;stroke-width:0.264583;marker:none;enable-background:accumulate"
     id="path1408" />
  <path
     d="m 4.365625,23.283333 v 23.567528 c 0,9.338591 0.9588677,10.34348 10.316683,10.297712 h 19.31665 19.316134 c 9.357812,0.04577 10.317199,-0.959121 10.317199,-10.297712 V 23.283333 Z"
     style="color:#000000;display:inline;overflow:visible;visibility:visible;opacity:0.3;fill:#ffffff;fill-opacity:1;fill-rule:nonzero;stroke:none;stroke-width:0.264578;marker:none;enable-background:accumulate"
     id="path1522"
     sodipodi:nodetypes="cscccscc" />
  <circle
     style="opacity:1;fill:url(#radialGradient1729);fill-opacity:1;stroke-width:0.264583"
     id="path1245"
     cx="33.866669"
     cy="33.866669"
     r="22.754168" />
  <g
     style="display:inline;stroke-width:1.10145;enable-background:new"
     id="g1038"
     transform="matrix(0.24040403,0,0,0.24002229,93.501948,-3.486049)">
    <circle
       r="87.999992"
       cy="248"
       cx="-156.00002"
       transform="matrix(0,-1,-1,0,0,0)"
       id="path4389-5"
       style="color:#000000;display:inline;overflow:visible;visibility:visible;fill:#f2f2f2;fill-opacity:1;stroke:none;stroke-width:2.7316;marker:none;enable-background:accumulate" />
    <circle
       r="80"
       cy="248"
       cx="-157"
       transform="matrix(0,-1,-1,0,0,0)"
       id="circle4191"
       style="color:#000000;display:inline;overflow:visible;visibility:visible;opacity:1;fill:#ffffff;fill-opacity:1;stroke:none;stroke-width:2.2029;marker:none;enable-background:accumulate" />
    <circle
       style="color:#000000;display:inline;overflow:visible;visibility:visible;fill:#46444a;fill-opacity:1;stroke:none;stroke-width:2.2029;marker:none;enable-background:accumulate"
       id="circle4371"
       transform="matrix(0,-1,-1,0,0,0)"
       cx="-155.99998"
       cy="248"
       r="80" />
    <circle
       style="color:#000000;display:inline;overflow:visible;visibility:visible;opacity:1;fill:#a7a7f1;fill-opacity:1;stroke:none;stroke-width:2.2029;marker:none;enable-background:accumulate"
       id="circle4269"
       transform="matrix(0,-1,-1,0,0,0)"
       cx="-156"
       cy="248"
       r="64" />
    <circle
       r="60"
       cy="248"
       cx="-155.99998"
       transform="matrix(0,-1,-1,0,0,0)"
       id="circle4201"
       style="color:#000000;display:inline;overflow:visible;visibility:visible;opacity:1;fill:#8f76e4;fill-opacity:1;stroke:none;stroke-width:2.2029;marker:none;enable-background:accumulate" />
    <circle
       style="color:#000000;display:inline;overflow:visible;visibility:visible;opacity:1;fill:#8c59d9;fill-opacity:1;stroke:none;stroke-width:2.2029;marker:none;enable-background:accumulate"
       id="circle4409"
       transform="matrix(0,-1,-1,0,0,0)"
       cx="-156"
       cy="248"
       r="40" />
    <circle
       r="19.999987"
       cy="267.19843"
       cx="-119.98077"
       transform="matrix(-0.1391731,-0.99026807,-0.99026807,0.1391731,0,0)"
       id="circle4411"
       style="color:#000000;display:inline;overflow:visible;visibility:visible;opacity:1;fill:#7839b7;fill-opacity:1;stroke:none;stroke-width:2.2029;marker:none;enable-background:accumulate" />
    <circle
       transform="rotate(-8)"
       style="color:#000000;display:inline;overflow:visible;visibility:visible;opacity:0.3;fill:#ffffff;fill-opacity:1;fill-rule:nonzero;stroke:none;stroke-width:4.40581;stroke-linecap:butt;stroke-linejoin:miter;stroke-miterlimit:4;stroke-dasharray:none;stroke-dashoffset:0;stroke-opacity:1;marker:none;enable-background:accumulate"
       id="path4508"
       cx="-258.26196"
       cy="113.15809"
       r="6" />
    <circle
       transform="rotate(-8)"
       r="2"
       cy="126.77563"
       cx="-276.33298"
       id="circle4195"
       style="color:#000000;display:inline;overflow:visible;visibility:visible;opacity:0.3;fill:#ffffff;fill-opacity:1;fill-rule:nonzero;stroke:none;stroke-width:4.40581;stroke-linecap:butt;stroke-linejoin:miter;stroke-miterlimit:4;stroke-dasharray:none;stroke-dashoffset:0;stroke-opacity:1;marker:none;enable-background:accumulate" />
    <circle
       r="24"
       cy="130"
       cx="-222"
       id="circle4271"
       style="color:#000000;display:inline;overflow:visible;visibility:visible;opacity:0.2;fill:#ffffff;fill-opacity:1;fill-rule:nonzero;stroke:none;stroke-width:4.40581;stroke-linecap:butt;stroke-linejoin:miter;stroke-miterlimit:4;stroke-dasharray:none;stroke-dashoffset:0;stroke-opacity:1;marker:none;enable-background:accumulate" />
    <path
       inkscape:connector-curvature="0"
       id="circle1021"
       d="m -248,68 a 87.999992,87.999992 0 0 0 -88,88 87.999992,87.999992 0 0 0 0.041,0.83008 A 87.999992,87.999992 0 0 1 -248,70 87.999992,87.999992 0 0 1 -160.04102,157.16992 87.999992,87.999992 0 0 0 -160,156 87.999992,87.999992 0 0 0 -248,68 Z"
       style="color:#000000;display:inline;overflow:visible;visibility:visible;opacity:0.4;fill:#ffffff;fill-opacity:1;stroke:none;stroke-width:2.7316;marker:none;enable-background:accumulate" />
  </g>
  <path
     d="m 4.2333331,46.322819 v 0.529167 c 0,9.338926 0.9588685,10.343851 10.3166839,10.298081 H 33.866666 53.1828 c 9.357812,0.04577 10.317199,-0.959155 10.317199,-10.298081 v -0.529167 c 0,9.338927 -0.959387,10.343851 -10.317199,10.298081 H 33.866666 14.550017 C 5.1922016,56.66667 4.2333331,55.661746 4.2333331,46.322819 Z"
     style="color:#000000;display:inline;overflow:visible;visibility:visible;opacity:0.2;fill:#000000;fill-opacity:1;fill-rule:nonzero;stroke:none;stroke-width:0.264583;marker:none;enable-background:accumulate"
     id="path1646" />
</svg>
