<svg width="16" height="16" version="1.1" xmlns="http://www.w3.org/2000/svg">
 <path d="m3.9941 1c-1.258 0.015-2.1786-0.029281-2.9316 0.38672a1.878 1.878 0 0 0-0.83984 0.99609c-0.164 0.438-0.22266 0.96019-0.22266 1.6172v8c0 0.658 0.057656 1.1792 0.22266 1.6172 0.164 0.439 0.46284 0.79005 0.83984 0.99805 0.752 0.416 1.6736 0.36977 2.9316 0.38477h6.0059v-1h-6c-1.26-0.015-2.0871-0.059719-2.4531-0.26172-0.184-0.1-0.28972-0.21266-0.38672-0.47266s-0.16016-0.67362-0.16016-1.2656v-4c0-0.592 0.064109-1.0056 0.16211-1.2656s0.20272-0.37166 0.38672-0.47266c0.367-0.203 1.195-0.24672 2.459-0.26172h3.4355l2.0215-2h2.5273c1.264 0.015 2.091 0.059719 2.459 0.26172 0.183 0.1 0.28872 0.21266 0.38672 0.47266s0.16211 0.67362 0.16211 1.2656v6c0 0.592-0.063156 1.0056-0.16016 1.2656-0.098 0.26-0.20272 0.37166-0.38672 0.47266-0.10737 0.05926-0.26711 0.10128-0.45312 0.13672v1.0273c0.33892-0.053653 0.65486-0.13134 0.9375-0.28711 0.376-0.207 0.67484-0.56005 0.83984-0.99805 0.164-0.438 0.22266-0.96019 0.22266-1.6172v-6c0-0.658-0.057656-1.1792-0.22266-1.6172-0.02-0.055-0.048219-0.1043-0.074219-0.1543l-0.027344-0.056641a1.838 1.838 0 0 0-0.73828-0.78711c-0.753-0.416-1.6736-0.36977-2.9316-0.38477h-3.0391l-2.0215-2h-2.9512zm0.011719 1h2.5293l1.7656 1.7461-1.2676 1.2539h-3.0391c-1.258 0.015-2.1786-0.030234-2.9316 0.38477-0.022 0.012-0.0405 0.029969-0.0625 0.042969v-1.4277c0-0.592 0.062156-1.0056 0.16016-1.2656 0.098-0.26 0.20272-0.37166 0.38672-0.47266 0.366-0.203 1.195-0.24672 2.459-0.26172z" fill="#dfdfdf" style="font-feature-settings:normal;font-variant-alternates:normal;font-variant-caps:normal;font-variant-ligatures:none;font-variant-numeric:normal;font-variant-position:normal;isolation:auto;mix-blend-mode:normal;shape-padding:0;text-decoration-color:#000;text-decoration-line:none;text-decoration-style:solid;text-indent:0;text-transform:none"/>
 <path d="m11 6v2.7581c0 0.82164 0.04231 1.5718 0.1213 2.2463 0.0804 0.66519 0.18054 1.3304 0.30042 1.9956h1.1566c0.11989-0.66519 0.22144-1.3304 0.30042-1.9956 0.080394-0.67451 0.1213-1.4247 0.1213-2.2463v-2.7581z" fill="#f22c42" style="font-feature-settings:normal;font-variant-alternates:normal;font-variant-caps:normal;font-variant-ligatures:normal;font-variant-numeric:normal;font-variant-position:normal;isolation:auto;mix-blend-mode:normal;shape-padding:0;text-decoration-color:#000000;text-decoration-line:none;text-decoration-style:solid;text-indent:0;text-orientation:mixed;text-transform:none"/>
 <path d="m12 14a1 1 0 0 0-1 1c0 0.282 0.118 0.535 0.306 0.717 0.17 0.189 0.4 0.283 0.693 0.283s0.524-0.094 0.694-0.283a0.994 0.994 0 0 0 0.306-0.717 1 1 0 0 0-1-1z" fill="#f22c42" style="font-feature-settings:normal;font-variant-alternates:normal;font-variant-caps:normal;font-variant-ligatures:normal;font-variant-numeric:normal;font-variant-position:normal;isolation:auto;mix-blend-mode:normal;shape-padding:0;text-decoration-color:#000000;text-decoration-line:none;text-decoration-style:solid;text-indent:0;text-orientation:mixed;text-transform:none"/>
</svg>
