<?xml version="1.0" encoding="UTF-8" standalone="no"?>
<!-- Created with Inkscape (http://www.inkscape.org/) -->

<svg
   width="48"
   height="48"
   viewBox="0 0 12.7 12.7"
   version="1.1"
   id="svg5"
   inkscape:version="1.1.2 (0a00cf5339, 2022-02-04)"
   sodipodi:docname="applications-science.svg"
   xmlns:inkscape="http://www.inkscape.org/namespaces/inkscape"
   xmlns:sodipodi="http://sodipodi.sourceforge.net/DTD/sodipodi-0.dtd"
   xmlns:xlink="http://www.w3.org/1999/xlink"
   xmlns="http://www.w3.org/2000/svg"
   xmlns:svg="http://www.w3.org/2000/svg">
  <sodipodi:namedview
     id="namedview7"
     pagecolor="#ffffff"
     bordercolor="#666666"
     borderopacity="1.0"
     inkscape:pageshadow="2"
     inkscape:pageopacity="0.0"
     inkscape:pagecheckerboard="0"
     inkscape:document-units="px"
     showgrid="false"
     units="px"
     height="48px"
     showguides="true"
     inkscape:zoom="16.375001"
     inkscape:cx="27.877862"
     inkscape:cy="26.076335"
     inkscape:window-width="1846"
     inkscape:window-height="1011"
     inkscape:window-x="74"
     inkscape:window-y="32"
     inkscape:window-maximized="1"
     inkscape:current-layer="svg5" />
  <defs
     id="defs2">
    <linearGradient
       inkscape:collect="always"
       id="linearGradient1871">
      <stop
         style="stop-color:#ffffff;stop-opacity:1;"
         offset="0"
         id="stop1867" />
      <stop
         style="stop-color:#ffffff;stop-opacity:0.1"
         offset="0.12"
         id="stop2515" />
      <stop
         style="stop-color:#ffffff;stop-opacity:0.102"
         offset="0.89999998"
         id="stop2581" />
      <stop
         style="stop-color:#ffffff;stop-opacity:0.502"
         offset="1"
         id="stop1869" />
    </linearGradient>
    <linearGradient
       inkscape:collect="always"
       xlink:href="#linearGradient1871"
       id="linearGradient867"
       x1="10.294504"
       y1="0.17081539"
       x2="10.294504"
       y2="11.812482"
       gradientUnits="userSpaceOnUse"
       gradientTransform="translate(-6.7661995,0.35835127)" />
  </defs>
  <path
     d="m 3.6136175,0.52916666 c -0.6937644,0 -1.2400363,0.013253 -1.6895264,0.0758653 C 1.4745984,0.6676427 1.1067826,0.78508171 0.83735475,1.0081286 0.56792955,1.2311758 0.42572395,1.536256 0.35097645,1.9094069 c -0.07475,0.3731514 -0.0893418,0.8274436 -0.0859419,1.4045173 v 3.3006284 3.3022071 c -0.00336,0.5761873 0.011271,1.0302483 0.085942,1.4029983 0.074747,0.373153 0.2169531,0.678233 0.4863783,0.90128 0.26942785,0.223046 0.63724365,0.340487 1.08673635,0.403095 0.4494954,0.06261 0.995762,0.07587 1.6895263,0.07587 h 5.473218 c 0.693772,0 1.2397525,-0.01323 1.6883165,-0.07587 0.448558,-0.06264 0.81525,-0.180472 1.083683,-0.403601 0.268438,-0.223126 0.4098,-0.527989 0.485158,-0.900774 0.07536,-0.372779 0.09142,-0.826151 0.09142,-1.4029983 V 6.6145526 3.3124068 c 0,-0.5768474 -0.01609,-1.0302168 -0.09142,-1.4029999 C 12.268635,1.5366243 12.12727,1.2317621 11.858832,1.0086345 11.590399,0.7855069 11.223708,0.66766995 10.775146,0.60503196 10.326588,0.54239371 9.7806025,0.52916666 9.0868355,0.52916666 Z"
     style="color:#000000;font-style:normal;font-variant:normal;font-weight:normal;font-stretch:normal;font-size:medium;line-height:normal;font-family:sans-serif;font-variant-ligatures:normal;font-variant-position:normal;font-variant-caps:normal;font-variant-numeric:normal;font-variant-alternates:normal;font-feature-settings:normal;text-indent:0;text-align:start;text-decoration:none;text-decoration-line:none;text-decoration-style:solid;text-decoration-color:#000000;letter-spacing:normal;word-spacing:normal;text-transform:none;writing-mode:lr-tb;direction:ltr;text-orientation:mixed;dominant-baseline:auto;baseline-shift:baseline;text-anchor:start;white-space:normal;shape-padding:0;clip-rule:nonzero;display:inline;overflow:visible;visibility:visible;opacity:0.1;isolation:auto;mix-blend-mode:normal;color-interpolation:sRGB;color-interpolation-filters:linearRGB;solid-color:#000000;solid-opacity:1;vector-effect:none;fill:#000000;fill-opacity:1;fill-rule:nonzero;stroke:none;stroke-width:0.529167;stroke-linecap:butt;stroke-linejoin:miter;stroke-miterlimit:4;stroke-dasharray:none;stroke-dashoffset:0;stroke-opacity:1;marker:none;color-rendering:auto;image-rendering:auto;shape-rendering:auto;text-rendering:auto;enable-background:accumulate"
     id="path1178" />
  <path
     d="m 3.5282515,0.396875 c -2.64878565,0 -3.14501435,0.2398051 -3.13109725,2.5792589 v 3.3738528 3.3739164 c -0.013944,2.3394539 0.4823116,2.5792589 3.13109725,2.5792589 h 5.643775 c 2.6481235,0 3.1310915,-0.239779 3.1310915,-2.5792589 V 6.3499867 2.9761339 c 0,-2.33948026 -0.482968,-2.5792589 -3.1310945,-2.5792589 z"
     style="color:#000000;display:inline;overflow:visible;visibility:visible;fill:#f7f7f7;fill-opacity:1;fill-rule:nonzero;stroke:none;stroke-width:0.264583;marker:none;enable-background:accumulate"
     id="path908" />
  <path
     id="path1737"
     style="color:#000000;opacity:0.1;isolation:isolate;fill:#000000;stroke-width:0.132292;-inkscape-stroke:none"
     d="M 23.814453 11 C 22.897433 11 22.044951 11.472859 21.306641 12.279297 C 20.612171 13.037844 20.022802 14.14346 19.513672 15.435547 C 19.099014 15.25537 18.694231 15.096841 18.298828 14.960938 C 18.264099 14.805528 18.184629 14.670492 18.078125 14.576172 C 17.934325 14.448795 17.752583 14.390625 17.574219 14.390625 C 17.39584 14.390625 17.21411 14.448794 17.070312 14.576172 C 17.059251 14.58597 17.049509 14.596771 17.039062 14.607422 C 16.682723 14.53299 16.340738 14.485032 16.015625 14.470703 C 14.923335 14.422563 13.986281 14.691459 13.337891 15.339844 C 12.689471 15.988149 12.422533 16.925294 12.470703 18.017578 C 12.516003 19.04455 12.880494 20.242462 13.433594 21.515625 C 12.142804 22.024527 11.037287 22.612683 10.279297 23.306641 C 9.4728666 24.044954 9 24.897436 9 25.814453 C 9 26.73147 9.4728666 27.583981 10.279297 28.322266 C 10.587052 28.604013 10.953762 28.868545 11.365234 29.117188 C 11.400844 29.213559 11.45646 29.298307 11.527344 29.361328 C 11.652155 29.472269 11.809649 29.521484 11.962891 29.521484 C 12.001198 29.521484 12.040044 29.518067 12.078125 29.511719 C 12.078125 29.511719 12.080078 29.511719 12.080078 29.511719 C 12.500245 29.72408 12.953931 29.924141 13.433594 30.113281 C 12.880414 31.386364 12.515963 32.584352 12.470703 33.611328 C 12.440976 34.286407 12.5312 34.902176 12.757812 35.427734 C 12.724988 35.511711 12.707031 35.60364 12.707031 35.701172 C 12.707031 35.917554 12.797435 36.111616 12.935547 36.234375 C 13.073658 36.357134 13.246997 36.412109 13.417969 36.412109 C 13.432876 36.412109 13.447945 36.409047 13.462891 36.408203 C 14.104096 36.971616 14.991603 37.203337 16.015625 37.158203 C 17.042615 37.112943 18.240572 36.746555 19.513672 36.193359 C 20.022802 37.485445 20.612171 38.591062 21.306641 39.349609 C 22.044951 40.156047 22.897433 40.628906 23.814453 40.628906 C 24.731473 40.628906 25.583946 40.156074 26.322266 39.349609 C 27.016406 38.591391 27.606254 37.486667 28.115234 36.195312 C 29.387364 36.747913 30.585028 37.112944 31.611328 37.158203 C 32.703628 37.206373 33.640663 36.939402 34.289062 36.291016 C 34.937453 35.642621 35.206343 34.703617 35.158203 33.611328 C 35.147091 33.359015 35.116179 33.095806 35.068359 32.824219 C 35.077373 32.816836 35.086937 32.810556 35.095703 32.802734 C 35.263673 32.652872 35.372541 32.416659 35.371094 32.146484 C 35.370089 31.878889 35.259107 31.648159 35.091797 31.5 C 34.966322 31.388881 34.812414 31.323134 34.65625 31.296875 C 34.523115 30.912231 34.370188 30.51787 34.195312 30.115234 C 35.486652 29.606169 36.59144 29.016387 37.349609 28.322266 C 38.15602 27.583979 38.628906 26.73146 38.628906 25.814453 C 38.628906 24.897436 38.156039 24.044954 37.349609 23.306641 C 36.591409 22.612498 35.486573 22.022657 34.195312 21.513672 C 34.747732 20.241467 35.112943 19.043878 35.158203 18.017578 C 35.206403 16.925295 34.937462 15.988149 34.289062 15.339844 C 33.640663 14.691448 32.703618 14.42256 31.611328 14.470703 C 30.585028 14.515933 29.387364 14.881075 28.115234 15.433594 C 27.606174 14.142339 27.016386 13.037488 26.322266 12.279297 C 25.583976 11.472861 24.731473 11 23.814453 11 z M 23.814453 11.925781 C 24.465113 11.925781 25.104607 12.281352 25.716797 12.978516 C 26.293197 13.634917 26.81726 14.635253 27.275391 15.816406 C 27.141499 15.883242 27.006526 15.952104 26.871094 16.023438 C 26.743001 15.952173 26.599276 15.917993 26.457031 15.917969 C 26.2605 15.917934 26.060024 15.982102 25.902344 16.121094 C 25.745497 16.25935 25.640394 16.47642 25.636719 16.724609 C 25.039117 17.08827 24.430498 17.49377 23.814453 17.941406 C 22.624463 17.076681 21.461735 16.369626 20.353516 15.816406 C 20.811636 14.635254 21.335719 13.634918 21.912109 12.978516 C 22.524289 12.28135 23.163853 11.925781 23.814453 11.925781 z M 15.746094 15.382812 C 15.854793 15.382154 15.966302 15.385089 16.082031 15.392578 C 16.347177 15.409793 16.633668 15.455426 16.933594 15.521484 C 16.970443 15.585381 17.015939 15.6427 17.068359 15.689453 C 17.21256 15.818082 17.394929 15.876953 17.574219 15.876953 C 17.691312 15.876953 17.809153 15.850133 17.917969 15.796875 C 18.326426 15.934531 18.753196 16.103569 19.191406 16.296875 C 18.799027 17.472085 18.478227 18.794315 18.248047 20.248047 C 16.793797 20.478319 15.470732 20.80056 14.294922 21.193359 C 13.783242 20.03369 13.447215 18.954153 13.390625 18.082031 C 13.330525 17.156181 13.534101 16.454211 13.994141 15.994141 C 14.396701 15.59158 14.985204 15.387423 15.746094 15.382812 z M 31.882812 15.382812 C 32.643733 15.387424 33.232255 15.591615 33.634766 15.994141 C 34.094826 16.45421 34.296418 17.156181 34.236328 18.082031 C 34.179728 18.953639 33.845094 20.03254 33.333984 21.191406 C 32.158185 20.798611 30.835089 20.478317 29.380859 20.248047 C 29.150669 18.794308 28.827937 17.4722 28.435547 16.296875 C 29.595437 15.784958 30.674605 15.449196 31.546875 15.392578 C 31.662615 15.385095 31.774113 15.38217 31.882812 15.382812 z M 27.589844 16.699219 C 27.920042 17.715001 28.193407 18.860885 28.404297 20.105469 C 27.693197 20.015909 26.980975 19.939812 26.265625 19.894531 C 25.727695 19.420792 25.169686 18.970779 24.603516 18.53125 C 25.129471 18.157655 25.64736 17.814957 26.15625 17.503906 C 26.252427 17.539387 26.354231 17.556623 26.455078 17.556641 C 26.653938 17.556675 26.856975 17.489763 27.015625 17.347656 C 27.144083 17.232604 27.234503 17.063827 27.263672 16.869141 C 27.372976 16.810799 27.481823 16.754231 27.589844 16.699219 z M 20.039062 16.701172 C 20.990932 17.186208 21.995971 17.800029 23.025391 18.53125 C 22.459251 18.97078 21.901181 19.420793 21.363281 19.894531 C 20.625741 19.941761 19.916366 20.017703 19.222656 20.105469 C 19.433446 18.861532 19.709083 17.716716 20.039062 16.701172 z M 23.814453 19.089844 C 24.130123 19.329889 24.435328 19.582825 24.742188 19.833984 C 24.432837 19.826501 24.123913 19.814642 23.814453 19.814453 C 23.500144 19.814453 23.195099 19.826312 22.886719 19.833984 C 23.196209 19.580851 23.506413 19.323924 23.814453 19.089844 z M 23.8125 20.744141 C 24.50589 20.744141 25.200238 20.763798 25.892578 20.802734 C 26.290215 21.158264 26.681797 21.522577 27.064453 21.894531 C 27.06075 21.925276 27.058723 21.956373 27.058594 21.988281 C 27.057665 22.217351 27.151896 22.42153 27.296875 22.550781 C 27.441895 22.680034 27.626321 22.738357 27.806641 22.738281 C 27.836508 22.738269 27.866674 22.735676 27.896484 22.732422 C 28.212065 23.0609 28.522468 23.394708 28.826172 23.734375 C 28.864372 24.414169 28.888672 25.107037 28.888672 25.814453 C 28.888672 26.520061 28.866211 27.211031 28.828125 27.888672 C 27.904475 28.922343 26.922271 29.902445 25.888672 30.826172 C 24.506061 30.90375 23.120981 30.903834 21.738281 30.826172 C 20.705383 29.903071 19.725834 28.923525 18.802734 27.890625 C 18.725035 26.505909 18.724835 25.119085 18.802734 23.734375 C 19.263655 23.218876 19.737503 22.715458 20.226562 22.226562 C 20.715523 21.737501 21.218825 21.263654 21.734375 20.802734 C 22.426675 20.763814 23.11911 20.744141 23.8125 20.744141 z M 20.240234 20.929688 C 20.016365 21.14291 19.789042 21.351787 19.570312 21.570312 L 19.570312 21.572266 C 19.351864 21.790968 19.142878 22.018368 18.929688 22.242188 C 18.969588 21.843704 19.006186 21.442517 19.058594 21.058594 C 19.441904 21.006324 19.842424 20.969525 20.240234 20.929688 z M 27.386719 20.929688 C 27.785199 20.969558 28.186402 21.006236 28.570312 21.058594 C 28.622712 21.443159 28.659311 21.844983 28.699219 22.244141 C 28.648496 22.190882 28.597344 22.137514 28.546875 22.083984 C 28.550489 22.052413 28.552894 22.021019 28.552734 21.988281 C 28.551734 21.760882 28.457139 21.557692 28.3125 21.429688 C 28.167869 21.301682 27.986032 21.244067 27.806641 21.244141 C 27.778953 21.244152 27.750395 21.245179 27.722656 21.248047 C 27.61049 21.141845 27.498624 21.036278 27.386719 20.929688 z M 18.105469 21.222656 C 18.015869 21.934392 17.939931 22.647321 17.894531 23.363281 C 17.420741 23.901185 16.97075 24.459191 16.53125 25.025391 C 16.313983 24.719516 16.108699 24.415787 15.912109 24.115234 C 15.931416 24.049759 15.941761 23.978929 15.941406 23.90625 C 15.940428 23.702443 15.855908 23.518594 15.724609 23.402344 C 15.619796 23.309529 15.4925 23.257802 15.363281 23.240234 C 15.120009 22.832437 14.89705 22.431237 14.697266 22.039062 C 15.713626 21.708607 16.860179 21.433673 18.105469 21.222656 z M 29.523438 21.222656 C 30.768088 21.433681 31.913758 21.708872 32.929688 22.039062 C 32.790279 22.312725 32.639258 22.591472 32.478516 22.873047 C 32.422441 22.899035 32.368858 22.931618 32.320312 22.974609 C 32.189034 23.09086 32.104506 23.276658 32.103516 23.480469 C 32.103481 23.487725 32.105293 23.496703 32.105469 23.503906 C 31.79966 24.001911 31.462774 24.509232 31.097656 25.023438 C 30.658416 24.457686 30.207785 23.900831 29.734375 23.363281 C 29.687175 22.625306 29.611218 21.916902 29.523438 21.222656 z M 13.814453 22.351562 C 14.048645 22.820739 14.312187 23.300494 14.601562 23.787109 C 14.594879 23.825812 14.590041 23.865579 14.589844 23.90625 C 14.588854 24.111637 14.673047 24.296576 14.804688 24.414062 C 14.886497 24.487055 14.982577 24.53613 15.082031 24.5625 C 15.34866 24.97577 15.633282 25.393031 15.939453 25.814453 C 15.074743 27.004595 14.367953 28.167316 13.814453 29.275391 C 13.378055 29.106146 12.966727 28.926836 12.587891 28.740234 C 12.55892 28.604 12.490107 28.483596 12.396484 28.400391 C 12.271673 28.28945 12.116119 28.240234 11.962891 28.240234 C 11.890924 28.240234 11.818065 28.252385 11.748047 28.275391 C 11.457642 28.094811 11.196098 27.909574 10.976562 27.716797 C 10.279423 27.104633 9.9257813 26.465111 9.9257812 25.814453 C 9.9257812 25.163795 10.279392 24.524301 10.976562 23.912109 C 11.633152 23.33555 12.632824 22.809778 13.814453 22.351562 z M 33.8125 22.353516 C 34.99365 22.811645 35.993991 23.335717 36.650391 23.912109 C 37.347551 24.5243 37.703125 25.163795 37.703125 25.814453 C 37.703125 26.465111 37.347531 27.104633 36.650391 27.716797 C 35.99401 28.293164 34.99356 28.817352 33.8125 29.275391 C 33.25901 28.167398 32.55222 27.004675 31.6875 25.814453 C 32.093655 25.255436 32.463803 24.702274 32.800781 24.158203 C 32.956251 24.153572 33.112448 24.100549 33.238281 23.988281 C 33.369952 23.870795 33.45608 23.685854 33.455078 23.480469 C 33.45454 23.368373 33.428313 23.262546 33.382812 23.169922 C 33.535134 22.89515 33.678305 22.622285 33.8125 22.353516 z M 24 23 A 3 3 0 0 0 21 26 A 3 3 0 0 0 24 29 A 3 3 0 0 0 27 26 A 3 3 0 0 0 24 23 z M 17.833984 24.884766 C 17.825972 25.194778 17.812689 25.504333 17.8125 25.814453 C 17.8125 26.129809 17.826274 26.434755 17.833984 26.744141 C 17.582506 26.436952 17.330144 26.130497 17.089844 25.814453 C 17.330165 25.498424 17.582524 25.19197 17.833984 24.884766 z M 29.792969 24.884766 C 30.044538 25.192087 30.298672 25.498267 30.539062 25.814453 C 30.298673 26.130641 30.044539 26.436819 29.792969 26.744141 C 29.800981 26.434643 29.814453 26.129778 29.814453 25.814453 C 29.814453 25.499146 29.800679 25.194186 29.792969 24.884766 z M 16.53125 26.603516 C 16.97071 27.169692 17.420601 27.727674 17.894531 28.265625 C 17.94173 29.0036 18.017689 29.712005 18.105469 30.40625 C 16.86015 30.195112 15.713616 29.920272 14.697266 29.589844 C 15.182486 28.637361 15.79959 27.633715 16.53125 26.603516 z M 31.097656 26.605469 C 31.828566 27.634843 32.444818 28.638086 32.929688 29.589844 C 31.913758 29.920033 30.768087 30.19522 29.523438 30.40625 C 29.611237 29.712013 29.687095 29.003561 29.734375 28.265625 C 30.207785 27.728075 30.658417 27.171221 31.097656 26.605469 z M 18.929688 29.386719 C 19.142879 29.610539 19.351862 29.837938 19.570312 30.056641 C 19.793082 30.279406 20.018187 30.486055 20.242188 30.699219 C 19.843707 30.659349 19.442514 30.62267 19.058594 30.570312 C 19.005094 30.177031 18.969088 29.781637 18.929688 29.386719 z M 28.699219 29.386719 C 28.659318 29.785189 28.622719 30.186381 28.570312 30.570312 C 28.186382 30.622674 27.785198 30.659341 27.386719 30.699219 C 27.610527 30.486038 27.837941 30.277045 28.056641 30.058594 C 28.279209 29.836017 28.48622 29.610537 28.699219 29.386719 z M 14.294922 30.4375 C 15.470142 30.829955 16.792614 31.150764 18.246094 31.380859 C 18.476384 32.835446 18.798766 34.158258 19.191406 35.333984 C 18.032446 35.845207 16.953631 36.181705 16.082031 36.238281 C 15.241378 36.292851 14.586897 36.128706 14.128906 35.753906 C 14.130106 35.736434 14.130859 35.718974 14.130859 35.701172 C 14.130859 35.48479 14.040455 35.290727 13.902344 35.167969 C 13.808486 35.084537 13.69722 35.032646 13.582031 35.007812 C 13.417828 34.609914 13.353327 34.121656 13.390625 33.546875 C 13.447225 32.675258 13.783802 31.596379 14.294922 30.4375 z M 33.332031 30.4375 C 33.511645 30.844663 33.668864 31.241152 33.800781 31.623047 C 33.800781 31.623047 33.798828 31.625 33.798828 31.625 C 33.697111 31.764926 33.634012 31.945789 33.632812 32.146484 C 33.630812 32.416656 33.740332 32.652762 33.908203 32.802734 C 33.984097 32.870538 34.069754 32.921282 34.160156 32.957031 C 34.196947 33.161572 34.224207 33.360115 34.236328 33.546875 C 34.296428 34.472721 34.094795 35.174697 33.634766 35.634766 C 33.174695 36.094841 32.472695 36.29839 31.546875 36.238281 C 30.674785 36.181661 29.595307 35.845741 28.435547 35.333984 C 28.828197 34.158233 29.150569 32.835288 29.380859 31.380859 C 30.834449 31.150855 32.156811 30.82989 33.332031 30.4375 z M 19.222656 31.523438 C 19.916326 31.611209 20.625691 31.687146 21.363281 31.734375 C 21.889402 32.197756 22.434843 32.638047 22.988281 33.068359 C 22.919853 33.051468 22.850702 33.043519 22.78125 33.044922 C 22.601379 33.048522 22.419536 33.112541 22.277344 33.244141 C 22.145492 33.366172 22.059195 33.551541 22.050781 33.759766 C 21.361778 34.206386 20.687776 34.597256 20.039062 34.927734 C 19.709092 33.912342 19.433446 32.767373 19.222656 31.523438 z M 28.404297 31.523438 C 28.193407 32.76802 27.920044 33.913905 27.589844 34.929688 C 26.637414 34.444658 25.633636 33.829373 24.603516 33.097656 C 25.169686 32.658191 25.727755 32.208309 26.265625 31.734375 C 27.003065 31.687155 27.710697 31.611185 28.404297 31.523438 z M 22.886719 31.794922 C 23.195109 31.802405 23.500173 31.814453 23.814453 31.814453 C 24.129103 31.814453 24.433447 31.802557 24.742188 31.794922 C 24.435328 32.046079 24.130123 32.299018 23.814453 32.539062 C 23.499013 32.299196 23.193368 32.04589 22.886719 31.794922 z M 23.814453 33.689453 C 25.005353 34.554708 26.168454 35.260964 27.277344 35.814453 C 26.819134 36.996081 26.293357 37.995753 25.716797 38.652344 C 25.104607 39.349512 24.465113 39.703125 23.814453 39.703125 C 23.163793 39.703125 22.524279 39.349512 21.912109 38.652344 C 21.335559 37.995753 20.809732 36.996079 20.351562 35.814453 C 21.082193 35.449758 21.83721 35.016732 22.607422 34.517578 C 22.675278 34.534156 22.743652 34.542406 22.8125 34.541016 C 22.992371 34.537416 23.174235 34.473434 23.316406 34.341797 C 23.435721 34.231331 23.518106 34.068849 23.539062 33.884766 C 23.630714 33.819813 23.722461 33.756301 23.814453 33.689453 z "
     transform="scale(0.26458333)" />
  <path
     d="m 6.3009065,2.6458333 c -0.2426282,0 -0.4681802,0.1251107 -0.6635247,0.3384807 C 5.4536366,3.1850129 5.2976991,3.4775405 5.1629918,3.8194051 4.8261508,3.6730411 4.5091932,3.5760996 4.2374688,3.5641235 3.948467,3.5513865 3.7005366,3.6225319 3.5289834,3.7940837 3.3574223,3.9656144 3.2867944,4.2135674 3.2995394,4.5025675 3.311525,4.7742872 3.407963,5.0912347 3.554304,5.4280924 3.2127825,5.5627394 2.920283,5.7183557 2.7197315,5.9019654 2.5063635,6.0973107 2.38125,6.3228632 2.38125,6.5654907 c 0,0.2426274 0.1251135,0.4681873 0.3384815,0.6635252 0.2005515,0.1836034 0.493051,0.3392046 0.8345725,0.473873 -0.1463622,0.3368365 -0.2427896,0.6538042 -0.2547646,0.9255249 -0.012726,0.2890015 0.057891,0.5374457 0.229444,0.7090005 0.1715532,0.171555 0.4194836,0.2421813 0.7084854,0.2294435 0.2717244,-0.011975 0.588682,-0.1089152 0.925523,-0.2552816 0.1347073,0.3418644 0.2906448,0.6343924 0.47439,0.8350918 0.1953445,0.21337 0.4208965,0.33848 0.6635247,0.33848 0.2426282,0 0.4681802,-0.125103 0.6635274,-0.33848 C 7.1480918,9.9460556 7.3041536,9.6537636 7.4388212,9.3120929 7.7754056,9.4583019 8.0922891,9.554883 8.363831,9.5668578 8.6528354,9.5796028 8.9007579,9.5089667 9.0723137,9.3374143 9.2438669,9.1658601 9.3150107,8.9174153 9.3022737,8.6284138 9.2903145,8.3568703 9.1936966,8.0399889 9.047509,7.7034056 9.3891761,7.5687152 9.6814851,7.4126687 9.8820842,7.2290159 10.095447,7.0336775 10.220566,6.8081154 10.220566,6.5654907 c 0,-0.2426275 -0.125114,-0.46818 -0.3384818,-0.6635253 C 9.6814771,5.7183067 9.3891549,5.5622446 9.047509,5.4275757 9.1936702,5.0909715 9.2902986,4.7741094 9.3022737,4.5025675 9.3150266,4.2135676 9.2438695,3.9656144 9.0723137,3.7940837 8.9007579,3.6225289 8.6528327,3.5513857 8.363831,3.5641235 8.0922891,3.5760906 7.7754056,3.6727011 7.4388212,3.8188884 7.3041324,3.4772439 7.1480865,3.1849187 6.9644339,2.984314 6.7690947,2.7709445 6.5435347,2.6458333 6.3009065,2.6458333 Z m 0,0.2449463 c 0.1721538,0 0.3413548,0.094078 0.5033301,0.2785358 C 6.9567424,3.3429882 7.0954,3.6076607 7.2166136,3.9201741 6.9233944,4.0665426 6.6157792,4.2536181 6.3009065,4.4824137 5.986055,4.2536218 5.6784187,4.0665469 5.3852021,3.9201741 5.5064131,3.607661 5.6450759,3.3429885 5.7975791,3.1693154 5.9595517,2.9848569 6.1287686,2.8907796 6.3009065,2.8907796 Z M 4.166153,3.8054523 c 0.02876,-1.741e-4 0.058264,6.086e-4 0.088884,0.00259 0.2306135,0.014973 0.5160724,0.104005 0.8226901,0.2392619 C 4.97391,4.3582423 4.8890317,4.7080882 4.8281299,5.0927214 4.4433596,5.1536475 4.0932973,5.2389069 3.7821976,5.3428352 3.6468156,5.0360061 3.5579103,4.7503786 3.5429375,4.5196297 3.5270361,4.2746652 3.5808973,4.0889356 3.7026162,3.9672088 3.8091269,3.8606981 3.9648342,3.8066811 4.166153,3.8054613 Z m 4.2695071,0 c 0.2013267,0.00122 0.357042,0.055246 0.4635394,0.1617475 C 9.0209237,4.0889264 9.074261,4.2746562 9.0583622,4.5196207 9.0433868,4.7502336 8.9548467,5.0356929 8.8196155,5.3423095 8.5085184,5.2383825 8.1584508,5.153638 7.7736858,5.0927124 7.7127814,4.7080773 7.6273924,4.3582696 7.5235725,4.0472982 7.8304601,3.9118535 8.1159879,3.8230164 8.346776,3.8080363 8.377399,3.8060563 8.4069,3.8052763 8.43566,3.8054463 Z M 7.2998118,4.1537517 c 0.087365,0.268759 0.1596945,0.571941 0.2154925,0.901237 C 7.3271591,5.0312926 7.1387149,5.0111586 6.9494452,4.999178 6.8071179,4.8738345 6.6594804,4.7547686 6.5096813,4.6384765 6.7822339,4.444878 7.047812,4.2820894 7.2998118,4.1537517 Z M 5.3020013,4.1542809 C 5.5538502,4.2826133 5.819767,4.4450201 6.0921344,4.638489 5.9423432,4.7547813 5.7946872,4.8738472 5.6523678,4.9991904 5.457227,5.0116867 5.2695395,5.0317797 5.0859954,5.0550011 5.141767,4.7258761 5.2146941,4.4229769 5.3020013,4.1542809 Z m 0.9989052,0.6319903 c 0.083521,0.063512 0.1642745,0.1304346 0.2454646,0.196887 -0.081849,-0.00198 -0.1635866,-0.00512 -0.2454646,-0.00517 -0.083161,0 -0.1638697,0.00314 -0.2454619,0.00517 0.081886,-0.066975 0.1639597,-0.1349533 0.2454619,-0.196887 z m -5.291e-4,0.4376994 c 0.1834594,0 0.3671728,0.0052 0.5503544,0.015502 0.136398,0.1219543 0.2701026,0.24732 0.39946,0.3767211 0.1293971,0.1293537 0.2547673,0.2625498 0.3767191,0.3989422 0.010107,0.1798622 0.016536,0.3631835 0.016536,0.550354 0,0.1866921 -0.00593,0.3695112 -0.016007,0.5488037 -0.2443824,0.2734921 -0.5042561,0.5328108 -0.7777294,0.7772136 -0.3658156,0.020526 -0.7322847,0.020548 -1.0981241,0 C 5.4782984,7.64727 5.2191258,7.3880985 4.974889,7.1148104 4.9543308,6.7484376 4.9542779,6.3815071 4.974889,6.0151359 5.0968407,5.8787435 5.2222135,5.7455474 5.3516106,5.6161937 5.4809813,5.4867963 5.6141461,5.3614243 5.750552,5.2394726 5.9337231,5.229175 6.1169311,5.2239706 6.3003906,5.2239706 Z m -0.9451605,0.049092 c -0.059232,0.056415 -0.11938,0.1116806 -0.1772523,0.1694987 v 5.292e-4 c -0.057798,0.057865 -0.1130909,0.1180316 -0.1694974,0.1772502 0.010557,-0.105432 0.020241,-0.2115794 0.034107,-0.313159 0.1014174,-0.01383 0.2073883,-0.023567 0.3126422,-0.034107 z m 1.8908395,0 c 0.1054311,0.010549 0.211582,0.020254 0.3131582,0.034107 0.013864,0.1017495 0.023548,0.2080655 0.034107,0.313676 C 7.5367858,5.5614829 7.4812498,5.5010738 7.423306,5.4430784 V 5.4425493 C 7.3654417,5.3847508 7.3052728,5.3294547 7.2460564,5.2730506 Z m -2.455664,0.077515 C 4.7666857,5.5388909 4.7465932,5.7275203 4.7345811,5.9169514 4.6092242,6.0592718 4.4901644,6.2069109 4.37388,6.356718 4.1802711,6.0841506 4.0170232,5.8186013 3.8886394,5.5665851 4.1575514,5.4791521 4.4609094,5.406409 4.7903924,5.3505776 Z m 3.0210045,0 C 8.1407105,5.4064111 8.4438357,5.4792221 8.7126338,5.5665851 8.5843533,5.8184031 8.4212985,6.0838458 8.2279092,6.356201 8.1116937,6.2065125 7.9924645,6.0591782 7.8672081,5.9169514 7.8547198,5.7216955 7.834622,5.5342634 7.8113969,5.3505776 Z M 3.6550732,5.6492674 C 3.8015122,5.9426406 3.9883768,6.2503769 4.2173128,6.5654907 3.9885249,6.8803824 3.8015201,7.188019 3.6550732,7.4811972 3.3425844,7.3600077 3.0778794,7.2213165 2.9042148,7.0688192 2.7197632,6.9068508 2.626196,6.7376439 2.626196,6.5654907 c 0,-0.1721533 0.093559,-0.341353 0.2780188,-0.5033286 C 3.0779376,5.909614 3.3424336,5.7705037 3.6550732,5.6492674 Z m 5.2911507,5.292e-4 c 0.3125126,0.1212133 0.5771859,0.2598743 0.7508584,0.412378 0.1844569,0.1619755 0.2785348,0.3311752 0.2785348,0.5033285 0,0.1721532 -0.094083,0.3413601 -0.2785348,0.5033285 C 9.5234151,7.221329 9.2587127,7.3600201 8.9462239,7.4812096 8.7997797,7.1880531 8.6127748,6.880416 8.3839843,6.5655031 8.6127695,6.2506111 8.7998167,5.9430253 8.9462239,5.6497966 Z m -4.22765,0.6697265 c -0.00212,0.082024 -0.00564,0.1639274 -0.00569,0.24598 0,0.083438 0.00365,0.1641216 0.00569,0.2459799 C 4.6520364,6.7302065 4.5852662,6.6491231 4.5216868,6.5655031 4.5852715,6.4818868 4.6520417,6.4008042 4.7185739,6.3195231 Z m 3.1641494,0 c 0.066561,0.081312 0.1337997,0.1623224 0.1974029,0.24598 -0.063603,0.083658 -0.1308417,0.1646677 -0.1974029,0.2459799 0.00212,-0.081888 0.00569,-0.1625626 0.00569,-0.2459923 0,-0.083425 -0.00365,-0.1641124 -0.00569,-0.24598 z M 4.3738932,6.7742757 C 4.490167,6.9240765 4.6092004,7.0717095 4.7345944,7.2140423 4.7470827,7.4092982 4.7671805,7.5967304 4.7904056,7.780416 4.4609147,7.7245524 4.1575619,7.6518343 3.8886527,7.5644086 4.0170338,7.3123975 4.1803082,7.0468492 4.3738932,6.7742757 Z m 3.8540293,5.292e-4 C 8.4213091,7.0471601 8.5843586,7.3126015 8.7126471,7.5644208 8.4438489,7.6517833 8.1407237,7.7245932 7.8114101,7.7804282 7.8346405,7.5967447 7.8547092,7.4093001 7.8672187,7.2140545 7.9924751,7.0718277 8.1117069,6.9244935 8.2279225,6.7748049 Z m -3.219442,0.7358602 c 0.056407,0.059219 0.1116991,0.119385 0.1694973,0.1772502 0.058941,0.05894 0.1185016,0.1136158 0.1777683,0.1700154 C 5.2503149,7.8473818 5.1441641,7.8376769 5.0425852,7.8238241 5.02843,7.7197682 5.018905,7.6151538 5.0084805,7.5106651 Z m 2.5848547,0 C 7.5827784,7.6160936 7.5730946,7.7222421 7.5592278,7.8238241 7.4576463,7.8376777 7.3515008,7.84738 7.2460696,7.8579307 7.305286,7.8015266 7.3654549,7.7462305 7.4233193,7.688432 7.4822076,7.6295419 7.536979,7.5698834 7.5933352,7.5106651 Z M 3.7821976,7.7886843 c 0.3109436,0.103837 0.6608471,0.1887177 1.0454137,0.249597 0.060931,0.3848595 0.1462299,0.7348532 0.2501159,1.045931 C 4.7710857,9.2194734 4.4856479,9.3085051 4.2550371,9.3234742 4.0100753,9.3393757 3.8243298,9.285511 3.7026162,9.1637939 3.5808893,9.0420676 3.5270413,8.8563375 3.5429375,8.611373 3.5579129,8.3807577 3.6469637,8.0953043 3.7821976,7.7886843 Z m 5.0369019,0 C 8.9543598,8.095303 9.0433948,8.3807585 9.0583622,8.611373 9.0742637,8.8563365 9.0209158,9.0420673 8.8991995,9.1637939 8.7774726,9.2855224 8.5917325,9.339378 8.346776,9.3234742 8.1160355,9.3084935 7.8304257,9.2196147 7.5235725,9.0842123 7.6274612,8.7731279 7.7127549,8.423099 7.7736858,8.0382813 8.1582815,7.9774258 8.5081559,7.8925041 8.8190995,7.7886843 Z M 5.0859954,8.0760051 c 0.1835335,0.023223 0.3712184,0.043315 0.5663724,0.055811 0.1423273,0.125355 0.2899516,0.2444157 0.4397666,0.3607014 C 5.8197273,8.6859855 5.5538476,8.8484257 5.3020013,8.9767253 5.2146967,8.7080695 5.141767,8.4051295 5.0859954,8.0760051 Z m 2.4293089,0 C 7.4595063,8.405301 7.3871772,8.7084831 7.2998118,8.9772421 7.0478147,8.8489115 6.7822339,8.6861173 6.5096813,8.4925172 6.6594804,8.3762421 6.8071338,8.2572108 6.9494452,8.1318158 7.1445596,8.1193221 7.3317893,8.0992215 7.5153043,8.0760051 Z m -1.4598597,0.07183 c 0.081595,0.00198 0.1623087,0.00515 0.2454619,0.00515 0.083251,0 0.1637771,-0.00315 0.2454646,-0.00517 -0.08119,0.066452 -0.1619436,0.1333751 -0.2454646,0.196887 C 6.2174465,8.2812361 6.1365791,8.214217 6.0554446,8.1478151 Z M 6.3009065,8.649084 C 6.6159988,8.878016 6.9237357,9.0648796 7.2171295,9.2113236 7.0958948,9.5239626 6.9567848,9.7884596 6.8042366,9.9621826 6.6422613,10.146642 6.4730603,10.240202 6.3009065,10.240202 6.1287527,10.240202 5.959549,10.146642 5.7975791,9.9621826 5.6450335,9.7884596 5.5059077,9.5239625 5.3846836,9.211324 5.6780588,9.0648853 5.9858513,8.8780244 6.3009065,8.649084 Z"
     style="color:#000000;isolation:isolate;fill:#f34f17;stroke-width:0.132292;-inkscape-stroke:none"
     id="path1454"
     sodipodi:nodetypes="sscsccccssccsscssscscccssccccscsssscccssccccccccccsccccccccccccccccccccccccccsccccccccccccccccccccccccccccccccccccsssccssscccccccccccscccccccccccccccccccccccccsccccccsccccccccccccccsccccccssccc" />
  <path
     d="m 4.6498457,3.5429362 c -0.047196,0 -0.095277,0.015391 -0.1333236,0.049093 -0.038047,0.033702 -0.062775,0.086957 -0.063045,0.146761 -2.646e-4,0.060245 0.024368,0.1137621 0.062526,0.1477946 0.038153,0.034033 0.086405,0.049609 0.1338421,0.049609 0.047435,0 0.096208,-0.015576 0.1343607,-0.049609 0.038153,-0.034033 0.062796,-0.087549 0.062526,-0.1477946 C 4.8464673,3.6789862 4.8212259,3.6257308 4.7831709,3.5920292 4.7451239,3.5583272 4.6970379,3.5429362 4.6498457,3.5429362 Z M 7.0000918,3.947046 c -0.051999,-9.3e-6 -0.1050422,0.016968 -0.1467617,0.053743 -0.04172,0.036775 -0.069591,0.094609 -0.070281,0.1607135 -7.938e-4,0.067248 0.026768,0.1262015 0.068731,0.1638144 0.041963,0.037613 0.095181,0.055285 0.1477936,0.055294 0.052615,9.2e-6 0.106336,-0.017695 0.1483122,-0.055294 0.041979,-0.037598 0.069408,-0.096566 0.068731,-0.1638144 C 7.2158231,4.0953985 7.1880419,4.0375788 7.1463359,4.000789 7.1046299,3.963999 7.0520889,3.947055 7.0000928,3.947046 Z m 0.3570843,1.4092163 c -0.047472,1.93e-5 -0.09612,0.015711 -0.1343607,0.049609 -0.038238,0.033899 -0.063318,0.087111 -0.063561,0.1472776 -2.46e-4,0.060608 0.024686,0.1146305 0.063045,0.1488281 0.03837,0.034198 0.087167,0.049629 0.1348767,0.049609 0.047707,-1.93e-5 0.096015,-0.01538 0.1343581,-0.049609 0.038343,-0.034229 0.063341,-0.08822 0.063045,-0.1488281 C 7.5543145,5.4929828 7.5292849,5.4392226 7.4910156,5.4053547 7.4527489,5.3714867 7.4046397,5.356243 7.3571761,5.3562623 Z m 1.3156803,0.4134114 c -0.042781,0 -0.086707,0.013684 -0.1214385,0.044442 -0.034734,0.030758 -0.0571,0.079917 -0.057362,0.1338421 -2.62e-4,0.054342 0.022013,0.1032735 0.056843,0.1343586 0.034838,0.031085 0.078946,0.045475 0.1219571,0.045475 0.043013,0 0.086601,-0.014391 0.1214411,-0.045475 0.034838,-0.031085 0.057624,-0.080017 0.057359,-0.1343586 C 8.8513972,5.8940327 8.8285055,5.8448731 8.7937789,5.8141153 8.7590471,5.7833575 8.7156395,5.7696737 8.6728564,5.7696737 Z M 4.0390313,5.8823283 c -0.042781,0 -0.086188,0.0142 -0.1209226,0.044958 -0.034732,0.030758 -0.057616,0.079401 -0.057878,0.1333251 -2.619e-4,0.054342 0.022013,0.1032735 0.056843,0.1343586 0.03484,0.031085 0.078946,0.045475 0.1219571,0.045475 0.043013,0 0.087117,-0.014391 0.121957,-0.045475 0.03484,-0.031085 0.057108,-0.080017 0.056843,-0.1343586 C 4.2175721,6.0066875 4.1952095,5.9580446 4.1604697,5.9272868 4.1257352,5.896529 4.0818144,5.8823283 4.0390313,5.8823283 Z M 3.165184,7.2073119 c -0.040545,0 -0.082217,0.013023 -0.1152393,0.042375 -0.033023,0.029353 -0.054261,0.076126 -0.054261,0.1271239 0,0.050998 0.021246,0.097771 0.054261,0.127124 0.033023,0.029353 0.074694,0.042375 0.1152393,0.042375 0.040542,0 0.081698,-0.013023 0.1147206,-0.042375 0.033023,-0.029353 0.054777,-0.076126 0.054777,-0.127124 0,-0.050997 -0.021749,-0.097771 -0.054777,-0.1271239 C 3.246882,7.2203336 3.2057261,7.2073119 3.165184,7.2073119 Z m 5.9634595,0.8051188 c -0.05547,-1.8e-5 -0.1117732,0.01819 -0.1560645,0.057361 -0.044294,0.039172 -0.073472,0.100248 -0.073895,0.1710489 -5.291e-4,0.071483 0.028448,0.1339525 0.072864,0.1736328 0.044416,0.039681 0.1012586,0.05786 0.1570963,0.057878 0.055838,1.83e-5 0.1126543,-0.018225 0.1570964,-0.057878 0.044442,-0.039651 0.073247,-0.1021493 0.072864,-0.1736328 C 9.3583389,8.1700393 9.3289728,8.108992 9.2847053,8.0697916 9.2404405,8.0305912 9.1841134,8.0124487 9.1286435,8.0124307 Z M 6.027539,8.4785522 c -0.047591,9.525e-4 -0.095702,0.017891 -0.1333235,0.05271 -0.037621,0.034819 -0.061674,0.088954 -0.060463,0.1493449 0.00132,0.060396 0.027667,0.1134832 0.066664,0.1467609 0.038994,0.033278 0.087799,0.047987 0.13539,0.047026 0.047591,-9.525e-4 0.09571,-0.017881 0.1333261,-0.05271 0.037619,-0.034829 0.061688,-0.08895 0.060463,-0.1493451 C 6.2282731,8.6119485 6.2019233,8.558853 6.1629316,8.5255777 6.1239373,8.4923023 6.075127,8.477591 6.027539,8.4785522 Z M 3.5501712,8.9932493 c -0.045236,0 -0.091099,0.014544 -0.1276403,0.047026 -0.036539,0.03248 -0.06046,0.083825 -0.06046,0.1410766 0,0.057251 0.023918,0.1085964 0.06046,0.1410766 0.036542,0.03248 0.082404,0.047026 0.1276403,0.047026 0.045233,0 0.09162,-0.014544 0.1281589,-0.047026 0.036542,-0.03248 0.06046,-0.083825 0.06046,-0.1410766 0,-0.057251 -0.023918,-0.1085967 -0.06046,-0.1410766 -0.036539,-0.03248 -0.082926,-0.047026 -0.1281589,-0.047026 z"
     style="color:#000000;isolation:isolate;fill:#111111;stroke-width:0.132292;-inkscape-stroke:none"
     id="path1334"
     sodipodi:nodetypes="ssccssccssscssccsssscscsscssssscscccsscccssccsssscssscssscssscsscscccscscssssscscs" />
  <circle
     style="opacity:1;fill:#46a926;fill-opacity:1;stroke-width:0.264583"
     id="path2017"
     cx="6.3499999"
     cy="6.6145835"
     r="0.79374999" />
  <path
     d="m 3.5283045,0.52916666 c -1.3204001,0 -2.0824054,0.0730996 -2.4830534,0.38447265 C 0.84492715,1.0693257 0.71780015,1.2849868 0.63649105,1.6174724 0.55518455,1.9499578 0.52608035,2.3953556 0.52951995,2.975529 v 3.3744709 3.374471 c -0.00347,0.5801731 0.025665,1.0255711 0.1069711,1.3580571 0.081309,0.332483 0.2084361,0.548142 0.40876005,0.703834 0.4006506,0.311369 1.1626533,0.384471 2.4830534,0.384471 h 5.643584 c 1.3200665,0 2.0783065,-0.0732 2.4773675,-0.384471 0.199527,-0.155639 0.326212,-0.371637 0.408244,-0.70435 0.08203,-0.332714 0.11317,-0.77774 0.11317,-1.3580579 V 6.3499999 2.9760458 c 0,-0.5803182 -0.03114,-1.0253432 -0.11317,-1.3580567 C 11.975468,1.2852757 11.848786,1.0692765 11.649256,0.91363931 11.250195,0.60236523 10.491958,0.52916666 9.1718885,0.52916666 Z m 0.635619,0.29042148 c 1.838159,2.196e-4 3.680521,8.9958e-4 5.51646,0.0144701 0.5669905,0.0219419 1.1811815,-0.0390792 1.6996375,0.24649646 0.342924,0.1839457 0.409739,0.5953985 0.468188,0.9430952 0.04644,0.5828474 0.02421,1.1753393 0.03669,1.7647498 0.006,2.2435428 0.02037,4.4897126 -0.02119,6.7329223 -0.04273,0.392438 -0.100899,0.874657 -0.475938,1.096056 -0.424789,0.219262 -0.919562,0.239826 -1.3885465,0.252182 -2.513472,0.01794 -5.033512,0.0223 -7.5468263,-0.0047 C 2.0348404,11.834706 1.5870675,11.801366 1.2266309,11.568281 0.90132035,11.30492 0.86658065,10.846659 0.82872135,10.458788 0.79506635,8.0779127 0.80660225,5.695102 0.81477785,3.3129712 0.84115675,2.6829256 0.74985435,2.0165125 1.0013303,1.4185133 1.1790377,1.0190665 1.6537214,0.92640043 2.0436431,0.87436059 2.7478793,0.79059827 3.4570045,0.83546102 4.1639265,0.81958338 Z"
     style="color:#000000;display:inline;overflow:visible;visibility:visible;fill:url(#linearGradient867);fill-opacity:1;fill-rule:nonzero;stroke:none;stroke-width:0.264583;marker:none;enable-background:accumulate;opacity:1"
     id="path1316" />
  <path
     d="m 3.5283045,0.26458333 c -1.3284091,0 -2.1391691,0.0468905 -2.64536475,0.44028307 -0.2530951,0.19669653 -0.4132606,0.4796285 -0.5038539,0.8500774 -0.090596,0.370449 -0.1177132,0.8325826 -0.1142074,1.4221354 v 3.3729207 3.3739542 c -0.00347,0.5889439 0.02368,1.0509189 0.1142074,1.4211029 0.090593,0.370448 0.2507588,0.65338 0.5038539,0.850077 0.50619825,0.393393 1.31695565,0.440282 2.64536475,0.440282 h 5.643687 c 1.3280755,0 2.1357325,-0.0468 2.6401945,-0.440282 0.252233,-0.196744 0.411025,-0.479338 0.502306,-0.849561 0.09128,-0.370224 0.120923,-0.832198 0.120923,-1.4216189 V 6.3499999 2.9760458 c 0,-0.5894213 -0.02964,-1.0513952 -0.120923,-1.4216187 C 12.223211,1.1842036 12.064419,0.90160897 11.812186,0.7048664 11.307724,0.31138177 10.50007,0.26458333 9.1719915,0.26458333 Z m 0,0.26458333 h 5.643687 c 1.3200905,0 2.0783445,0.0731988 2.4774125,0.38447265 0.19953,0.15563689 0.326218,0.37163669 0.408252,0.70434969 0.08203,0.3327133 0.113173,0.777739 0.113173,1.3580568 v 3.3739541 3.3739542 c 0,0.5803179 -0.03114,1.0253439 -0.113173,1.3580579 -0.08203,0.332711 -0.208722,0.548711 -0.408252,0.70435 -0.399068,0.311271 -1.157322,0.384471 -2.4774125,0.384471 h -5.643687 c -1.3204239,0 -2.0824398,-0.0731 -2.4830983,-0.384471 C 0.84487945,11.630673 0.71774985,11.415011 0.63644075,11.082528 0.55512895,10.750042 0.52600895,10.304644 0.52946705,9.7244709 V 6.3499999 2.975529 C 0.52602745,2.395356 0.55513165,1.9499575 0.63644075,1.6174723 0.71774985,1.284987 0.84487945,1.0693257 1.0452062,0.91363931 1.445862,0.6022668 2.2078806,0.52916666 3.5283045,0.52916666 Z"
     style="color:#000000;display:inline;opacity:0.4;fill:#000000;stroke-width:0.264586;-inkscape-stroke:none;enable-background:new"
     id="path1058" />
</svg>
