<?xml version="1.0" encoding="UTF-8" standalone="no"?>
<!-- Created with Inkscape (http://www.inkscape.org/) -->

<svg
   width="48"
   height="48"
   viewBox="0 0 12.7 12.7"
   version="1.1"
   id="svg5"
   inkscape:version="1.1.2 (0a00cf5339, 2022-02-04)"
   sodipodi:docname="kmines.svg"
   xmlns:inkscape="http://www.inkscape.org/namespaces/inkscape"
   xmlns:sodipodi="http://sodipodi.sourceforge.net/DTD/sodipodi-0.dtd"
   xmlns:xlink="http://www.w3.org/1999/xlink"
   xmlns="http://www.w3.org/2000/svg"
   xmlns:svg="http://www.w3.org/2000/svg">
  <sodipodi:namedview
     id="namedview7"
     pagecolor="#ffffff"
     bordercolor="#666666"
     borderopacity="1.0"
     inkscape:pageshadow="2"
     inkscape:pageopacity="0.0"
     inkscape:pagecheckerboard="0"
     inkscape:document-units="px"
     showgrid="false"
     units="px"
     height="48px"
     showguides="true"
     inkscape:zoom="11.578874"
     inkscape:cx="12.004622"
     inkscape:cy="32.127476"
     inkscape:window-width="1920"
     inkscape:window-height="1017"
     inkscape:window-x="0"
     inkscape:window-y="0"
     inkscape:window-maximized="1"
     inkscape:current-layer="svg5" />
  <defs
     id="defs2">
    <linearGradient
       inkscape:collect="always"
       id="linearGradient1871">
      <stop
         style="stop-color:#ffffff;stop-opacity:1;"
         offset="0"
         id="stop1867" />
      <stop
         style="stop-color:#ffffff;stop-opacity:0.1"
         offset="0.12"
         id="stop2515" />
      <stop
         style="stop-color:#ffffff;stop-opacity:0.102"
         offset="0.89999998"
         id="stop2581" />
      <stop
         style="stop-color:#ffffff;stop-opacity:0.502"
         offset="1"
         id="stop1869" />
    </linearGradient>
    <linearGradient
       inkscape:collect="always"
       xlink:href="#linearGradient1871"
       id="linearGradient867"
       x1="10.294504"
       y1="0.17081539"
       x2="10.294504"
       y2="11.812482"
       gradientUnits="userSpaceOnUse"
       gradientTransform="translate(-6.7661995,0.35835127)" />
    <linearGradient
       inkscape:collect="always"
       id="linearGradient1753">
      <stop
         style="stop-color:#5bdbc1;stop-opacity:1"
         offset="0"
         id="stop1749" />
      <stop
         style="stop-color:#2d898f;stop-opacity:1"
         offset="1"
         id="stop1751" />
    </linearGradient>
    <linearGradient
       inkscape:collect="always"
       xlink:href="#linearGradient1753"
       id="linearGradient1097"
       x1="-1.7763568e-15"
       y1="12.7"
       x2="-1.7763568e-15"
       y2="1.110223e-16"
       gradientUnits="userSpaceOnUse" />
  </defs>
  <path
     d="m 3.6136175,0.52916666 c -0.6937644,0 -1.2400363,0.013253 -1.6895264,0.0758653 C 1.4745984,0.6676427 1.1067826,0.78508171 0.83735475,1.0081286 0.56792955,1.2311758 0.42572395,1.536256 0.35097645,1.9094069 c -0.07475,0.3731514 -0.0893418,0.8274436 -0.0859419,1.4045173 v 3.3006284 3.3022071 c -0.00336,0.5761873 0.011271,1.0302483 0.085942,1.4029983 0.074747,0.373153 0.2169531,0.678233 0.4863783,0.90128 0.26942785,0.223046 0.63724365,0.340487 1.08673635,0.403095 0.4494954,0.06261 0.995762,0.07587 1.6895263,0.07587 h 5.473218 c 0.693772,0 1.2397525,-0.01323 1.6883165,-0.07587 0.448558,-0.06264 0.81525,-0.180472 1.083683,-0.403601 0.268438,-0.223126 0.4098,-0.527989 0.485158,-0.900774 0.07536,-0.372779 0.09142,-0.826151 0.09142,-1.4029983 V 6.6145526 3.3124068 c 0,-0.5768474 -0.01609,-1.0302168 -0.09142,-1.4029999 C 12.268635,1.5366243 12.12727,1.2317621 11.858832,1.0086345 11.590399,0.7855069 11.223708,0.66766995 10.775146,0.60503196 10.326588,0.54239371 9.7806025,0.52916666 9.0868355,0.52916666 Z"
     style="color:#000000;font-style:normal;font-variant:normal;font-weight:normal;font-stretch:normal;font-size:medium;line-height:normal;font-family:sans-serif;font-variant-ligatures:normal;font-variant-position:normal;font-variant-caps:normal;font-variant-numeric:normal;font-variant-alternates:normal;font-feature-settings:normal;text-indent:0;text-align:start;text-decoration:none;text-decoration-line:none;text-decoration-style:solid;text-decoration-color:#000000;letter-spacing:normal;word-spacing:normal;text-transform:none;writing-mode:lr-tb;direction:ltr;text-orientation:mixed;dominant-baseline:auto;baseline-shift:baseline;text-anchor:start;white-space:normal;shape-padding:0;clip-rule:nonzero;display:inline;overflow:visible;visibility:visible;opacity:0.1;isolation:auto;mix-blend-mode:normal;color-interpolation:sRGB;color-interpolation-filters:linearRGB;solid-color:#000000;solid-opacity:1;vector-effect:none;fill:#000000;fill-opacity:1;fill-rule:nonzero;stroke:none;stroke-width:0.529167;stroke-linecap:butt;stroke-linejoin:miter;stroke-miterlimit:4;stroke-dasharray:none;stroke-dashoffset:0;stroke-opacity:1;marker:none;color-rendering:auto;image-rendering:auto;shape-rendering:auto;text-rendering:auto;enable-background:accumulate"
     id="path1178" />
  <path
     d="m 3.5282515,0.396875 c -2.64878565,0 -3.14501435,0.2398051 -3.13109725,2.5792589 v 3.3738528 3.3739164 c -0.013944,2.3394539 0.4823116,2.5792589 3.13109725,2.5792589 h 5.643775 c 2.6481235,0 3.1310915,-0.239779 3.1310915,-2.5792589 V 6.3499867 2.9761339 c 0,-2.33948026 -0.482968,-2.5792589 -3.1310945,-2.5792589 z"
     style="color:#000000;display:inline;overflow:visible;visibility:visible;fill:url(#linearGradient1097);fill-opacity:1;fill-rule:nonzero;stroke:none;stroke-width:0.264583;marker:none;enable-background:accumulate"
     id="path908" />
  <path
     id="rect10608"
     style="fill:#313131;fill-opacity:1;stroke-width:0.999999;stroke-linejoin:round"
     d="M 23.474609 40 C 23.209695 40.013342 23 40.231656 23 40.5 L 23 41.5 C 23 41.768344 23.209695 41.986658 23.474609 42 C 23.209695 42.013342 23 42.231656 23 42.5 L 23 43.5 C 23 43.768344 23.209695 43.986658 23.474609 44 C 23.209694 44.013342 23 44.231647 23 44.5 L 23 45.5 C 23 45.777002 23.223 46 23.5 46 L 24.5 46 C 24.777002 46 25 45.777009 25 45.5 L 25 44.5 C 25 44.231655 24.790305 44.013342 24.525391 44 C 24.790306 43.986658 25 43.768349 25 43.5 L 25 42.5 C 25 42.231655 24.790305 42.013342 24.525391 42 C 24.790305 41.986658 25 41.768344 25 41.5 L 25 40.5 C 25 40.223 24.777 40 24.5 40 L 23.5 40 C 23.491344 40 23.483155 39.99957 23.474609 40 z "
     transform="scale(0.26458333)" />
  <path
     id="path24"
     d="m 3.3734376,4.7624999 c -1.0022417,0 -2.9765625,0.4252971 -2.9765625,0.4252971 v 0.2645833 c 0,0 1.9743208,-0.4252971 2.9765625,-0.4252971 2.0044833,0 3.9481248,0.8505942 5.9526084,0.8505942 1.002241,0 2.976562,-0.4252971 2.976562,-0.4252971 V 5.187797 c 0,0 -1.974321,0.4252971 -2.976562,0.4252971 -2.0044836,2e-7 -3.9481251,-0.8505942 -5.9526084,-0.8505942 z"
     style="opacity:0.3;fill:#ffffff;stroke-width:0.264583"
     sodipodi:nodetypes="sccssccss" />
  <path
     id="path9606"
     style="opacity:0.2;fill:#81e9c9;fill-opacity:1;stroke-width:0.264583"
     d="M 12.75 18 C 8.9634482 18 1.5076583 19.606193 1.5019531 19.607422 L 1.5019531 24 L 1.5019531 36.751953 C 1.4492514 45.593983 3.3247791 46.5 13.335938 46.5 L 34.666016 46.5 C 44.674671 46.5 46.5 45.594081 46.5 36.751953 L 46.5 31.234375 C 46.499963 31.226196 46.498031 31.217138 46.498047 31.208984 L 46.498047 19.636719 C 46.498017 19.626816 46.498081 19.617249 46.498047 19.607422 C 46.498047 19.607422 39.036048 21.214844 35.248047 21.214844 C 27.672047 21.214847 20.325999 18 12.75 18 z "
     transform="scale(0.26458333)" />
  <path
     id="rect10860"
     style="opacity:0.3;fill:#000000;fill-opacity:1;stroke-width:0.264583;stroke-linejoin:round"
     d="m 6.2063395,2.6462248 c -0.2062512,0.00448 -0.2849811,0.049281 -0.3193603,0.3446818 l -0.014986,0.1193726 c -0.034465,0.2189639 -0.0414,0.317896 -0.2485636,0.3715534 -0.013891,0.0031 -0.027527,0.00653 -0.041341,0.00982 -0.0031,6.35e-4 -0.00618,0.00144 -0.0093,0.00207 -0.052134,0.012586 -0.1039355,0.026679 -0.1550294,0.041858 l 5.17e-4,-5.167e-4 c -0.00857,0.00292 -0.016165,0.00522 -0.024288,0.00775 -0.00775,0.00238 -0.015528,0.00429 -0.023255,0.00672 -0.029091,0.00816 -0.049618,0.00754 -0.073381,0.010335 a 3.132402,3.1345187 0 0 0 -1.037146,0.5870443 c -0.022251,0.036359 -0.056736,0.074463 -0.10697,0.1183391 l 0.00517,-0.00103 c -0.040883,0.038751 -0.080622,0.078489 -0.1193726,0.1193723 l 0.00103,-0.00517 C 3.8672985,4.5762213 3.7811602,4.5313418 3.5584392,4.4455981 L 3.4478516,4.3990893 C 3.3503476,4.3569674 3.2774597,4.335792 3.2194419,4.333977 3.0918016,4.329977 3.0350286,4.4198851 2.9409057,4.5871917 2.7986102,4.8274439 2.7585962,4.9171459 3.0313395,5.1199755 l 0.096118,0.072347 c 0.1730534,0.1398561 0.2558002,0.1949101 0.197404,0.4030763 -0.00238,0.00773 -0.00488,0.015497 -0.00723,0.023254 -0.00265,0.00811 -0.00484,0.016245 -0.00775,0.024805 l 5.168e-4,-5.167e-4 c -0.015214,0.051252 -0.02924,0.1027266 -0.041858,0.1550291 -5.292e-4,0.00335 -0.00128,0.00604 -0.00207,0.0093 -0.00328,0.013814 -0.00672,0.027458 -0.00982,0.041341 -0.010742,0.04145 -0.024818,0.069931 -0.039791,0.097152 a 3.132402,3.1345187 0 0 0 -0.060461,0.5829102 3.132402,3.1345187 0 0 0 0.05581,0.5694743 c 0.017542,0.028919 0.032358,0.06238 0.044442,0.1090372 0.0031,0.013891 0.00654,0.028047 0.00982,0.041858 7.938e-4,0.0031 0.00154,0.00615 0.00207,0.0093 0.012594,0.052139 0.026679,0.1039357 0.041858,0.1550292 l -5.168e-4,-5.168e-4 c 0.00291,0.00857 0.00521,0.016192 0.00775,0.024288 0.00238,0.00775 0.00483,0.015528 0.00723,0.023255 0.058399,0.2081763 -0.024368,0.2632279 -0.197404,0.403076 l -0.095601,0.072864 C 2.7591237,8.1391575 2.7991272,8.2288568 2.9414227,8.4691252 3.0783393,8.7124809 3.1358232,8.7920219 3.4478516,8.6572269 l 0.1105876,-0.04702 c 0.2227237,-0.08574 0.3088778,-0.1301059 0.4816243,0.0677 l -0.00103,-0.0052 c 0.038751,0.04088 0.078489,0.08062 0.1193726,0.119373 l -0.00517,-10e-4 c 0.049451,0.04319 0.083643,0.08094 0.1059365,0.116789 a 3.132402,3.1345187 0 0 0 1.0490317,0.589627 c 0.020849,0.003 0.037726,0.0019 0.062528,0.0088 0.00773,0.0024 0.015503,0.0049 0.023255,0.0072 0.0081,0.0026 0.015715,0.0048 0.024288,0.0077 l -5.17e-4,-5.16e-4 c 0.050938,0.01513 0.1025406,0.0293 0.1545127,0.04186 0.00336,5.29e-4 0.00656,0.0013 0.00982,0.0021 0.013811,0.0033 0.027459,0.0067 0.041341,0.0098 0.2071661,0.05365 0.2141016,0.152589 0.2485636,0.371553 l 0.014986,0.1193731 c 0.039272,0.337609 0.1367726,0.347803 0.4159954,0.344681 0.2792148,0.0031 0.3767045,-0.0071 0.4159951,-0.344681 l 0.014984,-0.1193771 c 0.034465,-0.218961 0.040881,-0.317896 0.2480469,-0.371554 0.013891,-0.0031 0.028047,-0.0065 0.041858,-0.0098 0.0031,-5.29e-4 0.00567,-0.0013 0.00878,-0.0021 h 5.168e-4 c 0.052136,-0.01259 0.1039331,-0.02668 0.1550294,-0.04186 l -5.167e-4,5.17e-4 c 0.00857,-0.0029 0.016165,-0.0052 0.024288,-0.0077 0.00775,-0.0024 0.015528,-0.0048 0.023255,-0.0072 0.01106,-0.0031 0.017674,-0.0013 0.027905,-0.0036 A 3.132402,3.1345187 0 0 0 8.449614,8.7947259 c 0.0016,-0.0013 0.0016,-0.0024 0.0031,-0.0036 l -0.0052,10e-4 c 0.04088,-0.03875 0.08062,-0.07849 0.119372,-0.119373 l -10e-4,0.0052 c 0.172766,-0.1977961 0.2589,-0.153436 0.481624,-0.06769 l 0.110587,0.04702 C 9.47012,8.7920749 9.528121,8.7125329 9.665043,8.4691812 9.807339,8.2289263 9.846836,8.1392265 9.574093,7.9363972 l -0.0956,-0.072864 C 9.305443,7.7236771 9.22269,7.6686234 9.281089,7.4604572 c 0.0024,-0.00773 0.0048,-0.015503 0.0072,-0.023255 0.0027,-0.0081 0.0048,-0.015715 0.0077,-0.024288 l -5.17e-4,5.168e-4 c 0.0093,-0.031353 0.01748,-0.063351 0.02584,-0.095085 l -0.0046,-0.00258 A 3.132402,3.1345187 0 0 0 9.421621,6.528731 3.132402,3.1345187 0 0 0 9.317752,5.7354977 l 0.0026,-0.00155 c -0.0081,-0.03044 -0.01589,-0.060863 -0.0248,-0.09095 l 5.17e-4,5.167e-4 c -0.0029,-0.00856 -0.0052,-0.016695 -0.0077,-0.024805 -0.0024,-0.00776 -0.0048,-0.015523 -0.0072,-0.023254 C 9.222769,5.387278 9.305529,5.3322267 9.47857,5.1923785 l 0.0956,-0.072347 C 9.846901,4.9172134 9.8069,4.8275157 9.6646,4.5872476 9.57047,4.419941 9.514224,4.3300403 9.386581,4.3340329 c -0.05802,0.00183 -0.130905,0.02299 -0.22841,0.065112 L 9.047584,4.4456539 C 8.801563,4.5034729 8.593054,4.4350519 8.472351,4.2864348 A 3.132402,3.1345187 0 0 0 7.2481363,3.5515959 c -0.00495,-0.00127 -0.00779,-6.422e-4 -0.012919,-0.00207 -0.00773,-0.00243 -0.015503,-0.00434 -0.023255,-0.00672 -0.0081,-0.00254 -0.015715,-0.00483 -0.024288,-0.00775 l 5.167e-4,5.167e-4 C 7.1370957,3.5203933 7.0852985,3.5063045 7.0331624,3.4937183 h -5.168e-4 c -0.00312,-6.35e-4 -0.00569,-0.00144 -0.00878,-0.00207 -0.013811,-0.00329 -0.027459,-0.00672 -0.041341,-0.00982 C 6.7753492,3.4281754 6.7684206,3.3292431 6.7339559,3.1102792 L 6.7189697,2.9909066 C 6.6796499,2.6532984 6.5821764,2.6431292 6.3029746,2.6462248 c -0.034902,-3.889e-4 -0.06717,-6.403e-4 -0.096635,0 z" />
  <path
     id="rect1051"
     style="fill:#313131;fill-opacity:1;stroke-width:0.264583;stroke-linejoin:round"
     d="M 6.2058922,2.3816233 C 5.999641,2.3861033 5.9209111,2.4309043 5.8865319,2.726305 l -0.014986,0.1193725 c -0.034465,0.2189639 -0.0414,0.3178961 -0.2485636,0.3715536 -0.013891,0.0031 -0.027527,0.00653 -0.041341,0.00982 -0.0031,6.35e-4 -0.00618,0.00143 -0.0093,0.00206 -0.052134,0.012586 -0.1039357,0.026679 -0.1550294,0.041858 L 5.4178378,3.27044 c -0.00857,0.00292 -0.016166,0.00522 -0.024289,0.00775 -0.00775,0.00238 -0.015528,0.00429 -0.023254,0.00672 -0.029091,0.00816 -0.049618,0.00754 -0.073381,0.010335 A 3.132402,3.1345187 0 0 0 4.2597577,3.8823068 c -0.022251,0.036359 -0.056736,0.074463 -0.1069703,0.1183392 l 0.00517,-0.00103 C 4.1170744,4.038367 4.0773354,4.078105 4.0385848,4.1189886 l 0.00103,-0.00517 C 3.8668498,4.3116211 3.7807116,4.2667414 3.5579906,4.1809976 L 3.447403,4.1344886 C 3.349899,4.0923666 3.277011,4.0711916 3.2189932,4.0693766 3.0913529,4.0653766 3.03458,4.1552846 2.9404571,4.322591 2.7981615,4.5628433 2.7581478,4.6525455 3.0308911,4.8553751 l 0.096118,0.072347 c 0.1730533,0.1398561 0.2558002,0.1949098 0.197404,0.403076 -0.00238,0.00773 -0.00488,0.015497 -0.00723,0.023254 -0.00265,0.00811 -0.00484,0.016245 -0.00775,0.024805 l 5.292e-4,-5.291e-4 c -0.015214,0.051252 -0.02924,0.1027263 -0.041858,0.1550291 -5.291e-4,0.00335 -0.00127,0.00604 -0.00206,0.0093 -0.00328,0.013814 -0.00672,0.027458 -0.00982,0.041341 -0.010742,0.04145 -0.024818,0.069931 -0.039791,0.097152 a 3.132402,3.1345187 0 0 0 -0.060462,0.5829101 3.132402,3.1345187 0 0 0 0.055811,0.5694744 c 0.017542,0.028919 0.032358,0.06238 0.044442,0.1090372 0.0031,0.013891 0.00654,0.028047 0.00982,0.041858 7.937e-4,0.0031 0.00153,0.00615 0.00206,0.0093 0.012594,0.052139 0.026679,0.1039355 0.041858,0.1550291 l -5.292e-4,-5.291e-4 c 0.00291,0.00857 0.00521,0.016193 0.00775,0.024289 0.00238,0.00775 0.00483,0.015528 0.00723,0.023254 0.058399,0.2081765 -0.024368,0.2632278 -0.197404,0.403076 l -0.095601,0.072864 C 2.7586756,7.8745291 2.7986787,7.9642284 2.9409741,8.2044968 3.0778907,8.4478523 3.1353749,8.5273939 3.4474033,8.3925989 l 0.1105876,-0.047026 c 0.2227236,-0.085743 0.3088778,-0.1301064 0.4816242,0.067696 l -0.00103,-0.00517 c 0.038751,0.040883 0.078489,0.080622 0.1193726,0.119373 l -0.00517,-10e-4 c 0.049451,0.04319 0.083643,0.08094 0.1059368,0.116788 a 3.132402,3.1345187 0 0 0 1.0490317,0.589628 c 0.020849,0.003 0.037726,0.0018 0.062528,0.0088 0.00773,0.0024 0.015502,0.0049 0.023254,0.0072 0.0081,0.0027 0.015716,0.0048 0.024289,0.0077 l -5.292e-4,-5.29e-4 c 0.050938,0.01513 0.1025406,0.0293 0.1545127,0.04186 0.00336,5.29e-4 0.00656,0.0013 0.00982,0.0021 0.013811,0.0033 0.027459,0.0067 0.041341,0.0098 0.2071661,0.05365 0.2141016,0.15259 0.2485636,0.371554 l 0.014986,0.119372 c 0.039272,0.3376091 0.1367724,0.3478041 0.4159951,0.3446821 0.2792148,0.0031 0.3767048,-0.0071 0.4159954,-0.3446821 l 0.014986,-0.119372 c 0.034465,-0.218961 0.040881,-0.317896 0.2480468,-0.371554 0.013891,-0.0031 0.028047,-0.0065 0.041858,-0.0098 0.0031,-5.29e-4 0.00566,-0.0013 0.00878,-0.0021 h 5.292e-4 c 0.052136,-0.01259 0.1039331,-0.02668 0.1550294,-0.04186 l -5.291e-4,5.29e-4 c 0.00857,-0.0029 0.016166,-0.0052 0.024289,-0.0077 0.00775,-0.0024 0.015528,-0.0048 0.023254,-0.0072 0.01106,-0.0031 0.017674,-0.0013 0.027905,-0.0036 A 3.132402,3.1345187 0 0 0 8.449154,8.5300659 c 0.0016,-0.0013 0.0016,-0.0024 0.0031,-0.0036 l -0.0052,10e-4 c 0.04088,-0.038751 0.08062,-0.078489 0.119373,-0.1193728 l -10e-4,0.00517 C 8.738194,8.215473 8.824329,8.2598359 9.047053,8.3455791 L 9.15764,8.3926051 C 9.469664,8.5273966 9.527664,8.4478581 9.664586,8.2045025 9.806882,7.9642476 9.846379,7.874548 9.573636,7.6717185 l -0.0956,-0.072864 C 9.304986,7.4589984 9.222234,7.4039447 9.280632,7.1957785 c 0.0024,-0.00773 0.0049,-0.015502 0.0072,-0.023254 0.0026,-0.0081 0.0048,-0.015716 0.0077,-0.024289 l -5.23e-4,5.291e-4 c 0.0093,-0.031353 0.01748,-0.063351 0.02584,-0.095085 l -0.0046,-0.00259 A 3.132402,3.1345187 0 0 0 9.421178,6.2640555 3.132402,3.1345187 0 0 0 9.317309,5.4708223 l 0.0026,-0.00156 c -0.0081,-0.03044 -0.01589,-0.060862 -0.02481,-0.09095 l 5.3e-4,5.292e-4 c -0.0029,-0.00856 -0.0052,-0.016695 -0.0077,-0.024805 -0.0024,-0.00776 -0.0048,-0.015523 -0.0072,-0.023254 -0.0584,-0.2081768 0.02437,-0.2632279 0.197404,-0.4030761 l 0.0956,-0.072347 C 9.846463,4.6525414 9.80646,4.5628421 9.664163,4.3225738 9.570033,4.1552674 9.513787,4.0653667 9.386144,4.0693593 c -0.05802,0.00183 -0.130906,0.02299 -0.22841,0.065112 L 9.047146,4.1809803 C 8.801116,4.2388553 8.592607,4.1704343 8.471904,4.0218171 A 3.132402,3.1345187 0 0 0 7.247689,3.2869943 c -0.00495,-0.00127 -0.00779,-6.35e-4 -0.01292,-0.00206 -0.00773,-0.00243 -0.015502,-0.00434 -0.023254,-0.00672 -0.0081,-0.00254 -0.015716,-0.00483 -0.024289,-0.00775 l 5.292e-4,5.292e-4 C 7.1366593,3.2558105 7.0848623,3.241718 7.0327262,3.2291318 H 7.032197 c -0.00312,-6.35e-4 -0.00569,-0.00143 -0.00878,-0.00206 C 7.009606,3.2237818 6.995958,3.2203518 6.982076,3.2172518 6.7749056,3.1635945 6.7679727,3.0646597 6.7335081,2.8456958 L 6.7185221,2.7263232 C 6.6792024,2.388715 6.5817286,2.3785459 6.3025267,2.3816415 c -0.034902,-3.889e-4 -0.06717,-6.403e-4 -0.096635,0 z" />
  <path
     id="rect11032"
     style="opacity:0.6;fill:#ffffff;fill-opacity:1;stroke-width:0.264583;stroke-linejoin:round"
     d="M 6.205306,2.3817667 C 5.9990548,2.3862467 5.9203249,2.4310477 5.8859457,2.7264485 L 5.8709597,2.845821 c -0.034465,0.2189638 -0.0414,0.3178962 -0.2485636,0.3715535 -0.013891,0.0031 -0.027527,0.00653 -0.041341,0.00982 -0.0031,6.347e-4 -0.00618,0.00144 -0.0093,0.00207 -0.052134,0.012586 -0.1039357,0.026679 -0.1550294,0.041858 l 5.167e-4,-5.167e-4 c -0.00857,0.00292 -0.016165,0.00522 -0.024288,0.00775 -0.00775,0.00238 -0.015528,0.00429 -0.023254,0.00672 -0.029091,0.00816 -0.049617,0.00754 -0.073381,0.010335 A 3.132402,3.1345187 0 0 0 4.2591734,3.882455 C 4.2369224,3.918814 4.2024374,3.956918 4.1522032,4.0007942 l 0.00517,-0.00103 c -0.040883,0.038751 -0.080622,0.078489 -0.1193726,0.1193723 l 0.00103,-0.00517 C 3.866265,4.3117629 3.7801267,4.2668837 3.5574055,4.1811399 L 3.4468182,4.1346312 C 3.3493142,4.0925093 3.276426,4.0713339 3.2184081,4.0695188 3.0907681,4.0655189 3.0339951,4.1554272 2.9398723,4.3227336 2.8366586,4.4969998 2.7879572,4.5922815 2.872693,4.7087564 2.8909296,4.6720624 2.9127371,4.6331319 2.9398723,4.5873169 3.0339951,4.42001 3.0907678,4.3301022 3.2184081,4.3341022 c 0.058018,0.00181 0.1309061,0.02299 0.2284101,0.065112 l 0.1105873,0.046509 C 3.780127,4.5314672 3.8662645,4.5763466 4.03903,4.3785442 L 4.038,4.3837142 c 0.038747,-0.040886 0.078486,-0.080624 0.1193691,-0.119375 l -0.00517,0.00103 c 0.050234,-0.043876 0.084718,-0.08198 0.1069702,-0.1183391 A 3.132402,3.1345187 0 0 1 5.2963175,3.5599893 c 0.023763,-0.0028 0.04429,-0.00218 0.073381,-0.010335 0.00773,-0.00243 0.015504,-0.00434 0.023254,-0.00672 0.00812,-0.00253 0.015718,-0.00483 0.024288,-0.00775 l -5.167e-4,5.167e-4 c 0.051094,-0.015179 0.1028954,-0.029272 0.1550294,-0.041858 0.00312,-6.3e-4 0.0062,-0.00143 0.0093,-0.00207 0.013814,-0.00329 0.02745,-0.00672 0.041341,-0.00982 C 5.8295581,3.428296 5.8364929,3.3293632 5.8709578,3.1103995 l 0.014986,-0.1193726 c 0.034379,-0.2954008 0.1131091,-0.3402018 0.3193603,-0.3446818 0.029465,-6.403e-4 0.061733,-3.889e-4 0.096635,0 0.2792021,-0.0031 0.3766757,0.00707 0.4159954,0.3446818 l 0.014986,0.1193726 c 0.034467,0.2189686 0.04138,0.3178765 0.2485656,0.3715584 0.013882,0.0031 0.02753,0.00653 0.041341,0.00982 0.00308,6.3e-4 0.00567,0.00143 0.00879,0.00207 h 5.167e-4 c 0.052136,0.012586 0.1039339,0.026672 0.1550292,0.041858 l -5.168e-4,-5.167e-4 c 0.00857,0.00292 0.016188,0.00521 0.024288,0.00775 0.00775,0.00238 0.015524,0.00429 0.023255,0.00672 0.00513,0.00142 0.00797,7.97e-4 0.012919,0.00207 A 3.132402,3.1345187 0 0 1 8.471318,4.28656 C 8.59202,4.435177 8.80053,4.5035985 9.046476,4.4457233 l 0.110588,-0.046509 c 0.0975,-0.042122 0.170392,-0.063282 0.22841,-0.065112 0.127643,-0.00399 0.183888,0.085908 0.278019,0.2532147 0.02713,0.045818 0.04894,0.084744 0.06718,0.1214395 C 9.815403,4.5922863 9.766703,4.4970112 9.663493,4.3227336 9.569363,4.1554272 9.513117,4.0655263 9.385474,4.0695188 c -0.05802,0.00183 -0.130906,0.02299 -0.22841,0.065112 L 9.046476,4.1811398 C 8.80053,4.2390149 8.59202,4.1705936 8.471318,4.0219767 A 3.132402,3.1345187 0 0 0 7.2471029,3.2871377 c -0.00495,-0.00127 -0.00779,-6.421e-4 -0.012919,-0.00207 -0.00773,-0.00243 -0.015503,-0.00434 -0.023255,-0.00672 -0.0081,-0.00254 -0.015715,-0.00483 -0.024288,-0.00775 l 5.168e-4,5.167e-4 C 7.1360625,3.2559352 7.0842651,3.2418464 7.0321289,3.2292601 h -5.167e-4 c -0.00312,-6.35e-4 -0.0057,-0.00144 -0.00879,-0.00207 -0.013811,-0.00329 -0.027459,-0.00672 -0.041341,-0.00982 C 6.7743157,3.1637174 6.7673871,3.0647849 6.7329225,2.845821 L 6.7179362,2.7264485 C 6.6786165,2.3888403 6.5811429,2.3786711 6.3019408,2.3817667 c -0.034902,-3.889e-4 -0.06717,-6.403e-4 -0.096635,0 z M 3.3119426,5.3686645 c -0.00104,0.00344 -0.00189,0.00678 -0.0031,0.010335 l 5.167e-4,-5.167e-4 c -0.015214,0.051252 -0.02924,0.1027268 -0.041858,0.1550291 -5.289e-4,0.00335 -0.00128,0.00604 -0.00207,0.0093 -0.00328,0.013814 -0.00672,0.027458 -0.00982,0.041341 -0.010742,0.04145 -0.024818,0.069931 -0.039791,0.097152 a 3.132402,3.1345187 0 0 0 -0.060462,0.5829101 3.132402,3.1345187 0 0 0 0.0062,0.1581301 3.132402,3.1345187 0 0 1 0.05426,-0.4764569 c 0.014973,-0.027221 0.029049,-0.055702 0.039791,-0.097151 0.0031,-0.013883 0.00654,-0.027527 0.00982,-0.041341 7.901e-4,-0.00326 0.00154,-0.00595 0.00207,-0.0093 0.012618,-0.052303 0.026644,-0.1037773 0.041858,-0.1550292 l -5.167e-4,5.167e-4 c 0.00291,-0.00856 0.0051,-0.016695 0.00775,-0.024805 0.00235,-0.00776 0.00485,-0.015524 0.00723,-0.023254 0.029129,-0.1038363 0.022913,-0.1696887 -0.011886,-0.2268596 z m 5.9799964,0 c -0.0348,0.057171 -0.04102,0.1230178 -0.01189,0.2268596 0.0024,0.00773 0.0049,0.015494 0.0072,0.023254 0.0025,0.00811 0.0048,0.016245 0.0078,0.024805 l -5.1e-4,-5.168e-4 c 0.0089,0.030087 0.01673,0.06051 0.0248,0.09095 l -0.0026,0.00155 a 3.132402,3.1345187 0 0 1 0.09767,0.6991821 3.132402,3.1345187 0 0 0 0.0062,-0.1705322 3.132402,3.1345187 0 0 0 -0.103872,-0.7932325 l 0.0026,-0.00155 c -0.0081,-0.03044 -0.01589,-0.060863 -0.02481,-0.09095 l 5.17e-4,5.167e-4 c -0.0012,-0.00355 -0.002,-0.0069 -0.0031,-0.010335 z m -5.9799964,2.054655 c -0.035021,0.057266 -0.099,0.1057756 -0.1855185,0.1756997 l -0.095601,0.072864 C 2.8087596,7.8370193 2.7942117,7.9272896 2.8732097,8.0847778 2.9052055,8.0401812 2.954939,7.992897 3.0308228,7.9364664 l 0.095601,-0.072864 C 3.29946,7.7237543 3.382227,7.6687027 3.3238279,7.4605264 c -0.0024,-0.00773 -0.00485,-0.015505 -0.00723,-0.023255 -0.00147,-0.00467 -0.00318,-0.00933 -0.00465,-0.013953 z m 5.9799964,0 c -0.0015,0.00463 -0.0031,0.00928 -0.0046,0.013953 -0.0024,0.00775 -0.0048,0.015524 -0.0072,0.023255 -0.0584,0.2081662 0.02435,0.2632199 0.197404,0.403076 l 0.0956,0.072864 c 0.07623,0.056691 0.126104,0.1040529 0.158124,0.148827 0.0791,-0.1577253 0.06413,-0.2481268 -0.15813,-0.4134114 l -0.0956,-0.072864 C 9.390932,7.5290911 9.326959,7.4805856 9.291939,7.4233195 Z" />
  <path
     d="m 3.3734376,7.9375 c -1.0022417,0 -2.9765625,0.425297 -2.9765625,0.425297 v 0.2645829 c 0,0 1.9743208,-0.4252966 2.9765625,-0.4252966 2.0044833,0 3.9481247,0.8505946 5.9526084,0.8505946 1.002241,0 2.976562,-0.425298 2.976562,-0.425298 V 8.362797 c 0,0 -1.974321,0.4252969 -2.976562,0.4252969 C 7.3215623,8.7880939 5.3779209,7.9375 3.3734376,7.9375 Z"
     style="opacity:0.3;fill:#ffffff;stroke-width:0.0700042"
     id="path9369" />
  <path
     d="m 3.3734376,6.8791665 c -1.0022417,0 -2.9765625,0.4252971 -2.9765625,0.4252971 v 0.2645833 c 0,0 1.9743208,-0.425297 2.9765625,-0.425297 2.0044833,0 3.9481247,0.8505941 5.9526084,0.8505941 1.002241,0 2.976562,-0.4252971 2.976562,-0.4252971 V 7.3044636 c 0,0 -1.974321,0.4252971 -2.976562,0.4252971 -2.0044837,0 -3.9481251,-0.8505942 -5.9526084,-0.8505942 z"
     style="opacity:0.3;fill:#ffffff;stroke-width:0.0700042"
     id="path9211" />
  <path
     d="m 3.3734376,5.8208333 c -1.0022417,0 -2.9765625,0.4252971 -2.9765625,0.4252971 v 0.2645833 c 0,0 1.9743208,-0.425297 2.9765625,-0.425297 2.0044833,0 3.9481247,0.8505941 5.9526084,0.8505941 1.002241,0 2.976562,-0.4252971 2.976562,-0.4252971 V 6.2461304 c 0,0 -1.974321,0.4252971 -2.976562,0.4252971 -2.0044837,0 -3.9481251,-0.8505942 -5.9526084,-0.8505942 z"
     style="opacity:0.3;fill:#ffffff;stroke-width:0.0700042"
     id="path9053" />
  <path
     id="path7104"
     style="opacity:0.2;fill:#81e9c9;fill-opacity:1;stroke-width:0.264583"
     d="M 12.75 22 C 8.9634478 22 1.5076582 23.606193 1.5019531 23.607422 L 1.5019531 24 L 1.5019531 36.751953 C 1.4492514 45.59398 3.3247793 46.5 13.335938 46.5 L 34.666016 46.5 C 44.674673 46.5 46.5 45.594078 46.5 36.751953 L 46.5 31.273438 C 46.499965 31.265254 46.498029 31.256205 46.498047 31.248047 L 46.498047 23.607422 C 46.498047 23.607422 39.036044 25.214844 35.248047 25.214844 C 27.672092 25.214844 20.325999 22 12.75 22 z "
     transform="scale(0.26458333)" />
  <path
     id="rect7734"
     style="opacity:0.2;fill:#81e9c9;fill-opacity:1;stroke-width:0.999999;stroke-linejoin:round"
     d="M 12.75 26 C 8.9634478 26 1.5076582 27.606193 1.5019531 27.607422 L 1.5019531 36.751953 C 1.4492514 45.593984 3.3247793 46.5 13.335938 46.5 L 34.666016 46.5 C 44.674671 46.5 46.5 45.594082 46.5 36.751953 L 46.5 31.322266 C 46.499968 31.314085 46.498026 31.30503 46.498047 31.296875 L 46.498047 27.607422 C 46.498047 27.607422 39.036044 29.214844 35.248047 29.214844 C 27.672092 29.214844 20.325999 26 12.75 26 z "
     transform="scale(0.26458333)" />
  <path
     id="path8344"
     style="opacity:0.2;fill:#81e9c9;fill-opacity:1;stroke-width:0.264583"
     d="M 12.751953 30 C 8.9693543 30 1.5270928 31.60285 1.5058594 31.607422 C 1.505973 31.629801 1.5021579 31.656922 1.5019531 31.679688 L 1.5019531 36.751953 C 1.4492514 45.593984 3.3247793 46.5 13.335938 46.5 L 34.666016 46.5 C 44.674671 46.5 46.5 45.594083 46.5 36.751953 L 46.5 31.632812 C 46.499986 31.624658 46.498006 31.615551 46.498047 31.607422 C 46.487464 31.609722 39.035299 33.214844 35.25 33.214844 C 27.674002 33.214844 20.327952 30 12.751953 30 z "
     transform="scale(0.26458333)" />
  <path
     d="m 3.5283045,0.52916666 c -1.3204001,0 -2.0824054,0.0730996 -2.4830534,0.38447265 C 0.84492715,1.0693257 0.71780015,1.2849868 0.63649105,1.6174724 0.55518455,1.9499578 0.52608035,2.3953556 0.52951995,2.975529 v 3.3744709 3.374471 c -0.00347,0.5801731 0.025665,1.0255711 0.1069711,1.3580571 0.081309,0.332483 0.2084361,0.548142 0.40876005,0.703834 0.4006506,0.311369 1.1626533,0.384471 2.4830534,0.384471 h 5.643584 c 1.3200665,0 2.0783065,-0.0732 2.4773675,-0.384471 0.199527,-0.155639 0.326212,-0.371637 0.408244,-0.70435 0.08203,-0.332714 0.11317,-0.77774 0.11317,-1.3580579 V 6.3499999 2.9760458 c 0,-0.5803182 -0.03114,-1.0253432 -0.11317,-1.3580567 C 11.975468,1.2852757 11.848786,1.0692765 11.649256,0.91363931 11.250195,0.60236523 10.491958,0.52916666 9.1718885,0.52916666 Z m 0.635619,0.29042148 c 1.838159,2.196e-4 3.680521,8.9958e-4 5.51646,0.0144701 0.5669905,0.0219419 1.1811815,-0.0390792 1.6996375,0.24649646 0.342924,0.1839457 0.409739,0.5953985 0.468188,0.9430952 0.04644,0.5828474 0.02421,1.1753393 0.03669,1.7647498 0.006,2.2435428 0.02037,4.4897126 -0.02119,6.7329223 -0.04273,0.392438 -0.100899,0.874657 -0.475938,1.096056 -0.424789,0.219262 -0.919562,0.239826 -1.3885465,0.252182 -2.513472,0.01794 -5.033512,0.0223 -7.5468263,-0.0047 C 2.0348404,11.834706 1.5870675,11.801366 1.2266309,11.568281 0.90132035,11.30492 0.86658065,10.846659 0.82872135,10.458788 0.79506635,8.0779127 0.80660225,5.695102 0.81477785,3.3129712 0.84115675,2.6829256 0.74985435,2.0165125 1.0013303,1.4185133 1.1790377,1.0190665 1.6537214,0.92640043 2.0436431,0.87436059 2.7478793,0.79059827 3.4570045,0.83546102 4.1639265,0.81958338 Z"
     style="color:#000000;display:inline;overflow:visible;visibility:visible;fill:url(#linearGradient867);fill-opacity:1;fill-rule:nonzero;stroke:none;stroke-width:0.264583;marker:none;enable-background:accumulate;opacity:1"
     id="path1316" />
  <path
     d="m 3.5283045,0.26458333 c -1.3284091,0 -2.1391691,0.0468905 -2.64536475,0.44028307 -0.2530951,0.19669653 -0.4132606,0.4796285 -0.5038539,0.8500774 -0.090596,0.370449 -0.1177132,0.8325826 -0.1142074,1.4221354 v 3.3729207 3.3739542 c -0.00347,0.5889439 0.02368,1.0509189 0.1142074,1.4211029 0.090593,0.370448 0.2507588,0.65338 0.5038539,0.850077 0.50619825,0.393393 1.31695565,0.440282 2.64536475,0.440282 h 5.643687 c 1.3280755,0 2.1357325,-0.0468 2.6401945,-0.440282 0.252233,-0.196744 0.411025,-0.479338 0.502306,-0.849561 0.09128,-0.370224 0.120923,-0.832198 0.120923,-1.4216189 V 6.3499999 2.9760458 c 0,-0.5894213 -0.02964,-1.0513952 -0.120923,-1.4216187 C 12.223211,1.1842036 12.064419,0.90160897 11.812186,0.7048664 11.307724,0.31138177 10.50007,0.26458333 9.1719915,0.26458333 Z m 0,0.26458333 h 5.643687 c 1.3200905,0 2.0783445,0.0731988 2.4774125,0.38447265 0.19953,0.15563689 0.326218,0.37163669 0.408252,0.70434969 0.08203,0.3327133 0.113173,0.777739 0.113173,1.3580568 v 3.3739541 3.3739542 c 0,0.5803179 -0.03114,1.0253439 -0.113173,1.3580579 -0.08203,0.332711 -0.208722,0.548711 -0.408252,0.70435 -0.399068,0.311271 -1.157322,0.384471 -2.4774125,0.384471 h -5.643687 c -1.3204239,0 -2.0824398,-0.0731 -2.4830983,-0.384471 C 0.84487945,11.630673 0.71774985,11.415011 0.63644075,11.082528 0.55512895,10.750042 0.52600895,10.304644 0.52946705,9.7244709 V 6.3499999 2.975529 C 0.52602745,2.395356 0.55513165,1.9499575 0.63644075,1.6174723 0.71774985,1.284987 0.84487945,1.0693257 1.0452062,0.91363931 1.445862,0.6022668 2.2078806,0.52916666 3.5283045,0.52916666 Z"
     style="color:#000000;display:inline;opacity:0.4;fill:#000000;stroke-width:0.264586;-inkscape-stroke:none;enable-background:new"
     id="path1058" />
</svg>
