<?xml version="1.0" encoding="UTF-8" standalone="no"?>
<!-- Created with Inkscape (http://www.inkscape.org/) -->

<svg
   width="48"
   height="48"
   viewBox="0 0 12.7 12.7"
   version="1.1"
   id="svg5"
   inkscape:version="1.1.2 (0a00cf5339, 2022-02-04)"
   sodipodi:docname="lastfm.svg"
   xmlns:inkscape="http://www.inkscape.org/namespaces/inkscape"
   xmlns:sodipodi="http://sodipodi.sourceforge.net/DTD/sodipodi-0.dtd"
   xmlns:xlink="http://www.w3.org/1999/xlink"
   xmlns="http://www.w3.org/2000/svg"
   xmlns:svg="http://www.w3.org/2000/svg">
  <sodipodi:namedview
     id="namedview7"
     pagecolor="#ffffff"
     bordercolor="#666666"
     borderopacity="1.0"
     inkscape:pageshadow="2"
     inkscape:pageopacity="0.0"
     inkscape:pagecheckerboard="0"
     inkscape:document-units="px"
     showgrid="false"
     units="px"
     height="48px"
     showguides="true"
     inkscape:zoom="8.1875"
     inkscape:cx="16.549618"
     inkscape:cy="31.145038"
     inkscape:window-width="1846"
     inkscape:window-height="1011"
     inkscape:window-x="74"
     inkscape:window-y="32"
     inkscape:window-maximized="1"
     inkscape:current-layer="svg5" />
  <defs
     id="defs2">
    <linearGradient
       inkscape:collect="always"
       id="linearGradient1871">
      <stop
         style="stop-color:#ffffff;stop-opacity:1;"
         offset="0"
         id="stop1867" />
      <stop
         style="stop-color:#ffffff;stop-opacity:0.1"
         offset="0.12"
         id="stop2515" />
      <stop
         style="stop-color:#ffffff;stop-opacity:0.102"
         offset="0.89999998"
         id="stop2581" />
      <stop
         style="stop-color:#ffffff;stop-opacity:0.502"
         offset="1"
         id="stop1869" />
    </linearGradient>
    <linearGradient
       inkscape:collect="always"
       xlink:href="#linearGradient1871"
       id="linearGradient1198"
       x1="6.3499999"
       y1="0.52916658"
       x2="6.3499994"
       y2="12.170834"
       gradientUnits="userSpaceOnUse" />
  </defs>
  <circle
     style="opacity:0.1;fill:#000000;fill-opacity:1;stroke-width:0.529167;stroke-linecap:round;stroke-linejoin:round"
     id="path3625"
     cx="6.3499999"
     cy="6.6145835"
     r="6.0854168" />
  <circle
     style="fill:#c71818;fill-opacity:1;stroke-width:0.529167;stroke-linecap:round;stroke-linejoin:round"
     id="path986-6"
     cx="6.3499999"
     cy="6.3499999"
     r="5.953125" />
  <path
     d="M 4.6533331,8.4464514 C 4.5156942,8.4279305 4.2708514,8.348238 4.1075505,8.2696303 3.0435023,7.7597783 2.6083421,6.4756495 3.1324287,5.3941387 3.7311543,4.1573968 5.3648242,3.8421193 6.34791,4.7736643 c 0.2842683,0.268949 0.4105275,0.4984486 0.838544,1.5160096 0.4468018,1.0641542 0.5293783,1.2314766 0.6741582,1.3733462 0.1551095,0.1508919 0.298847,0.2017184 0.5738549,0.2017184 0.451829,0 0.7744883,-0.2792677 0.7744883,-0.6689461 0,-0.3298296 -0.1159351,-0.4354512 -0.7072577,-0.6453716 C 7.6012148,6.2256183 7.3095382,5.9320631 7.3084797,5.3425185 c 0,-0.3144838 0.079671,-0.5241396 0.2821518,-0.7414683 C 7.8812498,4.2908262 8.3825822,4.1883795 8.8262091,4.34242 9.015463,4.409677 9.4114414,4.7601441 9.4114414,4.8604741 c 0,0.04871 -0.2294868,0.197485 -0.3567911,0.2327011 -0.067231,0.017462 -0.1251981,-0.00529 -0.2027528,-0.079693 -0.157226,-0.1508919 -0.2636308,-0.197485 -0.451829,-0.197485 -0.324776,0 -0.5262032,0.1953683 -0.5262032,0.5109104 0,0.3144837 0.1281085,0.4208991 0.7681382,0.636905 0.8819358,0.297815 1.1423908,0.5667639 1.1476828,1.1891168 0.0053,0.5376334 -0.236897,0.9254331 -0.7186344,1.1549327 -0.2191624,0.103505 -0.2935288,0.1167606 -0.6514042,0.1167606 -0.5108575,0 -0.7403306,-0.095038 -1.0267421,-0.4177241 C 7.2004768,7.7898349 7.0051323,7.3824295 6.3796838,5.8952595 6.1202889,5.278992 5.7873083,4.9769437 5.2320007,4.8580929 4.9506427,4.798006 4.5589007,4.8538595 4.3034718,4.9883472 4.0543984,5.1185752 3.7762102,5.4124214 3.6449239,5.6811058 3.5364024,5.8992283 3.5260784,5.9603735 3.5260784,6.3397066 c 0,0.3618706 0.014557,0.4476485 0.1053466,0.6461654 0.1376388,0.3031067 0.4084108,0.5831681 0.7061994,0.73406 0.2151936,0.1085321 0.2821517,0.1220523 0.6254486,0.1220523 0.3298031,0 0.4144962,-0.01561 0.611161,-0.1095904 C 5.7986905,7.622777 6.1004373,7.3538281 6.2235215,7.1524008 l 0.064056,-0.1045634 0.1262564,0.2885282 c 0.070408,0.1593585 0.1270503,0.309192 0.1270503,0.3361795 0,0.079693 -0.2853267,0.3401748 -0.5468408,0.5024438 -0.3970338,0.2451364 -0.853096,0.3369733 -1.3401146,0.270801"
     style="fill:#ffffff;stroke-width:0.264583"
     id="path874" />
  <path
     id="path854"
     style="opacity:0.4;fill:#000000;stroke-width:0.529167;stroke-linecap:round;stroke-linejoin:round"
     d="M 6.3499999,0.26458333 A 6.0854166,6.0854166 0 0 0 0.26458333,6.3499999 6.0854166,6.0854166 0 0 0 6.3499999,12.435417 6.0854166,6.0854166 0 0 0 12.435417,6.3499999 6.0854166,6.0854166 0 0 0 6.3499999,0.26458333 Z m 0,0.26458333 A 5.8208333,5.8208333 0 0 1 12.170833,6.3499999 5.8208333,5.8208333 0 0 1 6.3499999,12.170833 5.8208333,5.8208333 0 0 1 0.52916666,6.3499999 5.8208333,5.8208333 0 0 1 6.3499999,0.52916666 Z" />
  <path
     id="path1110"
     style="fill:url(#linearGradient1198);fill-opacity:1;stroke-width:0.529167;stroke-linecap:round;stroke-linejoin:round;opacity:0.4"
     d="M 6.3499999,0.52916666 A 5.8208333,5.8208333 0 0 0 0.52916666,6.3499999 5.8208333,5.8208333 0 0 0 6.3499999,12.170833 5.8208333,5.8208333 0 0 0 12.170833,6.3499999 5.8208333,5.8208333 0 0 0 6.3499999,0.52916666 Z m 0,0.26458333 A 5.5562499,5.5562499 0 0 1 11.90625,6.3499999 5.5562499,5.5562499 0 0 1 6.3499999,11.90625 5.5562499,5.5562499 0 0 1 0.79374999,6.3499999 5.5562499,5.5562499 0 0 1 6.3499999,0.79374999 Z" />
</svg>
