<?xml version="1.0" encoding="UTF-8" standalone="no"?>
<!-- Created with Inkscape (http://www.inkscape.org/) -->

<svg
   width="48"
   height="48"
   viewBox="0 0 12.7 12.7"
   version="1.1"
   id="svg5"
   inkscape:version="1.1.2 (0a00cf5339, 2022-02-04)"
   sodipodi:docname="org.xfce.terminal-settings.svg"
   xmlns:inkscape="http://www.inkscape.org/namespaces/inkscape"
   xmlns:sodipodi="http://sodipodi.sourceforge.net/DTD/sodipodi-0.dtd"
   xmlns:xlink="http://www.w3.org/1999/xlink"
   xmlns="http://www.w3.org/2000/svg"
   xmlns:svg="http://www.w3.org/2000/svg">
  <sodipodi:namedview
     id="namedview7"
     pagecolor="#ffffff"
     bordercolor="#666666"
     borderopacity="1.0"
     inkscape:pageshadow="2"
     inkscape:pageopacity="0.0"
     inkscape:pagecheckerboard="0"
     inkscape:document-units="px"
     showgrid="false"
     units="px"
     inkscape:zoom="14.232789"
     inkscape:cx="18.197417"
     inkscape:cy="20.797048"
     inkscape:window-width="1920"
     inkscape:window-height="1017"
     inkscape:window-x="0"
     inkscape:window-y="0"
     inkscape:window-maximized="1"
     inkscape:current-layer="svg5"
     showguides="false"
     inkscape:lockguides="true" />
  <defs
     id="defs2">
    <linearGradient
       inkscape:collect="always"
       id="linearGradient1871">
      <stop
         style="stop-color:#ffffff;stop-opacity:1;"
         offset="0"
         id="stop1867" />
      <stop
         style="stop-color:#ffffff;stop-opacity:0.1"
         offset="0.12"
         id="stop2515" />
      <stop
         style="stop-color:#ffffff;stop-opacity:0.102"
         offset="0.89999998"
         id="stop2581" />
      <stop
         style="stop-color:#ffffff;stop-opacity:0.502"
         offset="1"
         id="stop1869" />
    </linearGradient>
    <linearGradient
       inkscape:collect="always"
       xlink:href="#linearGradient1871"
       id="linearGradient2252"
       x1="12.5"
       y1="7"
       x2="12.5"
       y2="43"
       gradientUnits="userSpaceOnUse"
       gradientTransform="matrix(0.26458333,0,0,0.26458333,0,-0.26458333)" />
  </defs>
  <path
     d="m 3.3072916,1.5875 c -3.04237179,0 -3.04270832,0.5324204 -3.04270832,3.571875 v 2.9104167 c 0,3.0394563 3.3633e-4,3.5718763 3.04270832,3.5718763 h 6.0854167 c 3.0423717,0 3.0427077,-0.53242 3.0427077,-3.5718763 V 5.159375 c 0,-3.0394547 -3.36e-4,-3.571875 -3.0427077,-3.571875 z"
     style="display:inline;opacity:0.1;fill:#000000;fill-opacity:1;stroke:none;stroke-width:0.0992187;stroke-linecap:round;stroke-linejoin:round;stroke-miterlimit:4;stroke-dasharray:none;stroke-dashoffset:0;stroke-opacity:1;enable-background:new"
     id="path3132"
     sodipodi:nodetypes="sssssssss" />
  <path
     id="rect877"
     style="display:inline;fill:#4d4d4d;fill-opacity:1;stroke:none;stroke-width:0.0992187;stroke-linecap:round;stroke-linejoin:round;stroke-miterlimit:4;stroke-dasharray:none;stroke-dashoffset:0;stroke-opacity:1;enable-background:new"
     d="m 3.3072916,1.4552084 c -2.91041661,0 -2.9104166,0.4001287 -2.9104166,3.4395832 v 2.9104166 c 0,3.0394558 -10e-9,3.4395838 2.9104166,3.4395838 h 6.0854167 c 2.9104167,0 2.9104167,-0.400129 2.9104167,-3.4395838 V 4.8947916 c 0,-3.0394546 0,-3.4395832 -2.9104167,-3.4395832 z"
     sodipodi:nodetypes="cssccsscc" />
  <path
     id="rect1707"
     style="opacity:0.2;fill:#000000;fill-opacity:1;stroke-width:0.264583;stroke-linejoin:round"
     d="M 2.2437908,3.4395834 2.1166667,3.8225059 3.4096111,4.3413371 2.1166667,4.8596519 2.2437908,5.2430908 3.9072551,4.5387411 v -0.394808 z m 1.7249593,1.8520833 v 0.396875 H 5.953125 v -0.396875 z" />
  <path
     id="rect1391"
     style="fill:#f2f2f2;fill-opacity:1;stroke-width:0.368972;stroke-linejoin:round"
     d="M 2.2437908,3.175 2.1166667,3.5579225 3.4096111,4.0767537 2.1166667,4.5950685 2.2437908,4.9785074 3.9072551,4.2741578 V 3.8793497 Z M 3.96875,5.0270833 v 0.396875 h 1.984375 v -0.396875 z" />
  <path
     id="path1984"
     style="display:inline;opacity:0.4;fill:url(#linearGradient2252);fill-opacity:1;stroke:none;stroke-width:0.0262516;stroke-linecap:round;stroke-linejoin:round;stroke-miterlimit:4;stroke-dasharray:none;stroke-dashoffset:0;stroke-opacity:1;enable-background:new"
     d="m 3.3072916,1.5875 c -2.77812481,0 -2.77812494,0.5291667 -2.77812494,3.3072916 v 2.9104166 c 0,2.7781258 1.3e-7,3.3072918 2.77812494,3.3072918 h 6.0854166 c 2.7781248,0 2.7781248,-0.529166 2.7781248,-3.3072918 V 4.8947916 c 0,-2.7781245 0,-3.3072916 -2.7781248,-3.3072916 z m 0.138493,0.2645833 h 5.8084306 c 2.6518468,0 2.6520348,0.5012344 2.6520348,3.1331421 v 2.729549 c 0,2.6319086 -1.88e-4,3.1331426 -2.6520348,3.1331426 H 3.4457846 c -2.6518466,0 -2.65203461,-0.501234 -2.65203461,-3.1331426 v -2.729549 c 0,-2.631908 1.8801e-4,-3.1331421 2.65203461,-3.1331421 z"
     sodipodi:nodetypes="ssssssssssssssssss" />
  <path
     id="path3421"
     style="display:inline;opacity:0.4;fill:#000000;fill-opacity:1;stroke:none;stroke-width:0.0262516;stroke-linecap:round;stroke-linejoin:round;stroke-miterlimit:4;stroke-dasharray:none;stroke-dashoffset:0;stroke-opacity:1;enable-background:new"
     d="m 3.3072916,1.3229167 c -3.04237164,0 -3.04270827,0.5324204 -3.04270827,3.5718749 v 2.9104166 c 0,3.0394558 3.3634e-4,3.5718758 3.04270827,3.5718758 h 6.0854166 c 3.0423718,0 3.0427088,-0.532421 3.0427088,-3.5718758 V 4.8947916 c 0,-3.0394546 -3.37e-4,-3.5718749 -3.0427088,-3.5718749 z m 0,0.2645833 h 6.0854166 c 2.7781248,0 2.7781248,0.529167 2.7781248,3.3072916 v 2.9104166 c 0,2.7781258 0,3.3072928 -2.7781248,3.3072928 H 3.3072916 c -2.77812489,0 -2.77812494,-0.529167 -2.77812494,-3.3072928 V 4.8947916 c 0,-2.778125 3e-8,-3.3072916 2.77812494,-3.3072916 z"
     sodipodi:nodetypes="ssssssssssssssssss" />
  <circle
     style="fill:#8f8f8f;fill-opacity:1;stroke-width:0.264583"
     id="path980"
     cx="9.5249996"
     cy="8.9958334"
     r="3.0427084" />
  <path
     id="path62"
     d="M 9.1746338,6.8791667 V 7.2657066 C 8.9927451,7.3017547 8.8207771,7.3658902 8.663554,7.4532919 L 8.4459961,7.1938762 7.9152793,7.6450114 8.1333536,7.9049439 C 8.0222664,8.0456088 7.9321893,8.2031859 7.8677368,8.3736493 L 7.525122,8.3131877 7.4083334,8.9999675 7.755599,9.0614625 C 7.762289,9.242593 7.796795,9.4170204 7.854301,9.580294 L 7.5390748,9.7621956 h -5.291e-4 l 0.3524332,0.6009974 0.319877,-0.184485 c 0.1162378,0.128294 0.250857,0.239431 0.3999756,0.329179 l -0.1297077,0.35605 0.655774,0.234095 0.129708,-0.356568 c 0.08227,0.0118 0.166179,0.01808 0.251664,0.01809 0.0887,-3e-6 0.175755,-0.0064 0.2609656,-0.01912 l 0.131258,0.361735 0.6531896,-0.242363 -0.129708,-0.357084 c 0.147233,-0.08975 0.280522,-0.20013 0.395325,-0.327628 L 11.158995,10.365263 11.503677,9.7601316 11.1838,9.5751293 c 0.05628,-0.1614834 0.08993,-0.3337615 0.09664,-0.5126302 l 0.361231,-0.063561 -0.125057,-0.6852295 -0.347266,0.061495 c -0.0636,-0.168783 -0.15266,-0.3248998 -0.261999,-0.464571 L 11.13317,7.641911 10.596768,7.1974935 10.379211,7.4569093 C 10.22299,7.3692076 10.052102,7.3041172 9.8712314,7.2672568 V 6.8791667 Z m 0.343648,0.7813477 c 0.7385392,0 1.3348012,0.5967796 1.3348012,1.335319 0,0.7385393 -0.596262,1.3348036 -1.3348012,1.3348036 -0.7385392,0 -1.3353188,-0.5962643 -1.3353188,-1.3348036 0,-0.7385394 0.5967796,-1.335319 1.3353188,-1.335319 z"
     style="fill:#ffffff;stroke-width:0.264583" />
  <path
     id="path1488"
     style="opacity:0.4;fill:#000000;fill-opacity:1;stroke-width:0.264583"
     d="m 9.525,5.8208333 a 3.175,3.175 0 0 0 -3.175,3.175 3.175,3.175 0 0 0 3.175,3.1750007 3.175,3.175 0 0 0 3.175,-3.1750007 3.175,3.175 0 0 0 -3.175,-3.175 z m 0,0.2645833 A 2.9104166,2.9104166 0 0 1 12.435416,8.9958333 2.9104166,2.9104166 0 0 1 9.525,11.90625 2.9104166,2.9104166 0 0 1 6.6145834,8.9958333 2.9104166,2.9104166 0 0 1 9.525,6.0854166 Z" />
</svg>
