<?xml version="1.0" encoding="UTF-8" standalone="no"?>
<!-- Created with Inkscape (http://www.inkscape.org/) -->

<svg
   width="48"
   height="48"
   viewBox="0 0 12.7 12.7"
   version="1.1"
   id="svg5"
   inkscape:version="1.1.2 (0a00cf5339, 2022-02-04)"
   sodipodi:docname="ubiquity-kde.svg"
   xmlns:inkscape="http://www.inkscape.org/namespaces/inkscape"
   xmlns:sodipodi="http://sodipodi.sourceforge.net/DTD/sodipodi-0.dtd"
   xmlns:xlink="http://www.w3.org/1999/xlink"
   xmlns="http://www.w3.org/2000/svg"
   xmlns:svg="http://www.w3.org/2000/svg">
  <sodipodi:namedview
     id="namedview7"
     pagecolor="#ffffff"
     bordercolor="#666666"
     borderopacity="1.0"
     inkscape:pageshadow="2"
     inkscape:pageopacity="0.0"
     inkscape:pagecheckerboard="0"
     inkscape:document-units="px"
     showgrid="false"
     units="px"
     inkscape:zoom="5.7820713"
     inkscape:cx="-6.8314619"
     inkscape:cy="21.791499"
     inkscape:window-width="1920"
     inkscape:window-height="995"
     inkscape:window-x="0"
     inkscape:window-y="0"
     inkscape:window-maximized="1"
     inkscape:current-layer="svg5"
     showguides="false"
     inkscape:lockguides="true" />
  <defs
     id="defs2">
    <linearGradient
       inkscape:collect="always"
       id="linearGradient1871">
      <stop
         style="stop-color:#ffffff;stop-opacity:1;"
         offset="0"
         id="stop1867" />
      <stop
         style="stop-color:#ffffff;stop-opacity:0.1"
         offset="0.12"
         id="stop2515" />
      <stop
         style="stop-color:#ffffff;stop-opacity:0.102"
         offset="0.89999998"
         id="stop2581" />
      <stop
         style="stop-color:#ffffff;stop-opacity:0.502"
         offset="1"
         id="stop1869" />
    </linearGradient>
    <linearGradient
       inkscape:collect="always"
       xlink:href="#linearGradient1871"
       id="linearGradient940"
       x1="4.1623774"
       y1="0.52916676"
       x2="4.1623774"
       y2="12.170834"
       gradientUnits="userSpaceOnUse" />
    <linearGradient
       inkscape:collect="always"
       id="linearGradient3598">
      <stop
         style="stop-color:#d9d9d9;stop-opacity:1"
         offset="0"
         id="stop3594" />
      <stop
         style="stop-color:#b3b3b3;stop-opacity:1"
         offset="1"
         id="stop3596" />
    </linearGradient>
    <linearGradient
       inkscape:collect="always"
       xlink:href="#linearGradient3598"
       id="linearGradient1280"
       x1="7.4083333"
       y1="12.303125"
       x2="4.0299401"
       y2="0.39687502"
       gradientUnits="userSpaceOnUse" />
    <linearGradient
       inkscape:collect="always"
       xlink:href="#linearGradient2221"
       id="linearGradient1241"
       x1="6.3499999"
       y1="2.3812499"
       x2="6.3499999"
       y2="9.7895832"
       gradientUnits="userSpaceOnUse"
       gradientTransform="translate(-2.2800008e-7,-0.26458333)" />
    <linearGradient
       inkscape:collect="always"
       id="linearGradient2221">
      <stop
         style="stop-color:#e6e6e6;stop-opacity:1;"
         offset="0"
         id="stop2217" />
      <stop
         style="stop-color:#f2f2f2;stop-opacity:1"
         offset="1"
         id="stop2219" />
    </linearGradient>
  </defs>
  <path
     d="m 4.0895111,0.52916673 c -0.5731113,0 -1.0243794,0.013253 -1.3956983,0.075865 -0.3713189,0.062611 -0.6751664,0.18005 -0.8977391,0.40309687 C 1.5735062,1.2311758 1.4560312,1.536256 1.3942827,1.9094069 1.3325342,2.2825583 1.3204798,2.7368505 1.3232897,3.3139242 v 3.3006283 3.3022067 c -0.00278,0.5761878 0.00931,1.0302488 0.070993,1.4029988 0.061749,0.373153 0.1792235,0.678233 0.401791,0.90128 0.2225727,0.223046 0.5264202,0.340487 0.8977391,0.403095 0.3713216,0.06261 0.822587,0.07587 1.3956983,0.07587 h 4.5213537 c 0.573114,0 1.024141,-0.01323 1.3946922,-0.07587 0.370549,-0.06264 0.673471,-0.180472 0.895218,-0.403601 0.221753,-0.223125 0.338529,-0.527989 0.400783,-0.900774 0.06225,-0.372779 0.07553,-0.826151 0.07553,-1.4029988 V 6.6145525 3.3124068 c 0,-0.5768475 -0.01328,-1.0302168 -0.07553,-1.4029999 C 11.239304,1.5366243 11.122525,1.2317621 10.900773,1.0086345 10.679025,0.78550693 10.376104,0.66766993 10.005555,0.60503203 9.6350058,0.54239373 9.1839758,0.52916673 8.6108648,0.52916673 Z"
     style="color:#000000;font-style:normal;font-variant:normal;font-weight:normal;font-stretch:normal;font-size:medium;line-height:normal;font-family:sans-serif;font-variant-ligatures:normal;font-variant-position:normal;font-variant-caps:normal;font-variant-numeric:normal;font-variant-alternates:normal;font-feature-settings:normal;text-indent:0;text-align:start;text-decoration:none;text-decoration-line:none;text-decoration-style:solid;text-decoration-color:#000000;letter-spacing:normal;word-spacing:normal;text-transform:none;writing-mode:lr-tb;direction:ltr;text-orientation:mixed;dominant-baseline:auto;baseline-shift:baseline;text-anchor:start;white-space:normal;shape-padding:0;clip-rule:nonzero;display:inline;overflow:visible;visibility:visible;opacity:0.1;isolation:auto;mix-blend-mode:normal;color-interpolation:sRGB;color-interpolation-filters:linearRGB;solid-color:#000000;solid-opacity:1;vector-effect:none;fill:#000000;fill-opacity:1;fill-rule:nonzero;stroke:none;stroke-width:0.529167;stroke-linecap:butt;stroke-linejoin:miter;stroke-miterlimit:4;stroke-dasharray:none;stroke-dashoffset:0;stroke-opacity:1;marker:none;color-rendering:auto;image-rendering:auto;shape-rendering:auto;text-rendering:auto;enable-background:accumulate"
     id="path1706" />
  <path
     d="m 4.0299401,0.39687503 c -2.1779282,0 -2.5859448,0.2398051 -2.5745016,2.57925877 v 3.3738537 3.3739167 c -0.011457,2.3394528 0.3965734,2.5792578 2.5745016,2.5792578 h 4.6405187 c 2.1773862,0 2.5744992,-0.239778 2.5744992,-2.5792578 V 6.3499875 2.9761338 c 0,-2.33948017 -0.397113,-2.57925877 -2.5745012,-2.57925877 z"
     style="color:#000000;display:inline;overflow:visible;visibility:visible;fill:url(#linearGradient1280);fill-opacity:1;fill-rule:nonzero;stroke:none;stroke-width:0.264583;marker:none;enable-background:accumulate"
     id="path1138" />
  <circle
     style="fill:#4d4d4d;fill-opacity:1;stroke-width:0.264583;stroke-linejoin:round"
     id="path1307"
     cx="6.3499999"
     cy="5.8208332"
     r="4.2333331" />
  <circle
     style="fill:url(#linearGradient1241);fill-opacity:1;stroke-width:0.264583;stroke-linejoin:round"
     id="path985"
     cx="6.3499999"
     cy="5.8208337"
     r="3.7041667" />
  <path
     d="M 3.9883821,3.7041666 C 3.4659562,4.2855501 3.1763433,5.0392107 3.175,5.8208332 c 0,1.7535041 1.4214959,3.1749998 3.1749999,3.1749998 1.753504,0 3.175,-1.4214957 3.175,-3.1749998 -0.0012,-0.4926949 -0.11712,-0.9783413 -0.338481,-1.4185106 l -0.470774,0.2356432 c 0.1839,0.3672097 0.279793,0.7721878 0.280088,1.1828727 0,1.4612533 -1.18458,2.6458335 -2.645833,2.6458335 -1.4612531,0 -2.6458332,-1.1845802 -2.6458332,-2.6458335 9.79e-4,-0.8335221 0.3946689,-1.6178538 1.0624608,-2.1166666 z"
     style="opacity:0.7;fill:#0077c4;stroke-width:0.264583;enable-background:new;fill-opacity:1"
     id="path988" />
  <circle
     style="opacity:0.05;fill:#000000;fill-opacity:1;stroke-width:0.264583;stroke-linejoin:round"
     id="path7273"
     cx="6.3499999"
     cy="5.8208332"
     r="1.8520833" />
  <circle
     style="fill:#ffffff;fill-opacity:1;stroke-width:0.264583;stroke-linejoin:round"
     id="path7417"
     cx="6.3499999"
     cy="5.8208332"
     r="1.190625" />
  <circle
     style="opacity:0.1;fill:#000000;fill-opacity:1;stroke-width:0.264583;stroke-linejoin:round"
     id="path7675"
     cx="6.3499999"
     cy="5.8208332"
     r="0.79374999" />
  <g
     id="g7804"
     transform="translate(0,0.52916667)">
    <path
       id="rect1361"
       style="opacity:0.4;fill:#000000;stroke-width:1.4111;stroke-linejoin:round"
       d="m 8.9104968,6.9752104 c 0,0 -5.6838967,2.5940966 -5.9686286,2.7584876 -0.2847358,0.164377 -0.3824659,0.528655 -0.2180747,0.813387 0.1643769,0.284736 0.5286553,0.382466 0.8133872,0.218075 0.285138,-0.164485 5.3733161,-3.7899496 5.3733161,-3.7899496 z" />
    <path
       id="rect1551"
       style="fill:#ffffff;fill-opacity:1;stroke-width:0.264583;stroke-linejoin:round"
       d="m 8.910567,6.7106271 c 0,0 -5.6838958,2.5940969 -5.9686276,2.7584878 C 2.6572032,9.6334921 2.5594734,9.9977702 2.7238647,10.282502 2.8882416,10.567238 3.25252,10.664968 3.5372518,10.500577 3.8223899,10.336092 8.910567,6.7106271 8.910567,6.7106271 Z" />
    <circle
       style="fill:#808080;fill-opacity:1;stroke-width:0.155187;stroke-linejoin:round"
       id="path1686"
       cx="3.2411458"
       cy="9.9880209"
       r="0.1984375" />
  </g>
  <circle
     style="fill:#888888;fill-opacity:1;stroke-width:0.264583;stroke-linejoin:round"
     id="path7828"
     cx="6.3499999"
     cy="5.8208332"
     r="0.26458332" />
  <path
     id="path8108"
     style="opacity:0.1;fill:#000000;fill-opacity:1;stroke-width:0.264583;stroke-linejoin:round"
     d="M 6.3499997,4.1671874 A 0.13229165,0.13229165 0 0 0 6.2177081,4.2994791 0.13229165,0.13229165 0 0 0 6.3499997,4.4317707 0.13229165,0.13229165 0 0 0 6.4822914,4.2994791 0.13229165,0.13229165 0 0 0 6.3499997,4.1671874 Z M 5.2622109,4.6203898 a 0.13229166,0.13229166 0 0 0 -0.078548,0.038241 0.13229166,0.13229166 0 0 0 0,0.1870686 0.13229166,0.13229166 0 0 0 0.1870686,0 0.13229166,0.13229166 0 0 0 0,-0.1870686 0.13229166,0.13229166 0 0 0 -0.1085206,-0.038241 z m 2.1518064,0 a 0.13229166,0.13229166 0 0 0 -0.079065,0.038241 0.13229166,0.13229166 0 0 0 0,0.1870686 0.13229166,0.13229166 0 0 0 0.1870689,0 0.13229166,0.13229166 0 0 0 0,-0.1870686 0.13229166,0.13229166 0 0 0 -0.1080039,-0.038241 z M 4.8482827,5.6885415 A 0.13229165,0.13229165 0 0 0 4.715991,5.8208332 0.13229165,0.13229165 0 0 0 4.8482827,5.9531249 0.13229165,0.13229165 0 0 0 4.9805743,5.8208332 0.13229165,0.13229165 0 0 0 4.8482827,5.6885415 Z m 3.0230712,0 A 0.13229165,0.13229165 0 0 0 7.7390622,5.8208332 0.13229165,0.13229165 0 0 0 7.8713539,5.9531249 0.13229165,0.13229165 0 0 0 8.0036455,5.8208332 0.13229165,0.13229165 0 0 0 7.8713539,5.6885415 Z M 5.2761634,6.7582437 a 0.13229166,0.13229166 0 0 0 -0.078548,0.037724 0.13229166,0.13229166 0 0 0 0,0.1870686 0.13229166,0.13229166 0 0 0 0.1870686,0 0.13229166,0.13229166 0 0 0 0,-0.1870686 0.13229166,0.13229166 0 0 0 -0.1085206,-0.037724 z m 2.1378539,0.013953 a 0.13229166,0.13229166 0 0 0 -0.079065,0.037724 0.13229166,0.13229166 0 0 0 0,0.1870686 0.13229166,0.13229166 0 0 0 0.1870689,0 0.13229166,0.13229166 0 0 0 0,-0.1870686 0.13229166,0.13229166 0 0 0 -0.1080039,-0.037724 z M 6.3499997,7.2098957 A 0.13229165,0.13229165 0 0 0 6.2177081,7.3421873 0.13229165,0.13229165 0 0 0 6.3499997,7.474479 0.13229165,0.13229165 0 0 0 6.4822914,7.3421873 0.13229165,0.13229165 0 0 0 6.3499997,7.2098957 Z" />
  <path
     d="m 4.1623773,0.52916673 c -2.3347309,0 -2.5859634,0.2397169 -2.5745201,2.57917067 v 3.2416625 3.2416623 c -0.011457,2.3394528 0.2397892,2.5791708 2.5745201,2.5791708 h 4.3759595 c 2.3347312,0 2.5745202,-0.239691 2.5745202,-2.5791708 V 6.3499999 3.1083374 c 0,-2.33948017 -0.239789,-2.57917067 -2.5745202,-2.57917067 z m 3.0654465,0.286804 c 0.419592,-5.291e-4 0.839258,-0.00122 1.258837,0.00259 0.592942,0.029805 1.221984,-0.042185 1.7926562,0.1793171 0.426148,0.21587107 0.50234,0.74687077 0.52348,1.17667237 0.03932,2.3680137 0.01545,4.74777 0.01757,7.120495 -0.02974,0.639654 0.06181,1.2967968 -0.134874,1.9187448 -0.09316,0.388739 -0.495885,0.558596 -0.8526622,0.618051 -1.88326,0.05654 -3.7716014,0.04578 -5.6575355,0.04393 C 3.5467898,11.846988 2.8613655,11.953808 2.2911699,11.620486 1.8827432,11.324037 1.9260529,10.740361 1.8979144,10.306873 1.8615289,7.8657752 1.8913263,5.3991107 1.8989728,2.9481494 1.9273149,2.4744677 1.8552768,1.9938976 1.9894073,1.5301481 2.0854775,1.1047923 2.5225666,0.89993493 2.9216508,0.86403893 4.3529964,0.80396473 5.7920069,0.83090223 7.2278478,0.81597973 Z"
     style="color:#000000;display:inline;overflow:visible;visibility:visible;opacity:0.7;fill:url(#linearGradient940);fill-opacity:1;fill-rule:nonzero;stroke:none;stroke-width:0.529167;stroke-miterlimit:4;stroke-dasharray:none;stroke-opacity:1;marker:none;enable-background:accumulate"
     id="path1566" />
  <path
     d="m 4.0300433,0.26458333 c -1.0938483,0 -1.7765421,0.048871 -2.1994098,0.4485513 C 1.6192023,0.91297493 1.4905963,1.1925988 1.4166956,1.5601114 1.3427946,1.927624 1.3202786,2.3878434 1.3231576,2.9765625 v 3.3734374 3.3739543 c -0.00286,0.5884118 0.019659,1.0485558 0.093538,1.4159348 0.073901,0.367512 0.2025041,0.647137 0.4139379,0.846977 0.4228703,0.399679 1.1055615,0.44855 2.1994098,0.44855 H 8.670713 c 1.093579,0 1.773378,-0.04881 2.194761,-0.44855 0.210691,-0.199869 0.338437,-0.479132 0.412904,-0.846461 0.07447,-0.367329 0.09871,-0.827839 0.09871,-1.4164508 V 6.3499999 2.9760457 c 0,-0.5886122 -0.02423,-1.0486051 -0.09871,-1.4159343 C 11.203911,1.1927824 11.076165,0.91300353 10.865474,0.71313463 10.444088,0.31339713 9.7637758,0.26458333 8.6701968,0.26458333 Z m 0,0.2645834 h 4.6401535 c 1.083866,0 1.6913152,0.071183 2.0128532,0.3762044 0.160771,0.15251027 0.268385,0.37132597 0.336425,0.70693357 0.06804,0.3356075 0.09302,0.7826142 0.09302,1.363741 v 3.3739542 3.3739543 c 0,0.5811268 -0.02498,1.0281328 -0.09302,1.3637408 -0.06804,0.335608 -0.175654,0.554424 -0.336425,0.706935 -0.321538,0.305019 -0.9284712,0.376203 -2.0123372,0.376203 H 4.0300433 c -1.0841355,0 -1.6947197,-0.07112 -2.0175034,-0.376203 C 1.8511467,11.642087 1.7435644,11.423115 1.6761195,11.087695 1.6086719,10.752275 1.5849044,10.305477 1.5877487,9.7244712 V 6.3499999 2.9760457 2.9755166 C 1.5849176,2.3945101 1.6086772,1.9477138 1.6761195,1.6122922 1.7435644,1.2768707 1.8511493,1.057901 2.0125399,0.90535863 2.3353236,0.60028643 2.9459078,0.52916673 4.0300433,0.52916673 Z"
     style="color:#000000;display:inline;opacity:0.4;fill:#000000;stroke-width:0.264586;-inkscape-stroke:none;enable-background:new"
     id="path1446" />
  <path
     d="m 6.3499999,3.175 c 0,1.6074496 -2.9104166,4.0018229 -2.9104166,4.0018229 0,0 -2.91041663,-2.3944527 -2.91041663,-4.0018229 0,-1.6073438 1.30307293,-2.9104168 2.91041663,-2.9104168 1.6074231,0 2.9104166,1.3029936 2.9104166,2.9104168 z"
     style="opacity:0.2;fill:#000000;stroke-width:0.264583;enable-background:new"
     id="path1216"
     sodipodi:nodetypes="scsss" />
  <path
     d="m 6.3499999,2.9104167 c 0,1.6074496 -2.9104166,4.0018227 -2.9104166,4.0018227 0,0 -2.91041663,-2.3944527 -2.91041663,-4.0018227 C 0.52916667,1.3030727 1.8322396,0 3.4395833,0 5.0470064,0 6.3499999,1.3029933 6.3499999,2.9104167 Z"
     style="fill:#0077c4;fill-opacity:1;stroke-width:0.0700042;enable-background:new"
     id="path890" />
  <path
     d="M 2.9104327,1.0583333 H 3.9687872 V 2.3817789 H 4.4545455 C 4.2755829,2.7389664 3.9530442,3.3416605 3.4396099,4.1062269 2.9260698,3.3415282 2.6036421,2.7384901 2.4246745,2.3812762 h 0.4857582 z m -0.793766,3.4395828 v 0.264583 h 2.6458864 v -0.264583 z"
     style="color:#000000;fill:#ffffff;stroke-width:0.264583;enable-background:accumulate"
     id="path1722" />
</svg>
