<?xml version="1.0" encoding="UTF-8" standalone="no"?>
<!-- Created with Inkscape (http://www.inkscape.org/) -->

<svg
   width="256"
   height="256"
   viewBox="0 0 67.733332 67.733335"
   version="1.1"
   id="svg1196"
   inkscape:version="1.1.2 (0a00cf5339, 2022-02-04, custom)"
   sodipodi:docname="accessories-character-map.svg"
   xmlns:inkscape="http://www.inkscape.org/namespaces/inkscape"
   xmlns:sodipodi="http://sodipodi.sourceforge.net/DTD/sodipodi-0.dtd"
   xmlns:xlink="http://www.w3.org/1999/xlink"
   xmlns="http://www.w3.org/2000/svg"
   xmlns:svg="http://www.w3.org/2000/svg">
  <sodipodi:namedview
     id="namedview1198"
     pagecolor="#ffffff"
     bordercolor="#666666"
     borderopacity="1.0"
     inkscape:pageshadow="2"
     inkscape:pageopacity="0.0"
     inkscape:pagecheckerboard="0"
     inkscape:document-units="px"
     showgrid="false"
     units="px"
     inkscape:zoom="1.5488281"
     inkscape:cx="48.100883"
     inkscape:cy="141.72005"
     inkscape:window-width="1920"
     inkscape:window-height="1011"
     inkscape:window-x="0"
     inkscape:window-y="32"
     inkscape:window-maximized="1"
     inkscape:current-layer="svg1196" />
  <defs
     id="defs1193">
    <linearGradient
       inkscape:collect="always"
       id="linearGradient2097">
      <stop
         style="stop-color:#000000;stop-opacity:1;"
         offset="0"
         id="stop2093" />
      <stop
         style="stop-color:#000000;stop-opacity:0;"
         offset="1"
         id="stop2095" />
    </linearGradient>
    <linearGradient
       inkscape:collect="always"
       xlink:href="#linearGradient2097"
       id="linearGradient2099"
       x1="33.866665"
       y1="33.866666"
       x2="40.216665"
       y2="33.866666"
       gradientUnits="userSpaceOnUse" />
    <filter
       inkscape:collect="always"
       style="color-interpolation-filters:sRGB"
       id="filter5772"
       x="-3.3767384e-05"
       width="1.0000675"
       y="-0.00018451604"
       height="1.000369">
      <feGaussianBlur
         inkscape:collect="always"
         stdDeviation="0.0031516985"
         id="feGaussianBlur5774" />
    </filter>
    <filter
       inkscape:collect="always"
       style="color-interpolation-filters:sRGB"
       id="filter2212"
       x="-0.012003075"
       y="-0.011996927"
       width="1.0240061"
       height="1.0239939">
      <feGaussianBlur
         inkscape:collect="always"
         stdDeviation="0.30170229"
         id="feGaussianBlur2214" />
    </filter>
  </defs>
  <path
     d="m 64.029167,14.237652 c 0,-9.551143 -0.976355,-10.578835 -10.50127,-10.532025 H 33.866667 14.205438 C 4.6805197,3.658817 3.7041667,4.686509 3.7041667,14.237652 v 39.260811 c 0,9.551143 0.97969,10.788291 10.5012713,10.532025 h 19.661229 19.66123 c 9.525029,0 10.50127,-0.980882 10.50127,-10.532025 z"
     style="color:#000000;display:inline;overflow:visible;visibility:visible;opacity:0.1;fill:#000000;fill-opacity:1;fill-rule:nonzero;stroke:none;stroke-width:0.269952;marker:none;enable-background:accumulate;filter:url(#filter2212)"
     id="path1004"
     sodipodi:nodetypes="scccssscsss" />
  <path
     d="M 33.866666,4.2333333 V 63.499998 h 19.335215 c 9.338921,0 10.29808,-0.959276 10.29808,-10.317199 V 33.866665 14.550532 c 0,-9.3579224 -0.959159,-10.3171987 -10.29808,-10.3171987 z"
     style="color:#000000;display:inline;overflow:visible;visibility:visible;opacity:0.988475;fill:#3584e4;fill-opacity:1;fill-rule:nonzero;stroke:none;stroke-width:0.264583;marker:none;enable-background:accumulate"
     id="path968"
     sodipodi:nodetypes="ccsscssc" />
  <path
     d="m 51.841492,23.812505 c -0.293159,0 -0.529167,0.236009 -0.529167,0.529167 v 1.058333 c 0,0.293159 0.236008,0.529167 0.529167,0.529167 h 1.058333 c 0.293158,0 0.529167,-0.236008 0.529167,-0.529167 v -1.058333 c 0,-0.293158 -0.236009,-0.529167 -0.529167,-0.529167 z m -2.116667,2.116667 c -0.293158,0 -0.529167,0.236008 -0.529167,0.529167 v 1.058333 c 0,0.293158 0.236009,0.529167 0.529167,0.529167 h 1.058333 c 0.293159,0 0.529167,-0.236009 0.529167,-0.529167 v -1.058333 c 0,-0.293159 -0.236008,-0.529167 -0.529167,-0.529167 z m 4.233333,0 c -0.293158,0 -0.529166,0.236008 -0.529166,0.529167 v 1.058333 c 0,0.293158 0.236008,0.529167 0.529166,0.529167 h 1.058333 c 0.293159,0 0.529167,-0.236009 0.529167,-0.529167 v -1.058333 c 0,-0.293159 -0.236008,-0.529167 -0.529167,-0.529167 z m 5.773809,2.862874 -2.022618,0.624252 c 0,0 0.322469,1.054531 0.481627,2.245858 0.07958,0.595661 0.11259,1.218072 0.06149,1.702739 -0.0511,0.484664 -0.198554,0.783016 -0.280085,0.864544 -0.109593,0.109596 -0.45193,0.271275 -0.986505,0.327631 -0.534574,0.05636 -1.213207,0.01992 -1.861386,-0.06666 -0.643868,-0.08602 -1.247896,-0.216239 -1.695502,-0.325043 v -4.002862 h -2.116663 v 3.997172 c -0.08444,0.02109 -0.07379,0.02143 -0.166915,0.04341 -0.519242,0.12259 -1.171194,0.238358 -1.440222,0.245981 -0.446289,0.01265 -1.367124,-0.103878 -2.1115,-0.235643 -0.286583,-0.05073 -0.298333,-0.05893 -0.514696,-0.102836 v -2.88975 h -2.116667 v 4.600236 1.667597 c -0.0038,0.03077 -0.02627,0.224298 -0.08785,0.482142 -0.02985,0.124992 -0.08651,0.246081 -0.128159,0.337963 -1.004419,0.397251 -1.944946,0.741402 -2.683554,0.864031 -0.804511,0.13357 -1.271432,0.05023 -1.664499,-0.270269 -0.166344,-0.185716 -0.346576,-0.60081 -0.411861,-1.220078 -0.06805,-0.645486 -0.02363,-1.44894 0.07855,-2.213819 0.20437,-1.52976 0.617019,-2.877344 0.617019,-2.877344 l -2.022618,-0.624252 c 0,0 -0.460293,1.483643 -0.692462,3.221508 -0.116086,0.868934 -0.180917,1.808321 -0.08527,2.715599 0.09565,0.907277 0.33964,1.830503 1.040765,2.531625 l 0.0279,0.02842 0.03049,0.02582 c 0.983613,0.845791 2.266675,0.963343 3.428215,0.770496 1.161536,-0.192844 2.317657,-0.653413 3.477823,-1.120344 l 0.200504,-0.08062 0.152445,-0.152963 c 0.531884,-0.531879 0.59377,-1.026679 0.693499,-1.444356 0.09973,-0.417676 0.13901,-0.772562 0.13901,-0.772562 l 0.0067,-0.05941 v -1.361157 c 0.07718,0.01429 0.06477,0.0146 0.145727,0.02894 0.800354,0.141674 1.736522,0.289944 2.540413,0.267168 0.626629,-0.01775 1.292503,-0.166655 1.867069,-0.302307 0.40844,-0.09643 0.566206,-0.143801 0.734325,-0.190685 0.357804,0.103669 1.252897,0.352078 2.477884,0.515731 0.752231,0.100494 1.567315,0.157853 2.363679,0.0739 0.796367,-0.08396 1.622083,-0.296582 2.260843,-0.935342 0.610701,-0.610698 0.809623,-1.392949 0.88832,-2.139405 0.07869,-0.746455 0.02527,-1.505833 -0.06822,-2.20555 -0.186957,-1.399432 -0.557069,-2.589506 -0.557069,-2.589506 z"
     style="display:inline;fill:#faf8f6;fill-opacity:1;stroke-width:0.264583;stroke-linecap:round;stroke-linejoin:round;enable-background:new"
     id="path1741" />
  <rect
     style="fill:url(#linearGradient2099);stroke-width:0.264583;opacity:0.05;fill-opacity:1"
     id="rect1993"
     width="6.3499999"
     height="59.266666"
     x="33.866665"
     y="4.2333331" />
  <path
     d="M 33.866666,4.2333333 V 63.499998 H 14.531412 c -9.3389198,0 -10.2980788,-0.959276 -10.2980788,-10.317199 V 33.866665 14.550532 c 0,-9.3579227 0.959159,-10.3171987 10.2980788,-10.3171987 z"
     style="color:#000000;display:inline;overflow:visible;visibility:visible;fill:#f6f5f4;fill-opacity:1;fill-rule:nonzero;stroke:none;stroke-width:0.264583;marker:none;enable-background:accumulate"
     id="path1088"
     sodipodi:nodetypes="ccsscssc" />
  <path
     id="path20291"
     style="display:inline;fill:#5d5d5d;fill-opacity:1;stroke:#5d5d5d;stroke-width:0.0619125;stroke-linecap:round;stroke-linejoin:round;stroke-miterlimit:4;stroke-dasharray:none;stroke-opacity:1;enable-background:new"
     d="m 16.65431,11.40804 a 1.3229166,1.3229166 0 0 0 -1.322917,1.322917 1.3229166,1.3229166 0 0 0 1.322917,1.322917 1.3229166,1.3229166 0 0 0 1.322917,-1.322917 1.3229166,1.3229166 0 0 0 -1.322917,-1.322917 z m 4.7625,0 a 1.3229166,1.3229166 0 0 0 -1.322917,1.322917 1.3229166,1.3229166 0 0 0 1.322917,1.322917 1.3229166,1.3229166 0 0 0 1.322917,-1.322917 1.3229166,1.3229166 0 0 0 -1.322917,-1.322917 z m -2.38125,4.233334 c -0.890344,0 -1.713664,0.167867 -2.469617,0.503845 -0.755952,0.31918 -1.410889,0.7812 -1.965254,1.385962 -0.537567,0.604762 -0.95749,1.335369 -1.259872,2.192113 -0.302381,0.839949 -0.453719,1.77251 -0.453719,2.797247 0,1.041535 0.151338,1.982102 0.453719,2.822051 0.302382,0.839946 0.722305,1.562547 1.259872,2.167308 0.554365,0.604763 1.209302,1.075303 1.965254,1.411284 0.755953,0.319181 1.579273,0.478523 2.469617,0.478523 0.890344,0 1.713664,-0.159342 2.469615,-0.478523 0.755955,-0.335981 1.402369,-0.806521 1.939936,-1.411284 0.554363,-0.604761 0.982811,-1.327362 1.285192,-2.167308 0.302379,-0.839949 0.453718,-1.780516 0.453718,-2.822051 0,-1.024737 -0.151339,-1.957298 -0.453718,-2.797247 C 24.427922,18.86655 23.999474,18.135943 23.445111,17.531181 22.907544,16.926419 22.26113,16.464399 21.505175,16.145219 20.749224,15.809241 19.925904,15.641374 19.03556,15.641374 Z m -0.149862,1.57303 c 0.45857,-0.0021 0.931323,0.0014 1.371493,0.146762 1.576401,0.485289 2.584215,2.034778 2.853055,3.601331 0.276866,1.584671 0.18356,3.298081 -0.554487,4.75113 -0.628131,1.234062 -1.935522,2.158794 -3.350184,2.103232 -0.94878,0.08465 -1.922039,-0.194027 -2.658235,-0.804085 -1.283545,-1.042972 -1.716248,-2.777628 -1.730644,-4.365625 -0.0065,-1.510964 0.283988,-3.170925 1.403532,-4.274159 0.668045,-0.751136 1.659774,-1.185218 2.66547,-1.158586 z m 0.149862,20.96203 c -0.808882,0 -1.617764,0.249369 -2.116667,0.748273 -0.997806,0.997807 -0.631068,2.971197 0,4.233333 l 1.763717,3.527949 -0.352433,0.352436 -3.52795,-1.763718 c -1.262136,-0.631068 -3.235527,-0.997807 -4.233334,0 -0.9978057,0.997807 -0.9978057,3.235526 0,4.233333 0.997807,0.997808 2.971198,0.631069 4.233334,0 l 3.52795,-1.763717 0.352433,0.352435 -1.763717,3.527949 c -0.631068,1.262136 -0.997806,3.235526 0,4.233333 0.997807,0.997807 3.235526,0.997807 4.233334,0 0.997807,-0.997807 0.631068,-2.971197 0,-4.233333 l -1.763717,-3.527949 0.352433,-0.352435 3.52795,1.763717 c 1.262137,0.631069 3.235526,0.997808 4.233334,0 0.997807,-0.997807 0.997807,-3.235526 0,-4.233333 -0.997808,-0.997807 -2.971197,-0.631068 -4.233334,0 l -3.52795,1.763718 -0.352433,-0.352436 1.763717,-3.527949 c 0.631068,-1.262136 0.997807,-3.235526 0,-4.233333 -0.498904,-0.498904 -1.307785,-0.748276 -2.116667,-0.748273 z" />
  <path
     id="path1522"
     style="color:#000000;display:inline;overflow:visible;visibility:visible;opacity:0.05;fill:#ffffff;fill-opacity:1;fill-rule:nonzero;stroke:none;stroke-width:0.99998;marker:none;enable-background:accumulate"
     d="m 128,128 v 111.99414 h 73.50586 C 236.87397,240.16713 240.5,236.36968 240.5,201.07422 V 128 Z"
     transform="scale(0.26458333)"
     sodipodi:nodetypes="cccscc" />
  <path
     d="m 14.531415,4.2333334 c -9.3389256,0 -10.3438501,0.9593871 -10.2980798,10.3171996 V 15.0797 C 4.1875649,5.7218872 5.1924894,4.7625001 14.531415,4.7625001 H 53.201919 C 62.540845,4.7625001 63.5,5.721776 63.5,15.0797 V 14.550533 C 63.5,5.1926094 62.540845,4.2333334 53.201919,4.2333334 Z"
     style="color:#000000;display:inline;overflow:visible;visibility:visible;opacity:0.3;fill:#ffffff;fill-opacity:1;fill-rule:nonzero;stroke:none;stroke-width:0.264583;marker:none;enable-background:accumulate"
     id="path2156" />
  <path
     d="m 78.927288,267.9997 c -35.29673,0 -39.094877,-3.62603 -38.921887,-38.99414 v -2 c -0.17299,35.36811 3.625157,38.99414 38.921887,38.99414 H 225.08353 c 35.29673,0 38.92188,-3.62561 38.92188,-38.99414 v 2 c 0,35.36853 -3.62515,38.99414 -38.92188,38.99414 z"
     style="color:#000000;display:inline;overflow:visible;visibility:visible;opacity:0.1;fill:#000000;fill-opacity:1;fill-rule:nonzero;stroke:none;stroke-width:1;marker:none;filter:url(#filter5772);enable-background:accumulate"
     id="path1998"
     transform="matrix(0.26458333,0,0,0.26458333,-6.3501155,-7.4083331)" />
</svg>
