<?xml version="1.0" encoding="UTF-8" standalone="no"?>
<!-- Created with Inkscape (http://www.inkscape.org/) -->

<svg
   width="48"
   height="48"
   viewBox="0 0 12.7 12.7"
   version="1.1"
   id="svg5"
   inkscape:version="1.1.2 (0a00cf5339, 2022-02-04)"
   sodipodi:docname="fcitx.svg"
   xmlns:inkscape="http://www.inkscape.org/namespaces/inkscape"
   xmlns:sodipodi="http://sodipodi.sourceforge.net/DTD/sodipodi-0.dtd"
   xmlns:xlink="http://www.w3.org/1999/xlink"
   xmlns="http://www.w3.org/2000/svg"
   xmlns:svg="http://www.w3.org/2000/svg">
  <sodipodi:namedview
     id="namedview7"
     pagecolor="#ffffff"
     bordercolor="#666666"
     borderopacity="1.0"
     inkscape:pageshadow="2"
     inkscape:pageopacity="0.0"
     inkscape:pagecheckerboard="0"
     inkscape:document-units="px"
     showgrid="false"
     units="px"
     inkscape:zoom="16.354167"
     inkscape:cx="23.969426"
     inkscape:cy="24"
     inkscape:window-width="1920"
     inkscape:window-height="1012"
     inkscape:window-x="0"
     inkscape:window-y="0"
     inkscape:window-maximized="1"
     inkscape:current-layer="svg5"
     showguides="false"
     inkscape:lockguides="true" />
  <defs
     id="defs2">
    <linearGradient
       inkscape:collect="always"
       id="linearGradient1567">
      <stop
         style="stop-color:#a7a7a7;stop-opacity:1;"
         offset="0"
         id="stop1563" />
      <stop
         style="stop-color:#d9d9d9;stop-opacity:1"
         offset="1"
         id="stop1565" />
    </linearGradient>
    <linearGradient
       inkscape:collect="always"
       id="linearGradient1871">
      <stop
         style="stop-color:#ffffff;stop-opacity:1;"
         offset="0"
         id="stop1867" />
      <stop
         style="stop-color:#ffffff;stop-opacity:0.1"
         offset="0.12"
         id="stop2515" />
      <stop
         style="stop-color:#ffffff;stop-opacity:0.102"
         offset="0.89999998"
         id="stop2581" />
      <stop
         style="stop-color:#ffffff;stop-opacity:0.502"
         offset="1"
         id="stop1869" />
    </linearGradient>
    <linearGradient
       inkscape:collect="always"
       xlink:href="#linearGradient1871"
       id="linearGradient2252"
       x1="12.5"
       y1="9"
       x2="12.5"
       y2="39"
       gradientUnits="userSpaceOnUse"
       gradientTransform="scale(0.26458333)" />
    <linearGradient
       inkscape:collect="always"
       xlink:href="#linearGradient1567"
       id="linearGradient1569"
       x1="3.3072915"
       y1="2.2489583"
       x2="3.3072915"
       y2="10.186459"
       gradientUnits="userSpaceOnUse" />
  </defs>
  <path
     d="m 3.3072916,2.38125 c -3.04237179,0 -3.04270832,0.5324204 -3.04270832,3.571875 v 1.3229167 c 0,3.0394563 3.3633e-4,3.5718763 3.04270832,3.5718763 h 6.0854167 c 3.0423717,0 3.0427077,-0.53242 3.0427077,-3.5718763 V 5.953125 c 0,-3.0394547 -3.36e-4,-3.571875 -3.0427077,-3.571875 z"
     style="display:inline;opacity:0.1;fill:#000000;fill-opacity:1;stroke:none;stroke-width:0.0992187;stroke-linecap:round;stroke-linejoin:round;stroke-miterlimit:4;stroke-dasharray:none;stroke-dashoffset:0;stroke-opacity:1;enable-background:new"
     id="path3132"
     sodipodi:nodetypes="sssssssss" />
  <path
     id="rect877"
     style="display:inline;fill:url(#linearGradient1569);fill-opacity:1;stroke:none;stroke-width:0.0992187;stroke-linecap:round;stroke-linejoin:round;stroke-miterlimit:4;stroke-dasharray:none;stroke-dashoffset:0;stroke-opacity:1;enable-background:new"
     d="m 3.3072916,2.2489584 c -2.91041661,0 -2.9104166,0.4001287 -2.9104166,3.4395832 v 1.3229166 c 0,3.0394558 -10e-9,3.4395838 2.9104166,3.4395838 h 6.0854167 c 2.9104167,0 2.9104167,-0.400129 2.9104167,-3.4395838 V 5.6885416 c 0,-3.0394546 0,-3.4395832 -2.9104167,-3.4395832 z"
     sodipodi:nodetypes="cssccsscc" />
  <path
     d="M 2.1166667,4.2333334 V 5.2916667 H 3.175 V 4.2333334 Z m 1.8520833,0 V 5.2916667 H 5.0270834 V 4.2333334 Z m 1.8520835,0 V 5.2916667 H 6.8791669 V 4.2333334 Z m 1.8520834,0 V 5.2916667 H 8.7312502 V 4.2333334 Z m 1.8520834,0 V 5.2916667 H 10.583335 V 4.2333334 Z M 2.9104167,6.0854167 V 7.14375 H 3.96875 V 6.0854167 Z m 1.8520833,0 V 7.14375 H 5.8208335 V 6.0854167 Z m 1.8520835,0 V 7.14375 H 7.6729169 V 6.0854167 Z m 1.8520834,0 V 7.14375 H 9.5250003 V 6.0854167 Z M 2.1166667,7.9375 V 8.9958334 H 3.175 V 7.9375 Z m 1.8520833,0 V 8.9958334 H 8.7312502 V 7.9375 Z m 5.5562503,0 V 8.9958334 H 10.583335 V 7.9375 Z"
     style="opacity:0.25;fill:#000000;stroke-width:0.264583;enable-background:new"
     id="path1121" />
  <path
     d="M 2.1166667,3.7041667 C 1.9705474,3.7041812 1.8520979,3.8226307 1.8520833,3.96875 v 1.0583334 c 1.46e-5,0.1461193 0.1184641,0.2645687 0.2645834,0.2645833 H 3.175 C 3.3211193,5.2916521 3.4395688,5.1732027 3.4395833,5.0270834 V 3.96875 C 3.4395688,3.8226307 3.3211193,3.7041812 3.175,3.7041667 Z m 1.8520833,0 C 3.8226307,3.7041812 3.7041812,3.8226307 3.7041667,3.96875 v 1.0583334 c 1.45e-5,0.1461193 0.118464,0.2645687 0.2645833,0.2645833 H 5.0270834 C 5.1732027,5.2916521 5.2916522,5.1732027 5.2916667,5.0270834 V 3.96875 C 5.2916522,3.8226307 5.1732027,3.7041812 5.0270834,3.7041667 Z m 1.8520835,0 C 5.6747142,3.7041812 5.5562646,3.8226307 5.5562501,3.96875 v 1.0583334 c 1.45e-5,0.1461193 0.1184641,0.2645687 0.2645834,0.2645833 H 6.8791669 C 7.0252862,5.2916521 7.1437356,5.1732027 7.1437502,5.0270834 V 3.96875 C 7.1437356,3.8226307 7.0252862,3.7041812 6.8791669,3.7041667 Z m 1.8520834,0 C 7.5267976,3.7041812 7.4083481,3.8226307 7.4083335,3.96875 v 1.0583334 c 1.46e-5,0.1461193 0.1184641,0.2645687 0.2645834,0.2645833 H 8.7312502 C 8.8773696,5.2916521 8.995819,5.1732027 8.9958336,5.0270834 V 3.96875 C 8.995819,3.8226307 8.8773696,3.7041812 8.7312502,3.7041667 Z m 1.8520834,0 C 9.3788809,3.7041812 9.2604315,3.8226307 9.2604169,3.96875 v 1.0583334 c 1.46e-5,0.1461193 0.118464,0.2645687 0.2645834,0.2645833 h 1.0583347 c 0.146119,-1.46e-5 0.264568,-0.118464 0.264583,-0.2645833 V 3.96875 C 10.847903,3.8226307 10.729454,3.7041812 10.583335,3.7041667 Z M 2.38125,4.2333334 H 2.9104167 V 4.7625001 H 2.38125 Z m 1.8520834,0 H 4.7625 V 4.7625001 H 4.2333334 Z m 1.8520834,0 H 6.6145835 V 4.7625001 H 6.0854168 Z m 1.8520834,0 H 8.4666669 V 4.7625001 H 7.9375002 Z m 1.8520834,0 H 10.318751 V 4.7625001 H 9.7895836 Z M 2.9104167,5.55625 C 2.7642974,5.5562646 2.6458479,5.674714 2.6458334,5.8208334 v 1.0583333 c 1.45e-5,0.1461194 0.118464,0.2645688 0.2645833,0.2645834 H 3.96875 C 4.1148693,7.1437355 4.2333188,7.0252861 4.2333334,6.8791667 V 5.8208334 C 4.2333188,5.674714 4.1148693,5.5562646 3.96875,5.55625 Z m 1.8520833,0 C 4.6163807,5.5562646 4.4979313,5.674714 4.4979167,5.8208334 V 6.8791667 C 4.4979313,7.0252861 4.6163807,7.1437355 4.7625,7.1437501 H 5.8208335 C 5.9669528,7.1437355 6.0854023,7.0252861 6.0854168,6.8791667 V 5.8208334 C 6.0854023,5.674714 5.9669528,5.5562646 5.8208335,5.55625 Z m 1.8520835,0 C 6.4684642,5.5562646 6.3500147,5.674714 6.3500002,5.8208334 v 1.0583333 c 1.45e-5,0.1461194 0.118464,0.2645688 0.2645833,0.2645834 H 7.6729169 C 7.8190362,7.1437355 7.9374857,7.0252861 7.9375002,6.8791667 V 5.8208334 C 7.9374857,5.674714 7.8190362,5.5562646 7.6729169,5.55625 Z m 1.8520834,0 C 8.3205476,5.5562646 8.2020981,5.674714 8.2020836,5.8208334 v 1.0583333 c 1.45e-5,0.1461194 0.118464,0.2645688 0.2645833,0.2645834 H 9.5250003 C 9.6711196,7.1437355 9.789569,7.0252861 9.7895836,6.8791667 V 5.8208334 C 9.789569,5.674714 9.6711196,5.5562646 9.5250003,5.55625 Z M 3.175,6.0854167 H 3.7041667 V 6.6145834 H 3.175 Z m 1.8520834,0 H 5.5562501 V 6.6145834 H 5.0270834 Z m 1.8520835,0 H 7.4083335 V 6.6145834 H 6.8791669 Z m 1.8520833,0 H 9.2604169 V 6.6145834 H 8.7312502 Z M 2.1166667,7.4083334 C 1.9705474,7.408348 1.8520979,7.5267974 1.8520833,7.6729167 v 1.0583334 c 1.46e-5,0.1461193 0.1184641,0.2645688 0.2645834,0.2645833 H 3.175 C 3.3211193,8.9958189 3.4395688,8.8773694 3.4395833,8.7312501 V 7.6729167 C 3.4395688,7.5267974 3.3211193,7.408348 3.175,7.4083334 Z m 1.8520833,0 C 3.8226307,7.408348 3.7041812,7.5267974 3.7041667,7.6729167 v 1.0583334 c 1.45e-5,0.1461193 0.118464,0.2645688 0.2645833,0.2645833 H 8.7312502 C 8.8773696,8.9958189 8.995819,8.8773694 8.9958336,8.7312501 V 7.6729167 C 8.995819,7.5267974 8.8773696,7.408348 8.7312502,7.4083334 Z m 5.5562503,0 C 9.3788809,7.408348 9.2604315,7.5267974 9.2604169,7.6729167 v 1.0583334 c 1.46e-5,0.1461193 0.118464,0.2645688 0.2645834,0.2645833 h 1.0583347 c 0.146119,-1.45e-5 0.264568,-0.118464 0.264583,-0.2645833 V 7.6729167 C 10.847903,7.5267974 10.729454,7.408348 10.583335,7.4083334 Z M 2.38125,7.9375001 H 2.9104167 V 8.4666667 H 2.38125 Z m 1.8520834,0 H 8.4666669 V 8.4666667 H 4.2333334 Z m 5.5562502,0 H 10.318751 V 8.4666667 H 9.7895836 Z"
     style="color:#000000;opacity:0.05;fill:#000000;stroke-width:0.264583;stroke-linejoin:round;-inkscape-stroke:none"
     id="path1455" />
  <path
     id="path881"
     style="fill:#f7f7f7;stroke-width:0.999999;enable-background:new"
     d="M 8 15 L 8 19 L 12 19 L 12 15 L 8 15 z M 15 15 L 15 19 L 19 19 L 19 15 L 15 15 z M 22 15 L 22 19 L 26 19 L 26 15 L 22 15 z M 29 15 L 29 19 L 33 19 L 33 15 L 29 15 z M 36 15 L 36 19 L 40 19 L 40 15 L 36 15 z M 11 22 L 11 26 L 15 26 L 15 22 L 11 22 z M 18 22 L 18 26 L 22 26 L 22 22 L 18 22 z M 25 22 L 25 26 L 29 26 L 29 22 L 25 22 z M 32 22 L 32 26 L 36 26 L 36 22 L 32 22 z M 8 29 L 8 33 L 12 33 L 12 29 L 8 29 z M 15 29 L 15 33 L 33 33 L 33 29 L 15 29 z M 36 29 L 36 33 L 40 33 L 40 29 L 36 29 z "
     transform="scale(0.26458333)" />
  <path
     id="path1001"
     style="fill:#ffffff;stroke-width:0.999999;enable-background:new"
     d="M 8 15 L 8 16 L 12 16 L 12 15 L 8 15 z M 15 15 L 15 16 L 19 16 L 19 15 L 15 15 z M 22 15 L 22 16 L 26 16 L 26 15 L 22 15 z M 29 15 L 29 16 L 33 16 L 33 15 L 29 15 z M 36 15 L 36 16 L 40 16 L 40 15 L 36 15 z M 11 22 L 11 23 L 15 23 L 15 22 L 11 22 z M 18 22 L 18 23 L 22 23 L 22 22 L 18 22 z M 25 22 L 25 23 L 29 23 L 29 22 L 25 22 z M 32 22 L 32 23 L 36 23 L 36 22 L 32 22 z M 8 29 L 8 30 L 12 30 L 12 29 L 8 29 z M 15 29 L 15 30 L 33 30 L 33 29 L 15 29 z M 36 29 L 36 30 L 40 30 L 40 29 L 36 29 z "
     transform="scale(0.26458333)" />
  <path
     id="path1984"
     style="display:inline;opacity:1;fill:url(#linearGradient2252);fill-opacity:1;stroke:none;stroke-width:0.0262516;stroke-linecap:round;stroke-linejoin:round;stroke-miterlimit:4;stroke-dasharray:none;stroke-dashoffset:0;stroke-opacity:1;enable-background:new"
     d="m 3.3072916,2.38125 c -2.77812481,0 -2.77812494,0.5291667 -2.77812494,3.3072916 v 1.3229166 c 0,2.7781258 1.3e-7,3.3072918 2.77812494,3.3072918 h 6.0854166 c 2.7781248,0 2.7781248,-0.529166 2.7781248,-3.3072918 V 5.6885416 c 0,-2.7781245 0,-3.3072916 -2.7781248,-3.3072916 z m 0.138493,0.2645833 h 5.8084306 c 2.6518468,0 2.6520348,0.5012344 2.6520348,3.1331421 v 1.142049 c 0,2.6319086 -1.88e-4,3.1331426 -2.6520348,3.1331426 H 3.4457846 c -2.6518466,0 -2.65203461,-0.501234 -2.65203461,-3.1331426 v -1.142049 c 0,-2.631908 1.8801e-4,-3.1331421 2.65203461,-3.1331421 z"
     sodipodi:nodetypes="ssssssssssssssssss" />
  <path
     id="path3421"
     style="display:inline;opacity:0.4;fill:#000000;fill-opacity:1;stroke:none;stroke-width:0.0262516;stroke-linecap:round;stroke-linejoin:round;stroke-miterlimit:4;stroke-dasharray:none;stroke-dashoffset:0;stroke-opacity:1;enable-background:new"
     d="m 3.3072916,2.1166667 c -3.04237164,0 -3.04270827,0.5324204 -3.04270827,3.5718749 v 1.3229166 c 0,3.0394558 3.3634e-4,3.5718758 3.04270827,3.5718758 h 6.0854166 c 3.0423718,0 3.0427088,-0.532421 3.0427088,-3.5718758 V 5.6885416 c 0,-3.0394546 -3.37e-4,-3.5718749 -3.0427088,-3.5718749 z m 0,0.2645833 h 6.0854166 c 2.7781248,0 2.7781248,0.529167 2.7781248,3.3072916 v 1.3229166 c 0,2.7781258 0,3.3072928 -2.7781248,3.3072928 H 3.3072916 c -2.77812489,0 -2.77812494,-0.529167 -2.77812494,-3.3072928 V 5.6885416 c 0,-2.778125 3e-8,-3.3072916 2.77812494,-3.3072916 z"
     sodipodi:nodetypes="ssssssssssssssssss" />
</svg>
