<?xml version="1.0" encoding="UTF-8" standalone="no"?>
<!-- Created with Inkscape (http://www.inkscape.org/) -->

<svg
   width="48"
   height="48"
   viewBox="0 0 12.7 12.7"
   version="1.1"
   id="svg5"
   inkscape:version="1.1.2 (0a00cf5339, 2022-02-04)"
   sodipodi:docname="konqueror.svg"
   xmlns:inkscape="http://www.inkscape.org/namespaces/inkscape"
   xmlns:sodipodi="http://sodipodi.sourceforge.net/DTD/sodipodi-0.dtd"
   xmlns:xlink="http://www.w3.org/1999/xlink"
   xmlns="http://www.w3.org/2000/svg"
   xmlns:svg="http://www.w3.org/2000/svg">
  <sodipodi:namedview
     id="namedview7"
     pagecolor="#ffffff"
     bordercolor="#666666"
     borderopacity="1.0"
     inkscape:pageshadow="2"
     inkscape:pageopacity="0.0"
     inkscape:pagecheckerboard="0"
     inkscape:document-units="px"
     showgrid="false"
     units="px"
     height="48px"
     showguides="true"
     inkscape:zoom="16"
     inkscape:cx="23.96875"
     inkscape:cy="24"
     inkscape:window-width="1920"
     inkscape:window-height="995"
     inkscape:window-x="0"
     inkscape:window-y="0"
     inkscape:window-maximized="1"
     inkscape:current-layer="svg5" />
  <defs
     id="defs2">
    <linearGradient
       inkscape:collect="always"
       id="linearGradient1871">
      <stop
         style="stop-color:#ffffff;stop-opacity:1;"
         offset="0"
         id="stop1867" />
      <stop
         style="stop-color:#ffffff;stop-opacity:0.1"
         offset="0.12"
         id="stop2515" />
      <stop
         style="stop-color:#ffffff;stop-opacity:0.102"
         offset="0.89999998"
         id="stop2581" />
      <stop
         style="stop-color:#ffffff;stop-opacity:0.502"
         offset="1"
         id="stop1869" />
    </linearGradient>
    <linearGradient
       inkscape:collect="always"
       xlink:href="#linearGradient1871"
       id="linearGradient1198"
       x1="6.3499999"
       y1="0.52916658"
       x2="6.3499994"
       y2="12.170834"
       gradientUnits="userSpaceOnUse" />
    <linearGradient
       inkscape:collect="always"
       id="linearGradient3598">
      <stop
         style="stop-color:#325fd1;stop-opacity:1"
         offset="0"
         id="stop3594" />
      <stop
         style="stop-color:#6e98ff;stop-opacity:1"
         offset="1"
         id="stop3596" />
    </linearGradient>
    <linearGradient
       inkscape:collect="always"
       xlink:href="#linearGradient3598"
       id="linearGradient1142"
       x1="2.5135415"
       y1="1.5874999"
       x2="8.598959"
       y2="11.641666"
       gradientUnits="userSpaceOnUse" />
    <linearGradient
       inkscape:collect="always"
       xlink:href="#linearGradient4868"
       id="linearGradient1701"
       x1="6.3499999"
       y1="12.435416"
       x2="6.3499999"
       y2="0.26458332"
       gradientUnits="userSpaceOnUse"
       gradientTransform="translate(-8.99e-5,-5.57e-5)" />
    <linearGradient
       inkscape:collect="always"
       id="linearGradient4868">
      <stop
         style="stop-color:#aecaf8;stop-opacity:1"
         offset="0"
         id="stop4864" />
      <stop
         style="stop-color:#6da0f1;stop-opacity:1"
         offset="1"
         id="stop4866" />
    </linearGradient>
  </defs>
  <circle
     style="opacity:0.1;fill:#000000;fill-opacity:1;stroke-width:0.529167;stroke-linecap:round;stroke-linejoin:round"
     id="path3625"
     cx="6.3499999"
     cy="6.6145835"
     r="6.0854168" />
  <circle
     style="fill:url(#linearGradient1142);fill-opacity:1;stroke-width:0.529167;stroke-linecap:round;stroke-linejoin:round"
     id="path986-6"
     cx="6.3499999"
     cy="6.3499999"
     r="5.953125" />
  <g
     id="g867"
     style="opacity:0.4"
     transform="translate(8.9766667e-5,5.5566667e-5)">
    <path
       d="m 6.3500563,1.2476486 c -0.3669639,-0.00408 -0.4952788,0.00964 -0.5468937,0.4533569 l -0.019712,0.1567596 c -0.045294,0.2877783 -0.053911,0.4180332 -0.3261836,0.4885496 -0.018256,0.00408 -0.036452,0.00824 -0.054607,0.012563 -0.00429,8.731e-4 -0.00815,0.00193 -0.012568,0.0028 l 5.292e-4,1.064e-4 c -0.068739,0.016584 -0.1367367,0.035008 -0.204097,0.055021 l 5.292e-4,-7.144e-4 c -0.011245,0.00385 -0.021431,0.00685 -0.032081,0.010173 -0.010186,0.00312 -0.020452,0.00604 -0.030623,0.00924 C 4.8507472,2.5122558 4.7783943,2.4037185 4.5945856,2.1762808 L 4.4990763,2.0503542 C 4.3657951,1.8711236 4.2696614,1.7945598 4.1673893,1.7862506 4.06512,1.7779426 3.9566249,1.837875 3.7987454,1.931383 3.4789038,2.1113311 3.3745125,2.1871713 3.5516669,2.5972477 l 0.061457,0.1456513 c 0.112694,0.2927252 0.1713098,0.4059986 -0.088657,0.6330592 l 0.00696,-0.00146 C 3.4776947,3.4254335 3.425286,3.4776339 3.3743537,3.5313668 l 0.00159,-0.00685 C 3.1488811,3.784482 3.0356024,3.7258647 2.7428806,3.6131715 L 2.5972302,3.551817 C 2.4690819,3.4964561 2.3735593,3.4685584 2.2973117,3.4661703 2.129558,3.4609236 2.0550804,3.5790048 1.9313665,3.7988952 1.7443511,4.114655 1.6918763,4.23246 2.0503364,4.4990184 l 0.1259284,0.095613 c 0.2274359,0.1838124 0.3359759,0.2561625 0.2592229,0.5297644 -0.0032,0.010163 -0.00611,0.020325 -0.00923,0.030521 -0.00333,0.010655 -0.00643,0.020931 -0.010266,0.032182 l 7.938e-4,-6.085e-4 c -0.020002,0.067362 -0.038439,0.1353587 -0.055023,0.2040985 l -1.058e-4,-6.085e-4 c -7.938e-4,0.00441 -0.00185,0.00816 -0.0028,0.012457 -0.00431,0.018156 -0.00847,0.036466 -0.012568,0.05471 C 2.2757641,5.7294217 2.145507,5.7380386 1.8577303,5.7833318 L 1.7008668,5.8029528 C 1.2571526,5.8545688 1.2435319,5.982988 1.2476144,6.3499503 c -0.00407,0.3669644 0.00953,0.4952778 0.4532524,0.5468935 l 0.1568635,0.019725 c 0.2877767,0.045294 0.4180338,0.053912 0.4885505,0.3261844 0.00407,0.018246 0.00823,0.036452 0.012568,0.054606 7.938e-4,0.00429 0.00185,0.00816 0.0028,0.012562 l 1.058e-4,-6.35e-4 c 0.016589,0.06874 0.035007,0.136738 0.055023,0.2040988 L 2.4159838,7.51275 c 0.00384,0.01125 0.00685,0.021423 0.010186,0.032079 0.00312,0.010194 0.00603,0.020463 0.00923,0.030625 0.076753,0.2736025 -0.031787,0.3459544 -0.2592228,0.5297644 l -0.12592,0.095509 C 1.6917969,8.4672882 1.7442717,8.5852992 1.9312871,8.901059 2.1112356,9.2208995 2.1870757,9.3252935 2.5971508,9.148137 L 2.7428039,9.086679 C 3.0355283,8.9739868 3.1488017,8.9153687 3.3758619,9.175336 l -0.00132,-0.00696 c 0.05093,0.053732 0.1031293,0.1061416 0.1568636,0.157071 l -0.00685,-0.00156 c 0.259969,0.2270618 0.2013533,0.3403386 0.088657,0.6330596 l -0.061248,0.1456514 c -0.177157,0.410078 -0.072866,0.485918 0.2469727,0.665864 0.315759,0.187018 0.4335648,0.23949 0.7001245,-0.11897 l 0.095606,-0.125925 c 0.1838112,-0.227437 0.2561616,-0.336078 0.5297645,-0.259327 0.01016,0.0032 0.02032,0.0062 0.030522,0.0093 0.010663,0.0033 0.020929,0.0064 0.032181,0.01028 L 5.1866061,10.283 c 0.06736,0.02001 0.1353582,0.03844 0.2040995,0.05502 l -5.291e-4,1.06e-4 c 0.00439,8.73e-4 0.00818,0.0019 0.012462,0.0028 0.01815,0.0043 0.036465,0.0085 0.054711,0.01256 0.2722721,0.07052 0.2808896,0.20077 0.3261836,0.48855 l 0.019632,0.156863 c 0.051615,0.443714 0.1800357,0.457335 0.5469969,0.453253 0.3669639,0.0041 0.4952762,-0.0096 0.5468938,-0.453253 l 0.019711,-0.156863 c 0.045295,-0.287773 0.053912,-0.418029 0.3261842,-0.488545 0.018256,-0.0041 0.036452,-0.0082 0.054607,-0.01256 0.00429,-9e-4 0.00804,-0.0019 0.012462,-0.0028 l -5.292e-4,-1.07e-4 c 0.068741,-0.01658 0.1367393,-0.03501 0.2040996,-0.05502 l -5.292e-4,8.2e-4 c 0.011245,-0.0038 0.021431,-0.0069 0.032078,-0.01028 0.010186,-0.0031 0.020452,-0.0061 0.030625,-0.0093 0.2736026,-0.07675 0.3459536,0.03189 0.5297646,0.259327 l 0.09551,0.125929 c 0.26656,0.358459 0.384572,0.306088 0.700331,0.119072 0.319839,-0.179948 0.42413,-0.255891 0.246975,-0.665967 L 9.0869878,9.95695 C 8.9742968,9.6642248 8.9156788,9.5509522 9.1756478,9.3238904 l -0.007,0.00146 c 0.05373,-0.05093 0.10614,-0.1032351 0.15707,-0.1569675 l -0.0016,0.00696 c 0.22706,-0.2599682 0.340333,-0.2013582 0.633058,-0.088657 l 0.1456532,0.06125 c 0.410075,0.1771575 0.485915,0.072867 0.665863,-0.2469738 0.18707,-0.3157687 0.239542,-0.4335737 -0.118916,-0.7001324 l -0.125928,-0.095613 c -0.227436,-0.18381 -0.336079,-0.2561619 -0.259326,-0.5297643 0.0032,-0.01016 0.0062,-0.020325 0.0093,-0.030521 0.0033,-0.010655 0.0064,-0.020931 0.01027,-0.032183 l -7.94e-4,6.35e-4 c 0.02,-0.067361 0.03844,-0.1353582 0.05502,-0.2040988 l 1.05e-4,6.35e-4 c 7.94e-4,-0.00441 0.0019,-0.00827 0.0028,-0.012562 0.0043,-0.018153 0.0085,-0.036361 0.01257,-0.054606 0.07052,-0.2722729 0.200771,-0.2808912 0.48855,-0.3261844 l 0.156864,-0.019725 c 0.443714,-0.051616 0.457335,-0.1799296 0.453252,-0.5468935 0.0041,-0.3669638 -0.0095,-0.4952759 -0.453252,-0.5468932 l -0.156864,-0.019725 c -0.287779,-0.045293 -0.418034,-0.053911 -0.48855,-0.3261844 -0.0041,-0.018243 -0.0082,-0.036451 -0.01257,-0.054606 -7.94e-4,-0.00429 -0.0019,-0.00816 -0.0028,-0.012563 l -1.05e-4,6.35e-4 c -0.01659,-0.06874 -0.03501,-0.1367369 -0.05502,-0.2040985 l 5.29e-4,6.086e-4 c -0.0038,-0.01125 -0.0067,-0.021526 -0.01008,-0.032182 -0.0031,-0.010194 -0.006,-0.02036 -0.0092,-0.030521 -0.07675,-0.2736024 0.03179,-0.345953 0.259223,-0.5297644 l 0.125929,-0.095613 c 0.35846,-0.2665589 0.305985,-0.3844676 0.11897,-0.7002269 -0.123714,-0.2198899 -0.198195,-0.3378713 -0.365946,-0.3326212 -0.07625,0.00238 -0.17177,0.030182 -0.299918,0.085543 l -0.1456512,0.061458 c -0.292727,0.1126921 -0.406,0.1713108 -0.63306,-0.088657 l 0.0013,0.00685 C 9.2744848,3.4776574 9.2221828,3.425353 9.1684508,3.3744223 l 0.007,0.00156 c -0.26001,-0.2270593 -0.201389,-0.340333 -0.0887,-0.6330582 l 0.06125,-0.1456513 c 0.177157,-0.4100772 0.072867,-0.4859171 -0.246972,-0.6658647 -0.138145,-0.081819 -0.238385,-0.137958 -0.329819,-0.1451324 -0.01307,-0.00103 -0.02603,-0.00103 -0.03882,0 -0.102272,0.00831 -0.1982,0.084873 -0.331481,0.2641036 l -0.09561,0.1259266 c -0.183812,0.2274377 -0.256162,0.3359759 -0.5297649,0.2592242 -0.01016,-0.00319 -0.02032,-0.00612 -0.03052,-0.00924 -0.010663,-0.00333 -0.020929,-0.00643 -0.032184,-0.010276 l 5.292e-4,8.202e-4 c -0.06736,-0.020013 -0.1353582,-0.038438 -0.204097,-0.055022 l 5.292e-4,-1.061e-4 c -0.00442,-8.732e-4 -0.00828,-0.00193 -0.012568,-0.0028 -0.01815,-0.00432 -0.036362,-0.00849 -0.054607,-0.012562 C 6.9703375,2.2758258 6.96172,2.1455709 6.916426,1.8577926 L 6.8967146,1.7009293 C 6.8453325,1.2571868 6.7170201,1.2435663 6.3500563,1.2476486 Z m 0,2.1087789 c 2.117e-4,-1.1e-6 5.292e-4,-1.1e-6 7.937e-4,0 0.3219371,8.731e-4 0.6414638,0.053641 0.9465787,0.1563444 0.037158,0.012499 0.068921,0.032709 0.095821,0.057202 0.3126741,0.1151138 0.6038021,0.2819088 0.8612431,0.4934294 0.02862,0.011501 0.05569,0.027045 0.07921,0.047858 0.500695,0.4430091 0.833567,1.0374244 0.956336,1.6841788 -0.0044,0.00672 -0.0086,0.013502 -0.01278,0.020346 l 5.29e-4,0.00259 h -0.0024 c -0.129649,0.1469295 -0.202126,0.3355883 -0.204203,0.5315289 2.65e-4,0.2058654 0.07835,0.4040211 0.21853,0.5547833 -0.123036,0.6464615 -0.456131,1.240535 -0.956752,1.6832445 -0.02598,0.022987 -0.05533,0.038417 -0.08565,0.049727 -0.255238,0.209491 -0.543557,0.3750512 -0.8531442,0.4898991 -0.027146,0.025122 -0.059383,0.045689 -0.097171,0.058447 -0.3048741,0.102988 -0.6243664,0.1562058 -0.9461632,0.1574864 -5.292e-4,2.1e-6 -0.00106,2.1e-6 -0.00132,0 -0.3448579,-3.705e-4 -0.6780477,-0.060239 -0.9893512,-0.1699438 -0.00516,-0.010321 -0.010504,-0.020532 -0.016087,-0.030625 -0.00299,-8.995e-4 -0.00595,-0.0018 -0.00892,-0.0027 l 0.00394,-0.00675 C 5.275549,8.954907 5.1518219,8.8040199 4.989164,8.7066985 4.8706889,8.6383146 4.7369288,8.6007966 4.6001709,8.5975899 4.5332737,8.5962934 4.4664691,8.6032361 4.4012625,8.6182486 3.9115796,8.1971028 3.5563447,7.6181262 3.4197007,6.9487076 c -0.00714,-0.034991 -0.00585,-0.069093 0,-0.1018415 -0.02935,-0.1640597 -0.044873,-0.3302969 -0.0464,-0.4969568 0.00132,-0.1640465 0.016378,-0.327696 0.044744,-0.4892768 -0.00725,-0.034957 -0.00884,-0.071748 -0.00106,-0.10942 C 3.5537148,5.0813962 3.9092989,4.5021318 4.3993813,4.080945 4.6000466,4.1271008 4.8107396,4.0957299 4.989254,3.9931182 5.1496364,3.8968127 5.2720803,3.7483479 5.3360962,3.5725664 l -0.00632,-0.011004 c 0.00482,-0.00151 0.00963,-0.00299 0.01442,-0.00446 0.00585,-0.010533 0.011452,-0.021193 0.016824,-0.031975 C 5.6722361,3.4158907 6.005336,3.3564465 6.3499558,3.3564259 Z"
       style="color:#000000;display:inline;overflow:visible;visibility:visible;fill:url(#linearGradient1701);fill-opacity:1;fill-rule:nonzero;stroke:none;stroke-width:5.44515;stroke-linecap:butt;stroke-linejoin:miter;stroke-miterlimit:4;stroke-dasharray:none;stroke-dashoffset:0;stroke-opacity:1;marker:none;enable-background:accumulate"
       id="path5150" />
    <path
       d="m 6.3500342,2.8121133 c 1.6742833,0 3.0768688,1.1649212 3.4434915,2.7277954 C 9.6006444,5.5624937 9.422132,5.653093 9.2900388,5.7954401 9.1672682,5.1486856 8.8343842,4.5543067 8.3336883,4.1112974 8.2806356,4.0643568 8.2113769,4.0399486 8.1406128,4.0432623 8.0480093,4.0476047 7.9639834,4.098779 7.9176408,4.1790678 l -0.420441,0.7280586 c -0.060237,0.1043296 -0.044725,0.2358514 0.038138,0.3233002 0.286623,0.3025287 0.4466943,0.702929 0.4475464,1.1196614 -5.103e-4,0.4169697 -0.1602499,0.8177456 -0.446883,1.1205921 -0.082801,0.087426 -0.098308,0.2188691 -0.038137,0.3231686 l 0.4192469,0.7263309 c 0.086052,0.1490663 0.2871332,0.1818205 0.4160475,0.06777 C 8.833777,8.1452402 9.166865,7.5511985 9.2899061,6.9047369 9.4220044,7.0470841 9.6005117,7.1376828 9.7933937,7.1602688 9.4266683,8.7230002 8.0242206,9.8877984 6.3500342,9.8877984 c -0.3548459,0 -0.6972974,-0.05283 -1.020527,-0.1501557 0.077071,-0.1783686 0.088006,-0.3783786 0.030825,-0.5640843 0.3113047,0.1097047 0.6445815,0.1695827 0.9894363,0.1699562 5.103e-4,2.1e-6 8.165e-4,2.1e-6 0.00133,0 C 6.6728913,9.342244 6.9923399,9.2890383 7.2972103,9.1860503 7.4599604,9.131102 7.5317348,8.9409819 7.4459076,8.7921875 L 7.026135,8.0650596 C 6.9657243,7.9604601 6.8436017,7.9081923 6.7262195,7.9366969 6.6028008,7.9666782 6.4762389,7.9819929 6.3492382,7.9826731 5.6266111,7.9819332 4.9926381,7.5090814 4.7861528,6.8165033 4.7517607,6.7011494 4.6456758,6.6220868 4.5253035,6.622097 H 3.6865597 C 3.5143491,6.6220812 3.3854093,6.7799915 3.4198678,6.9487211 3.5565075,7.6181412 3.9117769,8.1971003 4.4014613,8.6182456 4.2117179,8.6610449 4.0434925,8.7701802 3.9270697,8.9259999 3.2412329,8.2806441 2.8121991,7.3654423 2.8121991,6.3499553 c 0,-1.0156895 0.4291971,-1.9310663 1.1152737,-2.5764431 0.1158718,0.1552473 0.2831684,0.2642356 0.4719984,0.3074885 -0.4900823,0.4211866 -0.8456681,1.0003738 -0.9823946,1.6701899 -0.034458,0.1687291 0.094481,0.3266409 0.2666919,0.3266231 h 0.8422034 c 0.1203724,1.02e-5 0.2264521,-0.079051 0.2608442,-0.1944053 0.2064292,-0.6923745 0.840142,-1.165184 1.5625547,-1.1661703 0.1269191,6.888e-4 0.2533841,0.016015 0.376716,0.045977 0.1173822,0.028506 0.2395048,-0.023762 0.2999155,-0.1283627 l 0.420436,-0.72806 C 7.5323625,3.7578904 7.4604095,3.5676101 7.2974807,3.512798 6.9923654,3.4100957 6.6727689,3.3572809 6.3508302,3.3563966 c -5.103e-4,-1e-6 -5.103e-4,-1e-6 -7.654e-4,0 -0.3446201,2.04e-5 -0.6776877,0.059526 -0.9889056,0.1687596 0.056793,-0.1854255 0.04572,-0.385011 -0.031223,-0.5630198 0.3231123,-0.097248 0.665426,-0.1500231 1.020129,-0.1500231 z m 0,2.4492754 c -0.6011985,-5e-7 -1.0885611,0.4873674 -1.0885611,1.0885666 -5.1e-6,0.6011993 0.4873626,1.0885677 1.0885611,1.0885677 0.6011984,-5e-7 1.0885664,-0.4873684 1.0885664,-1.0885677 0,-0.6011987 -0.487368,-1.0885661 -1.0885664,-1.0885666 z"
       style="color:#000000;display:inline;overflow:visible;visibility:visible;opacity:0.1;fill:#1463a5;fill-opacity:1;fill-rule:nonzero;stroke:none;stroke-width:1.38867;stroke-linecap:butt;stroke-linejoin:miter;stroke-miterlimit:4;stroke-dasharray:4.16605, 4.16605;stroke-dashoffset:0;stroke-opacity:1;marker:none;enable-background:accumulate"
       id="path5389" />
    <path
       d="M 4.6002825,2.8783294 C 4.739096,2.8849194 4.865015,2.9616764 4.9344778,3.0820368 5.0471758,3.2772545 4.9803098,3.5268657 4.7851222,3.6396086 4.5899036,3.752304 4.3402905,3.6854389 4.2275517,3.4902493 4.1147619,3.2950026 4.1816377,3.0452914 4.3769073,2.9325449 4.4446353,2.8934502 4.5221655,2.8746325 4.6002825,2.8783294 Z m 5.2874844,3.0634545 c 0.2254521,0 0.4082151,0.182763 0.4082151,0.4082125 0,0.2254495 -0.182763,0.4082125 -0.4082151,0.4082125 -0.2254517,0 -0.4082095,-0.182763 -0.4082095,-0.4082125 0,-0.2254495 0.1827578,-0.4082125 0.4082095,-0.4082125 z M 4.5905823,9.0057705 c 0.068396,0.00161 0.1352926,0.020394 0.1945399,0.054614 0.195188,0.1127434 0.2620536,0.3623557 0.1493556,0.5575728 C 4.821734,9.8131468 4.5721259,9.8800114 4.3769073,9.767316 4.1817194,9.6545732 4.1148538,9.4049614 4.2275517,9.2097438 4.3021785,9.0805039 4.4413798,9.0022894 4.5905823,9.0057705 Z"
       style="display:inline;opacity:0.3;fill:#1463a5;fill-opacity:1;stroke:none;stroke-width:1.05832;stroke-linecap:round;stroke-linejoin:round;stroke-miterlimit:4;stroke-dasharray:none;stroke-dashoffset:0;stroke-opacity:1;enable-background:new"
       id="path5608" />
  </g>
  <circle
     style="opacity:0.05;fill:#000000;fill-opacity:1;stroke-width:0.264583;stroke-linejoin:round"
     id="path3279"
     cx="6.3500004"
     cy="6.3499999"
     r="2.3812499" />
  <circle
     style="opacity:0.1;fill:#000000;fill-opacity:1;stroke-width:0.264583;stroke-linejoin:round"
     id="path3493"
     cx="6.3500004"
     cy="6.614583"
     r="2.1166666" />
  <path
     id="rect990"
     style="opacity:0.05;fill:#000000;stroke-width:0.264577;stroke-linejoin:round"
     d="M 10.030898,2.3822588 A 0.2646035,0.2646035 0 0 0 9.9213471,2.4168808 L 5.230272,5.1334467 A 0.2646035,0.2646035 0 0 0 5.133639,5.2300797 L 2.4170739,9.9211543 a 0.2646035,0.2646035 0 0 0 0.3617264,0.3617267 l 4.691075,-2.7165659 a 0.2646035,0.2646035 0 0 0 0.096633,-0.096633 L 10.283074,2.7786076 a 0.2646035,0.2646035 0 0 0 -0.13849,-0.381363 0.2646035,0.2646035 0 0 0 -0.113686,-0.014986 z" />
  <path
     id="rect1228"
     style="opacity:0.1;fill:#000000;stroke-width:0.264583;stroke-linejoin:round"
     d="M 10.054167,2.9104167 5.3624637,5.6270466 2.6458338,10.31875 7.337537,7.6021199 Z" />
  <path
     id="rect3707"
     style="fill:#dfdfdf;fill-opacity:1;stroke-width:0.264583;stroke-linejoin:round"
     d="M 5.3624637,5.362575 7.3375371,7.3376483 2.6458338,10.054278 Z"
     sodipodi:nodetypes="cccc" />
  <path
     id="rect4146"
     style="fill:#e93549;fill-opacity:1;stroke-width:0.264583;stroke-linejoin:round"
     d="M 10.054167,2.6458333 7.337537,7.3375366 5.362464,5.362463 Z"
     sodipodi:nodetypes="cccc" />
  <path
     id="rect4555"
     style="opacity:0.2;fill:#ffffff;stroke-width:0.264583;stroke-linejoin:round"
     d="M 5.3624635,5.3625751 10.054167,2.6458333 2.6458338,10.054278 Z"
     sodipodi:nodetypes="cccc" />
  <circle
     style="fill:#f2f2f2;fill-opacity:1;stroke-width:0.264583;stroke-linejoin:round"
     id="path2952"
     cx="6.3500004"
     cy="6.3499999"
     r="2.1166666" />
  <path
     id="path854"
     style="opacity:0.4;fill:#000000;stroke-width:0.529167;stroke-linecap:round;stroke-linejoin:round"
     d="M 6.3499999,0.26458333 A 6.0854166,6.0854166 0 0 0 0.26458333,6.3499999 6.0854166,6.0854166 0 0 0 6.3499999,12.435417 6.0854166,6.0854166 0 0 0 12.435417,6.3499999 6.0854166,6.0854166 0 0 0 6.3499999,0.26458333 Z m 0,0.26458333 A 5.8208333,5.8208333 0 0 1 12.170833,6.3499999 5.8208333,5.8208333 0 0 1 6.3499999,12.170833 5.8208333,5.8208333 0 0 1 0.52916666,6.3499999 5.8208333,5.8208333 0 0 1 6.3499999,0.52916666 Z" />
  <path
     id="path1110"
     style="fill:url(#linearGradient1198);fill-opacity:1;stroke-width:0.529167;stroke-linecap:round;stroke-linejoin:round"
     d="M 6.3499999,0.52916666 A 5.8208333,5.8208333 0 0 0 0.52916666,6.3499999 5.8208333,5.8208333 0 0 0 6.3499999,12.170833 5.8208333,5.8208333 0 0 0 12.170833,6.3499999 5.8208333,5.8208333 0 0 0 6.3499999,0.52916666 Z m 0,0.26458333 A 5.5562499,5.5562499 0 0 1 11.90625,6.3499999 5.5562499,5.5562499 0 0 1 6.3499999,11.90625 5.5562499,5.5562499 0 0 1 0.79374999,6.3499999 5.5562499,5.5562499 0 0 1 6.3499999,0.79374999 Z" />
</svg>
