<svg width="22" height="22" version="1.1" viewBox="0 0 22 22" xmlns="http://www.w3.org/2000/svg">
 <defs>
  <style id="current-color-scheme" type="text/css">.ColorScheme-Text{color:#dfdfdf}.ColorScheme-Highlight{color:#f34f17}</style>
 </defs>
 <path class="ColorScheme-Text" d="m14.666 6.894-1.332 3.772-1.334 3.772 0.943 0.333 0.453-1.283a4 4 0 0 0 2.375 2.283 4 4 0 0 0 5.104-2.437 4 4 0 0 0-2.438-5.106 4 4 0 0 0-3.28 0.284l0.452-1.284zm-9.666 0.553a4 4 0 0 0-4 4 4 4 0 0 0 4 4 4 4 0 0 0 3-1.361v1.361h1v-8h-1v1.363a4 4 0 0 0-3-1.362zm0 1a3 3 0 0 1 3 3 3 3 0 0 1-3 3 3 3 0 0 1-3-3 3 3 0 0 1 3-3zm12.012 0.555a3 3 0 0 1 1.094 0.17 3 3 0 0 1 1.828 3.828 3 3 0 0 1-3.828 1.828 3 3 0 0 1-1.83-3.828 3 3 0 0 1 2.736-1.998z" color="#dfdfdf" fill="#dfdfdf"/>
 <path class="ColorScheme-Highlight" d="m10 3v16h1v-2.42l9.36 2.106 0.232-1.028-9.592-2.158v-12.5z" color="#f34f17" fill="#f34f17"/>
</svg>
