<svg width="32" height="32" version="1.1" xmlns="http://www.w3.org/2000/svg">
 <rect transform="matrix(0,-1,-1,0,0,0)" x="-32" y="-31" width="30" height="30" rx="15" ry="15" enable-background="new" opacity=".2"/>
 <rect transform="matrix(0,-1,-1,0,0,0)" x="-31" y="-31" width="30" height="30" rx="15" ry="15" enable-background="new" fill="#929ca2"/>
 <path d="m8.5 23.66c0 0.78 0.072 1.41 0.2865 1.956 0.21602 0.546 0.61501 0.993 1.1025 1.248 0.972 0.51 2.103 0.4485 3.6465 0.4635h4.929c1.5435-0.018 2.676 0.0465 3.6465-0.4635 0.486-0.255 0.88651-0.702 1.1025-1.248 0.2145-0.546 0.2865-1.176 0.2865-1.956v-4.668c0-0.78-0.072-1.41-0.2865-1.956-0.216-0.546-0.615-0.99-1.1025-1.245-0.8445-0.444-1.8615-0.4455-3.114-0.4515l-5e-3 -2.919-0.741-0.843 0.75-0.75-0.75-0.75 0.75-0.75-0.75-0.75 1.5-1.5-3.75-3.75-3 3 3e-3 9.012c-1.2525 0-2.2695 0.0151-3.114 0.45a2.4105 2.4105 0 0 0-1.1018 1.2495c-0.21601 0.5445-0.288 1.173-0.288 1.953zm1.5 0v-4.668c0-0.6765 0.078-1.134 0.18449-1.4025 0.10494-0.27 0.20101-0.366 0.402-0.4725 0.402-0.21 1.416-0.273 2.967-0.2895h0.9495l-3e-3 -9.879 1.5-1.5 1.629 1.629-1.5 1.5 0.75 0.75-0.75 0.75 0.75 0.75-0.68251 0.6825 1.2945 1.476 9e-3 3.8415h0.94499c1.5525 0.0165 2.5665 0.0795 2.97 0.2895 0.19949 0.10495 0.29401 0.2025 0.40049 0.4725 0.10495 0.27 0.18451 0.726 0.18451 1.4025v4.668c0 0.6765-0.078 1.137-0.18451 1.4055-0.10647 0.27-0.201 0.363-0.402 0.4695-0.40048 0.21-1.4145 0.2745-2.958 0.2925h-4.911c-1.5435-0.018-2.5575-0.0825-2.9595-0.2925-0.201-0.10494-0.29401-0.1995-0.40051-0.4695-0.10647-0.27-0.18449-0.729-0.18449-1.4055zm4.5-0.8325a1.5 1.5 0 0 0 1.5 1.5 1.5 1.5 0 0 0 1.5-1.5 1.5 1.5 0 0 0-1.5-1.5 1.5 1.5 0 0 0-1.5 1.5z" color="#000000" enable-background="new" fill="#fff" font-weight="400" overflow="visible" stroke="#fff" stroke-width=".5" style="font-feature-settings:normal;font-variant-alternates:normal;font-variant-caps:normal;font-variant-ligatures:normal;font-variant-numeric:normal;font-variant-position:normal;isolation:auto;mix-blend-mode:normal;shape-padding:0;text-decoration-color:#000000;text-decoration-line:none;text-decoration-style:solid;text-indent:0;text-orientation:mixed;text-transform:none;white-space:normal"/>
</svg>
