<?xml version="1.0" encoding="UTF-8" standalone="no"?>
<!-- Created with Inkscape (http://www.inkscape.org/) -->

<svg
   width="48"
   height="48"
   viewBox="0 0 12.7 12.7"
   version="1.1"
   id="svg5"
   inkscape:version="1.1.2 (0a00cf5339, 2022-02-04)"
   sodipodi:docname="gnome-power-statistics.svg"
   xmlns:inkscape="http://www.inkscape.org/namespaces/inkscape"
   xmlns:sodipodi="http://sodipodi.sourceforge.net/DTD/sodipodi-0.dtd"
   xmlns:xlink="http://www.w3.org/1999/xlink"
   xmlns="http://www.w3.org/2000/svg"
   xmlns:svg="http://www.w3.org/2000/svg">
  <sodipodi:namedview
     id="namedview7"
     pagecolor="#ffffff"
     bordercolor="#666666"
     borderopacity="1.0"
     inkscape:pageshadow="2"
     inkscape:pageopacity="0.0"
     inkscape:pagecheckerboard="0"
     inkscape:document-units="px"
     showgrid="false"
     units="px"
     inkscape:zoom="11.564142"
     inkscape:cx="14.873563"
     inkscape:cy="17.900161"
     inkscape:window-width="1920"
     inkscape:window-height="1017"
     inkscape:window-x="0"
     inkscape:window-y="0"
     inkscape:window-maximized="1"
     inkscape:current-layer="svg5"
     showguides="false"
     inkscape:lockguides="true" />
  <defs
     id="defs2">
    <linearGradient
       inkscape:collect="always"
       id="linearGradient3598">
      <stop
         style="stop-color:#f2f2f2;stop-opacity:1"
         offset="0"
         id="stop3594" />
      <stop
         style="stop-color:#e6e6e6;stop-opacity:1"
         offset="1"
         id="stop3596" />
    </linearGradient>
    <linearGradient
       inkscape:collect="always"
       xlink:href="#linearGradient3598"
       id="linearGradient3600"
       x1="10.145458"
       y1="10.793693"
       x2="3.4395733"
       y2="0.66145128"
       gradientUnits="userSpaceOnUse"
       gradientTransform="translate(-0.13228176,0.6614654)" />
    <linearGradient
       inkscape:collect="always"
       id="linearGradient1871">
      <stop
         style="stop-color:#ffffff;stop-opacity:1;"
         offset="0"
         id="stop1867" />
      <stop
         style="stop-color:#ffffff;stop-opacity:0.1"
         offset="0.12"
         id="stop2515" />
      <stop
         style="stop-color:#ffffff;stop-opacity:0.102"
         offset="0.89999998"
         id="stop2581" />
      <stop
         style="stop-color:#ffffff;stop-opacity:0.502"
         offset="1"
         id="stop1869" />
    </linearGradient>
    <linearGradient
       inkscape:collect="always"
       xlink:href="#linearGradient1871"
       id="linearGradient2252"
       x1="12.5"
       y1="7"
       x2="12.5"
       y2="43"
       gradientUnits="userSpaceOnUse"
       gradientTransform="matrix(0.26458333,0,0,0.26458333,0,-0.26458333)" />
  </defs>
  <path
     d="m 3.3072916,1.5875 c -3.04237179,0 -3.04270832,0.5324204 -3.04270832,3.571875 v 2.9104167 c 0,3.0394563 3.3633e-4,3.5718763 3.04270832,3.5718763 h 6.0854167 c 3.0423717,0 3.0427077,-0.53242 3.0427077,-3.5718763 V 5.159375 c 0,-3.0394547 -3.36e-4,-3.571875 -3.0427077,-3.571875 z"
     style="display:inline;opacity:0.1;fill:#000000;fill-opacity:1;stroke:none;stroke-width:0.0992187;stroke-linecap:round;stroke-linejoin:round;stroke-miterlimit:4;stroke-dasharray:none;stroke-dashoffset:0;stroke-opacity:1;enable-background:new"
     id="path3132"
     sodipodi:nodetypes="sssssssss" />
  <path
     id="rect877"
     style="display:inline;fill:url(#linearGradient3600);fill-opacity:1;stroke:none;stroke-width:0.0992187;stroke-linecap:round;stroke-linejoin:round;stroke-miterlimit:4;stroke-dasharray:none;stroke-dashoffset:0;stroke-opacity:1;enable-background:new"
     d="m 3.3072916,1.4552084 c -2.91041661,0 -2.9104166,0.4001287 -2.9104166,3.4395832 v 2.9104166 c 0,3.0394558 -10e-9,3.4395838 2.9104166,3.4395838 h 6.0854167 c 2.9104167,0 2.9104167,-0.400129 2.9104167,-3.4395838 V 4.8947916 c 0,-3.0394546 0,-3.4395832 -2.9104167,-3.4395832 z"
     sodipodi:nodetypes="cssccsscc" />
  <path
     style="color:#000000;opacity:0.5;fill:#1a7fd4;stroke-width:0.264583;-inkscape-stroke:none"
     d="m 8.8852459,3.175 c -0.212405,0 -0.385715,0.1362615 -0.5048792,0.3255616 -0.119164,0.1893001 -0.20358,0.4397097 -0.274918,0.7343222 C 7.9627717,4.8241082 7.8783173,5.5918785 7.7762693,6.356718 7.6742214,7.1215575 7.554172,7.8832919 7.3535562,8.4382445 7.2532482,8.715721 7.132124,8.9396789 6.9938882,9.0873005 6.8556524,9.2349224 6.7083581,9.3089925 6.5174313,9.3089925 H 5.4105224 4.9226968 C 4.7577635,9.2948294 4.6324024,9.2225166 4.5165199,9.0878173 4.4003485,8.9527819 4.3010334,8.7533935 4.2173135,8.510075 4.0498735,8.0234377 3.9456112,7.3660897 3.8250893,6.7081177 3.7045676,6.0501458 3.5686282,5.3911344 3.315043,4.8808391 3.0616148,4.3708593 2.6610994,4.0003428 2.0706745,4.0044068 H 0.396875 v 0.2645834 h 1.6743163 5.159e-4 c 0.4849012,-0.00372 0.776704,0.2674546 1.0061403,0.7291543 0.2294361,0.4617001 0.3671054,1.1046201 0.4867918,1.7580322 0.1196866,0.6534123 0.2219941,1.3169156 0.4020428,1.8401979 0.090024,0.2616409 0.1992974,0.4896443 0.3493326,0.664042 0.1500351,0.174398 0.3486097,0.2927464 0.585494,0.3126425 l 0.00568,5.292e-4 h 0.5033285 1.106909 c 0.2650757,0 0.4938331,-0.1175713 0.6697265,-0.3054078 C 7.3630497,9.0803441 7.494537,8.8257689 7.6021179,8.528174 7.8172795,7.9329843 7.9362229,7.1605542 8.0387837,6.3918703 8.1413447,5.6231864 8.2269727,4.8578259 8.3627947,4.2969079 8.4307049,4.0164488 8.5126349,3.7878086 8.6046409,3.6416507 c 0.09201,-0.146158 0.174284,-0.2020549 0.280603,-0.2020549 0.1144877,0 0.2050617,0.042353 0.2971387,0.1328084 0.09208,0.090456 0.179028,0.2316527 0.254765,0.4082439 0.1514747,0.3531825 0.2595797,0.8435736 0.3529497,1.3379029 0.09337,0.4943289 0.172376,0.992275 0.2795697,1.3771768 0.0536,0.1924508 0.113291,0.3568991 0.194303,0.4852416 0.08101,0.1283428 0.20195,0.2320272 0.3545,0.2320272 0.111534,0 0.214033,-0.043524 0.290939,-0.1105874 0.07691,-0.067064 0.131948,-0.1535385 0.176733,-0.2490806 0.08957,-0.1910842 0.14126,-0.4240017 0.19172,-0.6516396 0.05046,-0.2276383 0.09967,-0.4501759 0.163814,-0.6009971 0.03207,-0.075411 0.06761,-0.1312243 0.09974,-0.1622639 0.03213,-0.031039 0.05426,-0.040824 0.09302,-0.040824 h 0.668695 V 5.3330202 h -0.668693 c -0.107288,0 -0.206337,0.046979 -0.276986,0.1152385 -0.07065,0.06826 -0.118839,0.154264 -0.159163,0.2490803 -0.08065,0.189633 -0.128637,0.4206886 -0.178801,0.6469891 -0.05016,0.2263005 -0.103099,0.447493 -0.173115,0.5968627 -0.03501,0.074685 -0.07362,0.1295122 -0.110588,0.1617472 -0.03697,0.032235 -0.068,0.045475 -0.117306,0.045475 -0.037,0 -0.07459,-0.020079 -0.130741,-0.1090371 C 10.431579,6.9504049 10.375098,6.8044674 10.32495,6.624402 10.224655,6.2642707 10.144293,5.768494 10.050032,5.2694459 9.9557703,4.7703978 9.8480883,4.2680996 9.6800283,3.8762493 9.5959993,3.680324 9.4970233,3.5106184 9.3679036,3.3837729 9.2387836,3.2569272 9.0723556,3.175 8.8852459,3.175 Z"
     id="path25" />
  <path
     style="color:#000000;fill:#da1636;stroke-width:0.264583;-inkscape-stroke:none"
     d="m 6.182568,3.747575 c -0.2627071,0 -0.4900374,0.1092385 -0.6666259,0.2857706 C 5.3393539,4.2098778 5.206908,4.4497712 5.0989133,4.7294271 4.8829244,5.2887388 4.7643268,6.012579 4.6617309,6.7324057 4.5591347,7.4522322 4.4731034,8.1685839 4.3377195,8.691976 4.2700277,8.9536719 4.188917,9.1664681 4.0979409,9.3017578 4.0069647,9.4370474 3.9244612,9.4898601 3.8147541,9.4898601 3.6988828,9.4898601 3.6073028,9.4484084 3.5155474,9.3617025 3.4237923,9.2749967 3.3378189,9.1403291 3.262333,8.9710286 3.1113615,8.6324275 3.0032363,8.1611639 2.9098998,7.6858357 2.8165633,7.2105078 2.7372541,6.7314278 2.6298135,6.3603354 2.5760932,6.1747892 2.5165587,6.0159273 2.4349934,5.89163 2.353428,5.7673327 2.231877,5.6678711 2.0815266,5.6678711 c -0.1111513,0 -0.213445,0.042737 -0.2904216,0.1090374 -0.076977,0.0663 -0.1318594,0.1519423 -0.1767334,0.2464964 -0.089748,0.1891083 -0.1417725,0.4195514 -0.1922363,0.6444052 -0.050464,0.224854 -0.099314,0.4446471 -0.1632975,0.5932455 -0.031992,0.074299 -0.067715,0.1291225 -0.099735,0.15968 -0.032021,0.030558 -0.054358,0.040308 -0.093534,0.040308 H 0.3968759 V 7.725627 h 0.6686929 c 0.1068665,0 0.2057159,-0.046168 0.2764689,-0.1136883 0.070753,-0.06752 0.1192768,-0.1526622 0.1596802,-0.2464964 0.080807,-0.1876685 0.12864,-0.4162523 0.1788005,-0.6397543 0.05016,-0.223502 0.1027599,-0.4414359 0.1725992,-0.5885945 0.03492,-0.073579 0.073693,-0.1279027 0.1105876,-0.1596803 0.036895,-0.031778 0.068133,-0.044958 0.1178223,-0.044958 0.039203,0 0.076693,0.019659 0.1322916,0.1043863 0.055599,0.084728 0.1117225,0.2246101 0.1617473,0.397392 0.1000495,0.3455638 0.1806227,0.8220324 0.2749185,1.3022461 0.094296,0.4802135 0.2014403,0.9644983 0.3700034,1.3425535 0.084282,0.1890276 0.1842334,0.3525874 0.313676,0.4749064 0.1294424,0.122319 0.2948638,0.2005047 0.4805907,0.2005047 0.2090161,0 0.3826177,-0.1266684 0.5028116,-0.3054077 C 4.4377598,9.2702961 4.5224773,9.0347614 4.5940346,8.7581218 4.7371493,8.2048426 4.8217176,7.4853477 4.9237303,6.7696127 5.0257431,6.0538778 5.1461383,5.3423881 5.3459267,4.8250284 5.445821,4.5663488 5.56547,4.3579113 5.7030108,4.2204143 5.8405518,4.0829172 5.989273,4.0121583 6.182568,4.0121583 h 0.498161 0.4981607 c 0.329262,0 0.5342675,0.1541593 0.7022827,0.4154784 0.1680153,0.2613195 0.2789843,0.6300994 0.3643193,1.0061403 0.08533,0.3760407 0.146116,0.7574907 0.2325442,1.0578163 0.04321,0.150163 0.09171,0.280865 0.163814,0.3860231 0.0721,0.1051579 0.185003,0.1896902 0.3198767,0.1917195 0.198048,0.00298 0.34477,-0.039393 0.450102,-0.1152385 0.1053317,-0.075846 0.1599447,-0.175523 0.2020537,-0.2547646 0.04211,-0.079242 0.07421,-0.1382467 0.115239,-0.1741496 0.04103,-0.035903 0.09549,-0.063562 0.227893,-0.063562 0.04062,0 0.07517,0.014679 0.1224727,0.061495 0.0473,0.046817 0.09884,0.1255148 0.147278,0.2263428 0.09687,0.2016556 0.182377,0.4873884 0.265617,0.7772135 0.08324,0.2898251 0.164382,0.5834042 0.268201,0.8159708 0.05191,0.1162836 0.108944,0.2184916 0.183451,0.2992067 0.07451,0.080715 0.176668,0.1421101 0.293522,0.1421101 h 1.065568 V 8.5193766 h -1.065568 c -0.0292,0 -0.05648,-0.01106 -0.09922,-0.057361 C 11.095597,8.4157142 11.04772,8.336099 11.002428,8.2346395 10.911845,8.0317207 10.830156,7.7446309 10.74663,7.4538086 10.663103,7.1629862 10.577834,6.8685672 10.46551,6.6347371 10.409348,6.5178223 10.346558,6.4152139 10.265522,6.335014 10.184492,6.254814 10.077233,6.1970377 9.9570143,6.1970377 c -0.176551,0 -0.311424,0.04944 -0.402559,0.1291911 -0.09114,0.079752 -0.1347907,0.1744995 -0.1741497,0.2485638 -0.03936,0.074064 -0.07197,0.1272212 -0.123507,0.1643309 -0.05154,0.03711 -0.130622,0.068044 -0.290938,0.065629 -0.03701,-5.555e-4 -0.06244,-0.013562 -0.1059367,-0.076998 -0.0435,-0.063436 -0.08824,-0.1726269 -0.12764,-0.3095419 C 8.6534839,6.1443827 8.5916759,5.7622969 8.5038739,5.3753824 8.4160739,4.9884682 8.3033737,4.5947436 8.1038977,4.2844932 7.9044224,3.9742428 7.5979216,3.747575 7.1788897,3.747575 H 6.680729 Z"
     id="path27" />
  <path
     id="path1984"
     style="display:inline;opacity:0.7;fill:url(#linearGradient2252);fill-opacity:1;stroke:none;stroke-width:0.0262516;stroke-linecap:round;stroke-linejoin:round;stroke-miterlimit:4;stroke-dasharray:none;stroke-dashoffset:0;stroke-opacity:1;enable-background:new"
     d="m 3.3072916,1.5875 c -2.77812481,0 -2.77812494,0.5291667 -2.77812494,3.3072916 v 2.9104166 c 0,2.7781258 1.3e-7,3.3072918 2.77812494,3.3072918 h 6.0854166 c 2.7781248,0 2.7781248,-0.529166 2.7781248,-3.3072918 V 4.8947916 c 0,-2.7781245 0,-3.3072916 -2.7781248,-3.3072916 z m 0.138493,0.2645833 h 5.8084306 c 2.6518468,0 2.6520348,0.5012344 2.6520348,3.1331421 v 2.729549 c 0,2.6319086 -1.88e-4,3.1331426 -2.6520348,3.1331426 H 3.4457846 c -2.6518466,0 -2.65203461,-0.501234 -2.65203461,-3.1331426 v -2.729549 c 0,-2.631908 1.8801e-4,-3.1331421 2.65203461,-3.1331421 z"
     sodipodi:nodetypes="ssssssssssssssssss" />
  <path
     id="path3421"
     style="display:inline;opacity:0.4;fill:#000000;fill-opacity:1;stroke:none;stroke-width:0.0262516;stroke-linecap:round;stroke-linejoin:round;stroke-miterlimit:4;stroke-dasharray:none;stroke-dashoffset:0;stroke-opacity:1;enable-background:new"
     d="m 3.3072916,1.3229167 c -3.04237164,0 -3.04270827,0.5324204 -3.04270827,3.5718749 v 2.9104166 c 0,3.0394558 3.3634e-4,3.5718758 3.04270827,3.5718758 h 6.0854166 c 3.0423718,0 3.0427088,-0.532421 3.0427088,-3.5718758 V 4.8947916 c 0,-3.0394546 -3.37e-4,-3.5718749 -3.0427088,-3.5718749 z m 0,0.2645833 h 6.0854166 c 2.7781248,0 2.7781248,0.529167 2.7781248,3.3072916 v 2.9104166 c 0,2.7781258 0,3.3072928 -2.7781248,3.3072928 H 3.3072916 c -2.77812489,0 -2.77812494,-0.529167 -2.77812494,-3.3072928 V 4.8947916 c 0,-2.778125 3e-8,-3.3072916 2.77812494,-3.3072916 z"
     sodipodi:nodetypes="ssssssssssssssssss" />
</svg>
