<?xml version="1.0" encoding="UTF-8" standalone="no"?>
<!-- Created with Inkscape (http://www.inkscape.org/) -->

<svg
   width="48"
   height="48"
   viewBox="0 0 12.7 12.7"
   version="1.1"
   id="svg5"
   inkscape:version="1.1.2 (0a00cf5339, 2022-02-04)"
   sodipodi:docname="gnome-software.svg"
   xmlns:inkscape="http://www.inkscape.org/namespaces/inkscape"
   xmlns:sodipodi="http://sodipodi.sourceforge.net/DTD/sodipodi-0.dtd"
   xmlns:xlink="http://www.w3.org/1999/xlink"
   xmlns="http://www.w3.org/2000/svg"
   xmlns:svg="http://www.w3.org/2000/svg">
  <sodipodi:namedview
     id="namedview7"
     pagecolor="#ffffff"
     bordercolor="#666666"
     borderopacity="1.0"
     inkscape:pageshadow="2"
     inkscape:pageopacity="0.0"
     inkscape:pagecheckerboard="0"
     inkscape:document-units="px"
     showgrid="false"
     units="px"
     inkscape:zoom="7.1107479"
     inkscape:cx="31.712557"
     inkscape:cy="8.1566666"
     inkscape:window-width="1851"
     inkscape:window-height="1011"
     inkscape:window-x="0"
     inkscape:window-y="0"
     inkscape:window-maximized="1"
     inkscape:current-layer="svg5"
     showguides="false"
     inkscape:lockguides="true" />
  <defs
     id="defs2">
    <linearGradient
       inkscape:collect="always"
       id="linearGradient1871">
      <stop
         style="stop-color:#ffffff;stop-opacity:1;"
         offset="0"
         id="stop1867" />
      <stop
         style="stop-color:#ffffff;stop-opacity:0.1"
         offset="0.12"
         id="stop2515" />
      <stop
         style="stop-color:#ffffff;stop-opacity:0.102"
         offset="0.89999998"
         id="stop2581" />
      <stop
         style="stop-color:#ffffff;stop-opacity:0.502"
         offset="1"
         id="stop1869" />
    </linearGradient>
    <linearGradient
       inkscape:collect="always"
       xlink:href="#linearGradient1871"
       id="linearGradient2252"
       x1="12.5"
       y1="7"
       x2="12.5"
       y2="43"
       gradientUnits="userSpaceOnUse"
       gradientTransform="matrix(0.26458333,0,0,0.26458333,0,-0.26458333)" />
    <linearGradient
       inkscape:collect="always"
       xlink:href="#linearGradient23632"
       id="linearGradient23634"
       x1="4.2333331"
       y1="8.4666672"
       x2="8.4666662"
       y2="8.4666672"
       gradientUnits="userSpaceOnUse"
       gradientTransform="matrix(0.85714285,0,0,0.85714285,-1.2473212,-0.68035669)" />
    <linearGradient
       inkscape:collect="always"
       id="linearGradient23632">
      <stop
         style="stop-color:#ed336c;stop-opacity:1;"
         offset="0"
         id="stop23628" />
      <stop
         style="stop-color:#ffa348;stop-opacity:1"
         offset="1"
         id="stop23630" />
    </linearGradient>
    <linearGradient
       inkscape:collect="always"
       xlink:href="#linearGradient24599"
       id="linearGradient24601"
       x1="10.627575"
       y1="4.2302613"
       x2="10.627575"
       y2="7.9344277"
       gradientUnits="userSpaceOnUse"
       gradientTransform="matrix(0.85714286,0,0,0.85714286,-0.869346,-0.98273809)" />
    <linearGradient
       inkscape:collect="always"
       id="linearGradient24599">
      <stop
         style="stop-color:#404ce6;stop-opacity:1;"
         offset="0"
         id="stop24595" />
      <stop
         style="stop-color:#c061cb;stop-opacity:1"
         offset="1"
         id="stop24597" />
    </linearGradient>
    <linearGradient
       inkscape:collect="always"
       xlink:href="#linearGradient27108"
       id="linearGradient27110"
       x1="9.7895832"
       y1="11.292581"
       x2="13.493803"
       y2="11.292581"
       gradientUnits="userSpaceOnUse"
       gradientTransform="matrix(0.85713044,0,0,0.85713044,-0.86923652,-0.79363439)" />
    <linearGradient
       inkscape:collect="always"
       id="linearGradient27108">
      <stop
         style="stop-color:#33d1c6;stop-opacity:1;"
         offset="0"
         id="stop27104" />
      <stop
         style="stop-color:#1c25d8;stop-opacity:1"
         offset="1"
         id="stop27106" />
    </linearGradient>
  </defs>
  <path
     d="m 3.3072916,1.5875 c -3.04237179,0 -3.04270832,0.5324204 -3.04270832,3.571875 v 2.9104167 c 0,3.0394563 3.3633e-4,3.5718763 3.04270832,3.5718763 h 6.0854167 c 3.0423717,0 3.0427077,-0.53242 3.0427077,-3.5718763 V 5.159375 c 0,-3.0394547 -3.36e-4,-3.571875 -3.0427077,-3.571875 z"
     style="display:inline;opacity:0.1;fill:#000000;fill-opacity:1;stroke:none;stroke-width:0.0992187;stroke-linecap:round;stroke-linejoin:round;stroke-miterlimit:4;stroke-dasharray:none;stroke-dashoffset:0;stroke-opacity:1;enable-background:new"
     id="path3132"
     sodipodi:nodetypes="sssssssss" />
  <path
     id="rect877"
     style="display:inline;fill:#e1e1e1;fill-opacity:1;stroke:none;stroke-width:0.0992187;stroke-linecap:round;stroke-linejoin:round;stroke-miterlimit:4;stroke-dasharray:none;stroke-dashoffset:0;stroke-opacity:1;enable-background:new"
     d="m 3.3072916,1.4552084 c -2.91041661,0 -2.9104166,0.4001287 -2.9104166,3.4395832 v 2.9104166 c 0,3.0394558 -10e-9,3.4395838 2.9104166,3.4395838 h 6.0854167 c 2.9104167,0 2.9104167,-0.400129 2.9104167,-3.4395838 V 4.8947916 c 0,-3.0394546 0,-3.4395832 -2.9104167,-3.4395832 z"
     sodipodi:nodetypes="cssccsscc" />
  <path
     id="rect5299"
     style="opacity:1;fill:#f2f2f4;fill-opacity:1;stroke-width:0.999999"
     d="M 1.5 24 L 1.5 29.5 C 1.5 40.987708 1.4999987 42.5 12.5 42.5 L 35.5 42.5 C 46.500003 42.5 46.5 40.987705 46.5 29.5 L 46.5 24 L 1.5 24 z "
     transform="scale(0.26458333)" />
  <path
     id="rect23196"
     style="fill:url(#linearGradient23634);fill-opacity:1;stroke-width:0.296099"
     d="m 3.2883929,4.7625002 h 1.3607142 c 0.5025573,0 0.9071429,0.404586 0.9071429,0.9071436 v 1.3607136 c 0,0.5025576 -0.4045856,0.9071436 -0.9071429,0.9071436 H 3.2883929 C 2.7858358,7.937501 2.38125,7.532915 2.38125,7.0303574 V 5.6696438 c 0,-0.5025576 0.4045858,-0.9071436 0.9071429,-0.9071436 z"
     sodipodi:nodetypes="sssssssss" />
  <circle
     style="fill:url(#linearGradient24601);fill-opacity:1;stroke-width:0.258604"
     id="path23832"
     cx="8.2020826"
     cy="4.2333331"
     r="1.5875" />
  <path
     style="color:#000000;fill:url(#linearGradient27110);fill-opacity:1;stroke-width:0.09449;stroke-linecap:round;stroke-linejoin:round;-inkscape-stroke:none"
     d="m 8.8965449,10.546806 c 0.3969216,0.229062 0.8929768,-0.05736 0.8930378,-0.515633 l 10e-7,-2.2913735 C 9.7893847,7.2816076 9.2933915,6.9953319 8.8965449,7.2243521 L 6.9122625,8.3698528 c -0.396905,0.2291873 -0.396906,0.8020786 -10e-8,1.031265 z"
     id="path26141"
     sodipodi:nodetypes="ccccccc" />
  <path
     id="path1984"
     style="display:inline;opacity:1;fill:url(#linearGradient2252);fill-opacity:1;stroke:none;stroke-width:0.0262516;stroke-linecap:round;stroke-linejoin:round;stroke-miterlimit:4;stroke-dasharray:none;stroke-dashoffset:0;stroke-opacity:1;enable-background:new"
     d="m 3.3072916,1.5875 c -2.77812481,0 -2.77812494,0.5291667 -2.77812494,3.3072916 v 2.9104166 c 0,2.7781258 1.3e-7,3.3072918 2.77812494,3.3072918 h 6.0854166 c 2.7781248,0 2.7781248,-0.529166 2.7781248,-3.3072918 V 4.8947916 c 0,-2.7781245 0,-3.3072916 -2.7781248,-3.3072916 z m 0.138493,0.2645833 h 5.8084306 c 2.6518468,0 2.6520348,0.5012344 2.6520348,3.1331421 v 2.729549 c 0,2.6319086 -1.88e-4,3.1331426 -2.6520348,3.1331426 H 3.4457846 c -2.6518466,0 -2.65203461,-0.501234 -2.65203461,-3.1331426 v -2.729549 c 0,-2.631908 1.8801e-4,-3.1331421 2.65203461,-3.1331421 z"
     sodipodi:nodetypes="ssssssssssssssssss" />
  <path
     id="path3421"
     style="display:inline;opacity:0.4;fill:#000000;fill-opacity:1;stroke:none;stroke-width:0.0262516;stroke-linecap:round;stroke-linejoin:round;stroke-miterlimit:4;stroke-dasharray:none;stroke-dashoffset:0;stroke-opacity:1;enable-background:new"
     d="m 3.3072916,1.3229167 c -3.04237164,0 -3.04270827,0.5324204 -3.04270827,3.5718749 v 2.9104166 c 0,3.0394558 3.3634e-4,3.5718758 3.04270827,3.5718758 h 6.0854166 c 3.0423718,0 3.0427088,-0.532421 3.0427088,-3.5718758 V 4.8947916 c 0,-3.0394546 -3.37e-4,-3.5718749 -3.0427088,-3.5718749 z m 0,0.2645833 h 6.0854166 c 2.7781248,0 2.7781248,0.529167 2.7781248,3.3072916 v 2.9104166 c 0,2.7781258 0,3.3072928 -2.7781248,3.3072928 H 3.3072916 c -2.77812489,0 -2.77812494,-0.529167 -2.77812494,-3.3072928 V 4.8947916 c 0,-2.778125 3e-8,-3.3072916 2.77812494,-3.3072916 z"
     sodipodi:nodetypes="ssssssssssssssssss" />
  <path
     d="M 6.3500026,0 C 5.3357674,0 4.7558153,0.5461588 4.4927517,1.072286 4.2296882,1.5984131 4.233336,2.1166667 4.233336,2.1166667 c 0,0.1461253 0.1184579,0.2645833 0.2645833,0.2645833 0.1461254,0 0.2645833,-0.118458 0.2645833,-0.2645833 0,0 0.00365,-0.407789 0.2036051,-0.8077027 0.199957,-0.3999136 0.5460484,-0.7797973 1.3838949,-0.7797973 0.8378463,0 1.1839379,0.3798837 1.3838949,0.7797973 0.1999568,0.3999137 0.2036051,0.8077027 0.2036051,0.8077027 0,0.1461253 0.1184579,0.2645833 0.2645833,0.2645833 0.1461255,0 0.2645834,-0.118458 0.2645834,-0.2645833 0,0 0.00365,-0.5182536 -0.2594158,-1.0443807 C 7.94419,0.5461588 7.3642376,0 6.3500026,0 Z"
     style="color:#000000;fill:#afafaf;stroke-width:0.264583;stroke-linecap:round;-inkscape-stroke:none;fill-opacity:1"
     id="path901" />
</svg>
