<?xml version="1.0" encoding="UTF-8" standalone="no"?>
<!-- Created with Inkscape (http://www.inkscape.org/) -->

<svg
   width="48"
   height="48"
   viewBox="0 0 12.7 12.7"
   version="1.1"
   id="svg5"
   inkscape:version="1.1.2 (0a00cf5339, 2022-02-04)"
   sodipodi:docname="system-software-update.svg"
   xmlns:inkscape="http://www.inkscape.org/namespaces/inkscape"
   xmlns:sodipodi="http://sodipodi.sourceforge.net/DTD/sodipodi-0.dtd"
   xmlns:xlink="http://www.w3.org/1999/xlink"
   xmlns="http://www.w3.org/2000/svg"
   xmlns:svg="http://www.w3.org/2000/svg">
  <sodipodi:namedview
     id="namedview7"
     pagecolor="#ffffff"
     bordercolor="#666666"
     borderopacity="1.0"
     inkscape:pageshadow="2"
     inkscape:pageopacity="0.0"
     inkscape:pagecheckerboard="0"
     inkscape:document-units="px"
     showgrid="false"
     units="px"
     height="48px"
     showguides="true"
     inkscape:zoom="16.893617"
     inkscape:cx="24.003149"
     inkscape:cy="24.506297"
     inkscape:window-width="1920"
     inkscape:window-height="995"
     inkscape:window-x="0"
     inkscape:window-y="0"
     inkscape:window-maximized="1"
     inkscape:current-layer="svg5" />
  <defs
     id="defs2">
    <linearGradient
       inkscape:collect="always"
       id="linearGradient1871">
      <stop
         style="stop-color:#ffffff;stop-opacity:1;"
         offset="0"
         id="stop1867" />
      <stop
         style="stop-color:#ffffff;stop-opacity:0.1"
         offset="0.12"
         id="stop2515" />
      <stop
         style="stop-color:#ffffff;stop-opacity:0.102"
         offset="0.89999998"
         id="stop2581" />
      <stop
         style="stop-color:#ffffff;stop-opacity:0.502"
         offset="1"
         id="stop1869" />
    </linearGradient>
    <linearGradient
       inkscape:collect="always"
       xlink:href="#linearGradient1871"
       id="linearGradient1198"
       x1="6.3499999"
       y1="0.52916658"
       x2="6.3499994"
       y2="12.170834"
       gradientUnits="userSpaceOnUse" />
  </defs>
  <circle
     style="opacity:0.1;fill:#000000;fill-opacity:1;stroke-width:0.529167;stroke-linecap:round;stroke-linejoin:round"
     id="path3625"
     cx="6.3499999"
     cy="6.6145835"
     r="6.0854168" />
  <circle
     style="fill:#ebebeb;fill-opacity:1;stroke-width:0.529167;stroke-linecap:round;stroke-linejoin:round"
     id="path986-6"
     cx="6.3499999"
     cy="6.3499999"
     r="5.953125" />
  <path
     id="path1048"
     style="opacity:1;fill:#4d4d4d;fill-opacity:1;stroke-width:1.09926;stroke-linejoin:round;stroke-opacity:0.501961"
     d="M 24 6 A 17.999999 17.999999 0 0 0 12.693359 10 L 10 10 L 10 6.4140625 L 9.9648438 6.4140625 A 22.5 22.5 0 0 0 7.0019531 9.28125 L 7.0019531 10 L 7 10 L 7 13 L 7.0019531 13 L 9.7636719 13 A 17.999999 17.999999 0 0 0 6 24 A 17.999999 17.999999 0 0 0 24 42 A 17.999999 17.999999 0 0 0 35.304688 38 A 17.999999 17.999999 0 0 0 35.306641 38 L 38.001953 38 L 38.001953 41.585938 L 38.035156 41.585938 A 22.5 22.5 0 0 0 41.001953 38.714844 L 41.001953 38 L 41.001953 35 L 38.236328 35 A 17.999999 17.999999 0 0 0 42 24 A 17.999999 17.999999 0 0 0 24 6 z "
     transform="scale(0.26458333)" />
  <circle
     style="opacity:0.1;fill:#babeb4;fill-opacity:1;stroke-width:0.264583;stroke-linejoin:round;stroke-opacity:0.501961"
     id="path862"
     cx="6.3499999"
     cy="6.3499999"
     r="4.7624998" />
  <path
     id="rect10194"
     style="opacity:0.2;fill:#ffffff;fill-opacity:1;stroke-width:0.264583"
     d="M 0.396875,6.35 A 5.9531249,5.9531249 0 0 0 6.3500001,12.303126 5.9531249,5.9531249 0 0 0 12.303126,6.35 Z" />
  <path
     d="M 5.6751406,2.910602 C 5.4185768,3.4451132 5.2255606,3.8279653 4.9903989,4.3767376 4.7552082,4.9183661 4.5163714,5.4885696 4.274066,6.0872159 4.1833748,6.3180728 4.0906727,6.558915 3.9978675,6.8003738 3.9406857,6.930988 3.8763973,7.0873673 3.7757154,7.3577715 3.6070012,7.8060814 3.4938548,8.0757974 3.3056037,8.5730024 3.2370131,8.7465034 3.1617921,8.9409054 3.0427084,9.2683805 H 4.449207 L 5.0432759,7.614285 6.3687061,7.556622 7.6942421,7.614285 8.2883111,9.2683805 H 9.6948094 C 9.5757274,8.9409054 9.5005044,8.7464904 9.4319137,8.5730024 9.2436497,8.0757974 9.1305007,7.8060814 8.9618027,7.3577715 8.8611181,7.0873673 8.796835,6.9309986 8.7396558,6.8003738 8.6468532,6.558923 8.5541538,6.3180913 8.4634573,6.0872159 8.2211493,5.4885696 8.0350969,5.0770896 7.7999088,4.5354611 7.5647286,3.9866888 7.3188698,3.444928 7.0623034,2.9104167 h -0.021272 l -0.7110413,8.47e-5 H 6.3018071 L 5.6964405,2.910729 Z m 0.6935523,1.3140001 c 0.00466,0.010874 0.0095,0.021564 0.014182,0.032451 v 0.00831 c 0.1957203,0.4348427 0.3849688,0.8848725 0.5670815,1.3514917 0.2209324,0.5772679 0.2239989,0.5222081 0.4449233,1.1422327 l -1.02616,0.037023 -1.0260541,-0.037023 C 5.5635923,6.139061 5.5666641,6.1941208 5.7875885,5.6168529 5.9696853,5.1502337 6.1589312,4.7001775 6.35467,4.2653612 v -0.00831 c 0.00466,-0.010874 0.00939,-0.02159 0.014049,-0.032451 z"
     style="fill:#ececec;stroke-width:0.264583;enable-background:new"
     id="path969" />
  <path
     d="M 7.0479044,2.9392544 6.368719,4.2246002 c 0.1920214,0.4276461 0.4023254,0.9437423 0.5811837,1.4020535 0.2209324,0.577268 0.2240042,0.5221817 0.4449234,1.1422327 L 7.0487246,6.7813224 7.2887467,7.606399 7.6942206,7.624047 8.2882896,9.2781425 H 9.6947881 C 9.5757044,8.950667 9.5004808,8.7562512 9.4318902,8.5827639 9.2436286,8.0855589 9.1304768,7.8158427 8.9617785,7.3675327 8.861094,7.0971285 8.7968108,6.9407598 8.7396317,6.810135 8.6468317,6.5686842 8.5541297,6.3278525 8.4634332,6.0969771 8.2211251,5.4983308 8.0350728,5.0868508 7.7998846,4.5452223 7.6303079,4.1495379 7.4550003,3.7576371 7.2743163,3.3693611 Z"
     style="opacity:0.1;fill:#4d4d4d;stroke-width:0.264583;enable-background:new"
     id="path1224" />
  <path
     id="path854"
     style="opacity:0.4;fill:#000000;stroke-width:0.529167;stroke-linecap:round;stroke-linejoin:round"
     d="M 6.3499999,0.26458333 A 6.0854166,6.0854166 0 0 0 0.26458333,6.3499999 6.0854166,6.0854166 0 0 0 6.3499999,12.435417 6.0854166,6.0854166 0 0 0 12.435417,6.3499999 6.0854166,6.0854166 0 0 0 6.3499999,0.26458333 Z m 0,0.26458333 A 5.8208333,5.8208333 0 0 1 12.170833,6.3499999 5.8208333,5.8208333 0 0 1 6.3499999,12.170833 5.8208333,5.8208333 0 0 1 0.52916666,6.3499999 5.8208333,5.8208333 0 0 1 6.3499999,0.52916666 Z" />
  <path
     id="path1110"
     style="fill:url(#linearGradient1198);fill-opacity:1;stroke-width:0.529167;stroke-linecap:round;stroke-linejoin:round"
     d="M 6.3499999,0.52916666 A 5.8208333,5.8208333 0 0 0 0.52916666,6.3499999 5.8208333,5.8208333 0 0 0 6.3499999,12.170833 5.8208333,5.8208333 0 0 0 12.170833,6.3499999 5.8208333,5.8208333 0 0 0 6.3499999,0.52916666 Z m 0,0.26458333 A 5.5562499,5.5562499 0 0 1 11.90625,6.3499999 5.5562499,5.5562499 0 0 1 6.3499999,11.90625 5.5562499,5.5562499 0 0 1 0.79374999,6.3499999 5.5562499,5.5562499 0 0 1 6.3499999,0.79374999 Z" />
  <path
     d="m 3.3072917,6.6145833 h 6.0854171 c 0.366447,0 0.6614572,0.2950104 0.6614572,0.6614583 0,0.366448 -0.2950102,0.6614584 -0.6614572,0.6614584 H 3.3072917 c -0.3664479,0 -0.6614584,-0.2950104 -0.6614584,-0.6614584 0,-0.3664479 0.2950105,-0.6614583 0.6614584,-0.6614583 z"
     style="opacity:0.1;fill:#000000;stroke-width:0.0759547"
     id="path3061" />
  <path
     id="rect2871"
     style="fill:#ececec;stroke-width:0.287073"
     d="m 3.3072917,6.35 h 6.0854167 c 0.3664479,0 0.6614576,0.2950104 0.6614576,0.6614583 0,0.3664479 -0.2950097,0.6614583 -0.6614576,0.6614583 H 3.3072917 c -0.3664479,0 -0.6614583,-0.2950104 -0.6614583,-0.6614583 C 2.6458334,6.6450104 2.9408438,6.35 3.3072917,6.35 Z"
     sodipodi:nodetypes="sssssss" />
  <path
     d="m 3.3072918,6.8791667 h 6.0854168 c 0.07329,0 0.132291,0.059002 0.132291,0.1322917 0,0.07329 -0.059,0.1322916 -0.132291,0.1322916 H 3.3072918 c -0.07329,0 -0.1322917,-0.059002 -0.1322917,-0.1322916 0,-0.07329 0.059002,-0.1322917 0.1322917,-0.1322917 z"
     style="opacity:0.2;fill:#4d4d4d;fill-opacity:1;stroke-width:0.00401926"
     id="path3550"
     sodipodi:nodetypes="sssssss" />
  <path
     d="M 3.3072918,6.8791667 H 7.276042 c 0.07329,0 0.1322912,0.059002 0.1322912,0.1322917 0,0.07329 -0.059002,0.1322916 -0.1322912,0.1322916 H 3.3072918 c -0.07329,0 -0.1322917,-0.059002 -0.1322917,-0.1322916 0,-0.07329 0.059002,-0.1322917 0.1322917,-0.1322917 z"
     style="fill:#e95420;fill-opacity:1;stroke-width:0.0151909"
     id="path3217"
     sodipodi:nodetypes="sssssss" />
</svg>
