<?xml version="1.0" encoding="UTF-8" standalone="no"?>
<!-- Created with Inkscape (http://www.inkscape.org/) -->

<svg
   width="24"
   height="24"
   viewBox="0 0 6.35 6.35"
   version="1.1"
   id="svg5"
   sodipodi:docname="software-properties.svg"
   inkscape:version="1.1.2 (0a00cf5339, 2022-02-04)"
   xmlns:inkscape="http://www.inkscape.org/namespaces/inkscape"
   xmlns:sodipodi="http://sodipodi.sourceforge.net/DTD/sodipodi-0.dtd"
   xmlns:xlink="http://www.w3.org/1999/xlink"
   xmlns="http://www.w3.org/2000/svg"
   xmlns:svg="http://www.w3.org/2000/svg">
  <sodipodi:namedview
     id="namedview7"
     pagecolor="#ffffff"
     bordercolor="#666666"
     borderopacity="1.0"
     inkscape:pageshadow="2"
     inkscape:pageopacity="0.0"
     inkscape:pagecheckerboard="0"
     inkscape:document-units="px"
     showgrid="false"
     units="px"
     height="48px"
     showguides="true"
     inkscape:zoom="16"
     inkscape:cx="10.96875"
     inkscape:cy="12.3125"
     inkscape:window-width="1920"
     inkscape:window-height="995"
     inkscape:window-x="0"
     inkscape:window-y="0"
     inkscape:window-maximized="1"
     inkscape:current-layer="svg5"
     inkscape:guide-bbox="true" />
  <defs
     id="defs2">
    <linearGradient
       inkscape:collect="always"
       id="linearGradient1871">
      <stop
         style="stop-color:#ffffff;stop-opacity:1;"
         offset="0"
         id="stop1867" />
      <stop
         style="stop-color:#ffffff;stop-opacity:0.1"
         offset="0.12"
         id="stop2515" />
      <stop
         style="stop-color:#ffffff;stop-opacity:0.102"
         offset="0.89999998"
         id="stop2581" />
      <stop
         style="stop-color:#ffffff;stop-opacity:0.502"
         offset="1"
         id="stop1869" />
    </linearGradient>
    <linearGradient
       inkscape:collect="always"
       xlink:href="#linearGradient1871"
       id="linearGradient1198"
       x1="6.3499999"
       y1="0.52916658"
       x2="6.3499994"
       y2="12.170834"
       gradientUnits="userSpaceOnUse"
       gradientTransform="scale(1.8897639)" />
    <radialGradient
       inkscape:collect="always"
       xlink:href="#linearGradient1366"
       id="radialGradient1368"
       cx="2.1166666"
       cy="2.1166666"
       fx="2.1166666"
       fy="2.1166666"
       r="1.3229166"
       gradientUnits="userSpaceOnUse"
       gradientTransform="matrix(2.3,0,0,2.3,-1.693333,-1.6933327)" />
    <linearGradient
       inkscape:collect="always"
       id="linearGradient1366">
      <stop
         style="stop-color:#1463a5;stop-opacity:0"
         offset="0"
         id="stop1362" />
      <stop
         style="stop-color:#1463a5;stop-opacity:0"
         offset="0.64999998"
         id="stop1626" />
      <stop
         style="stop-color:#1463a5;stop-opacity:1"
         offset="1"
         id="stop1364" />
    </linearGradient>
    <linearGradient
       inkscape:collect="always"
       xlink:href="#linearGradient2344"
       id="linearGradient2346"
       x1="2.1166666"
       y1="0.13229166"
       x2="2.1166666"
       y2="4.1010418"
       gradientUnits="userSpaceOnUse"
       gradientTransform="matrix(1.5333333,0,0,1.5333333,-0.0705555,-0.0705555)" />
    <linearGradient
       inkscape:collect="always"
       id="linearGradient2344">
      <stop
         style="stop-color:#11558d;stop-opacity:1;"
         offset="0"
         id="stop2340" />
      <stop
         style="stop-color:#219ce3;stop-opacity:1"
         offset="1"
         id="stop2342" />
    </linearGradient>
    <linearGradient
       inkscape:collect="always"
       id="linearGradient4868">
      <stop
         style="stop-color:#aee3f8;stop-opacity:1;"
         offset="0"
         id="stop4864" />
      <stop
         style="stop-color:#6dc7f1;stop-opacity:1"
         offset="1"
         id="stop4866" />
    </linearGradient>
    <linearGradient
       inkscape:collect="always"
       xlink:href="#linearGradient4868"
       id="linearGradient2073"
       x1="3.175"
       y1="6.8791666"
       x2="3.175"
       y2="-0.79374999"
       gradientUnits="userSpaceOnUse" />
  </defs>
  <circle
     style="fill:url(#linearGradient2346);fill-opacity:1;stroke-width:0.270463;stroke-linecap:round;stroke-linejoin:round"
     id="path986"
     cx="3.175"
     cy="3.175"
     r="3.0427084" />
  <circle
     style="opacity:0.2;fill:url(#radialGradient1368);fill-opacity:1;stroke-width:1.21708;stroke-linecap:round;stroke-linejoin:round"
     id="path937"
     cx="3.175"
     cy="3.175"
     r="3.0427084" />
  <g
     id="g2012"
     style="opacity:0.4">
    <path
       d="m 3.1750441,0.56089107 c -0.1875605,-0.002117 -0.2531428,0.004921 -0.2795244,0.23171678 l -0.010081,0.0801211 C 2.8622877,1.0198161 2.8578827,1.0863906 2.7187221,1.1224321 c -0.00934,0.00212 -0.018627,0.00421 -0.027911,0.00643 -0.00212,5.292e-4 -0.00418,0.00106 -0.00643,0.00132 l 2.646e-4,5.3e-5 c -0.035137,0.00847 -0.06989,0.017886 -0.1043173,0.028123 l 2.646e-4,-2.646e-4 c -0.00574,0.00185 -0.010954,0.00349 -0.016404,0.00521 -0.00521,0.00159 -0.010451,0.0031 -0.015663,0.00471 C 2.4086864,1.2072443 2.3717056,1.1517718 2.2777573,1.0355245 L 2.2289417,0.97116191 C 2.1608221,0.87955523 2.1116863,0.84042335 2.0594126,0.83617679 2.0071415,0.831917 1.9516901,0.86255575 1.8709949,0.91035537 1.7075221,1.0023272 1.6541662,1.0410913 1.7447119,1.2506863 l 0.031411,0.074443 c 0.057597,0.1496165 0.087559,0.2075101 -0.045315,0.3235642 L 1.7343579,1.6479 c -0.027464,0.026035 -0.05425,0.05271 -0.08028,0.080174 l 7.937e-4,-0.00349 C 1.5388131,1.8574553 1.4809144,1.8274938 1.3313031,1.7698967 L 1.2568573,1.7385383 C 1.1913597,1.7102411 1.1425388,1.6959827 1.1035656,1.694763 1.0178246,1.692093 0.97975923,1.752434 0.91652903,1.8648213 c -0.095586,0.1613878 -0.1224068,0.2215991 0.0608066,0.357841 l 0.064362,0.048868 c 0.1162447,0.093948 0.1717199,0.1309264 0.1324928,0.2707693 -0.00159,0.00519 -0.00312,0.010398 -0.00474,0.01561 -0.00159,0.00545 -0.00328,0.010689 -0.00527,0.016457 l 5.292e-4,-2.646e-4 c -0.010239,0.03443 -0.019659,0.069183 -0.028123,0.1043173 l -5.29e-5,-2.646e-4 c -5.292e-4,0.00238 -0.00106,0.00418 -0.00132,0.00638 -0.00212,0.00929 -0.00434,0.018627 -0.00643,0.027961 -0.036044,0.1391629 -0.1026186,0.1435682 -0.24970296,0.1667166 l -0.080177,0.010028 c -0.2267876,0.026379 -0.2337488,0.092017 -0.2316613,0.2795747 -0.00212,0.1875604 0.00487,0.2531427 0.2316613,0.2795243 l 0.080177,0.010081 c 0.14708436,0.023151 0.21365876,0.027556 0.24970296,0.1667166 0.00212,0.00931 0.00421,0.018627 0.00643,0.027911 5.291e-4,0.00212 0.00106,0.00418 0.00132,0.00643 l 5.29e-5,-2.646e-4 c 0.00847,0.035134 0.017886,0.06989 0.028123,0.1043173 L 1.164445,3.763266 c 0.00185,0.00574 0.00349,0.010954 0.00521,0.016404 0.00159,0.00521 0.0031,0.010451 0.00474,0.015663 0.03923,0.1398402 -0.016245,0.176821 -0.1324927,0.2707693 l -0.064363,0.048816 c -0.1832054,0.1362382 -0.1563846,0.1965553 -0.060799,0.3579432 0.091972,0.1634728 0.1307359,0.2168313 0.3403309,0.126283 l 0.074443,-0.031411 c 0.1496139,-0.057597 0.20751,-0.087559 0.3235642,0.045313 l -7.938e-4,-0.00355 c 0.026035,0.027464 0.05271,0.05425 0.080174,0.08028 l -0.00349,-7.937e-4 C 1.8638401,4.805037 1.8338813,4.8629331 1.776281,5.012547 L 1.744976,5.08699 C 1.65443,5.296585 1.707733,5.3353491 1.8712061,5.4273209 2.032594,5.5229099 2.0928079,5.5497277 2.2290471,5.3665139 l 0.048868,-0.064362 c 0.093947,-0.116241 0.1309274,-0.1717691 0.2707676,-0.132542 0.00519,0.00159 0.010398,0.00317 0.015611,0.00476 0.00545,0.00159 0.010689,0.00328 0.016457,0.00527 l -2.65e-4,-5.314e-4 c 0.034428,0.010239 0.069183,0.019659 0.1043172,0.028123 l -2.646e-4,5.56e-5 c 0.00238,5.292e-4 0.00418,0.00106 0.00638,0.00132 0.00929,0.00212 0.018627,0.00434 0.027964,0.00643 0.1391603,0.036042 0.1435656,0.102616 0.1667166,0.2497031 l 0.010028,0.080177 c 0.026379,0.2267876 0.092017,0.2337488 0.2795773,0.2316613 0.1875578,0.00212 0.2531401,-0.00487 0.2795217,-0.2316613 l 0.010081,-0.080177 c 0.023151,-0.1470845 0.027554,-0.2136589 0.1667166,-0.2497031 0.00931,-0.00212 0.018627,-0.00421 0.027908,-0.00643 0.00212,-5.292e-4 0.00413,-0.00106 0.00638,-0.00132 l -2.646e-4,-5.56e-5 c 0.035134,-0.00847 0.069887,-0.017886 0.1043173,-0.028123 l -2.646e-4,5.291e-4 c 0.00574,-0.00185 0.010954,-0.00355 0.016404,-0.00527 0.00521,-0.00159 0.010451,-0.00315 0.015663,-0.00476 0.1398403,-0.039227 0.1768211,0.016298 0.2707667,0.1325457 l 0.048816,0.064362 c 0.1362419,0.1832134 0.196559,0.1564455 0.3579468,0.06086 0.1634755,-0.091972 0.2167785,-0.1307888 0.1262328,-0.3403838 l -0.031358,-0.074443 c -0.0576,-0.1496139 -0.087559,-0.20751 0.045313,-0.3235642 l -0.00355,7.937e-4 c 0.027464,-0.026035 0.05425,-0.052766 0.080283,-0.08023 l -7.938e-4,0.00355 C 4.8113729,4.4802222 4.869269,4.5101783 5.018883,4.5677807 l 0.074443,0.031308 C 5.3029211,4.6896347 5.3416826,4.6363317 5.433657,4.4728562 5.529243,4.3114683 5.5560612,4.2512571 5.372851,4.1150152 L 5.308488,4.0661466 C 5.1922406,3.9721984 5.1367125,3.9352202 5.1759423,3.79538 c 0.00159,-0.00519 0.00317,-0.010398 0.00479,-0.01561 0.00159,-0.00545 0.00328,-0.010689 0.00527,-0.016457 l -5.292e-4,2.646e-4 c 0.010239,-0.03443 0.019659,-0.069183 0.028123,-0.1043173 l 5.3e-5,2.646e-4 c 5.291e-4,-0.00238 0.00106,-0.00423 0.00132,-0.00643 0.00212,-0.00929 0.00434,-0.018574 0.00643,-0.027908 0.036042,-0.1391629 0.102616,-0.1435683 0.2497031,-0.1667166 l 0.080174,-0.010081 C 5.7780599,3.4220106 5.7850211,3.3564257 5.7829361,3.1688678 5.7850528,2.9813073 5.7780678,2.9157251 5.5512723,2.8893435 L 5.4710982,2.8792628 C 5.3240111,2.8561118 5.2574366,2.8517091 5.2213951,2.7125462 c -0.00212,-0.00931 -0.00421,-0.018627 -0.00643,-0.027911 -5.292e-4,-0.00212 -0.00106,-0.00418 -0.00132,-0.00643 l -5.3e-5,2.646e-4 c -0.00847,-0.035133 -0.017888,-0.069886 -0.028125,-0.1043165 l 2.646e-4,2.646e-4 c -0.00185,-0.00574 -0.00344,-0.011007 -0.00516,-0.016457 -0.00159,-0.00521 -0.0031,-0.010398 -0.00474,-0.01561 -0.039225,-0.1398408 0.01625,-0.1768216 0.1324975,-0.2707672 l 0.064363,-0.048871 C 5.5559051,2.0864733 5.5290843,2.0262091 5.4334983,1.8648213 5.3702682,1.7524315 5.3321999,1.6921304 5.246459,1.6948132 5.207486,1.6961332 5.158665,1.7102382 5.0931674,1.7385352 l -0.074443,0.031411 c -0.1496139,0.0576 -0.20751,0.087559 -0.3235642,-0.045313 l 7.937e-4,0.00349 C 4.6699187,1.7006658 4.6431905,1.6739323 4.6157268,1.6479 l 0.00355,7.937e-4 C 4.4863984,1.5326395 4.5163599,1.474746 4.573957,1.3251294 L 4.605263,1.2506864 C 4.695811,1.0410915 4.642505,1.0023274 4.4790324,0.91035557 c -0.070607,-0.04182 -0.1218406,-0.0705115 -0.1685739,-0.0741786 -0.00667,-5.2917e-4 -0.013309,-5.2917e-4 -0.019844,0 -0.052274,0.00426 -0.1013037,0.0433784 -0.1694233,0.13498512 L 4.0723232,1.0355245 C 3.9783749,1.1517718 3.9413965,1.207247 3.8015536,1.1680172 c -0.00519,-0.00159 -0.010398,-0.00312 -0.01561,-0.00474 -0.00545,-0.00159 -0.010689,-0.00328 -0.016457,-0.00524 l 2.646e-4,5.292e-4 C 3.7353212,1.148332 3.7005682,1.1389129 3.6654339,1.1304488 l 2.646e-4,-5.3e-5 c -0.00238,-5.291e-4 -0.00423,-0.00106 -0.00643,-0.00132 -0.00929,-0.00212 -0.018574,-0.00434 -0.027908,-0.00643 C 3.4921975,1.0866023 3.4877922,1.0200278 3.4646438,0.87294064 l -0.010081,-0.080174 C 3.4281842,0.56597636 3.3626046,0.55901517 3.1750467,0.56110009 Z m 0,1.07781993 c 1.085e-4,0 2.646e-4,0 5.291e-4,0 0.1645444,5.291e-4 0.3278585,0.027416 0.4838065,0.079909 0.018997,0.00638 0.035227,0.016722 0.048974,0.029236 0.159811,0.058835 0.30861,0.1440868 0.44019,0.2521982 0.014631,0.00587 0.028464,0.013811 0.040487,0.024448 0.2559103,0.2264251 0.4260453,0.5302382 0.4887939,0.8608007 -0.00212,0.00344 -0.00439,0.00691 -0.00654,0.010398 l 2.646e-4,0.00132 h -0.00106 c -0.066259,0.075099 -0.1033029,0.1715266 -0.1043639,0.271674 1.641e-4,0.1052195 0.040045,0.2064994 0.1116939,0.283554 C 4.6149332,3.7826632 4.4446842,4.0863017 4.188811,4.312576 4.175529,4.324323 4.16053,4.332208 4.145036,4.338002 4.0145805,4.4450736 3.8672182,4.5296927 3.7089841,4.5883931 c -0.013864,0.012832 -0.03035,0.023363 -0.049665,0.029874 -0.1558237,0.052639 -0.3191193,0.079838 -0.4835948,0.080494 -2.435e-4,0 -5.292e-4,0 -7.938e-4,0 -0.1762601,-1.905e-4 -0.3465592,-0.030789 -0.505669,-0.08686 -0.00265,-0.00527 -0.00537,-0.010504 -0.00823,-0.015663 -0.00159,-5.291e-4 -0.00304,-7.937e-4 -0.00455,-0.00132 l 0.00212,-0.00344 C 2.6261051,4.5002088 2.562867,4.4230881 2.4797297,4.3733464 2.4191771,4.3383949 2.3508114,4.3192179 2.2809138,4.3175802 2.2467191,4.317051 2.2125746,4.3204641 2.1792477,4.328137 1.9289651,4.1128853 1.7474001,3.8169647 1.6775606,3.4748161 c -0.00365,-0.017886 -0.00299,-0.035314 0,-0.052052 -0.015002,-0.083852 -0.022939,-0.1688174 -0.023707,-0.254 7.937e-4,-0.083846 0.00836,-0.1674892 0.02286,-0.2500735 -0.0037,-0.017859 -0.00452,-0.036671 -5.292e-4,-0.055928 0.069884,-0.3423496 0.2516267,-0.6384184 0.502113,-0.8536913 0.1025631,0.023601 0.2102512,0.00757 0.3014927,-0.044889 0.081971,-0.049223 0.1445551,-0.1251056 0.1772735,-0.2149475 l -0.00323,-0.00564 c 0.00238,-7.938e-4 0.00492,-0.00159 0.00738,-0.00238 0.00299,-0.00537 0.00585,-0.010822 0.0086,-0.016351 0.1590675,-0.055832 0.3293163,-0.086215 0.5054574,-0.086225 z"
       style="color:#000000;display:inline;overflow:visible;visibility:visible;fill:url(#linearGradient2073);fill-opacity:1;fill-rule:nonzero;stroke:none;stroke-width:5.44515;stroke-linecap:butt;stroke-linejoin:miter;stroke-miterlimit:4;stroke-dasharray:none;stroke-dashoffset:0;stroke-opacity:1;marker:none;enable-background:accumulate"
       id="path3174" />
    <path
       d="m 3.1751257,1.3605352 c 0.8557445,0 1.5726198,0.5954025 1.7600057,1.394206 C 4.8365503,2.7662771 4.7453087,2.8125897 4.6777923,2.8853449 4.6150438,2.5547824 4.4449035,2.2509878 4.1889932,2.0245627 c -0.027115,-0.023998 -0.062516,-0.036468 -0.098684,-0.034774 -0.047329,0.00212 -0.090276,0.028377 -0.113964,0.069411 L 3.7614556,2.4313199 c -0.030792,0.053324 -0.02286,0.1205441 0.0195,0.1652402 0.1464943,0.1546278 0.2283087,0.3592751 0.2287453,0.5722726 -2.328e-4,0.2131166 -0.081907,0.4179596 -0.2284068,0.5727462 -0.04232,0.044685 -0.050247,0.1118684 -0.0195,0.1651767 l 0.2142781,0.3712342 c 0.043984,0.076189 0.1467617,0.092932 0.2126482,0.034639 C 4.4445937,4.0863545 4.6148398,3.7827345 4.677726,3.4523202 4.745242,3.5250752 4.8364813,3.57138 4.9350624,3.5829238 4.7476263,4.3816533 4.0308198,4.9769949 3.1751255,4.9769949 c -0.1813666,0 -0.3563964,-0.027003 -0.5216049,-0.076745 0.039394,-0.091167 0.044982,-0.1933945 0.015769,-0.2883111 0.1591098,0.056073 0.3294512,0.086678 0.5057113,0.086868 2.011e-4,0 5.292e-4,0 7.938e-4,0 0.1644729,-5.292e-4 0.3277473,-0.027845 0.483571,-0.080484 0.083182,-0.028083 0.1198669,-0.1252564 0.075999,-0.2013056 L 3.5208144,4.0453734 C 3.4899375,3.9919117 3.4275197,3.9651968 3.3675254,3.9797647 3.3044461,3.9950841 3.2397581,4.0029158 3.1748452,4.0032597 2.8055028,4.0029951 2.4814729,3.761203 2.3759332,3.407217 2.3583649,3.3482599 2.3041359,3.3078501 2.2426124,3.3078553 H 1.8139186 c -0.088016,-7.9e-6 -0.1539187,0.080701 -0.1363081,0.1669389 0.069839,0.3421486 0.2514203,0.6380612 0.5017029,0.853313 C 2.0823357,4.3499882 1.9963541,4.4057624 1.9368493,4.4854046 1.5863107,4.1555565 1.3670267,3.6877864 1.3670267,3.1687586 c 0,-0.5191284 0.2193661,-0.9869885 0.5700289,-1.3168472 0.059222,0.079349 0.1447271,0.135054 0.2412418,0.1571599 -0.2504863,0.2152729 -0.4322312,0.511302 -0.502113,0.8536517 -0.017621,0.086241 0.048292,0.1669521 0.1363107,0.1669415 h 0.4304586 c 0.061524,5.3e-6 0.1157419,-0.040404 0.1333208,-0.099362 0.1055079,-0.3538802 0.4294056,-0.5955401 0.7986395,-0.5960428 0.064871,2.646e-4 0.1295056,0.00818 0.1925453,0.023495 0.059992,0.014579 0.1224121,-0.012144 0.153289,-0.065606 L 3.7356376,1.9200284 C 3.7795531,1.8439237 3.7427813,1.7466708 3.6595011,1.718654 3.503553,1.6661634 3.3402045,1.6391679 3.1756602,1.6387155 c -1.456e-4,0 -2.646e-4,0 -5.292e-4,0 -0.1761384,1.06e-5 -0.346374,0.030424 -0.5054415,0.086254 C 2.6987165,1.6301985 2.6930525,1.5281882 2.6537355,1.437206 2.8188832,1.387501 2.9938442,1.360527 3.1751367,1.360527 Z m 0,1.2518523 c -0.3072791,0 -0.5563764,0.2490972 -0.5563764,0.5563764 -2.7e-6,0.3072818 0.2490973,0.556379 0.5563764,0.556379 0.3072791,0 0.5563764,-0.2490999 0.5563764,-0.556379 0,-0.3072792 -0.2490973,-0.5563764 -0.5563764,-0.5563764 z"
       style="color:#000000;display:inline;overflow:visible;visibility:visible;opacity:0.1;fill:#1463a5;fill-opacity:1;fill-rule:nonzero;stroke:none;stroke-width:1.38867;stroke-linecap:butt;stroke-linejoin:miter;stroke-miterlimit:4;stroke-dasharray:4.16605, 4.16605;stroke-dashoffset:0;stroke-opacity:1;marker:none;enable-background:accumulate"
       id="path3632" />
    <path
       d="m 2.2806815,1.3943226 c 0.070949,0.00336 0.1353077,0.0426 0.1708135,0.1041182 0.057599,0.099778 0.023415,0.2273585 -0.076342,0.2849805 -0.099776,0.057601 -0.2273559,0.023415 -0.2849779,-0.07634 -0.057646,-0.099794 -0.02347,-0.2274237 0.076337,-0.2850484 0.034616,-0.019977 0.074243,-0.029599 0.1141694,-0.02771 z m 2.7024918,1.5657681 c 0.1152309,0 0.2086405,0.09341 0.2086405,0.208638 0,0.115231 -0.09341,0.2086432 -0.2086405,0.2086432 -0.115231,0 -0.2086406,-0.093412 -0.2086406,-0.2086432 0,-0.1152284 0.09341,-0.208638 0.2086406,-0.208638 z M 2.2757236,4.5261275 c 0.034958,7.824e-4 0.06915,0.010424 0.099429,0.027914 0.099765,0.057622 0.1339411,0.1852022 0.076342,0.2849779 -0.057627,0.099765 -0.1852042,0.133941 -0.2849827,0.07634 C 2.0667469,4.8577374 2.0325735,4.730157 2.0901749,4.6303786 2.1283149,4.5643226 2.1994648,4.5243462 2.2757236,4.5261275 Z"
       style="display:inline;opacity:0.3;fill:#1463a5;fill-opacity:1;stroke:none;stroke-width:1.05832;stroke-linecap:round;stroke-linejoin:round;stroke-miterlimit:4;stroke-dasharray:none;stroke-dashoffset:0;stroke-opacity:1;enable-background:new"
       id="path3413" />
  </g>
  <path
     d="M 2.8728141,1.5875 C 2.7491161,1.8452095 2.6305801,2.1063718 2.5171902,2.3709551 2.403803,2.6321015 2.2886484,2.9070115 2.1718243,3.1956481 2.0584371,3.4842847 1.8213784,4.1130829 1.8213784,4.1130829 L 1.5538979,4.7625 H 2.232017 l 0.2982278,-0.8328157 1.28651,-0.027189 0.3373517,0.8600043 H 4.8294396 L 4.5369718,4.1233937 c 0,0 -0.2388023,-0.6271049 -0.3556291,-0.9123072 C 4.0679555,2.9224499 3.9545472,2.6458492 3.8411547,2.3812659 3.7277675,2.1166826 3.4804032,1.5875 3.4804032,1.5875 H 3.1749418 Z M 3.4190966,2.8915095 C 3.542792,3.1973282 3.5905122,3.2625056 3.7210788,3.6164282 L 2.6348822,3.6760256 C 2.7414008,3.3770808 2.7950213,3.2471942 2.9015399,2.9688658 2.9893366,2.7438879 3.0805781,2.5269032 3.1749418,2.3172473 v -0.00402 c 0,0 0.1383003,0.3170053 0.2441548,0.5782628 z"
     style="font-style:normal;font-variant:normal;font-weight:300;font-stretch:normal;font-size:196.248px;line-height:1000%;font-family:Ubuntu;-inkscape-font-specification:'Ubuntu Light';letter-spacing:0px;word-spacing:0px;display:inline;opacity:0.3;fill:#000000;fill-opacity:1;stroke:none;stroke-width:0.171805px;stroke-linecap:butt;stroke-linejoin:miter;stroke-opacity:1;enable-background:new"
     id="path3059" />
  <path
     d="M 2.8728723,1.3229167 C 2.749169,1.5806262 2.6306278,1.8417912 2.5172459,2.1063745 2.403856,2.3675209 2.2886961,2.6424204 2.1718588,2.9310808 2.0584663,3.2197148 1.8213917,3.8485235 1.8213917,3.8485235 L 1.5538979,4.4979433 H 2.232025 l 0.245327,-0.6741055 1.4188546,0.07878 0.2579688,0.5953125 H 4.8295243 L 4.5370539,3.858829 c 0,0 -0.2388103,-0.6271155 -0.3556529,-0.9123099 C 4.0680085,2.6578853 3.9545975,2.3812898 3.8411997,2.1167065 3.7278072,1.8521232 3.4804403,1.32293 3.4804403,1.32293 H 3.1749789 Z m 0.5463117,1.303999 c 0.1237007,0.3058055 0.2508171,0.635688 0.3813969,0.9896212 L 2.5820423,3.5701659 C 2.6885636,3.2712133 2.7950981,2.9826057 2.9016061,2.7042906 2.9894054,2.4793126 3.0806496,2.2623304 3.1750265,2.0526747 v -0.00402 c 0,0 0.1383057,0.3169973 0.2441628,0.5782734 z"
     style="fill:#f2f2f2;fill-opacity:1;stroke-width:0.264583;enable-background:new"
     id="path881"
     sodipodi:nodetypes="cccccccccccccccccccccccc" />
  <path
     d="M 3.4804403,1.32293 3.1818051,2.0571488 c 0,0 0.1357577,0.318664 0.2373365,0.5697801 C 3.5428423,2.9327344 3.6699561,3.2626168 3.8005385,3.61655 L 4.4524719,3.634145 C 4.3611271,3.393956 4.2707587,3.1645888 4.1814327,2.9465191 4.0680402,2.6578852 3.9546292,2.3812898 3.8412314,2.1167065 3.727839,1.8521231 3.4804721,1.32293 3.4804721,1.32293 Z M 3.3850793,3.8798898 3.9087426,3.9155158 4.1539585,4.497943 H 4.8288046 L 4.576326,3.9172091 4.570826,3.9026571 Z"
     style="opacity:0.15;fill:#1463a5;fill-opacity:1;stroke-width:0.264583;enable-background:new"
     id="path1100" />
  <path
     d="m 1.7197917,3.4395833 h 2.9104167 c 0.2198687,0 0.396875,0.1770063 0.396875,0.396875 0,0.2198688 -0.1770063,0.396875 -0.396875,0.396875 H 1.7197917 c -0.2198687,0 -0.396875,-0.1770062 -0.396875,-0.396875 0,-0.2198687 0.1770063,-0.396875 0.396875,-0.396875 z"
     style="fill:#000000;fill-opacity:1;stroke-width:0.140009;stroke-linecap:round;stroke-linejoin:round;opacity:0.3"
     id="path1857" />
  <path
     id="rect2923"
     style="fill:#f2f2f2;fill-opacity:1;stroke-width:0.529167;stroke-linecap:round;stroke-linejoin:round"
     d="m 1.7197917,3.175 h 2.9104167 c 0.2198687,0 0.396875,0.1770062 0.396875,0.396875 0,0.2198688 -0.1770063,0.396875 -0.396875,0.396875 H 1.7197917 c -0.2198687,0 -0.396875,-0.1770062 -0.396875,-0.396875 0,-0.2198688 0.1770063,-0.396875 0.396875,-0.396875 z"
     sodipodi:nodetypes="sssssss" />
  <path
     id="rect3110"
     style="opacity:0.65;fill:#72c1ec;fill-opacity:1;stroke-width:0.529167;stroke-linecap:round;stroke-linejoin:round"
     d="m 1.7197916,3.4395833 h 2.9104166 c 0.07329,0 0.1322917,0.059002 0.1322917,0.1322917 0,0.07329 -0.059002,0.1322917 -0.1322917,0.1322917 H 1.7197916 c -0.07329,0 -0.1322916,-0.059002 -0.1322916,-0.1322917 0,-0.07329 0.059002,-0.1322917 0.1322916,-0.1322917 z"
     sodipodi:nodetypes="sssssss" />
  <path
     id="path4344"
     style="opacity:0.4;fill:#000000;fill-opacity:1;stroke-width:1.6;stroke-linecap:round;stroke-linejoin:round"
     d="M 12,0 C 5.372583,1.2369363e-7 1.0909091e-7,5.372583 0,12 0,18.627416 5.372583,24 12,24 18.627417,24 24,18.627416 24,12 24,5.372583 18.627417,0 12,0 Z m 0,1 A 11,11 0 0 1 23,12 11,11 0 0 1 12,23 11,11 0 0 1 1,12 11,11 0 0 1 12,1 Z"
     transform="scale(0.26458333)" />
  <path
     id="path1110"
     style="fill:url(#linearGradient1198);fill-opacity:1;stroke-width:1;stroke-linecap:round;stroke-linejoin:round;opacity:0.6"
     d="m 12,1 c -6.0751324,-8e-8 -11.00000008,4.9248676 -11,11 2e-7,6.075132 4.9248676,11 11,11 6.075132,0 11,-4.924868 11,-11 C 23,5.9248676 18.075132,1.0000002 12,1 Z m 0,1 C 17.522848,2 22,6.4771525 22,12 22,17.522847 17.522847,22 12,22 6.4771525,22 2,17.522848 2,12 1.9999996,6.4771525 6.4771525,1.9999996 12,2 Z"
     transform="scale(0.26458333)" />
</svg>
