<?xml version="1.0" encoding="UTF-8" standalone="no"?>
<!-- Created with Inkscape (http://www.inkscape.org/) -->

<svg
   width="24"
   height="24"
   viewBox="0 0 6.35 6.35"
   version="1.1"
   id="svg5"
   sodipodi:docname="system-config-users.svg"
   inkscape:version="1.1.2 (0a00cf5339, 2022-02-04, custom)"
   xmlns:inkscape="http://www.inkscape.org/namespaces/inkscape"
   xmlns:sodipodi="http://sodipodi.sourceforge.net/DTD/sodipodi-0.dtd"
   xmlns:xlink="http://www.w3.org/1999/xlink"
   xmlns="http://www.w3.org/2000/svg"
   xmlns:svg="http://www.w3.org/2000/svg">
  <sodipodi:namedview
     id="namedview7"
     pagecolor="#ffffff"
     bordercolor="#666666"
     borderopacity="1.0"
     inkscape:pageshadow="2"
     inkscape:pageopacity="0.0"
     inkscape:pagecheckerboard="0"
     inkscape:document-units="px"
     showgrid="false"
     units="px"
     height="48px"
     showguides="false"
     inkscape:zoom="16.875"
     inkscape:cx="4.7703704"
     inkscape:cy="17.451852"
     inkscape:window-width="1920"
     inkscape:window-height="1006"
     inkscape:window-x="0"
     inkscape:window-y="0"
     inkscape:window-maximized="1"
     inkscape:current-layer="svg5" />
  <defs
     id="defs2">
    <linearGradient
       inkscape:collect="always"
       id="linearGradient1871">
      <stop
         style="stop-color:#ffffff;stop-opacity:1;"
         offset="0"
         id="stop1867" />
      <stop
         style="stop-color:#ffffff;stop-opacity:0.1"
         offset="0.12"
         id="stop2515" />
      <stop
         style="stop-color:#ffffff;stop-opacity:0.102"
         offset="0.89999998"
         id="stop2581" />
      <stop
         style="stop-color:#ffffff;stop-opacity:0.502"
         offset="1"
         id="stop1869" />
    </linearGradient>
    <linearGradient
       inkscape:collect="always"
       xlink:href="#linearGradient1871"
       id="linearGradient1198"
       x1="6.3499999"
       y1="0.52916658"
       x2="6.3499994"
       y2="12.170834"
       gradientUnits="userSpaceOnUse"
       gradientTransform="scale(1.8897639)" />
    <linearGradient
       inkscape:collect="always"
       id="linearGradient2290">
      <stop
         style="stop-color:#8c59d9;stop-opacity:1"
         offset="0"
         id="stop2286" />
      <stop
         style="stop-color:#a7a7f1;stop-opacity:1"
         offset="1"
         id="stop2288" />
    </linearGradient>
    <linearGradient
       inkscape:collect="always"
       xlink:href="#linearGradient2290"
       id="linearGradient1003"
       x1="3.175"
       y1="6.0854168"
       x2="3.175"
       y2="0.26458332"
       gradientUnits="userSpaceOnUse" />
  </defs>
  <circle
     style="fill:url(#linearGradient1003);fill-opacity:1;stroke-width:0.270463;stroke-linecap:round;stroke-linejoin:round"
     id="path986"
     cx="3.175"
     cy="3.175"
     r="3.0427084" />
  <path
     d="m 3.8722266,1.3446915 c -0.1263741,0 -0.2455102,0.023469 -0.3549283,0.070739 l -2.177e-4,7.62e-5 -1.395e-4,7.41e-5 C 3.4081328,1.4604962 3.312387,1.5262254 3.2323234,1.611308 l -1.393e-4,1.393e-4 -6.533e-4,8.724e-4 -2.177e-4,2.178e-4 C 3.1533461,1.6980717 3.0928846,1.8010902 3.0500667,1.9191246 v 8.27e-5 l -8.27e-5,1.438e-4 C 3.006645,2.0367865 2.98537,2.1660154 2.98537,2.3054608 c 0,0.1415272 0.021209,0.2716835 0.064614,0.3892889 0.042892,0.1161879 0.1034213,0.2180959 0.1813182,0.3035618 l 2.178e-4,2.178e-4 4.355e-4,6.531e-4 1.437e-4,1.437e-4 8.06e-5,8.28e-5 c 0.080038,0.085087 0.1755741,0.1518941 0.2841822,0.1989689 l 2.177e-4,8.28e-5 2.178e-4,2.178e-4 2.176e-4,1.414e-4 2.178e-4,8.28e-5 c 0.1093789,0.045037 0.2283736,0.067282 0.3546453,0.067282 0.1262783,0 0.2453361,-0.022245 0.3547107,-0.067282 l 6.532e-4,-2.177e-4 4.355e-4,-2.178e-4 C 4.336449,3.1513226 4.4311452,3.0841279 4.5092033,2.9985619 l 1.437e-4,-1.459e-4 8.06e-5,-8.28e-5 C 4.589452,2.9129655 4.6513031,2.8109855 4.6942037,2.6947716 4.7376179,2.577166 4.758677,2.4470185 4.758677,2.3054826 4.758677,2.1662418 4.737555,2.0372177 4.694348,1.9199389 L 4.6941299,1.9190665 C 4.6512965,1.801014 4.589587,1.6979889 4.5094951,1.6125448 l -8.06e-5,-8.27e-5 -1.415e-4,-1.372e-4 C 4.4311691,1.5267088 4.3361789,1.4605919 4.2271811,1.4155901 l -2.177e-4,-7.4e-5 -1.394e-4,-7.41e-5 C 4.1176215,1.3682692 3.9986464,1.3447852 3.8725489,1.3447089 Z m -4.354e-4,0.1507031 h 4.354e-4 c 0.1082206,0 0.2061677,0.019706 0.2960059,0.058639 l 2.177e-4,8.05e-5 2.178e-4,1.46e-4 2.177e-4,1.372e-4 2.178e-4,8.49e-5 c 0.09003,0.037069 0.1656513,0.089823 0.2291575,0.1594913 l 2.177e-4,2.178e-4 6.532e-4,8.724e-4 c 0.065537,0.069792 0.1166757,0.1542827 0.1534402,0.255875 l 6.531e-4,0.00175 2.178e-4,0.00109 v 1.459e-4 c 0.035894,0.098167 0.054461,0.2082058 0.054461,0.3315205 0,0.1265787 -0.018857,0.2384552 -0.055251,0.3370731 -0.036713,0.099439 -0.087787,0.1831472 -0.1535861,0.253214 l -2.178e-4,2.177e-4 -4.355e-4,6.532e-4 -2.178e-4,2.178e-4 c -0.063478,0.069641 -0.1392651,0.1234569 -0.2292885,0.162658 l -2.177e-4,1.459e-4 -2.177e-4,8.27e-5 c -0.089947,0.036943 -0.1881774,0.055756 -0.2966592,0.055756 -0.1084709,0 -0.2067011,-0.018814 -0.2966591,-0.055756 l -2.178e-4,-8.27e-5 -2.177e-4,-1.459e-4 C 3.4847058,3.0202844 3.407682,2.9662917 3.3419027,2.8964535 L 3.3417611,2.8963098 3.3416196,2.896164 C 3.2779284,2.8261211 3.2276484,2.7422165 3.1908447,2.6425317 3.1544418,2.5439291 3.1355935,2.4320461 3.1355935,2.3054587 c 0,-0.1235521 0.018639,-0.2338608 0.054677,-0.3321738 l 2.178e-4,-0.00152 1.415e-4,-2.178e-4 1.416e-4,-6.532e-4 C 3.2276361,1.8690354 3.2779533,1.7843687 3.3414,1.7145807 l 1.438e-4,-1.372e-4 1.415e-4,-1.437e-4 C 3.4075014,1.6444373 3.4843011,1.5915011 3.5742832,1.554447 l 6.531e-4,-1.437e-4 8.28e-5,-8.49e-5 4.355e-4,-1.437e-4 c 0.089732,-0.038892 0.1875742,-0.058602 0.2956357,-0.058639 z M 2.040622,1.7875898 c -0.095711,0 -0.1866116,0.017899 -0.269985,0.053884 l -1.415e-4,8.48e-5 -1.35e-4,8.28e-5 c -0.082921,0.034245 -0.1562991,0.084553 -0.2173381,0.149477 l -2.178e-4,2.178e-4 -1.349e-4,1.458e-4 -1.394e-4,1.438e-4 -2.177e-4,2.177e-4 C 1.4927369,2.057185 1.4467095,2.1358224 1.4142868,2.2253123 l -1.371e-4,2.178e-4 c -2.62e-5,2.61e-5 -2.62e-5,1.372e-4 -8.28e-5,1.436e-4 -0.032761,0.089035 -0.048696,0.1866271 -0.048696,0.2913897 0,0.1065439 0.015982,0.2051661 0.048982,0.2945688 0.032482,0.087966 0.078567,0.1656666 0.137956,0.2308123 l 2.177e-4,2.177e-4 4.356e-4,6.533e-4 c 0.060985,0.064863 0.1340736,0.1158809 0.2167611,0.1517112 l 1.393e-4,8.27e-5 0.0013,6.533e-4 8.06e-5,8.06e-5 c 0.083223,0.034194 0.1738147,0.051005 0.2692665,0.051005 0.095491,0 0.1859606,-0.016788 0.2692012,-0.051005 2.61e-5,-2.4e-5 1.394e-4,-2.4e-5 1.437e-4,-8.06e-5 l 8.724e-4,-4.355e-4 6.533e-4,-2.178e-4 c 0.082744,-0.035857 0.1552063,-0.087125 0.214745,-0.1523622 l 1.415e-4,-1.437e-4 8.28e-5,-1.459e-4 c 0.060946,-0.065047 0.1080645,-0.1427422 0.1405503,-0.2307252 0.033008,-0.089396 0.048912,-0.1880185 0.048912,-0.2945688 0,-0.1048498 -0.015961,-0.2025204 -0.048766,-0.2916074 l -8.82e-5,-2.177e-4 C 2.6344869,2.1357115 2.5874383,2.057024 2.5261968,1.9917172 l -1.394e-4,-1.437e-4 -8.49e-5,-1.459e-4 C 2.4664163,1.926234 2.3936931,1.875758 2.3107966,1.8415194 l -1.393e-4,-8.28e-5 -1.438e-4,-8.49e-5 C 2.2271249,1.805349 2.136309,1.7874507 2.0405938,1.7874507 Z m -0.00439,0.150775 h 0.00439 c 0.077556,0 0.1471364,0.014066 0.2109256,0.04171 l 2.177e-4,8.27e-5 4.355e-4,1.437e-4 6.532e-4,2.178e-4 c 0.063891,0.026302 0.1170958,0.063538 0.1620129,0.1127408 l 2.177e-4,2.178e-4 2.177e-4,1.437e-4 6.533e-4,6.533e-4 c 0.046574,0.049532 0.082964,0.1097099 0.1093527,0.1826161 l 2.178e-4,0.00109 c 0.025904,0.070395 0.039404,0.1497798 0.039404,0.2393915 0,0.091582 -0.013544,0.1719422 -0.039548,0.2423313 -0.026335,0.071319 -0.062842,0.1308226 -0.1096424,0.1805996 l -2.177e-4,2.178e-4 -2.178e-4,1.437e-4 -1.394e-4,1.459e-4 -2.177e-4,2.177e-4 c -0.045048,0.049414 -0.098764,0.087423 -0.1628773,0.1153322 l -2.178e-4,1.437e-4 -2.177e-4,8.28e-5 c -0.06377,0.026096 -0.1334813,0.039621 -0.2111431,0.039621 -0.077685,0 -0.1474827,-0.0135 -0.2112847,-0.039621 l -2.175e-4,-8.2e-5 -2.178e-4,-1.436e-4 C 1.7647077,3.0284761 1.7101838,2.9902701 1.6634444,2.9407369 l -1.373e-4,-1.438e-4 -1.394e-4,-1.459e-4 c -0.045211,-0.049719 -0.0812,-0.1092483 -0.1076238,-0.1808131 -0.025996,-0.070443 -0.039548,-0.150825 -0.039548,-0.2423965 0,-0.089718 0.0135,-0.1692072 0.039475,-0.2396746 2.61e-5,-1.393e-4 2.61e-5,-2.177e-4 8.27e-5,-4.354e-4 l 8.5e-5,-8.5e-5 8.05e-5,-2.177e-4 c 0.026481,-0.073156 0.062501,-0.1333595 0.107481,-0.1828317 l 1.394e-4,-1.437e-4 1.349e-4,-1.459e-4 c 0.046663,-0.049435 0.1008368,-0.086931 0.1647521,-0.1132417 l 4.355e-4,-1.46e-4 6.533e-4,-2.177e-4 c 0.062136,-0.026926 0.1301716,-0.040421 0.2053076,-0.041133 z m 1.8569467,1.6531604 c -0.6646306,0 -1.0697715,0.060605 -1.3229683,0.2482322 -0.1261808,0.093507 -0.2091317,0.2203168 -0.256814,0.3720868 -0.045888,0.1460497 -0.061037,0.3291906 -0.06267,0.5279941 l 0.1507727,4.354e-4 c 0.00174,-0.1904702 0.01705,-0.3599583 0.055759,-0.4831162 0.040272,-0.1281705 0.1024915,-0.2218848 0.202786,-0.2962237 0.2016995,-0.1494749 0.578468,-0.2186402 1.2331475,-0.2186402 0.6546795,0 1.0314044,0.069187 1.2329297,0.2186402 0.1001942,0.074308 0.162322,0.1679944 0.2024246,0.2961365 0.038533,0.1231515 0.053627,0.292609 0.055035,0.483051 L 5.5343558,4.7399798 C 5.5332674,4.5411502 5.5181775,4.3581161 5.4724745,4.212051 5.4249838,4.060281 5.3419872,3.933356 5.2158809,3.8398336 4.9628148,3.6521657 4.5578262,3.5916015 3.8931957,3.5916015 Z M 1.9957879,3.5599496 C 1.5246259,3.5614722 1.2463012,3.6072769 1.0574923,3.7481227 0.96196217,3.8193848 0.89848656,3.9177066 0.86284783,4.0332412 0.82708496,4.1492026 0.81587751,4.2829758 0.81552478,4.4410386 V 4.6664291 H 0.96622781 V 4.4412563 C 0.96644552,4.2906187 0.97829105,4.1702914 1.0068573,4.0776834 1.0352668,3.9855828 1.0782305,3.9207006 1.1475461,3.8689921 1.2853412,3.7662023 1.535289,3.7125601 1.9958031,3.7107855 Z"
     style="color:#000000;font-variant-ligatures:normal;font-variant-position:normal;font-variant-caps:normal;font-variant-numeric:normal;font-variant-alternates:normal;font-feature-settings:normal;text-indent:0;text-decoration-line:none;text-decoration-style:solid;text-decoration-color:#000000;text-transform:none;text-orientation:mixed;dominant-baseline:auto;white-space:normal;shape-padding:0;isolation:auto;mix-blend-mode:normal;solid-color:#000000;fill:#ffffff;stroke:#ffffff;stroke-width:0.0435496;color-rendering:auto;image-rendering:auto;shape-rendering:auto"
     id="path986-3" />
  <path
     id="path4344"
     style="opacity:0.4;fill:#000000;fill-opacity:1;stroke-width:1.6;stroke-linecap:round;stroke-linejoin:round"
     d="M 12,0 C 5.372583,1.2369363e-7 1.0909091e-7,5.372583 0,12 0,18.627416 5.372583,24 12,24 18.627417,24 24,18.627416 24,12 24,5.372583 18.627417,0 12,0 Z m 0,1 A 11,11 0 0 1 23,12 11,11 0 0 1 12,23 11,11 0 0 1 1,12 11,11 0 0 1 12,1 Z"
     transform="scale(0.26458333)" />
  <path
     id="path1110"
     style="fill:url(#linearGradient1198);fill-opacity:1;stroke-width:1;stroke-linecap:round;stroke-linejoin:round"
     d="m 12,1 c -6.0751324,-8e-8 -11.00000008,4.9248676 -11,11 2e-7,6.075132 4.9248676,11 11,11 6.075132,0 11,-4.924868 11,-11 C 23,5.9248676 18.075132,1.0000002 12,1 Z m 0,1 C 17.522848,2 22,6.4771525 22,12 22,17.522847 17.522847,22 12,22 6.4771525,22 2,17.522848 2,12 1.9999996,6.4771525 6.4771525,1.9999996 12,2 Z"
     transform="scale(0.26458333)" />
</svg>
