<svg width="16" height="16" version="1.1" xmlns="http://www.w3.org/2000/svg" xmlns:xlink="http://www.w3.org/1999/xlink">
 <defs>
  <linearGradient id="linearGradient920-3" x1="459.03" x2="35.31" y1="419.23" y2="207.37" gradientTransform="matrix(0 -.036044 -.036043 0 19.564 16.909)" gradientUnits="userSpaceOnUse">
   <stop stop-color="#ff7c00" offset="0"/>
   <stop stop-color="#ffb977" offset="1"/>
  </linearGradient>
  <linearGradient id="linearGradient1309" x1="332" x2="324" y1="236" y2="252" gradientTransform="matrix(-1,0,0,1,336,-236)" gradientUnits="userSpaceOnUse">
   <stop stop-color="#261300" offset="0"/>
   <stop stop-color="#4e2e0e" offset="1"/>
  </linearGradient>
  <linearGradient id="linearGradient993-6" x1="328" x2="328" y1="237" y2="251" gradientUnits="userSpaceOnUse">
   <stop stop-color="#fff" offset="0"/>
   <stop stop-color="#fff" stop-opacity=".098039" offset=".125"/>
   <stop stop-color="#fff" stop-opacity=".098039" offset=".925"/>
   <stop stop-color="#fff" stop-opacity=".49804" offset="1"/>
  </linearGradient>
  <clipPath id="clipPath983-7">
   <path d="m325.1 237c-2.8077 0-3.1098 0.28839-3.096 3.1018v3.8982 3.8982c-0.0138 2.8134 0.28834 3.1018 3.096 3.1018h5.8075c2.8077 0 3.096-0.28835 3.096-3.1018v-3.8982-3.8982c0-2.8134-0.28835-3.1018-3.096-3.1018z" color="#000000" fill="#46a926"/>
  </clipPath>
 </defs>
 <path d="m5.0957 1c-0.71904 0-1.3018 0.0139-1.8359 0.10352-0.53409 0.0897-1.0683 0.27628-1.4766 0.68359-0.40826 0.4073-0.59657 0.94323-0.68554 1.4785-0.089 0.53529-0.10119 1.1205-0.0977 1.8418v2.8926 3.8984c-3e-3 0.71816 9e-3 1.3024 0.0977 1.8359 0.089 0.53528 0.27727 1.0712 0.68554 1.4785 0.40827 0.40731 0.94248 0.59394 1.4766 0.68359 0.53408 0.0897 1.1169 0.10352 1.8359 0.10352h5.8086c0.71904 0 1.3006-0.0137 1.834-0.10352 0.53341-0.0898 1.0677-0.27792 1.4746-0.68554s0.59404-0.94271 0.68359-1.4766c0.08956-0.53386 0.10352-1.1155 0.10352-1.8359v-3.8984-2.8984c0-0.72043-0.014-1.3021-0.10352-1.8359-0.0895-0.53385-0.27666-1.0689-0.68359-1.4766s-0.9412-0.59578-1.4746-0.68554c-0.5334-0.08977-1.1149-0.10352-1.834-0.10352z" color="#000000" color-rendering="auto" dominant-baseline="auto" image-rendering="auto" opacity=".1" shape-rendering="auto" solid-color="#000000" style="font-feature-settings:normal;font-variant-alternates:normal;font-variant-caps:normal;font-variant-ligatures:normal;font-variant-numeric:normal;font-variant-position:normal;isolation:auto;mix-blend-mode:normal;shape-padding:0;text-decoration-color:#000000;text-decoration-line:none;text-decoration-style:solid;text-indent:0;text-orientation:mixed;text-transform:none;white-space:normal"/>
 <path d="m10.904 0.5c0.71048 0 1.2734 0.0154 1.752 0.0957s0.89671 0.23728 1.207 0.54688c0.31032 0.30959 0.46726 0.7261 0.54688 1.2051 0.0796 0.47897 0.0933 1.0435 0.0898 1.7559v3.8965 3.8984c3e-3 0.71121-0.0103 1.2755-0.0898 1.7539-0.0796 0.47898-0.23655 0.89549-0.54688 1.2051-0.31033 0.3096-0.72851 0.46655-1.207 0.54688-0.47852 0.0803-1.0415 0.0957-1.752 0.0957h-5.8086c-0.71048 0-1.2724-0.0153-1.75-0.0957-0.47763-0.0804-0.89584-0.23713-1.2051-0.54688-0.30921-0.30975-0.46469-0.72681-0.54492-1.2051-0.0802-0.47826-0.0957-1.042-0.0957-1.7539v-3.8984-3.8984c0-0.71189 0.0155-1.2756 0.0957-1.7539 0.0802-0.47827 0.2357-0.89533 0.54492-1.2051 0.30924-0.30975 0.72745-0.4665 1.2051-0.54688 0.47764-0.0804 1.0395-0.0957 1.75-0.0957z" color="#000000" fill="url(#linearGradient920-3)"/>
 <path d="m10.904 2c0.6888 0 1.1839 0.0205 1.5039 0.0742 0.30449 0.0511 0.38369 0.11806 0.39649 0.13086 0.0131 0.0131 0.0746 0.0855 0.125 0.38867 0.0529 0.31839 0.0733 0.81274 0.0703 1.502v4e-3 3.9004 3.9023 2e-3c3e-3 0.68916-0.0176 1.185-0.0703 1.502-0.0504 0.30317-0.1119 0.37557-0.125 0.38867-0.0128 0.0128-0.0918 0.0798-0.39649 0.13086-0.32002 0.0537-0.8151 0.0742-1.5039 0.0742h-2.9043-2.9043c-0.68894 0-1.1835-0.0206-1.502-0.0742-9.1e-4 -1.5e-4 -1e-3 1.6e-4 -2e-3 0-0.30469-0.0511-0.38369-0.11806-0.39649-0.13086-0.0131-0.0131-0.0746-0.0855-0.125-0.38867-0.0527-0.317-0.0733-0.81279-0.0703-1.502v-2e-3 -4e-3 -3.8984-3-0.90039-4e-3c-3e-3 -0.68921 0.0174-1.1836 0.0703-1.502 0.0504-0.30317 0.1119-0.37557 0.125-0.38867 0.0128-0.0128 0.092-0.0798 0.39649-0.13086 0.32-0.0537 0.8151-0.0742 1.5039-0.0742h0.90435 2z" color="#000000" color-rendering="auto" dominant-baseline="auto" fill="url(#linearGradient1309)" image-rendering="auto" shape-rendering="auto" solid-color="#000000" style="font-feature-settings:normal;font-variant-alternates:normal;font-variant-caps:normal;font-variant-ligatures:normal;font-variant-numeric:normal;font-variant-position:normal;isolation:auto;mix-blend-mode:normal;shape-padding:0;text-decoration-color:#000000;text-decoration-line:none;text-decoration-style:solid;text-indent:0;text-orientation:mixed;text-transform:none;white-space:normal"/>
 <path class="st1" d="m6.165 8.925-0.395 1.5c-0.01 0.04-0.025 0.05-0.075 0.05h-0.735c-0.05 0-0.06-0.015-0.05-0.075l1.42-4.97c0.025-0.09 0.04-0.17 0.05-0.415 0-0.035 0.015-0.05 0.04-0.05h1.05c0.035 0 0.05 0.01 0.06 0.05l1.59 5.395c0.01 0.04 0 0.065-0.04 0.065h-0.83c-0.04 0-0.065-0.01-0.075-0.045l-0.415-1.505zm1.39-0.81c-0.14-0.555-0.47-1.765-0.595-2.35h-0.01c-0.105 0.585-0.37 1.575-0.58 2.35zm2.25-2.78c0-0.32 0.225-0.51 0.51-0.51 0.305 0 0.51 0.205 0.51 0.51 0 0.33-0.215 0.51-0.52 0.51-0.29 0-0.5-0.18-0.5-0.51zm0.06 1.135c0-0.04 0.015-0.06 0.06-0.06h0.785c0.04 0 0.06 0.015 0.06 0.06v3.945c0 0.04-0.01 0.06-0.06 0.06h-0.775c-0.05 0-0.065-0.025-0.065-0.065v-3.94z" enable-background="new" fill="#ff7c00" stroke-width=".05"/>
 <path d="m 8,1 v 14 h 2.9043 C 13.712,15 14,14.71185 14,11.89844 V 8 4.10156 C 14,1.28816 13.71199,1 10.9043,1 Z" color="#000000" fill="#fff" opacity=".05"/>
 <path d="m 2,8 v 3.89844 C 1.9862,14.71181 2.28801,15 5.0957,15 h 5.8086 C 13.712,15 14,14.71185 14,11.89844 V 8 Z" color="#000000" fill="#fff" opacity=".05"/>
 <path d="m5.0957 0.5c-0.71048 0-1.2734 0.0154-1.752 0.0957s-0.89671 0.23728-1.207 0.54688c-0.31032 0.30959-0.46726 0.7261-0.54688 1.2051-0.0796 0.47897-0.0933 1.0435-0.0898 1.7559v3.8965 3.8984c-3e-3 0.71121 0.0103 1.2755 0.0898 1.7539 0.0796 0.47898 0.23655 0.89549 0.54688 1.2051 0.31033 0.3096 0.72851 0.46655 1.207 0.54688 0.47852 0.0803 1.0415 0.0957 1.752 0.0957h5.8086c0.71048 0 1.2724-0.0153 1.75-0.0957 0.47763-0.0804 0.89584-0.23713 1.2051-0.54688 0.30921-0.30975 0.46469-0.72681 0.54492-1.2051 0.0802-0.47826 0.0957-1.042 0.0957-1.7539v-3.8984-3.8984c0-0.71189-0.0155-1.2756-0.0957-1.7539-0.0802-0.47827-0.2357-0.89533-0.54492-1.2051-0.30924-0.30975-0.72745-0.4665-1.2051-0.54688-0.47764-0.0804-1.0395-0.0957-1.75-0.0957z" color="#000000" fill="none" opacity=".3" stroke="#000"/>
 <path transform="matrix(-1,0,0,1,336,-236)" d="m325.1 237c-2.8077 0-3.1098 0.28839-3.096 3.1018v3.8982 3.8982c-0.0138 2.8134 0.28834 3.1018 3.096 3.1018h5.8075c2.8077 0 3.096-0.28835 3.096-3.1018v-3.8982-3.8982c0-2.8134-0.28835-3.1018-3.096-3.1018z" clip-path="url(#clipPath983-7)" color="#000000" fill="none" opacity=".4" stroke="url(#linearGradient993-6)" stroke-width="2"/>
</svg>
