<?xml version="1.0" encoding="UTF-8" standalone="no"?>
<!-- Created with Inkscape (http://www.inkscape.org/) -->

<svg
   width="16"
   height="16"
   viewBox="0 0 4.2333333 4.2333333"
   version="1.1"
   id="svg1003"
   sodipodi:docname="application-x-executable.svg"
   inkscape:version="1.1.2 (0a00cf5339, 2022-02-04)"
   xmlns:inkscape="http://www.inkscape.org/namespaces/inkscape"
   xmlns:sodipodi="http://sodipodi.sourceforge.net/DTD/sodipodi-0.dtd"
   xmlns:xlink="http://www.w3.org/1999/xlink"
   xmlns="http://www.w3.org/2000/svg"
   xmlns:svg="http://www.w3.org/2000/svg">
  <sodipodi:namedview
     id="namedview1005"
     pagecolor="#ffffff"
     bordercolor="#666666"
     borderopacity="1.0"
     inkscape:pageshadow="2"
     inkscape:pageopacity="0.0"
     inkscape:pagecheckerboard="0"
     inkscape:document-units="px"
     showgrid="false"
     units="px"
     showguides="true"
     inkscape:lockguides="true"
     inkscape:zoom="33.941126"
     inkscape:cx="6.6143946"
     inkscape:cy="9.0450741"
     inkscape:window-width="1920"
     inkscape:window-height="995"
     inkscape:window-x="0"
     inkscape:window-y="0"
     inkscape:window-maximized="1"
     inkscape:current-layer="svg1003" />
  <defs
     id="defs1000">
    <linearGradient
       inkscape:collect="always"
       id="linearGradient1083">
      <stop
         style="stop-color:#f1f0e9;stop-opacity:1"
         offset="0"
         id="stop1079" />
      <stop
         style="stop-color:#faf8f6;stop-opacity:1"
         offset="1"
         id="stop1081" />
    </linearGradient>
    <linearGradient
       inkscape:collect="always"
       id="linearGradient1871">
      <stop
         style="stop-color:#ffffff;stop-opacity:1;"
         offset="0"
         id="stop1867" />
      <stop
         style="stop-color:#ffffff;stop-opacity:0.1"
         offset="0.12"
         id="stop2515" />
      <stop
         style="stop-color:#ffffff;stop-opacity:0.102"
         offset="0.89999998"
         id="stop2581" />
      <stop
         style="stop-color:#ffffff;stop-opacity:0.502"
         offset="1"
         id="stop1869" />
    </linearGradient>
    <linearGradient
       inkscape:collect="always"
       xlink:href="#linearGradient1871"
       id="linearGradient891"
       x1="1.1761556"
       y1="0.26459649"
       x2="1.1761556"
       y2="3.9687631"
       gradientUnits="userSpaceOnUse" />
    <linearGradient
       inkscape:collect="always"
       id="linearGradient1753">
      <stop
         style="stop-color:#6b6b6b;stop-opacity:1"
         offset="0"
         id="stop1749" />
      <stop
         style="stop-color:#c7c7c7;stop-opacity:1"
         offset="1"
         id="stop1751" />
    </linearGradient>
    <linearGradient
       inkscape:collect="always"
       xlink:href="#linearGradient1753"
       id="linearGradient2833"
       x1="4.3656263"
       y1="4.2333331"
       x2="0.11782227"
       y2="1.32e-05"
       gradientUnits="userSpaceOnUse" />
    <linearGradient
       inkscape:collect="always"
       xlink:href="#linearGradient1083"
       id="linearGradient1688"
       gradientUnits="userSpaceOnUse"
       x1="2.1166666"
       y1="1.8897639e-08"
       x2="2.1166666"
       y2="13.439584"
       gradientTransform="matrix(0.26458333,0,0,0.26458333,0.7918944,0.79211691)" />
  </defs>
  <path
     d="m 1.0923594,0.2645965 c -0.99048625,0 -1.09706305,0.081754 -1.09220794549,0.8792925 V 2.2489715 3.3540514 C -0.00468855,4.1515929 0.10187315,4.2333465 1.0923594,4.2333465 h 2.0487614 c 0.9904941,0 1.0922132,-0.081743 1.0922132,-0.8792951 V 2.2489715 1.143889 c 0,-0.7975521 -0.1017217,-0.8792925 -1.0922132,-0.8792925 z"
     style="color:#000000;display:inline;overflow:visible;visibility:visible;opacity:0.1;fill:#000000;fill-opacity:1;fill-rule:nonzero;stroke:none;stroke-width:0.264583;marker:none;enable-background:accumulate"
     id="path1314" />
  <path
     d="m 1.1563807,0.1322916 c -0.92858435,0 -1.02849895,0.081754 -1.02394555,0.8792925 v 1.1050825 1.1050799 c -0.004551,0.7975415 0.0953612,0.8792951 1.02394555,0.8792951 h 1.9207136 c 0.9285843,0 1.023948,-0.081743 1.023948,-0.8792951 V 2.1166666 1.0115841 c 0,-0.7975494 -0.095366,-0.8792925 -1.023948,-0.8792925 z"
     style="color:#000000;display:inline;overflow:visible;visibility:visible;fill:url(#linearGradient2833);fill-opacity:1;fill-rule:nonzero;stroke:none;stroke-width:0.265859;marker:none;enable-background:accumulate"
     id="path908" />
  <path
     d="m 2.1138106,3.7017829 1.323e-4,-1.323e-4 c -0.047546,7.937e-4 -0.079756,-1.323e-4 -0.1016317,-0.015452 -0.021881,-0.015134 -0.033605,-0.04482 -0.040293,-0.1023408 l -0.00495,-0.040585 c -0.00585,-0.037298 -0.00929,-0.064191 -0.020161,-0.084246 -0.00545,-0.010028 -0.012991,-0.018256 -0.023283,-0.025135 -0.010266,-0.00683 -0.023707,-0.012647 -0.04119,-0.017198 -0.00458,-0.00106 -0.00976,-0.00212 -0.014314,-0.00307 -0.00106,-1.323e-4 -0.00238,-7.938e-4 -0.00315,-0.00106 -0.017674,-0.00426 -0.035512,-0.00897 -0.052832,-0.014102 -0.00275,-0.00106 -0.00542,-0.00185 -0.00804,-0.00265 -0.00238,-7.938e-4 -0.00553,-0.00132 -0.00804,-0.00212 -0.070472,-0.019579 -0.08949,0.00825 -0.1369986,0.067045 l -0.024633,0.032644 c -0.034541,0.046466 -0.059463,0.066223 -0.085963,0.068374 -0.00328,1.349e-4 -0.00693,1.349e-4 -0.010292,0 -0.00712,-2.196e-4 -0.015081,-0.00437 -0.022834,-0.00704 -0.00426,-0.00132 -0.00844,-0.00185 -0.012991,-0.00397 -0.00995,-0.00452 -0.021749,-0.010848 -0.033578,-0.017648 -0.00553,-0.0032 -0.010028,-0.00519 -0.016113,-0.00884 -0.015875,-0.00889 -0.029546,-0.01696 -0.041193,-0.024712 v -0.00106 c -0.047586,-0.032211 -0.059037,-0.06203 -0.02239,-0.1468735 l 0.015663,-0.037931 c 0.013864,-0.036047 0.023072,-0.06106 0.023283,-0.084256 1.323e-4,-0.015531 -0.00439,-0.030141 -0.01569,-0.045876 -0.00751,-0.01061 -0.01606,-0.021405 -0.030446,-0.033967 l 0.00185,5.291e-4 c -0.013914,-0.013203 -0.027543,-0.026644 -0.04074,-0.040585 l 5.292e-4,0.00185 C 1.2846885,3.0439837 1.2550658,3.0592237 1.179215,3.088439 L 1.141607,3.104314 C 1.108402,3.118654 1.083462,3.125798 1.063708,3.12638 1.020234,3.1277 1.001293,3.097368 0.969236,3.040369 0.920778,2.958502 0.906797,2.927728 0.999682,2.8586241 l 0.032681,-0.024712 c 0.058933,-0.047654 0.087045,-0.066699 0.067159,-0.137631 -0.00106,-0.00265 -0.00132,-0.00532 -0.00212,-0.00794 -0.00106,-0.00288 -0.00159,-0.00503 -0.0027,-0.00794 h 5.292e-4 c -1.323e-4,-0.00106 -5.292e-4,-0.00185 -0.00106,-0.00307 -0.00484,-0.016484 -0.00937,-0.033062 -0.013414,-0.049842 v -2.196e-4 c -1.323e-4,-0.00106 -5.292e-4,-0.00185 -7.938e-4,-0.00265 -2.91e-5,-9.26e-5 2.65e-5,-1.323e-4 0,-2.222e-4 -0.00106,-0.00458 -0.00185,-0.0091 -0.00315,-0.013679 -2.91e-5,-9.52e-5 3.18e-5,-1.296e-4 0,-5.292e-4 -0.00455,-0.017383 -0.01016,-0.030797 -0.017013,-0.041024 -0.00691,-0.010319 -0.015055,-0.017515 -0.025056,-0.022939 -0.020055,-0.010874 -0.047334,-0.014446 -0.0846164,-0.020293 l -0.040746,-0.00489 c -0.057489,-0.00669 -0.086955,-0.018706 -0.1020763,-0.040579 -0.00757,-0.010954 -0.011456,-0.024342 -0.013441,-0.041024 -1.59e-5,-1.323e-4 2.38e-5,-1.323e-4 0,-2.196e-4 -0.00185,-0.016616 -0.00185,-0.036383 -0.00185,-0.059994 -5.292e-4,-0.047575 9.26e-5,-0.079576 0.01524,-0.1014597 0.00757,-0.011086 0.018733,-0.019473 0.035367,-0.026035 0.01651,-0.00648 0.037968,-0.011218 0.066709,-0.014552 l 0.04074,-0.00529 c 0.037285,-0.00585 0.06413,-0.00897 0.084169,-0.019844 9.79e-5,-5.03e-5 5.291e-4,5.82e-5 5.291e-4,0 0.00989,-0.00542 0.018256,-0.01315 0.025082,-0.023363 0.00683,-0.010292 0.012515,-0.023548 0.017013,-0.041024 0.00106,-0.00471 0.00212,-0.00939 0.00312,-0.014102 1.323e-4,-0.00106 5.29e-4,-0.00185 7.938e-4,-0.0031 v -2.196e-4 c 0.0028,-0.011589 0.00622,-0.022966 0.00942,-0.034406 0.00132,-0.00497 0.00265,-0.010028 0.004,-0.014975 1.322e-4,-0.00106 7.938e-4,-0.00185 0.00106,-0.0031 h -5.292e-4 c 7.938e-4,-0.00291 0.00185,-0.00561 0.00267,-0.00836 0.00106,-0.00265 0.00132,-0.00532 0.00212,-0.00794 0.019897,-0.070937 -0.00823,-0.089538 -0.067157,-0.1371865 l -0.032684,-0.024712 c -0.092885,-0.069112 -0.078904,-0.099888 -0.030443,-0.181745 0.032057,-0.057007 0.050998,-0.087373 0.094464,-0.086019 0.019764,7.938e-4 0.044696,0.00767 0.077904,0.022066 l 0.037608,0.016113 c 0.075851,0.029215 0.1054735,0.044458 0.1643115,-0.022939 l -2.223e-4,0.00185 c 0.013203,-0.01397 0.026818,-0.027366 0.040741,-0.040582 l -0.00185,5.292e-4 c 0.015875,-0.013864 0.025982,-0.026353 0.033581,-0.037936 0.00799,-0.013308 0.013758,-0.02622 0.013414,-0.039703 2.196e-4,-0.023786 -0.00984,-0.049265 -0.024183,-0.086458 l -0.015666,-0.03792 C 1.3434286,1.3004964 1.3704716,1.280986 1.4533636,1.2343373 c 0.03579,-0.02122 0.06137,-0.036129 0.085061,-0.037939 0.00341,-1.323e-4 0.00699,-1.323e-4 0.010292,0 0.026498,0.00238 0.051422,0.022357 0.085958,0.068813 l 0.024633,0.032644 c 0.04763,0.05896 0.066551,0.086945 0.137451,0.067053 0.00265,-7.937e-4 0.00497,-0.00132 0.00762,-0.00212 0.00275,-0.00106 0.00561,-0.00185 0.00849,-0.00265 0.01733,-0.00513 0.034711,-0.00984 0.05238,-0.014129 h 5.292e-4 c 0.00106,-1.323e-4 0.00185,-7.938e-4 0.00315,-0.00106 0.00471,-0.00106 0.00915,-0.00185 0.013891,-0.00307 0.070551,-0.018309 0.072879,-0.052441 0.084619,-0.1270424 l 0.0054,-0.040584 c 0.013388,-0.1150355 0.046384,-0.1184619 0.1414753,-0.1173374 0.072242,-0.00106 0.1083337,0.00132 0.1275927,0.052933 0.0031,0.00823 0.00489,0.021669 0.00717,0.032647 0.00238,0.010425 0.00553,0.018415 0.00717,0.031758 l 0.00495,0.040584 c 2.91e-5,1.323e-4 -2.91e-5,1.323e-4 0,5.292e-4 0.00392,0.024977 0.00865,0.040161 0.013414,0.056907 0.00238,0.00804 0.0032,0.020823 0.00672,0.027363 0.010848,0.020055 0.029197,0.0332 0.064474,0.042349 0.00474,7.937e-4 0.00918,0.00185 0.013891,0.00307 0.00106,1.322e-4 0.00238,1.322e-4 0.0036,2.196e-4 l -7.938e-4,2.222e-4 c 0.017806,0.00429 0.035372,0.00892 0.052829,0.014129 v -2.196e-4 c 0.00291,0.00106 0.00574,0.00185 0.00849,0.00265 0.00265,0.00106 0.00497,0.00185 0.00762,0.00265 0.070898,0.01987 0.089821,-0.00855 0.137451,-0.067492 l 0.024633,-0.032642 c 0.034531,-0.046477 0.05946,-0.066117 0.085958,-0.068371 0.026501,-0.00238 0.054901,0.013705 0.095811,0.037933 0.015875,0.00889 0.029543,0.01651 0.04119,0.024262 v 0.00355 c 0.048215,0.032419 0.060103,0.062492 0.023283,0.1477697 l -0.015663,0.037497 c -0.013732,0.035698 -0.023336,0.060359 -0.023733,0.08337 1.323e-4,0.015875 0.0036,0.030829 0.016113,0.047202 0.00751,0.010504 0.016245,0.021114 0.030448,0.03352 l -0.00185,-5.291e-4 c 0.013917,0.013203 0.027546,0.027104 0.040743,0.041026 l -5.292e-4,-0.00185 c 0.058833,0.067397 0.088006,0.052155 0.1638591,0.022939 l 0.038055,-0.015875 c 0.033211,-0.014367 0.057698,-0.021907 0.077457,-0.02249 0.043466,-0.00132 0.062857,0.029451 0.094914,0.086463 0.04845,0.081852 0.061992,0.1121913 -0.030893,0.1812978 l -0.032684,0.025135 c -0.058933,0.047659 -0.087045,0.066257 -0.067156,0.1371864 0.00106,0.00265 0.00185,0.00532 0.0027,0.00794 0.00106,0.00265 0.00132,0.00521 0.00212,0.00794 v 2.196e-4 c 0.00484,0.01651 0.00939,0.032996 0.013414,0.049845 1.323e-4,0.00106 5.292e-4,0.00185 0.00106,0.00265 v 2.196e-4 c 1.323e-4,0.00106 5.292e-4,0.00132 0.00106,0.00265 0.00106,0.00468 0.00185,0.00939 0.00315,0.014102 0.00426,0.016563 0.00982,0.028781 0.016113,0.038822 0.02069,0.030962 0.053761,0.03442 0.109691,0.043228 l 0.040738,0.00529 c 0.059346,0.00691 0.088318,0.019526 0.1029732,0.042788 0.015108,0.021907 0.015769,0.053888 0.01524,0.1014598 0.00106,0.095134 -0.00278,0.1286563 -0.1177476,0.1420363 l -0.040296,0.00489 c -0.074567,0.011721 -0.1084289,0.014076 -0.126701,0.08469 -0.00106,0.00474 -0.00185,0.00942 -0.00315,0.014129 -1.323e-4,0.00106 -5.291e-4,0.00185 -0.00106,0.00307 -0.00407,0.016854 -0.00857,0.033329 -0.013414,0.04985 h -0.00132 c -7.937e-4,0.00291 -0.00185,0.00564 -0.00267,0.00836 -0.00106,0.00265 -0.00185,0.00532 -0.0027,0.00794 -0.019897,0.070932 0.00823,0.089971 0.067159,0.1376283 l 0.032684,0.024712 c 0.092888,0.069104 0.079354,0.099436 0.030896,0.1813001 -0.032057,0.057002 -0.051448,0.087813 -0.094917,0.086453 -0.019764,-7.938e-4 -0.044249,-0.00773 -0.077452,-0.02204 l -0.038066,-0.01631 C 2.9724947,3.0592528 2.9433191,3.0444494 2.8844837,3.1118335 l 5.291e-4,-0.00185 c -0.013203,0.013917 -0.026818,0.027363 -0.040738,0.040582 l 0.00185,-2.223e-4 c -0.014076,0.012303 -0.022966,0.022675 -0.030448,0.033086 -0.011721,0.016034 -0.01606,0.030975 -0.015902,0.046754 1.323e-4,0.023204 0.00942,0.048212 0.023283,0.084257 l 0.015901,0.037494 c 0.036634,0.084841 0.024977,0.1151069 -0.022622,0.1473279 v 0.00106 c -0.011642,0.00775 -0.025321,0.015769 -0.041188,0.024712 h -5.291e-4 c -0.018918,0.011192 -0.034708,0.019844 -0.049247,0.026469 -0.00492,0.00238 -0.00929,0.00288 -0.013891,0.00439 -0.00743,0.00265 -0.015505,0.00614 -0.022384,0.00661 -0.00339,1.323e-4 -0.00651,1.323e-4 -0.00984,0 -0.026501,-0.00238 -0.051427,-0.021908 -0.08596,-0.068376 l -0.024633,-0.032639 c -0.047628,-0.058965 -0.066551,-0.08695 -0.1374484,-0.067051 -0.00265,0.00106 -0.00497,0.00132 -0.00762,0.00212 h -5.291e-4 c -0.00275,0.00106 -0.00513,0.00185 -0.00804,0.00265 -0.017304,0.00513 -0.034711,0.00982 -0.052379,0.014129 h -2.196e-4 c -0.00106,1.323e-4 -0.00185,7.937e-4 -0.00315,7.937e-4 -0.00471,0.00106 -0.00915,0.00185 -0.013891,0.00307 h -5.292e-4 c -0.017383,0.00452 -0.030969,0.010372 -0.041193,0.017198 -0.030663,0.020717 -0.034203,0.053628 -0.042979,0.1093999 l -0.00495,0.040585 c -0.00672,0.05752 -0.018865,0.087201 -0.040741,0.1023408 -0.010927,0.00757 -0.024051,0.011695 -0.040743,0.013653 -0.016722,0.00185 -0.036669,0.00212 -0.060441,0.00185 z M 2.0965598,3.1547965 v -1.323e-4 c 0.00582,6.62e-5 0.011642,6.62e-5 0.017463,0 0.02707,-5.82e-5 0.054115,-0.00159 0.081031,-0.00442 0.00447,-5.292e-4 0.00894,-7.938e-4 0.013414,-0.00132 0.00749,-7.938e-4 0.014949,-0.00185 0.022384,-0.00307 0.00582,-0.00106 0.011642,-0.00185 0.017463,-0.00307 0.00299,-5.291e-4 0.00598,-7.937e-4 0.00897,-0.00132 0.010028,-0.00185 0.020029,-0.00392 0.029993,-0.00619 0.00132,-2.646e-4 0.00238,-7.938e-4 0.0036,-0.00106 0.2315898,-0.05457 0.4253389,-0.2124577 0.5256133,-0.4283286 v 0.00132 C 2.8645581,2.6043224 2.8894711,2.492139 2.8894711,2.3785719 2.8892436,2.2760088 2.8687011,2.1745094 2.8290271,2.0799394 h 2.196e-4 c -0.00413,-0.00979 -0.00847,-0.0195 -0.012991,-0.029112 v -2.249e-4 c -0.00458,-0.0095 -0.00937,-0.018918 -0.01434,-0.028231 -0.00529,-0.010134 -0.010822,-0.020135 -0.016563,-0.029998 l -5.292e-4,-0.00106 c -0.00238,-0.00445 -0.00503,-0.00884 -0.00762,-0.013229 -7.937e-4,-0.00106 -0.00132,-0.00212 -0.00212,-0.00307 -0.00548,-0.00908 -0.011165,-0.018045 -0.017013,-0.026903 -0.00651,-0.00971 -0.013229,-0.019262 -0.020161,-0.028665 C 2.5916217,1.7219032 2.3604288,1.6053912 2.1146943,1.6053754 1.8133181,1.6056399 1.5394029,1.7806221 1.4122388,2.0539923 v -0.00619 c -0.00503,0.010636 -0.00979,0.021352 -0.014314,0.032203 h 7.937e-4 c -0.00921,0.021669 -0.017436,0.043749 -0.024633,0.066167 -0.00355,0.011245 -0.00683,0.022569 -0.00984,0.033964 -0.0031,0.011404 -0.00593,0.022887 -0.00849,0.034409 -0.00238,0.011562 -0.00474,0.023178 -0.00672,0.034846 -0.00564,0.033412 -0.00908,0.067156 -0.010292,0.1010179 -5.292e-4,0.00881 -7.938e-4,0.017648 -0.00106,0.026469 v 0.00132 2.196e-4 c 1.878e-4,0.00926 5.291e-4,0.018547 0.00106,0.027797 5.292e-4,0.00987 0.00106,0.019711 0.00185,0.029551 -2.7e-6,7.937e-4 -2.7e-6,0.00185 0,0.00265 0.00185,0.023204 0.00463,0.046307 0.00849,0.069252 0.00185,0.011668 0.00421,0.023283 0.00672,0.034854 0.00508,0.022913 0.011218,0.045574 0.018362,0.067929 0.0072,0.022569 0.015399,0.044794 0.024633,0.066609 h -7.937e-4 c 0.00426,0.010081 0.00873,0.020082 0.013414,0.029996 v -0.00132 c 0.1002771,0.2158683 0.2940235,0.3737557 0.5256133,0.428326 5.292e-4,7.41e-5 0.00132,1.482e-4 0.00185,2.223e-4 0.01233,0.0028 0.024712,0.00532 0.037161,0.00751 0.00788,0.00132 0.015796,0.00278 0.023733,0.00397 0.00566,7.937e-4 0.011324,0.00159 0.017013,0.00212 l 0.017462,0.00238 c 0.00894,7.938e-4 0.017886,0.00159 0.02686,0.00212 0.011774,7.937e-4 0.023574,0.00159 0.035369,0.00185 z"
     style="color:#000000;display:inline;overflow:visible;visibility:visible;fill:#000000;fill-opacity:1;fill-rule:nonzero;stroke:none;stroke-width:0.0240294;marker:none;enable-background:accumulate;opacity:0.25"
     id="path1299"
     sodipodi:nodetypes="cccccccccccccccccccccccccccccccccccccccccccccccccccccscccccccccccccccccccccccccccccccccccccccccccccccccccccccccccccccccccccccccccccccccccccccccccccccccccccccccccccccccccccccccccccccccccccccccccccccccccccccccccccccccccccccccccccccccccccccccccccccccccccccccc" />
  <path
     d="M 2.1138107,3.4371545 2.113943,3.4370222 C 2.066397,3.437816 2.034187,3.4368899 2.0123113,3.4215706 1.9904303,3.4064364 1.9787063,3.3767507 1.9720183,3.31923 L 1.9670683,3.278645 C 1.9612183,3.241347 1.9577783,3.214454 1.9469073,3.194399 1.9414573,3.184371 1.9339163,3.176143 1.9236243,3.169264 1.9133583,3.162434 1.8999173,3.156617 1.8824343,3.152066 c -0.00458,-0.00106 -0.00976,-0.00212 -0.014314,-0.00307 -0.00106,-1.323e-4 -0.00238,-7.938e-4 -0.00315,-0.00106 -0.017674,-0.00426 -0.035512,-0.00897 -0.052832,-0.014102 -0.00275,-0.00106 -0.00542,-0.00185 -0.00804,-0.00265 -0.00238,-7.937e-4 -0.00553,-0.00132 -0.00804,-0.00212 -0.070472,-0.019579 -0.08949,0.00825 -0.1369986,0.067045 l -0.024633,0.032644 c -0.034541,0.046466 -0.059463,0.066223 -0.085963,0.068374 -0.00328,1.35e-4 -0.00693,1.35e-4 -0.010292,0 -0.00712,-2.196e-4 -0.015081,-0.00437 -0.022834,-0.00704 -0.00426,-0.00132 -0.00844,-0.00185 -0.012991,-0.00397 -0.00995,-0.00452 -0.021749,-0.010848 -0.033578,-0.017648 -0.00553,-0.0032 -0.010028,-0.00519 -0.016113,-0.00884 -0.015875,-0.00889 -0.029546,-0.01696 -0.041193,-0.024712 V 3.233857 C 1.3638767,3.201645 1.3524257,3.171826 1.3890727,3.086983 L 1.4047357,3.049052 C 1.4185997,3.013005 1.4278077,2.987992 1.4280187,2.964796 1.428151,2.949265 1.4236287,2.934655 1.4123287,2.91892 1.4048187,2.90831 1.3962687,2.897515 1.3818827,2.884953 l 0.00185,5.291e-4 c -0.013914,-0.013203 -0.027543,-0.026644 -0.04074,-0.040585 l 5.291e-4,0.00185 C 1.2846885,2.7793551 1.2550658,2.7945951 1.179215,2.8238111 L 1.141607,2.8396861 C 1.108402,2.8540261 1.083462,2.8611701 1.063708,2.8617521 1.020234,2.8630721 1.001293,2.8327401 0.969236,2.7757411 0.920778,2.6938741 0.906797,2.6631001 0.999682,2.5939961 L 1.032363,2.5692841 C 1.091296,2.5216301 1.119408,2.5025851 1.099522,2.431653 1.098462,2.429003 1.098202,2.426333 1.097402,2.423713 1.096342,2.420833 1.095812,2.418683 1.094702,2.415773 h 5.292e-4 C 1.0950989,2.414713 1.094702,2.413923 1.0941712,2.412703 1.0893312,2.396219 1.0848012,2.379641 1.0807572,2.362861 v -2.196e-4 c -1.323e-4,-0.00106 -5.292e-4,-0.00185 -7.937e-4,-0.00265 -2.91e-5,-9.26e-5 2.65e-5,-1.323e-4 0,-2.222e-4 -0.00106,-0.00458 -0.00185,-0.0091 -0.00315,-0.013679 -2.91e-5,-9.52e-5 3.18e-5,-1.296e-4 0,-5.292e-4 C 1.0722635,2.328178 1.0666545,2.314764 1.0598015,2.304537 1.0528915,2.294218 1.0447465,2.287022 1.0347455,2.281598 1.0146905,2.270724 0.9874115,2.267152 0.9501295,2.261305 L 0.9093835,2.256415 C 0.8518945,2.249725 0.8224275,2.237709 0.8073067,2.215836 0.7997367,2.204882 0.7958507,2.191494 0.7938657,2.174812 c -1.59e-5,-1.323e-4 2.38e-5,-1.323e-4 0,-2.196e-4 -0.00185,-0.016616 -0.00185,-0.036383 -0.00185,-0.059994 -5.292e-4,-0.047575 9.26e-5,-0.079576 0.01524,-0.1014597 0.00757,-0.011086 0.018733,-0.019473 0.035367,-0.026035 0.01651,-0.00648 0.037968,-0.011218 0.066709,-0.014552 l 0.040741,-0.00529 c 0.037285,-0.00585 0.06413,-0.00897 0.084169,-0.019844 9.79e-5,-5.03e-5 5.292e-4,5.82e-5 5.292e-4,0 0.00989,-0.00542 0.018256,-0.01315 0.025082,-0.023363 0.00683,-0.010292 0.012515,-0.023548 0.017013,-0.041024 0.00106,-0.00471 0.00212,-0.00939 0.00312,-0.014102 1.322e-4,-0.00106 5.291e-4,-0.00185 7.937e-4,-0.0031 v -2.196e-4 c 0.0028,-0.011589 0.00622,-0.022966 0.00942,-0.034406 0.00132,-0.00497 0.00265,-0.010028 0.004,-0.014975 1.323e-4,-0.00106 7.938e-4,-0.00185 0.00106,-0.0031 h -5.292e-4 c 7.938e-4,-0.00291 0.00185,-0.00561 0.00267,-0.00836 0.00106,-0.00265 0.00132,-0.00532 0.00212,-0.00794 0.019897,-0.070936 -0.00823,-0.089538 -0.067157,-0.137186 l -0.032684,-0.024712 c -0.092885,-0.069112 -0.078904,-0.099888 -0.030443,-0.1817449 0.032057,-0.057007 0.050999,-0.087373 0.094464,-0.086019 0.019764,7.937e-4 0.044696,0.00767 0.077904,0.022066 l 0.037608,0.016113 c 0.075851,0.029215 0.1054735,0.044458 0.1643115,-0.022939 l -2.222e-4,0.00185 c 0.013203,-0.01397 0.026818,-0.027366 0.040741,-0.040582 l -0.00185,5.291e-4 c 0.015875,-0.013864 0.025982,-0.026353 0.033581,-0.037936 0.00799,-0.013308 0.013758,-0.02622 0.013414,-0.039703 2.195e-4,-0.023786 -0.00984,-0.049265 -0.024183,-0.086458 l -0.015666,-0.03792 c -0.045908,-0.1063175 -0.018865,-0.1258279 0.064027,-0.17247656 0.03579,-0.0212201 0.06137,-0.036129 0.085061,-0.037939 0.00341,-1.3229e-4 0.00699,-1.3229e-4 0.010292,0 0.026498,0.002381 0.051422,0.022357 0.085958,0.068813 l 0.024633,0.032644 c 0.04763,0.05896 0.066551,0.086945 0.137451,0.067053 0.00265,-7.937e-4 0.00497,-0.00132 0.00762,-0.00212 0.00275,-0.00106 0.00561,-0.00185 0.00849,-0.00265 0.01733,-0.00513 0.034711,-0.00984 0.05238,-0.014129 h 5.292e-4 c 0.00106,-1.322e-4 0.00185,-7.937e-4 0.00315,-0.00106 0.00471,-0.00106 0.00915,-0.00185 0.013891,-0.00307 0.070551,-0.018309 0.072879,-0.052441 0.084619,-0.12704235 l 0.0054,-0.040584 c 0.013387,-0.11503573 0.046383,-0.11846209 0.1414748,-0.11733761 0.072242,-0.001058 0.1083337,0.001323 0.1275927,0.0529325 0.0031,0.008229 0.00489,0.0216694 0.00717,0.0326469 0.00238,0.0104251 0.00553,0.018415 0.00717,0.031758 l 0.00495,0.040584 c 2.91e-5,1.3229e-4 -2.91e-5,1.3229e-4 0,5.2917e-4 0.00392,0.0249769 0.00865,0.040161 0.013414,0.056907 0.00238,0.00804 0.0032,0.020823 0.00672,0.027363 0.010848,0.020055 0.029197,0.0332 0.064474,0.042349 0.00474,7.938e-4 0.00918,0.00185 0.013891,0.00307 0.00106,1.322e-4 0.00238,1.322e-4 0.0036,2.196e-4 l -7.938e-4,2.222e-4 c 0.017806,0.00429 0.035372,0.00892 0.052829,0.014129 v -2.196e-4 c 0.00291,0.00106 0.00574,0.00185 0.00849,0.00265 0.00265,0.00106 0.00497,0.00185 0.00762,0.00265 0.070898,0.01987 0.089821,-0.00855 0.137451,-0.067492 l 0.024633,-0.0326412 c 0.034531,-0.046477 0.05946,-0.066117 0.085958,-0.068371 0.026501,-0.002381 0.054901,0.0137051 0.095811,0.037933 0.015875,0.00889 0.029543,0.01651 0.04119,0.024262 v 0.00355 c 0.048215,0.032419 0.060103,0.062492 0.023283,0.1477697 l -0.015663,0.037497 c -0.013732,0.035698 -0.023336,0.060359 -0.023733,0.08337 1.323e-4,0.015875 0.0036,0.030829 0.016113,0.047202 0.00751,0.010504 0.016245,0.021114 0.030448,0.03352 l -0.00185,-5.291e-4 c 0.013917,0.013203 0.027546,0.027104 0.040743,0.041026 l -5.292e-4,-0.00185 c 0.058833,0.067397 0.088006,0.052155 0.1638591,0.022939 l 0.038055,-0.015875 c 0.033211,-0.014367 0.057698,-0.021907 0.077457,-0.02249 0.043466,-0.00132 0.062857,0.029451 0.094914,0.086463 0.04845,0.081852 0.061992,0.1121913 -0.030893,0.1812978 l -0.032684,0.025135 c -0.058933,0.047659 -0.087045,0.066257 -0.067156,0.1371864 0.00106,0.00265 0.00185,0.00532 0.0027,0.00794 0.00106,0.00265 0.00132,0.00521 0.00212,0.00794 v 2.196e-4 c 0.00484,0.01651 0.00939,0.032996 0.013414,0.049845 1.323e-4,0.00106 5.291e-4,0.00185 0.00106,0.00265 v 2.196e-4 c 1.323e-4,0.00106 5.292e-4,0.00132 0.00106,0.00265 0.00106,0.00468 0.00185,0.00939 0.00315,0.014102 0.00426,0.016563 0.00982,0.028781 0.016113,0.038822 0.02069,0.030962 0.053761,0.03442 0.109691,0.043228 l 0.040738,0.00529 c 0.059346,0.00691 0.088318,0.019526 0.1029732,0.042788 0.015108,0.021907 0.015769,0.053888 0.01524,0.1014598 0.00106,0.095134 -0.00278,0.1286563 -0.1177475,0.1420363 l -0.040296,0.00489 c -0.074567,0.011721 -0.1084289,0.014076 -0.126701,0.08469 -0.00106,0.00474 -0.00185,0.00942 -0.00315,0.014129 -1.323e-4,0.00106 -5.292e-4,0.00185 -0.00106,0.00307 -0.00407,0.016854 -0.00857,0.033329 -0.013414,0.04985 h -0.00132 c -7.938e-4,0.00291 -0.00185,0.00564 -0.00267,0.00836 -0.00106,0.00265 -0.00185,0.00532 -0.0027,0.00794 -0.019897,0.070932 0.00823,0.089971 0.067159,0.1376283 l 0.032684,0.024712 c 0.092888,0.069103 0.079354,0.099436 0.030896,0.1813 -0.032057,0.057002 -0.051448,0.087813 -0.094917,0.086453 -0.019764,-7.938e-4 -0.044249,-0.00773 -0.077452,-0.02204 L 3.0483412,2.8238443 C 2.9724849,2.7946263 2.9433093,2.7798229 2.8844739,2.847207 l 5.292e-4,-0.00185 C 2.8718001,2.859274 2.8581851,2.87272 2.8442651,2.885939 l 0.00185,-2.223e-4 c -0.014076,0.012303 -0.022966,0.022675 -0.030448,0.033086 -0.011721,0.016034 -0.01606,0.030975 -0.015901,0.046754 1.322e-4,0.023204 0.00942,0.048212 0.023283,0.084257 l 0.015901,0.037494 c 0.036634,0.084841 0.024977,0.115107 -0.022622,0.147328 v 0.00106 c -0.011642,0.00775 -0.025321,0.015769 -0.041188,0.024712 h -5.292e-4 c -0.018918,0.011192 -0.034708,0.019844 -0.049247,0.026469 -0.00492,0.00238 -0.00929,0.00288 -0.013891,0.00439 -0.00743,0.00265 -0.015505,0.00614 -0.022384,0.00661 -0.00339,1.323e-4 -0.00651,1.323e-4 -0.00984,0 -0.026501,-0.00238 -0.051427,-0.021907 -0.08596,-0.068376 l -0.024633,-0.032639 c -0.047628,-0.058965 -0.066551,-0.08695 -0.1374484,-0.067051 -0.00265,0.00106 -0.00497,0.00132 -0.00762,0.00212 h -5.291e-4 c -0.00275,0.00106 -0.00513,0.00185 -0.00804,0.00265 -0.017304,0.00513 -0.034711,0.00982 -0.052379,0.014129 h -2.196e-4 c -0.00106,1.323e-4 -0.00185,7.937e-4 -0.00315,7.937e-4 -0.00471,0.00106 -0.00915,0.00185 -0.013891,0.00307 h -5.291e-4 c -0.017383,0.00452 -0.030969,0.010372 -0.041193,0.017198 -0.030663,0.020717 -0.034203,0.053628 -0.042979,0.1093999 l -0.00495,0.040585 c -0.00672,0.05752 -0.018865,0.087201 -0.040741,0.1023408 -0.010927,0.00757 -0.024051,0.011695 -0.040743,0.013653 -0.016722,0.00185 -0.036669,0.00212 -0.060441,0.00185 z M 2.0965599,2.8901682 v -1.323e-4 c 0.00582,6.61e-5 0.011642,6.61e-5 0.017463,0 0.02707,-5.82e-5 0.054115,-0.00159 0.081031,-0.00442 0.00447,-5.292e-4 0.00894,-7.937e-4 0.013414,-0.00132 0.00749,-7.938e-4 0.014949,-0.00185 0.022384,-0.00307 0.00582,-0.00106 0.011642,-0.00185 0.017463,-0.00307 0.00299,-5.292e-4 0.00598,-7.938e-4 0.00897,-0.00132 0.010028,-0.00185 0.020029,-0.00392 0.029993,-0.00619 0.00132,-2.646e-4 0.00238,-7.938e-4 0.0036,-0.00106 0.2315895,-0.054575 0.4253388,-0.2124627 0.5256129,-0.4283335 v 0.00132 C 2.864558,2.3396895 2.8894709,2.2275061 2.8894709,2.113939 2.8892433,2.0113759 2.8687011,1.9098765 2.8290271,1.8153065 h 2.196e-4 c -0.00413,-0.00979 -0.00847,-0.0195 -0.012991,-0.029112 v -2.249e-4 c -0.00458,-0.0095 -0.00937,-0.018918 -0.01434,-0.028231 -0.00529,-0.010134 -0.010821,-0.020135 -0.016563,-0.029998 l -5.292e-4,-0.00106 c -0.00238,-0.00445 -0.00503,-0.00884 -0.00762,-0.013229 -7.937e-4,-0.00106 -0.00132,-0.00212 -0.00212,-0.00307 -0.00548,-0.00908 -0.011165,-0.018045 -0.017013,-0.026903 -0.00651,-0.00971 -0.013229,-0.019262 -0.020161,-0.028665 C 2.5916218,1.4572748 2.3604289,1.3407628 2.1146944,1.340747 1.8133182,1.3410115 1.539403,1.5159937 1.4122389,1.7893639 v -0.00619 c -0.00503,0.010636 -0.00979,0.021352 -0.014314,0.032203 h 7.937e-4 c -0.00921,0.021669 -0.017436,0.043749 -0.024633,0.066167 -0.00355,0.011245 -0.00683,0.022569 -0.00984,0.033964 -0.0031,0.011404 -0.00593,0.022887 -0.00849,0.034409 -0.00238,0.011562 -0.00474,0.023178 -0.00672,0.034846 -0.00564,0.033412 -0.00908,0.067156 -0.010292,0.1010179 -5.291e-4,0.00881 -7.937e-4,0.017648 -0.00106,0.026469 v 0.00132 2.196e-4 c 1.878e-4,0.00926 5.292e-4,0.018547 0.00106,0.027797 5.292e-4,0.00987 0.00106,0.019711 0.00185,0.029551 -2.7e-6,7.937e-4 -2.7e-6,0.00185 0,0.00265 0.00185,0.023204 0.00463,0.046307 0.00849,0.069252 0.00185,0.011668 0.00421,0.023283 0.00672,0.034854 0.00508,0.022913 0.011218,0.045574 0.018362,0.067929 0.0072,0.022569 0.015399,0.044794 0.024633,0.066609 H 1.398004 c 0.00426,0.010081 0.00873,0.020082 0.013414,0.029996 v -0.00132 c 0.1002771,0.215868 0.2940235,0.3737555 0.5256133,0.4283258 5.292e-4,7.41e-5 0.00132,1.482e-4 0.00185,2.223e-4 0.01233,0.0028 0.024712,0.00532 0.037161,0.00751 0.00788,0.00132 0.015796,0.00278 0.023733,0.00397 0.00566,7.938e-4 0.011324,0.00159 0.017013,0.00212 l 0.017462,0.00238 c 0.00894,7.937e-4 0.017886,0.00159 0.02686,0.00212 0.011774,7.938e-4 0.023574,0.00159 0.035369,0.00185 z"
     style="color:#000000;display:inline;overflow:visible;visibility:visible;fill:url(#linearGradient1688);fill-opacity:1;fill-rule:nonzero;stroke:none;stroke-width:0.00635778;marker:none;enable-background:accumulate"
     id="path1593" />
  <path
     d="m 2.1158169,0.79380483 v 5.2917e-4 5.2916e-4 c -0.047546,-7.9375e-4 -0.079928,-2.6458e-4 -0.1018037,0.0149754 -0.021881,0.0151342 -0.033618,0.0453178 -0.040307,0.10284089 l -0.00466,0.040304 c -0.00585,0.037301 -0.00929,0.0641747 -0.020161,0.0842354 -0.00545,0.010028 -0.012965,0.018442 -0.023257,0.025321 -0.010266,0.00683 -0.023865,0.012515 -0.041341,0.017066 -0.00458,0.00106 -0.00992,0.00212 -0.014473,0.0031 -0.00106,1.296e-4 -0.00238,7.937e-4 -0.0031,0.00106 -0.017674,0.00426 -0.035391,0.00881 -0.05271,0.01397 -0.00275,0.00106 -0.00564,0.00185 -0.00826,0.00265 -0.00238,7.937e-4 -0.00524,0.00185 -0.00775,0.00265 -0.070472,0.019579 -0.089435,-0.00839 -0.1369431,-0.067183 l -0.024791,-0.032554 c -0.034541,-0.0464661 -0.059283,-0.0665797 -0.085783,-0.0687308 -0.00328,-1.3229e-4 -0.00699,-1.3229e-4 -0.010345,0 -0.00712,2.196e-4 -0.014975,0.004524 -0.022728,0.007223 -0.00426,0.001323 -0.00889,0.002117 -0.013441,0.004128 -0.00995,0.004551 -0.021749,0.0107685 -0.033591,0.0175683 -0.00553,0.003201 -0.00992,0.005159 -0.016007,0.008784 -0.015875,0.00889 -0.029178,0.0170392 -0.040825,0.0247915 v 0.001058 c -0.04758,0.0322236 -0.059386,0.0619178 -0.022728,0.14675913 l 0.016007,0.037727 c 0.011113,0.028895 0.018812,0.050813 0.021696,0.070281 0.00836,-0.00513 0.015743,-0.010372 0.02585,-0.016007 0.00609,-0.00362 0.010477,-0.00558 0.016007,-0.00878 0.011827,-0.0068 0.023654,-0.013044 0.033591,-0.017568 0.00455,-0.00212 0.00918,-0.00265 0.013441,-0.00413 0.00775,-0.00265 0.01561,-0.00701 0.022728,-0.00722 0.00336,-1.323e-4 0.00706,-1.323e-4 0.010345,0 0.026501,0.00212 0.051242,0.022251 0.085783,0.068734 l 0.024791,0.032554 c 0.047509,0.058788 0.066471,0.086786 0.1369431,0.06718 0.00265,-7.938e-4 0.00537,-0.00185 0.00775,-0.00265 0.00265,-7.938e-4 0.0055,-0.00132 0.00826,-0.00265 0.01733,-0.00513 0.035036,-0.00968 0.05271,-0.01397 7.937e-4,-2.62e-4 0.00212,-7.938e-4 0.0031,-0.00106 0.00455,-0.00106 0.0099,-0.00212 0.014473,-0.0031 0.017489,-0.00452 0.031075,-0.010239 0.041341,-0.017066 0.010292,-0.00688 0.017806,-0.015293 0.023257,-0.025321 0.010874,-0.020055 0.014314,-0.046934 0.020161,-0.084233 l 0.00466,-0.040307 c 0.00669,-0.05752 0.018415,-0.087704 0.040307,-0.1028356 0.021881,-0.015319 0.054258,-0.015769 0.1018037,-0.014975 v -5.3e-4 -5.292e-4 c 0.023786,-2.646e-4 0.043738,2.143e-4 0.06046,0.00212 0.016695,0.00185 0.029898,0.00587 0.040825,0.013441 0.021881,0.015134 0.033586,0.045321 0.040307,0.1028383 l 0.00516,0.040307 c 0.00878,0.055772 0.012224,0.088836 0.042892,0.1095533 0.010213,0.00683 0.023971,0.012515 0.041341,0.017066 h 5.291e-4 c 0.00474,0.00132 0.00923,0.00212 0.013944,0.0031 0.00132,0 0.00212,7.938e-4 0.0031,0.00106 0.017674,0.00431 0.035407,0.00881 0.05271,0.01397 0.00291,7.938e-4 0.005,0.00132 0.00775,0.00265 h 5.292e-4 c 0.00265,7.938e-4 0.00511,0.00106 0.00775,0.00212 0.070898,0.019897 0.089831,-0.0082 0.1374589,-0.067178 l 0.024792,-0.032557 c 0.034533,-0.046471 0.059283,-0.065834 0.085783,-0.068212 0.00333,-1.349e-4 0.00643,-1.349e-4 0.00982,0 0.00688,5.292e-4 0.01479,0.00408 0.022225,0.00669 0.0046,0.00185 0.00902,0.00185 0.013944,0.00413 0.014552,0.00662 0.030176,0.015161 0.049093,0.026353 h 5.292e-4 c 0.01016,0.00571 0.017965,0.010874 0.026352,0.016034 0.00288,-0.019447 0.01061,-0.040923 0.021696,-0.069763 l 0.016007,-0.037727 c 0.036634,-0.084839 0.024871,-0.1150514 -0.022728,-0.14727763 v -0.001058 c -0.011642,-0.007752 -0.025479,-0.015875 -0.041341,-0.0247915 h -5.292e-4 c -0.018918,-0.0111919 -0.034555,-0.0197379 -0.049094,-0.0263525 -0.00492,-0.002381 -0.00934,-0.002646 -0.013943,-0.004127 -0.00743,-0.002646 -0.015346,-0.006218 -0.022225,-0.00672 -0.00339,-1.2965e-4 -0.00648,-1.2965e-4 -0.00982,0 -0.026501,0.002381 -0.05125,0.0217487 -0.085783,0.0682149 l -0.024791,0.032557 c -0.047628,0.058962 -0.066561,0.087077 -0.137459,0.067178 -0.00265,-0.00106 -0.00511,-0.00132 -0.00775,-0.00212 H 2.424822 c -0.00275,-0.00106 -0.00484,-0.00185 -0.00775,-0.00265 -0.017304,-0.00513 -0.035041,-0.00963 -0.05271,-0.01397 -0.00106,-1.323e-4 -0.00185,-0.00106 -0.0031,-0.00106 -0.00471,-0.00106 -0.00921,-0.00185 -0.013944,-0.0031 h -5.291e-4 c -0.017383,-0.00455 -0.031118,-0.010239 -0.041341,-0.017066 -0.030663,-0.020717 -0.034115,-0.053784 -0.042892,-0.1095534 l -0.00516,-0.0403066 c -0.00672,-0.0575178 -0.018441,-0.0877041 -0.040307,-0.10283825 -0.010927,-0.007567 -0.02413,-0.0114829 -0.040825,-0.0134408 -0.016722,-0.001852 -0.036687,-0.002381 -0.06046,-0.002117 z M 2.858407,1.3581134 c -0.00347,0.014499 -0.00908,0.030977 -0.017568,0.050644 l -0.016007,0.037724 c -0.013864,0.036047 -0.023125,0.061029 -0.023257,0.084233 -1.587e-4,0.015769 0.00431,0.030477 0.016034,0.046508 0.00749,0.010425 0.016404,0.02077 0.030488,0.033076 h -0.00212 c 0.013917,0.013203 0.027623,0.026874 0.040825,0.04082 l -5.292e-4,-0.00212 c 0.058835,0.067408 0.087958,0.05247 0.1638141,0.023257 l 0.03824,-0.016007 c 0.033203,-0.014314 0.057751,-0.021431 0.077515,-0.022225 0.019024,-5.291e-4 0.033115,0.00532 0.04599,0.016537 l 0.018098,-0.013441 c 0.092885,-0.069104 0.078949,-0.099523 0.030491,-0.1813877 -0.032057,-0.057005 -0.051099,-0.087654 -0.094567,-0.086299 -0.019764,7.937e-4 -0.044312,0.00791 -0.077515,0.022225 l -0.03824,0.016007 c -0.075855,0.029215 -0.1049773,0.044156 -0.1638127,-0.023257 l 5.292e-4,0.00212 c -0.00918,-0.00971 -0.018865,-0.019103 -0.028422,-0.028432 z m -1.4851803,5.292e-4 c -0.00953,0.00929 -0.019262,0.01823 -0.028424,0.027913 l 5.292e-4,-0.00132 c -0.058835,0.067389 -0.088482,0.051948 -0.1643327,0.022728 l -0.037722,-0.015531 c -0.033205,-0.01434 -0.057761,-0.021616 -0.077515,-0.022225 -0.043474,-0.00132 -0.06251,0.028779 -0.094567,0.085783 -0.048461,0.081865 -0.062397,0.1127972 0.030488,0.1819011 l 0.017568,0.013441 c 0.012859,-0.011271 0.027353,-0.017118 0.046508,-0.016536 0.019764,5.291e-4 0.04431,0.00789 0.077515,0.022225 l 0.037722,0.015531 c 0.075851,0.029213 0.1054973,0.044654 0.1643327,-0.022728 l -5.292e-4,0.00132 c 0.013203,-0.01397 0.026908,-0.027104 0.040825,-0.040307 l -0.00212,5.291e-4 c 0.014393,-0.012568 0.022966,-0.023495 0.030488,-0.034102 0.011298,-0.015743 0.01614,-0.030491 0.016007,-0.045995 -2.117e-4,-0.023204 -0.00939,-0.048191 -0.023257,-0.084233 l -0.016003,-0.037727 c -0.00849,-0.019659 -0.014102,-0.036171 -0.017568,-0.050639 z m 1.8097077,0.5792947 c -0.048366,0.039206 -0.071316,0.061598 -0.053226,0.1260898 7.938e-4,0.00265 0.00212,0.00564 0.0031,0.00825 7.937e-4,0.00265 0.00185,0.00537 0.00265,0.00826 h 0.00106 c 0.00484,0.01651 0.00937,0.032755 0.013441,0.049607 5.291e-4,0.00132 7.937e-4,0.00212 0.00106,0.0031 0.00132,0.00471 0.00212,0.00974 0.0031,0.014473 0.018283,0.070617 0.052554,0.072485 0.1271217,0.084233 l 0.040309,0.00516 c 0.022093,0.00265 0.038584,0.00648 0.053226,0.010848 0.02413,-0.00743 0.039963,-0.017542 0.049093,-0.032038 0.015108,-0.021907 0.015505,-0.053716 0.014975,-0.1012852 0.00106,-0.095136 -0.00238,-0.128733 -0.1173057,-0.1421103 l -0.040309,-0.00519 c -0.04621,-0.00728 -0.077261,-0.010927 -0.098184,-0.029456 z m -2.1326872,0.00265 c -0.00415,0.00376 -0.00844,0.00659 -0.013441,0.00931 -0.020055,0.010874 -0.047466,0.014817 -0.084749,0.020664 l -0.040825,0.00466 c -0.057489,0.00669 -0.087199,0.018944 -0.1023197,0.040825 -0.00757,0.010954 -0.011456,0.024104 -0.013441,0.040825 -0.00185,0.016616 -0.00159,0.036849 -0.00159,0.06046 -5.292e-4,0.047572 -1.614e-4,0.079407 0.014975,0.1012904 0.00757,0.011086 0.019023,0.019262 0.035658,0.025823 0.00474,0.00185 0.010954,0.00362 0.016536,0.00519 0.013944,-0.00394 0.029721,-0.00743 0.050125,-0.00982 l 0.040825,-0.00466 c 0.037282,-0.00585 0.064693,-0.00979 0.084749,-0.020664 0.010001,-0.00542 0.017912,-0.012409 0.024791,-0.022728 0.00685,-0.010186 0.012515,-0.023416 0.017066,-0.040825 v -5.291e-4 c 0.00132,-0.00458 0.00212,-0.00937 0.0031,-0.01397 2.646e-4,-0.00106 7.937e-4,-0.00132 0.00106,-0.00265 v -5.291e-4 c 0.00405,-0.016801 0.0086,-0.033129 0.013441,-0.049609 5.292e-4,-0.00132 7.938e-4,-0.00212 0.00106,-0.0031 h -5.292e-4 c 0.00106,-0.00291 0.00159,-0.00548 0.00265,-0.00826 7.938e-4,-0.00265 0.00106,-0.00511 0.00212,-0.00775 0.01778,-0.063447 -0.00442,-0.085995 -0.05116,-0.1240261 z m 1.8283132,0.3079961 c -0.00947,0.057594 -0.025427,0.1139323 -0.047543,0.1679496 -0.0041,0.00974 -0.00841,0.019394 -0.012912,0.02894 v 5.292e-4 c -0.00463,0.00939 -0.00947,0.018706 -0.014473,0.027914 -0.00529,0.010107 -0.010795,0.020108 -0.016536,0.029975 l -5.291e-4,0.00106 c -0.00265,0.0045 -0.00513,0.009 -0.00775,0.013441 -7.938e-4,0.00106 -0.00132,0.00212 -0.00212,0.0031 -0.0055,0.00908 -0.011165,0.018045 -0.017039,0.026874 -0.00651,0.00963 -0.013229,0.019103 -0.020161,0.028432 C 2.5932337,2.7743778 2.3620355,2.8909347 2.1162799,2.8909796 1.8149803,2.8907151 1.5411525,2.715717 1.4139964,2.4424289 v 0.00619 c -0.00505,-0.010557 -0.0099,-0.021246 -0.014473,-0.032038 h 0.00106 c -0.00926,-0.021669 -0.017542,-0.043733 -0.024791,-0.066146 -0.00355,-0.011298 -0.0068,-0.022675 -0.00982,-0.034107 -0.00302,-0.011483 -0.00577,-0.023019 -0.00825,-0.034623 -0.00238,-0.010451 -0.00434,-0.020982 -0.00619,-0.031523 -1.773e-4,0.00106 -2.646e-4,0.00212 -5.292e-4,0.0031 -0.00397,0.022939 -0.00691,0.046045 -0.00878,0.069249 -2.6e-6,7.938e-4 -2.6e-6,0.00185 0,0.00265 -7.937e-4,0.00982 -0.00132,0.019632 -0.00159,0.029456 -5.291e-4,0.00929 -7.937e-4,0.0186 -0.00106,0.027914 V 2.38308 2.38414 c 2.037e-4,0.00878 5.292e-4,0.017568 0.00106,0.026353 0.00132,0.033954 0.00468,0.067789 0.010345,0.1012878 0.00185,0.011589 0.00421,0.023125 0.00672,0.034623 0.00238,0.011589 0.00524,0.023151 0.00826,0.034623 0.00302,0.01143 0.00627,0.022807 0.00982,0.034105 0.00725,0.02241 0.015531,0.044487 0.024791,0.066149 h -0.00106 c 0.00458,0.010795 0.00942,0.021458 0.014473,0.032038 v -0.00619 c 0.1271561,0.2732882 0.400984,0.448183 0.7022835,0.4485508 0.2457556,-4.5e-5 0.4769538,-0.1166019 0.6232181,-0.3141927 0.00693,-0.00931 0.013653,-0.018812 0.020161,-0.028432 0.00587,-0.00884 0.011536,-0.017806 0.017039,-0.026874 7.937e-4,-0.00106 0.00132,-0.00212 0.00212,-0.0031 0.00265,-0.00445 0.00521,-0.00894 0.00775,-0.013441 l 5.292e-4,-0.00106 c 0.00574,-0.00987 0.011245,-0.01987 0.016536,-0.029975 0.005,-0.00921 0.00984,-0.018521 0.014473,-0.027913 v -5.292e-4 c 0.0045,-0.00955 0.00881,-0.019209 0.012912,-0.02894 C 2.870691,2.5866367 2.891242,2.4851162 2.891467,2.3825319 2.8909378,2.3376269 2.886727,2.2928439 2.878555,2.2486871 Z m 0.3054085,0.3085095 c -0.00505,0.00418 -0.00942,0.00892 -0.013441,0.014975 -0.0063,0.010028 -0.012277,0.022199 -0.016536,0.038759 -0.00132,0.00471 -0.00212,0.00926 -0.0031,0.013917 -5.292e-4,0.00106 -7.938e-4,0.00185 -0.00106,0.00265 v 5.292e-4 c -5.291e-4,7.938e-4 -7.937e-4,0.00132 -0.00106,0.00265 -0.00402,0.016854 -0.0086,0.033099 -0.013441,0.049609 v 5.292e-4 c -7.938e-4,0.00288 -0.00106,0.00511 -0.00212,0.00775 -7.937e-4,0.00265 -0.00159,0.00511 -0.00265,0.00775 -0.019897,0.070932 0.00826,0.089802 0.06718,0.1374589 l 0.014975,0.011377 c 0.016431,-0.014446 0.030644,-0.037867 0.048575,-0.06976 0.04845,-0.081857 0.061881,-0.1117627 -0.031004,-0.1808692 L 3.1977299,2.569097 c -0.00545,-0.00439 -0.00905,-0.00791 -0.013943,-0.01188 z m -2.1337217,0.00132 c -0.0055,0.00447 -0.00982,0.00841 -0.016007,0.013441 l -0.032557,0.024791 c -0.092885,0.069109 -0.078952,0.099528 -0.030488,0.1813851 0.017965,0.031972 0.031692,0.055446 0.048059,0.069765 l 0.014975,-0.011377 c 0.058928,-0.047654 0.087074,-0.066524 0.067178,-0.1374617 -7.937e-4,-0.00265 -0.00106,-0.00511 -0.00212,-0.00775 -7.938e-4,-0.00288 -0.00185,-0.00537 -0.00265,-0.00831 h 5.292e-4 c -2.646e-4,-0.00132 -7.937e-4,-0.00212 -0.00106,-0.0031 -0.00132,-0.00495 -0.0028,-0.010001 -0.00413,-0.014975 -0.0032,-0.011456 -0.00651,-0.023072 -0.00931,-0.034623 -2.645e-4,-0.00132 -7.937e-4,-0.00212 -0.00106,-0.0031 -0.00106,-0.00471 -0.00212,-0.00926 -0.0031,-0.01397 -0.0045,-0.017462 -0.010239,-0.031049 -0.017066,-0.041341 -0.00341,-0.00513 -0.0072,-0.00958 -0.011377,-0.013441 z m 1.8091917,0.5792973 c -0.00415,0.0041 -0.0082,0.00841 -0.012409,0.012435 l 0.00159,-5.292e-4 c -0.014208,0.012409 -0.022966,0.023098 -0.030491,0.033589 -0.012515,0.016378 -0.015875,0.031147 -0.016007,0.047022 8.99e-5,0.00527 0.00106,0.010478 0.00212,0.016034 0.00447,-0.00265 0.00995,-0.00561 0.013943,-0.00826 v -0.00362 c 0.036925,-0.024818 0.052586,-0.048718 0.041341,-0.096634 z m -1.4856962,0.00212 c -0.013494,0.054531 0.00683,0.0776 0.055811,0.1069657 0.00106,-0.00593 0.00159,-0.011456 0.00159,-0.017039 2.646e-4,-0.013494 -0.00545,-0.026469 -0.013441,-0.039793 -0.00759,-0.011589 -0.017727,-0.024368 -0.033591,-0.038238 l 0.00212,5.292e-4 c -0.00426,-0.00405 -0.0082,-0.00833 -0.012409,-0.012409 z"
     style="color:#000000;display:inline;overflow:visible;visibility:visible;fill:#ffffff;fill-opacity:1;fill-rule:nonzero;stroke:none;stroke-width:0.0240294;marker:none;enable-background:accumulate"
     id="path1833" />
  <path
     d="m 1.1761556,0.2645965 c -0.4373615,0 -0.6736397,0.0332 -0.7715276,0.1095534 -0.048945,0.038177 -0.080642,0.087635 -0.1049046,0.1860365 -0.024262,0.098401 -0.035139,0.2416095 -0.035139,0.4320143 V 2.1166798 3.241159 c 0,0.1904047 0.010874,0.3335919 0.035139,0.4320143 0.024262,0.098401 0.055959,0.1478597 0.1049046,0.1860365 0.097888,0.076353 0.3341661,0.1095533 0.7715276,0.1095533 h 1.8810235 c 0.43747,0 0.6752246,-0.033102 0.7735966,-0.1095533 0.049183,-0.038227 0.080904,-0.087863 0.104902,-0.1860365 0.023998,-0.098174 0.034131,-0.2407153 0.033073,-0.4309798 V 3.2416643 2.1166798 0.9916847 0.9911556 C 3.969809,0.8008911 3.9596755,0.6583494 3.9356777,0.5601758 3.91168,0.4620022 3.8799591,0.4123663 3.8307757,0.3741393 3.7324063,0.2977012 3.4946491,0.2645965 3.0571791,0.2645965 Z M 2.58589,0.5415835 c 0.293071,-8.99e-5 0.5856896,0.00212 0.8784987,0.01188 0.070422,0.015849 0.2003875,-0.0055 0.2098066,0.091467 0.035467,0.4879922 0.017515,0.9757145 0.026871,1.4655429 -0.00333,0.4940962 0.014367,0.9711029 -0.027387,1.4546924 0.016986,0.1119558 -0.1162738,0.094131 -0.1860365,0.1116198 -0.9082537,0.0186 -1.8192141,0.015584 -2.7248987,5.291e-4 C 0.7037741,3.6667837 0.6155776,3.6772294 0.574644,3.6277047 0.52209,3.3287387 0.541053,3.0272434 0.532268,2.7228508 c 0.00365,-0.676402 -0.00767,-1.3513011 0.02376,-2.0257161 -0.00794,-0.072152 0.028956,-0.13131 0.1059365,-0.1291934 0.3457019,-0.042598 0.6965553,-0.016827 1.0443818,-0.025823 0.2929414,0.00159 0.5864622,-5.292e-4 0.8795332,-5.292e-4 z"
     style="color:#000000;display:inline;overflow:visible;visibility:visible;fill:url(#linearGradient891);fill-opacity:1;fill-rule:nonzero;stroke:none;stroke-width:0.264583;marker:none;enable-background:accumulate;opacity:1"
     id="path1490" />
  <path
     d="m 1.1761556,1.32e-5 c -0.44534665,0 -0.73102525,0.0068 -0.93430995,0.1653646 -0.1016423,0.079282 -0.1654439,0.1958525 -0.1989534,0.3317637 C 0.00938275,0.6330526 6.5451263e-7,0.7926916 6.5451263e-7,0.9922007 V 2.1166798 3.241159 c 0,0.1995091 0.009389995487,0.359148 0.0428919954874,0.4950592 0.03351,0.1359112 0.097311,0.2524813 0.1989534,0.3317637 0.2032847,0.1585648 0.4889633,0.1653646 0.93430995,0.1653646 h 1.8810235 c 0.4454551,0 0.7319539,-0.00688 0.9358603,-0.1653646 C 4.0949917,3.9887469 4.1592167,3.8723569 4.1925092,3.7362182 4.2257672,3.6002224 4.2345012,3.4405146 4.2333342,3.241159 V 3.2406298 2.1166798 0.9927166 0.9921875 C 4.2343923,0.7928319 4.2257669,0.6331241 4.1925088,0.4971282 4.1592163,0.3609895 4.0949913,0.2445993 3.9930394,0.1653646 3.789133,0.006895 3.5026342,0 3.0571791,0 Z m 0,0.2645833 h 1.8810235 c 0.43747,0 0.6752272,0.033105 0.7735966,0.1095534 0.049183,0.038224 0.080894,0.087863 0.104902,0.1860365 0.023998,0.098174 0.034203,0.2407152 0.033073,0.4309798 v 5.291e-4 1.1249951 1.1249951 5.292e-4 c 0.00106,0.1902619 -0.00908,0.3328061 -0.033073,0.4309798 -0.023998,0.098174 -0.055719,0.1478094 -0.104902,0.1860364 -0.098372,0.076451 -0.3361266,0.1095534 -0.7735966,0.1095534 H 1.1761556 c -0.43735895,0 -0.67363975,-0.0332 -0.77152765,-0.1095534 C 0.35568265,3.8210542 0.32398555,3.7715957 0.29972335,3.6731945 0.27546105,3.5747721 0.26458395,3.4315637 0.26458395,3.241159 V 2.1166798 0.9922007 c 0,-0.1904048 0.010874,-0.3336131 0.035139,-0.4320143 0.024262,-0.098401 0.055959,-0.1478598 0.1049046,-0.1860365 0.097888,-0.076353 0.3341687,-0.1095534 0.77152805,-0.1095534 z"
     style="color:#000000;display:inline;opacity:0.4;fill:#000000;stroke-width:0.264583;-inkscape-stroke:none;enable-background:new"
     id="path1158" />
</svg>
