<svg width="16" height="16" enable-background="new" version="1.0" xmlns="http://www.w3.org/2000/svg" xmlns:xlink="http://www.w3.org/1999/xlink">
 <title>Suru Icon Theme Template</title>
 <defs>
  <linearGradient id="linearGradient920" x1="459.03" x2="35.31" y1="419.23" y2="207.37" gradientTransform="matrix(0 -.036044 -.036043 0 339.56 252.91)" gradientUnits="userSpaceOnUse">
   <stop stop-color="#2f5fdd" offset="0"/>
   <stop stop-color="#80a3fa" offset="1"/>
  </linearGradient>
  <linearGradient id="linearGradient993" x1="328" x2="328" y1="237" y2="251" gradientUnits="userSpaceOnUse">
   <stop stop-color="#fff" offset="0"/>
   <stop stop-color="#fff" stop-opacity=".098039" offset=".125"/>
   <stop stop-color="#fff" stop-opacity=".098039" offset=".925"/>
   <stop stop-color="#fff" stop-opacity=".49804" offset="1"/>
  </linearGradient>
  <clipPath id="clipPath983-7">
   <path d="m325.1 237c-2.8077 0-3.1098 0.28839-3.096 3.1018v3.8982 3.8982c-0.0138 2.8134 0.28834 3.1018 3.096 3.1018h5.8075c2.8077 0 3.096-0.28835 3.096-3.1018v-3.8982-3.8982c0-2.8134-0.28835-3.1018-3.096-3.1018z" color="#000000" enable-background="accumulate" fill="#46a926"/>
  </clipPath>
 </defs>
 <g transform="translate(-261.41 -292)">
  <g transform="translate(-58.592 56)" enable-background="new">
   <rect x="320" y="236" width="16" height="16" enable-background="accumulate" opacity="0" stroke-width="2"/>
   <path d="m325.1 237c-0.71904 0-1.3018 0.0139-1.8359 0.10352-0.53409 0.0897-1.0683 0.27628-1.4766 0.68359-0.40826 0.4073-0.59657 0.94323-0.68554 1.4785-0.089 0.53529-0.10119 1.1205-0.0977 1.8418v2.8926 3.8984c-3e-3 0.71816 9e-3 1.3024 0.0977 1.8359 0.089 0.53528 0.27727 1.0712 0.68554 1.4785 0.40827 0.40731 0.94248 0.59394 1.4766 0.68359 0.53408 0.0897 1.1169 0.10352 1.8359 0.10352h5.8086c0.71904 0 1.3006-0.0137 1.834-0.10352 0.53341-0.0898 1.0677-0.27792 1.4746-0.68554s0.59404-0.94271 0.68359-1.4766c0.08956-0.53386 0.10352-1.1155 0.10352-1.8359v-3.8984-2.8984c0-0.72043-0.014-1.3021-0.10352-1.8359-0.0895-0.53385-0.27666-1.0689-0.68359-1.4766s-0.9412-0.59578-1.4746-0.68554c-0.5334-0.08977-1.1149-0.10352-1.834-0.10352z" color="#000000" color-rendering="auto" dominant-baseline="auto" enable-background="accumulate" image-rendering="auto" opacity=".1" shape-rendering="auto" solid-color="#000000" style="font-feature-settings:normal;font-variant-alternates:normal;font-variant-caps:normal;font-variant-ligatures:normal;font-variant-numeric:normal;font-variant-position:normal;isolation:auto;mix-blend-mode:normal;shape-padding:0;text-decoration-color:#000000;text-decoration-line:none;text-decoration-style:solid;text-indent:0;text-orientation:mixed;text-transform:none;white-space:normal"/>
   <path d="m330.9 236.5c0.71048 0 1.2734 0.0154 1.752 0.0957s0.89671 0.23728 1.207 0.54688c0.31032 0.30959 0.46726 0.7261 0.54688 1.2051 0.0796 0.47897 0.0933 1.0435 0.0898 1.7559v3.8965 3.8984c3e-3 0.71121-0.0103 1.2755-0.0898 1.7539-0.0796 0.47898-0.23655 0.89549-0.54688 1.2051-0.31033 0.3096-0.72851 0.46655-1.207 0.54688-0.47852 0.0803-1.0415 0.0957-1.752 0.0957h-5.8086c-0.71048 0-1.2724-0.0153-1.75-0.0957-0.47763-0.0804-0.89584-0.23713-1.2051-0.54688-0.30921-0.30975-0.46469-0.72681-0.54492-1.2051-0.0802-0.47826-0.0957-1.042-0.0957-1.7539v-3.8984-3.8984c0-0.71189 0.0155-1.2756 0.0957-1.7539 0.0802-0.47827 0.2357-0.89533 0.54492-1.2051 0.30924-0.30975 0.72745-0.4665 1.2051-0.54688 0.47764-0.0804 1.0395-0.0957 1.75-0.0957z" color="#000000" enable-background="accumulate" fill="url(#linearGradient920)"/>
   <path d="m327 241v2.75c1e-5 0.1385 0.1115 0.25 0.25 0.25h1.5c0.1385 0 0.25-0.1115 0.25-0.25v-2.75zm0.5 1.5h1v1h-1z" color="#000000" enable-background="accumulate" opacity=".2"/>
   <path d="m328 237v1h1v-1zm0 1h-1v1h1zm0 1v1h1v-1z" color="#000000" enable-background="accumulate" opacity=".2"/>
   <path d="m327 240v2.75c1e-5 0.1385 0.1115 0.25 0.25 0.25h1.5c0.1385 0 0.25-0.1115 0.25-0.25v-2.75zm0.5 1.5h1v1h-1z" color="#000000" enable-background="accumulate" fill="#fff"/>
   <path d="m328 237h-1v1h1zm0 1v1h1v-1z" color="#000000" enable-background="accumulate" fill="#fff"/>
   <path d="m329.66 244.96c-0.23586 0.0136-0.38091 0.28034-0.35171 0.49705 0.0167 0.17992 0.22246 0.29882 0.38675 0.22452 0.21383-0.0867 0.37957-0.35918 0.27124-0.58206-0.063-0.10062-0.19274-0.14225-0.30628-0.13951zm1.2972 9e-3c-0.1208 0.0519-0.20021 0.1738-0.27773 0.27578-0.19083 0.34509-0.20305 0.75122-0.30563 1.1252-0.10054 0.32656-0.28264 0.62323-0.46915 0.90391-0.0869 0.10717-0.16887 0.28311-0.33354 0.2589-0.12271-0.0517-0.14182-0.21558-0.13627-0.33353-1e-3 -0.13638 0.0949-0.24062 0.10253-0.37441 0.0679-0.25931 0.2337-0.48517 0.28098-0.75011 0.0131-0.12928-1e-3 -0.31419-0.14601-0.36209-0.16736-0.0453-0.35064 0.044-0.42114 0.20181-0.11918 0.25443-0.15671 0.53701-0.23426 0.80528-0.0775 0.34097-0.0789 0.71079 0.0512 1.0389 0.1343 0.23793 0.47063 0.29423 0.70341 0.17716 0.0741-0.0269 0.12124-0.12101 0.20245-0.12136 0.0593 0.0717 0.025 0.17991 0.0143 0.26475-0.0586 0.17449-0.10528 0.35322-0.13042 0.53599-0.0694 0.39454-0.15743 0.7911-0.15379 1.1933 0.0299 0.14148 0.20766 0.24173 0.33678 0.15509 0.18207-0.0848 0.2781-0.34447 0.14471-0.51003 1e-3 -0.23919 0.0729-0.47482 0.11096-0.71054 0.0506-0.25889 0.0951-0.52097 0.12134-0.78256 0.0699-0.11545 0.22088-0.0634 0.32121-0.0272 0.15685 0.0513 0.35073 0.14212 0.49901 0.0195 0.22742-0.17445 0.43415-0.38899 0.53923-0.66057 0.17528-0.42758 0.29335-0.91351 0.15898-1.3692-0.0599-0.16298-0.14556-0.34567-0.30953-0.42502-0.17743-0.0651-0.32744 0.0875-0.4685 0.16872-0.0505 0.0214-0.10964 0.0882-0.16612 0.0655 0.0508-0.19584 0.19002-0.38778 0.14211-0.59764-0.0257-0.0733-0.0969-0.15628-0.17715-0.16547zm-5.2937 0.65992c-0.0313 1e-3 -0.0601 0.0226-0.0902 0.0318-0.38369 0.15988-0.60728 0.54204-0.78582 0.89677-0.15677 0.31891-0.32102 0.6588-0.28941 1.0246 3.3e-4 0.21965 0.14851 0.47628 0.38933 0.48406 0.24501 0.0251 0.42355-0.17504 0.58661-0.32573 0.0654-0.058 0.12971-0.13414 0.20181-0.17585 0.0326 0.14033-0.0333 0.2838-0.0675 0.41853-0.12639 0.3508-0.1599 0.73525-0.34068 1.0655-0.12893 0.22215-0.41771 0.28569-0.65215 0.26734-0.15879-8e-3 -0.30281-0.0844-0.43411-0.16418-0.12867 0.0185-0.2394 0.18692-0.14341 0.30175 0.14195 0.18445 0.39323 0.28153 0.6223 0.23165 0.32946-0.0276 0.67342-0.11831 0.913-0.35949 0.12864-0.11781 0.1917-0.28364 0.22777-0.45034 0.24606-0.91699 0.43205-1.8594 0.86368-2.7117-0.0296-0.1689-0.18014-0.29102-0.34132-0.33483-0.21857-0.0704-0.45005-0.10819-0.65993-0.19986zm2.9291 1e-3c-0.45317 0.0115-0.89051 0.14891-1.3205 0.28032-0.0483 0.0536 0.0165 0.137 0.0558 0.18558 0.13539 0.15385 0.36043 0.11301 0.53729 0.0766 0.11616-0.0182 0.23298-0.0559 0.34911-0.0623 0.0711 0.0332 0.0782 0.1295 0.0123 0.17066-0.18171 0.13914-0.38147 0.25769-0.53858 0.42697-0.22226 0.20426-0.4131 0.44256-0.62749 0.65539-0.13147 0.14638-0.29103 0.27329-0.39453 0.44188-0.0568 0.15714-3e-3 0.34386 0.13627 0.43931 0.12967 0.11406 0.3175 0.12929 0.4789 0.0902 0.27168-0.14469 0.5879-0.17207 0.86434-0.31081 0.0809-0.0346 0.17715-0.1274 0.1103-0.21869-0.0623-0.12583-0.21172-0.15443-0.33872-0.13692-0.16563-6.6e-4 -0.33115 0.0846-0.49512 0.0435-0.0624-0.0286 0.0298-0.0816 0.05-0.12003 0.48322-0.5255 1.0123-1.0076 1.486-1.5418 0.10914-0.13009-8e-3 -0.31983-0.14406-0.37636-0.0683-0.0336-0.1455-0.0463-0.22128-0.0435zm2.8396 0.3783c0.01 0.0112 0.0195 0.0219 0.0292 0.0331 0.1564 0.19321 0.0929 0.46118 0.024 0.67549-0.0935 0.27737-0.14363 0.60474-0.39194 0.79425-0.12719 0.10474-0.36154 0.10246-0.42828-0.0707-0.0621-0.17282 0.0571-0.33651 0.12978-0.48538 0.12861-0.2278 0.17158-0.50044 0.35041-0.70015 0.0795-0.0993 0.17883-0.1801 0.28681-0.24658zm-5.5851 0.0727c0.12468 0.0841 0.14967 0.25467 0.0896 0.38544-0.11411 0.27552-0.31589 0.50213-0.46268 0.75985-0.11383 0.1618-0.20074 0.35721-0.37896 0.45942-0.053 0.0303-0.13951 0.0432-0.16287-0.0292-0.11234-0.20398 0.0213-0.42755 0.11811-0.608 0.17348-0.31514 0.33168-0.66102 0.63592-0.87406 0.05-0.0326 0.10259-0.0846 0.16092-0.0934z" enable-background="new" fill="#fff" opacity=".5" stroke="#fff" stroke-linejoin="round" stroke-width=".0073414"/>
   <path d="m328 237v14h2.9043c2.8077 0 3.0957-0.28815 3.0957-3.1016v-3.8984-3.8984c0-2.8134-0.28801-3.1016-3.0957-3.1016z" color="#000000" enable-background="accumulate" fill="#fff" opacity=".08"/>
   <path d="m322 244v3.8984c-0.0138 2.8134 0.28801 3.1016 3.0957 3.1016h5.8086c2.8077 0 3.0957-0.28815 3.0957-3.1016v-3.8984z" color="#000000" enable-background="accumulate" fill="#fff" opacity=".08"/>
   <path d="m325.1 236.5c-0.71048 0-1.2734 0.0154-1.752 0.0957s-0.89671 0.23728-1.207 0.54688c-0.31032 0.30959-0.46726 0.7261-0.54688 1.2051-0.0796 0.47897-0.0933 1.0435-0.0898 1.7559v3.8965 3.8984c-3e-3 0.71121 0.0103 1.2755 0.0898 1.7539 0.0796 0.47898 0.23655 0.89549 0.54688 1.2051 0.31033 0.3096 0.72851 0.46655 1.207 0.54688 0.47852 0.0803 1.0415 0.0957 1.752 0.0957h5.8086c0.71048 0 1.2724-0.0153 1.75-0.0957 0.47763-0.0804 0.89584-0.23713 1.2051-0.54688 0.30921-0.30975 0.46469-0.72681 0.54492-1.2051 0.0802-0.47826 0.0957-1.042 0.0957-1.7539v-3.8984-3.8984c0-0.71189-0.0155-1.2756-0.0957-1.7539-0.0802-0.47827-0.2357-0.89533-0.54492-1.2051-0.30924-0.30975-0.72745-0.4665-1.2051-0.54688-0.47764-0.0804-1.0395-0.0957-1.75-0.0957z" color="#000000" enable-background="accumulate" fill="none" opacity=".4" stroke="#000"/>
   <path transform="translate(1.5262e-6)" d="m325.1 237c-2.8077 0-3.1098 0.28839-3.096 3.1018v3.8982 3.8982c-0.0138 2.8134 0.28834 3.1018 3.096 3.1018h5.8075c2.8077 0 3.096-0.28835 3.096-3.1018v-3.8982-3.8982c0-2.8134-0.28835-3.1018-3.096-3.1018z" clip-path="url(#clipPath983-7)" color="#000000" enable-background="accumulate" fill="none" opacity=".4" stroke="url(#linearGradient993)" stroke-width="2"/>
  </g>
 </g>
</svg>
