<?xml version="1.0" encoding="UTF-8" standalone="no"?>
<!-- Created with Inkscape (http://www.inkscape.org/) -->

<svg
   width="32"
   height="32"
   viewBox="0 0 8.4666665 8.4666669"
   version="1.1"
   id="svg2719"
   inkscape:version="1.1.2 (0a00cf5339, 2022-02-04)"
   sodipodi:docname="com.github.gi_lom.dialact.svg"
   xmlns:inkscape="http://www.inkscape.org/namespaces/inkscape"
   xmlns:sodipodi="http://sodipodi.sourceforge.net/DTD/sodipodi-0.dtd"
   xmlns:xlink="http://www.w3.org/1999/xlink"
   xmlns="http://www.w3.org/2000/svg"
   xmlns:svg="http://www.w3.org/2000/svg">
  <sodipodi:namedview
     id="namedview2721"
     pagecolor="#ffffff"
     bordercolor="#666666"
     borderopacity="1.0"
     inkscape:pageshadow="2"
     inkscape:pageopacity="0.0"
     inkscape:pagecheckerboard="0"
     inkscape:document-units="px"
     showgrid="false"
     units="px"
     inkscape:zoom="24"
     inkscape:cx="15.979167"
     inkscape:cy="16"
     inkscape:window-width="1920"
     inkscape:window-height="995"
     inkscape:window-x="0"
     inkscape:window-y="0"
     inkscape:window-maximized="1"
     inkscape:current-layer="svg2719" />
  <defs
     id="defs2716">
    <linearGradient
       inkscape:collect="always"
       id="linearGradient1871">
      <stop
         style="stop-color:#ffffff;stop-opacity:1;"
         offset="0"
         id="stop1867" />
      <stop
         style="stop-color:#ffffff;stop-opacity:0.1"
         offset="0.12"
         id="stop2515" />
      <stop
         style="stop-color:#ffffff;stop-opacity:0.102"
         offset="0.89999998"
         id="stop2581" />
      <stop
         style="stop-color:#ffffff;stop-opacity:0.502"
         offset="1"
         id="stop1869" />
    </linearGradient>
    <linearGradient
       inkscape:collect="always"
       xlink:href="#linearGradient1871"
       id="linearGradient867"
       x1="4.6278176"
       y1="11.864628"
       x2="4.6278176"
       y2="18.214628"
       gradientUnits="userSpaceOnUse"
       gradientTransform="translate(-2.5695447,-10.806133)" />
    <linearGradient
       inkscape:collect="always"
       xlink:href="#linearGradient2330"
       id="linearGradient2332"
       x1="6.3499999"
       y1="6.2177086"
       x2="7.4083333"
       y2="6.2177086"
       gradientUnits="userSpaceOnUse"
       gradientTransform="matrix(0.50000003,0,0,0.59523809,1.0583333,0.53231654)" />
    <linearGradient
       inkscape:collect="always"
       id="linearGradient2330">
      <stop
         style="stop-color:#000000;stop-opacity:1;"
         offset="0"
         id="stop2326" />
      <stop
         style="stop-color:#000000;stop-opacity:0;"
         offset="1"
         id="stop2328" />
    </linearGradient>
  </defs>
  <path
     d="M 1.9202958,1.05855 C 1.6045987,1.0609 1.3485526,1.07831 1.1358477,1.123146 0.89262153,1.174426 0.70081823,1.2657609 0.56430643,1.4171849 0.29128553,1.7200319 0.26458333,2.1898658 0.26458333,2.9302708 v 3.1357255 c 0,0.7402219 0.026633,1.2081701 0.2997231,1.5099851 0.1365462,0.150908 0.3285086,0.242385 0.57154127,0.2940388 0.2430331,0.05166 0.5426192,0.067696 0.9234578,0.067696 h 2.1740276 2.1740275 c 0.3808389,0 0.6804247,-0.016026 0.9234577,-0.067696 C 7.5738514,7.8183702 7.7658137,7.7268891 7.9023596,7.5759811 8.1754496,7.2741661 8.2020831,6.8062179 8.2020831,6.065996 V 2.9302703 c 0,-0.740405 -0.026701,-1.2102409 -0.2997235,-1.5130859 C 7.7658486,1.2657604 7.5740443,1.1744215 7.3308183,1.1231455 7.0877263,1.0718956 6.7880116,1.05662 6.4073606,1.05855 H 4.2333331 2.0598222 2.0592931 c -0.047581,-2.375e-4 -0.09391,-3.36e-4 -0.1390097,0 z"
     style="color:#000000;display:inline;overflow:visible;visibility:visible;fill:#000000;fill-opacity:1;fill-rule:nonzero;stroke:none;stroke-width:0.264583;marker:none;enable-background:accumulate;opacity:0.1"
     id="path1438" />
  <path
     d="m 8.0697573,2.6657202 c 0,-1.471547 -0.154541,-1.74722903 -1.662184,-1.73949503 H 4.23332 2.0590245 C 0.55138113,0.91842517 0.39684063,1.1941732 0.39684063,2.6657202 v 3.135429 c 0,1.471181 0.1545246,1.739495 1.66218387,1.739495 H 4.23332 6.4075733 c 1.507659,0 1.662184,-0.268314 1.662184,-1.739495 z"
     style="color:#000000;display:inline;overflow:visible;visibility:visible;fill:#f6f5f4;fill-opacity:1;fill-rule:nonzero;stroke:none;stroke-width:0.264583;marker:none;enable-background:accumulate"
     id="path908" />
  <path
     id="rect960"
     style="fill:#44d67b;fill-opacity:1;stroke-width:0.999999;stroke-linejoin:round"
     d="M 16 3.5 L 16 28.5 L 24.216797 28.5 C 29.915036 28.5 30.5 27.48615 30.5 21.925781 L 30.5 10.074219 C 30.5 4.5124663 29.914975 3.4707691 24.216797 3.5 L 16 3.5 z "
     transform="scale(0.26458333)" />
  <path
     id="rect2437"
     style="opacity:0.1;fill:#f9f9f9;fill-opacity:1;stroke-width:0.999999;stroke-linejoin:round"
     d="M 16 16 L 16 28.5 L 24.216797 28.5 C 29.915036 28.5 30.5 27.48615 30.5 21.925781 L 30.5 16 L 16 16 z "
     transform="scale(0.26458333)" />
  <rect
     style="opacity:0.2;fill:url(#linearGradient2332);fill-opacity:1;stroke-width:0.146092;stroke-linejoin:round"
     id="rect2208"
     width="0.5291667"
     height="6.6145835"
     x="4.2333336"
     y="0.92604166" />
  <path
     d="m 2.0582599,1.0584922 c -0.3728694,-0.0019 -0.6578733,0.01469 -0.8676481,0.05891 -0.20977492,0.04422 -0.33936792,0.111913 -0.42994802,0.212389 -0.18116015,0.200951 -0.23151035,0.604694 -0.23151035,1.335836 v 3.135725 c 0,0.730959 0.050424,1.132599 0.23151035,1.332735 0.090543,0.100068 0.2199773,0.167765 0.42994802,0.212389 0.2099706,0.04463 0.4956889,0.06201 0.8686799,0.06201 H 4.23332 6.4073484 c 0.372991,0 0.6587093,-0.01738 0.8686799,-0.06201 0.209971,-0.04462 0.339405,-0.112321 0.429948,-0.212389 0.181086,-0.200136 0.23151,-0.601776 0.23151,-1.332735 v -3.135725 c 0,-0.731142 -0.05035,-1.134888 -0.23151,-1.335836 -0.09058,-0.10047 -0.220173,-0.168164 -0.429948,-0.212386 -0.2097748,-0.04423 -0.4947787,-0.06076 -0.8676481,-0.05891 H 6.4078511 4.23332 2.0587758 Z m 1.6820673,0.275953 c 0.7202514,-7.94e-4 1.440352,-5.29e-4 2.1605901,0.0041 0.4519639,0.02 0.9180936,-0.03309 1.3652924,0.06563 0.2361456,0.03078 0.3461546,0.2739 0.3560496,0.486791 0.03456,1.320914 0.0094,2.64699 0.01707,3.970819 -0.0172,0.357251 0.0675,0.747702 -0.133842,1.067634 -0.1683759,0.181321 -0.4509138,0.153966 -0.6769633,0.186552 -1.4090253,0.03524 -2.8201249,0.01918 -4.2312642,0.01704 -0.4972976,-0.02286 -1.0181537,0.04429 -1.5022354,-0.107487 -0.24265202,-0.09412 -0.23905892,-0.405646 -0.26096642,-0.623215 -0.036478,-1.23431 -0.00751,-2.476659 -0.00672,-3.712954 0.019288,-0.331136 -0.027943,-0.673301 0.056846,-0.996838 0.048678,-0.24098 0.31437522,-0.307018 0.52348072,-0.327629 0.7773194,-0.04229 1.5535487,-0.02109 2.3326752,-0.03049 z"
     style="color:#000000;display:inline;overflow:visible;visibility:visible;fill:url(#linearGradient867);fill-opacity:1;fill-rule:nonzero;stroke:none;stroke-width:0.264583;marker:none;enable-background:accumulate;opacity:0.7"
     id="path1034" />
  <path
     d="m 2.059305,0.79390917 c -0.3806508,-0.0019 -0.6803655,0.01336 -0.9234567,0.0646 -0.24322622,0.05128 -0.43503057,0.14261503 -0.57154227,0.29403903 -0.2730209,0.302847 -0.2997227,0.772681 -0.2997227,1.513086 v 3.135725 c 0,0.740222 0.026633,1.20817 0.2997227,1.509985 0.1365461,0.150908 0.32850925,0.242385 0.57154227,0.294039 0.243033,0.05166 0.5426181,0.0677 0.9234567,0.0677 h 2.1740283 2.1740283 c 0.3808386,0 0.6804236,-0.01603 0.9234567,-0.0677 0.243033,-0.05165 0.434996,-0.143131 0.571542,-0.294039 0.27309,-0.301815 0.299723,-0.769763 0.299723,-1.509985 v -3.135725 c 0,-0.740405 -0.0267,-1.210241 -0.299723,-1.513086 -0.136511,-0.151424 -0.328316,-0.24276303 -0.571542,-0.29403903 -0.2430913,-0.05125 -0.542806,-0.06653 -0.9234567,-0.0646 H 4.2333333 2.0598236 Z M 2.058245,1.0584922 h 5.292e-4 2.1745442 2.1745443 5.292e-4 c 0.3728693,-0.0019 0.6578732,0.01469 0.8676481,0.05891 0.2097743,0.04422 0.3393673,0.111916 0.4299473,0.212389 0.18116,0.200948 0.231511,0.604694 0.231511,1.335836 v 3.135725 c 0,0.730959 -0.05043,1.132599 -0.231511,1.332735 -0.09054,0.100068 -0.21998,0.167762 -0.4299473,0.212389 -0.2099681,0.04463 -0.4956916,0.06201 -0.86868,0.06201 H 4.2333333 2.059305 c -0.3729884,0 -0.658712,-0.01738 -0.86868,-0.06201 C 0.98065688,7.3018522 0.85122008,7.2341582 0.76067708,7.1340902 0.57959093,6.9339542 0.52916673,6.5323142 0.52916673,5.8013552 v -3.135725 c 0,-0.731142 0.05035,-1.134885 0.23151035,-1.335836 0.09058,-0.100476 0.220173,-0.168167 0.42994792,-0.212389 0.2097749,-0.04423 0.4947814,-0.06083 0.8676481,-0.05891 z"
     style="color:#000000;display:inline;opacity:0.4;fill:#000000;stroke-width:0.264583;-inkscape-stroke:none;enable-background:new"
     id="path1156" />
  <path
     d="M 4.9014433,3.7292945 V 3.9480562 H 5.7439711 V 3.7292945 Z M 4.9191798,2.9104167 V 3.1291782 H 5.7439704 V 2.9104167 Z m -0.017736,1.2268389 v 0.2187617 h 0.842528 V 4.1372556 Z M 4.7625,3.3124651 V 3.5400954 H 5.8503959 V 3.3124651 Z M 6.0632451,4.4713105 V 5.55625 H 6.3263502 V 5.4291319 H 7.0624534 V 5.544425 H 7.3373837 V 4.4713105 Z m 0.2631051,0.706541 V 4.7225908 H 7.0624534 V 5.1778515 Z M 5.8503959,4.030831 V 4.2761988 H 7.5206703 V 4.030831 H 7.2634779 V 3.4159333 H 6.6071927 L 6.6456213,3.1528282 H 7.4231124 V 2.9104167 H 5.9479516 V 3.1528282 H 6.3736497 L 6.3352188,3.4159333 H 5.9922952 v 0.2394555 h 0.3044925 c -0.02365,0.1330306 -0.0473,0.2631051 -0.070949,0.3754422 z M 6.5658056,3.6553888 H 6.9944602 V 4.030831 H 6.4978119 Z M 4.8955308,4.551129 V 5.55625 H 5.1349861 V 5.4291319 H 5.7617086 V 4.551129 Z m 0.2394553,0.2246742 h 0.384311 v 0.4256983 h -0.384311 z"
     style="font-weight:500;font-size:4.13873px;line-height:1.25;font-family:'Noto Sans CJK KR';-inkscape-font-specification:'Noto Sans CJK KR Medium';fill:#ffffff;stroke-width:0.0195544"
     id="path12768" />
  <path
     d="m 3.5066663,4.2333336 c 0,0.2023726 -0.03148,0.3788864 -0.09444,0.5295415 -0.06296,0.1484066 -0.1517794,0.2720787 -0.2664572,0.3710164 -0.1146778,0.096689 -0.2518415,0.169768 -0.4114907,0.2192368 -0.1596497,0.04722 -0.3350391,0.07083 -0.5261687,0.07083 -0.09444,0 -0.1989998,-0.0045 -0.3136776,-0.013492 C 1.7820025,5.4037263 1.679692,5.3891063 1.5875,5.3666203 v -2.266573 c 0.092192,-0.022486 0.1945025,-0.037102 0.3069316,-0.043847 0.1146778,-0.00899 0.2192371,-0.013492 0.3136776,-0.013492 0.1911296,0 0.366519,0.024734 0.5261687,0.074203 0.1596492,0.04722 0.2968129,0.1202995 0.4114907,0.2192368 0.1146778,0.096689 0.2034969,0.2203613 0.2664572,0.3710164 0.06296,0.1484065 0.09444,0.323796 0.094441,0.5261691 z M 2.2350921,5.1372644 c 0.3103045,0 0.5419087,-0.078701 0.6948125,-0.2361013 C 3.0828082,4.7415135 3.1592601,4.5189038 3.1592601,4.2333336 3.1592601,3.9477635 3.0828081,3.726278 2.9299046,3.5688771 2.7770008,3.4092276 2.5453966,3.329403 2.2350921,3.329403 c -0.092192,0 -0.1641466,0.00113 -0.215864,0.00338 -0.049469,0.00225 -0.084322,0.00449 -0.1045592,0.00674 v 1.7876234 c 0.020238,0.00225 0.05509,0.0045 0.1045592,0.00674 0.051718,0.00225 0.123672,0.00338 0.215864,0.00338 z"
     style="font-size:4.49717px;line-height:1.25;font-family:Ubuntu;-inkscape-font-specification:Ubuntu;fill:#77767b;stroke-width:0.0223101"
     id="path22548" />
</svg>
