<?xml version="1.0" encoding="UTF-8" standalone="no"?>
<!-- Created with Inkscape (http://www.inkscape.org/) -->

<svg
   width="32"
   height="32"
   viewBox="0 0 8.4666665 8.4666669"
   version="1.1"
   id="svg5"
   inkscape:version="1.1.2 (0a00cf5339, 2022-02-04)"
   sodipodi:docname="goldendict.svg"
   xmlns:inkscape="http://www.inkscape.org/namespaces/inkscape"
   xmlns:sodipodi="http://sodipodi.sourceforge.net/DTD/sodipodi-0.dtd"
   xmlns:xlink="http://www.w3.org/1999/xlink"
   xmlns="http://www.w3.org/2000/svg"
   xmlns:svg="http://www.w3.org/2000/svg">
  <sodipodi:namedview
     id="namedview7"
     pagecolor="#ffffff"
     bordercolor="#666666"
     borderopacity="1.0"
     inkscape:pageshadow="2"
     inkscape:pageopacity="0.0"
     inkscape:pagecheckerboard="0"
     inkscape:document-units="px"
     showgrid="false"
     units="px"
     height="32px"
     inkscape:zoom="17.346213"
     inkscape:cx="5.8514213"
     inkscape:cy="14.008821"
     inkscape:window-width="1846"
     inkscape:window-height="1011"
     inkscape:window-x="74"
     inkscape:window-y="32"
     inkscape:window-maximized="1"
     inkscape:current-layer="svg5" />
  <defs
     id="defs2">
    <linearGradient
       inkscape:collect="always"
       id="linearGradient1871">
      <stop
         style="stop-color:#ffffff;stop-opacity:1;"
         offset="0"
         id="stop1867" />
      <stop
         style="stop-color:#ffffff;stop-opacity:0.1"
         offset="0.12"
         id="stop2515" />
      <stop
         style="stop-color:#ffffff;stop-opacity:0.102"
         offset="0.89999998"
         id="stop2581" />
      <stop
         style="stop-color:#ffffff;stop-opacity:0.502"
         offset="1"
         id="stop1869" />
    </linearGradient>
    <linearGradient
       inkscape:collect="always"
       id="linearGradient3598">
      <stop
         style="stop-color:#4e370e;stop-opacity:1"
         offset="0"
         id="stop3594" />
      <stop
         style="stop-color:#664920;stop-opacity:1"
         offset="1"
         id="stop3596" />
    </linearGradient>
    <linearGradient
       inkscape:collect="always"
       xlink:href="#linearGradient3598"
       id="linearGradient885"
       x1="5.840589"
       y1="8.2020836"
       x2="2.6656919"
       y2="0.39687499"
       gradientUnits="userSpaceOnUse" />
    <linearGradient
       inkscape:collect="always"
       xlink:href="#linearGradient1871"
       id="linearGradient1659"
       x1="2.6654696"
       y1="0.52916664"
       x2="2.69718"
       y2="7.9375"
       gradientUnits="userSpaceOnUse" />
  </defs>
  <path
     d="m 2.69718,0.52916666 c -0.3759491,0 -0.6743515,0.008149 -0.9275577,0.0506439 C 1.5164187,0.62231322 1.2956504,0.70485264 1.131442,0.86867999 0.96723635,1.0325073 0.88367825,1.2539451 0.84154865,1.5074027 c -0.04213,0.2534576 -0.049384,0.5521986 -0.04754,0.9291399 v 2.061374 2.0629245 c -0.00185,0.3760549 0.00548,0.6745552 0.04754,0.9275894 0.04213,0.2534603 0.1256877,0.4748954 0.28989335,0.6387227 0.1642084,0.1638274 0.3849767,0.2463668 0.6381803,0.2888695 0.2532062,0.042505 0.5516086,0.050644 0.9275577,0.050644 h 3.0730798 c 0.3759518,0 0.6737879,-0.00812 0.9265259,-0.050644 C 6.9495262,8.3734909 7.1697892,8.290544 7.3334155,8.1266346 7.4970418,7.9627253 7.5798246,7.7420284 7.6222743,7.4889491 7.6647267,7.2358672 7.6729156,6.9375495 7.6729156,6.5608411 V 4.4979166 2.4349921 c 0,-0.3767084 -0.0082,-0.6750261 -0.050641,-0.928108 C 7.5798246,1.2538022 7.4970418,1.033108 7.3334155,0.86919857 7.1697892,0.70528655 6.9495262,0.62234233 6.6967857,0.57981056 6.4440477,0.53727614 6.1462116,0.52916666 5.7702598,0.52916666 Z"
     style="color:#000000;font-style:normal;font-variant:normal;font-weight:normal;font-stretch:normal;font-size:medium;line-height:normal;font-family:sans-serif;font-variant-ligatures:normal;font-variant-position:normal;font-variant-caps:normal;font-variant-numeric:normal;font-variant-alternates:normal;font-feature-settings:normal;text-indent:0;text-align:start;text-decoration:none;text-decoration-line:none;text-decoration-style:solid;text-decoration-color:#000000;letter-spacing:normal;word-spacing:normal;text-transform:none;writing-mode:lr-tb;direction:ltr;text-orientation:mixed;dominant-baseline:auto;baseline-shift:baseline;text-anchor:start;white-space:normal;shape-padding:0;clip-rule:nonzero;display:inline;overflow:visible;visibility:visible;opacity:0.1;isolation:auto;mix-blend-mode:normal;color-interpolation:sRGB;color-interpolation-filters:linearRGB;solid-color:#000000;solid-opacity:1;vector-effect:none;fill:#000000;fill-opacity:1;fill-rule:nonzero;stroke:none;stroke-width:0.529156;stroke-linecap:butt;stroke-linejoin:miter;stroke-miterlimit:4;stroke-dasharray:none;stroke-dashoffset:0;stroke-opacity:1;marker:none;color-rendering:auto;image-rendering:auto;shape-rendering:auto;text-rendering:auto;enable-background:accumulate"
     id="path1922" />
  <path
     d="m 2.6656919,0.396875 c -1.4715463,0 -1.74722885,0.15454047 -1.73949505,1.6621839 v 2.1742532 2.1742955 c -0.00775,1.5076435 0.26794875,1.662184 1.73949505,1.662184 h 3.1354289 c 1.4711812,0 1.7394952,-0.1545246 1.7394952,-1.662184 V 4.2333121 2.0590589 c 0,-1.5076593 -0.268314,-1.6621839 -1.7394952,-1.6621839 z"
     style="color:#000000;display:inline;overflow:visible;visibility:visible;fill:url(#linearGradient885);fill-opacity:1;fill-rule:nonzero;stroke:none;stroke-width:0.264583;marker:none;enable-background:accumulate"
     id="path2042" />
  <path
     d="m 6.0933124,4.7625 c -0.137033,0 -0.2548625,0.00955 -0.3535362,0.028736 -0.095925,0.019182 -0.167185,0.039733 -0.2137781,0.061659 l 0.036983,0.2343282 c 0.035626,-0.013679 0.091808,-0.031485 0.1685449,-0.053409 0.076737,-0.021908 0.1932516,-0.032927 0.3494616,-0.032927 0.1096248,0 0.1972919,0.017859 0.2630646,0.05348 0.068514,0.032888 0.120613,0.078137 0.1562418,0.1356862 0.038367,0.054814 0.063003,0.1178455 0.073964,0.1891004 0.010954,0.068519 0.016431,0.1397159 0.016431,0.2137119 V 5.7244324 C 6.579709,5.7189524 6.559177,5.7134784 6.52903,5.7080014 6.501622,5.6997714 6.467374,5.6929204 6.4262658,5.6874694 c -0.038367,-0.00823 -0.079468,-0.013679 -0.1233196,-0.016431 -0.041108,-0.00548 -0.080825,-0.00826 -0.1191948,-0.00826 -0.1288071,0 -0.2480204,0.012303 -0.3576373,0.036983 -0.1096248,0.024659 -0.2042028,0.064445 -0.2836863,0.1192557 -0.079481,0.052073 -0.1411287,0.1191921 -0.1849781,0.2014087 -0.043852,0.082222 -0.065783,0.1808851 -0.065783,0.2959894 0,0.1205865 0.019182,0.223401 0.057536,0.3083719 0.041108,0.082217 0.095909,0.1507146 0.1644227,0.2055283 0.071258,0.05207 0.1535192,0.090405 0.2467028,0.1150673 0.095922,0.024659 0.2000514,0.03705 0.31242,0.03705 0.087696,0 0.1726618,-0.00415 0.2548837,-0.012356 0.08496,-0.00548 0.1616895,-0.013705 0.230206,-0.024686 0.068514,-0.010954 0.1287807,-0.020479 0.1808533,-0.028734 0.05207,-0.010954 0.091853,-0.020558 0.1192556,-0.028797 v -1.340141 c 0,-0.1123685 -0.013705,-0.2165614 -0.041103,-0.3124729 C 6.7894391,5.1393302 6.7455712,5.0571321 6.6852779,4.9886182 6.6249847,4.9173633 6.545488,4.8625628 6.4468248,4.8241929 6.3509028,4.7830846 6.2330733,4.7625318 6.0932886,4.7625318 Z m 0.082211,1.1304852 c 0.115107,0 0.205539,0.00826 0.2713038,0.024686 0.065773,0.013679 0.1137205,0.0274 0.1438672,0.041103 v 0.7482152 c -0.054811,0.010954 -0.121928,0.020479 -0.2014035,0.028736 -0.076737,0.00548 -0.1671717,0.00826 -0.2713038,0.00826 -0.08496,0 -0.1616921,-0.00683 -0.2302086,-0.020532 C 5.822006,6.7069917 5.7644406,6.6823087 5.7151064,6.649421 5.6685186,6.6165333 5.6315034,6.5727342 5.6040952,6.5179204 5.579436,6.4631067 5.5671144,6.3959264 5.5671144,6.3164482 c 0,-0.09044 0.019182,-0.1630892 0.057534,-0.2178976 0.03837,-0.054814 0.087704,-0.097232 0.1479973,-0.1273784 0.060293,-0.032888 0.1260899,-0.053504 0.1973475,-0.061722 0.071257,-0.01098 0.1397529,-0.016431 0.2055283,-0.016431 z"
     style="fill:#f79f36;stroke-width:0.264583;enable-background:new;fill-opacity:1"
     id="path879" />
  <path
     id="rect1018"
     style="opacity:0.3;fill:#1a1a1a;stroke-width:0.999999"
     d="M 8 1.5488281 C 4.2458142 1.7656197 3.4748587 2.8821039 3.5 7.7832031 L 3.5 16 L 3.5 24.216797 C 3.474806 29.117896 4.2458025 30.23438 8 30.451172 L 8 1.5488281 z "
     transform="scale(0.26458333)" />
  <path
     id="rect1372"
     style="opacity:0.05;fill:#ffffff;fill-opacity:1;stroke-width:0.999999;stroke-linejoin:round"
     d="M 3.5 16 L 3.5 24.216797 C 3.4707087 29.914977 4.512469 30.5 10.074219 30.5 L 21.925781 30.5 C 27.486151 30.5 28.5 29.915037 28.5 24.216797 L 28.5 16 L 3.5 16 z "
     transform="scale(0.26458333)" />
  <path
     id="path2368"
     style="color:#000000;display:inline;opacity:0.4;fill:url(#linearGradient1659);fill-opacity:1;stroke-width:0.264583;-inkscape-stroke:none;enable-background:new"
     d="m 2.6654697,0.52916666 c -0.7311231,0 -1.1348932,0.0503502 -1.3358363,0.23151041 C 1.2291632,0.85125718 1.1614669,0.98085009 1.1172445,1.190625 1.0730194,1.4003999 1.0564803,1.6854037 1.0583323,2.0582731 v 5.292e-4 2.1745442 2.1745442 5.292e-4 c -0.00185,0.3728667 0.014684,0.6578732 0.058912,0.8676481 0.044222,0.2097749 0.1119161,0.3393678 0.2123889,0.4299479 0.2009458,0.1811602 0.6047132,0.2315104 1.3358363,0.2315104 h 3.1357254 c 0.7309432,0 1.1326045,-0.050424 1.3327353,-0.2315104 C 7.2339957,7.6154729 7.3016972,7.4860361 7.3463192,7.276068 7.3909522,7.0660735 7.4083322,6.78035 7.4083322,6.4073616 V 4.2333333 2.059305 c 0,-0.3729884 -0.017383,-0.658712 -0.062013,-0.86868 C 7.3016972,0.98065695 7.2339957,0.85122014 7.1339302,0.76067707 6.9337994,0.57959095 6.5321381,0.52916666 5.8011949,0.52916666 Z m 0.1157552,0.25217966 h 2.9171344 c 0.3844713,0 0.6758808,0.0106892 0.8795332,0.0434102 0.2036524,0.0327157 0.3061811,0.0816213 0.3705198,0.14314223 0.064341,0.061521 0.1156071,0.15958605 0.14986,0.35450195 0.034253,0.1949185 0.045477,0.4740354 0.045477,0.8418089 v 2.0629218 2.0629245 c 0,0.3677735 -0.011218,0.6468904 -0.045477,0.8418089 -0.03425,0.1949186 -0.085519,0.2929784 -0.14986,0.3544993 C 6.8840736,7.5478851 6.7815449,7.5967933 6.5778925,7.629509 6.3742401,7.6622221 6.0828306,7.6729166 5.6983593,7.6729166 H 2.7812249 c -0.3844713,0 -0.6767301,-0.010663 -0.8810837,-0.043408 C 1.695785,7.5967642 1.592243,7.5479671 1.527555,7.4863641 1.462867,7.4247586 1.4120855,7.3269289 1.3782083,7.1323808 1.3443337,6.9378326 1.3334329,6.6591444 1.3353193,6.2916064 V 6.2910772 4.2271209 2.1636804 2.1631513 C 1.3334673,1.7956159 1.3443416,1.516925 1.3782083,1.3223769 1.4120855,1.1278261 1.462867,1.0299965 1.527555,0.96839351 1.592243,0.90678793 1.695785,0.85799611 1.9001412,0.82524864 2.1044948,0.7925038 2.3967536,0.78184109 2.7812249,0.78184109 Z"
     sodipodi:nodetypes="sssscccsssssssscssssscssssscsssssssssscccsssscc" />
  <path
     d="m 2.6655888,0.26458333 c -0.7403862,0 -1.2102121,0.0267017 -1.5130489,0.29972264 C 1.0011188,0.70081774 0.90978205,0.89262213 0.85850585,1.1358483 0.80723225,1.3790745 0.79195785,1.6788685 0.79391315,2.0598235 v 2.1735098 2.1740283 c -0.00185,0.3806507 0.013361,0.6803654 0.064593,0.9234567 0.051276,0.2432261 0.14261295,0.4350305 0.29403405,0.5715423 0.3028394,0.2730209 0.7726627,0.2997226 1.5130489,0.2997226 h 3.1356508 c 0.7402036,0 1.2081404,-0.026633 1.5099506,-0.2997226 C 7.4620929,7.7658144 7.5535673,7.5738513 7.6052219,7.3308183 7.6568739,7.0877852 7.6729156,6.7882002 7.6729156,6.4073616 V 4.2333333 2.059305 c 0,-0.3808386 -0.016034,-0.6804237 -0.067694,-0.9234567 C 7.5535673,0.89281528 7.4620929,0.70085214 7.3111905,0.56430597 7.0093803,0.29121629 6.5414435,0.26458333 5.8012399,0.26458333 Z m 0,0.26458333 h 3.1356511 c 0.7309432,0 1.1325727,0.0504243 1.3327036,0.23151041 0.1000654,0.0905431 0.167759,0.21997988 0.2123837,0.42994793 0.04463,0.209968 0.062013,0.4956916 0.062013,0.86868 v 2.1740283 2.1740283 c 0,0.3729884 -0.017383,0.6587119 -0.062013,0.86868 C 7.3017025,7.4860096 7.2340089,7.6154464 7.1339435,7.7059895 6.9338126,7.8870756 6.5321831,7.9374999 5.8012399,7.9374999 H 2.6655888 c -0.7311232,0 -1.1348588,-0.05035 -1.3358045,-0.2315104 C 1.2293114,7.6154094 1.161623,7.4858165 1.1174006,7.2760416 1.0731755,7.0662667 1.0565729,6.7812602 1.0584911,6.4083935 V 6.4078643 4.2333333 2.058789 2.0582599 C 1.056639,1.6853905 1.0731755,1.4003867 1.1174006,1.1906118 1.161623,0.98083686 1.229314,0.85124395 1.3297843,0.76066384 1.5307274,0.57950364 1.9344656,0.52915343 2.6655888,0.52915343 Z"
     style="color:#000000;display:inline;opacity:0.4;fill:#000000;stroke-width:0.26458;-inkscape-stroke:none;enable-background:new"
     id="path2244" />
</svg>
