<?xml version="1.0" encoding="UTF-8" standalone="no"?>
<!-- Created with Inkscape (http://www.inkscape.org/) -->

<svg
   width="32"
   height="32"
   viewBox="0 0 8.4666667 8.4666667"
   version="1.1"
   id="svg5"
   sodipodi:docname="ibus-setup.svg"
   inkscape:version="1.1.2 (0a00cf5339, 2022-02-04, custom)"
   xmlns:inkscape="http://www.inkscape.org/namespaces/inkscape"
   xmlns:sodipodi="http://sodipodi.sourceforge.net/DTD/sodipodi-0.dtd"
   xmlns:xlink="http://www.w3.org/1999/xlink"
   xmlns="http://www.w3.org/2000/svg"
   xmlns:svg="http://www.w3.org/2000/svg">
  <sodipodi:namedview
     id="namedview7"
     pagecolor="#ffffff"
     bordercolor="#666666"
     borderopacity="1.0"
     inkscape:pageshadow="2"
     inkscape:pageopacity="0.0"
     inkscape:pagecheckerboard="0"
     inkscape:document-units="px"
     showgrid="false"
     units="px"
     height="48px"
     showguides="false"
     inkscape:zoom="16"
     inkscape:cx="18.4375"
     inkscape:cy="26.9375"
     inkscape:window-width="1920"
     inkscape:window-height="1012"
     inkscape:window-x="0"
     inkscape:window-y="0"
     inkscape:window-maximized="1"
     inkscape:current-layer="svg5" />
  <defs
     id="defs2">
    <linearGradient
       inkscape:collect="always"
       id="linearGradient1544">
      <stop
         style="stop-color:#37a6e6;stop-opacity:1"
         offset="0"
         id="stop1540" />
      <stop
         style="stop-color:#1a7fe4;stop-opacity:1"
         offset="1"
         id="stop1542" />
    </linearGradient>
    <linearGradient
       inkscape:collect="always"
       id="linearGradient1871">
      <stop
         style="stop-color:#ffffff;stop-opacity:1;"
         offset="0"
         id="stop1867" />
      <stop
         style="stop-color:#ffffff;stop-opacity:0.1"
         offset="0.12"
         id="stop2515" />
      <stop
         style="stop-color:#ffffff;stop-opacity:0.102"
         offset="0.89999998"
         id="stop2581" />
      <stop
         style="stop-color:#ffffff;stop-opacity:0.502"
         offset="1"
         id="stop1869" />
    </linearGradient>
    <linearGradient
       inkscape:collect="always"
       xlink:href="#linearGradient1871"
       id="linearGradient1198"
       x1="6.3499999"
       y1="0.52916658"
       x2="6.3499994"
       y2="12.170834"
       gradientUnits="userSpaceOnUse"
       gradientTransform="matrix(2.405154,0,0,2.405154,0.72727268,0.72727268)" />
    <linearGradient
       inkscape:collect="always"
       xlink:href="#linearGradient1544"
       id="linearGradient2016"
       x1="9.921875"
       y1="11.1125"
       x2="2.7781253"
       y2="1.5874999"
       gradientUnits="userSpaceOnUse"
       gradientTransform="matrix(0.64444444,0,0,0.64444444,0.14111151,0.14111151)" />
  </defs>
  <circle
     style="opacity:0.1;fill:#000000;fill-opacity:1;stroke-width:0.345109;stroke-linecap:round;stroke-linejoin:round"
     id="path3625"
     cx="4.2333331"
     cy="4.4979167"
     r="3.96875" />
  <circle
     style="fill:url(#linearGradient2016);fill-opacity:1;stroke-width:0.341019;stroke-linecap:round;stroke-linejoin:round"
     id="path986"
     cx="4.2333336"
     cy="4.2333336"
     r="3.8364584" />
  <path
     id="rect1372"
     style="opacity:0.1;fill:#ffffff;fill-opacity:1;stroke-width:0.999999;stroke-linejoin:round"
     d="M 1.5 16 A 14.5 14.5 0 0 0 16 30.5 A 14.5 14.5 0 0 0 30.5 16 L 1.5 16 z "
     transform="scale(0.26458333)" />
  <path
     id="rect4025"
     style="fill:#ffffff;stroke-width:0.176389;stroke-linecap:round;stroke-linejoin:round"
     d="m 4.2677842,1.5875 c -0.1198288,0 -0.2227482,0.040817 -0.3090251,0.1223009 -0.081484,0.076691 -0.1223008,0.1820514 -0.1223008,0.3162598 0,0.1342082 0.040817,0.2420108 0.1223008,0.3234944 0.086277,0.076691 0.1891963,0.1150662 0.3090251,0.1150662 0.1198288,0 0.2206514,-0.038376 0.3021349,-0.1150662 0.086277,-0.081484 0.1291911,-0.1892862 0.1291911,-0.3234944 0,-0.1342084 -0.042914,-0.2395693 -0.1291911,-0.3162598 C 4.4884356,1.6283173 4.387613,1.5875 4.2677842,1.5875 Z M 3.937055,3.1405492 V 6.8791667 H 4.6057481 V 3.1405492 Z" />
  <path
     id="path4344"
     style="opacity:0.4;fill:#000000;fill-opacity:1;stroke-width:2;stroke-linecap:round;stroke-linejoin:round"
     d="M 16,1 A 15,15 0 0 0 1,16 15,15 0 0 0 16,31 15,15 0 0 0 31,16 15,15 0 0 0 16,1 Z m 0,1 A 14,14 0 0 1 30,16 14,14 0 0 1 16,30 14,14 0 0 1 2,16 14,14 0 0 1 16,2 Z"
     transform="scale(0.26458333)" />
  <path
     id="path1110"
     style="fill:url(#linearGradient1198);fill-opacity:1;stroke-width:1.27273;stroke-linecap:round;stroke-linejoin:round"
     d="m 16,2 c -7.7319866,-1e-7 -14.0000001,6.2680134 -14,14 2e-7,7.731987 6.2680134,14 14,14 7.731986,0 14,-6.268014 14,-14 C 30,8.2680134 23.731987,2.0000002 16,2 Z m 0,1 A 13,13 0 0 1 29,16 13,13 0 0 1 16,29 13,13 0 0 1 3,16 13,13 0 0 1 16,3 Z"
     transform="scale(0.26458333)" />
  <circle
     style="fill:#8f8f8f;fill-opacity:1;stroke-width:0.195561"
     id="path980"
     cx="6.0854163"
     cy="6.0854163"
     r="2.2489583" />
  <path
     id="path45"
     d="M 5.8223835,4.4979168 V 4.775936 C 5.6830997,4.8033719 5.5513877,4.8523339 5.4311931,4.9195965 L 5.2761637,4.7345948 4.8782552,5.0741089 5.0332846,5.2596274 C 4.9480319,5.3674445 4.8788344,5.4883702 4.8296793,5.6192953 l -0.2444295,-0.043408 -0.087333,0.5162475 0.2475301,0.043925 c 0.00479,0.1395513 0.03104,0.2738184 0.075448,0.399459 L 4.5955852,6.665743 4.8596518,7.1173952 5.0880616,6.9851036 c 0.08897,0.098918 0.1924037,0.1843365 0.3069579,0.2532144 l -0.093018,0.2552817 0.4919599,0.1762164 0.092501,-0.2557983 c 0.063339,0.00927 0.1279157,0.014467 0.1937867,0.01447 0.067999,-2.9e-6 0.134698,-0.00511 0.1999877,-0.014986 L 6.3742879,7.6729168 6.8641804,7.490499 6.7711629,7.2352174 C 6.88448,7.1663405 6.9864584,7.0808939 7.0745035,6.9825197 L 7.3106647,7.1189454 7.569047,6.6641928 7.3406373,6.5324179 c 0.04364,-0.1244417 0.069568,-0.2572845 0.074414,-0.3953248 L 7.6729166,6.0916181 7.5788655,5.576404 7.3313353,5.6203291 C 7.2828065,5.4907311 7.2147586,5.3707942 7.1308309,5.2637615 L 7.2915446,5.0715253 6.8895018,4.7371787 6.7339559,4.9226972 C 6.6143955,4.8551361 6.4834854,4.8055471 6.3448324,4.7774864 V 4.4979168 Z m 0.2578656,0.6004801 c 0.5467807,-1.35e-5 0.9885701,0.4426715 0.9885701,0.991154 0,0.5484826 -0.4417894,0.9906505 -0.9885701,0.9906373 -0.5467715,0 -0.9880534,-0.4421642 -0.9880534,-0.9906373 0,-0.548473 0.4412819,-0.991154 0.9880534,-0.991154 z"
     style="fill:#ffffff;fill-opacity:1;stroke:none;stroke-width:0.264583" />
  <path
     id="path854"
     style="opacity:0.4;fill:#000000;stroke-width:0.198438"
     d="m 6.0854167,3.7041667 a 2.3812499,2.3812499 0 0 0 -2.38125,2.38125 2.3812499,2.3812499 0 0 0 2.38125,2.3812499 2.3812499,2.3812499 0 0 0 2.38125,-2.3812499 2.3812499,2.3812499 0 0 0 -2.38125,-2.38125 z m 0,0.2645833 A 2.1166667,2.1166667 0 0 1 8.2020833,6.0854167 2.1166667,2.1166667 0 0 1 6.0854167,8.2020833 2.1166667,2.1166667 0 0 1 3.9687501,6.0854167 2.1166667,2.1166667 0 0 1 6.0854167,3.96875 Z" />
</svg>
