<?xml version="1.0" encoding="UTF-8" standalone="no"?>
<!-- Created with Inkscape (http://www.inkscape.org/) -->

<svg
   width="32"
   height="32"
   viewBox="0 0 8.4666667 8.4666667"
   version="1.1"
   id="svg5"
   sodipodi:docname="konqueror.svg"
   inkscape:version="1.1.2 (0a00cf5339, 2022-02-04)"
   xmlns:inkscape="http://www.inkscape.org/namespaces/inkscape"
   xmlns:sodipodi="http://sodipodi.sourceforge.net/DTD/sodipodi-0.dtd"
   xmlns:xlink="http://www.w3.org/1999/xlink"
   xmlns="http://www.w3.org/2000/svg"
   xmlns:svg="http://www.w3.org/2000/svg">
  <sodipodi:namedview
     id="namedview7"
     pagecolor="#ffffff"
     bordercolor="#666666"
     borderopacity="1.0"
     inkscape:pageshadow="2"
     inkscape:pageopacity="0.0"
     inkscape:pagecheckerboard="0"
     inkscape:document-units="px"
     showgrid="false"
     units="px"
     height="48px"
     showguides="false"
     inkscape:zoom="12.328125"
     inkscape:cx="24.375158"
     inkscape:cy="25.956907"
     inkscape:window-width="1920"
     inkscape:window-height="995"
     inkscape:window-x="0"
     inkscape:window-y="0"
     inkscape:window-maximized="1"
     inkscape:current-layer="svg5" />
  <defs
     id="defs2">
    <linearGradient
       inkscape:collect="always"
       id="linearGradient1544">
      <stop
         style="stop-color:#6e98ff;stop-opacity:1"
         offset="0"
         id="stop1540" />
      <stop
         style="stop-color:#325fd1;stop-opacity:1"
         offset="1"
         id="stop1542" />
    </linearGradient>
    <linearGradient
       inkscape:collect="always"
       id="linearGradient1871">
      <stop
         style="stop-color:#ffffff;stop-opacity:1;"
         offset="0"
         id="stop1867" />
      <stop
         style="stop-color:#ffffff;stop-opacity:0.1"
         offset="0.12"
         id="stop2515" />
      <stop
         style="stop-color:#ffffff;stop-opacity:0.102"
         offset="0.89999998"
         id="stop2581" />
      <stop
         style="stop-color:#ffffff;stop-opacity:0.502"
         offset="1"
         id="stop1869" />
    </linearGradient>
    <linearGradient
       inkscape:collect="always"
       xlink:href="#linearGradient1871"
       id="linearGradient1198"
       x1="6.3499999"
       y1="0.52916658"
       x2="6.3499994"
       y2="12.170834"
       gradientUnits="userSpaceOnUse"
       gradientTransform="matrix(2.405154,0,0,2.405154,0.72727268,0.72727268)" />
    <linearGradient
       inkscape:collect="always"
       xlink:href="#linearGradient1544"
       id="linearGradient2016"
       x1="9.921875"
       y1="11.1125"
       x2="2.7781253"
       y2="1.5874999"
       gradientUnits="userSpaceOnUse"
       gradientTransform="matrix(0.64444444,0,0,0.64444444,0.14111151,0.14111151)" />
    <linearGradient
       inkscape:collect="always"
       xlink:href="#linearGradient4868"
       id="linearGradient1061"
       x1="4.2333331"
       y1="8.2020836"
       x2="4.2333331"
       y2="0.26458356"
       gradientUnits="userSpaceOnUse" />
    <linearGradient
       inkscape:collect="always"
       id="linearGradient4868">
      <stop
         style="stop-color:#aecaf8;stop-opacity:1"
         offset="0"
         id="stop4864" />
      <stop
         style="stop-color:#6da0f1;stop-opacity:1"
         offset="1"
         id="stop4866" />
    </linearGradient>
  </defs>
  <circle
     style="opacity:0.1;fill:#000000;fill-opacity:1;stroke-width:0.345109;stroke-linecap:round;stroke-linejoin:round"
     id="path3625"
     cx="4.2333331"
     cy="4.4979167"
     r="3.96875" />
  <circle
     style="fill:url(#linearGradient2016);fill-opacity:1;stroke-width:0.341019;stroke-linecap:round;stroke-linejoin:round"
     id="path986"
     cx="4.2333336"
     cy="4.2333336"
     r="3.8364584" />
  <g
     id="g1320"
     style="opacity:0.4">
    <path
       d="m 4.2329173,0.94514231 c -0.2364884,-0.00263 -0.3191785,0.00622 -0.3524406,0.29216429 l -0.0127,0.1010228 c -0.029191,0.1854558 -0.034742,0.2693988 -0.2102076,0.3148444 -0.011746,0.00263 -0.023496,0.00532 -0.035192,0.0081 -0.00276,5.262e-4 -0.00526,0.00132 -0.0081,0.00184 h 5.262e-4 c -0.044298,0.010691 -0.088119,0.022568 -0.1315294,0.035459 l 5.262e-4,-5.262e-4 c -0.00725,0.00237 -0.013811,0.00442 -0.020664,0.00656 -0.00656,0.00211 -0.013177,0.00389 -0.019737,0.00595 C 3.2670785,1.7600232 3.220449,1.6900823 3.1019944,1.5435085 L 3.0404424,1.4623545 C 2.9545524,1.3468494 2.8925993,1.297507 2.82669,1.2921535 2.760781,1.2868135 2.6908627,1.3254255 2.5891197,1.3856825 2.3830029,1.5016511 2.3157255,1.5505267 2.4298921,1.8147988 l 0.039605,0.093863 c 0.072624,0.1886452 0.1103981,0.2616437 -0.057136,0.4079715 l 0.00447,-0.00106 c -0.034627,0.032821 -0.068402,0.066463 -0.1012235,0.1010919 l 0.00105,-0.00442 C 2.1703305,2.5797815 2.0973281,2.5420071 1.9086858,2.4693815 L 1.8148218,2.4298421 C 1.7322398,2.3941656 1.6706814,2.3761873 1.6215429,2.3746473 1.5134335,2.3712603 1.4654361,2.4473627 1.3857089,2.5890709 1.2651891,2.7925593 1.2313712,2.8684789 1.4623809,3.0402595 l 0.081151,0.061619 c 0.1465705,0.1184567 0.216518,0.1650816 0.1670572,0.3414025 -0.0021,0.00656 -0.00394,0.013097 -0.00596,0.019658 -0.0021,0.00685 -0.00415,0.013494 -0.00661,0.020743 l 5.364e-4,-5.303e-4 c -0.012887,0.043413 -0.024765,0.087233 -0.035462,0.1315323 v -5.295e-4 c -5.261e-4,0.00283 -0.00132,0.00527 -0.00184,0.00802 -0.00276,0.011695 -0.00548,0.023495 -0.0081,0.035259 -0.045443,0.1754642 -0.1293829,0.1810176 -0.314842,0.2102068 L 1.2372229,3.8802873 C 0.95127372,3.9135513 0.94249692,3.9963099 0.94512762,4.232797 c -0.00266,0.2364871 0.00614,0.3191775 0.29209528,0.352441 l 0.1010886,0.012726 c 0.1854591,0.029189 0.2693987,0.034742 0.3148444,0.2102062 0.00266,0.011748 0.00532,0.023495 0.0081,0.035192 5.262e-4,0.00275 0.00132,0.00527 0.00184,0.0081 v -5.294e-4 c 0.010691,0.044299 0.022572,0.088119 0.035462,0.1315296 L 1.6980318,4.981933 c 0.00237,0.00725 0.00442,0.013811 0.00656,0.020664 0.0021,0.00656 0.00389,0.013176 0.00595,0.019738 0.049464,0.176321 -0.020477,0.2229485 -0.1670539,0.3414051 l -0.081154,0.06155 C 1.2313268,5.597067 1.2651447,5.6731191 1.3856645,5.8766075 1.5016298,6.0827257 1.5505086,6.150004 1.8147774,6.0358364 l 0.093864,-0.039608 c 0.1886455,-0.072623 0.2616447,-0.1104002 0.4079718,0.057136 l -0.00105,-0.00447 c 0.032822,0.034628 0.066465,0.068403 0.101092,0.1012242 l -0.00442,-0.00106 c 0.1675374,0.1463283 0.1297635,0.2193294 0.057136,0.407972 l -0.039474,0.093864 C 2.3157286,6.9151652 2.3829372,6.9640417 2.589057,7.0800057 2.7925463,7.2005288 2.8684656,7.2343424 3.0402482,7.0033377 l 0.061615,-0.081153 c 0.118458,-0.1465711 0.1650842,-0.2165851 0.3414048,-0.167124 0.00654,0.00212 0.013098,0.00402 0.019661,0.00603 0.00685,0.00212 0.013492,0.00415 0.020743,0.00661 l -5.261e-4,-5.294e-4 c 0.04341,0.012885 0.087228,0.024765 0.1315293,0.035459 l -5.261e-4,6.58e-5 c 0.00283,5.294e-4 0.00526,0.00132 0.00802,0.00185 0.011694,0.00278 0.023496,0.00548 0.035258,0.0081 0.1754624,0.045442 0.1810165,0.1293837 0.2102076,0.3148434 l 0.012647,0.1010893 c 0.033265,0.2859486 0.1160245,0.2947273 0.3525096,0.2920949 0.2364852,0.00265 0.3191785,-0.00614 0.3524407,-0.2920949 l 0.0127,-0.1010893 C 4.627126,6.9420324 4.632677,6.8580908 4.8081428,6.8126461 c 0.011746,-0.00265 0.023496,-0.00532 0.035189,-0.0081 0.00276,-5.295e-4 0.00519,-0.00132 0.00802,-0.00185 l -3.289e-4,-6.58e-5 c 0.044301,-0.010689 0.088122,-0.022569 0.1315327,-0.035459 l -5.262e-4,5.294e-4 c 0.00725,-0.00238 0.013811,-0.00447 0.020664,-0.00661 0.00656,-0.00212 0.013173,-0.00397 0.019737,-0.00603 0.1763206,-0.049461 0.2229468,0.020558 0.3414015,0.167124 l 0.061549,0.081153 C 5.5971617,7.234345 5.6732125,7.2005949 5.8767019,7.0800744 6.0828186,6.9641051 6.1500302,6.9151652 6.0358636,6.6508941 l -0.03954,-0.093864 C 5.9237029,6.3683852 5.8859258,6.2953867 6.0534598,6.1490589 l -0.00447,0.00106 c 0.034627,-0.032822 0.068402,-0.06653 0.1012235,-0.1011581 l -0.00105,0.00447 C 6.2954859,5.885897 6.3684883,5.9236688 6.5571306,5.9962968 l 0.093864,0.039473 C 6.91527,6.1499379 6.9641422,6.0827283 7.0801108,5.8766075 7.2006306,5.6731191 7.2344452,5.5971996 7.0034385,5.4254189 L 6.9222842,5.3637999 C 6.7757137,5.2453459 6.7057037,5.1987184 6.7551645,5.0223975 c 0.0021,-0.00656 0.00402,-0.013097 0.00603,-0.019658 0.0021,-0.00685 0.00416,-0.013494 0.00662,-0.020744 l -5.29e-4,5.295e-4 c 0.012884,-0.043413 0.024765,-0.087233 0.035459,-0.1315323 v 5.294e-4 c 5.262e-4,-0.00283 0.00132,-0.00534 0.00184,-0.0081 0.00276,-0.011694 0.00548,-0.023442 0.0081,-0.035189 C 6.8581275,4.63277 6.9420707,4.6272162 7.1275264,4.5980274 l 0.101092,-0.0127 C 7.5145674,4.5520638 7.5233441,4.4693711 7.5207134,4.232884 7.523377,3.9963966 7.5145773,3.9137065 7.2286182,3.880443 l -0.101092,-0.0127 C 6.9420705,3.838554 6.8581275,3.833001 6.8126852,3.657537 c -0.00266,-0.011748 -0.00532,-0.023495 -0.0081,-0.035192 -5.261e-4,-0.00275 -0.00132,-0.00527 -0.00184,-0.0081 v 5.294e-4 c -0.010688,-0.044296 -0.022569,-0.088116 -0.03546,-0.1315261 l 5.262e-4,5.294e-4 c -0.00237,-0.00725 -0.00434,-0.013864 -0.00648,-0.020743 -0.0021,-0.00656 -0.00389,-0.013123 -0.00596,-0.019659 -0.049461,-0.1763235 0.02048,-0.2229484 0.1670575,-0.3414051 l 0.081151,-0.061616 C 7.2345932,2.8685714 7.2007753,2.7925857 7.0802555,2.5890973 7.0005283,2.4473891 6.9525309,2.3713583 6.8444248,2.3747424 c -0.049142,0.00159 -0.1106974,0.019447 -0.1932822,0.055126 l -0.093864,0.039608 C 6.368633,2.5420992 6.2956339,2.5798767 6.1493068,2.4123397 l 0.00105,0.00442 C 6.1175348,2.3821325 6.0838288,2.3484248 6.0492024,2.3156033 l 0.00447,0.00106 C 5.8861396,2.170334 5.9239167,2.0973355 5.9965409,1.9086902 l 0.039471,-0.093865 C 6.1501815,1.5505561 6.0829699,1.5016773 5.8768531,1.3857153 5.7878261,1.3329853 5.723229,1.2968063 5.6643009,1.2921833 c -0.00841,-5.261e-4 -0.016774,-7.892e-4 -0.025028,0 -0.065909,0.00535 -0.1277278,0.054696 -0.2136208,0.170201 l -0.061615,0.081151 C 5.2455792,1.6901058 5.198953,1.7600566 5.0226323,1.7105925 c -0.00654,-0.00211 -0.013098,-0.00394 -0.019658,-0.00595 -0.00685,-0.0021 -0.013496,-0.00415 -0.020743,-0.00661 l 5.261e-4,5.262e-4 c -0.04341,-0.01289 -0.087231,-0.024768 -0.1315326,-0.035462 h 5.261e-4 c -0.00283,-5.261e-4 -0.00532,-0.00131 -0.0081,-0.00184 -0.011693,-0.00276 -0.02344,-0.00548 -0.035192,-0.0081 C 4.6330002,1.6077099 4.6274461,1.5237668 4.5982583,1.338311 l -0.0127,-0.1010919 C 4.5523029,0.95126861 4.4696096,0.94249181 4.2331212,0.94512251 Z m 0,1.35899029 c 0,0 3.288e-4,0 5.261e-4,0 0.2074683,5.295e-4 0.4133878,0.03457 0.6100176,0.1007559 0.023946,0.00807 0.044416,0.021087 0.061753,0.036865 0.2014999,0.074184 0.3891162,0.1816735 0.5550224,0.3179868 0.018441,0.00741 0.035886,0.017436 0.051046,0.030843 0.3226707,0.2854931 0.537186,0.6685622 0.6163049,1.0853574 -0.0028,0.00434 -0.00556,0.00871 -0.00823,0.013123 l 5.262e-4,0.00159 h -0.00158 c -0.083552,0.094689 -0.13026,0.2162678 -0.1315984,0.3425429 3.289e-4,0.1326672 0.05049,0.2603685 0.140829,0.3575262 -0.07929,0.4166074 -0.2939499,0.7994542 -0.6165713,1.084757 -0.016748,0.014817 -0.035659,0.024765 -0.055196,0.032046 -0.164489,0.1350062 -0.3502933,0.2416996 -0.549807,0.3157113 -0.017488,0.016193 -0.038264,0.029446 -0.062618,0.037666 -0.1964752,0.066371 -0.4023717,0.100666 -0.6097512,0.1014914 -3.288e-4,2.7e-6 -5.261e-4,2.7e-6 -7.892e-4,0 -0.2222357,-2.309e-4 -0.4369582,-0.03882 -0.6375768,-0.1095198 -0.00331,-0.00664 -0.00677,-0.013229 -0.010372,-0.019738 -0.00184,-5.295e-4 -0.00384,-0.00106 -0.00574,-0.00185 l 0.00266,-0.00434 C 3.5408016,5.9118651 3.4610678,5.8146251 3.3562435,5.7519085 3.2798935,5.7078394 3.1936947,5.6836591 3.1055624,5.6815927 3.0624482,5.6808002 3.0193965,5.6852441 2.977374,5.6949015 2.6618029,5.4234972 2.4328712,5.0503791 2.3448112,4.6189761 c -0.0046,-0.022543 -0.00376,-0.044527 0,-0.065633 -0.018918,-0.1057244 -0.028918,-0.2128568 -0.029901,-0.3202592 7.892e-4,-0.1057197 0.010556,-0.2111825 0.028836,-0.315312 -0.00468,-0.022516 -0.00569,-0.046238 -7.892e-4,-0.070514 0.088113,-0.4316597 0.3172679,-0.804963 0.6330988,-1.0763962 0.1293163,0.029747 0.2650975,0.00952 0.3801421,-0.0566 0.1033543,-0.062063 0.182266,-0.1577396 0.223519,-0.2710206 l -0.00407,-0.00709 c 0.00309,-0.00106 0.00619,-0.00185 0.00929,-0.00288 0.00376,-0.0068 0.00738,-0.013653 0.010848,-0.020611 0.2005627,-0.0704 0.4152227,-0.1087089 0.6373113,-0.1087221 z"
       style="color:#000000;display:inline;overflow:visible;visibility:visible;opacity:1;fill:url(#linearGradient1061);fill-opacity:1;fill-rule:nonzero;stroke:none;stroke-width:5.44516;stroke-linecap:butt;stroke-linejoin:miter;stroke-miterlimit:4;stroke-dasharray:none;stroke-dashoffset:0;stroke-opacity:1;marker:none;enable-background:accumulate"
       id="path4473" />
    <path
       d="m 4.2331545,1.9531359 c 1.0789793,0 1.9828678,0.7507247 2.2191359,1.757913 C 6.3279922,3.7256007 6.2129509,3.7839892 6.1278209,3.8757227 6.048702,3.4589274 5.8341801,3.075882 5.5115093,2.7903849 5.4773199,2.760135 5.4326831,2.7444066 5.3870796,2.7465407 c -0.059674,0.0028 -0.1138279,0.035778 -0.1436931,0.087521 L 4.9724357,3.3032543 c -0.038823,0.067236 -0.028823,0.1519928 0.024581,0.208349 0.1847126,0.1949635 0.2878697,0.4529982 0.2884189,0.721561 -3.289e-4,0.2687134 -0.1032722,0.5269891 -0.2879914,0.7221588 -0.053361,0.056341 -0.063358,0.141047 -0.024578,0.2082641 L 5.2430443,5.631667 C 5.2985003,5.727732 5.428089,5.7488402 5.5111638,5.675339 5.8337888,5.3900388 6.0484455,5.0072108 6.1277354,4.590603 6.2128654,4.682339 6.3279067,4.7407249 6.4522049,4.7552797 6.215871,5.7623736 5.3120713,6.5130205 4.2331545,6.5130205 c -0.2286818,0 -0.4493728,-0.034047 -0.6576764,-0.096766 0.049671,-0.1149509 0.056715,-0.2438453 0.019872,-0.3635216 0.2006153,0.070699 0.4153938,0.109286 0.6376336,0.1095267 3.288e-4,0 5.261e-4,0 7.892e-4,0 0.2073795,-7.925e-4 0.4132464,-0.035108 0.6097183,-0.1014783 0.1048835,-0.035409 0.1511381,-0.1579323 0.095824,-0.25382 L 4.6687981,5.3383659 C 4.6298668,5.270958 4.5511623,5.2372737 4.4755193,5.255644 4.3959828,5.2749584 4.3144206,5.2848354 4.2325724,5.2852718 3.7668826,5.2847424 3.3583222,4.9800696 3.2252506,4.5337416 3.2030802,4.4594015 3.1347243,4.4084507 3.057151,4.4084586 H 2.5166239 C 2.405647,4.4084481 2.3225492,4.5102122 2.3447557,4.618948 2.4328158,5.0503536 2.6617639,5.4234585 2.9773383,5.6948654 2.8550625,5.7224456 2.7466473,5.7927772 2.6716225,5.8931943 2.2296388,5.4772984 1.9531503,4.8875026 1.9531503,4.2330768 c 0,-0.6545553 0.2765937,-1.2444649 0.718732,-1.6603739 0.07467,0.1000495 0.1824831,0.1702864 0.3041735,0.1981588 C 2.6602249,3.0422933 2.4310729,3.4155489 2.342957,3.847206 2.32076,3.9559445 2.403848,4.0577085 2.5148284,4.057698 h 0.5427501 c 0.077573,5.3e-6 0.1459391,-0.050945 0.1681029,-0.125283 0.1330321,-0.4461985 0.5414216,-0.7508978 1.0069798,-0.7515328 0.081792,5.294e-4 0.1632887,0.010319 0.2427726,0.02963 0.075643,0.018362 0.1543475,-0.015319 0.1932788,-0.082724 L 4.9396602,2.6585958 c 0.055373,-0.095959 0.009,-0.218583 -0.095998,-0.253907 C 4.6470355,2.3385033 4.4410733,2.304465 4.2336017,2.3038961 c -3.288e-4,-3.2e-6 -3.288e-4,-3.2e-6 -5.262e-4,0 -0.2220885,1.32e-5 -0.4367321,0.038359 -0.6372948,0.1087539 0.0366,-0.1194938 0.029464,-0.2481162 -0.020135,-0.3628319 0.2082279,-0.062674 0.4288334,-0.096682 0.6574198,-0.096682 z m 0,1.5784224 c -0.3874424,-3e-6 -0.7015206,0.3140788 -0.7015206,0.7015185 -3.3e-6,0.3874401 0.3140782,0.7015215 0.7015206,0.7015215 0.3874357,0 0.7015172,-0.3140814 0.7015172,-0.7015215 0,-0.3874371 -0.3140815,-0.7015185 -0.7015172,-0.7015185 z"
       style="color:#000000;display:inline;overflow:visible;visibility:visible;opacity:0.1;fill:#1463a5;fill-opacity:1;fill-rule:nonzero;stroke:none;stroke-width:1.38867;stroke-linecap:butt;stroke-linejoin:miter;stroke-miterlimit:4;stroke-dasharray:4.16604, 4.16604;stroke-dashoffset:0;stroke-opacity:1;marker:none;enable-background:accumulate"
       id="path4712" />
    <path
       d="m 3.1057712,1.9960464 c 0.089458,0.00423 0.1706087,0.053713 0.2153736,0.1312762 0.072628,0.1258075 0.029533,0.2866694 -0.096255,0.3593232 -0.1258075,0.072628 -0.2866661,0.029536 -0.3593232,-0.096251 -0.072684,-0.1258272 -0.029586,-0.2867516 0.096255,-0.359412 0.043647,-0.025186 0.093611,-0.03732 0.1439496,-0.034936 z m 3.4074939,1.9742243 c 0.145288,0 0.2630686,0.1177819 0.2630686,0.2630699 0,0.1452906 -0.1177806,0.2630698 -0.2630686,0.2630698 -0.1452913,0 -0.2630685,-0.1177792 -0.2630685,-0.2630698 0,-0.145288 0.1177772,-0.2630699 0.2630685,-0.2630699 z M 3.0995233,5.9448399 c 0.044078,0.00106 0.087189,0.01315 0.1253668,0.035195 0.1257911,0.072657 0.1688823,0.2335187 0.096255,0.3593252 C 3.2484877,6.4651483 3.0876258,6.5082385 2.9618216,6.4356129 2.8360338,6.3629558 2.7929426,6.2020943 2.8655669,6.0762877 2.9136597,5.9930021 3.0033705,5.9425963 3.0995233,5.9448399 Z"
       style="display:inline;opacity:0.3;fill:#1463a5;fill-opacity:1;stroke:none;stroke-width:1.05832;stroke-linecap:round;stroke-linejoin:round;stroke-miterlimit:4;stroke-dasharray:none;stroke-dashoffset:0;stroke-opacity:1;enable-background:new"
       id="path4254" />
  </g>
  <path
     id="rect2344"
     style="opacity:0.05;fill:#000000;fill-opacity:1;stroke-width:0.264583;stroke-linejoin:round"
     d="M 6.5949953,1.5881995 A 0.26463228,0.26463228 0 0 0 6.4854414,1.6212725 L 3.7693282,3.1390092 a 0.26463228,0.26463228 0 0 0 -0.094568,0.089917 l -2.0469034,3.24528 A 0.26463228,0.26463228 0 0 0 1.9864912,6.8426591 L 4.9940596,5.0613725 a 0.26463228,0.26463228 0 0 0 0.093534,-0.093534 L 6.8425255,1.9866248 A 0.26463228,0.26463228 0 0 0 6.7081669,1.604736 0.26463228,0.26463228 0 0 0 6.5949953,1.5881995 Z" />
  <path
     id="rect1343"
     style="opacity:0.1;fill:#4d4d4d;stroke-width:0.264583;stroke-linejoin:round"
     d="M 3.6338367,3.8985537 6.6146322,2.1168495 4.8329283,5.0976453 1.8521325,6.8793495 Z"
     sodipodi:nodetypes="ccccc" />
  <path
     id="rect2681"
     style="fill:#dfdfdf;fill-opacity:1;stroke-width:0.264583;stroke-linejoin:round"
     d="M 3.6338367,3.6339703 4.8329283,4.8330621 1.8521325,6.6147662 Z"
     sodipodi:nodetypes="cccc" />
  <path
     id="rect3116"
     style="fill:#e93540;fill-opacity:1;stroke-width:0.264583;stroke-linejoin:round"
     d="M 6.6146321,1.8522662 4.8329283,4.8330621 3.6338367,3.6339703 Z"
     sodipodi:nodetypes="cccc" />
  <path
     id="rect3757"
     style="opacity:0.2;fill:#ffffff;stroke-width:0.264583;stroke-linejoin:round"
     d="m 3.6338367,3.6339703 2.9807954,-1.7817041 -4.7624996,4.7625 z"
     sodipodi:nodetypes="cccc" />
  <circle
     style="opacity:0.1;fill:#000000;fill-opacity:1;stroke-width:0.254337;stroke-linejoin:round"
     id="path2092"
     cx="4.2333817"
     cy="4.4980989"
     r="1.3229166" />
  <circle
     style="opacity:0.1;fill:#000000;fill-opacity:1;stroke-width:0.244711;stroke-linejoin:round"
     id="path2240"
     cx="4.2333822"
     cy="4.2335157"
     r="1.5875" />
  <circle
     style="fill:#f2f2f2;fill-opacity:1;stroke-width:0.264583;stroke-linejoin:round"
     id="path4058"
     cx="4.2333822"
     cy="4.2335157"
     r="1.3229166" />
  <path
     id="path4344"
     style="opacity:0.4;fill:#000000;fill-opacity:1;stroke-width:2;stroke-linecap:round;stroke-linejoin:round"
     d="M 16,1 A 15,15 0 0 0 1,16 15,15 0 0 0 16,31 15,15 0 0 0 31,16 15,15 0 0 0 16,1 Z m 0,1 A 14,14 0 0 1 30,16 14,14 0 0 1 16,30 14,14 0 0 1 2,16 14,14 0 0 1 16,2 Z"
     transform="scale(0.26458333)" />
  <path
     id="path1110"
     style="fill:url(#linearGradient1198);fill-opacity:1;stroke-width:1.27273;stroke-linecap:round;stroke-linejoin:round"
     d="m 16,2 c -7.7319866,-1e-7 -14.0000001,6.2680134 -14,14 2e-7,7.731987 6.2680134,14 14,14 7.731986,0 14,-6.268014 14,-14 C 30,8.2680134 23.731987,2.0000002 16,2 Z m 0,1 A 13,13 0 0 1 29,16 13,13 0 0 1 16,29 13,13 0 0 1 3,16 13,13 0 0 1 16,3 Z"
     transform="scale(0.26458333)" />
</svg>
