<svg width="32" height="32" version="1" xmlns="http://www.w3.org/2000/svg" xmlns:xlink="http://www.w3.org/1999/xlink">
 <defs>
  <linearGradient id="linearGradient924" x1="524.61" x2="-30.266" y1="320.85" y2="320.85" gradientTransform="matrix(0 -.072088 -.072086 0 39.129 33.818)" gradientUnits="userSpaceOnUse">
   <stop stop-color="#999" offset="0"/>
   <stop stop-color="#b7b7b7" offset=".61328"/>
   <stop stop-color="#dbdbdb" offset="1"/>
  </linearGradient>
  <linearGradient id="linearGradient969" x1="336" x2="336" y1="134" y2="162" gradientTransform="rotate(90 336 148)" gradientUnits="userSpaceOnUse" xlink:href="#linearGradient927"/>
  <linearGradient id="linearGradient927">
   <stop stop-color="#fff" offset="0"/>
   <stop stop-color="#fff" stop-opacity=".098039" offset=".125"/>
   <stop stop-color="#fff" stop-opacity=".098039" offset=".925"/>
   <stop stop-color="#fff" stop-opacity=".49804" offset="1"/>
  </linearGradient>
  <clipPath id="clipPath959">
   <path d="m330.19 134c-5.6154 0-6.2196 0.57678-6.1921 6.2035v7.7965 7.7965c-0.0276 5.6267 0.57668 6.2035 6.1921 6.2035h11.615c5.6154 0 6.1921-0.5767 6.1921-6.2035v-7.7965-7.7965c0-5.6268-0.5767-6.2035-6.1921-6.2035z" color="#000000" fill="#46a926"/>
  </clipPath>
  <linearGradient id="linearGradient8588-0" x1="13.735" x2="38.1" y1="249.69" y2="292.77" gradientTransform="matrix(.48714 0 0 .48714 3.8844 -113.36)" gradientUnits="userSpaceOnUse">
   <stop stop-color="#cdcdcd" offset="0"/>
   <stop stop-color="#e9e9e9" offset="1"/>
  </linearGradient>
  <linearGradient id="linearGradient8590-3" x1="96" x2="96" y1="4" y2="188" gradientTransform="matrix(.12174 0 0 .12174 4.313 7.5131)" gradientUnits="userSpaceOnUse" xlink:href="#linearGradient927"/>
 </defs>
 <path d="m1.4996 10.194c0-1.4124 0.0342-2.5224 0.18555-3.4238 0.15132-0.90145 0.43164-1.6199 0.95312-2.1426 0.52148-0.5227 1.239-0.80325 2.1406-0.95312 0.90164-0.14988 2.0101-0.18075 3.4258-0.17383h7.7949 7.7969c1.4145-7e-3 2.5227 0.024 3.4238 0.17383 0.90165 0.14987 1.6192 0.43041 2.1406 0.95312 0.52148 0.52272 0.8018 1.2411 0.95312 2.1426s0.18555 2.0114 0.18555 3.4238v11.615c0 1.4124-0.0342 2.5185-0.18555 3.418-0.15137 0.8995-0.43149 1.616-0.95312 2.1367s-1.2377 0.80004-2.1387 0.95117c-0.90094 0.15113-2.0106 0.18555-3.4258 0.18555h-7.7969-7.7969c-1.4152 0-2.5248-0.0344-3.4258-0.18555-0.90093-0.15113-1.617-0.43042-2.1387-0.95117-0.52163-0.52075-0.80175-1.2372-0.95312-2.1367s-0.18555-2.0056-0.18555-3.418z" color="#000000" fill="url(#linearGradient924)"/>
 <path d="m1.5039 22c3e-3 1.3123 0.0379 2.3723 0.18164 3.2266 0.15137 0.8995 0.43149 1.616 0.95312 2.1367 0.52164 0.52075 1.2377 0.80004 2.1387 0.95117 0.90094 0.15115 2.0106 0.18555 3.4258 0.18555h7.7969 7.7969c1.4152 0 2.5248-0.0344 3.4258-0.18555 0.90093-0.15113 1.617-0.43042 2.1387-0.95117s0.80175-1.2372 0.95312-2.1367c0.14374-0.85424 0.17818-1.9142 0.18164-3.2266z" color="#000000" opacity=".2"/>
 <path d="m4.6424 24.206c0.0863 0.69134 0.0668 1.7534 0.92411 1.9492 1.5895 0.42148 2.2382 0.195 3.8534 0.27699 5.6013 0.013 10.205 0.0696 15.805-0.0592 0.71024-0.10123 1.7526-0.11091 1.951-0.97857 0.12674-0.4495 0.16169-0.91798 0.19353-1.3819h-22.745c6e-3 0.0645 0.0124 0.12902 0.0186 0.19353z" enable-background="new" opacity=".5"/>
 <path d="m1.5039 21c8.4e-4 0.36757 0.0139 0.671 0.0215 1h28.949c8e-3 -0.329 0.0205-0.63244 0.0215-1z" color="#000000" fill="#fff" opacity=".1"/>
 <path d="m1.4995 21.806c0 1.4124 0.0342 2.5224 0.18555 3.4238 0.15132 0.90145 0.43164 1.6199 0.95312 2.1426 0.52148 0.5227 1.239 0.80325 2.1406 0.95312 0.90164 0.14988 2.0101 0.18075 3.4258 0.17383h7.7949 7.7969c1.4145 7e-3 2.5227-0.024 3.4238-0.17383 0.90165-0.14987 1.6192-0.43041 2.1406-0.95312 0.52148-0.52272 0.8018-1.2411 0.95312-2.1426s0.18555-2.0114 0.18555-3.4238v-11.615c0-1.4124-0.0342-2.5185-0.18555-3.418-0.15137-0.8995-0.43149-1.616-0.95312-2.1367s-1.2377-0.80004-2.1387-0.95117c-0.90094-0.15113-2.0106-0.18555-3.4258-0.18555h-7.7969-7.7969c-1.4152 0-2.5248 0.0344-3.4258 0.18555-0.90093 0.15113-1.617 0.43042-2.1387 0.95117-0.52163 0.52075-0.80175 1.2372-0.95312 2.1367s-0.18555 2.0056-0.18555 3.418z" color="#000000" fill="none" opacity=".4" stroke="#000"/>
 <path transform="rotate(-90 110 242)" d="m330.19 134c-5.6154 0-6.2196 0.57678-6.1921 6.2035v7.7965 7.7965c-0.0276 5.6267 0.57668 6.2035 6.1921 6.2035h11.615c5.6154 0 6.1921-0.5767 6.1921-6.2035v-7.7965-7.7965c0-5.6268-0.5767-6.2035-6.1921-6.2035z" clip-path="url(#clipPath959)" color="#000000" fill="none" opacity=".4" stroke="url(#linearGradient969)" stroke-width="2"/>
 <path d="m4.7012 24a12 12 0 0 0 11.299 8 12 12 0 0 0 11.299-8z" enable-background="new" opacity=".1"/>
 <path d="m5.4551 24a11.6 11.6 0 0 0 10.545 6.8008 11.6 11.6 0 0 0 10.547-6.8008z" enable-background="new" fill="url(#linearGradient8588-0)"/>
 <path d="m16 24v6.8008a11.6 11.6 0 0 0 10.545-6.8008z" enable-background="new" fill="#fff" opacity=".2"/>
 <path d="m11.199 24-3.4023 3.4023a11.6 11.6 0 0 0 16.406 0l-3.4023-3.4023z" enable-background="new" opacity=".02"/>
 <path d="m20.803 24 3.3984 3.3984a11.6 11.6 0 0 0 1.8457-2.3984l-1.7324-1zm3.3555 3.4453a11.6 11.6 0 0 1-0.13086 0.1211 11.6 11.6 0 0 0 0.13086-0.1211zm-0.72851 0.65235a11.6 11.6 0 0 1-0.45899 0.35937 11.6 11.6 0 0 0 0.45899-0.35937zm-0.92578 0.69726a11.6 11.6 0 0 1-0.49219 0.3125 11.6 11.6 0 0 0 0.49219-0.3125zm-12.295 0.43946-8e-3 0.0117a11.6 11.6 0 0 0 0.19727 0.10157 11.6 11.6 0 0 1-0.18946-0.11328zm11.305 0.1621a11.6 11.6 0 0 1-0.52148 0.26172 11.6 11.6 0 0 0 0.52148-0.26172zm-10.6 0.21485a11.6 11.6 0 0 0 0.52539 0.24414 11.6 11.6 0 0 1-0.52539-0.24414zm9.5527 0.28515a11.6 11.6 0 0 1-0.54102 0.20704 11.6 11.6 0 0 0 0.54102-0.20704zm-8.4863 0.17188a11.6 11.6 0 0 0 0.54492 0.18945 11.6 11.6 0 0 1-0.54492-0.18945zm7.3965 0.2207a11.6 11.6 0 0 1-0.56054 0.15039 11.6 11.6 0 0 0 0.56054-0.15039zm-6.291 0.125a11.6 11.6 0 0 0 0.56054 0.13477 11.6 11.6 0 0 1-0.56054-0.13477zm5.168 0.15625a11.6 11.6 0 0 1-0.57227 0.0937 11.6 11.6 0 0 0 0.57227-0.0937zm-4.0352 0.0781a11.6 11.6 0 0 0 0.57422 0.0801 11.6 11.6 0 0 1-0.57422-0.0801zm2.8867 0.0898a11.6 11.6 0 0 1-0.57617 0.0371 11.6 11.6 0 0 0 0.57617-0.0371zm-1.7363 0.0312a11.6 11.6 0 0 0 0.58008 0.0215 11.6 11.6 0 0 1-0.58008-0.0215z" enable-background="new" fill="#faf8f6"/>
 <path d="m5.0059 24c1.8524 4.2366 6.0746 7.1992 10.994 7.1992s9.1417-2.9627 10.994-7.1992h-0.82812c-1.7489 3.8312-5.5627 6.4004-10.166 6.4004-4.6034 0-8.4171-2.5692-10.166-6.4004z" enable-background="new" opacity=".4"/>
 <path d="m5.8926 24c1.7988 3.7807 5.642 6.4004 10.107 6.4004 4.4655 0 8.3087-2.6197 10.107-6.4004h-0.81836c-1.6816 3.3759-5.1266 5.5996-9.2891 5.5996-4.1625 0-7.6074-2.2237-9.2891-5.5996z" enable-background="new" fill="url(#linearGradient8590-3)" opacity=".7"/>
 <path d="m4.6235 24.012c6e-3 0.0645 0.0133 0.12885 0.0195 0.19336 0.0303 0.24243 0.0589 0.52638 0.10547 0.80664h22.501c0.0594-0.33031 0.0962-0.66559 0.11915-1z" enable-background="new" opacity=".2"/>
 <path d="m13.01 24a5 5 0 0 0 2.9902 1 5 5 0 0 0 2.9902-1z" enable-background="new" fill="#3c3c3c"/>
</svg>
