<svg width="32" height="32" version="1" xmlns="http://www.w3.org/2000/svg" xmlns:xlink="http://www.w3.org/1999/xlink">
 <defs>
  <linearGradient id="linearGradient8588-0" x1="13.735" x2="38.1" y1="249.69" y2="292.77" gradientTransform="matrix(.60892 0 0 .60892 .85556 -149.71)" gradientUnits="userSpaceOnUse">
   <stop stop-color="#8c59d9" offset="0"/>
   <stop stop-color="#a7a7f1" offset="1"/>
  </linearGradient>
  <clipPath id="clipPath1205-2">
   <path d="m341.12 133.5c9.0811 0 10.379 1.2946 10.379 10.367v8.2656c0 9.0726-1.2978 10.367-10.379 10.367h-10.242c-9.0811 0-10.379-1.2946-10.379-10.367v-8.2656c0-9.0726 1.2978-10.367 10.379-10.367z" fill="#325fd1"/>
  </clipPath>
  <linearGradient id="linearGradient8590-3" x1="96" x2="96" y1="4" y2="188" gradientTransform="matrix(.15217 0 0 .15217 1.3913 1.3913)" gradientUnits="userSpaceOnUse">
   <stop stop-color="#fff" offset="0"/>
   <stop stop-color="#fff" stop-opacity=".098039" offset=".125"/>
   <stop stop-color="#fff" stop-opacity=".098039" offset=".925"/>
   <stop stop-color="#fff" stop-opacity=".49804" offset="1"/>
  </linearGradient>
  <linearGradient id="linearGradient1276" x1="344" x2="366" y1="94" y2="94" gradientTransform="matrix(.71429 0 0 .71429 -244.57 -76.143)" gradientUnits="userSpaceOnUse">
   <stop stop-color="#fff" offset="0"/>
   <stop stop-color="#fff" stop-opacity="0" offset="1"/>
  </linearGradient>
 </defs>
 <circle transform="scale(-1)" cx="-16" cy="-17" r="15" enable-background="new" opacity=".1"/>
 <circle cx="16" cy="16" r="14.5" enable-background="new" fill="url(#linearGradient8588-0)"/>
 <path transform="translate(-320,-132)" d="m328.91 135.38a14.5 14.5 0 0 0-2.5098 1.7871l0.55664 0.55664h2.3438v-2.3438zm3.6719 0-1.6406 1.875 1.4062 1.4062v1.4707l1.6406 1.8106h0.9375v-0.9375l1.4062-1.4062v-0.9375l0.9375-0.9375v-1.4062l-0.9375-0.9375zm-6.3281 3.2812v1.4062h-1.1719l-0.70117-0.70117a14.5 14.5 0 0 0-2.8652 8.3848l1.6914 1.6914h1.4063l2.3437 2.3438v-2.8125l1.4063-1.4062h0.9375l1.4062-1.4062h1.4063l-0.70313-0.70313 1.4062-1.6406-1.4062-1.4062h-2.1094v1.875h-0.9375l-0.9375-0.9375v-0.9375l1.4062-1.4062h1.1719v-0.9375l-1.4062-1.4062zm21.258 0.53906-1.3359 1.3359-0.9375-0.9375h-2.8125l-1.4063 1.4062v1.1719h1.4063v-0.70313h0.9375v0.9375l-0.46876 0.46875-1.875 0.0312-0.70312 0.67187h-0.9375v0.9375l-0.70312 0.70313v1.4062h1.4062l0.9375-0.9375h0.9375v0.46875l0.9375 0.9375h0.46876v-0.4687l-0.9375-0.9375h0.9375l0.9375 0.9375h1.1719l-0.70313-0.70312 0.70313-0.70313h0.70313l0.70312 0.70313h-0.70312l-0.70313 0.70312 0.69141 0.69141 0.0117 0.71484h-0.9375l2.8125 2.8125h0.46874l0.46876-0.46875 0.9375-0.9375-0.9375-0.9375h1.4902a14.5 14.5 0 0 0 0.0254-0.5 14.5 14.5 0 0 0-2.9922-8.8047zm-2.2734 8.8359h-2.8125l-0.46876-0.46875h-2.8125l-1.6406 1.6406v2.3438l1.1719 1.1719h1.6406l0.70312 0.70313v0.70312l0.46876 0.46875v2.8125l1.7793 1.8809 2.9394-2.9394-0.0312-2.6914 2.3437-2.3438h-0.9375l-2.3437-2.3438zm-9.1406-6.5625v0.70313h1.4062l-0.70312-0.70313zm4.2188 0.23437-0.70312 0.70313v0.70313h0.70312zm-7.2656 2.5781-0.70313 0.70313h0.70313l0.23437 0.23437h0.23437l0.23438-0.23437zm-3.9844 4.9219-0.70312 0.70313h1.4062v-0.70313zm-0.70312 2.1094-0.9375 0.9375v2.3438l1.8808 1.6484-6e-3 2.1016-0.70313 0.70313v1.3984a14.5 14.5 0 0 0 1.2578 0.66797l2.4922-2.3008v-0.9375l1.4062-1.4062v-0.70313l0.70312-0.70312v-1.875l-0.9375-0.9375h-1.875l-0.9375-0.9375zm19.453 3.2812-0.9375 0.875v1.4688h0.52148a14.5 14.5 0 0 0 0.41602-0.54688z" clip-path="url(#clipPath1205-2)" color="#000000" fill="#fff" opacity=".24"/>
 <path d="m21.615 2.6328c0.0949 2.6799-0.17876 5.2954-0.74023 7.8242-4.0834 0.39257-7.964 1.0765-11.617 2.2871-0.20695-3.0924-0.11038-6.352 0.18946-9.6758a14.5 14.5 0 0 0-1.0664 0.60742c-0.24899 3.0448-0.31794 6.0378-0.13867 8.9102-1.7438-1.0925-3.4135-2.2299-5.0469-3.3691a14.5 14.5 0 0 0-0.44336 0.91211c1.5583 1.0864 3.1514 2.1726 4.8184 3.2226-2.099 0.80949-4.1174 1.8211-6.0547 3.0664a14.5 14.5 0 0 0 0.0859 1.1445c2.1434-1.4336 4.3953-2.5653 6.7598-3.4414 0.148 1.5394 0.36921 3.0406 0.68555 4.4883 0.34703 1.5882 0.8187 3.1064 1.4004 4.5547-0.83376 0.26861-1.6662 0.49129-2.4746 0.65821-1.3934 0.28771-2.7088 0.43187-3.8379 0.48046a14.5 14.5 0 0 0 0.72265 0.95508c1.0178-0.0731 2.1342-0.21097 3.3164-0.45508 0.8659-0.17879 1.7626-0.4166 2.6621-0.70898 1.0739 2.3855 2.5098 4.5371 4.3828 6.3672a14.5 14.5 0 0 0 0.78129 0.0391 14.5 14.5 0 0 0 0.70898-0.0254c-2.1529-1.8646-3.7624-4.1362-4.9336-6.7168 2.5668-0.96077 5.0944-2.444 7.0137-4.6992 3.395 1.2617 6.9514 2.1177 10.664 2.3223a14.5 14.5 0 0 0 0.35743-0.98438c-3.6422-0.1645-7.1476-0.98546-10.508-2.2207 1.0019-2.1643 1.8094-4.4359 2.3848-6.7871 2.5442-0.22296 5.187-0.33575 7.9043-0.40625a14.5 14.5 0 0 0-0.41602-0.98828c-2.4758 0.0681-4.9026 0.16834-7.252 0.36524 0.49702-2.3434 0.75807-4.7612 0.71289-7.2363a14.5 14.5 0 0 0-1.0215-0.49024zm-0.97656 8.8535c-0.55996 2.1909-1.3303 4.3131-2.2754 6.3438-2.9433-1.1577-5.768-2.6274-8.4707-4.2363 3.3743-1.0847 6.9592-1.7271 10.746-2.1074zm-11.238 2.9863c2.6627 1.586 5.4538 3.0394 8.3711 4.2031-1.7582 1.9455-4.0368 3.2807-6.3809 4.1562-0.56576-1.4035-1.0268-2.8797-1.3672-4.4375-0.27621-1.264-0.47959-2.5757-0.62305-3.9219z" color="#000000" color-rendering="auto" dominant-baseline="auto" fill="#fff" fill-rule="evenodd" image-rendering="auto" opacity=".5" shape-rendering="auto" solid-color="#000000" style="font-feature-settings:normal;font-variant-alternates:normal;font-variant-caps:normal;font-variant-ligatures:normal;font-variant-numeric:normal;font-variant-position:normal;isolation:auto;mix-blend-mode:normal;shape-padding:0;text-decoration-color:#000000;text-decoration-line:none;text-decoration-style:solid;text-indent:0;text-orientation:mixed;text-transform:none;white-space:normal"/>
 <circle cx="8.5026" cy="13.555" r="1.5" enable-background="new" fill="#fff"/>
 <circle cx="11.5" cy="23.5" r="1.5" enable-background="new" fill="#fff"/>
 <circle cx="21.5" cy="11.5" r="1.5" enable-background="new" fill="#fff"/>
 <circle cx="18.5" cy="18.5" r="1.5" enable-background="new" fill="#fff"/>
 <circle cx="16" cy="16" r="14.5" enable-background="new" fill="none" opacity=".4" stroke="#000" stroke-dashoffset="6.6" stroke-linejoin="round"/>
 <path d="m16 2c-7.732 0-14 6.268-14 14s6.268 14 14 14c7.732 0 14-6.268 14-14s-6.268-14-14-14zm0 1a13 13 0 0 1 13 13 13 13 0 0 1-13 13 13 13 0 0 1-13-13 13 13 0 0 1 13-13z" enable-background="new" fill="url(#linearGradient8590-3)"/>
 <ellipse cx="23" cy="23" rx="8.5" ry="8.5" enable-background="new" fill="#8c00d9" stroke="#000" stroke-dashoffset="1" stroke-linecap="round" stroke-linejoin="round" stroke-opacity=".4"/>
 <circle transform="rotate(90)" cx="23" cy="-23" r="7.5" enable-background="new" fill="none" opacity=".3" stroke="url(#linearGradient1276)" stroke-dashoffset="1" stroke-linecap="round" stroke-linejoin="round" stroke-opacity=".4"/>
 <path d="m17.502 21.372a9.0031 8.9991 0 0 1 10.996 3e-3l-5.5001 7.1253z" color="#000000" enable-background="new" fill="#fff" overflow="visible"/>
</svg>
