<svg width="16" height="16" version="1.1" xmlns="http://www.w3.org/2000/svg">
<g fill="#dfdfdf">
<path d="m7.5 1c-1.978 0-3.77 0.769-5.11 2.018l-1.025-1.026a34.471 34.471 0 0 0-0.646 1.983 41.553 41.553 0 0 0-0.531 2.025c0.669-0.15 1.345-0.325 2.03-0.523 0.69-0.203 1.349-0.421 1.975-0.655l-1.093-1.095a6.466 6.466 0 0 1 4.4-1.727c3.594 0 6.5 2.906 6.5 6.5s-2.906 6.5-6.5 6.5a6.49 6.49 0 0 1-6.475-6h-1a7.488 7.488 0 0 0 7.475 7c4.147 0 7.5-3.353 7.5-7.5s-3.353-7.5-7.5-7.5z"/>
<path d="m7 4v5.207l2.396 2.397 0.708-0.708-2.104-2.103v-4.793z"/>
<path d="m13.1 14.97 0.027 0.036-0.014-0.022-0.013-0.013z"/>
<path d="m0.89 14.975c-3e-3 5e-3 -0.01 9e-3 -0.013 0.013l-0.014 0.022z"/>
</g>
</svg>
