<svg width="18" height="18" version="1.1" xmlns="http://www.w3.org/2000/svg">
 <g transform="translate(-532.01 56)" color="#666666" fill="#666">
  <path d="m536-53s-1 0-1 1v2.633l1-0.832v-1.301s0-0.5 0.5-0.5h9s0.5 0 0.5 0.5v9c0 0.5-0.5 0.5-0.5 0.5h-9s-0.5 0-0.5-0.5v-1.3l-1-0.833v2.633c0 1 1 1 1 1h10s1 0 1-1v-10c0-1-1-1-1-1zm1.42 3.035a0.423 0.423 0 0 0-0.248 0.09l-3 2.5a0.522 0.522 0 0 0 0 0.75l3 2.5c0.288 0.23 0.801-6e-3 0.813-0.375v-1.5h3.5a0.517 0.517 0 0 0 0.5-0.406 0.489 0.489 0 0 0 0-0.094v-1a0.52 0.52 0 0 0-0.5-0.5h-3.5v-1.5c-8e-3 -0.277-0.298-0.478-0.565-0.465z" fill="#666" overflow="visible"/>
 </g>
</svg>
