<svg width="18" height="18" version="1.1" viewBox="0 0 18 18" xmlns="http://www.w3.org/2000/svg">
 <defs>
  <style id="current-color-scheme" type="text/css">.ColorScheme-Text { color:#666666; } .ColorScheme-Highlight { color:#f34f17; }</style>
 </defs>
 <path class="ColorScheme-Text" d="m1 1v3h3v-3h-1zm13 0v3h3v-3h-2zm-12 1h1v1h-1zm13 0h1v1h-1zm-10 1v1h2v-1zm3 0v1h2v-1zm3 0v1h2v-1zm-8 2v2h1v-2zm11 0v2h1v-2zm-11 3v2h1v-2zm11 0v2h1v-2zm-11 3v2h1v-2zm-2 3v3h3v-3h-2zm4 0v1h2v-1zm3 0v1h2v-1zm-6 1h1v1h-1z" color="#666666" fill="#666"/>
 <path class="ColorScheme-Highlight" d="m11 11v2h1v-1h1v-1zm4 0v1h1v1h1v-2h-1zm-4 4v2h2v-1h-1v-1zm5 0v1h-1v1h2v-2z" color="#f34f17" fill="#f34f17"/>
</svg>
