<?xml version="1.0" encoding="UTF-8" standalone="no"?>
<!-- Created with Inkscape (http://www.inkscape.org/) -->

<svg
   width="16"
   height="16"
   viewBox="0 0 4.2333333 4.2333333"
   version="1.1"
   id="svg1003"
   sodipodi:docname="kalendar.svg"
   inkscape:version="1.1.2 (0a00cf5339, 2022-02-04)"
   xmlns:inkscape="http://www.inkscape.org/namespaces/inkscape"
   xmlns:sodipodi="http://sodipodi.sourceforge.net/DTD/sodipodi-0.dtd"
   xmlns:xlink="http://www.w3.org/1999/xlink"
   xmlns="http://www.w3.org/2000/svg"
   xmlns:svg="http://www.w3.org/2000/svg">
  <sodipodi:namedview
     id="namedview1005"
     pagecolor="#ffffff"
     bordercolor="#666666"
     borderopacity="1.0"
     inkscape:pageshadow="2"
     inkscape:pageopacity="0.0"
     inkscape:pagecheckerboard="0"
     inkscape:document-units="px"
     showgrid="false"
     units="px"
     showguides="true"
     inkscape:lockguides="true"
     inkscape:zoom="49.625"
     inkscape:cx="8.0100756"
     inkscape:cy="12.010076"
     inkscape:window-width="1920"
     inkscape:window-height="995"
     inkscape:window-x="0"
     inkscape:window-y="0"
     inkscape:window-maximized="1"
     inkscape:current-layer="svg1003" />
  <defs
     id="defs1000">
    <linearGradient
       inkscape:collect="always"
       id="linearGradient1226">
      <stop
         style="stop-color:#2b638f;stop-opacity:1"
         offset="0"
         id="stop1222" />
      <stop
         style="stop-color:#5bb0db;stop-opacity:1"
         offset="1"
         id="stop1224" />
    </linearGradient>
    <linearGradient
       inkscape:collect="always"
       id="linearGradient1871">
      <stop
         style="stop-color:#ffffff;stop-opacity:1;"
         offset="0"
         id="stop1867" />
      <stop
         style="stop-color:#ffffff;stop-opacity:0.1"
         offset="0.12"
         id="stop2515" />
      <stop
         style="stop-color:#ffffff;stop-opacity:0.102"
         offset="0.89999998"
         id="stop2581" />
      <stop
         style="stop-color:#ffffff;stop-opacity:0.502"
         offset="1"
         id="stop1869" />
    </linearGradient>
    <linearGradient
       inkscape:collect="always"
       xlink:href="#linearGradient1871"
       id="linearGradient891"
       x1="1.1761556"
       y1="0.26459649"
       x2="1.1761556"
       y2="3.9687631"
       gradientUnits="userSpaceOnUse" />
    <linearGradient
       inkscape:collect="always"
       xlink:href="#linearGradient1226"
       id="linearGradient1228"
       x1="0"
       y1="-2.7755576e-17"
       x2="0"
       y2="4.2333331"
       gradientUnits="userSpaceOnUse" />
    <linearGradient
       inkscape:collect="always"
       xlink:href="#linearGradient1058"
       id="linearGradient1060"
       x1="5.8208332"
       y1="3.7041667"
       x2="5.8208332"
       y2="2.6458335"
       gradientUnits="userSpaceOnUse"
       gradientTransform="matrix(1,0,0,0.75000002,-0.26458334,-0.34395841)" />
    <linearGradient
       inkscape:collect="always"
       id="linearGradient1058">
      <stop
         style="stop-color:#f9f9f9;stop-opacity:1;"
         offset="0"
         id="stop1054" />
      <stop
         style="stop-color:#ececec;stop-opacity:1"
         offset="1"
         id="stop1056" />
    </linearGradient>
  </defs>
  <path
     d="m 1.0923594,0.2645965 c -0.99048625,0 -1.09706305,0.081754 -1.09220794549,0.8792925 V 2.2489715 3.3540514 C -0.00468855,4.1515929 0.10187315,4.2333465 1.0923594,4.2333465 h 2.0487614 c 0.9904941,0 1.0922132,-0.081743 1.0922132,-0.8792951 V 2.2489715 1.143889 c 0,-0.7975521 -0.1017217,-0.8792925 -1.0922132,-0.8792925 z"
     style="color:#000000;display:inline;overflow:visible;visibility:visible;opacity:0.1;fill:#000000;fill-opacity:1;fill-rule:nonzero;stroke:none;stroke-width:0.264583;marker:none;enable-background:accumulate"
     id="path1314" />
  <path
     d="m 1.1563807,0.1322916 c -0.92858435,0 -1.02849895,0.081754 -1.02394555,0.8792925 v 1.1050825 1.1050799 c -0.004551,0.7975415 0.0953612,0.8792951 1.02394555,0.8792951 h 1.9207136 c 0.9285843,0 1.023948,-0.081743 1.023948,-0.8792951 V 2.1166666 1.0115841 c 0,-0.7975494 -0.095366,-0.8792925 -1.023948,-0.8792925 z"
     style="color:#000000;display:inline;overflow:visible;visibility:visible;fill:url(#linearGradient1228);fill-opacity:1;fill-rule:nonzero;stroke:none;stroke-width:0.265859;marker:none;enable-background:accumulate"
     id="path908" />
  <path
     id="rect1324"
     style="fill:url(#linearGradient1060);fill-opacity:1;stroke-width:0.229136;stroke-linecap:round;stroke-linejoin:round"
     d="m 0.26458333,1.6404167 v 0.79375 h 0.26458331 v -0.79375 z m 3.43958357,0 v 0.79375 h 0.2645833 v -0.79375 z"
     sodipodi:nodetypes="cccccccccc" />
  <path
     id="path29"
     d="m 1.3776933,1.1906251 c -0.056168,0 -0.1087279,0.00714 -0.1570963,0.021187 -0.048371,0.014049 -0.091734,0.031393 -0.1307414,0.051676 -0.039008,0.020293 -0.072684,0.042227 -0.10076906,0.065629 -0.028085,0.021855 -0.049004,0.040208 -0.063045,0.05581 L 1.0335285,1.5394396 c 0.010927,-0.00937 0.02622,-0.022622 0.046509,-0.039791 0.020293,-0.018732 0.045284,-0.035557 0.074931,-0.05116 0.029644,-0.017171 0.063322,-0.031959 0.100769,-0.044442 0.037447,-0.012488 0.078774,-0.01912 0.1240234,-0.01912 0.037447,0 0.072654,0.00561 0.10542,0.016536 0.034324,0.00937 0.063917,0.025163 0.088883,0.047025 0.02495,0.021855 0.044353,0.048883 0.058394,0.081649 0.01561,0.032766 0.023771,0.072565 0.023771,0.1193726 0,0.043688 -0.00867,0.085016 -0.025838,0.1240234 -0.015611,0.039008 -0.037544,0.077275 -0.065629,0.1147218 -0.026524,0.035885 -0.057649,0.072624 -0.093534,0.1100708 -0.012541,0.013123 -0.025586,0.026464 -0.038757,0.039791 -0.022833,0.023098 -0.046599,0.046552 -0.071313,0.07028 -0.04681,0.046807 -0.094259,0.095284 -0.142627,0.1452108 -0.048369,0.049929 -0.092251,0.1024756 -0.1312581,0.1586466 -0.039008,0.056171 -0.071155,0.1163798 -0.096118,0.1803508 -0.023416,0.062413 -0.03514,0.1302733 -0.03514,0.2036052 v 0.025839 c 0,0.00937 9.975e-4,0.018521 0.00259,0.027905 H 1.9414832 V 2.6654705 H 1.1947587 c 0,-0.026524 0.010185,-0.058166 0.030489,-0.094051 0.021855,-0.035888 0.048377,-0.07313 0.079582,-0.1121378 0.031208,-0.039007 0.064375,-0.07625 0.098702,-0.1121379 l 0.093534,-0.093534 c 0.046807,-0.046807 0.093233,-0.094775 0.1400432,-0.1431437 0.022675,-0.024183 0.044636,-0.048167 0.065112,-0.072347 0.021802,-0.025744 0.042183,-0.051768 0.061495,-0.077515 0.037446,-0.051491 0.067039,-0.1025052 0.088883,-0.1539958 0.023416,-0.053049 0.03514,-0.1076459 0.03514,-0.1638142 0,-0.1435471 -0.042859,-0.2547865 -0.1286743,-0.3327963 C 1.6748088,1.2304243 1.5477622,1.1906251 1.3776933,1.1906251 Z m 1.3978475,0 c -0.074893,0 -0.1427535,0.012752 -0.2036052,0.037724 -0.060852,0.023416 -0.1128916,0.055552 -0.1565795,0.096118 -0.042127,0.040569 -0.074783,0.088017 -0.098185,0.142627 -0.023416,0.053049 -0.03514,0.1091747 -0.03514,0.1684652 0,0.1700715 0.076538,0.2986575 0.2294433,0.3860229 -0.0086,0.00524 -0.017451,0.010848 -0.025838,0.016536 -0.026736,0.018045 -0.052586,0.03842 -0.077515,0.060978 -0.031208,0.028085 -0.059269,0.059716 -0.084232,0.095601 -0.023416,0.035886 -0.042792,0.075179 -0.058394,0.1173055 -0.014049,0.040569 -0.021187,0.083428 -0.021187,0.1286744 0,0.04681 0.00867,0.09681 0.025838,0.1498616 0.017171,0.051488 0.046251,0.098939 0.086816,0.1426269 0.040569,0.043688 0.094137,0.080427 0.1612305,0.1100709 0.068651,0.028085 0.1538641,0.041858 0.2552815,0.041858 0.087376,0 0.16442,-0.011721 0.2315104,-0.03514 0.067093,-0.021855 0.1227103,-0.052968 0.1663983,-0.093534 0.045249,-0.042127 0.078928,-0.090601 0.100769,-0.1452108 0.023415,-0.056168 0.035139,-0.1168852 0.035139,-0.1824172 -0.00286,-0.172757 -0.081756,-0.3028322 -0.2361615,-0.3906739 h -5.292e-4 c -0.014288,-0.00812 -0.028866,-0.015873 -0.044442,-0.023254 0.031205,-0.020294 0.060798,-0.043756 0.088883,-0.07028 0.029647,-0.026525 0.055671,-0.05714 0.077515,-0.091467 0.023416,-0.034324 0.04126,-0.071063 0.053744,-0.1100708 0.014049,-0.040566 0.021188,-0.083428 0.021188,-0.1286743 0,-0.04681 -0.00968,-0.095281 -0.028422,-0.1452108 -0.017172,-0.04993 -0.045734,-0.094827 -0.0863,-0.1353929 C 3.1137593,1.2916418 3.0627312,1.2569404 3.0003213,1.2304159 2.9379087,1.2038888 2.8629049,1.190625 2.7755289,1.190625 Z m 0,0.1803508 H 2.77607 c 0.049689,6.35e-5 0.091891,0.00875 0.1260906,0.025838 0.034327,0.01561 0.062388,0.036012 0.084233,0.060978 0.021855,0.023389 0.037664,0.048912 0.047025,0.076998 0.010927,0.028083 0.016021,0.05411 0.016021,0.077515 0,0.084254 -0.019391,0.1526206 -0.058394,0.2056722 -0.039006,0.05149 -0.091049,0.096901 -0.1565805,0.1359089 C 2.7751751,1.939837 2.7236407,1.920964 2.6799527,1.897559 2.6378127,1.87417 2.6036277,1.847621 2.5771033,1.817977 2.5505793,1.78833 2.5306753,1.756186 2.5181923,1.721859 2.5057043,1.687532 2.4995893,1.65335 2.4995893,1.6190229 c 0,-0.028085 0.00459,-0.05615 0.013952,-0.084233 0.010927,-0.029647 0.027249,-0.056177 0.049093,-0.079582 0.021855,-0.02495 0.049908,-0.045376 0.084233,-0.060978 0.035756,-0.015557 0.07898,-0.023202 0.1286735,-0.023254 z m -0.09095,0.7208862 c 0.06241,0.014049 0.1175128,0.031394 0.1658813,0.051676 0.04993,0.018733 0.09228,0.042194 0.1266074,0.07028 0.035885,0.028086 0.063441,0.060739 0.082165,0.098185 0.018733,0.037449 0.027905,0.080812 0.027905,0.1307414 0,0.032766 -0.00611,0.064913 -0.018603,0.096118 -0.012488,0.031205 -0.031364,0.059269 -0.056327,0.084233 -0.024977,0.023416 -0.057617,0.042792 -0.098185,0.058394 -0.039008,0.01561 -0.085444,0.023771 -0.1384927,0.023771 -0.05929,0 -0.1082704,-0.00867 -0.1472779,-0.025838 -0.039005,-0.017171 -0.071155,-0.038082 -0.096119,-0.063045 -0.024977,-0.026525 -0.042819,-0.055103 -0.053743,-0.084749 -0.00937,-0.031205 -0.013953,-0.060798 -0.013953,-0.088884 0,-0.079573 0.018892,-0.1479401 0.056327,-0.2056722 0.039008,-0.057729 0.093602,-0.1062032 0.1638149,-0.1452102 z"
     style="fill:#ececec;fill-opacity:1;stroke-width:0.264583" />
  <path
     d="m 1.1761556,0.2645965 c -0.4373615,0 -0.6736397,0.0332 -0.7715276,0.1095534 -0.048945,0.038177 -0.080642,0.087635 -0.1049046,0.1860365 -0.024262,0.098401 -0.035139,0.2416095 -0.035139,0.4320143 V 2.1166798 3.241159 c 0,0.1904047 0.010874,0.3335919 0.035139,0.4320143 0.024262,0.098401 0.055959,0.1478597 0.1049046,0.1860365 0.097888,0.076353 0.3341661,0.1095533 0.7715276,0.1095533 h 1.8810235 c 0.43747,0 0.6752246,-0.033102 0.7735966,-0.1095533 0.049183,-0.038227 0.080904,-0.087863 0.104902,-0.1860365 0.023998,-0.098174 0.034131,-0.2407153 0.033073,-0.4309798 V 3.2416643 2.1166798 0.9916847 0.9911556 C 3.969809,0.8008911 3.9596755,0.6583494 3.9356777,0.5601758 3.91168,0.4620022 3.8799591,0.4123663 3.8307757,0.3741393 3.7324063,0.2977012 3.4946491,0.2645965 3.0571791,0.2645965 Z M 2.58589,0.5415835 c 0.293071,-8.99e-5 0.5856896,0.00212 0.8784987,0.01188 0.070422,0.015849 0.2003875,-0.0055 0.2098066,0.091467 0.035467,0.4879922 0.017515,0.9757145 0.026871,1.4655429 -0.00333,0.4940962 0.014367,0.9711029 -0.027387,1.4546924 0.016986,0.1119558 -0.1162738,0.094131 -0.1860365,0.1116198 -0.9082537,0.0186 -1.8192141,0.015584 -2.7248987,5.291e-4 C 0.7037741,3.6667837 0.6155776,3.6772294 0.574644,3.6277047 0.52209,3.3287387 0.541053,3.0272434 0.532268,2.7228508 c 0.00365,-0.676402 -0.00767,-1.3513011 0.02376,-2.0257161 -0.00794,-0.072152 0.028956,-0.13131 0.1059365,-0.1291934 0.3457019,-0.042598 0.6965553,-0.016827 1.0443818,-0.025823 0.2929414,0.00159 0.5864622,-5.292e-4 0.8795332,-5.292e-4 z"
     style="color:#000000;display:inline;overflow:visible;visibility:visible;fill:url(#linearGradient891);fill-opacity:1;fill-rule:nonzero;stroke:none;stroke-width:0.264583;marker:none;enable-background:accumulate;opacity:1"
     id="path1490" />
  <path
     d="m 1.1761556,1.32e-5 c -0.44534665,0 -0.73102525,0.0068 -0.93430995,0.1653646 -0.1016423,0.079282 -0.1654439,0.1958525 -0.1989534,0.3317637 C 0.00938275,0.6330526 6.5451263e-7,0.7926916 6.5451263e-7,0.9922007 V 2.1166798 3.241159 c 0,0.1995091 0.009389995487,0.359148 0.0428919954874,0.4950592 0.03351,0.1359112 0.097311,0.2524813 0.1989534,0.3317637 0.2032847,0.1585648 0.4889633,0.1653646 0.93430995,0.1653646 h 1.8810235 c 0.4454551,0 0.7319539,-0.00688 0.9358603,-0.1653646 C 4.0949917,3.9887469 4.1592167,3.8723569 4.1925092,3.7362182 4.2257672,3.6002224 4.2345012,3.4405146 4.2333342,3.241159 V 3.2406298 2.1166798 0.9927166 0.9921875 C 4.2343923,0.7928319 4.2257669,0.6331241 4.1925088,0.4971282 4.1592163,0.3609895 4.0949913,0.2445993 3.9930394,0.1653646 3.789133,0.006895 3.5026342,0 3.0571791,0 Z m 0,0.2645833 h 1.8810235 c 0.43747,0 0.6752272,0.033105 0.7735966,0.1095534 0.049183,0.038224 0.080894,0.087863 0.104902,0.1860365 0.023998,0.098174 0.034203,0.2407152 0.033073,0.4309798 v 5.291e-4 1.1249951 1.1249951 5.292e-4 c 0.00106,0.1902619 -0.00908,0.3328061 -0.033073,0.4309798 -0.023998,0.098174 -0.055719,0.1478094 -0.104902,0.1860364 -0.098372,0.076451 -0.3361266,0.1095534 -0.7735966,0.1095534 H 1.1761556 c -0.43735895,0 -0.67363975,-0.0332 -0.77152765,-0.1095534 C 0.35568265,3.8210542 0.32398555,3.7715957 0.29972335,3.6731945 0.27546105,3.5747721 0.26458395,3.4315637 0.26458395,3.241159 V 2.1166798 0.9922007 c 0,-0.1904048 0.010874,-0.3336131 0.035139,-0.4320143 0.024262,-0.098401 0.055959,-0.1478598 0.1049046,-0.1860365 0.097888,-0.076353 0.3341687,-0.1095534 0.77152805,-0.1095534 z"
     style="color:#000000;display:inline;opacity:0.4;fill:#000000;stroke-width:0.264583;-inkscape-stroke:none;enable-background:new"
     id="path1158" />
</svg>
