<?xml version="1.0" encoding="UTF-8" standalone="no"?>
<!-- Created with Inkscape (http://www.inkscape.org/) -->

<svg
   width="16"
   height="16"
   viewBox="0 0 4.2333332 4.2333335"
   version="1.1"
   id="svg5"
   inkscape:version="1.1.2 (0a00cf5339, 2022-02-04)"
   sodipodi:docname="preferences-desktop-font-installer.svg"
   xmlns:inkscape="http://www.inkscape.org/namespaces/inkscape"
   xmlns:sodipodi="http://sodipodi.sourceforge.net/DTD/sodipodi-0.dtd"
   xmlns:xlink="http://www.w3.org/1999/xlink"
   xmlns="http://www.w3.org/2000/svg"
   xmlns:svg="http://www.w3.org/2000/svg">
  <sodipodi:namedview
     id="namedview7"
     pagecolor="#ffffff"
     bordercolor="#666666"
     borderopacity="1.0"
     inkscape:pageshadow="2"
     inkscape:pageopacity="0.0"
     inkscape:pagecheckerboard="0"
     inkscape:document-units="px"
     showgrid="false"
     units="px"
     inkscape:zoom="49.0625"
     inkscape:cx="7.9898089"
     inkscape:cy="7.9694268"
     inkscape:window-width="1920"
     inkscape:window-height="1017"
     inkscape:window-x="0"
     inkscape:window-y="0"
     inkscape:window-maximized="1"
     inkscape:current-layer="svg5" />
  <defs
     id="defs2">
    <linearGradient
       inkscape:collect="always"
       id="linearGradient1871">
      <stop
         style="stop-color:#ffffff;stop-opacity:1;"
         offset="0"
         id="stop1867" />
      <stop
         style="stop-color:#ffffff;stop-opacity:0.1"
         offset="0.12"
         id="stop2515" />
      <stop
         style="stop-color:#ffffff;stop-opacity:0.102"
         offset="0.89999998"
         id="stop2581" />
      <stop
         style="stop-color:#ffffff;stop-opacity:0.502"
         offset="1"
         id="stop1869" />
    </linearGradient>
    <linearGradient
       inkscape:collect="always"
       xlink:href="#linearGradient1871"
       id="linearGradient915"
       x1="2.1166668"
       y1="0.26458332"
       x2="2.1166668"
       y2="3.96875"
       gradientUnits="userSpaceOnUse" />
    <linearGradient
       inkscape:collect="always"
       xlink:href="#linearGradient2011"
       id="linearGradient2013"
       x1="6.8791666"
       y1="-1.190625"
       x2="6.8791666"
       y2="14.948958"
       gradientUnits="userSpaceOnUse"
       gradientTransform="matrix(0.50000008,0,0,0.33333335,-1.0583336,0.04409726)" />
    <linearGradient
       inkscape:collect="always"
       id="linearGradient2011">
      <stop
         style="stop-color:#f1e2a7;stop-opacity:1;"
         offset="0"
         id="stop2007" />
      <stop
         style="stop-color:#f9f1d2;stop-opacity:1"
         offset="1"
         id="stop2009" />
    </linearGradient>
    <linearGradient
       inkscape:collect="always"
       id="linearGradient17934">
      <stop
         style="stop-color:#ea9d60;stop-opacity:1"
         offset="0"
         id="stop17930" />
      <stop
         style="stop-color:#efbe94;stop-opacity:1"
         offset="1"
         id="stop17932" />
    </linearGradient>
    <linearGradient
       inkscape:collect="always"
       xlink:href="#linearGradient17934"
       id="linearGradient2425"
       x1="0.92604291"
       y1="1.3231846e-05"
       x2="3.3072915"
       y2="4.2333465"
       gradientUnits="userSpaceOnUse" />
  </defs>
  <path
     d="m 1.3483433,0.264597 c -0.190238,0 -0.344435,0.0037 -0.48573797,0.02739 -0.141306,0.02373 -0.282644,0.0731 -0.39066,0.180867 -0.108013,0.107765 -0.157837,0.249563 -0.181374,0.391189 -0.02355,0.141629 -0.02677,0.29646 -0.02585,0.487309 v 0.765329 1.031462 c -7.94e-4,0.190013 0.0024,0.34458 0.02585,0.485759 0.02355,0.141626 0.07336,0.283425 0.181374,0.391189 0.108016,0.107768 0.249354,0.157147 0.39066,0.180867 0.14130297,0.02373 0.29549997,0.02739 0.48573797,0.02739 h 1.536798 c 0.190238,0 0.344096,-0.0036 0.485219,-0.02739 0.141126,-0.02376 0.28248,-0.07353 0.390142,-0.181383 0.107664,-0.107849 0.157167,-0.249425 0.180861,-0.390673 0.0237,-0.14125 0.02739,-0.295145 0.02739,-0.485759 V 2.11668 1.349801 c 0,-0.190614 -0.0037,-0.344509 -0.02739,-0.485759 -0.02368,-0.141248 -0.0732,-0.282824 -0.180861,-0.390673 -0.107662,-0.10785 -0.249016,-0.157634 -0.390142,-0.181383 -0.141123,-0.02376 -0.294981,-0.02739 -0.485219,-0.02739 z"
     style="color:#000000;font-style:normal;font-variant:normal;font-weight:normal;font-stretch:normal;font-size:medium;line-height:normal;font-family:sans-serif;font-variant-ligatures:normal;font-variant-position:normal;font-variant-caps:normal;font-variant-numeric:normal;font-variant-alternates:normal;font-feature-settings:normal;text-indent:0;text-align:start;text-decoration:none;text-decoration-line:none;text-decoration-style:solid;text-decoration-color:#000000;letter-spacing:normal;word-spacing:normal;text-transform:none;writing-mode:lr-tb;direction:ltr;text-orientation:mixed;dominant-baseline:auto;baseline-shift:baseline;text-anchor:start;white-space:normal;shape-padding:0;clip-rule:nonzero;display:inline;overflow:visible;visibility:visible;opacity:0.1;isolation:auto;mix-blend-mode:normal;color-interpolation:sRGB;color-interpolation-filters:linearRGB;solid-color:#000000;solid-opacity:1;vector-effect:none;fill:#000000;fill-opacity:1;fill-rule:nonzero;stroke:none;stroke-width:0.529156;stroke-linecap:butt;stroke-linejoin:miter;stroke-miterlimit:4;stroke-dasharray:none;stroke-dashoffset:0;stroke-opacity:1;marker:none;color-rendering:auto;image-rendering:auto;shape-rendering:auto;text-rendering:auto;enable-background:accumulate"
     id="path3731" />
  <path
     d="m 1.2844203,0.132305 c -0.80477297,0 -0.89136597,0.08175 -0.88742097,0.879292 V 2.11668 3.22176 c -0.0039,0.797541 0.08265,0.879295 0.88742097,0.879295 h 1.664615 c 0.804775,0 0.887423,-0.08174 0.887423,-0.879295 V 2.11668 1.011597 c 0,-0.797549 -0.08265,-0.879292 -0.887423,-0.879292 z"
     style="color:#000000;display:inline;overflow:visible;visibility:visible;fill:url(#linearGradient2425);fill-opacity:1;fill-rule:nonzero;stroke:none;stroke-width:0.264583;marker:none;enable-background:accumulate"
     id="path3851" />
  <path
     id="rect18340"
     style="opacity:0.1;fill:#ffffff;fill-opacity:1;stroke-width:0.999999;stroke-linejoin:round"
     d="M 8 0.5 L 8 15.5 L 11.146484 15.5 C 14.188154 15.5 14.5 15.190162 14.5 12.175781 L 14.5 8 L 14.5 3.8242188 C 14.5 0.80986034 14.188146 0.5 11.146484 0.5 L 8 0.5 z "
     transform="scale(0.26458333)" />
  <rect
     style="opacity:0.6;fill:url(#linearGradient2013);fill-opacity:1;stroke-width:0.0954023;stroke-linecap:round;stroke-linejoin:round"
     id="rect1683"
     height="3.7041667"
     x="1.8520833"
     y="0.26458323"
     width="0.5291667" />
  <path
     d="m 1.2929443,1.0583333 c -0.085333,0 -0.1587129,0.00595 -0.2201518,0.017912 -0.05973,0.011959 -0.1041083,0.024738 -0.1331199,0.038396 l 0.023019,0.1459205 c 0.022172,-0.00852 0.057168,-0.019606 0.104955,-0.033261 0.047786,-0.013653 0.1203404,-0.020532 0.2176224,-0.020532 0.068262,0 0.1228566,0.011113 0.1638141,0.033303 0.042667,0.020479 0.075107,0.048657 0.097293,0.084495 0.023892,0.034131 0.039235,0.073385 0.046059,0.1177555 0.00685,0.042667 0.010239,0.087003 0.010239,0.1330828 v 0.081928 c -0.00683,-0.00341 -0.019632,-0.00683 -0.038394,-0.010239 -0.017066,-0.00513 -0.038394,-0.00939 -0.063995,-0.012779 -0.023892,-0.00513 -0.049482,-0.00852 -0.07679,-0.010239 -0.025612,-0.00341 -0.050329,-0.00513 -0.074229,-0.00513 -0.080211,0 -0.1544426,0.00767 -0.2227104,0.023045 -0.068265,0.015372 -0.127164,0.040129 -0.1766517,0.074263 -0.049493,0.032427 -0.087884,0.074224 -0.115189,0.1254205 -0.027308,0.0512 -0.040965,0.1126412 -0.040965,0.1843168 0,0.075094 0.011959,0.1391179 0.035827,0.192024 0.025585,0.051197 0.059724,0.093853 0.1023884,0.1279869 0.044373,0.032425 0.095597,0.056295 0.1536277,0.071654 0.059732,0.015372 0.1245738,0.023072 0.1945481,0.023072 0.054613,0 0.107524,-0.00265 0.1587209,-0.0077 0.052906,-0.00341 0.1006898,-0.00852 0.1433566,-0.015372 0.042664,-0.00683 0.08019,-0.012779 0.1126146,-0.017886 0.03243,-0.00685 0.0572,-0.012806 0.074266,-0.017939 v -0.834524 c 0,-0.069974 -0.00855,-0.1348581 -0.025585,-0.1945904 C 1.7264482,1.292987 1.69913,1.2417981 1.6615883,1.199134 1.6240412,1.1547635 1.5745324,1.1206374 1.5130935,1.0967429 1.4533638,1.0711312 1.3799869,1.0583466 1.2929496,1.0583466 Z m 0.9483989,0.4613805 v 1.8112581 h 0.1942227 l 0.060568,-0.078182 c 0.1210892,0.070636 0.2421705,0.1034124 0.3657865,0.1034124 0.3632729,0 0.5776648,-0.2699279 0.5776648,-0.6382279 0,-0.3683 -0.1488282,-0.6281473 -0.5221817,-0.6281473 -0.1437905,0 -0.2623529,0.035356 -0.3657865,0.088331 V 1.5197165 Z m -0.897202,0.2425938 c 0.071678,0 0.1279922,0.00513 0.1689523,0.015372 0.040958,0.00852 0.070816,0.017066 0.089588,0.025585 v 0.4659312 c -0.034131,0.00685 -0.075925,0.012779 -0.1254151,0.017912 -0.047786,0.00341 -0.104103,0.00513 -0.1689524,0.00513 -0.052909,0 -0.1006898,-0.00429 -0.1433539,-0.012806 -0.040958,-0.010239 -0.076806,-0.025612 -0.1075293,-0.046096 -0.029009,-0.020479 -0.052059,-0.047757 -0.069125,-0.081888 -0.015372,-0.034134 -0.023045,-0.07597 -0.023045,-0.1254575 0,-0.056322 0.011959,-0.1015603 0.03583,-0.1356889 0.023892,-0.034134 0.05461,-0.06055 0.092154,-0.079325 0.03755,-0.020479 0.07852,-0.033319 0.1228963,-0.038436 0.044371,-0.00685 0.087024,-0.010213 0.1279843,-0.010213 z m 1.4975681,0.5797815 c 0.2169503,0 0.287602,0.1564111 0.287602,0.3935412 0,0.2371302 -0.11099,0.3758936 -0.3178439,0.3758936 -0.1009068,0 -0.1866847,-0.025215 -0.259842,-0.08323 V 2.4102536 c 0.060542,-0.025215 0.1790911,-0.068151 0.2900891,-0.068149 z"
     style="opacity:0.1;fill:#000000;stroke-width:0.264583;enable-background:new"
     id="path872"
     sodipodi:nodetypes="cccccscccsccccscccscccsccccscccccccccsssccccccccscccsccccccsscccc" />
  <path
     d="m 1.2929444,0.79375 c -0.085333,0 -0.1587129,0.00595 -0.2201518,0.017912 C 1.0130626,0.823621 0.9686843,0.8364 0.9396727,0.850058 l 0.023019,0.1459204 c 0.022172,-0.00852 0.057168,-0.019606 0.104955,-0.033261 0.047786,-0.013653 0.1203404,-0.020532 0.2176224,-0.020532 0.068262,0 0.1228566,0.011113 0.1638141,0.033303 0.042667,0.020479 0.075107,0.048657 0.097293,0.084495 0.023892,0.034131 0.039235,0.073385 0.046059,0.1177555 0.00685,0.042667 0.010239,0.087003 0.010239,0.1330827 v 0.081928 c -0.00683,-0.00341 -0.019632,-0.00683 -0.038394,-0.010239 -0.017066,-0.00513 -0.038394,-0.00939 -0.063995,-0.012779 -0.023892,-0.00513 -0.049482,-0.00852 -0.07679,-0.010239 -0.025612,-0.00341 -0.050329,-0.00513 -0.074229,-0.00513 -0.080211,0 -0.1544426,0.00767 -0.2227104,0.023045 -0.068265,0.015372 -0.127164,0.040129 -0.1766517,0.074263 -0.049493,0.032427 -0.087884,0.074224 -0.11518904,0.1254205 -0.027308,0.0512 -0.040965,0.1126412 -0.040965,0.1843168 0,0.075094 0.011959,0.1391179 0.035827,0.192024 0.025585,0.051197 0.059724,0.093853 0.10238844,0.1279869 0.044373,0.032425 0.095597,0.056295 0.1536277,0.071654 0.059732,0.015372 0.1245738,0.023072 0.1945481,0.023072 0.054613,0 0.107524,-0.00265 0.1587209,-0.0077 0.052906,-0.00341 0.1006898,-0.00852 0.1433566,-0.015372 0.042664,-0.00683 0.08019,-0.012779 0.1126146,-0.017886 0.03243,-0.00685 0.0572,-0.012806 0.074266,-0.017939 v -0.834524 c 0,-0.069974 -0.00855,-0.1348581 -0.025585,-0.1945904 C 1.7264483,1.0284037 1.6991301,0.9772147 1.6615884,0.9345507 1.6240413,0.8901801 1.5745325,0.8560541 1.5130936,0.8321596 1.4533639,0.8065479 1.379987,0.7937632 1.2929497,0.7937632 Z m 0.9483989,0.4613804 v 1.8112582 h 0.1942226 l 0.060568,-0.078182 c 0.1210892,0.070636 0.2421706,0.1034124 0.3657865,0.1034124 0.3632729,0 0.5776648,-0.269928 0.5776648,-0.638228 0,-0.3683 -0.1488284,-0.6281472 -0.5221816,-0.6281472 -0.1437908,0 -0.2623529,0.035356 -0.3657866,0.088331 V 1.2551331 Z m -0.897202,0.2425939 c 0.071678,0 0.1279922,0.00513 0.1689523,0.015372 0.040958,0.00852 0.070816,0.017066 0.089588,0.025585 v 0.4659314 c -0.034131,0.00685 -0.075925,0.012779 -0.1254151,0.017912 -0.047786,0.00341 -0.104103,0.00513 -0.1689524,0.00513 -0.052909,0 -0.1006898,-0.00429 -0.1433539,-0.012806 -0.040958,-0.010239 -0.076806,-0.025612 -0.1075293,-0.046096 -0.029009,-0.020479 -0.052059,-0.047757 -0.069125,-0.081888 -0.015372,-0.034134 -0.023045,-0.07597 -0.023045,-0.1254575 0,-0.056322 0.011959,-0.1015603 0.03583,-0.1356889 0.023892,-0.034134 0.05461,-0.06055 0.092154,-0.079325 0.03755,-0.020479 0.07852,-0.033319 0.1228963,-0.038436 0.044371,-0.00685 0.087024,-0.010213 0.1279843,-0.010213 z m 1.497568,0.5797815 c 0.2169504,0 0.2876021,0.1564111 0.2876021,0.3935413 0,0.23713 -0.1109901,0.3758935 -0.317844,0.3758935 -0.1009068,0 -0.1866846,-0.025215 -0.2598419,-0.08323 V 2.1456703 c 0.060542,-0.025215 0.1790911,-0.068151 0.2900891,-0.068149 z"
     style="fill:#333333;fill-opacity:1;stroke-width:0.0700042;enable-background:new"
     id="path1088" />
  <path
     d="m 1.3017503,0.264607 c -0.37784097,0 -0.57122197,0.03201 -0.65086697,0.103696 -0.03982,0.03584 -0.06928,0.08775 -0.09077,0.188304 -0.02148,0.100557 -0.03094,0.244424 -0.03094,0.435419 v 1.124659 1.124659 c 0,0.190998 0.0094,0.334862 0.03094,0.43542 0.02148,0.100557 0.05095,0.152458 0.09077,0.188304 0.07964,0.07169 0.273026,0.103695 0.65086697,0.103695 h 1.629751 c 0.377936,0 0.572397,-0.03194 0.652415,-0.103695 0.04001,-0.03588 0.06949,-0.08742 0.09077,-0.187788 0.02125,-0.100365 0.03045,-0.244544 0.0294,-0.435417 V 3.241334 2.116685 0.992026 0.991497 c 0.0011,-0.190873 -0.0081,-0.335053 -0.0294,-0.435417 -0.02127,-0.100364 -0.05076,-0.151905 -0.09077,-0.187788 -0.08002,-0.07176 -0.274479,-0.103695 -0.652415,-0.103695 z m 0.611674,0.271881 c 0.240009,-2.65e-4 0.47997,-2.65e-4 0.719976,0.0011 0.24038,0.0087 0.483854,-0.01283 0.722043,0.0263 0.06492,-0.0045 0.05335,0.07245 0.0624,0.115562 0.0199,0.741997 0.01408,1.499798 0.01135,2.248807 -0.006,0.225946 0.0043,0.450837 -0.01807,0.673246 0.0032,0.08312 -0.09426,0.06942 -0.152144,0.08254 -0.55005,0.01611 -1.116346,0.0097 -1.673587,0.0098 -0.233955,-0.008 -0.470361,0.01148 -0.70244497,-0.02267 -0.06701,0.0067 -0.05625,-0.06917 -0.06808,-0.11247 -0.02117,-0.765444 -0.01423,-1.541465 -0.01135,-2.312257 0.0073,-0.208933 -0.0067,-0.416597 0.02061,-0.624755 -0.0061,-0.07268 0.07841,-0.05634 0.124809,-0.06965 C 1.2695083,0.530031 1.5920933,0.541461 1.9133793,0.536561 Z"
     style="color:#000000;display:inline;overflow:visible;visibility:visible;fill:url(#linearGradient915);fill-opacity:1;fill-rule:nonzero;stroke:none;stroke-width:0.2641;marker:none;enable-background:accumulate;opacity:0.7"
     id="path4135" />
  <path
     d="m 1.3012133,1.3e-5 c -0.38711497,0 -0.64589797,0.0083 -0.82733897,0.171567 -0.09072,0.08165 -0.144018,0.195932 -0.172601,0.329694 -0.02858,0.133766 -0.03669,0.292026 -0.03669,0.490927 V 2.11668 3.241159 c 0,0.198901 0.0081,0.357161 0.03669,0.490926 0.02858,0.133766 0.08188,0.248045 0.172601,0.329695 0.181441,0.163304 0.440224,0.171567 0.82733897,0.171567 h 1.630391 c 0.38721,0 0.64738,-0.0078 0.829406,-0.171048 0.09101,-0.08162 0.144208,-0.196255 0.1726,-0.330214 0.02836,-0.133818 0.03615,-0.2922 0.03514,-0.490926 V 3.24063 2.11668 0.992717 0.992187 c 0.0011,-0.198725 -0.0068,-0.357108 -0.03514,-0.490926 -0.02839,-0.133958 -0.08159,-0.248597 -0.1726,-0.330213 C 3.5789823,0.007818 3.3188143,0 2.9316043,0 Z m 0,0.264584 h 1.630391 c 0.377997,0 0.572728,0.03218 0.652672,0.10387 0.03997,0.03584 0.06917,0.08723 0.09043,0.187584 0.02127,0.100351 0.03044,0.244226 0.02946,0.435115 v 5.29e-4 1.124995 1.124996 5.29e-4 c 0.0011,0.190889 -0.0082,0.334761 -0.02946,0.435115 -0.02127,0.100351 -0.05046,0.151738 -0.09043,0.187584 -0.07994,0.07167 -0.274675,0.103849 -0.652672,0.103849 h -1.630391 c -0.37790197,0 -0.57103497,-0.03174 -0.65060797,-0.103354 -0.03979,-0.03581 -0.06895,-0.08807 -0.09043,-0.188619 -0.02148,-0.100547 -0.03101,-0.24462 -0.03101,-0.435631 V 2.11668 0.992201 c 0,-0.191011 0.0095,-0.335084 0.03101,-0.435631 0.02148,-0.10055 0.05065,-0.152813 0.09043,-0.188622 0.07957,-0.07161 0.272706,-0.103351 0.65060797,-0.103351 z"
     style="color:#000000;display:inline;opacity:0.4;fill:#000000;stroke-width:0.264583;-inkscape-stroke:none;enable-background:new"
     id="path4015" />
</svg>
