<?xml version="1.0" encoding="UTF-8" standalone="no"?>
<!-- Created with Inkscape (http://www.inkscape.org/) -->

<svg
   width="16"
   height="16"
   viewBox="0 0 4.2333333 4.2333333"
   version="1.1"
   id="svg1003"
   sodipodi:docname="preferences-desktop-theme.svg"
   inkscape:version="1.1.2 (0a00cf5339, 2022-02-04)"
   xmlns:inkscape="http://www.inkscape.org/namespaces/inkscape"
   xmlns:sodipodi="http://sodipodi.sourceforge.net/DTD/sodipodi-0.dtd"
   xmlns:xlink="http://www.w3.org/1999/xlink"
   xmlns="http://www.w3.org/2000/svg"
   xmlns:svg="http://www.w3.org/2000/svg">
  <sodipodi:namedview
     id="namedview1005"
     pagecolor="#ffffff"
     bordercolor="#666666"
     borderopacity="1.0"
     inkscape:pageshadow="2"
     inkscape:pageopacity="0.0"
     inkscape:pagecheckerboard="0"
     inkscape:document-units="px"
     showgrid="false"
     units="px"
     showguides="true"
     inkscape:lockguides="true"
     inkscape:zoom="35.001786"
     inkscape:cx="10.156625"
     inkscape:cy="8.4567114"
     inkscape:window-width="1920"
     inkscape:window-height="1010"
     inkscape:window-x="0"
     inkscape:window-y="0"
     inkscape:window-maximized="1"
     inkscape:current-layer="svg1003" />
  <defs
     id="defs1000">
    <linearGradient
       inkscape:collect="always"
       id="linearGradient17934">
      <stop
         style="stop-color:#fb7c38;stop-opacity:1"
         offset="0"
         id="stop17930" />
      <stop
         style="stop-color:#9b33ef;stop-opacity:1"
         offset="1"
         id="stop17932" />
    </linearGradient>
    <linearGradient
       inkscape:collect="always"
       xlink:href="#linearGradient1871"
       id="linearGradient16320"
       x1="10"
       y1="4"
       x2="10"
       y2="29.100245"
       gradientUnits="userSpaceOnUse"
       gradientTransform="matrix(0.13229166,0,0,0.12211538,0,0.04070512)" />
    <linearGradient
       inkscape:collect="always"
       id="linearGradient1871">
      <stop
         style="stop-color:#ffffff;stop-opacity:1;"
         offset="0"
         id="stop1867" />
      <stop
         style="stop-color:#ffffff;stop-opacity:0.1"
         offset="0.12"
         id="stop2515" />
      <stop
         style="stop-color:#ffffff;stop-opacity:0.102"
         offset="0.89999998"
         id="stop2581" />
      <stop
         style="stop-color:#ffffff;stop-opacity:0.502"
         offset="1"
         id="stop1869" />
    </linearGradient>
    <linearGradient
       inkscape:collect="always"
       xlink:href="#linearGradient17934"
       id="linearGradient17936"
       x1="4.2333331"
       y1="3.96875"
       x2="-0.53718448"
       y2="0.26725584"
       gradientUnits="userSpaceOnUse" />
  </defs>
  <path
     d="M 1.0583333,0.396875 H 3.175 c 0.7935019,1.919e-4 0.9259876,0.157244 0.9260416,0.9921875 V 2.8376562 C 4.1009876,3.6238466 3.9685019,3.8366501 3.175,3.8364583 H 1.0583333 c -0.79355622,0 -0.92604169,-0.2128036 -0.92604169,-0.9988021 V 1.3890625 c 0,-0.7859985 0.13248546,-0.9921875 0.92604169,-0.9921875 z"
     style="fill:url(#linearGradient17936);fill-opacity:1;stroke-width:0.0653156;stroke-linejoin:round"
     id="path17503"
     sodipodi:nodetypes="sccccssss" />
  <path
     id="rect1340"
     style="opacity:0.3;fill:#000000;fill-opacity:1;stroke-width:1.35128;stroke-linecap:round;stroke-linejoin:round"
     d="M 4 1.5 C 1.0007324 1.5 0.5 2.279297 0.5 5.25 L 0.5 10.724609 C 0.5 13.695312 1.0007324 14.5 4 14.5 L 5 14.5 L 5 1.5 L 4 1.5 z "
     transform="scale(0.26458333)" />
  <path
     id="path960"
     style="color:#000000;opacity:0.05;fill:#000000;fill-rule:evenodd;stroke-width:0.529167;stroke-linejoin:round;-inkscape-stroke:none"
     d="M 0.52916673,1.0583333 C 0.38304739,1.0583479 0.2645979,1.1767974 0.26458333,1.3229167 V 1.5875 c 1.463e-5,0.1461193 0.1184641,0.2645687 0.2645834,0.2645833 h 0.2645833 C 0.93986928,1.8520687 1.0583187,1.7336193 1.0583333,1.5875 V 1.3229167 C 1.0583187,1.1767974 0.93986932,1.0583479 0.79375003,1.0583333 Z"
     sodipodi:nodetypes="ccccccccc" />
  <path
     d="M 0.52916673,1.8520833 C 0.38304738,1.8520979 0.2645979,1.9705474 0.26458332,2.1166667 V 2.38125 c 1.463e-5,0.1461193 0.11846409,0.2645687 0.26458341,0.2645833 H 0.79375001 C 0.93986928,2.6458187 1.0583187,2.5273693 1.0583333,2.38125 V 2.1166667 C 1.0583187,1.9705474 0.9398693,1.852098 0.79375001,1.8520833 Z"
     style="color:#000000;opacity:0.05;fill:#000000;fill-rule:evenodd;stroke-width:0.140009;stroke-linejoin:round;-inkscape-stroke:none"
     id="path1023"
     sodipodi:nodetypes="ccccccccc" />
  <path
     d="M 0.52916673,2.6458334 C 0.38304737,2.645848 0.26459791,2.7642975 0.26458332,2.9104168 v 0.2645833 c 1.464e-5,0.1461193 0.1184641,0.2645687 0.26458341,0.2645833 H 0.79375001 C 0.93986928,3.4395688 1.0583187,3.3211194 1.0583333,3.1750001 V 2.9104168 C 1.0583187,2.7642975 0.93986928,2.6458481 0.79375001,2.6458334 Z"
     style="color:#000000;opacity:0.05;fill:#000000;fill-rule:evenodd;stroke-width:0.037044;stroke-linejoin:round;-inkscape-stroke:none"
     id="path1143" />
  <path
     id="rect37"
     d="m 0.64492193,1.0583333 c -0.064117,0 -0.1157552,0.051639 -0.1157552,0.1157552 v 0.2976563 c 0,0.064117 0.051639,0.1157552 0.1157552,0.1157552 h 0.2976562 c 0.064117,0 0.11575517,-0.051639 0.11575517,-0.1157552 V 1.1740885 c 0,-0.064117 -0.051639,-0.1157552 -0.11575517,-0.1157552 z m 0,0.79375 c -0.064117,0 -0.1157552,0.051639 -0.1157552,0.1157552 v 0.2976563 c 0,0.064117 0.051639,0.1157552 0.1157552,0.1157552 h 0.2976562 c 0.064117,0 0.11575517,-0.051639 0.11575517,-0.1157552 V 1.9678385 c 0,-0.064117 -0.051639,-0.1157552 -0.11575517,-0.1157552 z m 0,0.79375 c -0.064117,0 -0.1157552,0.051639 -0.1157552,0.1157552 v 0.2976563 c 0,0.064117 0.051639,0.1157552 0.1157552,0.1157552 h 0.2976562 c 0.064117,0 0.11575517,-0.051639 0.11575517,-0.1157552 V 2.7615885 c 0,-0.064117 -0.051639,-0.1157552 -0.11575517,-0.1157552 z"
     style="stroke-width:0.264583;fill:#faf8f6;fill-opacity:1" />
  <path
     d="m 2.0956885,1.3229811 c -0.1003618,-2.645e-4 -0.1799829,0.00185 -0.2474966,0.012806 -0.06759,0.011324 -0.1263623,0.033692 -0.1700503,0.077909 -0.043688,0.044212 -0.065836,0.1037854 -0.077174,0.171958 -0.010768,0.064781 -0.012991,0.1417293 -0.013203,0.2359475 -7.9e-6,0.00492 -2.646e-4,0.00857 -2.646e-4,0.013653 v 0.8274843 c 0,0.1012164 0.00212,0.1812634 0.01352,0.249309 0.011324,0.068043 0.033478,0.1276217 0.077171,0.1716749 0.043709,0.04405 0.1025631,0.066204 0.1700504,0.077631 0.06749,0.011404 0.1470369,0.013653 0.2474965,0.013653 h 0.5500952 0.5501217 c 0.1004596,0 0.1800066,-0.00212 0.2474965,-0.013653 0.067487,-0.011404 0.1263412,-0.033584 0.1700504,-0.077631 0.043712,-0.044053 0.065831,-0.103632 0.077171,-0.1716749 0.011351,-0.068046 0.01352,-0.1480926 0.01352,-0.249309 V 1.8352542 c 0,-0.00505 -2.647e-4,-0.00873 -2.647e-4,-0.013653 C 3.7036645,1.7273835 3.7015479,1.6504348 3.6907,1.5856542 3.6793758,1.5174869 3.6572222,1.4579081 3.6135316,1.4136962 3.5698436,1.3694843 3.511069,1.3471297 3.4434786,1.335787 3.3758934,1.3244628 3.2962247,1.3225049 3.1957069,1.3229811 H 2.6458498 Z"
     style="color:#000000;fill:#faf8f6;stroke-width:0.264583"
     id="path893" />
  <path
     d="m 2.0956885,1.3229811 c -0.1003618,-2.645e-4 -0.1800146,0.00185 -0.2475283,0.012912 -0.067593,0.011324 -0.126328,0.033814 -0.170016,0.078031 -0.043688,0.044212 -0.065662,0.1033939 -0.076999,0.1715664 -0.010768,0.064781 -0.013229,0.1419437 -0.013441,0.2361618 -8e-6,0.00492 0,0.00836 0,0.013441 v 0.017055 H 3.704371 v -0.01704 -0.013441 C 3.7041063,1.7274497 3.7017251,1.6502866 3.6909301,1.585506 3.679606,1.5173388 3.6576218,1.4581515 3.6139311,1.4139396 3.5702431,1.3697277 3.5115083,1.3472514 3.4439152,1.3359087 3.37633,1.3245845 3.2963861,1.3225208 3.1958683,1.322997 H 2.6460377 Z"
     style="color:#000000;fill:#7c2f68;stroke-width:0.264583"
     id="path1037" />
  <path
     id="rect7040"
     style="opacity:0.4;stroke-width:0.264583;stroke-linejoin:round"
     d="M 1.0583333,0.26458333 C 0.21187339,0.26458333 0,0.47645663 0,1.3229166 v 1.5875 C 0,3.7568766 0.21187339,3.96875 1.0583333,3.96875 H 3.175 C 4.021402,3.9689566 4.2332756,3.7570833 4.2333333,2.9104166 v -1.5875 C 4.2332756,0.42374666 4.021402,0.26478997 3.175,0.26458333 Z M 0.94929604,0.52916666 H 1.3229166 3.175 c 0.5820833,0 0.79375,-2.9e-7 0.79375,0.79374994 v 0.1829346 1.2216309 0.1829345 c 0,0.79375 -0.2116667,0.79375 -0.79375,0.79375 H 1.3229166 1.0583333 c -0.5820832,0 -0.79374997,0 -0.79374997,-0.79375 V 2.7274821 1.5058512 1.3229166 c 0,-0.74414078 0.16294232,-0.79084294 0.68471271,-0.79374994 z"
     sodipodi:nodetypes="ssssccccsccssccsscssccsc" />
  <path
     id="rect13250"
     style="opacity:0.4;fill:url(#linearGradient16320);fill-opacity:1;stroke-width:0.127101;stroke-linejoin:round"
     d="M 0.94929604,0.52916666 C 0.4275256,0.53207345 0.26458333,0.5787759 0.26458333,1.3229166 v 0.1829346 1.2216309 0.1829345 c 0,0.79375 0.21166674,0.79375 0.79374997,0.79375 H 1.3229166 3.175 c 0.5820833,0 0.79375,0 0.79375,-0.79375 V 2.7274821 1.5058512 1.3229166 C 3.96875,0.52916642 3.7570833,0.52916666 3.175,0.52916666 H 1.3229166 Z m 0.0847494,0.26458333 c 0.0079,-4.458e-5 0.016138,0 0.024288,0 H 3.175 c 0.5216072,0 0.5291666,0.0892859 0.5291666,0.52916661 v 1.5875 c 0,0.4398807 -0.00756,0.5291667 -0.5291666,0.5291667 H 1.0583333 c -0.52160723,0 -0.52916664,-0.089286 -0.52916664,-0.5291667 v -1.5875 c 0,-0.4330075 0.007113,-0.52635721 0.50487874,-0.52916661 z"
     sodipodi:nodetypes="csccsscssccssccssssssssss" />
</svg>
