<?xml version="1.0" encoding="UTF-8" standalone="no"?>
<!-- Created with Inkscape (http://www.inkscape.org/) -->

<svg
   width="16"
   height="16"
   viewBox="0 0 4.2333333 4.2333333"
   version="1.1"
   id="svg5"
   sodipodi:docname="system-software-update.svg"
   inkscape:version="1.1.2 (0a00cf5339, 2022-02-04)"
   xmlns:inkscape="http://www.inkscape.org/namespaces/inkscape"
   xmlns:sodipodi="http://sodipodi.sourceforge.net/DTD/sodipodi-0.dtd"
   xmlns:xlink="http://www.w3.org/1999/xlink"
   xmlns="http://www.w3.org/2000/svg"
   xmlns:svg="http://www.w3.org/2000/svg">
  <sodipodi:namedview
     id="namedview7"
     pagecolor="#ffffff"
     bordercolor="#666666"
     borderopacity="1.0"
     inkscape:pageshadow="2"
     inkscape:pageopacity="0.0"
     inkscape:pagecheckerboard="0"
     inkscape:document-units="px"
     showgrid="false"
     units="px"
     height="48px"
     showguides="false"
     inkscape:zoom="48"
     inkscape:cx="7.9895833"
     inkscape:cy="8"
     inkscape:window-width="1920"
     inkscape:window-height="995"
     inkscape:window-x="0"
     inkscape:window-y="0"
     inkscape:window-maximized="1"
     inkscape:current-layer="svg5" />
  <defs
     id="defs2">
    <linearGradient
       inkscape:collect="always"
       id="linearGradient1871">
      <stop
         style="stop-color:#ffffff;stop-opacity:1;"
         offset="0"
         id="stop1867" />
      <stop
         style="stop-color:#ffffff;stop-opacity:0.1"
         offset="0.12"
         id="stop2515" />
      <stop
         style="stop-color:#ffffff;stop-opacity:0.102"
         offset="0.89999998"
         id="stop2581" />
      <stop
         style="stop-color:#ffffff;stop-opacity:0.502"
         offset="1"
         id="stop1869" />
    </linearGradient>
    <linearGradient
       inkscape:collect="always"
       xlink:href="#linearGradient1871"
       id="linearGradient1412"
       x1="2.1166666"
       y1="0.26458332"
       x2="2.1166666"
       y2="3.96875"
       gradientUnits="userSpaceOnUse"
       gradientTransform="scale(3.7795276)" />
  </defs>
  <path
     id="path986"
     style="fill:#ebebed;fill-opacity:1;stroke-width:0.666667;stroke-linecap:round;stroke-linejoin:round"
     d="M 8 0.5 A 7.5000001 7.5000001 0 0 0 4 1.6601562 L 4 3 L 5.71875 3 A 5.4999999 5.4999999 0 0 1 8 2.5 A 5.4999999 5.4999999 0 0 1 13.5 8 A 5.4999999 5.4999999 0 0 1 11.775391 12 L 13 12 L 13 13.583984 A 7.5000001 7.5000001 0 0 0 15.5 8 A 7.5000001 7.5000001 0 0 0 8 0.5 z M 3 2.4160156 A 7.5000001 7.5000001 0 0 0 0.5 8 A 7.5000001 7.5000001 0 0 0 8 15.5 A 7.5000001 7.5000001 0 0 0 12 14.339844 L 12 13 L 10.291016 13 A 5.4999999 5.4999999 0 0 1 8 13.5 A 5.4999999 5.4999999 0 0 1 2.5 8 A 5.4999999 5.4999999 0 0 1 4.2324219 4 L 3 4 L 3 2.4160156 z "
     transform="scale(0.26458333)" />
  <path
     id="path937"
     style="opacity:1;fill:#4d4d4d;fill-opacity:1;stroke-width:2.2;stroke-linecap:round;stroke-linejoin:round"
     d="M 4 1.6621094 A 7.5000001 7.5000001 0 0 0 3 2.4140625 L 3 4 L 4.2285156 4 A 5.4999999 5.4999999 0 0 0 2.5 8 A 5.4999999 5.4999999 0 0 0 8 13.5 A 5.4999999 5.4999999 0 0 0 10.283203 13 L 12 13 L 12 14.337891 A 7.5000001 7.5000001 0 0 0 13 13.585938 L 13 12 L 11.771484 12 A 5.4999999 5.4999999 0 0 0 13.5 8 A 5.4999999 5.4999999 0 0 0 8 2.5 A 5.4999999 5.4999999 0 0 0 5.7167969 3 L 4 3 L 4 1.6621094 z "
     transform="scale(0.26458333)" />
  <circle
     style="opacity:0.1;fill:#babeb4;fill-opacity:1;stroke-width:0.264583"
     id="path1872"
     cx="2.1166666"
     cy="2.1166666"
     r="1.4552083" />
  <path
     id="rect938"
     style="opacity:0.1;fill:#ffffff;stroke-width:0.264583"
     d="M 0.13229167,2.1166667 A 1.984375,1.984375 0 0 0 2.1166667,4.1010416 1.984375,1.984375 0 0 0 4.1010417,2.1166667 Z" />
  <path
     id="path1124"
     style="opacity:0.4;fill:#000000;stroke-width:2;stroke-linecap:round;stroke-linejoin:round"
     d="M 8,0 A 7.9999996,7.9999996 0 0 0 0,8 7.9999996,7.9999996 0 0 0 8,16 7.9999996,7.9999996 0 0 0 16,8 7.9999996,7.9999996 0 0 0 8,0 Z M 8,1 A 7,7 0 0 1 15,8 7,7 0 0 1 8,15 7,7 0 0 1 1,8 7,7 0 0 1 8,1 Z"
     transform="scale(0.26458333)" />
  <path
     id="path1324"
     style="opacity:1;fill:url(#linearGradient1412);fill-opacity:1;stroke-width:2;stroke-linecap:round;stroke-linejoin:round"
     d="M 8 1 A 7 7 0 0 0 4 2.2714844 L 4 3 L 4.7109375 3 A 5.9999999 5.9999999 0 0 1 8 2 A 5.9999999 5.9999999 0 0 1 14 8 A 5.9999999 5.9999999 0 0 1 12.46875 12 L 13 12 L 13 12.875 A 7 7 0 0 0 15 8 A 7 7 0 0 0 8 1 z M 3 3.125 A 7 7 0 0 0 1 8 A 7 7 0 0 0 8 15 A 7 7 0 0 0 12 13.728516 L 12 13 L 11.314453 13 A 5.9999999 5.9999999 0 0 1 8 14 A 5.9999999 5.9999999 0 0 1 2 8 A 5.9999999 5.9999999 0 0 1 3.5507812 4 L 3 4 L 3 3.125 z "
     transform="scale(0.26458333)" />
  <path
     d="M 1.9600068,1.0583531 C 1.8878497,1.2086841 1.8187008,1.3610364 1.7525576,1.5153679 1.6864118,1.6676965 1.6192367,1.8280525 1.551088,1.9964333 1.4849448,2.1648009 1.3466551,2.531606 1.3466551,2.531606 L 1.190625,2.9104364 H 1.5862035 L 1.7293113,2.5172127 2.5360259,2.4096093 2.7074389,2.9104126 H 3.1014035 L 2.9307922,2.5376147 c 0,0 -0.1393031,-0.3658129 -0.2074519,-0.5321829 C 2.6571945,1.8370589 2.5910381,1.675708 2.5248949,1.5213766 2.4587517,1.3670451 2.3144506,1.0583558 2.3144506,1.0583558 H 2.136259 Z M 2.278671,1.8190302 C 2.350828,1.9974176 2.4249777,2.1898437 2.5011485,2.3962981 L 1.7903454,2.3692497 C 1.8524802,2.1948682 1.9146255,2.0265085 1.9767603,1.8641602 2.0279704,1.7329268 2.0811992,1.6063528 2.1362458,1.4840598 v -0.00238 c 0,0 0.080677,0.1849173 0.1424279,0.3373173 z"
     style="fill:#fff9f2;fill-opacity:1;stroke-width:0.264583;enable-background:new"
     id="path1079"
     sodipodi:nodetypes="ccccccccccccsccccccccccc" />
  <path
     d="M 2.3144532,1.0583823 2.140241,1.4866633 c 0,0 0.079195,0.185883 0.1384485,0.3323696 0.072157,0.1783874 0.1463066,0.3708135 0.2224775,0.5772679 l 0.3802857,0.010239 C 2.8281682,2.2664327 2.7754526,2.1326435 2.7233403,2.0054319 2.6571945,1.8370643 2.591038,1.6757081 2.5248949,1.5213767 2.4587517,1.3670346 2.3144506,1.0583558 2.3144506,1.0583558 Z m -0.082203,1.4385131 0.3054879,0.020796 0.1696138,0.392774 h 0.3936467 l -0.1738551,-0.391795 -0.0032,-0.00849 C 2.6965592,2.5056504 2.2322502,2.4968954 2.2322419,2.4968954 Z"
     style="opacity:0.1;fill:#4571df;fill-opacity:1;stroke-width:0.264583;enable-background:new"
     id="path959"
     sodipodi:nodetypes="ccscccccccccccccc" />
  <path
     id="rect1128"
     style="fill:#f8f8f8;fill-opacity:1;stroke-width:0.529167;stroke-linecap:round;stroke-linejoin:round"
     d="m 1.2567709,2.1166865 h 1.7197915 c 0.1099344,0 0.1984375,0.088503 0.1984375,0.1984375 0,0.1099343 -0.088503,0.1984375 -0.1984375,0.1984375 H 1.2567709 c -0.1099344,0 -0.1984376,-0.088503 -0.1984376,-0.1984375 0,-0.1099344 0.088503,-0.1984375 0.1984376,-0.1984375 z"
     sodipodi:nodetypes="sssssss" />
</svg>
